<?xml version="1.0" encoding="utf-8"?>
<!DOCTYPE svg PUBLIC "-//W3C//DTD SVG 1.1//EN" "http://www.w3.org/Graphics/SVG/1.1/DTD/svg11.dtd">
<svg version="1.1" id="Ebene_1" xmlns="http://www.w3.org/2000/svg" xmlns:xlink="http://www.w3.org/1999/xlink" x="0px" y="0px"
	 width="487.75px" height="164.203px" viewBox="0 0 487.75 164.203" enable-background="new 0 0 487.75 164.203"
	 xml:space="preserve">
<g>
	<defs>
		<rect id="SVGID_1_" width="487.75" height="164.203"/>
	</defs>
	<clipPath id="SVGID_2_">
		<use xlink:href="#SVGID_1_"  overflow="visible"/>
	</clipPath>
	<g clip-path="url(#SVGID_2_)">
		<defs>
			<rect id="SVGID_3_" y="0.203" width="487" height="164"/>
		</defs>
		<clipPath id="SVGID_4_">
			<use xlink:href="#SVGID_3_"  overflow="visible"/>
		</clipPath>
		<path clip-path="url(#SVGID_4_)" fill="#64646A" d="M141.716,137.187h-5.52v9.36c0,0.613,0.013,1.18,0.04,1.7
			c0.026,0.52,0.133,0.974,0.32,1.359c0.186,0.387,0.466,0.694,0.84,0.92c0.373,0.228,0.906,0.34,1.6,0.34
			c0.453,0,0.92-0.053,1.4-0.158c0.48-0.107,0.933-0.268,1.36-0.481l0.12,2.84c-0.534,0.24-1.127,0.413-1.78,0.521
			c-0.654,0.105-1.274,0.16-1.86,0.16c-1.12,0-2.014-0.147-2.68-0.44c-0.667-0.293-1.187-0.706-1.56-1.24
			c-0.374-0.533-0.62-1.193-0.74-1.979s-0.18-1.66-0.18-2.62v-10.28h-4.08v-2.64h4.08v-5.32h3.12v5.32h5.52V137.187z"/>
		<path clip-path="url(#SVGID_4_)" fill="#64646A" d="M145.595,123.026h3.12v14.12h0.08c0.213-0.373,0.506-0.74,0.88-1.1
			c0.373-0.36,0.82-0.687,1.34-0.98c0.52-0.293,1.1-0.533,1.74-0.72c0.64-0.187,1.32-0.28,2.04-0.28c1.226,0,2.286,0.188,3.18,0.561
			c0.893,0.373,1.633,0.894,2.22,1.56c0.587,0.667,1.02,1.474,1.3,2.42c0.28,0.947,0.42,1.98,0.42,3.101v11.56h-3.12v-11.24
			c0-1.573-0.347-2.813-1.04-3.72c-0.694-0.906-1.774-1.36-3.24-1.36c-1.014,0-1.887,0.174-2.62,0.521
			c-0.734,0.347-1.334,0.84-1.8,1.479c-0.467,0.641-0.813,1.4-1.04,2.28s-0.34,1.854-0.34,2.92v9.12h-3.12V123.026z"/>
		<path clip-path="url(#SVGID_4_)" fill="#64646A" d="M184.555,149.866c-1.12,1.44-2.347,2.447-3.68,3.021
			c-1.334,0.573-2.88,0.86-4.64,0.86c-1.467,0-2.787-0.261-3.96-0.78c-1.174-0.521-2.167-1.22-2.98-2.101
			c-0.814-0.88-1.44-1.92-1.88-3.119c-0.44-1.2-0.66-2.48-0.66-3.841c0-1.439,0.24-2.766,0.72-3.979c0.48-1.213,1.146-2.253,2-3.12
			c0.853-0.866,1.866-1.54,3.04-2.021c1.173-0.479,2.453-0.72,3.84-0.72c1.306,0,2.506,0.22,3.6,0.66
			c1.093,0.44,2.033,1.08,2.82,1.92c0.786,0.84,1.393,1.867,1.82,3.08c0.426,1.214,0.64,2.594,0.64,4.14v1h-15.12
			c0.053,0.801,0.246,1.567,0.58,2.301c0.333,0.733,0.766,1.372,1.3,1.92c0.533,0.547,1.16,0.979,1.88,1.3
			c0.72,0.319,1.506,0.479,2.36,0.479c1.36,0,2.506-0.239,3.44-0.72c0.933-0.479,1.773-1.187,2.52-2.12L184.555,149.866z
			 M181.875,142.227c-0.054-1.6-0.574-2.88-1.56-3.84c-0.987-0.96-2.347-1.44-4.08-1.44c-1.734,0-3.134,0.48-4.2,1.44
			c-1.067,0.96-1.707,2.24-1.92,3.84H181.875z"/>
		<path clip-path="url(#SVGID_4_)" fill="#64646A" d="M201.195,138.986c0-0.853-0.027-1.653-0.08-2.399
			c-0.054-0.747-0.08-1.427-0.08-2.04h2.96c0,0.507,0.013,1.014,0.04,1.52c0.026,0.507,0.04,1.027,0.04,1.561h0.08
			c0.213-0.452,0.513-0.894,0.9-1.32c0.386-0.427,0.846-0.807,1.38-1.14c0.533-0.334,1.133-0.601,1.8-0.801
			c0.666-0.199,1.386-0.3,2.16-0.3c1.013,0,1.86,0.127,2.54,0.38c0.68,0.254,1.246,0.562,1.7,0.92c0.453,0.36,0.806,0.747,1.06,1.16
			c0.253,0.414,0.46,0.78,0.62,1.101c0.693-1.119,1.493-1.993,2.4-2.619c0.906-0.628,2.08-0.941,3.52-0.941
			c1.333,0,2.453,0.181,3.36,0.54c0.906,0.36,1.64,0.88,2.2,1.561c0.56,0.68,0.96,1.508,1.2,2.479c0.24,0.974,0.36,2.061,0.36,3.26
			v11.36h-3.12v-11.2c0-0.64-0.067-1.266-0.2-1.88c-0.134-0.613-0.374-1.16-0.72-1.64c-0.347-0.48-0.814-0.866-1.4-1.16
			c-0.587-0.293-1.334-0.44-2.24-0.44c-0.667,0-1.293,0.134-1.88,0.4s-1.1,0.64-1.54,1.12c-0.44,0.479-0.787,1.06-1.04,1.74
			c-0.254,0.68-0.38,1.434-0.38,2.26v10.8h-3.12v-10.6c0-2.08-0.28-3.554-0.84-4.42c-0.56-0.867-1.48-1.301-2.76-1.301
			c-1.014,0-1.887,0.174-2.62,0.521c-0.734,0.347-1.334,0.84-1.8,1.479c-0.467,0.641-0.813,1.4-1.04,2.28s-0.34,1.854-0.34,2.92
			v9.12h-3.12V138.986z"/>
		<path clip-path="url(#SVGID_4_)" fill="#64646A" d="M235.035,136.946c0.96-0.986,2.1-1.713,3.42-2.18
			c1.32-0.466,2.66-0.7,4.02-0.7c2.773,0,4.773,0.654,6,1.96c1.227,1.307,1.84,3.294,1.84,5.96v8.04c0,0.534,0.027,1.087,0.08,1.66
			c0.054,0.574,0.12,1.101,0.2,1.58h-3c-0.106-0.426-0.166-0.9-0.18-1.42c-0.014-0.521-0.021-0.98-0.021-1.38h-0.08
			c-0.613,0.96-1.433,1.747-2.46,2.359c-1.026,0.613-2.26,0.921-3.7,0.921c-0.96,0-1.86-0.12-2.7-0.36
			c-0.84-0.24-1.573-0.593-2.2-1.061c-0.627-0.466-1.127-1.046-1.5-1.739s-0.56-1.493-0.56-2.4c0-1.546,0.4-2.76,1.2-3.64
			c0.8-0.88,1.793-1.533,2.98-1.96c1.186-0.427,2.467-0.693,3.84-0.8s2.633-0.16,3.78-0.16h1.199v-0.561
			c0-1.359-0.406-2.386-1.22-3.08c-0.813-0.692-1.954-1.04-3.42-1.04c-1.014,0-2.007,0.167-2.98,0.5
			c-0.974,0.334-1.833,0.848-2.58,1.54L235.035,136.946z M244.074,144.267c-2,0-3.585,0.28-4.76,0.84
			c-1.174,0.561-1.76,1.48-1.76,2.76c0,1.174,0.394,2.007,1.18,2.5c0.786,0.494,1.766,0.74,2.94,0.74c0.906,0,1.7-0.152,2.38-0.46
			c0.68-0.306,1.247-0.713,1.7-1.22s0.8-1.101,1.04-1.78s0.373-1.406,0.399-2.18v-1.2H244.074z"/>
		<path clip-path="url(#SVGID_4_)" fill="#64646A" d="M274.715,152.427c0,3.413-0.874,6.006-2.62,7.78
			c-1.747,1.772-4.274,2.659-7.58,2.659c-1.84,0-3.5-0.267-4.979-0.8c-1.48-0.533-2.887-1.453-4.221-2.76l2.24-2.56
			c0.986,1.065,2.033,1.873,3.141,2.42c1.105,0.546,2.379,0.819,3.819,0.819c1.386,0,2.54-0.207,3.46-0.62s1.646-0.974,2.18-1.68
			c0.533-0.707,0.906-1.514,1.121-2.42c0.213-0.907,0.319-1.854,0.319-2.84v-2.4h-0.08c-0.747,1.2-1.72,2.08-2.92,2.641
			c-1.2,0.56-2.426,0.84-3.681,0.84c-1.467,0-2.812-0.24-4.039-0.721c-1.227-0.479-2.28-1.146-3.16-2
			c-0.88-0.853-1.561-1.866-2.04-3.039c-0.479-1.174-0.72-2.453-0.72-3.841c0-1.521,0.24-2.893,0.72-4.12
			c0.479-1.226,1.153-2.26,2.021-3.1c0.865-0.84,1.912-1.486,3.14-1.939c1.226-0.453,2.586-0.681,4.079-0.681
			c0.641,0,1.281,0.074,1.921,0.22c0.64,0.147,1.26,0.374,1.86,0.681c0.6,0.307,1.14,0.693,1.619,1.16
			c0.48,0.467,0.881,1.007,1.2,1.62h0.08v-3.2h3.12V152.427z M258.314,143.906c0,0.96,0.174,1.848,0.521,2.66
			c0.347,0.813,0.819,1.521,1.42,2.12c0.6,0.6,1.3,1.073,2.1,1.42s1.653,0.521,2.56,0.521c1.066,0,2.014-0.187,2.841-0.561
			c0.826-0.373,1.526-0.873,2.1-1.5c0.573-0.626,1.007-1.346,1.3-2.16c0.293-0.813,0.44-1.673,0.44-2.58
			c0-1.013-0.16-1.94-0.479-2.779c-0.32-0.84-0.774-1.566-1.36-2.181c-0.586-0.612-1.294-1.086-2.12-1.42
			c-0.827-0.333-1.734-0.5-2.721-0.5s-1.887,0.181-2.699,0.54c-0.814,0.36-1.506,0.854-2.08,1.48c-0.574,0.627-1.02,1.359-1.34,2.2
			C258.475,142.007,258.314,142.92,258.314,143.906"/>
		<path clip-path="url(#SVGID_4_)" fill="#64646A" d="M280.035,127.227c0-0.613,0.22-1.146,0.66-1.6
			c0.439-0.453,0.979-0.681,1.619-0.681c0.641,0,1.18,0.228,1.62,0.681s0.66,0.986,0.66,1.6c0,0.667-0.214,1.214-0.64,1.64
			c-0.428,0.428-0.975,0.641-1.641,0.641s-1.213-0.213-1.64-0.641C280.248,128.44,280.035,127.894,280.035,127.227 M280.755,134.547
			h3.12v18.721h-3.12V134.547z"/>
		<path clip-path="url(#SVGID_4_)" fill="#64646A" d="M303.395,139.227c-0.667-0.8-1.387-1.38-2.16-1.74
			c-0.773-0.359-1.627-0.54-2.561-0.54c-1.039,0-1.959,0.181-2.76,0.54c-0.8,0.36-1.46,0.86-1.98,1.5
			c-0.52,0.641-0.913,1.38-1.18,2.22c-0.267,0.841-0.399,1.74-0.399,2.7s0.153,1.86,0.46,2.7s0.732,1.58,1.279,2.22
			c0.547,0.641,1.207,1.141,1.98,1.5c0.773,0.36,1.641,0.54,2.6,0.54c2.054,0,3.641-0.772,4.76-2.319l2.32,2.2
			c-0.906,1.039-1.974,1.8-3.199,2.279c-1.228,0.48-2.521,0.721-3.881,0.721c-1.439,0-2.76-0.24-3.959-0.721
			c-1.201-0.479-2.221-1.16-3.061-2.04s-1.494-1.92-1.96-3.12c-0.467-1.199-0.7-2.52-0.7-3.96c0-1.413,0.233-2.72,0.7-3.92
			c0.466-1.2,1.126-2.239,1.979-3.12c0.854-0.88,1.873-1.565,3.061-2.06c1.186-0.493,2.5-0.74,3.939-0.74
			c1.387,0,2.699,0.24,3.94,0.72c1.24,0.48,2.326,1.228,3.259,2.24L303.395,139.227z"/>
		<path clip-path="url(#SVGID_4_)" fill="#64646A" d="M319.395,143.906c0-1.466,0.253-2.8,0.76-4c0.506-1.199,1.199-2.232,2.08-3.1
			c0.88-0.866,1.934-1.54,3.16-2.021c1.227-0.479,2.56-0.72,4-0.72c1.439,0,2.773,0.24,4,0.72c1.227,0.48,2.279,1.154,3.16,2.021
			c0.879,0.867,1.572,1.9,2.08,3.1c0.506,1.2,0.76,2.534,0.76,4c0,1.467-0.254,2.801-0.76,4c-0.508,1.2-1.201,2.234-2.08,3.101
			c-0.881,0.866-1.934,1.54-3.16,2.02c-1.227,0.48-2.561,0.721-4,0.721c-1.44,0-2.773-0.24-4-0.721
			c-1.227-0.479-2.28-1.153-3.16-2.02c-0.881-0.866-1.574-1.9-2.08-3.101C319.647,146.707,319.395,145.373,319.395,143.906
			 M322.754,143.906c0,0.987,0.153,1.9,0.461,2.74c0.306,0.84,0.752,1.574,1.34,2.2c0.586,0.627,1.285,1.12,2.1,1.479
			c0.812,0.36,1.727,0.54,2.74,0.54c1.013,0,1.926-0.18,2.74-0.54c0.812-0.359,1.513-0.853,2.1-1.479
			c0.586-0.626,1.033-1.36,1.34-2.2s0.46-1.753,0.46-2.74c0-0.986-0.153-1.899-0.46-2.739c-0.307-0.841-0.754-1.573-1.34-2.2
			c-0.587-0.626-1.287-1.12-2.1-1.48c-0.814-0.359-1.728-0.54-2.74-0.54c-1.014,0-1.928,0.181-2.74,0.54
			c-0.814,0.36-1.514,0.854-2.1,1.48c-0.588,0.627-1.034,1.359-1.34,2.2C322.907,142.007,322.754,142.92,322.754,143.906"/>
		<path clip-path="url(#SVGID_4_)" fill="#64646A" d="M345.834,137.187h-4.08v-2.64h4.08v-4.2c0-1.146,0.105-2.193,0.32-3.139
			c0.213-0.947,0.58-1.768,1.1-2.461s1.206-1.233,2.061-1.62c0.853-0.387,1.906-0.58,3.16-0.58c0.399,0,0.826,0.04,1.279,0.12
			s0.826,0.199,1.12,0.359l-0.44,2.8c-0.746-0.266-1.453-0.399-2.119-0.399c-0.801,0-1.428,0.14-1.881,0.42s-0.793,0.667-1.02,1.16
			s-0.36,1.087-0.4,1.779c-0.039,0.694-0.06,1.44-0.06,2.24v3.521h4.56v2.64h-4.56v16.08h-3.12V137.187z"/>
		<path clip-path="url(#SVGID_4_)" fill="#64646A" d="M378.193,137.187h-5.52v9.36c0,0.613,0.014,1.18,0.041,1.7
			c0.025,0.52,0.132,0.974,0.318,1.359c0.187,0.387,0.467,0.694,0.84,0.92c0.373,0.228,0.906,0.34,1.601,0.34
			c0.453,0,0.92-0.053,1.399-0.158c0.48-0.107,0.934-0.268,1.361-0.481l0.119,2.84c-0.533,0.24-1.127,0.413-1.779,0.521
			c-0.654,0.105-1.274,0.16-1.859,0.16c-1.121,0-2.016-0.147-2.682-0.44s-1.187-0.706-1.56-1.24
			c-0.374-0.533-0.62-1.193-0.739-1.979c-0.121-0.786-0.181-1.66-0.181-2.62v-10.28h-4.08v-2.64h4.08v-5.32h3.12v5.32h5.52V137.187z
			"/>
		<path clip-path="url(#SVGID_4_)" fill="#64646A" d="M398.754,149.866c-1.121,1.44-2.348,2.447-3.681,3.021
			c-1.334,0.573-2.88,0.86-4.64,0.86c-1.467,0-2.787-0.261-3.961-0.78c-1.174-0.521-2.166-1.22-2.979-2.101
			c-0.813-0.88-1.441-1.92-1.88-3.119c-0.439-1.2-0.66-2.48-0.66-3.841c0-1.439,0.24-2.766,0.721-3.979
			c0.479-1.213,1.146-2.253,2-3.12c0.853-0.866,1.865-1.54,3.039-2.021c1.173-0.479,2.453-0.72,3.839-0.72
			c1.308,0,2.508,0.22,3.602,0.66c1.093,0.44,2.033,1.08,2.819,1.92c0.787,0.84,1.394,1.867,1.82,3.08
			c0.426,1.214,0.641,2.594,0.641,4.14v1h-15.12c0.053,0.801,0.246,1.567,0.579,2.301c0.334,0.733,0.768,1.372,1.301,1.92
			c0.533,0.547,1.16,0.979,1.88,1.3c0.72,0.319,1.507,0.479,2.36,0.479c1.359,0,2.506-0.239,3.439-0.72
			c0.934-0.479,1.773-1.187,2.52-2.12L398.754,149.866z M396.073,142.227c-0.054-1.6-0.573-2.88-1.56-3.84
			c-0.987-0.96-2.348-1.44-4.08-1.44c-1.734,0-3.135,0.48-4.2,1.44c-1.067,0.96-1.707,2.24-1.92,3.84H396.073z"/>
		<path clip-path="url(#SVGID_4_)" fill="#64646A" d="M404.674,148.347c0.613,0.773,1.286,1.387,2.02,1.84
			c0.733,0.454,1.66,0.681,2.78,0.681c0.479,0,0.966-0.054,1.46-0.16c0.493-0.106,0.939-0.28,1.34-0.521s0.721-0.54,0.96-0.9
			c0.24-0.359,0.36-0.793,0.36-1.3c0-0.506-0.114-0.92-0.34-1.239c-0.228-0.32-0.527-0.594-0.9-0.82
			c-0.374-0.226-0.8-0.406-1.28-0.54c-0.479-0.133-0.974-0.253-1.479-0.36c-0.881-0.186-1.721-0.399-2.521-0.64s-1.5-0.554-2.1-0.94
			c-0.601-0.386-1.08-0.886-1.44-1.5c-0.359-0.613-0.539-1.399-0.539-2.359c0-0.906,0.199-1.707,0.6-2.4s0.933-1.267,1.6-1.72
			c0.666-0.453,1.413-0.8,2.24-1.04c0.826-0.24,1.68-0.36,2.561-0.36c1.332,0,2.565,0.267,3.699,0.801
			c1.133,0.533,2.02,1.399,2.66,2.6l-2.6,1.72c-0.4-0.666-0.928-1.206-1.58-1.62c-0.654-0.413-1.447-0.62-2.381-0.62
			c-0.426,0-0.859,0.054-1.299,0.16c-0.44,0.107-0.834,0.267-1.181,0.48s-0.634,0.486-0.86,0.819
			c-0.227,0.335-0.34,0.714-0.34,1.141c0,0.399,0.127,0.739,0.381,1.02c0.252,0.28,0.6,0.527,1.039,0.74
			c0.44,0.214,0.946,0.4,1.521,0.561c0.573,0.159,1.166,0.293,1.78,0.399c0.826,0.16,1.613,0.367,2.359,0.62
			c0.746,0.254,1.4,0.594,1.959,1.02c0.561,0.427,1,0.961,1.321,1.601c0.319,0.64,0.479,1.427,0.479,2.36
			c0,1.066-0.213,1.974-0.64,2.72s-0.994,1.354-1.7,1.819c-0.707,0.467-1.507,0.808-2.4,1.021s-1.807,0.32-2.739,0.32
			c-1.601,0-2.979-0.247-4.14-0.74s-2.207-1.406-3.141-2.74L404.674,148.347z"/>
		<path clip-path="url(#SVGID_4_)" fill="#64646A" d="M431.554,137.187h-5.521v9.36c0,0.613,0.014,1.18,0.041,1.7
			c0.025,0.52,0.133,0.974,0.319,1.359c0.187,0.387,0.466,0.694,0.84,0.92c0.373,0.228,0.906,0.34,1.601,0.34
			c0.453,0,0.92-0.053,1.399-0.158c0.479-0.107,0.933-0.268,1.36-0.481l0.119,2.84c-0.533,0.24-1.127,0.413-1.779,0.521
			c-0.654,0.105-1.273,0.16-1.859,0.16c-1.121,0-2.015-0.147-2.681-0.44c-0.667-0.293-1.187-0.706-1.56-1.24
			c-0.374-0.533-0.621-1.193-0.74-1.979c-0.12-0.786-0.18-1.66-0.18-2.62v-10.28h-4.08v-2.64h4.08v-5.32h3.119v5.32h5.521V137.187z"
			/>
		<path clip-path="url(#SVGID_4_)" fill="#64646A" d="M434.993,127.227c0-0.613,0.22-1.146,0.66-1.6s0.979-0.681,1.62-0.681
			c0.64,0,1.18,0.228,1.619,0.681c0.44,0.453,0.66,0.986,0.66,1.6c0,0.667-0.213,1.214-0.64,1.64
			c-0.427,0.428-0.974,0.641-1.64,0.641c-0.667,0-1.214-0.213-1.641-0.641C435.206,128.44,434.993,127.894,434.993,127.227
			 M435.713,134.547h3.12v18.721h-3.12V134.547z"/>
		<path clip-path="url(#SVGID_4_)" fill="#64646A" d="M445.033,138.986c0-0.853-0.027-1.653-0.08-2.399
			c-0.055-0.747-0.08-1.427-0.08-2.04h2.959c0,0.507,0.014,1.014,0.041,1.52c0.025,0.507,0.039,1.027,0.039,1.561h0.08
			c0.214-0.452,0.514-0.894,0.9-1.32s0.846-0.807,1.381-1.14c0.532-0.334,1.133-0.601,1.799-0.801c0.666-0.199,1.387-0.3,2.16-0.3
			c1.227,0,2.287,0.188,3.18,0.561c0.894,0.373,1.634,0.894,2.221,1.56c0.586,0.667,1.02,1.474,1.3,2.42
			c0.28,0.947,0.42,1.98,0.42,3.101v11.56h-3.12v-11.24c0-1.573-0.347-2.812-1.039-3.72c-0.694-0.906-1.774-1.36-3.24-1.36
			c-1.014,0-1.887,0.174-2.621,0.521c-0.732,0.347-1.333,0.84-1.799,1.479c-0.467,0.641-0.814,1.4-1.041,2.28s-0.34,1.854-0.34,2.92
			v9.12h-3.119V138.986z"/>
		<path clip-path="url(#SVGID_4_)" fill="#64646A" d="M485.952,152.427c0,3.413-0.874,6.006-2.62,7.78
			c-1.747,1.772-4.273,2.659-7.58,2.659c-1.84,0-3.5-0.267-4.98-0.8c-1.479-0.533-2.887-1.453-4.219-2.76l2.239-2.56
			c0.986,1.065,2.032,1.873,3.14,2.42c1.106,0.546,2.381,0.819,3.82,0.819c1.387,0,2.54-0.207,3.46-0.62s1.646-0.974,2.181-1.68
			c0.533-0.707,0.906-1.514,1.119-2.42c0.213-0.907,0.32-1.854,0.32-2.84v-2.4h-0.08c-0.746,1.2-1.721,2.08-2.92,2.641
			c-1.2,0.56-2.427,0.84-3.68,0.84c-1.467,0-2.814-0.24-4.041-0.721c-1.227-0.479-2.279-1.146-3.159-2
			c-0.88-0.853-1.56-1.866-2.04-3.039c-0.48-1.174-0.721-2.453-0.721-3.841c0-1.521,0.24-2.893,0.721-4.12
			c0.48-1.226,1.152-2.26,2.02-3.1s1.914-1.486,3.141-1.939s2.586-0.681,4.08-0.681c0.64,0,1.279,0.074,1.92,0.22
			c0.64,0.147,1.26,0.374,1.859,0.681s1.141,0.693,1.621,1.16c0.479,0.467,0.879,1.007,1.199,1.62h0.08v-3.2h3.12V152.427z
			 M469.553,143.906c0,0.96,0.172,1.848,0.52,2.66c0.346,0.813,0.82,1.521,1.42,2.12s1.3,1.073,2.1,1.42
			c0.801,0.347,1.653,0.521,2.561,0.521c1.066,0,2.013-0.187,2.84-0.561c0.826-0.373,1.525-0.873,2.1-1.5
			c0.573-0.626,1.006-1.346,1.301-2.16c0.293-0.813,0.439-1.673,0.439-2.58c0-1.013-0.16-1.94-0.48-2.779
			c-0.32-0.84-0.773-1.566-1.359-2.181c-0.587-0.612-1.294-1.086-2.12-1.42c-0.827-0.333-1.733-0.5-2.72-0.5
			c-0.987,0-1.887,0.181-2.7,0.54c-0.813,0.36-1.507,0.854-2.08,1.48c-0.573,0.627-1.021,1.359-1.341,2.2
			C469.712,142.007,469.553,142.92,469.553,143.906"/>
	</g>
</g>
<g>
	<defs>
		<rect id="SVGID_5_" x="132.203" y="3.414" width="329.81" height="112.195"/>
	</defs>
	<clipPath id="SVGID_6_">
		<use xlink:href="#SVGID_5_"  overflow="visible"/>
	</clipPath>
	<path clip-path="url(#SVGID_6_)" fill="#1A171B" d="M450.779,10.03c-31.858,0-47.709,24.938-47.709,49.868
		s15.851,49.709,47.557,49.709c2.925,0,7.695-0.154,11.079-0.46l0.307,4.617c-3.385,0.306-8.155,0.46-11.386,0.46
		c-34.784,0-52.174-27.083-52.174-54.326c0-27.396,17.39-54.485,52.326-54.485c3.232,0,7.849,0.153,11.233,0.466l-0.307,4.617
		C458.322,10.184,453.705,10.03,450.779,10.03"/>
	<path clip-path="url(#SVGID_6_)" fill="#1A171B" d="M383.216,22.343l-4.311,1.852c-4.311-9.7-13.078-14.624-23.238-15.237V4.341
		C367.673,4.954,378.292,10.804,383.216,22.343"/>
	<path clip-path="url(#SVGID_6_)" fill="#1A171B" d="M349.511,110.993v4.616c-12.158-0.612-22.626-6.463-27.549-18.161l4.311-1.847
		C330.583,105.297,339.352,110.38,349.511,110.993"/>
	<path clip-path="url(#SVGID_6_)" fill="#1A171B" d="M379.212,86.062c0-12.933-15.077-19.701-27.396-24.011
		c-13.844-4.771-30.467-12.466-30.467-28.316c0-16.622,12.771-28.475,29.7-29.394v4.617c-14.463,0.919-25.084,10.926-25.084,24.777
		c0,12.925,15.077,19.701,27.396,24.005c13.851,4.777,30.468,12.472,30.468,28.322c0,16.623-12.926,28.628-29.701,29.548v-4.617
		C368.439,109.913,379.212,100.066,379.212,86.062"/>
	<polygon clip-path="url(#SVGID_6_)" fill="#1A171B" points="284.873,80.059 286.564,84.677 245.012,84.677 246.704,80.059 	"/>
	<polygon clip-path="url(#SVGID_6_)" fill="#1A171B" points="291.468,84.677 268.249,23.115 268.243,23.115 265.791,16.579 
		263.333,23.115 263.327,23.115 240.115,84.677 228.855,114.53 224.544,112.991 265.791,3.415 307.038,112.991 307.031,112.991 
		302.727,114.53 	"/>
	<rect x="190.379" y="15.267" clip-path="url(#SVGID_6_)" fill="#1A171B" width="4.617" height="98.497"/>
	<rect x="156.827" y="6.033" clip-path="url(#SVGID_6_)" fill="#1A171B" width="71.721" height="4.617"/>
	<rect x="133.742" y="31.27" clip-path="url(#SVGID_6_)" fill="#1A171B" width="4.617" height="82.494"/>
	<rect x="132.203" y="6.033" clip-path="url(#SVGID_6_)" fill="#F29400" width="7.695" height="7.695"/>
</g>
<g>
	<defs>
		<rect id="SVGID_7_" y="0.203" width="487" height="164"/>
	</defs>
	<clipPath id="SVGID_8_">
		<use xlink:href="#SVGID_7_"  overflow="visible"/>
	</clipPath>
	<path clip-path="url(#SVGID_8_)" fill="#1A171B" d="M118.818,60.361c0,12.492-3.91,24.065-10.58,33.565l-7.688-7.688
		c4.811-7.469,7.608-16.35,7.608-25.877c0-25.624-20.233-46.604-45.564-47.809V1.884c15.25,0.587,28.995,7.01,39.082,17.097
		C112.27,29.573,118.818,44.198,118.818,60.361"/>
	<path clip-path="url(#SVGID_8_)" fill="#F29400" d="M106.373,98.569L105.9,98.09l-0.473-0.473l-7.595-7.589v-0.007l-0.473-0.473
		l-0.473-0.466v-0.007l-6.409-6.409l-8.542-8.535l16.716-3.498l-36.057-9.66l-2.298-0.613l2.298,8.575l7.982,29.774L74.067,82
		L89.01,96.944l0.474,0.479l0.479,0.473c-7.601,6.018-17.062,9.781-27.369,10.274v10.666c13.265-0.514,25.391-5.437,34.958-13.345
		l0.473,0.473l0.479,0.474l13.272,13.271l7.875-7.868L106.38,98.569H106.373z"/>
	<path clip-path="url(#SVGID_8_)" fill="#1A171B" d="M57.991,108.171v10.667c-15.244-0.588-28.988-7.01-39.075-17.097
		C8.323,91.148,1.773,76.524,1.773,60.36c0-16.163,6.549-30.787,17.142-41.38C29.002,8.894,42.747,2.471,57.991,1.884v10.667
		C32.66,13.757,12.433,34.736,12.433,60.36S32.66,106.964,57.991,108.171"/>
</g>
</svg>
