<?xml version="1.0" encoding="utf-8"?>
<!-- Generator: Adobe Illustrator 16.0.0, SVG Export Plug-In . SVG Version: 6.00 Build 0)  -->
<!DOCTYPE svg PUBLIC "-//W3C//DTD SVG 1.1//EN" "http://www.w3.org/Graphics/SVG/1.1/DTD/svg11.dtd">
<svg version="1.1" id="Ebene_1" xmlns="http://www.w3.org/2000/svg" xmlns:xlink="http://www.w3.org/1999/xlink" x="0px" y="0px"
	 width="263.5px" height="210.25px" viewBox="0 0 263.5 210.25" enable-background="new 0 0 263.5 210.25" xml:space="preserve">
<g id="Ebene_2">
	<path fill="none" stroke="#EBECEB" stroke-width="4" stroke-linecap="round" stroke-linejoin="round" stroke-miterlimit="10" d="
		M4,18c0,0,12.571-9.208,15.558-9.349C22.545,8.51,4,31,4,31L30.5,5.771L4,38.5L40.997,7.885L4,46L57.509,7.48L8.666,53
		l58.82-45.728L8.666,67.5L79.492,7.049L8.666,80.135L88.5,5.771L4,94.5L99.5,5.771L4,101.5L110.5,5.771L5,109L125,5.771L4.25,119.5
		L142.502,6.188L8.75,129.75L157,3.5L8,139.5l156-136L4.5,152.25l168-146.319L4.5,163.25L180.493,5.879L4,172.5L185.996,5.849L5,183
		L195,5.771L11.5,189.75L204.5,3.5L5.25,205.917L209.5,3.5L14.583,207.583L217.5,3.5L27.917,207.25L225,8L38.25,208.583
		L232.502,13.145L53.25,205.917L241,9.5L64.917,206.917L249,10.5L77.917,206.917L257.003,8L89.917,206.25L257.003,15.5
		l-151.42,185.417L259.5,22L112.917,206.25L259.5,31.5L128.583,202.917L256.227,40.005L135.25,206.25L257.003,44L146.584,204.25
		L256.501,55.993L165.75,188.25L257.003,63l-93.419,137.917L257.003,71l-89.086,133.583L256.758,79.25l-78.841,123.667L257.003,87
		L191.25,191.25l65.753-97.75l-59.253,97.75L253,106.5l-62.75,100.417L252.5,115l-50.25,87.917l48.217-79.417l-40.55,79.083
		L248.5,132l-30.25,71.583L248.5,139.5l-21.25,65.417l24.384-57.829l-15.717,57.495L257.003,149"/>
	
		<polyline fill="none" stroke="#64646A" stroke-width="5" stroke-linecap="round" stroke-linejoin="round" stroke-miterlimit="10" points="
		100.75,116.258 100.75,86.253 70.28,86.987 127.75,42.253 200.75,84.753 161.25,87.253 164.75,119.258 166.75,91.753 
		194.75,90.253 126.75,35.253 59.759,89.506 94.25,90.753 93.25,123.758 	"/>
	<path fill="none" stroke="#64646A" stroke-width="5" stroke-linecap="round" stroke-linejoin="round" stroke-miterlimit="10" d="
		M7,18.75c0,0-6,169.258,2.5,173.258s246,3.002,246,3.002S262.098,8,259.25,6C256.4,4,8.781,4.238,8.75,6.75S13,204.76,13,204.76
		l238-5.501L250.5,10.5c0,0-233,0.75-236,2.75"/>
	<path fill="none" stroke="#64646A" stroke-width="5" stroke-linecap="round" stroke-linejoin="round" stroke-miterlimit="10" d="
		M109.225,144.341c0,0-1.057,15.455,7,15.969c8.057,0.515,11.657-0.541,9.771-16.141c1.2,8.742,5.998,23.114-10.628,21.742
		c-10.8-3.085-7.535-12.125-7.2-18.999"/>
	<path fill="none" stroke="#64646A" stroke-width="5" stroke-linecap="round" stroke-linejoin="round" stroke-miterlimit="10" d="
		M134.654,141.282l2.427,35.971c0,0-1.598-30.855,4.402-35.655c4.071-3.257,11.567-2.059,14.742,4.114
		c3.085,5.999-1.687,10.655-5.287,12.541c-3.522,1.844-10.484,2.372-10.826-5.856c-0.344-8.228,12.216-17.511,18.63-11.772
		c9.77,8.742-1.492,31.501-17.944,18.116"/>
</g>
</svg>
