<?xml version="1.0" encoding="UTF-8" standalone="no"?>
<!-- Generator: Adobe Illustrator 16.0.0, SVG Export Plug-In . SVG Version: 6.00 Build 0)  -->

<svg
   xmlns:dc="http://purl.org/dc/elements/1.1/"
   xmlns:cc="http://creativecommons.org/ns#"
   xmlns:rdf="http://www.w3.org/1999/02/22-rdf-syntax-ns#"
   xmlns:svg="http://www.w3.org/2000/svg"
   xmlns="http://www.w3.org/2000/svg"
   xmlns:xlink="http://www.w3.org/1999/xlink"
   xmlns:sodipodi="http://sodipodi.sourceforge.net/DTD/sodipodi-0.dtd"
   xmlns:inkscape="http://www.inkscape.org/namespaces/inkscape"
   version="1.1"
   id="Ebene_2"
   x="0px"
   y="0px"
   width="538.087px"
   height="479.037px"
   viewBox="0 0 538.087 479.037"
   enable-background="new 0 0 538.087 479.037"
   xml:space="preserve"
   inkscape:version="0.91 r13725"
   sodipodi:docname="Magier_Jobdecription_Team.svg"><metadata
     id="metadata4427"><rdf:RDF><cc:Work
         rdf:about=""><dc:format>image/svg+xml</dc:format><dc:type
           rdf:resource="http://purl.org/dc/dcmitype/StillImage" /></cc:Work></rdf:RDF></metadata><defs
     id="defs4425" /><sodipodi:namedview
     pagecolor="#ffffff"
     bordercolor="#666666"
     borderopacity="1"
     objecttolerance="10"
     gridtolerance="10"
     guidetolerance="10"
     inkscape:pageopacity="0"
     inkscape:pageshadow="2"
     inkscape:window-width="1855"
     inkscape:window-height="1056"
     id="namedview4423"
     showgrid="false"
     inkscape:zoom="1.9184322"
     inkscape:cx="269.04349"
     inkscape:cy="239.51849"
     inkscape:window-x="3905"
     inkscape:window-y="24"
     inkscape:window-maximized="1"
     inkscape:current-layer="Ebene_2" /><path
     d="M410.896,153.087c0,0-2.66-55.547-21.287-86.813c10.977-7.983,56.795-26.943,88.062-20.29  c-6.986,45.569-16.819,93.373-20.332,105.523c-13.471-2.744-35.175-2.37-46.401,2.37"
     id="path4343" /><path
     fill="#F7941E"
     d="M408.63,198.842c0,0-3.742-3.804-0.811-4.241c2.931-0.437,1.995-0.998,1.247-2.494  c-0.748-1.497-2.183-2.558,0.374-4.054s2.766-1.934,0.385-4.179c-2.941-3.492-2.387-4.241-0.73-5.114  c1.406-0.936,2.341-2.869,0.72-4.553s-1.502-3.804-0.72-4.054c0.783-0.25,3.714-1.248,2.03-4.054  c-1.685-2.806-5.177-9.167-0.624-12.036s25.133-7.421,48.521-2.245c2.432,0.436,3.43,5.301,1.87,5.862  c-1.56,0.562-1.746,0.499-1.061,1.809c0.687,1.31,4.116,6.236,0.624,7.109c-1.871,0.562-2.744,1.622-1.56,2.183  s2.682,1.559,2.059,3.617c-0.624,2.058,0,4.491,1.31,7.297c1.31,2.807,1.871,4.428,0,5.675c-1.871,1.247-0.748,2.993-0.188,3.555  c0.562,0.562,2.308,2.932-0.124,5.738c-2.433,2.807-2.62,4.428-0.749,4.74s4.179,1.281-0.811,3.619  C455.187,203.99,416.956,202.397,408.63,198.842"
     id="path4345" /><path
     d="M500.495,205.89c0,0-36.048,9.355-127.477-7.608c-4.615-1.372-3.741-2.744-0.748-2.869c13.097,0,32.057,1.622,38.293,4.117  c4.989,1.622,40.912,3.617,50.017,3.492c4.741-0.25,17.463-1.497,20.582-2.12C484.279,200.277,495.88,198.531,500.495,205.89z"
     id="path4347" /><path
     d="M436.942,479.036c0.563-0.119,1.192-0.168,1.895-0.149c4.073-3.41,11.143-7.817,15.634-10.562  c28.083-17.04,60.431-35.611,83.616-49.182c0-14.94,0-39.44-0.002-57.316c-29.287-17.408-72.752-42.915-73.387-48.17  c-0.749-5.904,7.067-3.742,12.805-3.326c-2.494-5.321-8.481-11.641-11.724-15.051c-3.243-3.41-12.64-24.115-13.056-27.773  c-1.497,13.388-2.91,24.198-6.486,32.43s-33.929,75.672-37.67,81.991c0,0,10.977-41.078,12.641-48.23  c1.663-7.151,5.487-24.281-1.996-38.917c-3.659-8.98-6.818-19.957-6.818-19.957c1.163,8.149,2.577,22.119,1.828,24.613  c-0.748,2.495-3.076,5.156-5.654,2.828c-2.577-2.329-6.984-6.902-12.474-6.32c-9.646,0.832-9.894,3.077-19.042,4.74  c-17.961,3.659-76.586,10.727-79.33,11.809c-1.497-7.4-0.915-20.124-0.666-29.853c0.25-9.729,2.827-66.524,3.243-72.012  c-1.829,0.666-5.156,1.414-7.982-3.575c-3.576-6.071-7.495-19.773-14.397-22.518c-8.481-2.993-35.256-8.752-37.833-10  c2.329,3.659,5.087,7.336,6.667,8.667c1.581,1.331,8.911,1.133,25.458,5.208c1.75,0.625,3.89,5.004,3.308,5.753  c-0.582,0.748-1.746,0.583-5.82-0.166c-4.075-0.748-28.023,2.911-31.017,2.495c-2.994-0.416-20.373-8.066-44.238-8.398  c-3.991,1.33-11.559,5.156-9.064,5.904c2.495,0.749,32.514,4.573,42.742,10.062c-6.32-1.913-26.527-7.65-38.501-5.655  c-2.744,0.748-0.749,1.579,0.748,2.245c1.498,0.666,6.071,1.664,6.071,1.664s-4.906-0.083-5.987,0.998  c-1.082,1.081,1.414,1.829,3.409,1.913c1.996,0.083,12.556,0.748,26.194,8.398c9.812,5.156,11.142,5.155,13.387,4.74  c5.655-1.081,31.682-7.733,38.667-6.902c3.909,0.666,7.318,0.666,7.651,6.902c0.166,1.58,0.083,2.993,0.083,2.993  s-3.077,95.046,4.075,112.675c6.652,3.326,40.08-4.407,47.689-5.28c7.608-0.873,53.26-6.985,70.723-4.865  c-4.74,15.841-8.606,28.439-13.097,47.897c-4.242,16.34-19.334,82.323-19.085,101.782c0.013,0.973,0.06,2.827,0.138,5.471   M538.087,400.322c-9.148,3.876-32.479,18.084-40.377,23.35c-7.733,4.906-75.504,51.473-75.504,51.473s0.662,3.893-0.268,3.892  c-0.273,0-0.966-0.002-0.966-0.002c-0.837-2.81-2.384-6.603-4.671-10.875c-3.16-5.904-7.733-7.567-6.901-15.218  c4.49-41.245,52.304-98.871,52.304-98.871c11.848,5.823,56.789,26.471,76.385,34.405  C538.087,392.704,538.087,396.371,538.087,400.322z"
     id="path4349" /><g
     id="g4351"><g
       id="g4353"><defs
         id="defs4355"><rect
           id="SVGID_1_"
           x="32.489"
           y="55.036"
           width="348.26"
           height="117.243" /></defs><clipPath
         id="SVGID_2_"><use
           xlink:href="#SVGID_1_"
           overflow="visible"
           id="use4359" /></clipPath><g
         clip-path="url(#SVGID_2_)"
         id="g4361"><defs
           id="defs4363"><rect
             id="SVGID_3_"
             x="32.489"
             y="55.036"
             width="348.26"
             height="117.243" /></defs><clipPath
           id="SVGID_4_"><use
             xlink:href="#SVGID_3_"
             overflow="visible"
             id="use4367" /></clipPath><g
           clip-path="url(#SVGID_4_)"
           id="g4369"><text
             id="text4371"
             x="84.114059"
             y="165.51321"><tspan
               x="84.114059"
               y="165.51321"
               font-size="28.5605"
               id="tspan4373"
               style="font-size:28.56049919px;font-family:Avenir-Roman;fill:#8c8c8e">the magic of testing</tspan></text>
</g></g><g
         clip-path="url(#SVGID_2_)"
         id="g4381"><defs
           id="defs4383"><rect
             id="SVGID_5_"
             x="126.885"
             y="57.478"
             width="235.488"
             height="80.109" /></defs><clipPath
           id="SVGID_6_"><use
             xlink:href="#SVGID_5_"
             overflow="visible"
             id="use4387" /></clipPath><path
           clip-path="url(#SVGID_6_)"
           fill="#231F20"
           d="M354.353,62.202c-22.748,0-34.065,17.805-34.065,35.606     c0,17.801,11.317,35.493,33.956,35.493c2.089,0,5.494-0.109,7.91-0.328l0.22,3.296c-2.417,0.219-5.823,0.329-8.13,0.329     c-24.836,0-37.253-19.337-37.253-38.79c0-19.561,12.417-38.903,37.362-38.903c2.308,0,5.604,0.109,8.021,0.333l-0.22,3.296     C359.737,62.312,356.44,62.202,354.353,62.202"
           id="path4389" /><path
           clip-path="url(#SVGID_6_)"
           fill="#231F20"
           d="M306.111,70.993l-3.079,1.323c-3.077-6.926-9.338-10.442-16.592-10.879     v-3.297C295.013,58.577,302.596,62.754,306.111,70.993"
           id="path4391" /><path
           clip-path="url(#SVGID_6_)"
           fill="#231F20"
           d="M282.045,134.291v3.296c-8.682-0.438-16.155-4.614-19.67-12.968l3.077-1.318     C268.531,130.223,274.791,133.853,282.045,134.291"
           id="path4393" /><path
           clip-path="url(#SVGID_6_)"
           fill="#231F20"
           d="M303.252,116.49c0-9.233-10.765-14.067-19.562-17.144     c-9.885-3.407-21.753-8.901-21.753-20.218c0-11.868,9.12-20.332,21.207-20.988v3.297c-10.328,0.656-17.911,7.801-17.911,17.691     c0,9.229,10.766,14.067,19.561,17.14c9.89,3.411,21.755,8.906,21.755,20.223c0,11.869-9.23,20.44-21.207,21.097v-3.296     C295.56,133.519,303.252,126.488,303.252,116.49"
           id="path4395" /><polygon
           clip-path="url(#SVGID_6_)"
           fill="#231F20"
           points="235.893,112.203 237.101,115.5 207.431,115.5 208.64,112.203    "
           id="polygon4397" /><polygon
           clip-path="url(#SVGID_6_)"
           fill="#231F20"
           points="240.602,115.5 224.023,71.545 224.019,71.545 222.268,66.878      220.513,71.545 220.508,71.545 203.935,115.5 195.896,136.816 192.817,135.717 222.268,57.478 251.719,135.717 251.714,135.717      248.641,136.816    "
           id="polygon4399" /><rect
           x="168.423"
           y="65.94"
           clip-path="url(#SVGID_6_)"
           fill="#231F20"
           width="3.296"
           height="70.329"
           id="rect4401" /><rect
           x="144.467"
           y="59.348"
           clip-path="url(#SVGID_6_)"
           fill="#231F20"
           width="51.209"
           height="3.297"
           id="rect4403" /><rect
           x="127.984"
           y="77.367"
           clip-path="url(#SVGID_6_)"
           fill="#231F20"
           width="3.297"
           height="58.902"
           id="rect4405" /><rect
           x="126.884"
           y="59.348"
           clip-path="url(#SVGID_6_)"
           fill="#F4932F"
           width="5.495"
           height="5.494"
           id="rect4407" /></g><g
         clip-path="url(#SVGID_2_)"
         id="g4409"><defs
           id="defs4411"><rect
             id="SVGID_7_"
             x="32.489"
             y="55.036"
             width="348.26"
             height="117.243" /></defs><clipPath
           id="SVGID_8_"><use
             xlink:href="#SVGID_7_"
             overflow="visible"
             id="use4415" /></clipPath><path
           clip-path="url(#SVGID_8_)"
           fill="#231F20"
           d="M117.327,98.139c0,8.919-2.792,17.183-7.554,23.966l-5.489-5.489     c3.435-5.333,5.432-11.674,5.432-18.477c0-18.296-14.447-33.276-32.533-34.137v-7.616c10.889,0.419,20.703,5.005,27.905,12.208     C112.651,76.155,117.327,86.598,117.327,98.139"
           id="path4417" /><path
           clip-path="url(#SVGID_8_)"
           fill="#F4932F"
           d="M108.441,125.42l-0.338-0.343l-0.337-0.337l-5.423-5.418v-0.005l-0.338-0.338     l-0.338-0.333v-0.005l-4.576-4.577l-6.099-6.094l11.935-2.498l-25.745-6.896l-1.641-0.438l1.641,6.123l5.699,21.259l2.493-11.931     l10.669,10.67l0.338,0.342l0.342,0.338c-5.427,4.296-12.183,6.983-19.542,7.335v7.616c9.472-0.366,18.129-3.881,24.96-9.528     l0.338,0.337l0.342,0.339l9.477,9.475l5.623-5.618l-9.476-9.476H108.441z"
           id="path4419" /><path
           clip-path="url(#SVGID_8_)"
           fill="#231F20"
           d="M73.896,132.275v7.616c-10.884-0.419-20.698-5.004-27.9-12.207     c-7.563-7.564-12.24-18.006-12.24-29.547c0-11.54,4.677-21.982,12.24-29.545c7.202-7.202,17.016-11.788,27.9-12.207v7.616     c-18.086,0.861-32.529,15.84-32.529,34.136C41.367,116.434,55.809,131.414,73.896,132.275"
           id="path4421" /></g></g></g></svg>