<?xml version="1.0" encoding="utf-8"?>
<!-- Generator: Adobe Illustrator 16.0.0, SVG Export Plug-In . SVG Version: 6.00 Build 0)  -->
<!DOCTYPE svg PUBLIC "-//W3C//DTD SVG 1.1//EN" "http://www.w3.org/Graphics/SVG/1.1/DTD/svg11.dtd">
<svg version="1.1" id="Ebene_2" xmlns="http://www.w3.org/2000/svg" xmlns:xlink="http://www.w3.org/1999/xlink" x="0px" y="0px"
	 width="94px" height="89px" viewBox="150.5 104.5 94 89" enable-background="new 150.5 104.5 94 89" xml:space="preserve">
<path fill="none" stroke="#BFC2C9" stroke-width="2" stroke-linecap="round" stroke-linejoin="round" stroke-miterlimit="10" d="
	M227.622,139.138c0,0-29.673,4.774-34.976,29.414c3.443,2.052,14.198,3.709,14.198,3.709l-23.53,11.444l-10.32-24.408
	c0,0,9.833,7.597,12.083,7.526c2.842-11.508,11.713-34.472,32.294-49.905c0,0-28.631,19.708-33.424,47.598
	c-7.382-2.418-12.824-4.088-12.824-4.088s10.502,22.157,10.752,22.28c0.25,0.123,23.157-10.942,23.157-10.942l-11.449-3.592
	c0,0,9.169-28.151,36.1-30.979"/>
</svg>
