<svg id="sQedule" xmlns="http://www.w3.org/2000/svg" viewBox="0 0 363.88 126.67"><defs><style>.cls-1{fill:#fff;}.cls-2{fill:#f7941e;}</style></defs><title>sQedule</title><rect x="76.58" y="35.75" width="53.74" height="55.16" rx="4.5"/><path class="cls-1" d="M123.79,63.33A20.23,20.23,0,0,1,120.11,75l-2.66-2.67A16.64,16.64,0,0,0,104.26,46.7V43a20.34,20.34,0,0,1,19.53,20.34Z"/><path class="cls-2" d="M119.46,76.62l-.16-.17-.16-.17-2.64-2.63h0l-.16-.17-.16-.16h0l-2.24-2.22-3-3,5.8-1.21-12.52-3.36-.8-.21.8,3L107,76.67l1.22-5.81,5.19,5.19.17.17.17.17A16.6,16.6,0,0,1,104.26,80v3.72A20.38,20.38,0,0,0,116.4,79l.17.16.17.16L121.35,84l2.74-2.74-4.63-4.61Z"/><path class="cls-1" d="M102.66,80v3.72a20.36,20.36,0,0,1,0-40.68V46.7a16.64,16.64,0,0,0,0,33.25Z"/><path d="M158.93,47.79c-7.69,0-19.12,5.84-19.12,21.92,0,10.83,9.11,21.78,26.52,21.78,1.56,0,3.24-.15,4.87-.3l1.36-.12V85.82l-1.64.16c-1.49.14-3,.29-4.37.29-14.78,0-21.52-8.58-21.52-16.56v-.27h32v-1.5C177,55.89,169.74,47.79,158.93,47.79Zm0,5.22c7.85,0,11.91,6.23,12.6,11.21H145.68C147.73,56.1,154.27,53,158.93,53Z"/><path d="M213.57,47.92h-1.91C193.35,47.92,185,59.21,185,69.7s8.32,21.7,26.59,21.7h2.76s2.32-.15,3.09-.23l1.35-.13V22.09h-5.22Zm0,38.26h-2c-14.68,0-21.37-8.54-21.37-16.48s6.71-16.56,21.44-16.56h1.91Z"/><path d="M258.5,75c0,6.17-4.42,10.82-10.75,11.31l-1,.07-1-.07C239.43,85.79,235,81.14,235,75V48.09h-5.22V75c0,9,6.63,15.92,15.76,16.52H248c9.14-.6,15.76-7.55,15.76-16.52V48.09H258.5Z"/><rect x="274.72" y="21.81" width="5.22" height="69.09"/><path d="M328.13,69.44v-1.5c0-12-7.26-20.15-18.07-20.15-7.69,0-19.12,5.84-19.12,21.92,0,10.83,9.11,21.78,26.52,21.78,1.56,0,3.24-.15,4.87-.3l1.36-.12V85.82l-1.64.16c-1.49.14-3,.29-4.37.29-14.78,0-21.52-8.58-21.52-16.56v-.27ZM310.06,53c7.85,0,11.91,6.23,12.6,11.21H296.8C298.86,56.1,305.4,53,310.06,53Z"/><path d="M53.11,67.05c-.75-.13-3.17-.71-4.48-1C45.14,65.16,41,63.46,41,60.23c0-4.22,4.81-7.38,11.72-7.71a15,15,0,0,1,9.47,3.83l1,.91L67,53.76l-1.25-1.11a23.51,23.51,0,0,0-10.38-5.07,16.06,16.06,0,0,0-3.25-.27c-9.66.55-16.41,5.86-16.41,12.92,0,5,4,8.84,11.2,10.75.81.21,4.09,1,5.36,1.25,3.8.65,10.16,2.33,10.16,6.29,0,4.38-5.06,7.56-12.24,7.73A15,15,0,0,1,39.69,82l-1-1-3.87,3.51L36,85.6a20.42,20.42,0,0,0,12.67,5.8,15.46,15.46,0,0,0,1.85.06h.19c10-.38,17-5.7,17-12.94C67.68,75.14,65.79,69.15,53.11,67.05Z"/></svg>