<?xml version="1.0" encoding="utf-8"?>
<!-- Generator: Adobe Illustrator 16.0.0, SVG Export Plug-In . SVG Version: 6.00 Build 0)  -->
<!DOCTYPE svg PUBLIC "-//W3C//DTD SVG 1.1//EN" "http://www.w3.org/Graphics/SVG/1.1/DTD/svg11.dtd">
<svg version="1.1" id="Ebene_1" xmlns="http://www.w3.org/2000/svg" xmlns:xlink="http://www.w3.org/1999/xlink" x="0px" y="0px"
	 width="370px" height="496.949px" viewBox="1294.459 307.95 370 496.949" enable-background="new 1294.459 307.95 370 496.949"
	 xml:space="preserve">
<g id="Ebene_3">
	<path fill="#FFFFFF" stroke="#000000" stroke-width="2" stroke-miterlimit="10" d="M1349.333,396.882l0.781,186.064
		c0,0,196.229,61.764,213.432,75.836c3.127-27.363,32.053-273.626,29.709-286.917
		C1593.255,371.865,1389.205,385.936,1349.333,396.882z"/>
	<path d="M1436.504,618.125c0,0-60.591,134.471-72.312,160.271c-13.686,2.344-8.989-3.521-8.989-3.521l79.353-164.961l13.687,5.473
		l17.59,152.844c-6.646,4.688-10.944,1.561-10.944,1.561l-12.312-154.014c0,0,2.54,156.361,5.667,175.902
		c-4.304,4.691-11.729,0-11.729,0l0.396-177.074"/>
	<path fill="none" stroke="#000000" stroke-width="2" stroke-miterlimit="10" d="M1567.062,655.655
		c0,0,33.613-276.363,28.532-283.79"/>
</g>
<g id="Ebene_5">
	<path fill="none" stroke="#0094AC" stroke-linecap="round" stroke-linejoin="round" stroke-miterlimit="10" d="M1399.193,535.872
		c0,0-19.506,25.146-19.604,40.693c7.623,3.066,28.119,8.02,32.871,4.949c0.892-9.9-1.979-17.229,1.089-25.545
		c3.07-8.316,8.516-12.08,8.516-12.08s-8.506,11.09-8.854,17.525c-0.354,6.436,0.548,19.424,0,20.75
		c-4.137,0.246-19.855,3.904-32.729-6.096c2.73-13.668,1.882-18.318,24.649-49.705c2.183,2.871,17.13,18.02,17.427,18.311
		c0,0,0.178,1.273-0.492,0.693c-0.674-0.58-17.89-18.779-18.716-17.92c-1.284,1.336,18.47,18.363,17.623,19.105
		c-0.591,0.521-20.359-17.514-19.891-16.361c0,0-0.979-0.471,0,0.816s19.104,16.434,18.703,16.883
		c-0.938,1.041-21.25-16.811-20.297-15.248c5.594,9.156,21.64,16.477,18.762,15.891c-9.752-1.98-19.604-15.842-19.454-14.404
		c0.148,1.439,7.229,12.277,19.604,15.896"/>
	<path fill="none" stroke="#0094AC" stroke-linecap="round" stroke-linejoin="round" stroke-miterlimit="10" d="M1437.312,553.577
		c-1.05,1.031-5.014-1.812-7.029-3.25c-32.871-27.426-37.624-39.703-35.146-42.562c2.481-2.854,54.057,47.223,43.021,44.98
		c-11.03-2.236-36.895-32.414-39.521-36.23c-2.628-3.811-2.646-6.918-2.646-6.918s-0.069-3.133,1.712-1.832"/>
	<g id="Ebene_6">
		<g>
			<g>
				<path fill="#0194AC" d="M1414.104,526.67c1.539,0,1.539-2.389,0-2.389C1412.562,524.282,1412.562,526.67,1414.104,526.67
					L1414.104,526.67z"/>
			</g>
		</g>
		<g>
			<g>
				<path fill="#0194AC" d="M1420.283,514.122c1.541,0,1.541-2.389,0-2.389C1418.743,511.733,1418.743,514.122,1420.283,514.122
					L1420.283,514.122z"/>
			</g>
		</g>
		<g>
			<g>
				<path fill="#0194AC" d="M1419.885,497.004c1.54,0,1.54-2.389,0-2.389S1418.345,497.004,1419.885,497.004L1419.885,497.004z"/>
			</g>
		</g>
		<g>
			<g>
				<path fill="#0194AC" d="M1400.779,477.104c1.541,0,1.541-2.389,0-2.389C1399.239,474.715,1399.239,477.104,1400.779,477.104
					L1400.779,477.104z"/>
			</g>
		</g>
		<g>
			<g>
				<path fill="#0194AC" d="M1424.859,529.245c1.542,0,1.542-2.387,0-2.387C1423.319,526.858,1423.319,529.245,1424.859,529.245
					L1424.859,529.245z"/>
			</g>
		</g>
		<g>
			<g>
				<path fill="#0194AC" d="M1476.604,508.747c1.541,0,1.541-2.387,0-2.387S1475.062,508.747,1476.604,508.747L1476.604,508.747z"/>
			</g>
		</g>
		<g>
			<g>
				<path fill="#0194AC" d="M1451.13,521.086c1.54,0,1.54-2.389,0-2.389C1449.589,518.7,1449.589,521.086,1451.13,521.086
					L1451.13,521.086z"/>
			</g>
		</g>
		<g>
			<g>
				<path fill="#0194AC" d="M1433.417,489.045c1.54,0,1.54-2.389,0-2.389S1431.877,489.045,1433.417,489.045L1433.417,489.045z"/>
			</g>
		</g>
		<g>
			<g>
				<path fill="#0194AC" d="M1525.957,464.567c1.54,0,1.54-2.389,0-2.389S1524.417,464.567,1525.957,464.567L1525.957,464.567z"/>
			</g>
		</g>
		<g>
			<g>
				<path fill="#0194AC" d="M1514.585,419.336c1.54,0,1.54-2.387,0-2.387S1513.045,419.336,1514.585,419.336L1514.585,419.336z"/>
			</g>
		</g>
	</g>
	<polyline fill="none" stroke="#0094AC" stroke-linecap="round" stroke-linejoin="round" stroke-miterlimit="10" points="
		1414.925,528.36 1453.395,462.329 1461.752,485.936 1547.138,408.827 1540.062,408.606 1552.887,405.057 1548.243,416.565 
		1548.465,409.709 1460.47,489.743 1452.51,466.75 1414.925,530.645 	"/>
</g>
<g id="Ebene_2_1_">
</g>
</svg>
