<?xml version="1.0" encoding="utf-8"?>
<!-- Generator: Adobe Illustrator 16.0.0, SVG Export Plug-In . SVG Version: 6.00 Build 0)  -->
<!DOCTYPE svg PUBLIC "-//W3C//DTD SVG 1.1//EN" "http://www.w3.org/Graphics/SVG/1.1/DTD/svg11.dtd">
<svg version="1.1" id="Ebene_1" xmlns="http://www.w3.org/2000/svg" xmlns:xlink="http://www.w3.org/1999/xlink" x="0px" y="0px"
	 width="664.467px" height="570px" viewBox="-251.743 -39 664.467 570" enable-background="new -251.743 -39 664.467 570"
	 xml:space="preserve">
<g id="Ebene_1_1_">
	<g id="Ebene_3">
		<path d="M-160.969,158.972c0,0-35.245,9.31,28.261,52.201c2.327,0.333,19.284,30.59,22.721,38.346
			c1.886,5.542,2.659,4.434,2.659,11.082s-26.432,65.865-28.869,69.855c3.77,0.219,7.314-2.659,12.189-8.868
			c4.875-6.209,18.716-30.037,18.716-30.037s-2.093,11.198-4.31,22.504c-2.213,11.307-5.318,18.175-1.995,25.489
			c0,0,6.262-5.794,12.026-26.406c0.221,7.979-16.295,131.514-17.572,138.218c-1.278,6.703-2.993,10.175-4.963,13.509
			c-1.861,3.249-9.878,8.051-17.417,13.146c-7.534,5.102-20.833,11.312-20.833,17.515c0.442,1.552,16.005-0.296,45.487-12.928
			c13.3,2.438,53.843,11.466,56.5,8.14c0,0-2.437-5.542-26.155-17.29c-6.205-2.887-19.259-5.666-18.375-14.312
			c0,0,21.536-139.712,24.419-186.258c0,0-2.517-31.059-4.011-34.384c0,0-14.364-68.78-16.852-74.305c0,0,52.76,32.733,63.67,40.467
			c1.933,0,7.328-5.085,5.247-6.905c-4.417-3.867-60.728-52.078-71.701-55.57c-4.157-1.164-5.321,0.332-7.149,1.163
			c-1.828,0.832-5.486-0.665-6.648-2.826c-1.167-2.162-0.335-3.325,0.997-4.489c1.333-1.164-9.144-8.811-13.797-9.642
			c4.653,7.814,26.597,44.055,29.589,84.34c0,0-30.584-77.581-47.43-79.797c0,0-3.104,6.097-1.276,10.418
			c0.832,1.828,0.333,3.823-2.826,5.319c-0.997,0.332-2.162,0.5-2.162,0.5s2.327,1.829,3.99,2.327
			c1.659,0.498,3.16,1.495,3.16,1.495"/>
		<path d="M-185.153,112.994c0,0,59.783-37.359,64.355-38.068c-1.071-1.938-13.671-1.449-20.991,2.908
			c-7.318,4.356-13.622,11.09-29.904,15.545C-181.69,100.941-189.606,112.823-185.153,112.994z"/>
		<path d="M-152.875,60.952c0,0-21.087,10.028-25.522,13.593c-6.354-13.834-31.083-40.584-39.416-42.993
			c2.126-6.809,30.872-31.739,38.5-32.771C-172.4,11.44-152.964,55.925-152.875,60.952z"/>
		<path fill="#F6931F" d="M-171.692,93.378c0,0,18.221-5.528,29.905-15.545c1.426-3.83-2.585-3.939-2.585-3.939
			s1.122-1.634-0.137-2.256c-1.256-0.622-2.014-1.623-1.331-3.316c0.683-1.695-2.649-3.499-2.649-3.499s-0.708-4.575-4.221-5.062
			c-3.512-0.487-27.721,12.715-28.843,14.35c-1.121,1.634-2.243,3.269,0.575,2.317c2.817-0.95,0.635,1.879,0.635,1.879
			s-1.122,1.636,1.012,2.378c2.135,0.743,1.577,1.561,1.831,2.939c0.259,1.378-1.424,3.831,1.65,4.257
			c3.072,0.426,1.768,3.377,1.768,3.377S-173.631,94.452-171.692,93.378z"/>
	</g>
	<g id="Ebene_6">
		
			<path fill="#FFFFFF" stroke="#000000" stroke-width="2" stroke-linecap="round" stroke-linejoin="round" stroke-miterlimit="10" d="
			M86.288,42.927l1.381-10.773c0,0,6.629,0,7.182,2.763c0.552,2.761-13.812,114.909-19.891,128.167
			c-6.079,13.259-55.244,38.395-74.03,47.234c-18.782,8.839-29.83,9.945-30.938,8.287c-1.104-1.658,4.42-136.456,4.42-136.456
			s1.103,3.314,17.125-0.276C7.557,78.283,79.1,52.317,94.017,37.678"/>
	</g>
	<g id="Ebene_2">
		
			<polyline fill="none" stroke="#009BA4" stroke-width="3" stroke-linecap="round" stroke-linejoin="round" stroke-miterlimit="10" points="
			0.047,219.248 -16.232,169.931 -21.02,162.748 -20.541,172.803 -2.186,219.886 -0.271,219.567 -19.264,169.292 		"/>
	</g>
	<g id="Ebene_4">
		<path d="M82.329,126.899c0,0-14.179,9.759-12.522,11.417c1.658,1.657-2.486,3.868-0.276,5.525c0,2.21-3.039,4.697,0.276,6.354
			c3.315,1.657,14.271-5.617,13.442-7.55c-0.829-1.933,1.656-2.761,0.552-4.972s3.314-4.696,1.657-6.353s-1.936-3.591-3.867-2.486"
			/>
		<path d="M-84.144,234.905c0,0,47.511-28.728,51.931-28.451c4.421,0.277,12.721,0.17,15.104-0.737
			c5.801-2.21,24.952-14.456,18.599-14.731c2.486-1.381,0.552-4.144-1.935-4.972c1.935-2.485,4.694-4.696,1.935-4.972
			c-2.763-0.276-23.47,8.778-28.451,8.01c-3.591-0.552-2.763-2.763-2.211-4.972c0.552-2.21-3.04-0.828-4.419,1.38
			c-1.38,2.21-2.211,5.802-3.866,11.602c0,0-40.605,23.756-51.102,26.518"/>
	</g>
</g>
<g id="Ebene_3_1_">
	<path fill="#FFFFFF" d="M300.648,433.671c0,0-0.647,8.533-3.512,9.76c4.283-0.156,9.757-0.536,9.757-0.536l-9.757,7.878
		c0,0,8.502,4.78-5.783,7.338c10.681-0.205,12.232,0.091,12.232,0.091l-1.603,1.466l0,0c0,0,4.451,6.006,4.494,9.119
		c-1.578,0.887-4.603,4.347-14.243,4.151c3.851,0.197,7.447,1.34,7.447,1.34l-7.447,4.294l-1.915,6.142l1.915,0.976
		c0,0,78.559-1.795,80.81-1.182c-5.935-1.227-8.134-4.808-8.134-4.808l2.282-0.432c0,0,0.46-7.757,3.403-8.858
		c2.942-1.103,7.495-2.579,7.495-2.579l-9.649-0.614l-12.38-1.126l15.136-1.53c0,0-3.216-1.896-1.113-4.003
		c-12.796-0.298-2.769-4.643,0.608-6.027c0.754-0.338,1.932-0.802,3.84-1.312c-1.486-0.223-6.142-3.572-6.142-3.572l-6.089-0.257
		l-1.738-5.292c0,0,2.812-5.515,8.336-5.208c5.525,0.307,7.523-0.832,7.523-0.832s-3.12-1.521-6.547-1.948
		c-3.428-0.426-9.048-11.663-9.048-11.663l5.7,0.528l-7.775-8.787c0,0,3.548-0.151,3.55-1.368c0.104-0.5-1.738-1.216-1.738-1.216
		s-47.784,2.126-52.03,1.216c0,0-9.49,4.56-15.015,4.457c5.321,0.92,16.281,0.457,16.281,0.457s-10.906,2.836-11.333,3.474
		c9.191-0.896,12.013-1.042,12.013-1.042s-20.951,8.42-21.348,9.65"/>
	
		<path fill="none" stroke="#000000" stroke-width="2.1736" stroke-linecap="round" stroke-linejoin="round" stroke-miterlimit="10" d="
		M292.466,485.688c0,0,74.058-0.891,80.285-0.891c6.227,0-28.244-5.338-28.244-5.338"/>
	
		<path fill="none" stroke="#000000" stroke-width="2.1736" stroke-linecap="round" stroke-linejoin="round" stroke-miterlimit="10" d="
		M367.191,479.46c-1.112,0-32.47-1.112-60.714,2.002"/>
	
		<line fill="none" stroke="#000000" stroke-width="2.1736" stroke-linecap="round" stroke-linejoin="round" stroke-miterlimit="10" x1="292.466" y1="478.571" x2="321.6" y2="477.904"/>
	
		<path fill="none" stroke="#000000" stroke-width="2.1736" stroke-linecap="round" stroke-linejoin="round" stroke-miterlimit="10" d="
		M309.813,475.681c0,0-13.789-3.337-18.46-2.669c28.467-1.557,58.713-2.669,70.278-1.779c-4.892-2.67-55.154-2.892-55.154-2.892
		s64.051-4.004,64.718-3.781"/>
	
		<polyline fill="none" stroke="#000000" stroke-width="2.1736" stroke-linecap="round" stroke-linejoin="round" stroke-miterlimit="10" points="
		350.066,465.673 378.088,468.341 365.19,471.898 	"/>
	
		<line fill="none" stroke="#000000" stroke-width="2.1736" stroke-linecap="round" stroke-linejoin="round" stroke-miterlimit="10" x1="370.082" y1="460.557" x2="302.251" y2="459.667"/>
	
		<path fill="none" stroke="#000000" stroke-width="2.1736" stroke-linecap="round" stroke-linejoin="round" stroke-miterlimit="10" d="
		M290.909,458.11c0,0,59.603-3.113,66.274-1.557"/>
	
		<path fill="none" stroke="#000000" stroke-width="2.1736" stroke-linecap="round" stroke-linejoin="round" stroke-miterlimit="10" d="
		M374.53,453.217c0,0-30.468-1.778-41.366-3.113"/>
	
		<path fill="none" stroke="#000000" stroke-width="2.1736" stroke-linecap="round" stroke-linejoin="round" stroke-miterlimit="10" d="
		M362.299,449.437c0,0-45.37-0.444-58.713,1.336"/>
	
		<path fill="none" stroke="#000000" stroke-width="2.1736" stroke-linecap="round" stroke-linejoin="round" stroke-miterlimit="10" d="
		M360.074,444.1c8.673,0-58.935-2.225-62.938-0.669c0,0,50.706-5.56,64.05-5.56"/>
	
		<path fill="none" stroke="#000000" stroke-width="2.1736" stroke-linecap="round" stroke-linejoin="round" stroke-miterlimit="10" d="
		M360.074,439.651c0.667,0,16.458-1.557,16.458-1.557s-24.019-9.563-54.932-8.674"/>
	
		<path fill="none" stroke="#000000" stroke-width="2.1736" stroke-linecap="round" stroke-linejoin="round" stroke-miterlimit="10" d="
		M354.736,432.757l-46.703,3.113c0,0-12.904-4.17-18.904-4.669c23.351-3.781,45.369-3.781,60.714-3.114"/>
	
		<path fill="none" stroke="#000000" stroke-width="2.1736" stroke-linecap="round" stroke-linejoin="round" stroke-miterlimit="10" d="
		M366.524,424.973c0,0-48.483-4.892-68.054-1.778"/>
	
		<path fill="none" stroke="#000000" stroke-width="2.1736" stroke-linecap="round" stroke-linejoin="round" stroke-miterlimit="10" d="
		M362.299,415.265c0,0-23.328,6.01-70.065,4.052c11.352-1.829,14.243-2.749,16.477-4.052"/>
	
		<path fill="#FCFCFC" stroke="#000000" stroke-width="2.1736" stroke-linecap="round" stroke-linejoin="round" stroke-miterlimit="10" d="
		M310.479,401.117c27.524,1.229,54.941-14.63,54.941-14.63s11.715,5.627,16.828,1.379c-4.247,10.742-21.814,16.429-32.291,19.117
		C341.478,409.413,310.479,401.117,310.479,401.117"/>
	
		<path fill="#FCFCFC" stroke="#000000" stroke-width="2.1736" stroke-linecap="round" stroke-linejoin="round" stroke-miterlimit="10" d="
		M355.599,394.313c0,0,8.357,4.272,10.405,4.298"/>
	
		<path fill="#FCFCFC" stroke="#000000" stroke-width="2.1736" stroke-linecap="round" stroke-linejoin="round" stroke-miterlimit="10" d="
		M359.743,392.473c0,0,8.594,4.346,9.515,4.398"/>
	
		<path fill="#FCFCFC" stroke="#000000" stroke-width="2.1736" stroke-linecap="round" stroke-linejoin="round" stroke-miterlimit="10" d="
		M363.633,390.478c0,0,6.699,3.63,8.694,4.194"/>
	<path d="M138.732,417.336c0,0-0.921,44.185-3.942,54.025c-1.737,7.111-4.297,13.098-4.297,13.098s31.104,4.911,55.252,0
		c-4.502-14.12-10.076-52.424-7.824-66.545C144.257,418.836,138.732,417.336,138.732,417.336z"/>
	<path fill="#F7941E" d="M137.606,414.972c0,0-0.869,0.793-0.921,1.407c-0.051,0.614,1.842,1.314,2.559,1.418
		c3.53,0.716,20.004,1.072,38.369,0.307c1.023,0,1.37-0.315,1.37-1.187c0-0.87-0.295-1.013,0.216-1.628
		c0.512-0.614-0.231-0.459-0.385-1.686c-0.153-1.229,1.893-1.996,1.432-2.764s-0.614-1.995,0.87-2.866
		c0.562-0.459,0.255-1.892,0.153-2.967c-0.102-1.073-0.367-1.887-1.126-2.71c-0.417-0.45-0.768-1.639-0.104-1.996
		c0.666-0.357,1.433-1.432,1.126-2.712c-0.307-1.278-2.098-2.455,0.04-2.932c1.381-0.205,1.034-2.849,0.062-3.31
		c-0.973-0.46-0.358-0.869,0.255-1.228c0.614-0.357,0.616-2.959-0.048-3.726c-20.875-1.799-38.272-0.667-42.517-1.064
		c0,0-2.827-0.299-1.685,1.08c0.691,0.834,1.842,1.073,1.842,1.073s-3.684,0.667-2.916,2.149c0.767,1.483,2.353,2.482,1.176,3.659
		c-1.177,1.177-2.098,1.894-1.177,3.787c0.921,1.892,1.586,2.66,2.251,2.762c0.665,0.103-2.303,0.973-1.843,1.996
		c0.461,1.021,1.228,2.302,0.768,3.887c-0.46,1.586-1.33,2.61-0.87,3.787c0.461,1.175,1.535,2.25,0.717,3.427
		c-0.819,1.177-0.307,1.738-0.307,1.738"/>
	<path d="M99.134,385.303c9.439,0,30.292,0.015,33.229,0c3.758-0.02,69.209,1.464,71.521,1.722
		c3.159,0.351,15.586,1.154,18.878,1.38c8.748,0.385,12.432-0.614,9.668-1.688c-2.762-1.074-42.019-1.918-49.957-2.379
		c-7.938-0.461-59.167-0.888-65.843-1.168c-4.052-0.17-25.938-0.674-25.478,0.861C91.435,384.974,90.92,385.303,99.134,385.303z"/>
	
		<path fill="#FFFFFF" stroke="#000000" stroke-width="2.1736" stroke-linecap="round" stroke-linejoin="round" stroke-miterlimit="10" d="
		M35.624,309.183c0,0,6.929,19.084,2.001,27.016c21.964-7.776,38.883-13.252,53.521-2.61c0,0,16.277-14.085,15.458-18.998
		C105.786,309.68,52.927,291.584,35.624,309.183z"/>
	
		<path fill="#FFFFFF" stroke="#000000" stroke-width="2.1736" stroke-linecap="round" stroke-linejoin="round" stroke-miterlimit="10" d="
		M122.362,336.428c3.479,4.044,28.854,28.673,28.035,40.543c0,3.07-2.25,3.479-10.232-2.974
		c2.891-12.414-11.05-19.945-24.557-26.903c14.326-16.064,2.252-9.618,2.252-9.618s1.385,0.726,2.919,3.283"/>
	
		<path fill="#FFFFFF" stroke="#000000" stroke-width="2.1736" stroke-linecap="round" stroke-linejoin="round" stroke-miterlimit="10" d="
		M174.953,379.12c0,0,4.803-9.106,10.792-7.471c6.398-13.505,21.541-37.652,33.41-41.336c0,0,5.321-11.051-16.371-16.371
		C181.092,308.621,168.431,371.847,174.953,379.12z"/>
	
		<path fill="#FFFFFF" stroke="#000000" stroke-width="2.1736" stroke-linecap="round" stroke-linejoin="round" stroke-miterlimit="10" d="
		M235.117,323.764c0,0,5.32-18.006,0-24.557c14.734-5.32,52.388-6.958,65.075,5.32c3.684,13.508,2.456,24.049,0,27.986
		C294.462,330.313,263.767,317.626,235.117,323.764z"/>
	
		<path fill="#FCFCFC" stroke="#000000" stroke-width="2.1736" stroke-linecap="round" stroke-linejoin="round" stroke-miterlimit="10" d="
		M350.56,339.182c22.483,0,40.127,29.398,33.776,40.04c-0.856-12.993-10.229-1.228-10.229-1.228s-2.899-30.106-41.835-28.06
		c0.664-2.432,1.789-3.562,2.907-4.909"/>
	
		<path fill="none" stroke="#000000" stroke-width="2.1736" stroke-linecap="round" stroke-linejoin="round" stroke-miterlimit="10" d="
		M380.163,373.228c0,0,2.806,2.369,4.173,5.994"/>
	
		<path fill="#FFFFFF" stroke="#000000" stroke-width="2.1736" stroke-linecap="round" stroke-linejoin="round" stroke-miterlimit="10" d="
		M295.037,335.225c0,0,3.301,9.339-5.293,16.295c34.917,4.168,77.369-19.262,76.238-25.811c-6.452-6.958-15.004-14.244-23.6-15.153
		C337.062,317.42,314.323,335.38,295.037,335.225z"/>
	<g id="Ebene_4_1_">
		<g>
			<g>
				<path fill="#F7941E" d="M201.659,371.718c1.935,0,1.935-3,0-3S199.724,371.718,201.659,371.718L201.659,371.718z"/>
			</g>
		</g>
		<g>
			<g>
				<path fill="#F7941E" d="M180.786,349.923c1.935,0,1.935-3,0-3S178.851,349.923,180.786,349.923L180.786,349.923z"/>
			</g>
		</g>
		<g>
			<g>
				<path fill="#F7941E" d="M220.997,363.431c1.935,0,1.935-3,0-3S219.062,363.431,220.997,363.431L220.997,363.431z"/>
			</g>
		</g>
		<g>
			<g>
				<path fill="#F7941E" d="M279.012,479.46c1.935,0,1.935-3,0-3S277.078,479.46,279.012,479.46L279.012,479.46z"/>
			</g>
		</g>
		<g>
			<g>
				<path fill="#F7941E" d="M269.804,363.431c1.935,0,1.935-3,0-3S267.869,363.431,269.804,363.431L269.804,363.431z"/>
			</g>
		</g>
		<g>
			<g>
				<path fill="#F7941E" d="M227.75,348.39c1.935,0,1.935-3,0-3S225.816,348.39,227.75,348.39L227.75,348.39z"/>
			</g>
		</g>
		<g>
			<g>
				<path fill="#F7941E" d="M230.206,337.338c1.935,0,1.935-3,0-3S228.271,337.338,230.206,337.338L230.206,337.338z"/>
			</g>
		</g>
		<g>
			<g>
				<path fill="#F7941E" d="M238.8,324.446c1.935,0,1.935-3,0-3S236.866,324.446,238.8,324.446L238.8,324.446z"/>
			</g>
		</g>
		<g>
			<g>
				<path fill="#F7941E" d="M246.781,307.871c1.935,0,1.935-3,0-3S244.847,307.871,246.781,307.871L246.781,307.871z"/>
			</g>
		</g>
		<g>
			<g>
				<path fill="#F7941E" d="M167.586,378.267c1.935,0,1.935-3,0-3S165.651,378.267,167.586,378.267L167.586,378.267z"/>
			</g>
		</g>
		<g>
			<g>
				<path fill="#F7941E" d="M169.224,356.165c1.935,0,1.935-3,0-3S167.289,356.165,169.224,356.165L169.224,356.165z"/>
			</g>
		</g>
		<g>
			<g>
				<path fill="#F7941E" d="M166.563,331.814c1.935,0,1.935-3,0-3S164.629,331.814,166.563,331.814L166.563,331.814z"/>
			</g>
		</g>
		<g>
			<g>
				<path fill="#F7941E" d="M187.641,312.168c1.935,0,1.935-3,0-3S185.707,312.168,187.641,312.168L187.641,312.168z"/>
			</g>
		</g>
		<g>
			<g>
				<path fill="#F7941E" d="M164.722,343.683c1.935,0,1.935-3,0-3S162.787,343.683,164.722,343.683L164.722,343.683z"/>
			</g>
		</g>
		<g>
			<g>
				<path fill="#F7941E" d="M264.79,328.744c1.935,0,1.935-3,0-3S262.855,328.744,264.79,328.744L264.79,328.744z"/>
			</g>
		</g>
		<g>
			<g>
				<path fill="#F7941E" d="M299.374,314.215c1.935,0,1.935-3,0-3S297.439,314.215,299.374,314.215L299.374,314.215z"/>
			</g>
		</g>
		<g>
			<g>
				<path fill="#F7941E" d="M316.154,307.258c1.935,0,1.935-3,0-3S314.22,307.258,316.154,307.258L316.154,307.258z"/>
			</g>
		</g>
		<g>
			<g>
				<path fill="#F7941E" d="M142.621,309.917c1.935,0,1.935-3,0-3S140.686,309.917,142.621,309.917L142.621,309.917z"/>
			</g>
		</g>
		<g>
			<g>
				<path fill="#F7941E" d="M122.566,282.904c1.935,0,1.935-3,0-3S120.631,282.904,122.566,282.904L122.566,282.904z"/>
			</g>
		</g>
		<g>
			<g>
				<path fill="#F7941E" d="M202.989,273.082c1.935,0,1.935-3,0-3S201.055,273.082,202.989,273.082L202.989,273.082z"/>
			</g>
		</g>
		<g>
			<g>
				<path fill="#F7941E" d="M346.44,352.891c1.935,0,1.935-3,0-3S344.506,352.891,346.44,352.891L346.44,352.891z"/>
			</g>
		</g>
		<g>
			<g>
				<path fill="#F7941E" d="M386.345,390.954c1.935,0,1.935-3,0-3S384.411,390.954,386.345,390.954L386.345,390.954z"/>
			</g>
		</g>
		<g>
			<g>
				<path fill="#F7941E" d="M334.367,409.166c1.935,0,1.935-3,0-3S332.432,409.166,334.367,409.166L334.367,409.166z"/>
			</g>
		</g>
		<g>
			<g>
				<path fill="#F7941E" d="M367.313,415.102c1.935,0,1.935-3,0-3S365.379,415.102,367.313,415.102L367.313,415.102z"/>
			</g>
		</g>
		<g>
			<g>
				<path fill="#F7941E" d="M378.978,431.472c1.935,0,1.935-3,0-3S377.043,431.472,378.978,431.472L378.978,431.472z"/>
			</g>
		</g>
		<g>
			<g>
				<path fill="#F7941E" d="M356.673,443.342c1.935,0,1.935-3,0-3S354.738,443.342,356.673,443.342L356.673,443.342z"/>
			</g>
		</g>
		<g>
			<g>
				<path fill="#F7941E" d="M360.561,440.476c1.935,0,1.935-3,0-3S358.626,440.476,360.561,440.476L360.561,440.476z"/>
			</g>
		</g>
		<g>
			<g>
				<path fill="#F7941E" d="M363.221,448.662c1.935,0,1.935-3,0-3S361.286,448.662,363.221,448.662L363.221,448.662z"/>
			</g>
		</g>
		<g>
			<g>
				<path fill="#F7941E" d="M94.625,300.5c1.935,0,1.935-3,0-3S92.69,300.5,94.625,300.5L94.625,300.5z"/>
			</g>
		</g>
		<g>
			<g>
				<path fill="#F7941E" d="M77.625,260.5c1.935,0,1.935-3,0-3S75.69,260.5,77.625,260.5L77.625,260.5z"/>
			</g>
		</g>
		<g>
			<g>
				<path fill="#F7941E" d="M113.125,246c1.935,0,1.935-3,0-3S111.19,246,113.125,246L113.125,246z"/>
			</g>
		</g>
		<g>
			<g>
				<path fill="#F7941E" d="M128.125,194.5c1.935,0,1.935-3,0-3S126.19,194.5,128.125,194.5L128.125,194.5z"/>
			</g>
		</g>
		<g>
			<g>
				<path fill="#F7941E" d="M27.743,194.76c1.935,0,1.935-3,0-3S25.809,194.76,27.743,194.76L27.743,194.76z"/>
			</g>
		</g>
		<g>
			<g>
				<path fill="#F7941E" d="M74.125,216c1.935,0,1.935-3,0-3S72.19,216,74.125,216L74.125,216z"/>
			</g>
		</g>
		<g>
			<g>
				<path fill="#F7941E" d="M104.625,188c1.935,0,1.935-3,0-3S102.69,188,104.625,188L104.625,188z"/>
			</g>
		</g>
		<g>
			<g>
				<path fill="#F7941E" d="M171.292,372.167c1.935,0,1.935-3,0-3S169.357,372.167,171.292,372.167L171.292,372.167z"/>
			</g>
		</g>
		<g>
			<g>
				<path fill="#F7941E" d="M173.292,364.833c1.935,0,1.935-3,0-3S171.357,364.833,173.292,364.833L173.292,364.833z"/>
			</g>
		</g>
		<g>
			<g>
				<path fill="#F7941E" d="M131.958,302.167c1.935,0,1.935-3,0-3S130.024,302.167,131.958,302.167L131.958,302.167z"/>
			</g>
		</g>
		<g>
			<g>
				<path fill="#F7941E" d="M125.292,291.5c1.935,0,1.935-3,0-3S123.357,291.5,125.292,291.5L125.292,291.5z"/>
			</g>
		</g>
		<g>
			<g>
				<path fill="#F7941E" d="M120.625,268.833c1.935,0,1.935-3,0-3S118.69,268.833,120.625,268.833L120.625,268.833z"/>
			</g>
		</g>
		<g>
			<g>
				<path fill="#F7941E" d="M119.292,254.833c1.935,0,1.935-3,0-3S117.357,254.833,119.292,254.833L119.292,254.833z"/>
			</g>
		</g>
		<g>
			<g>
				<path fill="#F7941E" d="M130.625,272.167c1.935,0,1.935-3,0-3S128.69,272.167,130.625,272.167L130.625,272.167z"/>
			</g>
		</g>
		<g>
			<g>
				<path fill="#F7941E" d="M135.958,334.167c1.935,0,1.935-3,0-3S134.024,334.167,135.958,334.167L135.958,334.167z"/>
			</g>
		</g>
		<g>
			<g>
				<path fill="#F7941E" d="M329.292,358.833c1.935,0,1.935-3,0-3S327.357,358.833,329.292,358.833L329.292,358.833z"/>
			</g>
		</g>
		<g>
			<g>
				<path fill="#F7941E" d="M335.292,354.167c1.935,0,1.935-3,0-3S333.357,354.167,335.292,354.167L335.292,354.167z"/>
			</g>
		</g>
		<g>
			<g>
				<path fill="#F7941E" d="M325.292,363.5c1.935,0,1.935-3,0-3S323.357,363.5,325.292,363.5L325.292,363.5z"/>
			</g>
		</g>
		<g>
			<g>
				<path fill="#F7941E" d="M315.958,354.833c1.935,0,1.935-3,0-3S314.024,354.833,315.958,354.833L315.958,354.833z"/>
			</g>
		</g>
		<g>
			<g>
				<path fill="#F7941E" d="M391.292,373.5c1.935,0,1.935-3,0-3S389.357,373.5,391.292,373.5L391.292,373.5z"/>
			</g>
		</g>
		<g>
			<g>
				<path fill="#F7941E" d="M391.292,366.833c1.935,0,1.935-3,0-3S389.357,366.833,391.292,366.833L391.292,366.833z"/>
			</g>
		</g>
		<g>
			<g>
				<path fill="#F7941E" d="M388.625,356.833c1.935,0,1.935-3,0-3S386.69,356.833,388.625,356.833L388.625,356.833z"/>
			</g>
		</g>
		<g>
			<g>
				<path fill="#F7941E" d="M383.958,344.167c1.935,0,1.935-3,0-3S382.024,344.167,383.958,344.167L383.958,344.167z"/>
			</g>
		</g>
		<g>
			<g>
				<path fill="#F7941E" d="M30.743,201.593c1.935,0,1.935-3,0-3S28.809,201.593,30.743,201.593L30.743,201.593z"/>
			</g>
		</g>
		<g>
			<g>
				<path fill="#F7941E" d="M34.743,209.593c1.935,0,1.935-3,0-3S32.809,209.593,34.743,209.593L34.743,209.593z"/>
			</g>
		</g>
		<g>
			<g>
				<path fill="#F7941E" d="M45.41,218.26c1.935,0,1.935-3,0-3S43.476,218.26,45.41,218.26L45.41,218.26z"/>
			</g>
		</g>
		<g>
			<g>
				<path fill="#F7941E" d="M14.077,200.26c1.935,0,1.935-3,0-3S12.142,200.26,14.077,200.26L14.077,200.26z"/>
			</g>
		</g>
		<g>
			<g>
				<path fill="#F7941E" d="M106.625,212.167c1.935,0,1.935-3,0-3S104.69,212.167,106.625,212.167L106.625,212.167z"/>
			</g>
		</g>
	</g>
	<path fill="none" stroke="#000000" stroke-width="2" stroke-linecap="round" stroke-linejoin="round" stroke-miterlimit="10" d="
		M190.662,331.544c0,0,2.168-5.195,6.175-2.302c4.008,2.891-8.702,11.283-11.346,15.648c2.206-1.013,4.196-0.177,5.803-0.204"/>
	<path fill="none" stroke="#000000" stroke-width="2" stroke-linecap="round" stroke-linejoin="round" stroke-miterlimit="10" d="
		M202.819,330.667l-7.052,9.607c0,0,3.749-0.164,6.181,1.719"/>
	<path fill="none" stroke="#000000" stroke-width="2" stroke-linecap="round" stroke-linejoin="round" stroke-miterlimit="10" d="
		M203.798,336.58c0,0-5.294,3.793-8.835,9.988"/>
	<path fill="none" stroke="#000000" stroke-width="2" stroke-linecap="round" stroke-linejoin="round" stroke-miterlimit="10" d="
		M180.786,352.756c0,0,9.976-2.49,12.432,0.271"/>
	<path fill="none" stroke="#000000" stroke-width="2" stroke-linecap="round" stroke-linejoin="round" stroke-miterlimit="10" d="
		M179.711,357.658c0,0,7.29-2.993,10.283,0"/>
	<path fill="none" stroke="#000000" stroke-width="2" stroke-linecap="round" stroke-linejoin="round" stroke-miterlimit="10" d="
		M178.33,363.771c0,0,7.161-5.218,8.671-2.046"/>
	<path fill="none" stroke="#000000" stroke-width="2" stroke-linecap="round" stroke-linejoin="round" stroke-miterlimit="10" d="
		M178.33,368.529c0,0,5.832-5.833,7.161-2.239"/>
	<path fill="none" stroke="#000000" stroke-width="2" stroke-linecap="round" stroke-linejoin="round" stroke-miterlimit="10" d="
		M288.528,302.994c0,0,4.911,4.758,0.307,6.139c-3.734,1.121-11.357-7.483-11.357-7.483l-0.267,6.768"/>
	<path fill="none" stroke="#000000" stroke-width="2" stroke-linecap="round" stroke-linejoin="round" stroke-miterlimit="10" d="
		M289.744,316.004c0,0,2.148,2.491,0,3.412c-2.149,0.921-4.899,0-4.439-3.224c-0.614,1.996-1.688,4.759-4.911,3.07
		s-5.679-6.804-1.842-7.776"/>
	<path fill="none" stroke="#000000" stroke-width="2" stroke-linecap="round" stroke-linejoin="round" stroke-miterlimit="10" d="
		M269.804,300.077c0,0,1.864,5.526-0.987,15.348"/>
	<path fill="none" stroke="#000000" stroke-width="2" stroke-linecap="round" stroke-linejoin="round" stroke-miterlimit="10" d="
		M265.425,300.077c0,0,1.309,4.529,0.388,8.134"/>
	<path fill="none" stroke="#000000" stroke-width="2" stroke-linecap="round" stroke-linejoin="round" stroke-miterlimit="10" d="
		M259.52,300.999c0,0,3.07,7.418,0,14.426"/>
	<path fill="none" stroke="#000000" stroke-width="2" stroke-linecap="round" stroke-linejoin="round" stroke-miterlimit="10" d="
		M253.995,300.999c0,0,1.842,7.33,0,14.426"/>
	<path fill="none" stroke="#000000" stroke-width="2" stroke-linecap="round" stroke-linejoin="round" stroke-miterlimit="10" d="
		M339.175,321.871c0,0,5.701-5.218,5.68-0.343c-0.015,3.441-15.042,6.838-15.042,6.838s2.616,1.436,2.616,2.918"/>
	<path fill="none" stroke="#000000" stroke-width="2" stroke-linecap="round" stroke-linejoin="round" stroke-miterlimit="10" d="
		M344.241,328.366c0,0,7.828-5.42,5.986,1.18c-1.126,4.034-16.218,5.191-16.218,5.191s1.663,2.974,1.484,4.444"/>
	<path fill="none" stroke="#000000" stroke-width="2" stroke-linecap="round" stroke-linejoin="round" stroke-miterlimit="10" d="
		M323.674,330.667c0,0,4.451,2.818,5.065,11.516"/>
	<path fill="none" stroke="#000000" stroke-width="2" stroke-linecap="round" stroke-linejoin="round" stroke-miterlimit="10" d="
		M319.07,332.514c0,0,3.797,6.537,3.53,11.459"/>
	<path fill="none" stroke="#000000" stroke-width="2" stroke-linecap="round" stroke-linejoin="round" stroke-miterlimit="10" d="
		M313.698,334.765c0,0,2.665,8.46,1.59,10.762"/>
	<path fill="none" stroke="#000000" stroke-width="2" stroke-linecap="round" stroke-linejoin="round" stroke-miterlimit="10" d="
		M308.327,336.628c0,0,1.074,3.677,0.767,6.271"/>
	<path fill="none" stroke="#000000" stroke-width="2" stroke-linecap="round" stroke-linejoin="round" stroke-miterlimit="10" d="
		M348.078,345.526c0,0,2.937-5.54,6.149-6.079"/>
	<path fill="none" stroke="#000000" stroke-width="2" stroke-linecap="round" stroke-linejoin="round" stroke-miterlimit="10" d="
		M354.227,346.568c0,0,1.491-5.619,4.731-6.026"/>
	<path fill="none" stroke="#000000" stroke-width="2" stroke-linecap="round" stroke-linejoin="round" stroke-miterlimit="10" d="
		M360.51,345.526c0,0,1.336-2.991,3.124-3.039"/>
	<path fill="none" stroke="#000000" stroke-width="2" stroke-linecap="round" stroke-linejoin="round" stroke-miterlimit="10" d="
		M362.299,351.391c0,0,3.315-5.736,5.367-6.5"/>
	<path fill="none" stroke="#000000" stroke-width="2" stroke-linecap="round" stroke-linejoin="round" stroke-miterlimit="10" d="
		M380.163,360.744l-1.221,4.377c0,0-2.624-7.54-7.381-12.094"/>
	<path fill="none" stroke="#000000" stroke-width="2" stroke-linecap="round" stroke-linejoin="round" stroke-miterlimit="10" d="
		M348.999,405.364c0,0-5.524,1.382-3.223-1.382c2.301-2.763,12.07-2.661,12.07-2.661l-3.619-1.942"/>
	<path fill="none" stroke="#000000" stroke-width="2" stroke-linecap="round" stroke-linejoin="round" stroke-miterlimit="10" d="
		M337.333,401.931c0,0-2.762,1.444,1.229,1.438c2.613-0.004,15.504-5.593,11.946-6.411
		C349.355,396.693,346.364,396.711,337.333,401.931z"/>
</g>
</svg>
