<?xml version="1.0" encoding="utf-8"?>
<!-- Generator: Adobe Illustrator 16.0.0, SVG Export Plug-In . SVG Version: 6.00 Build 0)  -->
<!DOCTYPE svg PUBLIC "-//W3C//DTD SVG 1.1//EN" "http://www.w3.org/Graphics/SVG/1.1/DTD/svg11.dtd">
<svg version="1.1" xmlns="http://www.w3.org/2000/svg" xmlns:xlink="http://www.w3.org/1999/xlink" x="0px" y="0px" width="572px"
	 height="636.92px" viewBox="0 0 572 636.92" enable-background="new 0 0 572 636.92" xml:space="preserve">
<g id="Ebene_7">
	<path d="M495.881,619.184c-3.003-0.562-5.584-2.393-3.941-3.8c0.751-0.188,3.096-0.797,3.473-0.797
		c-0.845-4.552-24.521-124.779-24.897-127.407c1.876,3.378,3.44,3.878,4.504,3.003c1.814-1.564-0.313-21.019-1.877-27.962
		c-0.501-4.003-0.626-15.388,0.813-15.951c0.626,0.25,1.153,1.826,1.813,3.628c1.722,4.691,14.482,26.397,24.209,31.965
		c0.688,0.312,0.438-0.126,0.125-1c-2.173-6.068-10.571-29.213-22.456-51.92c-3.253-7.693-6.006-17.828-3.941-27.899
		c0.563-0.156,1.313,1.189,1.501,1.752c0.094,0.907,0.126,1.814,0.031,2.063c4.098-0.844,13.106-2.751,16.702-3.471
		c3.596-0.721,25.767-5.405,33.055-7.72c0.906-0.47,0.975-1.569,0.913-2.164c-1.408-14.919-10.917-55.267-12.168-59.832
		c-1.25-4.567-1.751-5.381-4.565-7.319c-2.062-1.59-5.32-3.63-7.413-5.942c-1.188-1.313-2.846-3.158,2.784-3.878
		c-2.033-1.001-3.91-2.002-4.474-5.005c-0.562-3.001-2.376-6.349-4.472-8.663c-0.75-0.688-3.035-5.723-3.44-7.631
		c-0.657,6.443-1.095,8.257-3.253,14.324c-2.159,6.068-26.836,84.165-27.367,85.588c0,0-0.329-8.304,6.474-42.458
		c4.128-24.583,7.976-26.555,0.469-56.861c-1.829,2.064-3.519,8.21-2.768,9.711c0.75,1.502,0.844,4.036-0.094,4.692
		c-0.938,0.658-2.018,1.97-5.677,0.704c-3.66-1.268-5.302-1.924-8.82,0.75c-3.519,2.674-15.061,20.08-31.809,61.036
		c-0.422,0.751-1.032,1.079-1.266,1.033c-17.266-9.759-43.352-25.663-46.072-27.446c0,0-0.234,0.563-2.393-2.58
		c-0.845-0.844-0.469-3.049-0.656-4.598c-0.188-1.548-0.47-5.771-7.882-18.766c-1.643-3.003-4.691-5.396-7.085-8.164
		c-2.392-2.768-5.535-8.726-5.863-9.898c-0.329-1.173-1.549-2.44-1.783-2.112c-0.234,0.329-1.174,2.205-0.141,8.117
		c1.031,1.736,7.787,13.137,7.787,13.371c0,0.235-0.141,1.454-2.72,1.36c-2.581-0.094-8.211-0.281-9.196,1.36
		c-0.282,0.609,0.095,1.783,0.422,2.628c0.329,0.844,1.549,2.58,3.284,3.424c0.376,0.61-0.047,0.938,0.752,2.534
		c0.797,1.595,6.238,10.086,8.811,11.395c1.268,0.656,2.589,0.428,2.965,0.428c1.97,0,5.302,0.047,6.238,0.422
		c1.502,0.423,3.332,1.643,3.566,1.924c-0.609,0.845-2.486,3.097-3.003,3.519c4.974,3.614,19.486,13.622,21.206,14.779
		c1.721,1.158,17.545,11.103,19.673,12.261c2.127,1.157,9.165,5.098,14.231,6.443c0.469,0.062,2.47-0.47,2.597-0.626
		c11.821-20.048,20.642-38.722,23.487-43.631c3.598-6.162,7.162-10.979,10.04-9.915c0.877,0.313,2.503,1.845,2.377,4.003
		c-0.125,2.158-0.812,4.379-1.062,6.38c-0.251,2.002-0.876,5.756-1.377,8.853c-0.5,3.096-9.759,48.135-11.259,66.149
		c-1.126,15.263,0.187,24.146,0.938,40.473c1.938,32.278,2.314,44.226,2.626,50.043c0.126,9.414,7.444,105.277,5.817,114.41
		c-2.83,1.033-13.901,3.848-16.998,4.879c-3.096,1.033-17.265,5.725-18.156,10.134c2.908,0.751,14.872,1.36,46.635-2.251
		c0.233-4.129-0.235-8.585-2.44-11.354c-0.845-1.127-2.299-4.035,2.205-4.457c-0.562-6.943-1.83-19.939-2.111-24.725
		c-0.751-8.194-4.879-99.146-5.442-120.854c1.877,10.946,4.942,27.524,5.881,33.779c0.938,6.256,11.135,64.43,11.947,71.187
		c0.813,6.756,6.568,40.284,7.131,41.785c1.127,0.188,3.331,1.407,3.472,3.331c0.141,1.923,0.516,2.018-0.375,3.612
		s-1.924,7.131-1.454,9.195c7.271,0.891,42.834,4.457,47.149,3.472C531.817,633.774,532.24,627.019,495.881,619.184z
		 M474.957,395.772c0,0,13.979-53.154,26.272-56.204c1.829-0.188,8.443,10.181,16.325,50.012
		c-6.006,0.696-38.939,5.677-42.598,6.381V395.772z"/>
	<path d="M490.07,226.535c0,0,11.224-54.038,11.947-55.939c9.323,1.72,22.577,7.966,39.484,27.97
		c-6.809,5.431-19.39,18.646-28.623,38.469C509.35,233.776,500.57,228.074,490.07,226.535z"/>
	<path fill="#F7941E" d="M479.388,251.789c0,0-2.806-2.534-0.994-2.354c1.81,0.182,2.127-0.361,1.765-1.312
		c-0.362-0.951-1.041-2.715,0.77-3.892c1.131-0.725,0.905-1.267,0.588-1.766c-0.316-0.498-0.616-0.95,0.258-1.9
		s3.182-2.806,3.182-3.801c0-0.996,0-1.675,1.132-1.766c1.133-0.089,1.674-0.362,0.453-1.403c-1.223-1.04-0.544-1.854,0.315-2.353
		c0.861-0.498,2.218-1.539,1.449-1.901c-0.77-0.361-0.495-1.448,0.228-2.082c0.723-0.633,1.176-0.769,2.353-0.633
		c1.177,0.135,14.526,2.715,22.312,10.591c0.634,0.633,1.539,2.216,0.271,3.665c-1.268,1.448-4.118,3.485-3.032,4.436
		c1.087,0.95,0.317,1.991-0.95,2.67c-1.268,0.679-0.407,1.991-0.227,2.307c0.182,0.317,0.588,0.952-0.859,1.72
		c-1.448,0.77-2.399,1.041-1.72,2.037c0.679,0.996,1.538,1.403,0.226,2.307c-1.312,0.906-1.584,1.177-0.814,1.584
		c0.77,0.407,1.276,1.061-0.136,1.72c-0.68,0.316-1.221,0.633-1.221,0.633S491.021,257.265,479.388,251.789z"/>
	<path d="M457.665,244.547c0,0,10.002,7.106,32.179,13.94c22.177,6.833,32.269,8.734,33.219,8.645c0.95-0.091,1.766-0.272,0-1.177
		c-1.765-0.905-10.409-4.39-18.872-5.703c-5.794-1.177-26.838-8.553-33.763-12.764C467.803,245.588,461.376,241.561,457.665,244.547
		z"/>
	<path d="M350.537,322.163c0,0-44.469-77.252-44.476-81.633c-0.009-4.598,49.167,81.633,49.167,81.633"/>
	<g>
		<path fill="#F7941E" d="M306.651,242.888c0.108,0.432,0.163,0.883,0.419,1.262c0.412,0.613,1.181,0.702,1.744,0.24
			c0.535-0.441,0.167-1.171-0.175-1.581c-0.246-0.294-0.571-0.552-0.886-0.77c-0.338-0.232-0.832-0.064-1.027,0.269
			c-0.218,0.373-0.067,0.796,0.27,1.027c0.163,0.113-0.071-0.06,0.039,0.027c0.084,0.066,0.166,0.136,0.246,0.208
			c0.088,0.077,0.171,0.161,0.251,0.248c0.03,0.032,0.059,0.066,0.088,0.102c-0.104-0.125-0.001,0.017,0.015,0.044
			c-0.211-0.385,0.185-0.916,0.599-0.716c0.04,0.02,0.07,0.049,0.094,0.085c-0.11-0.165,0.026,0.109-0.047-0.093
			c-0.087-0.244-0.118-0.503-0.183-0.752C307.861,241.551,306.413,241.949,306.651,242.888L306.651,242.888z"/>
	</g>
	<g>
		<path fill="#F7941E" d="M310.011,248.565c-0.353,0.728,0.058,1.374,0.664,1.791c0.604,0.414,1.434,0.359,1.983-0.113
			c0.558-0.479,0.287-1.235-0.284-1.545c-0.396-0.216-0.846-0.293-1.266-0.446c-0.385-0.14-0.821,0.154-0.923,0.525
			c-0.116,0.418,0.14,0.782,0.523,0.923c0.166,0.06,0.338,0.105,0.506,0.155c0.115,0.035,0.229,0.073,0.342,0.113
			c0.084,0.033,0.086,0.033,0.006,0c0.052,0.023,0.101,0.052,0.149,0.082c-0.278-0.175-0.305-0.476-0.076-0.902
			c0.083-0.061,0.083-0.065-0.003-0.014c-0.081,0.044,0.058,0.027-0.064-0.003c-0.02-0.004-0.14-0.07-0.186-0.112
			c-0.063-0.069-0.075-0.079-0.032-0.03c-0.012-0.021-0.022-0.042-0.036-0.063c0.071,0.134,0.067,0.267-0.008,0.398
			c0.179-0.369,0.104-0.809-0.269-1.027C310.706,248.101,310.188,248.197,310.011,248.565L310.011,248.565z"/>
	</g>
	<g>
		<path fill="#F7941E" d="M313.689,255.628c0.212,0.139,0.49,0.195,0.731,0.261c0.155,0.043,0.311,0.086,0.462,0.136
			c0.063,0.021,0.126,0.044,0.188,0.069c-0.165-0.064,0.046,0.033,0.079,0.053c-0.265-0.164-0.273-0.714,0.159-0.891
			c-0.05,0.021-0.107,0.027-0.159,0.038c0.161-0.03-0.15,0.008-0.183,0.01c-0.195,0.011-0.393,0.007-0.589-0.006
			c-0.233-0.017,0.128,0.03-0.058-0.011c-0.118-0.039-0.068-0.005,0.149,0.101c-0.003-0.035-0.011-0.071-0.022-0.106
			c-0.174,0.308-0.35,0.615-0.524,0.924c0.027-0.002,0.055-0.003,0.082-0.005c0.967-0.026,0.969-1.528,0-1.501
			c-0.163,0.004-0.319,0.027-0.48,0.059c-0.417,0.081-0.607,0.548-0.524,0.923c0.195,0.885,0.903,1.122,1.708,1.131
			c0.57,0.006,1.36-0.028,1.626-0.642c0.333-0.766-0.213-1.252-0.864-1.523c-0.209-0.087-0.432-0.145-0.648-0.205
			c-0.099-0.026-0.197-0.054-0.295-0.083c-0.046-0.013-0.093-0.029-0.14-0.045c0.194,0.069,0.112,0.053,0.061,0.019
			C313.633,253.802,312.882,255.103,313.689,255.628L313.689,255.628z"/>
	</g>
	<g>
		<path fill="#F7941E" d="M317.688,261.458c-0.026,0.041-0.061,0.076-0.104,0.101c0.146-0.102-0.11,0.024,0.083-0.027
			c0.068-0.019,0.146-0.015,0.301-0.01c0.101,0.003,0.199,0.026,0.336,0.063c-0.019-0.004,0.241,0.092,0.145,0.048
			c0.002,0.001,0.215,0.138,0.108,0.052c0.062,0.065,0.067,0.065,0.016,0.002c-0.061-0.086-0.022-0.219,0.017-0.3
			c0.047-0.104,0.249-0.16,0.083-0.11c-0.168,0.05,0.029,0.009-0.156,0.019c-0.155,0.01-0.312-0.002-0.465-0.015
			c-0.083-0.006-0.166-0.017-0.248-0.027c-0.167-0.02,0.054-0.005,0.092,0.072c0.034,0.126,0.068,0.252,0.103,0.379
			c0.002-0.023,0.004-0.047,0.005-0.07c-0.073,0.177-0.147,0.354-0.221,0.531c0.005,0,0.008,0,0.013,0
			c0.87-0.424,0.108-1.719-0.759-1.296c-0.543,0.265-0.734,0.983-0.284,1.437c0.36,0.363,0.813,0.429,1.3,0.476
			c0.836,0.081,1.904-0.14,1.984-1.152c0.132-1.662-2.859-2.174-3.644-0.93C315.873,261.522,317.173,262.275,317.688,261.458
			L317.688,261.458z"/>
	</g>
	<g>
		<path fill="#F7941E" d="M320.597,267.414c0.207-0.336,0.237-0.301,0.652-0.216c0.163,0.033,0.745,0.133,0.793,0.298
			c-0.03-0.103,0.174-0.273,0.31-0.29c-0.145,0.018-0.194-0.002-0.341-0.038c-0.13-0.031-0.264-0.074-0.384-0.128
			c-0.083-0.037-0.164-0.081-0.244-0.125c-0.01-0.006-0.222-0.154-0.091-0.048c-0.748-0.599-1.817,0.456-1.061,1.062
			c0.873,0.698,3.482,1.449,3.307-0.523c-0.093-1.028-0.986-1.447-1.891-1.655c-1.023-0.237-1.784-0.005-2.348,0.905
			C318.789,267.481,320.088,268.235,320.597,267.414L320.597,267.414z"/>
	</g>
	<g>
		<path fill="#F7941E" d="M324.17,273.371c-0.021-0.292,0.104-0.333,0.457-0.418c0.329-0.079,0.73-0.02,1.021,0.139
			c0.124,0.069,0.104,0.064,0.129,0.146c-0.106-0.375,0.496-0.617,0.242-0.562c-0.115,0.024-0.251,0.017-0.37,0.021
			c-0.548,0.023-1.191-0.045-1.708,0.168c-0.883,0.365-0.495,1.817,0.399,1.448c0.752-0.311,1.654,0.046,2.417-0.307
			c1.015-0.47,0.344-1.702-0.273-2.162c-1.265-0.939-3.948-0.343-3.814,1.525C322.738,274.331,324.239,274.337,324.17,273.371
			L324.17,273.371z"/>
	</g>
	<g>
		<path fill="#F7941E" d="M326.968,280.165c0.525-0.168,0.975-0.295,1.53-0.256c0.185,0.015,0.361,0.065,0.529,0.142
			c0.098,0.05,0.193,0.105,0.284,0.168c0.301,0.192-0.33-0.057,0.357-0.304c-0.181,0.065-0.574-0.164-0.7-0.226
			c-0.569-0.279-1.111-0.572-1.722-0.755c-0.93-0.279-1.323,1.17-0.398,1.448c0.922,0.277,3.8,2.166,4.034,0.008
			c0.097-0.884-0.686-1.49-1.426-1.779c-0.959-0.373-1.941-0.197-2.889,0.106C325.65,279.012,326.043,280.461,326.968,280.165
			L326.968,280.165z"/>
	</g>
	<g>
		<path fill="#F7941E" d="M330.882,285.299c0.08-0.211,0.015-0.202-0.196,0.027c0.106-0.012,0.213,0.022,0.316,0.045
			c0.253,0.059,0.505,0.134,0.759,0.198c0.271,0.07,0.538,0.147,0.786,0.281c0.286,0.155,0.08-0.321,0.436-0.348
			c-0.796,0.06-1.592-0.509-2.357-0.659c-0.946-0.184-1.349,1.263-0.399,1.448c0.771,0.149,1.477,0.538,2.258,0.665
			c0.871,0.142,1.936-0.285,1.637-1.369c-0.301-1.098-1.479-1.324-2.432-1.588c-0.46-0.128-0.941-0.247-1.412-0.105
			c-0.638,0.193-0.828,0.816-0.896,1.404C329.268,286.259,330.771,286.249,330.882,285.299L330.882,285.299z"/>
	</g>
	<g>
		<path fill="#F7941E" d="M335.148,293.17c0.005-0.116,0.009-0.231,0.017-0.348c0.02-0.342,0.126-0.126-0.134-0.107
			c0.266-0.02,0.619,0.142,0.869,0.219c0.319,0.1,0.622,0.234,0.917,0.392c0.164,0.088,0.317,0.193,0.46,0.312
			c0.355,0.3,0.05,0.296,0.182-0.088c0.115-0.149,0.229-0.299,0.345-0.448c0.236-0.17-0.034-0.119-0.256-0.202
			c-0.293-0.108-0.593-0.195-0.895-0.276c-0.589-0.158-1.209-0.239-1.817-0.236c-0.968,0.006-0.969,1.507,0,1.502
			c0.649-0.004,1.257,0.127,1.877,0.312c0.55,0.164,1.027,0.421,1.614,0.312c0.47-0.087,0.664-0.612,0.602-1.026
			c-0.074-0.474-0.516-0.875-0.88-1.145c-0.85-0.63-1.966-1.031-3.018-1.129c-1.135-0.105-1.349,1.121-1.385,1.956
			C333.605,294.138,335.107,294.134,335.148,293.17L335.148,293.17z"/>
	</g>
	<g>
		<path fill="#F7941E" d="M339.715,300.676c0.002-0.155-0.006-0.305-0.02-0.458c-0.085,0.231-0.008,0.298,0.232,0.199
			c0.156,0.001,0.312,0.01,0.468,0.028c0.448,0.04,1.036,0.095,1.447,0.295c0.34,0.166-0.606,0.161-0.721,0.155
			c-0.25-0.015-0.5-0.007-0.75-0.022c-0.188-0.012-0.596-0.249-0.497,0.027c-0.025,0.192-0.051,0.385-0.075,0.578
			c-0.272,0.161-0.319,0.218-0.141,0.172c0.243-0.024,0.481,0.047,0.715,0.104c0.426,0.106,0.831,0.242,1.269,0.302
			c0.518,0.072,0.891-0.195,0.949-0.724c0.166-1.493-1.536-1.605-2.596-1.595c-0.968,0.009-0.968,1.511,0,1.501
			c0.237-0.002,0.473-0.006,0.71,0.001c0.123,0.005,0.228,0.021,0.348,0.047c0.219,0.046,0.061-0.169,0.036,0.046
			c0.318-0.241,0.635-0.482,0.951-0.724c-0.911-0.126-1.794-0.598-2.73-0.417c-0.64,0.123-1.161,0.715-0.778,1.368
			c0.393,0.67,1.352,0.785,2.042,0.828c0.719,0.045,1.604,0.144,2.214-0.311c0.571-0.424,0.812-1.321,0.465-1.964
			c-0.328-0.607-0.957-0.865-1.607-0.981c-0.846-0.151-1.723-0.326-2.567-0.086c-0.846,0.241-0.856,0.906-0.864,1.631
			C338.202,301.645,339.703,301.644,339.715,300.676L339.715,300.676z"/>
	</g>
	<g>
		<path fill="#F7941E" d="M344.035,308.694c0.168-0.598,0.39-0.39,0.926-0.162c0.503,0.215,0.98,0.409,1.404,0.765
			c0.107,0.093,0.207,0.196,0.297,0.305c0.08,0.238,0.184,0.187,0.309-0.153c-0.226,0.022-0.58-0.163-0.793-0.22
			c-0.377-0.101-0.764-0.166-1.142-0.262c-0.181-0.042-0.353-0.107-0.515-0.195c-0.159-0.166-0.173-0.078-0.04,0.266
			c-0.115,0.149-0.23,0.299-0.346,0.448c0.303-0.209,1.94,0.796,2.323,0.921c0.922,0.302,1.314-1.147,0.398-1.448
			c-0.974-0.32-1.8-0.965-2.862-0.965c-0.715,0-1.271,0.736-0.897,1.399c0.43,0.763,1.319,0.983,2.113,1.159
			c0.745,0.165,1.71,0.653,2.448,0.221c1.735-1.017-0.529-2.975-1.552-3.378c-0.661-0.26-1.345-0.669-2.08-0.593
			c-0.826,0.085-1.232,0.757-1.438,1.493C342.325,309.229,343.774,309.625,344.035,308.694L344.035,308.694z"/>
	</g>
	<g>
		<path fill="#F7941E" d="M348.363,316.331c0.193-0.526,1.559,0.142,1.92,0.319c0.339,0.164,0.504,0.558,0.687,0.863
			c0.117,0.193,0.249,0.377,0.374,0.565c0.217,0.328,0.186-0.548,0.394-0.552c-0.496,0.009-1.011-0.229-1.506-0.292
			c-0.578-0.073-1.531-0.284-1.692-0.932c-0.174,0.308-0.349,0.615-0.523,0.924c0.893-0.231,1.899,0.563,2.759,0.75
			c0.944,0.205,1.345-1.242,0.398-1.448c-1.222-0.266-2.253-1.088-3.557-0.752c-0.403,0.105-0.621,0.531-0.523,0.924
			c0.345,1.396,1.812,1.805,3.055,2.028c0.749,0.133,2.511,0.792,2.704-0.473c0.107-0.706-0.456-1.284-0.794-1.852
			c-0.397-0.667-0.915-1.044-1.635-1.315c-1.38-0.521-2.888-0.843-3.507,0.842C346.581,316.842,348.033,317.232,348.363,316.331
			L348.363,316.331z"/>
	</g>
</g>
<g id="Ebene_5">
	<g id="Ebene_10">
		<path fill="none" stroke="#0094AC" stroke-width="2" stroke-linecap="round" stroke-linejoin="round" stroke-miterlimit="10" d="
			M146.23,200.39c0,0,24.85-4.521,46.074-2.919"/>
		<path fill="none" stroke="#0094AC" stroke-width="2" stroke-linecap="round" stroke-linejoin="round" stroke-miterlimit="10" d="
			M153.178,183.401c0,0-2.779,7.573-5.497,9.187s-6.155,3.781-6.734,7.481c-0.431,5.069-1.134,14.754,2.657,15.204
			c3.789,0.449,50.461-2.953,50.758-3.222c1.615-0.228,3.027-2.055,2.859-4.237c-0.154-2.435-0.188-11.897-4.167-14.34
			c-3.979-2.443-8.841-2.01-11.222-11.888"/>
		
			<ellipse transform="matrix(0.998 -0.0632 0.0632 0.998 -10.8508 10.9111)" fill="none" stroke="#0094AC" stroke-width="2" stroke-linecap="round" stroke-linejoin="round" stroke-miterlimit="10" cx="166.93" cy="176.858" rx="7.632" ry="5.661"/>
		
			<ellipse transform="matrix(0.998 -0.0632 0.0632 0.998 -10.9715 10.928)" fill="none" stroke="#0094AC" stroke-width="2" stroke-linecap="round" stroke-linejoin="round" stroke-miterlimit="10" cx="167.179" cy="178.817" rx="15.013" ry="10.758"/>
		<path fill="none" stroke="#0094AC" stroke-width="2" stroke-linecap="round" stroke-linejoin="round" stroke-miterlimit="10" d="
			M139.98,204.608c0,0-6.262,2.088-11.243-1.356c-4.981-3.445-4.673-9.482-1.147-10.207c3.526-0.725,12.328-1.283,11.515,4.661
			c-0.815,5.943-10.034,11.792-19.306,10.875c-9.271-0.917-3.868-5.647-2.627-5.851c2.142-0.825,21.379-4.865,20.293,4.731
			c-0.631,3.001-3.867,4.241-5.976,4.727c-2.784,0.576-16.337,2.938-16.585-1.723c-0.132-2.812,4.624-8.261,5.381-10.777
			c0.756-2.516,1.947-6.729,0.78-15.14c-0.595-4.945,3.124-11.175,6.557-14.494c0,0,0.289-2.604,4.24-5.098
			c4.218-2.711,35.958-17.585,64.006-3.253c4.035,2.376,7.527,7.044,4.836,13.013c-1.23,2.365-3.855,2.469-7.285,1.746
			c-4.396-1.101-11.849-2.007-10.661-6.031c0.407-1.468,1.251-1.02,1.823-1.871c0.572-0.851,0.949-3.821-1.639-5.099
			c-2.588-1.277-4.869-2.637-15.127-2.301c-10.256,0.337-21.773,3.574-23.395,6.686c-0.725,1.424,1.049,2.691,1.821,3.019
			c0.772,0.327,2.108,1.621,1.111,2.687c-0.999,1.066-8.052,7.468-17.631,7.636c-2.08-0.182-2.98-3.509-2.477-8.431
			c0.144-0.698,0.377-2.703,0.377-2.703"/>
		<path fill="none" stroke="#0094AC" stroke-width="2" stroke-linecap="round" stroke-linejoin="round" stroke-miterlimit="10" d="
			M149.408,165.463c0,0,0.727,5.532,5.738,6.469"/>
		<path fill="none" stroke="#0094AC" stroke-width="2" stroke-linecap="round" stroke-linejoin="round" stroke-miterlimit="10" d="
			M177.271,169.904c0,0,4.405-2.661,4.351-6.481"/>
		<path fill="none" stroke="#0094AC" stroke-width="2" stroke-linecap="round" stroke-linejoin="round" stroke-miterlimit="10" d="
			M154.62,163.629c0,0-1.165,3.396,0.7,3.152c1.866-0.243,11.756-2.438,19.197-1.507c0.705,0.265,1.174-1.476-0.417-4.075"/>
	</g>
	<g id="Ebene_11_1_">
		
			<polygon fill="none" stroke="#0094AC" stroke-width="2" stroke-linecap="round" stroke-linejoin="round" stroke-miterlimit="10" points="
			98.586,123.939 122.105,129.475 141.957,80.307 118.098,75.533 		"/>
		<path fill="none" stroke="#0094AC" stroke-width="2" stroke-linecap="round" stroke-linejoin="round" stroke-miterlimit="10" d="
			M105.225,128.712c0,0-3.006,1.312-0.466,2.331c2.538,1.019,8.5,2.785,7.028-0.062C110.977,129.289,106.34,128.553,105.225,128.712
			z"/>
		<path fill="none" stroke="#0094AC" stroke-width="2" stroke-linecap="round" stroke-linejoin="round" stroke-miterlimit="10" d="
			M126.065,73.171c0,0,7.208,1.442,8.679,2.056"/>
		<path fill="none" stroke="#0094AC" stroke-width="2" stroke-linecap="round" stroke-linejoin="round" stroke-miterlimit="10" d="
			M128.34,70.884c0,0,6.455,1.546,6.931,1.706"/>
		<path fill="none" stroke="#0094AC" stroke-width="2" stroke-linecap="round" stroke-linejoin="round" stroke-miterlimit="10" d="
			M94.883,121.73c0,0-3.142,7.729,2.305,10.478s21.296,6.112,21.296,6.112s4.626,0.479,6.699-3.189
			c2.074-3.668,23.032-55.485,23.106-55.853c0.073-0.368,1.055-5.913-4.367-8.784s-20.021-4.835-20.609-4.762
			c-1.853,0.012-4.969,0.601-7.521,5.704C112.921,77.814,95.092,121.138,94.883,121.73z"/>
		<path fill="none" stroke="#0094AC" stroke-width="2" stroke-linecap="round" stroke-linejoin="round" stroke-miterlimit="10" d="
			M104.699,97.885c0,0-18.624,19.404-25.433,20.913c-1.79,0.343-14.611-3.18-17.432-8.209c-0.759-1.301-0.882-2.92,1.621-5.226
			c2.503-2.306,26.636-24.717,26.636-24.717s-1.742-3.092,0.467-3.925c2.208-0.834,5.937-1.3,5.557-2.27
			c-0.38-0.969-1.944-2.72-1.162-4.077c0.783-1.357,18.893-31.927,19.249-32.749c0.355-0.822,1.804-1.999,5.116-1.336
			c3.312,0.663,13.15,3.141,14.304,5.031c1.153,1.889,0.575,3.177,0.306,4.208s-8.903,18.033-10.469,19.806"/>
		
			<line fill="none" stroke="#0094AC" stroke-width="2" stroke-linecap="round" stroke-linejoin="round" stroke-miterlimit="10" x1="92.016" y1="81.542" x2="107.558" y2="89.627"/>
		
			<line fill="none" stroke="#0094AC" stroke-width="2" stroke-linecap="round" stroke-linejoin="round" stroke-miterlimit="10" x1="98.568" y1="76.218" x2="110.919" y2="81.751"/>
		<path fill="none" stroke="#0094AC" stroke-width="2" stroke-linecap="round" stroke-linejoin="round" stroke-miterlimit="10" d="
			M86.347,87.872c0,0-4.122,0.514-2.785,3.078c1.337,2.565,2.796,1.645,3.606-0.49"/>
		<path fill="none" stroke="#0094AC" stroke-width="2" stroke-linecap="round" stroke-linejoin="round" stroke-miterlimit="10" d="
			M90.04,91.417c0,0-3.729,2.06-1.729,2.907c2,0.847,5.385,1.141,4.49-2.355"/>
		<path fill="none" stroke="#0094AC" stroke-width="2" stroke-linecap="round" stroke-linejoin="round" stroke-miterlimit="10" d="
			M100.378,95.546c0,0-2.769-1.147-5.517-0.804c-2.749,0.344-3.779,1.64,2.509,2.926"/>
		<path fill="none" stroke="#0094AC" stroke-width="2" stroke-linecap="round" stroke-linejoin="round" stroke-miterlimit="10" d="
			M91.721,97.681c0,0-3.621,2.47,0.441,3.219c4.06,0.749,2.946-1.972,2.38-2.654"/>
		<path fill="none" stroke="#0094AC" stroke-width="2" stroke-linecap="round" stroke-linejoin="round" stroke-miterlimit="10" d="
			M84.362,94.5c0,0-2.224,3.245,1.076,4.607c3.3,1.362,4.741-3.763,1.534-3.521"/>
		<path fill="none" stroke="#0094AC" stroke-width="2" stroke-linecap="round" stroke-linejoin="round" stroke-miterlimit="10" d="
			M80.839,92.446c0,0-3.828,0.957-2.062,3.606c1.767,2.651,3.456-0.456,3.557-1.393"/>
		<path fill="none" stroke="#0094AC" stroke-width="2" stroke-linecap="round" stroke-linejoin="round" stroke-miterlimit="10" d="
			M77.702,97.623c0,0-4.052-1.129-2.666,0.552c0.662,0.834,1.386,1.362,1.386,1.362"/>
		<path fill="none" stroke="#0094AC" stroke-width="2" stroke-linecap="round" stroke-linejoin="round" stroke-miterlimit="10" d="
			M83.099,99.088c0,0-2.249,1.909-0.764,2.461c1.484,0.552,2.208,0.442,2.208,0.442"/>
		<path fill="none" stroke="#0094AC" stroke-width="2" stroke-linecap="round" stroke-linejoin="round" stroke-miterlimit="10" d="
			M86.874,102.139c0,0-0.834,1.938,0.552,2.343c1.386,0.405,3.03-0.796,3.03-0.796"/>
		<path fill="none" stroke="#0094AC" stroke-width="2" stroke-linecap="round" stroke-linejoin="round" stroke-miterlimit="10" d="
			M73.109,98.874c0,0-2.711,2.074-1.019,2.859c1.693,0.784,2.994,0.024,3.435,0.687c0.441,0.662-0.297,1.854,0.814,2.013
			c1.112,0.159,4.583-0.997,4.823-0.248c0.239,0.75,0.313,3.253,2.325,3.082c2.011-0.172,3.826-0.625,4.098-1.668"/>
		<path fill="none" stroke="#0094AC" stroke-width="2" stroke-linecap="round" stroke-linejoin="round" stroke-miterlimit="10" d="
			M69.281,102.063c0,0-2.307,0.686-0.699,3.496"/>
		<path fill="none" stroke="#0094AC" stroke-width="2" stroke-linecap="round" stroke-linejoin="round" stroke-miterlimit="10" d="
			M73.243,107.13c0,0,0.929,1.143,2.335,1.105c1.407-0.038,1.451-0.092,1.882,0.696c0.432,0.788,5.008,2.15,5.008,2.15"/>
		<path fill="none" stroke="#0094AC" stroke-width="2" stroke-linecap="round" stroke-linejoin="round" stroke-miterlimit="10" d="
			M113.905,74.166c0,0-13.429-3.78-14.501-6.784c2.749-6.084,6.515-14.828,12.981-21.955c2.625-0.049,12.499,2.884,14.353,5.423
			c-1.878,5.557-4.979,12.617-6.742,15.726"/>
		<path fill="none" stroke="#0094AC" stroke-width="2" stroke-linecap="round" stroke-linejoin="round" stroke-miterlimit="10" d="
			M123.399,53.819c0,0-10.09-3.387-12.169-3.902c-3.129,4.478-9.215,15.763-9.362,16.818c3.913,2.123,12.219,5,12.942,5.142
			C116.859,68.332,123.399,53.819,123.399,53.819z"/>
	</g>
</g>
<g id="Ebene_8">
	<g id="Ebene_4">
		<g id="Test_Cases_links">
			
				<path fill="#FFFFFF" stroke="#0094AC" stroke-width="2.1736" stroke-linecap="round" stroke-linejoin="round" stroke-miterlimit="10" d="
				M282.324,45.733c0,0,3.584,13.748-0.365,18.952c15.81-3.987,27.953-6.7,37.459,1.667c0,0,12.257-8.754,12.007-12.229
				C331.174,50.649,295.525,34.599,282.324,45.733z"/>
			
				<path fill="#FFFFFF" stroke="#0094AC" stroke-width="2.1736" stroke-linecap="round" stroke-linejoin="round" stroke-miterlimit="10" d="
				M345.63,76.804c1.596,3.375,14.138,24.706,11.379,32.561c-0.57,2.071-2.165,1.929-6.35-3.908
				c4.257-7.838-3.748-15.509-11.566-22.713c12.648-8.174,3.307-6.069,3.307-6.069s0.799,0.746,1.358,2.757"/>
			
				<path fill="#FFFFFF" stroke="#0094AC" stroke-width="2.1736" stroke-linecap="round" stroke-linejoin="round" stroke-miterlimit="10" d="
				M367.479,103.828c0,0,3.36-6.374,7.551-5.228c4.478-9.45,15.073-26.347,23.379-28.924c0,0,3.723-7.732-11.456-11.457
				C371.773,54.497,362.914,98.739,367.479,103.828z"/>
			
				<path fill="#FFFFFF" stroke="#0094AC" stroke-width="2.1736" stroke-linecap="round" stroke-linejoin="round" stroke-miterlimit="10" d="
				M409.577,65.093c0,0,3.724-12.601,0-17.183c10.311-3.724,36.658-4.868,45.536,3.724c2.577,9.45,1.718,16.828,0,19.583
				C451.104,69.676,429.625,60.797,409.577,65.093z"/>
			
				<path fill="#FCFCFC" stroke="#0094AC" stroke-width="2.1736" stroke-linecap="round" stroke-linejoin="round" stroke-miterlimit="10" d="
				M490.358,75.882c15.732,0,28.079,20.57,23.635,28.016c-0.6-9.091-7.158-0.859-7.158-0.859s-2.028-21.066-29.274-19.634
				c0.464-1.702,1.252-2.493,2.034-3.436"/>
			
				<path fill="none" stroke="#0094AC" stroke-width="2.1736" stroke-linecap="round" stroke-linejoin="round" stroke-miterlimit="10" d="
				M511.071,99.705c0,0,1.964,1.658,2.922,4.194"/>
			
				<path fill="#FFFFFF" stroke="#0094AC" stroke-width="2.1736" stroke-linecap="round" stroke-linejoin="round" stroke-miterlimit="10" d="
				M451.506,73.112c0,0,2.311,6.534-3.704,11.403c24.433,2.917,54.14-13.479,53.348-18.061c-4.514-4.869-10.499-9.967-16.514-10.605
				C480.913,60.654,465.001,73.221,451.506,73.112z"/>
		</g>
		<g id="Ebene_8_1_">
			<path fill="none" stroke="#0094AC" stroke-width="2" stroke-linecap="round" stroke-linejoin="round" stroke-miterlimit="10" d="
				M378.47,70.537c0,0,1.517-3.635,4.321-1.611c2.805,2.024-6.09,7.897-7.938,10.95c1.543-0.708,2.936-0.124,4.061-0.142"/>
			<path fill="none" stroke="#0094AC" stroke-width="2" stroke-linecap="round" stroke-linejoin="round" stroke-miterlimit="10" d="
				M386.978,69.923l-4.935,6.723c0,0,2.622-0.115,4.325,1.203"/>
			<path fill="none" stroke="#0094AC" stroke-width="2" stroke-linecap="round" stroke-linejoin="round" stroke-miterlimit="10" d="
				M387.661,74.062c0,0-3.704,2.653-6.182,6.989"/>
			<path fill="none" stroke="#0094AC" stroke-width="2" stroke-linecap="round" stroke-linejoin="round" stroke-miterlimit="10" d="
				M371.56,85.379c0,0,6.98-1.742,8.698,0.191"/>
			<path fill="none" stroke="#0094AC" stroke-width="2" stroke-linecap="round" stroke-linejoin="round" stroke-miterlimit="10" d="
				M370.807,88.811c0,0,5.103-2.095,7.196,0"/>
			<path fill="none" stroke="#0094AC" stroke-width="2" stroke-linecap="round" stroke-linejoin="round" stroke-miterlimit="10" d="
				M369.841,93.088c0,0,5.012-3.651,6.068-1.433"/>
			<path fill="none" stroke="#0094AC" stroke-width="2" stroke-linecap="round" stroke-linejoin="round" stroke-miterlimit="10" d="
				M369.841,96.417c0,0,4.081-4.081,5.012-1.566"/>
			<path fill="none" stroke="#0094AC" stroke-width="2" stroke-linecap="round" stroke-linejoin="round" stroke-miterlimit="10" d="
				M446.95,50.559c0,0,3.438,3.329,0.216,4.296c-2.613,0.784-7.947-5.237-7.947-5.237l-0.188,4.736"/>
			<path fill="none" stroke="#0094AC" stroke-width="2" stroke-linecap="round" stroke-linejoin="round" stroke-miterlimit="10" d="
				M447.802,59.663c0,0,1.504,1.743,0,2.387c-1.503,0.645-3.428,0-3.105-2.255c-0.43,1.396-1.182,3.33-3.437,2.148
				c-2.256-1.182-3.974-4.761-1.289-5.441"/>
			<path fill="none" stroke="#0094AC" stroke-width="2" stroke-linecap="round" stroke-linejoin="round" stroke-miterlimit="10" d="
				M433.849,48.518c0,0,1.305,3.867-0.689,10.74"/>
			<path fill="none" stroke="#0094AC" stroke-width="2" stroke-linecap="round" stroke-linejoin="round" stroke-miterlimit="10" d="
				M430.785,48.518c0,0,0.916,3.169,0.271,5.692"/>
			<path fill="none" stroke="#0094AC" stroke-width="2" stroke-linecap="round" stroke-linejoin="round" stroke-miterlimit="10" d="
				M426.653,49.163c0,0,2.147,5.191,0,10.095"/>
			<path fill="none" stroke="#0094AC" stroke-width="2" stroke-linecap="round" stroke-linejoin="round" stroke-miterlimit="10" d="
				M422.787,49.163c0,0,1.288,5.129,0,10.095"/>
			<path fill="none" stroke="#0094AC" stroke-width="2" stroke-linecap="round" stroke-linejoin="round" stroke-miterlimit="10" d="
				M482.393,63.769c0,0,3.988-3.651,3.973-0.24c-0.01,2.407-10.524,4.784-10.524,4.784s1.831,1.004,1.831,2.042"/>
			<path fill="none" stroke="#0094AC" stroke-width="2" stroke-linecap="round" stroke-linejoin="round" stroke-miterlimit="10" d="
				M485.937,68.313c0,0,5.477-3.792,4.188,0.826c-0.788,2.823-11.349,3.633-11.349,3.633s1.164,2.081,1.039,3.11"/>
			<path fill="none" stroke="#0094AC" stroke-width="2" stroke-linecap="round" stroke-linejoin="round" stroke-miterlimit="10" d="
				M471.545,69.923c0,0,3.114,1.972,3.545,8.058"/>
			<path fill="none" stroke="#0094AC" stroke-width="2" stroke-linecap="round" stroke-linejoin="round" stroke-miterlimit="10" d="
				M468.323,71.216c0,0,2.656,4.574,2.47,8.018"/>
			<path fill="none" stroke="#0094AC" stroke-width="2" stroke-linecap="round" stroke-linejoin="round" stroke-miterlimit="10" d="
				M464.563,72.79c0,0,1.865,5.919,1.112,7.531"/>
			<path fill="none" stroke="#0094AC" stroke-width="2" stroke-linecap="round" stroke-linejoin="round" stroke-miterlimit="10" d="
				M460.805,74.094c0,0,0.752,2.573,0.537,4.389"/>
			<path fill="none" stroke="#0094AC" stroke-width="2" stroke-linecap="round" stroke-linejoin="round" stroke-miterlimit="10" d="
				M488.621,80.321c0,0,2.055-3.877,4.303-4.253"/>
			<path fill="none" stroke="#0094AC" stroke-width="2" stroke-linecap="round" stroke-linejoin="round" stroke-miterlimit="10" d="
				M492.924,81.05c0,0,1.044-3.932,3.311-4.217"/>
			<path fill="none" stroke="#0094AC" stroke-width="2" stroke-linecap="round" stroke-linejoin="round" stroke-miterlimit="10" d="
				M497.32,80.321c0,0,0.934-2.093,2.186-2.126"/>
			<path fill="none" stroke="#0094AC" stroke-width="2" stroke-linecap="round" stroke-linejoin="round" stroke-miterlimit="10" d="
				M498.572,84.425c0,0,2.319-4.015,3.756-4.549"/>
			<path fill="none" stroke="#0094AC" stroke-width="2" stroke-linecap="round" stroke-linejoin="round" stroke-miterlimit="10" d="
				M511.071,90.97l-0.854,3.062c0,0-1.837-5.275-5.165-8.462"/>
		</g>
	</g>
</g>
<g id="Ebene_9">
	<path fill="none" stroke="#0094AC" stroke-width="2" stroke-linecap="round" stroke-linejoin="round" stroke-miterlimit="10" d="
		M278.703,138.372c0,0,8.982-0.909,17.273-8.182c8.145-7.126,8.344-15.874,6.742-18.492c-0.289-1.309-16.844-6.552-31.389,0.139
		c-4.509,1.745-6.386,3.919-6.386,3.919s-47.741-17.628-51.778-11.922c-4.833,6.833,20.334,14.167,47.137,16.282
		c-0.294,1.746-2.184,4.511-2.184,4.511l1.894,0.145l-0.581,4.07l2.762,0.728l-1.018,2.765l1.602,1.453l-0.584,3.055l-1.74,5.095
		c0,0-3.492,11.634-6.109,15.708c-2.619,4.074-13.674,23.122-15.276,26.904c-0.872-1.163-2.618-1.746-2.618-1.746l-3.014,2.186
		L231,184.263V186h-3l-0.665,4.108l-2.835-0.296l1.375,2.312l-3.5,0.625l3.375,2.5l-2.625,4.75l3.125,0.875l-1.875,4.375
		l3.914-1.427L228,207l1.5,1.875l2.851-3.349"/>
	<path fill="none" stroke="#0094AC" stroke-width="2" stroke-linecap="round" stroke-linejoin="round" stroke-miterlimit="10" d="
		M266.143,195.963c0,0,1.549,1.376,2.354,7.771c-0.166,5.317-3.162,8.57-3.162,8.57s10.355,17.265,4.998,22.529
		c-7.391-10.019-17.832-20.152-17.832-20.152"/>
	<path fill="none" stroke="#0094AC" stroke-width="2" stroke-linecap="round" stroke-linejoin="round" stroke-miterlimit="10" d="
		M237.834,195.202c-4.349,2.524-6.766,21.293-5.334,23.295c11.089,10.984,20.559,22.787,20.559,22.787s2.258-15.617-4.225-23.788
		c2.5-3.21,7.666-10.043,6.166-16.019"/>
	<path fill="none" stroke="#0094AC" stroke-width="2" stroke-linecap="round" stroke-linejoin="round" stroke-miterlimit="10" d="
		M274.705,119.099c0,0-1.164,1.164,0,1.309C275.867,120.552,276.158,118.954,274.705,119.099z"/>
	<path fill="none" stroke="#0094AC" stroke-width="2" stroke-linecap="round" stroke-linejoin="round" stroke-miterlimit="10" d="
		M267.287,112.99c0,0-35.787-33.214-40.287-33.156c-5.666,2,3.666,14.667,8.5,19c3.628,3.39,14.471,11.758,14.471,11.758"/>
	<path fill="none" stroke="#0094AC" stroke-width="2" stroke-linecap="round" stroke-linejoin="round" stroke-miterlimit="10" d="
		M297.685,114.152c0,0,5.236-0.579,5.089-2.471"/>
	<path fill="none" stroke="#0094AC" stroke-width="2" stroke-linecap="round" stroke-linejoin="round" stroke-miterlimit="10" d="
		M282.266,179.822c-5.099,10.775-21.164,19.158-21.164,19.158"/>
	<path fill="none" stroke="#0094AC" stroke-width="2" stroke-linecap="round" stroke-linejoin="round" stroke-miterlimit="10" d="
		M273.395,171.968c0,0,4.508,10.181,8.871,7.854c4.364-2.327,2.91-8.582,4.364-9.164c1.456-0.581-0.108,4.094,4.98,6.128
		c5.093,2.035,5.239-7.273,3.349-11.637l-2.184-6.618l0.438-1.309l-2.911-2.181l-0.579-2.474l-1.636-2.182L287,147.023v-1.887
		l-2.002-2.326l0.236-2.474l1.789-0.873l-1.865-1.018l0.736-1.02l-5.666,0.583"/>
</g>
<g id="Sparcles_1_">
	<g>
		<g>
			<path fill="#F7941E" d="M305.684,240.992c1.935,0,1.935-3,0-3S303.749,240.992,305.684,240.992L305.684,240.992z"/>
		</g>
	</g>
	<g>
		<g>
			<path fill="#F7941E" d="M298.184,231.492c1.935,0,1.935-3,0-3S296.249,231.492,298.184,231.492L298.184,231.492z"/>
		</g>
	</g>
	<g>
		<g>
			<path fill="#F7941E" d="M298.684,219.992c1.935,0,1.935-3,0-3S296.749,219.992,298.684,219.992L298.684,219.992z"/>
		</g>
	</g>
	<g>
		<g>
			<path fill="#F7941E" d="M299.184,207.492c1.935,0,1.935-3,0-3S297.249,207.492,299.184,207.492L299.184,207.492z"/>
		</g>
	</g>
	<g>
		<g>
			<path fill="#F7941E" d="M292.684,204.492c1.935,0,1.935-3,0-3S290.749,204.492,292.684,204.492L292.684,204.492z"/>
		</g>
	</g>
	<g>
		<g>
			<path fill="#F7941E" d="M298.184,201.492c1.935,0,1.935-3,0-3S296.249,201.492,298.184,201.492L298.184,201.492z"/>
		</g>
	</g>
	<g>
		<g>
			<path fill="#F7941E" d="M311.184,195.992c1.935,0,1.935-3,0-3S309.249,195.992,311.184,195.992L311.184,195.992z"/>
		</g>
	</g>
	<g>
		<g>
			<path fill="#F7941E" d="M359.979,194.182c1.935,0,1.935-3,0-3S358.044,194.182,359.979,194.182L359.979,194.182z"/>
		</g>
	</g>
	<g>
		<g>
			<path fill="#F7941E" d="M374.479,177.182c1.935,0,1.935-3,0-3S372.544,177.182,374.479,177.182L374.479,177.182z"/>
		</g>
	</g>
	<g>
		<g>
			<path fill="#F7941E" d="M335.979,189.182c1.935,0,1.935-3,0-3S334.044,189.182,335.979,189.182L335.979,189.182z"/>
		</g>
	</g>
	<g>
		<g>
			<path fill="#F7941E" d="M467.434,126.992c1.935,0,1.935-3,0-3S465.499,126.992,467.434,126.992L467.434,126.992z"/>
		</g>
	</g>
	<g>
		<g>
			<path fill="#F7941E" d="M437.934,136.492c1.935,0,1.935-3,0-3S435.999,136.492,437.934,136.492L437.934,136.492z"/>
		</g>
	</g>
	<g>
		<g>
			<path fill="#F7941E" d="M414.434,133.992c1.935,0,1.935-3,0-3S412.499,133.992,414.434,133.992L414.434,133.992z"/>
		</g>
	</g>
	<g>
		<g>
			<path fill="#F7941E" d="M239.684,228.992c1.935,0,1.935-3,0-3S237.749,228.992,239.684,228.992L239.684,228.992z"/>
		</g>
	</g>
	<g>
		<g>
			<path fill="#F7941E" d="M445.434,94.992c1.935,0,1.935-3,0-3S443.499,94.992,445.434,94.992L445.434,94.992z"/>
		</g>
	</g>
	<g>
		<g>
			<path fill="#F7941E" d="M433.434,100.492c1.935,0,1.935-3,0-3S431.499,100.492,433.434,100.492L433.434,100.492z"/>
		</g>
	</g>
	<g>
		<g>
			<path fill="#F7941E" d="M448.434,76.492c1.935,0,1.935-3,0-3S446.499,76.492,448.434,76.492L448.434,76.492z"/>
		</g>
	</g>
	<g>
		<g>
			<path fill="#F7941E" d="M409.934,110.492c1.935,0,1.935-3,0-3S407.999,110.492,409.934,110.492L409.934,110.492z"/>
		</g>
	</g>
	<g>
		<g>
			<path fill="#F7941E" d="M398.434,94.492c1.935,0,1.935-3,0-3S396.499,94.492,398.434,94.492L398.434,94.492z"/>
		</g>
	</g>
	<g>
		<g>
			<path fill="#F7941E" d="M391.934,107.492c1.935,0,1.935-3,0-3S389.999,107.492,391.934,107.492L391.934,107.492z"/>
		</g>
	</g>
	<g>
		<g>
			<path fill="#F7941E" d="M386.934,116.492c1.935,0,1.935-3,0-3S384.999,116.492,386.934,116.492L386.934,116.492z"/>
		</g>
	</g>
	<g>
		<g>
			<path fill="#F7941E" d="M385.934,124.492c1.935,0,1.935-3,0-3S383.999,124.492,385.934,124.492L385.934,124.492z"/>
		</g>
	</g>
	<g>
		<g>
			<path fill="#F7941E" d="M380.934,136.492c1.935,0,1.935-3,0-3S378.999,136.492,380.934,136.492L380.934,136.492z"/>
		</g>
	</g>
	<g>
		<g>
			<path fill="#F7941E" d="M367.934,140.992c1.935,0,1.935-3,0-3S365.999,140.992,367.934,140.992L367.934,140.992z"/>
		</g>
	</g>
	<g>
		<g>
			<path fill="#F7941E" d="M342.934,145.492c1.935,0,1.935-3,0-3S340.999,145.492,342.934,145.492L342.934,145.492z"/>
		</g>
	</g>
	<g>
		<g>
			<path fill="#F7941E" d="M344.934,129.492c1.935,0,1.935-3,0-3S342.999,129.492,344.934,129.492L344.934,129.492z"/>
		</g>
	</g>
	<g>
		<g>
			<path fill="#F7941E" d="M351.934,124.992c1.935,0,1.935-3,0-3S349.999,124.992,351.934,124.992L351.934,124.992z"/>
		</g>
	</g>
	<g>
		<g>
			<path fill="#F7941E" d="M341.934,121.492c1.935,0,1.935-3,0-3S339.999,121.492,341.934,121.492L341.934,121.492z"/>
		</g>
	</g>
	<g>
		<g>
			<path fill="#F7941E" d="M341.934,109.492c1.935,0,1.935-3,0-3S339.999,109.492,341.934,109.492L341.934,109.492z"/>
		</g>
	</g>
	<g>
		<g>
			<path fill="#F7941E" d="M324.434,97.492c1.935,0,1.935-3,0-3S322.499,97.492,324.434,97.492L324.434,97.492z"/>
		</g>
	</g>
	<g>
		<g>
			<path fill="#F7941E" d="M356.934,99.492c1.935,0,1.935-3,0-3S354.999,99.492,356.934,99.492L356.934,99.492z"/>
		</g>
	</g>
	<g>
		<g>
			<path fill="#F7941E" d="M398.934,68.992c1.935,0,1.935-3,0-3S396.999,68.992,398.934,68.992L398.934,68.992z"/>
		</g>
	</g>
	<g>
		<g>
			<path fill="#F7941E" d="M365.434,72.492c1.935,0,1.935-3,0-3S363.499,72.492,365.434,72.492L365.434,72.492z"/>
		</g>
	</g>
	<g>
		<g>
			<path fill="#F7941E" d="M339.434,58.492c1.935,0,1.935-3,0-3S337.499,58.492,339.434,58.492L339.434,58.492z"/>
		</g>
	</g>
	<g>
		<g>
			<path fill="#F7941E" d="M336.934,40.492c1.935,0,1.935-3,0-3S334.999,40.492,336.934,40.492L336.934,40.492z"/>
		</g>
	</g>
	<g>
		<g>
			<path fill="#F7941E" d="M325.434,27.992c1.935,0,1.935-3,0-3S323.499,27.992,325.434,27.992L325.434,27.992z"/>
		</g>
	</g>
	<g>
		<g>
			<path fill="#F7941E" d="M271.934,217.492c1.935,0,1.935-3,0-3S269.999,217.492,271.934,217.492L271.934,217.492z"/>
		</g>
	</g>
	<g>
		<g>
			<path fill="#F7941E" d="M265.934,196.992c1.935,0,1.935-3,0-3S263.999,196.992,265.934,196.992L265.934,196.992z"/>
		</g>
	</g>
	<g>
		<g>
			<path fill="#F7941E" d="M269.434,180.992c1.935,0,1.935-3,0-3S267.499,180.992,269.434,180.992L269.434,180.992z"/>
		</g>
	</g>
	<g>
		<g>
			<path fill="#F7941E" d="M254.684,244.492c1.935,0,1.935-3,0-3S252.749,244.492,254.684,244.492L254.684,244.492z"/>
		</g>
	</g>
	<g>
		<g>
			<path fill="#F7941E" d="M227.684,250.992c1.935,0,1.935-3,0-3S225.749,250.992,227.684,250.992L227.684,250.992z"/>
		</g>
	</g>
	<g>
		<g>
			<path fill="#F7941E" d="M236.434,230.992c1.935,0,1.935-3,0-3S234.499,230.992,236.434,230.992L236.434,230.992z"/>
		</g>
	</g>
	<g>
		<g>
			<path fill="#F7941E" d="M236.434,218.992c1.935,0,1.935-3,0-3S234.499,218.992,236.434,218.992L236.434,218.992z"/>
		</g>
	</g>
	<g>
		<g>
			<path fill="#F7941E" d="M209.434,174.992c1.935,0,1.935-3,0-3S207.499,174.992,209.434,174.992L209.434,174.992z"/>
		</g>
	</g>
	<g>
		<g>
			<path fill="#F7941E" d="M270.934,145.992c1.935,0,1.935-3,0-3S268.999,145.992,270.934,145.992L270.934,145.992z"/>
		</g>
	</g>
	<g>
		<g>
			<path fill="#F7941E" d="M244.434,159.992c1.935,0,1.935-3,0-3S242.499,159.992,244.434,159.992L244.434,159.992z"/>
		</g>
	</g>
	<g>
		<g>
			<path fill="#F7941E" d="M236.434,152.492c1.935,0,1.935-3,0-3S234.499,152.492,236.434,152.492L236.434,152.492z"/>
		</g>
	</g>
	<g>
		<g>
			<path fill="#F7941E" d="M225.434,147.992c1.935,0,1.935-3,0-3S223.499,147.992,225.434,147.992L225.434,147.992z"/>
		</g>
	</g>
	<g>
		<g>
			<path fill="#F7941E" d="M224.434,139.992c1.935,0,1.935-3,0-3S222.499,139.992,224.434,139.992L224.434,139.992z"/>
		</g>
	</g>
	<g>
		<g>
			<path fill="#F7941E" d="M223.434,128.992c1.935,0,1.935-3,0-3S221.499,128.992,223.434,128.992L223.434,128.992z"/>
		</g>
	</g>
	<g>
		<g>
			<path fill="#F7941E" d="M218.434,117.992c1.935,0,1.935-3,0-3S216.499,117.992,218.434,117.992L218.434,117.992z"/>
		</g>
	</g>
	<g>
		<g>
			<path fill="#F7941E" d="M139.997,225.09c1.935,0,1.935-3,0-3S138.062,225.09,139.997,225.09L139.997,225.09z"/>
		</g>
	</g>
	<g>
		<g>
			<path fill="#F7941E" d="M91.997,217.59c1.935,0,1.935-3,0-3S90.062,217.59,91.997,217.59L91.997,217.59z"/>
		</g>
	</g>
	<g>
		<g>
			<path fill="#F7941E" d="M77.856,58.492c1.935,0,1.935-3,0-3S75.922,58.492,77.856,58.492L77.856,58.492z"/>
		</g>
	</g>
	<g>
		<g>
			<path fill="#F7941E" d="M73.243,75.666c1.935,0,1.935-3,0-3S71.309,75.666,73.243,75.666L73.243,75.666z"/>
		</g>
	</g>
	<g>
		<g>
			<path fill="#F7941E" d="M60.762,143.909c1.935,0,1.935-3,0-3S58.827,143.909,60.762,143.909L60.762,143.909z"/>
		</g>
	</g>
	<g>
		<g>
			<path fill="#F7941E" d="M97.262,142.409c1.935,0,1.935-3,0-3S95.327,142.409,97.262,142.409L97.262,142.409z"/>
		</g>
	</g>
	<g>
		<g>
			<path fill="#F7941E" d="M97.762,132.409c1.935,0,1.935-3,0-3S95.827,132.409,97.762,132.409L97.762,132.409z"/>
		</g>
	</g>
	<g>
		<g>
			<path fill="#F7941E" d="M95.262,124.909c1.935,0,1.935-3,0-3S93.327,124.909,95.262,124.909L95.262,124.909z"/>
		</g>
	</g>
	<g>
		<g>
			<path fill="#F7941E" d="M89.262,118.909c1.935,0,1.935-3,0-3S87.327,118.909,89.262,118.909L89.262,118.909z"/>
		</g>
	</g>
	<g>
		<g>
			<path fill="#F7941E" d="M80.762,101.909c1.935,0,1.935-3,0-3S78.827,101.909,80.762,101.909L80.762,101.909z"/>
		</g>
	</g>
	<g>
		<g>
			<path fill="#F7941E" d="M119.762,124.409c1.935,0,1.935-3,0-3S117.827,124.409,119.762,124.409L119.762,124.409z"/>
		</g>
	</g>
	<g>
		<g>
			<path fill="#F7941E" d="M299.184,240.992c1.935,0,1.935-3,0-3S297.249,240.992,299.184,240.992L299.184,240.992z"/>
		</g>
	</g>
	<g>
		<g>
			<path fill="#F7941E" d="M284.184,238.992c1.935,0,1.935-3,0-3S282.249,238.992,284.184,238.992L284.184,238.992z"/>
		</g>
	</g>
	<g>
		<g>
			<path fill="#F7941E" d="M259.184,236.992c1.935,0,1.935-3,0-3S257.249,236.992,259.184,236.992L259.184,236.992z"/>
		</g>
	</g>
</g>
</svg>
