<?xml version="1.0" encoding="utf-8"?>
<!-- Generator: Adobe Illustrator 16.0.0, SVG Export Plug-In . SVG Version: 6.00 Build 0)  -->
<!DOCTYPE svg PUBLIC "-//W3C//DTD SVG 1.1//EN" "http://www.w3.org/Graphics/SVG/1.1/DTD/svg11.dtd">
<svg version="1.1" xmlns="http://www.w3.org/2000/svg" xmlns:xlink="http://www.w3.org/1999/xlink" x="0px" y="0px"
	 width="1405.015px" height="782.96px" viewBox="0 0 1405.015 782.96" enable-background="new 0 0 1405.015 782.96"
	 xml:space="preserve">
<g id="Ebene_7" display="none">
	<g id="CyVo28.tif" display="inline">
		
			<image overflow="visible" width="836" height="490" id="Layer_0" xlink:href="5CD1C6CBE65CC043.png"  transform="matrix(1.8681 0 0 1.8681 -83.0933 -122.4966)">
		</image>
	</g>
</g>
<g id="Ebene_9">
	<g id="Ebene_9_1_">
		<path fill="#020000" d="M153.724,646.253c0,0-22.893,49.874-28.649,71.138c-3.798,14.032-4.443,54.57-3.469,56.908
			c0.974,2.34,60.757,12.638,96.422-2.563c0,0,0.011-7.376,0.011-9.909c0-2.532-2.729-5.262-6.236-6.82
			c2.376,1.314,5.064-1.087,4.773-2.786c-0.471-2.75,0.294-7.934-2.824-8.323c-3.118-0.39,0-1.754,0.975-2.338
			c0.974-0.585-1.364-6.237-2.339-7.406c-0.974-1.169-0.584-4.093-1.169-6.82c-0.584-2.729-1.364-7.602-4.872-14.265
			c-2.347-4.455-0.195-24.521,6.626-36.994c-1.364,0-7.016,1.561-33.911-10.523C166.781,660.286,153.724,646.253,153.724,646.253z"
			/>
		<path fill="#F7941E" d="M220.669,660.578c0,0-0.194,7.698-3.605,7.503c-1.169,1.364,0.487,5.264-2.631,5.264
			c-3.118,0,5.75,5.358-12.765,1.753c-28.81-7.914-43.783-23.84-50.478-31.183c0,0-2.534-5.263,1.949-5.847
			c4.482-0.585,0.584-3.119,0.584-3.119s-2.144-4.093,5.067-6.042c-1.364-1.363-4.775-5.979-0.682-7.148
			c4.093-1.169,6.236-2.205,5.554-3.473c0,0-1.049-4.816,2.433-4.736c7.575,5.929,50.429,35.752,60.697,42.846
			c0,0-2.364,0.364-3.493,2.722c0,0,0.097,1.462-1.267,1.462"/>
		<path fill="#020000" d="M275.46,673.633c0,0-0.825,1.8-1.346,2.062c0,0-10.275,1.061-29.57-7.612c0,0-30.793-12.862-87.409-57.492
			c-20.873-16.454-28.486-26.537-32.645-39.272c0.954-1.604,1.026-1.763,1.418-2.333"/>
		<path fill="#020000" d="M138.327,589.929c0,0,39.25,43.724,113.298,79.389c21.309,10.135,30.922,6.313,19.229-4.99
			c-11.694-11.305-51.658-46.527-113.633-81.608c-21.049-11.693-34.161-19.37-31.172-10.622
			C128.723,579.926,136.886,588.61,138.327,589.929z"/>
		<path d="M179.645,607.071c0,0-6.988-2.729-1.726,1.949c5.262,4.677,45.935,34.105,51.423,34.105
			c3.118,0-4.135-5.521-17.672-15.606C205.226,622.717,194.38,615.024,179.645,607.071z"/>
	</g>
</g>
<g id="Ebene_4">
	<g id="Test_Cases_rechts">
		
			<path fill="none" stroke="#000000" stroke-width="2.1736" stroke-linecap="round" stroke-linejoin="round" stroke-miterlimit="10" d="
			M422.37,774.969c0,0,120.632-1.45,130.775-1.45s-46.007-8.694-46.007-8.694"/>
		
			<path fill="none" stroke="#000000" stroke-width="2.1736" stroke-linecap="round" stroke-linejoin="round" stroke-miterlimit="10" d="
			M544.089,764.825c-1.812,0-52.89-1.812-98.897,3.261"/>
		
			<line fill="none" stroke="#000000" stroke-width="2.1736" stroke-linecap="round" stroke-linejoin="round" stroke-miterlimit="10" x1="422.37" y1="763.376" x2="469.826" y2="762.29"/>
		
			<path fill="none" stroke="#000000" stroke-width="2.1736" stroke-linecap="round" stroke-linejoin="round" stroke-miterlimit="10" d="
			M450.626,758.667c0,0-22.461-5.435-30.068-4.348c46.37-2.536,95.637-4.347,114.475-2.898c-7.97-4.347-89.84-4.709-89.84-4.709
			s104.331-6.521,105.418-6.159"/>
		
			<polyline fill="none" stroke="#000000" stroke-width="2.1736" stroke-linecap="round" stroke-linejoin="round" stroke-miterlimit="10" points="
			516.195,742.366 561.84,746.712 540.829,752.508 		"/>
		
			<line fill="none" stroke="#000000" stroke-width="2.1736" stroke-linecap="round" stroke-linejoin="round" stroke-miterlimit="10" x1="548.798" y1="734.033" x2="438.309" y2="732.584"/>
		
			<path fill="none" stroke="#000000" stroke-width="2.1736" stroke-linecap="round" stroke-linejoin="round" stroke-miterlimit="10" d="
			M419.834,730.047c0,0,97.086-5.07,107.954-2.535"/>
		
			<path fill="none" stroke="#000000" stroke-width="2.1736" stroke-linecap="round" stroke-linejoin="round" stroke-miterlimit="10" d="
			M556.044,722.079c0,0-49.629-2.898-67.38-5.072"/>
		
			<path fill="none" stroke="#000000" stroke-width="2.1736" stroke-linecap="round" stroke-linejoin="round" stroke-miterlimit="10" d="
			M536.12,715.919c0,0-73.901-0.725-95.637,2.174"/>
		
			<path fill="none" stroke="#000000" stroke-width="2.1736" stroke-linecap="round" stroke-linejoin="round" stroke-miterlimit="10" d="
			M532.497,707.225c14.128,0-95.999-3.623-102.519-1.087c0,0,82.595-9.056,104.331-9.056"/>
		
			<path fill="none" stroke="#000000" stroke-width="2.1736" stroke-linecap="round" stroke-linejoin="round" stroke-miterlimit="10" d="
			M532.497,699.981c1.087,0,26.808-2.536,26.808-2.536s-39.124-15.578-89.479-14.129"/>
		
			<path fill="none" stroke="#000000" stroke-width="2.1736" stroke-linecap="round" stroke-linejoin="round" stroke-miterlimit="10" d="
			M523.802,688.75l-76.074,5.071c0,0-21.018-6.792-30.792-7.607c38.037-6.158,73.901-6.158,98.897-5.071"/>
		
			<path fill="none" stroke="#000000" stroke-width="2.1736" stroke-linecap="round" stroke-linejoin="round" stroke-miterlimit="10" d="
			M543.002,676.072c0,0-78.972-7.971-110.852-2.898"/>
		
			<path fill="none" stroke="#000000" stroke-width="2.1736" stroke-linecap="round" stroke-linejoin="round" stroke-miterlimit="10" d="
			M536.12,660.255c0,0-37.997,9.792-114.127,6.602c18.491-2.981,23.2-4.477,26.838-6.602"/>
		
			<path fill="#FCFCFC" stroke="#000000" stroke-width="2.1736" stroke-linecap="round" stroke-linejoin="round" stroke-miterlimit="10" d="
			M451.713,637.213c44.833,2,89.493-23.833,89.493-23.833s19.083,9.167,27.412,2.246c-6.917,17.5-35.534,26.763-52.599,31.141
			C502.206,650.725,451.713,637.213,451.713,637.213"/>
		
			<path fill="#FCFCFC" stroke="#000000" stroke-width="2.1736" stroke-linecap="round" stroke-linejoin="round" stroke-miterlimit="10" d="
			M525.206,626.13c0,0,13.614,6.958,16.95,7"/>
		
			<path fill="#FCFCFC" stroke="#000000" stroke-width="2.1736" stroke-linecap="round" stroke-linejoin="round" stroke-miterlimit="10" d="
			M531.956,623.13c0,0,14,7.08,15.5,7.165"/>
		
			<path fill="#FCFCFC" stroke="#000000" stroke-width="2.1736" stroke-linecap="round" stroke-linejoin="round" stroke-miterlimit="10" d="
			M538.293,619.88c0,0,10.912,5.914,14.162,6.832"/>
	</g>
	<g id="Test_Cases_links">
		
			<path fill="#FFFFFF" stroke="#000000" stroke-width="2.1736" stroke-linecap="round" stroke-linejoin="round" stroke-miterlimit="10" d="
			M34.35,463.574c0,0,7.439,32.224-2.093,44.076c37.049-8.241,65.484-13.757,87.055,6.337c0,0,29.096-19.563,28.741-27.667
			C147.697,478.218,65.8,438.531,34.35,463.574z"/>
		
			<path fill="#FFFFFF" stroke="#000000" stroke-width="2.1736" stroke-linecap="round" stroke-linejoin="round" stroke-miterlimit="10" d="
			M179.427,538.412c3.646,7.886,32.407,57.794,25.828,76.023c-1.37,4.808-5.079,4.445-14.702-9.226
			c10.067-18.157-8.412-36.177-26.465-53.104c29.61-18.774,7.819-14.063,7.819-14.063s1.847,1.754,3.11,6.447"/>
		
			<path fill="#FFFFFF" stroke="#000000" stroke-width="2.1736" stroke-linecap="round" stroke-linejoin="round" stroke-miterlimit="10" d="
			M230.956,601.382c0,0,7.823-14.836,17.578-12.169c10.422-22,35.088-61.333,54.422-67.333c0,0,8.667-18-26.667-26.667
			S220.332,589.535,230.956,601.382z"/>
		
			<path fill="#FFFFFF" stroke="#000000" stroke-width="2.1736" stroke-linecap="round" stroke-linejoin="round" stroke-miterlimit="10" d="
			M328.956,511.213c0,0,8.667-29.333,0-40c24-8.667,85.333-11.333,106,8.667c6,22,4,39.172,0,45.586
			C425.623,521.88,375.622,501.213,328.956,511.213z"/>
		
			<path fill="#FCFCFC" stroke="#000000" stroke-width="2.1736" stroke-linecap="round" stroke-linejoin="round" stroke-miterlimit="10" d="
			M516.999,536.328c36.623,0,65.363,47.885,55.018,65.218c-1.395-21.164-16.663-1.999-16.663-1.999s-4.722-49.039-68.146-45.706
			c1.081-3.961,2.914-5.802,4.735-7.997"/>
		
			<path fill="none" stroke="#000000" stroke-width="2.1736" stroke-linecap="round" stroke-linejoin="round" stroke-miterlimit="10" d="
			M565.217,591.783c0,0,4.572,3.859,6.8,9.764"/>
		
			<path fill="#FFFFFF" stroke="#000000" stroke-width="2.1736" stroke-linecap="round" stroke-linejoin="round" stroke-miterlimit="10" d="
			M426.558,529.88c0,0,5.378,15.21-8.622,26.543c56.875,6.79,126.026-31.376,124.184-42.043
			c-10.509-11.333-24.441-23.201-38.441-24.684C495.012,500.88,457.973,530.133,426.558,529.88z"/>
	</g>
	<g id="Sparcles">
		<g>
			<g>
				<path fill="#F7941E" d="M274.456,589.88c3.869,0,3.869-6,0-6S270.586,589.88,274.456,589.88L274.456,589.88z"/>
			</g>
		</g>
		<g>
			<g>
				<path fill="#F7941E" d="M240.456,554.38c3.869,0,3.869-6,0-6S236.586,554.38,240.456,554.38L240.456,554.38z"/>
			</g>
		</g>
		<g>
			<g>
				<path fill="#F7941E" d="M305.956,576.38c3.869,0,3.869-6,0-6S302.086,576.38,305.956,576.38L305.956,576.38z"/>
			</g>
		</g>
		<g>
			<g>
				<path fill="#F7941E" d="M400.456,765.38c3.869,0,3.869-6,0-6S396.586,765.38,400.456,765.38L400.456,765.38z"/>
			</g>
		</g>
		<g>
			<g>
				<path fill="#F7941E" d="M385.456,576.38c3.869,0,3.869-6,0-6S381.586,576.38,385.456,576.38L385.456,576.38z"/>
			</g>
		</g>
		<g>
			<g>
				<path fill="#F7941E" d="M316.956,551.88c3.869,0,3.869-6,0-6S313.086,551.88,316.956,551.88L316.956,551.88z"/>
			</g>
		</g>
		<g>
			<g>
				<path fill="#F7941E" d="M320.956,533.88c3.869,0,3.869-6,0-6S317.086,533.88,320.956,533.88L320.956,533.88z"/>
			</g>
		</g>
		<g>
			<g>
				<path fill="#F7941E" d="M334.956,512.88c3.869,0,3.869-6,0-6S331.086,512.88,334.956,512.88L334.956,512.88z"/>
			</g>
		</g>
		<g>
			<g>
				<path fill="#F7941E" d="M347.956,485.88c3.869,0,3.869-6,0-6S344.086,485.88,347.956,485.88L347.956,485.88z"/>
			</g>
		</g>
		<g>
			<g>
				<path fill="#F7941E" d="M218.956,600.547c3.869,0,3.869-6,0-6S215.086,600.547,218.956,600.547L218.956,600.547z"/>
			</g>
		</g>
		<g>
			<g>
				<path fill="#F7941E" d="M221.623,564.547c3.869,0,3.869-6,0-6S217.753,564.547,221.623,564.547L221.623,564.547z"/>
			</g>
		</g>
		<g>
			<g>
				<path fill="#F7941E" d="M217.289,524.88c3.869,0,3.869-6,0-6S213.42,524.88,217.289,524.88L217.289,524.88z"/>
			</g>
		</g>
		<g>
			<g>
				<path fill="#F7941E" d="M251.623,492.88c3.869,0,3.869-6,0-6S247.753,492.88,251.623,492.88L251.623,492.88z"/>
			</g>
		</g>
		<g>
			<g>
				<path fill="#F7941E" d="M214.289,544.214c3.869,0,3.869-6,0-6S210.42,544.214,214.289,544.214L214.289,544.214z"/>
			</g>
		</g>
		<g>
			<g>
				<path fill="#F7941E" d="M377.289,519.88c3.869,0,3.869-6,0-6S373.42,519.88,377.289,519.88L377.289,519.88z"/>
			</g>
		</g>
		<g>
			<g>
				<path fill="#F7941E" d="M433.622,496.214c3.869,0,3.869-6,0-6S429.753,496.214,433.622,496.214L433.622,496.214z"/>
			</g>
		</g>
		<g>
			<g>
				<path fill="#F7941E" d="M460.956,484.88c3.869,0,3.869-6,0-6S457.086,484.88,460.956,484.88L460.956,484.88z"/>
			</g>
		</g>
		<g>
			<g>
				<path fill="#F7941E" d="M178.289,489.214c3.869,0,3.869-6,0-6S174.42,489.214,178.289,489.214L178.289,489.214z"/>
			</g>
		</g>
		<g>
			<g>
				<path fill="#F7941E" d="M145.623,445.214c3.869,0,3.869-6,0-6S141.753,445.214,145.623,445.214L145.623,445.214z"/>
			</g>
		</g>
		<g>
			<g>
				<path fill="#F7941E" d="M276.623,429.214c3.869,0,3.869-6,0-6S272.753,429.214,276.623,429.214L276.623,429.214z"/>
			</g>
		</g>
		<g>
			<g>
				<path fill="#F7941E" d="M510.289,559.214c3.869,0,3.869-6,0-6S506.42,559.214,510.289,559.214L510.289,559.214z"/>
			</g>
		</g>
		<g>
			<g>
				<path fill="#F7941E" d="M575.289,621.213c3.869,0,3.869-6,0-6S571.42,621.213,575.289,621.213L575.289,621.213z"/>
			</g>
		</g>
		<g>
			<g>
				<path fill="#F7941E" d="M490.622,650.88c3.869,0,3.869-6,0-6S486.753,650.88,490.622,650.88L490.622,650.88z"/>
			</g>
		</g>
		<g>
			<g>
				<path fill="#F7941E" d="M544.289,660.547c3.869,0,3.869-6,0-6S540.42,660.547,544.289,660.547L544.289,660.547z"/>
			</g>
		</g>
		<g>
			<g>
				<path fill="#F7941E" d="M563.289,687.213c3.869,0,3.869-6,0-6S559.42,687.213,563.289,687.213L563.289,687.213z"/>
			</g>
		</g>
		<g>
			<g>
				<path fill="#F7941E" d="M526.956,706.547c3.869,0,3.869-6,0-6S523.086,706.547,526.956,706.547L526.956,706.547z"/>
			</g>
		</g>
		<g>
			<g>
				<path fill="#F7941E" d="M533.289,701.88c3.869,0,3.869-6,0-6S529.42,701.88,533.289,701.88L533.289,701.88z"/>
			</g>
		</g>
		<g>
			<g>
				<path fill="#F7941E" d="M537.622,715.213c3.869,0,3.869-6,0-6S533.753,715.213,537.622,715.213L537.622,715.213z"/>
			</g>
		</g>
		<g>
			<g>
				<path fill="#F7941E" d="M647.956,584.878c3.869,0,3.869-6,0-6S644.086,584.878,647.956,584.878L647.956,584.878z"/>
			</g>
		</g>
		<g>
			<g>
				<path fill="#F7941E" d="M921.956,562.879c3.869,0,3.869-6,0-6S918.086,562.879,921.956,562.879L921.956,562.879z"/>
			</g>
		</g>
		<g>
			<g>
				<path fill="#F7941E" d="M1043.956,461.879c3.869,0,3.869-6,0-6S1040.086,461.879,1043.956,461.879L1043.956,461.879z"/>
			</g>
		</g>
		<g>
			<g>
				<path fill="#F7941E" d="M300.706,189.13c3.869,0,3.869-6,0-6S296.836,189.13,300.706,189.13L300.706,189.13z"/>
			</g>
		</g>
		<g>
			<g>
				<path fill="#F7941E" d="M215.956,230.63c3.869,0,3.869-6,0-6S212.086,230.63,215.956,230.63L215.956,230.63z"/>
			</g>
		</g>
		<g>
			<g>
				<path fill="#F7941E" d="M193.956,277.13c3.869,0,3.869-6,0-6S190.086,277.13,193.956,277.13L193.956,277.13z"/>
			</g>
		</g>
		<g>
			<g>
				<path fill="#F7941E" d="M183.706,324.88c3.869,0,3.869-6,0-6S179.836,324.88,183.706,324.88L183.706,324.88z"/>
			</g>
		</g>
		<g>
			<g>
				<path fill="#F7941E" d="M198.706,355.13c3.869,0,3.869-6,0-6S194.836,355.13,198.706,355.13L198.706,355.13z"/>
			</g>
		</g>
		<g>
			<g>
				<path fill="#F7941E" d="M210.706,400.13c3.869,0,3.869-6,0-6S206.836,400.13,210.706,400.13L210.706,400.13z"/>
			</g>
		</g>
		<g>
			<g>
				<path fill="#F7941E" d="M348.206,422.63c3.869,0,3.869-6,0-6S344.336,422.63,348.206,422.63L348.206,422.63z"/>
			</g>
		</g>
	</g>
	<g id="Ebene_10">
		<g>
			<g>
				<path fill="#009BA4" d="M323.956,563.214c3.869,0,3.869-6,0-6S320.086,563.214,323.956,563.214L323.956,563.214z"/>
			</g>
		</g>
		<g>
			<g>
				<path fill="#009BA4" d="M307.622,567.214c3.869,0,3.869-6,0-6S303.753,567.214,307.622,567.214L307.622,567.214z"/>
			</g>
		</g>
		<g>
			<g>
				<path fill="#009BA4" d="M261.622,568.214c3.869,0,3.869-6,0-6S257.753,568.214,261.622,568.214L261.622,568.214z"/>
			</g>
		</g>
		<g>
			<g>
				<path fill="#009BA4" d="M336.289,568.547c3.869,0,3.869-6,0-6S332.42,568.547,336.289,568.547L336.289,568.547z"/>
			</g>
		</g>
		<g>
			<g>
				<path fill="#009BA4" d="M344.289,668.88c3.869,0,3.869-6,0-6S340.42,668.88,344.289,668.88L344.289,668.88z"/>
			</g>
		</g>
		<g>
			<g>
				<path fill="#009BA4" d="M438.622,577.547c3.869,0,3.869-6,0-6S434.753,577.547,438.622,577.547L438.622,577.547z"/>
			</g>
		</g>
		<g>
			<g>
				<path fill="#009BA4" d="M556.956,744.213c3.869,0,3.869-6,0-6S553.086,744.213,556.956,744.213L556.956,744.213z"/>
			</g>
		</g>
		<g>
			<g>
				<path fill="#009BA4" d="M616.955,685.88c3.869,0,3.869-6,0-6S613.086,685.88,616.955,685.88L616.955,685.88z"/>
			</g>
		</g>
		<g>
			<g>
				<path fill="#009BA4" d="M462.955,441.547c3.869,0,3.869-6,0-6S459.086,441.547,462.955,441.547L462.955,441.547z"/>
			</g>
		</g>
		<g>
			<g>
				<path fill="#009BA4" d="M219.955,497.213c3.869,0,3.869-6,0-6S216.086,497.213,219.955,497.213L219.955,497.213z"/>
			</g>
		</g>
		<g>
			<g>
				<path fill="#009BA4" d="M223.955,435.547c3.869,0,3.869-6,0-6S220.086,435.547,223.955,435.547L223.955,435.547z"/>
			</g>
		</g>
		<g>
			<g>
				<path fill="#009BA4" d="M188.622,371.88c3.869,0,3.869-6,0-6S184.753,371.88,188.622,371.88L188.622,371.88z"/>
			</g>
		</g>
		<g>
			<g>
				<path fill="#009BA4" d="M131.289,339.547c3.869,0,3.869-6,0-6S127.419,339.547,131.289,339.547L131.289,339.547z"/>
			</g>
		</g>
		<g>
			<g>
				<path fill="#009BA4" d="M105.955,303.213c3.869,0,3.869-6,0-6S102.086,303.213,105.955,303.213L105.955,303.213z"/>
			</g>
		</g>
		<g>
			<g>
				<path fill="#009BA4" d="M108.289,263.213c3.869,0,3.869-6,0-6S104.419,263.213,108.289,263.213L108.289,263.213z"/>
			</g>
		</g>
		<g>
			<g>
				<path fill="#009BA4" d="M100.289,223.547c3.869,0,3.869-6,0-6S96.419,223.547,100.289,223.547L100.289,223.547z"/>
			</g>
		</g>
		<g>
			<g>
				<path fill="#009BA4" d="M115.955,184.547c3.869,0,3.869-6,0-6S112.086,184.547,115.955,184.547L115.955,184.547z"/>
			</g>
		</g>
		<g>
			<g>
				<path fill="#009BA4" d="M159.955,137.88c3.869,0,3.869-6,0-6S156.086,137.88,159.955,137.88L159.955,137.88z"/>
			</g>
		</g>
		<g>
			<g>
				<path fill="#009BA4" d="M172.622,20.546c3.869,0,3.869-6,0-6S168.753,20.546,172.622,20.546L172.622,20.546z"/>
			</g>
		</g>
		<g>
			<g>
				<path fill="#009BA4" d="M785.623,674.212c3.869,0,3.869-6,0-6S781.753,674.212,785.623,674.212L785.623,674.212z"/>
			</g>
		</g>
		<g>
			<g>
				<path fill="#009BA4" d="M755.289,603.879c3.869,0,3.869-6,0-6S751.42,603.879,755.289,603.879L755.289,603.879z"/>
			</g>
		</g>
		<g>
			<g>
				<path fill="#009BA4" d="M926.29,600.212c3.869,0,3.869-6,0-6S922.42,600.212,926.29,600.212L926.29,600.212z"/>
			</g>
		</g>
		<g>
			<g>
				<path fill="#009BA4" d="M1192.957,545.878c3.869,0,3.869-6,0-6S1189.087,545.878,1192.957,545.878L1192.957,545.878z"/>
			</g>
		</g>
		<g>
			<g>
				<path fill="#009BA4" d="M1364.957,448.212c3.869,0,3.869-6,0-6S1361.087,448.212,1364.957,448.212L1364.957,448.212z"/>
			</g>
		</g>
	</g>
	<g id="Ebene_8">
		<path fill="none" stroke="#000000" stroke-width="2" stroke-linecap="round" stroke-linejoin="round" stroke-miterlimit="10" d="
			M256.543,523.885c0,0,3.531-8.461,10.059-3.75c6.528,4.711-14.174,18.382-18.48,25.49c3.593-1.648,6.834-0.288,9.453-0.332"/>
		<path fill="none" stroke="#000000" stroke-width="2" stroke-linecap="round" stroke-linejoin="round" stroke-miterlimit="10" d="
			M276.346,522.456l-11.488,15.65c0,0,6.106-0.267,10.069,2.8"/>
		<path fill="none" stroke="#000000" stroke-width="2" stroke-linecap="round" stroke-linejoin="round" stroke-miterlimit="10" d="
			M277.94,532.089c0,0-8.624,6.177-14.39,16.269"/>
		<path fill="none" stroke="#000000" stroke-width="2" stroke-linecap="round" stroke-linejoin="round" stroke-miterlimit="10" d="
			M240.456,558.436c0,0,16.25-4.056,20.25,0.444"/>
		<path fill="none" stroke="#000000" stroke-width="2" stroke-linecap="round" stroke-linejoin="round" stroke-miterlimit="10" d="
			M238.706,566.424c0,0,11.875-4.877,16.75,0"/>
		<path fill="none" stroke="#000000" stroke-width="2" stroke-linecap="round" stroke-linejoin="round" stroke-miterlimit="10" d="
			M236.456,576.38c0,0,11.666-8.5,14.125-3.333"/>
		<path fill="none" stroke="#000000" stroke-width="2" stroke-linecap="round" stroke-linejoin="round" stroke-miterlimit="10" d="
			M236.456,584.13c0,0,9.5-9.5,11.666-3.646"/>
		<path fill="none" stroke="#000000" stroke-width="2" stroke-linecap="round" stroke-linejoin="round" stroke-miterlimit="10" d="
			M415.956,477.38c0,0,8,7.75,0.5,10c-6.082,1.825-18.5-12.19-18.5-12.19l-0.435,11.024"/>
		<path fill="none" stroke="#000000" stroke-width="2" stroke-linecap="round" stroke-linejoin="round" stroke-miterlimit="10" d="
			M417.936,498.572c0,0,3.5,4.059,0,5.559s-7.98,0-7.23-5.25c-1,3.25-2.75,7.75-8,5s-9.25-11.083-3-12.667"/>
		<path fill="none" stroke="#000000" stroke-width="2" stroke-linecap="round" stroke-linejoin="round" stroke-miterlimit="10" d="
			M385.456,472.63c0,0,3.037,9-1.606,25"/>
		<path fill="none" stroke="#000000" stroke-width="2" stroke-linecap="round" stroke-linejoin="round" stroke-miterlimit="10" d="
			M378.324,472.63c0,0,2.132,7.375,0.632,13.25"/>
		<path fill="none" stroke="#000000" stroke-width="2" stroke-linecap="round" stroke-linejoin="round" stroke-miterlimit="10" d="
			M368.706,474.13c0,0,5,12.083,0,23.5"/>
		<path fill="none" stroke="#000000" stroke-width="2" stroke-linecap="round" stroke-linejoin="round" stroke-miterlimit="10" d="
			M359.706,474.13c0,0,3,11.94,0,23.5"/>
		<path fill="none" stroke="#000000" stroke-width="2" stroke-linecap="round" stroke-linejoin="round" stroke-miterlimit="10" d="
			M498.456,508.13c0,0,9.286-8.5,9.251-0.559c-0.024,5.605-24.501,11.137-24.501,11.137s4.261,2.339,4.261,4.754"/>
		<path fill="none" stroke="#000000" stroke-width="2" stroke-linecap="round" stroke-linejoin="round" stroke-miterlimit="10" d="
			M506.706,518.708c0,0,12.75-8.828,9.75,1.922c-1.834,6.572-26.417,8.457-26.417,8.457s2.708,4.844,2.417,7.241"/>
		<path fill="none" stroke="#000000" stroke-width="2" stroke-linecap="round" stroke-linejoin="round" stroke-miterlimit="10" d="
			M473.206,522.456c0,0,7.25,4.591,8.25,18.758"/>
		<path fill="none" stroke="#000000" stroke-width="2" stroke-linecap="round" stroke-linejoin="round" stroke-miterlimit="10" d="
			M465.706,525.466c0,0,6.185,10.647,5.75,18.665"/>
		<path fill="none" stroke="#000000" stroke-width="2" stroke-linecap="round" stroke-linejoin="round" stroke-miterlimit="10" d="
			M456.956,529.13c0,0,4.34,13.781,2.59,17.531"/>
		<path fill="none" stroke="#000000" stroke-width="2" stroke-linecap="round" stroke-linejoin="round" stroke-miterlimit="10" d="
			M448.206,532.166c0,0,1.75,5.99,1.25,10.214"/>
		<path fill="none" stroke="#000000" stroke-width="2" stroke-linecap="round" stroke-linejoin="round" stroke-miterlimit="10" d="
			M512.956,546.661c0,0,4.784-9.024,10.017-9.902"/>
		<path fill="none" stroke="#000000" stroke-width="2" stroke-linecap="round" stroke-linejoin="round" stroke-miterlimit="10" d="
			M522.973,548.358c0,0,2.429-9.152,7.706-9.815"/>
		<path fill="none" stroke="#000000" stroke-width="2" stroke-linecap="round" stroke-linejoin="round" stroke-miterlimit="10" d="
			M533.206,546.661c0,0,2.176-4.872,5.088-4.951"/>
		<path fill="none" stroke="#000000" stroke-width="2" stroke-linecap="round" stroke-linejoin="round" stroke-miterlimit="10" d="
			M536.12,556.214c0,0,5.4-9.345,8.743-10.589"/>
		<path fill="none" stroke="#000000" stroke-width="2" stroke-linecap="round" stroke-linejoin="round" stroke-miterlimit="10" d="
			M565.217,571.451l-1.988,7.127c0,0-4.274-12.281-12.024-19.698"/>
		<path fill="none" stroke="#000000" stroke-width="2" stroke-linecap="round" stroke-linejoin="round" stroke-miterlimit="10" d="
			M514.456,644.13c0,0-8.999,2.25-5.25-2.25s19.662-4.336,19.662-4.336l-5.895-3.164"/>
		<path fill="none" stroke="#000000" stroke-width="2" stroke-linecap="round" stroke-linejoin="round" stroke-miterlimit="10" d="
			M495.456,638.537c0,0-4.5,2.354,2,2.344c4.257-0.007,25.255-9.109,19.457-10.443C515.037,630.005,510.164,630.037,495.456,638.537
			z"/>
	</g>
</g>
</svg>
