<?xml version="1.0" encoding="utf-8"?>
<!-- Generator: Adobe Illustrator 16.0.0, SVG Export Plug-In . SVG Version: 6.00 Build 0)  -->
<!DOCTYPE svg PUBLIC "-//W3C//DTD SVG 1.1//EN" "http://www.w3.org/Graphics/SVG/1.1/DTD/svg11.dtd">
<svg version="1.1" id="Ebene_13" xmlns="http://www.w3.org/2000/svg" xmlns:xlink="http://www.w3.org/1999/xlink" x="0px" y="0px"
	 width="970px" height="385px" viewBox="0 0 970 385" enable-background="new 0 0 970 385" xml:space="preserve">
<g id="Ebene_15">
	<path fill="none" stroke="#8C8C8E" stroke-width="3" stroke-linecap="round" stroke-linejoin="round" stroke-miterlimit="10" d="
		M857.001,110.667c0,0-5.667-7.001-9-0.334S831.668,154,837.001,163s10-5,10-5s-12.666,11-11.333,8s6.667-54,16-57
		s4.666,6.667,4.666,6.667"/>
	<path fill="none" stroke="#8C8C8E" stroke-width="3" stroke-linecap="round" stroke-linejoin="round" stroke-miterlimit="10" d="
		M840.334,184.333c0,0-8.667-4.666-9.667,0.334s-3.666,33.999,2.334,33.666s13-2.666,13-2.666s-11.334,12.332-14.334,5.666
		s-2.666-38.332,0.667-40.666s9,7,9,7"/>
	<path fill="none" stroke="#8C8C8E" stroke-width="3" stroke-linecap="round" stroke-linejoin="round" stroke-miterlimit="10" d="
		M913.5,44c0,0-2-24.5-15-28.5s-53,39-67.5,106S818.5,247,835,262c0,0-15.5-10.5-15.5-54.5s6-126.5,61-188c9.5-11,32,1,31.5,30"/>
	<path fill="none" stroke="#8C8C8E" stroke-width="3" stroke-linecap="round" stroke-linejoin="round" stroke-miterlimit="10" d="
		M890.001,61.333c0,0,4.667-21.666-0.333-21.333s-13.334,13.667-14.334,17.667s1.334,16,1.334,16s-1-14,3.333-21.667
		s12.999-17.666,8.333,9.667"/>
</g>
<g id="Ebene_14">
	<path fill="#EBECEB" d="M868.5,252.5c0,0,8.5-140.5,42.5-189.5c-7-1.5-18-2-22.5,1s-29.5,29.5-37,72.5s-8,77.5-5,87
		c-14-10-56-21-56-21s-24.5,19-43.5,56s-31.5,48.5-41.5,51s-15,5.5-26.5-6c-20.5-9.658-44-61-60.5-61.5c0,0-17-2.5-26.5,6
		s-69,65-81,73.5s-28.5,16.5-47.5,8.5s-137-45-179-34.5S236,308,156,325.5s-95.5,19.5-104,13c-22.5,21.5-40,36-40,36s26,3,63.5-6.5
		s95-30.5,117-32s110-12,231,27c23,7.5,46.5,18,79-3.5S581,270,607,266.5c0,0,30,9.5,42.5,26s34.5,56,46.5,58c9,6.5,13.5,8,25-2
		s29.5-20,36.5-34.5s31.5-53.5,50-70.5c2.5,9.5,4,20.5,5,28.5c14,7.5,39.5,18,39.5,18s2.5,6,21.5-19.5
		C872,260,868.5,252.5,868.5,252.5z"/>
	<path fill="none" stroke="#000000" stroke-width="3" stroke-linecap="round" stroke-linejoin="round" stroke-miterlimit="10" d="
		M907.001,64c0,0-14.001-3-21.334,1s-29.999,43.333-36.666,83.333s-4,90.001,7.333,100.334c5,3.333,8.666,2.666,12.333,3.333
		c0,0-13.666,0-15.666-3s-21.666-38.334,9-140c12.333-34.666,23.666-46.334,31.333-47s15,1.334,15,1.334"/>
	
		<line fill="none" stroke="#000000" stroke-width="3" stroke-linecap="round" stroke-linejoin="round" stroke-miterlimit="10" x1="903.667" y1="68.667" x2="882.001" y2="68.667"/>
	
		<line fill="none" stroke="#000000" stroke-width="3" stroke-linecap="round" stroke-linejoin="round" stroke-miterlimit="10" x1="866.001" y1="101.334" x2="893.334" y2="101.667"/>
	
		<line fill="none" stroke="#000000" stroke-width="3" stroke-linecap="round" stroke-linejoin="round" stroke-miterlimit="10" x1="851.667" y1="148" x2="878.334" y2="151"/>
	
		<line fill="none" stroke="#000000" stroke-width="3" stroke-linecap="round" stroke-linejoin="round" stroke-miterlimit="10" x1="847.001" y1="192.334" x2="871.667" y2="196.334"/>
	
		<line fill="none" stroke="#000000" stroke-width="3" stroke-linecap="round" stroke-linejoin="round" stroke-miterlimit="10" x1="848.667" y1="224.334" x2="871.667" y2="227.334"/>
	<path fill="none" stroke="#000000" stroke-width="3" stroke-linecap="round" stroke-linejoin="round" stroke-miterlimit="10" d="
		M874.668,272c0,0-16.334,20.001-22.667,18.667s3.667-74-7.333-70.667S828,215,772,289s-67,79-84,51s-57-90-91-70s-95,120-146,98
		s-215-53-314-21s-98,28-123,30c9-6,30-22,38-37c0,0-11,17,168-31c34-6,97-36,227,16c18,5,45,20,81-15s70-75,91-64s54,70,69,69
		s41-14,65-64c15-26,32-42,39-46s52.668,15,52.668,15S796.5,200,789.5,202.5S773,218,758.5,237s-43,86.5-69.5,74s-56.5-69.5-72-69.5
		s-31.5,1.5-79.5,54C527,305.5,501,337,478,335s-102-37.5-155.5-37s-49.5-5.5-119,9.5s-98,36-150.5,28c-8,9.5-34.5,39-46.5,40
		c0,0,43,0,71-7.5s74.5-22.5,88-25s59-14.5,111-10.5s122,22,140,27.5s52,27.5,91.5-3.5s58.5-95,106.5-87c12.5,3.5,32,15.5,45.5,35
		s28,52,46.5,47.5s40.5-19,60.5-51.5s62.5-97.5,78.5-76.5c7.75,9,2.5,55.5,2.75,56.25c0,0-0.999,8.575,3.751,10.417
		S871.75,273.25,874.25,269.5"/>
	<path fill="none" stroke="#000000" stroke-width="3" stroke-linecap="round" stroke-linejoin="round" stroke-miterlimit="10" d="
		M809,245.5c0,0,0.25,24,3.25,25.75s39.751,19.417,39.751,19.417S819.75,279,816.5,275.5s-4.75-17.5-5.75-31.75"/>
	
		<polyline fill="none" stroke="#000000" stroke-width="3" stroke-linecap="round" stroke-linejoin="round" stroke-miterlimit="10" points="
		788,266.667 755.667,246.667 789.333,265.333 	"/>
	
		<polyline fill="none" stroke="#000000" stroke-width="3" stroke-linecap="round" stroke-linejoin="round" stroke-miterlimit="10" points="
		744.333,322 719.667,297 748,321.333 	"/>
	
		<polyline fill="none" stroke="#000000" stroke-width="3" stroke-linecap="round" stroke-linejoin="round" stroke-miterlimit="10" points="
		647.667,287.666 638.334,263.666 652.334,290.333 	"/>
	
		<polyline fill="none" stroke="#000000" stroke-width="3" stroke-linecap="round" stroke-linejoin="round" stroke-miterlimit="10" points="
		572.667,286 573,263.666 576.667,287 	"/>
	
		<polyline fill="none" stroke="#000000" stroke-width="3" stroke-linecap="round" stroke-linejoin="round" stroke-miterlimit="10" points="
		507.667,352.333 523.667,309.333 514,351 	"/>
	
		<line fill="none" stroke="#000000" stroke-width="3" stroke-linecap="round" stroke-linejoin="round" stroke-miterlimit="10" x1="428.333" y1="360.333" x2="455" y2="331"/>
	
		<polyline fill="none" stroke="#000000" stroke-width="3" stroke-linecap="round" stroke-linejoin="round" stroke-miterlimit="10" points="
		321.333,340.666 372,304 329.333,339 	"/>
	<path fill="none" stroke="#000000" stroke-width="3" stroke-linecap="round" stroke-linejoin="round" stroke-miterlimit="10" d="
		M213.667,332.999c1.333-2,48.667-34.667,48.667-34.667l-40,34.667"/>
	
		<polyline fill="none" stroke="#000000" stroke-width="3" stroke-linecap="round" stroke-linejoin="round" stroke-miterlimit="10" points="
		121,350.332 140.333,326.332 109.667,355.666 	"/>
	
		<polyline fill="none" stroke="#009BA4" stroke-width="3" stroke-linecap="round" stroke-linejoin="round" stroke-miterlimit="10" points="
		72.5,359 81.5,350.5 83.5,355.5 81.5,350.5 68.5,359 	"/>
	
		<polyline fill="none" stroke="#009BA4" stroke-width="3" stroke-linecap="round" stroke-linejoin="round" stroke-miterlimit="10" points="
		173,331.5 180.5,325.5 185,330.5 183.5,324 176.5,331 	"/>
	
		<polygon fill="none" stroke="#009BA4" stroke-width="3" stroke-linecap="round" stroke-linejoin="round" stroke-miterlimit="10" points="
		287.5,319 297,313 296.5,321 298,310 	"/>
	
		<polyline fill="none" stroke="#009BA4" stroke-width="3" stroke-linecap="round" stroke-linejoin="round" stroke-miterlimit="10" points="
		391.5,336 400.5,332.5 400.5,339 403,330 388.5,334 	"/>
	<g id="Ebene_17">
		<g>
			<g>
				<path fill="#F7941E" d="M503.5,346c3.224,0,3.224-5,0-5S500.276,346,503.5,346L503.5,346z"/>
			</g>
		</g>
		<g>
			<g>
				<path fill="#F7941E" d="M498.5,355c3.224,0,3.224-5,0-5S495.276,355,498.5,355L498.5,355z"/>
			</g>
		</g>
		<g>
			<g>
				<path fill="#F7941E" d="M556,293.5c3.225,0,3.225-5,0-5S552.775,293.5,556,293.5L556,293.5z"/>
			</g>
		</g>
		<g>
			<g>
				<path fill="#F7941E" d="M552,302c3.225,0,3.225-5,0-5S548.775,302,552,302L552,302z"/>
			</g>
		</g>
		<g>
			<g>
				<path fill="#F7941E" d="M633,269c3.225,0,3.225-5,0-5S629.775,269,633,269L633,269z"/>
			</g>
		</g>
		<g>
			<g>
				<path fill="#F7941E" d="M626,260.5c3.225,0,3.225-5,0-5S622.775,260.5,626,260.5L626,260.5z"/>
			</g>
		</g>
		<g>
			<g>
				<path fill="#F7941E" d="M723,315c3.225,0,3.225-5,0-5S719.775,315,723,315L723,315z"/>
			</g>
		</g>
		<g>
			<g>
				<path fill="#F7941E" d="M726,325.5c3.225,0,3.225-5,0-5S722.775,325.5,726,325.5L726,325.5z"/>
			</g>
		</g>
		<g>
			<g>
				<path fill="#F7941E" d="M719.5,329c3.225,0,3.225-5,0-5S716.275,329,719.5,329L719.5,329z"/>
			</g>
		</g>
		<g>
			<g>
				<path fill="#F7941E" d="M709,328.5c3.225,0,3.225-5,0-5S705.775,328.5,709,328.5L709,328.5z"/>
			</g>
		</g>
		<g>
			<g>
				<path fill="#F7941E" d="M766,278c3.225,0,3.225-5,0-5S762.775,278,766,278L766,278z"/>
			</g>
		</g>
		<g>
			<g>
				<path fill="#F7941E" d="M760.5,268c3.225,0,3.225-5,0-5S757.275,268,760.5,268L760.5,268z"/>
			</g>
		</g>
		<g>
			<g>
				<path fill="#F7941E" d="M754.5,272c3.225,0,3.225-5,0-5S751.275,272,754.5,272L754.5,272z"/>
			</g>
		</g>
		<g>
			<g>
				<path fill="#F7941E" d="M749.5,284.5c3.225,0,3.225-5,0-5S746.275,284.5,749.5,284.5L749.5,284.5z"/>
			</g>
		</g>
		<g>
			<g>
				<path fill="#F7941E" d="M816.5,220c3.225,0,3.225-5,0-5S813.275,220,816.5,220L816.5,220z"/>
			</g>
		</g>
		<g>
			<g>
				<path fill="#F7941E" d="M809.5,214.5c3.225,0,3.225-5,0-5S806.275,214.5,809.5,214.5L809.5,214.5z"/>
			</g>
		</g>
		<g>
			<g>
				<path fill="#F7941E" d="M805.5,230.5c3.225,0,3.225-5,0-5S802.275,230.5,805.5,230.5L805.5,230.5z"/>
			</g>
		</g>
		<g>
			<g>
				<path fill="#F7941E" d="M795.5,235c3.225,0,3.225-5,0-5S792.275,235,795.5,235L795.5,235z"/>
			</g>
		</g>
		<g>
			<g>
				<path fill="#F7941E" d="M865.5,263c3.225,0,3.225-5,0-5S862.275,263,865.5,263L865.5,263z"/>
			</g>
		</g>
		<g>
			<g>
				<path fill="#F7941E" d="M857.5,259.5c3.225,0,3.225-5,0-5S854.275,259.5,857.5,259.5L857.5,259.5z"/>
			</g>
		</g>
		<g>
			<g>
				<path fill="#F7941E" d="M857.5,274c3.225,0,3.225-5,0-5S854.275,274,857.5,274L857.5,274z"/>
			</g>
		</g>
		<g>
			<g>
				<path fill="#F7941E" d="M860.5,243c3.225,0,3.225-5,0-5S857.275,243,860.5,243L860.5,243z"/>
			</g>
		</g>
		<g>
			<g>
				<path fill="#F7941E" d="M860.5,218.5c3.225,0,3.225-5,0-5S857.275,218.5,860.5,218.5L860.5,218.5z"/>
			</g>
		</g>
		<g>
			<g>
				<path fill="#F7941E" d="M855.5,215.5c3.225,0,3.225-5,0-5S852.275,215.5,855.5,215.5L855.5,215.5z"/>
			</g>
		</g>
		<g>
			<g>
				<path fill="#F7941E" d="M854.5,184c3.225,0,3.225-5,0-5S851.275,184,854.5,184L854.5,184z"/>
			</g>
		</g>
		<g>
			<g>
				<path fill="#F7941E" d="M854.5,171c3.225,0,3.225-5,0-5S851.275,171,854.5,171L854.5,171z"/>
			</g>
		</g>
		<g>
			<g>
				<path fill="#F7941E" d="M862.5,160.5c3.225,0,3.225-5,0-5S859.275,160.5,862.5,160.5L862.5,160.5z"/>
			</g>
		</g>
		<g>
			<g>
				<path fill="#F7941E" d="M867.5,145c3.225,0,3.225-5,0-5S864.275,145,867.5,145L867.5,145z"/>
			</g>
		</g>
		<g>
			<g>
				<path fill="#F7941E" d="M863.5,130c3.225,0,3.225-5,0-5S860.275,130,863.5,130L863.5,130z"/>
			</g>
		</g>
		<g>
			<g>
				<path fill="#F7941E" d="M875.5,116c3.225,0,3.225-5,0-5S872.275,116,875.5,116L875.5,116z"/>
			</g>
		</g>
		<g>
			<g>
				<path fill="#F7941E" d="M882.5,96c3.225,0,3.225-5,0-5S879.275,96,882.5,96L882.5,96z"/>
			</g>
		</g>
		<g>
			<g>
				<path fill="#F7941E" d="M879,86c3.225,0,3.225-5,0-5S875.775,86,879,86L879,86z"/>
			</g>
		</g>
		<g>
			<g>
				<path fill="#F7941E" d="M892.5,75.5c3.225,0,3.225-5,0-5S889.275,75.5,892.5,75.5L892.5,75.5z"/>
			</g>
		</g>
	</g>
	
		<polyline fill="none" stroke="#009BA4" stroke-width="3" stroke-linecap="round" stroke-linejoin="round" stroke-miterlimit="10" points="
		469.5,356 478.5,346.5 478.5,353.5 478.5,346.5 465.5,356.5 	"/>
	
		<polyline fill="none" stroke="#009BA4" stroke-width="3" stroke-linecap="round" stroke-linejoin="round" stroke-miterlimit="10" points="
		553,298.5 543,301 543,310.5 542.502,302.998 551,300.5 	"/>
	
		<polyline fill="none" stroke="#009BA4" stroke-width="3" stroke-linecap="round" stroke-linejoin="round" stroke-miterlimit="10" points="
		604.5,260 607.5,251.5 617,258.5 	"/>
	
		<polyline fill="none" stroke="#009BA4" stroke-width="3" stroke-linecap="round" stroke-linejoin="round" stroke-miterlimit="10" points="
		682,322.5 683,320 687.5,331 	"/>
	
		<polyline fill="none" stroke="#009BA4" stroke-width="3" stroke-linecap="round" stroke-linejoin="round" stroke-miterlimit="10" points="
		754,292.5 753,283.5 760.5,280.5 750.5,282 754,292.5 	"/>
	
		<polyline fill="none" stroke="#009BA4" stroke-width="3" stroke-linecap="round" stroke-linejoin="round" stroke-miterlimit="10" points="
		799.5,231.5 795.5,220.5 806,223 794,222 797.5,233.5 	"/>
	
		<polyline fill="none" stroke="#009BA4" stroke-width="3" stroke-linecap="round" stroke-linejoin="round" stroke-miterlimit="10" points="
		858.5,267 852.5,263.999 860,264.5 	"/>
	
		<polyline fill="none" stroke="#009BA4" stroke-width="3" stroke-linecap="round" stroke-linejoin="round" stroke-miterlimit="10" points="
		901,79.5 891.5,83 894.5,88 888,84 897,80 	"/>
	
		<polygon fill="none" stroke="#009BA4" stroke-width="3" stroke-linecap="round" stroke-linejoin="round" stroke-miterlimit="10" points="
		886,125 874.5,127 882,136 875.5,129.5 	"/>
	
		<polyline fill="none" stroke="#009BA4" stroke-width="3" stroke-linecap="round" stroke-linejoin="round" stroke-miterlimit="10" points="
		875.5,167 864,172.5 872.5,180 864,172.5 870.5,168.5 	"/>
	
		<polygon fill="none" stroke="#009BA4" stroke-width="3" stroke-linecap="round" stroke-linejoin="round" stroke-miterlimit="10" points="
		868,207 859,212 870,218.5 861,211.5 	"/>
	
		<polygon fill="none" stroke="#009BA4" stroke-width="3" stroke-linecap="round" stroke-linejoin="round" stroke-miterlimit="10" points="
		868,236 863.5,241.5 869.5,244 863,240 	"/>
</g>
<g id="Ebene_12">
	<path fill="none" stroke="#8C8C8E" stroke-width="3" stroke-linecap="round" stroke-linejoin="round" stroke-miterlimit="10" d="
		M940.5,15c0,0-33,39.5-54.5,115c-14,48.5-18.5,128-11,138s18-1,24.5-12.5S941,189,958,81.5C966,32,966.5-17,933,21
		s-76.5,153-60.5,251.5c1,4,15.5,13.5,38.5-32.5S983,39.5,958,8"/>
	<path fill="none" stroke="#8C8C8E" stroke-width="3" stroke-linecap="round" stroke-linejoin="round" stroke-miterlimit="10" d="
		M929.001,116c0,0,4-64.334,6.333-69.667s8.667-18.667,10-11s-18,83.667-18,83.667l5.667-75.667c0,0,13.666-22.332,10.666-5.666"/>
	<path fill="none" stroke="#8C8C8E" stroke-width="3" stroke-linecap="round" stroke-linejoin="round" stroke-miterlimit="10" d="
		M915,186.333c0,0-15.332,55.001-11.666,50.667s11-22,11-22l1-31.667c0,0-16.333,54.666-14,56.333s15.333-27.333,15.333-27.333"/>
	<path fill="none" stroke="#8C8C8E" stroke-width="3" stroke-linecap="round" stroke-linejoin="round" stroke-miterlimit="10" d="
		M935.001,118.333c0,0,22.333-68.333,20.333-48.333s-21,51-21,51"/>
	<path fill="none" stroke="#8C8C8E" stroke-width="3" stroke-linecap="round" stroke-linejoin="round" stroke-miterlimit="10" d="
		M928.001,153c0,0-1.334,28.001,1.333,21.667s14.667-37.666,7-32s-10.333,10-10.333,10s-2.334,26.334,1.333,24"/>
	<path fill="none" stroke="#8C8C8E" stroke-width="3" stroke-linecap="round" stroke-linejoin="round" stroke-miterlimit="10" d="
		M908.334,182c0,0-25.668,48.999-26.334,52.666S884,251,884,251l26.667-67.334l-30,46.334c0,0-1.333,25.667,3,23
		s26.667-72,26.667-72"/>
	<path fill="none" stroke="#8C8C8E" stroke-width="3" stroke-linecap="round" stroke-linejoin="round" stroke-miterlimit="10" d="
		M915.001,147.667c0,0-1.666-41.666-8.333-37.333s-17.333,57-13,56s17.334-10,21-15s1-52.668-7-37.334s-16.333,53.666-15,57
		s22.333-17,22.333-17"/>
</g>
</svg>
