<?xml version="1.0" standalone="no"?>
<!DOCTYPE svg PUBLIC "-//W3C//DTD SVG 20010904//EN"
 "http://www.w3.org/TR/2001/REC-SVG-20010904/DTD/svg10.dtd">
<svg version="1.0" xmlns="http://www.w3.org/2000/svg"
 width="700.000000pt" height="700.000000pt" viewBox="0 0 700.000000 700.000000"
 preserveAspectRatio="xMidYMid meet">
<metadata>
Created by potrace 1.11, written by Peter Selinger 2001-2013
</metadata>
<g transform="translate(0.000000,700.000000) scale(0.100000,-0.100000)"
fill="#000000" stroke="none">
<path d="M1162 6896 c-11 -11 -26 -34 -34 -50 -13 -26 -13 -34 9 -95 118 -325
335 -605 758 -976 17 -14 109 -89 205 -167 96 -77 184 -148 195 -157 11 -9 36
-28 56 -43 33 -25 35 -30 37 -86 l1 -61 -62 -29 c-34 -16 -80 -35 -102 -41
-65 -20 -80 -36 -79 -84 1 -42 35 -114 61 -130 24 -15 14 -26 -49 -56 -106
-51 -137 -125 -77 -190 39 -44 34 -62 -21 -78 -66 -19 -87 -32 -100 -64 -22
-51 -4 -114 47 -168 18 -19 33 -40 33 -47 0 -6 -15 -44 -34 -85 -60 -132 -81
-179 -225 -514 -79 -181 -146 -337 -151 -346 -28 -54 -266 -649 -337 -844
-138 -375 -190 -559 -208 -725 -3 -30 -7 -66 -10 -80 -8 -45 -21 -164 -29
-280 -4 -41 -8 -102 -11 -135 -5 -63 -12 -197 -21 -375 -8 -167 -8 -662 0
-698 12 -49 50 -64 276 -105 47 -9 103 -18 125 -22 22 -3 51 -8 65 -10 24 -4
71 -10 168 -20 26 -3 61 -7 77 -10 310 -42 969 -52 1325 -21 110 10 178 17
200 21 14 2 45 7 70 10 25 3 56 8 70 11 14 2 39 6 55 8 58 8 241 47 315 67 41
12 98 27 127 35 28 7 94 30 146 50 75 28 96 41 99 57 2 12 3 94 2 182 -1 145
-3 163 -23 197 -23 38 -86 95 -134 119 l-28 15 35 1 c38 1 79 27 94 58 15 33
0 207 -22 260 -12 29 -28 39 -90 59 -15 5 -16 9 -5 22 7 8 25 22 40 29 14 8
29 23 31 33 7 24 -33 139 -67 199 -28 47 -30 55 -39 148 -15 154 -74 356 -149
512 l-42 88 0 155 c0 204 19 355 71 555 9 33 17 67 19 75 8 35 79 228 99 269
19 39 26 44 57 46 68 5 79 13 79 54 0 34 3 39 28 44 44 10 54 22 59 73 7 84
11 93 48 108 42 18 60 52 82 157 17 77 20 83 44 84 32 2 49 12 49 29 0 7 9 25
20 39 l20 25 142 -80 c408 -226 788 -381 1078 -437 30 -6 69 -13 85 -17 17 -3
75 -8 131 -11 l101 -5 24 33 c19 26 24 47 24 89 -1 48 -6 63 -42 115 -84 124
-585 571 -1015 907 -180 141 -204 160 -223 176 -37 30 -339 257 -410 307 -38
27 -72 52 -75 55 -15 18 -484 342 -725 502 -336 223 -755 485 -995 623 -30 18
-125 72 -210 122 -85 49 -231 131 -325 183 -93 51 -195 108 -225 125 -96 55
-383 192 -438 210 -82 26 -127 27 -150 1z"/>
</g>
</svg>
