<?xml version="1.0" encoding="utf-8"?>
<!-- Generator: Adobe Illustrator 16.0.0, SVG Export Plug-In . SVG Version: 6.00 Build 0)  -->
<!DOCTYPE svg PUBLIC "-//W3C//DTD SVG 1.1//EN" "http://www.w3.org/Graphics/SVG/1.1/DTD/svg11.dtd">
<svg version="1.1" xmlns="http://www.w3.org/2000/svg" xmlns:xlink="http://www.w3.org/1999/xlink" x="0px" y="0px" width="256px"
	 height="256px" viewBox="0 0 256 256" enable-background="new 0 0 256 256" xml:space="preserve">
<g id="Hut">
	<g>
		<path fill="#383838" d="M64.312,127.344c-0.213,0-0.429-0.045-0.634-0.142c-0.751-0.351-1.075-1.243-0.724-1.994
			c17.198-36.806,17.325-36.89,17.797-37.206c0.688-0.46,1.62-0.275,2.081,0.415c0.347,0.521,0.327,1.179-0.001,1.668
			c-0.804,1.48-10.661,22.488-17.158,36.393C65.417,127.024,64.876,127.344,64.312,127.344z"/>
	</g>
	<g>
		<path fill="#383838" d="M73.25,99.583c-0.384,0-0.768-0.146-1.061-0.439c-0.585-0.586-0.585-1.536,0-2.122
			c1.414-1.413,4.249-1.652,4.803-1.686c0.816-0.052,1.538,0.58,1.588,1.406c0.05,0.826-0.579,1.537-1.405,1.588
			c-1.059,0.068-2.462,0.411-2.865,0.814C74.018,99.437,73.634,99.583,73.25,99.583z"/>
	</g>
	<g opacity="0.6">
		<path fill="#C5EEFC" d="M63.562,127.142c0,0-20.532,44.73-25.694,63.798c-3.407,12.585-3.985,48.939-3.111,51.038
			c0.874,2.099,54.489,11.335,86.476-2.299c0,0,0.009-6.615,0.009-8.888s-2.447-4.72-5.593-6.117
			c2.131,1.179,4.542-0.976,4.282-2.499c-0.423-2.466,0.264-7.115-2.534-7.464c-2.797-0.35,0-1.574,0.874-2.098
			c0.875-0.526-1.223-5.593-2.097-6.643c-0.874-1.048-0.525-3.671-1.049-6.116c-0.524-2.448-1.223-6.819-4.37-12.792
			c-2.104-3.996-0.175-21.99,5.944-33.178c-1.224,0-6.293,1.396-30.414-9.439C75.273,139.727,63.562,127.142,63.562,127.142z"/>
	</g>
	<g>
		<path fill="#383838" d="M127.165,139c-0.295,0-0.594-0.087-0.855-0.269c-0.678-0.472-0.846-1.402-0.378-2.082
			c0.255-0.379,0.848-1.568,0.55-2.546c-0.241-0.792,0.206-1.63,0.998-1.871c0.797-0.244,1.631,0.205,1.872,0.998
			c0.773,2.54-0.775,4.869-0.954,5.126C128.106,138.775,127.64,139,127.165,139z"/>
	</g>
	<g>
		<path fill="#383838" d="M50.998,236.334c-0.758,0-1.409-0.573-1.49-1.344c-0.076-0.723-1.834-17.83,0.013-28.74
			c1.823-10.771,3.298-16.549,3.36-16.79c0.207-0.802,1.022-1.284,1.826-1.079c0.802,0.207,1.285,1.024,1.079,1.826
			c-0.015,0.059-1.508,5.912-3.307,16.543c-1.778,10.503-0.005,27.755,0.013,27.928c0.086,0.824-0.512,1.562-1.335,1.648
			C51.103,236.331,51.05,236.334,50.998,236.334z"/>
	</g>
	<g>
		<path fill="#383838" d="M125.082,138.583c-0.256,0-0.516-0.065-0.754-0.204c-0.716-0.417-0.958-1.336-0.541-2.051
			c2.413-4.141,4.902-7.579,7.61-10.512c0.564-0.609,1.514-0.646,2.12-0.084c0.608,0.562,0.646,1.511,0.085,2.12
			c-2.56,2.771-4.922,6.038-7.224,9.987C126.1,138.316,125.598,138.583,125.082,138.583z"/>
	</g>
	<g>
		<path fill="#383838" d="M69.666,234.667c-0.799,0-1.462-0.629-1.498-1.435l-0.333-7.667c-0.036-0.828,0.605-1.528,1.433-1.564
			c0.828-0.05,1.528,0.605,1.564,1.434l0.333,7.667c0.036,0.828-0.605,1.528-1.433,1.564
			C69.71,234.667,69.688,234.667,69.666,234.667z"/>
	</g>
	<g>
		<path fill="#383838" d="M103.168,189.5c-0.5,0-0.988-0.25-1.273-0.705c-0.439-0.702-0.226-1.627,0.476-2.066
			c0.512-0.32,1.037-0.686,1.472-1.016c-2.073-0.847-6.059-1.974-7.218-1.885c-0.837,0.054-1.551-0.545-1.62-1.37
			c-0.069-0.826,0.544-1.551,1.37-1.62c1.885-0.163,9.684,1.86,10.948,3.569c0.364,0.492,0.453,1.109,0.237,1.649
			c-0.426,1.065-2.192,2.336-3.598,3.215C103.714,189.427,103.439,189.5,103.168,189.5z"/>
	</g>
	<g>
		<path fill="#383838" d="M70.413,248.188c-21.74,0-34.64-2.984-36.512-5.001c-0.688-0.741-0.88-1.758-0.513-2.719
			c0.459-1.202,1.856-4.862,24.306-6.962c7.913-0.74,17.337-1.148,26.536-1.148c13.709,0,36.925,0.789,38.383,6.076
			c0.147,0.531-0.01,1.102-0.409,1.482c-4.755,4.548-24.706,7.94-48.517,8.25C72.57,248.182,71.477,248.188,70.413,248.188z
			 M36.372,241.295c1.868,0.865,11.986,3.894,34.041,3.894c1.052,0,2.132-0.007,3.234-0.021c24.423-0.317,40.163-3.764,45.216-6.54
			c-3.198-1.494-14.66-3.269-34.633-3.269c-9.108,0-18.433,0.403-26.256,1.135C40.777,238.102,37.119,240.52,36.372,241.295z"/>
	</g>
	<g opacity="0.6">
		<path fill="#C5EEFC" d="M63.979,127.309c0,0-20.532,44.73-25.694,63.798c-3.407,12.585-2.222,49.58-1.972,50.268
			c1.75-1.875,12.161-4.843,34.938-5.708c13.167-0.5,34.667-0.667,49.667,3.5c0,0,0.742-5.936,0.742-8.208s-2.447-4.72-5.593-6.117
			c2.131,1.179,4.542-0.976,4.282-2.499c-0.423-2.466,0.264-7.115-2.534-7.464c-2.797-0.35,0-1.574,0.874-2.098
			c0.875-0.526-1.223-5.593-2.097-6.643c-0.874-1.048-0.525-3.671-1.049-6.116c-0.524-2.448-1.223-6.819-4.37-12.792
			c-2.104-3.996-0.175-21.99,5.944-33.178c-1.224,0-6.293,1.396-30.414-9.439C75.69,139.894,63.979,127.309,63.979,127.309z"/>
	</g>
	<g opacity="0.6">
		<path fill="#B9E4EF" d="M132.5,126.833c0,0-1.875-6.583-15.375-17.458S83.875,85.25,81.25,88.75S126.625,127.667,132.5,126.833"/>
	</g>
	<g>
		<g>
			<path fill="#F7941E" d="M84.397,126.533c6.449,0,6.449-10,0-10S77.949,126.533,84.397,126.533L84.397,126.533z"/>
		</g>
	</g>
	<g>
		<g>
			<path fill="#F7941E" d="M91.833,106.943c6.449,0,6.449-10,0-10S85.385,106.943,91.833,106.943L91.833,106.943z"/>
		</g>
	</g>
	<g>
		<g>
			<path fill="#32323A" d="M119.932,128c6.449,0,6.449-10,0-10S113.483,128,119.932,128L119.932,128z"/>
		</g>
	</g>
	<g>
		<polygon fill="#32323A" points="103.83,113.872 104.667,109.715 110.302,113.334 109.87,114.973 		"/>
		<path fill="#32323A" d="M109.871,116.473c-0.089,0-0.18-0.008-0.271-0.024l-6.04-1.101c-0.396-0.072-0.747-0.3-0.972-0.634
			c-0.226-0.333-0.309-0.743-0.229-1.138l0.837-4.157c0.098-0.486,0.429-0.892,0.886-1.085c0.456-0.193,0.979-0.149,1.396,0.119
			l5.635,3.619c0.547,0.352,0.806,1.016,0.64,1.645l-0.432,1.639C111.144,116.023,110.54,116.473,109.871,116.473z M105.602,112.67
			l1.243,0.227l-1.141-0.733L105.602,112.67z"/>
	</g>
	<g>
		<path fill="#F7941E" d="M93.65,124.533c-0.571,0-1.148-0.163-1.659-0.503c-1.379-0.917-1.754-2.78-0.836-4.159
			c0.034-0.051,3.422-5.141,8.339-12.316c0.937-1.367,2.802-1.717,4.17-0.779c1.367,0.937,1.715,2.804,0.779,4.17
			c-4.893,7.139-8.26,12.197-8.293,12.248C95.573,124.063,94.621,124.533,93.65,124.533z"/>
	</g>
	<g opacity="0.6">
		<path fill="#B5F7EA" d="M123.602,139.99c0,0-0.175,6.902-3.234,6.729c-1.048,1.226,0.437,4.72-2.36,4.72s5.157,4.807-11.448,1.572
			c-25.837-7.099-39.267-21.382-45.27-27.965c0,0-2.273-4.721,1.748-5.244c4.021-0.524,0.524-2.796,0.524-2.796
			s-1.922-3.67,4.545-5.418c-1.224-1.223-4.283-5.365-0.612-6.413c3.669-1.048,5.592-1.978,4.981-3.113c0,0-1.6-3.885,1.523-3.812
			c7.5,7.417,43.374,33.056,52.583,39.417c0,0,0.39-1.104-0.621,1.013c0,0,0.087,1.311-1.137,1.311"/>
	</g>
	<g opacity="0.6">
		<path fill="#C5EEFC" d="M175.845,148.748c-11.035-11.376-51.351-49.812-116.03-88.844c-21.492-12.731-34.88-21.088-31.828-11.563
			c0.827,2.585,2.175,5.255,3.688,7.764C36.502,66.189,44.746,75.846,61.1,89.669c56.932,48.122,87.902,61.993,87.902,61.993
			c5.185,2.498,9.697,4.231,13.562,5.453C179.759,164.254,186.551,159.778,175.845,148.748z M81.25,88.75
			c4.875-4.625,32.625,17.375,41.375,25.375s9.75,11.125,9.75,11.125C130.625,132.625,86.5,96.625,81.25,88.75z"/>
	</g>
</g>
<g id="Ebene_6">
	<path fill="none" stroke="#383838" stroke-width="3" stroke-linecap="round" stroke-linejoin="round" stroke-miterlimit="10" d="
		M34.667,240.833c0,0-1.167-36.499,4.833-55.166s23.781-57.698,23.781-57.698"/>
	<path fill="none" stroke="#383838" stroke-width="3" stroke-linecap="round" stroke-linejoin="round" stroke-miterlimit="10" d="
		M120.833,237.667c0,0,1-6.668-0.167-8.834S116.333,225,116.333,225s3-0.999,3.333-2.833s-0.167-6.667-1.5-7.167s-2.5-1.5-2.5-1.5
		s3-1.334,2.667-2.167s-1.667-4.666-3-5.833c-0.333-5.667-0.833-11.167-5.5-20.167c-0.833-5.833,3.833-27,6.833-31.333"/>
	<path fill="none" stroke="#FFFFFF" stroke-width="3" stroke-linecap="round" stroke-linejoin="round" stroke-miterlimit="10" d="
		M67.5,132.334c0,0-20.5,44.916-22.75,73.666s-2,34.25-2,34.25"/>
	<path fill="none" stroke="#383838" stroke-width="3" stroke-linecap="round" stroke-linejoin="round" stroke-miterlimit="10" d="
		M81.667,227.167c0,0,24.834,0.333,34.667-2.167"/>
	<path fill="none" stroke="#383838" stroke-width="3" stroke-linecap="round" stroke-linejoin="round" stroke-miterlimit="10" d="
		M116.333,213.5c0,0-18.5,1.166-24.5,0.833"/>
	<path fill="none" stroke="#383838" stroke-width="3" stroke-linecap="round" stroke-linejoin="round" stroke-miterlimit="10" d="
		M115.333,205.5c-0.5-0.167-3.667,1.5-5.167,1.5"/>
	<path fill="none" stroke="#383838" stroke-width="3" stroke-linecap="round" stroke-linejoin="round" stroke-miterlimit="10" d="
		M72.833,98.833c0,0-0.5,1.667,0,2.833s-1,1.833-3.5,3.167c-4.667,1.333-3.833,3.333-1,6.833c-4,0.167-5.333,4-5.167,5
		s1.833,2.5,1.167,3s-6.667-0.167-3.5,3.667c18,23.667,45.333,30,52.333,30.5s3.833-3,3.833-3s2.333,1.167,2.5-1.833
		s1.167-2.5,2.167-3s1.5-4.833,1.5-5.833s2.834-0.001,2.667-1.834"/>
	<path fill="none" stroke="#383838" stroke-width="3" stroke-linecap="round" stroke-linejoin="round" stroke-miterlimit="10" d="
		M89.167,139.667c0,0,5.5,6.666,27.833,11.166"/>
	<path fill="none" stroke="#383838" stroke-width="3" stroke-linecap="round" stroke-linejoin="round" stroke-miterlimit="10" d="
		M64.333,119.667c0,0,5.833,5.5,7.5,6.667"/>
	<path fill="none" stroke="#383838" stroke-width="3" stroke-linecap="round" stroke-linejoin="round" stroke-miterlimit="10" d="
		M68.333,111.667c0,0,6.5,6.833,10.833,9.5"/>
	<path fill="none" stroke="#383838" stroke-width="3" stroke-linecap="round" stroke-linejoin="round" stroke-miterlimit="10" d="
		M123.167,140.167c0,0-14.5-5.334-18.5-8.167"/>
	<path fill="none" stroke="#383838" stroke-width="3" stroke-linecap="round" stroke-linejoin="round" stroke-miterlimit="10" d="
		M28.167,44.667c0,0-4-0.167,4.5,13.667s29,31.5,43.667,43.167s59.667,47,85,55.167c15,5.833,23.166,2.334,15.5-6.333
		S103.5,84,60.667,60.333C43.5,50.167,31,42.667,28.167,44.667z"/>
	<path fill="none" stroke="#383838" stroke-width="3" stroke-linecap="round" stroke-linejoin="round" stroke-miterlimit="10" d="
		M80.667,88.833c0.667-1.167,7.5-4.833,38.167,22c7.5,6.5,15.918,13.749,13.667,16"/>
	<g id="Ebene_7">
		
			<polygon fill="#32323A" stroke="#32323A" stroke-width="3" stroke-linecap="round" stroke-linejoin="round" stroke-miterlimit="10" points="
			104.667,109.715 113.851,64.099 124.003,61.382 110.302,113.334 		"/>
		
			<polygon fill="#64646A" stroke="#64646A" stroke-width="3" stroke-linecap="round" stroke-linejoin="round" stroke-miterlimit="10" points="
			121.659,108.921 137.562,42.356 152.46,39.731 129.042,109.251 		"/>
		
			<path fill="#8C8C8E" stroke="#8C8C8E" stroke-width="3" stroke-linecap="round" stroke-linejoin="round" stroke-miterlimit="10" d="
			M140.018,105.473l27.109-81.774c0,0,18.504-2.261,20.416-2.261l-39.978,84.035H140.018z"/>
		
			<path fill="#8C8C8E" stroke="#8C8C8E" stroke-width="3" stroke-linecap="round" stroke-linejoin="round" stroke-miterlimit="10" d="
			M226.557,116.932c-1.801,11.508-12.59,19.379-24.098,17.577c-2.677-0.419-5.157-1.324-7.366-2.612
			c4.875-8.214,10.882-18.186,10.882-18.186s0,0,3.004-20.877C220.486,94.634,228.357,105.423,226.557,116.932z"/>
		
			<path fill="#64646A" stroke="#64646A" stroke-width="3" stroke-linecap="round" stroke-linejoin="round" stroke-miterlimit="10" d="
			M198.331,106.904c0,0-7.773,4.396-17.133,10.219c-2.806-4.612-3.952-9.361-2.575-15.02c2.567-10.537,12.635-17.279,23.144-15.934
			L198.331,106.904z"/>
		
			<path fill="#32323C" stroke="#32323C" stroke-width="3" stroke-linecap="round" stroke-linejoin="round" stroke-miterlimit="10" d="
			M188.862,130.734c-2.627-1.732-4.804-4.017-6.406-6.652c17.237-11.15,17.237-11.15,17.237-11.15S194.064,122.941,188.862,130.734z
			"/>
		<path fill="none" stroke="#F7941E" stroke-width="7" stroke-linecap="round" stroke-linejoin="round" stroke-miterlimit="10" d="
			M103.83,106.852c11.642-16.988,30.279-43.689,37.115-48.247c3,13.25,5.732,24.093,5.732,24.093s54.25-51.15,75.25-59.962"/>
		
			<polyline fill="none" stroke="#F7941E" stroke-width="7" stroke-linecap="round" stroke-linejoin="round" stroke-miterlimit="10" points="
			202.427,21.235 225.427,20.048 216.802,37.798 		"/>
	</g>
	<path fill="none" stroke="#383838" stroke-width="3" stroke-linecap="round" stroke-linejoin="round" stroke-miterlimit="10" d="
		M132.5,126.833c-1.167,1.167-8-2.167-29.167-17.5C84.989,96.044,80,90,80.667,88.833"/>
	<path fill="none" stroke="#383838" stroke-width="3" stroke-linecap="round" stroke-linejoin="round" stroke-miterlimit="10" d="
		M81.833,115.5c0,0-11-10.5-9.333-12c4,3,20,16.167,22,17.5"/>
	<path fill="none" stroke="#383838" stroke-width="3" stroke-linecap="round" stroke-linejoin="round" stroke-miterlimit="10" d="
		M59.333,246.5c0,0-1.333-15.334-1-20"/>
	<path fill="none" stroke="#FFFFFF" stroke-width="3" stroke-linecap="round" stroke-linejoin="round" stroke-miterlimit="10" d="
		M65.75,115.75c0,0,0.75,2.25,6.5,7.75"/>
	<path fill="none" stroke="#FFFFFF" stroke-width="3" stroke-linecap="round" stroke-linejoin="round" stroke-miterlimit="10" d="
		M67.75,106.75c0,0,3.5,5.5,9.5,10"/>
	<path fill="none" stroke="#FFFFFF" stroke-width="3" stroke-linecap="round" stroke-linejoin="round" stroke-miterlimit="10" d="
		M64,132.5c0,0,1,6,16.5,15.25s18.75,9.5,18.75,9.5"/>
	<path fill="none" stroke="#FFFFFF" stroke-width="3" stroke-linecap="round" stroke-linejoin="round" stroke-miterlimit="10" d="
		M33.25,50.25c0,0,8.25,16.25,25.25,31c13.344,11.156,45.445,39.73,77.045,58.424"/>
	<path fill="none" stroke="#FFFFFF" stroke-width="3" stroke-linecap="round" stroke-linejoin="round" stroke-miterlimit="10" d="
		M126.333,113.333c0,0,14,12.333,8.333,15"/>
</g>
<g id="Ebene_8">
	<g>
		<g>
			<path fill="#F7941E" d="M95.25,88.943c6.449,0,6.449-10,0-10S88.801,88.943,95.25,88.943L95.25,88.943z"/>
		</g>
	</g>
	<g>
		<g>
			<path fill="#F7941E" d="M87.655,64.708c6.449,0,6.449-10,0-10S81.207,64.708,87.655,64.708L87.655,64.708z"/>
		</g>
	</g>
	<g>
		<g>
			<path fill="#32323A" d="M121.659,25.048c6.448,0,6.448-10,0-10C115.21,15.048,115.21,25.048,121.659,25.048L121.659,25.048z"/>
		</g>
	</g>
	<g>
		<g>
			<path fill="#F7941E" d="M84.397,15.719c6.449,0,6.449-10,0-10S77.949,15.719,84.397,15.719L84.397,15.719z"/>
		</g>
	</g>
	<g>
		<g>
			<path fill="#F7941E" d="M143.551,121.75c6.448,0,6.448-10,0-10S137.103,121.75,143.551,121.75L143.551,121.75z"/>
		</g>
	</g>
	<g>
		<g>
			<path fill="#32323A" d="M146,140.584c6.448,0,6.448-10,0-10S139.552,140.584,146,140.584L146,140.584z"/>
		</g>
	</g>
	<g>
		<g>
			<path fill="#32323A" d="M169.63,148.386c6.448,0,6.448-10,0-10S163.182,148.386,169.63,148.386L169.63,148.386z"/>
		</g>
	</g>
	<g>
		<g>
			<path fill="#F7941E" d="M204.514,139.085c6.448,0,6.448-10,0-10S198.065,139.085,204.514,139.085L204.514,139.085z"/>
		</g>
	</g>
	<g>
		<g>
			<path fill="#F7941E" d="M219.764,151.835c6.448,0,6.448-10,0-10S213.315,151.835,219.764,151.835L219.764,151.835z"/>
		</g>
	</g>
	<g>
		<g>
			<path fill="#32323A" d="M222.75,66.75c6.448,0,6.448-10,0-10S216.302,66.75,222.75,66.75L222.75,66.75z"/>
		</g>
	</g>
	<g>
		<g>
			<path fill="#F7941E" d="M77.083,42.798c6.449,0,6.449-10,0-10S70.634,42.798,77.083,42.798L77.083,42.798z"/>
		</g>
	</g>
	<g>
		<g>
			<path fill="#32323A" d="M97.812,33.923c6.449,0,6.449-10,0-10S91.363,33.923,97.812,33.923L97.812,33.923z"/>
		</g>
	</g>
</g>
</svg>
