<?xml version="1.0" encoding="UTF-8" standalone="no"?>
<!-- Generator: Adobe Illustrator 16.0.0, SVG Export Plug-In . SVG Version: 6.00 Build 0)  -->

<svg
   xmlns:dc="http://purl.org/dc/elements/1.1/"
   xmlns:cc="http://creativecommons.org/ns#"
   xmlns:rdf="http://www.w3.org/1999/02/22-rdf-syntax-ns#"
   xmlns:svg="http://www.w3.org/2000/svg"
   xmlns="http://www.w3.org/2000/svg"
   xmlns:sodipodi="http://sodipodi.sourceforge.net/DTD/sodipodi-0.dtd"
   xmlns:inkscape="http://www.inkscape.org/namespaces/inkscape"
   version="1.1"
   id="Ebene_1"
   x="0px"
   y="0px"
   width="291.3981"
   height="190.44489"
   viewBox="0 0 291.39811 190.44489"
   enable-background="new 0 0 231.333 197.334"
   xml:space="preserve"
   sodipodi:docname="Startbild_Testerin.svg"
   inkscape:version="0.92.3 (unknown)"><metadata
   id="metadata6159"><rdf:RDF><cc:Work
       rdf:about=""><dc:format>image/svg+xml</dc:format><dc:type
         rdf:resource="http://purl.org/dc/dcmitype/StillImage" /><dc:title></dc:title></cc:Work></rdf:RDF></metadata><defs
   id="defs6157" /><sodipodi:namedview
   pagecolor="#ffffff"
   bordercolor="#666666"
   borderopacity="1"
   objecttolerance="10"
   gridtolerance="10"
   guidetolerance="10"
   inkscape:pageopacity="0"
   inkscape:pageshadow="2"
   inkscape:window-width="1855"
   inkscape:window-height="1056"
   id="namedview6155"
   showgrid="false"
   fit-margin-left="50"
   fit-margin-right="20"
   fit-margin-top="0"
   fit-margin-bottom="0"
   showguides="false"
   inkscape:zoom="1.6913173"
   inkscape:cx="157.34419"
   inkscape:cy="88.434455"
   inkscape:window-x="1985"
   inkscape:window-y="24"
   inkscape:window-maximized="1"
   inkscape:current-layer="Ebene_1" />
<g
   id="g5824"
   transform="translate(44.416284,-3.8951098)">
	<polygon
   points="130.799,129.783 155.952,139.131 207.477,136.369 209.973,132.479 221.352,71.976 164.809,71.976 156.245,121.059 129.12,125.646 "
   id="polygon5822"
   style="fill:#d3d2d1" />
</g>
<g
   id="g5828"
   transform="translate(44.416284,-3.8951098)">
	<polygon
   points="155.952,139.131 130.799,129.783 118.698,130.664 118.698,133.982 156.245,151.037 224.684,141.43 225.396,137.485 210.213,131.875 208.924,136.051 "
   id="polygon5826"
   style="fill:#7f674b" />
</g>
<g
   id="g5832"
   transform="translate(44.416284,-3.8951098)">
	<polygon
   points="159.932,127.555 161.071,123.516 172.903,122.875 172.903,127.182 "
   id="polygon5830"
   style="fill:#f5952f" />
</g>
<g
   id="g5836"
   transform="translate(44.416284,-3.8951098)">
	<path
   d="M 115.76,101.992"
   id="path5834"
   inkscape:connector-curvature="0"
   style="fill:#b49bbb" />
</g>

<g
   id="g5844"
   transform="translate(44.416284,-3.8951098)">
	<path
   d="m 119.053,80.946 -8.338,3.868 0.631,8.073 -4.922,-1.504 0.106,-6.912 c 0,0 -10.612,-3.241 -9.993,-14.311 0.51,-9.157 2.922,-10.003 2.922,-10.003 l 6.301,-1.021 8.975,3.457 3.883,6.799 z"
   id="path5842"
   inkscape:connector-curvature="0"
   style="fill:#cda98e" />
</g>
<g
   id="g5848"
   transform="translate(44.416284,-3.8951098)">
	<path
   d="m 138.838,105.479 c 11.609,2.17 23.014,4.217 23.014,4.217 0,0 -0.32,3.297 1.836,3.699 2.154,0.402 2.996,1.135 2.996,1.135 v 7.217 c 0,0 3.607,-6.369 1.766,-11.283 -1.103,-2.942 -6.598,-3.742 -6.598,-3.742 l -22.006,-5.34 c 0,-0.001 -1,1.175 -1.008,4.097 z"
   id="path5846"
   inkscape:connector-curvature="0"
   style="fill:#cda98e" />
</g>
<g
   id="g5852"
   transform="translate(44.416284,-3.8951098)">
	<path
   d="m 111.415,156.643 0.359,25.801 c 0,0 -3.979,1.652 -3.99,-0.402 -0.01,-2.051 0,-26.188 0,-26.188 z"
   id="path5850"
   inkscape:connector-curvature="0"
   style="fill:#cda98e" />
</g>
<g
   id="g5856"
   transform="translate(44.416284,-3.8951098)">
	<polyline
   points="101.299,155.061 101.274,155.717 100.377,183.033 96.182,183.557 97.649,154.771  "
   id="polyline5854"
   style="fill:#cda98e" />
</g>
<g
   id="g5860"
   transform="translate(44.416284,-3.8951098)">
	<path
   d="m 118.043,81.957 c 0,0 7.891,-9.024 6.104,-16.887 -1.785,-7.863 -5.973,-13.357 -14.139,-13.16 -8.166,0.198 -13.242,8.217 -13.242,13.717 2.693,-5.469 10.723,5.023 14.756,6.42 2.057,0.714 2.844,-3.661 3.039,-4.746 3.476,1.074 0.374,14.954 3.482,14.656 z"
   id="path5858"
   inkscape:connector-curvature="0"
   style="fill:#45362e" />
</g>
<g
   id="g5864"
   transform="translate(44.416284,-3.8951098)">
	<path
   d="m 128.948,96.517 c 0,0 -1.131,-15.837 -3.715,-16.093 -2.578,-0.255 -4.104,7.646 -2.523,14.497 1.58,6.854 6.238,1.596 6.238,1.596 z"
   id="path5862"
   inkscape:connector-curvature="0"
   style="fill:#45362e" />
</g>
<g
   id="g5868"
   transform="translate(44.416284,-3.8951098)">
	<path
   d="m 122.068,112.66 0.114,-8.352 4.859,1.091 c 0.001,0 -3.805,8.031 -4.973,7.261 z"
   id="path5866"
   inkscape:connector-curvature="0"
   style="fill:#45362e" />
</g>
<g
   id="g5872"
   transform="translate(44.416284,-3.8951098)">
	<path
   d="m 113.065,182.828 0.59,8.311 c 0,0 -0.818,0.295 -2.061,0.66 -0.197,0.062 -0.43,-0.502 -0.646,-0.441 -0.26,0.07 -0.504,0.77 -0.785,0.84 -3.393,0.885 -8.248,1.74 -9.785,-0.107 -7.264,-0.006 -13.865,-1.287 -12.326,-2.893 1.539,-1.606 8.635,-4.979 8.008,-6.164 3.223,0.934 4.775,0.523 4.775,0.523 l 0.465,3.633 4.77,-1.492 -0.324,-2.23 c -10e-4,-10e-4 6.452,0.919 7.319,-0.64 z"
   id="path5870"
   inkscape:connector-curvature="0"
   style="fill:#513b1b" />
</g>
<g
   id="g5876"
   transform="translate(44.416284,-3.8951098)">
	<path
   d="m 86.331,100.502 -8.765,-4.835 -4.87,-4.093 c 0,0 1.404,6.151 2.801,7.745 1.391,1.59 7.24,3.984 10.439,4.168"
   id="path5874"
   inkscape:connector-curvature="0"
   style="fill:#cda98e" />
</g>
<g
   id="g5880"
   transform="translate(44.416284,-3.8951098)">
	<path
   d="m 112.045,88.223 c 0,0 3.715,2.508 4.73,5.003 0.493,1.211 0.965,3.079 2.41,3.272 1.445,0.191 20.66,3.83 20.66,3.83 l -1.008,6.08 -22.062,-4.148 -0.482,16.174 -5.631,0.748 c 10e-4,0 -2.085,-31.66 1.383,-30.959 z"
   id="path5878"
   inkscape:connector-curvature="0"
   style="fill:#6b4773" />
</g>
<g
   id="g5884"
   transform="translate(44.416284,-3.8951098)">
	<path
   d="m 105.405,88.874 v 1.857 c 0,0 -4.559,1.115 -5.027,1.302 -0.467,0.187 -5.1,10.42 -5.1,10.42 l -5.389,3.133 c 0,0 -5.299,-0.783 -4.145,-1.762 0.296,-0.251 1.098,-4.967 1.967,-5.178 0.869,-0.209 1.293,0.403 1.967,-0.202 0.672,-0.609 9.428,-7.952 11.16,-9.001 1.733,-1.048 4.567,-0.569 4.567,-0.569 z"
   id="path5882"
   inkscape:connector-curvature="0"
   style="fill:#6b4773" />
</g>
<g
   id="g5888"
   transform="translate(44.416284,-3.8951098)">
	<path
   d="m 153.674,135.658 c -0.115,0 -0.229,-0.02 -0.338,-0.059 l -25.699,-9.236 c -0.432,-0.155 -0.702,-0.583 -0.657,-1.039 0.045,-0.456 0.394,-0.823 0.847,-0.892 l 29.041,-4.363 c 0.547,-0.073 1.056,0.296 1.138,0.841 0.082,0.546 -0.295,1.056 -0.841,1.138 l -25.12,3.773 21.779,7.828 55.05,-2.773 c 0.551,-0.026 1.021,0.396 1.05,0.948 0.027,0.552 -0.397,1.021 -0.948,1.05 l -55.25,2.783 c -0.018,10e-4 -0.035,10e-4 -0.052,10e-4 z"
   id="path5886"
   inkscape:connector-curvature="0"
   style="fill:#010101" />
</g>
<g
   id="g5892"
   transform="translate(44.416284,-3.8951098)">
	<path
   d="m 158.73,106.586 c -0.059,0 -0.119,-0.005 -0.179,-0.016 -0.544,-0.099 -0.904,-0.619 -0.807,-1.162 l 1.203,-6.65 c 0.099,-0.543 0.619,-0.907 1.162,-0.806 0.544,0.098 0.904,0.619 0.807,1.162 l -1.203,6.65 c -0.088,0.483 -0.508,0.822 -0.983,0.822 z"
   id="path5890"
   inkscape:connector-curvature="0"
   style="fill:#010101" />
</g>
<g
   id="g5896"
   transform="translate(44.416284,-3.8951098)">
	<path
   d="m 210.213,132.875 c -0.066,0 -0.133,-0.007 -0.199,-0.021 l -35.084,-7.135 c -0.541,-0.109 -0.891,-0.638 -0.78,-1.179 0.109,-0.541 0.641,-0.89 1.179,-0.78 l 34.088,6.932 10.732,-57.716 h -54.501 l -0.976,5.53 c -0.095,0.543 -0.617,0.907 -1.158,0.811 -0.544,-0.096 -0.907,-0.615 -0.811,-1.159 l 1.121,-6.356 c 0.084,-0.478 0.499,-0.826 0.984,-0.826 h 56.543 c 0.297,0 0.579,0.132 0.769,0.361 0.19,0.229 0.269,0.53 0.215,0.822 l -11.139,59.899 c -0.049,0.264 -0.202,0.497 -0.425,0.646 -0.165,0.112 -0.36,0.171 -0.558,0.171 z"
   id="path5894"
   inkscape:connector-curvature="0"
   style="fill:#010101" />
</g>
<g
   id="g5900"
   transform="translate(44.416284,-3.8951098)">
	<path
   d="m 166.685,123.777 c -0.058,0 -0.117,-0.005 -0.176,-0.016 l -9.668,-1.719 c -0.544,-0.097 -0.906,-0.615 -0.81,-1.159 0.096,-0.543 0.614,-0.909 1.159,-0.81 l 9.668,1.719 c 0.544,0.097 0.906,0.615 0.81,1.159 -0.085,0.486 -0.507,0.826 -0.983,0.826 z"
   id="path5898"
   inkscape:connector-curvature="0"
   style="fill:#010101" />
</g>
<g
   id="g5904"
   transform="translate(44.416284,-3.8951098)">
	<path
   d="m 156.246,122.059 c -0.048,0 -0.097,-0.003 -0.146,-0.011 -0.546,-0.08 -0.924,-0.588 -0.844,-1.135 l 1.666,-11.363 c 0.079,-0.546 0.573,-0.931 1.135,-0.844 0.546,0.08 0.924,0.588 0.844,1.135 l -1.666,11.363 c -0.073,0.497 -0.501,0.855 -0.989,0.855 z"
   id="path5902"
   inkscape:connector-curvature="0"
   style="fill:#010101" />
</g>
<g
   id="g5908"
   transform="translate(44.416284,-3.8951098)">
	<path
   d="m 155.833,140.531 c -0.124,0 -0.247,-0.023 -0.363,-0.068 l -25.033,-9.748 c -0.195,-0.076 -0.362,-0.212 -0.477,-0.388 l -2.824,-4.361 c -0.3,-0.464 -0.167,-1.083 0.296,-1.384 0.463,-0.3 1.083,-0.167 1.384,0.296 l 2.648,4.091 24.528,9.552 51.725,-3.065 1.567,-3.949 c 0.205,-0.513 0.787,-0.764 1.299,-0.561 0.513,0.204 0.764,0.785 0.561,1.299 l -1.803,4.541 c -0.144,0.36 -0.482,0.606 -0.87,0.629 l -52.578,3.115 c -0.021,0 -0.041,0.001 -0.06,0.001 z"
   id="path5906"
   inkscape:connector-curvature="0"
   style="fill:#010101" />
</g>
<g
   id="g5912"
   transform="translate(44.416284,-3.8951098)">
	<path
   d="m 159.932,128.555 c -0.262,0 -0.513,-0.103 -0.699,-0.285 -0.192,-0.188 -0.301,-0.446 -0.301,-0.715 v -3.895 c 0,-0.542 0.432,-0.984 0.973,-1 l 13.504,-0.371 c 0.283,0.01 0.532,0.096 0.725,0.283 0.193,0.188 0.303,0.447 0.303,0.717 v 3.977 c 0,0.544 -0.435,0.988 -0.979,1 l -13.504,0.289 c -0.007,0 -0.015,0 -0.022,0 z m 1,-3.922 v 1.9 l 11.504,-0.246 v -1.97 z"
   id="path5910"
   inkscape:connector-curvature="0"
   style="fill:#f5952f" />
</g>
<g
   id="g5916"
   transform="translate(44.416284,-3.8951098)">
	<path
   d="m 178.759,120.053 c -0.205,0 -0.412,-0.063 -0.591,-0.194 -0.445,-0.326 -0.541,-0.952 -0.214,-1.397 l 1.926,-2.623 c 0.325,-0.444 0.951,-0.541 1.397,-0.214 0.445,0.326 0.541,0.952 0.214,1.397 l -1.926,2.623 c -0.194,0.266 -0.498,0.408 -0.806,0.408 z"
   id="path5914"
   inkscape:connector-curvature="0"
   style="fill:#f5952f" />
</g>
<g
   id="g5920"
   transform="translate(44.416284,-3.8951098)">
	<path
   d="m 186.523,126.65 c -0.026,0 -0.052,-0.001 -0.079,-0.003 l -5.889,-0.459 c -0.55,-0.043 -0.962,-0.524 -0.919,-1.075 0.043,-0.551 0.504,-0.966 1.075,-0.919 l 5.889,0.459 c 0.55,0.043 0.962,0.524 0.919,1.075 -0.041,0.524 -0.478,0.922 -0.996,0.922 z"
   id="path5918"
   inkscape:connector-curvature="0"
   style="fill:#f5952f" />
</g>
<g
   id="g5924"
   transform="translate(44.416284,-3.8951098)">
	<path
   d="m 155.082,122.746 c -0.201,0 -0.405,-0.061 -0.581,-0.188 l -3.58,-2.564 c -0.449,-0.321 -0.553,-0.946 -0.23,-1.395 0.319,-0.448 0.947,-0.554 1.395,-0.23 l 3.58,2.564 c 0.449,0.321 0.553,0.946 0.23,1.395 -0.195,0.273 -0.503,0.418 -0.814,0.418 z"
   id="path5922"
   inkscape:connector-curvature="0"
   style="fill:#f5952f" />
</g>
<g
   id="g5928"
   transform="translate(44.416284,-3.8951098)">
	<path
   d="m 153.496,126.646 c -0.041,0 -0.082,-0.002 -0.123,-0.008 l -7.35,-0.906 c -0.549,-0.067 -0.938,-0.566 -0.87,-1.114 0.068,-0.548 0.581,-0.943 1.114,-0.87 l 7.35,0.906 c 0.549,0.067 0.938,0.566 0.87,1.114 -0.063,0.507 -0.493,0.878 -0.991,0.878 z"
   id="path5926"
   inkscape:connector-curvature="0"
   style="fill:#f5952f" />
</g>
<g
   id="g5932"
   transform="translate(44.416284,-3.8951098)">
	<path
   d="m 117.057,83.008 c -0.052,0 -0.104,-0.004 -0.156,-0.012 -2.506,-0.398 -2.031,-4.558 -1.53,-8.962 0.161,-1.408 0.327,-2.864 0.259,-3.469 -0.078,-0.691 -0.536,-1.599 -1.072,-2.451 -0.126,1.917 -0.517,3.975 -1.562,4.715 -0.519,0.367 -1.147,0.43 -1.767,0.18 -0.086,-0.035 -0.167,-0.081 -0.24,-0.138 -1.239,-0.965 -3.07,-2.129 -5.008,-3.361 -4.039,-2.567 -7.062,-4.567 -8.539,-6.334 -0.451,1.567 -0.801,3.331 -0.879,4.956 -0.026,0.552 -0.489,0.973 -1.047,0.951 -0.552,-0.027 -0.978,-0.496 -0.951,-1.047 0.191,-3.985 1.894,-8.923 3.229,-10.512 3.482,-4.148 8.665,-6.549 14.218,-6.587 4.878,-0.003 8.94,4.248 11.947,7.977 0.056,0.069 0.102,0.145 0.138,0.226 4.091,9.315 1.927,17.277 -6.432,23.663 -0.176,0.134 -0.39,0.205 -0.608,0.205 z m -3.478,-18.887 c 0.281,0 0.557,0.119 0.751,0.339 0.308,0.35 3.016,3.485 3.287,5.881 0.094,0.831 -0.062,2.194 -0.259,3.919 -0.186,1.627 -0.59,5.179 -0.242,6.43 7.043,-5.698 8.745,-12.453 5.202,-20.625 -2.505,-3.094 -6.26,-7.128 -10.259,-7.128 -0.012,0 -0.023,0 -0.035,0 -2.917,0.02 -8.448,0.809 -12.699,5.874 -0.302,0.358 -0.659,1.02 -1.017,1.871 0.062,0.096 0.107,0.205 0.134,0.323 0.346,1.564 5.319,4.726 8.61,6.817 1.845,1.172 3.594,2.284 4.887,3.259 0.455,-0.685 0.754,-3.355 0.641,-5.916 -0.019,-0.424 0.231,-0.813 0.625,-0.972 0.121,-0.048 0.248,-0.072 0.374,-0.072 z"
   id="path5930"
   inkscape:connector-curvature="0"
   style="fill:#010101" />
</g>
<g
   id="g5936"
   transform="translate(44.416284,-3.8951098)">
	<path
   d="m 108.522,84.559 c -3.103,0 -6.677,-0.938 -9.722,-4.202 -5.596,-6.001 -1.802,-15.538 -1.638,-15.94 0.208,-0.511 0.79,-0.758 1.302,-0.548 0.512,0.208 0.758,0.791 0.551,1.302 -0.035,0.087 -3.472,8.761 1.248,13.822 6.087,6.529 14.755,2.132 14.842,2.087 0.49,-0.255 1.095,-0.064 1.349,0.426 0.255,0.49 0.064,1.094 -0.425,1.349 -0.058,0.028 -3.36,1.703 -7.507,1.704 z"
   id="path5934"
   inkscape:connector-curvature="0"
   style="fill:#010101" />
</g>
<g
   id="g5940"
   transform="translate(44.416284,-3.8951098)">
	<path
   d="m 110.984,92.62 c -0.326,0 -0.645,-0.16 -0.835,-0.456 -0.937,-1.459 -0.84,-6.985 -0.788,-8.645 0.017,-0.553 0.468,-0.985 1.03,-0.968 0.552,0.017 0.985,0.479 0.968,1.031 -0.096,3.101 0.071,6.855 0.474,7.502 0.29,0.467 0.153,1.086 -0.312,1.379 -0.167,0.106 -0.354,0.157 -0.537,0.157 z"
   id="path5938"
   inkscape:connector-curvature="0"
   style="fill:#010101" />
</g>
<g
   id="g5944"
   transform="translate(44.416284,-3.8951098)">
	<path
   d="m 106.355,91.731 c -0.534,0 -0.977,-0.422 -0.998,-0.96 l -0.285,-7.181 c -0.022,-0.552 0.407,-1.017 0.959,-1.039 0.545,-0.021 1.018,0.407 1.039,0.959 l 0.285,7.181 c 0.022,0.552 -0.407,1.017 -0.959,1.039 -0.014,0 -0.027,10e-4 -0.041,10e-4 z"
   id="path5942"
   inkscape:connector-curvature="0"
   style="fill:#010101" />
</g>
<g
   id="g5948"
   transform="translate(44.416284,-3.8951098)">
	<path
   d="m 113.019,156.842 c -8.353,0 -20.257,-2.41 -20.912,-2.544 -0.51,-0.104 -0.854,-0.581 -0.793,-1.097 0.127,-1.072 3.118,-26.341 4.807,-32.454 0.58,-2.101 0.82,-8.439 0.94,-12.009 -1.253,-0.71 -2.192,-2.046 -2.739,-3.91 -0.047,-0.161 -0.053,-0.333 -0.017,-0.497 0.531,-2.402 3.71,-12.199 5.611,-13.186 1.724,-0.896 6.323,-0.658 9.975,0.04 0.543,0.104 0.898,0.628 0.795,1.17 -0.104,0.542 -0.629,0.893 -1.17,0.794 -3.988,-0.764 -7.706,-0.735 -8.678,-0.23 -0.844,0.713 -3.637,7.835 -4.521,11.588 0.338,1.037 0.967,2.254 2.104,2.662 0.408,0.147 0.675,0.541 0.66,0.975 -0.183,5.541 -0.435,10.967 -1.033,13.135 -1.471,5.326 -4.074,26.552 -4.639,31.239 6.266,1.219 20.621,3.454 25.105,1.658 1.149,-1.73 -0.803,-14.721 -2.231,-24.229 -0.481,-3.205 -0.962,-6.402 -1.371,-9.379 -0.076,-0.548 0.307,-1.052 0.854,-1.127 0.544,-0.086 1.051,0.308 1.126,0.854 0.409,2.97 0.888,6.158 1.368,9.355 2.934,19.524 3.438,25.35 1.124,26.331 -1.463,0.623 -3.739,0.861 -6.365,0.861 z"
   id="path5946"
   inkscape:connector-curvature="0"
   style="fill:#010101" />
</g>
<g
   id="g5952"
   transform="translate(44.416284,-3.8951098)">
	<path
   d="m 102.433,194.34 c -1.053,0 -4.116,-0.343 -4.372,-1.868 -0.721,-4.25 3.479,-6.473 6.394,-7.237 0.035,-0.532 0.141,-1.198 0.313,-1.983 0.061,-0.275 0.235,-0.513 0.48,-0.652 0.243,-0.14 0.534,-0.17 0.806,-0.083 0.805,0.262 1.648,0.395 2.51,0.395 2.292,0 3.99,-0.942 4.007,-0.951 0.298,-0.168 0.664,-0.173 0.966,-0.011 0.302,0.161 0.501,0.466 0.525,0.808 0.06,0.808 0.576,7.909 0.592,8.347 0.08,1.003 -0.713,1.145 -3.065,1.563 -0.326,0.06 -0.651,-0.049 -0.869,-0.189 -0.201,0.215 -0.469,0.425 -0.841,0.49 -1.665,0.291 -3.827,0.689 -5.812,1.187 -0.501,0.121 -1.05,0.184 -1.634,0.184 z m -2.435,-2.479 c 0.371,0.184 1.315,0.479 2.436,0.479 0.422,0 0.809,-0.042 1.148,-0.127 1.963,-0.492 4.076,-0.886 5.742,-1.179 0.021,-0.027 0.041,-0.056 0.062,-0.083 0.205,-0.268 0.516,-0.672 1.048,-0.766 0.058,-0.011 0.146,-0.019 0.205,-0.019 0.457,0 0.78,0.255 0.996,0.459 0.301,-0.055 0.669,-0.124 0.974,-0.188 -0.088,-1.279 -0.274,-3.878 -0.438,-6.142 -0.888,0.306 -2.144,0.613 -3.605,0.613 -0.689,0 -1.372,-0.068 -2.038,-0.205 -0.108,0.705 -0.087,1 -0.079,1.065 0.066,0.249 0.034,0.517 -0.093,0.745 -0.145,0.261 -0.399,0.443 -0.692,0.497 -0.064,0.014 -5.998,1.157 -5.666,4.851 z"
   id="path5950"
   inkscape:connector-curvature="0"
   style="fill:#010101" />
</g>
<g
   id="g5956"
   transform="translate(44.416284,-3.8951098)">
	<path
   d="m 111.774,183.443 c -0.546,0 -0.992,-0.438 -1,-0.986 l -0.359,-25.801 c -0.008,-0.552 0.434,-1.006 0.986,-1.014 0.005,0 0.009,0 0.014,0 0.546,0 0.992,0.438 1,0.986 l 0.359,25.801 c 0.008,0.552 -0.434,1.006 -0.986,1.014 -0.005,0 -0.009,0 -0.014,0 z"
   id="path5954"
   inkscape:connector-curvature="0"
   style="fill:#010101" />
</g>
<g
   id="g5960"
   transform="translate(44.416284,-3.8951098)">
	<path
   d="m 107.784,184.042 c -0.55,0 -0.997,-0.444 -1,-0.994 l -0.152,-26.044 c -0.003,-0.553 0.441,-1.003 0.994,-1.006 0.002,0 0.004,0 0.006,0 0.55,0 0.997,0.444 1,0.994 l 0.152,26.044 c 0.003,0.553 -0.441,1.003 -0.994,1.006 -0.002,0 -0.004,0 -0.006,0 z"
   id="path5958"
   inkscape:connector-curvature="0"
   style="fill:#010101" />
</g>
<g
   id="g5964"
   transform="translate(44.416284,-3.8951098)">
	<path
   d="m 93.046,193.093 c -2.467,0 -4.965,-0.353 -5.916,-1.629 -0.449,-0.603 -0.539,-1.357 -0.252,-2.123 1.004,-2.691 4.814,-4.127 6.669,-4.679 -0.053,-0.543 -0.021,-1.252 0.249,-2.072 0.13,-0.394 0.488,-0.667 0.902,-0.687 0.439,-0.029 0.797,0.218 0.964,0.598 0.178,0.407 0.426,0.64 0.802,0.756 1.352,0.417 3.761,-0.812 4.498,-1.275 0.305,-0.19 0.69,-0.205 1.008,-0.032 0.317,0.172 0.519,0.501 0.524,0.862 l 0.072,4.277 c 0.009,0.552 -0.431,1.007 -0.983,1.017 -0.006,0 -0.012,0 -0.017,0 -0.545,0 -0.99,-0.437 -1,-0.983 l -0.045,-2.65 c -1.274,0.575 -3.118,1.167 -4.643,0.697 -0.062,-0.019 -0.122,-0.039 -0.182,-0.061 0.065,0.232 0.044,0.482 -0.062,0.704 -0.131,0.273 -0.381,0.473 -0.677,0.541 -1.47,0.339 -5.45,1.661 -6.207,3.688 -0.062,0.168 -0.034,0.206 -0.018,0.229 0.338,0.451 2.296,1.023 6.317,0.75 2.268,-0.153 3.018,-0.265 3.24,-0.307 0.338,-0.168 0.755,-0.138 1.07,0.112 0.322,0.257 0.456,0.691 0.333,1.086 -0.226,0.725 -0.491,0.832 -4.508,1.104 -0.681,0.046 -1.408,0.077 -2.138,0.077 z"
   id="path5962"
   inkscape:connector-curvature="0"
   style="fill:#010101" />
</g>
<g
   id="g5968"
   transform="translate(44.416284,-3.8951098)">
	<path
   d="m 100.378,184.033 c -0.012,0 -0.022,0 -0.034,-10e-4 -0.552,-0.018 -0.984,-0.48 -0.966,-1.032 l 0.922,-27.973 c 0.019,-0.552 0.503,-1.012 1.032,-0.966 0.552,0.018 0.984,0.48 0.966,1.032 l -0.922,27.973 c -0.017,0.54 -0.46,0.967 -0.998,0.967 z"
   id="path5966"
   inkscape:connector-curvature="0"
   style="fill:#010101" />
</g>
<g
   id="g5972"
   transform="translate(44.416284,-3.8951098)">
	<path
   d="m 96.183,184.557 c -0.018,0 -0.034,0 -0.052,-10e-4 -0.552,-0.028 -0.976,-0.498 -0.948,-1.05 l 1.467,-28.785 c 0.028,-0.553 0.495,-0.981 1.05,-0.948 0.552,0.028 0.976,0.498 0.948,1.05 l -1.467,28.785 c -0.027,0.534 -0.47,0.949 -0.998,0.949 z"
   id="path5970"
   inkscape:connector-curvature="0"
   style="fill:#010101" />
</g>
<g
   id="g5976"
   transform="translate(44.416284,-3.8951098)">
	<path
   d="m 167.108,121.986 c -1.01,0 -1.817,-0.674 -1.923,-0.766 -0.289,-0.253 -0.408,-0.648 -0.308,-1.019 0.006,-0.021 0.609,-2.338 0.073,-5.696 -2.385,-1.068 -3.165,-2.305 -3.391,-3.185 -2.731,-0.453 -12.227,-2.043 -21.896,-3.836 -0.543,-0.101 -0.901,-0.623 -0.801,-1.166 0.102,-0.544 0.621,-0.905 1.166,-0.801 11.383,2.11 22.522,3.939 22.634,3.957 0.309,0.051 0.604,0.17 0.75,0.446 0.146,0.277 0.182,0.532 0.05,0.815 -0.015,0.226 0.416,1.2 2.75,2.131 0.317,0.126 0.549,0.406 0.612,0.742 0.555,2.924 0.33,5.222 0.141,6.354 0.081,0.022 0.149,0.029 0.2,0.015 0.103,-0.034 0.348,-0.294 0.535,-1.041 0.706,-2.831 0.248,-5.332 0.243,-5.357 -0.017,-0.086 -0.021,-0.176 -0.015,-0.263 0.017,-0.217 0.362,-5.313 -3.2,-5.6 -1.864,-0.146 -9.97,-1.899 -24.088,-5.211 -0.537,-0.126 -0.871,-0.664 -0.745,-1.202 0.127,-0.538 0.666,-0.869 1.202,-0.745 17.463,4.096 22.575,5.069 23.789,5.164 4.37,0.352 5.21,5.065 5.045,7.622 0.099,0.618 0.43,3.186 -0.291,6.078 -0.34,1.351 -0.972,2.179 -1.88,2.463 -0.222,0.072 -0.441,0.101 -0.652,0.101 z"
   id="path5974"
   inkscape:connector-curvature="0"
   style="fill:#010101" />
</g>
<g
   id="g5980"
   transform="translate(44.416284,-3.8951098)">
	<path
   d="m 128.81,98.318 c -0.013,0 -0.025,0 -0.038,0 -0.552,-0.021 -0.982,-0.484 -0.962,-1.036 0.13,-3.544 -0.068,-13.297 -2.51,-15.83 -0.42,-0.435 -0.769,-0.485 -0.995,-0.485 -0.029,0 -0.079,0 -0.182,0.116 -1.355,1.546 -1.025,9.383 -0.358,14.455 0.072,0.547 -0.313,1.05 -0.86,1.122 -0.565,0.071 -1.05,-0.313 -1.122,-0.861 -0.289,-2.189 -1.604,-13.25 0.838,-16.034 0.457,-0.522 1.04,-0.798 1.685,-0.798 0.914,0 1.733,0.369 2.436,1.098 3.468,3.598 3.119,15.9 3.067,17.291 -0.02,0.539 -0.464,0.962 -0.999,0.962 z"
   id="path5978"
   inkscape:connector-curvature="0"
   style="fill:#010101" />
</g>
<g
   id="g5984"
   transform="translate(44.416284,-3.8951098)">
	<path
   d="m 122.622,114.014 c -0.296,0 -0.575,-0.088 -0.812,-0.262 -0.725,-0.532 -0.701,-1.54 -0.62,-2.252 0.424,-3.723 0.006,-7.03 0.002,-7.062 -0.071,-0.548 0.314,-1.05 0.862,-1.12 0.549,-0.077 1.05,0.314 1.12,0.862 0.019,0.141 0.431,3.395 0.038,7.216 0.866,-1.036 2.054,-3.136 2.253,-5.089 0.057,-0.549 0.561,-0.937 1.097,-0.894 0.55,0.057 0.949,0.547 0.894,1.097 -0.312,3.055 -2.573,6.654 -4.137,7.349 -0.236,0.103 -0.471,0.155 -0.697,0.155 z"
   id="path5982"
   inkscape:connector-curvature="0"
   style="fill:#010101" />
</g>
<g
   id="g5988"
   transform="translate(44.416284,-3.8951098)">
	<path
   d="m 157.016,148.146 c -0.139,0 -0.276,-0.028 -0.404,-0.085 l -37.189,-16.418 c -0.398,-0.177 -0.638,-0.591 -0.59,-1.024 0.048,-0.433 0.371,-0.786 0.799,-0.871 l 9.293,-1.848 c 0.546,-0.115 1.068,0.244 1.176,0.785 0.108,0.542 -0.244,1.068 -0.785,1.176 l -6.188,1.23 34.032,15.024 64.614,-9.129 -11.891,-4.169 c -0.521,-0.183 -0.795,-0.753 -0.612,-1.274 0.182,-0.52 0.752,-0.799 1.274,-0.612 l 15.768,5.527 c 0.435,0.152 0.709,0.583 0.664,1.042 -0.045,0.459 -0.398,0.827 -0.855,0.892 l -68.965,9.744 c -0.047,0.008 -0.094,0.01 -0.141,0.01 z"
   id="path5986"
   inkscape:connector-curvature="0"
   style="fill:#010101" />
</g>
<g
   id="g5992"
   transform="translate(44.416284,-3.8951098)">
	<path
   d="m 156.245,152.037 c -0.143,0 -0.283,-0.03 -0.413,-0.09 l -37.547,-17.055 c -0.503,-0.229 -0.726,-0.821 -0.497,-1.323 0.228,-0.503 0.82,-0.729 1.323,-0.497 l 37.282,16.935 67.531,-9.48 1.104,-3.431 c 0.17,-0.525 0.736,-0.811 1.259,-0.646 0.525,0.17 0.814,0.733 0.646,1.259 l -1.297,4.027 c -0.118,0.365 -0.434,0.63 -0.813,0.684 l -68.439,9.607 c -0.047,0.007 -0.093,0.01 -0.139,0.01 z"
   id="path5990"
   inkscape:connector-curvature="0"
   style="fill:#010101" />
</g>
<g
   id="g5996"
   transform="translate(44.416284,-3.8951098)">
	<path
   d="m 156.246,152.037 c -0.064,0 -0.13,-0.006 -0.195,-0.02 -0.542,-0.107 -0.894,-0.633 -0.786,-1.175 l 0.771,-3.891 c 0.106,-0.542 0.635,-0.9 1.175,-0.786 0.542,0.107 0.894,0.633 0.786,1.175 l -0.771,3.891 c -0.095,0.477 -0.513,0.806 -0.98,0.806 z"
   id="path5994"
   inkscape:connector-curvature="0"
   style="fill:#010101" />
</g>
<g
   id="g6000"
   transform="translate(44.416284,-3.8951098)">
	<path
   d="m 215.829,183.504 c -0.258,0 -0.506,-0.1 -0.692,-0.278 -0.196,-0.188 -0.308,-0.449 -0.308,-0.722 v -39.83 c 0,-0.553 0.447,-1 1,-1 0.553,0 1,0.447 1,1 v 28.56 l 0.186,-28.729 c 0.004,-0.55 0.45,-0.993 1,-0.993 0.002,0 0.004,0 0.007,0 0.552,0.004 0.997,0.454 0.993,1.007 l -0.258,39.914 c -0.004,0.533 -0.426,0.971 -0.96,0.992 l -1.928,0.078 c -0.013,0.001 -0.027,0.001 -0.04,0.001 z"
   id="path5998"
   inkscape:connector-curvature="0"
   style="fill:#010101" />
</g>
<g
   id="g6004"
   transform="translate(44.416284,-3.8951098)">
	<path
   d="m 161.852,190.197 c -0.083,0 -0.167,-0.011 -0.249,-0.031 l -1.562,-0.402 c -0.442,-0.114 -0.751,-0.513 -0.751,-0.969 v -38.322 c 0,-0.553 0.447,-1 1,-1 0.469,0 0.862,0.323 0.971,0.759 0.166,-0.122 0.37,-0.194 0.592,-0.194 0.553,0 1,0.447 1,1 v 38.16 c 0,0.31 -0.143,0.601 -0.388,0.79 -0.177,0.137 -0.393,0.209 -0.613,0.209 z"
   id="path6002"
   inkscape:connector-curvature="0"
   style="fill:#010101" />
</g>
<g
   id="g6008"
   transform="translate(44.416284,-3.8951098)">
	<path
   d="m 130.975,173.295 c -0.102,0 -0.203,-0.016 -0.303,-0.047 l -1.273,-0.404 c -0.415,-0.132 -0.697,-0.518 -0.697,-0.953 v -32.76 c 0,-0.553 0.447,-1 1,-1 0.467,0 0.858,0.319 0.969,0.751 0.167,-0.122 0.384,-0.166 0.599,-0.192 0.552,0.005 0.996,0.456 0.991,1.009 l -0.285,32.605 c -0.003,0.317 -0.156,0.614 -0.413,0.801 -0.174,0.124 -0.38,0.19 -0.588,0.19 z"
   id="path6006"
   inkscape:connector-curvature="0"
   style="fill:#010101" />
</g>
<g
   id="g6012"
   transform="translate(44.416284,-3.8951098)">
	<path
   d="m 178.76,166.107 h -1.574 c -0.553,0 -1,-0.447 -1,-1 V 148.1 c 0,-0.553 0.447,-1 1,-1 0.553,0 1,0.447 1,1 v 0.178 c 0.162,-0.114 0.36,-0.182 0.574,-0.182 0.553,0 1,0.447 1,1 v 16.012 c 0,0.552 -0.447,0.999 -1,0.999 z"
   id="path6010"
   inkscape:connector-curvature="0"
   style="fill:#010101" />
</g>
<g
   id="g6018"
   transform="translate(44.416284,-3.8951098)">
	<polyline
   points="73.756,95.577 80.864,132.479 22.775,143.805 6.584,64.665 65.563,55.857 72.696,91.574  "
   id="polyline6014"
   style="fill:#8a6b3d" />
	<path
   d="m 22.774,144.805 c -0.466,0 -0.882,-0.326 -0.979,-0.8 L 5.604,64.865 c -0.055,-0.269 0.003,-0.548 0.16,-0.773 0.157,-0.225 0.4,-0.375 0.672,-0.416 l 58.979,-8.808 c 0.525,-0.08 1.023,0.271 1.128,0.793 l 7.133,35.717 c 0.108,0.542 -0.243,1.068 -0.784,1.176 -0.546,0.107 -1.068,-0.243 -1.177,-0.785 L 64.769,56.986 7.775,65.498 23.556,142.634 79.692,131.688 72.773,95.766 c -0.104,-0.542 0.251,-1.066 0.793,-1.171 0.545,-0.104 1.066,0.25 1.172,0.793 l 7.107,36.901 c 0.104,0.542 -0.25,1.065 -0.791,1.171 l -58.088,11.326 c -0.064,0.013 -0.128,0.019 -0.192,0.019 z"
   id="path6016"
   inkscape:connector-curvature="0"
   style="fill:#010101" />
</g>
<g
   id="g6024"
   transform="translate(44.416284,-3.8951098)">
	<path
   d="m 62.094,60.879 -49.059,8.074 c 0,0 6.174,47.082 14.461,69.06 14.445,-3.355 51.301,-10.832 51.301,-10.832 0,0 -13.746,-45.098 -16.703,-66.302 z"
   id="path6020"
   inkscape:connector-curvature="0"
   style="fill:#f7f8f8" />
	<path
   d="m 27.497,139.014 c -0.408,0 -0.786,-0.251 -0.936,-0.647 -8.233,-21.834 -14.456,-68.811 -14.518,-69.283 -0.07,-0.535 0.297,-1.029 0.829,-1.117 l 49.06,-8.074 c 0.266,-0.043 0.538,0.022 0.755,0.182 0.217,0.16 0.36,0.4 0.397,0.667 2.913,20.885 16.532,65.698 16.67,66.148 0.082,0.271 0.046,0.562 -0.098,0.804 -0.145,0.242 -0.385,0.412 -0.66,0.469 -0.369,0.074 -37.007,7.512 -51.273,10.825 -0.076,0.017 -0.152,0.026 -0.226,0.026 z M 14.156,69.783 c 0.919,6.712 6.617,46.875 13.972,67.059 13.38,-3.072 43.341,-9.189 49.395,-10.422 C 75.477,119.615 64.186,81.601 61.251,62.032 Z"
   id="path6022"
   inkscape:connector-curvature="0"
   style="fill:#010101" />
</g>
<g
   id="g6028"
   transform="translate(44.416284,-3.8951098)">
	<path
   d="m 86.33,100.887 c -0.134,0 -0.27,-0.026 -0.4,-0.084 l -8.305,-3.636 c -0.155,-0.068 -0.29,-0.174 -0.394,-0.309 -1.268,-1.66 -2.72,-3.241 -3.615,-3.984 0.275,0.873 0.971,2.265 1.776,3.49 0.304,0.461 0.176,1.082 -0.285,1.385 -0.462,0.304 -1.082,0.176 -1.385,-0.286 -1.486,-2.258 -2.997,-5.23 -1.761,-6.568 0.284,-0.308 0.67,-0.476 1.117,-0.446 1.545,0.072 4.098,3.065 5.584,4.989 l 8.069,3.533 c 0.506,0.222 0.736,0.812 0.515,1.317 -0.163,0.375 -0.531,0.599 -0.916,0.599 z"
   id="path6026"
   inkscape:connector-curvature="0"
   style="fill:#010101" />
</g>
<g
   id="g6032"
   transform="translate(44.416284,-3.8951098)">
	<path
   d="m 24.731,89.049 c -0.493,0 -0.922,-0.364 -0.99,-0.866 l -1.182,-8.716 c -0.049,-0.362 0.103,-0.721 0.396,-0.938 0.293,-0.218 0.681,-0.257 1.013,-0.104 l 3.578,1.651 c 0.502,0.231 0.721,0.826 0.489,1.327 -0.23,0.501 -0.823,0.721 -1.327,0.489 l -1.924,-0.888 0.938,6.91 c 0.074,0.547 -0.31,1.051 -0.856,1.125 -0.045,0.007 -0.09,0.01 -0.135,0.01 z"
   id="path6030"
   inkscape:connector-curvature="0"
   style="fill:#29aa4e" />
</g>
<g
   id="g6036"
   transform="translate(44.416284,-3.8951098)">
	<path
   d="m 20.678,82.857 c -0.278,0 -0.554,-0.115 -0.751,-0.34 -0.365,-0.415 -0.324,-1.047 0.091,-1.411 l 2.873,-2.524 c 0.416,-0.365 1.048,-0.324 1.411,0.091 0.365,0.415 0.324,1.047 -0.091,1.411 l -2.873,2.524 c -0.191,0.167 -0.426,0.249 -0.66,0.249 z"
   id="path6034"
   inkscape:connector-curvature="0"
   style="fill:#29aa4e" />
</g>
<g
   id="g6040"
   transform="translate(44.416284,-3.8951098)">
	<path
   d="m 28.089,107.459 c -0.481,0 -0.905,-0.348 -0.985,-0.838 l -1.451,-8.829 c -0.06,-0.361 0.083,-0.726 0.371,-0.95 0.289,-0.226 0.679,-0.275 1.012,-0.13 l 3.752,1.623 c 0.508,0.22 0.74,0.808 0.521,1.314 -0.219,0.506 -0.807,0.74 -1.314,0.521 l -2.071,-0.896 1.153,7.021 c 0.09,0.545 -0.279,1.06 -0.824,1.148 -0.055,0.012 -0.11,0.016 -0.164,0.016 z"
   id="path6038"
   inkscape:connector-curvature="0"
   style="fill:#29aa4e" />
</g>
<g
   id="g6044"
   transform="translate(44.416284,-3.8951098)">
	<path
   d="m 23.725,101.323 c -0.27,0 -0.538,-0.108 -0.735,-0.321 -0.375,-0.406 -0.35,-1.038 0.056,-1.413 l 2.915,-2.693 c 0.404,-0.374 1.037,-0.352 1.413,0.056 0.375,0.406 0.35,1.039 -0.056,1.414 l -2.915,2.692 c -0.193,0.177 -0.436,0.265 -0.678,0.265 z"
   id="path6042"
   inkscape:connector-curvature="0"
   style="fill:#29aa4e" />
</g>
<g
   id="g6048"
   transform="translate(44.416284,-3.8951098)">
	<path
   d="m 33.013,125.772 c -0.136,0 -0.271,-0.027 -0.399,-0.083 l -3.676,-1.602 c -0.506,-0.221 -0.738,-0.811 -0.518,-1.316 0.22,-0.505 0.809,-0.74 1.316,-0.518 l 1.933,0.842 -1.401,-7.225 c -0.105,-0.542 0.249,-1.067 0.791,-1.172 0.545,-0.104 1.066,0.249 1.172,0.791 l 1.764,9.092 c 0.071,0.364 -0.066,0.738 -0.356,0.971 -0.181,0.145 -0.402,0.22 -0.626,0.22 z"
   id="path6046"
   inkscape:connector-curvature="0"
   style="fill:#de372d" />
</g>
<g
   id="g6052"
   transform="translate(44.416284,-3.8951098)">
	<path
   d="m 33.013,125.772 c -0.271,0 -0.54,-0.109 -0.736,-0.324 -0.374,-0.406 -0.347,-1.039 0.061,-1.413 l 2.867,-2.631 c 0.404,-0.373 1.04,-0.347 1.412,0.062 0.374,0.406 0.347,1.039 -0.061,1.413 l -2.867,2.631 c -0.191,0.176 -0.434,0.262 -0.676,0.262 z"
   id="path6050"
   inkscape:connector-curvature="0"
   style="fill:#de372d" />
</g>
<g
   id="g6058"
   transform="translate(44.416284,-3.8951098)">
	<polygon
   points="28.75,68.375 24.027,60.879 47.061,57.213 45.233,65.488 "
   id="polygon6054"
   style="fill:#4c391f" />
	<path
   d="m 28.75,69.375 c -0.34,0 -0.661,-0.173 -0.846,-0.467 L 23.18,61.413 c -0.179,-0.284 -0.204,-0.64 -0.065,-0.946 0.139,-0.306 0.422,-0.522 0.754,-0.575 l 23.034,-3.666 c 0.331,-0.05 0.659,0.062 0.885,0.302 0.228,0.241 0.32,0.578 0.249,0.901 l -1.828,8.274 c -0.088,0.396 -0.405,0.699 -0.804,0.769 l -16.482,2.887 c -0.057,0.011 -0.116,0.016 -0.173,0.016 z m -3.069,-7.746 3.558,5.645 15.162,-2.656 1.367,-6.187 z"
   id="path6056"
   inkscape:connector-curvature="0"
   style="fill:#010101" />
</g>
<g
   id="g6062"
   transform="translate(44.416284,-3.8951098)">
	<path
   d="m 89.583,107.407 c -1.201,0 -4.988,-1.231 -5.675,-1.874 -0.505,-0.473 -1.027,-0.961 2.192,-7.477 0.201,-0.406 0.649,-0.625 1.098,-0.536 l 1.635,0.335 c 2.438,-2.135 10.573,-9.248 11.461,-9.825 1.085,-0.708 3.809,-0.797 4.618,-0.808 0.004,0 0.009,0 0.013,0 0.547,0 0.992,0.439 1,0.987 0.007,0.552 -0.435,1.006 -0.986,1.013 -1.358,0.018 -3.151,0.222 -3.553,0.484 -0.656,0.432 -7.468,6.351 -11.608,9.98 -0.235,0.206 -0.558,0.289 -0.86,0.228 l -1.36,-0.279 c -0.854,1.783 -1.691,3.728 -1.944,4.608 0.932,0.405 3.199,1.115 3.842,1.166 0.588,-0.227 2.871,-1.584 4.74,-2.769 0.468,-0.296 1.085,-0.157 1.38,0.31 0.296,0.466 0.157,1.084 -0.31,1.38 -3.075,1.95 -4.934,2.981 -5.521,3.066 -0.048,0.008 -0.102,0.011 -0.162,0.011 z"
   id="path6060"
   inkscape:connector-curvature="0"
   style="fill:#010101" />
</g>
<g
   id="g6066"
   transform="translate(44.416284,-3.8951098)">
	<path
   d="m 96.917,118.795 h -1.344 c -0.285,0 -0.558,-0.122 -0.747,-0.336 -0.19,-0.213 -0.279,-0.497 -0.246,-0.781 l 1.209,-10.27 c 0.064,-0.549 0.56,-0.943 1.11,-0.876 0.548,0.064 0.94,0.562 0.876,1.11 l -1.077,9.152 h 0.219 c 0.553,0 1,0.447 1,1 0,0.553 -0.448,1.001 -1,1.001 z"
   id="path6064"
   inkscape:connector-curvature="0"
   style="fill:#010101" />
</g>
<g
   id="g6070"
   transform="translate(44.416284,-3.8951098)">
	<path
   d="m 139.231,108.314 c -0.083,0 -0.166,-0.011 -0.248,-0.031 -1.314,-0.337 -6.603,-1.337 -11.716,-2.304 -5.846,-1.105 -11.368,-2.149 -12.416,-2.466 -0.529,-0.159 -0.829,-0.717 -0.669,-1.245 0.158,-0.528 0.716,-0.832 1.245,-0.669 0.947,0.285 6.932,1.416 12.211,2.415 4.408,0.833 8.616,1.629 10.751,2.083 0.283,-1.567 0.884,-4.051 1.252,-5.528 l -21.13,-4.01 c -0.313,-0.06 -0.58,-0.266 -0.718,-0.555 -0.573,-1.211 -1.409,-2.477 -1.754,-2.655 -0.997,-0.497 -1.66,-1.765 -2.253,-3.021 -0.06,-0.126 -0.11,-0.236 -0.153,-0.319 -0.255,-0.194 -1.11,-0.572 -1.904,-0.837 -0.524,-0.175 -0.807,-0.742 -0.632,-1.265 0.175,-0.523 0.736,-0.807 1.265,-0.632 2.491,0.831 2.854,1.464 2.972,1.673 0.069,0.122 0.156,0.304 0.262,0.527 0.217,0.459 0.876,1.855 1.339,2.086 0.985,0.494 1.955,2.18 2.44,3.126 l 21.682,4.116 c 0.271,0.052 0.509,0.213 0.657,0.445 0.148,0.233 0.193,0.517 0.125,0.784 -0.79,3.096 -1.607,6.665 -1.607,7.282 0,0.309 -0.143,0.601 -0.387,0.79 -0.178,0.138 -0.394,0.21 -0.614,0.21 z"
   id="path6068"
   inkscape:connector-curvature="0"
   style="fill:#010101" />
</g>
<g
   id="g6074"
   transform="translate(44.416284,-3.8951098)">
	<path
   d="m 84.825,105.078 c -0.126,0 -0.254,-0.023 -0.378,-0.074 -0.209,-0.085 -5.169,-2.117 -9.001,-4.238 -0.483,-0.268 -0.658,-0.876 -0.391,-1.359 0.268,-0.484 0.878,-0.657 1.359,-0.391 3.727,2.063 8.738,4.116 8.788,4.137 0.512,0.209 0.757,0.793 0.548,1.304 -0.158,0.387 -0.532,0.621 -0.925,0.621 z"
   id="path6072"
   inkscape:connector-curvature="0"
   style="fill:#010101" />
</g>
<g
   id="g6078"
   transform="translate(44.416284,-3.8951098)">
	<path
   d="m 109.704,121.068 c -0.268,0 -0.524,-0.107 -0.713,-0.299 -0.193,-0.196 -0.297,-0.465 -0.286,-0.74 0.041,-1.053 1.016,-25.83 1.918,-29.535 0.131,-0.537 0.672,-0.867 1.208,-0.735 0.537,0.131 0.866,0.671 0.735,1.208 -0.657,2.7 -1.452,18.934 -1.82,28.054 1.225,-0.07 3.283,-0.235 4.991,-0.611 -0.12,-3.677 0.032,-14.435 0.039,-14.935 0.008,-0.547 0.454,-0.985 1,-0.985 0.005,0 0.01,0 0.015,0 0.552,0.008 0.993,0.462 0.985,1.015 -0.002,0.133 -0.188,13.339 -0.003,15.595 0.039,0.477 -0.265,0.914 -0.726,1.044 -2.882,0.814 -7.141,0.921 -7.321,0.925 -0.007,-0.001 -0.015,-0.001 -0.022,-0.001 z"
   id="path6076"
   inkscape:connector-curvature="0"
   style="fill:#010101" />
</g>
<g
   id="g6082"
   transform="translate(44.416284,-3.8951098)">
	<path
   d="m 75.502,60.137 c -0.062,0 -0.125,-0.003 -0.188,-0.011 -0.607,-0.072 -1.287,-0.548 -1.372,-1.669 -0.16,-2.042 1.902,-3.583 2.416,-3.935 -0.566,-1.001 -1.536,-2.232 -2.381,-3.305 -1.319,-1.676 -2.685,-3.408 -3.434,-5.114 -0.188,-0.426 -0.057,-0.925 0.316,-1.204 1.013,-0.756 7.965,-5.513 8.261,-5.714 0.439,-0.302 1.036,-0.204 1.358,0.217 8.288,10.813 8.288,11.117 8.288,11.537 0,0.044 -0.668,4.507 -2.391,4.787 -0.341,0.057 -1.174,0.042 -1.608,-1.262 -0.368,-1.101 -0.341,-2.042 0.083,-2.797 0.45,-0.805 1.196,-1.088 1.454,-1.165 -1.282,-1.812 -4.478,-6.043 -6.838,-9.131 -1.583,1.085 -5.149,3.532 -6.735,4.647 0.7,1.274 1.773,2.637 2.816,3.961 2.027,2.574 3.778,4.797 3.165,6.703 -0.552,1.718 -1.846,3.455 -3.21,3.455 z"
   id="path6080"
   inkscape:connector-curvature="0"
   style="fill:#010101" />
</g>
<g
   id="g6086"
   transform="translate(44.416284,-3.8951098)">
	<path
   d="m 82.561,24.76 c -0.866,0 -1.192,-0.565 -1.275,-0.752 -0.402,-0.898 0.205,-1.897 2.242,-3.686 0.186,-0.162 0.413,-0.244 0.641,-0.249 -0.295,-3.205 -1.251,-10.066 -2.01,-15.027 -0.07,-0.458 0.183,-0.903 0.61,-1.077 0.429,-0.174 0.921,-0.033 1.19,0.342 1.062,1.479 4.545,6.438 4.799,8.197 0.078,0.546 -0.301,1.054 -0.848,1.132 -0.552,0.075 -1.054,-0.301 -1.133,-0.847 -0.074,-0.517 -0.905,-1.995 -1.995,-3.704 0.725,5.003 1.642,11.85 1.425,13.053 -0.261,1.448 -2.368,2.478 -3.378,2.601 -0.094,0.012 -0.184,0.017 -0.268,0.017 z"
   id="path6084"
   inkscape:connector-curvature="0"
   style="fill:#010101" />
</g>
<g
   id="g6092"
   transform="translate(44.416284,-3.8951098)">
	<path
   d="m 64.711,30.144 c 0,0 -2.406,-0.036 -2.146,1.7 0.268,1.732 3.75,-1.206 3.75,-1.206 l -1.473,-17.217 -10.699,5.337 1.158,15.473 c 0,0 -2.818,4.342 -3.84,2.447 0,0 -0.781,-1.77 2.455,-3.014"
   id="path6088"
   inkscape:connector-curvature="0"
   style="fill:#ffffff" />
	<path
   d="m 52.151,38.157 c -0.021,0 -0.044,0 -0.066,-10e-4 -0.367,-0.015 -1.052,-0.165 -1.503,-1.002 -0.101,-0.218 -0.404,-1.005 0.009,-1.998 0.421,-1.013 1.419,-1.829 2.968,-2.424 0.207,-0.08 0.426,-0.085 0.626,-0.03 L 53.147,18.834 c -0.03,-0.405 0.188,-0.788 0.551,-0.97 l 10.699,-5.337 c 0.297,-0.147 0.647,-0.139 0.936,0.023 0.289,0.162 0.479,0.457 0.507,0.787 l 1.473,17.217 c 0.028,0.324 -0.104,0.641 -0.352,0.85 -1.081,0.913 -3.09,2.372 -4.393,1.884 -0.533,-0.2 -0.895,-0.67 -0.99,-1.29 -0.136,-0.907 0.198,-1.511 0.502,-1.858 0.85,-0.971 2.353,-0.994 2.647,-0.995 0.17,0.002 0.329,0.047 0.468,0.124 l -1.223,-14.295 -8.781,4.38 1.108,14.803 c 0.017,0.218 -0.039,0.436 -0.158,0.619 -0.666,1.024 -2.372,3.381 -3.99,3.381 z m 1.379,-3.223 c -0.745,0.398 -1.004,0.773 -1.093,0.988 -0.017,0.039 -0.028,0.076 -0.037,0.111 0.294,-0.195 0.708,-0.601 1.13,-1.099 z"
   id="path6090"
   inkscape:connector-curvature="0"
   style="fill:#010101" />
</g>
<g
   id="g6096"
   transform="translate(44.416284,-3.8951098)">
	<path
   d="m 54.439,23.734 c -0.366,0 -0.719,-0.201 -0.895,-0.55 -0.248,-0.493 -0.05,-1.094 0.443,-1.343 l 10.736,-5.407 c 0.493,-0.25 1.095,-0.05 1.344,0.443 0.248,0.493 0.05,1.094 -0.443,1.343 l -10.736,5.407 c -0.144,0.073 -0.298,0.107 -0.449,0.107 z"
   id="path6094"
   inkscape:connector-curvature="0"
   style="fill:#010101" />
</g>
<g
   id="g6108"
   transform="translate(44.416284,-3.8951098)">
	<path
   d="m 182.661,65.166 c -0.49,-0.146 -0.943,-0.178 -1.355,-0.091 -0.414,0.087 -0.814,0.28 -1.199,0.585 -0.428,0.338 -0.756,0.72 -0.984,1.142 -0.229,0.421 -0.367,0.866 -0.418,1.334 -0.049,0.468 -0.016,0.938 0.098,1.409 0.115,0.472 0.301,0.927 0.559,1.365 0.258,0.438 0.562,0.801 0.912,1.086 0.35,0.285 0.727,0.483 1.127,0.595 0.4,0.112 0.807,0.125 1.221,0.038 0.414,-0.086 0.818,-0.286 1.215,-0.599 0.834,-0.66 1.279,-1.529 1.336,-2.609 l 1.539,0.254 c -0.09,0.768 -0.322,1.46 -0.699,2.079 -0.375,0.619 -0.844,1.149 -1.402,1.593 -0.594,0.469 -1.203,0.789 -1.824,0.961 -0.623,0.171 -1.227,0.192 -1.811,0.064 -0.582,-0.128 -1.133,-0.388 -1.648,-0.782 -0.518,-0.395 -0.967,-0.923 -1.348,-1.586 -0.385,-0.643 -0.639,-1.314 -0.766,-2.017 -0.129,-0.703 -0.133,-1.396 -0.014,-2.08 0.121,-0.684 0.357,-1.331 0.713,-1.942 0.355,-0.61 0.83,-1.152 1.424,-1.621 0.57,-0.451 1.176,-0.769 1.814,-0.953 0.641,-0.186 1.289,-0.198 1.949,-0.043 z"
   id="path6098"
   inkscape:connector-curvature="0"
   style="fill:#f5952f" />
	<path
   d="m 180.893,55.72 1.285,-1.017 8.104,13.833 -1.285,1.017 z"
   id="path6100"
   inkscape:connector-curvature="0"
   style="fill:#f5952f" />
	<path
   d="m 185.688,54.74 c -0.168,-0.277 -0.221,-0.593 -0.16,-0.944 0.061,-0.351 0.223,-0.632 0.486,-0.841 0.264,-0.208 0.547,-0.279 0.848,-0.215 0.303,0.065 0.535,0.237 0.703,0.515 0.172,0.31 0.23,0.631 0.172,0.963 -0.058,0.332 -0.225,0.606 -0.5,0.824 -0.275,0.217 -0.559,0.298 -0.852,0.244 -0.293,-0.055 -0.525,-0.237 -0.697,-0.546 z m 2.252,3.119 1.283,-1.017 5.027,8.556 -1.285,1.016 z"
   id="path6102"
   inkscape:connector-curvature="0"
   style="fill:#f5952f" />
	<path
   d="m 198.522,52.621 c -0.49,-0.146 -0.943,-0.178 -1.357,-0.091 -0.414,0.086 -0.812,0.28 -1.197,0.584 -0.428,0.339 -0.756,0.721 -0.984,1.143 -0.229,0.421 -0.369,0.866 -0.418,1.334 -0.049,0.468 -0.018,0.938 0.098,1.408 0.113,0.473 0.301,0.928 0.559,1.366 0.256,0.438 0.561,0.801 0.912,1.086 0.35,0.285 0.725,0.483 1.127,0.595 0.4,0.112 0.807,0.125 1.221,0.038 0.414,-0.087 0.818,-0.286 1.213,-0.599 0.834,-0.66 1.281,-1.53 1.338,-2.609 l 1.539,0.254 c -0.09,0.768 -0.322,1.46 -0.699,2.079 -0.377,0.619 -0.844,1.149 -1.404,1.593 -0.592,0.469 -1.201,0.789 -1.824,0.961 -0.623,0.171 -1.227,0.192 -1.809,0.064 -0.584,-0.128 -1.133,-0.389 -1.65,-0.783 -0.518,-0.394 -0.967,-0.922 -1.348,-1.585 -0.383,-0.643 -0.639,-1.314 -0.766,-2.017 -0.127,-0.703 -0.131,-1.396 -0.012,-2.08 0.119,-0.684 0.357,-1.332 0.713,-1.943 0.355,-0.61 0.83,-1.151 1.422,-1.62 0.572,-0.451 1.176,-0.769 1.816,-0.954 0.639,-0.185 1.289,-0.197 1.947,-0.042 z"
   id="path6104"
   inkscape:connector-curvature="0"
   style="fill:#f5952f" />
	<path
   d="m 196.639,43.266 1.285,-1.017 5.281,9.049 1.303,-6.545 1.828,-1.446 -1.441,6.843 6.846,1.412 -1.893,1.499 -6.467,-1.473 2.645,4.494 -1.285,1.017 z"
   id="path6106"
   inkscape:connector-curvature="0"
   style="fill:#f5952f" />
</g>
<g
   id="g6120"
   transform="translate(44.416284,-3.8951098)">
	<path
   d="m 144.682,80.129 c -0.184,-0.479 -0.434,-0.856 -0.756,-1.132 -0.32,-0.275 -0.719,-0.473 -1.193,-0.593 -0.529,-0.133 -1.031,-0.162 -1.506,-0.087 -0.473,0.076 -0.91,0.236 -1.311,0.482 -0.402,0.246 -0.754,0.558 -1.059,0.936 -0.305,0.378 -0.553,0.803 -0.744,1.274 -0.189,0.472 -0.291,0.934 -0.305,1.385 -0.014,0.451 0.059,0.87 0.215,1.257 0.156,0.385 0.395,0.716 0.713,0.991 0.322,0.275 0.727,0.475 1.215,0.598 1.031,0.26 1.994,0.083 2.885,-0.53 l 0.734,1.376 c -0.662,0.396 -1.354,0.634 -2.074,0.713 -0.719,0.079 -1.424,0.03 -2.117,-0.144 -0.732,-0.185 -1.357,-0.471 -1.873,-0.861 -0.516,-0.389 -0.9,-0.854 -1.154,-1.395 -0.254,-0.541 -0.381,-1.136 -0.385,-1.785 -0.002,-0.65 0.145,-1.329 0.438,-2.035 0.275,-0.695 0.652,-1.308 1.133,-1.837 0.48,-0.528 1.027,-0.954 1.641,-1.275 0.615,-0.321 1.275,-0.527 1.977,-0.618 0.699,-0.091 1.416,-0.044 2.15,0.141 0.705,0.178 1.328,0.464 1.863,0.858 0.535,0.394 0.943,0.901 1.221,1.52 z"
   id="path6110"
   inkscape:connector-curvature="0"
   style="fill:#f5952f" />
	<path
   d="m 151.094,72.972 1.59,0.4 -6.033,14.853 -1.59,-0.399 z"
   id="path6112"
   inkscape:connector-curvature="0"
   style="fill:#f5952f" />
	<path
   d="m 153.692,79.863 1.588,0.4 -3.723,9.197 -1.588,-0.4 z m 1.1,-3.686 c 0.119,-0.302 0.336,-0.536 0.654,-0.702 0.314,-0.166 0.637,-0.208 0.961,-0.126 0.326,0.082 0.555,0.263 0.688,0.541 0.131,0.279 0.139,0.569 0.02,0.871 -0.141,0.326 -0.359,0.566 -0.658,0.722 -0.299,0.157 -0.619,0.191 -0.957,0.106 -0.34,-0.086 -0.578,-0.261 -0.713,-0.526 -0.136,-0.265 -0.136,-0.56 0.005,-0.886 z"
   id="path6114"
   inkscape:connector-curvature="0"
   style="fill:#f5952f" />
	<path
   d="m 164.293,85.064 c -0.184,-0.479 -0.434,-0.855 -0.756,-1.132 -0.32,-0.275 -0.719,-0.473 -1.193,-0.593 -0.529,-0.133 -1.031,-0.162 -1.506,-0.086 -0.473,0.076 -0.91,0.236 -1.311,0.481 -0.402,0.246 -0.754,0.558 -1.059,0.936 -0.305,0.378 -0.553,0.804 -0.744,1.275 -0.189,0.471 -0.291,0.933 -0.305,1.385 -0.014,0.45 0.059,0.87 0.215,1.256 0.156,0.386 0.395,0.716 0.713,0.991 0.322,0.275 0.727,0.475 1.215,0.598 1.031,0.26 1.994,0.083 2.885,-0.529 l 0.734,1.375 c -0.662,0.396 -1.354,0.635 -2.074,0.713 -0.719,0.079 -1.424,0.031 -2.117,-0.143 -0.732,-0.185 -1.357,-0.472 -1.873,-0.861 -0.516,-0.389 -0.9,-0.854 -1.154,-1.396 -0.254,-0.54 -0.381,-1.136 -0.385,-1.785 -0.002,-0.65 0.145,-1.329 0.438,-2.034 0.275,-0.695 0.652,-1.309 1.133,-1.838 0.48,-0.528 1.027,-0.953 1.641,-1.275 0.615,-0.321 1.275,-0.527 1.977,-0.618 0.699,-0.091 1.416,-0.044 2.15,0.141 0.705,0.178 1.328,0.464 1.863,0.858 0.535,0.394 0.943,0.901 1.221,1.52 z"
   id="path6116"
   inkscape:connector-curvature="0"
   style="fill:#f5952f" />
	<path
   d="m 170.563,77.872 1.588,0.399 -3.957,9.702 5.984,-2.955 2.26,0.569 -6.305,3.025 3.051,6.289 -2.342,-0.589 -2.771,-6.024 -1.953,4.836 -1.588,-0.4 z"
   id="path6118"
   inkscape:connector-curvature="0"
   style="fill:#f5952f" />
</g>
<g
   id="g6152"
   transform="translate(44.416284,-3.8951098)">
	<path
   d="m 32.16,84.729 c 0.052,0.272 0.157,0.509 0.318,0.711 0.161,0.201 0.353,0.362 0.576,0.485 0.223,0.122 0.471,0.201 0.741,0.241 0.271,0.04 0.544,0.034 0.815,-0.018 0.369,-0.069 0.674,-0.215 0.913,-0.438 0.241,-0.222 0.447,-0.496 0.624,-0.82 l 1.025,0.516 c -0.498,0.977 -1.34,1.577 -2.526,1.801 -0.491,0.093 -0.953,0.093 -1.385,0.002 -0.431,-0.091 -0.812,-0.257 -1.146,-0.5 -0.332,-0.243 -0.61,-0.548 -0.835,-0.92 -0.225,-0.371 -0.382,-0.79 -0.47,-1.255 -0.088,-0.465 -0.088,-0.913 -10e-4,-1.344 0.087,-0.43 0.246,-0.82 0.476,-1.167 0.229,-0.349 0.526,-0.644 0.891,-0.885 0.363,-0.242 0.777,-0.406 1.244,-0.494 0.553,-0.104 1.039,-0.096 1.458,0.024 0.418,0.121 0.779,0.314 1.085,0.58 0.305,0.265 0.549,0.584 0.732,0.954 0.184,0.37 0.313,0.757 0.39,1.162 l 0.08,0.421 z m 3.562,-1.656 c -0.059,-0.262 -0.146,-0.495 -0.262,-0.701 -0.117,-0.205 -0.265,-0.375 -0.444,-0.51 -0.181,-0.134 -0.391,-0.227 -0.632,-0.276 -0.242,-0.05 -0.512,-0.047 -0.811,0.009 -0.29,0.055 -0.545,0.161 -0.767,0.316 -0.221,0.156 -0.397,0.336 -0.531,0.543 -0.134,0.208 -0.227,0.427 -0.278,0.659 -0.051,0.233 -0.057,0.455 -0.017,0.666 z"
   id="path6122"
   inkscape:connector-curvature="0"
   style="fill:#010101" />
	<path
   d="M 38.574,80.897 37.229,81.151 37.035,80.124 38.38,79.87 38.115,78.473 C 37.958,77.639 38,76.987 38.244,76.518 38.487,76.049 39,75.741 39.782,75.593 c 0.132,-0.025 0.271,-0.047 0.417,-0.065 0.146,-0.018 0.308,-0.022 0.483,-0.009 l 0.067,1.079 c -0.122,-0.021 -0.238,-0.031 -0.348,-0.03 -0.108,0.002 -0.225,0.015 -0.347,0.039 -0.22,0.041 -0.39,0.107 -0.509,0.199 -0.119,0.089 -0.205,0.205 -0.256,0.341 -0.052,0.137 -0.072,0.294 -0.062,0.469 0.011,0.175 0.037,0.374 0.079,0.593 l 0.271,1.437 1.409,-0.267 0.194,1.027 -1.423,0.269 0.985,5.218 -1.186,0.224 z"
   id="path6124"
   inkscape:connector-curvature="0"
   style="fill:#010101" />
	<path
   d="m 42.724,80.113 -1.346,0.254 -0.193,-1.027 1.345,-0.254 -0.265,-1.397 c -0.157,-0.834 -0.115,-1.486 0.129,-1.955 0.243,-0.469 0.756,-0.777 1.537,-0.924 0.133,-0.025 0.271,-0.047 0.418,-0.066 0.146,-0.018 0.308,-0.021 0.482,-0.009 l 0.068,1.079 c -0.123,-0.021 -0.238,-0.031 -0.348,-0.029 -0.108,0.002 -0.225,0.015 -0.347,0.038 -0.22,0.042 -0.39,0.108 -0.509,0.199 -0.12,0.089 -0.205,0.205 -0.256,0.341 -0.052,0.137 -0.072,0.293 -0.062,0.469 0.011,0.175 0.037,0.373 0.078,0.593 l 0.271,1.437 1.41,-0.266 0.193,1.027 -1.419,0.267 0.985,5.218 -1.186,0.224 z"
   id="path6126"
   inkscape:connector-curvature="0"
   style="fill:#010101" />
	<path
   d="m 46.743,81.523 c -0.087,-0.456 -0.082,-0.898 0.015,-1.327 0.098,-0.427 0.267,-0.819 0.509,-1.174 0.242,-0.354 0.549,-0.656 0.921,-0.903 0.372,-0.249 0.791,-0.416 1.256,-0.503 0.465,-0.087 0.917,-0.085 1.354,0.011 0.436,0.094 0.832,0.263 1.188,0.505 0.354,0.242 0.655,0.545 0.9,0.908 0.246,0.363 0.412,0.774 0.499,1.23 0.086,0.457 0.081,0.901 -0.015,1.333 -0.096,0.432 -0.265,0.824 -0.508,1.173 -0.243,0.351 -0.551,0.651 -0.922,0.898 -0.372,0.247 -0.791,0.415 -1.257,0.503 -0.465,0.088 -0.916,0.084 -1.353,-0.01 -0.437,-0.095 -0.832,-0.262 -1.187,-0.5 -0.354,-0.236 -0.654,-0.54 -0.901,-0.907 -0.247,-0.367 -0.413,-0.78 -0.499,-1.237 z m 1.264,-0.238 c 0.06,0.316 0.163,0.6 0.311,0.849 0.146,0.25 0.326,0.452 0.538,0.608 0.211,0.156 0.454,0.264 0.729,0.327 0.275,0.061 0.572,0.062 0.888,0.002 0.316,-0.06 0.591,-0.168 0.825,-0.326 0.234,-0.159 0.421,-0.348 0.562,-0.57 0.141,-0.222 0.232,-0.476 0.279,-0.763 0.046,-0.286 0.039,-0.587 -0.021,-0.903 -0.061,-0.316 -0.164,-0.599 -0.311,-0.849 -0.147,-0.25 -0.326,-0.452 -0.538,-0.607 -0.212,-0.156 -0.455,-0.265 -0.73,-0.326 -0.275,-0.062 -0.571,-0.063 -0.888,-0.003 -0.315,0.06 -0.591,0.168 -0.825,0.327 -0.233,0.157 -0.421,0.347 -0.561,0.57 -0.141,0.222 -0.233,0.476 -0.279,0.762 -0.045,0.284 -0.038,0.585 0.021,0.902 z"
   id="path6128"
   inkscape:connector-curvature="0"
   style="fill:#010101" />
	<path
   d="m 54.282,76.866 1.187,-0.224 0.182,0.961 0.026,-0.005 c 0.047,-0.182 0.124,-0.353 0.23,-0.514 0.105,-0.162 0.23,-0.306 0.375,-0.433 0.145,-0.126 0.308,-0.237 0.49,-0.332 0.183,-0.093 0.37,-0.158 0.563,-0.194 0.193,-0.036 0.374,-0.044 0.542,-0.021 l 0.188,1.289 c -0.102,-0.007 -0.202,-0.012 -0.302,-0.012 -0.101,0.001 -0.198,0.011 -0.295,0.029 -0.58,0.109 -0.993,0.355 -1.239,0.738 -0.246,0.384 -0.305,0.917 -0.175,1.603 l 0.593,3.136 -1.187,0.224 z"
   id="path6130"
   inkscape:connector-curvature="0"
   style="fill:#010101" />
	<path
   d="m 62.698,76.34 -1.7,0.321 0.535,2.833 c 0.033,0.176 0.07,0.349 0.111,0.518 0.042,0.169 0.104,0.317 0.187,0.442 0.083,0.126 0.191,0.219 0.325,0.28 0.135,0.062 0.316,0.069 0.545,0.026 0.14,-0.026 0.282,-0.066 0.428,-0.121 0.144,-0.055 0.271,-0.128 0.38,-0.223 l 0.204,1.081 c -0.125,0.104 -0.297,0.195 -0.516,0.269 -0.218,0.072 -0.389,0.121 -0.511,0.144 -0.458,0.086 -0.823,0.088 -1.098,0.009 -0.275,-0.079 -0.489,-0.21 -0.646,-0.39 -0.157,-0.18 -0.27,-0.392 -0.339,-0.638 -0.069,-0.247 -0.128,-0.497 -0.176,-0.752 l -0.615,-3.254 -1.369,0.259 -0.194,-1.027 1.37,-0.259 -0.331,-1.753 1.186,-0.224 0.331,1.753 1.699,-0.321 z"
   id="path6132"
   inkscape:connector-curvature="0"
   style="fill:#010101" />
	<path
   d="m 37.561,99.888 -1.7,0.321 0.535,2.832 c 0.033,0.176 0.07,0.349 0.112,0.518 0.041,0.17 0.103,0.317 0.186,0.443 0.082,0.125 0.191,0.218 0.326,0.279 0.134,0.061 0.314,0.069 0.543,0.025 0.141,-0.026 0.284,-0.065 0.428,-0.121 0.145,-0.055 0.271,-0.128 0.381,-0.222 l 0.204,1.08 c -0.125,0.105 -0.297,0.196 -0.516,0.269 -0.218,0.073 -0.389,0.121 -0.512,0.145 -0.457,0.086 -0.822,0.088 -1.097,0.01 -0.274,-0.081 -0.489,-0.211 -0.646,-0.39 -0.157,-0.181 -0.27,-0.394 -0.339,-0.639 -0.069,-0.247 -0.128,-0.497 -0.176,-0.752 l -0.615,-3.254 -1.37,0.259 -0.194,-1.028 1.371,-0.259 -0.332,-1.753 1.186,-0.224 0.332,1.753 1.699,-0.321 z"
   id="path6134"
   inkscape:connector-curvature="0"
   style="fill:#010101" />
	<path
   d="m 38.288,96.365 c -0.045,-0.237 0.002,-0.458 0.142,-0.661 0.139,-0.204 0.326,-0.328 0.563,-0.372 0.237,-0.045 0.458,0.001 0.661,0.141 0.204,0.139 0.328,0.326 0.373,0.563 0.045,0.237 -0.002,0.458 -0.142,0.662 -0.139,0.203 -0.326,0.328 -0.563,0.373 -0.237,0.045 -0.458,-0.003 -0.661,-0.142 -0.204,-0.139 -0.328,-0.326 -0.373,-0.564 z m 0.7,2.188 1.186,-0.224 1.18,6.245 -1.186,0.224 z"
   id="path6136"
   inkscape:connector-curvature="0"
   style="fill:#010101" />
	<path
   d="m 42.057,97.974 1.106,-0.209 0.185,0.975 0.026,-0.005 c 0.01,-0.094 0.057,-0.216 0.143,-0.368 0.084,-0.152 0.201,-0.305 0.351,-0.456 0.148,-0.151 0.331,-0.29 0.548,-0.417 0.218,-0.128 0.467,-0.217 0.747,-0.271 0.466,-0.088 0.875,-0.065 1.228,0.068 0.353,0.133 0.667,0.374 0.942,0.723 0.129,-0.425 0.359,-0.769 0.692,-1.031 0.332,-0.263 0.687,-0.43 1.064,-0.501 0.483,-0.092 0.894,-0.087 1.23,0.013 0.338,0.101 0.618,0.263 0.844,0.488 0.225,0.227 0.4,0.498 0.529,0.814 0.128,0.317 0.225,0.651 0.291,1.003 l 0.687,3.637 -1.186,0.224 -0.657,-3.479 C 50.782,98.945 50.724,98.72 50.652,98.506 50.58,98.291 50.479,98.11 50.351,97.962 c -0.129,-0.148 -0.29,-0.258 -0.484,-0.325 -0.195,-0.067 -0.438,-0.074 -0.728,-0.02 -0.57,0.108 -0.946,0.361 -1.126,0.758 -0.179,0.399 -0.217,0.874 -0.112,1.429 l 0.645,3.412 -1.186,0.224 -0.617,-3.268 c -0.056,-0.298 -0.123,-0.567 -0.2,-0.809 -0.078,-0.239 -0.179,-0.441 -0.306,-0.603 -0.126,-0.164 -0.284,-0.28 -0.475,-0.349 -0.191,-0.069 -0.431,-0.075 -0.721,-0.021 -0.211,0.039 -0.406,0.12 -0.589,0.241 -0.182,0.12 -0.331,0.278 -0.449,0.474 -0.118,0.196 -0.196,0.431 -0.235,0.706 -0.039,0.276 -0.025,0.589 0.041,0.94 l 0.612,3.241 -1.186,0.225 z"
   id="path6138"
   inkscape:connector-curvature="0"
   style="fill:#010101" />
	<path
   d="m 54.851,99.241 c 0.052,0.272 0.157,0.508 0.319,0.711 0.16,0.201 0.352,0.363 0.575,0.484 0.223,0.122 0.471,0.202 0.741,0.241 0.271,0.041 0.544,0.035 0.816,-0.017 0.368,-0.069 0.673,-0.216 0.913,-0.438 0.24,-0.222 0.447,-0.496 0.623,-0.82 l 1.024,0.515 c -0.497,0.978 -1.339,1.577 -2.525,1.802 -0.491,0.093 -0.953,0.094 -1.384,0.002 -0.433,-0.091 -0.813,-0.258 -1.146,-0.5 -0.333,-0.242 -0.611,-0.548 -0.836,-0.921 -0.225,-0.371 -0.382,-0.789 -0.47,-1.254 C 53.413,98.58 53.413,98.132 53.5,97.7 c 0.087,-0.43 0.245,-0.818 0.476,-1.166 0.229,-0.35 0.526,-0.643 0.891,-0.885 0.363,-0.242 0.778,-0.407 1.244,-0.495 0.553,-0.104 1.039,-0.096 1.457,0.025 0.419,0.12 0.781,0.314 1.086,0.579 0.305,0.265 0.549,0.584 0.732,0.953 0.184,0.37 0.313,0.758 0.391,1.162 l 0.079,0.422 z m 3.563,-1.656 c -0.059,-0.261 -0.146,-0.495 -0.262,-0.701 -0.116,-0.205 -0.265,-0.375 -0.444,-0.51 -0.18,-0.134 -0.392,-0.226 -0.632,-0.275 -0.241,-0.051 -0.512,-0.047 -0.811,0.009 -0.29,0.055 -0.545,0.161 -0.766,0.315 -0.222,0.156 -0.398,0.337 -0.532,0.544 -0.134,0.208 -0.227,0.427 -0.278,0.66 -0.051,0.233 -0.057,0.455 -0.018,0.665 z"
   id="path6140"
   inkscape:connector-curvature="0"
   style="fill:#010101" />
	<path
   d="m 42.229,118.459 c -0.263,-0.186 -0.526,-0.316 -0.79,-0.39 -0.264,-0.072 -0.562,-0.078 -0.896,-0.015 -0.325,0.062 -0.598,0.175 -0.816,0.338 -0.22,0.165 -0.391,0.365 -0.514,0.603 -0.124,0.237 -0.201,0.498 -0.234,0.781 -0.033,0.283 -0.022,0.57 0.032,0.86 0.054,0.29 0.154,0.556 0.301,0.796 0.146,0.24 0.324,0.441 0.536,0.602 0.213,0.159 0.452,0.271 0.719,0.336 0.267,0.062 0.554,0.065 0.861,0.007 0.333,-0.062 0.607,-0.175 0.822,-0.339 0.215,-0.164 0.402,-0.379 0.561,-0.646 l 1.003,0.684 c -0.243,0.401 -0.554,0.715 -0.935,0.941 -0.38,0.227 -0.799,0.383 -1.256,0.47 -0.482,0.091 -0.939,0.095 -1.368,0.013 -0.43,-0.083 -0.816,-0.239 -1.16,-0.471 -0.344,-0.23 -0.632,-0.531 -0.866,-0.9 -0.233,-0.37 -0.396,-0.796 -0.487,-1.279 -0.091,-0.483 -0.096,-0.942 -0.015,-1.376 0.082,-0.434 0.238,-0.823 0.469,-1.167 0.231,-0.343 0.531,-0.634 0.9,-0.872 0.369,-0.238 0.799,-0.403 1.291,-0.496 0.457,-0.087 0.908,-0.088 1.357,-0.004 0.447,0.084 0.856,0.263 1.227,0.538 z"
   id="path6142"
   inkscape:connector-curvature="0"
   style="fill:#010101" />
	<path
   d="m 44.086,119.623 c -0.086,-0.457 -0.081,-0.898 0.016,-1.326 0.096,-0.428 0.266,-0.819 0.508,-1.175 0.242,-0.354 0.55,-0.655 0.921,-0.902 0.371,-0.249 0.791,-0.417 1.256,-0.505 0.466,-0.088 0.917,-0.084 1.354,0.012 0.437,0.095 0.832,0.263 1.187,0.505 0.355,0.242 0.656,0.545 0.902,0.908 0.246,0.363 0.412,0.772 0.498,1.229 0.086,0.457 0.082,0.901 -0.015,1.334 -0.096,0.432 -0.265,0.822 -0.508,1.173 -0.243,0.352 -0.551,0.65 -0.922,0.897 -0.372,0.248 -0.791,0.416 -1.256,0.504 -0.466,0.088 -0.918,0.084 -1.354,-0.011 -0.437,-0.095 -0.832,-0.261 -1.187,-0.5 -0.354,-0.237 -0.654,-0.539 -0.901,-0.906 -0.246,-0.368 -0.413,-0.78 -0.499,-1.237 z m 1.265,-0.238 c 0.06,0.315 0.163,0.599 0.311,0.849 0.146,0.249 0.326,0.452 0.537,0.608 0.212,0.155 0.455,0.264 0.731,0.326 0.275,0.062 0.57,0.062 0.887,0.002 0.317,-0.06 0.592,-0.168 0.826,-0.325 0.233,-0.159 0.421,-0.349 0.561,-0.57 0.14,-0.223 0.232,-0.478 0.279,-0.763 0.046,-0.286 0.038,-0.588 -0.021,-0.903 -0.061,-0.316 -0.164,-0.6 -0.311,-0.849 -0.147,-0.25 -0.326,-0.452 -0.538,-0.608 -0.212,-0.155 -0.455,-0.266 -0.73,-0.326 -0.275,-0.062 -0.571,-0.063 -0.888,-0.004 -0.317,0.059 -0.591,0.169 -0.825,0.327 -0.234,0.157 -0.421,0.349 -0.562,0.57 -0.139,0.223 -0.232,0.477 -0.278,0.763 -0.046,0.285 -0.038,0.586 0.021,0.903 z"
   id="path6144"
   inkscape:connector-curvature="0"
   style="fill:#010101" />
	<path
   d="m 55.243,115.906 c -0.174,-0.149 -0.375,-0.265 -0.604,-0.344 -0.229,-0.08 -0.492,-0.092 -0.791,-0.035 -0.281,0.053 -0.514,0.159 -0.697,0.316 -0.185,0.157 -0.255,0.351 -0.212,0.579 0.035,0.184 0.123,0.323 0.263,0.415 0.141,0.092 0.299,0.157 0.475,0.196 0.176,0.04 0.358,0.059 0.55,0.061 0.191,0 0.354,0.001 0.491,0.002 0.267,0.014 0.521,0.043 0.761,0.088 0.241,0.046 0.456,0.123 0.645,0.233 0.189,0.109 0.349,0.257 0.479,0.442 0.13,0.185 0.223,0.421 0.277,0.711 0.066,0.352 0.049,0.667 -0.054,0.945 -0.102,0.277 -0.257,0.52 -0.464,0.723 -0.207,0.203 -0.455,0.368 -0.745,0.495 -0.29,0.127 -0.589,0.221 -0.896,0.278 -0.519,0.099 -0.987,0.104 -1.408,0.021 -0.421,-0.083 -0.824,-0.309 -1.212,-0.672 l 0.757,-0.907 c 0.229,0.157 0.478,0.287 0.743,0.393 0.265,0.104 0.568,0.124 0.911,0.059 0.149,-0.027 0.298,-0.071 0.446,-0.132 0.147,-0.06 0.274,-0.134 0.381,-0.222 0.107,-0.088 0.188,-0.189 0.242,-0.305 0.057,-0.116 0.072,-0.238 0.047,-0.37 -0.033,-0.176 -0.116,-0.312 -0.247,-0.404 -0.132,-0.093 -0.28,-0.157 -0.446,-0.195 -0.167,-0.037 -0.339,-0.06 -0.518,-0.066 -0.179,-0.006 -0.336,-0.011 -0.474,-0.014 -0.267,-0.012 -0.521,-0.037 -0.764,-0.073 -0.244,-0.035 -0.466,-0.103 -0.667,-0.201 -0.199,-0.099 -0.372,-0.239 -0.516,-0.422 -0.144,-0.181 -0.243,-0.422 -0.3,-0.72 -0.062,-0.326 -0.047,-0.621 0.044,-0.89 0.09,-0.268 0.232,-0.501 0.427,-0.701 0.195,-0.2 0.427,-0.367 0.697,-0.501 0.271,-0.132 0.551,-0.227 0.84,-0.281 0.422,-0.079 0.841,-0.077 1.258,0.009 0.416,0.085 0.773,0.289 1.071,0.616 z"
   id="path6146"
   inkscape:connector-curvature="0"
   style="fill:#010101" />
	<path
   d="m 61.017,114.256 -1.7,0.321 0.535,2.833 c 0.033,0.175 0.07,0.348 0.112,0.517 0.041,0.171 0.103,0.317 0.186,0.443 0.082,0.125 0.191,0.218 0.326,0.279 0.134,0.061 0.314,0.07 0.543,0.027 0.141,-0.027 0.283,-0.067 0.428,-0.123 0.145,-0.053 0.271,-0.127 0.381,-0.222 l 0.204,1.08 c -0.126,0.106 -0.297,0.196 -0.516,0.269 -0.218,0.074 -0.389,0.122 -0.511,0.146 -0.458,0.086 -0.823,0.089 -1.098,0.009 -0.275,-0.08 -0.49,-0.211 -0.646,-0.39 -0.157,-0.18 -0.27,-0.392 -0.339,-0.639 -0.069,-0.246 -0.128,-0.497 -0.176,-0.752 l -0.615,-3.254 -1.37,0.259 -0.193,-1.027 1.369,-0.259 -0.331,-1.754 1.186,-0.224 0.331,1.754 1.701,-0.321 z"
   id="path6148"
   inkscape:connector-curvature="0"
   style="fill:#010101" />
	<path
   d="m 65.968,113.88 c -0.174,-0.149 -0.376,-0.264 -0.604,-0.343 -0.229,-0.08 -0.493,-0.092 -0.791,-0.036 -0.281,0.054 -0.514,0.159 -0.697,0.317 -0.185,0.157 -0.255,0.351 -0.212,0.579 0.035,0.184 0.123,0.322 0.263,0.414 0.14,0.092 0.298,0.157 0.474,0.197 0.176,0.039 0.359,0.059 0.551,0.06 0.191,0 0.355,0.002 0.491,0.002 0.267,0.014 0.52,0.044 0.761,0.089 0.24,0.045 0.455,0.123 0.645,0.232 0.188,0.11 0.349,0.257 0.479,0.442 0.131,0.185 0.224,0.422 0.278,0.712 0.066,0.352 0.048,0.666 -0.054,0.944 -0.102,0.278 -0.257,0.52 -0.464,0.723 -0.207,0.203 -0.455,0.368 -0.745,0.496 -0.29,0.126 -0.589,0.22 -0.896,0.278 -0.518,0.098 -0.987,0.104 -1.408,0.021 -0.421,-0.085 -0.824,-0.309 -1.212,-0.673 l 0.757,-0.907 c 0.229,0.158 0.478,0.287 0.742,0.393 0.266,0.104 0.569,0.124 0.912,0.06 0.149,-0.028 0.298,-0.071 0.446,-0.133 0.147,-0.06 0.274,-0.133 0.381,-0.222 0.105,-0.088 0.188,-0.189 0.242,-0.305 0.056,-0.116 0.071,-0.238 0.047,-0.37 -0.033,-0.176 -0.116,-0.311 -0.248,-0.404 -0.131,-0.092 -0.279,-0.157 -0.445,-0.194 -0.167,-0.038 -0.339,-0.06 -0.518,-0.066 -0.179,-0.008 -0.336,-0.012 -0.474,-0.014 -0.266,-0.013 -0.521,-0.037 -0.764,-0.074 -0.244,-0.035 -0.467,-0.103 -0.666,-0.201 -0.201,-0.099 -0.373,-0.239 -0.517,-0.421 -0.144,-0.182 -0.243,-0.423 -0.3,-0.721 -0.062,-0.326 -0.047,-0.621 0.043,-0.889 0.091,-0.268 0.233,-0.501 0.428,-0.702 0.194,-0.2 0.426,-0.366 0.697,-0.501 0.27,-0.132 0.55,-0.226 0.84,-0.28 0.422,-0.08 0.841,-0.077 1.258,0.008 0.416,0.085 0.773,0.29 1.071,0.617 z"
   id="path6150"
   inkscape:connector-curvature="0"
   style="fill:#010101" />
</g>
</svg>