<svg id="analytiQs" xmlns="http://www.w3.org/2000/svg" viewBox="0 0 407.28 126.67"><defs><style>.cls-1{fill:#fff;}.cls-2{fill:#f7941e;}</style></defs><title>analytiQs</title><path d="M54.79,47.51a20.5,20.5,0,0,0-14.66,5.9L39,54.52,42.84,58l1-1a15.11,15.11,0,0,1,10.94-4.31c4.44,0,9.18,2.76,9.57,10.41a20.18,20.18,0,0,0-11.42-3.49c-9.8,0-17.19,6.85-17.19,15.93s7.39,16.08,17.19,16.08a21.12,21.12,0,0,0,11.45-3.07v2.33h5.22V64.18C69.61,52.67,62.17,47.51,54.79,47.51Zm9.6,34.59-1.63,1.24a16.16,16.16,0,0,1-9.82,3.1c-5.8,0-12-3.81-12-10.86s6-10.71,12-10.71a14.81,14.81,0,0,1,9.76,3.42l1.69,1.43Z"/><path d="M112.56,58.41c-2.49-6.72-8.9-10.89-16.72-10.89a23.29,23.29,0,0,0-11,2.77v-2H79.61V90.93h5.22V56.34l1.52-.94a18.35,18.35,0,0,1,9.49-2.66c6,0,12.48,4,12.48,11.38V90.93h5.22V64.12A14.19,14.19,0,0,0,112.56,58.41Z"/><path d="M141.58,47.51a20.5,20.5,0,0,0-14.65,5.9l-1.16,1.11L129.63,58l1-1a15.11,15.11,0,0,1,10.94-4.31c4.45,0,9.18,2.76,9.58,10.41a20.21,20.21,0,0,0-11.43-3.49c-9.8,0-17.19,6.85-17.19,15.93s7.39,16.08,17.19,16.08a21.07,21.07,0,0,0,11.45-3.07v2.33h5.22V64.18C156.4,52.67,149,47.51,141.58,47.51Zm9.6,34.59-1.63,1.24a16.14,16.14,0,0,1-9.82,3.1c-5.8,0-12-3.81-12-10.86s6-10.71,12-10.71a14.79,14.79,0,0,1,9.76,3.42l1.69,1.43Z"/><rect x="167.4" y="21.84" width="5.22" height="69.09"/><path d="M212.19,48.19V82.26l-1.66,1.35a13.63,13.63,0,0,1-9.35,3.51c-6.06,0-12.34-4.26-12.34-11.38V48.19h-5.22v27.4c0,10.49,9,16.75,17.64,16.75A19.44,19.44,0,0,0,212.19,89V93.8c0,6.65-4.12,13.52-11,13.52-2.89,0-5.65-1.31-8.42-4l-1.12-1.08-3.49,3.84,1,1c3.72,3.63,7.75,5.46,12,5.46,10.16,0,16.23-9.53,16.23-18.74V48.19Z"/><path d="M248.78,85.49l-1.46.16a14.56,14.56,0,0,1-1.54.06c-6.24,0-9.82-3.74-9.82-10.26v-22h11.69V48.19H236V35.32h-5.22V48.19h-3.33v5.22h3.33v22c0,9.55,5.76,15.48,15,15.48a20.79,20.79,0,0,0,2.17-.08l1.52-.17Z"/><rect x="259.96" y="48.26" width="5.22" height="42.67"/><rect x="259.22" y="36.12" width="6.7" height="6.7"/><rect x="277.48" y="35.75" width="53.74" height="55.16" rx="4.5"/><path class="cls-1" d="M324.69,63.33A20.22,20.22,0,0,1,321,75l-2.67-2.67A16.64,16.64,0,0,0,305.16,46.7V43a20.32,20.32,0,0,1,19.53,20.34Z"/><path class="cls-2" d="M320.37,76.62l-.16-.17-.16-.17-2.64-2.63h0l-.16-.17-.17-.16h0l-2.23-2.22-3-3,5.8-1.21-12.53-3.36-.8-.21.8,3,2.76,10.36,1.22-5.81,5.19,5.19.17.17.17.17A16.58,16.58,0,0,1,305.16,80v3.72A20.35,20.35,0,0,0,317.31,79l.17.16.17.16,4.6,4.62L325,81.23l-4.62-4.61Z"/><path class="cls-1" d="M303.56,80v3.72a20.36,20.36,0,0,1,0-40.68V46.7a16.64,16.64,0,0,0,0,33.25Z"/><path d="M357,67.22c-.76-.13-3.26-.73-4.48-1-3.5-.86-7.67-2.56-7.67-5.8,0-4.21,4.82-7.38,11.72-7.7A15,15,0,0,1,366,56.52l1,.91,3.88-3.5-1.25-1.11a22.38,22.38,0,0,0-10.42-5.08,17.79,17.79,0,0,0-3.21-.26c-9.67.55-16.42,5.86-16.42,12.91,0,5,4,8.85,11.21,10.76.95.25,4.12,1,5.36,1.25,3.79.65,10.15,2.33,10.15,6.29,0,4.38-5.05,7.55-12.23,7.73a15.09,15.09,0,0,1-10.55-4.29l-1-1-3.86,3.51,1.16,1.12a20.48,20.48,0,0,0,12.67,5.8,16.79,16.79,0,0,0,1.84.05h.2c10-.37,17-5.69,17-12.93C371.54,75.3,369.65,69.32,357,67.22Z"/></svg>