<svg id="cheQ" xmlns="http://www.w3.org/2000/svg" viewBox="0 0 258.61 126.67"><defs><style>.cls-1{fill:#fff;}.cls-2{fill:#f7941e;}</style></defs><title>cheQ</title><path d="M66.79,85.94c-1.57.15-3.07.22-4.45.22C47.66,86.16,41,77.54,41,69.53s6.69-16.71,21.37-16.71c1.38,0,2.88.08,4.45.22l1.53.14L68.67,48l-1.46-.13c-1.69-.15-3.28-.23-4.87-.23C44.07,47.6,35.75,59,35.75,69.53s8.32,21.85,26.59,21.85c1.58,0,3.18-.08,4.87-.23L68.67,91l-.35-5.22Z"/><path d="M94.65,47.51a23.38,23.38,0,0,0-10.84,2.77h0V21.83H78.57V90.92h5.22V56.34l1.52-1a17.74,17.74,0,0,1,9.27-2.66c5.73,0,10.18,2.82,11.92,7.55a10.19,10.19,0,0,1,.71,4V90.92h5.22V64.11a15.11,15.11,0,0,0-1.05-5.7C108.86,51.58,102.6,47.51,94.65,47.51Z"/><path d="M158.62,69.32v-1.5c0-12-7.26-20.14-18.07-20.14-7.68,0-19.12,5.83-19.12,21.92,0,10.82,9.11,21.78,26.52,21.78,1.56,0,3.24-.15,4.87-.3l1.36-.13V85.71l-1.64.16c-1.49.14-3,.29-4.37.29-14.78,0-21.52-8.58-21.52-16.56,0-.09,0-.18,0-.28ZM140.55,52.9c7.85,0,11.91,6.22,12.6,11.21H127.3C129.35,56,135.9,52.9,140.55,52.9Z"/><rect x="169.12" y="35.75" width="53.74" height="55.16" rx="4.5"/><path class="cls-1" d="M216.34,63.33A20.21,20.21,0,0,1,212.66,75L210,72.33A16.65,16.65,0,0,0,196.8,46.7V43a20.34,20.34,0,0,1,19.54,20.34Z"/><path class="cls-2" d="M212,76.62l-.16-.17-.16-.17-2.64-2.63h0l-.16-.17-.17-.16h0l-2.23-2.22-3-3,5.8-1.21L196.8,63.54l-.8-.21.8,3,2.77,10.36,1.22-5.81L206,76.05l.16.17.18.17A16.61,16.61,0,0,1,196.8,80v3.72A20.33,20.33,0,0,0,209,79l.17.16.17.16,4.6,4.62,2.74-2.74L212,76.62Z"/><path class="cls-1" d="M195.2,80v3.72a20.36,20.36,0,0,1,0-40.68V46.7a16.64,16.64,0,0,0,0,33.25Z"/></svg>
