<?xml version="1.0" encoding="utf-8"?>
<!-- Generator: Adobe Illustrator 16.0.0, SVG Export Plug-In . SVG Version: 6.00 Build 0)  -->
<!DOCTYPE svg PUBLIC "-//W3C//DTD SVG 1.1//EN" "http://www.w3.org/Graphics/SVG/1.1/DTD/svg11.dtd">
<svg version="1.1" id="Ebene_2_1_" xmlns="http://www.w3.org/2000/svg" xmlns:xlink="http://www.w3.org/1999/xlink" x="0px" y="0px"
	 width="731px" height="804.899px" viewBox="0 0 731 804.899" enable-background="new 0 0 731 804.899" xml:space="preserve">
<g id="Ebene_2_2_">
	<path d="M107.373,300.108c0,0-15.851-62.045-23.579-70.494c-4.695-1.55-14.365,4.126-24.001,9.335
		c-9.636,5.209-19.667,19.332-19.667,19.332s29.485,32.926,42.041,53.533C91.696,303.907,104.505,300.8,107.373,300.108z"/>
	<path fill="#F7941E" d="M119.633,320.709c0,0,0.29-0.338-1.05-1.118c-1.342-0.778-1.365-1.358-0.737-1.962
		c0.628-0.604,0.751-1.116,0.067-1.957c-0.686-0.841-3.321-2.51-3.433-3.484c-0.111-0.972-0.869-2.716-2.713-2.678
		c-1.013-0.031-0.297-1.145,0.163-1.382c0,0,1.53-0.675,1.552-1.038c0.02-0.363-0.663-1.422-2.409-2.474
		c-0.789-0.548-0.666-1.097-0.21-1.475c0.456-0.381,0.818-1.282,0.223-1.647c-0.595-0.366-1.59-0.869-1.818-1.115
		c-0.229-0.243-0.522-0.414-1.353-0.345c-0.83,0.07-13.357,1.765-25.877,11.818c0,0-1.639,1.585-0.369,2.549
		c1.268,0.962,4.635,2.782,4.351,3.844c-0.284,1.062-1.681,3.215-1.042,3.842c1.178,1.362,2.614,1.089,2.858,1.768
		c0,0,0.596,0.448-0.657,1.693c-1.253,1.246,0.213,2.633,1.346,2.915c1.133,0.279,2.206,0.853,1.668,0.983
		c-0.538,0.131-1.711,4.034-0.269,4.809C92.547,332.884,107.016,326.355,119.633,320.709z"/>
	<path d="M160.545,303.46c-6.126,1.935-89.502,35.146-106.735,53.206c0,0-3.547,4.515,9.997-2.257
		c7.739-2.902,18.171-9.442,19.992-10.964c7.095-5.16,46.435-25.152,62.558-29.344C163.53,309.636,165.382,304.911,160.545,303.46z"
		/>
	<path d="M138.959,446.95c0,0-12.01-34.671-15.594-44.468c-0.965-2.639-6.083-12.008-11.406-20.532
		c-5.133-1.552-10.284-2.892-14.036,1.125c3.036-0.458,8.065,0.98,9.37,1.792c4.417,3,3.883,9.317,3.883,10.474
		c0,3.049-5.154,3.985-8.349,4.229c-2.556,0.506-4.431-0.244-9.118,0.006c-7.774,1.803-16.917,17.708-55.681,51.552
		c0,0-15.854,10.666-7.903,15.49c17.509,11.076,84.955,19.933,87.099,25.114c0,0,1.316,1.193,1.897,1.863
		c1.608,1.111,2.153-0.289,2.426-1.188c4.65-15.295,2.799-19.312,2.799-19.312s-1.403,0.529-2.68,2.01
		c-3.618,9.514-4.469,3.637-5.129,3.379c-1.646-0.641-62.215-11.669-70.513-18.298c8.323-4.922,44.443-43.05,49.274-41.979
		c4.833,1.072,26.22,39.285,27.743,52.355c1.083,6.223,3.917,10.139-13.583,51.389c0,0-12,24.98-8,87.98c1.415,3,9-43,9-43
		S95.507,769.366,92.167,774.973c-0.454,1.307,4.458,1.713,3.432,3.311c-10.987,11.523-16.14,5.666-20.14,19.166c0,0,2.5,10.5,36-2
		c0,0-0.168-6.834-3.5-9.5c-6.5-5.5-0.167-7.666-0.167-7.666l0,0c6.31-16.115,14.207-189.291,17.667-206.354
		c0,0,5.637,35.346,7.5,32.5c1.254-1.915,5.712-46.299,6-47.5c0,0,14.002,41,18.226,63.807
		c3.773,19.36,28.321,153.818,28.44,155.131c1.327,1.176,4.84,3.196,2.455,6.538c-2.388,3.34-2.388,12.646-2.148,13.363
		c6.443,0.717,59.898,2.293,61.449,1.338c0.244-1.576-2.264-4.937-9.424-8.993c-7.16-4.055-27.166-7.415-40.499-8.831
		c-1.417-0.584-2.997-7.833,4.003-7.833c-9.974-36.218-50.226-241.5-50.502-252.5c0,0-2.641-22.672-3-31.5
		c-0.083-6.807-0.126-11.414,0.232-17.975c0,0,7.838-50.34,7.001-59.768c3.816-2.863,22.312-7.158,45.461-7.637
		c18.583-0.982,24.938-2.267,24.938-2.267s61.339-35.7,63.487-38.799c-1.551-1.074-4.297-3.579-2.865-4.653
		c1.434-1.074,5.609-2.864,5.609-2.864s4.057,1.551,5.486,1.313c1.432-0.239,33.229-15.393,37.467-19.093
		c0.357-2.027,0.119-4.057,2.744-5.487c2.029-1.193,1.191-6.92,0.479-7.757c0,0-1.908-1.551-7.756-0.597
		c-2.854,0.754-18.494,8.233-18.494,8.233s-10.621,5.753-12.289,5.515c-1.672-0.239-2.434,0.378,0.431-5.23
		c0.756-1.352,1.019-0.976,5.235-4.768c3.406-3.495,6.786-7.14,6.667-9.333c0,0-1.401-0.315-3.667,1
		c-2.268,1.312-12.055,7.152-13.725,8.463c-1.669,1.312-4.965,14.495-5.443,19.506c0,2.863-6.443,6.728-6.443,6.728l-0.982-0.358
		c0,0-5.951,3.578-17.361,12.125c-11.41,8.546-29.897,20.998-39.384,23.099c-5.952,1.656-6.176,1.074-11.276,1.611
		c0,0-13.541,1.333-24.592,0.574c-5.952-0.134-15.173-1.559-15.173-1.559s-1.074-0.356-2.282-0.804
		c-1.208-0.446-8.731-3.622-20.323,0.269c-2.371,0.672-3.483,0.859-5.014,0.095c-1.303-1.486-6.833-4.25,0.25-13.333
		c-3.833,0.5-5.667,0.583-7.167,1.417c-1.917,1.833-2.849,3.067-3.25,6.333c-0.083,3.5,2.472,7.099,3.143,9.783
		c0.673,2.688,6.357,19.717,0.357,51.717"/>
</g>
<path fill="none" stroke="#0094AC" stroke-width="2" stroke-linecap="round" stroke-linejoin="round" stroke-miterlimit="10" d="
	M123.636,496.62l-8.445,21.883l3.508,0.701l9.2-23.041c0,0-1.585-1.381-2.487,0.268c-0.901,1.646-8.325,21.152-8.325,21.152"/>
<polyline fill="none" stroke="#0094AC" stroke-width="2" stroke-linecap="round" stroke-linejoin="round" stroke-miterlimit="10" points="
	135.533,474.165 140.322,462.909 141.215,455.047 135.533,462.014 131.784,471.383 133.533,473.094 138.71,459.733 "/>
</svg>
