<?xml version="1.0" encoding="utf-8"?>
<!-- Generator: Adobe Illustrator 16.0.0, SVG Export Plug-In . SVG Version: 6.00 Build 0)  -->
<!DOCTYPE svg PUBLIC "-//W3C//DTD SVG 1.1//EN" "http://www.w3.org/Graphics/SVG/1.1/DTD/svg11.dtd">
<svg version="1.1" id="Ebene_1" xmlns="http://www.w3.org/2000/svg" xmlns:xlink="http://www.w3.org/1999/xlink" x="0px" y="0px"
	 width="1769.918px" height="804.899px" viewBox="0 0 1769.918 804.899" enable-background="new 0 0 1769.918 804.899"
	 xml:space="preserve">
<g id="Ebene_2">
	<path d="M259.373,301.108c0,0-15.851-62.045-23.579-70.494c-4.695-1.55-14.365,4.126-24.001,9.335
		c-9.636,5.209-19.667,19.332-19.667,19.332s29.485,32.926,42.041,53.533C243.696,304.907,256.505,301.8,259.373,301.108z"/>
	<path fill="#F7941E" d="M271.633,321.709c0,0,0.29-0.338-1.05-1.118c-1.342-0.778-1.365-1.358-0.737-1.962
		c0.628-0.604,0.751-1.116,0.067-1.957c-0.686-0.841-3.321-2.51-3.433-3.484c-0.111-0.972-0.869-2.716-2.713-2.678
		c-1.013-0.031-0.297-1.145,0.163-1.382c0,0,1.53-0.675,1.552-1.038c0.02-0.363-0.663-1.422-2.409-2.474
		c-0.789-0.548-0.666-1.097-0.21-1.475c0.456-0.381,0.818-1.282,0.223-1.647c-0.595-0.366-1.59-0.869-1.818-1.115
		c-0.229-0.243-0.522-0.414-1.353-0.345c-0.83,0.07-13.357,1.765-25.877,11.818c0,0-1.639,1.585-0.369,2.549
		c1.268,0.962,4.635,2.782,4.351,3.844c-0.284,1.062-1.681,3.215-1.042,3.842c1.178,1.362,2.614,1.089,2.858,1.768
		c0,0,0.596,0.448-0.657,1.693c-1.253,1.246,0.213,2.633,1.346,2.915c1.133,0.279,2.206,0.853,1.668,0.983
		c-0.538,0.131-1.711,4.034-0.269,4.809C244.547,333.884,259.016,327.355,271.633,321.709z"/>
	<path d="M312.545,304.46c-6.126,1.935-89.502,35.146-106.735,53.206c0,0-3.547,4.515,9.997-2.257
		c7.739-2.902,18.171-9.442,19.992-10.964c7.095-5.16,46.435-25.152,62.558-29.344C315.53,310.636,317.382,305.911,312.545,304.46z"
		/>
	<path d="M290.959,447.95c0,0-12.01-34.671-15.594-44.468c-0.965-2.639-6.083-12.008-11.406-20.532
		c-5.133-1.552-10.284-2.892-14.036,1.125c3.036-0.458,8.065,0.98,9.37,1.792c4.417,3,3.883,9.317,3.883,10.474
		c0,3.049-5.154,3.985-8.349,4.229c-2.556,0.506-4.431-0.244-9.118,0.006c-7.774,1.803-16.917,17.708-55.681,51.552
		c0,0-15.854,10.666-7.903,15.49c17.509,11.076,84.955,19.933,87.099,25.114c0,0,1.316,1.193,1.897,1.863
		c1.608,1.111,2.153-0.289,2.426-1.188c4.65-15.295,2.799-19.312,2.799-19.312s-1.403,0.529-2.68,2.01
		c-3.618,9.514-4.469,3.637-5.129,3.379c-1.646-0.641-62.215-11.669-70.513-18.298c8.323-4.922,44.443-43.05,49.274-41.979
		c4.833,1.072,26.22,39.285,27.743,52.355c1.083,6.223,3.917,10.139-13.583,51.389c0,0-12,24.98-8,87.98c1.415,3,9-43,9-43
		s-14.952,202.436-18.292,208.043c-0.454,1.307,4.458,1.713,3.432,3.311c-10.987,11.523-16.14,5.666-20.14,19.166c0,0,2.5,10.5,36-2
		c0,0-0.168-6.834-3.5-9.5c-6.5-5.5-0.167-7.666-0.167-7.666l0,0c6.31-16.115,14.207-189.291,17.667-206.354
		c0,0,5.637,35.346,7.5,32.5c1.254-1.915,5.712-46.299,6-47.5c0,0,14.002,41,18.226,63.807
		c3.773,19.36,28.321,153.818,28.44,155.131c1.328,1.176,4.841,3.196,2.455,6.538c-2.387,3.34-2.387,12.646-2.148,13.363
		c6.443,0.717,59.898,2.293,61.449,1.338c0.244-1.576-2.264-4.937-9.423-8.993c-7.16-4.055-27.166-7.415-40.5-8.831
		c-1.417-0.584-2.997-7.833,4.003-7.833c-9.974-36.218-50.226-241.5-50.502-252.5c0,0-2.641-22.672-3-31.5
		c-0.083-6.807-0.126-11.414,0.232-17.975c0,0,7.838-50.34,7.001-59.768c3.816-2.863,22.312-7.158,45.461-7.637
		c18.583-0.982,24.938-2.267,24.938-2.267s61.338-35.7,63.487-38.799c-1.55-1.074-4.296-3.579-2.864-4.653
		c1.434-1.074,5.608-2.864,5.608-2.864s4.057,1.551,5.487,1.313c1.432-0.239,33.228-15.393,37.467-19.093
		c0.356-2.027,0.119-4.057,2.744-5.487c2.028-1.193,1.191-6.92,0.479-7.757c0,0-1.909-1.551-7.756-0.597
		c-2.854,0.754-18.495,8.233-18.495,8.233s-10.62,5.753-12.289,5.515c-1.671-0.239-2.433,0.378,0.431-5.23
		c0.756-1.352,1.019-0.976,5.236-4.768c3.405-3.495,6.786-7.14,6.667-9.333c0,0-1.402-0.315-3.667,1
		c-2.269,1.312-12.055,7.152-13.725,8.463c-1.669,1.312-4.965,14.495-5.443,19.506c0,2.863-6.444,6.728-6.444,6.728l-0.982-0.358
		c0,0-5.951,3.578-17.36,12.125c-11.411,8.546-29.898,20.998-39.384,23.099c-5.952,1.656-6.176,1.074-11.276,1.611
		c0,0-13.541,1.333-24.592,0.574c-5.952-0.134-15.173-1.559-15.173-1.559s-1.074-0.356-2.282-0.804
		c-1.208-0.446-8.731-3.622-20.323,0.269c-2.371,0.672-3.483,0.859-5.014,0.095c-1.303-1.486-6.833-4.25,0.25-13.333
		c-3.833,0.5-5.667,0.583-7.167,1.417c-1.917,1.833-2.849,3.067-3.25,6.333c-0.083,3.5,2.472,7.099,3.143,9.783
		c0.673,2.688,6.357,19.717,0.357,51.717"/>
</g>
<path fill="none" stroke="#0094AC" stroke-width="2" stroke-linecap="round" stroke-linejoin="round" stroke-miterlimit="10" d="
	M275.636,497.62l-8.445,21.883l3.508,0.701l9.2-23.041c0,0-1.585-1.381-2.487,0.268c-0.901,1.646-8.325,21.152-8.325,21.152"/>
<polyline fill="none" stroke="#0094AC" stroke-width="2" stroke-linecap="round" stroke-linejoin="round" stroke-miterlimit="10" points="
	287.533,475.165 292.322,463.909 293.215,456.047 287.533,463.014 283.784,472.383 285.533,474.094 290.71,460.733 "/>
<g id="Ebene_3">
	<path fill="#FFFFFF" stroke="#000000" stroke-width="2" stroke-miterlimit="10" d="M1349.333,396.882l0.781,186.064
		c0,0,196.229,61.764,213.432,75.836c3.127-27.363,32.053-273.626,29.709-286.917
		C1593.255,371.865,1389.205,385.936,1349.333,396.882z"/>
	<path d="M1436.504,618.125c0,0-60.591,134.471-72.313,160.271c-13.685,2.344-8.989-3.521-8.989-3.521l79.353-164.961l13.686,5.473
		l17.59,152.844c-6.646,4.688-10.944,1.561-10.944,1.561l-12.312-154.014c0,0,2.54,156.361,5.667,175.902
		c-4.304,4.691-11.729,0-11.729,0l0.395-177.074"/>
	<path fill="none" stroke="#000000" stroke-width="2" stroke-miterlimit="10" d="M1567.062,655.655
		c0,0,33.614-276.363,28.533-283.79"/>
</g>
<g id="Ebene_5">
	<path fill="none" stroke="#0094AC" stroke-linecap="round" stroke-linejoin="round" stroke-miterlimit="10" d="M1399.193,535.872
		c0,0-19.506,25.146-19.604,40.693c7.623,3.066,28.119,8.02,32.871,4.949c0.892-9.9-1.979-17.229,1.089-25.545
		c3.07-8.316,8.516-12.08,8.516-12.08s-8.506,11.09-8.854,17.525c-0.354,6.436,0.548,19.424,0,20.75
		c-4.137,0.246-19.855,3.904-32.729-6.096c2.731-13.668,1.882-18.318,24.65-49.705c2.182,2.871,17.13,18.02,17.427,18.311
		c0,0,0.177,1.273-0.493,0.693c-0.673-0.58-17.889-18.779-18.715-17.92c-1.285,1.336,18.469,18.365,17.623,19.107
		c-0.591,0.521-20.36-17.514-19.891-16.363c0,0-0.979-0.469,0,0.818s19.104,16.432,18.703,16.883
		c-0.938,1.041-21.25-16.812-20.297-15.248c5.594,9.156,21.64,16.475,18.762,15.889c-9.752-1.98-19.604-15.842-19.454-14.404
		c0.148,1.439,7.229,12.277,19.604,15.896"/>
	<path fill="none" stroke="#0094AC" stroke-linecap="round" stroke-linejoin="round" stroke-miterlimit="10" d="M1437.312,553.577
		c-1.049,1.031-5.013-1.812-7.029-3.25c-32.871-27.426-37.624-39.703-35.146-42.562c2.481-2.854,54.056,47.221,43.021,44.98
		c-11.03-2.236-36.894-32.414-39.521-36.23c-2.628-3.811-2.646-6.918-2.646-6.918s-0.069-3.133,1.712-1.832"/>
	<g id="Ebene_6">
		<g>
			<g>
				<path fill="#0194AC" d="M1414.104,526.67c1.539,0,1.539-2.389,0-2.389C1412.562,524.282,1412.562,526.67,1414.104,526.67
					L1414.104,526.67z"/>
			</g>
		</g>
		<g>
			<g>
				<path fill="#0194AC" d="M1420.283,514.122c1.541,0,1.541-2.389,0-2.389C1418.743,511.733,1418.743,514.122,1420.283,514.122
					L1420.283,514.122z"/>
			</g>
		</g>
		<g>
			<g>
				<path fill="#0194AC" d="M1419.885,497.004c1.54,0,1.54-2.389,0-2.389S1418.345,497.004,1419.885,497.004L1419.885,497.004z"/>
			</g>
		</g>
		<g>
			<g>
				<path fill="#0194AC" d="M1400.779,477.104c1.541,0,1.541-2.389,0-2.389C1399.239,474.715,1399.239,477.104,1400.779,477.104
					L1400.779,477.104z"/>
			</g>
		</g>
		<g>
			<g>
				<path fill="#0194AC" d="M1424.859,529.245c1.542,0,1.542-2.387,0-2.387C1423.319,526.858,1423.319,529.245,1424.859,529.245
					L1424.859,529.245z"/>
			</g>
		</g>
		<g>
			<g>
				<path fill="#0194AC" d="M1476.604,508.747c1.541,0,1.541-2.387,0-2.387S1475.062,508.747,1476.604,508.747L1476.604,508.747z"/>
			</g>
		</g>
		<g>
			<g>
				<path fill="#0194AC" d="M1451.13,521.086c1.54,0,1.54-2.389,0-2.389C1449.589,518.7,1449.589,521.086,1451.13,521.086
					L1451.13,521.086z"/>
			</g>
		</g>
		<g>
			<g>
				<path fill="#0194AC" d="M1433.417,489.045c1.54,0,1.54-2.389,0-2.389S1431.877,489.045,1433.417,489.045L1433.417,489.045z"/>
			</g>
		</g>
		<g>
			<g>
				<path fill="#0194AC" d="M1525.957,464.567c1.54,0,1.54-2.389,0-2.389S1524.417,464.567,1525.957,464.567L1525.957,464.567z"/>
			</g>
		</g>
		<g>
			<g>
				<path fill="#0194AC" d="M1514.585,419.336c1.54,0,1.54-2.387,0-2.387S1513.045,419.336,1514.585,419.336L1514.585,419.336z"/>
			</g>
		</g>
	</g>
	<polyline fill="none" stroke="#0094AC" stroke-linecap="round" stroke-linejoin="round" stroke-miterlimit="10" points="
		1414.925,528.36 1453.395,462.329 1461.752,485.936 1547.138,408.827 1540.062,408.606 1552.887,405.057 1548.243,416.565 
		1548.465,409.709 1460.47,489.743 1452.51,466.75 1414.925,530.645 	"/>
</g>
<g id="Ebene_2_1_">
</g>
</svg>
