<?xml version="1.0" encoding="utf-8"?>
<!-- Generator: Adobe Illustrator 16.0.0, SVG Export Plug-In . SVG Version: 6.00 Build 0)  -->
<!DOCTYPE svg PUBLIC "-//W3C//DTD SVG 1.1//EN" "http://www.w3.org/Graphics/SVG/1.1/DTD/svg11.dtd">
<svg version="1.1" xmlns="http://www.w3.org/2000/svg" xmlns:xlink="http://www.w3.org/1999/xlink" x="0px" y="0px" width="400px"
	 height="300px" viewBox="0 0 400 300" enable-background="new 0 0 400 300" xml:space="preserve">
<g id="Hase_links">
	<g>
		<path fill="#F9F9FA" d="M102.3,195.871c0,0,17.356-55.241,15.728-70.855c-0.058-1.673-2.182-9.298-3.833-9.787
			c-12.121-3.762-22.595,38.995-21.531,64.622c-9.023-14.042-14.884-33.594-25.872-46.661c-4.355-5.119-13.999-12.423-17.442-1.585
			c-1.327,3.679,0.495,7.75,2.071,11.33c3.748,8.591,24.953,38.75,28.488,46.441c-3.422,0.844-2.69,1-0.031,4.36
			c-3.023,1.921-6.815,2.598-9.832,4.7c-7.942,5.451-17.71,23.865-18.681,32.619c-0.57,4.562,0.722,10.422,4.821,13.371
			c3.529,2.24,7.162,2.205,10.792,2.08c-0.445,2.923-1.978,5.883-1.515,8.773c1.095,0.144,2.177-0.074,3.267-0.112
			c0.075,2.179-0.757,4.388-0.682,6.564c3.278,0.25,4.68-1.251,6.088,2.697c0.613,1.978,0.332,4.349,0.401,6.345
			c4.818-2.527,5.062-0.719,7.358,2.655c2.146-0.984,2.485-1.722,4.305-1.603c0.37,0.169,0.589,1.252,1.139,1.415
			c0.733,0.156,1.615-0.602,2.522-0.633c4.271-0.476,29.95,2.083,41.485-0.837c1.177-0.299,2.246-2.314,3.087-2.695
			c-1.282,3.678,2.678,3.904,5.587,3.985c6.728,0.132,32.348-1.113,32.345-3.839c-0.003-3.224-4.667-4.927-7.801-6.271
			c14.371-12.667,15.695-30.426,15.614-39.874c-0.212-24.656-8.693-29.542-15.342-29.558c-7.457-7.312-16.739-7.765-22.02-8.128
			c-19.91-1.767-31.62,15.623-33.354,18.046c-1.164-2.142-3.534-5.012-5.705-4.755c1.039-1.49,2.322-1.176,3.354-2.847
			C105.618,194.615,104.291,195.62,102.3,195.871"/>
	</g>
	<g>
		<path fill="#010101" d="M69.295,248.06c-0.688,0-1.372-0.018-2.049-0.055c-8.218-0.443-13.904-3.678-16.01-9.107
			c-3.745-8.678,3.471-23.502,7.811-30.123c4.828-7.048,12.688-13.022,21.039-16c0.522-0.185,1.092,0.086,1.278,0.606
			s-0.086,1.093-0.606,1.278c-7.968,2.84-15.463,8.533-20.049,15.229c-4.796,7.316-10.796,20.896-7.623,28.252
			c2.45,6.312,9.99,7.638,14.268,7.868c12.316,0.672,27.384-5.331,31.014-12.337c0.253-0.491,0.857-0.682,1.348-0.428
			s0.682,0.857,0.428,1.348C96.343,241.928,82.034,248.06,69.295,248.06z"/>
	</g>
	<g>
		<path fill="#010101" d="M81.484,274.986c-0.068,0-0.136-0.007-0.203-0.021c-0.312-0.065-0.575-0.275-0.707-0.565l-1.213-2.665
			c-1.541-1.271-3.622-0.282-5.117,0.79c-0.3,0.215-0.692,0.247-1.024,0.085c-0.331-0.163-0.545-0.494-0.558-0.863
			c-0.027-0.798,0.001-1.67,0.029-2.514c0.075-2.303,0.161-4.912-0.962-5.862c-0.575-0.484-1.557-0.593-2.925-0.315
			c-0.501,0.093-0.994-0.189-1.15-0.673c-0.71-2.195-0.233-4.394,0.587-6.496c-0.502-0.03-0.999-0.101-1.467-0.168
			c-0.608-0.087-1.185-0.167-1.664-0.153c-0.299,0.019-0.588-0.113-0.785-0.339c-0.198-0.226-0.284-0.527-0.236-0.822
			c0.31-1.885,0.63-3.828,1.74-5.829c0.268-0.483,0.875-0.657,1.359-0.391c0.483,0.269,0.658,0.877,0.39,1.359
			c-0.748,1.35-1.077,2.693-1.329,4.087c0.271,0.031,0.542,0.07,0.809,0.108c0.887,0.127,1.805,0.257,2.473,0.066
			c0.375-0.109,0.779,0.013,1.034,0.309s0.314,0.713,0.151,1.068c-0.817,1.785-1.636,3.815-1.35,5.764
			c1.55-0.161,2.751,0.136,3.654,0.897c1.862,1.575,1.764,4.564,1.669,7.455c-0.007,0.213-0.014,0.423-0.02,0.629
			c2.405-1.204,4.564-1.056,6.195,0.467c0.096,0.09,0.174,0.197,0.228,0.317l0.736,1.617l2.752-2.484
			c0.257-0.233,0.618-0.313,0.952-0.218c0.333,0.099,0.592,0.356,0.683,0.691c0.168,0.617,0.537,1.682,1.125,1.682
			c0.014,0,0.029,0,0.044,0c1.391,0,4.035-3.334,4.807-5.322c0.106-0.275,0.328-0.484,0.606-0.58
			c0.278-0.097,0.584-0.063,0.837,0.087c3.255,1.937,3.639,1.642,5.488,0.211c0.722-0.559,1.621-1.254,2.883-1.99
			c0.769-0.419,1.203-0.777,1.586-1.094c1.297-1.074,2.065-1.39,5.593-0.7c1.382,0.227,2.753,0.865,4.072,1.9
			c1.357-2.162,1.573-4.55,1.8-7.061l1.993,0.175c-0.273,3.019-0.555,6.134-2.833,8.981c-0.174,0.217-0.431,0.353-0.708,0.372
			c-0.275,0.024-0.551-0.076-0.755-0.267c-1.302-1.216-2.585-1.914-3.922-2.134c-2.94-0.571-3.179-0.376-3.965,0.273
			c-0.408,0.337-0.966,0.799-1.878,1.295c-1.123,0.655-1.929,1.28-2.641,1.831c-2.112,1.635-3.292,2.339-6.781,0.468
			c-1.198,2.232-3.815,5.716-6.33,5.562c-0.745-0.039-1.684-0.397-2.39-1.709l-2.69,2.429
			C81.968,274.896,81.729,274.986,81.484,274.986z"/>
	</g>
	<g>
		<path fill="#010101" d="M122.677,274.353c-2.091,0-4.207-0.108-6.188-0.209c-2.177-0.111-4.236-0.216-5.868-0.16l-2.061-0.042
			c-6.373-0.137-14.303-0.308-19.837-0.117c-0.553,0.041-1.016-0.412-1.034-0.965c-0.019-0.552,0.413-1.015,0.965-1.033
			c5.591-0.194,13.552-0.021,19.949,0.115l2.005,0.043c1.663-0.06,3.762,0.048,5.983,0.162c6.541,0.334,14.685,0.749,17.223-2.957
			c11.438-16.683,10.758-30.28,10.75-30.416c0.043-4.212-1.295-7.417-3.496-8.435c-1.898-0.881-4.346-0.089-7.078,2.283
			c-0.418,0.363-1.049,0.318-1.411-0.1c-0.362-0.417-0.318-1.048,0.099-1.41c4.258-3.697,7.37-3.448,9.229-2.589
			c2.925,1.354,4.708,5.262,4.654,10.2c0.033,0.51,0.724,14.353-11.098,31.597C133.185,273.647,128.017,274.353,122.677,274.353z"/>
	</g>
	<g>
		<path fill="#010101" d="M99.559,201.689c-0.108,0-0.218-0.018-0.327-0.055c-0.522-0.181-0.799-0.75-0.619-1.271
			c3.361-9.725,6.067-18.356,8.932-27.496c1.346-4.293,2.717-8.668,4.193-13.271c7.233-24.488,8.078-40.775,2.25-43.547
			c-1-0.457-2.011-0.447-3.073,0.037c-2.451,1.116-7.415,5.879-13.128,25.24l-0.044,0.148c-4.282,14.175-4.562,27.936-4.859,42.504
			c-0.083,4.052-0.168,8.242-0.346,12.436c-0.023,0.553-0.498,1.005-1.042,0.957c-0.552-0.023-0.98-0.489-0.957-1.041
			c0.177-4.172,0.262-8.351,0.344-12.392c0.299-14.71,0.583-28.604,4.942-43.036l0.042-0.142
			c3.114-10.551,8.107-23.712,14.218-26.494c1.599-0.729,3.198-0.739,4.748-0.028c9.453,4.496,3.314,30.717-1.185,45.948
			c-1.481,4.62-2.851,8.99-4.195,13.279c-2.87,9.154-5.58,17.8-8.95,27.551C100.361,201.43,99.974,201.689,99.559,201.689z"/>
	</g>
	<g>
		<path fill="#010101" d="M97.123,197.181c-0.519,0-0.906-0.19-1.163-0.379c-0.965-0.712-1.061-2.125-1.07-2.401
			c-0.227-6.6,0.773-31.557,3.935-42.773c0.15-0.531,0.703-0.84,1.234-0.691c0.531,0.15,0.841,0.702,0.691,1.234
			c-3.055,10.838-4.078,35.848-3.86,42.162c0.015,0.326,0.139,0.748,0.25,0.852c0.006-0.004,0.039-0.007,0.094-0.021
			c0.533-0.146,1.083,0.171,1.227,0.702c0.145,0.533-0.169,1.083-0.703,1.228C97.527,197.154,97.316,197.181,97.123,197.181z"/>
	</g>
	<g>
		<path fill="#010101" d="M79.672,194.016c-0.179,0-0.36-0.048-0.524-0.149c-1.011-0.623-2.12-1.464-2.678-2.968
			c-0.103-0.277-0.078-0.587,0.069-0.844c0.147-0.258,0.401-0.437,0.692-0.488c1.99-0.355,3.955,0.039,5.971,1.202
			c0.128-0.807,0.254-1.696,0.064-2.357c-0.078-0.271-0.037-0.564,0.113-0.805s0.395-0.405,0.673-0.455
			c3.016-0.539,5.155,1.417,6.855,3.4c0.359,0.419,0.311,1.05-0.108,1.409c-0.42,0.36-1.051,0.312-1.41-0.108
			c-1.169-1.363-2.459-2.607-4.027-2.77c0.016,0.752-0.103,1.498-0.206,2.143c-0.078,0.485-0.15,0.943-0.14,1.244
			c0.013,0.384-0.195,0.741-0.536,0.92c-0.34,0.178-0.753,0.146-1.061-0.084c-1.449-1.079-2.828-1.685-4.175-1.829
			c0.256,0.227,0.57,0.451,0.954,0.688c0.47,0.289,0.616,0.905,0.326,1.376C80.335,193.847,80.007,194.016,79.672,194.016z"/>
	</g>
	<g>
		<path fill="#010101" d="M109.433,203.529c-0.422,0-0.815-0.27-0.952-0.692c-0.661-2.044-2.405-3.126-4.442-2.766
			c-0.422,0.076-0.849-0.129-1.054-0.507c-0.206-0.378-0.146-0.846,0.147-1.16c0.516-0.552,1.36-1.273,2.181-1.918
			c-0.727-0.033-1.713,0.193-2.301,0.326c-0.426,0.096-0.791,0.175-1.045,0.199c-0.555,0.05-1.039-0.348-1.093-0.897
			s0.348-1.039,0.897-1.093c0.195-0.02,0.474-0.086,0.8-0.16c1.549-0.349,4.431-1,5.386,1.17c0.191,0.433,0.052,0.94-0.332,1.216
			c-0.39,0.279-0.831,0.614-1.263,0.959c1.859,0.508,3.351,1.939,4.021,4.016c0.17,0.525-0.119,1.089-0.644,1.259
			C109.639,203.514,109.535,203.529,109.433,203.529z"/>
	</g>
	<g>
		<path fill="#010101" d="M79.911,190.375c-0.354,0-0.698-0.188-0.879-0.522c-1.2-2.207-4.344-6.929-7.984-12.396
			c-9.783-14.695-23.181-34.821-23.423-41.84c-0.07-7.018,2.863-9.374,5.337-10.118c5.012-1.507,11.639,2.579,13.82,5.946
			c9.177,12.787,22.101,37.729,25.929,53.011c0.134,0.536-0.191,1.079-0.727,1.213c-0.535,0.135-1.079-0.19-1.213-0.727
			c-3.774-15.064-16.542-39.691-25.641-52.371c-1.86-2.87-7.655-6.341-11.592-5.158c-3.292,0.991-3.946,4.984-3.914,8.159
			c0.222,6.428,13.982,27.099,23.088,40.776c3.817,5.734,6.833,10.265,8.076,12.55c0.264,0.485,0.084,1.092-0.401,1.356
			C80.236,190.336,80.072,190.375,79.911,190.375z"/>
	</g>
	<g>
		<path fill="#010101" d="M165.035,263.543c-0.277,0-0.552-0.114-0.75-0.338c-0.366-0.413-0.327-1.045,0.086-1.411
			c0.587-0.52,1.067-0.939,1.549-1.361c0.796-0.696,1.6-1.399,2.916-2.576c10.88-11.662,13.459-43.421,7.023-56.934
			c-2.198-4.614-5.161-6.841-8.784-6.574c-3.622,0.05-5.866-1.822-7.871-3.501c-0.939-0.786-1.827-1.528-2.746-1.976
			c-17.497-8.551-36.865,0.954-46.208,14.232c-0.318,0.453-0.942,0.563-1.393,0.242c-0.452-0.317-0.561-0.941-0.243-1.393
			c9.818-13.956,30.23-23.914,48.72-14.88c1.138,0.555,2.163,1.411,3.153,2.24c1.903,1.594,3.697,3.09,6.496,3.036
			c4.42-0.296,8.132,2.359,10.681,7.713c6.76,14.194,4.274,46.68-7.432,59.221c-1.388,1.246-2.196,1.953-2.996,2.653
			c-0.479,0.42-0.957,0.838-1.541,1.354C165.506,263.46,165.27,263.543,165.035,263.543z"/>
	</g>
	<g>
		<path fill="#010101" d="M154.059,266.76c-0.281,0-0.56-0.117-0.757-0.347c-0.361-0.418-0.315-1.049,0.103-1.41
			c4.065-3.51,5.595-5.927,8.128-11.407c0.232-0.501,0.829-0.721,1.327-0.487c0.501,0.231,0.72,0.825,0.488,1.327
			c-2.626,5.68-4.325,8.358-8.636,12.081C154.523,266.68,154.291,266.76,154.059,266.76z"/>
	</g>
	<g>
		<path fill="#010101" d="M142.725,274c-0.537,0-0.98-0.385-0.999-0.925c-0.002-0.074,0.003-0.126,0.016-0.196
			c0.06-0.479,0.46-0.846,0.958-0.863c0.624-0.021,2.542-1.446,4.233-2.708c5.356-3.993,14.321-10.676,21.913-5.214
			c1.921,1.381,4.399,3.471,3.741,5.639c-0.723,2.384-4.836,3.447-14.198,3.77L142.76,274C142.749,274,142.736,274,142.725,274z
			 M162.468,264.038c-5.114,0-10.46,3.986-14.338,6.878c-0.504,0.376-0.965,0.719-1.39,1.027l11.581-0.398
			c10.224-0.353,12.128-1.65,12.353-2.393c0.053-0.175,0.159-1.164-2.996-3.433C166.019,264.526,164.257,264.038,162.468,264.038z"
			/>
	</g>
	<g>
		<path fill="#010101" d="M140.952,273.988c-3.203,0-6.267-0.225-10.012-0.718c-0.548-0.072-0.933-0.574-0.861-1.122
			c0.072-0.548,0.572-0.935,1.122-0.86c4.608,0.605,8.151,0.794,12.235,0.656c0.565-0.035,1.015,0.413,1.034,0.965
			s-0.413,1.015-0.965,1.033C142.634,273.973,141.788,273.988,140.952,273.988z"/>
	</g>
	<g>
		<path fill="#010101" d="M55.104,243c-0.537,0-0.98-0.421-0.999-0.961c-0.019-0.552,0.413-1.012,0.965-1.031
			c1.207-0.041,2.754-0.326,4.016-2.189c0.31-0.456,0.931-0.577,1.389-0.268c0.458,0.31,0.577,0.928,0.268,1.385
			C59.4,241.917,57.568,243,55.139,243C55.127,243,55.116,243,55.104,243z"/>
	</g>
	<g>
		<path d="M76.299,216.429c0.064,1.337,1.528,1.335,2.03,0.889c0.775-0.688,1.034-1.36,0.843-1.846
			C78.675,214.217,76.212,214.617,76.299,216.429z"/>
		<path fill="#010101" d="M77.505,218.585L77.505,218.585c-1.238,0-2.145-0.867-2.205-2.108c-0.035-0.728,0.208-1.404,0.685-1.904
			c0.501-0.526,1.221-0.828,1.975-0.828c0.989,0,1.81,0.521,2.141,1.359c0.174,0.441,0.413,1.609-1.108,2.962
			C78.622,218.396,78.08,218.585,77.505,218.585z M77.96,215.744c-0.203,0-0.405,0.08-0.527,0.208
			c-0.063,0.066-0.147,0.184-0.135,0.429c0.007,0.156,0.01,0.204,0.207,0.204c0.093,0,0.166-0.024,0.187-0.035
			c0.436-0.392,0.54-0.682,0.541-0.751C78.221,215.785,78.1,215.744,77.96,215.744z"/>
	</g>
	<g>
		<path fill="#010101" d="M167.278,205.353c-0.026,0-0.052-0.001-0.078-0.003c-0.551-0.042-0.963-0.523-0.92-1.074
			c0.579-7.514-4.078-11.184-4.276-11.336c-0.437-0.335-0.521-0.962-0.188-1.4c0.334-0.438,0.958-0.525,1.397-0.191
			c0.234,0.177,5.727,4.44,5.061,13.082C168.234,204.954,167.796,205.353,167.278,205.353z"/>
	</g>
</g>
<g id="Hase_Mitte">
	<g>
		<path fill="#F9F9FA" d="M262.045,195.443c-5.441-8.949-9.806-1.805-11.979-0.837c-5.331-11.983-17.375-21.125-21.733-22.215
			c-7.626-1.816-16.28,1.601-23.542-0.579c-5.085-1.452-8.478-5.422-8.478-10.143c0-2.179,3.756,0.008,2.667-3.261
			c-0.363-1.815-3.756-5.818-4.846-6.908c7.626-2.542,1.815-6.9-2.179-10.169c5.084-2.542-3.762-9.221-3.762-9.221
			c10.895-12.711,20.104-26.006,29.545-39.08c5.812-7.99,21.189-37.891,11.018-44.428c-10.795-6.94-17.672,8.23-22.394,17.31
			c-9.08,16.706-21.427,37.406-27.964,55.201c-2.293-10.773-28.449-92.848-41.522-75.053c-7.161,9.746,3.509,27.359,7.504,35.349
			c7.263,15.616,15.979,30.506,23.243,46.122c-3.996,1.816-18.153-0.715-33.649,15.5c-6.537,6.537-14.289,17.548-11.02,26.264
			c4.721,11.984,21.308,15.624,32.565,16.473c4.722,1.453,4.937,10.126,4.937,13.395c0.726-1.089,1.932-0.814,2.659-1.903
			c1.09,7.263-0.939,14.525-2.755,21.062c1.089-1.089,3.802-0.533,4.529-1.259c-0.406,7.085-0.284,11.562,1.877,17.664
			c-0.362,4.358-2.604,14.356-1.877,19.077c1.089,5.447,6.167,10.975,6.167,16.423c-2.173,4.13-5.725,9.728-0.164,16.37
			c2.542,3.631,11.022,1.47,16.706-3.269c1.821,1.711,9.388,3.93,16.348,2.438c5.617-1.206,10.336-7.312,12.229-11.259
			c9.197,0.241,21.25-0.309,24.152-3.739c-0.363,6.9,14.791,6.767,18.06,2.046c1.815-2.542,1.044-7.36-3.113-10.805
			c6.415-9.2,11.143-33.748,11.506-42.101C267.141,212.646,266.402,201.618,262.045,195.443z M189.319,273.416l-1.285-14.404
			c0,0,2.576,0.168,3.841,0.794c1.26,0.627,2.156,1.157,2.537,6.364C194.789,271.376,189.319,273.416,189.319,273.416z"/>
	</g>
	<g>
		<path fill="#010101" d="M193.839,260.806c-0.029,0-0.059-0.001-0.089-0.004c-5.062-0.449-7.49-2.621-9.041-4.464
			c-0.547-0.648-1.058-1.907-1.774-3.752c-0.303-0.779-0.636-1.639-0.9-2.182c-0.867,0.534-1.565,0.188-2.021-0.237
			c-3.401-3.189-5.175-6.79-5.669-7.896l-1.639-0.92c-0.192-0.107-0.343-0.276-0.43-0.479c-1.1-2.566-1.404-5.34-1.674-7.786
			c-0.033-0.298-0.065-0.591-0.098-0.877c-0.273,0.199-0.56,0.403-0.851,0.612c-0.799,0.569-1.625,1.158-2.05,1.584
			c-0.21,0.209-0.499,0.317-0.797,0.288c-0.295-0.027-0.563-0.184-0.732-0.427c-3.182-4.595-2.682-8.729-2.241-12.378
			c0.139-1.152,0.273-2.262,0.298-3.355c-0.493,0.144-1.002,0.226-1.483,0.304c-0.536,0.086-1.042,0.168-1.483,0.315
			c-0.338,0.114-0.713,0.038-0.98-0.2c-0.268-0.237-0.388-0.599-0.316-0.949c1.203-5.856,2.649-14.78,2.488-18.942
			c-0.387,0.362-0.777,0.74-0.945,1.001c-0.253,0.395-0.746,0.561-1.186,0.397c-0.439-0.161-0.708-0.606-0.646-1.071
			c0.517-3.865-1.374-9.354-3.345-11.498c-0.374-0.406-0.348-1.039,0.059-1.413c0.406-0.375,1.04-0.348,1.413,0.06
			c1.889,2.054,3.669,6.426,3.929,10.46c0.242-0.232,0.457-0.453,0.538-0.584c0.199-0.324,0.562-0.511,0.945-0.473
			c0.379,0.035,0.705,0.283,0.841,0.639c1.282,3.349-0.949,15.773-1.831,20.317c0.067-0.012,0.134-0.022,0.201-0.033
			c0.85-0.137,1.652-0.267,2.045-0.659c0.274-0.275,0.684-0.365,1.047-0.233c0.365,0.132,0.621,0.463,0.656,0.85
			c0.164,1.808-0.051,3.588-0.259,5.31c-0.402,3.328-0.783,6.486,1.304,10.064c0.415-0.32,0.885-0.655,1.369-1.001
			c0.802-0.571,1.631-1.163,2.056-1.589c0.264-0.267,0.654-0.359,1.012-0.247c0.357,0.114,0.621,0.418,0.683,0.788
			c0.143,0.85,0.243,1.76,0.349,2.723c0.243,2.205,0.516,4.691,1.397,6.909l1.632,0.916c0.199,0.111,0.354,0.289,0.439,0.5
			c0.016,0.04,1.615,3.952,5.136,7.338c0.242-0.204,0.627-0.476,1.168-0.408c0.424,0.053,0.794,0.305,1.099,0.748
			c0.409,0.599,0.839,1.707,1.338,2.991c0.45,1.158,1.066,2.745,1.44,3.188c1.384,1.645,3.379,3.377,7.688,3.76
			c0.55,0.049,0.957,0.534,0.908,1.085C194.788,260.414,194.352,260.806,193.839,260.806z"/>
	</g>
	<g>
		<path fill="#010101" d="M159.793,187.06c-7.17,0-16.654-0.925-24.052-4.26c-10.358-4.667-15.613-12.921-13.389-21.029
			c5.94-21.919,26.087-36.084,51.325-36.084c0.552,0,1,0.448,1,1s-0.448,1-1,1c-24.309,0-43.698,13.585-49.396,34.61
			c-2.37,8.637,5.135,15.46,12.281,18.679c11.984,5.403,29.572,4.263,32.72,3.342c0.532-0.152,1.086,0.149,1.241,0.68
			c0.155,0.529-0.149,1.085-0.679,1.24C168.508,186.628,164.69,187.06,159.793,187.06z"/>
	</g>
	<g>
		<path fill="#010101" d="M189.318,276c-0.542,0-0.988-0.266-1-0.811c-0.11-5.307-1.289-14.575-2.507-17.927
			c-0.188-0.52,0.079-1.051,0.598-1.239c0.517-0.188,1.092,0.099,1.282,0.618c1.428,3.928,2.527,13.671,2.627,18.496
			c0.011,0.552-0.427,0.862-0.979,0.862C189.333,276,189.326,276,189.318,276z"/>
	</g>
	<g>
		<path fill="#010101" d="M176.376,289.737c-0.391,0-0.779-0.022-1.163-0.069c-3.501-0.422-6.27-2.801-7.795-6.698
			c-0.997-2.658-0.074-5.833,0.819-8.903c0.534-1.838,1.04-3.575,1.052-4.965c-0.307-2.646-1.372-5.129-2.498-7.757
			c-0.629-1.468-1.28-2.986-1.808-4.57c-1.885-6.027-0.963-11.46,0.013-17.212c0.327-1.925,0.665-3.915,0.906-5.981
			c0.064-0.549,0.563-0.946,1.109-0.877c0.549,0.064,0.941,0.561,0.877,1.109c-0.248,2.117-0.59,4.134-0.921,6.084
			c-0.975,5.747-1.817,10.711-0.082,16.262c0.496,1.487,1.13,2.967,1.743,4.397c1.142,2.664,2.322,5.418,2.654,8.379
			c0.004,0.037,0.006,0.074,0.006,0.111c0,1.684-0.55,3.575-1.132,5.577c-0.802,2.757-1.63,5.607-0.872,7.631
			c1.257,3.212,3.391,5.093,6.167,5.428c3.648,0.439,8.03-1.865,10.66-5.604c0.318-0.452,0.942-0.562,1.393-0.243
			c0.452,0.318,0.561,0.941,0.243,1.394C184.933,287.232,180.488,289.737,176.376,289.737z"/>
	</g>
	<g>
		<path fill="#010101" d="M197.94,287.421c-2.214,0-4.381-0.245-6.225-0.771c-2.91-0.83-4.787-2.287-5.431-4.213
			c-1.494-3.354,1.685-6.951,4.239-9.842c1.117-1.265,2.272-2.572,2.542-3.38c0.847-2.96,0.013-9.498-0.97-12.44
			c-0.175-0.523,0.108-1.09,0.632-1.265c0.521-0.177,1.09,0.107,1.265,0.632c0.919,2.755,2.067,9.877,0.982,13.665
			c-0.411,1.235-1.589,2.568-2.954,4.112c-2.175,2.462-4.882,5.525-3.875,7.795c0.571,1.695,2.55,2.565,4.116,3.012
			c5.261,1.502,13.672,0.5,16.666-1.984c5.493-4.557,5.721-9.029,6.009-14.692c0.127-2.499,0.259-5.083,0.858-7.924
			c0.359-2.042,0.869-3.941,1.362-5.777c1.491-5.557,2.669-9.945-0.765-15.785c-0.279-0.477-0.121-1.089,0.355-1.369
			c0.476-0.28,1.089-0.121,1.369,0.355c3.858,6.562,2.456,11.786,0.972,17.317c-0.481,1.795-0.979,3.65-1.331,5.639
			c-0.573,2.72-0.7,5.225-0.823,7.646c-0.288,5.662-0.561,11.012-6.729,16.129C207.834,286.25,202.777,287.421,197.94,287.421z"/>
	</g>
	<g>
		<path fill="#010101" d="M184.814,136.402c-0.276,0-0.552-0.114-0.749-0.337c-0.366-0.414-0.328-1.046,0.085-1.412
			c15.458-13.686,48.667-64.338,47.302-78.449c-0.195-2.548-1.395-4.685-3.377-6.034c-2.229-1.517-5.179-1.871-8.102-0.972
			c-5.427,1.449-34.144,52.562-43.627,79.752c-0.182,0.521-0.752,0.797-1.273,0.615s-0.797-0.752-0.615-1.273
			c7.106-20.374,36.986-78.887,44.964-81.016c3.469-1.067,7.045-0.621,9.779,1.24c2.495,1.699,4.002,4.368,4.243,7.515
			c1.527,15.781-33.471,67.285-47.968,80.119C185.286,136.319,185.049,136.402,184.814,136.402z"/>
	</g>
	<g>
		<path fill="#010101" d="M254.281,263.243c-0.206,0-0.414-0.063-0.593-0.195c-0.444-0.328-0.539-0.954-0.211-1.398l0.523-0.703
			c3.31-4.435,7.428-9.953,10.687-31.757c3.259-21.792-1.342-34.23-6.995-36.565c-2.481-1.023-5.029,0.017-7.179,2.931
			c-0.256,0.349-0.712,0.494-1.121,0.355c-1.125-0.375-1.909-1.901-3.333-4.672c-2.277-4.43-5.718-11.124-11.935-14.722
			c-6.846-3.964-13.571-3.516-19.506-3.124c-5.859,0.391-10.926,0.726-14.509-3.245c-0.448-0.41-4.896-4.658-4.27-8.084
			c0.141-0.77,0.592-1.783,1.894-2.539c-0.654-3.12-2.503-5.539-4.664-8.129c-0.249-0.298-0.302-0.712-0.138-1.064
			s0.518-0.576,0.906-0.576c0.544,0,2.078-0.74,2.955-1.179c-0.592-1.77-2.429-3.529-4.212-5.236
			c-0.953-0.912-1.938-1.854-2.723-2.797c-0.228-0.274-0.293-0.649-0.17-0.984c0.123-0.334,0.414-0.579,0.765-0.641l1.599-0.282
			c-1.219-1.586-3.307-4.233-4.726-5.652c-0.391-0.391-0.391-1.024,0-1.414c0.391-0.391,1.023-0.391,1.414,0
			c2.205,2.206,5.75,6.968,5.9,7.17c0.207,0.278,0.254,0.644,0.126,0.966c-0.128,0.322-0.414,0.555-0.755,0.615l-1.411,0.249
			c0.43,0.434,0.89,0.874,1.363,1.327c2.257,2.161,4.591,4.395,4.973,7.078c0.061,0.426-0.159,0.844-0.543,1.036l-0.342,0.173
			c-0.863,0.437-1.703,0.85-2.454,1.144c2.02,2.53,3.742,5.188,4.242,8.619c0.066,0.455-0.187,0.896-0.612,1.07
			c-1.256,0.513-1.379,1.186-1.42,1.407c-0.364,1.997,2.643,5.316,3.726,6.322c2.994,3.312,7.389,3.021,12.954,2.652
			c5.911-0.392,13.269-0.881,20.64,3.389c6.725,3.891,10.327,10.899,12.711,15.537c0.578,1.125,1.259,2.449,1.757,3.179
			c2.594-3.006,5.779-3.997,8.86-2.727c6.562,2.711,11.646,15.731,8.211,38.709c-3.333,22.302-7.801,28.287-11.062,32.658
			l-0.517,0.694C254.891,263.103,254.588,263.243,254.281,263.243z"/>
	</g>
	<g>
		<path fill="#010101" d="M168.35,127.687c-0.358,0-0.704-0.192-0.884-0.53c-1.669-3.14-3.928-7.216-6.542-11.936
			c-10.823-19.536-27.178-49.059-27.474-58.958c-0.141-4.727,1.637-10.541,5.31-12.507c1.396-0.747,3.646-1.221,6.444,0.766
			c5.384,3.827,14.215,21.136,20.142,34.796c6.28,14.473,13.084,33.444,13.349,43.284c0.015,0.552-0.42,1.012-0.973,1.026
			c-0.531,0.035-1.011-0.42-1.026-0.973c-0.487-18.114-23.841-70.243-32.65-76.503c-1.575-1.118-3.035-1.333-4.342-0.633
			c-2.524,1.351-4.393,6.043-4.254,10.684c0.281,9.413,16.495,38.681,27.224,58.048c2.619,4.728,4.881,8.811,6.559,11.965
			c0.259,0.488,0.074,1.093-0.413,1.353C168.669,127.649,168.508,127.687,168.35,127.687z"/>
	</g>
	<g>
		<path fill="#010101" d="M248.557,277.002c-3.575,0-6.674-0.809-8.542-2.223c-0.491-0.204-0.945-0.651-0.994-1.299
			c-0.209-2.466,0.861-5.119,3.015-7.464c2.794-3.041,6.873-5.006,10.392-5.006c4.519,0,7.417,3.069,7.952,8.421
			c0.209,1.452-0.213,2.858-1.224,4.024C256.889,276.07,252.194,277.002,248.557,277.002z M240.997,273.024
			c0.046,0.025,0.088,0.054,0.127,0.084c1.481,1.186,4.26,1.894,7.433,1.894c4.016,0,7.583-1.121,9.088-2.856
			c0.637-0.734,0.882-1.544,0.749-2.473c-0.438-4.373-2.5-6.662-5.967-6.662c-2.939,0-6.523,1.752-8.918,4.359
			C241.828,269.198,240.945,271.194,240.997,273.024z"/>
	</g>
	<g>
		<path fill="#010101" d="M243.075,266.454c-0.282,0-0.563-0.119-0.762-0.352c-0.357-0.421-0.307-1.052,0.113-1.41
			c6.372-5.426,6.752-19.551,6.283-32.652c-0.021-0.553,0.411-1.016,0.963-1.035c0.553-0.036,1.017,0.411,1.035,0.963
			c0.486,13.58,0.037,28.27-6.984,34.248C243.535,266.376,243.305,266.454,243.075,266.454z"/>
	</g>
	<g>
		<path fill="#010101" d="M238.532,266.796c-6.797,0-13.593-2.04-19.725-3.881c-0.836-0.251-1.663-0.499-2.48-0.74
			c-0.529-0.155-0.833-0.711-0.677-1.241c0.155-0.529,0.705-0.837,1.241-0.677c0.82,0.241,1.651,0.49,2.491,0.742
			c7.343,2.205,15.669,4.705,23.537,3.467c0.56-0.083,1.058,0.288,1.144,0.833c0.085,0.546-0.288,1.058-0.833,1.144
			C241.67,266.687,240.101,266.796,238.532,266.796z"/>
	</g>
	<g>
		<path d="M161.512,149.685c1.39,1.574-1.333,3.511-2.298,2.36C157.818,150.652,160.121,147.929,161.512,149.685z"/>
		<path fill="#010101" d="M160.005,153.394c-0.623,0-1.176-0.251-1.558-0.706c-0.672-0.665-0.866-1.75-0.446-2.766
			c0.447-1.082,1.436-1.808,2.46-1.808c0.697,0,1.349,0.337,1.834,0.95c0.635,0.717,0.788,1.662,0.386,2.554
			C162.217,152.646,161.091,153.394,160.005,153.394z M160.461,150.113c-0.177,0-0.472,0.235-0.612,0.573
			c-0.113,0.273-0.089,0.492,0.07,0.651l0.085,0.057c0.264,0,0.704-0.268,0.853-0.599c0.064-0.143,0.069-0.262-0.096-0.448
			C160.671,150.234,160.561,150.113,160.461,150.113z"/>
	</g>
	<g>
		<path fill="#010101" d="M127.044,173.396c-1.048,0-2.151-0.258-3.204-0.783c-0.494-0.247-0.695-0.848-0.448-1.342
			c0.247-0.494,0.846-0.692,1.341-0.447c1.402,0.7,3.455,0.904,4.657-0.297c0.39-0.391,1.024-0.391,1.414,0s0.39,1.024-0.001,1.414
			C129.843,172.902,128.496,173.396,127.044,173.396z"/>
	</g>
	<g>
		<path fill="#010101" d="M215.804,275.857c-0.521,0-0.96-0.403-0.997-0.931c-0.038-0.551,0.377-1.028,0.929-1.067
			c0.926-0.064,2.338-0.089,3.974-0.118c5.481-0.096,18.319-0.321,19.706-3.385c0.228-0.504,0.818-0.727,1.323-0.499
			c0.504,0.228,0.727,0.82,0.499,1.323c-1.762,3.892-11.584,4.387-21.493,4.561c-1.607,0.028-2.995,0.053-3.87,0.114
			C215.851,275.856,215.827,275.857,215.804,275.857z"/>
	</g>
	<g>
		<path fill="#010101" d="M251.742,206.599c-0.03,0-0.061-0.001-0.092-0.004c-0.55-0.051-0.955-0.537-0.905-1.087
			c0.186-2.032-1.379-8.104-1.998-10.271c-0.151-0.531,0.156-1.084,0.688-1.236c0.526-0.146,1.084,0.155,1.236,0.688
			c0.238,0.834,2.319,8.231,2.066,11.002C252.689,206.209,252.254,206.599,251.742,206.599z"/>
	</g>
	<g>
		<path fill="#010101" d="M183.363,129.622c-0.529,0-0.971-0.415-0.998-0.95c-0.335-6.65,2.774-12.945,5.782-19.033
			c1.534-3.104,2.982-6.035,3.948-8.935c0.175-0.524,0.74-0.808,1.265-0.632c0.524,0.175,0.807,0.741,0.632,1.265
			c-1.01,3.029-2.488,6.021-4.053,9.188c-2.894,5.858-5.887,11.917-5.578,18.046c0.028,0.551-0.396,1.021-0.948,1.049
			C183.397,129.621,183.38,129.622,183.363,129.622z"/>
	</g>
</g>
<g id="Hase_rechts">
	<g>
		<path fill="#F9F9FA" d="M335.935,107.966c1.151-5.532,6.007-17.84-1.495-19.051c-9.566-0.877-22.76,22.031-26.874,30.02
			c-7.264,14.044-15.18,28.685-20.507,43.696c-2.662-1.452-6.674-1.052-8.546-0.843c-0.579-15.553-5.21-50.993-8.114-59.95
			c-2.18-7.022-5.876-26.908-17.251-21.972c-4.392,1.907-4.84,12.47-4.358,17.795c0.972,9.927-0.209,33.32,16.405,64.126
			c1.142,2.111,2.278,2.871,2.026,4.33c-3.541,2.18-15.412,19.854-15.412,29.053c0,5.569,1.793,9.624,0.612,12.62
			c-1.935,4.602-5.385,14.526-2.962,19.126c0.483-0.967,1.691-1.694,2.662-2.179c3.387,3.872,0.97,15.737,0.97,20.095
			c0,8.231,2.604,10.468,7.139,16.641c1.319,1.799,4.009,5.635,5.22,7.329c2.18,2.664,1.317,7.598,2.77,10.018
			c2.424,3.876,19.247,5.717,19.247-1.061c4.603,3.146,10.413,6.777,15.254,0.968c3.631-3.873,2.542-8.958,1.09-12.831
			c4.448,0,13.136,3.482,18.702,0.091c7.264-4.599-1.543-11.438-4.286-11.328c1.199-9.189,4.74-40.059-5.576-47.594
			c1.147-8.263-5.936-11.259-6.661-12.712c-1.998-18.702-6.174-20.459-10.044-26.27
			C295.944,168.084,330.034,136.293,335.935,107.966z M286.377,265.443l-0.362,0.544c-1.907-1.906-3.269-5.9-3.814-8.442
			c2.271,0.182,3.269-2.905,4.631,0C287.739,259.724,286.377,262.992,286.377,265.443z"/>
	</g>
	<g>
		<path fill="#010101" d="M291.013,165.651c-0.179,0-0.359-0.048-0.523-0.148c-4.299-2.645-8.24-3.668-11.107-2.869
			c-0.531,0.146-1.083-0.164-1.231-0.696c-0.147-0.532,0.164-1.083,0.696-1.231c4.587-1.27,9.922,1.39,12.691,3.094
			c0.47,0.289,0.617,0.905,0.327,1.376C291.677,165.482,291.349,165.651,291.013,165.651z"/>
	</g>
	<g>
		<path fill="#010101" d="M277.205,224.705c-4.765,0.001-9.327-1.479-13.89-4.455c-11.028-7.604-14.617-16.948-11.315-29.42
			c3.522-15.265,11.786-26.758,20.557-28.568c0.541-0.108,1.07,0.236,1.182,0.777s-0.236,1.07-0.777,1.182
			c-7.894,1.63-15.715,12.77-19.02,27.09c-3.105,11.733,0.131,20.137,10.487,27.278c7.612,4.964,15.27,5.403,24.073,1.367
			c10.59-4.303,14.998-10.883,15.762-23.483c0.39-8.962-1.746-17.523-6.015-24.09c-0.384-0.536-2.109-2.174-3.101-3.072
			c-0.203-0.184-0.322-0.443-0.329-0.717s0.1-0.538,0.293-0.731l7.99-7.989c9.645-10.361,19.121-23.56,25.976-36.186
			c3.277-5.827,10.789-27.831,6.915-33.136c-0.436-0.597-1.252-1.341-3.293-0.921c-9.434,1.952-21.776,23.984-27.047,33.393
			l-0.973,1.732c-5.575,10.493-12.473,24.306-16.251,37.908c-0.147,0.532-0.7,0.84-1.231,0.696
			c-0.532-0.148-0.844-0.699-0.696-1.231c3.831-13.788,10.79-27.729,16.425-38.333l0.981-1.749
			c5.862-10.464,18.06-32.237,28.389-34.375c2.918-0.6,4.502,0.592,5.312,1.7c2.113,2.895,1.92,9.088-0.577,18.409
			c-2.039,7.613-4.906,14.57-6.202,16.875c-6.925,12.755-16.509,26.102-26.288,36.607l-7.278,7.278
			c0.864,0.807,2.179,2.072,2.639,2.717c4.519,6.948,6.768,15.928,6.359,25.319c-0.809,13.348-5.724,20.648-16.966,25.216
			C285.063,223.731,281.068,224.705,277.205,224.705z"/>
	</g>
	<g>
		<path d="M294.366,187.817c-1.725-0.546-2.36,2.904-0.816,3.313S296.772,188.543,294.366,187.817z"/>
		<path fill="#010101" d="M293.845,192.169C293.844,192.169,293.844,192.169,293.845,192.169c-0.187,0-0.372-0.024-0.551-0.071
			c-1.138-0.302-1.776-1.465-1.591-2.896c0.223-1.708,1.574-2.783,2.965-2.338c1.323,0.398,2.064,1.481,1.877,2.753
			C296.337,191.024,295.126,192.169,293.845,192.169z M294.077,188.774c-0.14,0.009-0.344,0.27-0.394,0.714
			c-0.048,0.421,0.077,0.649,0.114,0.674l0.047,0.007l0,0c0.225,0,0.655-0.395,0.722-0.844
			C294.588,189.181,294.623,188.939,294.077,188.774z"/>
	</g>
	<g>
		<path d="M262.408,186.364c-1.997-0.726-2.911,2.384-1.498,3.099C262.681,190.359,264.405,187.091,262.408,186.364z"/>
		<path fill="#010101" d="M261.534,190.617L261.534,190.617c-0.37,0-0.732-0.088-1.076-0.262c-0.981-0.497-1.44-1.669-1.143-2.917
			c0.391-1.641,1.916-2.565,3.435-2.014c1.131,0.411,1.724,1.46,1.51,2.672C264.041,189.336,262.962,190.617,261.534,190.617z
			 M261.825,187.255c-0.324,0-0.512,0.424-0.564,0.647c-0.079,0.329-0.012,0.611,0.101,0.668c0.062,0.032,0.119,0.047,0.173,0.047
			c0.299,0,0.68-0.438,0.756-0.868c0.061-0.342-0.091-0.396-0.224-0.445C261.978,187.271,261.896,187.255,261.825,187.255z"/>
	</g>
	<g>
		<path fill="#010101" d="M272.631,214.236c-0.07,0-0.141-0.001-0.21-0.003c-1.853-0.061-3.565-0.931-4.954-2.515
			c-0.364-0.415-0.322-1.047,0.093-1.411c0.414-0.363,1.048-0.324,1.411,0.093c1.015,1.157,2.23,1.792,3.516,1.834
			c1.404,0.054,2.828-0.604,4.105-1.882c0.391-0.391,1.023-0.391,1.414,0s0.391,1.023,0,1.414
			C276.387,213.386,274.532,214.236,272.631,214.236z"/>
	</g>
	<g>
		<path fill="#010101" d="M268.22,166.032c-0.306,0-0.607-0.14-0.804-0.404c-14.117-19.026-21.022-45.601-19.444-74.829l0.032-0.419
			c0.349-4.578,0.783-10.276,6.765-11.872c8.044-2.303,10.793,5.519,12.605,10.695l0.334,0.949
			c7.36,20.479,10.848,42.946,10.951,70.606l0.516-0.126c0.536-0.133,1.077,0.197,1.209,0.734c0.131,0.536-0.198,1.078-0.734,1.209
			l-1.751,0.428c-0.298,0.07-0.613,0.004-0.854-0.186c-0.242-0.189-0.383-0.479-0.383-0.786c0-28.008-3.443-50.634-10.836-71.205
			l-0.339-0.962c-2.149-6.136-4.399-11.08-10.186-9.429c-4.627,1.234-4.955,5.539-5.303,10.096l-0.03,0.398
			c-1.552,28.74,5.215,54.854,19.054,73.506c0.329,0.443,0.236,1.069-0.207,1.398C268.636,165.968,268.427,166.032,268.22,166.032z"
			/>
	</g>
	<g>
		<path fill="#010101" d="M270.161,160.731c-0.287,0-0.571-0.122-0.77-0.359c-0.354-0.425-0.296-1.056,0.128-1.409
			c3.558-2.965,2.097-11.956,1.312-16.787c-0.077-0.469-0.147-0.905-0.208-1.299c-0.68-6.332-2.126-12.918-3.525-19.288
			c-0.845-3.849-1.719-7.83-2.406-11.677c-0.097-0.543,0.265-1.063,0.809-1.16c0.546-0.098,1.062,0.265,1.16,0.809
			c0.681,3.809,1.55,7.77,2.392,11.6c1.41,6.422,2.868,13.062,3.554,19.458c0.054,0.344,0.124,0.773,0.199,1.237
			c0.908,5.591,2.429,14.948-2.005,18.645C270.613,160.655,270.387,160.731,270.161,160.731z"/>
	</g>
	<g>
		<path fill="#010101" d="M294.123,162.17c-0.553,0-1-0.447-1-1c0-9.632,4.655-19.79,8.71-27.563c0.256-0.49,0.857-0.681,1.35-0.424
			c0.489,0.255,0.679,0.859,0.424,1.349c-3.95,7.571-8.483,17.441-8.483,26.639C295.123,161.723,294.676,162.17,294.123,162.17z"/>
	</g>
	<g>
		<path fill="#010101" d="M292.675,269.167c-0.435,0-0.835-0.286-0.961-0.726c-0.151-0.53,0.156-1.084,0.688-1.236l0.225-0.064
			c2.505-0.718,5.096-1.461,7.928,0.158c0.479,0.274,0.646,0.885,0.372,1.364s-0.886,0.646-1.364,0.372
			c-2.099-1.199-3.988-0.656-6.385,0.028l-0.227,0.065C292.858,269.154,292.767,269.167,292.675,269.167z"/>
	</g>
	<g>
		<path fill="#010101" d="M280.565,270.528c-0.175,0-0.353-0.046-0.513-0.143c-1.458-0.873-3.603-0.608-5.858-0.234
			c-0.547,0.098-1.061-0.277-1.15-0.822c-0.091-0.545,0.277-1.06,0.822-1.15c1.994-0.33,5.006-0.832,7.214,0.492
			c0.475,0.283,0.628,0.897,0.344,1.371C281.236,270.355,280.905,270.528,280.565,270.528z"/>
	</g>
	<g>
		<path fill="#010101" d="M277.584,284.13c-1.946,0-3.836-0.267-5.213-0.847c-6.211-2.614-6.412-6.999-6.59-10.867l-0.011-0.244
			c-0.341-2.08-2.479-4.93-4.742-7.944c-3.065-4.086-6.541-8.716-7.588-13.742c-1.057-3.864-0.785-8.177-0.521-12.347
			c0.267-4.229,0.52-8.246-0.515-11.811c-0.248,0.093-0.503,0.171-0.754,0.248c-0.519,0.158-1.009,0.309-1.397,0.568
			c-0.283,0.188-0.64,0.219-0.952,0.086c-0.312-0.135-0.533-0.419-0.589-0.753c-0.794-4.758-0.937-15.88,3.69-19.896
			c0.417-0.363,1.049-0.319,1.41,0.1c0.362,0.417,0.317,1.049-0.1,1.41c-3.413,2.963-3.772,11.688-3.208,16.749
			c0.191-0.064,0.38-0.122,0.56-0.177c0.507-0.155,0.985-0.302,1.195-0.513c0.239-0.238,0.581-0.345,0.917-0.27
			c0.331,0.07,0.604,0.305,0.725,0.622c1.613,4.237,1.309,9.078,1.014,13.76c-0.253,4.008-0.515,8.151,0.469,11.754
			c0.971,4.649,4.304,9.091,7.244,13.009c2.542,3.387,4.737,6.312,5.128,8.896c0.005,0.034,0.008,0.068,0.01,0.103l0.014,0.3
			c0.172,3.752,0.321,6.991,5.367,9.115c3.161,1.331,9.833,0.568,11.315-0.914c3.821-3.315-0.114-12.539-2.718-18.642
			c-0.737-1.729-1.374-3.221-1.763-4.387c-0.175-0.524,0.108-1.091,0.632-1.265c0.529-0.176,1.09,0.108,1.265,0.632
			c0.363,1.089,0.985,2.547,1.705,4.234c3.002,7.034,7.111,16.667,2.241,20.89C284.479,283.334,280.947,284.129,277.584,284.13z"/>
	</g>
	<g>
		<path fill="#010101" d="M295.478,282.229c-0.972,0-1.902-0.115-2.741-0.357c-7.205-2.078-8.099-13.058-5.879-22.38
			c0.128-0.538,0.671-0.865,1.204-0.741c0.537,0.128,0.869,0.667,0.741,1.204c-1.675,7.034-1.861,18.164,4.488,19.995
			c3.599,1.04,9.766-0.889,10.906-4.21c1.189-3.454-0.342-8.479-1.877-10.285c-0.068-0.08-0.123-0.169-0.163-0.266
			c-0.457-1.109,0.366-10.21,2.194-14.232c0.162-0.356,0.518-0.586,0.91-0.586c0.49,0,0.86,0.112,1.16,0.211
			c0.554-1.828,0.629-3.881,0.701-5.875c0.059-1.6,0.118-3.253,0.426-4.79c0.094-0.467,0.504-0.804,0.98-0.804
			c0.24,0,0.535-0.074,0.848-0.152c0.198-0.05,0.411-0.103,0.634-0.144c0.227-0.662,0.425-1.611,0.425-2.336c0-0.553,0.447-1,1-1
			s1,0.447,1,1c0,1.285-0.423,2.898-0.832,3.715c-0.17,0.339-0.516,0.553-0.895,0.553c-0.239,0-0.534,0.074-0.846,0.152
			c-0.151,0.037-0.31,0.077-0.475,0.112c-0.173,1.181-0.219,2.443-0.267,3.767c-0.09,2.453-0.183,4.99-1.115,7.324
			c-0.152,0.38-0.52,0.629-0.929,0.629c-0.513,0-0.895-0.123-1.202-0.225c-1.378,3.728-1.971,10.486-1.856,11.868
			c1.849,2.392,3.48,7.916,2.068,12.014C304.862,279.96,299.781,282.229,295.478,282.229z"/>
	</g>
	<g>
		<path fill="#010101" d="M287.83,260.724c-0.078,0-0.157-0.009-0.236-0.028c-0.377-0.092-0.668-0.394-0.744-0.775
			c-0.165-0.822-0.637-1.62-1.092-2.391c-0.153-0.26-0.309-0.522-0.454-0.789c-2.125,1.774-3.829,1.372-5.488,0.978
			c-0.529-0.126-1.075-0.256-1.671-0.33c-0.802-0.115-1.184-0.014-1.587,0.095c-0.99,0.263-1.788,0.343-3.785-0.905
			c-1.033-0.771-1.957-1.88-2.85-2.951c-0.355-0.426-0.719-0.861-1.077-1.264c-0.532,0.375-1.167,0.761-1.632,0.993
			c-0.385,0.192-0.849,0.119-1.154-0.188c-1.622-1.622-2.397-3.951-3.147-6.203c-0.174-0.523,0.109-1.09,0.634-1.265
			c0.523-0.171,1.09,0.109,1.265,0.634c0.611,1.837,1.193,3.586,2.172,4.858c0.534-0.327,1.073-0.709,1.256-0.892
			c0.375-0.375,1.039-0.375,1.414,0c0.614,0.614,1.221,1.342,1.807,2.045c0.819,0.983,1.667,2.001,2.444,2.584
			c1.338,0.832,1.607,0.763,2.14,0.62c0.497-0.134,1.179-0.313,2.367-0.145c0.686,0.086,1.313,0.234,1.867,0.366
			c1.782,0.424,2.767,0.657,4.626-1.434c0.245-0.278,0.622-0.394,0.985-0.308c0.36,0.089,0.642,0.369,0.731,0.729
			c0.131,0.521,0.484,1.119,0.859,1.753c0.205,0.348,0.422,0.714,0.623,1.103c0.821-1.305,1.518-2.792,2.046-4.38
			c0.109-0.329,0.382-0.578,0.719-0.657c0.334-0.082,0.691,0.02,0.937,0.265c0.055,0.035,0.361,0.172,0.585,0.271
			c0.383,0.171,0.823,0.367,1.234,0.621c1.879-1.692,2.775-4.445,3.405-6.964c0.133-0.535,0.675-0.864,1.212-0.728
			c0.536,0.134,0.862,0.676,0.728,1.212c-0.776,3.112-1.948,6.562-4.746,8.561c-0.396,0.284-0.94,0.241-1.288-0.105
			c-0.279-0.28-0.826-0.531-1.286-0.737c-0.785,2.019-1.823,3.859-3.036,5.376C288.419,260.589,288.13,260.724,287.83,260.724z"/>
	</g>
	<g>
		<path fill="#010101" d="M311.071,211.334c-0.48,0-0.904-0.347-0.985-0.836c-0.428-2.566,0.077-4.721,1.388-6.021
			c-0.443-3.41-2.318-7.603-5.57-9.229c-0.494-0.247-0.694-0.848-0.447-1.342c0.248-0.494,0.848-0.693,1.342-0.447
			c4.12,2.061,6.346,7.179,6.724,11.337c0.031,0.346-0.119,0.683-0.396,0.891c-1.01,0.757-1.408,2.433-1.066,4.483
			c0.091,0.545-0.277,1.06-0.822,1.15C311.181,211.33,311.126,211.334,311.071,211.334z"/>
	</g>
	<g>
		<path fill="#010101" d="M304.536,266.171c-0.377,0-0.737-0.214-0.907-0.577c-0.233-0.5-0.018-1.096,0.483-1.329
			c1.56-0.728,2.991-1.2,4.254-1.617c3.205-1.058,5.521-1.822,7.698-5.935c0.034-0.065,0.076-0.126,0.124-0.182
			c0.004-0.006,1.28-1.631,1.05-5.278c-0.143-2.27,0.509-5.76,1.032-8.564c0.231-1.237,0.431-2.306,0.525-3.063
			c0.027-0.874,0.074-1.893,0.124-2.952c0.463-9.953,1.098-23.584-7.333-29.518c-0.452-0.317-0.561-0.941-0.242-1.393
			c0.317-0.453,0.942-0.562,1.393-0.242c9.329,6.564,8.665,20.829,8.181,31.245c-0.049,1.053-0.097,2.063-0.131,3.02
			c-0.109,0.906-0.313,2.001-0.551,3.27c-0.503,2.696-1.129,6.052-1.002,8.072c0.254,4.015-1.084,6.111-1.442,6.596
			c-2.543,4.759-5.443,5.717-8.799,6.824c-1.27,0.419-2.583,0.853-4.035,1.53C304.821,266.141,304.678,266.171,304.536,266.171z"/>
	</g>
	<g>
		<path fill="#010101" d="M315.288,267.918c-4.324,0-9.693-0.516-10.45-2.998c-0.16-0.528,0.138-1.087,0.666-1.248
			c0.529-0.16,1.087,0.138,1.248,0.666c0.455,1.497,9.235,1.938,13.878,1.337c1.021-0.134,1.736-0.488,2.184-1.084
			c0.859-1.146,0.678-3.089,0.467-4.45c-0.999-4.68-5.035-4.488-5.213-4.479c-0.547,0.03-1.024-0.383-1.062-0.932
			c-0.036-0.549,0.374-1.024,0.923-1.063c2.042-0.16,6.215,0.938,7.318,6.112c0.276,1.773,0.479,4.262-0.834,6.012
			c-0.776,1.035-1.963,1.663-3.525,1.866C320.827,267.665,318.313,267.918,315.288,267.918z"/>
	</g>
</g>
<g id="Sparcles">
	<g>
		<g>
			<path fill="#F5952F" d="M41,207.353c3.869,0,3.869-6,0-6S37.131,207.353,41,207.353L41,207.353z"/>
		</g>
	</g>
	<g>
		<g>
			<path fill="#F5952F" d="M156.068,97c3.869,0,3.869-6,0-6S152.199,97,156.068,97L156.068,97z"/>
		</g>
	</g>
	<g>
		<g>
			<path fill="#F5952F" d="M213.5,123c3.869,0,3.869-6,0-6S209.631,123,213.5,123L213.5,123z"/>
		</g>
	</g>
	<g>
		<g>
			<path fill="#F5952F" d="M328.333,160c3.869,0,3.869-6,0-6S324.464,160,328.333,160L328.333,160z"/>
		</g>
	</g>
	<g>
		<g>
			<path fill="#F5952F" d="M320.333,172c3.869,0,3.869-6,0-6S316.464,172,320.333,172L320.333,172z"/>
		</g>
	</g>
	<g>
		<g>
			<path fill="#F5952F" d="M250.734,54.5c3.869,0,3.869-6,0-6S246.865,54.5,250.734,54.5L250.734,54.5z"/>
		</g>
	</g>
	<g>
		<g>
			<path fill="#F5952F" d="M316.333,189.5c3.869,0,3.869-6,0-6S312.464,189.5,316.333,189.5L316.333,189.5z"/>
		</g>
	</g>
	<g>
		<g>
			<path fill="#F5952F" d="M228.5,64.5c3.869,0,3.869-6,0-6S224.631,64.5,228.5,64.5L228.5,64.5z"/>
		</g>
	</g>
	<g>
		<g>
			<path fill="#F5952F" d="M215.805,97c3.869,0,3.869-6,0-6S211.936,97,215.805,97L215.805,97z"/>
		</g>
	</g>
	<g>
		<g>
			<path fill="#F5952F" d="M150,123c3.869,0,3.869-6,0-6S146.131,123,150,123L150,123z"/>
		</g>
	</g>
	<g>
		<g>
			<path fill="#F5952F" d="M97.667,221.666c3.869,0,3.869-6,0-6S93.798,221.666,97.667,221.666L97.667,221.666z"/>
		</g>
	</g>
	<g>
		<g>
			<path fill="#F5952F" d="M328.833,113.417c3.869,0,3.869-6,0-6S324.964,113.417,328.833,113.417L328.833,113.417z"/>
		</g>
	</g>
	<g>
		<g>
			<path fill="#F5952F" d="M65.076,189.082c3.869,0,3.869-6,0-6S61.207,189.082,65.076,189.082L65.076,189.082z"/>
		</g>
	</g>
	<g>
		<g>
			<path fill="#F5952F" d="M39,167.651c3.869,0,3.869-6,0-6S35.131,167.651,39,167.651L39,167.651z"/>
		</g>
	</g>
	<g>
		<g>
			<path fill="#F5952F" d="M341.333,149.5c3.869,0,3.869-6,0-6S337.464,149.5,341.333,149.5L341.333,149.5z"/>
		</g>
	</g>
	<g>
		<g>
			<path fill="#F5952F" d="M143.75,222c3.869,0,3.869-6,0-6S139.881,222,143.75,222L143.75,222z"/>
		</g>
	</g>
	<g>
		<g>
			<path fill="#F5952F" d="M286.5,169.5c3.869,0,3.869-6,0-6S282.631,169.5,286.5,169.5L286.5,169.5z"/>
		</g>
	</g>
	<g>
		<g>
			<path fill="#F5952F" d="M228.5,183.689c3.869,0,3.869-6,0-6S224.631,183.689,228.5,183.689L228.5,183.689z"/>
		</g>
	</g>
	<g>
		<g>
			<path fill="#F5952F" d="M48.624,141.5c3.869,0,3.869-6,0-6S44.754,141.5,48.624,141.5L48.624,141.5z"/>
		</g>
	</g>
	<g>
		<g>
			<path fill="#F5952F" d="M203.271,164.372c3.869,0,3.869-6,0-6S199.401,164.372,203.271,164.372L203.271,164.372z"/>
		</g>
	</g>
	<g>
		<g>
			<path fill="#F5952F" d="M118.838,245.01c3.869,0,3.869-6,0-6S114.969,245.01,118.838,245.01L118.838,245.01z"/>
		</g>
	</g>
</g>
</svg>
