<?xml version="1.0" encoding="utf-8"?>
<!-- Generator: Adobe Illustrator 16.0.0, SVG Export Plug-In . SVG Version: 6.00 Build 0)  -->
<!DOCTYPE svg PUBLIC "-//W3C//DTD SVG 1.1//EN" "http://www.w3.org/Graphics/SVG/1.1/DTD/svg11.dtd">
<svg version="1.1" xmlns="http://www.w3.org/2000/svg" xmlns:xlink="http://www.w3.org/1999/xlink" x="0px" y="0px" width="400px"
	 height="300px" viewBox="0 0 400 300" enable-background="new 0 0 400 300" xml:space="preserve">
<g id="weiß">
	<path fill="#FFFFFF" d="M220,54.916c0,0-7-12.582-52.667-14.249c-45.667-1.667-81.5,5.751-80.667,13S82,61.416,82,61.416
		l2.167,38.917l2,1.833l-4.917,3.875l1.375,38.5c0,0,6.042,5.793,5.208,8.126S84,159,84,159l0.5,45.666
		c0,0,13.667,15.335,44.5,17.001s30.833,1.666,30.833,1.666l43.333,52c0,0,68.666-7.499,70.833-9.166
		c1.5-5.5,0.334-17.167,0.334-17.167L285,262.332c0,0,46-58.166,47-66.832c-4.833,4.5-36,41.666-43.333,60.5
		c-1,2.5-2.667,3.666-3.5,1.5s-11.5-19-11.5-19l-1.333-28l-0.584-3.334l-9.416,1.668l-5.834-6.5H250l-0.5-3.168l-7.333,0.334
		l-4.667-4.084l-4.5,0.418l-5.5-7.334l-0.667-33.333l-2-4.333l1.334-7L227,109.041c0,0-2.75-1.79-3-3.708l2.5-2.542l-1.333-41.624
		C225.167,61.167,219.333,57.832,220,54.916"/>
</g>
<g id="schwarz">
	<path fill="none" stroke="#000000" stroke-width="2" stroke-linecap="round" stroke-linejoin="round" stroke-miterlimit="10" d="
		M87.25,151.917c0,0,0.333,1.749-3,5.749c-1,10,0,43.5,0,43.5s30.25,25.75,74.25,21.75"/>
	
		<polyline fill="none" stroke="#000000" stroke-width="2" stroke-linecap="round" stroke-linejoin="round" stroke-miterlimit="10" points="
		224.875,184.541 225.5,152.666 222.75,149.666 	"/>
	<path fill="none" stroke="#000000" stroke-width="2" stroke-linecap="round" stroke-linejoin="round" stroke-miterlimit="10" d="
		M94,166.166c0,0,23.75,20.75,60,17.25"/>
	<path fill="none" stroke="#000000" stroke-width="2" stroke-linecap="round" stroke-linejoin="round" stroke-miterlimit="10" d="
		M197.75,174.666c0,0,22-6.75,28-21.25"/>
	<path fill="none" stroke="#000000" stroke-width="2" stroke-linecap="round" stroke-linejoin="round" stroke-miterlimit="10" d="
		M87.25,104.416l-4.25,3.75l0.75,39.25c0,0,15.5,22.75,54.75,26s72.5-3.25,86.5-27.75c0.5-20.75-0.25-36-0.25-36s-3.25-0.5-2.5-4.25
		"/>
	<path fill="none" stroke="#000000" stroke-width="2" stroke-linecap="round" stroke-linejoin="round" stroke-miterlimit="10" d="
		M87.25,110.666c0,0,21.833,20.583,46.75,22.333c30.434,2.138,61.25,2.917,89.75-22.083"/>
	<path fill="none" stroke="#000000" stroke-width="2" stroke-linecap="round" stroke-linejoin="round" stroke-miterlimit="10" d="
		M87.5,55.166c0,0,1.75,4.5,0,5.75s-3,2.25-3,2.25l0.25,37.25c0,0,10.442,11.244,23.917,16.583c13.25,5.25,54.25,17.083,100-3.667
		c6.822-3.094,15.083-9.917,15.083-9.917v-42.5c0,0-5-1.5-3.75-6c4.25-4.25-17.5-11-37.25-13.5s-91.5-0.5-94.75,10
		c-3.408,11.009,21.845,17.373,37.75,21c14.25,3.25,64.5,5.75,92-13.5"/>
	<path fill="none" stroke="#000000" stroke-width="2" stroke-linecap="round" stroke-linejoin="round" stroke-miterlimit="10" d="
		M88.5,66.666c0,0,28,18.75,69,16.25c57.34-3.497,64.75-19.75,64.75-19.75"/>
	<path fill="none" stroke="#000000" stroke-width="2" stroke-linecap="round" stroke-linejoin="round" stroke-miterlimit="10" d="
		M230.5,243.916c0,0-2.25,0.5-2,3.5s3.5,5.25,3.5,1.5s16.25-5.25,21.75-4.75c1.5,1.75,0.75,5.75,1.5,3s-1.25-6.75-1.5-6"/>
	<path fill="none" stroke="#000000" stroke-width="2" stroke-linecap="round" stroke-linejoin="round" stroke-miterlimit="10" d="
		M261.25,206.916l-4.75-5.25l-22.5,2.5l-3.25,5.25l-37.25,5.25c0,0-0.75,13.25-0.5,15.25"/>
	
		<polyline fill="none" stroke="#000000" stroke-width="2" stroke-linecap="round" stroke-linejoin="round" stroke-miterlimit="10" points="
		249.75,201.166 249.5,199.166 226.5,200.416 224,205.416 188.5,209.166 189.25,227.666 	"/>
	
		<polyline fill="none" stroke="#000000" stroke-width="2" stroke-linecap="round" stroke-linejoin="round" stroke-miterlimit="10" points="
		240.75,198.666 237.5,195.416 214.75,198.666 214.75,202.916 182.75,209.916 186,223.916 	"/>
	<path fill="none" stroke="#000000" stroke-width="2" stroke-linecap="round" stroke-linejoin="round" stroke-miterlimit="10" d="
		M232.75,195.166l-10.5-13.25l-16.75,10.25c0,0-1.5,3-1.5,3.75s-26.25,12.75-26.25,12.75l6.75,15"/>
	
		<polyline fill="none" stroke="#000000" stroke-width="2" stroke-linecap="round" stroke-linejoin="round" stroke-miterlimit="10" points="
		212,186.416 200.75,187.416 198,192.666 170.25,196.416 169.75,208.916 	"/>
	
		<polyline fill="none" stroke="#000000" stroke-width="2" stroke-linecap="round" stroke-linejoin="round" stroke-miterlimit="10" points="
		207.5,184.666 193.5,185.416 190.75,189.416 166.25,192.666 165.75,205.916 	"/>
	
		<polyline fill="none" stroke="#000000" stroke-width="2" stroke-linecap="round" stroke-linejoin="round" stroke-miterlimit="10" points="
		199.25,180.916 185.25,183.166 183.5,186.666 162.5,188.416 161.5,202.166 	"/>
	
		<polyline fill="none" stroke="#000000" stroke-width="2" stroke-linecap="round" stroke-linejoin="round" stroke-miterlimit="10" points="
		198.5,180.916 196,176.166 178.75,178.416 174.5,182.166 159.5,184.166 	"/>
	
		<polyline fill="none" stroke="#000000" stroke-width="2" stroke-linecap="round" stroke-linejoin="round" stroke-miterlimit="10" points="
		192.75,173.416 176,175.666 173.25,179.666 154.25,182.166 153.25,195.166 205.25,243.166 151.5,196.166 151.25,212.666 
		204.75,276.166 275.5,265.916 273,209.916 204.5,218.916 204.75,273.666 202.75,216.166 271.75,207.166 273.25,267.666 
		202,275.916 149,211.416 	"/>
	<path fill="none" stroke="#000000" stroke-width="2" stroke-linecap="round" stroke-linejoin="round" stroke-miterlimit="10" d="
		M227.125,187.541l-0.25-32.875l-2.125-5l2-4.125l0.25-36.5c0,0-2.75-1.75-2.875-3.125s2.375-3.125,2.375-3.125l-1.625-42.25
		c-2.375-0.125-4-5.125-4-5.125s-12.25-15.75-72.125-13.875S86,52.416,86,52.416s0.875,4.125,0,6.125s-4,2.875-4,2.875l1,38.625
		l2.5,2.375l-4.25,3.625l1.375,38.5c0,0,3,2,4.875,4.5s-1.875,8.875-1.875,8.875l-1.125,46.75c18,20.5,74,18.25,74,18.25"/>
	<path fill="none" stroke="#000000" stroke-width="2" stroke-linecap="round" stroke-linejoin="round" stroke-miterlimit="10" d="
		M226.167,101.5c0,0-25.167,19.833-70.167,21.5c-44.5,1-69.667-22.167-69.667-22.167"/>
	<path fill="none" stroke="#000000" stroke-width="2" stroke-linecap="round" stroke-linejoin="round" stroke-miterlimit="10" d="
		M226.833,144.5c0,0-9.667,14.667-28.833,20.833c-19.167,6.167-58.5,14.5-97-5C94.167,157,84.167,148,84.167,148"/>
	<path fill="none" stroke="#000000" stroke-width="2" stroke-linecap="round" stroke-linejoin="round" stroke-miterlimit="10" d="
		M221.667,54.5c0,0,1.333,8.5-29.667,16s-101.833-1-106-18.083"/>
	<path fill="none" stroke="#000000" stroke-width="2" stroke-linecap="round" stroke-linejoin="round" stroke-miterlimit="10" d="
		M269.666,238.332L288,259.666c0,0,51.813-71.052,44.666-65.334c-18.333,14.667-47.666,68-47.666,68l-19.667-26.666l6-1l16,26.666"
		/>
</g>
<g id="Sparcles">
	<g>
		<g>
			<path fill="#F5952F" d="M131.429,203.056c3.869,0,3.869-6,0-6S127.56,203.056,131.429,203.056L131.429,203.056z"/>
		</g>
	</g>
	<g>
		<g>
			<path fill="#F5952F" d="M218.067,182.602c3.869,0,3.869-6,0-6S214.198,182.602,218.067,182.602L218.067,182.602z"/>
		</g>
	</g>
	<g>
		<g>
			<path fill="#F5952F" d="M165.2,198.929c3.869,0,3.869-6,0-6S161.331,198.929,165.2,198.929L165.2,198.929z"/>
		</g>
	</g>
	<g>
		<g>
			<path fill="#F5952F" d="M191.667,226c3.869,0,3.869-6,0-6S187.798,226,191.667,226L191.667,226z"/>
		</g>
	</g>
	<g>
		<g>
			<path fill="#F5952F" d="M104.797,181.986c3.869,0,3.869-6,0-6S100.928,181.986,104.797,181.986L104.797,181.986z"/>
		</g>
	</g>
	<g>
		<g>
			<path fill="#F5952F" d="M219.504,75.594c3.869,0,3.869-6,0-6S215.635,75.594,219.504,75.594L219.504,75.594z"/>
		</g>
	</g>
	<g>
		<g>
			<path fill="#F5952F" d="M81.284,108.622c3.869,0,3.869-6,0-6S77.415,108.622,81.284,108.622L81.284,108.622z"/>
		</g>
	</g>
	<g>
		<g>
			<path fill="#F5952F" d="M101.141,160.901c3.869,0,3.869-6,0-6S97.272,160.901,101.141,160.901L101.141,160.901z"/>
		</g>
	</g>
	<g>
		<g>
			<path fill="#F5952F" d="M222.729,149.273c3.869,0,3.869-6,0-6S218.86,149.273,222.729,149.273L222.729,149.273z"/>
		</g>
	</g>
	<g>
		<g>
			<path fill="#F5952F" d="M219.334,134c3.869,0,3.869-6,0-6S215.465,134,219.334,134L219.334,134z"/>
		</g>
	</g>
	<g>
		<g>
			<path fill="#F5952F" d="M222.916,115.7c3.869,0,3.869-6,0-6S219.047,115.7,222.916,115.7L222.916,115.7z"/>
		</g>
	</g>
	<g>
		<g>
			<path fill="#F5952F" d="M230.145,98.525c3.869,0,3.869-6,0-6S226.275,98.525,230.145,98.525L230.145,98.525z"/>
		</g>
	</g>
</g>
</svg>
