<?xml version="1.0" encoding="utf-8"?>
<!-- Generator: Adobe Illustrator 16.0.0, SVG Export Plug-In . SVG Version: 6.00 Build 0)  -->
<!DOCTYPE svg PUBLIC "-//W3C//DTD SVG 1.1//EN" "http://www.w3.org/Graphics/SVG/1.1/DTD/svg11.dtd">
<svg version="1.1" xmlns="http://www.w3.org/2000/svg" xmlns:xlink="http://www.w3.org/1999/xlink" x="0px" y="0px" width="400px"
	 height="300px" viewBox="0 0 400 300" enable-background="new 0 0 400 300" xml:space="preserve">
<g id="Ebene_6">
</g>
<g id="Hase">
	<g>
		<path fill="#FFFFFF" d="M57.73,220.748c0,0-15.802-21.49-13.834-25.435c1.971-3.947,2.913-6.479,6.604-0.813
			c3.705,5.675,13.51,24.766,13.51,24.766s6.997-34.145,8.964-34.082c1.969,0.068,6.526,2.316,3.464,14.658
			c-1.026,4.136-7.976,22.534-7.976,22.534S80.198,232.701,77,239.5c-2.319,4.928-8.459,1.25-8.459,1.25s-0.708,2.056-0.167,4.208
			c0.197,0.785,4.292,9.762,4.459,13.209c0.062,1.293-4.194-1.398-4.167,0c0.101,5.129,0.381,8.386-0.52,10.353
			c6.809,1.794,12.157,4.06,10.187,5.147c-1.977,1.075-13.458-1.824-13.458-1.824l-1.208,0.99c0,0,7.535,5.298,4.5,5.834
			c-3.025,0.54-12.515-1.436-12.333-2.334c0.172-0.886-6.548-2.151-8.333-4.666c-4.333,1.166-3.833-1.667-7.667-3.334
			c2.5-0.5,2.59-1.305,2-5c4,1,4.047-3.468,4.047-3.468l2.955,1.641L53.83,248.3c0,0-1.753-0.224-2.581-3.342
			c-0.912-3.438-0.846-9.821,0.574-10.321c2.709-0.96,4.01,2.363,4.01,2.363l5.667,0.5l-3.435-12.879
			C58.065,224.621,59.32,223.337,57.73,220.748z"/>
	</g>
	<g>
		<path fill="#919396" d="M55.615,238.09l6.84-0.552l0.216-17.338l-9.799,0.852l-0.437,13.086c0,0,0.212-0.137,1.614,1.081
			C55.453,236.438,55.615,238.09,55.615,238.09z"/>
	</g>
	<g>
		<path fill="#13110C" d="M73.457,242.838c-2.848,0-6.93-1.204-10.755-4.681c-0.409-0.372-0.438-1.004-0.067-1.413
			c0.372-0.407,1.003-0.438,1.413-0.067c5.039,4.582,10.156,4.519,11.272,3.858c4.885-7.208-7.363-17.281-7.488-17.383
			c-0.363-0.295-0.473-0.802-0.266-1.221c0.121-0.244,12.07-24.548,8.526-33.718c-0.463-1.198-1.165-2.037-2.137-2.551
			c-1.615,2.728-5.729,18.892-8.968,33.814c-0.091,0.42-0.439,0.734-0.866,0.782c-0.419,0.05-0.835-0.183-1.017-0.571
			c-3.139-6.734-12.203-24.748-16.391-27.192c-0.25-0.145-0.447-0.173-0.73,0.121c-0.928,0.962-1.479,4.422,0.726,7.889
			c2.764,4.321,12.403,18.879,12.5,19.025c0.305,0.46,0.179,1.081-0.282,1.386c-0.461,0.305-1.081,0.179-1.386-0.282
			c-0.097-0.146-9.745-14.717-12.519-19.054c-2.568-4.039-2.248-8.518-0.479-10.353c0.896-0.929,2.083-1.098,3.18-0.459
			c4.593,2.681,12.718,18.771,15.936,25.429c2.843-12.868,7.316-31.53,9.56-32.583c0.334-0.155,0.703-0.162,1.027-0.018
			c1.731,0.688,2.98,1.998,3.713,3.896c3.542,9.166-6.234,30.401-8.258,34.623c2.667,2.34,12.685,11.941,7.156,19.714
			c-0.053,0.074-0.116,0.142-0.188,0.198C76.059,242.52,74.92,242.838,73.457,242.838z"/>
	</g>
	<g>
		<path fill="#13110C" d="M42.743,273.283c-0.204,0-0.405-0.062-0.575-0.182c-0.221-0.155-0.37-0.395-0.413-0.661l-0.273-1.717
			l-1.954-0.939c-0.314-0.151-0.528-0.455-0.562-0.803s0.115-0.688,0.394-0.897l1.914-1.441l-0.84-2.945
			c-0.089-0.311-0.022-0.645,0.179-0.897c0.2-0.252,0.504-0.395,0.833-0.376l2.616,0.136l0.857-2.972
			c0.084-0.293,0.298-0.53,0.579-0.647c0.282-0.113,0.602-0.097,0.867,0.051l1.846,1.024c1.205-4.021,3.614-9.638,4.431-11.505
			c-0.936-0.99-2.136-2.396-2.364-3.311c-0.897-2.618-1.737-7.91-0.07-10.619c0.562-0.912,1.375-1.466,2.351-1.602
			c0.883-0.124,1.703,0.127,2.375,0.722c1.965,1.743,2.241,6.282,2.272,8.063l1.196,0.528c0.505,0.224,0.734,0.813,0.511,1.319
			c-0.224,0.504-0.813,0.734-1.319,0.511l-1.792-0.791c-0.368-0.163-0.603-0.53-0.596-0.934c0.04-2.201-0.361-6.103-1.601-7.201
			c-0.236-0.208-0.464-0.28-0.771-0.237c-0.24,0.033-0.597,0.14-0.923,0.67c-1.074,1.744-0.72,6.064,0.283,9.005
			c0.13,0.48,1.17,1.771,2.342,2.958c0.283,0.287,0.371,0.721,0.215,1.093c-0.048,0.106-3.809,8.552-4.947,13.064
			c-0.076,0.302-0.288,0.55-0.572,0.674c-0.286,0.123-0.61,0.108-0.883-0.044l-1.857-1.03l-0.729,2.526
			c-0.129,0.446-0.553,0.742-1.012,0.722l-2.012-0.104l0.645,2.261c0.114,0.397-0.029,0.824-0.36,1.073l-1.15,0.866l0.945,0.454
			c0.296,0.143,0.503,0.42,0.555,0.744l0.193,1.217l3.203-0.608c0.543-0.1,1.066,0.253,1.169,0.796
			c0.103,0.542-0.253,1.065-0.796,1.169l-4.215,0.801C42.868,273.277,42.805,273.283,42.743,273.283z"/>
	</g>
	<g>
		<path fill="#13110C" d="M62.722,239.504c-0.002,0-0.004,0-0.006,0l-6.291-0.04c-0.552-0.004-0.997-0.454-0.994-1.007
			c0.003-0.552,0.475-1.018,1.006-0.993l5.288,0.033l0.042-15.514l-7.522,0.112l-0.473,10.842c-0.024,0.552-0.508,1.002-1.042,0.955
			c-0.552-0.024-0.979-0.491-0.956-1.043l0.514-11.783c0.023-0.528,0.455-0.948,0.984-0.956l9.483-0.142
			c0.294,0.024,0.527,0.101,0.718,0.289c0.191,0.188,0.298,0.445,0.297,0.714l-0.047,17.535c0,0.266-0.107,0.521-0.296,0.707
			C63.239,239.399,62.986,239.504,62.722,239.504z"/>
	</g>
	<g>
		<path fill="#13110C" d="M75.816,274.971c-3.722,0-9.436-1.008-11.471-2.28c-0.468-0.292-0.61-0.909-0.318-1.378
			c0.293-0.469,0.909-0.611,1.378-0.317c2.318,1.449,10.012,2.308,12.09,1.896c-0.818-1.454-5.393-3.213-9.693-4.077
			c-0.542-0.109-0.892-0.636-0.784-1.178c0.109-0.54,0.634-0.897,1.177-0.783c2.683,0.538,11.436,2.598,11.428,6.482
			c0,0.041-0.003,0.082-0.008,0.123c-0.035,0.277-0.196,0.791-0.885,1.119C78.156,274.85,77.106,274.971,75.816,274.971z"/>
	</g>
	<g>
		<path fill="#13110C" d="M66.493,279.858c-4.056,0-10.18-2.065-11.987-3.335c-2.377-0.163-6.101-1.704-7.654-4.876
			c-0.067-0.137-0.102-0.287-0.102-0.439v-2.875c0-0.553,0.448-1,1-1s1,0.447,1,1v2.633c1.43,2.638,4.786,3.56,6.134,3.572
			c0.289,0.003,0.563,0.131,0.751,0.351c1.013,0.997,9.674,3.745,12.38,2.801c0.004-0.026,0-0.05-0.006-0.079
			c-0.262-1.254-4.221-3.672-7.738-5.192c-0.493-0.213-0.73-0.777-0.536-1.278c0.015-0.039,1.524-4.082-0.14-7.632
			c-1.333-2.843-2.241-2.66-3.04-2.507c-0.152,0.03-0.296,0.058-0.431,0.074c-0.548,0.06-1.048-0.32-1.116-0.868
			s0.32-1.048,0.868-1.116c0.092-0.012,0.19-0.031,0.294-0.052c1.68-0.334,3.481-0.121,5.235,3.619
			c1.525,3.254,0.915,6.693,0.482,8.292c2.295,1.06,7.553,3.737,8.079,6.251c0.151,0.723-0.051,1.427-0.568,1.981
			c-0.083,0.089-0.183,0.162-0.292,0.216C68.444,279.722,67.537,279.858,66.493,279.858z"/>
	</g>
	<g>
		<path fill="#13110C" d="M48.394,265.222c-0.034,0-0.069-0.002-0.104-0.005c-0.549-0.057-0.949-0.548-0.892-1.098
			c0.02-0.197,0.207-1.954,0.478-2.891c0.153-0.531,0.706-0.835,1.238-0.684c0.531,0.153,0.836,0.708,0.683,1.238
			c-0.188,0.65-0.359,2.055-0.409,2.541C49.334,264.839,48.9,265.222,48.394,265.222z"/>
	</g>
	<g>
		<g>
			<path fill="#13110C" d="M65.875,231.917c1.29,0,1.29-2,0-2S64.584,231.917,65.875,231.917L65.875,231.917z"/>
		</g>
	</g>
	<g>
		<path fill="#13110C" d="M65.499,248.333c-0.151,0-0.305-0.034-0.447-0.105l-1-0.5c-0.494-0.247-0.694-0.848-0.447-1.342
			c0.247-0.493,0.846-0.692,1.342-0.447l0.355,0.178l0.865-0.865c0.171-0.171,0.393-0.27,0.622-0.289l-0.157-1.255
			c-0.059-0.473,0.224-0.922,0.676-1.072l0.622-0.208l-0.359-1.435c-0.134-0.535,0.192-1.078,0.728-1.212
			c0.536-0.134,1.079,0.19,1.213,0.728l0.583,2.333c0.126,0.507-0.158,1.025-0.654,1.19l-0.723,0.241l0.273,2.187
			c0.047,0.374-0.121,0.742-0.433,0.953c-0.312,0.209-0.716,0.228-1.045,0.045l-0.465-0.259l-0.842,0.842
			C66.015,248.232,65.759,248.333,65.499,248.333z"/>
	</g>
	<g>
		<path fill="#13110C" d="M70.475,259.605c-0.534,0-1.057-0.142-1.508-0.427c-1.003-0.633-1.914-2.174-2.086-2.476
			c-0.273-0.479-0.105-1.09,0.374-1.363c0.48-0.272,1.091-0.106,1.364,0.373c0.328,0.572,0.983,1.502,1.415,1.774
			c0.29,0.182,0.746,0.146,1.104-0.09c0.23-0.151,0.6-0.502,0.499-1.162c-0.472-3.069-4.128-10.77-4.165-10.848
			c-0.237-0.498-0.026-1.095,0.473-1.333c0.499-0.235,1.095-0.026,1.333,0.474c0.156,0.327,3.819,8.046,4.335,11.402
			c0.196,1.271-0.319,2.444-1.378,3.139C71.692,259.426,71.076,259.605,70.475,259.605z"/>
	</g>
	<g>
		<path fill="#13110C" d="M65.375,222.958c-0.367,0-0.72-0.202-0.896-0.553l-1.75-3.5c-0.247-0.494-0.047-1.095,0.447-1.342
			c0.496-0.246,1.095-0.047,1.342,0.447l1.75,3.5c0.247,0.494,0.047,1.095-0.447,1.342
			C65.678,222.924,65.525,222.958,65.375,222.958z"/>
	</g>
	<g>
		<path fill="#13110C" d="M55.249,250.458c-0.222,0-0.446-0.073-0.632-0.226l-1.419-1.158c-0.428-0.349-0.492-0.979-0.143-1.406
			c0.35-0.428,0.98-0.493,1.407-0.143l1.419,1.158c0.428,0.349,0.492,0.979,0.143,1.406
			C55.827,250.332,55.539,250.458,55.249,250.458z"/>
	</g>
	<g>
		<path fill="#13110C" d="M62.666,273.5c-0.479,0-0.901-0.344-0.985-0.831c-0.093-0.544,0.271-1.06,0.814-1.154
			c0.361-0.064,1.386-0.368,1.798-0.986c0.177-0.266,0.412-0.508,0.684-0.789c1.141-1.176,3.049-3.145,2.282-8.899
			c-0.982-7.367-1.608-10.53-1.614-10.561c-0.108-0.542,0.243-1.068,0.785-1.177c0.541-0.114,1.068,0.242,1.176,0.784
			c0.026,0.129,0.643,3.242,1.636,10.689c0.896,6.715-1.527,9.213-2.828,10.556c-0.195,0.201-0.38,0.392-0.456,0.506
			c-0.961,1.441-2.903,1.811-3.122,1.848C62.778,273.495,62.721,273.5,62.666,273.5z"/>
	</g>
	<g>
		<path fill="#13110C" d="M61.694,220.981c-0.419,0-0.81-0.266-0.949-0.686c-0.743-2.242-2.562-6.195-7.012-12.289
			c-0.326-0.446-0.228-1.071,0.218-1.397c0.447-0.326,1.072-0.228,1.397,0.218c4.603,6.304,6.507,10.462,7.295,12.84
			c0.174,0.524-0.111,1.09-0.635,1.264C61.904,220.965,61.798,220.981,61.694,220.981z"/>
	</g>
	<g>
		<path fill="#13110C" d="M75.374,242.583c-0.171,0-0.344-0.044-0.502-0.136l-2-1.166c-0.478-0.278-0.639-0.891-0.36-1.368
			c0.277-0.477,0.89-0.638,1.367-0.36l2,1.166c0.478,0.278,0.639,0.891,0.36,1.368C76.053,242.405,75.718,242.583,75.374,242.583z"
			/>
	</g>
</g>
<g id="Ebene_7">
	<g>
		<path fill="#FFFFFF" d="M293.181,274.545c0,0-14.22,5.492-14.854,5.421c-0.637-0.07-26.031-3.201-26.031-3.201
			s0.168-81.331,0.565-81.392c0.397-0.059,25.466-3.727,25.466-3.727l0.212,1.144l14.642,5.521
			C293.181,198.311,293.838,274.088,293.181,274.545z"/>
	</g>
	<g>
		<path fill="#12100B" d="M278.327,280.966c-0.036,0-0.072-0.002-0.107-0.006l-26.031-2.824c-0.508-0.055-0.893-0.483-0.893-0.994
			v-81.429c0-0.477,0.336-0.884,0.797-0.979c0.152-0.184,0.371-0.312,0.624-0.35l25.466-3.727c0.286-0.039,0.579,0.043,0.799,0.232
			c0.22,0.19,0.346,0.467,0.346,0.757v0.258l5.777,2.598c4.072,1.358,8.094,2.756,8.404,2.864c0.399,0.139,0.668,0.513,0.672,0.936
			c0.681,75.522,0.064,76.448-0.167,76.797c-0.115,0.173-0.281,0.306-0.475,0.38c-2.923,1.122-13.538,4.718-13.989,4.87
			c-0.105,0.036-0.214,0.053-0.32,0.053c-0.001,0-0.002,0-0.002,0c-0.057,0.116-0.135,0.221-0.232,0.309
			C278.811,280.876,278.572,280.966,278.327,280.966z M279.327,194.724v83.558l12.174-4.972l-0.11-73.788l-7.024-3.159
			C282.526,195.749,280.758,195.171,279.327,194.724z M253.861,275.689c7.93,0.941,19.64,2.252,22.824,2.408
			c0.117-7.137-0.036-56.475-0.145-84.182c-0.078-0.019-0.147-0.033-0.209-0.045c-0.036-0.007-0.071-0.016-0.105-0.026
			c-1.582-0.064-13.91,1.517-22.365,2.664V275.689z"/>
	</g>
	<g>
		<path fill="#12100B" d="M275.914,275.545c-0.033,0-0.066-0.002-0.1-0.005l-21.911-2.182c-0.512-0.051-0.901-0.481-0.901-0.995
			l0.02-65.367c0-0.5,0.37-0.924,0.865-0.991c22.12-3.01,22.609-2.425,23.04-1.907c0.318,0.383,0.799,0.961,0.212,69.552
			c-0.002,0.243-0.093,0.478-0.254,0.657c0.026,0.107,0.035,0.221,0.023,0.337C276.856,275.16,276.422,275.545,275.914,275.545z
			 M255.915,270.776c2.623,0.408,12.436,1.251,19.232,1.784c0.203-24.097,0.382-58.632,0.139-66.151
			c-0.025,0.005-0.052,0.008-0.078,0.011l-19.506,1.933C255.729,215.903,255.893,264.064,255.915,270.776z"/>
	</g>
	<g>
		<path fill="#12100B" d="M262.086,201.823c-2.152,0-2.241-0.495-2.344-1.065c-0.043-0.24,0.004-0.478,0.117-0.675
			c-0.196-0.093-0.279-0.203-0.363-0.314c-0.216-0.287-0.268-0.713-0.126-1.042c0.048-0.111,0.093-0.217,0.194-0.32
			c-0.144-0.163-0.234-0.372-0.247-0.604c-0.03-0.529,0.358-0.99,0.886-1.05l8.019-0.904c0.55-0.058,1.045,0.333,1.106,0.882
			c0.022,0.202-0.017,0.396-0.102,0.564c0.061,0.119,0.098,0.253,0.105,0.395c0.015,0.254-0.066,0.492-0.214,0.678
			c0.106,0.135,0.18,0.297,0.205,0.478c0.041,0.282-0.04,0.557-0.206,0.765c0.108,0.136,0.183,0.302,0.207,0.486
			c0.075,0.547-0.307,1.051-0.854,1.126C265.341,201.651,263.354,201.823,262.086,201.823z"/>
	</g>
	<g>
		<path fill="#12100B" d="M275.675,270.94c-0.022,0-0.045-0.001-0.067-0.002c-7.463-0.496-19.65-1.28-20.583-1.186
			c-0.519,0.037-1.028-0.348-1.09-0.882c-0.061-0.534,0.29-1.019,0.821-1.1c0.905-0.143,14.979,0.771,20.984,1.171
			c0.551,0.037,0.968,0.514,0.932,1.064C276.637,270.535,276.197,270.94,275.675,270.94z"/>
	</g>
	<g>
		<path fill="#12100B" d="M275.675,263.392c-0.029,0-0.059-0.001-0.088-0.004c-7.188-0.627-18.999-1.54-20.384-1.336
			c-0.463,0.157-0.98-0.042-1.21-0.489c-0.253-0.491-0.061-1.094,0.431-1.347c0.309-0.16,1.126-0.584,21.337,1.18
			c0.55,0.048,0.957,0.533,0.909,1.083C276.625,262.999,276.188,263.392,275.675,263.392z"/>
	</g>
	<g>
		<path fill="#12100B" d="M254.908,254.765c-0.332,0-0.657-0.166-0.848-0.468c-0.294-0.468-0.153-1.085,0.314-1.379
			c0.286-0.18,1.156-0.728,22.055-0.153c0.552,0.016,0.987,0.476,0.973,1.027c-0.016,0.543-0.46,0.973-0.999,0.973
			c-0.01,0-0.02,0-0.028,0c-9.31-0.256-19.787-0.37-21.066-0.084C255.18,254.737,255.043,254.765,254.908,254.765z"/>
	</g>
	<g>
		<path fill="#12100B" d="M254.881,247.309c-0.139,0-0.279-0.028-0.413-0.09c-0.503-0.229-0.725-0.822-0.496-1.324
			c0.3-0.656,0.302-0.655,11.327-0.627c5.193,0.014,10.38,0.041,10.38,0.041c0.553,0.003,0.998,0.453,0.995,1.005
			c-0.003,0.551-0.45,0.995-1,0.995c-0.002,0-0.004,0-0.005,0c-7.774-0.042-19.56-0.078-20.615-0.015
			C254.997,247.304,254.939,247.309,254.881,247.309z"/>
	</g>
	<g>
		<path fill="#12100B" d="M257.364,241.83c-2.611,0-2.669-0.277-2.785-0.828c-0.029-0.139-0.026-0.278,0.004-0.412
			c-0.237-0.074-0.308-0.174-0.394-0.294c-0.196-0.275-0.24-0.637-0.116-0.951c0.229-0.589,0.304-0.785,6.755-0.699
			c4.546-0.138,10.894-0.377,15.491-0.565c0.532-0.057,1.018,0.406,1.04,0.958c0.019,0.457-0.272,0.855-0.687,0.991
			c-0.022,0.51-0.429,0.926-0.945,0.954C265.227,241.549,259.998,241.83,257.364,241.83z"/>
	</g>
	<g>
		<path fill="#12100B" d="M255.003,235.678c-0.502,0-0.935-0.377-0.992-0.887c-0.062-0.549,0.332-1.045,0.88-1.106
			c0.995-0.113,19.337-0.93,21.426-1.022c0.511-0.042,1.019,0.402,1.043,0.955c0.024,0.552-0.403,1.019-0.955,1.043
			c-8.173,0.363-20.587,0.932-21.287,1.011C255.078,235.676,255.04,235.678,255.003,235.678z"/>
	</g>
	<g>
		<path fill="#12100B" d="M255.798,230.368c-0.397,0-0.773-0.238-0.93-0.631c-0.203-0.514,0.047-1.095,0.561-1.299
			c0.198-0.078,0.727-0.288,20.21-0.972c0.556-0.04,1.016,0.412,1.034,0.964c0.02,0.552-0.412,1.016-0.964,1.034
			c-7.072,0.249-18.594,0.701-19.649,0.869C255.973,230.357,255.885,230.368,255.798,230.368z"/>
	</g>
	<g>
		<path fill="#12100B" d="M255.743,225.645c-0.399,0-0.764-0.255-0.915-0.659c-0.193-0.517,0.103-1.104,0.619-1.297
			c0.919-0.344,13.502-0.822,20.921-1.077c0.557-0.047,1.015,0.413,1.033,0.965c0.02,0.552-0.413,1.015-0.965,1.033
			c-7.322,0.252-19.323,0.738-20.354,0.973C255.969,225.625,255.854,225.645,255.743,225.645z"/>
	</g>
	<g>
		<path fill="#12100B" d="M254.756,221.443c-0.489,0-0.921-0.357-0.994-0.854c-0.079-0.543,0.287-1.047,0.829-1.132
			c0.747-0.116,19.555-1.489,21.697-1.646c0.55-0.046,1.029,0.374,1.069,0.925s-0.373,1.029-0.925,1.069
			c-8.298,0.605-20.883,1.539-21.539,1.629C254.848,221.44,254.802,221.443,254.756,221.443z"/>
	</g>
	<g>
		<path fill="#12100B" d="M254.731,217.042c-0.33,0-0.653-0.163-0.845-0.463c-0.296-0.466-0.159-1.084,0.307-1.381
			c0.251-0.16,0.92-0.586,21.399-2.242c0.562-0.036,1.033,0.366,1.078,0.916c0.044,0.551-0.366,1.033-0.916,1.078
			c-7.341,0.593-19.351,1.655-20.612,2.003C255.011,217.013,254.87,217.042,254.731,217.042z"/>
	</g>
	<g>
		<path fill="#12100B" d="M255.044,211.496c-0.435,0-0.845-0.275-0.975-0.706c-0.154-0.513,0.101-1.05,0.606-1.226
			c0.996-0.346,14.96-1.494,20.918-1.972c0.567-0.043,1.033,0.367,1.077,0.917c0.044,0.551-0.366,1.033-0.917,1.077
			c-7.388,0.592-19.473,1.625-20.455,1.877C255.214,211.485,255.129,211.496,255.044,211.496z"/>
	</g>
</g>
<g id="Ebene_7_Kopie">
	<g>
		<path fill="#FFFFFF" d="M347.368,273.754c0,0,11.292,5.493,11.927,5.422c0.636-0.071,26.764-3.202,26.764-3.202
			s-0.17-81.331-0.565-81.391c-0.398-0.059-26.198-3.727-26.198-3.727L359.082,192l-11.714,4.788
			C347.368,196.788,346.711,273.297,347.368,273.754z"/>
	</g>
	<g>
		<path fill="#12100B" d="M359.295,280.176c-0.246,0-0.484-0.091-0.669-0.257c-0.098-0.088-0.176-0.192-0.231-0.309
			c-0.001,0-0.002,0-0.004,0c-0.14,0-0.282-0.029-0.418-0.092c-0.08-0.037-8.089-3.727-10.963-4.831
			c-0.193-0.074-0.359-0.207-0.474-0.379c-0.232-0.349-0.849-1.273-0.168-77.529c0.004-0.414,0.263-0.783,0.65-0.928
			c0.249-0.094,3.497-1.303,6.841-2.481l4.436-2.228v-0.286c0-0.29,0.126-0.565,0.345-0.755c0.218-0.19,0.509-0.277,0.796-0.235
			l26.198,3.727c0.254,0.036,0.475,0.166,0.628,0.351c0.461,0.096,0.797,0.503,0.797,0.979v81.429c0,0.512-0.386,0.94-0.896,0.994
			l-26.764,2.824C359.365,280.174,359.33,280.176,359.295,280.176z M349.048,272.586l9.247,4.845v-83.467
			c-1.097,0.361-2.367,0.8-3.658,1.254l-5.479,2.751L349.048,272.586z M361.08,193.126c-0.108,27.707-0.262,77.046-0.145,84.183
			c3.244-0.151,15.363-1.468,23.558-2.412v-79.172c-8.73-1.151-21.473-2.759-23.099-2.67c-0.034,0.011-0.069,0.02-0.105,0.026
			C361.227,193.093,361.156,193.107,361.08,193.126z"/>
	</g>
	<g>
		<path fill="#12100B" d="M362.439,274.754c-0.508,0-0.942-0.385-0.994-0.901c-0.012-0.116-0.003-0.229,0.023-0.337
			c-0.161-0.18-0.252-0.414-0.254-0.657c-0.586-68.592-0.105-69.169,0.213-69.551c0.431-0.518,0.919-1.104,23.039,1.906
			c0.495,0.067,0.865,0.491,0.865,0.991l0.02,65.368c0,0.514-0.39,0.944-0.901,0.995l-21.911,2.181
			C362.506,274.752,362.473,274.754,362.439,274.754z M363.068,205.619c-0.243,7.52-0.065,42.055,0.138,66.15
			c6.797-0.532,16.61-1.375,19.233-1.783c0.022-6.712,0.187-54.873,0.212-62.424l-19.506-1.933
			C363.119,205.627,363.094,205.624,363.068,205.619z"/>
	</g>
	<g>
		<path fill="#12100B" d="M376.268,201.033c-1.27,0-3.256-0.172-6.385-0.603c-0.548-0.075-0.93-0.579-0.854-1.126
			c0.025-0.185,0.099-0.351,0.207-0.486c-0.166-0.209-0.247-0.482-0.206-0.766c0.025-0.181,0.099-0.343,0.205-0.478
			c-0.147-0.186-0.229-0.424-0.214-0.678c0.008-0.142,0.045-0.274,0.105-0.395c-0.085-0.168-0.124-0.361-0.102-0.563
			c0.062-0.549,0.551-0.944,1.106-0.882l8.021,0.903c0.526,0.06,0.916,0.521,0.886,1.05c-0.013,0.232-0.104,0.441-0.247,0.604
			c0.102,0.104,0.146,0.21,0.194,0.32c0.142,0.329,0.09,0.755-0.125,1.041c-0.085,0.112-0.169,0.223-0.365,0.315
			c0.113,0.197,0.16,0.434,0.117,0.675C378.51,200.538,378.421,201.033,376.268,201.033z"/>
	</g>
	<g>
		<path fill="#12100B" d="M362.679,270.15c-0.522,0-0.962-0.405-0.997-0.934c-0.036-0.551,0.381-1.027,0.932-1.064
			c6.005-0.399,20.069-1.312,20.985-1.171c0.546,0.084,0.92,0.596,0.836,1.141c-0.084,0.546-0.592,0.921-1.141,0.836
			c-0.897-0.073-13.085,0.694-20.548,1.19C362.724,270.149,362.701,270.15,362.679,270.15z"/>
	</g>
	<g>
		<path fill="#12100B" d="M362.679,262.602c-0.513,0-0.95-0.393-0.995-0.913c-0.048-0.55,0.359-1.035,0.909-1.083
			c20.204-1.765,21.028-1.34,21.338-1.18c0.491,0.253,0.684,0.856,0.431,1.347c-0.23,0.447-0.749,0.644-1.211,0.489
			c-1.387-0.205-13.197,0.709-20.384,1.336C362.737,262.601,362.708,262.602,362.679,262.602z"/>
	</g>
	<g>
		<path fill="#12100B" d="M383.445,253.974c-0.135,0-0.271-0.027-0.4-0.084c-1.28-0.287-11.757-0.172-21.066,0.084
			c-0.009,0-0.019,0-0.028,0c-0.539,0-0.983-0.43-0.999-0.973c-0.015-0.552,0.421-1.012,0.973-1.027
			c20.898-0.573,21.769-0.026,22.055,0.153c0.468,0.294,0.608,0.911,0.314,1.379C384.103,253.808,383.777,253.974,383.445,253.974z"
			/>
	</g>
	<g>
		<path fill="#12100B" d="M383.474,246.519c-0.059,0-0.116-0.005-0.173-0.015c-1.056-0.063-12.841-0.027-20.616,0.015
			c-0.001,0-0.003,0-0.005,0c-0.55,0-0.997-0.444-1-0.995c-0.003-0.552,0.442-1.002,0.995-1.005c0,0,5.187-0.027,10.38-0.041
			c11.039-0.027,11.029-0.028,11.328,0.627c0.229,0.502,0.007,1.096-0.496,1.324C383.753,246.49,383.612,246.519,383.474,246.519z"
			/>
	</g>
	<g>
		<path fill="#12100B" d="M380.987,241.04c-2.633,0-7.861-0.282-18.361-0.847c-0.517-0.028-0.924-0.444-0.945-0.955
			c-0.414-0.137-0.704-0.534-0.686-0.991c0.021-0.552,0.486-1.004,1.04-0.958c4.605,0.188,10.967,0.429,15.515,0.566
			c6.42-0.092,6.501,0.111,6.731,0.702c0.122,0.313,0.078,0.673-0.117,0.947c-0.086,0.12-0.156,0.22-0.394,0.294
			c0.03,0.134,0.033,0.274,0.004,0.412C383.658,240.763,383.599,241.04,380.987,241.04z"/>
	</g>
	<g>
		<path fill="#12100B" d="M383.351,234.887c-0.037,0-0.075-0.002-0.114-0.007c-0.7-0.079-13.113-0.647-21.286-1.011
			c-0.552-0.024-0.979-0.491-0.955-1.043c0.024-0.553,0.532-0.988,1.043-0.955c2.089,0.093,20.43,0.909,21.425,1.022
			c0.548,0.062,0.942,0.558,0.88,1.106C384.285,234.51,383.853,234.887,383.351,234.887z"/>
	</g>
	<g>
		<path fill="#12100B" d="M382.557,229.578c-0.087,0-0.175-0.011-0.262-0.034c-1.056-0.168-12.577-0.621-19.65-0.87
			c-0.552-0.019-0.983-0.482-0.964-1.034c0.019-0.553,0.526-1.008,1.034-0.964c19.484,0.685,20.013,0.895,20.211,0.973
			c0.514,0.204,0.764,0.785,0.561,1.299C383.33,229.34,382.954,229.578,382.557,229.578z"/>
	</g>
	<g>
		<path fill="#12100B" d="M382.557,224.834c-0.116,0-0.234-0.021-0.35-0.062c-0.964-0.214-12.967-0.701-20.29-0.953
			c-0.552-0.019-0.984-0.481-0.965-1.033c0.019-0.552,0.484-1.014,1.033-0.965c7.419,0.255,20.001,0.734,20.921,1.076
			c0.517,0.193,0.78,0.77,0.588,1.287C383.344,224.586,382.962,224.834,382.557,224.834z"/>
	</g>
	<g>
		<path fill="#12100B" d="M383.609,220.655c-0.051,0-0.103-0.004-0.155-0.012c-0.65-0.089-13.234-1.022-21.532-1.628
			c-0.552-0.04-0.965-0.519-0.925-1.069s0.521-0.965,1.069-0.925c2.143,0.156,20.949,1.529,21.696,1.646
			c0.545,0.085,0.919,0.597,0.834,1.143C384.52,220.303,384.094,220.655,383.609,220.655z"/>
	</g>
	<g>
		<path fill="#12100B" d="M383.622,216.252c-0.139,0-0.279-0.029-0.411-0.089c-1.263-0.348-13.271-1.41-20.611-2.003
			c-0.551-0.045-0.961-0.527-0.917-1.077c0.045-0.551,0.532-0.959,1.077-0.917c20.479,1.655,21.149,2.082,21.401,2.243
			c0.465,0.297,0.602,0.915,0.305,1.381C384.275,216.089,383.952,216.252,383.622,216.252z"/>
	</g>
	<g>
		<path fill="#12100B" d="M383.35,210.718c-0.108,0-0.219-0.018-0.327-0.055c-0.948-0.241-13.035-1.274-20.423-1.866
			c-0.551-0.044-0.961-0.526-0.917-1.077c0.044-0.55,0.521-0.953,1.077-0.917c5.957,0.478,19.922,1.626,20.917,1.97
			c0.521,0.181,0.799,0.75,0.618,1.272C384.151,210.458,383.764,210.718,383.35,210.718z"/>
	</g>
</g>
<g id="Ebene_9">
	<g>
		<path fill="#FFFFFF" d="M301.708,274.795c0,0-0.12-78.996,0-79.185c0.121-0.188,5.611-7.548,6.532-7.488
			c0.92,0.058,33.649,1.146,33.649,1.146l0.003,0.902l0.585,0.507l0.585,88.818l-0.71,0.177l0.005,0.882l-33.654,0.717
			C308.703,281.271,306.937,278.995,301.708,274.795z"/>
	</g>
	<g>
		<path fill="#12100B" d="M314.378,282.547c-5.745,0-6.135-0.347-6.339-0.528c-0.062-0.057-0.125-0.111-0.185-0.239
			c-0.318,0.068-0.67-0.024-0.919-0.275l-5.938-6.006c-0.186-0.188-0.289-0.439-0.289-0.703V195.61c0-0.448,0-0.719,6.293-8.164
			c0.092-0.108,0.204-0.194,0.328-0.255c0.052-0.107,0.122-0.206,0.21-0.291c0.198-0.191,0.47-0.287,0.742-0.278l33.657,1.646
			c0.53,0.026,0.948,0.463,0.951,0.994v0.033c0.345,0.157,0.583,0.503,0.586,0.903l0.587,89.289
			c0.003,0.451-0.293,0.836-0.706,0.963l0.001,0.098c0.003,0.534-0.415,0.977-0.949,1.004
			C327.493,282.311,319.115,282.547,314.378,282.547z M309.485,209.917l0.793,70.073l31.069-1.418l-0.448-87.46l-31.205-1.901
			C309.621,195.672,309.549,202.705,309.485,209.917z M303.299,273.857l4.2,5.176c-0.241-4.361-0.358-15.471-0.192-44.534
			c0.049-8.488,0.115-17.001,0.181-24.358l-0.215-18.941l-3.392,4.735L303.299,273.857z"/>
	</g>
	<g>
		<path fill="#12100B" d="M314.486,276.433c-2.8,0-2.925-0.252-3.1-0.605c-0.135-0.27-0.338-0.678-0.6-74.457
			c-0.002-0.552,0.442-1.001,0.994-1.004c0.092,0.006,0.172,0.011,0.253,0.031c0.09-0.023,0.191-0.039,0.28-0.03l28.314,0.919
			c0.54,0.017,0.968,0.459,0.968,0.999v71.006c0,0.042-0.003,0.084-0.008,0.125l0.008,0.664c0.006,0.532-0.406,0.977-0.938,1.01
			C325.007,276.072,317.835,276.433,314.486,276.433z M312.805,203.433c0.169,19.705,0.594,63.466,0.87,70.016
			c3.38-0.047,16.493-0.646,25.901-1.108l-0.791-68.362L312.805,203.433z"/>
	</g>
	<g>
		<path fill="#12100B" d="M340.597,208.124c-0.128,0-0.25-0.023-0.362-0.067c-1.705-0.249-17.932-0.655-28.608-0.871
			c-0.552-0.012-0.99-0.468-0.979-1.021c0.011-0.552,0.479-0.962,1.021-0.979c29.93,0.604,29.93,0.604,29.93,1.938
			C341.597,207.677,341.149,208.124,340.597,208.124z"/>
	</g>
	<g>
		<path fill="#12100B" d="M339.774,213.059c-0.048,0-0.096-0.003-0.145-0.011c-0.836-0.085-16.756-0.392-27.248-0.576
			c-0.552-0.01-0.992-0.466-0.982-1.018s0.466-0.995,1.018-0.982c4.444,0.078,26.657,0.476,27.5,0.598
			c0.547,0.079,0.926,0.586,0.846,1.133C340.691,212.7,340.264,213.059,339.774,213.059z"/>
	</g>
	<g>
		<path fill="#12100B" d="M340.596,218.345c-0.102,0-0.205-0.016-0.306-0.048c-1.411-0.251-17.42-0.74-27.916-1.01
			c-0.553-0.015-0.988-0.474-0.975-1.025c0.015-0.553,0.454-0.997,1.025-0.975c27.715,0.712,28.371,1.039,28.618,1.163
			c0.494,0.246,0.695,0.847,0.448,1.341C341.316,218.142,340.963,218.345,340.596,218.345z"/>
	</g>
	<g>
		<path fill="#12100B" d="M340.479,247.364h-28.196c-0.553,0-1-0.447-1-1s0.447-1,1-1h28.196c0.553,0,1,0.447,1,1
			S341.031,247.364,340.479,247.364z"/>
	</g>
	<g>
		<path fill="#12100B" d="M340.949,255.001h-28.197c-0.553,0-1-0.447-1-1s0.447-1,1-1h28.197c0.553,0,1,0.447,1,1
			S341.502,255.001,340.949,255.001z"/>
	</g>
	<g>
		<path fill="#12100B" d="M312.398,263.156c-0.532,0-0.975-0.42-0.998-0.957c-0.023-0.552,0.404-1.019,0.956-1.042
			c27.564-1.188,28.441-0.644,28.771-0.438c0.468,0.292,0.61,0.909,0.317,1.378c-0.261,0.419-0.783,0.578-1.224,0.396
			c-1.658-0.319-17.866,0.233-27.778,0.661C312.428,263.156,312.413,263.156,312.398,263.156z"/>
	</g>
	<g>
		<path fill="#12100B" d="M312.398,271.005c-0.527,0-0.969-0.413-0.998-0.946c-0.029-0.551,0.394-1.022,0.945-1.052
			c28.272-1.531,28.525-1.298,28.936-0.909c0.199,0.188,0.315,0.458,0.315,0.732c0,0.553-0.447,1-1,1
			c-0.103,0-0.202-0.016-0.295-0.044c-1.716-0.129-17.478,0.655-27.849,1.218C312.436,271.005,312.417,271.005,312.398,271.005z"/>
	</g>
	<g>
		<path fill="#12100B" d="M311.752,222.812c-0.551,0-0.998-0.445-1-0.996c-0.002-0.552,0.443-1.002,0.996-1.004
			c29.143-0.117,29.145-0.117,29.554,0.291l-0.705,0.709h-1h1l-0.126,0.989c-0.89-0.073-17.66-0.033-28.715,0.011
			C311.755,222.812,311.753,222.812,311.752,222.812z"/>
	</g>
	<g>
		<path fill="#12100B" d="M311.787,227.86c-0.549,0-0.995-0.442-1-0.992c-0.005-0.552,0.439-1.003,0.992-1.008
			c28.994-0.234,29.126-0.103,29.521,0.287c0.189,0.188,0.297,0.446,0.297,0.713c0,0.642-0.663,1.122-1.257,0.967
			c-1.528-0.131-17.809-0.054-28.545,0.033C311.792,227.86,311.79,227.86,311.787,227.86z"/>
	</g>
	<g>
		<path fill="#12100B" d="M312.399,233.266c-0.543,0-0.988-0.435-1-0.979c-0.012-0.552,0.427-1.009,0.979-1.021
			c28.041-0.583,28.522-0.11,28.908,0.268c0.192,0.188,0.31,0.464,0.31,0.732c0,0.553-0.447,1-1,1c-0.163,0-0.317-0.039-0.454-0.108
			c-1.931-0.3-17.898-0.097-27.723,0.108C312.413,233.266,312.406,233.266,312.399,233.266z"/>
	</g>
	<g>
		<path fill="#12100B" d="M317.198,239.601c-5.354,0-5.454-0.219-5.714-0.786c-0.086-0.188-0.108-0.401-0.072-0.604
			c-0.321-0.164-0.543-0.497-0.546-0.884c-0.005-0.552,0.439-1.003,0.992-1.008c28.909-0.236,29.045-0.105,29.441,0.287
			c0.188,0.188,0.297,0.446,0.297,0.713c0,0.26-0.022,0.455-0.109,0.603c0.071,0.14,0.109,0.296,0.109,0.454
			c0,0.635-0.648,1.118-1.238,0.972c-0.742-0.051-5.15,0.021-9.42,0.088C324.348,239.539,320.035,239.601,317.198,239.601z"/>
	</g>
	<g>
		<path fill="#12100B" d="M332.731,198.021c-0.145,0-0.285-0.031-0.414-0.09c-0.964-0.129-6.177-0.059-10.846,0.089
			c-0.011,0.001-0.021,0.001-0.032,0.001c-0.523,0-0.961-0.406-0.997-0.933c-0.022-0.333,0.122-0.641,0.362-0.839
			c-0.612-0.165-0.685-0.379-0.783-0.672c-0.102-0.299-0.053-0.644,0.127-0.903c0.018-0.025,0.033-0.049,0.05-0.072
			c-0.149-0.181-0.237-0.415-0.229-0.669c0.017-0.552,0.482-1.027,1.03-0.968c7.557,0.236,11.581,0.405,11.962,0.501
			c0.48,0.121,0.812,0.582,0.764,1.075c-0.029,0.305-0.05,0.508-0.237,0.649c0.143,0.166,0.232,0.379,0.242,0.612
			c0.01,0.222-0.054,0.43-0.17,0.601c0.061,0.099,0.093,0.209,0.13,0.334c0.156,0.529-0.146,1.086-0.676,1.242
			C332.92,198.009,332.825,198.021,332.731,198.021z"/>
	</g>
	<g>
		<path fill="#F39423" d="M62.366,183.5c-0.076,0-0.154-0.009-0.231-0.026c-0.538-0.128-0.87-0.666-0.743-1.204
			c0.236-0.998,0.492-1.98,0.766-2.951c-0.197,0.035-0.409,0.006-0.604-0.093c-0.494-0.246-0.695-0.847-0.449-1.341
			c0.053-0.105,1.503-2.975,4.223-7.445c6.124-14.109,16.148-24.754,25.683-32.344c6.168-5.875,13.191-11.377,20.976-15.643
			l-5.171-0.97c-0.498-0.093-0.847-0.543-0.814-1.049c0.034-0.505,0.439-0.906,0.944-0.933l16-0.858
			c0.388-0.022,0.738,0.176,0.924,0.507c0.187,0.331,0.17,0.738-0.043,1.053l-9.132,13.47c-0.276,0.408-0.807,0.553-1.252,0.344
			c-0.445-0.208-0.672-0.71-0.536-1.183l2.05-7.096c-3.836,1.708-12.962,6.176-22.609,13.836
			c-11.83,11.274-20.477,23.966-25.235,31.774c-1.54,3.566-2.822,7.357-3.774,11.382C63.229,183.19,62.819,183.5,62.366,183.5z
			 M116.5,123c0.247,0,0.49,0.091,0.678,0.265c0.278,0.257,0.388,0.649,0.283,1.013l-0.882,3.054l4.463-6.583l-5.715,0.307
			c0.351,0.121,0.611,0.43,0.664,0.806c0.06,0.425-0.158,0.84-0.542,1.033c-1.83,0.918-3.621,1.909-5.369,2.96
			c3.647-1.849,5.965-2.75,6.065-2.789C116.26,123.021,116.38,123,116.5,123z"/>
	</g>
	<g>
		<path fill="#C9CAD1" d="M274,184.75c-0.2,0-0.397-0.06-0.566-0.176l-8-5.5c-0.417-0.287-0.555-0.841-0.319-1.289
			c0.236-0.449,0.768-0.647,1.242-0.47l3.78,1.44c-0.785-5.461-4.799-25.314-7.615-38.801c-0.113-0.541,0.233-1.07,0.774-1.184
			c0.16-0.033,0.322-0.027,0.47,0.015l-0.745-3.582c-0.112-0.541,0.235-1.07,0.776-1.183c0.535-0.115,1.069,0.234,1.183,0.775
			l8.907,42.855l1.968-1.665c0.346-0.293,0.844-0.316,1.215-0.059c0.372,0.258,0.524,0.732,0.372,1.158l-2.5,7
			c-0.104,0.293-0.338,0.521-0.634,0.615C274.207,184.734,274.104,184.75,274,184.75z M271.845,181.055l1.65,1.135l0.812-2.274
			l-0.412,0.349c-0.268,0.229-0.637,0.298-0.972,0.182c-0.333-0.114-0.581-0.396-0.653-0.742l-0.136-0.655
			c0.156,1.356,0.07,1.528,0.01,1.649C272.071,180.843,271.968,180.964,271.845,181.055z"/>
	</g>
	<g>
		<path fill="#C9CAD1" d="M314.5,178c-0.106,0-0.213-0.017-0.316-0.052l-10.5-3.5c-0.457-0.152-0.741-0.609-0.674-1.087
			c0.066-0.478,0.465-0.84,0.947-0.86l3.64-0.158l-32.592-36.426c-0.368-0.412-0.333-1.044,0.078-1.412
			c0.071-0.063,0.148-0.115,0.229-0.154l-1.059-1.184c-0.367-0.412-0.332-1.044,0.08-1.412c0.41-0.367,1.042-0.333,1.412,0.079
			l34.747,38.879l1.854-3.893c0.19-0.4,0.609-0.631,1.062-0.558c0.438,0.07,0.777,0.42,0.834,0.86l1.25,9.75
			c0.043,0.341-0.091,0.681-0.357,0.899C314.954,177.922,314.729,178,314.5,178z M309.454,174.264l3.852,1.284l-0.615-4.797
			l-1.037,2.179c-0.145,0.303-0.43,0.513-0.762,0.561c-0.058,0.009-0.119,0.011-0.173,0.01c-0.013,0.047-0.028,0.093-0.047,0.139
			c-0.15,0.355-0.492,0.594-0.879,0.61L309.454,174.264z"/>
	</g>
	<g>
		<path fill="#C9CAD1" d="M355,178.5c-0.053,0-0.106-0.004-0.16-0.013l-9.25-1.5c-0.492-0.08-0.851-0.511-0.84-1.009
			c0.011-0.499,0.388-0.913,0.883-0.972c0.114-0.014,1.906-0.223,3.842-0.368l-69.04-47.314c-0.455-0.312-0.571-0.935-0.26-1.39
			c0.313-0.455,0.935-0.572,1.391-0.259l43.521,29.826l-43.179-31.695c-0.445-0.327-0.541-0.953-0.214-1.398
			c0.325-0.445,0.951-0.542,1.397-0.214l69.08,50.708l0.333-3.496c0.047-0.496,0.452-0.882,0.95-0.904
			c0.468-0.034,0.936,0.324,1.027,0.814l1.5,8c0.061,0.32-0.039,0.649-0.267,0.883C355.526,178.393,355.268,178.5,355,178.5z
			 M353.217,176.197l0.538,0.088l-0.14-0.746c-0.039,0.029-0.079,0.057-0.122,0.081c-0.008,0.059-0.02,0.118-0.038,0.176
			C353.407,175.95,353.324,176.087,353.217,176.197z"/>
	</g>
</g>
<g id="Ebene_8">
	<g>
		<path fill="#FFFFFF" d="M143.04,119.713c0,0,0.391-14.851,0-20.908c-0.391-6.058-0.391-66.046-0.195-66.828
			s105.127-0.782,110.989-1.172c5.862-0.391,24.23-0.782,24.23-0.782s-2.735,85.782-1.563,89.104
			c-6.058,1.172-61.942,2.149-65.46,2.149c-3.517,0-30.613-0.195-30.613-0.195l-35.434-0.195c0,0-0.782-26.184-0.977-31.46
			s-2.735-58.816-2.54-59.403c0.195-0.586,128.966-0.977,135.023-2.345c0.391,7.23-1.759,93.989-1.759,93.989l-129.356,0.586"/>
		<path d="M145.385,123.253c-0.55,0-0.998-0.445-1-0.996c-0.001-0.18,0.046-0.349,0.128-0.495c-0.301-0.165-0.508-0.481-0.519-0.847
			c-0.001-0.027-0.01-0.32-0.025-0.833c-0.151,0.378-0.523,0.651-0.956,0.63c-0.552-0.014-0.988-0.474-0.973-1.026
			c0.004-0.148,0.385-14.875,0.001-20.817c-0.174-2.698-0.298-21.412-0.329-38.401c-1.301-28.861-1.303-30.406-1.185-30.761
			c0.277-0.833,0.277-0.833,14.505-1.022c8.335-0.111,19.81-0.224,32.404-0.348c36.005-0.354,85.315-0.838,88.843-1.635
			c0.289-0.064,0.589,0,0.824,0.178c0.234,0.178,0.379,0.45,0.395,0.744c0.018,0.322,0.03,0.796,0.038,1.41
			c0.312-0.007,0.489-0.011,0.506-0.011c0.274-0.003,0.539,0.102,0.732,0.297c0.193,0.195,0.297,0.461,0.288,0.735
			c-1.088,34.13-2.416,85.932-1.615,88.753c0.076,0.27,0.044,0.582-0.103,0.82c-0.147,0.238-0.38,0.428-0.654,0.481
			c-0.236,0.045-0.542,0.09-0.914,0.135c-0.018,0.743-0.03,1.237-0.035,1.448c-0.014,0.541-0.455,0.973-0.995,0.975l-129.357,0.586
			C145.388,123.253,145.386,123.253,145.385,123.253z M273.771,120.435c-1.092,0.086-2.412,0.171-3.914,0.253l3.908-0.018
			C273.768,120.597,273.77,120.518,273.771,120.435z M145.964,119.891l34.468,0.19c0.273,0.002,27.135,0.195,30.607,0.195
			c3.611,0,50.406-0.84,62.78-1.848c0.348-14.287,1.725-71.92,1.728-87.349c-5.249,0.123-17.18,0.425-21.648,0.722
			c-2.403,0.16-20.917,0.254-42.354,0.362c-26.459,0.134-62.156,0.314-67.738,0.686c-0.066,3.083-0.101,14.893-0.088,27.717
			c0.208,4.604,0.412,9.096,0.588,12.952c0.362,7.948,0.648,14.226,0.709,15.869C145.188,94.031,145.821,115.108,145.964,119.891z
			 M142.473,30.932c0.001,0.052,0.003,0.107,0.004,0.165c0.255-0.082,0.63-0.15,1.192-0.208
			C143.188,30.903,142.788,30.917,142.473,30.932z M275.533,28.81c-6.893,0.632-37.723,1.021-77.978,1.427
			c4.731-0.025,9.445-0.049,13.979-0.072c21.404-0.108,39.89-0.202,42.231-0.357c4.514-0.301,16.528-0.604,21.771-0.727
			C275.536,28.986,275.535,28.896,275.533,28.81z"/>
	</g>
	<g>
		<line fill="#FFFFFF" x1="277.478" y1="35.494" x2="143.431" y2="37.057"/>
		<path d="M143.431,38.057c-0.547,0-0.994-0.44-1-0.988c-0.006-0.552,0.436-1.005,0.988-1.012l134.047-1.563
			c0.551-0.007,1.005,0.436,1.012,0.988s-0.437,1.005-0.988,1.012l-134.047,1.563C143.438,38.057,143.435,38.057,143.431,38.057z"/>
	</g>
	<g>
		<path fill="#FFFFFF" d="M143.04,54.644c0,0,128.966-3.126,132.875-2.736"/>
		<path d="M143.039,55.644c-0.541,0-0.986-0.432-0.999-0.976c-0.014-0.552,0.423-1.011,0.975-1.024
			c5.269-0.128,129.071-3.122,132.999-2.731c0.55,0.055,0.95,0.545,0.896,1.095s-0.539,0.952-1.095,0.896
			c-3.032-0.303-88.166,1.66-132.75,2.74C143.056,55.644,143.047,55.644,143.039,55.644z"/>
	</g>
	<g>
		<path fill="#FFFFFF" d="M240.741,40.184l-0.781,5.471c0,0-76.989,0.782-80.116,0.782c-0.391-1.954,0.391-3.908,0.391-3.908
			s22.667-0.782,32.046-0.782C201.66,41.747,240.741,40.184,240.741,40.184z"/>
		<path d="M159.844,47.437c-0.477,0-0.887-0.336-0.98-0.804c-0.444-2.22,0.407-4.384,0.443-4.476
			c0.147-0.368,0.498-0.614,0.894-0.628c0.227-0.008,22.792-0.782,32.081-0.782c9.252,0,48.029-1.546,48.42-1.562
			c0.299-0.012,0.582,0.109,0.782,0.329c0.199,0.221,0.29,0.518,0.248,0.812l-0.781,5.471c-0.07,0.489-0.486,0.854-0.98,0.858
			C239.2,46.663,162.94,47.437,159.844,47.437z M160.977,43.504c-0.124,0.474-0.26,1.177-0.24,1.928
			c8.579-0.062,70.308-0.687,78.355-0.768l0.49-3.433c-6.65,0.262-38.937,1.516-47.301,1.516
			C183.956,42.747,164.886,43.373,160.977,43.504z"/>
	</g>
	<g>
		<polygon fill="#FFFFFF" points="248.558,40.574 248.558,45.655 255.982,45.264 255.592,39.792 		"/>
		<path d="M248.558,46.655c-0.256,0-0.502-0.098-0.688-0.274c-0.199-0.189-0.312-0.451-0.312-0.726v-5.081
			c0-0.51,0.383-0.938,0.89-0.994l7.034-0.782c0.271-0.028,0.541,0.051,0.75,0.225s0.339,0.426,0.357,0.697l0.391,5.472
			c0.02,0.268-0.07,0.532-0.248,0.733c-0.177,0.201-0.429,0.322-0.696,0.336l-7.425,0.391
			C248.593,46.654,248.575,46.655,248.558,46.655z M249.558,41.469v3.131l5.354-0.282l-0.244-3.417L249.558,41.469z"/>
	</g>
	<g>
		<path fill="#FFFFFF" d="M264.189,39.792c0,0-1.562,5.862-0.391,6.253c1.173,0.391,7.426,0,7.426,0l0.391-5.862L264.189,39.792z"/>
		<path d="M266.245,47.219L266.245,47.219c-1.851,0-2.448-0.12-2.763-0.225c-0.564-0.188-2.063-0.688-0.259-7.459
			c0.122-0.458,0.543-0.768,1.019-0.741l7.426,0.391c0.268,0.014,0.518,0.135,0.695,0.335s0.268,0.463,0.25,0.73l-0.391,5.862
			c-0.033,0.501-0.434,0.9-0.936,0.932C271.172,47.051,268.451,47.219,266.245,47.219z M264.377,45.144
			c0.279,0.035,0.828,0.076,1.868,0.076c1.397,0,3.051-0.072,4.041-0.123l0.264-3.967l-5.591-0.294
			C264.525,42.667,264.282,44.456,264.377,45.144z"/>
	</g>
	<g>
		<path d="M202.051,122.471c-0.533,0-0.977-0.421-0.998-0.959c-0.006-0.144-0.59-14.54-0.88-28.989
			c-0.596-29.693,0.553-30.65,1.24-31.222c0.164-0.137,0.367-0.218,0.581-0.23c6.586-0.388,62.395-1.554,62.958-1.565
			c0.276,0.011,0.537,0.101,0.729,0.295c0.193,0.194,0.298,0.458,0.291,0.732c-0.008,0.289-0.772,29.013-0.002,40.943
			c0.781,12.125-0.741,18.775-0.807,19.052c-0.126,0.537-0.661,0.874-1.202,0.744c-0.537-0.126-0.871-0.664-0.745-1.202
			c0.016-0.065,1.519-6.673,0.758-18.466c-0.691-10.714-0.158-34.767-0.028-40.077c-7.534,0.158-53.269,1.13-61.268,1.51
			c-1.282,4.382-0.471,37.724,0.373,58.393c0.022,0.552-0.406,1.018-0.958,1.04C202.079,122.471,202.064,122.471,202.051,122.471z"
			/>
	</g>
	<g>
		<path d="M162.189,112.311c-0.301,0-0.586-0.136-0.776-0.37c-0.194-0.239-0.267-0.554-0.198-0.854
			c0.011-0.049,1.121-4.987,0.374-10.586c-0.782-5.86-0.791-37.479-0.791-38.822c0-0.51,0.384-0.939,0.892-0.994
			c0.107-0.012,10.841-1.174,17.53-1.174c4.451,0,5.635,0.483,6.103,1.263c1.199,1.999-0.321,35.77-1.031,50.196
			c-0.026,0.525-0.455,0.941-0.98,0.951l-21.104,0.391C162.202,112.311,162.196,112.311,162.189,112.311z M162.799,62.579
			c0.007,5.315,0.08,32.467,0.772,37.657c0.573,4.298,0.136,8.15-0.172,10.053l18.941-0.351c0.852-17.537,1.896-44.91,1.267-48.057
			c-0.31-0.117-1.332-0.371-4.386-0.371C173.756,61.509,165.504,62.303,162.799,62.579z"/>
	</g>
	<g>
		<path d="M239.178,84.172c-0.255,0-0.5-0.097-0.687-0.273c-0.2-0.189-0.313-0.452-0.313-0.727V65.586
			c0-0.334,0.167-0.646,0.445-0.832c0.393-0.261,0.984-0.656,11.347-0.656c4.985,0,9.892,0.097,9.94,0.098
			c0.267,0.005,0.519,0.116,0.703,0.308c0.184,0.192,0.283,0.449,0.277,0.715L260.5,82.023c-0.013,0.521-0.422,0.945-0.942,0.975
			l-20.322,1.172C239.216,84.172,239.197,84.172,239.178,84.172z M240.178,66.372v15.741l18.344-1.058l0.346-14.877
			c-1.688-0.028-5.272-0.08-8.897-0.08C243.597,66.098,241.13,66.255,240.178,66.372z"/>
	</g>
	<g>
		<path d="M205.568,69.322c-0.553,0-1-0.448-1-1s0.447-1,1-1c0.179,0,17.936-0.009,22.098-0.766
			c0.542-0.097,1.064,0.262,1.162,0.805c0.1,0.543-0.261,1.064-0.805,1.163C223.686,69.312,206.306,69.322,205.568,69.322z"/>
	</g>
	<g>
		<path d="M205.958,76.356c-0.516,0-0.953-0.396-0.996-0.918c-0.045-0.551,0.365-1.033,0.916-1.078
			c0.786-0.064,19.326-1.566,24.464-0.773c0.546,0.084,0.92,0.595,0.836,1.14c-0.084,0.546-0.592,0.922-1.141,0.836
			c-4.905-0.754-23.806,0.774-23.997,0.79C206.013,76.355,205.985,76.356,205.958,76.356z"/>
	</g>
	<g>
		<path d="M230.971,82.218c-0.15,0-0.303-0.034-0.446-0.105c-3.627-1.813-18.596-0.542-24.057,0.099
			c-0.558,0.063-1.046-0.328-1.11-0.876s0.328-1.045,0.876-1.11c2.07-0.243,20.366-2.309,25.186,0.099
			c0.494,0.247,0.694,0.848,0.447,1.342C231.691,82.016,231.338,82.218,230.971,82.218z"/>
	</g>
	<g>
		<path d="M206.455,88.856l-0.209-1.989c0,0,14.846-1.562,18.362-1.953c3.531-0.393,8.498-0.397,8.708-0.397c0.553,0,1,0.448,1,1
			s-0.447,1-1,1c-0.05,0-5.067,0.005-8.487,0.384C221.311,87.293,206.455,88.856,206.455,88.856z"/>
	</g>
	<g>
		<path d="M206.35,95.896c-0.533,0-0.977-0.421-0.998-0.959c-0.022-0.552,0.406-1.018,0.958-1.04
			c4.896-0.201,47.923-1.941,50.729-1.135c0.531,0.152,0.839,0.705,0.688,1.236c-0.152,0.532-0.711,0.836-1.236,0.687
			c-2.051-0.533-31.084,0.431-50.099,1.21C206.378,95.896,206.363,95.896,206.35,95.896z"/>
	</g>
	<g>
		<path d="M206.741,101.759c-0.553,0-1-0.448-1-1s0.447-1,1-1c18.617,0,47.021-0.198,48.967-0.743c0.53-0.15,1.084,0.16,1.234,0.69
			c0.15,0.53-0.155,1.082-0.686,1.233C253.468,101.736,211.516,101.759,206.741,101.759z"/>
	</g>
	<g>
		<path d="M208.304,109.965c-0.539,0-0.983-0.43-0.999-0.973c-0.015-0.552,0.421-1.012,0.973-1.027
			c0.425-0.012,42.581-1.179,47.15-1.94c0.545-0.088,1.06,0.277,1.15,0.822s-0.277,1.06-0.822,1.151
			c-4.703,0.784-45.682,1.919-47.424,1.967C208.323,109.965,208.313,109.965,208.304,109.965z"/>
	</g>
	<g>
		<path d="M178.993,66.977c-0.15,0-0.302-0.034-0.446-0.105c-0.966-0.413-8.069-0.47-14.375-0.286
			c-0.537,0.03-1.012-0.418-1.029-0.97c-0.016-0.552,0.418-1.013,0.97-1.029c3.175-0.094,13.667-0.334,15.327,0.496
			c0.494,0.247,0.695,0.848,0.448,1.341C179.713,66.774,179.36,66.977,178.993,66.977z"/>
	</g>
	<g>
		<path d="M180.557,72.449c-0.105,0-0.211-0.017-0.316-0.052c-2.095-0.699-7.465-0.811-11.386-0.893
			c-2.81-0.059-4.307-0.097-4.954-0.259c-0.536-0.134-0.861-0.677-0.728-1.213c0.134-0.536,0.679-0.861,1.213-0.728
			c0.459,0.115,2.519,0.158,4.511,0.2c4.274,0.089,9.594,0.2,11.977,0.995c0.524,0.175,0.807,0.741,0.632,1.265
			C181.366,72.184,180.976,72.449,180.557,72.449z"/>
	</g>
	<g>
		<path d="M176.76,76.851c-3.837,0-10.622-0.396-12.287-0.497c-0.551-0.033-0.971-0.507-0.938-1.059s0.517-0.97,1.059-0.938
			c6.264,0.379,13.272,0.64,14.157,0.419c0.533-0.133,1.078,0.192,1.212,0.728c0.134,0.536-0.192,1.079-0.728,1.212
			C178.852,76.813,177.946,76.851,176.76,76.851z"/>
	</g>
	<g>
		<path d="M165.315,82.218c-0.538,0-0.981-0.427-0.999-0.968c-0.018-0.552,0.416-1.014,0.967-1.032
			c0.495-0.016,12.149-0.391,13.71-0.391c0.552,0,1,0.448,1,1s-0.448,1-1,1c-1.53,0-13.525,0.386-13.646,0.39
			C165.337,82.218,165.326,82.218,165.315,82.218z"/>
	</g>
	<g>
		<path d="M164.924,87.299c-0.538,0-0.982-0.427-0.999-0.969c-0.017-0.552,0.416-1.014,0.968-1.031
			c0.511-0.016,12.544-0.392,14.491-0.392c0.552,0,1,0.448,1,1s-0.448,1-1,1c-1.917,0-14.304,0.387-14.429,0.391
			C164.945,87.299,164.935,87.299,164.924,87.299z"/>
	</g>
</g>
</svg>
