<?xml version="1.0" encoding="utf-8"?>
<!-- Generator: Adobe Illustrator 16.0.0, SVG Export Plug-In . SVG Version: 6.00 Build 0)  -->
<!DOCTYPE svg PUBLIC "-//W3C//DTD SVG 1.1//EN" "http://www.w3.org/Graphics/SVG/1.1/DTD/svg11.dtd">
<svg version="1.1" xmlns="http://www.w3.org/2000/svg" xmlns:xlink="http://www.w3.org/1999/xlink" x="0px" y="0px" width="400px"
	 height="300px" viewBox="0 0 400 300" enable-background="new 0 0 400 300" xml:space="preserve">
<g id="Pfeile">
	<g id="Ebene_7">
		<g>
			<path fill="#FFFFFF" d="M137.382,130.44l-9.593-12.963c0,0-13.741,10.111-29.038,7.259
				c-15.296-2.852-29.037-13.741-29.037-13.741s8.815-1.037,9.333-1.814c0.519-0.778-27.223-17.112-27.482-18.148
				c-2.074,5.963-9.593,32.408-9.593,32.408l13.222-4.667c0,0,12.186,18.148,35.26,21.778c8.037,1.556,20.223,1.815,20.223,1.815
				S128.826,142.107,137.382,130.44z"/>
		</g>
		<g>
			<path fill="#FFFFFF" d="M58.825,82.735L40.677,81.18c0,0-4.667-49.52,53.667-60.149c0.519-5.704,1.296-12.186,1.296-12.186
				l22.556,17.63l-0.519,1.296l2.074,1.815L97.196,45.401L96.418,35.29c0,0-15.815,4.926-23.853,14.519S57.529,73.402,58.825,82.735
				z"/>
		</g>
		<g>
			<path fill="#FFFFFF" d="M121.567,42.291l9.852-15.556c0,0,24.111,9.333,30.334,35.779c6.222,26.445-1.815,35.26-1.815,35.26
				l10.889,9.074l-31.63,9.333l-3.111-26.445l1.555-2.852l6.223,4.667c0,0,2.333-4.407,1.814-12.704
				c-0.518-8.296-4.926-21.778-8.037-26.186C134.53,48.253,121.567,42.291,121.567,42.291z"/>
		</g>
	</g>
	<g>
		<path d="M107.658,143.655c-2.858,0-5.577-0.135-8.161-0.383c-0.238,0.003-0.473,0.005-0.71,0.005
			c-23.019,0.002-39.456-16.651-44.975-23.124l-11.595,4.058c-0.36,0.125-0.759,0.037-1.031-0.23
			c-0.271-0.267-0.368-0.665-0.249-1.026l0.764-2.318c-0.125-0.229-0.158-0.503-0.082-0.762l8.642-29.384
			c0.09-0.307,0.322-0.552,0.623-0.659c0.301-0.108,0.636-0.064,0.899,0.115l19.397,13.201l8.552,5.088
			c0.336,0.2,0.525,0.578,0.483,0.967c-0.042,0.389-0.307,0.718-0.678,0.841l-6.904,2.301c4.845,3.31,14.798,9.285,26.492,11.671
			c7.346,1.5,14.901-0.625,20.877-3.324c2.506-1.355,4.639-2.845,6.376-4.236c0.397-0.316,0.959-0.284,1.315,0.057
			c0.439-0.244,0.997-0.12,1.294,0.294l8.429,11.754c0.117,0.162,0.178,0.349,0.187,0.536c0.389-0.121,0.827,0.005,1.088,0.343
			c0.318,0.411,0.269,0.996-0.113,1.348c-0.141,0.13-0.332,0.328-0.576,0.581c-2.705,2.792-10.935,11.292-27.958,12.255
			C109.239,143.645,108.442,143.655,107.658,143.655z M55.713,117.428c0.353,0,0.691,0.188,0.873,0.509
			c0.126,0.224,11.828,20.288,42.969,23.333c1.565-0.026,3.157-0.133,4.781-0.329c11.631-1.406,22.31-5.083,31.765-10.934
			c-0.068-0.04-0.132-0.088-0.191-0.145l-9.679-9.333c-0.178-0.171-0.278-0.393-0.301-0.62c-1.489,0.847-3.171,1.726-5.001,2.555
			c-4.881,2.637-11.11,4.792-18.531,4.914c-21.325,0.367-33.779-13.575-34.299-14.168c-0.221-0.251-0.301-0.598-0.214-0.921
			c0.068-0.252,0.232-0.465,0.451-0.597c-0.058-0.046-0.097-0.078-0.118-0.095c-0.271-0.221-0.407-0.568-0.358-0.914
			c0.049-0.347,0.275-0.642,0.596-0.78l5.583-2.393l-3.934-2.677L52.472,94.343l-7.964,24.167l7.799-2.42
			c0.415-0.126,0.861,0.024,1.111,0.375c0.025,0.036,0.38,0.524,1.042,1.341l0.924-0.323
			C55.492,117.446,55.603,117.428,55.713,117.428z M128.955,136.115c-4.675,2.157-9.589,3.855-14.716,5.083
			C120.562,140.281,125.383,138.252,128.955,136.115z M72.987,115.011c3.815,3.11,10.735,7.683,20.132,9.542
			C84.543,121.957,77.396,117.896,72.987,115.011z M43.738,120.843l-0.267,0.81l8.988-3.146c-0.085-0.108-0.163-0.208-0.232-0.298
			L43.738,120.843z M127.497,118.989c0.043,0.03,0.084,0.063,0.123,0.101l1.766,1.703l-1.476-2.058
			C127.774,118.82,127.637,118.904,127.497,118.989z M76.493,108.635l-3.297,1.413l3.636-1.212L76.493,108.635z"/>
	</g>
	<g>
		<path d="M139.023,117.354c-0.191,0-0.38-0.055-0.543-0.161c-0.246-0.159-0.41-0.418-0.448-0.708l-3.802-28.692
			c-0.051-0.38,0.122-0.756,0.442-0.967c0.321-0.21,0.734-0.219,1.063-0.021l0.252,0.151l-0.027-0.188
			c-0.056-0.384,0.117-0.767,0.441-0.979c0.325-0.213,0.744-0.219,1.075-0.014l6.248,3.868c0.856-2.643,2.444-10.758-2.88-26.198
			c-2.027-5.878-4.77-10.521-8.384-14.192c-2.974-2.365-6.608-4.183-11.774-5.89c-0.292-0.097-0.523-0.323-0.627-0.612
			c-0.104-0.29-0.068-0.611,0.096-0.872l10.066-15.925c0.035-0.058,0.076-0.11,0.121-0.159c0.112-0.122,0.251-0.21,0.401-0.263
			c0.112-0.04,0.241-0.058,0.354-0.056c0.087,0.002,0.174,0.015,0.26,0.041c6.178,1.685,16.901,9.046,26.827,24.266
			c4.33,8.05,6.428,16.99,6.281,26.646c1.199,11.304-1.22,19.658-2.092,22.207l9.743,7.238c0.304,0.226,0.455,0.604,0.389,0.977
			c-0.066,0.373-0.336,0.676-0.699,0.785l-1.244,0.37c-0.146,0.176-0.351,0.301-0.583,0.345l-1.594,0.304l-29.074,8.66
			C139.215,117.34,139.119,117.354,139.023,117.354z M137.751,99.139l2.11,15.921l9.091-2.708l-8.013,1.526
			c-0.269,0.049-0.545-0.01-0.768-0.168s-0.37-0.4-0.409-0.671L137.751,99.139z M138.571,90.837l3.021,20.882l26.108-4.973
			l-7.244-6.955c-0.067-0.064-0.124-0.136-0.169-0.214l-1.463-1.087c-0.372-0.276-0.505-0.771-0.323-1.196
			c0.038-0.088,3.757-8.921,3.961-20.775c-0.826-7.636-3.192-15.125-7.034-22.259c-6.305-11.709-14.78-21.044-23.948-26.402
			l-6.986,13.364c3.628,1.748,6.681,3.895,9.307,6.542c4.798,3.851,7.993,9.165,11.308,15.954
			c7.402,15.156-0.048,29.029-0.369,29.612c-0.131,0.238-0.353,0.413-0.615,0.483c-0.262,0.072-0.542,0.033-0.775-0.108
			L138.571,90.837z M160.634,97.343l0.047,0.035c0.085-0.268,0.178-0.574,0.277-0.917C160.835,96.809,160.725,97.103,160.634,97.343
			z M143.387,64.75c1.629,5.077,2.517,9.347,2.94,12.88C146.311,73.687,145.557,69.259,143.387,64.75z M149.494,41.478
			c2.805,3.589,5.393,7.559,7.694,11.833c1.074,1.995,2.037,4.018,2.886,6.063c-0.933-2.97-2.137-5.831-3.61-8.573
			C154.155,47.262,151.808,44.164,149.494,41.478z"/>
	</g>
	<g>
		<path d="M58.826,83.476c-0.015,0-0.03,0-0.044-0.001L42.88,82.784c-0.508-0.022-0.918-0.422-0.954-0.929s0.315-0.96,0.815-1.053
			l14.092-2.614c0.396-6.474,1.68-12.702,3.819-18.525c2.668-7.263,9.542-13.884,20.432-19.68c8.033-4.276,15.18-6.425,15.48-6.514
			c0.315-0.093,0.658-0.026,0.915,0.182c0.256,0.208,0.394,0.529,0.367,0.857l-0.641,7.918c0.11,0.524,0.212,0.998,0.3,1.401
			l2.932-2.013l15.954-14.049l-13.184-11.464l-6.448-4.814l-0.852,5.455c0.069,1.337,0.142,2.784,0.214,4.303
			c0.014,0.287-0.097,0.566-0.304,0.767c-0.207,0.2-0.49,0.303-0.777,0.277c-1.82-0.148-3.689-0.131-5.59,0.045
			C79.065,25.569,56.037,34.551,47.632,52.48c-5.037,10.747-5.776,29.84-5.783,30.031c-0.019,0.526-0.442,0.947-0.968,0.964
			c-0.518,0.028-0.975-0.376-1.027-0.9c-0.028-0.286-0.695-7.061-0.348-12.948c0.68-11.54,8.518-25.145,20.454-35.508
			c9.166-7.958,19.45-12.778,29.037-13.751c2.115-0.651,3.708-1.068,4.549-1.277l0.353-2.255c-0.253-4.865-0.463-8.231-0.466-8.274
			c-0.024-0.389,0.18-0.756,0.522-0.942c0.343-0.185,0.761-0.156,1.074,0.078l0.498,0.372c0.085-0.069,0.182-0.125,0.289-0.165
			c0.34-0.125,0.724-0.054,0.999,0.185l7.648,6.65l15.109,11.279c0.242,0.18,0.389,0.46,0.401,0.761
			c0.012,0.301-0.112,0.592-0.338,0.791l-0.207,0.182l1.239,1.078c0.233,0.203,0.36,0.502,0.342,0.812
			c-0.018,0.309-0.177,0.592-0.433,0.767l-18.909,12.982l-5.194,4.574c-0.306,0.271-0.744,0.327-1.109,0.144
			c-0.364-0.183-0.582-0.568-0.548-0.975l0.371-4.584c-0.268-1.285-0.576-2.831-0.853-4.385c-30.935,10.701-33.975,35-34.164,42.262
			c-0.015,0.552-0.485,1.001-1.025,0.974c-0.552-0.014-0.988-0.474-0.974-1.025c0.003-0.14,0.008-0.284,0.014-0.431
			c-0.068,0.029-0.14,0.051-0.215,0.065l-6.234,1.156l7.132,0.31c0.552,0.024,0.979,0.491,0.956,1.042
			C59.801,83.057,59.358,83.476,58.826,83.476z M79.619,43.103c-7.162,4.142-14.396,9.918-17.089,17.249
			c-0.984,2.68-1.781,5.45-2.389,8.292c1.163-3.773,2.985-7.953,5.824-12.156C69.516,51.231,74.083,46.758,79.619,43.103z
			 M117.914,29.087l-3.742,3.295l4.208-2.889L117.914,29.087z"/>
	</g>
</g>
<g id="Ebene_4">
	<g>
		<path fill="#F7941E" d="M182.188,289.374c-9.026,0-18.103-0.236-26.792-0.814c-8.545-0.569-16.076-1.432-22.577-2.584
			c-14.643-1.909-26.761-5.188-30.893-10.698c-2.522-3.361-3.476-9.433-4.683-17.118c-0.256-1.634-0.522-3.329-0.816-5.069
			c-5.985-35.458-5.163-93.226-4.836-99.731l-0.209-4.464c-0.025-0.552,0.401-1.02,0.953-1.045c0.549-0.016,1.02,0.401,1.045,0.953
			l0.069,1.514c0.005-0.09,0.007-0.138,0.007-0.138c0.029-0.551,0.522-0.973,1.051-0.946c0.552,0.029,0.976,0.5,0.946,1.051
			c0,0-0.345,6.569-0.69,12.449c-0.812,13.811-2.077,92.815,11.856,110.283c3.868,4.85,12.666,8.514,26.019,10.926
			c14.117,1.878,32.77,2.743,55.127,2.461c38.34-0.476,84.104-4.442,108.817-9.433c14.736-2.975,15.665-5.072,15.723-5.301
			c0.168-0.694,0.053-1.31-0.366-1.931c-0.285-0.423-0.692-0.826-1.206-1.212c-1.832-0.491-4.192-0.998-6.963-1.592
			c-5.41-1.16-12.82-2.749-22.567-5.47c-0.277-0.077-0.552-0.153-0.824-0.229c-0.064-0.01-0.127-0.019-0.19-0.028
			c-12.911-1.896-25.105-3.688-29.86-7.192c-0.35-0.258-0.677-0.521-0.98-0.787c-3.129-1.434-4.326-3.365-4.479-7.205
			c-0.303-7.567,7.907-10.543,12.29-11.059c0.48-0.055,0.925,0.233,1.07,0.69c0.145,0.456-0.055,0.952-0.475,1.181
			c-0.091,0.05-9.018,4.974-9.379,10.27c-0.108,1.589,0.581,3.054,2.103,4.451c2.08,0.876,5.347,1.648,10.479,2.809
			c4.819,1.09,11.355,2.568,19.835,4.91c13.039,1.915,25.409,3.755,30.767,7.401c2.979,0.825,4.582,1.652,5.2,3.034
			c0.666,1.491-0.08,3.156-0.898,4.588c-2.376,4.157-43.44,9.998-80.304,12.844C220.917,288.274,201.667,289.374,182.188,289.374z
			 M100.503,265.41c0.748,3.763,1.644,6.828,3.023,8.668c1.284,1.711,3.577,3.261,6.811,4.639c-2.235-1.357-3.997-2.842-5.281-4.452
			C103.315,272.082,101.809,269.063,100.503,265.41z M314.175,269.788c0.245,0.753,0.27,1.543,0.071,2.36
			c-0.149,0.599-0.562,1.282-1.761,2.053c0.882-0.336,1.44-0.643,1.649-0.912c0.763-1.337,1.027-2.246,0.797-2.762
			C314.815,270.267,314.559,270.022,314.175,269.788z M251.421,238.865c-2.689,1.446-4.199,3.396-4.504,5.813
			C247.795,242.464,249.595,240.461,251.421,238.865z"/>
	</g>
	<g id="Ebene_6">
		<g>
			<g>
				<path fill="#F39423" d="M83.048,190.947c2.58,0,2.58-4,0-4S80.468,190.947,83.048,190.947L83.048,190.947z"/>
			</g>
		</g>
		<g>
			<g>
				<path fill="#F39423" d="M97.913,186.108c2.58,0,2.58-4,0-4S95.333,186.108,97.913,186.108L97.913,186.108z"/>
			</g>
		</g>
		<g>
			<g>
				<path fill="#F39423" d="M95.493,179.54c2.58,0,2.58-4,0-4S92.913,179.54,95.493,179.54L95.493,179.54z"/>
			</g>
		</g>
		<g>
			<g>
				<path fill="#F39423" d="M99.641,148.428c2.58,0,2.58-4,0-4S97.062,148.428,99.641,148.428L99.641,148.428z"/>
			</g>
		</g>
		<g>
			<g>
				<path fill="#F39423" d="M88.233,169.516c2.58,0,2.58-4,0-4S85.654,169.516,88.233,169.516L88.233,169.516z"/>
			</g>
		</g>
		<g>
			<g>
				<path fill="#F39423" d="M83.739,144.626c2.58,0,2.58-4,0-4S81.16,144.626,83.739,144.626L83.739,144.626z"/>
			</g>
		</g>
		<g>
			<g>
				<path fill="#F39423" d="M45.022,127.688c2.58,0,2.58-4,0-4S42.443,127.688,45.022,127.688L45.022,127.688z"/>
			</g>
		</g>
		<g>
			<g>
				<path fill="#F39423" d="M58.85,140.132c2.58,0,2.58-4,0-4S56.27,140.132,58.85,140.132L58.85,140.132z"/>
			</g>
		</g>
		<g>
			<g>
				<path fill="#F39423" d="M140.432,123.194c2.58,0,2.58-4,0-4S137.852,123.194,140.432,123.194L140.432,123.194z"/>
			</g>
		</g>
		<g>
			<g>
				<path fill="#F39423" d="M111.394,95.884c2.58,0,2.58-4,0-4S108.814,95.884,111.394,95.884L111.394,95.884z"/>
			</g>
		</g>
		<g>
			<g>
				<path fill="#F39423" d="M162.209,63.736c2.58,0,2.58-4,0-4S159.63,63.736,162.209,63.736L162.209,63.736z"/>
			</g>
		</g>
		<g>
			<g>
				<path fill="#F39423" d="M140.777,52.674c2.58,0,2.58-4,0-4S138.197,52.674,140.777,52.674L140.777,52.674z"/>
			</g>
		</g>
		<g>
			<g>
				<path fill="#F39423" d="M52.627,65.119c2.58,0,2.58-4,0-4S50.047,65.119,52.627,65.119L52.627,65.119z"/>
			</g>
		</g>
		<g>
			<g>
				<path fill="#F39423" d="M99.294,208.232c2.58,0,2.58-4,0-4S96.715,208.232,99.294,208.232L99.294,208.232z"/>
			</g>
		</g>
		<g>
			<g>
				<path fill="#F39423" d="M90.973,236.232c2.58,0,2.58-4,0-4S88.394,236.232,90.973,236.232L90.973,236.232z"/>
			</g>
		</g>
		<g>
			<g>
				<path fill="#F39423" d="M103.168,257.404c2.58,0,2.58-4,0-4S100.589,257.404,103.168,257.404L103.168,257.404z"/>
			</g>
		</g>
	</g>
</g>
<g id="Knopf">
	<g>
		<path fill="#EFEFEF" d="M310.032,205.495c0,0,15.171,5.701,14.612,12.574c-0.562,6.874-0.745,8.655-0.745,8.655
			s-10.713,13.939-59.525,12.827c-48.813-1.109-53.498-13.59-53.498-13.59l-0.357-9.096c0,0,0.22-8.96,22.518-11.371
			C255.333,203.085,310.032,205.495,310.032,205.495z"/>
	</g>
	<g>
		<path fill="#F7941E" d="M224.826,179.87c-3.607,7.095-1.829,29.555-1.829,29.555c0,6.487,21.377,12.346,45.544,12.346
			c24.164,0,43.758-5.259,43.758-11.747c0,0,2.387-26.351,0.046-30.153c-2.572-5.712-12.815-11.349-49.377-11.743
			C247.902,167.73,225.731,173.626,224.826,179.87z"/>
	</g>
	<g>
		<path fill="#F7941E" d="M312.345,179.87c0,6.487-24.639,11.543-43.758,11.745c-11.926,0.128-24.576-1.018-32.47-3.094
			c-8.103-2.132-11.291-5.366-11.291-8.651c0-6.488,19.591-11.743,43.761-11.743C292.752,168.127,312.345,173.382,312.345,179.87z"
			/>
		<path d="M266.772,192.625c-11.711,0-23.555-1.202-30.909-3.137c-9.949-2.617-12.037-6.675-12.037-9.618
			c0-4.655,7.373-7.611,13.558-9.271c8.346-2.239,19.428-3.473,31.203-3.473c11.773,0,22.854,1.233,31.2,3.473
			c6.185,1.659,13.558,4.615,13.558,9.271c0,8.171-28.688,12.575-44.747,12.745C267.991,192.622,267.382,192.625,266.772,192.625z
			 M268.587,169.127c-25.199,0-42.761,5.662-42.761,10.743c0,3.166,3.745,5.896,10.546,7.685c7.2,1.894,18.85,3.07,30.4,3.07
			c0.603,0,1.205-0.003,1.804-0.01c20.785-0.22,42.769-5.743,42.769-10.745C311.345,174.789,293.785,169.127,268.587,169.127z"/>
	</g>
	<g>
		<path d="M267.581,233.176c-10.494,0-21.122-0.825-30.364-2.375c-6.674-0.896-12.642-2.306-17.174-4.412
			c-6.506-2.549-10.524-5.756-10.524-9.522c0-4.327,3.495-7.21,12.062-9.95c0.528-0.169,1.089,0.122,1.257,0.647
			c0.169,0.526-0.121,1.089-0.647,1.257c-3.807,1.218-6.28,2.376-7.877,3.483c0.061,0.029,0.12,0.065,0.176,0.108
			c0.438,0.337,0.52,0.965,0.184,1.402c-0.018,0.022-1.841,2.452-0.995,4.312c1.016,2.588,3.405,4.668,6.788,6.324
			c4.302,1.73,10.038,3.266,16.956,4.431c21.571,2.898,51.646,0.518,64.807-1.545c9.729-1.523,16.719-4.626,20.211-7.663
			c0.794-0.932,1.205-1.874,1.205-2.808c0-2.828-3.773-5.741-10.624-8.203c-0.464-0.167-0.737-0.646-0.645-1.131
			c0.094-0.483,0.54-0.84,1.018-0.81c0.182,0.006,4.515,0.209,11.127,4.769c1.951,1.346,2.775,3.183,2.321,5.174
			c-0.358,1.568-1.456,3.12-3.153,4.583C316.651,228.796,291.764,233.176,267.581,233.176z"/>
	</g>
	<g>
		<path d="M273.252,241.649c-3.196,0-6.551-0.1-10.067-0.317c-9.77-0.604-17.92-1.636-24.688-2.875
			c-9.331-1.469-16.986-3.641-22.077-6.299c-5.897-2.573-8.15-4.698-8.354-4.897c-0.206-0.202-0.314-0.483-0.298-0.771l0.666-11.563
			c0.021-0.287,0.652-6.606,13.288-8.712c0.543-0.096,1.061,0.277,1.15,0.822c0.091,0.545-0.277,1.06-0.822,1.15
			c-10.939,1.823-11.617,6.839-11.622,6.89l-0.047,0.799c0.082-0.01,0.166-0.013,0.252-0.002c0.549,0.062,0.942,0.559,0.879,1.107
			c-0.15,1.31,0.189,6.593,0.349,8.737c0.711,1.544,2.527,3.099,5.322,4.566c0.969,0.424,2.042,0.862,3.229,1.307
			c4.167,1.561,10.234,3.378,18.64,4.915c8.104,1.272,17.735,2.046,28.53,2.046c30.846,0,51.415-6.234,55.349-12.166
			c0.32-2.979,0.732-7.396,0.734-9.002l-0.019-0.479c-0.021-0.541,0.391-1,0.931-1.037c0.537-0.019,1.011,0.361,1.063,0.9
			c0.013,0.126,0.019,0.288,0.021,0.479l0.403,10.372c0.013,0.312-0.122,0.613-0.364,0.812
			C324.987,229.017,309.158,241.649,273.252,241.649z"/>
	</g>
	<g>
		<path d="M268.541,222.771c-11.773,0-22.854-1.234-31.202-3.475c-6.186-1.66-13.559-4.617-13.559-9.272
			c-0.213-2.668-2.042-26.864,0.184-30.659c0.278-0.477,0.892-0.638,1.368-0.356c0.477,0.279,0.636,0.892,0.356,1.368
			c-1.436,2.449-0.708,19.437,0.089,29.569c0.003,5.161,17.564,10.825,42.764,10.825c25.198,0,42.758-5.664,42.758-10.747
			c0.915-10.15,1.772-27.065,0.194-29.629c-0.289-0.471-0.143-1.087,0.327-1.376c0.472-0.291,1.087-0.143,1.376,0.327
			c2.444,3.972,0.346,28.037,0.099,30.768c0.004,4.565-7.369,7.522-13.555,9.183C291.394,221.536,280.313,222.771,268.541,222.771z"
			/>
	</g>
	<g>
		<path d="M280.288,193.184c-2.499,0-5.162-0.103-8.004-0.329c-29.368-2.342-44.931-4.547-48.486-10.105
			c-0.881-1.376-1.017-2.917-0.404-4.579c1.478-4.013,6.932-7.06,16.21-9.055c8.689-1.869,17.893-2.213,20.506-2.274
			c5.515-0.109,43.722,1.051,51.576,9.873c1.196,1.343,1.691,2.818,1.472,4.386c-0.001,0.009-0.003,0.019-0.004,0.027
			c0.108,0.036,0.213,0.093,0.308,0.169c0.43,0.346,0.499,0.972,0.155,1.402C313.241,183.167,304.913,193.184,280.288,193.184z
			 M261.589,168.826c-0.534,0-1.014,0.005-1.433,0.015c-24.838,0.578-33.615,6.57-34.886,10.021
			c-0.396,1.072-0.328,1.966,0.213,2.811c3.39,5.299,24.146,7.37,46.959,9.188c15.536,1.24,25.488-1.396,31.102-3.823
			c4.745-2.053,7.267-4.305,8.146-5.196c-0.356-0.193-0.573-0.594-0.514-1.019c0.136-0.973-0.186-1.882-0.984-2.779
			C303.74,170.797,272.113,168.826,261.589,168.826z"/>
	</g>
	<g>
		<path d="M267.781,222.706c-1.335,0-2.706-0.017-4.115-0.052c-23.253-0.585-37.269-4.514-41.656-11.677l-0.083-0.135
			c-0.559-0.893-1.095-4.193-0.836-21.894c0.01-0.665,0.017-1.127,0.017-1.317c0-2.499,0.653-6.447,0.682-6.614
			c0.09-0.544,0.604-0.917,1.15-0.821c0.545,0.091,0.913,0.606,0.822,1.15c-0.007,0.04-0.654,3.952-0.654,6.285
			c0,0.195-0.007,0.667-0.017,1.347c-0.244,16.658,0.235,20.197,0.543,20.823l0.081,0.131c4.996,8.156,24.511,10.333,40.002,10.722
			c31.462,0.783,43.936-7.921,45.921-9.495c0.13-2.131,0.726-11.62,1.313-16.53c0.652-5.423,0.396-14.638,0.394-14.73
			c-0.016-0.552,0.419-1.012,0.972-1.028c0.545,0.006,1.012,0.419,1.028,0.972c0.011,0.383,0.262,9.456-0.407,15.025
			c-0.655,5.465-1.322,16.727-1.329,16.84c-0.015,0.255-0.127,0.494-0.312,0.669C310.831,212.814,299.947,222.706,267.781,222.706z"
			/>
	</g>
</g>
<g id="Hase">
	<g>
		<path fill="#F9F9F9" d="M341.802,168.108c0,0-4.581,5.848,0.954,16.949c5.533,11.098,17.911,19.808,17.598,23.812
			c-4.381,2.501-5.326,4.308-5.305,6.269c2.614,1.124,7.766,1.307,7.766,1.307l-0.812,1.799c0,0,9.104,2.049,13.439,0
			c-2.178-8.148-4.264-18.399-4.487-24.613c-0.223-6.215-0.575-22.947-3.65-26.969c2.088-0.794,4.79-0.847,4.79-0.847l-1.655-2.937
			l0.546-2.727l-2.468-0.791l1.62-3.031l-3.361-0.369l0.523-3.432l-4.638,1.162l-0.175-2.8l-3.01,6.28
			c0,0-25.618-27.763-40.097-24.294c0.544-2.686,0-3.538,0-3.538l-1.618-2.816l1.077-1.29l-3.066-0.689l-0.646-3.366l-2.593-1.049
			l-0.433-1.338l-3.004-0.195c0,0,6.51-48.027-1.857-50.241c-5.354-1.011-4.371,36.061-4.371,36.061s-13.863-34.525-20.38-31.58
			c-6.516,2.944,16.764,43.247,16.764,43.247s-17.63,9.293-16.764,23.065c0.717,7.29,19.818,4.995,24.277,1.548
			c0,0,1.229,1.134,0,2.83c-1.229,1.695-16.479,22.748-16.479,22.748s-8.137,2.162-8.438,6.982c4.669,0.753,8.858,0.302,8.858,0.302
			v1.826c0,0,9.973,0.434,11.329-0.47l12.921-17.74c0,0,9.555,1.846,15.567,4.068C336.538,163.462,341.802,168.108,341.802,168.108z
			"/>
	</g>
	<g>
		<path d="M290.716,175.084c-0.011,0-0.021,0-0.032-0.001c-0.053-0.001-5.33-0.169-8.807-0.436c-0.397-0.03-0.738-0.294-0.869-0.67
			c-0.349-1.008-0.27-2.023,0.235-3.018c1.566-3.088,6.934-5.046,8.428-5.54l18.648-25.743c0.323-0.448,0.948-0.548,1.396-0.224
			c0.447,0.324,0.547,0.95,0.223,1.396l-18.841,26.008c-0.127,0.175-0.308,0.305-0.515,0.368c-1.717,0.531-6.422,2.399-7.557,4.639
			c-0.147,0.291-0.224,0.567-0.229,0.844c3.392,0.23,7.9,0.374,7.949,0.376c0.553,0.017,0.985,0.479,0.968,1.03
			C291.697,174.657,291.253,175.084,290.716,175.084z"/>
	</g>
	<g>
		<path d="M307.033,156.011c-0.269,0-0.536-0.108-0.732-0.319c-0.062-0.058-0.509-0.44-1.466-0.231
			c-0.269,0.055-0.544,0.003-0.769-0.147c-0.225-0.151-0.379-0.388-0.427-0.654c-0.27-1.512,0.839-2.552,1.917-3.189l-0.396-0.265
			c-0.312-0.208-0.481-0.573-0.438-0.945c0.042-0.373,0.289-0.69,0.64-0.822l1.264-0.477l-0.641-0.514
			c-0.365-0.293-0.479-0.8-0.271-1.221l1.891-3.846c-0.205-0.197-0.646-0.475-1.111-0.704c-5.757,2.975-13.563,2.825-13.895,2.819
			c-5.821,0.214-8.341-2.605-9.853-4.288c-0.221-0.247-0.421-0.471-0.609-0.656c-0.101-0.098-0.18-0.216-0.23-0.347
			c-1.367-3.459,0.452-14.854,10.018-20.292c0.256-0.152,6.696-3.957,10.847-4.808c0.547-0.114,1.07,0.238,1.181,0.778
			c0.111,0.541-0.237,1.07-0.778,1.181c-3.824,0.785-10.181,4.541-10.244,4.578c-8.361,4.754-10.103,14.818-9.225,17.652
			c0.167,0.173,0.342,0.368,0.53,0.578c1.442,1.605,3.396,3.815,8.352,3.625c0.133,0.002,8.075,0.146,13.382-2.807
			c0.265-0.147,0.582-0.167,0.862-0.053c0.687,0.278,2.328,1.044,2.741,2.145c0.158,0.42,0.137,0.866-0.061,1.256l-1.648,3.353
			l1.382,1.109c0.28,0.225,0.418,0.582,0.361,0.937c-0.056,0.355-0.298,0.652-0.634,0.779l-1.081,0.408l0.287,0.191
			c0.322,0.215,0.49,0.596,0.434,0.979c-0.057,0.382-0.329,0.698-0.699,0.811c-0.577,0.176-1.282,0.507-1.761,0.874
			c1.016,0.21,1.554,0.784,1.635,0.877c0.364,0.415,0.322,1.047-0.093,1.411C307.503,155.929,307.268,156.011,307.033,156.011z"/>
	</g>
	<g>
		<path fill="none" stroke="#000000" stroke-width="2" stroke-linecap="round" stroke-linejoin="round" stroke-miterlimit="10" d="
			M355.049,195.838"/>
	</g>
	<g>
		<path d="M361.8,217.445c-4.483,0-7.167-0.43-7.978-1.277c-0.274-0.287-0.353-0.709-0.201-1.075
			c1.53-3.683,2.984-4.599,4.268-5.408c0.568-0.358,1.031-0.65,1.482-1.185c-0.355-1.711-6.676-9.449-12.513-15.793
			c-0.225-0.239-5.663-6.102-7.177-12.977l-0.043-0.197c-0.655-2.98-1.646-7.485,1.329-11.978c0.305-0.46,0.923-0.587,1.387-0.281
			c0.46,0.306,0.586,0.926,0.281,1.387c-2.508,3.785-1.662,7.633-1.044,10.443l0.043,0.197c1.396,6.343,6.636,11.988,6.688,12.045
			c11.365,12.349,13.34,16.483,12.997,17.779c-0.033,0.123-0.089,0.239-0.165,0.342c-0.732,0.983-1.513,1.476-2.2,1.909
			c-1.017,0.641-1.983,1.25-3.103,3.615c1.029,0.241,3.204,0.453,5.947,0.453c0.553,0,1,0.447,1,1S362.353,217.445,361.8,217.445z"
			/>
	</g>
	<g>
		<path d="M299.254,117.082c-0.366,0-0.718-0.201-0.894-0.55c-0.558-1.105-13.68-27.165-16.74-36.093
			c-1.499-4.376-1.384-7.417,0.316-8.345c1.646-0.901,3.943,0.495,6.824,4.14c4.77,6.011,11.904,19.481,14.922,29.95
			c0.153,0.531-0.153,1.085-0.684,1.238c-0.536,0.153-1.086-0.153-1.238-0.684c-2.952-10.242-9.916-23.399-14.568-29.262
			c-2.738-3.465-4.09-3.74-4.299-3.625c-0.306,0.167-0.747,1.953,0.619,5.94c3.016,8.8,16.497,35.572,16.633,35.841
			c0.249,0.493,0.051,1.095-0.442,1.343C299.559,117.047,299.405,117.082,299.254,117.082z"/>
	</g>
	<g>
		<path d="M366.819,166.5c-0.544,0-0.989-0.229-1-0.773c-0.01-0.553,0.429-0.904,0.981-0.915l3.6-0.016l-0.833-1.452
			c-0.15-0.267-0.17-0.574-0.054-0.857l0.643-1.558l-1.944-0.618c-0.282-0.09-0.511-0.3-0.622-0.575s-0.095-0.585,0.045-0.847
			l0.923-1.726l-1.892-0.208c-0.271-0.03-0.518-0.169-0.684-0.385s-0.236-0.49-0.195-0.76l0.318-2.096l-2.956,1.49
			c-0.3,0.152-0.656,0.143-0.948-0.025c-0.291-0.167-0.479-0.47-0.5-0.805l-0.075-1.204c-0.461,0.843-0.907,1.963-1.185,2.979
			c-0.146,0.533-0.701,0.842-1.229,0.701c-0.532-0.146-0.847-0.695-0.701-1.229c0.327-1.196,1.562-5.144,3.726-5.7
			c0.29-0.075,0.596-0.016,0.837,0.159s0.392,0.45,0.41,0.747l0.119,1.908l3.332-1.68c0.334-0.17,0.734-0.137,1.037,0.083
			s0.458,0.59,0.401,0.96l-0.453,2.98l2.325,0.255c0.33,0.036,0.62,0.234,0.775,0.527c0.154,0.294,0.153,0.646-0.003,0.938
			l-1.055,1.973l1.834,0.586c0.266,0.085,0.484,0.277,0.602,0.53c0.118,0.253,0.125,0.544,0.019,0.802l-0.87,2.118l1.417,2.514
			c0.173,0.307,0.172,0.682-0.003,0.987s-0.497,0.29-0.85,0.296l-5.274-0.107C366.832,166.5,366.825,166.5,366.819,166.5z"/>
	</g>
	<g>
		<path d="M367.093,220.32c-2.526,0-4.836-0.335-5.823-1.395c-0.264-0.284-0.34-0.694-0.195-1.055
			c1.547-3.852,2.995-5.025,4.272-6.061c0.543-0.439,1.02-0.826,1.481-1.407c-0.313-1.752-6.658-9.717-12.537-16.254
			c-0.226-0.227-6.291-6.433-7.679-13.61c-1.128-5.831,0.07-13.641,4.027-16.615c1.911-1.434,5.186-2.05,8.146-1.533
			c2.042,0.355,3.599,1.21,4.385,2.404c0.304,0.461,0.176,1.081-0.285,1.385c-0.46,0.308-1.082,0.176-1.385-0.285
			c-0.473-0.718-1.588-1.277-3.059-1.534c-2.412-0.419-5.127,0.059-6.602,1.162c-2.934,2.206-4.398,8.772-3.265,14.638
			c1.274,6.589,7.111,12.558,7.17,12.617c5.166,5.742,13.681,15.697,13.032,18.233c-0.031,0.122-0.085,0.236-0.158,0.339
			c-0.67,0.927-1.353,1.48-2.013,2.016c-1.054,0.854-2.141,1.733-3.365,4.513c1.725,0.692,6.542,0.483,10.932-0.191
			c-1.02-3.653-4.171-15.487-4.187-22.181c-0.009-4.002-0.771-19.34-0.779-19.494c-0.158-3.773-2.765-8.839-2.791-8.889
			c-4.106-6.876-26.36-26.386-33.256-30.401c-7.88-4.588-12.176-2.642-12.641-2.404c-0.491,0.25-1.094,0.057-1.346-0.436
			c-0.251-0.492-0.057-1.094,0.436-1.346c2.662-1.359,7.883-1.428,14.557,2.457c7.217,4.202,29.643,23.863,33.996,31.156
			c0.146,0.275,2.867,5.567,3.043,9.771c0.031,0.625,0.772,15.532,0.781,19.582c0.017,7.534,4.371,22.56,4.415,22.71
			c0.08,0.273,0.039,0.567-0.111,0.809c-0.15,0.242-0.396,0.408-0.677,0.457C374.035,219.753,370.381,220.32,367.093,220.32z"/>
	</g>
	<g>
		<path d="M319.381,133.877c-0.065,0-0.133-0.006-0.199-0.02c-0.542-0.109-0.892-0.637-0.782-1.178l0.471-2.324
			c-0.542-0.871-1.756-2.164-2.226-2.634c-0.365-0.366-0.391-0.95-0.06-1.347l0.438-0.524l-1.47-0.331
			c-0.394-0.088-0.696-0.406-0.766-0.804l-0.363-2.081c-0.008-0.017-0.052-0.099-0.091-0.184c-0.062-0.138-0.149-0.328-0.212-0.547
			c-0.833-0.314-1.86-0.799-2.016-0.873c-0.256-0.122-0.448-0.345-0.529-0.616c-0.087-0.292-0.072-0.578-0.061-0.808c0,0,0,0,0,0
			c-0.269-0.014-0.742,0.013-1.05,0.03c-1.048,0.056-1.628,0.086-2.053-0.314c-0.402-0.378-0.422-1.011-0.044-1.414
			c0.29-0.309,0.734-0.39,1.104-0.242c0.192,0.007,0.604-0.013,0.888-0.027c0.964-0.051,1.89-0.1,2.382,0.316
			c0.412,0.21,0.765,0.647,0.775,1.525c0.788,0.354,1.569,0.669,1.779,0.711c0.348,0.068,0.646,0.318,0.763,0.652
			c0.071,0.203,0.078,0.421,0.021,0.622c0.022,0.05,0.048,0.102,0.072,0.153c0.098,0.215,0.187,0.428,0.23,0.616l0.26,1.479
			l2.416,0.543c0.34,0.076,0.615,0.324,0.728,0.654c0.111,0.33,0.044,0.694-0.18,0.962l-0.913,1.095
			c0.678,0.73,1.698,1.904,2.129,2.783c0.097,0.198,0.125,0.422,0.082,0.638l-0.544,2.686
			C320.264,133.55,319.847,133.877,319.381,133.877z"/>
	</g>
	<g>
		<path d="M284.827,141.695c-0.396,0-0.771-0.237-0.928-0.627c-0.206-0.512,0.042-1.095,0.555-1.301
			c1.063-0.428,2.188-0.996,2.406-1.214c0.339-0.435,0.959-0.501,1.394-0.161c0.436,0.34,0.503,0.979,0.163,1.415
			c-0.519,0.663-2.238,1.422-3.217,1.815C285.078,141.671,284.951,141.695,284.827,141.695z"/>
	</g>
	<g>
		<path d="M303.675,122.811c-0.521,0-0.96-0.403-0.997-0.93c-0.336-4.826-3.126-47.331,2.561-53.552
			c0.72-0.788,1.475-0.965,1.982-0.975c0.607-0.017,1.54,0.187,2.386,1.229c5.21,6.42,2.742,40.325,0.559,49.622
			c-0.07,0.387-0.508,2.597-1.267,3.514c-0.353,0.424-0.981,0.486-1.408,0.132c-0.426-0.352-0.484-0.983-0.133-1.408
			c0.277-0.334,0.664-1.639,0.851-2.648c2.53-10.781,3.973-42.865-0.154-47.952c-0.406-0.5-0.704-0.493-0.79-0.49
			c-0.066,0.001-0.257,0.005-0.55,0.325c-4.324,4.73-2.939,39.186-2.04,52.062c0.038,0.551-0.378,1.029-0.929,1.067
			C303.722,122.81,303.698,122.811,303.675,122.811z"/>
	</g>
	<g>
		<path d="M298.375,176.404c-8.31,0-8.56-1.6-8.648-2.165c-0.123-0.76,0.12-1.775,4.487-4.985c2.077-1.526,4.25-2.928,5.038-3.383
			c0.901-1.197,6.742-10.384,11.042-17.147c6.475-10.183,6.494-10.197,6.74-10.38c0.442-0.331,1.069-0.238,1.399,0.205
			c0.286,0.386,0.254,0.91-0.051,1.257c-0.38,0.521-3.439,5.334-6.4,9.991c-11.095,17.45-11.212,17.515-11.6,17.733
			c-1.477,0.785-7.206,4.716-8.469,6.277c1.316,0.445,5.39,0.684,9.491,0.534c2.294-2.023,17.089-24.119,20.579-29.5
			c0.301-0.464,0.92-0.596,1.383-0.295c0.464,0.3,0.596,0.919,0.295,1.383c-0.81,1.25-5.707,8.662-10.598,15.808
			c-9.95,14.541-10.623,14.566-11.334,14.593C300.487,176.381,299.372,176.404,298.375,176.404z"/>
	</g>
	<g>
		<path d="M297.912,129.923c-0.026-0.598,1.261-1.558,1.339,0.48C299.305,131.944,297.974,131.01,297.912,129.923z"/>
		<path d="M298.86,132.215c-0.952,0-1.881-1.065-1.946-2.235c-0.021-0.449,0.166-0.905,0.509-1.263
			c0.339-0.354,0.767-0.55,1.205-0.55c0.36,0,1.544,0.159,1.622,2.198c0.022,0.633-0.128,1.12-0.447,1.45
			C299.554,132.073,299.22,132.215,298.86,132.215z"/>
	</g>
	<g>
		<path d="M346.542,173.341c-0.251,0-0.502-0.094-0.695-0.282c-0.08-0.077-8.033-7.75-12.574-9.507
			c-5.509-2.651-8.366-3.068-11.675-3.551c-2.007-0.293-4.282-0.625-7.359-1.489c-0.531-0.149-0.842-0.701-0.692-1.233
			c0.15-0.532,0.702-0.841,1.233-0.692c2.952,0.829,5.064,1.138,7.107,1.436c3.472,0.507,6.47,0.944,12.181,3.697
			c4.845,1.871,12.833,9.577,13.171,9.904c0.396,0.384,0.406,1.017,0.021,1.413C347.064,173.239,346.803,173.341,346.542,173.341z"
			/>
	</g>
	<g>
		<path d="M306.171,142.851c-0.348,0-0.685-0.181-0.869-0.504c-0.274-0.479-0.107-1.09,0.372-1.364
			c2.605-1.487,3.794-2.271,3.806-2.279c0.46-0.307,1.08-0.179,1.387,0.281c0.305,0.46,0.179,1.081-0.281,1.386
			c-0.05,0.033-1.245,0.823-3.919,2.349C306.509,142.808,306.339,142.851,306.171,142.851z"/>
	</g>
</g>
</svg>
