<?xml version="1.0" encoding="utf-8"?>
<!-- Generator: Adobe Illustrator 16.0.0, SVG Export Plug-In . SVG Version: 6.00 Build 0)  -->
<!DOCTYPE svg PUBLIC "-//W3C//DTD SVG 1.1//EN" "http://www.w3.org/Graphics/SVG/1.1/DTD/svg11.dtd">
<svg version="1.1" id="Hasen" xmlns="http://www.w3.org/2000/svg" xmlns:xlink="http://www.w3.org/1999/xlink" x="0px" y="0px"
	 width="48.833px" height="90.666px" viewBox="0 0 48.833 90.666" enable-background="new 0 0 48.833 90.666" xml:space="preserve">
<g id="_x34_">
	<path fill="none" stroke="#000000" stroke-linecap="round" stroke-linejoin="round" stroke-miterlimit="10" d="M12.835,51.683
		c0,0-3.994-0.417-7.681-3.748c-3.622-3.265-3.711-7.272-2.999-8.471c0.129-0.6,7.492-3.001,13.959,0.063
		c2.006,0.799,2.84,1.795,2.84,1.795s9.634-18.321,12.675-18.987c3.039-0.667-1.943,13.257-10.61,20.986
		c0.13,0.799,0.969,2.066,0.969,2.066l-0.841,0.066l0.258,1.865l-1.229,0.333l0.453,1.267l-0.712,0.666l0.259,1.398l0.774,2.334
		c0,0,1.553,5.33,2.717,7.196s6.082,10.591,6.792,12.323c0.391-0.531,1.166-0.799,1.166-0.799l0.939,1.002l0.686-0.334v1
		l1.416,0.199l0.289,1.467l1.633,0.666l-0.25,1.131l1.037,1.6L36.473,79.3l0.713,2.066l-0.711,2.064l-0.777,0.934l-0.969-0.934
		l-0.324,1.066h-0.646l-0.777-0.6"/>
	<path fill="none" stroke="#000000" stroke-linecap="round" stroke-linejoin="round" stroke-miterlimit="10" d="M16.942,77.567
		c0,0-1.812,2.334-2.588,6.33c-0.387,1.4-1.164,1.4-1.164,1.4s-3.945,1.398-4.464,4.197c3.235-0.068,7.957-0.07,7.957-0.07
		s1.488,0.066,1.553-0.398c0.064-0.467,0.323-1.732,2.846-1.932c1.229-0.068,1.746-0.266,1.746-0.266s0.193-5.33,0.969-6.195"/>
	<path fill="none" stroke="#000000" stroke-linecap="round" stroke-linejoin="round" stroke-miterlimit="10" d="M17.72,89.358
		l14.874,0.068c0,0,1.293-6.596-0.775-10.795"/>
	<path fill="none" stroke="#000000" stroke-linecap="round" stroke-linejoin="round" stroke-miterlimit="10" d="M14.614,42.854
		c0,0,0.518,0.533,0,0.6C14.097,43.521,13.967,42.788,14.614,42.854z"/>
	<path fill="none" stroke="#000000" stroke-linecap="round" stroke-linejoin="round" stroke-miterlimit="10" d="M17.913,40.056
		c0,0,6.468-19.921,8.539-21.521c3.168-0.066,0.193,7.461-0.584,9.528c-0.58,1.332-2.004,4.53-2.004,4.53"/>
	<path fill="none" stroke="#000000" stroke-linecap="round" stroke-linejoin="round" stroke-miterlimit="10" d="M4.395,40.588
		c0,0-2.329-0.265-2.264-1.132"/>
	<path fill="none" stroke="#000000" stroke-linecap="round" stroke-linejoin="round" stroke-miterlimit="10" d="M9.115,65.108
		c0.123,2,2.522,6.463,4.075,8.395c1.031,1.283,6.468,6.596,6.468,6.596"/>
	<path fill="none" stroke="#000000" stroke-linecap="round" stroke-linejoin="round" stroke-miterlimit="10" d="M15.196,65.239
		c0,0-2.005,4.664-3.945,3.598c-1.94-1.064-1.293-3.932-1.94-4.197c-0.647-0.266-0.841,2.334-3.105,3.266s-2.329-3.332-1.488-5.33
		l0.97-1.199l-0.194-0.6l1.293-1l0.259-1.133l0.647-0.999l1.292-1.999v-0.864l0.97-1.065l-0.064-1.133l-0.776-0.4l0.84-0.466
		l-0.323-0.466l2.522,0.266"/>
</g>
</svg>
