<?xml version="1.0" encoding="utf-8"?>
<!-- Generator: Adobe Illustrator 16.0.0, SVG Export Plug-In . SVG Version: 6.00 Build 0)  -->
<!DOCTYPE svg PUBLIC "-//W3C//DTD SVG 1.1//EN" "http://www.w3.org/Graphics/SVG/1.1/DTD/svg11.dtd">
<svg version="1.1" xmlns="http://www.w3.org/2000/svg" xmlns:xlink="http://www.w3.org/1999/xlink" x="0px" y="0px" width="549px"
	 height="300px" viewBox="0 0 549 300" enable-background="new 0 0 549 300" xml:space="preserve">
<g id="Ebene_7">
	<g>
		<path fill="#F9F9F9" d="M177.012,221.39c2.683-4.807,5.115-1.14,6.275-0.675c2.566-6.398,8.714-11.437,10.982-12.094
			c3.969-1.104,8.582,0.522,12.354-0.763c2.643-0.864,4.346-3.015,4.254-5.494c-0.043-1.146-1.972,0.076-1.463-1.659
			c0.154-0.962,1.857-3.133,2.408-3.725c-4.055-1.188-1.088-3.59,0.946-5.384c-2.721-1.237,1.797-4.917,1.797-4.917
			c-5.972-6.465-11.07-13.265-16.285-19.949c-3.208-4.08-11.869-19.488-6.656-23.122c5.538-3.854,9.445,3.98,12.103,8.655
			c5.095,8.598,11.985,19.229,15.768,28.449c0.991-5.706,13.125-49.327,20.341-40.234c3.952,4.977-1.31,14.439-3.252,18.714
			c-3.508,8.343-7.795,16.332-11.304,24.679c2.133,0.875,9.521-0.73,17.978,7.483c3.561,3.303,7.847,8.938,6.301,13.579
			c-2.247,6.388-10.887,8.624-16.784,9.29c-2.451,0.854-2.395,5.414-2.332,7.13c-0.402-0.555-1.03-0.389-1.432-0.949
			c-0.429,3.84,0.777,7.614,1.858,11.01c-0.593-0.549-2.007-0.202-2.402-0.568c0.351,3.711,0.375,6.064-0.643,9.312
			c0.276,2.282,1.65,7.49,1.363,9.984c-0.467,2.884-3.026,5.884-2.92,8.746c1.222,2.128,3.199,4.998,0.407,8.595
			c-1.267,1.957-5.76,0.987-8.839-1.391c-0.923,0.937-4.854,2.248-8.537,1.602c-2.977-0.525-5.572-3.639-6.644-5.676
			c-4.83,0.308-11.168,0.255-12.761-1.491c0.326,3.618-7.637,3.846-9.445,1.427c-1.004-1.299-0.69-3.842,1.424-5.734
			c-3.551-4.708-6.513-17.51-6.867-21.89C174.673,230.522,174.843,224.718,177.012,221.39z M216.737,260.921l0.393-7.59
			c0,0-1.35,0.138-2,0.492c-0.652,0.354-1.111,0.651-1.208,3.392C213.825,259.958,216.737,260.921,216.737,260.921z"/>
	</g>
	<g>
		<path d="M214.097,254.861c-0.497,0-0.927-0.369-0.991-0.875c-0.069-0.548,0.319-1.048,0.867-1.117
			c2.081-0.262,3.012-1.131,3.648-1.945c0.146-0.2,0.443-1.056,0.62-1.566c0.247-0.714,0.46-1.33,0.692-1.697
			c0.282-0.446,0.638-0.589,0.887-0.629c0.236-0.037,0.438-0.001,0.605,0.063c1.542-1.707,2.192-3.498,2.199-3.518
			c0.077-0.216,0.226-0.398,0.421-0.518l0.694-0.424c0.354-1.086,0.441-2.301,0.519-3.384c0.037-0.514,0.073-1.003,0.13-1.451
			c0.047-0.371,0.298-0.686,0.65-0.812c0.351-0.129,0.745-0.049,1.02,0.205c0.203,0.188,0.65,0.482,1.044,0.742
			c0.101,0.066,0.201,0.133,0.298,0.197c0.677-1.575,0.456-2.967,0.206-4.538c-0.146-0.924-0.298-1.88-0.245-2.881
			c0.021-0.388,0.264-0.729,0.624-0.874c0.359-0.147,0.771-0.07,1.056,0.194c0.041,0.039,0.135,0.07,0.252,0.097
			c-0.652-2.875-1.787-8.47-1.189-10.218c0.123-0.36,0.44-0.619,0.817-0.668c0.158-0.022,0.316-0.004,0.462,0.049
			c0.243-1.956,1.031-3.918,1.897-4.932c0.359-0.42,0.99-0.47,1.41-0.11c0.419,0.358,0.469,0.989,0.11,1.409
			c-0.798,0.934-1.773,3.689-1.425,5.717c0.079,0.462-0.174,0.918-0.608,1.095c-0.265,0.106-0.551,0.095-0.795-0.017
			c0.198,2.15,0.858,5.605,1.608,8.671c0.085,0.347-0.021,0.712-0.279,0.959c-0.258,0.248-0.629,0.339-0.971,0.238
			c-0.198-0.057-0.445-0.088-0.708-0.12c-0.066-0.008-0.134-0.016-0.203-0.025c0.043,0.36,0.101,0.727,0.161,1.103
			c0.316,1.993,0.675,4.251-1.004,6.879c-0.16,0.25-0.422,0.416-0.716,0.454c-0.293,0.033-0.59-0.059-0.807-0.26
			c-0.166-0.154-0.497-0.38-0.829-0.601c-0.092,1.235-0.226,2.6-0.731,3.91c-0.079,0.206-0.224,0.379-0.412,0.494l-0.713,0.436
			c-0.319,0.751-1.209,2.595-2.864,4.268c-0.146,0.147-0.554,0.498-1.119,0.423c-0.089,0.24-0.183,0.512-0.258,0.729
			c-0.367,1.058-0.612,1.73-0.933,2.142c-1.241,1.59-2.775,2.422-4.975,2.699C214.181,254.858,214.139,254.861,214.097,254.861z"/>
	</g>
	<g>
		<path d="M229.063,215.506c-1.847,0-3.268-0.132-3.916-0.295c-0.536-0.135-0.861-0.678-0.726-1.213
			c0.134-0.537,0.677-0.861,1.213-0.727c1.583,0.398,10.826,0.603,16.793-2.362c3.523-1.747,7.167-5.278,5.844-9.479
			c-3.338-10.724-13.589-17.358-26.153-16.883c-0.576,0.032-1.016-0.411-1.037-0.962c-0.021-0.552,0.41-1.016,0.962-1.036
			c13.467-0.505,24.522,6.674,28.135,18.283c1.4,4.446-1.293,9.106-6.863,11.868C238.886,214.902,233.005,215.506,229.063,215.506z"
			/>
	</g>
	<g>
		<path d="M216.774,263c-0.544,0-0.99-0.471-1-1.018c-0.042-2.564,0.351-7.878,1.039-10.021c0.168-0.525,0.732-0.823,1.258-0.655
			c0.526,0.169,0.815,0.728,0.646,1.253c-0.552,1.72-0.987,6.699-0.943,9.392c0.009,0.553-0.431,1.049-0.983,1.049
			C216.786,263,216.78,263,216.774,263z"/>
	</g>
	<g>
		<path d="M223.661,269.718c-2.252,0-4.686-1.285-6.284-3.386c-0.334-0.439-0.249-1.067,0.19-1.401
			c0.439-0.334,1.067-0.249,1.401,0.19c1.354,1.779,3.515,2.83,5.258,2.554c1.285-0.204,2.213-1.102,2.759-2.666
			c0.305-0.915-0.161-2.319-0.61-3.678c-0.355-1.073-0.691-2.087-0.727-3.039c-0.001-0.037,0-0.074,0.002-0.11
			c0.121-1.635,0.7-3.138,1.26-4.592c0.291-0.754,0.591-1.533,0.819-2.314c0.769-2.823,0.24-5.362-0.374-8.304
			c-0.213-1.021-0.434-2.078-0.607-3.196c-0.084-0.546,0.289-1.057,0.834-1.142c0.545-0.085,1.057,0.289,1.142,0.835
			c0.166,1.066,0.381,2.098,0.589,3.095c0.638,3.061,1.241,5.951,0.34,9.256c-0.257,0.879-0.572,1.697-0.877,2.489
			c-0.524,1.359-1.019,2.644-1.127,3.962c0.038,0.661,0.323,1.521,0.624,2.432c0.527,1.591,1.124,3.394,0.605,4.952
			c-0.789,2.262-2.329,3.677-4.339,3.995C224.251,269.695,223.958,269.718,223.661,269.718z"/>
	</g>
	<g>
		<path d="M211.873,268.938c-2.451,0-4.908-0.546-6.183-1.525c-3.505-2.694-3.762-5.6-4.034-8.676
			c-0.111-1.251-0.225-2.545-0.566-3.91c-0.226-1.049-0.521-2.004-0.807-2.927c-0.918-2.973-1.785-5.781,0.208-9.479
			c0.262-0.485,0.869-0.669,1.355-0.405c0.486,0.262,0.667,0.868,0.406,1.354c-1.596,2.96-0.917,5.157-0.058,7.939
			c0.298,0.965,0.606,1.962,0.843,3.065c0.372,1.484,0.499,2.92,0.61,4.186c0.252,2.854,0.451,5.107,3.26,7.267
			c1.357,1.043,5.564,1.552,8.36,0.642c0.995-0.325,1.625-0.785,1.773-1.295c0.404-1.021-1.019-2.516-2.059-3.606
			c-0.782-0.821-1.458-1.531-1.724-2.24c-0.696-2.131-0.226-5.963,0.229-7.521c0.155-0.53,0.709-0.833,1.24-0.68
			c0.53,0.154,0.834,0.71,0.68,1.24c-0.44,1.509-0.744,4.818-0.262,6.298c0.108,0.287,0.761,0.972,1.285,1.522
			c1.492,1.566,3.349,3.516,2.499,5.639c-0.209,0.731-0.938,1.856-3.041,2.544C214.706,268.755,213.29,268.938,211.873,268.938z"/>
	</g>
	<g>
		<path d="M216.404,189.342c-0.223,0-0.448-0.074-0.634-0.227c-7.919-6.501-27.437-33.108-26.935-41.548
			c0.07-1.786,0.879-3.348,2.276-4.377c1.516-1.117,3.534-1.452,5.535-0.915c4.656,1.06,21.721,32.294,25.5,41.956
			c0.201,0.515-0.053,1.095-0.567,1.296s-1.094-0.053-1.295-0.567c-5.317-13.595-21.397-40.037-24.119-40.744
			c-1.446-0.385-2.843-0.169-3.868,0.584c-0.897,0.662-1.418,1.679-1.465,2.866c-0.194,3.276,3.519,10.841,9.932,20.256
			c5.721,8.398,12.414,16.478,16.275,19.646c0.427,0.351,0.489,0.981,0.139,1.408C216.979,189.217,216.693,189.342,216.404,189.342z
			"/>
	</g>
	<g>
		<path d="M182.399,257.325c-0.294,0-0.585-0.129-0.783-0.377l-0.283-0.353c-1.832-2.271-4.339-5.382-6.549-17.147
			c-2.301-12.255,0.263-19.384,3.825-21.012c1.596-0.732,3.325-0.382,4.791,0.918c0.176-0.345,0.372-0.764,0.546-1.136
			c1.185-2.532,2.975-6.359,6.547-8.609c3.912-2.463,7.863-2.346,11.042-2.256c2.8,0.083,5.014,0.146,6.343-1.441
			c0.869-0.879,1.912-2.359,1.765-3.021c-0.012-0.053-0.047-0.213-0.473-0.368c-0.431-0.158-0.7-0.589-0.651-1.046
			c0.181-1.697,0.897-3.062,1.789-4.341c-0.237-0.1-0.496-0.216-0.78-0.347l-0.169-0.078c-0.392-0.178-0.625-0.587-0.581-1.015
			c0.166-1.58,1.406-2.859,2.606-4.098c0.02-0.021,0.04-0.041,0.06-0.062c-0.274-0.085-0.501-0.284-0.619-0.552
			c-0.14-0.316-0.105-0.684,0.091-0.97c0.075-0.109,1.863-2.707,3.001-3.935c0.376-0.404,1.009-0.428,1.413-0.053
			c0.405,0.376,0.429,1.009,0.053,1.414c-0.545,0.587-1.289,1.57-1.875,2.376l0.068,0.01c0.353,0.049,0.653,0.282,0.788,0.612
			s0.083,0.707-0.134,0.989c-0.41,0.531-0.918,1.055-1.409,1.562c-0.734,0.757-1.487,1.533-1.845,2.255
			c0.373,0.16,0.789,0.323,0.969,0.336c0.397-0.039,0.74,0.195,0.918,0.54c0.178,0.346,0.129,0.763-0.108,1.07
			c-0.974,1.26-1.813,2.437-2.137,3.839c0.627,0.436,0.88,0.989,0.978,1.428c0.44,1.992-1.792,4.35-2.244,4.802
			c-1.893,2.266-4.797,2.184-7.875,2.092c-3.057-0.086-6.522-0.188-9.919,1.95c-3.075,1.936-4.716,5.442-5.801,7.764
			c-0.748,1.598-1.16,2.479-1.925,2.766c-0.405,0.151-0.864,0.025-1.134-0.313c-0.6-0.755-1.824-1.921-3.257-1.264
			c-2.305,1.054-4.923,6.937-2.691,18.824c2.117,11.271,4.347,14.038,6.14,16.262l0.29,0.361c0.344,0.432,0.273,1.061-0.159,1.405
			C182.837,257.254,182.618,257.325,182.399,257.325z"/>
	</g>
	<g>
		<path d="M224.88,184.441c-0.146,0-0.295-0.032-0.436-0.101c-0.497-0.241-0.704-0.839-0.463-1.336
			c0.818-1.687,1.937-3.896,3.209-6.407c4.92-9.717,13.156-25.981,13.12-30.817c-0.017-2.237-0.994-4.528-2.178-5.105
			c-0.196-0.095-0.791-0.385-1.771,0.369c-4.278,3.284-15.562,30.967-15.468,40.192c0.005,0.552-0.438,0.764-0.99,0.764
			c-0.003,0-0.007,0-0.01,0c-0.548,0-0.995-0.195-1-0.744c-0.094-9.323,10.992-37.884,16.25-41.92
			c1.264-0.974,2.638-1.118,3.866-0.52c2.141,1.044,3.281,4.287,3.301,6.919c0.037,4.915-6.288,17.832-13.336,31.75
			c-1.266,2.5-2.379,4.706-3.193,6.385C225.607,184.227,225.251,184.441,224.88,184.441z"/>
	</g>
	<g>
		<path d="M185.247,264.447C185.247,264.447,185.247,264.447,185.247,264.447c-2.446,0-4.533-0.697-5.583-1.864
			c-0.618-0.687-0.895-1.529-0.799-2.436c0.194-3.105,1.943-4.984,4.674-4.984c1.975,0,4.255,1.052,5.808,2.679
			c1.202,1.26,1.827,2.721,1.762,4.114c-0.022,0.514-0.346,0.885-0.717,1.076C189.27,263.92,187.365,264.447,185.247,264.447z
			 M183.539,257.163c-1.648,0-2.55,1.06-2.682,3.151c-0.04,0.384,0.055,0.666,0.293,0.931c0.658,0.73,2.266,1.202,4.097,1.202
			c0,0,0,0,0,0c1.601,0,3.087-0.367,3.852-0.944c-0.078-0.746-0.495-1.541-1.2-2.28C186.724,257.99,184.972,257.163,183.539,257.163
			z"/>
	</g>
	<g>
		<path d="M188.345,258.791c-0.217,0-0.436-0.07-0.62-0.215c-3.96-3.129-4.507-11.145-4.519-18.398
			c-0.001-0.553,0.446-1.178,0.999-1.178c0,0,0.001,0,0.001,0c0.552,0,0.999,0.621,1,1.174c0.01,6.381,0.447,14.129,3.759,16.744
			c0.433,0.343,0.507,1.016,0.165,1.449C188.933,258.617,188.64,258.791,188.345,258.791z"/>
	</g>
	<g>
		<path d="M190.118,258.894c-0.629,0-1.259-0.034-1.891-0.109c-0.548-0.065-0.94-0.562-0.875-1.111
			c0.065-0.548,0.567-0.944,1.111-0.875c4.054,0.479,8.144-0.912,12.097-2.262l1.287-0.437c0.524-0.176,1.09,0.106,1.266,0.631
			c0.175,0.523-0.107,1.09-0.63,1.266l-1.277,0.433C197.792,257.595,193.984,258.894,190.118,258.894z"/>
	</g>
	<g>
		<path d="M229.741,197.781L229.741,197.781c-0.753,0-1.507-0.483-1.835-1.177c-0.292-0.617-0.201-1.31,0.245-1.853
			c0.312-0.427,0.798-0.686,1.336-0.686c0.719,0,1.415,0.487,1.731,1.214c0.302,0.692,0.184,1.452-0.308,1.982
			C230.678,197.567,230.231,197.781,229.741,197.781z M229.396,196.06c0.018,0,0.05,0.007,0.09,0.007
			c0.127,0,0.221-0.062,0.246-0.092c0.011-0.014,0.016-0.12-0.005-0.193c-0.103,0.005-0.243,0.063-0.339,0.187
			c0.002,0-0.007,0.056-0.004,0.095C229.386,196.061,229.391,196.06,229.396,196.06z"/>
	</g>
	<g>
		<path d="M247.369,207.645c-0.834,0-1.619-0.277-2.205-0.821c-0.405-0.376-0.428-1.009-0.052-1.413s1.009-0.428,1.413-0.052
			c0.462,0.429,1.305,0.323,1.899-0.003c0.484-0.267,1.091-0.089,1.358,0.396c0.266,0.483,0.088,1.092-0.396,1.357
			C248.733,207.468,248.035,207.645,247.369,207.645z"/>
	</g>
	<g>
		<path d="M198.248,263.243c-4.514,0-8.298-0.361-9.249-2.269c-0.247-0.494-0.045-1.095,0.449-1.341
			c0.497-0.248,1.095-0.045,1.341,0.448c0.436,0.873,3.797,1.255,9.99,1.132c0.884-0.019,1.622-0.032,2.108-0.016
			c0.552,0.018,0.985,0.479,0.967,1.031c-0.018,0.552-0.446,1.008-1.032,0.967c-0.461-0.014-1.162,0-2.004,0.017
			C199.945,263.23,199.084,263.243,198.248,263.243z"/>
	</g>
	<g>
		<path d="M182.622,227.521c-0.496,0-0.926-0.368-0.99-0.873c-0.192-1.503,0.698-5.253,0.879-5.99
			c0.131-0.536,0.674-0.865,1.209-0.733c0.537,0.132,0.865,0.673,0.733,1.21c-0.383,1.566-0.95,4.379-0.838,5.26
			c0.07,0.548-0.317,1.049-0.865,1.119C182.707,227.518,182.664,227.521,182.622,227.521z"/>
	</g>
	<g>
		<path d="M217.035,186c-0.004,0-0.009,0-0.013,0c-0.552,0-0.994-0.584-0.987-1.136c0.04-3.105-1.621-6.236-3.228-9.204
			c-0.853-1.574-1.734-3.232-2.335-4.834c-0.194-0.518,0.067-1.109,0.584-1.304c0.517-0.191,1.094,0.06,1.288,0.577
			c0.553,1.473,1.364,2.966,2.222,4.551c1.728,3.193,3.515,6.615,3.469,10.241C218.027,185.439,217.581,186,217.035,186z"/>
	</g>
	<g>
		<path fill="#F9F9F9" d="M136.491,176.888c-0.712-2.883-3.505-9.256,0.414-10.038c5.006-0.646,12.384,11.127,14.703,15.245
			c4.089,7.231,8.534,14.769,11.624,22.548c1.371-0.813,3.486-0.681,4.474-0.607c-0.002-8.182,1.736-26.89,3.087-31.648
			c1.007-3.732,2.561-14.246,8.632-11.877c2.344,0.913,2.787,6.454,2.636,9.26c-0.314,5.235,0.764,17.499-7.362,34.004
			c-0.556,1.132-1.14,1.551-0.98,2.313c1.903,1.075,8.486,10.128,8.666,14.958c0.109,2.926-0.756,5.091-0.078,6.64
			c1.107,2.381,3.113,7.525,1.933,9.988c-0.273-0.497-0.923-0.855-1.441-1.09c-1.705,2.1-0.202,8.285-0.117,10.574
			c0.163,4.322-1.164,5.547-3.424,8.877c-0.657,0.972-1.996,3.038-2.598,3.953c-1.093,1.441-0.544,4.017-1.26,5.315
			c-1.195,2.085-9.997,3.381-10.13-0.178c-2.354,1.741-5.336,3.765-7.993,0.804c-1.983-1.964-1.512-4.654-0.822-6.718
			c-2.338,0.088-6.832,2.087-9.823,0.414c-3.905-2.274,0.586-6.038,2.03-6.032c-0.811-4.805-3.274-20.949,1.999-25.11
			c-0.766-4.315,2.896-6.029,3.248-6.805c0.686-9.864,2.843-10.869,4.764-13.995C158.673,207.683,140.145,191.649,136.491,176.888z
			 M165.601,258.632l0.201,0.279c0.965-1.036,1.602-3.164,1.838-4.51c-1.189,0.14-1.773-1.463-2.431,0.092
			C164.774,255.656,165.554,257.345,165.601,258.632z"/>
	</g>
	<g>
		<path d="M161.196,206.78c-0.323,0-0.641-0.156-0.833-0.445c-0.307-0.46-0.182-1.081,0.277-1.387
			c1.486-0.991,4.368-2.561,6.978-1.939c0.538,0.127,0.87,0.666,0.742,1.204c-0.128,0.537-0.668,0.869-1.204,0.741
			c-1.365-0.324-3.337,0.279-5.406,1.658C161.579,206.726,161.386,206.78,161.196,206.78z"/>
	</g>
	<g>
		<path d="M169.178,237.54c-1.958,0.001-3.997-0.451-6.167-1.351c-6.15-2.232-8.964-6.086-9.673-13.285
			c-0.407-5.038,0.623-9.898,2.898-13.703c0.209-0.318,0.661-0.812,1.072-1.239l-3.594-3.337
			c-5.39-5.369-10.712-12.226-14.627-18.837c-1.146-1.87-6.971-14.84-4.231-18.9c0.481-0.712,1.429-1.499,3.227-1.199
			c5.004,0.843,10.848,9.426,15.905,17.711l0.548,0.896c3.192,5.502,7.135,12.717,9.432,19.932c0.167,0.526-0.124,1.089-0.65,1.257
			c-0.523,0.167-1.088-0.124-1.256-0.649c-2.238-7.031-6.115-14.121-9.242-19.513l-0.538-0.88
			c-2.667-4.369-9.751-15.977-14.529-16.78c-0.903-0.153-1.129,0.185-1.238,0.345c-1.722,2.552,2.47,13.783,4.287,16.75
			c3.841,6.485,9.05,13.197,14.301,18.429l4.327,4.017c0.201,0.186,0.316,0.446,0.32,0.72s-0.105,0.537-0.302,0.729
			c-0.608,0.593-1.36,1.38-1.516,1.616c-2.04,3.413-2.971,7.852-2.6,12.461c0.628,6.374,2.985,9.631,8.405,11.599
			c4.644,1.925,8.398,1.57,12.216-1.128c5.163-3.854,6.601-8.04,4.788-13.982c-1.977-7.315-6.146-12.872-10.149-13.544
			c-0.544-0.092-0.912-0.607-0.821-1.151c0.091-0.546,0.603-0.918,1.152-0.821c4.823,0.81,9.541,6.823,11.74,14.964
			c2.035,6.671,0.279,11.813-5.535,16.153C174.549,236.637,171.944,237.54,169.178,237.54z"/>
	</g>
	<g>
		<path d="M160.203,220.767c-0.89,0-1.742-0.769-1.898-1.714c-0.148-0.893,0.346-1.671,1.259-1.982
			c0.165-0.06,0.349-0.092,0.531-0.092c0.85,0,1.546,0.69,1.693,1.68c0.142,0.958-0.317,1.796-1.118,2.039
			C160.52,220.743,160.362,220.767,160.203,220.767z M159.874,218.924c0.098,0.052,0.298,0.054,0.349,0.034
			c0.011-0.016,0.053-0.114,0.058-0.189c-0.012,0.001-0.042-0.002-0.077-0.002c-0.039,0-0.077,0.006-0.115,0.017
			C159.993,218.812,159.921,218.869,159.874,218.924z"/>
	</g>
	<g>
		<path d="M177.14,219.319c-0.9,0-1.72-0.724-1.907-1.684c-0.164-0.841,0.252-1.618,1.036-1.936
			c1.059-0.429,2.195,0.204,2.489,1.344c0.219,0.849-0.095,1.675-0.782,2.056C177.715,219.245,177.433,219.319,177.14,219.319z"/>
	</g>
	<g>
		<path d="M171.707,231.944c-1.07,0-2.155-0.463-3.08-1.32c-0.405-0.375-0.429-1.008-0.054-1.413
			c0.375-0.406,1.007-0.431,1.413-0.054c0.599,0.555,1.239,0.826,1.84,0.782c0.539-0.038,1.047-0.334,1.472-0.856
			c0.349-0.43,0.978-0.494,1.407-0.146c0.429,0.348,0.494,0.978,0.146,1.406c-0.781,0.963-1.778,1.514-2.883,1.592
			C171.881,231.94,171.793,231.944,171.707,231.944z"/>
	</g>
	<g>
		<path d="M173.174,206.535c-0.195,0-0.392-0.057-0.564-0.176c-0.456-0.312-0.572-0.935-0.259-1.39
			c6.843-9.978,9.857-23.715,8.488-38.684l-0.022-0.188c-0.305-2.678-0.632-4.336-2.606-4.783c-2.695-0.666-3.614,1.583-4.618,4.828
			l-0.159,0.512c-3.465,10.901-4.824,22.802-4.278,37.453c0.011,0.307-0.119,0.602-0.353,0.8c-0.234,0.198-0.546,0.278-0.848,0.217
			l-0.927-0.19c-0.541-0.111-0.89-0.64-0.778-1.181c0.089-0.435,0.448-0.745,0.866-0.793c-0.436-14.333,0.972-26.089,4.411-36.909
			l0.155-0.499c0.849-2.746,2.27-7.343,6.988-6.184c3.482,0.789,3.858,4.092,4.133,6.503l0.024,0.209
			c1.414,15.454-1.722,29.659-8.828,40.02C173.806,206.384,173.493,206.535,173.174,206.535z"/>
	</g>
	<g>
		<path d="M172.052,203.79c-0.214,0-0.429-0.068-0.611-0.209c-2.613-2.021-1.979-7.13-1.599-10.183l0.083-0.678
			c0.232-3.353,0.871-6.882,1.487-10.296c0.366-2.023,0.744-4.116,1.026-6.12c0.077-0.548,0.583-0.93,1.129-0.852
			c0.547,0.077,0.928,0.582,0.851,1.129c-0.287,2.044-0.669,4.156-1.038,6.199c-0.607,3.36-1.236,6.835-1.465,10.124l-0.088,0.739
			c-0.284,2.282-0.874,7.031,0.838,8.354c0.437,0.338,0.517,0.966,0.179,1.402C172.647,203.656,172.351,203.79,172.052,203.79z"/>
	</g>
	<g>
		<path d="M159.493,205c-0.535,0-0.979-0.416-0.999-0.955c-0.176-4.733-2.719-9.756-4.915-13.605
			c-0.273-0.479-0.106-1.088,0.373-1.361c0.479-0.276,1.09-0.107,1.364,0.374c2.309,4.048,4.984,9.35,5.177,14.519
			c0.021,0.552-0.411,1.029-0.962,1.029C159.518,205,159.505,205,159.493,205z"/>
	</g>
	<g>
		<path d="M158.469,261.332c-0.334,0-0.661-0.167-0.851-0.473c-0.292-0.469-0.147-1.085,0.322-1.377
			c1.627-1.011,3.168-0.631,4.53-0.295l0.117,0.029c0.537,0.132,0.864,0.674,0.732,1.21c-0.132,0.537-0.674,0.87-1.21,0.731
			l-0.119-0.029c-1.33-0.328-2.124-0.487-2.995,0.053C158.832,261.283,158.649,261.332,158.469,261.332z"/>
	</g>
	<g>
		<path d="M168.734,261.667c-0.326,0-0.646-0.159-0.838-0.453c-0.302-0.462-0.172-1.082,0.29-1.384
			c1.277-0.836,2.977-0.618,4.101-0.477c0.548,0.069,0.936,0.57,0.866,1.118c-0.07,0.548-0.567,0.933-1.118,0.866
			c-0.834-0.106-2.094-0.266-2.754,0.166C169.112,261.614,168.922,261.667,168.734,261.667z"/>
	</g>
	<g>
		<path d="M170.144,268.747c-1.715,0-3.468-0.36-4.28-1.114c-2.858-2.291-0.813-7.621,0.68-11.514
			c0.34-0.887,0.634-1.653,0.798-2.212c0.156-0.53,0.71-0.831,1.241-0.679c0.53,0.156,0.833,0.712,0.678,1.241
			c-0.187,0.637-0.494,1.438-0.85,2.366c-1.127,2.939-3.015,7.859-1.24,9.285c0.664,0.612,3.991,0.925,5.492,0.227
			c2.337-1.088,2.35-2.506,2.368-4.469l0.001-0.16c0-0.034,0.002-0.068,0.006-0.103c0.167-1.483,1.295-3.109,2.601-4.991
			c1.439-2.074,3.071-4.426,3.465-6.749c0.44-1.895,0.235-3.932,0.018-6.088c-0.251-2.503-0.512-5.092,0.286-7.446
			c0.109-0.32,0.372-0.563,0.7-0.647c0.329-0.086,0.676,0.004,0.925,0.232c0.025,0.017,0.092,0.039,0.173,0.062
			c0.098-2.576-0.297-6.488-1.867-7.75c-0.431-0.346-0.499-0.976-0.153-1.406c0.346-0.429,0.976-0.497,1.406-0.152
			c2.881,2.316,2.767,8.741,2.5,10.809c-0.043,0.337-0.255,0.629-0.561,0.774c-0.306,0.147-0.666,0.128-0.955-0.051
			c-0.133-0.082-0.328-0.14-0.539-0.196c-0.313,1.695-0.124,3.588,0.076,5.571c0.224,2.225,0.455,4.524-0.049,6.683
			c-0.457,2.703-2.239,5.249-3.798,7.495c-1.086,1.566-2.267,3.047-2.267,4.029v0.102c0,2.069-0.026,4.645-3.509,6.264
			C172.661,268.547,171.42,268.747,170.144,268.747z"/>
	</g>
	<g>
		<path d="M160.9,268.107c-2.383,0-5.106-1.168-5.879-3.17c-0.882-2.283-0.112-5.246,0.819-6.667
			c-0.013-0.846-0.379-3.659-1.018-5.472c-0.097,0.02-0.203,0.033-0.319,0.038c-0.408,0.029-0.788-0.218-0.955-0.593
			c-0.57-1.285-0.672-2.657-0.77-3.984c-0.042-0.562-0.082-1.104-0.156-1.608c-0.104-0.021-0.219-0.044-0.266-0.039
			c-0.392,0.042-0.734-0.188-0.915-0.522c-0.26-0.479-0.538-1.369-0.566-2.144c-0.02-0.553,0.412-1.016,0.964-1.035
			c0.58-0.054,1.015,0.412,1.035,0.963c0.009,0.252,0.076,0.561,0.154,0.819c0.025,0.005,0.049,0.01,0.073,0.015
			c0.125,0.026,0.26,0.049,0.336,0.054c0.462-0.056,0.895,0.305,1.006,0.766c0.201,0.84,0.267,1.727,0.33,2.585
			c0.066,0.893,0.129,1.749,0.331,2.524c0.082-0.014,0.169-0.023,0.264-0.027c0.391-0.033,0.76,0.199,0.936,0.553
			c1.021,2.046,1.762,6.979,1.448,7.814c-0.036,0.096-0.086,0.185-0.149,0.266c-0.623,0.794-1.367,3.286-0.714,4.975
			c0.568,1.471,3.553,2.268,5.221,1.722c2.961-0.976,2.587-6.659,1.656-10.013c-0.148-0.532,0.164-1.083,0.696-1.231
			c0.534-0.145,1.083,0.165,1.231,0.696c1.085,3.904,1.683,10.919-2.958,12.448C162.178,268.02,161.552,268.107,160.9,268.107z"/>
	</g>
	<g>
		<path d="M164.727,256.658c-0.287,0-0.565-0.124-0.758-0.349c-0.595-0.692-1.125-1.514-1.56-2.414
			c-0.04,0.026-0.072,0.052-0.092,0.074c-0.333,0.36-0.875,0.427-1.285,0.156c-1.639-1.08-2.363-2.968-2.855-4.671
			c-0.153-0.53,0.153-1.085,0.684-1.238c0.528-0.151,1.084,0.152,1.238,0.684c0.325,1.127,0.76,2.343,1.529,3.135
			c0.128-0.07,0.252-0.131,0.362-0.185c0.087-0.043,0.167-0.079,0.229-0.115c0.231-0.21,0.55-0.302,0.859-0.239
			c0.341,0.065,0.624,0.304,0.747,0.63c0.194,0.517,0.424,1.011,0.683,1.47c0.137-0.256,0.256-0.491,0.293-0.668
			c0.077-0.362,0.348-0.653,0.705-0.755c0.355-0.102,0.74,0.002,0.997,0.271c0.82,0.856,1.089,0.781,1.987,0.533
			c0.317-0.088,0.656-0.181,1.035-0.242c0.7-0.125,1.131-0.027,1.417,0.037c0.049,0.011,0.093,0.025,0.142,0.028
			c-0.002-0.001,0.151-0.025,0.636-0.354c0.286-0.236,0.694-0.764,1.088-1.274c0.301-0.39,0.612-0.793,0.938-1.143
			c0.376-0.404,1.004-0.427,1.41-0.055c0.033,0.029,0.105,0.081,0.199,0.143c0.311-0.58,0.525-1.312,0.748-2.072l1.919,0.562
			c-0.366,1.248-0.745,2.539-1.639,3.501c-0.291,0.312-0.749,0.406-1.139,0.231c-0.166-0.074-0.371-0.181-0.578-0.3
			c-0.092,0.117-0.183,0.235-0.275,0.354c-0.464,0.602-0.945,1.223-1.48,1.656c-1.143,0.778-1.7,0.829-2.409,0.671
			c-0.194-0.044-0.322-0.072-0.637-0.016c-0.318,0.052-0.586,0.128-0.838,0.197c-0.788,0.22-1.725,0.479-2.855-0.175
			c-0.207,0.382-0.398,0.744-0.454,1.09c-0.062,0.384-0.342,0.697-0.716,0.803C164.908,256.646,164.817,256.658,164.727,256.658z"/>
	</g>
	<g>
		<path d="M151.554,231.17c-0.042,0-0.085-0.003-0.129-0.008c-0.547-0.07-0.935-0.571-0.864-1.119
			c0.113-0.879-0.063-1.619-0.447-1.885c-0.286-0.197-0.449-0.529-0.43-0.876c0.125-2.323,1.274-5.227,3.557-6.475
			c0.485-0.268,1.093-0.088,1.357,0.397c0.265,0.484,0.087,1.092-0.397,1.356c-1.397,0.765-2.266,2.69-2.478,4.365
			c0.705,0.773,1.002,1.965,0.822,3.37C152.479,230.802,152.049,231.17,151.554,231.17z"/>
	</g>
	<g>
		<path d="M156.058,259.846c-0.13,0-0.262-0.025-0.389-0.079c-0.751-0.317-1.436-0.516-2.099-0.708
			c-1.795-0.52-3.492-1.011-5.012-3.597c-0.276-0.354-1.025-1.525-0.971-3.717c0.027-1.006-0.376-2.795-0.671-4.102
			c-0.151-0.669-0.285-1.265-0.354-1.693c-0.047-0.586-0.091-1.113-0.137-1.662c-0.468-5.571-1.109-13.201,3.872-16.991
			c0.439-0.335,1.067-0.249,1.401,0.19s0.249,1.066-0.19,1.401c-4.106,3.125-3.519,10.123-3.09,15.232
			c0.047,0.556,0.092,1.091,0.129,1.596c0.054,0.311,0.18,0.864,0.321,1.486c0.335,1.488,0.753,3.34,0.719,4.594
			c-0.042,1.697,0.526,2.408,0.55,2.438c0.035,0.042,0.084,0.109,0.112,0.156c1.128,1.95,2.163,2.251,3.878,2.747
			c0.685,0.198,1.46,0.424,2.32,0.787c0.509,0.215,0.747,0.802,0.532,1.311C156.818,259.616,156.448,259.846,156.058,259.846z"/>
	</g>
	<g>
		<path d="M149.438,261.009c-1.125,0-1.938-0.062-1.963-0.064c-0.958-0.089-1.702-0.455-2.213-1.087
			c-0.837-1.033-0.779-2.473-0.663-3.466c0.542-3.118,2.985-3.877,4.216-3.8c0.552,0.02,0.983,0.482,0.964,1.034
			c-0.02,0.549-0.456,0.962-1.026,0.965c-0.315,0.003-1.825,0.084-2.176,2.089c-0.106,0.925-0.029,1.589,0.239,1.919
			c0.06,0.074,0.241,0.298,0.843,0.354c1.99,0.185,6.113-0.107,6.788-0.712c0.176-0.479,0.69-0.753,1.193-0.622
			c0.534,0.14,0.853,0.687,0.713,1.221C155.86,260.711,151.9,261.009,149.438,261.009z"/>
	</g>
</g>
<g id="Magier">
	<g id="weW2kj.tif" display="none">
		
			<image display="inline" overflow="visible" width="431" height="666" id="Layer_0" xlink:href="831D629A7727054A.png"  transform="matrix(0.2169 0 0 0.2169 275.5112 140.958)">
		</image>
	</g>
	<g>
		<g>
			<path d="M407.753,68.66c1.86-0.167,11.275-0.097,20.965,0.416c4.404,0.585,6.909,1.275,4.242,2.745
				c-7.452,4.107-35.037,6.678-50.667,5.89c-12.746-0.623-22.835-5.463-21.385-7.069c0.96-1.061,7.223-2.48,12.824-2.127
				c2.827,0.182,7.657,0.164,7.657,0.164L407.753,68.66z"/>
		</g>
	</g>
	<g>
		<g>
			<path d="M406.666,51.043c0,0,2.35-44.493,1.973-46.867c-5.915-1.763-29.268-2.766-36.632,2.433
				c1.644,8.31,13.267,44.593,12.084,46.38C386.555,54.052,396.02,57.725,406.666,51.043z"/>
		</g>
	</g>
	<g>
		<g>
			<path fill="#F4942F" d="M384.227,52.79c0,0-0.435,0.486-0.372,0.824c0.062,0.34,0.114,0.62,0.366,1.039
				c0.254,0.421,0.057,0.631-0.486,0.845c-0.542,0.22,0.084,0.452,0.28,0.881c0.195,0.429-0.855,0.736-0.449,1.365
				c0.407,0.62,1.279,0.927,0.237,1.292c-1.037,0.365-1.351,0.25-1.075,0.781c0.274,0.534-0.424,0.545-0.117,0.952
				c0.307,0.412,1.669,0.858,0.73,1.438c-0.939,0.583-0.664,0.822-0.489,1.78c0.176,0.957-0.921,0.984-0.541,1.495
				c0.387,0.512,1.011,0.749,0.717,1.671c-0.295,0.929-0.336,1.345-0.095,1.708c0.244,0.36,0.049,0.571-0.019,1.167
				c1.958,1.444,9.835,2.5,14.845,2.217c5.013-0.285,11.738-2.973,11.966-3.311c0.229-0.331-0.321-0.171-0.193-0.716
				c0.139-0.55,0.314-1.459,0.047-2.283c-0.267-0.826-1.84-1.467-1.526-1.989c0.313-0.524,1.385-1.945,1.059-2.462
				c-0.328-0.523-1.671-0.861-1.494-1.474c0.179-0.612,1.647-1.175,1.346-1.878c-0.305-0.699-0.692-1.852-0.583-2.514
				c0.115-0.658-0.48-0.724-0.687-1.211c-0.207-0.486,0.495-0.79,0.099-1.358c-0.395-0.566-0.733-1.143-0.616-1.454
				c0.116-0.314-0.166-0.902-0.48-1.021c-0.763,0.604-6.872,3.477-15.207,3.727C387.783,54.406,384.227,52.79,384.227,52.79z"/>
		</g>
	</g>
	<g>
		<path d="M476.747,197.38c-1.541-1.236-7.25-5.377-7.25-5.377l1.653-1.277l-30.027-27.248c-1.193-1.326-16.571-35.558-18.56-39.522
			c-1.983-3.974-5.16-6.748-9.127-7.808c0,0-0.86,0.024-2.053-0.078c0.212-0.234,0.333-0.582,0.333-0.582s-4.762-9.922-7.938-12.701
			c-0.855-0.75-2.777,15.345-2.645,20.106c0.129,4.767-2.854,15.436-3.912,21.251c-0.796,3.839-3.621,10.653-3.621,10.653
			s1.002-27.847-6.932-35.784c-2.247-2.512-4.319-7.233-3.527-10.275c0.794-3.044,1.984-7.541,1.191-8.6
			c-0.397,2.119,0.133,3.31-2.382,4.898c-2.518,1.588-3.967,1.983-4.498,3.304c-0.53,1.323,1.19,2.646,0,3.974
			c-1.19,1.319-2.775,1.186-4.759,0.658c0.26,0.661,3.305,2.646,5.553,2.383c1.238-0.146-2.118,3.568-3.967,3.702
			c-1.854,0.131-3.04,0.525-4.501,0.396c-1.116-0.098-3.306,0.268-4.891,1.458c0,0-22.401,24.935-33.746,42.584
			c-13.251,7.563-20.553,11.726-30.373,17.83c0,0-5.462,2.785-6.979,3.246c0.362,0.815,0.66,1.175,0.66,1.175
			s-2.62,0.936-6.397,0.493c0,0-3.155-0.807-4.191-1.529c-1.034-0.721-2.629-1.728-5.939-0.783
			c-3.311,0.942-10.812,3.721-12.813,4.035c0.805,1.512,3.912,1.72,7.008,0.645c3.094-1.075,6.461-1.298,6.689-0.378
			c0.229,0.919-6.808,6.97-7.817,8.321c-5.026,2.654-15.792,8.985-13.396,12.975c0.85-0.27,1.527-0.989,2.406-1.882
			c0.879-0.889,5.612-4.688,9.687-6.49c-6.322,4.566-6.85,5.605-7.894,7.611c-1.163,2.23,2.794,0.858,2.737,0.63
			c0,0,6.621-5.306,10.55-7.444c3.934-2.136,12.731-9.969,13.235-10.639c0.503-0.675,2.938-2.689,6.853-3.174
			c0.488,0.734,3.077,4.973,3.077,4.973s33.701-18.304,39.173-20.885c1.165-0.474,3.891-4.323,3.891-4.323
			s28.081-32.663,28.572-33.397c0.49-0.736,1.328,1.129,1.328,1.129c2.647,3.438,1.81,14.227,3.133,32.734
			c1.324,18.507-1.697,34.766-1.697,33.312c-3.546,10.179-13.139,57.463-13.667,59.44c0,0-2.495,11.723,5.198,12.574
			c5.431,0.598,10.473-3.717,12.977-6.307l0.729,2.703c0,0-2.24,3.462,0,5.884c4.747,5.131,7.867,2.265,11.569,0
			c3.702-2.266,1.214-13.764-0.43-23.709c-0.891-5.379-4.463-4.831-6.128-4.256c0.715-2.822,1.485-5.872,2.28-9.072
			c0.591,2.419,1.23,3.955,1.888,4.076c2.199,0.409,3.252-16.631,3.713-28.304c0.413-1.988,0.805-3.952,1.174-5.885
			c1.979,10.92,6.887,36.733,8.923,36.041c2.218-0.76,2.51-30.066,2.547-38.234c2.153,0.03,5.558,0.161,11.385,0.469
			c17.581,0.923,21.283-0.464,21.283,1.387l-11.818,63.171c0,0,1.698,0.252,3.398,0.503c0.425,0.507,0.764,3.211-0.613,4.374
			c-0.942,0.801-2.926,5.466-2.5,7.236c7.175,4.035,18.125,4.286,19.398,4.286s9.14-0.853,7.506-3.91
			c-1.416-2.646-4.105-4.418-6.796-5.553c-2.354-0.992-9.195-2.89-9.349-3.027c-0.849-0.755-1.839-3.529,1.557-5.169l15.41-65.993
			c0.925-5.934-5.604-10.309-5.604-10.309c-8.056-6.476-31.238-7.216-42.851-8.864c0.052-3.099-1.452-9.694-3.758-13.781
			c4.571-12.408,10.17-29.719,11.15-34.163c0.999-4.522,3.006-4.76,3.932-3.7c0.926,1.059,15.414,31.063,17.531,33.316
			l30.035,27.872c0,0,0,0,1.542,0c1.543,0,7.399,9.763,7.399,9.763S478.289,198.611,476.747,197.38z M405.637,111.959
			c0,0,2.377-1.633,4.36,3.13c0.174,0.416,0.338,0.694,0.491,0.883c-1.244-0.156-2.679-0.447-3.929-1.017
			C406.032,115.222,405.364,113.015,405.637,111.959z"/>
	</g>
</g>
<g id="neuer_Hase">
	<g>
		<path fill="#F9F9F9" d="M495.271,186.689c0,0,46.723-15.311,51.176-34.791c0.578-4.599-27.601,12.65-46.863,25.305
			c12.938-18.404,25.588-35.655,19.55-39.393c-6.038-3.737-21.562,28.177-27.028,41.114c-1.436-0.285-3.735-1.148-3.735-1.148
			s-15.813-13.514-34.215,1.437c-0.287,3.737-0.575,6.037,13.8,19.836c3.45,2.591,4.602,4.889,3.739,7.768
			c-0.863,2.874-1.151,10.636-1.151,10.636l1.151,1.152c0,0-0.863,3.737-0.289,5.176c0.576,1.435,0.576,1.437,0.576,5.172
			c0,3.738,2.302,1.729,2.588,7.766c0.287,6.038,0.864,12.652,4.889,12.938c0.286,6.039,0,4.888,0,4.888s-2.301-0.572-2.59,6.038
			c-0.288,6.612,0.864,10.639,3.739,16.389c-2.587,2.876-5.174,2.876-5.174,2.876s-14.379-2.301-17.542,7.187
			c6.901,2.588,18.403,0.863,34.791-3.737c5.464,1.728,10.926,2.588,10.926,2.588l-0.575,2.012c0,0-0.861,2.017,7.188,2.017
			s13.8-1.439,5.174-6.902c2.777-3.123,6.734-7.801,8.052-14.091c1.959-9.344-0.079-20.592-5.751-22.137
			c-4.024-15.526-7.188-18.114-26.162-45.429c3.16-4.599,2.586-6.613,2.586-6.613l0.863-2.298l-0.576-1.153l0.287-2.01l-1.147-2.014
			L495.271,186.689z"/>
	</g>
	<g>
		<path d="M479.56,250.193c-0.351,0-0.712-0.049-1.078-0.146c-2.724-0.725-4.329-4.755-4.909-12.319
			c-0.041-0.531-0.06-1.003-0.075-1.431c-0.068-1.765-0.094-2.425-1.537-3.726c-2.619-2.357-0.304-7.856-0.031-8.476
			c0.223-0.505,0.814-0.732,1.317-0.512c0.505,0.222,0.734,0.812,0.514,1.317c-0.678,1.544-1.681,5.087-0.461,6.184
			c2.07,1.866,2.123,3.237,2.196,5.135c0.016,0.405,0.032,0.852,0.071,1.355c0.68,8.869,2.625,10.325,3.43,10.539
			c0.546,0.146,0.982,0.099,1.385-0.148c0.914-0.56,1.401-2.025,1.512-2.543c0.115-0.539,0.649-0.877,1.185-0.771
			c0.539,0.114,0.885,0.642,0.773,1.181c-0.058,0.275-0.611,2.721-2.416,3.834C480.866,250.017,480.23,250.193,479.56,250.193z"/>
	</g>
	<g>
		<path d="M489.383,257.89c-0.657,0-1.314-0.137-1.946-0.41c-1.936-0.838-3.427-2.859-4.2-5.692
			c-1.084-3.976-2.718-12.748-1.584-15.013c0.809-1.614,1.224-3.05,1.228-3.064c0.152-0.53,0.704-0.839,1.236-0.686
			c0.531,0.151,0.839,0.704,0.688,1.235c-0.019,0.065-0.467,1.62-1.362,3.409c-0.611,1.222,0.291,8.334,1.725,13.592
			c0.609,2.234,1.698,3.792,3.064,4.384c0.839,0.361,1.719,0.321,2.547-0.116c0.558-0.295,1.151-2.615-0.589-9.293l-0.056-0.218
			c-0.224-0.896,0.488-1.587,1.667-2.732c1.2-1.166,2.843-2.763,3.057-4.265c0.393-2.741-0.944-6.528-0.958-6.565
			c-0.187-0.521,0.085-1.093,0.604-1.278c0.522-0.188,1.093,0.086,1.278,0.604c0.062,0.175,1.517,4.297,1.056,7.521
			c-0.311,2.178-2.236,4.05-3.644,5.417c-0.365,0.354-0.844,0.82-1.051,1.083c1.729,6.667,1.589,10.428-0.431,11.494
			C490.967,257.691,490.175,257.89,489.383,257.89z"/>
	</g>
	<g>
		<path d="M484.268,268.288c-0.307,0-0.608-0.14-0.805-0.404c-5.784-7.806-5.035-17.885-5.001-18.31
			c0.046-0.55,0.52-0.973,1.077-0.915c0.551,0.044,0.961,0.526,0.917,1.076c-0.008,0.098-0.714,9.769,4.614,16.957
			c0.328,0.444,0.235,1.07-0.208,1.399C484.683,268.225,484.475,268.288,484.268,268.288z"/>
	</g>
	<g>
		<path d="M510.144,290.91c-3.57,0-6.91-0.394-7.663-1.299c-0.841-1.008-0.622-2.232-0.2-3.195
			c-3.479-0.263-8.065-1.489-9.193-1.802c-1.118,0.251-6.059,1.348-15.942,3.397c-15.21,3.156-18.625,1.569-19.87,0.1
			c-0.167-0.197-0.251-0.451-0.235-0.709c0.556-8.904,14.561-8.899,19.151-8.889c0.505,0,0.854,0.006,1.008-0.012
			c0.269-0.084,1.25-0.779,2.212-1.533c-0.915-1.263-2.512-4.034-3.869-9.307c-2.042-7.948,2.79-14.001,2.997-14.255
			c0.348-0.427,0.979-0.493,1.407-0.144c0.428,0.349,0.492,0.978,0.145,1.405l0,0c-0.044,0.055-4.397,5.548-2.611,12.495
			c1.813,7.05,4.005,9.195,4.026,9.216c0.207,0.196,0.324,0.477,0.314,0.762c-0.009,0.285-0.136,0.557-0.355,0.739
			c-0.831,0.692-2.871,2.573-3.849,2.817c-0.225,0.058-0.477,0.302-1.427,0.302c-0.021,0-0.045,0-0.066,0
			c-10.679,0-16.406,1.961-17.039,6.311c1.1,0.757,4.853,1.523,17.655-1.137c11.284-2.34,16.106-3.494,16.154-3.506
			c0.164-0.038,0.335-0.063,0.497-0.016c0.068,0.019,6.568,1.902,10.16,1.829c1.441-1.683,3.638-2.782,6.389-3.176
			c4.662-0.604,9.604,2.916,10.546,5.503c0.422,1.159,0.119,2.203-0.811,2.796C518.388,290.423,514.123,290.91,510.144,290.91z
			 M504.806,286.095c-0.447,0.54-1.161,1.789-0.788,2.236c1.279,0.845,12.632,0.826,14.582-0.416
			c0.052-0.032,0.13-0.083,0.005-0.427c-0.631-1.735-4.618-4.703-8.395-4.209c-1.674,0.24-3.975,0.916-5.366,2.768
			c-0.007,0.009-0.014,0.018-0.021,0.026C504.817,286.08,504.812,286.088,504.806,286.095z"/>
	</g>
	<g>
		<path d="M515.399,284.009c-0.313,0-0.622-0.146-0.816-0.422c-0.319-0.449-0.214-1.073,0.235-1.393
			c0.102-0.073,7.528-5.545,8.209-17.502c0.339-6.006-1.087-14.018-3.751-16.371c-0.555-0.49-1.087-0.666-1.688-0.559
			c-0.541,0.107-1.063-0.26-1.162-0.805c-0.1-0.543,0.261-1.063,0.805-1.162c1.194-0.219,2.362,0.137,3.369,1.026
			c3.573,3.157,4.737,12.416,4.423,17.983c-0.738,12.982-8.708,18.778-9.047,19.019C515.802,283.949,515.6,284.009,515.399,284.009z
			"/>
	</g>
	<g>
		<path d="M517.411,248c-0.013,0-0.024,0-0.037,0c-0.55,0-0.98-0.59-0.964-1.141c0.002-0.072,0.027-4.07-3.927-12.389
			c-2.37-4.979-7.78-12.576-12.554-19.254c-5.264-7.364-8.523-12.008-9.075-14.166c-0.022-0.084-0.034-0.179-0.034-0.268
			c0-0.266,0.104-0.512,0.275-0.691c0.164-0.285,0.437-0.702,0.841-0.956c0.021-0.108,0.04-0.224,0.055-0.312
			c0.059-0.344,0.119-0.7,0.223-0.997c0.073-0.211,0.215-0.392,0.403-0.513c0.107-0.069,0.228-0.17,0.362-0.279
			c0.157-0.127,0.33-0.268,0.522-0.406c-0.306-0.738-0.658-1.633-0.597-2.409c0.022-0.281,0.163-0.54,0.387-0.712
			c0.172-0.133,0.521-0.443,0.853-0.758c-0.611-0.614-1.149-1.363-1.161-1.719c-0.012-0.388,0.202-0.747,0.548-0.922
			c0.119-0.071,0.343-0.298,0.543-0.528c-0.567-0.619-1.24-1.53-1.311-2.298c-0.047-0.516,0.309-0.983,0.819-1.075
			c5.165-0.93,15.904-5.464,26.116-11.026c11.533-6.283,20.065-12.558,22.822-16.785c3.396-5.208,3.062-6.259,3.013-6.361
			c-0.311-0.188-1.716-0.168-7.363,2.427c-7.821,3.59-44.991,28.143-45.365,28.39c-0.309,0.203-0.701,0.222-1.025,0.047
			s-0.526-0.513-0.526-0.881c0-0.483,0.055-1.057,0.119-1.582c-0.634,0.056-1.308-0.038-1.733-0.494
			c-0.558-0.602-1.452-1.3-2.902-2.27c-3.048-2.031-5.574-3.534-10.328-4.37c-8.257-1.078-18.12,0.541-21.448,6.607
			c-0.539,1.241,2.176,7.111,6.968,12.204c2.228,2.368,4.513,4.271,6.349,5.801c2.253,1.876,3.74,3.115,4.088,4.312
			c0.079,0.296,0.613,2.724-0.826,10.081c0.129,0.027,0.254,0.08,0.367,0.159c0.397,0.278,0.538,0.801,0.334,1.241
			c-0.187,0.403-0.395,0.947-0.567,1.531c0.276-0.17,0.622-0.197,0.93-0.062c0.431,0.191,0.67,0.657,0.573,1.118
			c-0.588,2.818-0.902,5.708-0.822,7.176c1.185-0.795,1.812-0.96,2.377-0.523c0.287,0.221,0.437,0.572,0.414,0.929l0.365,3.83
			l1.406,0.625c0.41,0.183,0.648,0.615,0.583,1.06l-0.315,2.15l0.896-0.245c0.309-0.082,0.636-0.016,0.885,0.182
			c0.25,0.197,0.39,0.502,0.378,0.82c-0.035,0.958-0.003,2.45,0.159,3.242c0.394-0.267,0.938-0.226,1.279,0.127
			c0.383,0.392,0.384,1.014-0.004,1.4c-0.144,0.144-0.905,0.844-1.821,0.662c-0.315-0.065-0.892-0.295-1.217-1.108
			c-0.299-0.746-0.387-2.04-0.406-3.048l-1.096,0.3c-0.325,0.088-0.674,0.007-0.927-0.216c-0.253-0.225-0.375-0.561-0.326-0.895
			l0.427-2.912l-1.247-0.555c-0.33-0.147-0.555-0.46-0.589-0.819l-0.306-3.205c-0.225,0.154-0.499,0.352-0.831,0.601
			c-0.369,0.275-0.882,0.265-1.239-0.032c-1.022-0.851-0.996-3.524-0.607-6.386c-0.088,0.011-0.181,0.009-0.272-0.005
			c-0.37-0.058-0.678-0.317-0.796-0.673c-0.339-1.019-0.221-2.251,0.025-3.328c-0.382-0.217-0.579-0.658-0.482-1.088
			c1.967-8.81,1.375-11.588,1.369-11.615c-0.167-0.569-1.829-1.954-3.437-3.293c-1.878-1.564-4.215-3.511-6.526-5.967
			c-4.493-4.775-8.5-11.725-7.304-14.457c3.82-6.975,14.571-8.877,23.544-7.702c5.171,0.909,7.987,2.585,11.136,4.684
			c1.51,1.009,2.46,1.748,3.129,2.437c0.226,0.008,0.661-0.051,0.895-0.127c0.247-0.239,0.599-0.368,0.933-0.287
			c0.905,0.217,0.776,1.088,0.691,1.664c-0.016,0.103-0.032,0.217-0.05,0.339c7.566-4.98,36.827-24.147,43.891-27.39
			c5.275-2.425,8.389-3.447,9.724-1.9c1.164,1.35,0.361,3.802-2.862,8.744c-6.501,9.97-37.34,25.545-48.943,28.403
			c0.249,0.313,0.536,0.624,0.727,0.768c0.358,0.271,0.492,0.746,0.328,1.164c-0.133,0.337-0.516,0.861-0.942,1.31
			c0.238,0.253,0.5,0.516,0.652,0.652c0.35,0.163,0.577,0.516,0.577,0.906c0,0.24-0.087,0.464-0.231,0.639l0.001,0.001
			c-0.304,0.364-0.942,0.976-1.42,1.397c0.095,0.389,0.313,0.916,0.447,1.238c0.146,0.354,0.262,0.633,0.315,0.874
			c0.104,0.466-0.135,0.939-0.571,1.133c-0.304,0.134-0.619,0.39-0.898,0.615c-0.069,0.057-0.137,0.111-0.202,0.162
			c-0.025,0.127-0.05,0.272-0.073,0.408c-0.077,0.452-0.149,0.88-0.317,1.21c-0.143,0.281-0.405,0.473-0.704,0.53
			c-0.007,0.01-0.014,0.021-0.021,0.032c0.864,2.224,4.811,7.745,8.636,13.096c4.821,6.745,10.286,14.39,12.733,19.529
			c4.225,8.889,4.126,13.195,4.119,13.37C518.39,247.465,517.946,248,517.411,248z"/>
	</g>
	<g>
		<path d="M491.624,179.335c-0.135,0-0.271-0.027-0.402-0.085c-0.506-0.224-0.734-0.813-0.512-1.318
			c5.859-13.277,20.217-40.859,27.197-41.376c1.062-0.08,1.97,0.407,2.576,1.366c5.412,8.569-18.28,36.997-20.999,40.21
			c-0.357,0.424-0.988,0.473-1.409,0.118c-0.422-0.357-0.475-0.988-0.118-1.409c0.065-0.077,6.563-7.777,12.342-16.366
			c9.901-14.718,9.571-19.778,8.493-21.484c-0.276-0.437-0.53-0.455-0.736-0.44c-4.209,0.312-16.371,19.468-25.516,40.189
			C492.375,179.112,492.009,179.335,491.624,179.335z"/>
	</g>
	<g>
		<path d="M508.211,269.632c-0.076,0-0.152-0.009-0.229-0.026c-0.537-0.126-0.871-0.664-0.745-1.202
			c2.136-9.107,3.443-11.304,3.585-11.524c0.299-0.463,0.917-0.597,1.383-0.299c0.46,0.297,0.596,0.908,0.306,1.372
			c-0.035,0.059-1.293,2.24-3.326,10.908C509.075,269.321,508.665,269.632,508.211,269.632z"/>
	</g>
	<g>
		<path d="M478.412,183.453c-0.994,0-1.412-0.769-1.412-1.714c0-0.001,0-0.001,0-0.002l-0.154-0.001l0,0
			c0-0.001-0.077-0.001-0.077-0.001c0-0.446,0.153-0.87,0.485-1.163c0.225-0.197,0.604-0.433,1.229-0.433c0.553,0,0.99,0.447,0.99,1
			c0,0.25-0.336,0.479-0.487,0.653c0.159,0.177,0.014,0.409,0.014,0.661c0,0.006,0,0.012,0,0.018
			C479,183.017,478.957,183.453,478.412,183.453z"/>
	</g>
	<g>
		<path d="M492.467,188.479c-0.475,0-0.896-0.339-0.983-0.822c-0.098-0.544,0.263-1.063,0.807-1.162l1.579-0.285
			c0.551-0.099,1.063,0.264,1.162,0.807c0.098,0.544-0.263,1.063-0.807,1.162l-1.579,0.285
			C492.585,188.475,492.525,188.479,492.467,188.479z"/>
	</g>
	<g>
		<path d="M458.289,182.368c-2.135,0-3.497-0.279-4.048-0.829c-0.675-0.672-1.053-1.652-1.094-1.762
			c-0.193-0.517,0.069-1.093,0.587-1.286c0.518-0.192,1.093,0.069,1.286,0.587c0.07,0.184,0.322,0.735,0.633,1.045
			c0.217,0.103,1.483,0.244,2.636,0.245c0.553,0,1,0.448,1,1C459.289,181.921,458.841,182.368,458.289,182.368z"/>
	</g>
</g>
<g id="Hasen">
	<g id="Ebene_5">
		<g>
			<path fill="#F9F9F9" d="M129.868,211.89c0.917,0.552,1.522-0.413,2.731,0.552c4.115,2.867,5.476,17.707,1.754,27.495
				c-1.215,2.46-3.963,3.381-3.048,5.842c2.214,3.657,1.527,8.994,0.767,12.141c-0.608,2.738-1.442,7.795-3.276,9.986
				c-1.058,1.369-7.138,1.297-8.81,0.208c-2.588-1.507,2.885-8.213,3.496-9.988c0.914-3.147,1.823-6.978,0.457-10.266
				c-0.308-0.541-1.37-3.008-2.128-3.555c-1.067-0.54-4.413,0.686-5.627,0.407c-0.761,0.421-2.129,14.712-0.598,21.626
				c0.153,0.54,0.308,2.884,0,3.297c-1.359,2.324-6.782,0.28-7.995-0.949c-3.797-4.099-0.629-22.01-0.629-23.921
				c-1.348-1.069-6.592-2.509-7.652-2.777c-0.534,3.35-0.77,6.079-0.156,8.203c1.216,1.641,3.926,2.954,2.708,4.463
				c-1.979,2.598-3.09,1.218-2.483,3.531c0.912,4.11,2.514,11.223-4.634,10.956c-6.69-0.274-4.107-3.627-4.411-7.318
				c-4.862,1.363-14.828,3.96-11.328-3.289c0.831-1.907,7.545-1.303,10.948-2.596c2.204-0.839,1.996-4.278,1.517-5.404
				c-2.042-1.23-4.477-3.215-5.242-6.229c-0.917-3.553,3.121-7.246,4.333-10.252c-3.191-5.953-8.142-12.854-2.661-28.729
				c2.432-3.556,5.319-7.724,5.929-12.1c-0.383-0.064-0.399,0.345-1.463,0.617c-0.91-1.775-0.968-3.841-0.516-5.747
				c-0.91,0.132-0.025,0.46-0.935,0.595c-0.765-1.911,0.875-4.987,2.392-6.207c-2.747-2.186,1.691-5.438,2.803-7.046
				c-1.666-2.243-22.656-32.076-23.715-42.604c-0.153-1.64,1.06-4.107,3.493-4.239c2.741,0,8.058,4.101,9.273,5.734
				c5.929,8.219,10.418,18.342,14.977,27.232c0-1.473-2.17-14.058-1.954-24.353c0.144-6.935,2.149-12.931,3.706-13.402
				c2.275-0.817,5.473,1.165,6.23,2.666c6.916,14.425,0.149,36.043-0.152,41.919c1.522,0.276,1.274,0.414,2.795,0.548
				c-0.606,0.962-1.12,1.232-1.577,2.326c5.397,0.617,8.365,2.604,11.1,5.88c2.737,3.56,5.016,8.489,5.625,12.857
				c0.907,6.849-5.495,7.485-10.51,8.584c0.181,2.088,1.083,2.088,3.671,3.46c3.037,1.502,1.974,2.191,0.758,4.516
				C119.833,206.56,125.305,205.669,129.868,211.89z"/>
		</g>
		<g>
			<path d="M109.784,200.113c-1.716,0-3.302-0.167-4.603-0.527c-0.532-0.147-0.844-0.698-0.697-1.23
				c0.148-0.533,0.699-0.844,1.231-0.697c6.013,1.663,17.072-1.233,18.683-4.145c0.988-5.305-0.313-10.771-3.583-15.02
				c-2.948-3.83-7.065-6.191-11.296-6.477c-0.551-0.037-0.968-0.515-0.93-1.065c0.037-0.551,0.511-0.946,1.065-0.931
				c4.803,0.325,9.449,2.969,12.747,7.253c3.646,4.739,5.081,10.847,3.935,16.757c-0.016,0.083-0.043,0.163-0.079,0.239
				C124.618,197.711,116.278,200.113,109.784,200.113z"/>
		</g>
		<g>
			<path d="M111.9,271.333c-2.933,0-5.791-0.723-6.652-4.457c-0.338-1.689-0.397-2.472-0.479-3.554
				c-0.035-0.461-0.075-0.987-0.143-1.676c-0.751-8.273,1.015-15.66,2.434-21.597c0.338-1.414,0.658-2.753,0.922-4.011
				c0.113-0.541,0.643-0.888,1.184-0.773c0.541,0.113,0.887,0.644,0.773,1.184c-0.267,1.274-0.591,2.632-0.934,4.066
				c-1.385,5.793-3.108,13.004-2.388,20.941c0.069,0.7,0.11,1.24,0.146,1.715c0.079,1.049,0.132,1.742,0.439,3.283
				c0.45,1.947,1.532,3.051,5.658,2.853c1.298-0.068,2.156-0.332,2.411-0.743c0.428-0.688-0.356-2.513-0.614-3.111
				c-0.018-0.042-0.033-0.085-0.045-0.128c-1.931-6.966-0.894-18.694,2.523-28.523c0.282-0.804,0.661-1.563,1.028-2.299
				c0.618-1.239,1.203-2.41,1.203-3.543c0-1.019-0.231-2.003-0.476-3.045c-0.354-1.508-0.72-3.065-0.429-4.873
				c0.088-0.545,0.607-0.916,1.146-0.828c0.545,0.088,0.916,0.602,0.828,1.146c-0.229,1.417,0.077,2.719,0.401,4.098
				c0.26,1.107,0.529,2.252,0.529,3.502c0,1.604-0.718,3.044-1.413,4.436c-0.355,0.712-0.69,1.384-0.93,2.065
				c-3.232,9.298-4.281,20.748-2.501,27.266c0.742,1.736,1.299,3.525,0.449,4.894c-0.849,1.365-2.694,1.616-4.009,1.686
				C112.609,271.322,112.254,271.333,111.9,271.333z"/>
		</g>
		<g>
			<path d="M119.353,212.74c-0.369,0-0.724-0.205-0.898-0.558c-0.244-0.495-0.041-1.095,0.455-1.339
				c0.325-0.161,0.483-0.321,0.701-0.542c0.116-0.118,0.244-0.248,0.399-0.377c-0.058-0.115-0.119-0.233-0.18-0.353
				c-0.701-1.366-1.821-3.549-0.271-5.14c-0.547-0.908-1.208-1.303-2.007-1.78c-0.946-0.564-2.019-1.205-2.988-2.71
				c-0.299-0.465-0.165-1.084,0.299-1.383c0.464-0.297,1.083-0.164,1.382,0.299c0.716,1.111,1.501,1.581,2.333,2.077
				c1.076,0.643,2.294,1.371,3.158,3.374c0.196,0.454,0.03,0.984-0.391,1.245c-0.819,0.509-0.77,1.089,0.264,3.104
				c0.221,0.431,0.449,0.876,0.614,1.302c0.097,0.248,0.09,0.524-0.019,0.768c-0.108,0.244-0.309,0.434-0.559,0.528
				c-0.269,0.103-0.39,0.226-0.61,0.449c-0.259,0.263-0.613,0.622-1.241,0.932C119.652,212.707,119.501,212.74,119.353,212.74z"/>
		</g>
		<g>
			<path d="M91.167,252.231c-0.26,0-0.521-0.102-0.716-0.303c-0.352-0.361-0.707-0.712-1.055-1.059
				c-2.381-2.359-4.842-4.8-4.149-8.542c0.696-3.748,2.232-6.943,4.443-9.243c0.383-0.397,1.017-0.41,1.414-0.027
				c0.398,0.383,0.411,1.016,0.028,1.414c-1.938,2.017-3.293,4.859-3.917,8.221c-0.5,2.702,1.305,4.492,3.59,6.758
				c0.357,0.354,0.72,0.714,1.08,1.084c0.385,0.396,0.377,1.028-0.019,1.414C91.671,252.137,91.419,252.231,91.167,252.231z"/>
		</g>
		<g>
			<path d="M99.608,256.938c-0.445,0-0.852-0.3-0.968-0.751c-0.138-0.534,0.184-1.08,0.719-1.218
				c1.137-0.293,1.612-0.654,1.672-0.875c0.15-0.543-1.112-1.815-1.65-2.359c-0.188-0.19-0.363-0.366-0.508-0.523
				c-0.374-0.406-0.349-1.038,0.058-1.413c0.406-0.374,1.038-0.349,1.413,0.058c0.13,0.142,0.288,0.3,0.458,0.472
				c1.104,1.113,2.616,2.639,2.158,4.298c-0.295,1.073-1.31,1.819-3.102,2.281C99.774,256.928,99.69,256.938,99.608,256.938z"/>
		</g>
		<g>
			<path d="M83.057,264.673c-2.504,0-4.813-0.93-5.381-1.959c-0.035-0.062-0.062-0.128-0.083-0.196
				c-0.496-1.655-0.18-3.356,0.866-4.669c1.331-1.669,3.641-2.476,6.501-2.292c2.395,0.218,4.061-0.289,5.269-1.585
				c0.376-0.405,1.009-0.426,1.414-0.05c0.404,0.377,0.426,1.01,0.049,1.413c-1.641,1.76-3.894,2.484-6.888,2.216
				c-2.17-0.151-3.872,0.403-4.782,1.545c-0.598,0.751-0.798,1.722-0.558,2.688c0.477,0.401,3.326,1.514,6.015,0.47
				c0.398-0.152,0.764-0.286,1.108-0.411c1.476-0.536,2.367-0.859,3.337-1.825c0.392-0.391,1.025-0.388,1.415,0.004
				s0.388,1.024-0.003,1.414c-1.283,1.276-2.511,1.723-4.065,2.287c-0.333,0.121-0.688,0.25-1.071,0.397
				C85.195,264.509,84.109,264.673,83.057,264.673z"/>
		</g>
		<g>
			<path d="M124.9,270c-0.163,0-0.329,0-0.497,0h-0.623c-2.732,0-4.46-0.838-5.136-2.18c-0.623-1.234-0.237-2.887,1.146-4.756
				c2.131-3.154,2.686-5.806,3.454-9.419l0.251-1.191c0.562-2.197,0.145-2.77-1.613-5.139c-0.021-0.029-0.083-0.12-0.101-0.151
				c-0.281-0.48-0.582-0.884-0.873-1.272c-0.837-1.118-1.702-2.276-1.042-4.307c0.17-0.525,0.735-0.812,1.26-0.643
				c0.525,0.171,0.812,0.734,0.642,1.259c-0.339,1.045-0.023,1.468,0.741,2.488c0.301,0.402,0.64,0.855,0.97,1.412
				c1.846,2.488,2.748,3.728,1.961,6.793l-0.24,1.127c-0.784,3.691-1.403,6.606-3.778,10.119c-0.883,1.196-1.236,2.296-0.993,2.779
				c0.225,0.446,1.223,1.08,3.351,1.08h0.627c3.451,0,4.038-0.25,4.605-1.672c0.883-2.221,3.536-13.718,2.914-16.746
				c-0.264-0.968-0.755-1.512-1.23-2c-1.289-1.324-1.535-2.388,0.553-4.74c2.65-3.164,4.305-7.221,4.769-11.691
				c0.641-4.788,0.061-9.519-1.771-14.481c-0.612-1.657-2.027-3.538-3.247-3.685c-0.671-0.084-1.362,0.399-2.053,1.427
				c-0.308,0.458-0.93,0.58-1.388,0.272c-0.458-0.309-0.58-0.931-0.272-1.389c1.426-2.121,2.934-2.419,3.951-2.299
				c2.523,0.302,4.299,3.386,4.886,4.975c1.947,5.277,2.562,10.316,1.88,15.406c-0.501,4.84-2.315,9.259-5.24,12.752
				c-1.03,1.16-1.055,1.504-1.055,1.539c0.027,0.077,0.254,0.311,0.42,0.48c0.529,0.543,1.328,1.364,1.742,2.893
				c0.778,3.775-2.138,15.857-3,18.025C129.817,269.71,127.848,270,124.9,270z"/>
		</g>
		<g>
			<path d="M99.608,239.544c-0.143,0-0.288-0.03-0.425-0.095c-1.455-0.686-2.395-2.081-2.395-3.556c0-0.553,0.448-1,1-1s1,0.447,1,1
				c0,0.48,0.228,0.952,0.613,1.316c0.135-0.146,0.274-0.29,0.412-0.432c0.3-0.31,0.611-0.63,0.786-0.897
				c0.258-0.396,0.759-0.559,1.2-0.385c0.814,0.316,1.737,0.96,2.455,1.578c0.538-0.455,0.864-0.971,0.992-1.562
				c0.07-0.327,0.3-0.597,0.611-0.72c0.312-0.12,0.663-0.081,0.938,0.109c0.158,0.111,0.641,0.446,1.606-0.14
				c1.235-0.748,2.153-2.363,2.074-2.98c-0.069-0.548,0.318-1.049,0.866-1.118c0.553-0.062,1.048,0.319,1.118,0.866
				c0.195,1.54-1.217,3.85-3.022,4.943c-0.9,0.545-1.802,0.737-2.63,0.569c-0.432,0.847-1.14,1.575-2.116,2.174
				c-0.398,0.243-0.915,0.18-1.241-0.157c-0.432-0.445-1.107-0.999-1.737-1.376c-0.151,0.166-0.309,0.329-0.465,0.489
				c-0.306,0.314-0.622,0.641-0.8,0.915C100.258,239.38,99.938,239.544,99.608,239.544z"/>
		</g>
		<g>
			<path d="M106.962,244.958c-0.023,0-0.046-0.001-0.07-0.002c-2.884-0.199-5.818-1.68-8.342-3.051
				c-0.485-0.264-0.665-0.871-0.401-1.356c0.263-0.485,0.87-0.665,1.356-0.401c2.338,1.271,5.041,2.642,7.524,2.812
				c0.551,0.038,0.967,0.516,0.929,1.067C107.923,244.555,107.483,244.958,106.962,244.958z"/>
		</g>
		<g>
			<path d="M117.353,246.091c-0.177,0-0.357-0.011-0.54-0.035c-0.547-0.071-0.934-0.573-0.862-1.121
				c0.071-0.549,0.576-0.939,1.122-0.861c0.573,0.072,1.217-0.105,1.896-0.296c0.601-0.169,1.221-0.343,1.848-0.343
				c0.552,0,1,0.447,1,1s-0.448,1-1,1c-0.352,0-0.816,0.13-1.308,0.269C118.855,245.887,118.129,246.091,117.353,246.091z"/>
		</g>
		<g>
			<path d="M129.576,212.74c-0.318,0-0.63-0.15-0.824-0.432c-2.111-3.06-4.884-4.708-8.477-5.04
				c-0.55-0.051-0.955-0.538-0.903-1.088c0.05-0.55,0.534-0.955,1.088-0.904c4.161,0.386,7.504,2.369,9.939,5.896
				c0.313,0.455,0.199,1.078-0.255,1.392C129.969,212.683,129.771,212.74,129.576,212.74z"/>
		</g>
		<g>
			<path d="M110.297,171.811c-0.112,0-0.227-0.019-0.338-0.059c-0.52-0.188-0.79-0.76-0.603-1.279
				c0.078-0.217,0.127-0.511,0.175-0.796c0.001-0.01,0.003-0.02,0.005-0.029c-0.947-0.027-1.885,0.432-2.417,1.271
				c-0.198,0.312-0.555,0.49-0.919,0.461c-0.368-0.027-0.691-0.256-0.84-0.593c-0.197-0.446-0.625-0.909-1.038-1.356
				c-0.021-0.023-0.044-0.048-0.066-0.071c-0.249,0.474-0.435,0.941-0.552,1.457c-0.123,0.539-0.657,0.878-1.198,0.752
				c-0.539-0.123-0.875-0.659-0.752-1.197c0.28-1.225,0.826-2.208,1.561-3.308c0.193-0.289,0.527-0.471,0.871-0.443
				c0.348,0.014,0.664,0.207,0.833,0.512c0.15,0.268,0.452,0.595,0.772,0.941c0.197,0.213,0.404,0.438,0.603,0.677
				c1.292-1.076,3.103-1.416,4.73-0.791c0.27,0.104,0.482,0.319,0.581,0.592c0.099,0.271,0.075,0.573-0.065,0.826
				c-0.046,0.093-0.101,0.417-0.137,0.632c-0.06,0.354-0.127,0.756-0.266,1.14C111.092,171.557,110.707,171.811,110.297,171.811z"/>
		</g>
		<g>
			<path d="M97.459,177.05c-0.25,0-0.5-0.093-0.695-0.28c-5.675-5.481-29.375-40.499-24.873-47.081
				c1.288-1.67,2.82-2.449,4.571-2.375c5.13,0.23,10.681,7.93,14.943,14.613c0.227,0.355,0.422,0.661,0.581,0.904
				c5.784,9.537,10.333,24.677,11.251,28.826c0.119,0.539-0.221,1.072-0.76,1.192c-0.538,0.116-1.073-0.221-1.193-0.761
				c-0.9-4.065-5.354-18.896-10.99-28.191c-0.145-0.22-0.343-0.531-0.575-0.895c-2.126-3.333-8.596-13.477-13.347-13.69
				c-1.083-0.037-2.021,0.459-2.865,1.553c-3.056,4.471,17.757,37.812,24.646,44.465c0.397,0.384,0.408,1.018,0.024,1.414
				C97.982,176.947,97.721,177.05,97.459,177.05z"/>
		</g>
		<g>
			<path d="M101.812,171.077c-0.494,0-0.923-0.365-0.99-0.868c-0.087-0.65-0.266-1.751-0.5-3.189
				c-2.905-17.847-5.478-38.881,0.469-43.163c1.844-1.283,3.564-1.548,5.125-0.797c4.846,2.332,5.759,14.236,5.848,15.586
				c0.736,11.846,0.245,14.65-2.116,28.128l-0.391,2.231c-0.094,0.545-0.611,0.908-1.157,0.813
				c-0.544-0.096-0.908-0.613-0.813-1.157l0.391-2.233c2.327-13.284,2.811-16.048,2.09-27.655
				c-0.315-4.829-1.833-12.522-4.719-13.911c-0.876-0.421-1.891-0.216-3.101,0.627c-5.693,4.099-1.146,32.031,0.349,41.209
				c0.238,1.464,0.42,2.585,0.509,3.247c0.073,0.547-0.312,1.05-0.859,1.123C101.901,171.074,101.856,171.077,101.812,171.077z"/>
		</g>
		<g>
			<path d="M94.79,270.313c-1.162,0-2.295-0.22-3.214-0.57c-1.632-0.623-2.666-1.633-2.92-2.848
				c-0.36-1.221,0.153-2.521,0.606-3.672c0.221-0.559,0.429-1.087,0.493-1.492c0.006-0.037,0.014-0.074,0.024-0.11
				c0.469-1.694,0.72-11.624,0.886-18.195c0.066-2.623,0.125-4.95,0.187-6.505c-0.001-0.863-0.508-1.657-1.276-2.859
				c-0.657-1.028-1.475-2.308-2.258-4.117c-6.069-16.287,0.68-27.439,2.893-30.471c1.209-1.664,1.862-3.212,2.214-4.349
				c-0.236-0.024-0.457-0.132-0.622-0.305c-1.267-1.326-1.275-3.257-1.037-4.793c-0.246,0.039-0.513,0.011-0.784-0.166
				c-0.535-0.349-0.535-0.967-0.535-1.2c0-2.015,1.253-3.515,2.268-4.574c-0.127-0.05-0.257-0.122-0.387-0.229
				c-0.29-0.238-0.422-0.62-0.341-0.987c0.785-3.564,3.125-6.989,4.461-8.182c0.413-0.366,1.044-0.333,1.412,0.08
				c0.368,0.412,0.332,1.044-0.08,1.412c-0.846,0.755-2.651,3.24-3.543,6.025c0.285,0.074,0.593,0.217,0.943,0.467
				c0.413,0.296,0.539,0.854,0.293,1.298c-0.2,0.361-0.538,0.705-0.965,1.142c-0.643,0.654-1.461,1.488-1.844,2.464
				c0.062-0.02,0.126-0.038,0.193-0.057c0.347-0.097,0.717-0.003,0.972,0.248c0.256,0.252,0.358,0.621,0.267,0.968
				c-0.234,0.891-0.73,2.781-0.251,4.044c0.143-0.14,0.324-0.284,0.562-0.395c0.318-0.146,0.689-0.116,0.978,0.079
				c0.29,0.196,0.456,0.528,0.439,0.878c-0.007,0.14-0.199,3.457-2.997,7.309c-2.065,2.829-8.356,13.243-2.655,28.547
				c0.701,1.613,1.438,2.768,2.089,3.786c0.889,1.391,1.59,2.488,1.59,3.976c-0.062,1.588-0.121,3.905-0.187,6.517
				c-0.238,9.393-0.459,16.739-0.943,18.622c-0.104,0.606-0.355,1.242-0.598,1.858c-0.338,0.858-0.722,1.831-0.543,2.391
				c0.013,0.039,0.023,0.08,0.03,0.12c0.095,0.509,0.738,1.048,1.679,1.406c1.608,0.615,4.087,0.672,5.517-0.432
				c0.766-0.589,0.276-3.004-0.049-4.603c-0.205-1.008-0.398-1.96-0.398-2.717c0-9.771,0.346-19.727,0.35-19.826
				c0.02-0.552,0.477-0.994,1.035-0.964c0.552,0.02,0.983,0.482,0.964,1.034c-0.003,0.099-0.349,10.021-0.349,19.756
				c0,0.556,0.174,1.412,0.358,2.318c0.499,2.455,1.063,5.236-0.69,6.586C97.832,269.948,96.287,270.313,94.79,270.313z"/>
		</g>
		<g>
			<path d="M122.229,194.844c-1.143,0-2.271-0.454-3.097-1.264c-0.394-0.387-0.4-1.02-0.014-1.414
				c0.387-0.394,1.02-0.401,1.414-0.014c0.521,0.511,1.257,0.764,1.977,0.674c0.483-0.06,1.164-0.303,1.661-1.116
				c0.289-0.471,0.904-0.621,1.375-0.332c0.471,0.288,0.62,0.903,0.332,1.375c-0.712,1.166-1.821,1.896-3.122,2.058
				C122.581,194.833,122.405,194.844,122.229,194.844z"/>
		</g>
		<g>
			<path d="M101.981,182.15c0,0,0.945-1.312,1.693,0.211C104.429,183.881,101.035,183.461,101.981,182.15z"/>
			<path d="M102.964,184.33c-0.668,0-1.589-0.274-1.984-1.046c-0.276-0.541-0.207-1.168,0.191-1.719
				c0.112-0.156,0.724-0.94,1.656-0.94c0.505,0,1.219,0.225,1.745,1.295c0.388,0.781,0.162,1.356-0.007,1.629
				C104.257,184.046,103.673,184.33,102.964,184.33z"/>
		</g>
		<g>
			<path d="M97.453,173c-0.55,0-0.998-0.508-1-1.059c-0.002-0.553,0.443-1.034,0.995-1.037c0.218-0.001,0.313-0.063,0.418-0.316
				c1.286-3.12-4.908-17.5-7.656-20.255c-0.39-0.391-0.389-1.028,0.001-1.418c0.391-0.39,1.024-0.391,1.415,0
				c2.758,2.765,9.895,18.105,8.089,22.485c-0.406,0.987-1.208,1.601-2.257,1.601C97.457,173,97.455,173,97.453,173z"/>
		</g>
	</g>
	<g id="Ebene_14">
		<g>
			<path fill="#F9F9F9" d="M44.758,179.568c0,0-39.531-36.852-33.6-55.918c3.512-2.54,20.243,24.872,33.158,44.77
				c-5.798-25.06-7.841-41.775-1.659-45.603c6.181-3.828,7.561,35.736,7.752,50.614c1.472-0.291,6.087-0.894,6.087-0.894
				s21.244-1.059,27.934,14.165c0.296,3.827-0.227,8.271-18.616,14.308c-6.625,0.822-8.731,4.249-7.847,7.193
				c0.884,2.945,1.179,10.895,1.179,10.895l-1.179,1.178c0,0,0.884,3.826,0.296,5.297c-0.587,1.471-0.587,1.471-0.587,5.302
				c0,3.823-2.358,1.765-2.651,7.945c-0.295,6.186-0.884,12.958-5.006,13.248c-0.293,6.187,0,5.008,0,5.008s2.356-0.59,2.649,6.183
				c0.294,6.771-0.879,10.893-3.826,16.782c2.649,2.943,5.299,2.943,5.299,2.943s14.722-2.356,17.958,7.356
				c-7.065,2.649-18.839,0.888-35.622-3.824c-5.595,1.768-11.188,2.648-11.188,2.648l0.589,2.062c0,0,0.883,2.062-7.359,2.062
				c-8.244,0-14.133-1.473-5.302-7.069c-2.841-3.194-6.89-7.983-8.241-14.424c-2.007-9.571,0.081-21.086,5.889-22.667
				c5.266-19.866,15.836-30.016,30.428-54.974c-0.897-3.199-1.671-5.83-1.671-5.83l1.953-2.205l-0.879-2.224l2.222-0.884
				l-0.634-2.032L44.758,179.568z"/>
		</g>
		<g>
			<path d="M45.093,271.128c-0.207,0-0.416-0.063-0.594-0.196c-0.444-0.329-0.537-0.955-0.208-1.399
				c5.476-7.39,4.74-17.283,4.732-17.383c-0.045-0.551,0.365-1.033,0.916-1.078c0.555-0.04,1.033,0.365,1.078,0.916
				c0.036,0.436,0.799,10.748-5.118,18.736C45.701,270.988,45.399,271.128,45.093,271.128z"/>
		</g>
		<g>
			<path d="M18.614,294.293c-4.072,0-8.442-0.502-9.757-1.338c-0.943-0.601-1.25-1.661-0.822-2.837
				c0.96-2.643,6.013-6.114,10.761-5.495C20.792,284.91,23.487,286,25.34,288c0.033,0,0.067,0,0.101,0
				c3.686,0,10.252-1.998,10.321-2.018c0.162-0.048,0.333-0.116,0.496-0.08c0.049,0.012,4.986,1.094,16.54,3.492
				c13.157,2.73,16.992,1.967,18.108,1.187C70.269,286.105,64.409,284,53.475,284c-0.155,0-0.31,0-0.439,0
				c-0.698,0-0.921-0.186-1.122-0.234c-1.001-0.254-3.082-2.016-3.931-2.724c-0.222-0.185-0.353-0.501-0.359-0.79
				c-0.006-0.289,0.113-0.589,0.327-0.783c0.014-0.014,2.259-2.227,4.121-9.456c1.838-7.153-2.634-12.76-2.679-12.816
				c-0.349-0.428-0.284-1.061,0.144-1.409c0.428-0.35,1.058-0.287,1.407,0.143c0.211,0.259,5.152,6.451,3.065,14.571
				c-1.396,5.425-3.038,8.261-3.97,9.542c0.997,0.782,2.028,1.508,2.364,1.604c0.076,0.001,0.432-0.003,0.94-0.004
				c4.717,0.004,19.039-0.031,19.606,9.076c0.016,0.258-0.068,0.511-0.234,0.708c-1.269,1.502-4.755,3.125-20.323-0.107
				c-10.138-2.104-15.195-3.224-16.327-3.477c-1.146,0.317-5.879,1.584-9.449,1.846c0.437,0.985,0.672,2.244-0.188,3.281
				C25.658,293.892,22.254,294.293,18.614,294.293z M17.648,286.416c-3.595,0-7.135,2.736-7.735,4.385
				c-0.134,0.371-0.043,0.429,0.017,0.467c2.012,1.28,13.651,1.297,15.026,0.359c0.325-0.406-0.409-1.7-0.872-2.261
				c-0.012-0.014-0.023-0.027-0.034-0.042c-1.441-1.907-3.801-2.604-5.528-2.852C18.232,286.435,17.939,286.416,17.648,286.416z"/>
		</g>
		<g>
			<path d="M13.214,287.221c-0.2,0-0.401-0.06-0.577-0.185c-0.347-0.246-8.498-6.174-9.251-19.454
				c-0.324-5.69,0.864-15.159,4.518-18.394c1.026-0.907,2.212-1.269,3.432-1.052c0.543,0.099,0.904,0.619,0.806,1.162
				c-0.098,0.543-0.613,0.903-1.162,0.807c-0.622-0.114-1.176,0.073-1.75,0.581c-2.735,2.42-4.197,10.632-3.847,16.782
				c0.697,12.275,8.336,17.883,8.414,17.938c0.448,0.321,0.553,0.945,0.233,1.395C13.834,287.074,13.527,287.221,13.214,287.221z"/>
		</g>
		<g>
			<path d="M20.575,272.501c-0.454,0-0.865-0.311-0.973-0.771c-2.175-9.284-4.193-16.04-4.213-16.107
				c-0.158-0.529,0.142-1.087,0.671-1.245c0.531-0.154,1.087,0.142,1.245,0.671c0.02,0.067,2.056,6.883,4.245,16.225
				c0.126,0.538-0.208,1.076-0.746,1.202C20.728,272.492,20.651,272.501,20.575,272.501z"/>
		</g>
		<g>
			<path d="M50.219,239.864c-0.782,0-1.401-0.576-1.53-0.705c-0.391-0.391-0.391-1.023,0-1.414c0.353-0.354,0.906-0.389,1.298-0.1
				c0.179-0.847,0.213-2.37,0.177-3.35c-0.011-0.317,0.129-0.622,0.378-0.819c0.248-0.196,0.577-0.265,0.883-0.182l0.953,0.259
				l-0.328-2.243c-0.065-0.443,0.173-0.876,0.582-1.058l1.452-0.647l0.374-3.922c-0.03-0.362,0.119-0.716,0.416-0.943
				c0.58-0.442,1.226-0.265,2.462,0.576c0.076-1.457-0.246-4.472-0.86-7.414c-0.096-0.461,0.143-0.928,0.574-1.118
				c0.327-0.146,0.698-0.103,0.979,0.095c-0.205-0.701-0.449-1.312-0.597-1.63c-0.205-0.44-0.065-0.964,0.333-1.242
				c0.115-0.081,0.243-0.134,0.374-0.161c-1.586-7.586-1.341-9.474,0.07-11.096c0.833-0.956,2.744-1.468,5.636-2.243
				c2.365-0.634,5.309-1.423,8.4-2.669c6.65-2.681,11.701-6.982,11.73-8.464c-0.485-6.986-8.966-12.74-17.156-15.304
				c-4.748-1.247-7.739-0.935-11.443-0.354c-1.757,0.272-2.891,0.538-3.679,0.861c-0.595,0.237-1.26,0.025-1.827-0.297
				c-0.167,0.523-0.363,1.09-0.573,1.547c-0.154,0.335-0.479,0.559-0.847,0.581c-0.376,0.013-0.719-0.158-0.913-0.472
				c-0.242-0.392-24.257-39.177-29.983-45.879c-4.162-4.869-5.459-5.482-5.861-5.409c-0.065,0.06-0.843,0.867,0.084,7.217
				c0.75,5.118,5.989,14.619,14.013,25.414c7.104,9.559,15.141,18.387,19.543,21.468c0.423,0.296,0.551,0.866,0.295,1.314
				c-0.391,0.685-1.419,1.246-2.214,1.578c0.09,0.31,0.208,0.636,0.293,0.759c0.208,0.301,0.268,0.735,0.104,1.062
				c-0.165,0.327-0.992,0.793-1.825,1.099c0.174,0.441,0.37,0.894,0.478,1.101c0.128,0.249,0.146,0.541,0.05,0.804
				c-0.275,0.748-0.994,1.431-1.595,1.986c0.126,0.222,0.232,0.438,0.328,0.633c0.077,0.158,0.146,0.302,0.214,0.413
				c0.116,0.188,0.167,0.408,0.145,0.628c-0.032,0.313-0.127,0.666-0.219,1.008c-0.025,0.092-0.057,0.211-0.086,0.324
				c0.285,0.427,0.352,0.954,0.377,1.254c0.08,0.234,0.073,0.498-0.039,0.741c-0.191,0.415-0.657,0.673-1.106,0.587
				c-0.29-0.053-0.785-0.265-0.842-1.081c-0.004-0.063-0.014-0.204-0.033-0.308c-0.253-0.176-0.415-0.464-0.427-0.783
				c-0.013-0.375,0.103-0.803,0.225-1.256c0.038-0.139,0.078-0.288,0.109-0.419c-0.037-0.072-0.074-0.148-0.113-0.228
				c-0.165-0.336-0.352-0.717-0.584-0.984c-0.311-0.357-0.327-0.884-0.04-1.261c0.151-0.199,0.378-0.409,0.666-0.674
				c0.266-0.246,0.703-0.648,0.958-0.973c-0.259-0.588-0.595-1.435-0.723-1.926l0,0c-0.056-0.219-0.04-0.457,0.062-0.675
				c0.166-0.354,0.52-0.576,0.905-0.576c0,0,0,0,0,0c0.206-0.062,0.574-0.201,0.91-0.338c-0.207-0.602-0.341-1.261-0.32-1.634
				c0.025-0.448,0.345-0.824,0.783-0.921c0.249-0.055,0.668-0.229,1.045-0.423c-9.536-7.601-31.546-35.352-33.315-47.425
				c-0.86-5.89-0.547-8.593,1.082-9.333c1.89-0.855,4.337,1.424,8.194,5.936c5.179,6.062,24.208,36.537,29.062,44.35
				c0.042-0.142,0.081-0.274,0.115-0.392c0.165-0.562,0.411-1.412,1.328-1.228c0.338,0.067,0.604,0.334,0.727,0.656
				c0.187,0.176,0.575,0.434,0.797,0.515c0.928-0.357,2.131-0.636,3.964-0.921c3.816-0.597,7.146-0.949,12.305,0.409
				c8.883,2.778,18.048,9.159,18.601,17.177c-0.059,3.131-6.76,7.859-12.979,10.367c-3.204,1.291-6.213,2.098-8.63,2.745
				c-2.072,0.556-4.214,1.13-4.646,1.625c-0.832,0.956-1.218,2.282,0.921,11.858c0.097,0.434-0.105,1.078-0.495,1.078
				c-0.001,0-0.002,0-0.003,0c0.253,1,0.375,2.383,0.026,3.426c-0.119,0.355-0.426,0.623-0.796,0.68
				c-0.101,0.016-0.202,0.02-0.299,0.005c0.401,2.936,0.435,5.685-0.61,6.555c-0.356,0.298-0.869,0.311-1.24,0.032
				c-0.357-0.268-0.649-0.477-0.886-0.639l-0.315,3.317c-0.034,0.359-0.259,0.672-0.588,0.818l-1.293,0.576l0.439,3.003
				c0.049,0.333-0.074,0.669-0.326,0.893c-0.251,0.224-0.6,0.305-0.925,0.217l-1.153-0.312c-0.019,1.034-0.108,2.377-0.416,3.146
				c-0.327,0.818-0.907,1.05-1.224,1.115C50.426,239.854,50.321,239.864,50.219,239.864z"/>
		</g>
		<g>
			<path d="M11.157,250c-0.536,0-0.979-0.363-0.999-0.902c-0.006-0.178-0.108-4.434,4.217-13.53
				c2.426-5.103,8.614-14.379,14.598-23.365c5.032-7.557,10.227-15.35,11.218-17.899c-0.011-0.017-0.021-0.029-0.032-0.045
				c-0.417-0.074-0.756-0.409-0.815-0.853c-0.072-0.547,0.314-1.049,0.861-1.12c0.995-0.136,1.574,0.763,1.81,1.18
				c0.172,0.181,0.277,0.425,0.277,0.691c0,0.09-0.012,0.178-0.035,0.263c-0.613,2.38-5.715,10.04-11.619,18.907
				c-5.667,8.511-12.091,18.156-14.456,23.13c-4.072,8.562-4.025,12.537-4.024,12.576c0.013,0.55-0.42,0.968-0.97,0.968
				C11.178,250,11.167,250,11.157,250z"/>
		</g>
		<g>
			<path d="M50.41,174c-0.006,0-0.012,0-0.018,0c-0.552,0-0.992-0.249-0.983-0.802c0.409-23.824-2.642-47.313-6.4-49.4
				c-0.181-0.1-0.408-0.131-0.832,0.144c-1.74,1.127-4.228,5.727-1.339,23.684c1.684,10.465,4.415,20.415,4.442,20.513
				c0.147,0.532-0.165,1.09-0.698,1.237c-0.533,0.146-1.083-0.161-1.23-0.693c-1.147-4.153-10.958-40.735-2.262-46.368
				c0.945-0.612,1.972-0.668,2.889-0.159c6.22,3.452,7.692,35.832,7.43,51.077C51.4,173.779,50.954,174,50.41,174z"/>
		</g>
		<g>
			<path d="M62.076,179.453c-0.9-0.472-2.194,1.59-1.218,2.199C61.831,182.269,62.817,179.842,62.076,179.453z"/>
			<path d="M61.182,182.752C61.182,182.752,61.182,182.752,61.182,182.752c-0.299,0-0.596-0.088-0.859-0.255
				c-0.699-0.437-0.976-1.271-0.718-2.174c0.27-0.94,1.128-1.939,2.188-1.939c0.263,0,0.514,0.062,0.747,0.184
				c0.529,0.277,0.993,0.982,0.71,2.131C63.006,181.688,62.255,182.752,61.182,182.752z"/>
		</g>
		<g>
			<path d="M45.837,181.396c-0.198,0-0.397-0.059-0.572-0.181l-1.349-0.943c-0.453-0.316-0.562-0.94-0.246-1.393
				c0.316-0.452,0.94-0.562,1.393-0.246l1.349,0.943c0.453,0.316,0.562,0.94,0.246,1.393
				C46.463,181.248,46.153,181.396,45.837,181.396z"/>
		</g>
		<g>
			<path d="M83.305,191.36c-0.795,0-1.966-0.354-3.493-1.062c-0.501-0.231-0.719-0.825-0.488-1.327
				c0.232-0.5,0.826-0.722,1.327-0.487c1.079,0.497,2.323,0.916,2.66,0.882c0.377-0.147,0.585-0.35,0.593-0.358
				c0.385-0.382,1.013-0.398,1.404-0.024c0.392,0.373,0.426,0.979,0.064,1.382c-0.082,0.092-0.539,0.564-1.458,0.9
				C83.745,191.329,83.542,191.36,83.305,191.36z"/>
		</g>
		<g>
			<path fill="#FFFFFF" d="M38.244,247.436c0,0,0.058-0.938-1.855-1.102c-6.78-0.569-23.942-0.335-28.744,6.479
				c8.134-5.139,19.463,17.462,19.24,23.429c6.409-7.294,14.587-26.816,16.797-9.763c1.546,8.435,1.879,11.272,1.879,11.272
				s15.449-6.031,13.222-15.276c0,0-1.02-6.103-7.598-10.873c-2.638,0.256-3.678-1.398-4.868-2.808
				c-0.953,4.562-1.923,10.682-6.166,10.665C34.521,259.438,37.083,251.722,38.244,247.436z"/>
		</g>
		<g>
			<path d="M45.562,278.751c-0.178,0-0.356-0.048-0.513-0.142c-0.266-0.158-0.442-0.431-0.48-0.737
				c-0.004-0.035-0.45-3.637-1.971-11.927c-0.49-3.772-1.813-5.515-2.073-5.826c-0.354-0.424-0.298-1.055,0.126-1.409
				s1.054-0.297,1.408,0.126c0.454,0.543,1.976,2.637,2.514,6.801c1.019,5.545,1.552,8.964,1.799,10.67
				c3.433-1.588,13.094-6.726,11.439-13.598c-0.003-0.007-1.776-5.77-7.265-10.339c-0.425-0.354-0.482-0.983-0.129-1.408
				c0.353-0.425,0.983-0.481,1.408-0.129c5.976,4.974,7.84,11.1,7.917,11.357c2.417,10.028-13.153,16.232-13.817,16.492
				C45.808,278.729,45.685,278.751,45.562,278.751z"/>
		</g>
		<g>
			<path d="M26.885,277.241c-0.124,0-0.25-0.023-0.37-0.071c-0.393-0.156-0.645-0.543-0.629-0.966
				c0.162-4.33-6.511-18.59-12.944-22.293c-1.818-1.047-3.376-1.13-4.762-0.253c-0.405,0.255-0.936,0.188-1.263-0.161
				c-0.328-0.349-0.363-0.882-0.082-1.271c6.867-9.503,28.091-7.083,29.623-6.892l0.081,0.004c0.114-0.006,0.222,0,0.315,0.006
				c0.551,0.036,0.969,0.513,0.933,1.063c-0.036,0.552-0.499,0.961-1.063,0.933l-0.125-0.008c-0.084,0.003-0.163,0.002-0.231,0.001
				c-0.035-0.001-0.07-0.004-0.104-0.008c-0.193-0.026-17.434-2.123-25.479,3.768c1.021,0.103,2.079,0.464,3.156,1.084
				c6.249,3.598,12.241,15.264,13.642,21.566c1.243-1.716,2.542-3.81,3.81-5.854c2.349-3.786,4.568-7.362,6.611-8.989
				c0.432-0.344,1.062-0.273,1.405,0.159c0.344,0.433,0.272,1.062-0.159,1.405c-1.772,1.411-4.001,5.004-6.157,8.479
				c-1.815,2.925-3.691,5.949-5.455,7.957C27.443,277.122,27.167,277.241,26.885,277.241z"/>
		</g>
		<g>
			<path d="M49.916,252.6c-0.684,0-1.33-0.181-1.909-0.537c-1.84-1.136-2.405-3.63-2.463-3.911c-0.112-0.54,0.235-1.07,0.776-1.183
				c0.536-0.111,1.069,0.234,1.182,0.776c0.113,0.529,0.615,2.039,1.559,2.617c0.413,0.254,0.883,0.303,1.437,0.156
				c0.83-0.222,2.834-1.718,3.53-10.818c0.04-0.518,0.058-0.976,0.074-1.392c0.075-1.936,0.13-3.334,2.244-5.235
				c1.253-1.13,0.226-4.775-0.469-6.363c-0.221-0.506,0.009-1.096,0.515-1.317c0.506-0.218,1.095,0.01,1.316,0.514
				c0.278,0.633,2.638,6.253-0.025,8.654c-1.486,1.336-1.513,2.014-1.583,3.826c-0.018,0.438-0.037,0.922-0.079,1.467
				c-0.591,7.735-2.229,11.856-5.009,12.597C50.641,252.55,50.273,252.6,49.916,252.6z"/>
		</g>
		<g>
			<path d="M39.855,260.479c-0.808,0-1.615-0.201-2.376-0.603c-0.758-0.401-3.06-1.619-0.422-11.759
				c-0.209-0.269-0.705-0.749-1.083-1.116c-1.439-1.396-3.409-3.309-3.725-5.533c-0.471-3.298,1.015-7.513,1.079-7.69
				c0.186-0.521,0.755-0.794,1.278-0.605c0.52,0.186,0.791,0.757,0.606,1.277c-0.014,0.039-1.383,3.932-0.982,6.736
				c0.22,1.549,1.906,3.186,3.138,4.38c1.201,1.165,1.925,1.868,1.699,2.772l-0.055,0.213c-1.793,6.86-1.175,9.251-0.597,9.557
				c0.856,0.451,1.767,0.493,2.634,0.117c1.404-0.609,2.522-2.208,3.148-4.501c1.469-5.389,2.393-12.684,1.764-13.938
				c-0.913-1.829-1.374-3.417-1.393-3.483c-0.153-0.53,0.154-1.084,0.684-1.237c0.527-0.152,1.084,0.153,1.238,0.684
				c0.004,0.015,0.434,1.487,1.26,3.143c1.158,2.313-0.515,11.29-1.624,15.358c-0.789,2.891-2.31,4.954-4.282,5.81
				C41.198,260.339,40.526,260.479,39.855,260.479z"/>
		</g>
	</g>
</g>
</svg>
