<?xml version="1.0" encoding="utf-8"?>
<!-- Generator: Adobe Illustrator 16.0.0, SVG Export Plug-In . SVG Version: 6.00 Build 0)  -->
<!DOCTYPE svg PUBLIC "-//W3C//DTD SVG 1.1//EN" "http://www.w3.org/Graphics/SVG/1.1/DTD/svg11.dtd">
<svg version="1.1" xmlns="http://www.w3.org/2000/svg" xmlns:xlink="http://www.w3.org/1999/xlink" x="0px" y="0px" width="230.5px"
	 height="300px" viewBox="0 0 230.5 300" enable-background="new 0 0 230.5 300" xml:space="preserve">
<g id="Ebene_7">
	<g>
		<path fill="#010202" d="M104.078,70.121c1.379-0.234,8.404-0.736,15.657-0.923c3.319,0.178,5.227,0.544,3.324,1.796
			c-2.137,1.408-6.714,2.821-12.184,4.03c-8.137,1.8-22.662,1.859-29.661,1.6c-10.888,0.259-12.935-0.987-11.947-2.268
			c0.653-0.85,5.239-2.275,9.436-2.343c2.119-0.03,5.718-0.327,5.718-0.327L104.078,70.121z"/>
	</g>
	<g>
		<path fill="#010202" d="M102.231,57.049c0,0-0.866-33.314-1.288-35.061c-4.512-0.968-21.984-0.341-27.169,3.969
			c1.715,6.1,12.516,32.469,11.738,33.87C87.413,60.476,94.687,62.657,102.231,57.049z"/>
	</g>
	<g>
		<path fill="#F49531" d="M85.603,59.673c0,0-0.295,0.387-0.228,0.636c0.066,0.249,0.121,0.456,0.333,0.753
			c0.213,0.297,0.079,0.465-0.312,0.659s0.088,0.33,0.26,0.64c0.171,0.308-0.593,0.6-0.254,1.043
			c0.339,0.438,1.008,0.616,0.253,0.95c-0.751,0.334-0.993,0.265-0.756,0.646c0.234,0.382-0.285,0.43-0.031,0.717
			c0.252,0.289,1.295,0.542,0.629,1.029c-0.666,0.49-0.448,0.652-0.26,1.356c0.188,0.703-0.63,0.788-0.316,1.146
			c0.319,0.359,0.798,0.498,0.633,1.205c-0.165,0.71-0.171,1.021,0.029,1.277c0.204,0.256,0.07,0.423,0.057,0.872
			c1.543,0.962,7.479,1.286,11.198,0.778c3.721-0.506,8.577-2.907,8.728-3.171c0.151-0.259-0.25-0.109-0.186-0.523
			c0.07-0.418,0.149-1.106-0.1-1.705c-0.248-0.599-1.458-0.985-1.256-1.393c0.202-0.409,0.92-1.531,0.646-1.898
			c-0.277-0.371-1.296-0.544-1.202-1.011c0.097-0.467,1.159-0.973,0.894-1.479c-0.268-0.504-0.625-1.34-0.583-1.839
			c0.047-0.498-0.401-0.512-0.584-0.863c-0.182-0.351,0.324-0.617-0.006-1.019c-0.327-0.398-0.615-0.809-0.545-1.05
			c0.068-0.239-0.176-0.661-0.417-0.731c-0.533,0.495-4.918,2.996-11.118,3.675C88.35,60.667,85.603,59.673,85.603,59.673z"/>
	</g>
	<g>
		<path fill="#010202" d="M99.441,126.24c0,0-3.116-16.557-8.252-21.696c-1.454-1.625-2.795-4.68-2.284-6.651
			c0.515-1.971-0.695-4.512-1.21-5.196c-0.256,1.371,0.85,2.084-0.777,3.11c-1.629,1.028-1.351,0.972-1.695,1.829
			c-0.343,0.855,0.771,1.713,0,2.57c-0.771,0.856-1.796,0.769-3.081,0.427c0.169,0.429,2.139,1.712,3.595,1.542
			c0.801-0.094-1.371,2.311-2.568,2.398c-1.2,0.085-1.969,0.34-2.914,0.255c-0.722-0.063-2.14,0.172-3.167,0.945
			c-1.028,0.771-20.896,16.957-22.951,17.812c-0.161-2.234-2.485-19.012-4.392-24.256c-0.833-0.321-0.496-1.275-0.66-1.606
			c1.197-1.115,1.626-2.913,2.055-4.367c0.427-1.458,0-3.427-0.687-5.396c-0.684-1.969-0.429-4.882,1.285-5.739
			c0.686-0.427-0.772-0.77-1.285-0.427c-0.513,0.338-4.024,1.967-2.653,7.792c0.171,0.598-0.086,1.369-0.942,1.798
			c-0.855,0.43-6.081,2.315-16.615-0.258c-1.712-2.226-4.968-6.507-8.392-6.251c-0.599,0.258,0.343,0.429,0.855,0.771
			c0.516,0.345,3.598,3.512,4.455,5.997c0.513,1.114,1.206,2.176,2.827,2.311c1.026,0.086,4.538,1.027,6.078,2.055
			c0.771,0.515,1.628,0.685,2.227,0.599c0.599-0.084,5.997,1.371,6.509,2.741c-2.14,0.516-2.226,0.6-3.083,1.027
			c1.284,3.084,8.22,28.713,8.906,30.316c0.515,1.2,1.458,1.541,2.314,1.284c0.854-0.255,19.979-13.499,21.836-15.07
			c2.227-1.885,4.967-2.826,5.479-2.742c1.714,2.226,4.111,3.312,8.65,28.059c-0.512,1.713-1.77,5.338-2.968,7.308
			c-1.198,1.971-3.911,8.478-4.339,12.334c-0.428,3.854-7.078,36.625-5.022,41.336c3.196,0.455,6.851-18.246,6.851-19.187
			c-0.086,2.799-4.226,32.744-4.568,34.026c-0.342,1.289-7.908,65.4-8.081,67.795c2.056,1.114,1.458,2.998,0.942,3.515
			c-0.09,0.09-4.227,1.381-5.652,2.061c-1.627,0.766-3.253,1.961-4.109,3.76c-0.988,2.079,3.768,2.657,4.538,2.657
			c0.771,0,7.394-0.17,11.731-2.913c0.257-1.197-0.942-4.367-1.513-4.909c-0.832-0.786-0.627-2.624-0.368-2.972
			c1.027-0.17,2.055-0.339,2.055-0.339s7.508-65.109,7.764-67.509c0.156-1.462,2.97-18.501,4.797-27.862
			c0.06-0.312-1.833,13.817-0.23,13.015c1.83-0.912,5.028-6.394,5.028-6.394l-1.802,88.063c0,0,1.198,0.771,1.113,1.8
			c-0.086,1.025-2.228,3.339-2.397,7.627c4.965,0.507,22.265,1.279,22.95,0.938c0.686-0.343-0.599-4.024-6.937-5.397
			c-6.337-1.369-8.734-2.914-8.734-2.914s-0.857-1.027-0.514-1.282c0.34-0.258,2.568-0.168,2.568-0.168s3.258-103.679,2.487-113.016
			c-0.77-9.335-1.201-21.667-0.77-24.317c0.428-2.66,4.108-30.92,4.194-33.916c0.088-2.998,0.945-3.769,1.544-3.083
			c0.599,0.687,12.133,23.167,13.357,24.75c0.996,1.29,1.602,1.981,4.846,2.528c4.792,0.922,10.63,2.229,24.061,3.515
			c-0.085-1.885,0.382-5.188,0.382-5.188s-20.04-2.826-23.979-3.081c0,0,0.088,0.084-0.682-0.772
			c-0.772-0.858-11.732-23.724-13.021-26.289c-1.283-2.573-3.339-4.368-5.907-5.055c0,0-2.571,0.086-4.453-0.772
			c-0.342,0.173-0.773-1.254-0.599-1.938c0,0,1.54-1.058,2.824,2.026c0.659,1.581,1.113,0.257,1.113,0.257s-3.082-6.422-5.139-8.22
			c-0.554-0.488-1.798,9.931-1.712,13.015c0.084,3.084,0.343,12.162-0.343,15.929C99.696,125.468,99.441,126.24,99.441,126.24z"/>
	</g>
	<g>
		<path fill="#FFFFFF" d="M21.851,84.875c0,0,26.179-4.311,38.053-3.625c-2.283-3.425-4.569-4.796-4.569-4.796l3.883-2.74
			l-2.513-0.456c0,0,3.425-3.198,4.569-3.198c1.142,0-0.456-2.74,1.142-3.653c-7.309-4.338-12.104-6.395-12.104-6.395
			s8.449-4.338,9.592-4.796c-1.829-1.826-4.339-3.654-4.339-3.654l-3.197-2.511l7.993-2.283c0,0-2.515-4.112-0.23-5.253
			c-2.055-0.457-4.565-1.143-4.565-1.143s3.653-3.654,3.653-7.308c-2.055,0-7.993-0.23-7.993-0.23l9.135-3.879
			c0,0-2.056-2.513-0.457-2.971c1.597-0.455-2.741-3.425,0.685-5.48c-3.884,0.229-5.482,0.229-5.482,0.229l-4.569-5.938l6.396-2.054
			c0,0-1.142-4.796-14.617-7.081c-13.472-2.284-17.813-2.51-17.813-2.51l-3.882,5.479l-6.394,0.23c0,0,1.6,4.567,2.285,5.48
			c0.686,0.912-10.505,2.969-10.505,2.969l4.568,3.424l-1.144,0.229l5.938,4.109l-4.338,2.741l-2.283,0.687
			c0,0,5.709,4.111,5.938,5.708c-6.395,2.742-12.103,4.111-10.048,8.679c1.826,1.599,3.196,3.424,3.196,3.424l-2.74,0.459
			l7.08,3.881l-5.94,1.598c0,0,3.198,2.742,1.372,4.568c-0.684,0.229-1.599,0.458-1.599,0.458l6.624,4.796l-4.571,0.455
			c0,0,0.458,4.11-0.913,4.11c3.428,2.055,7.08,4.798,7.08,4.798l-5.709,1.826c0,0,2.057,2.511,0.23,2.742
			c-1.827,0.226-5.254,1.597-5.254,1.597l13.246,0.913l-7.536,2.055L21.851,84.875z"/>
	</g>
	<g>
		<path fill="#8C8B8E" d="M21.194,85.479c-0.066,0-0.133-0.013-0.196-0.039c-5.522-2.269-12.266-3.902-13.542-3.846
			c-0.273,0.006-0.515-0.202-0.534-0.48c-0.018-0.279,0.189-0.521,0.467-0.545c3.732-0.338,5.932-0.458,5.954-0.459
			c0.287-0.013,0.526,0.202,0.541,0.485c0.016,0.284-0.202,0.526-0.485,0.542c-0.012,0-0.717,0.039-1.999,0.133
			c2.829,0.694,6.59,1.839,9.804,3.144c5.952-2.091,32.23-3.292,38.448-3.253c-0.902-0.911-2.717-2.506-4.415-3.908
			c-0.219-0.181-0.25-0.505-0.069-0.724c0.181-0.219,0.504-0.25,0.724-0.069c5.496,4.54,5.386,5.035,5.313,5.362
			c-0.057,0.252-0.291,0.424-0.55,0.399c-2.873-0.27-33.371,0.954-39.275,3.225C21.319,85.468,21.257,85.479,21.194,85.479z"/>
	</g>
	<g>
		<path fill="#8C8B8E" d="M40.833,81.022c-0.039,0-0.078-0.004-0.117-0.014c-1.068-0.22-32.799-2.71-36.902-2.895
			c-0.226-0.01-0.418-0.166-0.475-0.384c-0.057-0.218,0.035-0.449,0.227-0.567c0.483-0.299,4.3-1.248,13.613-3.385
			c0.755-0.172,1.352-0.309,1.419-0.327c0.269-0.071,0.55,0.083,0.629,0.35c0.079,0.268-0.065,0.548-0.33,0.634
			c-0.048,0.015-0.135,0.036-1.488,0.347c-4.827,1.106-8.36,1.94-10.577,2.495c8.547,0.596,31.243,2.357,33.892,2.696
			c1.329-0.785,9.506-5.481,10.486-5.398c0.283,0.024,0.493,0.273,0.469,0.556c-0.023,0.268-0.247,0.47-0.511,0.47
			c-0.883,0.165-8.21,4.177-10.063,5.343C41.024,80.995,40.929,81.022,40.833,81.022z"/>
	</g>
	<g>
		<path fill="#8C8B8E" d="M47.343,80.568c-0.179,0-0.353-0.094-0.447-0.26c-0.14-0.246-0.055-0.561,0.192-0.702
			c1.728-0.984,10.43-5.881,12.26-5.834c0.284,0.009,0.507,0.246,0.498,0.53c-0.009,0.284-0.253,0.511-0.53,0.498
			c-0.006,0-0.013,0-0.019,0c-1.233,0-7.817,3.489-11.699,5.701C47.517,80.546,47.429,80.568,47.343,80.568z"/>
	</g>
	<g>
		<path fill="#8C8B8E" d="M57.106,73.945c-0.013,0-0.026,0-0.039-0.001c-1.536-0.114-36.826-2.735-39.202-2.961
			c-2.646,0.697-9.182,2.746-9.248,2.767c-0.271,0.085-0.56-0.065-0.645-0.337c-0.085-0.271,0.065-0.56,0.336-0.644
			c0.067-0.022,6.777-2.125,9.387-2.805c0.066-0.017,0.133-0.022,0.201-0.012c0.687,0.093,25.972,1.981,39.245,2.966
			c0.284,0.021,0.497,0.268,0.476,0.551C57.598,73.739,57.372,73.945,57.106,73.945z"/>
	</g>
	<g>
		<path fill="#8C8B8E" d="M14.115,71.089c-0.088,0-0.178-0.023-0.259-0.07l-6.055-3.54c-0.202-0.117-0.299-0.357-0.236-0.582
			c0.062-0.226,0.28-0.376,0.503-0.376c1.923,0.03,47.157,0.771,53.674,3.289c0.265,0.102,0.397,0.4,0.294,0.666
			c-0.102,0.264-0.399,0.396-0.665,0.294c-5.595-2.161-42.377-3.008-51.352-3.184l4.354,2.544c0.246,0.144,0.328,0.459,0.185,0.704
			C14.464,70.998,14.292,71.089,14.115,71.089z"/>
	</g>
	<g>
		<path fill="#8C8B8E" d="M62.814,67.264c-0.024,0-0.048-0.001-0.072-0.005c-15.316-2.136-44.18-6.141-46.413-6.377
			c-0.166,0.087-0.354,0.19-0.564,0.306c-1.586,0.873-4.54,2.5-7.92,2.192c-0.283-0.025-0.492-0.275-0.466-0.558
			c0.026-0.284,0.275-0.491,0.559-0.466c3.066,0.278,5.736-1.192,7.332-2.07c0.279-0.154,0.522-0.287,0.727-0.389
			c0.072-0.036,0.15-0.054,0.23-0.054c0.756,0,41.962,5.742,46.659,6.396c0.281,0.04,0.478,0.299,0.438,0.581
			C63.286,67.077,63.066,67.264,62.814,67.264z"/>
	</g>
	<g>
		<path fill="#8C8B8E" d="M10.175,60.073c-0.1,0-0.2-0.028-0.288-0.088l-3.882-2.628c-0.17-0.116-0.256-0.322-0.217-0.524
			c0.04-0.203,0.197-0.362,0.398-0.404c1.201-0.254,11.793-2.463,14.032-1.697c0.269,0.091,0.413,0.384,0.32,0.652
			c-0.091,0.269-0.384,0.413-0.652,0.321c-1.372-0.469-7.705,0.559-12.295,1.485l2.873,1.945c0.235,0.159,0.297,0.479,0.138,0.714
			C10.502,59.994,10.34,60.073,10.175,60.073z"/>
	</g>
	<g>
		<path fill="#8C8B8E" d="M59.958,54.932c-0.086,0-0.174-0.021-0.254-0.067l-6.084-3.462c-3.272,0.248-42.948,3.244-45.84,3.244
			c-0.284,0-0.514-0.23-0.514-0.514c0-0.285,0.23-0.515,0.514-0.515c2.915,0,45.49-3.219,45.919-3.251
			c0.101-0.009,0.204,0.015,0.293,0.066l6.221,3.54c0.248,0.141,0.333,0.455,0.193,0.701C60.31,54.839,60.137,54.932,59.958,54.932z
			"/>
	</g>
	<g>
		<path fill="#8C8B8E" d="M5.436,53.049c-0.224,0-0.43-0.148-0.495-0.375C4.864,52.4,5.023,52.116,5.296,52.04
			c0.48-0.136,11.794-3.329,14.23-3.387c0.299-0.014,0.52,0.218,0.526,0.501c0.006,0.284-0.218,0.52-0.501,0.526
			c-2.309,0.056-13.859,3.316-13.976,3.349C5.529,53.042,5.482,53.049,5.436,53.049z"/>
	</g>
	<g>
		<path fill="#8C8B8E" d="M52.708,50.022c-0.06,0-0.12-0.01-0.18-0.032c-4.767-1.775-12.596-4.774-14.201-5.899
			c-5.646,0.202-26.451,1.687-31.998,2.719c1.589,0.903,4.085,2.046,4.117,2.061c0.259,0.119,0.372,0.422,0.254,0.681
			c-0.119,0.259-0.423,0.372-0.681,0.254c-0.166-0.076-4.065-1.862-5.295-2.8c-0.148-0.114-0.224-0.3-0.197-0.484
			c0.027-0.186,0.154-0.341,0.33-0.407c3.041-1.133,28.494-2.892,33.62-3.059c0.169-0.004,0.325,0.071,0.425,0.204
			c0.648,0.604,7.674,3.416,13.985,5.766c0.267,0.099,0.402,0.396,0.303,0.662C53.112,49.894,52.917,50.022,52.708,50.022z"/>
	</g>
	<g>
		<path fill="#8C8B8E" d="M60.417,47.224c-0.052,0-0.105-0.008-0.157-0.024c-4.669-1.499-13.521-1.628-13.611-1.629
			c-0.284-0.004-0.511-0.238-0.507-0.521c0.003-0.281,0.233-0.508,0.514-0.508c0.003,0,0.005,0,0.007,0
			c0.369,0.005,9.097,0.133,13.912,1.678c0.271,0.087,0.419,0.377,0.333,0.647C60.836,47.084,60.634,47.224,60.417,47.224z"/>
	</g>
	<g>
		<path fill="#8C8B8E" d="M7.094,45.457c-0.105,0-0.212-0.032-0.304-0.1c-0.074-0.054-1.812-1.336-2.542-2.616
			c-0.07-0.124-0.086-0.272-0.043-0.409c0.042-0.137,0.14-0.249,0.269-0.31c2.016-0.96,12.009-6.112,17.976-10.071
			c0.083-0.056,0.18-0.084,0.28-0.086c0.019,0,0.039,0,0.06,0c6.19,0,36.098,8.727,37.372,9.099
			c0.272,0.079,0.429,0.365,0.349,0.638c-0.08,0.272-0.366,0.431-0.638,0.349c-0.309-0.09-30.723-8.965-36.984-9.057
			c-5.604,3.698-14.585,8.386-17.436,9.796c0.73,0.94,1.931,1.828,1.945,1.838c0.229,0.168,0.278,0.49,0.11,0.719
			C7.408,45.384,7.252,45.457,7.094,45.457z"/>
	</g>
	<g>
		<path fill="#8C8B8E" d="M3.897,41.517c-0.186,0-0.364-0.101-0.457-0.275c-0.035-0.068-0.33-0.682,0.1-1.585
			c0.803-1.687,4.074-4.168,15.097-6.409c0.279-0.056,0.55,0.124,0.606,0.401c0.057,0.279-0.123,0.549-0.401,0.607
			C7.259,36.61,4.933,39.125,4.469,40.098c-0.199,0.417-0.118,0.665-0.117,0.667c0.131,0.251,0.034,0.562-0.218,0.693
			C4.059,41.498,3.977,41.517,3.897,41.517z"/>
	</g>
	<g>
		<path fill="#8C8B8E" d="M51.283,38.09c-0.057,0-0.113-0.009-0.17-0.029c-5.013-1.761-12.695-7.076-13.996-7.99l-10.747,2.017
			c-0.279,0.054-0.547-0.131-0.6-0.41s0.132-0.548,0.411-0.6l10.96-2.056c0.137-0.027,0.279,0.005,0.392,0.085
			c0.086,0.062,8.684,6.144,13.92,7.984c0.269,0.094,0.409,0.388,0.314,0.656C51.694,37.958,51.496,38.09,51.283,38.09z"/>
	</g>
	<g>
		<path fill="#8C8B8E" d="M56.421,39.802c-0.144,0-0.287-0.06-0.388-0.177c-0.187-0.215-0.164-0.539,0.05-0.726
			c2.232-1.942,2.479-4.333,2.476-5.317l-15.154,0.056c0,0-0.001,0-0.002,0c-0.283,0-0.513-0.229-0.515-0.512
			c0-0.284,0.229-0.515,0.513-0.516l15.644-0.058c0,0,0.001,0,0.002,0c0.258,0,0.477,0.192,0.509,0.448
			c0.021,0.156,0.455,3.845-2.798,6.676C56.661,39.76,56.542,39.802,56.421,39.802z"/>
	</g>
	<g>
		<path fill="#8C8B8E" d="M52.708,32.554c-0.209,0-0.405-0.129-0.482-0.336c-0.099-0.267,0.037-0.563,0.303-0.661l6.158-2.276
			c-4.734-0.904-11.823-2.153-13.363-2.04c-0.287,0.022-0.53-0.19-0.551-0.473c-0.021-0.283,0.191-0.53,0.474-0.552
			c2.327-0.18,14.906,2.3,15.44,2.405c0.226,0.045,0.395,0.234,0.413,0.464c0.019,0.23-0.119,0.444-0.334,0.523l-7.88,2.913
			C52.828,32.543,52.768,32.554,52.708,32.554z"/>
	</g>
	<g>
		<path fill="#8C8B8E" d="M14,33.638c-0.156,0-0.311-0.071-0.412-0.206c-0.422-0.562-2.788-2.621-5.273-4.588
			c-0.177-0.141-0.242-0.381-0.159-0.592c0.084-0.211,0.295-0.345,0.521-0.324c7.362,0.617,30.201-5.179,30.431-5.237
			c0.174-0.044,0.36,0.006,0.489,0.133l7.194,7.14c0.202,0.2,0.203,0.526,0.003,0.728c-0.2,0.202-0.526,0.203-0.728,0.003
			l-6.987-6.935C36.478,24.415,18.357,28.908,10.15,29c1.715,1.4,3.769,3.158,4.261,3.815c0.17,0.227,0.124,0.549-0.103,0.72
			C14.216,33.604,14.107,33.638,14,33.638z"/>
	</g>
	<g>
		<path fill="#8C8B8E" d="M60.13,26.671c-0.046,0-0.093-0.006-0.14-0.019c-16.911-4.749-19.443-3.494-19.779-3.194
			c0,0-0.002-0.04-0.005-0.077c0.018,0.263-0.166,0.5-0.431,0.543c-0.281,0.045-0.544-0.145-0.59-0.425
			c-0.035-0.212,0.037-0.537,0.341-0.808c2.01-1.794,12.39,0.625,20.743,2.97c0.273,0.076,0.433,0.36,0.356,0.633
			C60.561,26.522,60.354,26.671,60.13,26.671z"/>
	</g>
	<g>
		<path fill="#8C8B8E" d="M11.717,27.87c-0.183,0-0.36-0.097-0.452-0.27c-0.136-0.25-0.043-0.562,0.207-0.697
			c14.468-7.846,15.56-10.776,15.615-10.954c0.026-0.131,0.104-0.248,0.216-0.323c0.121-0.083,0.271-0.108,0.413-0.073l12.102,3.026
			c0.275,0.069,0.444,0.348,0.375,0.624s-0.348,0.445-0.624,0.375l-11.69-2.924c-0.71,1.21-3.661,4.508-15.916,11.154
			C11.883,27.85,11.799,27.87,11.717,27.87z"/>
	</g>
	<g>
		<path fill="#8C8B8E" d="M14.228,24.561c-0.081,0-0.165-0.019-0.242-0.061l-5.996-3.2c-0.203-0.108-0.309-0.338-0.26-0.563
			c0.049-0.225,0.242-0.389,0.471-0.403c0.102-0.007,10.26-0.631,14.762-1.139c0.282-0.031,0.537,0.171,0.569,0.454
			c0.032,0.283-0.171,0.537-0.453,0.569c-3.365,0.378-9.855,0.822-13.008,1.028l4.399,2.347c0.251,0.134,0.346,0.446,0.211,0.696
			C14.589,24.462,14.412,24.561,14.228,24.561z"/>
	</g>
	<g>
		<path fill="#8C8B8E" d="M9.491,20.22c-0.077,0-0.157-0.018-0.231-0.055l-4.513-2.286c-0.194-0.098-0.306-0.307-0.278-0.523
			c0.027-0.215,0.187-0.391,0.399-0.438c0.196-0.043,19.678-4.346,23.674-5.417c0.274-0.074,0.556,0.09,0.63,0.364
			c0.073,0.274-0.089,0.556-0.363,0.629c-3.382,0.907-17.739,4.103-22.313,5.117l3.229,1.634c0.253,0.129,0.355,0.439,0.227,0.692
			C9.86,20.117,9.679,20.22,9.491,20.22z"/>
	</g>
	<g>
		<path fill="#8C8B8E" d="M59.733,21.153c-11.005,0.001-13.936-3.857-15.471-6.169c-4.974,1.255-6.343,1.247-8.329,0.586
			c-3.369-1.121-5.112-3.866-5.185-3.982c-0.15-0.242-0.077-0.558,0.165-0.708c0.241-0.15,0.558-0.077,0.708,0.165
			c0.029,0.045,1.642,2.555,4.635,3.55c1.811,0.602,3.094,0.584,8.105-0.697c0.212-0.054,0.437,0.033,0.557,0.216l0.034,0.052
			c1.542,2.346,4.128,6.271,16.134,5.94c0.276-0.012,0.52,0.216,0.528,0.5c0.007,0.284-0.216,0.521-0.5,0.528
			C60.642,21.146,60.18,21.153,59.733,21.153z"/>
	</g>
	<g>
		<path fill="#8C8B8E" d="M52.253,16.908c-0.126,0-0.251-0.044-0.351-0.138l-8.126-7.562C41.201,9.281,19.373,9.896,14.572,9.85
			c0.596,1.331,1.796,2.744,2.262,3.116c0.222,0.176,0.258,0.5,0.081,0.723c-0.177,0.221-0.5,0.258-0.722,0.081
			c-0.589-0.47-2.36-2.509-2.859-4.318c-0.044-0.162-0.007-0.334,0.099-0.463c0.107-0.129,0.27-0.197,0.437-0.186
			c2.172,0.167,29.81-0.621,30.088-0.628c0.132-0.006,0.266,0.046,0.365,0.137l8.281,7.706c0.208,0.193,0.219,0.519,0.026,0.727
			C52.528,16.853,52.391,16.908,52.253,16.908z"/>
	</g>
	<g>
		<path fill="#8C8B8E" d="M50.597,15.367c-0.115,0-0.231-0.039-0.327-0.118c-0.219-0.18-0.25-0.504-0.07-0.724
			c0.651-0.79,2.495-1.482,6.129-2.292c-1.681-5.403-22.842-7.779-31.42-8.271l-3.546,4.309c-0.182,0.219-0.505,0.251-0.724,0.07
			s-0.251-0.504-0.071-0.723l3.713-4.511c0.104-0.126,0.258-0.197,0.425-0.187c0.079,0.004,7.985,0.446,15.887,1.798
			c10.823,1.852,16.493,4.495,16.852,7.853c0.028,0.261-0.146,0.501-0.403,0.557c-3.52,0.762-5.555,1.452-6.048,2.049
			C50.892,15.303,50.745,15.367,50.597,15.367z"/>
	</g>
	<path fill="#010202" d="M139.246,137.349c0,0,9.782,0.567,12.118,1.034c2.217,0.444,3.842,0.049,4.927-0.443
		c1.084-0.492,4.122-0.413,5.314-0.32c4.423,0.342,8.559,0.904,9.027,1.683c0.436,0.726-1.28,1.281-3.406,0.707
		c-2.062-0.106-2.266,0-2.266,0s6.847,1.674,8.473,2.709s1.314,1.769-0.295,1.33c-1.084-0.295-6.256-1.526-6.256-1.526
		s7.31,2.171,7.241,3.004c-0.098,1.182-1.921,0.69-2.956,0.542c0.099,0.246,2.345,0.397,1.33,1.478
		c-0.71,0.757-4.929-0.251-7.539-0.887c-1.118-0.272,3.253,0.444,2.367,1.035c-0.466,0.311-3.128,0-6.549-0.492
		c-2.195-0.543-5.224-2.095-5.815-3.425c-0.517-1.403-4.978-1.662-6.739-2.164c-3.695-1.055-8.765-1.804-9.565-1.604"/>
</g>
<g id="Ebene_6">
	<g id="Text_Case_2_">
		<g>
			<path fill="#009BA4" d="M131.765,64.882c-4.001,8.676-5.93,18.101-7.031,27.545c-0.075,0.64,0.926,0.633,1,0
				c1.079-9.255,2.973-18.537,6.894-27.041C132.896,64.806,132.035,64.297,131.765,64.882L131.765,64.882z"/>
		</g>
		<g>
			<path fill="#009BA4" d="M126.042,93.474c-0.458-10.294,1.973-21.256,6.646-30.391c0.293-0.573-0.57-1.079-0.863-0.505
				c-4.752,9.29-7.249,20.424-6.783,30.896C125.071,94.116,126.071,94.119,126.042,93.474L126.042,93.474z"/>
		</g>
		<g>
			<path fill="#FFFFFF" d="M119.256,99.566l-5.384,0.696c0,0,2.859-9.214,3.177-14.936c0.318-5.719-3.177-13.026-3.177-13.026
				l16.043,0.794c0,0,2.727,12.775,2.115,20.325"/>
			<g>
				<path fill="#8C8B8E" d="M119.256,99.066c-1.794,0.232-3.589,0.464-5.384,0.696c0.161,0.211,0.321,0.422,0.482,0.633
					c1.39-4.506,2.556-9.15,3.095-13.839c0.565-4.919-1.059-10.095-3.145-14.508c-0.144,0.251-0.288,0.501-0.432,0.752
					c5.127,0.254,10.254,0.508,15.381,0.762c0.214,0.011,0.429,0.021,0.643,0.032c-0.586-0.029-0.491-0.526-0.298,0.436
					c0.315,1.574,0.59,3.155,0.848,4.739c0.783,4.811,1.422,9.771,1.085,14.652c-0.044,0.644,0.956,0.64,1,0
					c0.467-6.779-0.729-13.835-2.133-20.458c-0.047-0.224-0.269-0.356-0.482-0.367c-5.348-0.265-10.696-0.53-16.043-0.794
					c-0.409-0.02-0.583,0.432-0.432,0.752c2.036,4.309,3.456,9.219,3.008,14.003c-0.429,4.58-1.706,9.186-3.059,13.574
					c-0.087,0.282,0.159,0.674,0.482,0.633c1.794-0.232,3.589-0.464,5.384-0.696C119.886,99.984,119.894,98.983,119.256,99.066
					L119.256,99.066z"/>
			</g>
		</g>
		<path fill="#FFFFFF" d="M130.371,93.612c-0.356,0.267-3.144,23.971-3.144,23.971l5.444-5.638l0.648,0.972
			c0.259,3.371-0.777,6.222-0.777,6.222l-16.939-0.292c0,0,5.242-20.174,3.971-26.051c2.543-2.383,13.217-3.005,13.217-3.005
			s0.777,4.139,0.777,5.183C133.568,94.973,130.727,93.345,130.371,93.612z"/>
		<g>
			<path fill="#8C8B8E" d="M132.819,112.916c0.083,1.874-0.09,3.686-0.576,5.5c-0.203,0.759,0.658,0.228-0.35,0.21
				c-1.867-0.032-3.735-0.064-5.603-0.096c-3.563-0.062-7.125-0.123-10.688-0.184c0.161,0.211,0.321,0.422,0.482,0.633
				c1.822-7.032,3.483-14.258,4.088-21.507c0.07-0.843-0.348-4.282,0.202-4.659c1.819-1.249,4.5-1.544,6.623-1.89
				c1.834-0.298,3.691-0.486,5.544-0.617c0.51-0.036-0.148,0.066-0.219-0.313c0.084,0.451,0.164,0.903,0.244,1.355
				c0.21,1.196,0.449,2.41,0.503,3.625c0.029,0.642,1.029,0.645,1,0c-0.08-1.781-0.469-3.567-0.795-5.315
				c-0.039-0.207-0.275-0.38-0.482-0.367c-4.174,0.252-10.226,0.352-13.571,3.151c-0.141,0.118-0.161,0.32-0.128,0.486
				c0.93,4.856-0.618,10.49-1.564,15.238c-0.705,3.535-1.503,7.058-2.407,10.547c-0.083,0.318,0.154,0.627,0.482,0.633
				c5.646,0.097,11.293,0.194,16.939,0.292c0.233,0.004,0.409-0.158,0.482-0.367c0.706-2.032,0.891-4.221,0.795-6.354
				C133.791,112.274,132.791,112.271,132.819,112.916L132.819,112.916z"/>
		</g>
		<g>
			<path fill="#009BA4" d="M179.01,128.089c-5.585,1.422-11.635,1.637-17.347,1.151c-12.18-1.036-22.889-7.128-28.47-18.244
				c-0.143-0.285-0.573-0.325-0.785-0.101c-2.314,2.444-4.317,5.219-6.001,8.133c0.311,0.084,0.621,0.168,0.932,0.252
				c1.058-8.507,1.919-17.11,3.515-25.536c-0.205,0.117-0.41,0.233-0.615,0.349c4.221,1.745,7.979,4.785,11.509,7.618
				c2.51,2.015,5.289,4.095,7.384,6.563c0.118-0.285,0.236-0.569,0.354-0.854c-3.996,0.045-8.023,0.218-11.983,0.792
				c-0.373,0.054-0.478,0.603-0.221,0.835c11.287,10.205,27.907,16.765,43.093,13.941c0.645-0.12,0.355-1.048-0.266-0.964
				c-14.046,1.894-34.164-0.459-41.839-14.539c-0.144,0.251-0.288,0.501-0.432,0.752c4.083,0.027,8.171-0.105,12.253-0.205
				c0.498-0.012,0.682-0.671,0.252-0.932c-3.244-1.971-6.492-3.936-9.742-5.896c-3.666-2.211-7.295-4.712-11.138-6.609
				c-0.271-0.134-0.666-0.037-0.734,0.299c-0.748,3.625-0.698,7.521-0.917,11.202c-0.257,4.332-0.433,8.672-0.769,12.999
				c-0.039,0.501,0.703,0.676,0.932,0.252c1.393-2.575,3.086-4.999,4.928-7.273c-0.278-0.074-0.557-0.147-0.835-0.221
				c1.331,4.709,5.027,8.923,8.778,11.866c10.683,8.382,25.478,8.381,38.231,6.267c0.635-0.105,0.365-1.068-0.266-0.964
				c-12.704,2.105-27.302,2.012-37.829-6.463c-3.39-2.729-6.738-6.682-7.951-10.972c-0.094-0.333-0.59-0.523-0.835-0.221
				c-1.896,2.341-3.651,4.824-5.084,7.476c0.311,0.084,0.621,0.168,0.932,0.252c0.321-4.131,0.494-8.276,0.734-12.413
				c0.22-3.778,0.149-7.803,0.916-11.522c-0.245,0.1-0.489,0.199-0.734,0.299c3.691,1.822,7.177,4.221,10.698,6.344
				c3.397,2.048,6.791,4.103,10.182,6.162c0.084-0.311,0.168-0.621,0.252-0.932c-4.082,0.1-8.17,0.232-12.253,0.205
				c-0.388-0.002-0.611,0.424-0.432,0.752c7.881,14.458,28.128,16.999,42.968,14.998c-0.088-0.321-0.177-0.643-0.266-0.964
				c-14.807,2.753-31.115-3.734-42.12-13.685c-0.074,0.278-0.147,0.557-0.221,0.835c3.87-0.56,7.814-0.712,11.718-0.755
				c0.461-0.005,0.628-0.529,0.354-0.854c-2.23-2.627-5.203-4.813-7.875-6.958c-3.521-2.827-7.257-5.744-11.459-7.48
				c-0.238-0.099-0.568,0.104-0.615,0.349c-1.612,8.512-2.482,17.208-3.551,25.802c-0.064,0.514,0.7,0.653,0.932,0.252
				c1.644-2.842,3.588-5.546,5.845-7.931c-0.262-0.034-0.523-0.067-0.785-0.101c5.461,10.876,15.607,16.958,27.458,18.536
				c6.344,0.844,13.255,0.604,19.488-0.984C179.9,128.895,179.635,127.93,179.01,128.089L179.01,128.089z"/>
		</g>
		<path fill="#FFFFFF" d="M203.312,117.323c0,0-9.946,17.141-22.294,19.702c-5.723-1.958-12.485-9.73-12.485-9.73
			s19.212-7.831,19.814-10.993c1.398,0.051,3.083,0.216,5.373,0.374c0.386,0.026,0.196,2.371,0.583,2.398
			c0.502,0.036,3.073-2.109,3.564-2.074C201.297,117.249,203.312,117.323,203.312,117.323z"/>
		<g>
			<path fill="#8C8B8E" d="M197.673,117.37c1.88,0.14,3.76,0.286,5.638,0.454c-0.144-0.251-0.288-0.501-0.432-0.752
				c-3.127,5.358-7.295,10.325-12.051,14.295c-1.863,1.555-3.917,2.866-6.108,3.905c-1.044,0.496-2.145,0.847-3.259,1.141
				c-1.198,0.316-3.204-1.269-4.138-1.878c-3.133-2.046-5.975-4.78-8.438-7.593c-0.074,0.278-0.147,0.557-0.221,0.835
				c3.867-1.579,7.685-3.296,11.423-5.158c2.399-1.194,4.828-2.451,6.968-4.077c0.574-0.436,1.099-0.914,1.513-1.506
				c0.422-0.603,0.04-0.226,0.995-0.179c1.319,0.064,2.637,0.154,3.955,0.241c0.644,0.042,0.64-0.958,0-1
				c-1.724-0.114-3.447-0.225-5.173-0.296c-0.221-0.009-0.425,0.159-0.482,0.367c-0.378,1.366-2.479,2.361-3.58,3.035
				c-2.106,1.29-4.333,2.388-6.556,3.46c-3.064,1.478-6.181,2.862-9.33,4.148c-0.355,0.145-0.487,0.531-0.221,0.835
				c2.545,2.907,5.459,5.557,8.641,7.749c2.08,1.433,3.62,2.388,6.051,1.657c2.374-0.713,4.565-1.989,6.589-3.393
				c5.802-4.022,10.733-10.001,14.284-16.086c0.205-0.35-0.064-0.72-0.432-0.752c-1.878-0.168-3.758-0.314-5.638-0.454
				C197.03,116.322,197.034,117.322,197.673,117.37L197.673,117.37z"/>
		</g>
		<g>
			<path fill="#009BA4" d="M187.233,50.149c5.106,5.16,9.41,11.303,12.953,17.611c6.502,11.576,10.079,25.671,3.798,38.116
				c-0.181,0.357,0.046,0.716,0.432,0.752c2.951,0.275,5.924,0.36,8.886,0.227c-0.084-0.311-0.168-0.621-0.252-0.932
				c-2.354,1.595-4.743,3.141-7.148,4.658c-3.44,2.169-7.17,4.882-11.115,6.038c0.211,0.161,0.422,0.321,0.633,0.482
				c-0.242-4.153-0.659-8.292-1.037-12.435c-0.171-1.87-0.332-3.741-0.439-5.616c-0.051-0.894-0.345-2.454,0.089-3.292
				c-0.262,0.034-0.523,0.067-0.785,0.101c2.098,2.523,4.007,5.225,5.674,8.054c0.274,0.466,0.875,0.213,0.932-0.252
				c0.76-6.215,0.585-12.641-0.091-18.849c-1.117-10.256-4.28-21.119-12.169-28.243c-0.401-0.362-1.136,0.126-0.785,0.606
				c3.453,4.723,6.277,10.002,8.631,15.343c4.261,9.669,7.202,21.663,1.837,31.486c0.288,0,0.576,0,0.863,0
				c-2.015-2.709-3.566-5.818-5.134-8.801c-0.228-0.434-0.959-0.242-0.932,0.252c0.212,3.851,0.434,7.701,0.666,11.551
				c0.238,3.966,0.103,8.236,0.883,12.145c0.069,0.349,0.46,0.416,0.734,0.299c3.506-1.492,6.777-3.789,9.967-5.843
				c3.411-2.197,7.206-4.431,10.039-7.38c0.372-0.387-0.012-0.911-0.486-0.835c-2.628,0.416-5.369,0.188-7.956-0.4
				c0.117,0.205,0.233,0.41,0.349,0.615c1.814-5.895,1.957-12.529,1.416-18.607c-1.255-14.11-8.186-26.76-18.551-36.27
				c-0.474-0.435-1.183,0.27-0.707,0.707c10.373,9.516,17.052,22.01,18.305,36.088c0.517,5.812,0.306,12.187-1.426,17.816
				c-0.078,0.251,0.089,0.556,0.349,0.615c2.771,0.63,5.677,0.846,8.487,0.4c-0.162-0.278-0.324-0.557-0.486-0.835
				c-2.778,2.892-6.496,5.056-9.836,7.224c-3.18,2.063-6.464,4.353-9.967,5.843c0.245,0.1,0.49,0.199,0.734,0.299
				c-0.794-3.979-0.635-8.353-0.878-12.392c-0.221-3.679-0.433-7.358-0.635-11.038c-0.311,0.084-0.621,0.168-0.932,0.252
				c1.567,2.982,3.119,6.092,5.134,8.801c0.211,0.285,0.667,0.359,0.863,0c5.174-9.473,2.877-20.723-0.899-30.256
				c-2.437-6.153-5.654-12.228-9.569-17.583c-0.262,0.202-0.523,0.404-0.785,0.606c8.138,7.349,11.039,18.629,12.043,29.171
				c0.541,5.671,0.617,11.546-0.076,17.213c0.311-0.084,0.621-0.168,0.932-0.252c-1.71-2.903-3.677-5.666-5.83-8.256
				c-0.202-0.243-0.646-0.168-0.785,0.101c-0.991,1.913-0.135,5.352,0.032,7.36c0.401,4.83,0.936,9.648,1.218,14.487
				c0.019,0.317,0.306,0.578,0.633,0.482c3.708-1.086,7.166-3.537,10.415-5.551c2.73-1.692,5.428-3.443,8.088-5.245
				c0.386-0.262,0.277-0.956-0.252-0.932c-2.961,0.133-5.935,0.048-8.886-0.227c0.144,0.251,0.288,0.501,0.432,0.752
				c6.201-12.288,3.119-25.945-2.978-37.612c-3.635-6.957-8.392-13.729-13.93-19.327C187.486,48.983,186.779,49.69,187.233,50.149
				L187.233,50.149z"/>
		</g>
		<g>
			<path fill="#FFFFFF" d="M179.067,57.891c0,0,16.665-0.985,24.004,3.775c2.088-4.76,4.058-14.441,4.058-14.441
				s-6.563-2.312-8.943-3.125"/>
			<g>
				<path fill="#8C8B8E" d="M179.067,58.391c7.597-0.434,17.11-0.403,23.752,3.707c0.209,0.13,0.58,0.068,0.684-0.179
					c1.959-4.626,3.103-9.65,4.108-14.561c0.058-0.282-0.079-0.52-0.349-0.615c-2.978-1.049-5.956-2.102-8.943-3.125
					c-0.612-0.21-0.872,0.756-0.266,0.964c2.987,1.024,5.964,2.077,8.943,3.125c-0.117-0.205-0.233-0.41-0.349-0.615
					c-0.987,4.818-2.085,9.783-4.007,14.322c0.228-0.06,0.456-0.12,0.684-0.179c-6.79-4.201-16.504-4.286-24.257-3.844
					C178.426,57.427,178.422,58.427,179.067,58.391L179.067,58.391z"/>
			</g>
		</g>
		<g>
			<path fill="#FFFFFF" d="M173.046,46.229l-3.022-0.74c0,0-0.575-2.657-0.575-3.688c6.665-1.978,28.019-2.94,28.019-2.94
				s1.968,15.097,0,17.395c-8.206-2.461-26.092,4.103-26.092,4.103s-1.268-8.219-1.506-10.435L173.046,46.229z"/>
			<g>
				<path fill="#8C8B8E" d="M173.179,45.748c-0.503-0.124-1.007-0.247-1.511-0.37c-0.286-0.07-0.572-0.14-0.858-0.21
					c-0.655-0.161-0.398-0.257-0.323,0.097c-0.154-0.724-0.285-1.451-0.406-2.181c-0.196-1.187-0.163-0.912,0.891-1.153
					c3.481-0.799,7.088-1.12,10.637-1.463c5.273-0.51,10.568-0.865,15.86-1.106c-0.167-0.167-0.333-0.333-0.5-0.5
					c0.382,2.953,0.643,5.926,0.796,8.899c0.111,2.161,0.183,4.375-0.132,6.522c-0.08,0.547-0.297,1.417-0.463,1.371
					c-0.985-0.271-2.03-0.358-3.046-0.422c-7.591-0.48-15.812,2.064-22.879,4.645c0.205,0.116,0.41,0.232,0.615,0.349
					c-0.41-2.664-0.811-5.33-1.188-7.999c-0.228-1.609-0.575-1.8,0.377-2.907c0.784-0.913,1.568-1.825,2.353-2.737
					c0.418-0.486-0.286-1.197-0.707-0.707c-0.873,1.016-1.746,2.031-2.619,3.046c-0.788,0.916-0.686,1.216-0.52,2.468
					c0.404,3.039,0.873,6.071,1.34,9.101c0.039,0.255,0.38,0.435,0.615,0.349c3.074-1.123,6.233-2.034,9.404-2.835
					c5.142-1.299,11.174-2.714,16.422-1.268c0.233,0.064,0.43-0.046,0.564-0.229c1.674-2.286,0.971-6.683,0.837-9.28
					c-0.144-2.794-0.41-5.591-0.769-8.367c-0.034-0.26-0.202-0.514-0.5-0.5c-3.936,0.179-7.869,0.441-11.795,0.751
					c-5.408,0.428-11.112,0.713-16.356,2.208c-0.206,0.059-0.378,0.26-0.367,0.482c0.063,1.287,0.325,2.563,0.593,3.821
					c0.035,0.164,0.189,0.31,0.349,0.349c1.007,0.247,2.015,0.493,3.022,0.74C173.54,46.865,173.806,45.9,173.179,45.748z"/>
			</g>
		</g>
		<g>
			<path fill="#009BA4" d="M132.688,63.083c2.053-4.677,6.224-8.144,10.375-10.917c4.889-3.267,10.475-5.553,16.249-6.642
				c0.369-0.069,0.482-0.592,0.221-0.835c-1.946-1.807-3.857-3.651-5.742-5.521c-0.162,0.278-0.324,0.557-0.486,0.835
				c6.066,2.134,12.472,4.115,18.145,7.168c-0.06-0.228-0.12-0.456-0.179-0.684c-2.001,3-4.902,5.477-7.593,7.837
				c-1.454,1.274-2.952,2.502-4.495,3.668c-0.729,0.55-1.792,1.578-2.74,1.71c0.188,0.245,0.376,0.489,0.564,0.734
				c1.091-2.307,2.611-4.953,2.977-7.528c0.053-0.374-0.211-0.711-0.615-0.615c-13.183,3.141-23.22,14.923-26.013,27.828
				c0.321,0.088,0.643,0.177,0.964,0.266c2.478-12.765,11.224-26.558,25.182-27.889c-0.161-0.211-0.321-0.422-0.482-0.633
				c-0.862,2.925-1.608,5.886-2.367,8.84c-0.129,0.502,0.467,0.812,0.835,0.486c2.592-2.291,5.18-4.587,7.764-6.888
				c2.777-2.473,5.833-4.838,8.362-7.571c0.182-0.196,0.203-0.514,0-0.707c-0.686-0.652-1.854-0.994-2.693-1.378
				c-2.101-0.961-4.233-1.855-6.374-2.725c-3.603-1.465-7.992-3.736-11.971-3.757c-0.433-0.002-0.666,0.548-0.354,0.854
				c1.92,1.875,3.683,3.914,5.357,6.011c0.074-0.278,0.147-0.557,0.221-0.835c-11.126,2.405-21.691,10.234-26.085,20.809
				c-0.248,0.595,0.72,0.852,0.964,0.266c4.256-10.241,14.634-17.786,25.387-20.11c0.404-0.087,0.437-0.564,0.221-0.835
				c-1.674-2.097-3.437-4.136-5.357-6.011c-0.118,0.285-0.236,0.569-0.354,0.854c4.03,0.021,8.562,2.443,12.211,3.927
				c2.116,0.861,4.217,1.765,6.292,2.723c0.542,0.25,1.082,0.507,1.608,0.788c0.263,0.141,0.438-0.769-0.241-0.125
				c-5.078,4.816-10.422,9.371-15.665,14.006c0.278,0.162,0.557,0.324,0.835,0.486c0.759-2.953,1.505-5.915,2.367-8.84
				c0.086-0.291-0.157-0.664-0.482-0.633c-14.423,1.375-23.573,15.367-26.146,28.623c-0.122,0.627,0.827,0.899,0.964,0.266
				c2.722-12.577,12.457-24.065,25.314-27.129c-0.205-0.205-0.41-0.41-0.615-0.615c-0.357,2.512-1.816,5.047-2.876,7.289
				c-0.201,0.424,0.123,0.796,0.564,0.734c0.823-0.115,1.642-0.847,2.291-1.306c1.558-1.103,3.034-2.327,4.491-3.559
				c3.085-2.609,6.385-5.421,8.645-8.81c0.147-0.221,0.05-0.561-0.179-0.684c-5.752-3.096-12.236-5.106-18.384-7.269
				c-0.485-0.171-0.827,0.497-0.486,0.835c1.885,1.87,3.796,3.714,5.742,5.521c0.074-0.278,0.147-0.557,0.221-0.835
				c-6.16,1.161-11.94,3.704-17.14,7.178c-4.06,2.713-8.084,6.29-10.082,10.84C131.568,63.163,132.43,63.672,132.688,63.083
				L132.688,63.083z"/>
		</g>
	</g>
	<g id="Sparcles_2_">
		<g>
			<g>
				<path fill="#F49532" d="M153.522,50.724c1.254,0,1.254-1.943,0-1.943C152.27,48.781,152.27,50.724,153.522,50.724
					L153.522,50.724z"/>
			</g>
		</g>
		<g>
			<g>
				<path fill="#F49532" d="M138.363,53.186c1.254,0,1.254-1.944,0-1.944C137.11,51.242,137.11,53.186,138.363,53.186
					L138.363,53.186z"/>
			</g>
		</g>
		<g>
			<g>
				<path fill="#F49532" d="M153.394,46.06c1.253,0,1.253-1.945,0-1.945S152.14,46.06,153.394,46.06L153.394,46.06z"/>
			</g>
		</g>
		<g>
			<g>
				<path fill="#F49532" d="M159.094,40.488c1.253,0,1.253-1.943,0-1.943C157.841,38.544,157.841,40.488,159.094,40.488
					L159.094,40.488z"/>
			</g>
		</g>
		<g>
			<g>
				<path fill="#F49532" d="M169.46,48.521c1.253,0,1.253-1.944,0-1.944C168.207,46.578,168.207,48.521,169.46,48.521L169.46,48.521
					z"/>
			</g>
		</g>
		<g>
			<g>
				<path fill="#F49532" d="M188.248,60.053c1.254,0,1.254-1.943,0-1.943S186.994,60.053,188.248,60.053L188.248,60.053z"/>
			</g>
		</g>
		<g>
			<g>
				<path fill="#F49532" d="M158.446,63.94c1.254,0,1.254-1.943,0-1.943C157.194,61.997,157.193,63.94,158.446,63.94L158.446,63.94z
					"/>
			</g>
		</g>
		<g>
			<g>
				<path fill="#F49532" d="M194.338,100.868c1.253,0,1.253-1.943,0-1.943C193.085,98.925,193.085,100.868,194.338,100.868
					L194.338,100.868z"/>
			</g>
		</g>
		<g>
			<g>
				<path fill="#F49532" d="M193.042,97.11c1.253,0,1.253-1.943,0-1.943C191.788,95.167,191.788,97.11,193.042,97.11L193.042,97.11z
					"/>
			</g>
		</g>
		<g>
			<g>
				<path fill="#F49532" d="M188.637,115.51c1.254,0,1.254-1.944,0-1.944C187.382,113.566,187.382,115.51,188.637,115.51
					L188.637,115.51z"/>
			</g>
		</g>
		<g>
			<g>
				<path fill="#F49532" d="M189.543,111.493c1.254,0,1.254-1.943,0-1.943S188.29,111.493,189.543,111.493L189.543,111.493z"/>
			</g>
		</g>
		<g>
			<g>
				<path fill="#F49532" d="M186.304,104.495c1.254,0,1.254-1.942,0-1.942C185.05,102.553,185.05,104.495,186.304,104.495
					L186.304,104.495z"/>
			</g>
		</g>
		<g>
			<g>
				<path fill="#F49532" d="M204.574,112.141c1.254,0,1.254-1.944,0-1.944C203.319,110.197,203.319,112.141,204.574,112.141
					L204.574,112.141z"/>
			</g>
		</g>
		<g>
			<g>
				<path fill="#F49532" d="M199.521,113.178c1.254,0,1.254-1.944,0-1.944C198.266,111.234,198.266,113.178,199.521,113.178
					L199.521,113.178z"/>
			</g>
		</g>
		<g>
			<g>
				<path fill="#F49532" d="M194.986,114.603c1.253,0,1.253-1.944,0-1.944C193.732,112.658,193.732,114.603,194.986,114.603
					L194.986,114.603z"/>
			</g>
		</g>
		<g>
			<g>
				<path fill="#F49532" d="M208.72,95.944c0.043,0,0.087,0,0.13,0c0.53,0,0.972-0.442,0.972-0.971c0-0.531-0.442-0.973-0.972-0.973
					c-0.043,0-0.086,0-0.13,0c-0.53,0-0.971,0.442-0.971,0.973C207.749,95.502,208.19,95.944,208.72,95.944L208.72,95.944z"/>
			</g>
		</g>
		<g>
			<g>
				<path fill="#F49532" d="M210.923,93.353c1.254,0,1.254-1.943,0-1.943S209.669,93.353,210.923,93.353L210.923,93.353z"/>
			</g>
		</g>
		<g>
			<g>
				<path fill="#F49532" d="M212.996,88.429c1.253,0,1.253-1.943,0-1.943C211.743,86.486,211.743,88.429,212.996,88.429
					L212.996,88.429z"/>
			</g>
		</g>
		<g>
			<g>
				<path fill="#F49532" d="M212.608,83.635c1.252,0,1.252-1.944,0-1.944C211.354,81.691,211.354,83.635,212.608,83.635
					L212.608,83.635z"/>
			</g>
		</g>
		<g>
			<g>
				<path fill="#F49532" d="M209.887,77.286c1.252,0,1.252-1.943,0-1.943C208.633,75.343,208.633,77.286,209.887,77.286
					L209.887,77.286z"/>
			</g>
		</g>
		<g>
			<g>
				<path fill="#F49532" d="M147.692,46.06c1.253,0,1.253-1.945,0-1.945C146.439,44.115,146.439,46.06,147.692,46.06L147.692,46.06z
					"/>
			</g>
		</g>
		<g>
			<g>
				<path fill="#F49532" d="M147.175,48.91c1.252,0,1.252-1.944,0-1.944C145.921,46.966,145.921,48.91,147.175,48.91L147.175,48.91z
					"/>
			</g>
		</g>
		<g>
			<g>
				<path fill="#F49532" d="M143.87,53.121c-0.005,0.188,0.035,0.062,0.116-0.376c0.117-0.118,0.232-0.233,0.349-0.349
					c0.439-0.083,0.565-0.122,0.377-0.117c-0.53,0.003-0.972,0.439-0.972,0.972c0,0.527,0.442,0.975,0.972,0.972
					c0.645-0.004,1.098-0.457,1.102-1.101c0.002-0.53-0.444-0.972-0.972-0.972C144.309,52.15,143.873,52.592,143.87,53.121
					L143.87,53.121z"/>
			</g>
		</g>
		<g>
			<g>
				<path fill="#F49532" d="M139.141,58.369c1.252,0,1.252-1.943,0-1.943C137.888,56.425,137.888,58.369,139.141,58.369
					L139.141,58.369z"/>
			</g>
		</g>
		<g>
			<g>
				<path fill="#F49532" d="M125.146,112.789c1.253,0,1.253-1.943,0-1.943S123.893,112.789,125.146,112.789L125.146,112.789z"/>
			</g>
		</g>
		<g>
			<g>
				<path fill="#F49532" d="M125.924,118.878c1.253,0,1.253-1.943,0-1.943C124.671,116.936,124.671,118.878,125.924,118.878
					L125.924,118.878z"/>
			</g>
		</g>
		<g>
			<g>
				<path fill="#F49532" d="M127.867,126.912c1.254,0,1.254-1.943,0-1.943C126.614,124.968,126.614,126.912,127.867,126.912
					L127.867,126.912z"/>
			</g>
		</g>
		<g>
			<g>
				<path fill="#F49532" d="M130.459,132.354c1.254,0,1.254-1.943,0-1.943C129.206,130.411,129.205,132.354,130.459,132.354
					L130.459,132.354z"/>
			</g>
		</g>
		<g>
			<g>
				<path fill="#F49532" d="M137.287,136.605c0.043,0.042,0.086,0.086,0.129,0.129c0.375,0.374,1,0.375,1.374,0
					c0.375-0.375,0.375-1,0-1.375c-0.042-0.043-0.086-0.087-0.129-0.129c-0.375-0.375-1-0.375-1.375,0
					C136.913,135.604,136.913,136.23,137.287,136.605L137.287,136.605z"/>
			</g>
		</g>
		<g>
			<g>
				<path fill="#F49532" d="M133.181,122.118c1.252,0,1.252-1.943,0-1.943C131.926,120.175,131.926,122.118,133.181,122.118
					L133.181,122.118z"/>
			</g>
		</g>
		<g>
			<g>
				<path fill="#F49532" d="M132.662,116.288c1.253,0,1.253-1.944,0-1.944C131.408,114.344,131.408,116.288,132.662,116.288
					L132.662,116.288z"/>
			</g>
		</g>
		<g>
			<g>
				<path fill="#F49532" d="M147.044,119.268c1.253,0,1.253-1.944,0-1.944C145.791,117.324,145.791,119.268,147.044,119.268
					L147.044,119.268z"/>
			</g>
		</g>
		<g>
			<g>
				<path fill="#F49532" d="M141.732,107.736c1.252,0,1.252-1.944,0-1.944C140.479,105.792,140.479,107.736,141.732,107.736
					L141.732,107.736z"/>
			</g>
		</g>
		<g>
			<g>
				<path fill="#F49532" d="M145.489,111.493c1.253,0,1.253-1.943,0-1.943C144.236,109.549,144.236,111.493,145.489,111.493
					L145.489,111.493z"/>
			</g>
		</g>
		<g>
			<g>
				<path fill="#F49532" d="M129.94,103.718c1.253,0,1.253-1.943,0-1.943C128.688,101.775,128.688,103.718,129.94,103.718
					L129.94,103.718z"/>
			</g>
		</g>
		<g>
			<g>
				<path fill="#F49532" d="M212.867,102.683c1.254,0,1.254-1.944,0-1.944C211.613,100.739,211.613,102.683,212.867,102.683
					L212.867,102.683z"/>
			</g>
		</g>
		<g>
			<g>
				<path fill="#F49532" d="M216.365,103.978c1.254,0,1.254-1.943,0-1.943C215.111,102.034,215.111,103.978,216.365,103.978
					L216.365,103.978z"/>
			</g>
		</g>
		<g>
			<g>
				<path fill="#F49532" d="M218.438,101.127c1.253,0,1.253-1.943,0-1.943S217.185,101.127,218.438,101.127L218.438,101.127z"/>
			</g>
		</g>
		<g>
			<g>
				<path fill="#F49532" d="M221.677,97.889c1.254,0,1.254-1.945,0-1.945C220.424,95.944,220.424,97.889,221.677,97.889
					L221.677,97.889z"/>
			</g>
		</g>
		<g>
			<g>
				<path fill="#F49532" d="M226.472,96.203c1.253,0,1.253-1.943,0-1.943S225.218,96.203,226.472,96.203L226.472,96.203z"/>
			</g>
		</g>
		<g>
			<g>
				<path fill="#F49532" d="M130.459,56.814c1.254,0,1.254-1.944,0-1.944C129.206,54.871,129.205,56.814,130.459,56.814
					L130.459,56.814z"/>
			</g>
		</g>
		<g>
			<g>
				<path fill="#F49532" d="M148.469,35.564c1.253,0,1.253-1.944,0-1.944C147.217,33.62,147.217,35.564,148.469,35.564
					L148.469,35.564z"/>
			</g>
		</g>
		<g>
			<g>
				<path fill="#F49532" d="M141.472,35.435c1.254,0,1.254-1.944,0-1.944C140.22,33.491,140.22,35.435,141.472,35.435
					L141.472,35.435z"/>
			</g>
		</g>
		<g>
			<g>
				<path fill="#F49532" d="M131.755,38.544c1.253,0,1.253-1.944,0-1.944C130.501,36.601,130.501,38.544,131.755,38.544
					L131.755,38.544z"/>
			</g>
		</g>
		<g>
			<g>
				<path fill="#F49532" d="M154.171,38.026c1.252,0,1.252-1.944,0-1.944C152.917,36.082,152.917,38.026,154.171,38.026
					L154.171,38.026z"/>
			</g>
		</g>
		<g>
			<g>
				<path fill="#F49532" d="M131.755,126.782c1.253,0,1.253-1.943,0-1.943C130.501,124.839,130.501,126.782,131.755,126.782
					L131.755,126.782z"/>
			</g>
		</g>
		<g>
			<g>
				<path fill="#F49532" d="M133.958,127.56c1.253,0,1.253-1.944,0-1.944C132.705,125.616,132.705,127.56,133.958,127.56
					L133.958,127.56z"/>
			</g>
		</g>
		<g>
			<g>
				<path fill="#F49532" d="M138.233,126.264c1.253,0,1.253-1.944,0-1.944C136.98,124.32,136.98,126.264,138.233,126.264
					L138.233,126.264z"/>
			</g>
		</g>
		<g>
			<g>
				<path fill="#F49532" d="M144.712,126.264c0.014,0.001,0.028,0.004,0.043,0.006c-0.164-0.044-0.327-0.089-0.49-0.133
					c-0.299-0.138-0.383-0.462-0.395-0.715c0.024,0.529,0.424,0.972,0.972,0.972c0.511,0,0.995-0.442,0.972-0.972
					c-0.009-0.205-0.051-0.404-0.165-0.579c-0.08-0.125-0.23-0.305-0.371-0.369c-0.208-0.096-0.34-0.124-0.565-0.154
					c-0.527-0.068-0.972,0.494-0.972,0.972c0,0.257,0.103,0.505,0.285,0.688C144.225,126.18,144.443,126.229,144.712,126.264
					L144.712,126.264z"/>
			</g>
		</g>
	</g>
</g>
</svg>
