<?xml version="1.0" encoding="utf-8"?>
<!-- Generator: Adobe Illustrator 16.0.0, SVG Export Plug-In . SVG Version: 6.00 Build 0)  -->
<!DOCTYPE svg PUBLIC "-//W3C//DTD SVG 1.1//EN" "http://www.w3.org/Graphics/SVG/1.1/DTD/svg11.dtd">
<svg version="1.1" xmlns="http://www.w3.org/2000/svg" xmlns:xlink="http://www.w3.org/1999/xlink" x="0px" y="0px" width="400px"
	 height="300px" viewBox="0 0 400 300" enable-background="new 0 0 400 300" xml:space="preserve">
<g id="Pfeile">
</g>
<g id="Text_Case">
	<path fill="none" stroke="#BFC2C9" stroke-width="3" stroke-linecap="round" stroke-linejoin="round" stroke-miterlimit="10" d="
		M97.136,99.573c-7.894,16.88-14.453,39.61-17.91,70.214"/>
	<path fill="none" stroke="#BFC2C9" stroke-width="3" stroke-linecap="round" stroke-linejoin="round" stroke-miterlimit="10" d="
		M75.973,169.787c0,0-1.003-41.955,21.316-76.143"/>
	
		<path fill="#FFFFFF" stroke="#000000" stroke-width="2" stroke-linecap="round" stroke-linejoin="round" stroke-miterlimit="10" d="
		M62.357,188.302l-12.362,1.636c0,0,7.356-23.701,8.173-38.422c0.817-14.713-8.173-33.511-8.173-33.511l41.274,2.043
		c0,0,7.878,36.917,5.063,55.621"/>
	
		<path fill="#FFFFFF" stroke="#000000" stroke-width="2" stroke-linecap="round" stroke-linejoin="round" stroke-miterlimit="10" d="
		M86.224,237.749H54.447c0,0,13.486-51.897,10.217-67.019c6.539-6.13,34.002-7.73,34.002-7.73s2,10.649,2,13.333"/>
	<path fill="none" stroke="#BFC2C9" stroke-width="3" stroke-linecap="round" stroke-linejoin="round" stroke-miterlimit="10" d="
		M245.715,242.395c0,0-88.9,50.234-143.716-19.621c-7.506,11.846-12.666,27.894-12.666,27.894s-5.48-63.922-5.755-79.334
		c20.479,3.44,62.147,27.227,66.515,30.786C129.333,206.667,115,212,115,212s49.667,42.333,114.463,14.639
		c0,0-71.766,33.482-114.463-17.639c8.321-1.678,36.667-8.427,36.667-8.427S85.21,177.31,81,176.333
		c-0.119,7.735,8.647,60.358,10.333,73.334c3.151-11.365,10.333-25.334,10.333-25.334s29.548,66.459,144.048,21"/>
	
		<path fill="#FFFFFF" stroke="#000000" stroke-width="2" stroke-linecap="round" stroke-linejoin="round" stroke-miterlimit="10" d="
		M271.033,233.142c0,0-17.047,41.067-48.815,47.654c-14.723-5.037-31.604-21.309-31.604-21.309s49.424-20.147,50.974-28.283
		C252.049,231.592,271.033,233.142,271.033,233.142"/>
	<path fill="none" stroke="#BFC2C9" stroke-width="3" stroke-linecap="round" stroke-linejoin="round" stroke-miterlimit="10" d="
		M222.852,54.333c0,0,90.384,53.405,56.148,135.333c14.002,0.775,28.789-0.667,28.789-0.667s-44.37,33.365-57.789,37.667
		c-2.779-26.698-10.083-65.904-7.667-69.667c10.812,11.546,19.898,25.477,19.898,25.477S277.333,121,222.852,77.451
		c0,0,65.343,45.081,34.148,107.216C251.477,178.22,239,157,239,157s7.466,71.848,8.667,76c9.333-4.333,53.429-35.055,62.333-45.667
		c-11.458,2.795-26.667,0-26.667,0s33-55.667-56.414-129.019"/>
	
		<path fill="#FFFFFF" stroke="#000000" stroke-width="2" stroke-linecap="round" stroke-linejoin="round" stroke-miterlimit="10" d="
		M217.714,80.936c0,0,42.873-2.532,61.754,9.711c5.371-12.243,10.437-37.151,10.437-37.151s-16.881-5.947-23.005-8.04"/>
	
		<path fill="#FFFFFF" stroke="#000000" stroke-width="2" stroke-linecap="round" stroke-linejoin="round" stroke-miterlimit="10" d="
		M194.453,49.035c0,0-1.48-6.835-1.48-9.489c17.144-5.088,72.082-7.564,72.082-7.564s5.064,38.839,0,44.75
		c-21.11-6.333-67.125,10.555-67.125,10.555s-2.345-11.186-2.956-16.887"/>
	<path fill="none" stroke="#BFC2C9" stroke-width="3" stroke-linecap="round" stroke-linejoin="round" stroke-miterlimit="10" d="
		M87.226,112.897c10.843-26.274,32.1-53.286,73.746-60.646c-9.305-8.585-20.51-19.718-20.51-19.718s51.032,17.931,65.231,25.781
		c-9.775,15.281-49.553,48.019-54.027,48.019c9.696-20.256,15.437-29.766,15.437-29.766S103.374,90.902,101.667,163
		c0,0-3.701-79.112,65.437-86.433c-2.44,8.134-13.437,32.099-13.437,32.099s54.744-48.387,57.59-51.64
		c-1.19-1.693-60.858-27.956-73.873-27.55c8.541,8.134,19.133,21.467,19.133,21.467s-39.216-2.208-62.71,56.312"/>
</g>
<g id="Sparcles">
	<g>
		<g>
			<path fill="#F5952F" d="M152,62.5c3.224,0,3.224-5,0-5S148.776,62.5,152,62.5L152,62.5z"/>
		</g>
	</g>
	<g>
		<g>
			<path fill="#F5952F" d="M113,68.833c3.224,0,3.224-5,0-5S109.776,68.833,113,68.833L113,68.833z"/>
		</g>
	</g>
	<g>
		<g>
			<path fill="#F5952F" d="M151.667,50.5c3.224,0,3.224-5,0-5S148.442,50.5,151.667,50.5L151.667,50.5z"/>
		</g>
	</g>
	<g>
		<g>
			<path fill="#F5952F" d="M166.333,36.167c3.224,0,3.224-5,0-5S163.109,36.167,166.333,36.167L166.333,36.167z"/>
		</g>
	</g>
	<g>
		<g>
			<path fill="#F5952F" d="M193,56.833c3.224,0,3.224-5,0-5S189.776,56.833,193,56.833L193,56.833z"/>
		</g>
	</g>
	<g>
		<g>
			<path fill="#F5952F" d="M241.333,86.5c3.225,0,3.225-5,0-5S238.108,86.5,241.333,86.5L241.333,86.5z"/>
		</g>
	</g>
	<g>
		<g>
			<path fill="#F5952F" d="M164.667,96.5c3.224,0,3.224-5,0-5S161.442,96.5,164.667,96.5L164.667,96.5z"/>
		</g>
	</g>
	<g>
		<g>
			<path fill="#F5952F" d="M257,191.5c3.225,0,3.225-5,0-5S253.775,191.5,257,191.5L257,191.5z"/>
		</g>
	</g>
	<g>
		<g>
			<path fill="#F5952F" d="M253.667,181.833c3.225,0,3.225-5,0-5S250.442,181.833,253.667,181.833L253.667,181.833z"/>
		</g>
	</g>
	<g>
		<g>
			<path fill="#F5952F" d="M242.333,229.167c3.225,0,3.225-5,0-5S239.108,229.167,242.333,229.167L242.333,229.167z"/>
		</g>
	</g>
	<g>
		<g>
			<path fill="#F5952F" d="M244.667,218.833c3.225,0,3.225-5,0-5S241.442,218.833,244.667,218.833L244.667,218.833z"/>
		</g>
	</g>
	<g>
		<g>
			<path fill="#F5952F" d="M236.333,200.833c3.225,0,3.225-5,0-5S233.108,200.833,236.333,200.833L236.333,200.833z"/>
		</g>
	</g>
	<g>
		<g>
			<path fill="#F5952F" d="M283.333,220.5c3.225,0,3.225-5,0-5S280.108,220.5,283.333,220.5L283.333,220.5z"/>
		</g>
	</g>
	<g>
		<g>
			<path fill="#F5952F" d="M270.333,223.167c3.225,0,3.225-5,0-5S267.108,223.167,270.333,223.167L270.333,223.167z"/>
		</g>
	</g>
	<g>
		<g>
			<path fill="#F5952F" d="M258.667,226.833c3.225,0,3.225-5,0-5S255.442,226.833,258.667,226.833L258.667,226.833z"/>
		</g>
	</g>
	<g>
		<g>
			<path fill="#F5952F" d="M294,178.833c0.111,0,0.222,0,0.333,0c1.362,0,2.5-1.138,2.5-2.5s-1.138-2.5-2.5-2.5
				c-0.111,0-0.222,0-0.333,0c-1.363,0-2.5,1.138-2.5,2.5S292.637,178.833,294,178.833L294,178.833z"/>
		</g>
	</g>
	<g>
		<g>
			<path fill="#F5952F" d="M299.667,172.167c3.225,0,3.225-5,0-5S296.442,172.167,299.667,172.167L299.667,172.167z"/>
		</g>
	</g>
	<g>
		<g>
			<path fill="#F5952F" d="M305,159.5c3.225,0,3.225-5,0-5S301.775,159.5,305,159.5L305,159.5z"/>
		</g>
	</g>
	<g>
		<g>
			<path fill="#F5952F" d="M304,147.167c3.225,0,3.225-5,0-5S300.775,147.167,304,147.167L304,147.167z"/>
		</g>
	</g>
	<g>
		<g>
			<path fill="#F5952F" d="M297,130.833c3.225,0,3.225-5,0-5S293.775,130.833,297,130.833L297,130.833z"/>
		</g>
	</g>
	<g>
		<g>
			<path fill="#F5952F" d="M137,50.5c3.224,0,3.224-5,0-5S133.776,50.5,137,50.5L137,50.5z"/>
		</g>
	</g>
	<g>
		<g>
			<path fill="#F5952F" d="M135.667,57.833c3.224,0,3.224-5,0-5S132.442,57.833,135.667,57.833L135.667,57.833z"/>
		</g>
	</g>
	<g>
		<g>
			<path fill="#F5952F" d="M127.167,68.667c-0.013,0.482,0.087,0.159,0.3-0.97c0.299-0.299,0.598-0.598,0.897-0.896
				c1.129-0.212,1.453-0.312,0.97-0.3c-1.363,0.008-2.5,1.131-2.5,2.5c0,1.356,1.137,2.508,2.5,2.5
				c1.657-0.01,2.823-1.177,2.833-2.833c0.008-1.363-1.143-2.5-2.5-2.5C128.298,66.167,127.174,67.304,127.167,68.667
				L127.167,68.667z"/>
		</g>
	</g>
	<g>
		<g>
			<path fill="#F5952F" d="M115,82.167c3.224,0,3.224-5,0-5S111.776,82.167,115,82.167L115,82.167z"/>
		</g>
	</g>
	<g>
		<g>
			<path fill="#F5952F" d="M79,222.167c3.224,0,3.224-5,0-5S75.776,222.167,79,222.167L79,222.167z"/>
		</g>
	</g>
	<g>
		<g>
			<path fill="#F5952F" d="M81,237.833c3.224,0,3.224-5,0-5S77.776,237.833,81,237.833L81,237.833z"/>
		</g>
	</g>
	<g>
		<g>
			<path fill="#F5952F" d="M86,258.5c3.224,0,3.224-5,0-5S82.776,258.5,86,258.5L86,258.5z"/>
		</g>
	</g>
	<g>
		<g>
			<path fill="#F5952F" d="M92.667,272.5c3.224,0,3.224-5,0-5S89.442,272.5,92.667,272.5L92.667,272.5z"/>
		</g>
	</g>
	<g>
		<g>
			<path fill="#F5952F" d="M110.232,283.435c0.111,0.111,0.222,0.223,0.333,0.333c0.964,0.963,2.572,0.964,3.535,0
				c0.963-0.963,0.964-2.573,0-3.535c-0.111-0.111-0.222-0.223-0.333-0.333c-0.964-0.963-2.572-0.964-3.535,0
				C109.27,280.862,109.269,282.473,110.232,283.435L110.232,283.435z"/>
		</g>
	</g>
	<g>
		<g>
			<path fill="#F5952F" d="M99.667,246.167c3.224,0,3.224-5,0-5S96.442,246.167,99.667,246.167L99.667,246.167z"/>
		</g>
	</g>
	<g>
		<g>
			<path fill="#F5952F" d="M98.333,231.167c3.224,0,3.224-5,0-5S95.109,231.167,98.333,231.167L98.333,231.167z"/>
		</g>
	</g>
	<g>
		<g>
			<path fill="#F5952F" d="M135.333,238.833c3.224,0,3.224-5,0-5S132.109,238.833,135.333,238.833L135.333,238.833z"/>
		</g>
	</g>
	<g>
		<g>
			<path fill="#F5952F" d="M121.667,209.167c3.224,0,3.224-5,0-5S118.442,209.167,121.667,209.167L121.667,209.167z"/>
		</g>
	</g>
	<g>
		<g>
			<path fill="#F5952F" d="M131.333,218.833c3.224,0,3.224-5,0-5S128.109,218.833,131.333,218.833L131.333,218.833z"/>
		</g>
	</g>
	<g>
		<g>
			<path fill="#F5952F" d="M91.333,198.833c3.224,0,3.224-5,0-5S88.109,198.833,91.333,198.833L91.333,198.833z"/>
		</g>
	</g>
	<g>
		<g>
			<path fill="#F5952F" d="M304.667,196.167c3.225,0,3.225-5,0-5S301.442,196.167,304.667,196.167L304.667,196.167z"/>
		</g>
	</g>
	<g>
		<g>
			<path fill="#F5952F" d="M313.667,199.5c3.225,0,3.225-5,0-5S310.442,199.5,313.667,199.5L313.667,199.5z"/>
		</g>
	</g>
	<g>
		<g>
			<path fill="#F5952F" d="M319,192.167c3.225,0,3.225-5,0-5S315.775,192.167,319,192.167L319,192.167z"/>
		</g>
	</g>
	<g>
		<g>
			<path fill="#F5952F" d="M327.333,183.833c3.225,0,3.225-5,0-5S324.108,183.833,327.333,183.833L327.333,183.833z"/>
		</g>
	</g>
	<g>
		<g>
			<path fill="#F5952F" d="M339.667,179.5c3.225,0,3.225-5,0-5S336.442,179.5,339.667,179.5L339.667,179.5z"/>
		</g>
	</g>
	<g>
		<g>
			<path fill="#F5952F" d="M92.667,78.167c3.224,0,3.224-5,0-5S89.442,78.167,92.667,78.167L92.667,78.167z"/>
		</g>
	</g>
	<g>
		<g>
			<path fill="#F5952F" d="M139,23.5c3.224,0,3.224-5,0-5S135.776,23.5,139,23.5L139,23.5z"/>
		</g>
	</g>
	<g>
		<g>
			<path fill="#F5952F" d="M121,23.167c3.224,0,3.224-5,0-5S117.776,23.167,121,23.167L121,23.167z"/>
		</g>
	</g>
	<g>
		<g>
			<path fill="#F5952F" d="M96,31.167c3.224,0,3.224-5,0-5S92.776,31.167,96,31.167L96,31.167z"/>
		</g>
	</g>
	<g>
		<g>
			<path fill="#F5952F" d="M153.667,29.833c3.224,0,3.224-5,0-5S150.442,29.833,153.667,29.833L153.667,29.833z"/>
		</g>
	</g>
	<g>
		<g>
			<path fill="#F5952F" d="M96,258.167c3.224,0,3.224-5,0-5S92.776,258.167,96,258.167L96,258.167z"/>
		</g>
	</g>
	<g>
		<g>
			<path fill="#F5952F" d="M101.667,260.167c3.224,0,3.224-5,0-5S98.442,260.167,101.667,260.167L101.667,260.167z"/>
		</g>
	</g>
	<g>
		<g>
			<path fill="#F5952F" d="M112.667,256.833c3.224,0,3.224-5,0-5S109.442,256.833,112.667,256.833L112.667,256.833z"/>
		</g>
	</g>
	<g>
		<g>
			<path fill="#F5952F" d="M129.333,256.833c0.037,0.005,0.073,0.01,0.11,0.015c-0.42-0.114-0.841-0.228-1.262-0.342
				c-0.771-0.354-0.985-1.187-1.015-1.839c0.062,1.361,1.09,2.5,2.5,2.5c1.316,0,2.562-1.138,2.5-2.5
				c-0.024-0.526-0.131-1.04-0.423-1.49c-0.208-0.321-0.593-0.784-0.956-0.95c-0.533-0.244-0.875-0.318-1.454-0.394
				c-1.355-0.177-2.5,1.271-2.5,2.5c0,0.66,0.266,1.301,0.732,1.768C128.081,256.616,128.641,256.742,129.333,256.833
				L129.333,256.833z"/>
		</g>
	</g>
</g>
</svg>
