<?xml version="1.0" encoding="utf-8"?>
<!-- Generator: Adobe Illustrator 16.0.0, SVG Export Plug-In . SVG Version: 6.00 Build 0)  -->
<!DOCTYPE svg PUBLIC "-//W3C//DTD SVG 1.1//EN" "http://www.w3.org/Graphics/SVG/1.1/DTD/svg11.dtd">
<svg version="1.1" xmlns="http://www.w3.org/2000/svg" xmlns:xlink="http://www.w3.org/1999/xlink" x="0px" y="0px" width="400px"
	 height="300px" viewBox="0 0 400 300" enable-background="new 0 0 400 300" xml:space="preserve">
<g id="welt">
	<g>
		<path fill="#F3F2F1" d="M16.666,85.334c0,0,56.001-35.667,175.667-32.334s202,31.333,202,31.333s-7.667,3.667-8.333,12
			s-2,11.667-5,15s2.25,13.833,1.125,16.417s-17.791,4.25-16.791,9.917s4,3.667,6,6.333s8.332,5.667,10.666,7.667s6.666,8.334-2,10
			S345.333,169,333,172s-29.584,6.167-29.625,8.75C307.667,185,315.5,191.375,314,193.875s0.75,2.625,4.875,6.375
			c0,0,3.459,11.417,8.459,15.417s21.333,20.332,7.333,23.666s-14.667,5.668-15,9.334s-6.333,17.334-8.333,19s-7-3.334-7,4.333
			s0,14.667-4.667,15.667s-37-1-41,1S235,277.333,229,272.333s-16.332-5.332-23.666-6.666C198,264.333,190.667,258,192.667,254
			s0,0,0,0s3-7.666-2.667-7.333s-31.668-1-34.334-3s-2.999-8.333-8.666-10s-37-2.001-39.667-7.334s1-5.667,3-9
			s-1.167-5.332,4.833-12.666c-4.833-5-7.5-9-11.417-10.417s-11.583,0.251-10.25-3.583s4.667,0.5,3.25-5.417
			c-5.917-0.083-9.75,1.751-13.25-2.083s-6-7.834-13.833-7.667s-14,1.333-12.667-2.667s13.333-7.832,19-12.166s7.5-8.167,17-11.5
			c3.5-1.333,6.667-1.167,4.167-5l0,0c0,0-3.833-1.333-4.833-3.667s-1.667-4.833-1.667-4.833s-1-2.667-8.167-3.167
			S58.666,132,58.666,132s-16.333,1.833-17.833,0s-3.667-4-8.667-4.667s-19.167,2-28.333,7.5c-1.833,0.833-2.167-0.5-0.5-6.167
			s1.5-9.5,0.167-14S9.166,105.5,9.833,102.5S11.5,93.667,13,90.167S16.666,85.334,16.666,85.334"/>
	</g>
	<g>
		<path fill="#009BA4" d="M9.667,89.333c-0.384,0-0.748-0.222-0.913-0.591c-0.214-0.479-0.022-1.042,0.439-1.29
			c32.66-17.551,73.26-28.682,120.672-33.083c26.747-2.483,55.7-2.841,86.437-1.081c57.054,1.563,117.389,10.725,180.287,27.412
			c0.533,0.142,0.852,0.689,0.71,1.223c-0.142,0.534-0.688,0.854-1.224,0.71c-31.537-8.367-62.436-14.838-92.591-19.402
			c53.327,8.897,90.661,20.003,91.135,20.146c0.529,0.159,0.829,0.716,0.671,1.245c-0.158,0.528-0.715,0.83-1.245,0.67
			c-0.604-0.181-61.337-18.245-138.69-26.717c-13.336-1.461-26.393-2.557-39.14-3.287c-26.662-0.729-52.592,0.204-77.727,2.81
			C75.083,64.671,34.728,79.941,15.334,87.28c-2.039,0.771-3.814,1.443-5.326,1.993C9.896,89.313,9.78,89.333,9.667,89.333z
			 M153.034,54.775c-7.837,0.361-15.505,0.89-23.002,1.586c-38.016,3.531-71.606,11.402-100.19,23.456
			c22.449-7.877,58.253-18.507,108.441-23.711C143.168,55.6,148.089,55.156,153.034,54.775z"/>
	</g>
	<g>
		<path fill="#009BA4" d="M140.903,145.637c-1.022,0-1.858-0.235-2.219-0.355c-0.33-0.11-0.728-0.294-1.278-0.55
			c-1.333-0.618-3.424-1.587-6.322-2.289c-5.087-0.098-11.707,0.045-17.778,0.478c-6.083,1.341-10.689,2.033-14.113,2.091
			c-0.008,0.002-0.016,0.005-0.024,0.008c-0.043,0.015-0.087,0.026-0.132,0.035c-0.439,0.083-0.813,0.165-1.11,0.245
			c-0.209,0.056-0.43,0.043-0.63-0.037c-0.242-0.097-0.471-0.214-0.688-0.349c-1.722-0.181-3.026-0.603-3.983-1.261
			c-1.099-0.756-1.754-1.825-1.947-3.177c-0.208-1.454-0.537-3.205-1.194-4.873c-0.479-0.395-1.008-0.748-1.597-1.042
			c-3.211-1.606-14.548-1.381-23.658-1.2c-3.22,0.064-6.334,0.121-9.04,0.116c-7.571,0.724-13.713,0.455-15.623-1.837
			c-1.425-1.709-4.148-2.998-8.246-3.28c-5.742,1.162-12.887,3.544-17.948,5.569c-0.513,0.204-1.094-0.045-1.3-0.557
			c-0.206-0.513,0.044-1.095,0.557-1.3c0.569-0.227,2.173-0.859,4.362-1.641c-3.279,0.983-6.914,2.342-10.912,4.147
			c-0.504,0.228-1.096,0.004-1.323-0.5c-0.227-0.503-0.003-1.096,0.5-1.323c11.284-5.097,19.854-6.762,25.946-6.403
			c4.542-0.865,8.618-1.016,10.45,0.555c1.733,1.486,2.297,2.494,2.669,3.161c0.42,0.752,0.485,0.868,6.084,1.268
			c1.287,0.092,2.853,0.132,4.606,0.141c5.687-0.556,12.86-1.717,21.117-3.455c4.646-0.979,8.409-0.49,11.185,1.455
			c1.84,1.288,3.04,3.062,3.843,4.928c1.74,1.574,2.867,3.55,3.825,5.232c0.795,1.396,1.505,2.641,2.349,3.336
			c0.483,0.035,1,0.049,1.526,0.046c3.253-1.022,8.541-1.693,14.225-2.096c0.35-0.078,0.694-0.155,1.032-0.232
			c7.397-1.682,13.12-1.225,17.293-0.234c1.997,0.04,3.712,0.113,5.005,0.212c1.529,0.118,2.874,0.271,4.06,0.407
			c1.514,0.173,2.793,0.322,3.751,0.302c0.214-0.523,0.366-1.136,0.454-1.835c0.196-1.568,0.753-2.7,1.524-3.545
			c-0.029-3.459,2.046-4.056,6.195-5.25c1.941-0.558,4.356-1.253,7.505-2.434c0.095-0.036,0.19-0.071,0.283-0.107
			c0.92-0.863,1.879-1.799,2.855-2.752c2.584-2.523,5.256-5.132,8.021-7.249c5.753-4.237,23.988-6.257,32.751-7.228
			c1.515-0.168,2.953-0.327,3.408-0.408c1.617-1.094,2.689-2.1,3.729-3.074c3.845-3.604,6.622-6.208,29.722-8.117
			c29.771-2.46,55.729-11.889,55.987-11.984c0.521-0.19,1.09,0.074,1.281,0.589c0.192,0.516-0.067,1.089-0.582,1.285
			c-0.193,0.073-19.515,7.388-31.421,10.695c-5.049,1.402-12.796,2.092-20.998,2.822c-11.383,1.014-23.153,2.061-28.036,5.066
			c-0.312,0.192-0.63,0.381-0.953,0.572c-1.905,1.13-3.875,2.298-5.903,4.936c-0.135,0.175-0.323,0.3-0.536,0.356
			c-5.238,1.391-11.812,2.299-17.612,3.1c-5.56,0.768-10.811,1.493-13.19,2.445c-2.753,1.101-4.431,2.475-6.375,4.066
			c-2.502,2.049-5.327,4.362-11.062,6.603c-1.904,1.772-3.621,3.196-5.154,3.963c-1.263,0.631-2.604,1.002-3.901,1.362
			c-1.702,0.471-3.028,0.875-3.963,1.562c0.291,2.955-0.001,4.565-1.005,5.556c-0.472,0.465-1.053,0.737-1.754,0.877
			c-0.423,0.64-0.95,1.16-1.58,1.556C142.898,145.446,141.825,145.637,140.903,145.637z M138.042,142.822
			c0.07,0.033,0.139,0.064,0.205,0.095c0.455,0.21,0.847,0.393,1.07,0.467c0.883,0.295,2.14,0.405,3.189-0.084
			c-0.69-0.058-1.443-0.144-2.263-0.238C139.562,142.985,138.83,142.901,138.042,142.822z M92.536,139.407
			c0.044,0.269,0.084,0.531,0.12,0.784c0.114,0.798,0.464,1.374,1.102,1.812c0.138,0.095,0.289,0.183,0.451,0.263
			c-0.329-0.523-0.645-1.078-0.966-1.641C93.014,140.227,92.781,139.817,92.536,139.407z M155.651,131.871
			c-1.021,0.314-1.923,0.574-2.704,0.798c-2.403,0.691-3.649,1.067-4.255,1.636c0.962-0.417,1.996-0.703,2.987-0.978
			c1.205-0.333,2.451-0.679,3.54-1.223C155.36,132.035,155.504,131.957,155.651,131.871z M73.929,131.23
			c5.676,0,10.676,0.218,13.563,1.056c-0.392-0.431-0.832-0.826-1.327-1.172c-2.305-1.613-5.542-1.995-9.626-1.136
			c-2.083,0.438-4.236,0.871-6.41,1.279C71.417,131.24,72.69,131.23,73.929,131.23z M37.284,127.652
			c1.652,0.698,2.92,1.63,3.817,2.708c0.313,0.376,0.854,0.68,1.606,0.914c-0.044-0.073-0.088-0.15-0.133-0.23
			c-0.322-0.576-0.763-1.364-2.226-2.618C39.747,127.909,38.678,127.672,37.284,127.652z M203.189,113.059
			c-8.32,0.925-25.804,2.971-30.93,6.746c-2.188,1.675-4.358,3.713-6.477,5.767c2.248-1.308,3.821-2.596,5.28-3.791
			c1.985-1.625,3.859-3.161,6.898-4.376c2.607-1.043,7.729-1.75,13.66-2.57C195.351,114.32,199.404,113.76,203.189,113.059z
			 M267.641,97.392c-4.842,1.011-10.08,1.957-15.561,2.722c5.256-0.529,9.952-1.143,13.318-2.078
			C266.12,97.835,266.869,97.62,267.641,97.392z"/>
	</g>
	<g>
		<path fill="#009BA4" d="M116.25,206c-0.134,0-0.269-0.027-0.394-0.081c-0.149-0.063-3.676-1.588-6.021-3.672
			c-0.936-0.831-1.715-2.124-2.468-3.374c-0.264-0.438-0.53-0.88-0.8-1.297c-1.542-0.726-3.247-1.199-4.921-1.664
			c-1.095-0.304-2.211-0.613-3.279-0.995c-2.924-0.447-5.87-1.361-6.107-3.025c-0.177-1.236,0.95-2.396,2.254-3.738
			c0.188-0.194,0.429-0.442,0.671-0.702c-1.13-0.292-2.729-0.554-3.855-0.737c-1.035-0.17-2.098-0.344-3.086-0.555
			c-3.104,0.064-5.847-0.276-6.875-2.186c-1.586-2.945-6.79-6.224-9.12-6.224c-0.525,0-1.48,0.112-2.585,0.243
			c-4.846,0.572-12.171,1.437-13.839-2.612c-0.503-1.222-0.14-2.342,0.831-3.435c0.704-2.448,4.263-4.896,7.756-6.52
			c8.231-3.829,13.306-7.181,15.971-10.548c1.385-1.749,4.176-3.166,7.158-4.364c1.529-0.827,3.096-1.412,4.878-1.791
			c1.845-0.647,4.067-1.433,4.446-1.818c0.373-0.565-0.186-1.07-0.445-1.259c-0.443-0.323-0.548-0.946-0.229-1.392
			c0.318-0.446,0.934-0.556,1.383-0.241c0.097,0.068,0.195,0.145,0.291,0.23c-0.056-0.32,0.046-0.662,0.3-0.901
			c0.402-0.377,1.036-0.359,1.414,0.043c0.228,0.242,2.206,2.428,1.406,4.468c-0.557,1.42-2.165,2.204-4.915,2.393
			c-1.129,0.078-2.153,0.209-3.109,0.406c-0.007,0.002-0.015,0.005-0.022,0.008c-1.405,0.493-2.997,1.05-4.54,1.667
			c-2.793,1.534-5.559,4.023-9.715,7.903c-3.347,3.124-8.166,5.676-12.417,7.927c-2.961,1.568-6.192,3.28-7.732,4.707
			c0.002,0.022,0.005,0.046,0.009,0.068c0.129,0.686,1.56,1.502,5.188,1.735c2.426,0.156,4.372,0.23,5.935,0.29
			c5.166,0.196,6.906,0.263,9.967,2.767c1.24,1.015,2.184,1.973,3.017,2.818c1.648,1.673,2.838,2.881,5.259,3.486
			c0.163,0.04,0.331,0.08,0.503,0.118c1.001-0.02,2.005-0.076,2.877-0.126c2.986-0.172,4.869-0.246,5.946,0.354
			c0.721,0.4,0.942,0.959,1.001,1.357c0.054,0.366-0.008,0.729-0.154,1.093c0.025,0.032,0.05,0.064,0.073,0.097
			c0.3,0.419,0.415,0.906,0.331,1.408c-0.188,1.124-1.128,1.821-1.884,2.382c-0.243,0.18-0.59,0.438-0.74,0.606
			c0.106,0.127,0.392,0.396,1.127,0.809c0.595,0.333,1.243,0.613,1.93,0.863c1.662,0.249,3.437,0.368,4.748,0.263
			c1.834-0.163,3.152,1.158,4.254,2.751c1.28,0.657,2.471,1.503,3.496,2.668c1.967,2.234,4.104,3.018,5.518,3.535
			c0.635,0.233,1.357,0.497,1.81,0.934c3.431-1.126,9.238-3.078,12.877-4.567c3.131-1.281,13.198-0.391,27.077,1.006
			c4.199,0.423,8.279,0.833,11.562,1.075c0.485-0.042,0.938-0.091,1.357-0.146c1.612-0.215,5.182-0.69,6.223-1.399
			c-0.295-0.538-0.713-1.146-1.021-1.593c-1.031-1.495-2.097-3.041-1.483-4.423c0.766-1.725,2.646-1.554,4.467-1.394
			c1.742,0.155,3.718,0.333,5.392-0.782c1.641-1.094,3.492-1.535,5.215-1.768c0.084-0.031,0.17-0.062,0.257-0.094
			c1.183-0.417,2.186-0.65,2.991-0.838c1.895-0.441,2.453-0.571,2.75-2.181c-0.01-0.104-0.02-0.209-0.03-0.312
			c-0.15-1.554-0.321-3.313,0.745-4.6c0.652-0.787,1.673-1.249,3.036-1.373l1.36-0.122c2.908-0.258,7.473-0.664,11.657-1.248
			c4.454-1.536,9.18-3.614,9.846-4.605c0.43-2.523,5.319-5.778,7.978-5.778c0.769-0.101,4.649-2.336,8.403-4.497
			c7.368-4.244,17.46-10.056,23.622-11.478c3.177-0.733,6.291-1.788,9.077-3.011c3.987-2.663,7.796-5.948,9.282-8.515
			c1.764-3.047,4.562-3.216,7.269-3.379c0.96-0.058,1.935-0.117,2.886-0.307c-1.264-0.557-2.118-0.837-2.796-1.059
			c-1.732-0.568-2.436-0.876-4.476-3.073c-2.315-2.494-7.479-3.064-15.347-1.695c-0.224,0.039-0.461,0.072-0.708,0.1
			c-1.849,0.386-3.69,0.665-5.463,0.665c-3.51,0-6.983-0.795-10.214-2.286c-2.658-0.592-4.708-1.21-5.341-1.632
			c-0.301-0.201-0.757-0.554-1.328-1c-2.227-1.735-6.371-4.966-9.728-5.338c-4.537-0.504-19.179-4.851-19.8-5.036l-6.693-2.523
			c-0.485-0.183-0.75-0.708-0.609-1.207c0.142-0.5,0.642-0.81,1.151-0.71c0.059,0.011,6.021,1.165,12.514,3.412
			c2.29,0.792,5.116,0.981,8.109,1.181c5.255,0.351,10.688,0.714,13.945,4.485c2.416,2.797,5.301,4.988,8.431,6.466
			c4.487,0.974,10.938,1.952,14.688,1.55c1.192-0.25,2.396-0.548,3.583-0.841c4.854-1.199,9.437-2.332,12.399-0.065
			c4.892,3.74,10.354,7,11.396,7.044c0.419,0.018,0.802,0.296,0.929,0.695c0.128,0.399,0.013,0.836-0.318,1.094
			c-0.697,0.542-1.416,0.933-2.144,1.22c-0.949,0.596-2.362,0.692-3.832,0.792c-2.807,0.191-4.684,0.448-5.175,2.217
			c-0.953,3.432-5.811,6.914-11.669,9.508c-3.361,2.229-6.823,4.019-9.282,4.689c-2.221,0.605-6.655,3.106-11.35,5.755
			c-6.816,3.845-13.865,7.819-17.799,8.273c-6.76,0.602-7.764,2.866-8.735,5.057c-0.597,1.345-1.213,2.735-2.932,3.595
			c-1.919,0.959-5.485,1.677-9.68,2.251c-3.403,1.104-6.484,1.854-7.518,1.854c-4.221,0-6.907,0.564-7.258,3.374
			c-0.021,0.167-0.044,0.328-0.07,0.482c0.119,1.422,0.107,2.909-1.117,3.726c-1.195,0.797-2.875,0.942-4.654,1.098
			c-0.565,0.049-1.151,0.1-1.742,0.173c-1.343,0.537-2.333,1.24-3.293,1.923c-1.656,1.176-3.371,2.393-6.421,2.223
			c-0.575-0.031-1.5-0.092-2.108-0.071c0.034,0.081,0.069,0.162,0.102,0.239c0.149,0.347,0.325,0.757,0.501,1.242
			c0.297,0.818,0.578,1.733,0.374,2.59c0.172,0.593,0.189,1.176-0.047,1.739c-0.382,0.909-1.313,1.481-2.846,1.748
			c-1.275,0.221-3.717,0.154-6.89-0.074c-9.766,0.817-29.753-0.95-32.122-1.165c-5.324-0.487-8.931,0.658-13.109,1.979
			c-1.932,0.611-3.926,1.241-6.199,1.735c-1.38,0.45-2.27,0.732-2.299,0.742C116.454,205.984,116.352,206,116.25,206z M58.53,175.59
			c0.604,0.387,1.442,0.622,2.406,0.753C59.976,176.158,59.174,175.907,58.53,175.59z M257.498,156.114
			c-5.44,2.409-11.944,6.154-17.097,9.121c-0.448,0.259-0.876,0.505-1.284,0.739c3.612-1.59,8.146-4.146,12.312-6.497
			C253.615,158.245,255.671,157.086,257.498,156.114z M98.903,145.895c0.128,0.502,0.119,1.057-0.119,1.628
			c0.167-0.122,0.281-0.255,0.337-0.398C99.252,146.791,99.122,146.331,98.903,145.895z M232.289,118.719
			c1.682,0.391,3.126,0.682,4.071,0.787c2.315,0.257,4.811,1.569,6.957,2.983c-0.025-0.028-0.05-0.057-0.074-0.085
			C240.832,119.612,236.604,119.039,232.289,118.719z"/>
	</g>
	<g>
		<path fill="#009BA4" d="M348.125,153.125c-0.263,0-0.525-0.104-0.722-0.308c-0.579-0.604-1.383-1.182-2.362-1.733
			c0.254,0.183,0.376,0.296,0.398,0.316c0.4,0.382,0.416,1.015,0.035,1.414c-0.38,0.396-1.007,0.415-1.406,0.043
			c-0.064-0.058-2.757-2.369-12.005-4.125c-9.956-1.891-25.431-6.67-29.284-8.725c-3.395-1.81-7.263-2.677-7.692-2.77
			c-0.024-0.005-0.039-0.008-0.042-0.009c-0.54-0.113-0.886-0.642-0.774-1.182c0.112-0.539,0.642-0.889,1.181-0.776
			c0.016,0.003,0.058,0.012,0.125,0.027c1.017,0.219,8.238,1.813,14.521,4.14c2.088,0.774,6.165,1.632,10.885,2.626
			c10.538,2.219,23.653,4.98,27.864,9.37c0.382,0.398,0.369,1.032-0.029,1.414C348.623,153.032,348.374,153.125,348.125,153.125z
			 M322.266,144.377c3.609,0.967,7.181,1.822,10.171,2.39c0.463,0.088,0.91,0.177,1.342,0.268
			C329.985,146.034,325.938,145.154,322.266,144.377z"/>
	</g>
	<g>
		<path fill="#009BA4" d="M325.25,213.875c-0.1,0-0.201-0.015-0.301-0.047c-3.201-1.01-4.047-5.028-4.727-8.258
			c-0.389-1.844-0.872-4.14-1.628-4.36c-1.149-0.335-2.289-0.981-3.249-1.797c-2.028-0.996-3.304-1.718-3.74-2.591
			c-0.735-1.471,0.526-2.336,1.133-2.752c0.061-0.042,0.12-0.083,0.178-0.123c0.044-0.163,0.101-0.323,0.17-0.479
			c0.019-0.938-3.477-4.396-5.565-6.463c-1.258-1.244-2.428-2.402-3.338-3.421c-2.806-2.29-3.726-3.398-3.216-4.504
			c2.261-4.897,19.207-7.497,41.373-10.291c3.647-0.809,7.627-1.677,11.968-2.609c1.793-0.386,3.054-0.657,3.595-0.78
			c0.694-0.159,1.763-0.384,3.073-0.659c13.151-2.767,20.217-4.761,21.001-5.927c0.01-0.026,0.108-0.322-0.227-1.104
			c-1.215-2.839-5.906-7.139-7.333-7.642c-1.247-0.44-1.814-1.152-2.601-2.138c-0.861-1.08-2.163-2.712-5.322-5.279
			c-1.867-1.517-2.695-3.162-2.461-4.888c0.467-3.442,5.097-5.817,7.066-6.679c0.676-0.296,1.884-0.689,3.282-1.145
			c2.069-0.674,6.375-2.077,6.937-2.78c0.311-0.427,0.062-1.458-0.346-2.619c-0.558-0.815-1.26-1.643-1.861-2.354
			c-0.483-0.571-0.939-1.109-1.295-1.598c-2.386-3.28-1.043-8.518,3.341-13.035c2.144-2.209,3.092-4.462,3.512-6
			c0.197-0.973,0.313-1.722,0.332-1.963c0.021-0.535,0.461-0.963,0.999-0.963c0.001,0,0.003,0,0.004,0
			c0.547,0.002,0.989,0.44,0.996,0.985v0c0,0.001,0,0.002,0,0.003v0c-0.001,0.001-0.001,0.002,0,0.004c0,0,0,0.001,0,0.001
			c0,0.001,0,0.002,0,0.003c0,0.087-0.01,1.068-0.414,2.527c-0.511,2.508-1.501,6.177-3.004,7.68
			c-1.701,1.701-3.146,7.538-2.142,10.329c0.234,0.649,0.484,1.283,0.725,1.89c0.217,0.548,0.428,1.081,0.613,1.594
			c0.895,1.372,1.47,2.813,1.069,4.182c-0.381,1.302-1.577,2.271-3.554,2.879c-6.997,2.153-12.093,4.958-12.979,7.146
			c-0.19,0.468-0.171,0.867,0.062,1.292c0.8,1.459,1.449,1.709,2.349,2.057c1.204,0.464,2.701,1.042,4.294,4.227
			c0.925,1.849,2.96,2.801,5.115,3.81c3.278,1.533,6.994,3.271,6.485,8.607c-0.004,0.041-0.01,0.082-0.019,0.122
			c-0.744,3.346-13.583,8.419-26.938,10.645c-3.649,0.608-8.558,1.222-14.24,1.933c-0.563,0.07-1.138,0.143-1.722,0.216
			c-27.775,6.162-36.372,8.879-38.173,10.062c0.226,0.357,0.585,0.804,1.027,1.302c0.874,0.712,1.829,1.459,2.665,2.112
			c5.287,4.131,7.778,6.269,7.778,8.015c0,1.319-0.575,2.167-1.196,2.748c0.026,0.341,0.144,0.671,0.265,0.933
			c0.292,0.63,0.78,1.252,1.379,1.795c0.2,0.099,0.394,0.192,0.575,0.279c2.258,1.093,4.392,2.125,5.185,3.315
			c0.602,0.902,1.024,2.343,1.473,3.867c0.375,1.277,1.074,3.655,1.614,3.904c0.502,0.231,0.721,0.826,0.489,1.327
			c-0.23,0.502-0.822,0.723-1.327,0.489c-0.199-0.093-0.383-0.216-0.554-0.367c0.43,0.669,0.964,1.164,1.648,1.381
			c0.527,0.166,0.819,0.728,0.652,1.254C326.069,213.603,325.675,213.875,325.25,213.875z M319.582,174.104
			c-8.106,1.476-14.748,3.238-16.492,5.339C304.459,178.427,308.444,176.913,319.582,174.104z M379.691,151.727
			c1.652,1.657,3.215,3.602,3.897,5.196c0.026,0.062,0.052,0.124,0.075,0.185C383.75,154.279,382.228,153.014,379.691,151.727z
			 M380.114,112.158c-1.508,2.568-1.896,5.086-0.946,6.833C378.964,116.877,379.376,114.31,380.114,112.158z"/>
	</g>
	<g>
		<path fill="#009BA4" d="M240.999,283.333c-0.09,0-0.183-0.013-0.273-0.038c-0.261-0.075-2.697-0.857-7.883-5.374
			c-4.86-4.233-8.522-6.937-18.359-8.771c-5.977-1.115-12.387-3.05-16.981-5.347c-1.548-0.618-2.746-1.341-3.628-2.186
			c-1.16-0.875-2.007-1.776-2.442-2.687c-0.858-1.795-0.431-3.45-0.087-4.779c0.521-2.019,0.835-3.236-2.466-4.93
			c-2.939-1.507-10.037-1.792-16.9-2.067c-9.423-0.378-15.274-0.758-17.067-2.835c-1.309-1.516-1.901-2.86-2.423-4.047
			c-0.768-1.746-1.323-3.007-4.05-4.188c-1.853-0.804-7.078-1.398-12.61-2.028c-5.321-0.605-11.42-1.3-16.638-2.38
			c-1.475-0.143-2.925-0.312-4.334-0.521c-6.478-0.957-9.825-2.461-10.535-4.733c-0.423-1.353,0.154-2.637,1.039-3.783
			c0.343-1.19,1.262-2.456,2.549-3.957c1.69-1.972,2.457-3.484,2.862-4.805c-0.036-0.686-0.123-1.475-0.258-2.399
			c-0.771-5.237,3.79-7.498,6.308-7.962c0.472-0.09,0.939,0.175,1.113,0.623c0.173,0.447,0.003,0.956-0.405,1.21
			c-0.032,0.02-3.188,2.007-3.901,4.433c-0.199,0.675-0.296,1.337-0.399,2.037c-0.108,0.736-0.221,1.508-0.456,2.354
			c0.088,3.735-1.194,5.136-3.585,7.388l-0.263,0.246c-0.528,0.494-1.174,1.099-1.706,1.719c-0.01,0.108-0.007,0.209,0.008,0.303
			c0.161,0.945,1.88,2.011,4.11,3.306c1.984,1.049,4.833,1.876,8.086,2.555c3.72,0.356,7.622,0.537,11.432,0.713
			c10.865,0.501,20.248,0.934,22.838,5.25c3.338,5.563,8.373,7.554,21.548,8.518l3.151,0.225c9.009,0.636,13.972,0.985,15.916,3.308
			c0.717,0.856,0.996,1.915,0.854,3.237c-0.099,0.929-0.346,1.881-0.584,2.802c-0.527,2.037-1.025,3.961-0.037,5.558
			c0.212,0.344,0.495,0.672,0.846,0.984c0.715,0.508,1.577,1.021,2.561,1.53c1.241,0.529,2.774,0.988,4.595,1.375
			c3.917,0.833,7.012,1.154,9.743,1.438c6.606,0.687,10.972,1.14,18.7,7.781c9.232,7.934,11.66,8.698,11.914,8.761
			c0.483,0.031,0.886,0.41,0.931,0.908c0.05,0.55-0.355,1.036-0.906,1.086c-0.255,0.016-0.628-0.067-1.102-0.268
			C241.637,283.168,241.328,283.333,240.999,283.333z M212.076,266.616c0.913,0.203,1.839,0.394,2.774,0.567
			c3.622,0.676,6.469,1.481,8.854,2.431C219.753,267.414,216.522,267.078,212.076,266.616
			C212.077,266.616,212.077,266.616,212.076,266.616z M190.36,247.751c1.505,0.859,2.37,1.743,2.835,2.618
			c0.013-0.763-0.228-1.15-0.423-1.383C192.333,248.461,191.518,248.065,190.36,247.751z M154.59,240.079
			c0.42,0.922,0.923,1.881,1.833,2.935c0.812,0.939,3.976,1.431,7.75,1.729C159.786,243.762,156.839,242.309,154.59,240.079z
			 M106.449,226.232c0.176,0.229,0.47,0.5,0.957,0.794C107.044,226.761,106.725,226.499,106.449,226.232z"/>
	</g>
	<g>
		<path fill="#009BA4" d="M180.333,107.501c-0.104,0-0.211-0.017-0.316-0.052c-0.3-0.1-7.348-2.505-6.326-7.004
			c0.173-0.763,0.381-1.469,0.564-2.092c0.309-1.05,0.658-2.239,0.42-2.588c-0.053-0.077-0.312-0.338-1.429-0.435
			c-0.507-0.044-1.47-0.12-2.761-0.223c-31.55-2.498-31.953-3.305-32.38-4.16c-0.247-0.494-0.046-1.095,0.447-1.342
			c0.395-0.197,0.856-0.109,1.152,0.185c1.533,0.701,11.938,1.819,30.939,3.323c1.298,0.103,2.266,0.18,2.776,0.224
			c0.922,0.08,2.227,0.302,2.908,1.3c0.772,1.131,0.343,2.59-0.154,4.28c-0.177,0.602-0.371,1.261-0.533,1.971
			c-0.517,2.271,3.545,4.175,5.008,4.663c0.524,0.175,0.807,0.741,0.632,1.265C181.143,107.236,180.752,107.501,180.333,107.501z"/>
	</g>
</g>
<g id="orange">
	<g>
		<path fill="#F5952F" d="M260,163.334c-0.123,0-0.246-0.022-0.364-0.068l-15.334-6c-0.484-0.19-0.743-0.72-0.594-1.218
			s0.655-0.798,1.164-0.692l11.065,2.329l-2.569-9.421c-0.146-0.533,0.169-1.083,0.702-1.228c0.529-0.142,1.083,0.168,1.228,0.702
			l2.625,9.625l-1.235-5.819c-0.114-0.541,0.23-1.072,0.771-1.186c0.547-0.116,1.072,0.231,1.187,0.77l2.334,11
			c0.076,0.36-0.051,0.732-0.332,0.971C260.463,163.253,260.233,163.334,260,163.334z M256.256,159.795l2.381,0.932l-0.324-1.526
			c-0.036,0.18-0.122,0.349-0.252,0.485c-0.238,0.254-0.595,0.364-0.934,0.293L256.256,159.795z"/>
	</g>
	<g>
		<path fill="#F5952F" d="M257.333,160c-0.229,0-0.457-0.077-0.644-0.234c-76.459-64.319-137.647-59.163-138.26-59.104
			c-0.548,0.057-1.039-0.349-1.092-0.898c-0.047-0.482,0.257-0.918,0.704-1.054c-0.465-0.017-0.936-0.031-1.402-0.044
			c-0.552-0.015-0.987-0.475-0.972-1.027c0.015-0.552,0.454-1.016,1.027-0.972c39.532,1.073,73.162,15.229,94.413,26.915
			c23.668,13.015,41.064,27.92,46.982,34.763c0.342,0.395,0.322,0.985-0.044,1.356C257.851,159.899,257.592,160,257.333,160z"/>
	</g>
</g>
<g id="Ebene_7">
</g>
<g id="Laptop">
	<g>
		<polyline fill="#D7D9D8" points="266.102,199.034 266.363,201.384 294.558,215.089 308.263,202.688 308.263,200.469 
			312.961,174.887 284.114,169.404 280.853,188.982 		"/>
	</g>
	<g>
		<path fill="#231F20" d="M294.166,214c-0.151,0-0.304-0.034-0.445-0.104l-28.064-13.966c-0.317-0.158-0.527-0.471-0.552-0.824
			c-0.025-0.353,0.138-0.692,0.429-0.894l14.358-9.922c0.278-0.192,0.634-0.23,0.946-0.104l27.803,11.356
			c0.32,0.131,0.55,0.417,0.607,0.757c0.059,0.341-0.062,0.687-0.321,0.916l-14.097,12.531C294.644,213.914,294.406,214,294.166,214
			z M268.063,198.894l25.943,12.91l12.392-11.016l-25.815-10.545L268.063,198.894z"/>
	</g>
	<g>
		<path fill="#F4943D" d="M290.667,199.167l-0.083,3c-0.653,1.567-3.604,2.843-6.083,2.583c-2.479-0.261-4.833-1.591-5.417-4.583
			l0.166-2.667"/>
		<path fill="#A5682E" d="M285.188,205.785c-0.266,0-0.529-0.014-0.791-0.041c-3.401-0.357-5.695-2.32-6.294-5.386
			c-0.017-0.083-0.021-0.169-0.017-0.254l0.166-2.667c0.034-0.55,0.488-0.971,1.061-0.936c0.551,0.034,0.97,0.509,0.936,1.061
			l-0.157,2.533c0.617,2.832,3.085,3.51,4.515,3.66c2.053,0.204,4.396-0.817,4.985-1.832l0.076-2.784
			c0.016-0.543,0.46-0.973,0.999-0.973c0.01,0,0.02,0,0.028,0c0.553,0.016,0.987,0.476,0.973,1.027l-0.083,3
			c-0.004,0.123-0.029,0.244-0.077,0.357C290.743,204.384,287.916,205.785,285.188,205.785z"/>
	</g>
	<g>
		<path fill="#F4943D" d="M284.834,202.5c2.35,0.131,6.667-1.75,5.513-4.478c-2.35-4.438-10.836-3.916-11.097-0.522
			C278.991,200.896,283.14,202.405,284.834,202.5z"/>
		<path fill="#A5682E" d="M285.072,203.507C285.071,203.507,285.071,203.507,285.072,203.507c-0.101,0-0.199-0.003-0.294-0.009
			c-1.305-0.072-3.798-0.812-5.322-2.553c-0.886-1.011-1.302-2.229-1.203-3.521c0.163-2.119,2.532-3.6,5.762-3.6
			c2.533,0,5.76,0.98,7.216,3.73c0.484,1.135,0.383,2.204-0.257,3.17C289.819,202.466,287.066,203.507,285.072,203.507z
			 M284.015,195.824c-2.037,0-3.692,0.77-3.768,1.752c-0.059,0.766,0.175,1.437,0.713,2.051c1.04,1.188,2.96,1.82,3.93,1.875
			c0.059,0.003,0.12,0.005,0.182,0.005h0.001c1.408,0,3.519-0.808,4.233-1.888c0.267-0.401,0.304-0.773,0.12-1.207
			C288.421,196.522,285.877,195.824,284.015,195.824z"/>
	</g>
	<g>
		<path fill="#231F20" d="M294.558,216.089c-0.148,0-0.298-0.033-0.438-0.101l-28.194-13.705c-0.309-0.15-0.519-0.447-0.557-0.789
			l-0.262-2.35c-0.061-0.549,0.335-1.043,0.884-1.104c0.54-0.055,1.043,0.335,1.104,0.884l0.2,1.802l27.092,13.169l12.875-11.65
			v-1.775c0-0.061,0.006-0.121,0.017-0.181l4.519-24.604l-26.865-5.105l-3.094,18.568c-0.09,0.545-0.604,0.919-1.15,0.822
			c-0.545-0.091-0.913-0.605-0.822-1.15l3.262-19.578c0.044-0.266,0.193-0.502,0.414-0.656c0.221-0.155,0.496-0.213,0.759-0.162
			l28.847,5.482c0.54,0.103,0.896,0.622,0.797,1.163l-4.682,25.492v2.128c0,0.282-0.119,0.552-0.329,0.741l-13.705,12.401
			C295.041,216,294.801,216.089,294.558,216.089z"/>
	</g>
	<g>
		<polygon fill="#535657" points="286.464,173.45 283.984,187.809 305.652,195.9 308.915,178.019 		"/>
		<path fill="#231F20" d="M305.652,196.9c-0.118,0-0.236-0.021-0.35-0.063l-21.668-8.092c-0.45-0.168-0.718-0.633-0.636-1.106
			l2.479-14.358c0.046-0.267,0.198-0.503,0.421-0.655c0.224-0.154,0.497-0.209,0.764-0.154l22.451,4.568
			c0.533,0.108,0.882,0.623,0.784,1.159l-3.263,17.882c-0.053,0.291-0.232,0.544-0.489,0.689
			C305.994,196.856,305.823,196.9,305.652,196.9z M285.111,187.162l19.771,7.384l2.873-15.743l-20.481-4.167L285.111,187.162z"/>
	</g>
	<g>
		<path fill="#F4F4F4" d="M304.876,181.5c-0.071,0-0.144-0.008-0.216-0.023l-15.875-3.5c-0.54-0.119-0.881-0.652-0.762-1.191
			c0.118-0.54,0.652-0.878,1.191-0.762l15.875,3.5c0.54,0.119,0.881,0.652,0.762,1.191C305.749,181.182,305.335,181.5,304.876,181.5
			z"/>
	</g>
	<g>
		<path fill="#F4F4F4" d="M304.251,184.875c-0.074,0-0.149-0.008-0.226-0.025l-15.75-3.625c-0.538-0.124-0.874-0.661-0.75-1.199
			s0.656-0.874,1.199-0.75l15.75,3.625c0.538,0.124,0.874,0.661,0.75,1.199C305.118,184.562,304.706,184.875,304.251,184.875z"/>
	</g>
	<g>
		<path fill="#F4F4F4" d="M303.501,188.5c-0.09,0-0.181-0.012-0.271-0.037l-15.625-4.375c-0.532-0.148-0.843-0.701-0.693-1.232
			c0.149-0.532,0.708-0.841,1.232-0.693l15.625,4.375c0.532,0.148,0.843,0.701,0.693,1.232
			C304.339,188.211,303.938,188.5,303.501,188.5z"/>
	</g>
	<g>
		<path fill="#F4F4F4" d="M303,192c-0.096,0-0.193-0.014-0.29-0.043l-16.5-5c-0.528-0.16-0.827-0.719-0.667-1.247
			s0.716-0.827,1.247-0.667l16.5,5c0.528,0.16,0.827,0.719,0.667,1.247C303.826,191.722,303.43,192,303,192z"/>
	</g>
	<g>
		<polygon fill="#D7D9D8" points="311.583,208.167 315.083,193.917 322.916,196.4 319.083,210.677 		"/>
		<path fill="#231F20" d="M319.083,211.677c-0.106,0-0.214-0.018-0.317-0.052l-7.5-2.51c-0.493-0.165-0.778-0.682-0.653-1.187
			l3.5-14.25c0.065-0.269,0.24-0.498,0.481-0.634c0.239-0.137,0.527-0.165,0.791-0.081l7.833,2.483
			c0.511,0.161,0.803,0.696,0.664,1.213l-3.833,14.276c-0.071,0.266-0.25,0.491-0.493,0.621
			C319.409,211.637,319.246,211.677,319.083,211.677z M312.773,207.511l5.619,1.881l3.31-12.327l-5.903-1.871L312.773,207.511z"/>
	</g>
	<g>
		<path fill="#231F20" d="M311.967,211.679c-0.858,0-1.799-0.354-2.538-0.681c-3.507-1.55-6.243-2.549-6.271-2.559
			c-0.519-0.188-0.787-0.763-0.598-1.281c0.188-0.52,0.761-0.786,1.281-0.598c0.027,0.01,2.823,1.029,6.396,2.607
			c0.981,0.434,1.493,0.507,1.721,0.509c-0.038-0.491,0.293-0.954,0.786-1.062c0.541-0.112,1.076,0.216,1.193,0.755
			c0.118,0.538,0.028,1.351-0.609,1.872C312.94,211.558,312.468,211.679,311.967,211.679z"/>
	</g>
	<g>
		<polygon fill="#535657" points="316.445,196.905 320.083,197.917 317.75,207.5 314.25,206.167 		"/>
		<path fill="#231F20" d="M317.75,208.5c-0.12,0-0.241-0.021-0.355-0.065l-3.5-1.333c-0.47-0.179-0.733-0.677-0.617-1.165
			l2.195-9.262c0.062-0.265,0.23-0.492,0.464-0.631c0.235-0.139,0.515-0.176,0.776-0.103l3.638,1.012
			c0.521,0.146,0.832,0.676,0.704,1.2l-2.333,9.583c-0.068,0.279-0.252,0.516-0.506,0.648C318.07,208.461,317.91,208.5,317.75,208.5
			z M315.425,205.545l1.622,0.617l1.836-7.541l-1.704-0.474L315.425,205.545z"/>
	</g>
	<g>
		<line fill="#D7D9D8" x1="321.688" y1="196.011" x2="322.25" y2="193.917"/>
		<path fill="#231F20" d="M321.688,197.011c-0.086,0-0.174-0.011-0.261-0.034c-0.533-0.144-0.85-0.692-0.706-1.226l0.562-2.094
			c0.145-0.533,0.695-0.849,1.226-0.706c0.533,0.144,0.85,0.692,0.706,1.226l-0.562,2.094
			C322.533,196.717,322.129,197.011,321.688,197.011z"/>
	</g>
</g>
<g id="Ebene_9">
	<g>
		<path fill="#FFFFFF" d="M273.281,184.06c0,0-18.138-17.974-19.665-15.807c-2.699,3.83,17.835,18.139,17.835,18.139l2.046,4.021
			c0,0-9.665,21.125-7.655,29.073c0.074,0.294-5.478,3.061-5.372,3.312c0.165,0.389,6.264-0.073,6.513,0.203
			c3.857,1.669,14.527,0.603,16.139,0.154c0.895-0.806-4.052-2.14-3.955-3.397c0.428-5.566,0.016-17.015,0.016-17.015
			s7.728-4.193,7.162-4.297c-0.545-1.934-3.671-1.79-5.819-0.269c-1.083,0.17-2.387-0.714-2.387-0.714l0.284-5.94
			c0,0,13.854-5.164,9.265-8.654c-4.592-3.484-8.537-1.902-8.537-1.902s6.597-22.282,1.586-21.933
			c-5.011,0.348-6.299,25.715-6.299,25.715L273.281,184.06z"/>
	</g>
	<g>
		<path fill="#010101" d="M278.732,203.387c-0.46,0-0.874-0.319-0.976-0.786c-0.118-0.54,0.224-1.073,0.763-1.19l2.759-0.604
			c1.149-0.534,3.081-1.587,3.674-2.288c0.006-0.322-0.938-1.041-1.562-1.041c-0.566,0-1.794,0.838-2.463,1.442
			c-0.185,0.168-0.427,0.268-0.676,0.259l-2.043-0.01c-0.509-0.003-0.934-0.386-0.989-0.892c-0.495-4.542-0.622-6.94,0-8.284
			c0.231-0.501,0.826-0.721,1.327-0.487c0.501,0.231,0.72,0.826,0.487,1.327c-0.438,0.947-0.165,4.043,0.078,6.34l0.774,0.004
			c0.683-0.567,2.206-1.699,3.504-1.699c1.299,0,2.844,0.967,3.375,2.11c0.358,0.773,0.255,1.583-0.285,2.222
			c-1.096,1.297-4.123,2.704-4.465,2.86c-0.064,0.03-0.133,0.053-0.202,0.067l-2.865,0.626
			C278.875,203.379,278.803,203.387,278.732,203.387z"/>
	</g>
	<g>
		<path fill="#010101" d="M276.006,224.632c-1.974-0.089-4.786-0.064-6.648-0.046c-0.586,0.005-1.08,0.01-1.43,0.01
			c-8.243,0-8.301-0.158-8.576-0.92c-0.734-2.052,3.806-4.466,5.53-5.297c-0.005-0.121-0.011-0.252-0.017-0.39
			c-0.047-1.064-0.104-2.39-0.08-2.948c0.429-9.36,4.389-17.52,6.516-21.902c0.546-1.126,1.11-2.288,1.194-2.666
			c-0.145-0.922-0.579-2.146-0.782-2.687l-0.831-0.57c-11.062-7.558-20.924-15.15-18.217-19.496
			c0.305-0.508,0.821-0.825,1.446-0.881c3.774-0.327,14.604,11.227,19.523,16.723c0.056-0.534,0.117-1.168,0.181-1.818
			c0.989-10.169,2.325-21.205,5.658-23.446c0.667-0.448,1.409-0.57,2.154-0.347c0.461,0.138,1.103,0.486,1.542,1.365
			c2.479,4.962-4.635,24.594-5.454,26.815c-0.191,0.52-0.766,0.785-1.284,0.593c-0.519-0.191-0.783-0.767-0.593-1.284
			c2.979-8.081,7.118-22.076,5.542-25.23c-0.145-0.289-0.276-0.328-0.325-0.343c-0.137-0.04-0.268-0.042-0.466,0.091
			c-2.829,1.901-4.25,16.489-4.784,21.98c-0.259,2.655-0.342,3.516-0.537,3.892c-0.01,0.217-0.09,0.432-0.24,0.607
			c-0.324,0.377-0.878,0.458-1.298,0.191c-0.131-0.084-0.266-0.208-0.372-0.364c-7.66-8.705-16.996-17.682-19.022-17.441
			c-0.703,1.312,0.782,5.2,17.675,16.742l1.093,0.749c0.161,0.112,0.287,0.269,0.359,0.451c0.034,0.083,0.819,2.054,1.024,3.509
			c0.093,0.649-0.26,1.415-1.387,3.738c-2.065,4.254-5.908,12.172-6.317,21.119c-0.021,0.469,0.04,1.854,0.08,2.771
			c0.021,0.475,0.038,0.876,0.043,1.082c0.009,0.413-0.237,0.789-0.62,0.946c-1.532,0.629-3.316,1.749-4.301,2.57
			c1.575,0.062,4.118,0.095,5.942,0.095c0.345,0,0.833-0.005,1.412-0.01c1.882-0.017,4.729-0.043,6.707,0.047
			c0-0.001,3.927-0.017,6.08-0.024c-0.527-0.741-1.536-1.661-3.086-1.857c-0.503-0.063-0.879-0.493-0.875-1
			c0.006-0.7-0.003-1.602-0.014-2.646c-0.019-1.758-0.04-3.944-0.003-6.273c0.051-3.057-0.079-5.904-0.41-8.963
			c-0.06-0.549,0.338-1.042,0.887-1.102c0.539-0.062,1.042,0.337,1.102,0.887c0.34,3.144,0.475,6.069,0.422,9.21
			c-0.037,2.303-0.016,4.476,0.003,6.221c0.007,0.684,0.013,1.307,0.015,1.854c3.001,0.802,4.464,3.52,4.396,4.602
			c-0.039,0.617-0.495,1.065-1.085,1.065C283.03,224.604,276.006,224.632,276.006,224.632z"/>
	</g>
	<g>
		<path fill="#010101" d="M278.554,192.644c-0.465,0-0.881-0.325-0.979-0.798c-0.111-0.541,0.236-1.069,0.777-1.182
			c3.42-0.707,8.228-3.481,9.068-5.866c0.202-0.572,0.129-1.026-0.237-1.471c-2.26-2.741-7.733-1.404-7.789-1.39
			c-0.536,0.134-1.079-0.189-1.214-0.725c-0.136-0.535,0.188-1.078,0.722-1.214c0.274-0.072,6.755-1.669,9.824,2.057
			c0.816,0.99,1.018,2.169,0.581,3.407c-1.174,3.327-6.936,6.413-10.551,7.16C278.688,192.637,278.621,192.644,278.554,192.644z"/>
	</g>
	<g>
		<path fill="#010101" d="M270.011,223.418c-0.37,0-0.726-0.206-0.899-0.561l-0.944-1.932c-0.171-0.351-0.123-0.769,0.123-1.07
			l0.656-0.807l-0.392-2.247c-0.051-0.291,0.03-0.59,0.22-0.815c0.19-0.226,0.471-0.356,0.766-0.356h2.037l1.446-1.291
			c0.296-0.262,0.714-0.327,1.075-0.167c0.359,0.161,0.591,0.519,0.591,0.913v1.006l1.583,0.12c0.363,0.027,0.684,0.252,0.835,0.584
			c0.15,0.333,0.108,0.721-0.111,1.013l-0.733,0.978l0.766,1.146c0.274,0.411,0.207,0.962-0.158,1.295l-2.118,1.932
			c-0.406,0.372-1.04,0.344-1.413-0.065c-0.372-0.408-0.343-1.041,0.065-1.413l1.483-1.352l-0.682-1.02
			c-0.235-0.354-0.223-0.816,0.032-1.155l0.063-0.085l-0.688-0.053c-0.429-0.032-0.777-0.333-0.888-0.729l-0.102,0.091
			c-0.184,0.163-0.421,0.254-0.666,0.254h-1.229l0.266,1.524c0.05,0.285-0.027,0.578-0.21,0.803l-0.54,0.665l0.663,1.356
			c0.242,0.496,0.037,1.096-0.459,1.338C270.308,223.386,270.158,223.418,270.011,223.418z"/>
	</g>
	<g>
		<g>
			<path fill="#010101" d="M281.614,185.59c1.29,0,1.29-2,0-2S280.324,185.59,281.614,185.59L281.614,185.59z"/>
		</g>
	</g>
	<g>
		<path fill="#010101" d="M266.091,221.658c-0.503,0-0.936-0.378-0.993-0.889l-0.186-1.652c-0.062-0.549,0.334-1.043,0.883-1.105
			c0.559-0.052,1.044,0.334,1.105,0.883l0.186,1.652c0.062,0.549-0.334,1.043-0.883,1.105
			C266.165,221.656,266.128,221.658,266.091,221.658z"/>
	</g>
	<g>
		<path fill="#010101" d="M279.093,222.187c-0.018,0-0.035,0-0.053-0.001c-0.552-0.029-0.976-0.499-0.947-1.051l0.074-1.428
			c0.029-0.552,0.497-0.975,1.051-0.947c0.552,0.029,0.976,0.499,0.947,1.051l-0.074,1.428
			C280.062,221.772,279.621,222.187,279.093,222.187z"/>
	</g>
</g>
<g id="Sparcles">
	<g>
		<g>
			<path fill="#F5952F" d="M127.667,95.667c2.58,0,2.58-4,0-4S125.087,95.667,127.667,95.667L127.667,95.667z"/>
		</g>
	</g>
	<g>
		<g>
			<path fill="#F5952F" d="M148.333,95c2.58,0,2.58-4,0-4S145.754,95,148.333,95L148.333,95z"/>
		</g>
	</g>
	<g>
		<g>
			<path fill="#F5952F" d="M152.333,101c2.58,0,2.58-4,0-4S149.754,101,152.333,101L152.333,101z"/>
		</g>
	</g>
	<g>
		<g>
			<path fill="#F5952F" d="M193.667,105.667c2.58,0,2.58-4,0-4S191.087,105.667,193.667,105.667L193.667,105.667z"/>
		</g>
	</g>
	<g>
		<g>
			<path fill="#F5952F" d="M203.667,133.667c2.579,0,2.579-4,0-4S201.088,133.667,203.667,133.667L203.667,133.667z"/>
		</g>
	</g>
	<g>
		<g>
			<path fill="#F5952F" d="M233,135c2.579,0,2.579-4,0-4S230.421,135,233,135L233,135z"/>
		</g>
	</g>
	<g>
		<g>
			<path fill="#F5952F" d="M171.667,119.667c2.58,0,2.58-4,0-4S169.087,119.667,171.667,119.667L171.667,119.667z"/>
		</g>
	</g>
	<g>
		<g>
			<path fill="#F5952F" d="M255.667,145c2.579,0,2.579-4,0-4S253.088,145,255.667,145L255.667,145z"/>
		</g>
	</g>
	<g>
		<g>
			<path fill="#F5952F" d="M242.333,151.666c2.579,0,2.579-4,0-4S239.754,151.666,242.333,151.666L242.333,151.666z"/>
		</g>
	</g>
	<g>
		<g>
			<path d="M189,123.667c2.58,0,2.58-4,0-4S186.42,123.667,189,123.667L189,123.667z"/>
		</g>
	</g>
	<g>
		<g>
			<path d="M174.333,109c2.58,0,2.58-4,0-4S171.754,109,174.333,109L174.333,109z"/>
		</g>
	</g>
	<g>
		<g>
			<path d="M142.333,102.333c2.58,0,2.58-4,0-4S139.754,102.333,142.333,102.333L142.333,102.333z"/>
		</g>
	</g>
	<g>
		<g>
			<path d="M233.667,141.667c2.579,0,2.579-4,0-4S231.088,141.667,233.667,141.667L233.667,141.667z"/>
		</g>
	</g>
	<g>
		<g>
			<path d="M249.667,145.667c2.579,0,2.579-4,0-4S247.088,145.667,249.667,145.667L249.667,145.667z"/>
		</g>
	</g>
</g>
<g id="Ebene_6">
	<g>
		<path fill="#FFFFFF" d="M98.143,88.747c0,0-13.736-7.509-11.907-9.923c1.829-2.408,12.201,6.982,12.201,6.982
			s-5.428-14.931-3.597-14.839c2.788,0.139,7.622,10.933,7.787,16.898c6.213,2.334,10.617,3.604,7.056,8.82
			c-0.883,1.144-4.189-0.882-2.094,2.461c3.827-0.169,5.572-0.304,5.572-0.304s2.166,2.763,0.418,3.429
			c-1.745,0.669-2.528-0.699-2.528-0.699l-3.548,0.067c0,0,1.952,7.171,1.786,9.501c2.991,1.912,4.917,2.664,4.168,3.333
			c-0.749,0.662-5.316-1.057-5.316-1.057s-3.497,0.661-3.926,0.505c-0.428-0.152-4.488,3.786-4.985,3.202
			c-0.501-0.581-0.084-3.161,1.412-3.909c1.498-0.747,1.149-1.608,1.149-1.608s-1.459-6.046-0.424-9.023
			c-2.376-3.972,0.287-3.806,0.287-3.806l-0.902-2.403l-1.188-2.708l0.426-3.785L98.143,88.747z"/>
	</g>
	<g>
		<path fill="#FFFFFF" d="M95.887,94.208"/>
	</g>
	<g>
		<path fill="#010101" d="M101.731,100.375c-0.079,0-0.159-0.009-0.239-0.029c-0.536-0.131-0.865-0.673-0.733-1.209
			c0.083-0.339-0.433-1.093-0.81-1.644c-0.114-0.167-0.228-0.333-0.335-0.497c-1.791-2.182-1.724-5.503-1.59-6.96
			c-3.783-2.077-13.231-7.624-13.062-11.094c0.042-0.815,0.464-1.422,1.161-1.666c3.012-1.063,11.916,6.684,15.047,10.22
			c0.366,0.414,0.328,1.045-0.085,1.412c-0.305,0.27-0.728,0.32-1.075,0.163c0.08,0.177,0.109,0.377,0.075,0.578
			c-0.006,0.04-0.648,4.027,1.103,6.11c0.027,0.032,0.052,0.066,0.075,0.102c0.107,0.167,0.223,0.335,0.338,0.503
			c0.655,0.958,1.398,2.042,1.102,3.25C102.589,100.07,102.181,100.375,101.731,100.375z M86.978,79.153
			c0.32,1.777,6.504,6.145,12.405,9.346C95.238,83.939,88.745,79.258,86.978,79.153z"/>
	</g>
	<g>
		<path fill="#010101" d="M106.751,98.048c-0.808,0-1.542-0.102-2.061-0.257c-0.529-0.159-0.83-0.716-0.671-1.245
			c0.158-0.529,0.718-0.829,1.245-0.671c1,0.3,3.158,0.258,4.261-0.49c0.48-0.325,0.592-0.678,0.624-0.933
			c-0.174-2.974-5.663-5.062-7.778-5.619c-0.37-0.098-0.652-0.397-0.727-0.772c-1.477-7.425-4.34-15.422-6.541-16.053
			c-0.24,1.663,1.957,8.214,4.324,13.697c0.219,0.507-0.015,1.096-0.521,1.314c-0.51,0.218-1.096-0.015-1.314-0.521
			c-1.729-4.003-5.589-13.557-4.103-15.808c0.307-0.466,0.786-0.722,1.348-0.722c0.002,0,0.004,0,0.006,0
			c1.217,0.005,5.399,1.267,8.643,17.104c2.14,0.65,8.519,2.956,8.666,7.376c0.001,0.04,0,0.081-0.003,0.121
			c-0.089,1.012-0.607,1.867-1.5,2.472C109.556,97.781,108.057,98.048,106.751,98.048z"/>
	</g>
	<g>
		<polygon fill="#868B8F" points="95.327,95.96 99.91,94.702 102.307,104.86 98.008,105.843 		"/>
		<path fill="#010101" d="M98.007,106.843c-0.441,0-0.844-0.294-0.964-0.738l-2.681-9.882c-0.144-0.532,0.169-1.08,0.701-1.226
			l4.583-1.259c0.261-0.072,0.541-0.035,0.775,0.104c0.233,0.138,0.401,0.366,0.463,0.63l2.397,10.159
			c0.062,0.259,0.017,0.532-0.125,0.758c-0.141,0.226-0.366,0.387-0.626,0.446l-4.299,0.982
			C98.156,106.835,98.081,106.843,98.007,106.843z M96.553,96.661l2.168,7.993l2.381-0.544l-1.928-8.169L96.553,96.661z"/>
	</g>
	<g>
		<path fill="#010101" d="M99.556,118.103c-0.484,0-0.943-0.152-1.293-0.442c-0.308-0.255-0.801-0.844-0.638-1.916
			c0.568-2.427,1.946-3.595,2.918-4.133c-0.474-1.739-0.548-4.27-0.514-6.254c0.009-0.552,0.437-1.011,1.017-0.983
			c0.552,0.01,0.992,0.465,0.983,1.017c-0.052,3.048,0.192,5.357,0.671,6.333c0.135,0.276,0.136,0.599,0.002,0.875
			c-0.134,0.277-0.388,0.477-0.688,0.542c-0.062,0.016-1.83,0.477-2.422,2.959c0.03-0.003,0.066-0.011,0.106-0.024
			c0.355-0.185,1.917-1.674,3.125-2.938c0.179-0.187,0.423-0.297,0.681-0.308c1.56-0.065,3.498-0.262,3.898-0.451
			c0.386-0.182,0.879-0.116,1.175,0.189c0.375,0.385,1.631,0.876,3,1.047c-0.649-0.346-1.515-0.743-2.59-1.147
			c-0.365-0.138-0.617-0.475-0.645-0.864c-0.443-6.144-1.397-8.561-2.119-9.507c-0.235-0.307-0.271-0.723-0.093-1.066
			c0.178-0.344,0.515-0.555,0.924-0.54c1.155,0.042,4.301,0.084,4.301,0.084c0.528,0.007,0.942,0.273,0.967,0.798l0,0
			c0.011,0,0.123,0.186,0.505,0.33c0.146,0.007,0.597-0.205,0.758-0.548c0.041-0.087,0.136-0.291-0.277-0.689
			c-0.15-0.145-0.25-0.332-0.289-0.533c-0.087,0.02-0.179,0.027-0.272,0.021l-5.991-0.359c-0.387-0.023-0.725-0.267-0.869-0.626
			c-0.086-0.215-0.22-0.759-0.144-1.978c0.035-0.551,0.504-0.973,1.061-0.936c0.551,0.035,0.97,0.509,0.936,1.061
			c-0.013,0.209-0.018,0.386-0.019,0.534l4.387,0.263c0.679-1.838,1.165-2.042,1.412-2.147c0.305-0.13,0.648-0.122,0.942,0.024
			c0.898,0.448,0.79,1.403,0.675,2.415c-0.038,0.331-0.083,0.724-0.114,1.18c0.835,1.052,0.682,2.167,0.216,2.906
			c-0.679,1.076-2.107,1.665-3.116,1.285c-0.702-0.264-1.129-0.656-1.387-1.008c-0.51-0.007-1.279-0.02-2.019-0.034
			c0.753,1.846,1.271,4.587,1.571,8.294c4.937,1.962,4.748,3.272,4.666,3.844c-0.059,0.41-0.364,0.742-0.769,0.833
			c-2.205,0.502-5.083-0.166-6.524-1.121c-1.031,0.256-2.662,0.375-3.672,0.427c-1.312,1.358-2.909,2.898-3.627,3.153
			C100.096,118.057,99.822,118.103,99.556,118.103z"/>
	</g>
	<g>
		<g>
			<path fill="#010101" d="M103.508,93.422c1.29,0,1.29-2,0-2S102.219,93.422,103.508,93.422L103.508,93.422z"/>
		</g>
	</g>
	<g>
		<path fill="#FFFFFF" d="M96.304,101.369c0,0,1.483-0.344,2.203,0.599s0.876,2.877-0.577,3.285S94.866,102.363,96.304,101.369z"/>
		<path fill="#010101" d="M97.677,106.287c-1.343,0-2.368-1.323-2.751-2.552c-0.417-1.333-0.106-2.556,0.809-3.188
			c0.104-0.072,0.22-0.124,0.343-0.152c0.062-0.015,0.398-0.087,0.85-0.087c1.013,0,1.855,0.374,2.374,1.053
			c0.684,0.896,0.924,2.232,0.584,3.249c-0.27,0.807-0.868,1.377-1.686,1.606C98.03,106.263,97.854,106.287,97.677,106.287z
			 M96.786,102.312c-0.062,0.157-0.058,0.423,0.018,0.716c0.19,0.737,0.688,1.227,0.868,1.258c0.17-0.051,0.26-0.139,0.318-0.311
			c0.13-0.392,0.004-1.033-0.277-1.401C97.511,102.312,97.056,102.293,96.786,102.312z"/>
	</g>
</g>
<g id="Ebene_6_Kopie">
	<g>
		<path fill="#FFFFFF" d="M66.085,90.874c0,0-13.736-7.509-11.907-9.923c1.829-2.408,6.292,2.278,6.292,2.278
			s-3.679-7.8-1.849-7.709c2.788,0.139,10.381,9.676,11.947,14.472c6.213,2.334,10.617,3.604,7.056,8.82
			c-0.883,1.144-4.189-0.882-2.094,2.461c3.827-0.169,5.572-0.304,5.572-0.304s2.166,2.763,0.418,3.429
			c-1.745,0.669-2.528-0.699-2.528-0.699l-3.548,0.067c0,0,1.952,7.171,1.786,9.501c2.991,1.912,4.917,2.664,4.168,3.333
			c-0.749,0.662-5.316-1.057-5.316-1.057s-3.497,0.661-3.926,0.505c-0.428-0.152-2.299,4.786-2.796,4.201
			c-0.501-0.581-2.273-4.161-0.777-4.908c1.498-0.747,1.149-1.608,1.149-1.608s-1.459-6.046-0.424-9.023
			c-2.376-3.972,0.287-3.806,0.287-3.806l-0.902-2.403l-1.188-2.708l0.426-3.785L66.085,90.874z"/>
	</g>
	<g>
		<path fill="#FFFFFF" d="M63.83,96.334"/>
	</g>
	<g>
		<path fill="#010101" d="M69.693,101.977c-0.49,0-0.918-0.36-0.989-0.86c-0.055-0.391-0.458-0.979-0.812-1.497
			c-0.114-0.166-0.227-0.332-0.334-0.497c-1.752-2.126-1.778-4.899-1.676-6.18c-3.717-2.281-13.146-8.42-12.977-11.874
			c0.042-0.815,0.464-1.422,1.161-1.666c3.013-1.062,11.916,6.683,15.047,10.22c0.366,0.414,0.328,1.045-0.085,1.412
			c-0.414,0.367-1.046,0.328-1.412-0.085c-4.126-4.66-10.888-9.562-12.695-9.668c0.313,1.839,6.608,6.7,12.546,10.286
			c0.355,0.215,0.542,0.627,0.467,1.036c-0.005,0.029-0.546,3.212,1.196,5.283c0.027,0.032,0.052,0.066,0.075,0.102
			c0.107,0.167,0.223,0.334,0.338,0.503c0.502,0.733,1.021,1.492,1.143,2.346c0.077,0.547-0.303,1.053-0.85,1.13
			C69.787,101.974,69.74,101.977,69.693,101.977z"/>
	</g>
	<g>
		<path fill="#010101" d="M73.429,100.647c-0.258,0-0.508-0.008-0.747-0.025c-0.551-0.038-0.967-0.515-0.93-1.065
			c0.038-0.551,0.517-0.975,1.065-0.93c1.752,0.119,5.055-0.364,5.275-2.05c-0.176-2.974-5.663-5.062-7.778-5.618
			c-0.265-0.07-0.49-0.246-0.623-0.486c-4.603-8.39-9.269-13.812-10.992-13.969c0.121,1.018,1.259,3.729,2.646,6.242
			c0.267,0.483,0.091,1.092-0.392,1.359c-0.485,0.267-1.092,0.091-1.359-0.392c-1.285-2.327-3.357-6.477-2.792-8.121
			c0.141-0.41,0.426-0.725,0.804-0.886c4.163-1.786,11.248,10.133,13.635,14.437c1.925,0.565,8.701,2.875,8.853,7.432
			c0.001,0.04,0,0.081-0.003,0.121C79.832,99.653,76.206,100.647,73.429,100.647z"/>
	</g>
	<g>
		<polygon fill="#868B8F" points="79.327,96.874 83.686,96.379 82.878,105.76 78.579,106.742 		"/>
		<path fill="#010101" d="M78.579,107.742c-0.237,0-0.469-0.084-0.652-0.242c-0.241-0.208-0.369-0.517-0.345-0.833l0.748-9.869
			c0.036-0.479,0.407-0.864,0.884-0.918l4.359-0.494c0.296-0.036,0.596,0.068,0.81,0.277c0.215,0.209,0.325,0.504,0.299,0.803
			l-0.808,9.38c-0.037,0.433-0.35,0.792-0.773,0.889l-4.299,0.982C78.728,107.734,78.653,107.742,78.579,107.742z M80.261,97.774
			l-0.583,7.691l2.266-0.518l0.64-7.437L80.261,97.774z"/>
	</g>
	<g>
		<path fill="#010101" d="M69.747,120.801c-0.616,0-1.289-0.238-1.804-0.665c-0.64-0.531-0.941-1.273-0.825-2.037
			c0.514-2.196,1.103-3.387,1.51-4.001c-0.377-1.527-0.357-4.505-0.19-8.895c0.024-0.634,0.044-1.161,0.05-1.514
			c0.009-0.553,0.456-0.992,1.017-0.983c0.552,0.01,0.992,0.465,0.983,1.017c-0.006,0.363-0.027,0.904-0.052,1.556
			c-0.079,2.069-0.289,7.564,0.206,8.572c0.201,0.41,0.099,0.904-0.248,1.201c0,0,0,0,0,0c0.005,0-0.688,0.766-1.311,3.407
			c0.01-0.029,0.017,0.024,0.094,0.101c0.144,0.141,0.359,0.22,0.497,0.24c0.339-0.42,1.025-1.792,1.553-3.12
			c0.14-0.353,0.467-0.596,0.846-0.627c1.283-0.108,2.902-0.352,3.267-0.543c0.392-0.207,0.871-0.128,1.18,0.187
			c0.375,0.385,1.631,0.876,3,1.047c-0.649-0.346-1.515-0.743-2.59-1.147c-0.365-0.138-0.617-0.475-0.645-0.864
			c-0.443-6.144-1.397-8.561-2.119-9.507c-0.335-0.439-0.251-1.066,0.188-1.401c0.438-0.336,1.066-0.251,1.401,0.188
			c1.256,1.646,2.067,4.902,2.476,9.943c4.937,1.962,4.748,3.272,4.666,3.844c-0.059,0.41-0.364,0.742-0.769,0.833
			c-2.195,0.499-5.061-0.161-6.507-1.11c-0.827,0.234-1.993,0.385-2.768,0.466c-1.39,3.334-2.147,3.603-2.441,3.707
			C70.207,120.767,69.981,120.801,69.747,120.801z"/>
	</g>
	<g>
		<path fill="#010101" d="M75.027,103.081c-0.259,0-0.516-0.103-0.708-0.311c-0.135-0.146-0.802-0.951-0.707-2.477
			c0.035-0.551,0.514-0.971,1.061-0.936c0.551,0.035,0.97,0.509,0.936,1.061c-0.043,0.692,0.197,1.012,0.207,1.026
			c0.326,0.424,0.276,1.048-0.133,1.393C75.491,102.999,75.258,103.081,75.027,103.081z"/>
	</g>
	<g>
		<g>
			<path fill="#010101" d="M71.451,96.5c1.29,0,1.29-2,0-2S70.162,96.5,71.451,96.5L71.451,96.5z"/>
		</g>
	</g>
	<g>
		<path fill="#FFFFFF" d="M83.855,105.026c0,0-1.473-0.383-1.673-1.552c-0.2-1.169,0.559-2.955,2.035-2.643
			C85.694,101.145,85.591,104.812,83.855,105.026z"/>
		<path fill="#010101" d="M83.855,106.026c-0.084,0-0.169-0.011-0.251-0.032c-0.779-0.203-2.164-0.926-2.408-2.351
			c-0.17-0.994,0.145-2.171,0.785-2.93c0.621-0.736,1.521-1.055,2.443-0.86c1.157,0.246,1.888,1.491,1.818,3.099
			c-0.072,1.677-0.982,2.909-2.265,3.067C83.937,106.024,83.896,106.026,83.855,106.026z M83.883,101.795
			c-0.054,0-0.199,0-0.374,0.207c-0.263,0.312-0.414,0.885-0.342,1.303c0.053,0.312,0.432,0.542,0.698,0.662
			c0.128-0.111,0.248-0.348,0.317-0.643c0.176-0.753-0.047-1.427-0.192-1.522C83.965,101.8,83.922,101.795,83.883,101.795z"/>
	</g>
	<g>
		<path fill="#FFFFFF" d="M69.694,101.561c-0.37,0.733-0.423,1.205-0.206,2.146c0.331,1.438,2.708,1.379,3.345,1.287
			c2.378-0.343,4.854-0.369,4.854-1.696c0-1.206-2.111-2.271-5.062-1.422"/>
		<path fill="#010101" d="M72.18,106.035c-1.307,0-3.269-0.377-3.667-2.104c-0.266-1.155-0.193-1.866,0.288-2.82
			c0.25-0.493,0.851-0.691,1.343-0.443c0.493,0.249,0.691,0.85,0.443,1.343c-0.254,0.504-0.295,0.729-0.125,1.471
			c0.114,0.498,1.528,0.621,2.228,0.522c0.413-0.06,0.829-0.11,1.234-0.159c0.945-0.114,2.527-0.305,2.789-0.611
			c-0.028,0.027-0.081-0.079-0.248-0.204c-0.582-0.438-1.91-0.668-3.564-0.194c-0.53,0.155-1.084-0.154-1.237-0.685
			c-0.153-0.531,0.154-1.085,0.685-1.237c2.098-0.602,4.088-0.41,5.32,0.518c0.657,0.495,1.019,1.157,1.019,1.865
			c0,1.988-2.299,2.265-4.523,2.534c-0.391,0.047-0.791,0.095-1.188,0.152C72.769,106.013,72.493,106.035,72.18,106.035z"/>
	</g>
</g>
<g id="Ebene_8">
</g>
</svg>
