<?xml version="1.0" encoding="utf-8"?>
<!-- Generator: Adobe Illustrator 16.0.0, SVG Export Plug-In . SVG Version: 6.00 Build 0)  -->
<!DOCTYPE svg PUBLIC "-//W3C//DTD SVG 1.1//EN" "http://www.w3.org/Graphics/SVG/1.1/DTD/svg11.dtd">
<svg version="1.1" xmlns="http://www.w3.org/2000/svg" xmlns:xlink="http://www.w3.org/1999/xlink" x="0px" y="0px" width="400px"
	 height="300px" viewBox="0 0 400 300" enable-background="new 0 0 400 300" xml:space="preserve">
<g id="weiß">
	<path fill="#FFFFFF" d="M322.25,167.5c0,0,24,18,31.5,18.25s7.5,0.25,7.5,0.25s29-62.25,30-69.75c-3-4.75-5.5-5.5-11.5-8.25
		s-21.5-12.5-26.5-8.25S322,165.5,322.25,167.5z"/>
	<path fill="#FFFFFF" d="M246.5,241.5c0,0,35-15,55-46.5c10.5-17,11.75-26.75,12-29s2.75-11.25,2.25-21.25s-3.5-34-20.5-56.75
		s-54-46.25-94.25-41.5s-60.5,31-62,32.75s-24.75,36.25-26,48.5s-1.75,37.5,5.25,55.25c7.75,14.75,15.25,25.75,16.25,28.5
		s28.5,33.75,75.5,36C230.5,246.75,246.5,241.5,246.5,241.5z"/>
	<path fill="#FFFFFF" d="M43.5,206.5c0,0,0,1.5,9.25-2s26.5-11.75,28-16.25s-28-68.75-28-68.75s0.5-3.75-17,2.25
		S13,134.25,12.75,137S35.5,198.75,43.5,206.5z"/>
</g>
<g id="Ebene_6">
</g>
<g id="blau">
	<path fill="none" stroke="#BFC2C9" stroke-width="2" stroke-linecap="round" stroke-linejoin="round" stroke-miterlimit="10" d="
		M301.91,98.949c0,0-37.48-67.489-117.631-45.077c-80.15,22.412-70.4,91.546-65.842,125.354
		c3.039,20.259,47.103,69.386,106.36,67.36s94.207-74.956,91.421-102.813c-2.787-27.858-19.287-91.274-103.07-96.739
		c-64.829-3.798-99.523,63.817-100.788,90.154c-2.279,15.7,3.039,39.252,9.623,53.18c6.331,11.903,20.006,48.117,84.075,56.727
		c17.98,0.252,59.514,0.505,97.751-54.447c5.825-8.863,20.766-32.67-1.013-88.887"/>
	<path fill="none" stroke="#BFC2C9" stroke-width="2" stroke-linecap="round" stroke-linejoin="round" stroke-miterlimit="10" d="
		M216.5,242.75l2-1.5l-3-0.25l5.25-3.5l-5.25,1l6.75-4.75L215,234.5l15.75-15.5l-21.5,16l21-23.75l-28,22
		c0,0,26.5-27.75,27.75-29.25s-30.25,26-30.25,26l31-31.5L201,224.75L227.25,196l-24.75,23.5l23.75-34.25L201.75,215l20-32.25
		l-24.25,32c0,0,19-33.75,18.25-31.75s-25.25,29.75-25.25,29.75c2.75-1.5,20.5-28.25,18.5-30.5c-0.25,3-23.25,29-23.25,29L206.5,182
		c0,0-25.25,28.5-23,27s19.25-29.5,19.25-29.5L180.5,207c0,0,17-23,17.5-28c0,2-18.25,21.5-18.25,21.5l14-19.25l-15.75,15l12-17.75
		l-13.25,14l8.25-14c0,0-11,14.5-11.25,13.25s4.5-8.5,4.5-10s-9,11.25-9,10.5s1.75-3.5,2.5-6s-4.5,5.75-4.75,4s1.5-3.5,1.5-4.5
		s-4.5,1.25-4.25,0s4.5-4.75,3.5-5.5s-12.75,9-12.75,8s7.75-12.5,7.75-12.5L151,187.25l4.5-6.5l-8.25,5.5l4-7.75L141,186.25
		l22.25-25.5L135,184.5c0,0,33.25-32,33-33.5s-37.75,34.25-37.5,33.25s35.5-36.5,35.5-36.5s-38,35-38.25,34.25s48-48.5,48-48.5
		l-50.5,46.75l43.5-46.75c-3,1.25-43.5,46.75-44.5,42.25c6.25-5.75,50-51.75,49.5-55.25s-50.25,54.75-50.25,50.75s47.5-51,46.5-52.5
		s-46.75,48.75-47,43.75s45.25-47,43.25-48.25S121.5,159,122.5,155s37.25-35.75,37.25-38.75s-37.5,34.75-37,31.75
		s38.25-38.5,36.75-38.5s-39,36-39.25,35s4.5-9.75,41.25-39.75c-3.25,0-28.75,22-41.25,32c2.25-5.25,24-25.25,36.25-34.25
		c-5-0.25-32.75,23-32.75,23c1-4.5,18.75-22.5,27.75-25.5c-11-2.25-26.25,17-26.25,17s13-17,24-20c-8.25,1.5-12.5,4.25-12.5,4.25"/>
	<path fill="none" stroke="#BFC2C9" stroke-width="2" stroke-linecap="round" stroke-linejoin="round" stroke-miterlimit="10" d="
		M190,94.25l9.25-6.25L191,95.5c0,0,11-7.25,12-6.75s-8,6.25-9.25,8"/>
	<path fill="none" stroke="#BFC2C9" stroke-width="2" stroke-linecap="round" stroke-linejoin="round" stroke-miterlimit="10" d="
		M271.5,216c0,0,7-2.25,8.25-4.75s-6,0-6,0s9.75-5.25,10.5-7.75c-2,1.25-12.5,4-12.5,4s21.329-14.61,19.25-13.75
		c-7.25,3-23,10-23,10s24-12,25-15s-27,14.75-28.5,10c6.5-3.25,30-16,30-16l-33,12.25l31.5-18.75l-34.25,13.25l31.5-16.75l-31,13.25
		l26-17.25l-22.75,10.5l30-18.5l-34.75,15.5l36.5-20.5L256.5,173l39-22.75l-41.5,21l36.75-22.5l-39,19.75l26.25-17l-29.5,15.25
		l26-18.75c0,0-31.25,17.25-31.75,18.25s30.75-21,30.75-21s-40.5,21-41,23.25c3.75-4.5,40.75-26.5,40.75-26.5
		s-40.75,20.5-43.75,24.5c4.25-7.25,42-29.5,44.75-28.75c-9.5-0.25-47.75,26.5-47.75,26.5l45-30.25c0,0-47.75,26.5-47.75,27.25
		s46.75-29.5,46.75-29.5s-47,24-48.25,26.5c0,0,14.25-14.75,44.5-28c-8.5,2.25-47.25,23.5-47,24.25s42.5-25.25,42.5-25.25
		s-39,17.5-39.75,18.5s25.75-16.25,28.5-16s-26,7.75-26.5,9s20.25-11.25,20.25-11.25S228.5,135,228,135.75"/>
	<path fill="none" stroke="#BFC2C9" stroke-width="2" stroke-linecap="round" stroke-linejoin="round" stroke-miterlimit="10" d="
		M286.5,144c0,0,25.5-5.75,27-11.25c-9,3.5-29.5,9-29.5,9s26.25-11.5,26.5-13.75s-26,9-28.5,9.5c1.75-2.25,26.5-11.25,26.5-15.25
		c-5,1.5-28.5,12-28.5,12L306.5,118l-30.25,14.25l27.25-15c0,0-32.25,11.5-31.5,11.5s28-15,28-15l-28.75,10.75L296,108.75
		l-25.5,12.5c0,0,19.25-15,20.75-15.5S264,121.25,264,121.25l27.25-22L257,120.75l29-26l-38.5,28.75l37-31.5L241,122.75l42.25-33
		L226.5,127l52-38.25L223,126l53-39l-52.25,34L274,83.75L229,111l11.25-9.75l-18.25,8l4.75-5l-7.25,1l5.25-4l-10,3.25l9-5.75"/>
	
		<polyline fill="none" stroke="#BFC2C9" stroke-width="2" stroke-linecap="round" stroke-linejoin="round" stroke-miterlimit="10" points="
		253.25,92 274.5,80.75 248.75,90.5 271.75,77.5 241,93 269.75,74.5 237.5,90.75 266.5,73 230.75,90 260.5,71.5 230.25,87 256.5,70 
		236,79.75 254,68 236.75,77.25 252,66.25 237.5,73.5 245.25,66 	"/>
</g>
<g id="schwarz">
	<path fill="none" stroke="#000000" stroke-width="2" stroke-linecap="round" stroke-linejoin="round" stroke-miterlimit="10" d="
		M291.653,97.429c0,0,34.189-1.266,43.558-2.532c-12.156,6.583-26.338,9.117-39.253,18.487"/>
	
		<polyline fill="none" stroke="#000000" stroke-width="2" stroke-linecap="round" stroke-linejoin="round" stroke-miterlimit="10" points="
		319.763,96.668 319.763,101.988 314.444,97.175 314.698,103.759 308.113,97.429 308.113,105.279 298.996,97.683 299.504,108.571 	
		"/>
	<path fill="none" stroke="#000000" stroke-width="2" stroke-linecap="round" stroke-linejoin="round" stroke-miterlimit="10" d="
		M122.644,124.482c0,0-17.455,4.336-27.792,4.723c6.876,3.067,23.564,2.661,27.194,7.153"/>
	
		<polyline fill="none" stroke="#000000" stroke-width="2" stroke-linecap="round" stroke-linejoin="round" stroke-miterlimit="10" points="
		101.597,131.754 105.533,128.886 106.576,131.48 111.636,127.47 113.492,132.209 118.75,125.25 120.088,135.091 	"/>
	<path fill="none" stroke="#000000" stroke-width="2" stroke-linecap="round" stroke-linejoin="round" stroke-miterlimit="10" d="
		M42.208,199.386c0,0,2.078,5.8,4.219,6.358c2.142,0.558,2.205,1.241,8.47-1.752c6.264-2.994,25.042-12.581,25.892-14.063
		c0.849-1.478,1.666-0.668-0.669-6.511c-2.334-5.845-26.159-60.282-27.117-61.204c-0.958-0.92-4.267-2.078-8.861-0.438
		c-5.995,2.141-29.4,9.615-29.512,11.875c-0.111,2.26,28.627,68.117,30.302,69.59c1.675,1.476,2.861,4.728,15.489-2.312
		c12.272-6.843,20.985-11.68,20.368-15.596c-0.615-3.913-25.74-64.626-28.333-65.855c-2.595-1.227-8.533-1.641-35.332,10.864
		c-2.948,1.377-1.413,5.045-0.935,6.493c9.167,23.528,28.711,67.051,28.711,67.051"/>
	
		<polyline fill="none" stroke="#000000" stroke-width="2" stroke-linecap="round" stroke-linejoin="round" stroke-miterlimit="10" points="
		21.824,138.843 48.406,193.758 75.865,180.085 50.047,125.059 23.027,138.186 47.641,196.931 74.114,182.819 52.236,125.387 
		22.59,136.874 	"/>
	<path fill="none" stroke="#000000" stroke-width="2" stroke-linecap="round" stroke-linejoin="round" stroke-miterlimit="10" d="
		M67.065,191.479c0,0-7.854,2.155-7.154,3.3c0.7,1.142,5.561-1.099,7.339-2.279c1.779-1.185-0.206-1.961-4.424,0.096
		c-4.22,2.055-4.528,3.442-2.381,2.948c2.146-0.495,9.58-4.204,7.463-4.235C67.578,191.304,67.065,191.479,67.065,191.479z"/>
	<path fill="none" stroke="#000000" stroke-width="2" stroke-linecap="round" stroke-linejoin="round" stroke-miterlimit="10" d="
		M357.227,183.146c0,0,20.551-43.056,30.292-66.351c0.517-1.435,2.14-5.065-0.699-6.475c-25.793-12.799-31.612-12.466-34.189-11.279
		c-2.576,1.188-29.152,61.28-29.885,65.166c-0.733,3.889,7.626,8.817,19.402,15.79c12.115,7.175,13.382,3.953,15.069,2.506
		c1.687-1.442,31.966-66.606,31.931-68.856c-0.034-2.251-22.674-10-28.466-12.209c-4.438-1.693-7.711-0.585-8.679,0.319
		c-0.968,0.905-26.063,54.767-28.539,60.552c-2.477,5.785-1.651,4.99-0.87,6.473c0.781,1.485,18.828,11.275,24.854,14.338
		c6.026,3.061,6.112,2.382,8.225,1.855c2.111-0.528,5.381-6.277,5.381-6.277s30.165-59.799,30.697-63.171
		c-0.532,11.534-31.94,70.269-31.94,70.269"/>
	
		<polyline fill="none" stroke="#000000" stroke-width="2" stroke-linecap="round" stroke-linejoin="round" stroke-miterlimit="10" points="
		381.814,118.365 353.777,172.485 328.62,159.403 356.794,105.235 380.395,117.478 354.665,175.147 330.242,162.146 355.02,105.589 
		380.75,116.413 	"/>
	<path fill="none" stroke="#000000" stroke-width="2" stroke-linecap="round" stroke-linejoin="round" stroke-miterlimit="10" d="
		M335.961,170.505c0,0,7.609,2.248,6.887,3.377c-0.721,1.127-5.4-1.165-7.102-2.364c-1.698-1.203,0.267-1.949,4.323,0.153
		c4.059,2.101,4.313,3.485,2.231,2.966c-2.082-0.521-9.23-4.312-7.159-4.313C335.465,170.322,335.961,170.505,335.961,170.505z"/>
	<path fill="none" stroke="#000000" stroke-width="2" stroke-linecap="round" stroke-linejoin="round" stroke-miterlimit="10" d="
		M43.65,207.583c0,0-15.792-25.729-30.698-70.8"/>
</g>
<g id="orange">
	<path fill="none" stroke="#F5952F" stroke-width="2" stroke-linecap="round" stroke-linejoin="round" stroke-miterlimit="10" d="
		M38.5,118c9.5-37.5,41.75-14.75,54,10.5c18.25-22.75,35.5-51.5,111-63c54.751-8.34,95.917,3.833,133.75,27.75
		C364.75,62,363,97,363,97s2-15.25-3.75-17.5s-18.5,5.75-23.25,14.25c-6.5-6-53.25-43.75-129.75-31S91.5,128,91.5,128
		S81,95.25,55.5,97.25C38.25,98.5,38.5,118,38.5,118"/>
	<path fill="none" stroke="#F5952F" stroke-width="2" stroke-linecap="round" stroke-linejoin="round" stroke-miterlimit="10" d="
		M334.75,98.5c0,0,1.5,2.5,5.5-0.75"/>
	<path fill="none" stroke="#F5952F" stroke-width="2" stroke-linecap="round" stroke-linejoin="round" stroke-miterlimit="10" d="
		M333.5,100.75c0,0,3.75,3.75,7.5,0"/>
	<path fill="none" stroke="#F5952F" stroke-width="2" stroke-linecap="round" stroke-linejoin="round" stroke-miterlimit="10" d="
		M334.25,89c0,0,2-2.25,3.75-0.75"/>
	<path fill="none" stroke="#F5952F" stroke-width="2" stroke-linecap="round" stroke-linejoin="round" stroke-miterlimit="10" d="
		M333,86.25c0,0,3-3.25,5.5-1.25"/>
	<path fill="none" stroke="#F5952F" stroke-width="2" stroke-linecap="round" stroke-linejoin="round" stroke-miterlimit="10" d="
		M90.75,132.25c0,0,2.25,2.75,5.25,1"/>
	<path fill="none" stroke="#F5952F" stroke-width="2" stroke-linecap="round" stroke-linejoin="round" stroke-miterlimit="10" d="
		M89,134.5c0,0,3.75,3.5,8.5,1"/>
	<path fill="none" stroke="#F5952F" stroke-width="2" stroke-linecap="round" stroke-linejoin="round" stroke-miterlimit="10" d="
		M91.75,122.5c0,0,2.25-1,4.25,0.75"/>
	<path fill="none" stroke="#F5952F" stroke-width="2" stroke-linecap="round" stroke-linejoin="round" stroke-miterlimit="10" d="
		M90,119.5c0,0,6-2.5,8.25,0.5"/>
	<path fill="none" stroke="#F5952F" stroke-width="2" stroke-linecap="round" stroke-linejoin="round" stroke-miterlimit="10" d="
		M366.25,95.25c0,0,2,1.25,1,3"/>
	<path fill="none" stroke="#F5952F" stroke-width="2" stroke-linecap="round" stroke-linejoin="round" stroke-miterlimit="10" d="
		M369,93.25c0,0,3.25,2.75,2,5.75"/>
	<path fill="none" stroke="#F5952F" stroke-width="2" stroke-linecap="round" stroke-linejoin="round" stroke-miterlimit="10" d="
		M36.5,115.75c0,0-3.5,0.5-3.5,3.75"/>
	<path fill="none" stroke="#F5952F" stroke-width="2" stroke-linecap="round" stroke-linejoin="round" stroke-miterlimit="10" d="
		M36.5,111.5c0,0.75-8.25,1.5-7,8.75"/>
</g>
<g id="Sparcles" display="none">
	<g display="inline">
		<g>
			<path fill="#F5952F" d="M197,56.083c3.869,0,3.869-6,0-6S193.131,56.083,197,56.083L197,56.083z"/>
		</g>
	</g>
	<g display="inline">
		<g>
			<path fill="#F5952F" d="M204.029,42.75c3.869,0,3.869-6,0-6S200.16,42.75,204.029,42.75L204.029,42.75z"/>
		</g>
	</g>
	<g display="inline">
		<g>
			<path fill="#F5952F" d="M71.286,112.537c3.869,0,3.869-6,0-6S67.417,112.537,71.286,112.537L71.286,112.537z"/>
		</g>
	</g>
	<g display="inline">
		<g>
			<path fill="#F5952F" d="M313.5,190.75c3.869,0,3.869-6,0-6S309.631,190.75,313.5,190.75L313.5,190.75z"/>
		</g>
	</g>
	<g display="inline">
		<g>
			<path fill="#F5952F" d="M316.5,203.75c3.869,0,3.869-6,0-6S312.631,203.75,316.5,203.75L316.5,203.75z"/>
		</g>
	</g>
	<g display="inline">
		<g>
			<path fill="#F5952F" d="M81.965,82.05c3.869,0,3.869-6,0-6S78.096,82.05,81.965,82.05L81.965,82.05z"/>
		</g>
	</g>
	<g display="inline">
		<g>
			<path fill="#F5952F" d="M312.25,218.5c3.869,0,3.869-6,0-6S308.381,218.5,312.25,218.5L312.25,218.5z"/>
		</g>
	</g>
	<g display="inline">
		<g>
			<path fill="#F5952F" d="M76,89.25c3.869,0,3.869-6,0-6S72.131,89.25,76,89.25L76,89.25z"/>
		</g>
	</g>
	<g display="inline">
		<g>
			<path fill="#F5952F" d="M70.041,97.953c3.869,0,3.869-6,0-6S66.172,97.953,70.041,97.953L70.041,97.953z"/>
		</g>
	</g>
	<g display="inline">
		<g>
			<path fill="#F5952F" d="M112.5,158.5c3.869,0,3.869-6,0-6S108.631,158.5,112.5,158.5L112.5,158.5z"/>
		</g>
	</g>
	<g display="inline">
		<g>
			<path fill="#F5952F" d="M198.667,74.417c3.869,0,3.869-6,0-6S194.798,74.417,198.667,74.417L198.667,74.417z"/>
		</g>
	</g>
	<g display="inline">
		<g>
			<path fill="#F5952F" d="M328.833,113.417c3.869,0,3.869-6,0-6S324.964,113.417,328.833,113.417L328.833,113.417z"/>
		</g>
	</g>
	<g display="inline">
		<g>
			<path fill="#F5952F" d="M183.75,182.5c3.869,0,3.869-6,0-6S179.881,182.5,183.75,182.5L183.75,182.5z"/>
		</g>
	</g>
	<g display="inline">
		<g>
			<path fill="#F5952F" d="M77.25,170.5c3.869,0,3.869-6,0-6S73.381,170.5,77.25,170.5L77.25,170.5z"/>
		</g>
	</g>
	<g display="inline">
		<g>
			<path fill="#F5952F" d="M324.75,186.948c3.869,0,3.869-6,0-6S320.881,186.948,324.75,186.948L324.75,186.948z"/>
		</g>
	</g>
	<g display="inline">
		<g>
			<path fill="#F5952F" d="M143.75,222c3.869,0,3.869-6,0-6S139.881,222,143.75,222L143.75,222z"/>
		</g>
	</g>
	<g display="inline">
		<g>
			<path fill="#F5952F" d="M286.5,169.5c3.869,0,3.869-6,0-6S282.631,169.5,286.5,169.5L286.5,169.5z"/>
		</g>
	</g>
	<g display="inline">
		<g>
			<path fill="#F5952F" d="M236.5,209c3.869,0,3.869-6,0-6S232.631,209,236.5,209L236.5,209z"/>
		</g>
	</g>
	<g display="inline">
		<g>
			<path fill="#F5952F" d="M214.25,174c3.869,0,3.869-6,0-6S210.381,174,214.25,174L214.25,174z"/>
		</g>
	</g>
	<g display="inline">
		<g>
			<path fill="#F5952F" d="M176.5,201.5c3.869,0,3.869-6,0-6S172.631,201.5,176.5,201.5L176.5,201.5z"/>
		</g>
	</g>
	<g display="inline">
		<g>
			<path fill="#F5952F" d="M208,92.75c3.869,0,3.869-6,0-6S204.131,92.75,208,92.75L208,92.75z"/>
		</g>
	</g>
</g>
</svg>
