<?xml version="1.0" encoding="utf-8"?>
<!-- Generator: Adobe Illustrator 16.0.0, SVG Export Plug-In . SVG Version: 6.00 Build 0)  -->
<!DOCTYPE svg PUBLIC "-//W3C//DTD SVG 1.1//EN" "http://www.w3.org/Graphics/SVG/1.1/DTD/svg11.dtd">
<svg version="1.1" xmlns="http://www.w3.org/2000/svg" xmlns:xlink="http://www.w3.org/1999/xlink" x="0px" y="0px" width="400px"
	 height="300px" viewBox="0 0 400 300" enable-background="new 0 0 400 300" xml:space="preserve">
<g id="weiß">
	<path fill="#FFFFFF" d="M302.667,185.334c0,0-3.668-7.334-3.334-23.334s-1.334-108,1-109.333s38.666-12,72,0.667
		c2,14.667,1.001,126-0.666,130s-19.001,7-40.334,6.333S302.667,185.334,302.667,185.334z"/>
	<path fill="#FFFFFF" d="M225.5,187c0,0-3.75-2.75-3-12.75s-1.25-120.5,1-122.25s-1.5-3,15.5-3.75s43-1.25,47.75-0.5s6,4.25,6,7.25
		s1.5,125.25,1.25,126.75s2,6.5-12,7.5S231.5,194,225.5,187z"/>
	<path fill="#FFFFFF" d="M149,188.25c0,0-4.75,2.75-6.5-5.5s-2-129,1.75-132.5s14.5-4.5,41.5-3.25c12.5,0.25,18.5-1.5,22.5,0.75
		s7.75,6,8.25,18s-1.25,70-1,77.5s1,39-4,42S163.5,192.5,149,188.25z"/>
	<path fill="#FFFFFF" d="M74,191.25c0,0-8.25-0.25-9-8.25S64,53.75,67.25,52s57.25-9.75,66.25-0.25c2.75,8.5,4.5,117.75,2.25,130.25
		c-0.75,3.5-1.25,6.5-7.25,7.5S74,191.25,74,191.25z"/>
	<polygon fill="#FFFFFF" points="89.25,219.5 90.75,194.25 106.5,193.5 106.5,218.5 98.5,219.5 96.25,236.5 96.5,219 	"/>
	<path fill="#FFFFFF" d="M168,214l-0.5-19.75l17.25-0.75c0,0,2.221,15.543-1.75,21.5C175.25,216,168,214,168,214z"/>
	<path fill="#FFFFFF" d="M251.5,215l-3-1.5c0,0-2.012-16.238,0.75-19c5.75-0.5,18-0.5,18-0.5l0.25,7.25l1,12.5l-7.75,1L251.5,215z"
		/>
	<path fill="#FFFFFF" d="M328.75,193.25c0,0,14.5-2,15-0.5s1,18.75,1,18.75l-4.5,2.25l-1.25,14.5l-1.5-14.5l-7.5-0.5L328.75,193.25z
		"/>
	<polygon fill="#FFFFFF" points="39,265.25 41,262.25 382.25,260.75 379,263.5 	"/>
</g>
<g id="schwarz_1_">
	<path fill="none" stroke="#000000" stroke-width="2" stroke-linecap="round" stroke-linejoin="round" stroke-miterlimit="10" d="
		M301,58.25c0,0-3.167,117.25-0.5,121.75s2.5,8,22.333,9c25.321,1.276,48.166,0.834,49.5-7.666s3-122.334,0-127s-5-5.5-35-6.167
		s-36.834,2.333-38,7.5C297.875,64.375,297,176,301,182.625s15,10.125,61.625,3.125c5.125-1.25,8.125-2.375,9.125-9.5
		s3.125-117.25-1-123s-66.625-10.375-71.375,0.875"/>
	
		<polyline fill="none" stroke="#000000" stroke-width="2" stroke-linecap="round" stroke-linejoin="round" stroke-miterlimit="10" points="
		305.375,63 305.375,173.125 367,172.875 366.375,63.375 306.75,62.125 306.625,171.75 368.375,174.25 368.75,62.5 307.625,63.25 	
		"/>
	<path fill="none" stroke="#000000" stroke-width="2" stroke-linecap="round" stroke-linejoin="round" stroke-miterlimit="10" d="
		M341,177.25c0,0-13.875,0.75-14.125,2.875s-2.057,2,14.625,2c0,0,5.375,0.5,3.875-1.5s-8.5-4.625-16.875-2s0.375,5,11.125,4.625
		s6.875-5.875-0.75-6.25"/>
	<path fill="none" stroke="#000000" stroke-width="2" stroke-linecap="round" stroke-linejoin="round" stroke-miterlimit="10" d="
		M222.5,55.75c0,0-0.375,125.625,0.5,127.25s2,7.375,13.375,7.875s46.174-0.406,48.25-0.875c3.875-0.875,9-11.125,8.75-18.625
		c-0.125-9.25-0.25-116.75-3.125-119.75s-58.75-4.875-62.75-2.75s-4.5,3.375-4.75,7.75s-0.125,124,2.125,127.375
		c2.75,4.5,5.25,10.625,61.625,5.25c2.75-0.5,7.25-1.75,7.25-9.125s0.375-126.25-1.75-129s-2-3.5-11.625-3.625s-45.5-2.5-57.25,6.25
		"/>
	
		<polyline fill="none" stroke="#000000" stroke-width="2" stroke-linecap="round" stroke-linejoin="round" stroke-miterlimit="10" points="
		228.75,63.75 229,173.5 288.625,174.25 286.875,64.5 230.375,64.125 230.125,171.75 285.625,171.625 288,63.875 229.375,62.625 	
		"/>
	<path fill="none" stroke="#000000" stroke-width="2" stroke-linecap="round" stroke-linejoin="round" stroke-miterlimit="10" d="
		M264.5,179.625c0,0-18.75-1-16.375,2.75s20.375,2.75,18.375,0s-19.125-4.125-19.5-0.125s22.75,2.75,20.75,0.25
		s-8.875-2.125-8.875-2.125"/>
	<path fill="none" stroke="#000000" stroke-width="2" stroke-linecap="round" stroke-linejoin="round" stroke-miterlimit="10" d="
		M142.5,178.375c0,0-0.625,7.125,8.125,9.375s56.625,2.75,60.375-1.5s4.5-0.5,4.5-61.875s6.75-78.125-15.25-77.875
		s-54.25-3.375-57,6.25s-2,127.625-1,130.5s-1.875,12,64.25,3c4.012-0.546,5.375-1.875,5.875-6.875s2.5-117,0.875-121.75
		s-0.25-8.5-15-9.375s-49-5.25-54,1.75S142.5,178.375,142.5,178.375z"/>
	
		<polyline fill="none" stroke="#000000" stroke-width="2" stroke-linecap="round" stroke-linejoin="round" stroke-miterlimit="10" points="
		147,175 148.25,61.75 208.5,61 207.125,174.25 149.125,175 149.25,63.25 209.5,62.5 209.75,174.125 150.25,173.5 	"/>
	<path fill="none" stroke="#000000" stroke-width="2" stroke-linecap="round" stroke-linejoin="round" stroke-miterlimit="10" d="
		M173.75,179.75c0,0-5.125,0.75-4,3s14,2.25,16.25,1s1.5-3.75-4.75-4s-14.75,2.5-11.25,4.375s21.75-1.5,17.125-3.625
		c-4.625-1.625-18.125-0.5-18.375,1.875"/>
	<path fill="none" stroke="#000000" stroke-width="2" stroke-linecap="round" stroke-linejoin="round" stroke-miterlimit="10" d="
		M64.25,175.375c0,0-0.75,10.625,2.25,13s2.625,3.5,14.625,3.125s47.375,0.375,49.75-1.375s4.125-2.75,4.5-13.625
		s0.625-118.875-0.25-121s-4-6.5-15-6.875s-52,0-53.75,3.5s-2.125,127.75-0.5,131.25S67,190.5,92,190.5s41.75,0.875,43.5-5.75
		s2.625-128.875-0.625-132.625s-4.25-7-62.25-3.5c-5.625,0.125-5.75,7-6,9.625c-1.875,43.625-1.25,126.125-1.25,126.125"/>
	
		<polyline fill="none" stroke="#000000" stroke-width="2" stroke-linecap="round" stroke-linejoin="round" stroke-miterlimit="10" points="
		71.375,65.5 71,174.125 131.625,174.5 130.375,64.75 72.375,65.375 70,175 130.875,175.75 131.375,65.5 71.375,64.75 	"/>
	<path fill="none" stroke="#000000" stroke-width="2" stroke-linecap="round" stroke-linejoin="round" stroke-miterlimit="10" d="
		M108.125,181.125c0,0-16.75-3.25-16.375,0.375s11.5,3.375,15.875,2.375s1.25-5.125-8.5-4.625s-11.5,3.625-7,4.75
		s21.752,0.026,17.75-2.375C109.25,181.25,108.125,181.125,108.125,181.125z"/>
</g>
<g id="orange">
	<path fill="none" stroke="#F5952F" stroke-width="2" stroke-linecap="round" stroke-linejoin="round" stroke-miterlimit="10" d="
		M329,193.251c0,0-1.75,16.25,0.25,19.75s16-1.5,16-1.5l-2.75-18.75c0,0-11.25-2.25-12.25,0.75s0.25,20,0.25,20l13.5-0.5
		c0,0,2.25-18.5,0.25-20c-2.004-1.502-16.496,0.749-16.5,0.75"/>
	<path fill="none" stroke="#F5952F" stroke-width="2" stroke-linecap="round" stroke-linejoin="round" stroke-miterlimit="10" d="
		M248.5,193.75c0,0-1.75,18.75,0.5,20.25s19.75-0.25,19.75-0.25l-2-19L250,195l0.75,21l14.25-0.75l3-21l-18.5-0.75"/>
	<path fill="none" stroke="#F5952F" stroke-width="2" stroke-linecap="round" stroke-linejoin="round" stroke-miterlimit="10" d="
		M167,194l0.5,19.25l17.75,1l0.25-20l-17-0.5l-0.5,21.5c0,0,13.25,0.25,14.75,0.25s4.25-21,1-22.5s-17.25,2.75-17.25,2.75"/>
	<path fill="none" stroke="#F5952F" stroke-width="2" stroke-linecap="round" stroke-linejoin="round" stroke-miterlimit="10" d="
		M91.25,197.751c0,0-1.25,20-0.5,20.5s15-1,15-1s-0.5-21.25-0.75-22s-14.75,0.25-14.75,0.25l-0.75,24.25c0,0,16.75,0,17-0.75
		s0.25-25.5,0.25-25.5l-16.25,0.25"/>
	
		<polyline fill="none" stroke="#F5952F" stroke-width="2" stroke-linecap="round" stroke-linejoin="round" stroke-miterlimit="10" points="
		337.5,215.252 338.5,260.5 340,214.002 	"/>
	
		<polyline fill="none" stroke="#F5952F" stroke-width="2" stroke-linecap="round" stroke-linejoin="round" stroke-miterlimit="10" points="
		256.75,217 257,258.75 258.5,216.75 	"/>
	
		<polyline fill="none" stroke="#F5952F" stroke-width="2" stroke-linecap="round" stroke-linejoin="round" stroke-miterlimit="10" points="
		173,259 174.5,215.25 175,257.5 	"/>
	
		<polyline fill="none" stroke="#F5952F" stroke-width="2" stroke-linecap="round" stroke-linejoin="round" stroke-miterlimit="10" points="
		96.25,217.5 94.75,260.25 99.25,218.25 	"/>
	<path fill="none" stroke="#F5952F" stroke-width="2" stroke-linecap="round" stroke-linejoin="round" stroke-miterlimit="10" d="
		M39.25,265c0,0,339.25-1.5,340-1.5S41,262.5,41,262.5l340.75-2"/>
</g>
<g id="Sparcles">
	<g>
		<g>
			<path fill="#F5952F" d="M218.707,114.176c3.869,0,3.869-6,0-6S214.838,114.176,218.707,114.176L218.707,114.176z"/>
		</g>
	</g>
	<g>
		<g>
			<path fill="#F5952F" d="M225.736,100.842c3.869,0,3.869-6,0-6S221.867,100.842,225.736,100.842L225.736,100.842z"/>
		</g>
	</g>
	<g>
		<g>
			<path fill="#F5952F" d="M56.414,145.537c3.869,0,3.869-6,0-6S52.545,145.537,56.414,145.537L56.414,145.537z"/>
		</g>
	</g>
	<g>
		<g>
			<path fill="#F5952F" d="M342.5,159.25c3.869,0,3.869-6,0-6S338.631,159.25,342.5,159.25L342.5,159.25z"/>
		</g>
	</g>
	<g>
		<g>
			<path fill="#F5952F" d="M345.5,172.25c3.869,0,3.869-6,0-6S341.631,172.25,345.5,172.25L345.5,172.25z"/>
		</g>
	</g>
	<g>
		<g>
			<path fill="#F5952F" d="M58.987,113.336c3.869,0,3.869-6,0-6S55.118,113.336,58.987,113.336L58.987,113.336z"/>
		</g>
	</g>
	<g>
		<g>
			<path fill="#F5952F" d="M341.25,187c3.869,0,3.869-6,0-6S337.381,187,341.25,187L341.25,187z"/>
		</g>
	</g>
	<g>
		<g>
			<path fill="#F5952F" d="M55.049,121.817c3.869,0,3.869-6,0-6S51.18,121.817,55.049,121.817L55.049,121.817z"/>
		</g>
	</g>
	<g>
		<g>
			<path fill="#F5952F" d="M51.5,131.75c3.869,0,3.869-6,0-6S47.631,131.75,51.5,131.75L51.5,131.75z"/>
		</g>
	</g>
	<g>
		<g>
			<path fill="#F5952F" d="M85,260.25c3.869,0,3.869-6,0-6S81.131,260.25,85,260.25L85,260.25z"/>
		</g>
	</g>
	<g>
		<g>
			<path fill="#F5952F" d="M220.374,132.509c3.869,0,3.869-6,0-6S216.505,132.509,220.374,132.509L220.374,132.509z"/>
		</g>
	</g>
	<g>
		<g>
			<path fill="#F5952F" d="M328.833,113.417c3.869,0,3.869-6,0-6S324.964,113.417,328.833,113.417L328.833,113.417z"/>
		</g>
	</g>
	<g>
		<g>
			<path fill="#F5952F" d="M184.125,190.362c3.869,0,3.869-6,0-6S180.256,190.362,184.125,190.362L184.125,190.362z"/>
		</g>
	</g>
	<g>
		<g>
			<path fill="#F5952F" d="M67.75,192.75c3.869,0,3.869-6,0-6S63.881,192.75,67.75,192.75L67.75,192.75z"/>
		</g>
	</g>
	<g>
		<g>
			<path fill="#F5952F" d="M353.75,155.448c3.869,0,3.869-6,0-6S349.881,155.448,353.75,155.448L353.75,155.448z"/>
		</g>
	</g>
	<g>
		<g>
			<path fill="#F5952F" d="M138.75,254c3.869,0,3.869-6,0-6S134.881,254,138.75,254L138.75,254z"/>
		</g>
	</g>
	<g>
		<g>
			<path fill="#F5952F" d="M288.293,189.172c3.869,0,3.869-6,0-6S284.424,189.172,288.293,189.172L288.293,189.172z"/>
		</g>
	</g>
	<g>
		<g>
			<path fill="#F5952F" d="M236.5,209c3.869,0,3.869-6,0-6S232.631,209,236.5,209L236.5,209z"/>
		</g>
	</g>
	<g>
		<g>
			<path fill="#F5952F" d="M214.25,174c3.869,0,3.869-6,0-6S210.381,174,214.25,174L214.25,174z"/>
		</g>
	</g>
	<g>
		<g>
			<path fill="#F5952F" d="M180.5,202.25c3.869,0,3.869-6,0-6S176.631,202.25,180.5,202.25L180.5,202.25z"/>
		</g>
	</g>
	<g>
		<g>
			<path fill="#F5952F" d="M229.707,150.842c3.869,0,3.869-6,0-6S225.838,150.842,229.707,150.842L229.707,150.842z"/>
		</g>
	</g>
</g>
</svg>
