<?xml version="1.0" encoding="utf-8"?>
<!-- Generator: Adobe Illustrator 16.0.0, SVG Export Plug-In . SVG Version: 6.00 Build 0)  -->
<!DOCTYPE svg PUBLIC "-//W3C//DTD SVG 1.1//EN" "http://www.w3.org/Graphics/SVG/1.1/DTD/svg11.dtd">
<svg version="1.1" xmlns="http://www.w3.org/2000/svg" xmlns:xlink="http://www.w3.org/1999/xlink" x="0px" y="0px" width="400px"
	 height="300px" viewBox="0 0 400 300" enable-background="new 0 0 400 300" xml:space="preserve">
<g id="schwarz_1_">
	<path fill="#FFFFFF" d="M335.5,260.5c0,0,7.5,1.75,9-1.75s3-10.25,3-10.25s3,0,3.25-2.5s-6-18.25-6-18.25s-8-29-13-30.75
		S298,195,298,195s-220.75-1-226-0.75s-15,2-15.5,4.25S45.25,231,45.25,231s-5,13.5-5,15.5l1.417,1.833
		c0,0,2.416,12.501,5.333,12.667S315.833,263,335.5,260.5z"/>
	<path fill="none" stroke="#000000" stroke-width="2" stroke-linecap="round" stroke-linejoin="round" stroke-miterlimit="10" d="
		M90.833,194.667c0,0-26.333-5.001-33,7.333S38.667,243.667,41,247.667s281.333,3.999,296,1.666S354.001,250,347.667,236
		s-10-39.667-19-40s-260.667-5.833-269,0.167s-20,52.499-14.667,54.166s280.999,3,285.333,3s16-1.666,15.667-10.666
		s-10.333-42.666-19.333-45S69.333,195,69.333,195"/>
	
		<polyline fill="none" stroke="#000000" stroke-width="2" stroke-linecap="round" stroke-linejoin="round" stroke-miterlimit="10" points="
		308.167,198.333 319.834,243.833 77.5,241.667 92.333,198.667 306.167,199.5 321.334,242.5 76,241.167 90.5,199 	"/>
	<path fill="none" stroke="#000000" stroke-width="2" stroke-linecap="round" stroke-linejoin="round" stroke-miterlimit="10" d="
		M325,215.167c0,0-4.334,2.5-1,7.5s7.833,2.999,7-0.834s-7-10.334-8.5-6s2.166,14.666,6.5,10.5s0.834-11.5-2.333-11.5"/>
	<path fill="none" stroke="#000000" stroke-width="2" stroke-linecap="round" stroke-linejoin="round" stroke-miterlimit="10" d="
		M42.167,248.5c0,0,1,9.167,5.333,12.167c5.83,4.036,278.333,2,289-1s11.833-10,11-11.167s2.334,9.333-5.833,11.833
		S49,262.834,46.167,260.667S42.167,248.5,42.167,248.5"/>
</g>
<g id="weiß">
	<path fill="#FFFFFF" d="M309.333,149.333c0,0-17.258-2.808-17.333,5.667s-0.445,19.64,8.277,20.653s17.056-2.652,18.056-6.986
		s1.334-11.333-2.666-15S309.333,149.333,309.333,149.333"/>
	<polyline fill="#FFFFFF" points="330.617,90.43 317.222,110.263 336.5,125.833 339.333,126.667 352.886,103.13 330.617,90.43 	"/>
	<path fill="#FFFFFF" d="M341.333,77.167c0,0,7.119,18.782,11.727,18.308S372.833,84.5,372.833,84.5l-11.666-19.667L341.333,77.167"
		/>
	<path fill="#FFFFFF" d="M360.834,18.333l-6.5,25.333l24.833,5.833c0,0,7.169-22.617,6.251-24.309S360.834,18.333,360.834,18.333z"
		/>
	<path fill="#FFFFFF" d="M226,96.167L248,84c0,0,9.501,15.5,9.667,20.5c-8.667,3.667-22,9-22,9L226,96.167z"/>
	<path fill="#FFFFFF" d="M270,30l-15.833,32.833L220.5,44.667c0,0,13.999-25.333,16.333-25.833s31,8.833,31,8.833L270,30z"/>
	<path fill="#FFFFFF" d="M265.5,122.833l1,20c0,0,1.668,2.667,24.334,0.333c-1.667-10.5-3.167-20.5-3.167-20.5L265.5,122.833z"/>
	<polygon fill="#FFFFFF" points="249.334,170.667 243.834,188.5 261.5,195.334 267.167,175.5 	"/>
	<path fill="#FFFFFF" d="M277,200.5c0,0,7.833,13.501,11.5,13.834S304.167,204,304.167,204l-10.5-13.833L277,200.5z"/>
	<path fill="#FFFFFF" d="M246.167,199.167"/>
	<path fill="#FFFFFF" d="M196.333,212.167c0,0,32.834-3.667,32.5-10.167s-4.334-8.166-4.334-8.166s-1-6.5-6-5
		c-5.5-1.167-11-3.5-15.833,2.5c-4.667,3.5-5.833,5.5-5.5,8.333c-2.167,2.667-5.5,6.999-4.5,8.333S196.333,212.167,196.333,212.167z
		"/>
	<polygon fill="#FFFFFF" points="164.167,200.334 174.167,185.834 181.5,189 169.667,205.334 	"/>
	<path fill="#FFFFFF" d="M159,197.834c0,0-15-1.666-16.167-7s3.333-19,3.333-19l11.667,3c0,0,2.833-14.5,6.5-12.167
		c-0.167,4.167-1.5,9.001-0.5,12.167s6.833,7,5.833,10.333s-7.5,12-9.167,13S159,197.834,159,197.834z"/>
	<polygon fill="#FFFFFF" points="103.167,198.5 93,176.667 116.667,165.667 126.5,189.333 	"/>
	<path fill="#FFFFFF" d="M171.333,123.167c0,0,4.667-6.166,3.5-6.333S169,117,166.667,114s-0.5-14,13.667-16.167
		c6.667,0,21,1.666,21,8.333s-3.334,10-9.5,10.167c-10.333,1.5-14.833,3.5-14.833,3.5L171.333,123.167z"/>
	<path fill="#FFFFFF" d="M80,130.5l6.5-22.667l22.833,4.833l-4.833,25.167c0,0-16.333-1.5-19.833-3.667S80,130.5,80,130.5z"/>
	<path fill="#FFFFFF" d="M114.167,79.667l-10.667-23l25.167-9.5c0,0,8,19.166,9.667,21.333C134.5,73,114.167,79.667,114.167,79.667z
		"/>
	<path fill="#FFFFFF" d="M36.333,21.167L67.667,7l0.667,2l4.833-0.5c0,0,11,24.834,11.333,29.667c-3,3-28,16.333-33.5,15.667
		S36.333,21.167,36.333,21.167z"/>
</g>
<g id="grau">
	<path fill="none" stroke="#BFC2C9" stroke-width="2" stroke-linecap="round" stroke-linejoin="round" stroke-miterlimit="10" d="
		M280.618,198.965c0,0,3.132,16.353,8.003,14.787s15.309-9.395,15.309-9.395l-8.698-13.394l-17.919,9.045
		c0,0,8.524,16.352,12.7,15.136c4.176-1.219,15.136-10.787,15.136-10.787l-11.308-14.961l-14.092,10.612"/>
	<path fill="none" stroke="#BFC2C9" stroke-width="2" stroke-linecap="round" stroke-linejoin="round" stroke-miterlimit="10" d="
		M249.196,172.501c0,0-5.393,13.742-5.393,15.657c0,1.914,17.919,7.655,17.919,7.655l7.479-18.268l-20.527-6.958l-5.567,19.31
		l16.527,6.611l8.524-21.572l-18.267-4.696"/>
	<path fill="none" stroke="#BFC2C9" stroke-width="2" stroke-linecap="round" stroke-linejoin="round" stroke-miterlimit="10" d="
		M202.78,190.906c3.688-6.943,9.983-2.604,13.019-0.867c5.426-4.557,8.463,0.433,9.332,3.905c2.822,0.87,4.99,7.161,4.99,7.161
		s-31.681,9.547-36.237,8.896c-2.604-2.82,0-10.198,3.472-10.632c-1.736-5.427,6.727-7.377,6.727-7.377
		c0.651-7.161,9.981-5.208,13.67-2.605c5.858,1.087,6.509,6.293,6.509,6.293s4.559,2.17,4.993,6.943
		c0.434,4.774-32.984,9.549-32.984,9.549s-9.765-5.641,1.302-11.067"/>
	<path fill="none" stroke="#BFC2C9" stroke-width="2" stroke-linecap="round" stroke-linejoin="round" stroke-miterlimit="10" d="
		M105.189,196.072c0,0,19.485-6.785,19.659-8.698s-9.395-20.702-9.395-20.702l-22.963,9.567l11.307,22.617l22.791-9.743
		l-9.568-23.138l-25.052,12.004l10.264,20.008"/>
	<path fill="none" stroke="#BFC2C9" stroke-width="2" stroke-linecap="round" stroke-linejoin="round" stroke-miterlimit="10" d="
		M181.9,188.11l-11.765,16.169l-6.143-4.353l10.186-14.52l8.348,3.557l-12.618,16.796c0,0-6.427-4.965-11.96-7.143
		c-5.532-2.179-17.563-2.703-16.154-13.086c1.409-10.384,1.68-15.831,6.529-14.137c4.85,1.693,9.884,3.415,9.884,3.415
		s-1.15-10.966,3.444-12.529c4.594-1.565,3.228,2.389,2.588,5.318c-0.64,2.929-0.827,7.822,0.269,9.316c0,0,6.371,5.334,5.375,9.345
		c-0.997,4.012-9.232,12.016-9.232,12.016s-16.769-2.959-17.934-5.221s1.682-20.749,3.899-20.407
		c2.219,0.341,11.861,4.097,11.861,4.097s1.211-14.01,4.511-13.313"/>
	<path fill="none" stroke="#BFC2C9" stroke-width="2" stroke-linecap="round" stroke-linejoin="round" stroke-miterlimit="10" d="
		M85.232,107.568c0,0-5.046,18.615-4.35,23.485c0.696,4.872,23.312,7.307,23.312,7.307l6.437-26.269l-23.833-4.523l-8.351,23.834
		l24.182,4.349l5.915-22.964L85.232,107.568z"/>
	
		<polyline fill="none" stroke="#BFC2C9" stroke-width="2" stroke-linecap="round" stroke-linejoin="round" stroke-miterlimit="10" points="
		264.961,123.462 287.403,123.635 291.056,144.338 266.005,144.164 266.701,122.418 288.795,122.07 289.839,142.946 
		267.048,143.816 265.483,122.592 	"/>
	<path fill="none" stroke="#BFC2C9" stroke-width="2" stroke-linecap="round" stroke-linejoin="round" stroke-miterlimit="10" d="
		M308.104,148.34c0,0-16.701-2.436-17.223,10.089c-0.521,12.526,11.481,21.746,22.964,15.136
		c11.482-6.611,4.351-24.181-9.045-24.008c-13.397,0.173-11.831,8.176-12.876,13.917c0,0-1.564,9.916,8.353,12.179
		c9.916,2.262,21.572-9.744,15.832-19.484c-5.741-9.743-15.659-8.873-15.659-8.873"/>
	<path fill="none" stroke="#BFC2C9" stroke-width="2" stroke-linecap="round" stroke-linejoin="round" stroke-miterlimit="10" d="
		M328.529,90.952l-9.917,20.18c0,0,20.356,16.006,21.227,15.309c0.869-0.695,13.047-23.312,13.047-23.312l-22.269-12.7
		l-13.396,19.833l19.832,16.7l13.224-23.66l-21.921-13.221"/>
	<path fill="none" stroke="#BFC2C9" stroke-width="2" stroke-linecap="round" stroke-linejoin="round" stroke-miterlimit="10" d="
		M340.882,76.164l20.877-12.526l11.655,20.703c0,0-17.224,9.916-20.354,11.134c-3.132,1.219-12.526-17.745-12.526-17.745
		l20.528-12.178l11.83,20.876l-17.918,10.091l-13.048-18.093"/>
	<path fill="none" stroke="#BFC2C9" stroke-width="2" stroke-linecap="round" stroke-linejoin="round" stroke-miterlimit="10" d="
		M354.103,41.544l7.656-23.66l23.138,8.699c0,0-4.696,21.051-6.438,22.094c-1.74,1.044-24.704-4.523-24.704-4.523l6.089-25.226
		c0,0,23.834,2.436,25.574,6.263c1.739,3.827-4.871,24.53-6.088,25.052c-1.22,0.521-24.009-7.829-24.009-7.829"/>
	<path fill="none" stroke="#BFC2C9" stroke-width="2" stroke-linecap="round" stroke-linejoin="round" stroke-miterlimit="10" d="
		M227.957,92.709c0,0,16.357-8.073,20.182-6.798c3.823,1.275,7.86,19.118,7.86,19.118l-18.907,9.348L225.62,95.896l23.157-12.534
		l9.133,20.606l-22.517,10.621l-10.622-21.879"/>
	<path fill="none" stroke="#BFC2C9" stroke-width="2" stroke-linecap="round" stroke-linejoin="round" stroke-miterlimit="10" d="
		M171.764,122.26c0.79-0.142,4.87-3.521,4.424-4.868c-0.445-1.346-9.433-0.346-7.372-7.032c2.061-6.684,12.759-16.344,26.553-9.854
		c13.794,6.491-2.429,16.076-12.383,17.297c-3.588,0.439-10.133,7.114-12.158,6.051c-2.023-1.064,8.14-5.739,2.259-6.722
		c-5.881-0.982-11.173-7.775-3.303-13.872c7.871-6.098,17.514-10.271,28.759-2.1c4.795,4.03,4.082,10.27-1.81,13.771
		c-5.893,3.5-17.299,3.509-17.299,3.509s-9.487,6.183-10.221,5.499"/>
	<path fill="none" stroke="#BFC2C9" stroke-width="2" stroke-linecap="round" stroke-linejoin="round" stroke-miterlimit="10" d="
		M104.714,56.916l8.525,24.183l23.66-9.917c0,0-6.958-24.008-7.829-24.182c-0.87-0.174-26.095,9.395-26.095,9.395L115.5,80.75
		l23.312-11.307l-10.96-21.399L104.714,56.916z"/>
	<path fill="none" stroke="#BFC2C9" stroke-width="2" stroke-linecap="round" stroke-linejoin="round" stroke-miterlimit="10" d="
		M35.604,20.917c0,0,10.438,31.663,14.092,33.228C53.35,55.711,82.75,40.75,82.75,40.75L67.963,6.999L37.17,20.047l13.917,32.359
		l33.751-13.57c0,0-9.394-28.879-11.656-30.271C70.92,7.173,36.822,21.96,36.822,21.96"/>
	<path fill="none" stroke="#BFC2C9" stroke-width="2" stroke-linecap="round" stroke-linejoin="round" stroke-miterlimit="10" d="
		M236.324,18.598c0,0-15.658,23.486-15.832,25.748c-0.174,2.261,31.664,18.962,32.359,18.962s15.309-36.186,15.309-36.186
		l-29.4-8.873l-15.832,26.443l31.837,18.267l15.484-33.228L237.02,18.424"/>
</g>
<g id="Sparcles">
	<g>
		<g>
			<path fill="#F5952F" d="M197,56.083c3.869,0,3.869-6,0-6S193.131,56.083,197,56.083L197,56.083z"/>
		</g>
	</g>
	<g>
		<g>
			<path fill="#F5952F" d="M204.029,42.75c3.869,0,3.869-6,0-6S200.16,42.75,204.029,42.75L204.029,42.75z"/>
		</g>
	</g>
	<g>
		<g>
			<path fill="#F5952F" d="M71.286,112.537c3.869,0,3.869-6,0-6S67.417,112.537,71.286,112.537L71.286,112.537z"/>
		</g>
	</g>
	<g>
		<g>
			<path fill="#F5952F" d="M313.5,190.75c3.869,0,3.869-6,0-6S309.631,190.75,313.5,190.75L313.5,190.75z"/>
		</g>
	</g>
	<g>
		<g>
			<path fill="#F5952F" d="M316.5,203.75c3.869,0,3.869-6,0-6S312.631,203.75,316.5,203.75L316.5,203.75z"/>
		</g>
	</g>
	<g>
		<g>
			<path fill="#F5952F" d="M81.965,82.05c3.869,0,3.869-6,0-6S78.096,82.05,81.965,82.05L81.965,82.05z"/>
		</g>
	</g>
	<g>
		<g>
			<path fill="#F5952F" d="M312.25,218.5c3.869,0,3.869-6,0-6S308.381,218.5,312.25,218.5L312.25,218.5z"/>
		</g>
	</g>
	<g>
		<g>
			<path fill="#F5952F" d="M76,89.25c3.869,0,3.869-6,0-6S72.131,89.25,76,89.25L76,89.25z"/>
		</g>
	</g>
	<g>
		<g>
			<path fill="#F5952F" d="M70.041,97.953c3.869,0,3.869-6,0-6S66.172,97.953,70.041,97.953L70.041,97.953z"/>
		</g>
	</g>
	<g>
		<g>
			<path fill="#F5952F" d="M112.5,158.5c3.869,0,3.869-6,0-6S108.631,158.5,112.5,158.5L112.5,158.5z"/>
		</g>
	</g>
	<g>
		<g>
			<path fill="#F5952F" d="M198.667,74.417c3.869,0,3.869-6,0-6S194.798,74.417,198.667,74.417L198.667,74.417z"/>
		</g>
	</g>
	<g>
		<g>
			<path fill="#F5952F" d="M328.833,113.417c3.869,0,3.869-6,0-6S324.964,113.417,328.833,113.417L328.833,113.417z"/>
		</g>
	</g>
	<g>
		<g>
			<path fill="#F5952F" d="M183.75,182.5c3.869,0,3.869-6,0-6S179.881,182.5,183.75,182.5L183.75,182.5z"/>
		</g>
	</g>
	<g>
		<g>
			<path fill="#F5952F" d="M77.25,170.5c3.869,0,3.869-6,0-6S73.381,170.5,77.25,170.5L77.25,170.5z"/>
		</g>
	</g>
	<g>
		<g>
			<path fill="#F5952F" d="M324.75,186.948c3.869,0,3.869-6,0-6S320.881,186.948,324.75,186.948L324.75,186.948z"/>
		</g>
	</g>
	<g>
		<g>
			<path fill="#F5952F" d="M143.75,222c3.869,0,3.869-6,0-6S139.881,222,143.75,222L143.75,222z"/>
		</g>
	</g>
	<g>
		<g>
			<path fill="#F5952F" d="M286.5,169.5c3.869,0,3.869-6,0-6S282.631,169.5,286.5,169.5L286.5,169.5z"/>
		</g>
	</g>
	<g>
		<g>
			<path fill="#F5952F" d="M236.5,209c3.869,0,3.869-6,0-6S232.631,209,236.5,209L236.5,209z"/>
		</g>
	</g>
	<g>
		<g>
			<path fill="#F5952F" d="M214.25,174c3.869,0,3.869-6,0-6S210.381,174,214.25,174L214.25,174z"/>
		</g>
	</g>
	<g>
		<g>
			<path fill="#F5952F" d="M176.5,201.5c3.869,0,3.869-6,0-6S172.631,201.5,176.5,201.5L176.5,201.5z"/>
		</g>
	</g>
	<g>
		<g>
			<path fill="#F5952F" d="M208,92.75c3.869,0,3.869-6,0-6S204.131,92.75,208,92.75L208,92.75z"/>
		</g>
	</g>
</g>
</svg>
