<?xml version="1.0" encoding="utf-8"?>
<!-- Generator: Adobe Illustrator 16.0.0, SVG Export Plug-In . SVG Version: 6.00 Build 0)  -->
<!DOCTYPE svg PUBLIC "-//W3C//DTD SVG 1.1//EN" "http://www.w3.org/Graphics/SVG/1.1/DTD/svg11.dtd">
<svg version="1.1" xmlns="http://www.w3.org/2000/svg" xmlns:xlink="http://www.w3.org/1999/xlink" x="0px" y="0px" width="400px"
	 height="300px" viewBox="0 0 400 300" enable-background="new 0 0 400 300" xml:space="preserve">
<g id="weiß">
	<path fill="#FFFFFF" d="M353.834,272.334c0,0-70.5-0.001-73.167-0.334s-31.833,0.667-31.833,0.667s-48.167,0.167-54-1.833
		c-2.5,1.166-1.333,2.333-5,2.333S126,272.834,126,272.834s-1.5-0.834-2-0.667S99.667,273.5,99.167,273s-2.5-2.333-2.5-2.333l-5,2
		l-50.333-0.833c0,0,1.5-6.001,9.333-6.334s11.167-0.333,11.167-0.333l3.833-1.667l-3.833-0.833l2.333-3.167l-3.5-2.333
		c0,0-11.667,4.667-15.667,2.167s-10.167-10.168-7.833-27.834s15.583-27,15.583-27s-9.917-52.5-7.75-77s8.833-13,9.167-9.333
		s9.167,84.167,9.167,84.167l2,1.5c0,0,4.5-92.334,10.167-95.5s9.167,32.833,7.333,43.333C90,145.833,92.667,141.333,111,140
		c-5.667-17.5-20.833-77.667-12.667-90.5c3-4.5,5.333-4,8.5,2.333c5,7.5,11.5,63,10.833,88c0,0,11.166-83,14.833-88.833
		s6.5-5,7.5-1.167s5.667,51.167-15.167,96L130.5,151l-2.167,2.333l3,2.334l2.333,5.333H136l-0.5,3.833c0,0,28,12,44.167,44
		c6.333,12.001,12,26.335,12.833,32.501c1.333-2.167,1.5-3,1.5-3l2-1.834l-1.833-3.333c0,0,3.333-1.666,4-1.333
		s0.667,0.333,0.667,0.333s18-17.833,38.667-21.333c-0.667-3.667,0.667-9.5,0.667-9.5L237.333,199l4.667-1.666l0.167-3l4.166-3.834
		c0,0-10.5-13.666-9.5-52.833c2.167-32.667,16.333-39.833,16.5-36.5c0,0,5.834,46.334,0.834,85.167c1.166,0.5,2.5-0.5,2.5-0.5
		s4-77.001,7-84.334s8.666,0.5,9.666,4s1.834,60-12.333,79.667c5.333,0.167,18.167,6.833,21.667,16.833s3.166,20,3.166,20
		l3.834,2.334c0,0,23.833-42,26.333-49.5s5-17.5,5-17.5l-2-2.167l0.667-3l-3-1v-4.833l-2-0.667l3.333-6.333
		c0,0-17.001-13.667-26.167-34.167s-11-28.833-3.666-25.333c0,0,14.334,16.167,17.5,21.833c-4.5-12.833-11.666-30.334-5.5-33.667
		c2.666,0.667,6.166,0.5,26.5,63c10.333-4.333,27.999-11.833,47.166-3c2,7.167,1.499,22.666-22.667,33.5c0,0-1,2.166,1,3.5
		c-1.666,1.5-2,1.166-2,4s1.834,3.5,1.834,3.5l0.166,3l7.334,8.667l0.166,2.667l4.167,2.833l-0.333,2c0,0,3.667,3.333,4,6.833
		s0,14.334-4.5,12.667s-8.834-10-9.667-9.5s-0.999,14.667-22.333,37.667c2.833,4.5,5.999,14.666,6.666,17.333
		s3.168,4.167,4.834,4.667S353.335,265.334,353.834,272.334z"/>
</g>
<g id="Ebene_7">
	<path fill="none" stroke="#010101" stroke-width="2" stroke-linecap="round" stroke-linejoin="round" stroke-miterlimit="10" d="
		M125.82,227.957c0,0,7.105,25.347,21.315,27.268"/>
	<path fill="none" stroke="#010101" stroke-width="2" stroke-linecap="round" stroke-linejoin="round" stroke-miterlimit="10" d="
		M142.527,253.69c0,0-34.181,9.216-37.253,19.201l20.739-0.768"/>
	<path fill="none" stroke="#010101" stroke-width="2" stroke-linecap="round" stroke-linejoin="round" stroke-miterlimit="10" d="
		M104.025,157.195c0,0-2.448,0.433-0.72,2.448C105.033,161.66,106.041,158.06,104.025,157.195z"/>
	<path fill="none" stroke="#010101" stroke-width="2" stroke-linecap="round" stroke-linejoin="round" stroke-miterlimit="10" d="
		M183.045,243.897c-26.5-26.883-25.829,17.239-25.829,17.239S133.311,261,126.012,273c18.819,0,64.137,0,64.137,0
		s6.915-1.976,3.841-11.192"/>
	<path fill="none" stroke="#010101" stroke-width="2" stroke-linecap="round" stroke-linejoin="round" stroke-miterlimit="10" d="
		M118.523,169.199c0,0-5.09,12.098-38.503,18.241c-6.144-1.535-7.729-12.77-5.039-20.834c0,0,6.887-26.933,36.076-26.549
		c-6.528-18.052-20.365-71.844-12.3-91.813c1.919-4.992,8.057-0.396,11.13,11.125c3.073,11.522,7.679,81.415,7.679,81.415
		s9.391-76.899,14.208-88.722c4.225-10.37,8.833-4.227,8.833,3.071s4.607,51.461-15.748,91.019c3.073,1.922,5.377,4.994,5.377,4.994
		l-1.92,2.689l3.456,1.919l1.73,5.761l2.498-0.384v3.841c0,0,47.238,20.354,57.992,84.876c1.536-4.994,6.143-4.224,6.143-4.224
		l2.305,5.376l3.841,0.385l0.769,2.305l1.92,3.841l-0.385,2.305l2.305,4.224l-3.072,2.689l-3.457,2.687l-4.993-1.921l-0.767,3.843
		l-4.995-1.153"/>
	<path fill="none" stroke="#010101" stroke-width="2" stroke-linecap="round" stroke-linejoin="round" stroke-miterlimit="10" d="
		M112.187,206.066c0,0-4.225,16.13-1.152,17.281c3.073,1.153,8.833-3.841,9.984-6.911c1.152-3.072,0.768,10.367,2.305,11.328
		c1.537,0.961,8.45-2.689,14.594-11.328"/>
	
		<polyline fill="none" stroke="#010101" stroke-width="2" stroke-linecap="round" stroke-linejoin="round" stroke-miterlimit="10" points="
		111.802,183.022 108.346,188.782 110.65,189.55 110.266,191.855 113.723,193.392 112.187,196.849 113.723,200.305 112.187,206.066 
			"/>
	
		<line fill="none" stroke="#010101" stroke-width="2" stroke-linecap="round" stroke-linejoin="round" stroke-miterlimit="10" x1="81.845" y1="186.864" x2="83.767" y2="183.407"/>
	<path fill="none" stroke="#010101" stroke-width="2" stroke-linecap="round" stroke-linejoin="round" stroke-miterlimit="10" d="
		M253.71,231.414c0,0,6.762,14.641,22.084,9.602c14.019-4.609,11.522-38.021,1.921-47.236c-5.761-5.761-12.291-11.137-23.812-6.528
		c1.152-15.555,2.496-82.155-0.959-86.764c-3.457-4.608-13.826,15.151-15.555,33.01c0,0-1.536,43.009,8.834,57.218
		c-2.303,1.533-4.223,3.829-4.223,3.829v2.689l-4.608,1.919l0.767,1.922l-1.538,5.761l1.151,3.84c0,0-26.498,5.955-38.404,21.7
		c-1.153-2.305-4.993,0.768-4.993,0.768l2.496,2.496l-2.881,2.306l-0.385,1.535l-0.768,2.689"/>
	<path fill="none" stroke="#010101" stroke-width="2" stroke-linecap="round" stroke-linejoin="round" stroke-miterlimit="10" d="
		M220.874,234.104c0,0,13.7,1.799,13.058,23.812c-0.014,0.496,0.603,6.207,0.577,6.723c0,0,13.611,0.526,15.554,5.376
		c1.152,2.878,0.576,2.496,0.576,2.496l-45.895-0.384c0,0-5.378,0.384-5.569-1.536"/>
	<path fill="none" stroke="#010101" stroke-width="2" stroke-linecap="round" stroke-linejoin="round" stroke-miterlimit="10" d="
		M252.175,261.948c0,0,8.642,10.755,11.713,10.944c3.073,0.192,9.985-0.574,9.985-0.574s-1.729-7.107-4.992-10.754"/>
	<path fill="none" stroke="#010101" stroke-width="2" stroke-linecap="round" stroke-linejoin="round" stroke-miterlimit="10" d="
		M272.723,260.797c0,0,5.761,11.135,8.643,11.329c2.88,0.194,8.829,0.384,8.829,0.384s-2.493-8.64-7.295-15.362l-1.534-1.729
		l0.958-2.303l-4.608-0.386l0.575-1.343l-3.264-2.305l-2.497-3.074l0.193-3.263"/>
	<path fill="none" stroke="#010101" stroke-width="2" stroke-linecap="round" stroke-linejoin="round" stroke-miterlimit="10" d="
		M256.592,185.905c0,0,4.8-85.069,7.873-86.798c3.072-1.728,9.408,0.576,9.793,12.483c0.385,11.906-1.15,56.456-13.057,73.547"/>
	<path fill="none" stroke="#010101" stroke-width="2" stroke-linecap="round" stroke-linejoin="round" stroke-miterlimit="10" d="
		M255.823,209.91c0,0-0.96,2.307,0.575,2.688C257.935,212.98,258.32,209.523,255.823,209.91z"/>
	<path fill="none" stroke="#010101" stroke-width="2" stroke-linecap="round" stroke-linejoin="round" stroke-miterlimit="10" d="
		M270.611,238.709c0,0,4.031,2.115,5.183,2.307"/>
	<path fill="none" stroke="#010101" stroke-width="2" stroke-linecap="round" stroke-linejoin="round" stroke-miterlimit="10" d="
		M342.425,163.624c0,0,11.713-1.151,22.659-10.754c10.755-9.409,10.943-20.93,8.833-24.387c-0.384-1.729-22.275-8.641-41.479,0.191
		c-5.955,2.305-8.448,5.185-8.448,5.185s-28.615-52.808-37.64-54.729c-9.024-1.919,5.762,38.214,31.494,60.49
		c-0.385,2.304-2.881,5.952-2.881,5.952l2.496,0.194l-0.77,5.374l3.65,0.962l-1.346,3.649l2.115,1.919l-0.77,4.032l-2.301,6.727
		c0,0-4.608,15.361-8.065,20.74c-3.456,5.378-18.053,30.524-20.167,35.519c-1.152-1.535-3.457-2.305-3.457-2.305"/>
	<path fill="none" stroke="#010101" stroke-width="2" stroke-linecap="round" stroke-linejoin="round" stroke-miterlimit="10" d="
		M330.714,239.287c0,0,4.608,5.761,6.913,17.283c1.152,4.033,3.457,4.033,3.457,4.033s11.716,4.031,13.251,12.096
		c-9.604-0.193-23.624-0.196-23.624-0.196s-4.417,0.19-4.609-1.152c-0.193-1.344-0.96-4.992-8.448-5.567
		c-3.65-0.194-6.913-0.961-6.913-0.961s-1.729-15.552-4.033-18.05"/>
	
		<line fill="none" stroke="#010101" stroke-width="2" stroke-linecap="round" stroke-linejoin="round" stroke-miterlimit="10" x1="327.637" y1="272.312" x2="290.768" y2="272.503"/>
	<path fill="none" stroke="#010101" stroke-width="2" stroke-linecap="round" stroke-linejoin="round" stroke-miterlimit="10" d="
		M336.856,138.277c0,0-1.538,1.537,0,1.729C338.393,140.196,338.775,138.086,336.856,138.277z"/>
	<path fill="none" stroke="#010101" stroke-width="2" stroke-linecap="round" stroke-linejoin="round" stroke-miterlimit="10" d="
		M327.062,130.211c0,0-19.202-57.417-25.348-62.025c-9.409-0.191-0.576,21.506,1.729,27.461c1.728,3.839,5.952,13.056,5.952,13.056"
		/>
	<path fill="none" stroke="#010101" stroke-width="2" stroke-linecap="round" stroke-linejoin="round" stroke-miterlimit="10" d="
		M367.197,131.746c0,0,6.909-0.764,6.72-3.263"/>
	<path fill="none" stroke="#010101" stroke-width="2" stroke-linecap="round" stroke-linejoin="round" stroke-miterlimit="10" d="
		M353.182,202.419c-0.364,5.763-7.489,18.625-12.098,24.194c-3.061,3.697-15.555,19.012-15.555,19.012"/>
	<path fill="none" stroke="#010101" stroke-width="2" stroke-linecap="round" stroke-linejoin="round" stroke-miterlimit="10" d="
		M335.128,202.796c0,0,5.951,13.441,11.712,10.37c5.762-3.073,3.84-11.331,5.762-12.099c1.922-0.767,2.496,6.725,9.217,9.412
		c6.722,2.687,6.913-9.603,4.418-15.364l-2.881-3.456l0.575-1.728l-3.841-2.881l-0.768-3.266l-2.701-2.88L352,175.144v-2.491
		l-2.1-3.071l0.586-3.265l2.5-1.152l-2.398-1.344l1.012-1.346l-7.467,0.77"/>
	<path fill="none" stroke="#010101" stroke-width="2" stroke-linecap="round" stroke-linejoin="round" stroke-miterlimit="10" d="
		M75.701,231.031c0,0-2.688,24.194-21.891,28.805c-19.203,4.607-19.97-25.352-13.057-41.097
		c7.296-12.288,11.522-14.208,11.522-14.208s-14.979-81.804-2.305-92.174c4.225,0,4.992-1.922,13.441,90.637l1.921,0.386
		c0,0,3.841-88.718,9.985-94.863c6.144-6.146,9.025,38.212,7.104,43.974"/>
	<path fill="none" stroke="#010101" stroke-width="2" stroke-linecap="round" stroke-linejoin="round" stroke-miterlimit="10" d="
		M57.266,256.954c0,0-1.535,1.729-5.76,3.457"/>
	<path fill="none" stroke="#010101" stroke-width="2" stroke-linecap="round" stroke-linejoin="round" stroke-miterlimit="10" d="
		M80.02,187.44c0,0-1.439,9.41-5.28,18.243"/>
	<path fill="none" stroke="#010101" stroke-width="2" stroke-linecap="round" stroke-linejoin="round" stroke-miterlimit="10" d="
		M76.314,201.457L80,201.842v2.689l5.052,0.768l0.845,2.689l10.839,4.224l0.429,3.071c0,0,9.833,0.771,12.521,1.536"/>
	<path fill="none" stroke="#010101" stroke-width="2" stroke-linecap="round" stroke-linejoin="round" stroke-miterlimit="10" d="
		M89.527,264.827c0,0-8.449-4.036-12.674,0.19c-4.225,4.226-3.073,7.492-3.073,7.492l19.586-0.386l3.073-2.497
		c0,0,0.385,2.592,3.073,3.361c2.688,0.77,5.761-0.049,5.761-0.049"/>
	<path fill="none" stroke="#010101" stroke-width="2" stroke-linecap="round" stroke-linejoin="round" stroke-miterlimit="10" d="
		M73.78,272.51l-32.26-0.386c0,0,2.689-6.144,7.681-6.528c4.992-0.385,12.674,0,12.674,0l4.608-1.922l-5.377-1.152l3.073-3.071
		l-3.84-1.919"/>
	<path fill="none" stroke="#010101" stroke-width="2" stroke-linecap="round" stroke-linejoin="round" stroke-miterlimit="10" d="
		M64.179,230.646c0,0-2.304,1.346,0.96,1.729C67.251,231.415,66.484,229.493,64.179,230.646z"/>
</g>
<g id="Sparcles">
	<g>
		<g>
			<path fill="#F5952F" d="M96,203.334c3.869,0,3.869-6,0-6S92.131,203.334,96,203.334L96,203.334z"/>
		</g>
	</g>
	<g>
		<g>
			<path fill="#F5952F" d="M158.5,111.5c3.869,0,3.869-6,0-6S154.631,111.5,158.5,111.5L158.5,111.5z"/>
		</g>
	</g>
	<g>
		<g>
			<path fill="#F5952F" d="M228.5,130c3.869,0,3.869-6,0-6S224.631,130,228.5,130L228.5,130z"/>
		</g>
	</g>
	<g>
		<g>
			<path fill="#F5952F" d="M360,221.5c3.869,0,3.869-6,0-6S356.131,221.5,360,221.5L360,221.5z"/>
		</g>
	</g>
	<g>
		<g>
			<path fill="#F5952F" d="M352,233.5c3.869,0,3.869-6,0-6S348.131,233.5,352,233.5L352,233.5z"/>
		</g>
	</g>
	<g>
		<g>
			<path fill="#F5952F" d="M239.18,99.513c3.869,0,3.869-6,0-6S235.311,99.513,239.18,99.513L239.18,99.513z"/>
		</g>
	</g>
	<g>
		<g>
			<path fill="#F5952F" d="M348,251c3.869,0,3.869-6,0-6S344.131,251,348,251L348,251z"/>
		</g>
	</g>
	<g>
		<g>
			<path fill="#F5952F" d="M233.214,106.713c3.869,0,3.869-6,0-6S229.345,106.713,233.214,106.713L233.214,106.713z"/>
		</g>
	</g>
	<g>
		<g>
			<path fill="#F5952F" d="M227.255,115.417c3.869,0,3.869-6,0-6S223.386,115.417,227.255,115.417L227.255,115.417z"/>
		</g>
	</g>
	<g>
		<g>
			<path fill="#F5952F" d="M150,138c3.869,0,3.869-6,0-6S146.131,138,150,138L150,138z"/>
		</g>
	</g>
	<g>
		<g>
			<path fill="#F5952F" d="M97.667,221.666c3.869,0,3.869-6,0-6S93.798,221.666,97.667,221.666L97.667,221.666z"/>
		</g>
	</g>
	<g>
		<g>
			<path fill="#F5952F" d="M328.833,113.417c3.869,0,3.869-6,0-6S324.964,113.417,328.833,113.417L328.833,113.417z"/>
		</g>
	</g>
	<g>
		<g>
			<path fill="#F5952F" d="M40.5,199c3.869,0,3.869-6,0-6S36.631,199,40.5,199L40.5,199z"/>
		</g>
	</g>
	<g>
		<g>
			<path fill="#F5952F" d="M16.5,237.5c3.869,0,3.869-6,0-6S12.631,237.5,16.5,237.5L16.5,237.5z"/>
		</g>
	</g>
	<g>
		<g>
			<path fill="#F5952F" d="M373,211c3.869,0,3.869-6,0-6S369.131,211,373,211L373,211z"/>
		</g>
	</g>
	<g>
		<g>
			<path fill="#F5952F" d="M143.75,222c3.869,0,3.869-6,0-6S139.881,222,143.75,222L143.75,222z"/>
		</g>
	</g>
	<g>
		<g>
			<path fill="#F5952F" d="M286.5,169.5c3.869,0,3.869-6,0-6S282.631,169.5,286.5,169.5L286.5,169.5z"/>
		</g>
	</g>
	<g>
		<g>
			<path fill="#F5952F" d="M221.5,201.5c3.869,0,3.869-6,0-6S217.631,201.5,221.5,201.5L221.5,201.5z"/>
		</g>
	</g>
	<g>
		<g>
			<path fill="#F5952F" d="M32.451,261.467c3.869,0,3.869-6,0-6S28.582,261.467,32.451,261.467L32.451,261.467z"/>
		</g>
	</g>
	<g>
		<g>
			<path fill="#F5952F" d="M180,195c3.869,0,3.869-6,0-6S176.131,195,180,195L180,195z"/>
		</g>
	</g>
	<g>
		<g>
			<path fill="#F5952F" d="M107,240c3.869,0,3.869-6,0-6S103.131,240,107,240L107,240z"/>
		</g>
	</g>
</g>
</svg>
