<?xml version="1.0" encoding="utf-8"?>
<!-- Generator: Adobe Illustrator 16.0.0, SVG Export Plug-In . SVG Version: 6.00 Build 0)  -->
<!DOCTYPE svg PUBLIC "-//W3C//DTD SVG 1.1//EN" "http://www.w3.org/Graphics/SVG/1.1/DTD/svg11.dtd">
<svg version="1.1" xmlns="http://www.w3.org/2000/svg" xmlns:xlink="http://www.w3.org/1999/xlink" x="0px" y="0px" width="400px"
	 height="300px" viewBox="0 0 400 300" enable-background="new 0 0 400 300" xml:space="preserve">
<g id="weiß">
	<path fill="#FFFFFF" d="M309.999,83.667c-6.666-5.5-10.166-6.333-10.166-6.333S298,78,298.833,76s4.5-10.667,4.5-10.667l-11,10.5
		c0,0-26.001-5.333-38.834,0.167c-3.5-4.833-8.5-11.167-8.5-11.167l5,14.167c0,0-20.166,14.167-21.833,26.167
		c-0.333,5.667,0.333,9.333,0.333,9.333l92.167-0.333C320.666,114.167,316.665,89.167,309.999,83.667z M253.333,99
		c-2.5,0.833-4.667,0.667-4.667-4.667s5.5-4.333,5.5-4.333C259.166,92.833,255.833,98.167,253.333,99z M273.833,97.667
		c-4,3.333-5.167-0.167-5.5-3.333s5.5-3,5.5-3S277.833,94.333,273.833,97.667z"/>
	<path fill="#FFFFFF" d="M337.999,181c0,0,3.833-1.333,4.5-4s3.667-41.667,0.667-52.167c-2.167-5.833-6.833-11.167-12-8.167
		s-6.834,6.5-6.667,10.5s0.833,43.167,1,46.167S327.499,181.667,337.999,181z"/>
	<path fill="#FFFFFF" d="M219.999,119.5c0,0-6.166-4.333-12.166,1.833s-20.5,39.666-21.167,44s0.333,10.834,5.5,11.834
		s13.499-5,15.833-10.167s17.834-40,15.834-43.5S219.999,119.5,219.999,119.5z"/>
	<path fill="#FFFFFF" d="M228.499,119.5c0,0-1.333,72.501-0.833,75.167s19.667,3.666,19.667,3.666s0,28.168,3.333,30.834
		s8.666,2.834,11.333-0.5s7.668-17.668,5.834-30.334c5.166-1,13.5-1.5,13.5-1.5s-1,18.5,1,25.167s9.167,10.5,15.5,6
		c2.5-2.167,3.167-6.334,3-12.667s0.5-17.833,0.5-17.833s11.832,0.667,14.666-1.5s3.334-9.5,3.334-9.5l0.833-67.333L228.499,119.5z"
		/>
	<path fill="#FFFFFF" d="M183.666,172.333c0,0-13.333,2-17.5-0.333s-8.667-19.667-8.667-19.667s1.333-19.833,18.833-34.167
		c-5.667-6.667-15.333-12.667-24-14.5s-23.5,3-23.5,3s-13.5,3.667-15.5,3.333s-14-5.833-18.5-8s-17.167,0.667-24.167,4.333
		s-19.5,17.833-22.167,29.333S46.166,170.333,55.333,190s19.333,32.001,33.5,35.167c7.667,1.166,15,3.166,15,3.166
		s17.667,3.168,36-3.666s20.5-8,25.833-14.167S180.166,192.999,183.666,172.333z"/>
	<path fill="#FFFFFF" d="M119,100.167c0,0,0-12,10.833-21.833s16.667-11,28.5-9.5c-1.5,7.5-3.333,19.166-10.5,23.833
		S119,100.167,119,100.167z"/>
</g>
<g id="schwarz">
	<path fill="none" stroke="#000000" stroke-width="2" stroke-linecap="round" stroke-linejoin="round" stroke-miterlimit="10" d="
		M119.47,98.407c0,0,2.857-29.982,34.989-27.743c-3.798,18.62-16.027,27.875-31.627,29.724c0.248-10.464,9.234-36.936,35.003-31.47
		c0.215,6.143-3.059,20.113-13.186,25.352c-10.127,5.238-25.811,5.715-25.811,5.715"/>
	<path fill="none" stroke="#000000" stroke-width="2" stroke-linecap="round" stroke-linejoin="round" stroke-miterlimit="10" d="
		M175.667,116c0,0-14.334-16.833-37.167-12s-14.833,10.667-27.833,6.333s-34.833-12.667-46.5-0.667S40,147.833,52.833,183
		s28,43.668,51.667,43.334s48.575-2.192,58.333-11.667C180,198,183.5,171.5,183.5,171.5s-27.333,6.5-27.166-12.333
		c0.167-18.833,15.833-38.667,20.5-42c-9.833-5.833-14.5-18.333-60.667-7.833C108.5,110.667,102,105.667,95.333,103
		s-18.5-3.333-32.667,10.333s-27.667,37.334-3.833,80.5C65,204.667,79.167,226,106.5,228.167s49.333-5.333,64-23
		c5-5.667,14.833-32.334,14.833-32.334s-17.666,4.667-21.666-3.333s-15.5-30,14.5-51.5"/>
	<path fill="none" stroke="#000000" stroke-width="2" stroke-linecap="round" stroke-linejoin="round" stroke-miterlimit="10" d="
		M227.5,114.5l91.667-0.5c0,0,2.166-20.333-15.334-31.5c-5-3.5-7.333-4.333-7.333-4.333l7.833-16.5l-10.833,15.5
		c0,0-18.167-7.833-39-1.167c-3.667-6.667-11.667-14.667-11.667-14.667l8.334,16.167c0,0-21.001,10-23.334,33.667
		c6,0.667,93,3.333,93,3.333s-2-31.5-22.333-37.5c4.333-9.167,7-18.167,7-18.167L292.167,75.5c0,0-26.501-5-38.834,1.167
		C250.5,71,241.667,58.333,241.667,58.333l8.666,20.833c0,0-21.5,10.5-22,35"/>
	<path fill="none" stroke="#000000" stroke-width="2" stroke-linecap="round" stroke-linejoin="round" stroke-miterlimit="10" d="
		M255.5,90.167c7,7.667-4.834,10.333-6.167,9s-2.326-8.354,3-8.667c2.833-0.167,6.5,2.167,3.5,6.667s-7.666,2.333-8.333-2.5
		s5.833-5.5,5.833-5.5s4.334,1.167,4.834,4"/>
	<path fill="none" stroke="#000000" stroke-width="2" stroke-linecap="round" stroke-linejoin="round" stroke-miterlimit="10" d="
		M270.667,90.833c0,0-3.167,0.833-3.167,3.833s1.833,4.833,5.333,3.333s2.834-4.5,1.834-6s-4.334-1-5.667,1.167s0.999,7,3.333,6.167
		s5.168-2.5,3.334-6.333"/>
	<path fill="none" stroke="#000000" stroke-width="2" stroke-linecap="round" stroke-linejoin="round" stroke-miterlimit="10" d="
		M228,118.667c0,0-2.167,72.167,0,76.167s18.167,2.5,18.167,2.5s-1.333,25.5,3,29.5s10.666,5.833,14.666-1s3.167-28.5,3.167-28.5
		l13.667,0.5c0,0-0.167,23,1.833,27.667s8.334,5.666,12.667,3.333s6.166-21.333,6-31c0,0,16,2.501,16.833-5.666s1.167-73,1.167-73
		l-89.834,0.667c0,0-2.332,67,0.834,71.833s7.5,5.833,17.333,6.333c-0.167,5.167-0.499,27.834,3.167,31.167
		s11.833,3.999,14.833-4.834s3-26.166,3-26.166l13.333-2c0,0-2.667,25.167,3,30.5s14.834,3.5,15.834-4s0.5-26.5,0.5-26.5
		s10.167,1.666,14-1.334s5.167-9.166,5-11.666s0-64.667,0-64.667l-93,0.167"/>
	<path fill="none" stroke="#000000" stroke-width="2" stroke-linecap="round" stroke-linejoin="round" stroke-miterlimit="10" d="
		M217.5,118.333c0,0-9.667,1-12.667,6s-20,42.333-18.333,46.667s7.667,10.167,14.333,3.5s26.166-45.667,22-51.5
		s-12.666-6.167-16.166-1.667S185,161,185.833,166.5s3.167,13.333,13.5,9.833c10.333-3.5,25.5-45.833,25-50.833
		S217.5,118.333,217.5,118.333z"/>
	<path fill="none" stroke="#000000" stroke-width="2" stroke-linecap="round" stroke-linejoin="round" stroke-miterlimit="10" d="
		M332,116.333c0,0-7.834,2.5-7.667,11s-0.999,45.167,0.334,47.333s5.666,9.334,13.166,4.5s7.668-45.833,6.834-52.167
		s-8.166-14.167-14.5-8.667S325.001,168,325.667,173s9.833,13.666,16.333,4.333c0,0,6.289-4.534-0.167-58.333
		c-0.5-4.167-11.333-3.333-11.333-3.333"/>
</g>
<g id="Sparcles">
	<g>
		<g>
			<path fill="#F5952F" d="M218.707,114.176c3.869,0,3.869-6,0-6S214.838,114.176,218.707,114.176L218.707,114.176z"/>
		</g>
	</g>
	<g>
		<g>
			<path fill="#F5952F" d="M225.736,100.842c3.869,0,3.869-6,0-6S221.867,100.842,225.736,100.842L225.736,100.842z"/>
		</g>
	</g>
	<g>
		<g>
			<path fill="#F5952F" d="M43.414,160.287c3.869,0,3.869-6,0-6S39.545,160.287,43.414,160.287L43.414,160.287z"/>
		</g>
	</g>
	<g>
		<g>
			<path fill="#F5952F" d="M342.5,159.25c3.869,0,3.869-6,0-6S338.631,159.25,342.5,159.25L342.5,159.25z"/>
		</g>
	</g>
	<g>
		<g>
			<path fill="#F5952F" d="M345.5,172.25c3.869,0,3.869-6,0-6S341.631,172.25,345.5,172.25L345.5,172.25z"/>
		</g>
	</g>
	<g>
		<g>
			<path fill="#F5952F" d="M45.987,128.086c3.869,0,3.869-6,0-6S42.118,128.086,45.987,128.086L45.987,128.086z"/>
		</g>
	</g>
	<g>
		<g>
			<path fill="#F5952F" d="M341.25,187c3.869,0,3.869-6,0-6S337.381,187,341.25,187L341.25,187z"/>
		</g>
	</g>
	<g>
		<g>
			<path fill="#F5952F" d="M42.049,136.567c3.869,0,3.869-6,0-6S38.18,136.567,42.049,136.567L42.049,136.567z"/>
		</g>
	</g>
	<g>
		<g>
			<path fill="#F5952F" d="M38.5,146.5c3.869,0,3.869-6,0-6S34.631,146.5,38.5,146.5L38.5,146.5z"/>
		</g>
	</g>
	<g>
		<g>
			<path fill="#F5952F" d="M113.5,91.25c3.869,0,3.869-6,0-6S109.631,91.25,113.5,91.25L113.5,91.25z"/>
		</g>
	</g>
	<g>
		<g>
			<path fill="#F5952F" d="M220.374,132.509c3.869,0,3.869-6,0-6S216.505,132.509,220.374,132.509L220.374,132.509z"/>
		</g>
	</g>
	<g>
		<g>
			<path fill="#F5952F" d="M328.833,113.417c3.869,0,3.869-6,0-6S324.964,113.417,328.833,113.417L328.833,113.417z"/>
		</g>
	</g>
	<g>
		<g>
			<path fill="#F5952F" d="M184.125,190.362c3.869,0,3.869-6,0-6S180.256,190.362,184.125,190.362L184.125,190.362z"/>
		</g>
	</g>
	<g>
		<g>
			<path fill="#F5952F" d="M54.75,207.5c3.869,0,3.869-6,0-6S50.881,207.5,54.75,207.5L54.75,207.5z"/>
		</g>
	</g>
	<g>
		<g>
			<path fill="#F5952F" d="M353.75,155.448c3.869,0,3.869-6,0-6S349.881,155.448,353.75,155.448L353.75,155.448z"/>
		</g>
	</g>
	<g>
		<g>
			<path fill="#F5952F" d="M119.535,77.25c3.869,0,3.869-6,0-6S115.666,77.25,119.535,77.25L119.535,77.25z"/>
		</g>
	</g>
	<g>
		<g>
			<path fill="#F5952F" d="M288.293,189.172c3.869,0,3.869-6,0-6S284.424,189.172,288.293,189.172L288.293,189.172z"/>
		</g>
	</g>
	<g>
		<g>
			<path fill="#F5952F" d="M236.5,209c3.869,0,3.869-6,0-6S232.631,209,236.5,209L236.5,209z"/>
		</g>
	</g>
	<g>
		<g>
			<path fill="#F5952F" d="M214.25,174c3.869,0,3.869-6,0-6S210.381,174,214.25,174L214.25,174z"/>
		</g>
	</g>
	<g>
		<g>
			<path fill="#F5952F" d="M180.5,202.25c3.869,0,3.869-6,0-6S176.631,202.25,180.5,202.25L180.5,202.25z"/>
		</g>
	</g>
	<g>
		<g>
			<path fill="#F5952F" d="M229.707,150.842c3.869,0,3.869-6,0-6S225.838,150.842,229.707,150.842L229.707,150.842z"/>
		</g>
	</g>
</g>
</svg>
