<?xml version="1.0" encoding="utf-8"?>
<!-- Generator: Adobe Illustrator 16.0.0, SVG Export Plug-In . SVG Version: 6.00 Build 0)  -->
<!DOCTYPE svg PUBLIC "-//W3C//DTD SVG 1.1//EN" "http://www.w3.org/Graphics/SVG/1.1/DTD/svg11.dtd">
<svg version="1.1" xmlns="http://www.w3.org/2000/svg" xmlns:xlink="http://www.w3.org/1999/xlink" x="0px" y="0px" width="400px"
	 height="300px" viewBox="0 0 400 300" enable-background="new 0 0 400 300" xml:space="preserve">
<g id="weiß">
	<path fill="#FFFFFF" d="M224.167,72.667c0,0-17.833-30.334-32.5-42S151,2.333,131.667,7s-10,20.167-3.667,21.833
		s63.834,15.167,86.334,47c-2.334,1.333-5.834,4.5-5.834,4.5s-18.5-8.833-43.5-7s-77.167,17.333-77.667,33.333
		c0,4.667-0.5,11.5,9.333,10.167s60.667-25.333,70.667-27.667S193.166,83,200,89c-1.667,4-4.667,8.5-4.667,8.5l2.833,1l0.167,7.333
		l4.833,2.167l-1.667,5.167l3,2.833c0,0-9.333,33.666-17.667,48.333s-28,44-29,52.5c-4.5-3.333-5.667-3.833-5.667-3.833l-4.667,4.5
		l-4.667-1.167l-0.167,3.834l-4.5,1.333L137,227.333L130.167,231l1.167,3.667l-4.667,7.666l3.5,1.834l-2.667,8.667l3.667,10.5
		l3.167,2.833l4.333-3L140,267.5l3.167,0.334l3-2.334c0,0,0,19.5,1.5,22.5c12.667,0.167,106.5,0.167,106.5,0.167
		s-2.001-11-16.667-16.5c-5.833-2.333-8.332-5.167-8.666-8s-4.167-18.833-9.167-22.333c8.333-6.167,13.499-12.5,12.333-20
		c7.667-9.667,19.5-27.001,19.5-31.834c4.334-6,6.334-8.833,6.334-8.833s4.166,0.001,10.833-9.833
		c2.833-4.5,7.167-10.667,7.167-10.667L300.5,131c0,0,11.501,2.833,16.834-0.667S334.001,112,332.834,107s-2.667-5.5-2.667-5.5
		l-8,7.333l-14.833,9.333c0,0-9.167-7.834-9.167-11.167s19.5-20.167,19.5-20.167s-4.001-3.167-7.167-2.667s-18.333,1.833-21.833,9
		s-4.833,21.667-4.833,21.667l-7,8.5c0,0,0.332-6-2.334-11.5s-11.833-28.167-27.333-35.167S224.167,72.667,224.167,72.667z"/>
</g>
<g id="Ebene_4">
	<path fill="none" stroke="#010101" stroke-width="2" stroke-linecap="round" stroke-linejoin="round" stroke-miterlimit="10" d="
		M219.333,240c0,0,6.383,7.108,9.839,24.389c1.729,6.049,5.185,6.049,5.185,6.049s17.57,6.049,19.874,18.146
		c-14.403-0.29-35.434-0.297-35.434-0.297s-6.625,0.286-6.912-1.729c-0.289-2.015-1.44-7.485-12.673-8.351
		c-5.472-0.29-7.77-1.144-7.77-1.144s-0.864-23.04-4.321-26.786"/>
	
		<line fill="none" stroke="#010101" stroke-width="2" stroke-linecap="round" stroke-linejoin="round" stroke-miterlimit="10" x1="257.5" y1="148.833" x2="254.333" y2="142"/>
	<path fill="none" stroke="#010101" stroke-width="2" stroke-linecap="round" stroke-linejoin="round" stroke-miterlimit="10" d="
		M251.667,188c-0.548,8.644-12.422,24.646-19.334,33"/>
	<path fill="none" stroke="#F5952F" stroke-width="2" stroke-linecap="round" stroke-linejoin="round" stroke-miterlimit="10" d="
		M223.8,189.094l-6.78,7.218c0,0-19.03-4.812-25.154,9.188c-6.125,13.999-6.125,21.436-6.125,21.436s19.904-20.561,24.936-15.093
		c5.031,5.469,9.843,8.969,4.812,14.218c-5.031,5.25-18.374,15.093-17.499,15.968s6.344,2.188,16.624,0.656
		s19.03-11.155,18.374-20.998c-0.656-9.844-0.656-9.844-0.656-9.844l68.026-81.588c0,0,19.249,5.468,26.029-10.062
		c6.781-15.53,2.844-16.405,2.844-16.405l-22.311,15.749c0,0-10.062-10.062-8.312-14.218c1.75-4.156,19.905-18.374,19.905-18.374
		s-13.343-2.844-21.437,2.187c-8.093,5.031-15.749,12.25-11.374,27.124L240.667,171l43.066-55.839c0,0-6.562-35.435,34.998-30.186
		c-6.125,4.593-22.093,17.936-22.312,19.03s8.531,15.749,13.343,15.53c4.812-0.219,20.562-17.936,20.562-17.936
		s8.093,4.375-6.344,24.717c-2.405,2.188-7.437,9.187-22.967,5.687c-13.562,15.75-70.433,78.526-70.433,78.526
		s4.374,14.655-3.281,23.187c-7.655,8.53-21.218,9.405-27.342,7.874c12.905-11.155,18.155-13.78,18.812-17.937
		c0.656-4.155-6.344-13.999-12.031-13.999c-5.687,0-23.404,17.499-23.404,17.499s2.625-25.811,19.687-29.529
		c5.905-1.094,13.78,0.219,13.78,0.219l8.749-8.093"/>
</g>
<g id="grau">
	
		<path fill="#FFFFFF" stroke="#010101" stroke-width="2" stroke-linecap="round" stroke-linejoin="round" stroke-miterlimit="10" d="
		M213,125c0,0,5.333,8,28.667,13c7,0.333,13.24,1.778,21,0c16-3.667,15-12,14-20c-0.576-2.592-15.669-50.247-51-45.667
		c-12.003,1.087-16.978,8.01-16.978,8.01c0,0-18.555-8.75-46.023-6.676C136.829,75.618,87.323,91.096,87,110
		c-0.474,27.694,84-39.667,112.494-21.023c-0.578,3.456-4.317,8.931-4.317,8.931l3.745,0.287l-1.151,8.06l5.474,1.441l-2.017,5.475
		l3.169,2.879l-1.152,6.048l-3.45,10.089c0,0-6.913,23.039-12.097,31.106c-5.184,8.066-27.081,45.786-30.249,53.274
		c-1.729-2.302-5.185-3.456-5.185-3.456l-5.202,4.327L143,216.002v4.32l-5.302,0.863l-0.776,6.336l-7.017,2.879l1.248,4.897
		l-4.563,6.912l4.056,2.306l-3.157,8.928l3.174,8.927l3.458,4.034l4.323-3.526l1.442,5.122h2.878l3.458-3.103"/>
	<path fill="none" stroke="#010101" stroke-width="2" stroke-linecap="round" stroke-linejoin="round" stroke-miterlimit="10" d="
		M214.188,287.999l-66.238,0.294c0,0-5.76-28.514,3.457-46.659"/>
	<path stroke="#010101" stroke-width="2" stroke-linecap="round" stroke-linejoin="round" stroke-miterlimit="10" d="
		M221.577,113.145c0,0-4.058,0.352-2.087,2.479C221.462,117.754,224.563,115.192,221.577,113.145z"/>
	<path fill="none" stroke="#010101" stroke-width="2" stroke-linecap="round" stroke-linejoin="round" stroke-miterlimit="10" d="
		M216.096,179.39c0,0,13.88,17.133,21.02,10.43c7.138-6.701,1.072-19.289,3.552-21.152"/>
	
		<path fill="#FFFFFF" stroke="#010101" stroke-width="2" stroke-linecap="round" stroke-linejoin="round" stroke-miterlimit="10" d="
		M255,178.334c0,0-4.944-25.449,10-20.666c8.333,2.666,6,9,6,9S260.667,187,255,178.334z"/>
	<path fill="none" stroke="#010101" stroke-width="2" stroke-linecap="round" stroke-linejoin="round" stroke-miterlimit="10" d="
		M223.75,72.25c0,0-21.819-46.873-67.418-61.94c-38.614-12.76-47.231,14.566-21.101,21.03
		c60.325,14.923,79.353,44.223,79.353,44.223"/>
	<path fill="none" stroke="#010101" stroke-width="2" stroke-linecap="round" stroke-linejoin="round" stroke-miterlimit="10" d="
		M263,134.667c0,0,1.001,1.167,5.667,1.167"/>
</g>
<g id="Sparcles">
	<g>
		<g>
			<path fill="#F5952F" d="M248,201c3.869,0,3.869-6,0-6S244.131,201,248,201L248,201z"/>
		</g>
	</g>
	<g>
		<g>
			<path fill="#F5952F" d="M250,149.667c3.869,0,3.869-6,0-6S246.131,149.667,250,149.667L250,149.667z"/>
		</g>
	</g>
	<g>
		<g>
			<path fill="#F5952F" d="M243.75,163c3.869,0,3.869-6,0-6S239.881,163,243.75,163L243.75,163z"/>
		</g>
	</g>
	<g>
		<g>
			<path fill="#F5952F" d="M229.333,206c3.869,0,3.869-6,0-6S225.464,206,229.333,206L229.333,206z"/>
		</g>
	</g>
	<g>
		<g>
			<path fill="#F5952F" d="M280.667,164c3.869,0,3.869-6,0-6S276.798,164,280.667,164L280.667,164z"/>
		</g>
	</g>
	<g>
		<g>
			<path fill="#F5952F" d="M181.75,234.75c3.869,0,3.869-6,0-6S177.881,234.75,181.75,234.75L181.75,234.75z"/>
		</g>
	</g>
	<g>
		<g>
			<path fill="#F5952F" d="M183.167,209.833c3.869,0,3.869-6,0-6S179.297,209.833,183.167,209.833L183.167,209.833z"/>
		</g>
	</g>
	<g>
		<g>
			<path fill="#F5952F" d="M245.25,177.5c3.869,0,3.869-6,0-6S241.381,177.5,245.25,177.5L245.25,177.5z"/>
		</g>
	</g>
	<g>
		<g>
			<path fill="#F5952F" d="M288.748,126.583c3.869,0,3.869-6,0-6S284.879,126.583,288.748,126.583L288.748,126.583z"/>
		</g>
	</g>
	<g>
		<g>
			<path fill="#F5952F" d="M317,109.667c3.869,0,3.869-6,0-6S313.131,109.667,317,109.667L317,109.667z"/>
		</g>
	</g>
	<g>
		<g>
			<path fill="#F5952F" d="M327,97.333c3.869,0,3.869-6,0-6S323.131,97.333,327,97.333L327,97.333z"/>
		</g>
	</g>
</g>
</svg>
