<?xml version="1.0" encoding="utf-8"?>
<!-- Generator: Adobe Illustrator 16.0.0, SVG Export Plug-In . SVG Version: 6.00 Build 0)  -->
<!DOCTYPE svg PUBLIC "-//W3C//DTD SVG 1.1//EN" "http://www.w3.org/Graphics/SVG/1.1/DTD/svg11.dtd">
<svg version="1.1" id="Ebene_1" xmlns="http://www.w3.org/2000/svg" xmlns:xlink="http://www.w3.org/1999/xlink" x="0px" y="0px"
	 width="400px" height="300px" viewBox="0 0 400 300" enable-background="new 0 0 400 300" xml:space="preserve">
<g id="weiß">
	<path fill="#FFFFFF" d="M17.839,105.694l-1.093-4.009l-4.738-0.364l2.916-29.153l95.839-1.457c0,0,0.365,29.517-1.093,32.433
		C108.213,106.059,17.839,105.694,17.839,105.694z"/>
	<path fill="#FFFFFF" d="M114.771,69.981l-2.551,35.713l3.644,0.364l-2.915,33.525l1.823,34.255l-0.729,28.788v37.899l138.84-1.458
		V107.151l23.321,0.365l1.458-1.457l104.586-1.823l1.092-3.644c0,0,2.551-26.966,1.094-29.517
		C382.977,68.525,120.966,72.896,114.771,69.981z"/>
</g>
<g id="Internet_Explorer">
	<path fill="none" stroke="#000000" stroke-width="2" stroke-linecap="round" stroke-linejoin="round" stroke-miterlimit="10" d="
		M108.941,71.439c0,0-85.636-0.364-91.831,3.644c-3.189,7.562,0.364,30.611,0.364,30.611s90.738-0.364,92.195-1.458
		c1.457-1.093,1.458-33.525,1.458-33.525l-96.568,1.822l-2.551,28.788l101.306,1.823l0.364-33.526"/>
	
		<polyline fill="none" stroke="#000000" stroke-width="2" stroke-linecap="round" stroke-linejoin="round" stroke-miterlimit="10" points="
		114.134,70.164 180.091,70.437 178.634,105.784 178.178,72.076 114.498,71.986 	"/>
	<path fill="none" stroke="#000000" stroke-width="2" stroke-linecap="round" stroke-linejoin="round" stroke-miterlimit="10" d="
		M181.55,70.437c0.273,0,96.295-0.456,96.295-0.456s0.365,37.444-1.002,37.444c-1.366,0-96.113-1.185-96.113-1.185l94.108-0.91
		l1.185-33.708L180,71.257"/>
	<path fill="none" stroke="#000000" stroke-width="2" stroke-linecap="round" stroke-linejoin="round" stroke-miterlimit="10" d="
		M277.845,69.981c0,0,102.309,2.004,103.219,2.916c0.911,0.912,3.369,30.064,1.548,31.34c-1.821,1.276-104.402,1.731-104.402,1.731
		l105.496-4.373c0,0,1.912-27.24,0.455-29.791c-1.456-2.55-105.86,0-105.86,0"/>
	
		<polyline fill="none" stroke="#000000" stroke-width="2" stroke-linecap="round" stroke-linejoin="round" stroke-miterlimit="10" points="
		38.245,88.019 82.339,88.019 38.245,86.015 81.792,84.376 	"/>
	
		<polyline fill="none" stroke="#000000" stroke-width="2" stroke-linecap="round" stroke-linejoin="round" stroke-miterlimit="10" points="
		209.7,83.646 253.61,84.193 208.607,89.295 249.784,87.656 	"/>
	
		<polyline fill="none" stroke="#000000" stroke-width="2" stroke-linecap="round" stroke-linejoin="round" stroke-miterlimit="10" points="
		298.068,85.652 358.561,84.376 297.34,88.202 358.014,88.202 	"/>
	
		<polyline fill="none" stroke="#000000" stroke-width="2" stroke-linecap="round" stroke-linejoin="round" stroke-miterlimit="10" points="
		129.529,84.193 161.78,86.198 128.801,89.659 157.589,90.571 	"/>
	
		<polyline fill="none" stroke="#000000" stroke-width="2" stroke-linecap="round" stroke-linejoin="round" stroke-miterlimit="10" points="
		252.018,137.534 116.411,137.397 115.864,72.532 	"/>
	
		<polyline fill="none" stroke="#000000" stroke-width="2" stroke-linecap="round" stroke-linejoin="round" stroke-miterlimit="10" points="
		249.968,139.174 113.131,139.766 115.227,106.513 126.159,105.42 111.947,105.42 	"/>
	
		<polyline fill="none" stroke="#000000" stroke-width="2" stroke-linecap="round" stroke-linejoin="round" stroke-miterlimit="10" points="
		114.043,140.677 113.496,173.839 248.601,173.2 114.771,171.469 112.038,139.037 	"/>
	
		<polyline fill="none" stroke="#000000" stroke-width="2" stroke-linecap="round" stroke-linejoin="round" stroke-miterlimit="10" points="
		113.496,173.839 113.496,203.355 250.514,203.675 114.043,205.724 114.954,175.66 	"/>
	
		<polyline fill="none" stroke="#000000" stroke-width="2" stroke-linecap="round" stroke-linejoin="round" stroke-miterlimit="10" points="
		113.86,206.453 113.997,240.343 253.063,239.051 252.837,110.066 250.469,238.696 115.637,237.427 115.136,204.266 	"/>
	
		<polyline fill="none" stroke="#000000" stroke-width="2" stroke-linecap="round" stroke-linejoin="round" stroke-miterlimit="10" points="
		130.806,218.432 130.806,224.127 137.911,224.308 137.182,220.665 140.645,224.492 137.182,227.042 	"/>
	
		<polyline fill="none" stroke="#000000" stroke-width="2" stroke-linecap="round" stroke-linejoin="round" stroke-miterlimit="10" points="
		132.718,185.408 131.808,190.875 140.917,190.51 139.642,187.594 143.104,190.692 139.095,193.607 	"/>
	
		<polyline fill="none" stroke="#000000" stroke-width="2" stroke-linecap="round" stroke-linejoin="round" stroke-miterlimit="10" points="
		130.896,152.064 131.079,156.802 140.007,156.62 138.731,153.522 142.921,156.802 137.456,160.082 	"/>
	
		<polyline fill="none" stroke="#000000" stroke-width="2" stroke-linecap="round" stroke-linejoin="round" stroke-miterlimit="10" points="
		132.171,117.81 131.762,123.868 140.917,124.187 138.367,120.725 142.011,124.005 137.638,127.649 	"/>
	
		<polyline display="none" fill="none" stroke="#000000" stroke-width="2" stroke-linecap="round" stroke-linejoin="round" stroke-miterlimit="10" points="
		144.958,117.708 205.292,118.042 145.125,120.208 207.958,120.208 	"/>
	
		<path display="none" fill="none" stroke="#000000" stroke-width="2" stroke-linecap="round" stroke-linejoin="round" stroke-miterlimit="10" d="
		M147.167,147.5l61,0.167l-61.333,2c0,0,60.5,0.167,61.333,0"/>
	
		<path display="none" fill="none" stroke="#000000" stroke-width="2" stroke-linecap="round" stroke-linejoin="round" stroke-miterlimit="10" d="
		M146,178c0,0,66.666,0.168,65.833,0.334s-66.167,2.166-66.167,2.166l63.167-0.5"/>
	
		<polyline display="none" fill="none" stroke="#000000" stroke-width="2" stroke-linecap="round" stroke-linejoin="round" stroke-miterlimit="10" points="
		147.167,209.917 210.834,208.417 146.333,212.583 211.334,211.083 	"/>
	
		<polyline fill="none" stroke="#000000" stroke-width="2" stroke-linecap="round" stroke-linejoin="round" stroke-miterlimit="10" points="
		178.634,105.784 145.928,105.694 178.087,104.874 	"/>
</g>
<g id="Sparcles">
	<g>
		<g>
			<path fill="#F5952F" d="M244.138,131.931c4.229,0,4.229-6.559,0-6.559C239.906,125.372,239.906,131.931,244.138,131.931
				L244.138,131.931z"/>
		</g>
	</g>
	<g>
		<g>
			<path fill="#F5952F" d="M110.581,137.215c4.23,0,4.23-6.56,0-6.56S106.351,137.215,110.581,137.215L110.581,137.215z"/>
		</g>
	</g>
	<g>
		<g>
			<path fill="#F5952F" d="M280.577,143.41c4.23,0,4.23-6.559,0-6.559C276.348,136.851,276.348,143.41,280.577,143.41
				L280.577,143.41z"/>
		</g>
	</g>
	<g>
		<g>
			<path fill="#F5952F" d="M318.84,120.452c4.23,0,4.23-6.56,0-6.56C314.61,113.892,314.61,120.452,318.84,120.452L318.84,120.452z"
				/>
		</g>
	</g>
	<g>
		<g>
			<path fill="#F5952F" d="M252.883,237.063c4.229,0,4.229-6.559,0-6.559C248.652,230.505,248.652,237.063,252.883,237.063
				L252.883,237.063z"/>
		</g>
	</g>
	<g>
		<g>
			<path fill="#F5952F" d="M255.615,188.961c4.23,0,4.23-6.559,0-6.559C251.386,182.402,251.386,188.961,255.615,188.961
				L255.615,188.961z"/>
		</g>
	</g>
	<g>
		<g>
			<path fill="#F5952F" d="M262.175,204.266c4.229,0,4.229-6.56,0-6.56C257.944,197.707,257.944,204.266,262.175,204.266
				L262.175,204.266z"/>
		</g>
	</g>
	<g>
		<g>
			<path fill="#F5952F" d="M262.175,222.304c4.229,0,4.229-6.559,0-6.559C257.944,215.746,257.944,222.304,262.175,222.304
				L262.175,222.304z"/>
		</g>
	</g>
	<g>
		<g>
			<path fill="#F5952F" d="M259.078,264.577c4.229,0,4.229-6.561,0-6.561C254.848,258.016,254.848,264.577,259.078,264.577
				L259.078,264.577z"/>
		</g>
	</g>
	<g>
		<g>
			<path fill="#F5952F" d="M118.78,103.324c4.23,0,4.23-6.559,0-6.559S114.55,103.324,118.78,103.324L118.78,103.324z"/>
		</g>
	</g>
	<g>
		<g>
			<path fill="#F5952F" d="M14.923,77.999c4.229,0,4.229-6.56,0-6.56C10.693,71.439,10.693,77.999,14.923,77.999L14.923,77.999z"/>
		</g>
	</g>
	<g>
		<g>
			<path fill="#F5952F" d="M114.407,111.524c4.23,0,4.23-6.56,0-6.56S110.177,111.524,114.407,111.524L114.407,111.524z"/>
		</g>
	</g>
	<g>
		<g>
			<path fill="#F5952F" d="M108.394,121.363c4.23,0,4.23-6.56,0-6.56S104.164,121.363,108.394,121.363L108.394,121.363z"/>
		</g>
	</g>
	<g>
		<g>
			<path fill="#F5952F" d="M7.271,98.77c4.23,0,4.23-6.56,0-6.56S3.041,98.77,7.271,98.77L7.271,98.77z"/>
		</g>
	</g>
	<g>
		<g>
			<path fill="#F5952F" d="M208.424,257.288c4.23,0,4.23-6.559,0-6.559C204.194,250.729,204.194,257.288,208.424,257.288
				L208.424,257.288z"/>
		</g>
	</g>
	<g>
		<g>
			<path fill="#F5952F" d="M120.603,249.635c4.229,0,4.229-6.56,0-6.56C116.372,243.076,116.372,249.635,120.603,249.635
				L120.603,249.635z"/>
		</g>
	</g>
	<g>
		<g>
			<path fill="#F5952F" d="M228.831,245.627c4.23,0,4.23-6.559,0-6.559C224.602,239.068,224.602,245.627,228.831,245.627
				L228.831,245.627z"/>
		</g>
	</g>
	<g>
		<g>
			<path fill="#F5952F" d="M317.747,235.787c4.229,0,4.229-6.559,0-6.559C313.517,229.228,313.517,235.787,317.747,235.787
				L317.747,235.787z"/>
		</g>
	</g>
	<g>
		<g>
			<path fill="#F5952F" d="M152.669,127.558c4.23,0,4.23-6.559,0-6.559C148.44,120.999,148.44,127.558,152.669,127.558
				L152.669,127.558z"/>
		</g>
	</g>
	<g>
		<g>
			<path fill="#F5952F" d="M393.763,97.028c4.229,0,4.229-6.56,0-6.56S389.533,97.028,393.763,97.028L393.763,97.028z"/>
		</g>
	</g>
	<g>
		<g>
			<path fill="#F5952F" d="M382.612,106.058c4.229,0,4.229-6.56,0-6.56S378.383,106.058,382.612,106.058L382.612,106.058z"/>
		</g>
	</g>
	<g>
		<g>
			<path fill="#F5952F" d="M363.652,114.608c4.229,0,4.229-6.559,0-6.559C359.422,108.049,359.422,114.608,363.652,114.608
				L363.652,114.608z"/>
		</g>
	</g>
	<g>
		<g>
			<path fill="#F5952F" d="M343.329,116.649c4.229,0,4.229-6.559,0-6.559C339.101,110.09,339.101,116.649,343.329,116.649
				L343.329,116.649z"/>
		</g>
	</g>
	<g>
		<g>
			<path fill="#F5952F" d="M55.373,68.938c4.229,0,4.229-6.56,0-6.56C51.143,62.379,51.143,68.938,55.373,68.938L55.373,68.938z"/>
		</g>
	</g>
</g>
</svg>
