<?xml version="1.0" encoding="utf-8"?>
<!-- Generator: Adobe Illustrator 16.0.0, SVG Export Plug-In . SVG Version: 6.00 Build 0)  -->
<!DOCTYPE svg PUBLIC "-//W3C//DTD SVG 1.1//EN" "http://www.w3.org/Graphics/SVG/1.1/DTD/svg11.dtd">
<svg version="1.1" id="Ebene_1" xmlns="http://www.w3.org/2000/svg" xmlns:xlink="http://www.w3.org/1999/xlink" x="0px" y="0px"
	 width="400px" height="236px" viewBox="0 29.5 400 236" enable-background="new 0 29.5 400 236" xml:space="preserve">
<g id="weiß">
	<path fill="#FFFFFF" d="M358.338,176.742c0,0-0.735,15.783-16.017,14.714c-9.129-2.408-15.758-4.199-22.208-21.628
		c0.773-1.379,73.269-0.665,73.269-0.665l1.888-1.5l3.73,0.074c0,0-1.469-25.4-6.708-35.05
		c-4.169-7.673-20.858-18.675-30.477-23.625c15.917-4.949,24.479,1.338,28.356,4.455c3.88,3.118,5.462,13.335,5.462,13.335
		s3.575-15.236,1.493-22.604c-3.476-12.306-22.226-13.413-50.305,1.854c-15.58,0.371-37.174,1.486-52.822,24.962
		c-11.1,19.463-7.904,34.161-7.904,34.161s-11.31,24.895-11.265,34.792c0.045,9.898,2.823,19.723,27.82,17.193
		c-7.178-2.748-14.534-1.086-17.009-6.331c-2.475-5.244-5.685-10.06,5.552-28.786c10.445,16.544,20.737,35.045,60.527,33.439
		c10.155-2.303,34.811-9.281,43.986-34.468C395.255,179.149,358.338,176.742,358.338,176.742z M332.925,134.208
		c13.108-7.223,18.726-1.338,27.018,3.478c8.294,4.815,8.026,16.586,8.026,16.586l-48.688,0.802
		C319.281,155.073,319.817,141.43,332.925,134.208z"/>
	<path fill="#FFFFFF" d="M259.044,150.262c0,0-1.329,9.906-3.057,10.696c-0.712-7.99-1.726-33.424-11.348-43.598
		c-9.623-10.173-22.691-11.656-22.691-11.656s-16.893-7.879-46.053,2.286l-7.886,4.671c0,0-10.38,5.785-11.399,7.648
		c-1.314-2.421-4.33-8.231-4.33-8.231s-7.008,11.482-5.809,17.341c-5.487,9.084-11.582,19.366-10.273,31.538
		c1.309,12.172,14.754,54.589,61.333,56.652c14.21,0.061,41.934-0.001,55.224-29.129
		C259.663,163.907,260.469,152.54,259.044,150.262z"/>
	<path fill="#FFFFFF" d="M110.616,134.512c0,0,3.634,5.539,5.416,15.335c1.783,9.796,7.553,34.601-7.021,46.731
		c-14.574,12.131-36.179,21.643-50.991,21.032c-14.811-0.61-49.102-14.974-53.759-37.618c-4.657-22.646,1.229-56.62,8.057-52.449
		c6.557-11.519,18.703-32.066,58.302-25.342C86.623,106.873,102.449,109.803,110.616,134.512z"/>
</g>
<g id="Internet_Explorer">
	<path fill="none" stroke="#BFC2C9" stroke-width="2" stroke-linecap="round" stroke-linejoin="round" stroke-miterlimit="10" d="
		M319.461,169.163h75.615c0,0,7.312-44.942-30.853-58.318c-42.899-15.035-70.444,14.98-75.974,43.693
		c-5.528,28.715,21.401,75.262,75.438,58.14c22.115-8.204,32.699-32.101,32.31-32.636c-0.388-0.535-37.66-3.389-37.66-3.389
		s0.044,14.98-16.562,14.446c-16.607-0.535-22.85-24.969-22.85-24.969L399,167.737c0,0-1.068-28.536-7.312-35.847
		c-6.955-10.701-44.926-43.431-85.775-14.582c-14.371,11.436-39.954,50.073,5.521,87.881c8.203,5.526,50.649,29.071,81.681-23.007
		c-17.656-0.714-29.962-1.07-29.962-1.07s-8.56,18.904-32.992,8.025C324.275,186.462,319.104,176.832,319.461,169.163"/>
	<path fill="none" stroke="#BFC2C9" stroke-width="2" stroke-linecap="round" stroke-linejoin="round" stroke-miterlimit="10" d="
		M319.103,154.538h48.866c0,0-1.604-18.546-14.267-22.827c-12.664-4.28-35.366,7.389-34.6,24.79
		c18.013,1.248,51.362-2.675,51.362-2.675s-11.591-30.319-37.629-21.401c-12.663,3.567-15.694,22.471-15.694,22.471"/>
	<path fill="none" stroke="#000000" stroke-width="2" stroke-linecap="round" stroke-linejoin="round" stroke-miterlimit="10" d="
		M392.045,130.106c0,0,6.955-24.401-1.873-31.478c-8.827-7.076-57.782-9.475-109.412,80.142
		c-10.165,20.063-11.503,50.672,31.031,34.086c-14.178,2.942-36.248,4.815-26.148-19.529
		c10.097-24.343,66.275-109.412,103.727-80.521c3.478,2.408,5.646,12.001,5.279,17.976c2.479-9.682,8.364-32.191-6.349-35.096
		c-14.713-2.905-47.082,7.223-78.916,37.987s-33.974,63.935-31.031,74.903c2.942,10.968,18.726,10.754,27.285,7.785
		c0,0-16.295,4.824-23.54-5.912c-7.246-10.737,25.016-64.376,40.751-79.987c15.734-15.61,62.509-47.349,70.267-20.331
		c-2.403-5.125,2.271-11.003-18.191-7.891c-20.463,3.112-61.528,20.934-90.419,75.004c-4.013,9.932-20.33,48.987,30.497,36.414"/>
</g>
<g id="Firefox">
	<path fill="none" stroke="#BFC2C9" stroke-width="2" stroke-linecap="round" stroke-linejoin="round" stroke-miterlimit="10" d="
		M157.616,119.762c0,0,15.07-18.596,63.221-11.771c0.446-1.159-3.567-6.509-26.751-4.636c-23.184,1.872-33.329,18.125-33.35,19.974
		c0,0,22.114-15.337,61.706-13.197c-18.726,1.426-25.083,4.815-35.847,10.165c7.445-2.675,15.694-5.35,38.521-8.292
		c0,0-37.884,14.286-43.336,16.318c10.299,0.802,47.776-11.272,47.776-11.272s-40.107,13.616-42.961,16.113
		c6.956,1.605,42.961-13.402,42.961-13.402l-31.904,16.05l32.811-8.961l-39.588,16.914l40.661-11.43l-48.687,20.331l50.412-14.937
		l-55.227,23.23l57.783-21.067l-55.241,24.277l55.241-20.404l-50.828,24.417l45.067-18.381l-28.48,14.77
		c0,0,29.158-9.919,29.96-10.165c0.803-0.246-19.527,10.165-19.527,10.165l20.33-5.082l-19.527,8.693l18.458-3.21l-41.598,18.859
		l40.26-13.777l-35.579,16.23l32.548-11.014l-25.994,14.178l20.466-7.489"/>
	<path fill="none" stroke="#000000" stroke-width="2" stroke-linecap="round" stroke-linejoin="round" stroke-miterlimit="10" d="
		M146.75,132.608c-1.059-8.554,0.521-14.451,4.936-19.801c-1.337,4.548,6.548,12.342,6.548,12.342s8.968-1.24,13.783,1.034
		c3.344-4.013,12.038-8.961,15.516-8.561c-5.885,6.956-15.516,13.911,7.49,18.859c-7.356,7.758-24.878,14.729-19.127,24.552
		c5.751,9.822,12.573,9.021,17.121,6.748c4.548-2.274,16.585-2.676,17.121,3.344c-4.548,1.203-1.337-2.008-7.49,3.076
		c-6.152,5.082-10.834,6.553-21.133,4.948c5.35,5.618,24.075,20.064,39.725,6.287c15.65-13.776,12.573-35.713,12.038-37.318
		c-0.534-1.604,5.217,3.469,5.217,3.469s-4.013-25.404-12.706-28.481c-0.269-2.006,8.024,2.541,8.024,2.541
		s-6.286-15.783-12.975-17.655c9.898,1.337,30.363,7.624,33.439,31.967c1.337,11.637,1.16,21.892,1.16,21.892
		s3.879-5.483,3.478-13.107c1.604,16.585-2.14,35.935-13.732,48.598c-10.366,11.322-68.35,40.795-98.177-9.363
		c-16.318-29.604-3.453-53.747,1.496-57.091c0,0-1.584-15.047,4.211-19.15c1.07,4.369,7.312,14.446,7.312,14.446
		s6.866-1.517,11.324-1.517c3.924-2.854,8.382-8.828,16.14-8.828c-2.578,4.734-9.631,11.592-7.49,14.981
		c2.14,3.389,14.445,1.783,17.656,4.993c-0.714,3.122-25.414,20.469-22.739,28.356c1.159,3.875,6.867,10.255,22.024,3.924
		c15.158-6.331,16.23,0.536,14.357,4.727c-3.032,0.178-4.903-3.39-11.325,1.783c-6.42,5.172-16.764,6.42-19.974,5.262
		c4.191,3.654,24.878,26.839,52.165-8.204c3.744-5.262,2.229-24.968,1.604-25.86c1.159,0.714,5.975,4.012,5.975,4.012
		s-7.401-25.146-14.624-29.337c2.319,0.625,10.255,4.102,10.255,4.102s-5.082-14.625-15.782-20.331
		c7.044,0.624,26.662,7.669,35.044,28.177c3.565,12.127-3.746,33.26-3.746,33.26s8.293-8.025,9.452-17.566
		c0.804,10.523-1.159,54.662-34.776,65.451s-62.419,0.803-81.234-28.623c-16.764-26.751-3.122-47.617-0.268-51.451"/>
</g>
<g id="Google_Chrome">
	<path fill="none" stroke="#000000" stroke-width="2" stroke-linecap="round" stroke-linejoin="round" stroke-miterlimit="10" d="
		M67.687,141.163c0,0-15.649-5.885-24.344,6.955c-8.694,12.841-1.739,36.649,19.261,31.031c21-5.617,21.133-22.471,9.363-35.312
		c-11.771-12.84-24.21-3.095-27.153,7.749c-0.368,1.354-0.719,2.827-0.998,4.363c-1.959,10.75-0.422,24.604,23.336,23.199
		c4.547-0.401,19.528-9.63,10.566-30.095c-2.274-4.28-8.56-8.828-22.471-7.356l-6.42,4.44l13.309-2.373l-15.449,7.296l20.598-7.296
		l-26.216,12.98l31.031-10.607l-30.497,14.895l31.299-12.915l-31.031,17.12l32.102-13.91l-28.356,16.854l31.299-15.248
		L43.669,173.59l33.248-18.249l-29.192,18.988l32.69-15.469L53.91,175.404l23.006-11.235l-21.133,14.98l22.843-11.779l-15.085,9.874
		l12.046-5.181"/>
	<path fill="none" stroke="#000000" stroke-width="2" stroke-linecap="round" stroke-linejoin="round" stroke-miterlimit="10" d="
		M34.486,160.959c0,0-4.25-20.732,16.883-26.082c12.975-2.809,58.585-2.274,58.585-2.274s-11.342-32.24-52.833-28.356
		c-31.433,2.942-44.406,22.604-44.406,22.604s11.903-36.917,66.476-22.604c19.796,5.751,29.694,17.521,33.038,30.229
		c-11.236,0.401-61.929-1.873-68.75,1.739C36.656,139.825,29.938,140.895,34.486,160.959z"/>
	<path fill="none" stroke="#000000" stroke-width="2" stroke-linecap="round" stroke-linejoin="round" stroke-miterlimit="10" d="
		M110.616,134.512c0,0,19.134,46.109-4.006,64.166c-23.14,18.058-48.687,19.118-48.687,19.118s25.949-48.544,26.083-49.614
		s13.139-26.506-7.593-30.453c10.032,7.825,15.662,19.017,8.396,35.402c-12.439,23.139-25.681,46.146-25.681,46.146
		s39.324-3.21,53.903-36.649C118.782,171.66,116.099,141.669,110.616,134.512z"/>
	<path fill="none" stroke="#000000" stroke-width="2" stroke-linecap="round" stroke-linejoin="round" stroke-miterlimit="10" d="
		M72.456,182.357c0,0-12.352,6.222-22.291,2.41c-18.859-8.293-38.521-59.388-38.521-59.388s-9.096,12.439-9.764,30.63
		c-0.668,18.191,2.809,49.818,56.043,60.652c-5.484,1.338-36.248-0.596-50.827-37.513c-3.941-12.445-2.942-39.056,4.949-47.216
		c4.548,5.217,28.172,43.924,32.369,48.06C48.61,184.128,66.93,191.634,72.456,182.357z"/>
</g>
<g id="Sparcles">
	<g>
		<g>
			<path fill="#F5952F" d="M238.493,151.328c4.14,0,4.14-6.42,0-6.42C234.353,144.908,234.353,151.328,238.493,151.328
				L238.493,151.328z"/>
		</g>
	</g>
	<g>
		<g>
			<path fill="#F5952F" d="M237.424,129.392c4.14,0,4.14-6.42,0-6.42C233.283,122.972,233.283,129.392,237.424,129.392
				L237.424,129.392z"/>
		</g>
	</g>
	<g>
		<g>
			<path fill="#F5952F" d="M142.545,199.789c4.14,0,4.14-6.421,0-6.421S138.405,199.789,142.545,199.789L142.545,199.789z"/>
		</g>
	</g>
	<g>
		<g>
			<path fill="#F5952F" d="M280.76,133.673c4.14,0,4.14-6.42,0-6.42S276.62,133.673,280.76,133.673L280.76,133.673z"/>
		</g>
	</g>
	<g>
		<g>
			<path fill="#F5952F" d="M318.211,111.202c4.142,0,4.142-6.421,0-6.421C314.071,104.781,314.071,111.202,318.211,111.202
				L318.211,111.202z"/>
		</g>
	</g>
	<g>
		<g>
			<path fill="#F5952F" d="M381.077,177.143c4.14,0,4.14-6.42,0-6.42S376.938,177.143,381.077,177.143L381.077,177.143z"/>
		</g>
	</g>
	<g>
		<g>
			<path fill="#F5952F" d="M383.752,130.061c4.141,0,4.141-6.42,0-6.42S379.611,130.061,383.752,130.061L383.752,130.061z"/>
		</g>
	</g>
	<g>
		<g>
			<path fill="#F5952F" d="M390.172,145.042c4.141,0,4.141-6.42,0-6.42S386.031,145.042,390.172,145.042L390.172,145.042z"/>
		</g>
	</g>
	<g>
		<g>
			<path fill="#F5952F" d="M390.172,162.697c4.141,0,4.141-6.42,0-6.42S386.031,162.697,390.172,162.697L390.172,162.697z"/>
		</g>
	</g>
	<g>
		<g>
			<path fill="#F5952F" d="M377.866,192.659c4.141,0,4.141-6.42,0-6.42C373.727,186.239,373.727,192.659,377.866,192.659
				L377.866,192.659z"/>
		</g>
	</g>
	<g>
		<g>
			<path fill="#F5952F" d="M150.571,166.617c4.14,0,4.14-6.42,0-6.42S146.431,166.617,150.571,166.617L150.571,166.617z"/>
		</g>
	</g>
	<g>
		<g>
			<path fill="#F5952F" d="M14.319,173.037c4.14,0,4.14-6.42,0-6.42C10.179,166.617,10.179,173.037,14.319,173.037L14.319,173.037z"
				/>
		</g>
	</g>
	<g>
		<g>
			<path fill="#F5952F" d="M146.291,174.642c4.14,0,4.14-6.421,0-6.421S142.15,174.642,146.291,174.642L146.291,174.642z"/>
		</g>
	</g>
	<g>
		<g>
			<path fill="#F5952F" d="M140.405,184.273c4.14,0,4.14-6.421,0-6.421S136.265,184.273,140.405,184.273L140.405,184.273z"/>
		</g>
	</g>
	<g>
		<g>
			<path fill="#F5952F" d="M6.829,193.368c4.14,0,4.14-6.42,0-6.42C2.688,186.948,2.688,193.368,6.829,193.368L6.829,193.368z"/>
		</g>
	</g>
	<g>
		<g>
			<path fill="#F5952F" d="M249.016,174.334c4.14,0,4.14-6.42,0-6.42C244.875,167.914,244.875,174.334,249.016,174.334
				L249.016,174.334z"/>
		</g>
	</g>
	<g>
		<g>
			<path fill="#F5952F" d="M226.901,218.741c4.14,0,4.14-6.42,0-6.42S222.762,218.741,226.901,218.741L226.901,218.741z"/>
		</g>
	</g>
	<g>
		<g>
			<path fill="#F5952F" d="M186.596,222.487c4.14,0,4.14-6.421,0-6.421C182.456,216.066,182.456,222.487,186.596,222.487
				L186.596,222.487z"/>
		</g>
	</g>
	<g>
		<g>
			<path fill="#F5952F" d="M231.537,189.493c4.141,0,4.141-6.42,0-6.42C227.397,183.073,227.397,189.493,231.537,189.493
				L231.537,189.493z"/>
		</g>
	</g>
	<g>
		<g>
			<path fill="#F5952F" d="M317.142,224.092c4.14,0,4.14-6.42,0-6.42S313.002,224.092,317.142,224.092L317.142,224.092z"/>
		</g>
	</g>
	<g>
		<g>
			<path fill="#F5952F" d="M155.564,118.157c4.14,0,4.14-6.42,0-6.42C151.425,111.737,151.425,118.157,155.564,118.157
				L155.564,118.157z"/>
		</g>
	</g>
	<g>
		<g>
			<path fill="#F5952F" d="M100.636,218.741c4.14,0,4.14-6.42,0-6.42C96.496,212.321,96.495,218.741,100.636,218.741
				L100.636,218.741z"/>
		</g>
	</g>
	<g>
		<g>
			<path fill="#F5952F" d="M87.261,223.021c4.14,0,4.14-6.421,0-6.421C83.12,216.6,83.119,223.021,87.261,223.021L87.261,223.021z"
				/>
		</g>
	</g>
	<g>
		<g>
			<path fill="#F5952F" d="M66.93,224.092c4.14,0,4.14-6.42,0-6.42C62.79,217.672,62.789,224.092,66.93,224.092L66.93,224.092z"/>
		</g>
	</g>
	<g>
		<g>
			<path fill="#F5952F" d="M47.668,218.741c4.141,0,4.141-6.42,0-6.42C43.528,212.321,43.527,218.741,47.668,218.741L47.668,218.741
				z"/>
		</g>
	</g>
	<g>
		<g>
			<path fill="#F5952F" d="M53.91,164.169c4.141,0,4.141-6.42,0-6.42C49.77,157.749,49.77,164.169,53.91,164.169L53.91,164.169z"/>
		</g>
	</g>
</g>
</svg>
