<?xml version="1.0" encoding="utf-8"?>
<!-- Generator: Adobe Illustrator 16.0.0, SVG Export Plug-In . SVG Version: 6.00 Build 0)  -->
<!DOCTYPE svg PUBLIC "-//W3C//DTD SVG 1.1//EN" "http://www.w3.org/Graphics/SVG/1.1/DTD/svg11.dtd">
<svg version="1.1" xmlns="http://www.w3.org/2000/svg" xmlns:xlink="http://www.w3.org/1999/xlink" x="0px" y="0px" width="400px"
	 height="300px" viewBox="0 0 400 300" enable-background="new 0 0 400 300" xml:space="preserve">
<g id="weiß">
	<path fill="#FFFFFF" d="M31.667,102l-1-3.667L26.333,98L29,71.333L116.667,70c0,0,0.333,27-1,29.667S31.667,102,31.667,102z"/>
	<path fill="#FFFFFF" d="M120.333,69.333L118,102l3.333,0.333L118.667,133l1.667,31.334l-0.667,26.333v34.667l127-1.334V103.333
		L268,103.667l1.334-1.333L365,100.667l1-3.333c0,0,2.333-24.667,1-27S126,72,120.333,69.333z"/>
</g>
<g id="Internet_Explorer">
	<g>
		<path d="M31.333,103c-0.493,0-0.913-0.36-0.988-0.848c-0.03-0.192-0.204-1.339-0.427-3.088L26.315,99
			c-0.277-0.005-0.54-0.125-0.726-0.332c-0.186-0.206-0.277-0.48-0.252-0.757l2.333-26.333c0.045-0.509,0.466-0.902,0.977-0.912
			L116.981,69c0.265-0.001,0.528,0.098,0.719,0.286c0.192,0.188,0.3,0.445,0.3,0.714c0,17.578-0.427,25.233-0.878,28.633
			l0.889,0.016l0.322-29.659c0.006-0.552,0.439-1.003,1.011-0.989c0.552,0.006,0.995,0.458,0.989,1.011L120,99.677
			c-0.003,0.267-0.112,0.521-0.303,0.707c-0.191,0.186-0.439,0.284-0.715,0.283l-2.239-0.041c-0.187,0.624-0.356,0.751-0.476,0.84
			c-1.061,0.795-29.635,1.312-84.93,1.534C31.336,103,31.335,103,31.333,103z M31.944,99.101c0.1,0.783,0.188,1.428,0.254,1.896
			c21.775-0.09,50.729-0.319,68.111-0.666L31.944,99.101z M31.7,97.096l83.474,1.501c0.522-4.272,0.809-16.368,0.825-27.579
			l-0.063,0.001c-0.143,0.377-0.508,0.646-0.936,0.646c-0.001,0-0.003,0-0.004,0c-30.811-0.134-77.775,0.575-83.199,3.038
			C30.019,79.508,30.956,90.683,31.7,97.096z M27.424,97.02l2.252,0.041c-0.496-4.314-1.051-10.613-0.846-15.91L27.424,97.02z
			 M29.584,72.649l-0.388,4.377c0.203-1.32,0.49-2.484,0.883-3.416c0.078-0.185,0.209-0.342,0.378-0.451
			c0.302-0.195,0.784-0.38,1.425-0.555L29.584,72.649z"/>
	</g>
	<g>
		<path d="M178.75,103.083c-0.005,0-0.01,0-0.014,0c-0.542-0.008-0.979-0.445-0.986-0.986l-0.403-29.849l-57.265-0.082
			c-0.552-0.001-1-0.449-0.999-1.001c0-0.287,0.122-0.546,0.316-0.728c-0.381-0.143-0.651-0.511-0.649-0.941
			c0.002-0.551,0.45-0.996,1-0.996c0.001,0,0.003,0,0.004,0l60.333,0.25c0.272,0.001,0.531,0.113,0.719,0.309
			c0.188,0.196,0.287,0.461,0.276,0.732l-1.333,32.333C179.727,102.661,179.286,103.083,178.75,103.083z"/>
	</g>
	<g>
		<path d="M268.584,104.583c-1.242,0-84.391-1.04-87.93-1.083c-0.548-0.007-0.988-0.454-0.987-1.001s0.442-0.993,0.99-0.999
			l85.127-0.824l1.015-28.846l-86.803-0.33c-0.552-0.002-0.998-0.452-0.996-1.004c0.001-0.552,0.459-1.048,1.004-0.996l0.445,0.001
			c0.11-0.431,0.501-0.75,0.967-0.751c0.404-0.001,87.202-0.412,88.079-0.417c0.595,0.011,0.999,0.439,1.005,0.99
			c0.217,22.196-0.167,33.949-1.14,34.931C269.173,104.444,268.851,104.583,268.584,104.583z M267.182,102.569
			c0.289,0.003,0.536,0.006,0.739,0.008c0.462-2.595,0.619-13.407,0.623-23.473l-0.795,22.598
			C267.736,102.085,267.507,102.413,267.182,102.569z"/>
	</g>
	<g>
		<path d="M269.833,103.25c-0.543,0-0.987-0.434-1-0.977c-0.013-0.545,0.414-1,0.959-1.022l95.108-3.942
			c0.161-6.356-0.953-21.405-1.722-24.436c-3.649-0.405-27.045-1.06-52.664-1.659C296.636,71.411,282.223,71.7,269.941,72
			c-0.529,0.052-1.011-0.423-1.024-0.975c-0.007-0.286,0.106-0.546,0.295-0.733c-0.419-0.125-0.721-0.519-0.712-0.977
			c0.011-0.545,0.456-0.98,1-0.98c0.006,0,0.013,0,0.02,0c16.659,0.327,30.392,0.618,41.708,0.878
			c2.186-0.031,4.392-0.06,6.594-0.087c48.668-0.592,49.295,0.501,49.797,1.379c1.377,2.41,0.128,21.9-0.288,27.816
			c-0.024,0.358-0.237,0.664-0.54,0.819c-0.143,1.353-0.392,2.001-0.884,2.346c-1.672,1.171-60.908,1.608-96.068,1.764
			C269.836,103.25,269.834,103.25,269.833,103.25z M364.768,99.316l-34.21,1.418c17.761-0.242,31.665-0.555,34.114-0.929
			C364.708,99.676,364.74,99.511,364.768,99.316z M364.766,71.511c0.519,1.073,1.028,5.095,1.421,9.783
			c0.125-4.803,0.076-8.461-0.229-9.581C365.697,71.64,365.295,71.572,364.766,71.511z"/>
	</g>
	<g>
		<path d="M90.667,86.833H50.333c-0.552,0-1-0.448-1-1c0-0.41,0.247-0.762,0.6-0.917c-0.355-0.155-0.602-0.51-0.6-0.92
			c0.002-0.536,0.427-0.975,0.962-0.996l39.833-1.5c0.545-0.011,1.016,0.41,1.037,0.962c0.021,0.552-0.41,1.016-0.962,1.037
			l-15.787,0.594l16.295,0.741c0.543,0.025,0.967,0.479,0.954,1.022C91.654,86.399,91.21,86.833,90.667,86.833z"/>
	</g>
	<g>
		<path d="M206.166,88c-0.52,0-0.956-0.401-0.996-0.924c-0.041-0.537,0.35-1.009,0.885-1.07l25.329-2.871l-24.229-0.302
			c-0.552-0.007-0.994-0.46-0.987-1.012c0.007-0.548,0.453-0.988,1-0.988c0.004,0,0.008,0,0.013,0l40.166,0.5
			c0.527,0.007,0.96,0.422,0.986,0.95s-0.361,0.984-0.887,1.044l-13.982,1.585l10.33-0.411c0.539-0.032,1.017,0.407,1.039,0.959
			c0.022,0.552-0.407,1.017-0.959,1.039l-37.666,1.5C206.193,88,206.18,88,206.166,88z"/>
	</g>
	<g>
		<path d="M342.833,87h-55.5c-0.54,0-0.982-0.429-0.999-0.969c-0.018-0.54,0.397-0.996,0.937-1.029l7.723-0.482l-6.972,0.147
			c-0.008,0-0.015,0-0.021,0c-0.543,0-0.988-0.434-1-0.979c-0.012-0.552,0.427-1.009,0.979-1.021l55.333-1.167
			c0.008,0,0.015,0,0.021,0c0.535,0,0.977,0.422,0.999,0.958c0.022,0.543-0.394,1.005-0.937,1.04L319.364,85h23.469
			c0.553,0,1,0.448,1,1S343.386,87,342.833,87z"/>
	</g>
	<g>
		<path d="M159.5,89.167c-0.011,0-0.021,0-0.032,0l-26.333-0.833c-0.525-0.017-0.948-0.438-0.968-0.963
			c-0.019-0.526,0.372-0.976,0.895-1.031l18.259-1.917l-17.55-1.09c-0.551-0.034-0.97-0.509-0.936-1.06s0.522-0.967,1.06-0.936
			l29.5,1.833c0.519,0.032,0.927,0.457,0.938,0.977c0.011,0.52-0.378,0.962-0.896,1.016l-15.588,1.636l11.682,0.37
			c0.552,0.018,0.985,0.479,0.968,1.031C160.482,88.739,160.038,89.167,159.5,89.167z"/>
	</g>
	<g>
		<path d="M245.875,132.125L245.875,132.125L121.833,132c-0.549,0-0.994-0.443-0.999-0.992l-0.5-59.333
			c-0.004-0.552,0.439-1.003,0.992-1.008c0.003,0,0.006,0,0.008,0c0.548,0,0.995,0.442,1,0.992l0.492,58.342l123.051,0.124
			c0.553,0,1,0.449,0.999,1.001C246.874,131.678,246.427,132.125,245.875,132.125z"/>
	</g>
	<g>
		<path d="M118.833,134.167c-0.275,0-0.539-0.113-0.728-0.314c-0.19-0.201-0.288-0.473-0.271-0.749l1.913-30.354h-1.998
			c-0.552,0-1-0.448-1-1s0.448-1,1-1h13c0.533,0,0.972,0.418,0.999,0.95c0.027,0.532-0.369,0.992-0.899,1.045l-9.155,0.916
			l-1.796,28.501l124.097-0.537c0.541,0.012,1.002,0.443,1.004,0.996s-0.443,1.002-0.996,1.004l-125.166,0.542
			C118.836,134.167,118.835,134.167,118.833,134.167z"/>
	</g>
	<g>
		<path d="M119.167,165.334c-0.267,0-0.523-0.106-0.711-0.297c-0.189-0.191-0.293-0.451-0.289-0.72l0.22-13.345l-1.55-18.389
			c-0.046-0.55,0.362-1.034,0.913-1.081c0.553-0.054,1.034,0.362,1.081,0.913l0.079,0.932c0.187-0.217,0.46-0.355,0.774-0.348
			c0.552,0.009,0.992,0.464,0.983,1.017l-0.278,16.888l0.866,10.274l121.509,1.571c0.549,0.007,0.989,0.455,0.987,1.004
			s-0.446,0.993-0.995,0.996l-123.583,0.584C119.169,165.334,119.168,165.334,119.167,165.334z M120.186,163.156l-0.003,0.173
			l9.291-0.044l-9.153-0.118C120.275,163.166,120.23,163.163,120.186,163.156z"/>
	</g>
	<g>
		<path d="M119.667,194.5c-0.268,0-0.524-0.107-0.712-0.298c-0.192-0.195-0.295-0.46-0.287-0.732l0.038-1.248
			c-0.32-0.167-0.538-0.502-0.538-0.888v-27c0-0.553,0.448-1,1-1s1,0.447,1,1v0.723c0.114-0.039,0.236-0.056,0.364-0.057
			c0.552,0.018,0.986,0.479,0.969,1.03l-0.737,24.308l123.739,0.287c0.549,0.001,0.994,0.444,0.998,0.993
			c0.004,0.55-0.437,0.998-0.985,1.007L119.682,194.5C119.676,194.5,119.671,194.5,119.667,194.5z M120.702,192.338l-0.004,0.146
			l8.469-0.127L120.702,192.338z"/>
	</g>
	<g>
		<path d="M119.625,226.167c-0.263,0-0.515-0.104-0.702-0.288c-0.189-0.188-0.297-0.441-0.298-0.708l-0.125-31
			c-0.002-0.552,0.444-1.002,0.996-1.004c0.052,0.013,0.126,0.006,0.186,0.017l-0.015-1.002c-0.008-0.552,0.433-1.006,0.985-1.015
			c0.567,0.016,1.007,0.433,1.015,0.985l0.444,29.356l121.367,1.143l2.147-116.67c0.01-0.548,0.491-0.991,1.009-0.981
			c0.548,0.004,0.99,0.45,0.991,0.998l0.207,117.984c0.001,0.55-0.441,0.997-0.99,1.002l-127.208,1.183
			C119.631,226.167,119.628,226.167,119.625,226.167z M120.618,223.362l0.003,0.795l35.416-0.329l-34.921-0.328
			C120.934,223.498,120.764,223.448,120.618,223.362z M245.799,205.196l-0.327,17.801l0.358-0.004L245.799,205.196z"/>
	</g>
	<g>
		<path d="M140.834,214c-0.307,0-0.61-0.141-0.806-0.407c-0.328-0.444-0.232-1.07,0.212-1.397l0.954-0.703l-6.219-0.158
			c-0.542-0.015-0.975-0.458-0.975-1v-5.209c0-0.553,0.448-1,1-1s1,0.447,1,1v4.234l4.274,0.109l-0.421-2.105
			c-0.088-0.441,0.129-0.887,0.531-1.09c0.402-0.201,0.888-0.111,1.191,0.223l3.167,3.5c0.189,0.21,0.282,0.489,0.253,0.771
			s-0.174,0.538-0.402,0.705l-3.167,2.333C141.248,213.937,141.04,214,140.834,214z"/>
	</g>
	<g>
		<path d="M142.584,183.417c-0.309,0-0.614-0.143-0.81-0.412c-0.325-0.446-0.226-1.071,0.22-1.396l1.358-0.987l-7.396,0.295
			c-0.317,0.017-0.591-0.112-0.79-0.338s-0.286-0.528-0.236-0.825l0.833-5c0.091-0.544,0.602-0.917,1.151-0.822
			c0.544,0.091,0.913,0.606,0.822,1.15l-0.631,3.788l5.642-0.226l-0.58-1.326c-0.188-0.431-0.051-0.935,0.33-1.21
			c0.38-0.278,0.903-0.25,1.253,0.064l3.167,2.833c0.226,0.201,0.348,0.494,0.332,0.796c-0.015,0.302-0.166,0.58-0.41,0.758
			l-3.667,2.667C142.994,183.354,142.788,183.417,142.584,183.417z"/>
	</g>
	<g>
		<path d="M141.084,152.75c-0.34,0-0.671-0.173-0.858-0.485c-0.284-0.474-0.131-1.088,0.343-1.372l2.158-1.295l-7.456,0.152
			c-0.533,0.008-0.999-0.417-1.02-0.961l-0.167-4.333c-0.021-0.552,0.409-1.017,0.96-1.038c0.574-0.032,1.017,0.409,1.038,0.96
			l0.129,3.352l5.724-0.117l-0.61-1.482c-0.173-0.42-0.041-0.903,0.321-1.178c0.361-0.276,0.863-0.271,1.22,0.009l3.833,3
			c0.259,0.203,0.402,0.521,0.382,0.85c-0.021,0.329-0.201,0.626-0.483,0.795l-5,3C141.437,152.704,141.259,152.75,141.084,152.75z"
			/>
	</g>
	<g>
		<path d="M141.25,123.083c-0.287,0-0.571-0.123-0.769-0.36c-0.354-0.424-0.296-1.055,0.128-1.408l1.756-1.464l-6.526-0.227
			c-0.271-0.01-0.526-0.128-0.708-0.33c-0.182-0.201-0.274-0.467-0.255-0.737l0.375-5.542c0.037-0.551,0.513-0.976,1.065-0.93
			c0.551,0.037,0.968,0.514,0.93,1.065l-0.305,4.511l5.276,0.184l-1.107-1.502c-0.304-0.413-0.247-0.99,0.133-1.334
			c0.381-0.345,0.96-0.346,1.341-0.002l3.333,3c0.216,0.194,0.336,0.472,0.331,0.762c-0.006,0.29-0.137,0.563-0.36,0.749l-4,3.333
			C141.703,123.007,141.476,123.083,141.25,123.083z"/>
	</g>
	<g>
		<path d="M207.958,121.208h-62.833c-0.545,0-0.99-0.437-1-0.982c-0.01-0.545,0.419-0.998,0.964-1.018l12.036-0.433l-12.171-0.067
			c-0.552-0.003-0.998-0.453-0.995-1.005c0.003-0.551,0.45-0.995,1-0.995c0.002,0,0.003,0,0.005,0l60.334,0.333
			c0.544,0.003,0.985,0.44,0.994,0.985c0.008,0.544-0.42,0.995-0.964,1.015l-4.655,0.167h7.285c0.553,0,1,0.448,1,1
			S208.511,121.208,207.958,121.208z"/>
	</g>
	<g>
		<path d="M190.231,150.742c-14.039,0-32.812-0.045-43.401-0.075c-0.545-0.001-0.989-0.44-0.997-0.985
			c-0.008-0.545,0.422-0.997,0.967-1.015l4.768-0.155l-4.405-0.012c-0.552-0.001-0.999-0.451-0.997-1.003
			c0.001-0.551,0.449-0.997,1-0.997c0.001,0,0.002,0,0.003,0l61,0.167c0.545,0.001,0.989,0.44,0.997,0.985
			c0.008,0.51-0.368,0.938-0.863,1.006c0.432,0.029,0.79,0.354,0.881,0.807c0.109,0.542-0.279,1.074-0.821,1.183
			C208.012,150.718,200.351,150.742,190.231,150.742z M208.068,148.671l-0.804,0.026c0.42-0.006,0.686-0.014,0.781-0.022
			C208.053,148.673,208.061,148.672,208.068,148.671z"/>
	</g>
	<g>
		<path d="M145.667,181.5c-0.544,0-0.989-0.436-1-0.98c-0.01-0.548,0.422-1.002,0.969-1.02c4.35-0.133,9.468-0.29,14.904-0.459
			c-5.301-0.017-10.293-0.03-14.542-0.041c-0.552-0.001-0.999-0.45-0.998-1.003c0.001-0.551,0.449-0.997,1-0.997
			c0.001,0,0.001,0,0.002,0c0,0,16.457,0.041,32.916,0.104c8.23,0.031,16.46,0.067,22.635,0.106c3.089,0.019,5.663,0.039,7.466,0.06
			c3.728,0.042,3.728,0.042,3.817,0.965c0.05,0.511-0.304,0.979-0.808,1.08c-0.104,0.021-0.944,0.062-2.371,0.12
			c0.109,0.158,0.174,0.351,0.176,0.558c0.004,0.552-0.439,1.003-0.992,1.008l-63.167,0.5
			C145.672,181.5,145.669,181.5,145.667,181.5z"/>
	</g>
	<g>
		<path d="M146.333,213.583c-0.534,0-0.975-0.42-0.999-0.956c-0.024-0.544,0.392-1.007,0.935-1.042l15.761-1.018l-14.84,0.35
			c-0.548-0.018-1.01-0.425-1.023-0.977c-0.013-0.552,0.424-1.01,0.976-1.023l63.667-1.5c0.563-0.008,0.999,0.412,1.022,0.956
			c0.024,0.544-0.392,1.007-0.935,1.042l-16.33,1.055l16.742-0.387c0.535-0.026,1.011,0.425,1.023,0.977
			c0.013,0.553-0.425,1.011-0.977,1.023l-65.001,1.5C146.348,213.583,146.34,213.583,146.333,213.583z"/>
	</g>
	<g>
		<path d="M178.75,103.083c-0.001,0-0.002,0-0.003,0L148.831,103c-0.547-0.001-0.991-0.442-0.997-0.989
			c-0.006-0.546,0.428-0.997,0.975-1.011l29.417-0.75c0.541-0.014,1.006,0.418,1.025,0.966c0.3,0.173,0.501,0.498,0.5,0.87
			C179.749,102.638,179.301,103.083,178.75,103.083z"/>
	</g>
</g>
<g id="Sparcles">
	<g>
		<path fill="#F5952F" d="M238.667,126c3.869,0,3.869-6,0-6S234.798,126,238.667,126L238.667,126z"/>
	</g>
	<g>
		<path fill="#F5952F" d="M116.5,130.833c3.869,0,3.869-6,0-6S112.631,130.833,116.5,130.833L116.5,130.833z"/>
	</g>
	<g>
		<path fill="#F5952F" d="M272,136.5c3.869,0,3.869-6,0-6S268.131,136.5,272,136.5L272,136.5z"/>
	</g>
	<g>
		<path fill="#F5952F" d="M307,115.5c3.869,0,3.869-6,0-6S303.131,115.5,307,115.5L307,115.5z"/>
	</g>
	<g>
		<path fill="#F5952F" d="M246.667,222.167c3.869,0,3.869-6,0-6S242.798,222.167,246.667,222.167L246.667,222.167z"/>
	</g>
	<g>
		<path fill="#F5952F" d="M249.167,178.167c3.869,0,3.869-6,0-6S245.298,178.167,249.167,178.167L249.167,178.167z"/>
	</g>
	<g>
		<path fill="#F5952F" d="M255.167,192.167c3.869,0,3.869-6,0-6S251.298,192.167,255.167,192.167L255.167,192.167z"/>
	</g>
	<g>
		<path fill="#F5952F" d="M255.167,208.667c3.869,0,3.869-6,0-6S251.298,208.667,255.167,208.667L255.167,208.667z"/>
	</g>
	<g>
		<path fill="#F5952F" d="M252.334,247.334c3.869,0,3.869-6,0-6S248.465,247.334,252.334,247.334L252.334,247.334z"/>
	</g>
	<g>
		<path fill="#F5952F" d="M124,99.833c3.869,0,3.869-6,0-6S120.131,99.833,124,99.833L124,99.833z"/>
	</g>
	<g>
		<path fill="#F5952F" d="M29,76.667c3.869,0,3.869-6,0-6S25.131,76.667,29,76.667L29,76.667z"/>
	</g>
	<g>
		<path fill="#F5952F" d="M120,107.333c3.869,0,3.869-6,0-6S116.131,107.333,120,107.333L120,107.333z"/>
	</g>
	<g>
		<path fill="#F5952F" d="M114.5,116.333c3.869,0,3.869-6,0-6S110.631,116.333,114.5,116.333L114.5,116.333z"/>
	</g>
	<g>
		<path fill="#F5952F" d="M22,95.667c3.869,0,3.869-6,0-6S18.131,95.667,22,95.667L22,95.667z"/>
	</g>
	<g>
		<path fill="#F5952F" d="M206,240.667c3.869,0,3.869-6,0-6S202.131,240.667,206,240.667L206,240.667z"/>
	</g>
	<g>
		<path fill="#F5952F" d="M125.667,233.667c3.869,0,3.869-6,0-6S121.798,233.667,125.667,233.667L125.667,233.667z"/>
	</g>
	<g>
		<path fill="#F5952F" d="M224.667,230c3.869,0,3.869-6,0-6S220.798,230,224.667,230L224.667,230z"/>
	</g>
	<g>
		<path fill="#F5952F" d="M306,221c3.869,0,3.869-6,0-6S302.131,221,306,221L306,221z"/>
	</g>
	<g>
		<path fill="#F5952F" d="M155,122c3.869,0,3.869-6,0-6S151.131,122,155,122L155,122z"/>
	</g>
	<g>
		<path fill="#F5952F" d="M375.533,94.073c3.869,0,3.869-6,0-6S371.664,94.073,375.533,94.073L375.533,94.073z"/>
	</g>
	<g>
		<path fill="#F5952F" d="M365.334,102.333c3.869,0,3.869-6,0-6S361.465,102.333,365.334,102.333L365.334,102.333z"/>
	</g>
	<g>
		<path fill="#F5952F" d="M347.99,110.154c3.869,0,3.869-6,0-6S344.121,110.154,347.99,110.154L347.99,110.154z"/>
	</g>
	<g>
		<path fill="#F5952F" d="M329.401,112.021c3.869,0,3.869-6,0-6S325.532,112.021,329.401,112.021L329.401,112.021z"/>
	</g>
	<g>
		<path fill="#F5952F" d="M66,68.379c3.869,0,3.869-6,0-6S62.131,68.379,66,68.379L66,68.379z"/>
	</g>
</g>
</svg>
