<?xml version="1.0" encoding="utf-8"?>
<!-- Generator: Adobe Illustrator 16.0.0, SVG Export Plug-In . SVG Version: 6.00 Build 0)  -->
<!DOCTYPE svg PUBLIC "-//W3C//DTD SVG 1.1//EN" "http://www.w3.org/Graphics/SVG/1.1/DTD/svg11.dtd">
<svg version="1.1" id="Ebene_12" xmlns="http://www.w3.org/2000/svg" xmlns:xlink="http://www.w3.org/1999/xlink" x="0px" y="0px"
	 width="453.333px" height="406.288px" viewBox="0 0 453.333 406.288" enable-background="new 0 0 453.333 406.288"
	 xml:space="preserve">
<g>
	<g>
		<defs>
			<rect id="SVGID_1_" x="32.571" y="27.19" width="417.458" height="381.696"/>
		</defs>
		<clipPath id="SVGID_2_">
			<use xlink:href="#SVGID_1_"  overflow="visible"/>
		</clipPath>
		<g clip-path="url(#SVGID_2_)">
			<defs>
				<rect id="SVGID_3_" x="32.571" y="27.19" width="417.458" height="381.696"/>
			</defs>
			<clipPath id="SVGID_4_">
				<use xlink:href="#SVGID_3_"  overflow="visible"/>
			</clipPath>
			<path clip-path="url(#SVGID_4_)" d="M92.577,150.037c0,0-27.338,7.221,21.921,40.491c1.805,0.258,14.958,23.727,17.623,29.746
				c1.462,4.298,2.063,3.438,2.063,8.597s-19.601,48.829-21.492,51.924c2.922,0.172,5.674-2.064,9.457-6.878
				c3.782-4.813,12.379-22.351,12.379-22.351s0.516,7.737-1.204,16.506s-4.126,14.098-1.547,19.771c0,0,3.954-2.234,8.425-18.225
				c0.171,6.189-0.516,24.587-11.863,89.749c0,0-3.611,20.977-3.955,23.384c-0.344,2.406-0.171,3.783-6.018,7.737
				s-16.162,8.77-16.162,13.583c0.344,1.203,3.439,2.234,26.306-7.565c10.316,1.892,28.542,7.05,30.604,4.471
				c0,0-1.891-4.298-20.289-13.411c-4.813-2.235-7.737-3.095-7.049-9.8c0,0,21.664-103.161,23.899-139.268
				c0,0-2.106-17.279-3.267-19.858c0,0,14.958-0.646,17.151-1.548c0,0,0.902-0.129,1.676-0.258c0.773-0.129,3.869-0.946,4.642-2.837
				c0,0,0.645-0.387,0.516-1.29c0.774-1.418-1.461-12.293-3.224-16.377c-1.674-3.877-26.435-56.609-34.946-59.317
				c-3.224-0.903-4.126,0.258-5.545,0.903c-1.418,0.645-4.255-0.516-5.158-2.192c-0.903-1.676-0.258-2.579,0.773-3.481
				c1.032-0.903-7.092-6.834-10.703-7.479c3.611,6.061,20.632,34.172,22.954,65.422c0,0-23.727-60.178-36.794-61.897
				c0,0-2.407,4.728-0.988,8.081c0.645,1.418,0.258,2.966-2.192,4.126c-0.773,0.258-1.676,0.387-1.676,0.387
				s1.805,1.418,3.095,1.805s2.45,1.161,2.45,1.161"/>
			<path clip-path="url(#SVGID_4_)" d="M167.368,217.522c0,0,1.891,1.375,2.235,0.859c0.344-0.517,0.903-0.945,0.903-1.376
				c0-0.43,0.322,0.602,1.01,1.117c0.687,0.517,2.137-1.03,2.74-1.46c0.602-0.431,2.23,0.085,2.23,0.085s1.716-1.376-0.433-3.353
				c0.344-0.688,1.719-0.946,0.343-1.805c-1.375-0.859-6.449,2.149-6.449,2.149l-2.579,1.978V217.522z"/>
			<path clip-path="url(#SVGID_4_)" d="M149.487,195.686c0,0-30.605-63.272-35.763-64.303c-2.579-1.547-16.506-4.557-15.99-5.846
				c0.516-1.29,4.699-1.629,8.769,0c0.43-0.172-3.008-3.869-3.008-3.869s-0.603-3.438,2.407-3.009
				c0.601-0.343,1.547-0.945,1.461-1.547c-0.086-0.602,3.525-1.461,3.869-2.149c0.344-0.688,3.181-1.375,4.384-0.085
				c1.633,0.085,0.859-1.375,1.719-0.516c0.86,0.859,1.118,0.773,2.235,3.095c1.118,2.321,1.892,6.275,2.063,6.876
				c0,0-1.117,3.009,0.344,4.643c1.461,1.634,38.857,64.991,38.857,64.991"/>
			<path clip-path="url(#SVGID_4_)" d="M68.678,123.473c0,0,41.952-35.075,45.391-36.106c-1.031-1.375-10.66,0.343-15.817,4.47
				c-5.158,4.126-9.285,9.973-21.32,15.131C70.053,113.845,65.239,123.817,68.678,123.473"/>
			<path clip-path="url(#SVGID_4_)" d="M87.934,80.049c0,0-15.135,9.953-18.161,13.164c-6.357-9.953-25.729-31.143-32.388-32.107
				c0.908-5.458,17.859-24.402,23.61-26.007C67.655,44.089,87.329,76.196,87.934,80.049"/>
			<path clip-path="url(#SVGID_4_)" fill="#F6931F" d="M76.931,106.968c0,0,13.411-6.19,21.32-15.131
				c0.687-3.095-2.408-2.75-2.408-2.75s0.688-1.376-0.344-1.719c-1.032-0.344-1.72-1.032-1.375-2.407
				c0.343-1.376-2.408-2.408-2.408-2.408s-1.032-3.438-3.782-3.438c-2.751,0-19.945,12.723-20.632,14.099
				c-0.688,1.375-1.376,2.75,0.687,1.719c2.063-1.031,0.688,1.376,0.688,1.376s-0.688,1.375,1.032,1.718
				c1.719,0.345,1.375,1.032,1.719,2.063c0.344,1.032-0.688,3.095,1.719,3.095c2.408,0,1.72,2.408,1.72,2.408
				S75.555,107.999,76.931,106.968"/>
		</g>
		<g clip-path="url(#SVGID_2_)">
			<defs>
				<rect id="SVGID_5_" x="32.571" y="27.19" width="417.458" height="381.696"/>
			</defs>
			<clipPath id="SVGID_6_">
				<use xlink:href="#SVGID_5_"  overflow="visible"/>
			</clipPath>
			<path clip-path="url(#SVGID_6_)" fill="#FFFFFF" d="M228.921,55.387l0.688,163.682c0,0,172.622,54.332,187.753,66.711
				c2.75-24.071,28.197-240.709,26.134-252.4C443.496,33.38,263.996,45.759,228.921,55.387"/>
			<path clip-path="url(#SVGID_6_)" fill="none" stroke="#000000" stroke-miterlimit="10" d="M228.921,55.387l0.688,163.682
				c0,0,172.622,54.332,187.753,66.711c2.75-24.071,28.197-240.709,26.134-252.4C443.496,33.38,263.996,45.759,228.921,55.387z"/>
			<path clip-path="url(#SVGID_6_)" d="M305.604,250.018c0,0-53.3,118.292-63.616,140.987c-12.035,2.063-7.909-3.095-7.909-3.095
				l69.805-145.113l12.036,4.814l15.474,134.452c-5.846,4.127-9.628,1.376-9.628,1.376l-10.832-135.485
				c0,0,2.234,137.548,4.986,154.742c-3.783,4.126-10.316,0-10.316,0l0.343-155.773"/>
			<path clip-path="url(#SVGID_6_)" fill="none" stroke="#000000" stroke-miterlimit="10" d="M420.457,283.029
				c0,0,29.573-243.116,25.103-249.649"/>
			<polyline clip-path="url(#SVGID_6_)" points="314.201,246.751 309.731,248.642 305.432,249.157 305.26,244.344 			"/>
			<path clip-path="url(#SVGID_6_)" fill="none" stroke="#000000" stroke-miterlimit="10" d="M397.417,102.841
				c0,0,5.158-4.126,6.878-0.344c1.719,3.782,3.095,4.126,2.407,1.032s-5.846-2.408-4.814,0c1.032,2.407,8.941-0.345,8.941-0.345
				l0.688,3.095l3.095-4.126c0,0-1.376,0.688,1.719,2.751c3.095,2.063,3.783-1.72,3.783-1.72"/>
			<path clip-path="url(#SVGID_6_)" fill="none" stroke="#000000" stroke-miterlimit="10" d="M397.417,109.031l0.688,4.126
				c0,0,0-5.846,1.718-2.751c1.72,3.095,3.439,4.814,3.439,4.814"/>
			<path clip-path="url(#SVGID_6_)" fill="none" stroke="#000000" stroke-miterlimit="10" d="M406.186,113.157v2.063l4.986-2.063
				l0.344,3.095l7.565-0.343c0,0,0-5.158-1.72-3.439"/>
			<path clip-path="url(#SVGID_6_)" fill="none" stroke="#000000" stroke-miterlimit="10" d="M396.213,119.261l-0.602,2.793
				l3.825-1.698c0,0-0.322,3.106,2.429,3.106c2.751,0,0.699-3.435,0.699-3.435l3.444,5.506l-1.029,4.471l3.784-7.65l1.376,3.697
				h4.814l-2.408-2.922l5.502,2.063"/>
			<path clip-path="url(#SVGID_6_)" fill="none" stroke="#000000" stroke-miterlimit="10" d="M399.48,89.43l0.343,4.126
				c0,0-2.75-5.501,2.408-3.095c5.158,2.407,3.095,4.47,3.095,4.47l-2.751-2.407l6.19-1.032l-0.344,3.095l3.782-2.751l1.72,3.439
				c0,0,6.19,3.782,6.878,2.407c0.687-1.375-0.688-5.501-0.688-5.501l3.783,1.031"/>
			<path clip-path="url(#SVGID_6_)" fill="none" stroke="#000000" stroke-miterlimit="10" d="M399.825,77.738l0.343,5.502
				l1.72-1.375l2.751,1.032c0,0,3.782-2.751,1.375-3.095c-2.407-0.344,2.751,4.126,2.751,4.126l8.252-2.407l0.688,2.75l2.063-3.095
				l2.751,2.063"/>
			<path clip-path="url(#SVGID_6_)" fill="none" stroke="#000000" stroke-miterlimit="10" d="M395.01,133.445l-1.031,3.438
				c0,0,2.408-5.845,3.783-5.501c1.375,0.343,3.782,4.47,3.782,4.47l-3.782,1.376c0,0,3.782-5.503,7.565-2.408
				c3.783,3.095,0.688,3.783,0.688,3.783"/>
			<path clip-path="url(#SVGID_6_)" fill="none" stroke="#000000" stroke-miterlimit="10" d="M412.204,136.197l-1.72,1.375
				l4.815,2.063c0,0,4.813-2.063,2.407-3.095"/>
			<path clip-path="url(#SVGID_6_)" fill="none" stroke="#000000" stroke-miterlimit="10" d="M396.042,148.919l3.783,2.063
				l1.375-4.815l-4.47-0.343c-5.501-5.501-4.126,3.438-4.126,3.438l2.063-6.877"/>
			<path clip-path="url(#SVGID_6_)" fill="none" stroke="#000000" stroke-miterlimit="10" d="M405.154,151.327V147.2
				c0,0,0.172-1.031,4.986,1.375c4.814,2.408-2.321,1.031-2.321,1.031l4.557-2.75v5.501l4.986-1.72"/>
			<path clip-path="url(#SVGID_6_)" fill="none" stroke="#000000" stroke-miterlimit="10" d="M393.635,159.58
				c0,0,5.846,2.407,3.783-0.688c-2.063-3.095-6.189,2.751-6.189,2.751"/>
			<path clip-path="url(#SVGID_6_)" fill="none" stroke="#000000" stroke-miterlimit="10" d="M402.575,159.236l-2.063,3.783
				l-1.72-4.814l9.629,6.189c0,0,4.126-2.407,0-3.438c-4.126-1.031-5.502,2.063-5.502,2.063l9.972-0.345"/>
			<path clip-path="url(#SVGID_6_)" fill="none" stroke="#000000" stroke-miterlimit="10" d="M248.607,85.046l-0.258,7.737
				c0,0,46.165-1.573,46.165-0.258c0,3.353,0.197,1.993-0.924,14.947"/>
			<polyline clip-path="url(#SVGID_6_)" fill="none" stroke="#000000" stroke-miterlimit="10" points="293.225,122.442 
				292.967,128.374 256.86,128.116 256.345,141.526 			"/>
			<polygon clip-path="url(#SVGID_6_)" fill="none" stroke="#000000" stroke-miterlimit="10" points="248.092,141.526 
				247.833,154.938 265.371,155.711 265.887,142.3 			"/>
			<path clip-path="url(#SVGID_6_)" fill="none" stroke="#000000" stroke-miterlimit="10" d="M256.345,155.195
				c0,0-0.258,8.769,0.258,10.058c0.516,1.29,71.955,5.674,71.955,5.674l0.516-5.158l-3.353,3.095"/>
			
				<line clip-path="url(#SVGID_6_)" fill="none" stroke="#000000" stroke-miterlimit="10" x1="329.073" y1="165.77" x2="331.91" y2="169.638"/>
			<polygon clip-path="url(#SVGID_6_)" fill="none" stroke="#000000" stroke-miterlimit="10" points="318.886,151.456 
				318.241,164.222 338.1,165.253 338.1,152.358 			"/>
			<polyline clip-path="url(#SVGID_6_)" fill="none" stroke="#000000" stroke-miterlimit="10" points="325.72,147.974 
				329.073,151.327 329.589,115.479 300.961,114.705 			"/>
			
				<line clip-path="url(#SVGID_6_)" fill="none" stroke="#000000" stroke-miterlimit="10" x1="332.426" y1="147.974" x2="329.073" y2="151.327"/>
			<path clip-path="url(#SVGID_6_)" d="M342.484,110.836c-0.172,4.041-0.343,8.081-0.516,12.122
				c-0.013,0.281,0.243,0.516,0.516,0.516h17.021c0.294,0,0.499-0.235,0.516-0.516c0.258-4.212,0.516-8.425,0.773-12.637
				c0.017-0.275-0.248-0.524-0.516-0.516c-5.76,0.172-11.52,0.343-17.28,0.516c-0.664,0.02-0.665,1.051,0,1.032
				c5.76-0.172,11.52-0.344,17.28-0.516l-0.516-0.516c-0.258,4.212-0.516,8.425-0.773,12.637l0.516-0.516h-17.021l0.516,0.516
				c0.172-4.041,0.344-8.081,0.516-12.122C343.543,110.171,342.512,110.173,342.484,110.836"/>
			<path clip-path="url(#SVGID_6_)" fill="none" stroke="#000000" stroke-miterlimit="10" d="M293.59,108.503
				c0,0-9.69-0.912-8.637,7.664s13.061,4.743,14.535,3.283S303.701,108.869,293.59,108.503z"/>
			<polygon clip-path="url(#SVGID_6_)" fill="none" stroke="#000000" stroke-miterlimit="10" points="241.386,85.046 256.86,84.788 
				257.376,73.44 241.902,74.472 			"/>
			<path clip-path="url(#SVGID_6_)" fill="none" stroke="#000000" stroke-miterlimit="10" d="M290.646,103.615
				c1.032,1.032,2.944,3.857,2.944,3.857l3.503-3.083"/>
			<polyline clip-path="url(#SVGID_6_)" fill="none" stroke="#000000" stroke-miterlimit="10" points="252.734,137.916 
				256.345,141.526 259.955,138.174 			"/>
			<polyline clip-path="url(#SVGID_6_)" fill="none" stroke="#000000" stroke-miterlimit="10" points="288.583,177.891 
				291.565,180.985 300.478,187.949 290.968,195.17 282.264,186.917 291.677,180.985 291.677,168.864 			"/>
			
				<line clip-path="url(#SVGID_6_)" fill="none" stroke="#000000" stroke-miterlimit="10" x1="295.03" y1="177.633" x2="291.677" y2="180.985"/>
			<polyline clip-path="url(#SVGID_6_)" fill="none" stroke="#000000" stroke-miterlimit="10" points="329.589,115.479 
				341.968,115.994 338.874,112.125 			"/>
			
				<line clip-path="url(#SVGID_6_)" fill="none" stroke="#000000" stroke-miterlimit="10" x1="338.357" y1="119.089" x2="341.968" y2="115.994"/>
			<path clip-path="url(#SVGID_6_)" fill="none" stroke="#000000" stroke-miterlimit="10" d="M324.431,73.956
				c0,0,3.095,2.063,1.032,3.61c-2.063,1.548,3.611-4.9,3.611-4.9l2.837,4.642"/>
			
				<line clip-path="url(#SVGID_6_)" fill="none" stroke="#000000" stroke-miterlimit="10" x1="336.294" y1="72.667" x2="333.973" y2="77.566"/>
			<path clip-path="url(#SVGID_6_)" fill="none" stroke="#000000" stroke-miterlimit="10" d="M333.458,73.956
				c1.29,0.773,2.321-1.032,3.868,2.063c1.548,3.095-0.773,5.416-1.031,4.126s1.031,1.032,4.126,0
				c3.095-1.031,2.321-3.353,2.321-3.353l-3.353-2.321c0,0,1.805,5.158,6.189,5.158"/>
			<path clip-path="url(#SVGID_6_)" fill="none" stroke="#000000" stroke-miterlimit="10" d="M329.847,81.177
				c0,0,2.837,3.095,2.063,4.9c-0.774,1.805-5.674,2.063-2.321-0.258c3.353-2.321,5.674-1.289,5.674-1.289s-1.805,0-0.258,3.095
				s4.384,1.031,4.384,1.031"/>
			
				<line clip-path="url(#SVGID_6_)" fill="none" stroke="#000000" stroke-miterlimit="10" x1="338.1" y1="86.335" x2="340.421" y2="84.788"/>
			<path clip-path="url(#SVGID_6_)" fill="none" stroke="#000000" stroke-miterlimit="10" d="M333.715,64.93
				c0,0.773-15.99,4.9-16.506,13.926c-0.516,9.027,10.832,21.664,27.08,11.606c16.248-10.058,5.674-19.343,0.516-20.89
				c-10.389-3.117-25.274-7.221-25.791,8.253c-0.612,18.346,27.229,20.82,32.754,11.348c9.026-15.474-18.053-23.469-23.727-23.727"
				/>
			<path clip-path="url(#SVGID_6_)" d="M321.487,92.934c-4.813,4.66-8.495,10.246-12.637,15.474
				c-0.409,0.516,0.316,1.25,0.729,0.729c4.141-5.226,7.826-10.816,12.637-15.474C322.695,93.2,321.964,92.471,321.487,92.934"/>
			<path clip-path="url(#SVGID_6_)" d="M308.202,104.783c0.21,1.412,0.238,2.824,0.239,4.248c0,0.338,0.329,0.583,0.653,0.497
				c2.197-0.575,4.394-1.402,6.312-2.631c0.396-0.252,0.294-0.788-0.123-0.943c-2.198-0.816-4.42-1.537-6.706-2.063
				c-0.648-0.148-0.922,0.847-0.274,0.995c2.285,0.526,4.508,1.247,6.706,2.063c-0.042-0.313-0.082-0.628-0.124-0.942
				c-1.851,1.186-3.946,1.973-6.065,2.526l0.653,0.498c-0.001-1.518-0.053-3.018-0.277-4.522
				C309.098,103.853,308.105,104.134,308.202,104.783"/>
			<path clip-path="url(#SVGID_6_)" d="M308.076,105.269c1.147,1.383,2.665,2.377,4.354,2.969c0.629,0.222,0.897-0.775,0.273-0.993
				c-1.528-0.537-2.864-1.459-3.898-2.705C308.38,104.027,307.654,104.761,308.076,105.269"/>
			<path clip-path="url(#SVGID_6_)" d="M355.53,88.763c12.226,9.916,16.011,27.82,15.458,42.816
				c-0.271,7.377-1.695,15.687-5.858,21.946c-4.726,7.106-15.365,4.459-22.524,5.558c-0.656,0.1-0.377,1.094,0.273,0.993
				c7.609-1.166,17.05,1.337,22.644-5.366c4.711-5.645,5.954-14.747,6.428-21.802c1.046-15.543-3.029-34.604-15.69-44.874
				C355.748,87.619,355.013,88.344,355.53,88.763"/>
			<path clip-path="url(#SVGID_6_)" d="M344.44,156.636c-1.391,1.374-2.882,2.621-4.384,3.869c-0.269,0.223-0.152,0.643,0.104,0.81
				c1.555,1.017,3.198,1.841,4.9,2.579c0.297,0.129,0.667,0.043,0.757-0.309c0.52-1.985,0.535-4.027,0.536-6.067
				c0-0.532-0.688-0.681-0.961-0.261c-0.993,1.52-1.846,3.123-2.837,4.643c-0.365,0.559,0.529,1.076,0.89,0.521
				c0.993-1.52,1.845-3.123,2.837-4.642c-0.32-0.086-0.641-0.174-0.96-0.26c-0.001,1.948-0.001,3.896-0.497,5.794
				c0.252-0.103,0.504-0.207,0.757-0.309c-1.702-0.737-3.346-1.562-4.9-2.579l0.104,0.81c1.502-1.248,2.993-2.496,4.384-3.869
				C345.644,156.897,344.914,156.168,344.44,156.636"/>
			<path clip-path="url(#SVGID_6_)" fill="none" stroke="#000000" stroke-miterlimit="10" d="M312.481,202.907
				c0,0,1.72,6.19,0,6.533c-1.719,0.345,2.063-4.126,2.063-4.126l1.032,4.126"/>
			<path clip-path="url(#SVGID_6_)" fill="none" stroke="#000000" stroke-miterlimit="10" d="M320.391,205.314
				c0,0-4.814-0.343-3.095,2.751c1.72,3.095,4.126,2.407,4.126,2.407l0.344-3.783l4.471,0.688"/>
			<path clip-path="url(#SVGID_6_)" fill="none" stroke="#000000" stroke-miterlimit="10" d="M322.798,209.785l1.72,2.751
				c0,0-1.376-2.064,2.407-1.376c3.783,0.688,9.972-3.095,5.501-3.095"/>
			<path clip-path="url(#SVGID_6_)" fill="none" stroke="#000000" stroke-miterlimit="10" d="M309.043,214.255
				c0,0,7.221-0.687,6.877,1.72c-0.344,2.407-4.471,5.845-4.471,3.438c0-2.407,6.189-3.782,6.189-3.782l5.846,4.471"/>
			<path clip-path="url(#SVGID_6_)" fill="none" stroke="#000000" stroke-miterlimit="10" d="M319.359,219.758
				c0,0,4.126-1.719,1.375-4.127"/>
			<path clip-path="url(#SVGID_6_)" d="M342.226,217.006c0.75-7.153,1.098-16.872-5.062-21.977c-4.23-3.507-10.26-2.87-15.124-1.273
				c-5.276,1.733-10.398,4.877-14.201,8.939c-4.779,5.105-5.56,13.534,0.332,18.038c7.596,5.807,20.833,8.327,29.238,3.017
				c4.404-2.781,6.984-8.226,6.846-13.335c-0.151-5.601-3.919-10.333-8.145-13.626c-8.241-6.423-22.456-3.694-29.642,3.197
				c-2.588,2.48-2.135,6.485-2.278,9.741c-0.221,5.075-0.226,9.101,3.887,12.625c10.422,8.925,30.179,7.126,34.13-7.614
				c0.172-0.644-0.822-0.916-0.995-0.273c-2.708,10.102-13.066,13.445-22.549,11.891c-4.158-0.682-8.174-2.924-11.121-5.907
				c-3.824-3.873-2.504-10.615-2.112-15.539c0.428-5.398,6.865-7.922,11.302-9.384c6.621-2.181,14.353-1.738,19.798,2.934
				c5.425,4.655,8.503,11.505,5.386,18.401c-2.92,6.458-9.386,8.748-16.02,8.631c-5.51-0.098-11.28-1.809-15.908-4.804
				c-2.879-1.861-4.866-4.046-5.019-7.604c-0.093-2.167,0.511-4.756,1.464-6.716c2.21-4.554,7.575-7.828,11.926-9.985
				c4.924-2.44,11.396-4.267,16.587-1.592c7.544,3.887,6.982,15.189,6.246,22.216C341.125,217.669,342.158,217.661,342.226,217.006"
				/>
			<path clip-path="url(#SVGID_6_)" d="M319.531,191.904c-0.386-10.78-5.417-20.748-9.979-30.291
				c-2.499-5.228-5.024-10.458-6.765-15.996c-1.904-6.056-3.82-12.11-6.366-17.933c-0.267-0.609-1.156-0.084-0.892,0.52
				c2.511,5.741,4.387,11.718,6.263,17.688c1.508,4.804,3.607,9.371,5.759,13.916c4.798,10.138,10.537,20.635,10.946,32.097
				C318.523,192.567,319.554,192.569,319.531,191.904"/>
			<path clip-path="url(#SVGID_6_)" d="M294.447,128.151c-0.316,1.708-0.374,3.45-0.688,5.158c-0.091,0.49,0.472,0.885,0.861,0.501
				c1.389-1.366,2.906-2.591,4.71-3.358c0.386-0.164,0.284-0.701,0-0.89c-1.239-0.835-2.455-1.694-3.905-2.116
				c-0.641-0.186-1.126,0.81-0.488,0.995c1.362,0.396,2.414,1.229,3.446,2.011v-0.89c-1.032,0.797-3.261,2.097-4.706,3.519
				c0.288,0.167,0.682,0.335,0.969,0.503c0.316-1.709,0.427-3.45,0.742-5.158C295.507,127.774,294.568,127.497,294.447,128.151"/>
			<path clip-path="url(#SVGID_6_)" d="M295.288,131.554c0-0.001,1.4-0.069,2.152-0.415c0.604-0.277,0.166-1.167-0.435-0.89
				c-0.574,0.263-1.717,0.273-1.717,0.273C294.256,130.524,294.256,131.556,295.288,131.554
				C295.288,131.554,294.256,131.554,295.288,131.554"/>
			<path clip-path="url(#SVGID_6_)" d="M351.873,207.241c-0.288,1.366-0.058,2.765-0.343,4.126c-0.058,0.272,0.076,0.56,0.36,0.636
				c2.176,0.569,5.356,0.149,5.681-2.605c0.318-2.679-2.615-3.308-4.649-2.861c-0.65,0.144-0.375,1.137,0.273,0.995
				c1.332-0.292,3.67-0.097,3.345,1.84c-0.336,2.01-2.864,2.033-4.376,1.636c0.121,0.212,0.241,0.423,0.36,0.635
				c0.289-1.366,0.058-2.765,0.345-4.126C353.005,206.867,352.01,206.59,351.873,207.241"/>
			<path clip-path="url(#SVGID_6_)" d="M352.217,211.711c-1.3,4.832-0.648,9.228,0.344,14.029c0.134,0.65,1.128,0.374,0.994-0.274
				c-0.954-4.621-1.597-8.818-0.344-13.48C353.385,211.343,352.39,211.069,352.217,211.711"/>
			<path clip-path="url(#SVGID_6_)" d="M352.905,226.497c-0.251,1.103-0.571,2.583,0.197,3.56c0.538,0.684,1.52,0.456,2.172,0.111
				c1.26-0.663,3.122-2.646,2.315-4.194c-0.734-1.413-3.174-0.808-4.323-0.524c-0.646,0.16-0.372,1.155,0.274,0.996
				c0.738-0.184,1.493-0.334,2.257-0.303c0.225,0.009,0.363,0.033,0.594,0.11c0.096,0.032,0.197,0.097,0.287,0.199
				c-0.09-0.103,0.031,0.062,0.051,0.105c-0.063-0.134,0.009,0.066,0.018,0.112c-0.028-0.151-0.004,0.076-0.006,0.122
				c-0.001,0.027-0.018,0.156,0.002,0.021c-0.009,0.053-0.02,0.106-0.033,0.16c-0.083,0.357-0.236,0.619-0.486,0.978
				c-0.192,0.273-0.527,0.631-0.844,0.901c-0.197,0.168-0.679,0.467-0.865,0.537c-0.077,0.028-0.155,0.05-0.234,0.068
				c-0.134,0.031,0.054,0.007-0.122,0.016c-0.134,0.006-0.114-0.005-0.103-0.002c-0.033-0.007-0.064-0.017-0.096-0.027
				c-0.083-0.025,0.099,0.055-0.025-0.017c-0.104-0.06,0.035,0.05-0.079-0.072c-0.084-0.089,0.062,0.092-0.008-0.015
				c-0.022-0.032-0.041-0.068-0.06-0.104c-0.064-0.123,0.037,0.101-0.016-0.037c-0.016-0.044-0.028-0.091-0.041-0.138
				c-0.04-0.145-0.04-0.181-0.051-0.301c-0.058-0.666,0.074-1.341,0.22-1.988C354.046,226.124,353.052,225.849,352.905,226.497"/>
			<path clip-path="url(#SVGID_6_)" d="M358.767,210.283c3.321,1.076,5.929,3.292,8.368,5.713c0.077-0.287,0.152-0.575,0.228-0.862
				c-0.961,0.305-1.946,0.608-2.958,0.669c-0.661,0.039-0.666,1.072,0,1.032c1.108-0.067,2.179-0.372,3.232-0.706
				c0.364-0.115,0.512-0.581,0.227-0.862c-2.568-2.55-5.332-4.847-8.823-5.978C358.406,209.082,358.137,210.078,358.767,210.283"/>
			<path clip-path="url(#SVGID_6_)" d="M367.654,216.111c0.238-0.745,0.301-1.573,0.636-2.283c0.281-0.598-0.608-1.123-0.891-0.52
				c-0.378,0.802-0.472,1.689-0.74,2.529C366.457,216.474,367.453,216.743,367.654,216.111"/>
			<path clip-path="url(#SVGID_6_)" d="M367.003,216.869c-0.671,2.635,0.904,4.343,3.455,4.762c0.215,0.034,0.478-0.015,0.583-0.237
				c0.726-1.538,1.091-3.181,0.74-4.868c-0.111-0.535-1.15-0.799-1.589-0.974c-0.739-0.294-1.556-0.413-2.348-0.437
				c-0.666-0.019-0.664,1.013,0,1.031c0.758,0.022,2.908,0.211,3.034,1.174c0.159,1.205-0.219,2.473-0.729,3.553
				c0.194-0.079,0.389-0.158,0.583-0.238c-1.962-0.32-3.272-1.38-2.735-3.491C368.163,216.499,367.167,216.225,367.003,216.869"/>
			<path clip-path="url(#SVGID_6_)" d="M368.431,221.217c-1.257,2.6-2.041,5.371-3.146,8.032c-0.256,0.614,0.743,0.88,0.994,0.274
				c1.072-2.577,1.824-5.27,3.042-7.787C369.61,221.142,368.721,220.617,368.431,221.217"/>
			<path clip-path="url(#SVGID_6_)" d="M364.957,230.571c1.647,0.652,7.547,3.225,4.93,5.671c-0.487,0.455,0.245,1.184,0.729,0.729
				c3.499-3.271-3.016-6.457-5.385-7.396C364.612,229.331,364.346,230.33,364.957,230.571"/>
			<path clip-path="url(#SVGID_6_)" d="M365.354,229.628c-0.862-0.662-1.518-1.027-2.53-1.428c-0.344-0.136-0.619,0.2-0.653,0.498
				c-0.508,4.428-4.025,7.694-6.12,11.432c-0.325,0.58,0.565,1.1,0.891,0.521c2.222-3.96,5.722-7.261,6.26-11.952
				c-0.217,0.166-0.435,0.331-0.653,0.497c0.899,0.355,1.526,0.744,2.285,1.323C365.361,230.924,365.874,230.028,365.354,229.628"/>
			<path clip-path="url(#SVGID_6_)" d="M354.984,240.924c-1.109,0.391-2.167,0.903-3.219,1.428
				c-0.155,0.076-0.262,0.274-0.255,0.444c0.052,1.228,0.493,2.238,1.386,3.088c0.951,0.905,2.132,0.312,3.154-0.252
				c2.297-1.269,2.711-3.806,0.811-5.606c-0.481-0.457-1.213,0.271-0.729,0.729c1.491,1.414,1.02,2.963-0.604,3.986
				c-0.467,0.295-1.412,0.817-1.903,0.413c-0.724-0.597-1.045-1.445-1.083-2.358c-0.085,0.148-0.17,0.298-0.256,0.446
				c0.972-0.485,1.947-0.963,2.973-1.323C355.882,241.699,355.613,240.703,354.984,240.924"/>
			<path clip-path="url(#SVGID_6_)" d="M352.561,230.28c-1.188,3.499-4.056,6.067-5.158,9.628c-0.051,0.166,0,0.384,0.132,0.501
				c1.235,1.105,2.487,1.736,4.148,1.871c0.245,0.021,0.416-0.176,0.498-0.378c0.267-0.662,0.346-1.156,0.362-1.857
				c0.015-0.666-1.017-0.664-1.031,0c0.247,0.972-0.105,1.306-1.055,1.005c-1.612-0.383-2.019-1.249-1.395-2.631
				c0.446-0.987,1.078-1.896,1.68-2.79c1.1-1.631,2.177-3.199,2.813-5.074C353.77,229.922,352.773,229.654,352.561,230.28"/>
			<path clip-path="url(#SVGID_6_)" d="M367.003,235.438c-0.338,1.409-1.084,3.974,0.084,5.24c0.752,0.815,1.8,0.605,2.607-0.017
				c2.806-2.155,0.576-4.924-2.057-5.585c-0.646-0.161-0.919,0.834-0.275,0.996c1.852,0.464,3.546,1.838,1.884,3.617
				c-2.177,2.332-1.424-3.25-1.25-3.978C368.153,235.066,367.158,234.791,367.003,235.438"/>
			<path clip-path="url(#SVGID_6_)" d="M351.079,242.008c-0.595,0.31-1.125,0.722-1.72,1.031c-0.589,0.308-0.068,1.198,0.521,0.891
				c0.596-0.311,1.125-0.722,1.72-1.031C352.189,242.591,351.667,241.701,351.079,242.008"/>
			<path clip-path="url(#SVGID_6_)" fill="none" stroke="#000000" stroke-miterlimit="10" d="M358.904,248.986
				c0,0,8.252-2.063,7.221-4.127c-1.032-2.062-4.126,3.097-2.751,5.847c1.376,2.75,4.126-1.72,4.126-1.72l1.72-2.751l1.032,3.782
				l-4.814-1.72"/>
			<path clip-path="url(#SVGID_6_)" fill="none" stroke="#000000" stroke-miterlimit="10" d="M368.188,252.081
				c0,0,5.158-1.376,4.47-3.783"/>
			<path clip-path="url(#SVGID_6_)" fill="none" stroke="#000000" stroke-miterlimit="10" d="M371.627,252.77
				c0,0-2.407-3.782,3.438-2.063c5.846,1.719,2.408,3.438,4.126,4.47c1.72,1.031-4.47,0.344-4.47,0.344l2.751-6.189l5.501,6.534"/>
			<path clip-path="url(#SVGID_6_)" fill="none" stroke="#000000" stroke-miterlimit="10" d="M370.252,254.832
				c0,0,2.75,3.094,0.343,4.813s-2.75-2.75-2.75-2.75l6.533,1.375l-2.407,2.752"/>
			<path clip-path="url(#SVGID_6_)" fill="none" stroke="#000000" stroke-miterlimit="10" d="M376.785,259.646
				c0,0,2.407,1.721-0.688,2.408c-3.095,0.687,4.814-0.001,3.095-3.439"/>
			<path clip-path="url(#SVGID_6_)" fill="none" stroke="#000000" stroke-miterlimit="10" d="M380.224,265.148
				c0,0-4.127-5.846,2.063-2.751c6.189,3.095,1.375,3.095,1.375,3.095"/>
			<path clip-path="url(#SVGID_6_)" d="M361.311,196.546c-1.287,0.023-2.802,0.326-3.626,1.417
				c-0.811,1.072-0.455,2.405,0.339,3.379c0.77,0.946,2.743-0.231,3.437-0.886c0.971-0.919,1.009-2.321,0.691-3.531
				c-0.168-0.643-1.163-0.371-0.993,0.274c0.217,0.829,0.259,1.7-0.311,2.401c-0.577,0.711-1.562,0.954-2.424,1.091
				c0.167,0.044,0.334,0.089,0.501,0.132c-0.567-0.696-1.002-1.596-0.318-2.362c0.643-0.719,1.802-0.866,2.704-0.883
				C361.975,197.565,361.976,196.533,361.311,196.546"/>
			<path clip-path="url(#SVGID_6_)" d="M357.7,202.22c-0.042,1.687-0.668,3.199-1.648,4.554c-0.391,0.541,0.504,1.054,0.89,0.521
				c1.085-1.501,1.745-3.213,1.79-5.074C358.749,201.554,357.717,201.555,357.7,202.22"/>
			<path clip-path="url(#SVGID_6_)" d="M354.624,205.107c0.248,0.728,0.646,1.491,0.669,2.271c0.02,0.663,1.051,0.665,1.032,0
				c-0.027-0.893-0.424-1.714-0.707-2.545C355.406,204.207,354.41,204.477,354.624,205.107"/>
			<path clip-path="url(#SVGID_6_)" d="M355.672,208.218c1.12,0.348,2.248,0.348,3.369,0c0.633-0.196,0.363-1.191-0.274-0.994
				c-0.958,0.296-1.864,0.296-2.82,0C355.309,207.027,355.039,208.022,355.672,208.218"/>
			<path clip-path="url(#SVGID_6_)" d="M362.687,228.182c-0.825-0.017-1.637-0.168-2.441-0.349
				c-0.747-0.168-1.758-0.356-2.352-0.876c-0.499-0.435-1.231,0.292-0.73,0.73c1.336,1.167,3.814,1.492,5.523,1.525
				C363.352,229.227,363.351,228.195,362.687,228.182"/>
			<path clip-path="url(#SVGID_6_)" d="M358.044,230.417c-0.26-2.032,0.301-3.405,2.152-4.368c0.59-0.309,0.068-1.198-0.521-0.892
				c-2.145,1.116-2.966,2.882-2.663,5.26C357.096,231.068,358.129,231.076,358.044,230.417"/>
		</g>
	</g>
</g>
</svg>
