<?xml version="1.0" encoding="utf-8"?>
<!-- Generator: Adobe Illustrator 16.0.0, SVG Export Plug-In . SVG Version: 6.00 Build 0)  -->
<!DOCTYPE svg PUBLIC "-//W3C//DTD SVG 1.1//EN" "http://www.w3.org/Graphics/SVG/1.1/DTD/svg11.dtd">
<svg version="1.1" id="Ebene_1" xmlns="http://www.w3.org/2000/svg" xmlns:xlink="http://www.w3.org/1999/xlink" x="0px" y="0px"
	 width="412.334px" height="211.333px" viewBox="0 0 412.334 211.333" enable-background="new 0 0 412.334 211.333"
	 xml:space="preserve">
<path fill="#C5B383" d="M7.181,134.249c0,0,1.974,55.802,4.826,58.877c-0.972,2.715-0.312,8.135-0.312,8.135
	s4.491-4.355,12.611-1.759c0.761-1.659-1.984-5.108-1.984-5.108s-2.678-46.147,1.594-48.426c2.704,6.328,5.453,19.224,5.841,25.476
	c0.389,6.244,1.999,25.275,1.999,25.275s-1.948,3.389-0.643,3.46c1.305,0.083,11.958-2.933,11.706-4.313
	c-0.254-1.39-1.857-2.002-0.73-10.154c1.128-8.147,0.588-17.001-1.292-23.651c-1.881-6.655-5.142-27.398-5.142-27.398
	s-7.316,1.624-17.331-0.665C14.01,133.087,7.181,134.249,7.181,134.249z"/>
<path fill="#85A5B5" d="M10.655,91.538c0,0-7.082,8.358-6.939,10.983c0.138,2.639,2.337,7.896,2.337,7.896
	s-1.646,21.749,2.967,23.791c6.365,0.259,25.603,3.971,26.332-1.247c0.897-6.419-1.357-19.88-1.357-19.88s5.713,0.735,5.088-6.986
	c-0.627-7.729-4.648-14.786-4.648-14.786L25.4,97.206l-4.824-1.883l-1.215,1.654L10.655,91.538z"/>
<polygon fill="#E3E6E8" points="13.507,87.952 11.321,90.823 19.677,95.384 19.816,91.703 "/>
<path fill="#D8BDB6" d="M20.576,95.323l4.824,1.883c0,0,9.941-5.008,9.944-9.362c0,0,0.656-4.252-1.598-6.8
	c1.671-6.58,3.264-20.144-3.52-23.472c-9.119,0.121-11.246,2.145-12.645,4.376c-1.399,2.239-6.086,5.103-6.086,5.103
	s2.867,3.882,1.261,3.564c-1.611-0.311-4.495-0.27-4.215,2.001c0.276,2.278,2.659,5.774,4.226,5.875
	c1.566,0.104,1.619,4.102,1.619,4.102s3.09,1.885,1.205,7.131c2.247,0.69,5.09,2.812,5.09,2.812L20.576,95.323z"/>
<path fill="#DEDEDD" d="M33.838,60.98c0,0,1.414-6.716-1.895-9.05c-3.305-2.337-13.868-2.84-13.868-2.84S4.662,55.513,3.812,58.066
	c-0.854,2.56-0.525,11.737-0.497,12.943c0.033,1.202,3.424,7.471,3.424,7.471s7.481,4.999,7.983,3.384
	c0.5-1.62-0.944-3.405-5.125-5.658c-0.599-1.021-3.316-5.221,2.895-6.798c-0.994-2.357-2.018-2.212,2.59-4.895
	c4.609-2.679,1.567-4.769,7.688-5.718C28.891,57.852,31.943,56.917,33.838,60.98z"/>
<path fill="#4D3E2D" d="M11.246,204.07c0,0,0.45,3.284,6.597,2.03c6.145-1.241,13.029-4.008,5.238-6.938
	c-7.789-2.938-12.218,3.966-12.025,4.438"/>
<path fill="#4D3E2D" d="M32.243,201.155c0,0,0.497,1.897,4.462,1.984c3.964,0.083,12.006-0.016,12.006-0.016
	s-4.489-6.078-7.344-5.476C38.515,198.242,32.243,201.155,32.243,201.155z"/>
<path fill="none" stroke="#010101" stroke-width="2" stroke-linecap="round" stroke-linejoin="round" stroke-miterlimit="10" d="
	M26.427,96.463c1.373-1.518,6.911-4.926,6.911-4.926c5.174-6.093,1.457-11.667,0.821-11.261c-0.633,0.401-7.69,3.773-8.012,3.985
	c-0.317,0.219-3.511-4.462-4.246-3.81c-0.734,0.648-0.482,7.711-0.482,7.711s0.591,3.751-0.004,5.195"/>
<path fill="none" stroke="#010101" stroke-width="2" stroke-linecap="round" stroke-linejoin="round" stroke-miterlimit="10" d="
	M29.026,57.657c0,0-3.709,0.965-6.881,0.801c-3.179-0.157-4.878,4.09-4.878,4.09l-1.795,2.317l-3.563,1.418l1.445,3.297
	c0,0-3.92-0.794-4.4,2.268c-0.482,3.071,2.42,4.982,2.958,5.056c1.599,0.211,4.001,4.76,2.81,4.961
	c-1.188,0.2-7.359-2.239-7.572-4.155c-0.209-1.907-3.802-5.888-4.015-8.014c-0.21-2.117,1.479-9.419,1.57-10.756
	c0.091-1.34,0.705-3.772,2.686-4.652c1.976-0.884,9.555-7.43,13.035-5.741c3.479,1.693,7.567,1.267,8.559,1.64
	c0.997,0.375,5.039,3.333,5.539,5.055c0.507,1.716,0.035,5.28,0.035,5.28S30.906,56.717,29.026,57.657z"/>
<path fill="none" stroke="#010101" stroke-width="2" stroke-linecap="round" stroke-linejoin="round" stroke-miterlimit="10" d="
	M31.943,58.364c0,0,8.826,9.009,1.203,22.056"/>
<path fill="none" stroke="#010101" stroke-width="2" stroke-linecap="round" stroke-linejoin="round" stroke-miterlimit="10" d="
	M12.45,80.462c0,0,1.303,1.594,3.309,2.513c2.151,1.46,0.905,6.183,0.905,6.183"/>
<path fill="none" stroke="#010101" stroke-width="2" stroke-linecap="round" stroke-linejoin="round" stroke-miterlimit="10" d="
	M20.55,91.653c0,0-5.686-2.542-6.307-3.749c-1.454,1.514-3.172,2.865-3.172,2.865l8.378,5.152"/>
<path fill="none" stroke="#010101" stroke-width="2" stroke-linecap="round" stroke-linejoin="round" stroke-miterlimit="10" d="
	M10.452,100.596c0,0,0.328,8.029,2.713,6.504c2.394-1.541,7.403-12.767,7.403-12.767s5.091,2.62,5.374,3.572
	c0.229,0.749-6.017,13.074-10.002,17.767c-1.059,1.254-2.015,0.904-2.576,0.894c-2.683-0.013-9.781-9.182-9.244-14.346
	c0.537-5.155,3.409-8.258,6.952-10.252"/>
<path fill="none" stroke="#010101" stroke-width="2" stroke-linecap="round" stroke-linejoin="round" stroke-miterlimit="10" d="
	M34.849,90.541c0,0,6.768,14.652,3.837,20.076c-1.663,2.117-3.291,2.488-4.167,2.312c-0.881-0.166-14.131,0.116-15.394,0.151"/>
<path fill="none" stroke="#010101" stroke-width="2" stroke-linecap="round" stroke-linejoin="round" stroke-miterlimit="10" d="
	M31.89,99.848c0,0,2.683,4.815,1.99,5.946c-4.377-0.695-11.682,0.105-11.682,0.105"/>
<path fill="none" stroke="#010101" stroke-width="2" stroke-linecap="round" stroke-linejoin="round" stroke-miterlimit="10" d="
	M6.569,109.825c0,0-1.276,20.945,1.202,23.947c-0.038,1.029,5.188-0.524,10.542,0.43c5.13,0.911,13.927,1.288,16.912-0.742
	c1.888-5.657-0.707-20.53-0.707-20.53"/>
<path fill="none" stroke="#010101" stroke-width="2" stroke-linecap="round" stroke-linejoin="round" stroke-miterlimit="10" d="
	M10.84,201.267c0.818-0.358-0.075-3.349-0.244-4.148c-0.174-0.802,0.975-1.666,1.36-3.238c0.377-1.578-2.478-12.408-3.021-21.934
	c-0.45-7.88-0.692-11.064-1.201-37.146"/>
<path fill="none" stroke="#010101" stroke-width="2" stroke-linecap="round" stroke-linejoin="round" stroke-miterlimit="10" d="
	M25.898,142.525c0,0-3.448,6.846-3.982,10.293c-0.786,5.034-0.121,34.188,1.167,41.44"/>
<path fill="none" stroke="#010101" stroke-width="2" stroke-linecap="round" stroke-linejoin="round" stroke-miterlimit="10" d="
	M22.241,195.382c0,0,1.788,0.141,2.416,1.453c0.627,1.318,0.212,2.401,0.576,3.006"/>
<path fill="none" stroke="#010101" stroke-width="2" stroke-linecap="round" stroke-linejoin="round" stroke-miterlimit="10" d="
	M25.242,200.731c0,0,2.665,3.385-2.885,4.663c-5.558,1.276-11.49,1.147-11.111-1.324c0.387-2.474,2.657-4.19,4.218-4.709
	C17.479,198.689,19.208,197.512,25.242,200.731z"/>
<path fill="none" stroke="#010101" stroke-width="2" stroke-linecap="round" stroke-linejoin="round" stroke-miterlimit="10" d="
	M24.768,145.697c0,0,5.232,17.923,5.619,23.396c0.384,5.468,1.395,28.185,1.395,28.185s-1.66,2.188-0.669,2.9
	c0.987,0.717,9.283-1.912,9.283-1.912s3.406-1.713,2.169-3.791c-1.232-2.079,0.307-23.702-0.32-28.401
	c-0.636-4.697-5.792-30.266-7.019-32.614"/>
<path fill="none" stroke="#010101" stroke-width="2" stroke-linecap="round" stroke-linejoin="round" stroke-miterlimit="10" d="
	M32.243,201.155c0,0,0.003,2.032,1.651,2.097c1.654,0.064,14.816-0.128,14.816-0.128s-0.606-3.975-6.271-5.435"/>
<g>
	<path fill="#F5952F" d="M157.034,67.288c1.29,0,1.29-2,0-2S155.744,67.288,157.034,67.288L157.034,67.288z"/>
</g>
<g>
	<path fill="#F5952F" d="M173.011,82.969c1.29,0,1.29-2,0-2S171.721,82.969,173.011,82.969L173.011,82.969z"/>
</g>
<g>
	<path fill="#F5952F" d="M224.044,74.385c1.29,0,1.29-2,0-2S222.754,74.385,224.044,74.385L224.044,74.385z"/>
</g>
<g>
	<path fill="#F5952F" d="M172.91,52.93c1.29,0,1.29-2,0-2S171.62,52.93,172.91,52.93L172.91,52.93z"/>
</g>
<g>
	<path fill="#F5952F" d="M193.671,46.443c1.29,0,1.29-2,0-2S192.381,46.443,193.671,46.443L193.671,46.443z"/>
</g>
<path fill="#010101" d="M127.786,31.706c0,0-0.293-26.333-1.723-29.155c-4.736,0.436-15.738,2.903-18.336,6.487
	c2.816,5.525,9.201,18.592,10.614,25.915C123.545,32.841,127.234,31.733,127.786,31.706"/>
<path fill="#F5952F" d="M128.025,31.675c0,0,0.992-0.009,0.7,0.61c-0.308,0.345-0.206,0.351,0.017,0.358c0,0,0.64,0.025,0.691,0.388
	c0.056,0.364,0.037,0.739,0.27,0.989c0.232,0.252,0.457,0.609,0.271,0.987c-0.19,0.382-0.523,0.616-0.028,0.716
	c0.503,0.099,1.014,0.371,0.676,1.023c-0.332,0.655-1.009,1.457-0.553,1.646c0.447,0.191,0.699,0.242,0.674,0.71
	c-0.026,0.468-0.138,0.616-0.041,1.156c0.091,0.541,0.108,0.705-0.232,0.935c-0.338,0.227-7.528,3.275-11.67,2.979
	c-0.358,0.012-0.276-0.218-0.157-0.356c0.122-0.143-0.231-0.113-0.231-0.391c0.002-0.284,0.093-0.64-0.329-0.965
	c-0.226-0.236-0.089-0.617-0.059-0.869c0.031-0.255-0.321-0.459-0.116-0.671c0.207-0.214,0.85-0.353,0.597-0.522
	c-0.249-0.174-0.834-0.64-0.729-0.965c0.103-0.328,0.297-0.323,0.072-0.524c-0.229-0.198-0.114-0.582,0.128-0.758
	c0.242-0.174,0.703-0.405,0.291-0.384c-0.415,0.02-0.581-0.035-0.383-0.399c0.192-0.365,0.439-0.475,0.084-0.618
	c-0.362-0.141-0.492-0.442-0.18-0.552c0.202-0.073,0.222-0.271,0.022-0.363c-0.196-0.09,0.118-0.628,0.375-0.806
	c0.261-0.178,5.516-2.159,7.378-2.762C126.954,31.816,127.503,31.726,128.025,31.675z"/>
<path fill="#010101" d="M130.649,41.131c0,0,1.707-0.826,2.77-1.4c1.061-0.578,4.67-1.68,5.599-1.35
	c0.39,0.136-0.043,0.5-0.368,0.67c-0.577,0.305-8.831,4.601-17.228,6.576c-7.835,1.842-12.273,1.941-11.918,1.554
	c1.209-1.318,3.196-1.596,5.477-1.857c0.965-0.11,3.445-0.784,3.819-1.151c0,0,1.567,0.272,5.755-0.934
	C127.895,42.279,130.443,41.236,130.649,41.131z"/>
<path fill="#010101" d="M135.154,62.495c-4.062,5.818-18.001,23.462-19.226,24.623c-0.872,0.899-1.52,2.192-1.52,2.192l8.101,2.351
	c0,0,7.603-2.62,7.098-1.605c0.083,0.608-1.077,2.275-2.772,2.316c-0.713,0.015-1.873,0.353-1.516,1.095
	c0.354,0.74,0.622,2.898,4.655,4.312c0,0,10.097,0.518,11.227,0.999c0.193,0.454-0.42,1.388-0.612,1.58
	c-0.193,0.192-1.131,0.709-1.164,1.125c-0.031,0.421-1.14,1.156-2.079,1.131s-5.64-0.101-7.898-0.715
	c-2.259-0.613-5.838-1.023-6.874-2.827c-0.73-1.274-2.03-3.575-3.419-4.319c0,0-4.064-1.965-5.935-2.285
	c-0.356,2.48-1.132,8.09-1.067,8.798c7.901,9.752,16.865,20.412,20.544,29.597c0.332,6.431,0.654,19.163,0.751,21.099
	c0.099,1.933,1.517,43.637,1.582,44.182c0.064,0.549,0.42,1.999,5.871,3.737c4.808,1.486,8.085,3.918,8.085,3.918
	s-17.246-0.856-18.344-1.08c-0.098-1.738,0.193-3.512,1.13-5.124c0.323-0.548,0.256-1.256-0.453-1.226
	c-0.226-3.382-0.667-28.48-0.711-30.929c-0.042-2.448-1.203-29.778-1.979-32.785c0,0-11.354-12.072-16.862-20.11
	c0,0-2.194,29.909-5.333,32.742c0,0-2.451-1.971-1.42-12.459c1.16-12.975,0.731-20.669,0.388-21.703
	c-1.333,3.608-4.687,14.314-5.247,18.91c-0.562,4.598-4.69,17.832-7.615,19.033c0.518-2.447,2.065-9.539,1.508-11.21
	c-2.755,5.797-20.521,43.699-25.641,61.227c0,0-1.933-0.253-1.76,0.304c0.169,0.558,1.375,1.373,2.063,1.612
	c0.687,0.233,2.389,1.396,2.389,1.91c-1.613,0.127-14.179,0.346-15.438-0.409c1.049-0.75,5.064-2.146,6.552-2.746
	c1.485-0.604,1.485-0.712,1.485-0.712s12.064-26.618,22.776-58.779c7.031-23.979,11.551-38.613,13.164-42.285
	c1.89-4.512,4.083-7.391,4.344-8.08c-4.947-1.287-24.991-6.615-25.251-8.034c-0.256-1.417,16.39-11.56,19.485-13.494
	c3.099-1.934,15.013-8.979,15.958-8.721c0.947,0.257,1.08,1.375,1.509,1.331c0.427-0.042,0.661-0.912-0.99-4.082
	c-0.562-1.074-1.248-1.719-1.508-2.019c-0.257-0.301-0.791-3.169,5.489-2.053c1.332,4.706,1.223,7.339,1.483,9.143
	c0.255,1.804-0.991,14.181-2.324,16.372c0,0,2.749-0.044,9.892-14.008c1.422-2.623,3.314-5.071,4.646-5.889
	c2.737-0.552,21.946-10.952,32.272-11.952c0,0,22.995-9.499,29.506-11.854c0.984,0.436,3.363-0.834,3.609-0.913
	c2.83-0.916,20.278-10.054,22.152-9.811c-1.107,1.553-11.679,7.243-11.679,7.243s0.534,4.036-3.31,5.369
	c-1.267,0.438-3.636-0.628-5.557-0.666c-1.636-0.035-2.942,0.998-2.942,0.998l0.503,1c0,0-30.036,11.77-31.203,12.104
	C164.56,50.294,137.535,61.099,135.154,62.495z M105.867,86.667c0,0,2.607-4.161,3.997-9.412c1.388-5.252,1.933-9.151,1.422-10.828
	c-8.616,5.285-21.875,13.568-23.07,14.954C92.509,82.477,104.798,86.44,105.867,86.667z"/>
<path d="M137.766,74.256c0,0-6.077,8.291-7.934,11.975c-1.22,2.43-2.866,9.848-2.771,10.313c0.09,0.467,10.669,4.597,17.786,3.15
	c0,0,0.277-1.354,0.371-1.816c0.098-0.466-0.304-1.066-0.886-1.487c0.386,0.33,0.968-0.009,0.979-0.328
	c0.019-0.521,0.354-1.449-0.203-1.636c-0.557-0.191,0.066-0.322,0.265-0.396c0.197-0.069-0.015-1.192-0.15-1.445
	c-0.136-0.251,0.051-0.772,0.042-1.295c-0.006-0.522,0.033-1.446-0.357-2.801c-0.265-0.905,0.883-4.505,2.605-6.537
	c-0.25-0.049-1.345,0.021-5.827-3.205C139.633,77.322,137.766,74.256,137.766,74.256z"/>
<path fill="#F5952F" d="M149.511,79.4c0,0-0.328,1.407-0.945,1.242c-0.265,0.206-0.109,0.983-0.683,0.867
	c-0.573-0.117,0.855,1.199-2.409-0.159c-5.216-2.326-7.29-6.054-8.088-7.617c0,0-0.267-1.062,0.579-1
	c0.843,0.062,0.224-0.551,0.224-0.551s-0.237-0.83,1.156-0.917c-0.198-0.301-0.651-1.276,0.146-1.338
	c0.791-0.061,1.224-0.169,1.147-0.428c0,0-0.01-0.922,0.625-0.777c1.166,1.371,7.908,8.456,9.523,10.143
	c0,0-0.446-0.024-0.741,0.368c0,0-0.035,0.271-0.287,0.22"/>
<path d="M159.829,83.382c-1.782-2.789-9.189-12.446-20.015-23.037c-3.729-3.646-6.235-5.786-6.102-3.7
	c0.035,0.559,0.196,1.225,0.414,1.853c0.787,2.091,1.878,4.442,4.558,8.022c9.298,12.436,15.307,16.295,15.307,16.295
	c1.008,0.832,1.894,1.328,2.632,1.739C159.944,86.571,161.555,86.087,159.829,83.382z"/>
<g>
	<path fill="#F5952F" d="M164.965,82.646c1.29,0,1.29-2,0-2S163.675,82.646,164.965,82.646L164.965,82.646z"/>
</g>
<g>
	<path fill="#F5952F" d="M163.779,68.162c1.29,0,1.29-2,0-2S162.489,68.162,163.779,68.162L163.779,68.162z"/>
</g>
<g>
	<path fill="#F5952F" d="M172.975,73.743c1.29,0,1.29-2,0-2S171.685,73.743,172.975,73.743L172.975,73.743z"/>
</g>
<g>
	<path fill="#F5952F" d="M174.74,80.804c1.29,0,1.29-2,0-2S173.45,80.804,174.74,80.804L174.74,80.804z"/>
</g>
<path fill="#FFFFFF" d="M212.75,111.184c0,0,2.738,7.726,1.144,7.398c-1.59-0.326-4.859-6.396-5.073-6.907
	c-0.214-0.515-1.59-1.003-1.59-1.003s4.812,8.703,2.641,9.061c-2.175,0.361-9.875-11.074-10.602-11.374
	c-0.729-0.299-1.426-1.459-1.426-1.459l-0.438-2.958c0,0-9.19-8.469-13.753-19.55c-2.717,0.764-8.155-0.314-9.253-3.367
	c-1.101-3.054,0.228-5.562,0.228-5.562s-6.652-0.676-8.312-1.206c-1.66-0.531-4.297-4.915-1.288-5.38
	c2.108-0.323,3.779,2.314,3.779,2.314s5.557,0,6.279-0.87c-0.796-1.177-2.73-3.527-1.031-4.146c1.695-0.615,4.653,1.776,4.653,1.776
	l2.736,0.398l-0.685-1.257l2.539-0.21l0.949-1.889l1.819,1.421l1.07-0.712l0.747,2.137l1.527,0.122l-0.109,0.756
	c0,0,2.279,0.234,3.665,1.979c1.388,1.745,2.164,5.039,2.164,5.039s3.776,1.224,9.349,14.666c-1.66-6.508-4.137-16.706-2.538-17.73
	c1.595-1.019,3.705,2.372,5.328,6.466c1.628,4.094,3.475,15.938,3.475,15.938s4.009,2.168,4.194,8.326
	C215.093,108.344,212.75,111.184,212.75,111.184z"/>
<path fill="none" stroke="#010101" stroke-width="2" stroke-linecap="round" stroke-linejoin="round" stroke-miterlimit="10" d="
	M202.033,100.621c-0.188,2.045,0.565,4.855,1.693,6.366c1.283,1.717,5.156,5.663,7.724,5.267c2.562-0.396,6.644-11.289-0.635-16.976
	c0,0-3.057-20.855-7.699-22.617c-4.937-1.876,2.03,18.979,2.03,18.979"/>
<path fill="none" stroke="#010101" stroke-width="2" stroke-linecap="round" stroke-linejoin="round" stroke-miterlimit="10" d="
	M206.938,96.066c0,0-7.42-19.307-12.124-20.558c-3.554-0.946,1.262,13.002,8.169,21.914"/>
<path fill="none" stroke="#010101" stroke-width="2" stroke-linecap="round" stroke-linejoin="round" stroke-miterlimit="10" d="
	M188.791,70.732c0.162-0.362,0.4-2.296,0.385-2.701c-0.018-0.498-1.116,0.173-1.275-0.287c-0.341-0.995-0.777-1.945-0.777-1.945
	l-1.084,0.81l-1.761-1.545l-0.965,1.728l-2.605,0.003l0.86,1.383l-2.262,1.575l2.066,1.772c0,0-2.621,0.102-3.706,2.257"/>
<path fill="none" stroke="#010101" stroke-width="2" stroke-linecap="round" stroke-linejoin="round" stroke-miterlimit="10" d="
	M178.528,72.428c0,0-0.746-3.83-2.462-2.663c-1.087,0.739-3.401,1.426-7.181,1.121c-2.417-2.526-3.682-2.231-4.938-1.545
	c-1.259,0.685-0.039,3.601,2.286,4.805c2.063,1.073,8.344,0.562,8.428,1.304c0.086,0.748-1.273,3.449-0.117,6.128
	c1.16,2.676,8.077,4.214,9.051,2.841c0,0,5.689,12.525,13.782,19.442c0.114,2.486,0.631,3.515,0.631,3.515
	c0.862,0.513,8.332,9.954,10.662,11.989c1.638,1.434,2.367-0.043,1.689-1.679c-0.672-1.644-3.291-7.231-3.291-7.231"/>
<path fill="none" stroke="#010101" stroke-width="2" stroke-linecap="round" stroke-linejoin="round" stroke-miterlimit="10" d="
	M212.709,111.469c0,0,1.009,2.537,1.704,4.874c0.475,1.591-0.345,2.897-1.615,1.575c-2.107-2.502-3.077-4.477-4.313-6.583"/>
<g>
	<path fill="#010101" d="M204.624,105.702c1.29,0,1.29-2,0-2S203.334,105.702,204.624,105.702L204.624,105.702z"/>
</g>
<path fill="none" stroke="#010101" stroke-width="2" stroke-linecap="round" stroke-linejoin="round" stroke-miterlimit="10" d="
	M174.75,70.114c-1.726-1.291-1.873-2.913-0.772-3.707c1.93-1.388,4.785,1.845,4.785,1.845s0.955,0.04,2.008,0.097"/>
<polyline fill="none" stroke="#010101" stroke-width="2" stroke-linecap="round" stroke-linejoin="round" stroke-miterlimit="10" points="
	182.814,72.888 180.411,72.831 181.373,71.524 "/>
<path fill="none" stroke="#010101" stroke-width="2" stroke-linecap="round" stroke-linejoin="round" stroke-miterlimit="10" d="
	M189.141,68.501c0,0,4.71,0.781,6.275,7.278"/>
<path fill="#FFFFFF" d="M280.966,179.343c0,0-4.085-19.548-8.411-22.144c-0.77-0.464-1.233,0.389-1.233,1.312
	c0,0.924,0.616,4.939,0.616,4.939l-1.696-0.694l0.078-0.541l-1.004-0.152l-0.387-0.928l-1.234,0.999l-0.849-0.768l-0.617,1.08
	l-1.466-1.155l-0.153,1.155l-0.928,0.152l0.85,1.701l-1.003,0.308l0.695,1l-1.081,1.549c0,0-0.771-3.09-2.005-2.394
	c-1.232,0.693-2.082,2.7-4.708,3.625c-2.622,0.924-5.089,1.155-5.4,2.7c-0.31,1.543,0.308,2.855,1.777,2.623
	c1.464-0.232,6.249-3.239,6.249-3.239s-1.47,3.78-0.157,6.017c1.313,2.24,5.017,0,5.017,0s1.775,8.64,6.557,11.574
	c-0.077,0.539,0.388,1.31,0.388,1.31l4.089,11.341c0,0-0.771,2.317-0.156,3.166c0.617,0.848,1.621,0.155,1.621,0.155
	s1.08,0.615,1.466-1.004c0.387-1.621,0.772-6.172,2.237-9.877c2.238,1.237,3.627,2.16,5.094,0.464
	c1.465-1.697,2.314-5.093,1.312-8.952c-1.004-3.857-3.087-4.78-3.087-4.78s2.47-4.013,3.703-6.944
	c1.233-2.933,2.856-14.274,1.543-15.353c-1.311-1.079-2.776,2.236-2.931,3.239c-0.156,0.999-4.09,18.516-4.09,18.516H280.966z"/>
<path fill="none" stroke="#010101" stroke-width="2" stroke-linecap="round" stroke-linejoin="round" stroke-miterlimit="10" d="
	M275.758,184.541c0,0-0.15,3.125,0.942,5.101c1.572,2.844,5.193,5.377,7.081,4.98c1.887-0.396,3.82-4.476,3.201-8.565
	c-0.71-3.716-3.201-5.694-3.358-6.249"/>
<path fill="none" stroke="#010101" stroke-width="2" stroke-linecap="round" stroke-linejoin="round" stroke-miterlimit="10" d="
	M283.624,179.807c0,0,0.354-0.966,2.429-4.399c2.664-4.395,3.877-16.644,2.664-17.704c-2.468-2.161-5.438,12.229-5.903,16.549
	c-0.114,1.076-1.159,4.911-1.272,5.441h-0.461c0,0-1.563-7.666-3.32-13.001c-2.08-6.329-4.74-9.686-5.825-9.686
	c-1.618,0-0.039,6.561,1.045,10.648c1.078,4.089,4.281,9.604,6.133,13.077"/>
<path fill="none" stroke="#010101" stroke-width="2" stroke-linecap="round" stroke-linejoin="round" stroke-miterlimit="10" d="
	M271.553,163.219c-0.693-0.115-2.165-0.312-4.13,0.269c-2.137,0.631-4.4,3.128-5.094,5.558"/>
<path fill="none" stroke="#010101" stroke-width="2" stroke-linecap="round" stroke-linejoin="round" stroke-miterlimit="10" d="
	M263.14,166.845c0,0-1.079-3.201-2.433-1.732c-2.515,2.73-4.813,3.395-5.784,3.587c-0.97,0.185-3.239,0.924-3.818,2.428
	c-0.868,2.253,0.792,3.11,2.43,2.312c1.637-0.791,5.092-2.893,5.092-2.893"/>
<path fill="none" stroke="#010101" stroke-width="2" stroke-linecap="round" stroke-linejoin="round" stroke-miterlimit="10" d="
	M259.436,169.392c0,0-3.009,5.325,0,7.409c2.37,1.639,4.515-0.236,4.515-0.236"/>
<path fill="none" stroke="#010101" stroke-width="2" stroke-linecap="round" stroke-linejoin="round" stroke-miterlimit="10" d="
	M263.604,173.561c0,0,0.222,6.712,3.664,11.567c1.312,1.854,3.278,3.246,3.278,3.246"/>
<path fill="none" stroke="#010101" stroke-width="2" stroke-linecap="round" stroke-linejoin="round" stroke-miterlimit="10" d="
	M270.896,185.249c0,0-0.465,3.434,0,4.514c0.461,1.078,4.012,11.264,4.86,13.269c0.847,2.009,2.197,1.234,2.237-1.232
	c0.075-4.861-2.122-11.228-2.122-11.228"/>
<path fill="none" stroke="#010101" stroke-width="2" stroke-linecap="round" stroke-linejoin="round" stroke-miterlimit="10" d="
	M279.922,193.695c0,0-1.776,6.356-1.854,7.331"/>
<path fill="none" stroke="#010101" stroke-width="2" stroke-linecap="round" stroke-linejoin="round" stroke-miterlimit="10" d="
	M276.835,204.265c0,0-1.41,0.573-2.005-0.618c-0.465-0.924,0.116-2.546,0.116-2.546"/>
<g>
	<path fill="#010101" d="M278.53,187.752c1.29,0,1.29-2,0-2S277.24,187.752,278.53,187.752L278.53,187.752z"/>
</g>
<path fill="none" stroke="#010101" stroke-width="2" stroke-linecap="round" stroke-linejoin="round" stroke-miterlimit="10" d="
	M270.316,162.908l0.114-0.692h-1.043l-0.461-1.041l-1.273,1.041l-0.579-1.155l-0.81,1.503l-1.504-1.619l-0.116,1.619
	c0,0-1.388-0.348-1.159,0c0.232,0.345,1.045,1.854,1.045,1.854h-1.159l0.464,0.696"/>
<path fill="#FFFFFF" d="M398.901,192.036c0,0,12.001-13.181,10.893-17.246c-0.616-2.832-6.953,4.688-6.953,4.688l-0.248-1.232
	c0,0,2.104-4.403,0.259-6.001c-0.986-0.863-4.197,4.4-4.444,5.633c0,0-2.954,12.19-3.078,14.896
	c-0.492,0.986-0.987,1.233-0.987,1.233l-0.737-0.371l-0.984,1.108c0,0-0.737-7.881-4.678-11.573
	c-3.939-3.692-16.622-7.634-21.795,2.216c-1.6-0.74-4.307-0.984-4.307-0.984v1.353l-0.984,0.371l0.739,0.985l-0.863,1.724
	l1.353,0.248l0.124,1.353l1.476,0.248l0.126,0.86c0,0,0.491,1.354,2.337-0.367c1.601,2.706,3.079,4.676,6.527,4.922
	c1.354,1.477-0.615,3.693-0.615,3.693l3.323,1.972l-4.432,2.46l-0.74,1.973l4.927,0.124l-1.479-1.111l4.681-1.478l6.647,3.697
	c0,0,1.109-0.615,0.122-2.709c-0.983-2.096-3.324-2.707-3.324-2.707s3.078-1.854,3.817-1.604c0.737,0.247,0.615,0.858,0.615,0.858
	l1.85-0.118l0.613,0.739l1.6-0.247l0.617,0.859l1.352-0.736l0.125,0.983l1.106-1.229c0,0,4.927,4.679,10.961,2.338
	c1.971-0.858,0.738-3.2-0.494-5.665c-1.23-2.46-3.076-3.691-3.076-3.691l0.243-0.982l-1.106-0.618L398.901,192.036z"/>
<path fill="none" stroke="#010101" stroke-width="2" stroke-linecap="round" stroke-linejoin="round" stroke-miterlimit="10" d="
	M392.827,199.299c0.353,5.185,8.286,5.2,9.827,5.032c1.542-0.168,2.93-0.812,2.546-2.444c-1.026-4.545-2.844-6.495-4.493-7.677
	c-0.386-0.28,0.844-0.537,0.532-0.694c-0.696-0.362-1.846-0.539-1.846-0.539l0.657-0.734l-0.905-0.163"/>
<path fill="none" stroke="#010101" stroke-width="2" stroke-linecap="round" stroke-linejoin="round" stroke-miterlimit="10" d="
	M397.175,194.131c0,0,9.442-10.509,11.656-15.106c2.217-4.595,0.787-5.439-0.773-4.699c-1.561,0.739-5.324,4.63-8.007,9.624
	c-2.575,4.789-5.302,9.125-5.302,9.125"/>
<path fill="none" stroke="#010101" stroke-width="2" stroke-linecap="round" stroke-linejoin="round" stroke-miterlimit="10" d="
	M401.774,180.83c0,0,2.345-6.221,1.422-7.891c-1.723-3.122-4.871,4.446-5.772,8.14c-0.842,3.44-2.327,11.304-2.327,11.304"/>
<path fill="none" stroke="#010101" stroke-width="2" stroke-linecap="round" stroke-linejoin="round" stroke-miterlimit="10" d="
	M395.097,192.382c0,0-0.973-0.42-1.504-0.119c0.149,0.459-0.928,0.583-0.928,0.583s-0.339-3.044-2.623-6.849
	c-2.282-3.804-7.65-8.195-16.287-6.468c-6.471,1.293-7.766,6.089-7.84,7.305c-0.076,1.221-0.534,8.601,6.698,9.209
	c1.37,0.99-0.382,3.732-0.382,3.732s11.57,7.456,12.482,7.612c0.915,0.151,1.903-1.98-0.99-4.112
	c-2.89-2.133-5.402-4.335-5.402-4.335s4.205-2.362,3.805-7.006c-0.608-7.076-7.609-5.557-7.609-5.557"/>
<path fill="none" stroke="#010101" stroke-width="2" stroke-linecap="round" stroke-linejoin="round" stroke-miterlimit="10" d="
	M382.051,201.755c1.064-0.535,2.511-1.372,3.957-1.144c-0.838,0.911,2.057,0.455,2.057,0.455l0.606,0.761l1.829-0.149l0.608,0.762
	l1.14-0.612l0.135,0.856l1.027-1.102"/>
<path fill="none" stroke="#010101" stroke-width="2" stroke-linecap="round" stroke-linejoin="round" stroke-miterlimit="10" d="
	M377.866,203.731c0,0-4.491,1.068-4.721,1.449c1.143-0.152,2.054,1.442,2.054,1.442l-5.099-0.303l0.609-2.204l4.34-2.212"/>
<path fill="none" stroke="#010101" stroke-width="2" stroke-linecap="round" stroke-linejoin="round" stroke-miterlimit="10" d="
	M365.915,191.477c0,0-0.534,0.687-1.675,0.609c-1.141-0.075-0.455-1.14-0.455-1.14l-1.524-0.151l-0.075-1.601l-1.599-0.456
	l1.065-1.525l-0.99-1.062l1.371-0.685l-0.305-1.296c0,0,3.348,0.384,4.035,1.751"/>
<g>
	<path fill="#010101" d="M398.282,199.071c1.29,0,1.29-2,0-2S396.992,199.071,398.282,199.071L398.282,199.071z"/>
</g>
<g>
	<path fill="#F5952F" d="M331.85,158.983c1.29,0,1.29-2,0-2S330.56,158.983,331.85,158.983L331.85,158.983z"/>
</g>
<g>
	<path fill="#F5952F" d="M360.011,180.335c1.29,0,1.29-2,0-2S358.721,180.335,360.011,180.335L360.011,180.335z"/>
</g>
<g>
	<path fill="#F5952F" d="M339.438,146.918c1.29,0,1.29-2,0-2S338.148,146.918,339.438,146.918L339.438,146.918z"/>
</g>
<g>
	<path fill="#F5952F" d="M288.97,166.189c1.29,0,1.29-2,0-2S287.68,166.189,288.97,166.189L288.97,166.189z"/>
</g>
<g>
	<path fill="#F5952F" d="M285.878,158.463c1.29,0,1.29-2,0-2S284.588,158.463,285.878,158.463L285.878,158.463z"/>
</g>
<g>
	<path fill="#F5952F" d="M257.65,141.872c1.29,0,1.29-2,0-2S256.36,141.872,257.65,141.872L257.65,141.872z"/>
</g>
<g>
	<path fill="#F5952F" d="M266.373,147.504c1.29,0,1.29-2,0-2S265.083,147.504,266.373,147.504L266.373,147.504z"/>
</g>
<g>
	<path fill="#F5952F" d="M306.513,155.267c1.29,0,1.29-2,0-2S305.223,155.267,306.513,155.267L306.513,155.267z"/>
</g>
<g>
	<path fill="#F5952F" d="M299.229,132.46c1.29,0,1.29-2,0-2S297.938,132.46,299.229,132.46L299.229,132.46z"/>
</g>
<g>
	<path fill="#F5952F" d="M292.942,121.223c1.29,0,1.29-2,0-2S291.652,121.223,292.942,121.223L292.942,121.223z"/>
</g>
<g>
	<path fill="#F5952F" d="M281.899,118.111c1.29,0,1.29-2,0-2S280.609,118.111,281.899,118.111L281.899,118.111z"/>
</g>
<g>
	<path fill="#F5952F" d="M298.788,161.776c1.29,0,1.29-2,0-2S297.498,161.776,298.788,161.776L298.788,161.776z"/>
</g>
<g>
	<path fill="#F5952F" d="M277.495,163.872c1.29,0,1.29-2,0-2S276.205,163.872,277.495,163.872L277.495,163.872z"/>
</g>
<g>
	<path fill="#F5952F" d="M297.796,198.846c1.29,0,1.29-2,0-2S296.506,198.846,297.796,198.846L297.796,198.846z"/>
</g>
<g>
	<path fill="#F5952F" d="M303.691,197.862c1.29,0,1.29-2,0-2S302.401,197.862,303.691,197.862L303.691,197.862z"/>
</g>
<g>
	<path fill="#F5952F" d="M307.062,194.985c1.29,0,1.29-2,0-2S305.772,194.985,307.062,194.985L307.062,194.985z"/>
</g>
<g>
	<path fill="#F5952F" d="M292.171,190.949c1.29,0,1.29-2,0-2S290.881,190.949,292.171,190.949L292.171,190.949z"/>
</g>
<g>
	<path fill="#F5952F" d="M279.112,181.733c1.29,0,1.29-2,0-2S277.822,181.733,279.112,181.733L279.112,181.733z"/>
</g>
<g>
	<path fill="#F5952F" d="M323.999,141.23c1.29,0,1.29-2,0-2S322.709,141.23,323.999,141.23L323.999,141.23z"/>
</g>
<g>
	<path fill="#F5952F" d="M398.066,172.281c1.29,0,1.29-2,0-2S396.776,172.281,398.066,172.281L398.066,172.281z"/>
</g>
<g>
	<path fill="#F5952F" d="M393.97,166.136c1.29,0,1.29-2,0-2S392.68,166.136,393.97,166.136L393.97,166.136z"/>
</g>
<g>
	<path fill="#F5952F" d="M383.216,157.432c1.29,0,1.29-2,0-2S381.926,157.432,383.216,157.432L383.216,157.432z"/>
</g>
<g>
	<path fill="#F5952F" d="M390.385,161.017c1.29,0,1.29-2,0-2S389.095,161.017,390.385,161.017L390.385,161.017z"/>
</g>
<g>
	<path fill="#F5952F" d="M374.062,189.162c1.29,0,1.29-2,0-2S372.771,189.162,374.062,189.162L374.062,189.162z"/>
</g>
<g>
	<path fill="#F5952F" d="M340.042,160.348c1.29,0,1.29-2,0-2S338.752,160.348,340.042,160.348L340.042,160.348z"/>
</g>
<g>
	<path fill="#F5952F" d="M282.087,105.981c1.29,0,1.29-2,0-2S280.797,105.981,282.087,105.981L282.087,105.981z"/>
</g>
<g>
	<path fill="#F5952F" d="M203.105,21.982c1.29,0,1.29-2,0-2S201.815,21.982,203.105,21.982L203.105,21.982z"/>
</g>
<g>
	<path fill="#F5952F" d="M260.614,87.947c1.29,0,1.29-2,0-2S259.324,87.947,260.614,87.947L260.614,87.947z"/>
</g>
<g>
	<path fill="#F5952F" d="M246.655,110.204c1.29,0,1.29-2,0-2S245.365,110.204,246.655,110.204L246.655,110.204z"/>
</g>
<g>
	<path fill="#F5952F" d="M252.804,125.828c1.29,0,1.29-2,0-2S251.514,125.828,252.804,125.828L252.804,125.828z"/>
</g>
<g>
	<path fill="#F5952F" d="M218.885,81.742c1.29,0,1.29-2,0-2S217.595,81.742,218.885,81.742L218.885,81.742z"/>
</g>
<g>
	<path fill="#F5952F" d="M210.946,84.558c1.29,0,1.29-2,0-2S209.656,84.558,210.946,84.558L210.946,84.558z"/>
</g>
<g>
	<path fill="#F5952F" d="M384.541,167.206c1.29,0,1.29-2,0-2S383.251,167.206,384.541,167.206L384.541,167.206z"/>
</g>
<g>
	<path fill="#F5952F" d="M371.619,157.464c1.29,0,1.29-2,0-2S370.329,157.464,371.619,157.464L371.619,157.464z"/>
</g>
<g>
	<path fill="#F5952F" d="M365.343,164.337c1.29,0,1.29-2,0-2S364.053,164.337,365.343,164.337L365.343,164.337z"/>
</g>
<g>
	<path fill="#F5952F" d="M347.552,157.958c1.29,0,1.29-2,0-2S346.262,157.958,347.552,157.958L347.552,157.958z"/>
</g>
<g>
	<path fill="#F5952F" d="M370.159,175.866c1.29,0,1.29-2,0-2S368.869,175.866,370.159,175.866L370.159,175.866z"/>
</g>
<g>
	<path fill="#F5952F" d="M199.938,81.999c1.29,0,1.29-2,0-2S198.648,81.999,199.938,81.999L199.938,81.999z"/>
</g>
<g>
	<path fill="#F5952F" d="M208.188,79.458c1.29,0,1.29-2,0-2S206.898,79.458,208.188,79.458L208.188,79.458z"/>
</g>
<g>
	<path fill="#F5952F" d="M231.212,90.418c1.29,0,1.29-2,0-2S229.922,90.418,231.212,90.418L231.212,90.418z"/>
</g>
<g>
	<path fill="#F5952F" d="M219.295,68.721c1.29,0,1.29-2,0-2S218.005,68.721,219.295,68.721L219.295,68.721z"/>
</g>
<g>
	<path fill="#F5952F" d="M228.859,107.114c1.29,0,1.29-2,0-2S227.569,107.114,228.859,107.114L228.859,107.114z"/>
</g>
<g>
	<path fill="#F5952F" d="M223.269,101.377c1.29,0,1.29-2,0-2S221.979,101.377,223.269,101.377L223.269,101.377z"/>
</g>
<g>
	<path fill="#F5952F" d="M222.827,110.204c1.29,0,1.29-2,0-2S221.537,110.204,222.827,110.204L222.827,110.204z"/>
</g>
<g>
	<path fill="#F5952F" d="M198.914,75.855c1.29,0,1.29-2,0-2S197.624,75.855,198.914,75.855L198.914,75.855z"/>
</g>
<g>
	<path fill="#F5952F" d="M205.058,68.429c1.29,0,1.29-2,0-2S203.768,68.429,205.058,68.429L205.058,68.429z"/>
</g>
<g>
	<path fill="#F5952F" d="M213.117,97.257c1.29,0,1.29-2,0-2S211.827,97.257,213.117,97.257L213.117,97.257z"/>
</g>
<g>
	<path fill="#F5952F" d="M218.413,105.057c1.29,0,1.29-2,0-2S217.123,105.057,218.413,105.057L218.413,105.057z"/>
</g>
<g>
	<path fill="#F5952F" d="M195.672,50.69c1.29,0,1.29-2,0-2S194.382,50.69,195.672,50.69L195.672,50.69z"/>
</g>
<g>
	<path fill="#F5952F" d="M211.568,50.138c1.29,0,1.29-2,0-2S210.278,50.138,211.568,50.138L211.568,50.138z"/>
</g>
<g>
	<path fill="#F5952F" d="M228.572,52.366c1.29,0,1.29-2,0-2S227.282,52.366,228.572,52.366L228.572,52.366z"/>
</g>
<g>
	<path fill="#F5952F" d="M246.788,88.912c1.29,0,1.29-2,0-2S245.498,88.912,246.788,88.912L246.788,88.912z"/>
</g>
<g>
	<path fill="#F5952F" d="M229.382,121.169c1.29,0,1.29-2,0-2S228.092,121.169,229.382,121.169L229.382,121.169z"/>
</g>
<g>
	<path fill="#F5952F" d="M265.885,99.007c1.29,0,1.29-2,0-2S264.595,99.007,265.885,99.007L265.885,99.007z"/>
</g>
<g>
	<path fill="#F5952F" d="M201.056,104.174c1.29,0,1.29-2,0-2S199.766,104.174,201.056,104.174L201.056,104.174z"/>
</g>
</svg>
