<?xml version="1.0" encoding="utf-8"?>
<!-- Generator: Adobe Illustrator 16.0.0, SVG Export Plug-In . SVG Version: 6.00 Build 0)  -->
<!DOCTYPE svg PUBLIC "-//W3C//DTD SVG 1.1//EN" "http://www.w3.org/Graphics/SVG/1.1/DTD/svg11.dtd">
<svg version="1.1" id="Ebene_1" xmlns="http://www.w3.org/2000/svg" xmlns:xlink="http://www.w3.org/1999/xlink" x="0px" y="0px"
	 width="207.667px" height="153.334px" viewBox="0 0 207.667 153.334" enable-background="new 0 0 207.667 153.334"
	 xml:space="preserve">
<g>
	<path fill="#179A97" d="M6.001,141.377c-0.18,0-0.362-0.048-0.526-0.15c-0.469-0.29-0.614-0.907-0.323-1.376l15.359-24.787
		c0.163-0.263,0.438-0.436,0.745-0.468c0.307-0.032,0.612,0.078,0.826,0.301l9.207,9.573c3.647-6.822,9.609-17.973,9.865-18.462
		c0.064-0.131,0.157-0.248,0.278-0.344c0.398-0.312,0.967-0.28,1.324,0.075l9.652,9.578l6.697-3.072
		c0.492-0.225,1.076-0.019,1.314,0.469l4.381,8.92l9.796-8.171c0.248-0.208,0.58-0.28,0.892-0.2
		c0.312,0.081,0.566,0.308,0.682,0.608l7.385,19.188l7.241-10.154c0.186-0.261,0.487-0.417,0.808-0.419c0.002,0,0.004,0,0.006,0
		c0.319,0,0.619,0.152,0.807,0.409l6.779,9.262c0.326,0.446,0.229,1.071-0.216,1.397c-0.446,0.327-1.071,0.229-1.398-0.216
		l-5.961-8.145l-7.517,10.541c-0.214,0.299-0.575,0.45-0.939,0.411c-0.365-0.046-0.676-0.289-0.808-0.633l-7.551-19.621
		l-9.701,8.092c-0.236,0.197-0.55,0.274-0.849,0.211c-0.3-0.064-0.554-0.263-0.689-0.538l-4.512-9.188l-6.441,2.955
		c-0.378,0.176-0.826,0.093-1.122-0.199l-9.193-9.122c-0.254,0.485-0.584,1.104-1.008,1.898l-8.886,16.624
		c-0.151,0.282-0.428,0.475-0.745,0.519c-0.319,0.047-0.636-0.066-0.858-0.297l-9.268-9.637L6.852,140.903
		C6.663,141.209,6.336,141.377,6.001,141.377z"/>
</g>
<g>
	<path fill="#F5952F" d="M98.388,133.748c-0.175,0-0.352-0.046-0.513-0.142c-0.474-0.284-0.628-0.898-0.344-1.372L135.52,68.79
		c0.181-0.302,0.507-0.486,0.858-0.486h8.304l12.882-22.78c0.271-0.48,0.882-0.65,1.362-0.378s0.65,0.882,0.378,1.363
		l-13.169,23.288c-0.177,0.314-0.51,0.508-0.87,0.508h-8.32l-37.698,62.958C99.059,133.574,98.728,133.748,98.388,133.748z"/>
</g>
<g>
	<path fill="#F5952F" d="M160.575,50.52c-0.457,0-0.869-0.315-0.975-0.779l-1.054-4.656l-3.727,2.172
		c-0.475,0.278-1.088,0.118-1.368-0.36c-0.277-0.477-0.116-1.089,0.36-1.367l4.904-2.859c0.275-0.161,0.612-0.181,0.902-0.053
		c0.292,0.127,0.507,0.385,0.577,0.696l1.355,5.986c0.122,0.539-0.216,1.074-0.755,1.196
		C160.723,50.512,160.648,50.52,160.575,50.52z"/>
</g>
<g>
	<path fill="#020202" d="M160.576,141.377H6.002c-0.552,0-1-0.447-1-1V92.654c0-0.553,0.448-1,1-1s1,0.447,1,1v46.723h153.574
		c0.553,0,1,0.447,1,1S161.129,141.377,160.576,141.377z"/>
</g>
<g>
	<path fill="#020202" d="M158.639,144.37c-0.332,0-0.657-0.165-0.847-0.467c-0.295-0.467-0.154-1.085,0.312-1.379l2.769-1.745
		l-2.91-2.658c-0.407-0.372-0.436-1.005-0.063-1.413c0.373-0.408,1.005-0.435,1.413-0.063l3.878,3.543
		c0.23,0.211,0.349,0.517,0.321,0.827s-0.199,0.591-0.463,0.757l-3.878,2.444C159.005,144.32,158.821,144.37,158.639,144.37z"/>
</g>
<g>
	<path fill="#020202" d="M2.605,95.427c-0.241,0-0.483-0.087-0.675-0.263c-0.407-0.373-0.435-1.006-0.062-1.413l3.249-3.544
		c0.185-0.201,0.443-0.318,0.716-0.324c0.256-0.012,0.536,0.1,0.729,0.293l3.542,3.544c0.39,0.391,0.39,1.023,0,1.414
		s-1.024,0.391-1.415,0l-2.803-2.806l-2.543,2.774C3.146,95.317,2.875,95.427,2.605,95.427z"/>
</g>
<g>
	<path fill="#F5952F" d="M182.039,33.744c-0.044,0-0.089-0.003-0.134-0.009l-11.006-1.475c-0.07-0.009-0.139-0.026-0.205-0.05
		l-3.278-1.177c-0.458-0.164-0.73-0.634-0.647-1.112c0.084-0.479,0.499-0.829,0.985-0.829h3.439c0.046,0,0.092,0.003,0.138,0.01
		l10.228,1.424c0.547,0.076,0.929,0.581,0.853,1.128c-0.007,0.052-0.018,0.102-0.032,0.15c0.433,0.156,0.714,0.598,0.65,1.073
		C182.962,33.379,182.532,33.744,182.039,33.744z"/>
</g>
<g>
	<path fill="#735426" d="M197.279,106.95c-0.115,0-0.232-0.02-0.347-0.062l-12.241-4.522c-0.518-0.191-0.783-0.767-0.592-1.285
		c0.191-0.518,0.768-0.781,1.285-0.592l12.241,4.522c0.518,0.191,0.783,0.767,0.592,1.285
		C198.068,106.7,197.686,106.95,197.279,106.95z"/>
</g>
<g>
	<path fill="#735426" d="M184.614,107.449c-0.397,0-0.774-0.239-0.93-0.632c-0.203-0.513,0.048-1.095,0.562-1.298l12.667-5.021
		c0.508-0.203,1.094,0.048,1.298,0.562c0.203,0.513-0.048,1.095-0.562,1.298l-12.667,5.021
		C184.862,107.427,184.737,107.449,184.614,107.449z"/>
</g>
<g>
	<path fill="#FFFFFF" d="M187.413,33.948c0,0-6.628,0.303-5.193-2.192c0,0,3.122-2.327,4.712-2.031"/>
</g>
<g>
	<path fill="#020202" d="M186.554,34.968c-1.749,0-4.435-0.236-5.27-1.606c-0.22-0.36-0.502-1.112,0.068-2.104
		c0.068-0.118,0.16-0.222,0.27-0.303c0.579-0.432,3.565-2.575,5.492-2.212c0.543,0.101,0.901,0.623,0.801,1.166
		c-0.102,0.542-0.627,0.899-1.166,0.8c-0.656-0.112-2.373,0.742-3.692,1.676c0.479,0.377,2.473,0.647,4.312,0.565
		c0.543-0.022,1.02,0.403,1.044,0.954c0.024,0.552-0.401,1.019-0.953,1.044C187.208,34.958,186.899,34.968,186.554,34.968z"/>
</g>
<g>
	<path fill="#FFFFFF" d="M191.829,41.806c0,0,1.732-2.864,4.486-4.01c0-3.962-4.486-4.722-4.486-4.722s-0.25,5.122-1.739,4.576
		c-1.364,1.453-3.158-7.925-3.158-7.925s3.807-2.796,8.302-1.565c4.498,1.218,7.392,3.567,7.26,7.089
		c1.78-1.11,3.28,0.954,3.277,2.571c-0.004,0.643-0.431,1.547-1.497,1.835c-1.231,0.332-2.492-0.506-2.492-0.506l-9.952,5.404"/>
</g>
<g>
	<path fill="#020202" d="M191.83,45.554c-0.354,0-0.698-0.189-0.88-0.523c-0.264-0.485-0.084-1.092,0.401-1.356l9.952-5.404
		c0.325-0.177,0.721-0.16,1.031,0.046c0.247,0.16,1.041,0.545,1.679,0.373c0.744-0.201,0.757-0.869,0.757-0.875
		c0.001-0.685-0.424-1.503-0.928-1.784c-0.187-0.104-0.432-0.177-0.82,0.067c-0.314,0.195-0.712,0.201-1.03,0.017
		c-0.32-0.186-0.512-0.533-0.498-0.903c0.132-3.535-3.474-5.261-6.522-6.086c-3.057-0.837-5.811,0.441-6.925,1.079
		c0.544,2.65,1.348,5.52,1.902,6.455c0.062-0.009,0.126-0.01,0.19-0.009c0.304-0.521,0.618-2.132,0.69-3.625
		c0.014-0.286,0.149-0.551,0.372-0.73c0.224-0.179,0.51-0.256,0.794-0.207c1.84,0.312,5.319,1.905,5.319,5.708
		c0,0.404-0.243,0.768-0.616,0.923c-2.406,1.001-4,3.58-4.016,3.606c-0.287,0.471-0.901,0.621-1.373,0.335s-0.623-0.899-0.337-1.372
		c0.071-0.119,1.666-2.717,4.293-4.103c-0.267-1.611-1.573-2.423-2.537-2.81c-0.174,1.556-0.584,3.405-1.553,4.047
		c-0.266,0.175-0.559,0.266-0.859,0.267c-0.282,0.124-0.596,0.148-0.902,0.058c-0.465-0.135-1.88-0.545-3.466-8.836
		c-0.072-0.379,0.08-0.766,0.391-0.994c0.172-0.125,4.253-3.068,9.157-1.723c4.646,1.257,7.402,3.623,7.913,6.739
		c0.496-0.014,0.955,0.099,1.404,0.349c1.136,0.631,1.959,2.12,1.956,3.54c-0.007,1.061-0.709,2.387-2.236,2.798
		c-1.095,0.297-2.135-0.046-2.752-0.334l-9.476,5.146C192.154,45.515,191.991,45.554,191.83,45.554z"/>
</g>
<g>
	<path fill="#735426" d="M202.585,151.949c-0.504,0-0.938-0.379-0.993-0.892L190.447,49.153l-8.51,101.879
		c-0.045,0.551-0.518,0.975-1.079,0.913c-0.551-0.046-0.96-0.529-0.913-1.079l9.372-112.213c0.042-0.514,0.468-0.91,0.983-0.917
		c0.004,0,0.009,0,0.013,0c0.51,0,0.938,0.384,0.994,0.891l12.272,112.214c0.06,0.549-0.336,1.042-0.886,1.103
		C202.658,151.947,202.621,151.949,202.585,151.949z"/>
</g>
<g>
	<path fill="#FFFFFF" d="M197.565,9.848c4.881-3.107,5.508-3.204,6.512-2.273c2.167,2.39-14.807,16.355-14.807,16.355
		s0.301,2.075-3.178,2.788c0,0-7.543,0.476-10.779-1.819c-3.009-2.14,1.224-7.068,10.215-5.167c0,0,9.74-16.477,10.823-17.052
		c2.861-1.498,3.163,6.64-8.101,19.615"/>
</g>
<g>
	<path fill="#020202" d="M184.44,27.76c-2.522,0-7.189-0.262-9.705-2.045c-1.297-0.922-1.721-2.362-1.108-3.758
		c1.107-2.523,5.339-4.42,11.4-3.34c6.336-10.7,9.988-16.358,10.855-16.819c0.965-0.505,1.938-0.347,2.543,0.417
		c0.911,1.152,0.808,3.285-0.124,5.984c3.635-2.272,4.933-2.771,6.455-1.358c0.291,0.316,0.556,0.763,0.505,1.451
		c-0.048,0.666-1.005,4.552-15.013,16.128c-0.127,0.933-0.802,2.631-3.955,3.278c-0.046,0.009-0.092,0.016-0.138,0.019
		C186.066,27.722,185.412,27.76,184.44,27.76z M181.66,20.304c-3.508,0-5.676,1.258-6.201,2.456
		c-0.229,0.521-0.086,0.954,0.435,1.324c2.39,1.694,8.007,1.76,10.065,1.64c2.377-0.509,2.323-1.64,2.322-1.651
		c-0.044-0.299,0.051-0.598,0.25-0.817c-0.315,0.093-0.669,0.026-0.936-0.205c-0.417-0.362-0.462-0.994-0.1-1.411
		c9.099-10.481,9.986-17.089,9.41-18.115c-0.007,0.003-0.015,0.006-0.023,0.009c-0.972,0.966-6.096,9.268-10.494,16.707
		c-0.217,0.369-0.645,0.56-1.067,0.47C183.978,20.426,182.754,20.304,181.66,20.304z M197.235,10.792
		c-1.67,3.547-4.414,7.708-7.924,11.806c6.894-5.744,13.915-12.675,13.959-14.41c-0.334-0.279-0.785-0.286-5.168,2.504
		C197.833,10.863,197.516,10.89,197.235,10.792z"/>
</g>
<g>
	<path fill="#020202" d="M182.126,23.706c1.163,0,1.163-1.805,0-1.805C180.961,21.901,180.961,23.706,182.126,23.706"/>
	<path fill="#010101" d="M182.126,24.206c-0.893,0-1.374-0.723-1.374-1.402c0-0.356,0.121-0.692,0.34-0.947
		c0.253-0.294,0.62-0.456,1.034-0.456c0.892,0,1.372,0.723,1.372,1.402c0,0.356-0.12,0.692-0.339,0.947
		C182.906,24.044,182.54,24.206,182.126,24.206z M182.126,22.401c-0.123,0-0.214,0.035-0.276,0.108
		c-0.062,0.072-0.098,0.179-0.098,0.294c0,0.094,0.027,0.402,0.374,0.402c0.123,0,0.213-0.035,0.275-0.108
		c0.062-0.072,0.097-0.179,0.097-0.295C182.498,22.709,182.472,22.401,182.126,22.401z"/>
</g>
</svg>
