<?xml version="1.0" encoding="utf-8"?>
<!-- Generator: Adobe Illustrator 16.0.0, SVG Export Plug-In . SVG Version: 6.00 Build 0)  -->
<!DOCTYPE svg PUBLIC "-//W3C//DTD SVG 1.1//EN" "http://www.w3.org/Graphics/SVG/1.1/DTD/svg11.dtd">
<svg version="1.1" id="Ebene_1" xmlns="http://www.w3.org/2000/svg" xmlns:xlink="http://www.w3.org/1999/xlink" x="0px" y="0px"
	 width="35.5px" height="50.75px" viewBox="0 0 35.5 50.75" enable-background="new 0 0 35.5 50.75" xml:space="preserve">
<g>
	<path fill="#010101" d="M3.379,9.571c1.354-2.068,2.709-4.137,4.062-6.205c-0.609-0.08-1.219-0.159-1.827-0.239
		c1.772,11.525,7.548,22.116,14.134,31.577c3.623,5.205,7.614,10.3,12.061,14.836c0.904,0.922,2.317-0.493,1.414-1.414
		c-4.183-4.268-7.915-9.038-11.373-13.898C15.146,24.806,9.32,14.15,7.542,2.596C7.4,1.672,6.138,1.71,5.715,2.356
		C4.36,4.425,3.006,6.493,1.652,8.562C0.943,9.645,2.676,10.646,3.379,9.571L3.379,9.571z"/>
</g>
<g>
	<line fill="#010101" x1="13.832" y1="9.066" x2="6.537" y2="2.635"/>
	<g>
		<path fill="#010101" d="M14.539,8.359c-2.432-2.144-4.863-4.288-7.295-6.432C6.281,1.078,4.86,2.487,5.83,3.342
			c2.432,2.144,4.863,4.288,7.295,6.432C14.088,10.623,15.509,9.214,14.539,8.359L14.539,8.359z"/>
	</g>
</g>
</svg>
