<?xml version="1.0" encoding="utf-8"?>
<!-- Generator: Adobe Illustrator 16.0.0, SVG Export Plug-In . SVG Version: 6.00 Build 0)  -->
<!DOCTYPE svg PUBLIC "-//W3C//DTD SVG 1.1//EN" "http://www.w3.org/Graphics/SVG/1.1/DTD/svg11.dtd">
<svg version="1.1" id="Ebene_1" xmlns="http://www.w3.org/2000/svg" xmlns:xlink="http://www.w3.org/1999/xlink" x="0px" y="0px"
	 width="144.334px" height="281.335px" viewBox="0 0 144.334 281.335" enable-background="new 0 0 144.334 281.335"
	 xml:space="preserve">
<g>
	<path fill="#D8BDB6" d="M48.373,145.298l0.094-6.368c0,0,6.234-0.421,8.916-6.337c2.689-5.916,1.643-17.983-1.488-19.861
		c-3.135-1.868-8.977,1.317-9.688,6.905c-0.715,5.594-2.652,4.043-5.234,4.311c-2.578,0.271-2.242,2.19-2.061,3.459
		c0.174,1.266,2.369,8.404,0.281,8.744c-2.088,0.336-1.945,4.169-1.945,4.169l5.355,5.091v1.97
		C42.604,147.38,48.348,146.929,48.373,145.298z"/>
</g>
<g>
	<path fill="#CCBAB5" d="M85.045,156.099l2.139,4.172c0,0,7.27-8.661,2.146-11.37C87.42,150.932,85.045,156.099,85.045,156.099z"/>
</g>
<g>
	<path fill="#D8BDB6" d="M57.18,175.792c0,0,0.779,7.244-1.355,8.097c2.424,1.575,6.777,4.67,8.494,0.856
		c1.717-3.821,1.453-7.567,0.236-8.286C63.336,175.74,57.18,175.792,57.18,175.792z"/>
</g>
<g>
	<path fill="#DEDEDD" d="M37.248,136.15c0,0-6.223-1.75-8.316-7.802c-0.662-2.935,0.971,0.971,0-10.093
		c6.025-12.863,10.83-11.745,12.068-11.596c1.23,0.149,21.129-0.461,16.557,6.235c-3.893-0.288-9.979-0.961-10.656,4.221
		c-0.674,5.184-0.861,6.174-4.828,6.806c-3.961,0.636-3.713,1.304-2.879,5.248C40.025,133.112,40.223,137.144,37.248,136.15z"/>
</g>
<g>
	<polyline fill="#E3E6E8" points="31.895,142.932 32.428,142.646 36.002,140.71 42.604,145.41 42.18,150.762 	"/>
</g>
<g>
	<path fill="#85A5B5" d="M33.248,143.963c0,0-7.814,4.689-8.094,13.813c-0.275,9.122,1.219,14.819,1.219,14.819
		s-2.598,16.265,0.188,17.245c2.787,0.989,26.277,4.459,26.445,3.099c0.166-1.359,0.188-8.533,0.188-8.533s2.273,0.913,3.373-3.222
		s-0.068-6.199-0.752-6.312c-0.684-0.102-2.521,0.025-2.521,0.025s0.213-11.795-0.287-13.992c5.486,3.884,14.396,9.702,15.145,9.298
		c0.742-0.411,18.384-7.067,18.603-8.053c0.215-0.979-2.938-7.469-4.097-6.643c-1.162,0.825-12.227,7.681-12.902,7.173
		s-17.168-16.291-18.645-16.717c-1.479-0.432-2.32-0.426-2.32-0.426s-4.904,3.11-5.746,2.601c-0.762,1.693-1.191,2.37-1.191,2.37
		L33.248,143.963z"/>
</g>
<g>
	<path fill="#4D3E2D" d="M24.205,277.291c0,0,1.822-5.42,6.65-5.122c4.83,0.308,9.703,6.06,4.752,6.64
		C30.656,279.384,22.924,280.671,24.205,277.291z"/>
</g>
<g>
	<path fill="#4D3E2D" d="M48.768,275.495c0,0-0.877-5.255,2.342-6.112c3.215-0.851,7.121-1.299,7.121-1.299s11.51,6.271,7.307,6.501
		C61.334,274.812,48.768,275.495,48.768,275.495z"/>
</g>
<g>
	<path fill="#C5B383" d="M26.373,189.855c0,0-1.385,10.904-1.219,17.446c0.17,6.543,1.105,28.842,0.334,32.558
		c-0.773,3.715-2.551,28.718,0.189,32.617c4.152-0.702,10.008,0,10.008,0s0.846-4.295,0-6.034c-0.844-1.729-1.916-0.718-1.633-4.607
		c0.283-3.884,0.84-10.452,0.84-10.452s5.656-41.008,6.379-41.315c0.719-0.307,6.133,47.437,5.086,49.967
		c-1.051,2.529-0.971,3.371-0.328,4.936c0.645,1.561,0.637,4.413,1.688,4.413s10.949-2.838,10.949-2.838s2.574-1.59-0.059-4.418
		c-1.43-5.873-0.973-10.943-1.225-16.522c-0.252-5.571-1.164-50.222-6.273-52.074c-2.289,0-11.104-2.017-17.057-3.002
		C28.912,189.682,26.373,189.855,26.373,189.855z"/>
</g>
<g>
	<path fill="#010101" d="M55.297,185.406c-0.073,0-0.146-0.008-0.219-0.024l-0.699-0.156c-18.486-4.138-25.808-6.345-27.016-8.143
		c-4.231-6.272-4.804-20.841-1.074-27.346c2.291-4.013,5.107-5.203,5.226-5.252c0.513-0.212,1.096,0.033,1.305,0.545
		c0.21,0.512-0.034,1.096-0.545,1.305c-0.017,0.008-2.323,1.021-4.25,4.396c-3.372,5.882-2.831,19.561,0.998,25.235
		c0.954,1.231,9.633,3.69,25.794,7.308l0.324,0.073c1.328-0.979,1.367-4.557,1.136-6.736l-19.79-4.554
		c-0.436-0.101-0.752-0.479-0.774-0.926l-0.783-15.866c-0.027-0.551,0.398-1.021,0.95-1.048c0.536-0.043,1.021,0.397,1.048,0.95
		l0.746,15.11l19.731,4.54c0.398,0.092,0.701,0.418,0.764,0.822c0.127,0.823,1.134,8.084-2.466,9.681
		C55.574,185.377,55.436,185.406,55.297,185.406z"/>
</g>
<g>
	<path fill="#010101" d="M42.18,151.762c-0.215,0-0.429-0.069-0.605-0.204l-10.285-7.83c-0.251-0.191-0.397-0.489-0.395-0.805
		s0.154-0.611,0.409-0.798l3.564-2.612c0.348-0.254,0.819-0.259,1.171-0.008l7.145,5.091c0.286,0.204,0.444,0.543,0.417,0.894
		l-0.424,5.352c-0.029,0.364-0.255,0.685-0.589,0.834C42.457,151.733,42.318,151.762,42.18,151.762z M33.565,142.947l7.762,5.909
		l0.234-2.961l-6.095-4.343L33.565,142.947z"/>
</g>
<g>
	<path fill="#010101" d="M52.806,194.694c0,0-6.108-0.579-9.731-0.955c-1.309-0.135-2.923-0.581-4.791-1.098
		c-3.435-0.951-7.709-2.129-11.827-1.79c-0.469,0.05-0.902-0.253-1.039-0.703c-1.94-6.337-0.266-16.254-0.193-16.673
		c0.094-0.543,0.603-0.908,1.155-0.815c0.544,0.094,0.909,0.61,0.815,1.155c-0.016,0.094-1.53,9.07-0.072,14.992
		c4.181-0.179,8.329,0.975,11.694,1.906c1.781,0.493,3.32,0.919,4.463,1.035c3.617,0.376,9.715,0.954,9.716,0.955L52.806,194.694z"
		/>
</g>
<g>
	<path fill="#010101" d="M68.654,170.809c-3.795,0-14.357-7.635-15.549-8.505c-0.446-0.326-0.543-0.951-0.218-1.397
		c0.325-0.444,0.951-0.544,1.397-0.218c4.299,3.14,12.001,8.12,14.369,8.12c3.721,0,13.173-4.981,17.324-7.364
		c-0.687-2.043-1.469-4.199-1.956-5.32c-3.47,2.255-12.868,7.209-13.311,7.442c-0.376,0.197-0.837,0.137-1.149-0.154
		c-5.254-4.917-15.623-14.532-17.255-15.735c-1.083-0.796-2.855-1.159-2.873-1.163c-0.206-0.041-0.389-0.146-0.527-0.291
		c-1.536,1.612-4.596,2.26-4.997,2.339c-0.54,0.105-1.067-0.246-1.174-0.787c-0.107-0.542,0.245-1.067,0.786-1.176
		c1.498-0.297,3.794-1.159,4.21-2.143c0.047-0.111,0.172-0.408-0.198-0.98c-0.226-0.348-0.213-0.798,0.03-1.132
		c0.243-0.336,0.666-0.488,1.068-0.378l3.84,1.031c0.386,0.104,0.674,0.428,0.73,0.824s-0.129,0.788-0.471,0.996l-0.71,0.432
		c0.502,0.216,1.02,0.485,1.471,0.817c1.935,1.426,14.181,12.844,16.915,15.398c3.696-1.958,11.739-6.308,13.298-7.558
		c0.247-0.197,0.573-0.267,0.878-0.188c0.567,0.147,1.058,0.275,3.55,7.87c0.146,0.446-0.038,0.936-0.443,1.174
		C87.132,163.092,73.949,170.809,68.654,170.809z"/>
</g>
<g>
	<path fill="#010101" d="M53.181,175.873c-0.065,0-0.131-0.006-0.197-0.02c-0.542-0.108-0.893-0.636-0.784-1.177
		c0.763-3.801-0.275-14.678-0.286-14.787c-0.054-0.55,0.35-1.039,0.898-1.092c0.562-0.045,1.039,0.35,1.092,0.898
		c0.045,0.459,1.077,11.284,0.257,15.373C54.064,175.545,53.647,175.873,53.181,175.873z"/>
</g>
<g>
	<path fill="#010101" d="M35.394,272.728c-0.209,0-0.421-0.065-0.601-0.201c-0.441-0.332-0.529-0.959-0.197-1.4
		c0.098-0.129,0.062-0.698,0.04-1.038c-0.053-0.834-0.119-1.87,0.559-2.729c-0.145-0.163-0.466-0.408-0.672-0.565
		c-0.699-0.532-2.001-1.523-1.26-2.91c0.741-1.39,1.135-2.235,0.605-3.449c-0.916-2.096,1.044-24.076,2.76-30.945
		c0.616-2.462,1.267-6.245,1.955-10.251c1.627-9.473,2.812-15.811,4.399-17.525c0.375-0.408,1.008-0.431,1.413-0.056
		c0.406,0.375,0.431,1.008,0.056,1.413c-1.304,1.408-2.803,10.135-3.897,16.507c-0.694,4.044-1.351,7.863-1.986,10.397
		c-1.754,7.022-3.43,27.805-2.854,29.691c0.897,2.057,0.127,3.629-0.609,5.014c0.145,0.154,0.438,0.378,0.629,0.523
		c0.652,0.496,1.392,1.059,1.498,1.957c0.04,0.345-0.006,0.873-0.46,1.43c-0.211,0.258-0.175,0.824-0.14,1.373
		c0.049,0.771,0.104,1.647-0.438,2.367C35.997,272.59,35.697,272.728,35.394,272.728z"/>
</g>
<g>
	<path fill="#010101" d="M25.679,273.477c-0.032,0-0.065-0.002-0.099-0.005c-0.471-0.046-1.146-0.169-1.556-0.708
		c-0.421-0.55-0.312-1.188-0.275-1.398c0.018-0.102,0.018-0.102-0.064-0.286c-0.369-0.819-0.644-1.805,0.02-4.754
		c-0.781-3.215-1.231-16.312,0.028-22.938c1.238-6.522,1.071-20.604,0.915-25.023c-1.719-20.279,0.666-28.46,0.769-28.799
		c0.16-0.527,0.719-0.823,1.244-0.667c0.528,0.159,0.828,0.716,0.671,1.245c-0.024,0.08-2.37,8.238-0.688,28.102
		c0.161,4.525,0.327,18.813-0.945,25.516c-1.294,6.805-0.684,20.083-0.009,22.246c0.054,0.17,0.061,0.352,0.02,0.525
		c-0.642,2.745-0.365,3.359-0.2,3.728c0.126,0.279,0.293,0.65,0.242,1.219c0.008,0.001,0.017,0.002,0.025,0.003
		c0.549,0.054,0.951,0.543,0.897,1.093C26.622,273.091,26.188,273.477,25.679,273.477z"/>
</g>
<g>
	<path fill="#010101" d="M47.717,270.383c-1.341,0-1.613-1.495-1.854-2.813c-0.113-0.619-0.302-1.655-0.539-1.89
		c-1.336-1.335-1.546-4.254,0.286-6.311c0.638-1.013,0.34-7.144-0.906-18.196l-0.167-1.498c-0.477-4.413-3.646-30.686-3.679-30.95
		c-0.065-0.549,0.325-1.047,0.873-1.113c0.555-0.066,1.047,0.324,1.113,0.873c0.031,0.266,3.203,26.55,3.681,30.975l0.166,1.489
		c1.492,13.244,1.601,18.412,0.414,19.75c-1.076,1.208-0.967,2.967-0.369,3.564c0.68,0.675,0.891,1.83,1.095,2.947
		c0.065,0.361,0.157,0.863,0.25,1.163c2.249-0.103,8.658-1.022,9.589-1.971c0.059-1.2,0.862-1.924,1.4-2.408
		c0.019-0.018,0.038-0.035,0.059-0.054c-0.014-0.008-0.027-0.016-0.042-0.024c-2.78-1.62-3.029-6.093-2.907-10.254
		c0.238-8.004-0.179-21.486-0.651-24.941c-0.086-0.632-0.266-2.924-0.539-6.395c-0.619-7.884-2.069-26.347-2.983-28.181
		c-0.247-0.494-0.046-1.095,0.448-1.341c0.498-0.249,1.096-0.045,1.341,0.448c0.906,1.817,1.892,12.411,3.188,28.917
		c0.251,3.188,0.448,5.705,0.527,6.279c0.481,3.523,0.908,17.188,0.669,25.271c-0.1,3.365,0.028,7.368,1.914,8.467
		c0.503,0.293,1.183,0.773,1.263,1.554c0.084,0.81-0.488,1.324-0.947,1.738c-0.463,0.417-0.743,0.696-0.743,1.065
		C59.666,269.915,47.836,270.383,47.717,270.383z"/>
</g>
<g>
	<path fill="#010101" d="M28.553,280.475L28.553,280.475c-2.482,0-3.898-0.377-4.591-1.221c-1.607-1.969-0.392-4.543,0.653-5.856
		c0.765-1.753,3.609-2.669,6.115-2.669c1.477,0,2.888,0.304,4.082,0.878c2.043,0.985,3.259,2.27,3.613,3.818
		c0.474,2.068-0.835,3.746-0.891,3.816c-0.15,0.189-0.364,0.317-0.602,0.361C36.74,279.638,32.163,280.475,28.553,280.475z
		 M30.73,272.729c-2.487,0-4.118,0.978-4.295,1.501c-0.04,0.118-0.102,0.228-0.182,0.323c-0.017,0.02-1.763,2.188-0.745,3.434
		c0.002,0.003,0.431,0.488,3.044,0.488c2.814,0,6.388-0.562,7.597-0.766c0.209-0.38,0.504-1.092,0.323-1.854
		c-0.219-0.92-1.068-1.743-2.528-2.447C33.021,272.964,31.908,272.729,30.73,272.729z"/>
</g>
<g>
	<path fill="#010101" d="M48.772,276.495c-0.28,0-0.593-0.137-0.783-0.339c-0.295-0.312-0.698-0.741-0.219-6.852
		c0.043-0.552,0.537-0.96,1.075-0.919c0.551,0.043,0.962,0.524,0.919,1.075c-0.142,1.805-0.239,3.924-0.206,4.993
		c2.491-0.132,10.13-0.549,15.415-0.838c-1.346-1.779-4.162-4.659-8.281-4.659c-0.019,0-0.036,0.001-0.054,0
		c-0.55,0-0.997-0.444-1-0.994c-0.003-0.553,0.442-1.003,0.994-1.006c0.021,0,0.041,0,0.062,0c7.151,0,10.807,6.808,10.959,7.098
		c0.158,0.302,0.152,0.663-0.017,0.959c-0.168,0.296-0.475,0.485-0.814,0.504c-0.716,0.04-17.532,0.961-18.022,0.977
		C48.791,276.495,48.781,276.495,48.772,276.495z"/>
</g>
<g>
	<path fill="#010101" d="M62.146,188.022c-1.29,0-3.414-0.797-6.908-3.323c-0.447-0.324-0.548-0.949-0.225-1.396
		c0.322-0.448,0.949-0.549,1.396-0.225c2.327,1.682,5.021,3.063,5.764,2.973c1.036-1.266,3.422-4.782,3.021-7.123
		c-0.113-0.659-0.44-1.149-1.024-1.531c-0.331-0.064-0.537-0.038-0.831-0.001c-0.522,0.067-1.173,0.153-2.337-0.241
		c-0.153-0.052-0.614-0.256-0.711-0.866c-0.084-0.009-0.196-0.016-0.342-0.016c-0.137,0.041-0.45,0.442-0.584,0.614
		c-0.256,0.327-0.497,0.637-0.919,0.745c-0.532,0.139-1.079-0.185-1.218-0.72c-0.11-0.431,0.076-0.867,0.433-1.094
		c0.038-0.045,0.08-0.102,0.128-0.162c0.403-0.518,1.079-1.384,2.16-1.384c0.573,0,1.396,0.062,1.912,0.598
		c0.17,0.176,0.271,0.364,0.331,0.54c0.362,0.068,0.598,0.04,0.891,0.002c0.413-0.054,0.932-0.12,1.716,0.077
		c0.093,0.023,0.183,0.061,0.266,0.109c1.156,0.685,1.883,1.719,2.102,2.991c0.648,3.782-3.354,8.619-3.524,8.823
		C63.351,187.761,62.885,188.022,62.146,188.022z"/>
</g>
<g>
	<path fill="#010101" d="M37.824,137.268L37.824,137.268c-0.305,0-0.619-0.062-0.936-0.185c-0.249-0.098-0.562-0.197-0.916-0.312
		c-1.551-0.499-3.895-1.253-4.926-2.905c-0.234-0.375-0.515-0.787-0.812-1.223c-1.372-2.018-2.928-4.304-2.478-6.271
		c0.078-0.346,0.165-0.676,0.25-0.999c0.381-1.443,0.656-2.485-0.024-4.241c-1.001-2.583,0.945-5.306,1.777-6.468
		c0.098-0.137,0.174-0.24,0.214-0.308l0.055-0.126c1.651-3.699,4.398-8.109,8.105-8.109l0.309,0.003c0.839,0,1.656-0.09,2.604-0.194
		c1.142-0.127,2.436-0.27,4.021-0.27c2.396,0,4.985,0.338,7.913,1.032c3.647,0.865,5.657,2.127,6.144,3.856
		c0.382,1.358-0.363,2.561-0.863,3.057c-0.224,0.223-0.54,0.32-0.851,0.279c-0.015-0.002-1.415-0.206-3.143-0.206
		c-1.008,0-1.925,0.068-2.725,0.203c-2.342,0.389-4.047,3.289-4.343,5.869c-0.055,0.481-0.14,1.329-0.088,1.588
		c0.083,0.415,0.033,0.562-0.29,1.515c-0.667,1.957-1.802,1.979-3.682,2.015c-0.56,0.011-1.248,0.023-2.105,0.077
		c-0.525,0.032-0.726,0.238-0.842,0.414c-0.634,0.963-0.164,3.495,0.372,4.984c0.268,0.945,0.325,4.33-0.912,5.96
		C39.049,137.101,38.325,137.268,37.824,137.268z M38.187,108.122c-2.079,0-4.366,2.523-6.331,6.923l-0.101,0.222
		c-0.055,0.108-0.183,0.302-0.367,0.561c-0.644,0.899-2.15,3.006-1.539,4.582c0.915,2.36,0.497,3.943,0.093,5.475
		c-0.079,0.301-0.16,0.608-0.233,0.933c-0.257,1.119,1.152,3.19,2.182,4.702c0.312,0.46,0.607,0.895,0.854,1.29
		c0.644,1.03,2.568,1.649,3.843,2.06c0.399,0.129,0.754,0.243,1.028,0.352c0.102,0.039,0.171,0.048,0.21,0.048
		c-0.003-0.003,0.101,0.004,0.235-0.173c0.693-0.912,0.765-3.561,0.603-4.142c-0.145-0.393-1.572-4.514-0.141-6.691
		c0.365-0.555,1.076-1.232,2.391-1.312c0.891-0.056,1.607-0.069,2.19-0.081c1.612-0.03,1.612-0.03,1.826-0.658
		c0.104-0.305,0.166-0.484,0.201-0.599c-0.049-0.316-0.063-0.806,0.084-2.089c0.375-3.27,2.604-7.049,5.999-7.613
		c0.907-0.153,1.936-0.23,3.055-0.23c1.182,0,2.209,0.086,2.825,0.152c0.104-0.204,0.184-0.476,0.103-0.751
		c-0.127-0.431-0.836-1.53-4.677-2.442c-2.774-0.658-5.212-0.978-7.451-0.978c-1.475,0-2.657,0.131-3.801,0.257
		c-0.964,0.106-1.874,0.207-2.823,0.207L38.187,108.122L38.187,108.122z"/>
</g>
<g>
	<path fill="#010101" d="M37.249,141.318c-0.12,0-0.242-0.021-0.36-0.067c-0.515-0.198-0.771-0.776-0.573-1.291
		c0.279-0.729,0.679-2.475,0.13-3.213c-0.329-0.443-0.237-1.07,0.206-1.399c0.444-0.329,1.069-0.236,1.399,0.206
		c1.353,1.82,0.259,4.794,0.13,5.127C38.026,141.077,37.649,141.318,37.249,141.318z"/>
</g>
<g>
	<path fill="#010101" d="M48.53,144.963c-0.495,0-0.925-0.367-0.99-0.87c-0.014-0.102-0.322-2.518-0.069-5.255
		c0.046-0.497,0.451-0.884,0.949-0.907c0.019-0.001,2.29-0.146,6.023-1.892c6.713-9.32,0.607-22.75,0.544-22.886
		c-0.232-0.501-0.015-1.096,0.485-1.328s1.096-0.018,1.328,0.484c0.28,0.601,6.766,14.831-0.899,25.123
		c-0.097,0.13-0.225,0.234-0.371,0.305c-2.872,1.372-5.003,1.887-6.125,2.079c-0.117,2.182,0.115,3.997,0.117,4.017
		c0.072,0.548-0.313,1.05-0.861,1.121C48.617,144.96,48.573,144.963,48.53,144.963z"/>
</g>
<g>
	<path fill="#010101" d="M52.901,194.699c-0.049,0-0.1-0.004-0.149-0.011c-0.547-0.083-0.923-0.592-0.841-1.138
		c0.564-3.748,0.783-8.798,0.785-8.848c0.023-0.553,0.54-0.98,1.041-0.957c0.552,0.023,0.98,0.489,0.957,1.041
		c-0.009,0.211-0.226,5.208-0.805,9.061C53.814,194.344,53.388,194.699,52.901,194.699z"/>
</g>
<g>
	<path fill="#010101" d="M87.185,162.061c-0.265,0-0.528-0.104-0.725-0.311c-0.381-0.4-0.365-1.033,0.034-1.414
		c0.062-0.059,6.172-5.966,3.413-10.214c-0.301-0.464-0.169-1.083,0.294-1.384c0.465-0.301,1.083-0.169,1.384,0.294
		c3.662,5.641-3.41,12.466-3.713,12.753C87.679,161.969,87.432,162.061,87.185,162.061z"/>
</g>
<g>
	<path fill="#010101" d="M102.855,90.985c0,0-0.646-13.599-5.211-21.254c2.691-1.954,13.908-6.594,21.564-4.972
		c-1.709,11.159-4.121,22.863-4.977,25.834c-3.307-0.667-8.617-0.568-11.365,0.585"/>
</g>
<g>
	<path fill="#F5952F" d="M102.307,102.197c0,0-0.922-0.93-0.203-1.042c0.719-0.108,0.49-0.247,0.305-0.611
		c-0.184-0.364-0.539-0.626,0.094-0.996c0.625-0.363,0.678-0.471,0.092-1.015c-0.725-0.863-0.586-1.042-0.172-1.263
		c0.342-0.227,0.568-0.697,0.172-1.108c-0.398-0.416-0.369-0.939-0.172-0.996c0.188-0.062,0.902-0.302,0.488-0.99
		c-0.408-0.687-1.266-2.247-0.146-2.945c1.113-0.696,6.15-1.82,11.881-0.554c0.594,0.112,0.838,1.304,0.457,1.433
		c-0.381,0.143-0.424,0.128-0.26,0.444c0.166,0.324,1.006,1.534,0.154,1.745c-0.461,0.14-0.678,0.401-0.385,0.533
		c0.289,0.139,0.66,0.38,0.506,0.883c-0.152,0.515,0,1.104,0.322,1.79c0.314,0.689,0.457,1.083,0,1.392
		c-0.459,0.299-0.186,0.734-0.049,0.867c0.139,0.133,0.566,0.719-0.029,1.401c-0.596,0.693-0.641,1.088-0.18,1.169
		c0.455,0.073,1.02,0.313-0.201,0.883C113.701,103.452,104.344,103.063,102.307,102.197"/>
</g>
<g>
	<path fill="#010101" d="M124.797,103.926c0,0-8.824,2.288-31.213-1.873c-1.131-0.334-0.918-0.667-0.186-0.703
		c3.207,0,7.85,0.405,9.379,1.011c1.221,0.395,10.018,0.888,12.25,0.856c1.166-0.06,4.273-0.368,5.041-0.522
		C120.83,102.545,123.672,102.119,124.797,103.926z"/>
</g>
<g>
	<path fill="#010101" d="M65.449,178.307c2.945-3.105,14.381-13.24,19.564-19.37c6.395-7.432,12.471-22.09,13.312-21.613
		c0.84,0.487,0.326,2.458-0.777,7.221c-1.035,4.001-4.73,20.159-4.668,24.927c0.062,4.761,3.541,95.736,2.566,97.855
		c-0.977,2.118-11.975,7.075-12.463,8.866c-0.49,1.796,13.971-1.205,13.971-1.205s14.291,1.754,16.492,1.041
		c0.855-0.268,0.328-0.719-0.492-1.006c-0.812-0.276-10.871-6.064-11.48-7.609c-0.609-1.55-0.816-31.28-0.486-36.328
		c0.322-5.055,0.322-26.431,0.811-27.652c0.979,1.104,2.93,2.873,3.602,2.381c0.672-0.486-0.305-2.505-0.852-4.032
		c-0.551-1.524-2.176-9.411-1.932-11.669c2.623,4.945,8.285,13.253,11.828,13.987c0.979,0.062,0.363-1.467,0-2.252
		c-1.713-3.484-7.211-13.741-7.881-16.096c-0.672-2.356-0.551-3.64-0.367-3.823c0.18-0.18,3.277,2.174,6.709,1.077
		c1.271-0.262,1.047-3.032,1.232-9.148c-0.912-0.379-4.623-1.026-4.986,1.272c-0.145,0.462,0.385,0.77,0.506,0.682
		c0.283-0.132,0.227-0.255,0.449-0.379c0.225-0.118,0.898-0.447,2.016,0.37c0.119,1.056-0.268,4.247-0.51,4.541
		c-0.24,0.276-3.785-0.087-3.746-0.858c0.408-5.992-0.41-8.778,1.828-8.717c1.002-0.836,2.732-1.913,3.838-2.586
		c11.438-6.938,25.777-14.927,27.854-16.573c0.693-0.652,1.227-1.509,0.551-3.274c-0.754-1.267-0.895-1.775-1.668-2.35
		c-2.045-1.688-24.012-13.824-24.238-15.681c-0.184-1.441,1.732-0.909,3.133-0.811c-0.602-1.303-2.07-2.853-2.871-3.685
		c-0.791-0.831-3.09-5.901-3.191-6.804c-0.369,3.278-0.719,5.921-1.586,7.942c-0.879,2.012-8.311,18.528-9.225,20.083
		c0,0,2.689-10.066,3.094-11.816c0.4-1.75,1.342-5.947-0.492-9.523c-0.895-2.201-1.664-4.89-1.664-4.89
		c0.281,1.99,0.625,5.412,0.445,6.023c-0.184,0.616-0.514,1.041-1.717,1.128c-1.697,0.31-2.383,0.495-3.668,0.931
		c-2.635,0.883-15.061,24.013-16.18,26.182l-17.555,21.394 M134.438,151.361c-1.807,0.591-8.246,4.501-10.318,5.892
		c-1.893,1.201-18.494,12.604-18.494,12.604s-0.02,0.711-0.139,1.624c-0.102-0.67-0.527-1.893-1.307-3.339
		c-0.771-1.448-1.889-1.848-1.689-3.73c1.1-10.098,12.809-24.209,12.809-24.209c3.441,1.693,18.287,8.492,20.652,9.145
		C137.496,149.956,136.248,150.777,134.438,151.361z"/>
</g>
<g>
	<path fill="#010101" d="M62.992,176.716c0,0-2.242,4.063-2.828,3.432c-0.584-0.635,0.688-3.336,1.262-4.484
		C61.998,174.509,63.525,174.797,62.992,176.716z"/>
</g>
<g>
	<path fill="#010101" d="M56.938,183.816c0,0,1.855-2.319,2.287-2.212c0.434,0.108,0.516,0.59,0.516,0.59s0.752-0.79,1.035-0.224
		c0.283,0.563,0.885-0.581,1.113,0.301c0.232,0.878-0.443,3.265-1.066,4.762c-0.627,1.51-1.535,0.602-1.777,0.287
		c-0.236-0.307-1.42,0.323-1.641-0.426c-0.221-0.753-1.555-0.585-1.492-1.159C55.971,185.155,56.588,184.31,56.938,183.816z"/>
</g>
<g>
	<path fill="#FFFFFF" d="M58.148,95.109c0,0,5.957-16.061,0-22.837c-14.598-0.687-76.924-8.859-47.691-44.634
		c36.49-44.66,122.43-16.953,112.15,17.913c-6.35,21.518-51.275,24.771-51.275,24.771S73.594,83.714,58.148,95.109z"/>
	<path fill="#F5952F" d="M58.148,96.109c-0.212,0-0.423-0.067-0.602-0.201c-0.353-0.266-0.489-0.732-0.336-1.146
		c0.057-0.152,5.497-15.078,0.448-21.513c-2.768-0.155-15.115-1.026-28.108-4.747c-14.278-4.088-23.17-9.865-26.426-17.17
		c-3.12-6.998-0.913-15.182,6.558-24.325C22.076,11.838,41.349,3.484,63.95,3.484c22.873,0,45.658,9.107,55.408,22.146
		c4.77,6.379,6.225,13.365,4.208,20.205c-2.735,9.272-12.392,16.381-28.698,21.132c-9.903,2.885-19.38,3.969-22.439,4.263
		c0.211,3.5-0.278,14.792-13.687,24.685C58.565,96.044,58.357,96.109,58.148,96.109z M63.95,5.484
		c-21.99,0-40.712,8.093-52.719,22.788c-6.954,8.51-9.066,15.994-6.28,22.245c6.818,15.294,40.746,20.169,53.244,20.757
		c0.271,0.013,0.525,0.135,0.704,0.339c4.657,5.297,2.647,15.479,1.195,20.664c12.006-10.4,10.271-21.667,10.251-21.787
		c-0.047-0.278,0.025-0.562,0.2-0.784c0.174-0.221,0.433-0.359,0.714-0.38c0.442-0.032,44.308-3.45,50.389-24.056
		c1.831-6.21,0.485-12.587-3.893-18.441C108.359,14.261,86.233,5.484,63.95,5.484z"/>
</g>
<g>
	<path fill="#F5952F" d="M13.771,34.929h2.1l3.286,11.886h0.042l3.497-11.886h2.31l3.496,11.886h0.042l3.287-11.886h2.1
		l-4.325,14.868h-2.143l-3.591-12.138H23.83l-3.57,12.138h-2.142L13.771,34.929z"/>
	<path fill="#F5952F" d="M35.821,45.513c0,0.435,0.094,0.83,0.283,1.187c0.188,0.357,0.438,0.662,0.745,0.914
		s0.665,0.448,1.071,0.588s0.826,0.21,1.26,0.21c0.588,0,1.099-0.137,1.533-0.41c0.434-0.272,0.833-0.633,1.197-1.081l1.428,1.092
		c-1.05,1.358-2.521,2.037-4.41,2.037c-0.784,0-1.494-0.133-2.132-0.399c-0.637-0.266-1.176-0.633-1.616-1.102
		c-0.441-0.47-0.781-1.022-1.019-1.659c-0.238-0.637-0.357-1.326-0.357-2.068s0.13-1.432,0.389-2.069
		c0.259-0.637,0.616-1.189,1.071-1.658c0.454-0.47,0.997-0.837,1.627-1.103c0.63-0.267,1.316-0.399,2.059-0.399
		c0.882,0,1.627,0.154,2.236,0.462c0.608,0.309,1.109,0.711,1.501,1.208c0.393,0.497,0.676,1.057,0.851,1.68s0.263,1.257,0.263,1.9
		v0.672H35.821z M41.785,44.001c-0.015-0.42-0.081-0.805-0.2-1.155c-0.119-0.35-0.297-0.654-0.535-0.913s-0.535-0.462-0.893-0.609
		c-0.356-0.146-0.773-0.221-1.249-0.221c-0.462,0-0.886,0.088-1.271,0.263c-0.386,0.176-0.711,0.402-0.977,0.683
		c-0.267,0.28-0.473,0.592-0.62,0.935c-0.146,0.343-0.22,0.683-0.22,1.019H41.785z"/>
	<path fill="#F5952F" d="M46.216,33.921h1.89v15.876h-1.89V33.921z"/>
	<path fill="#F5952F" d="M51.256,33.921h1.89v15.876h-1.89V33.921z"/>
	<path fill="#F5952F" d="M71.962,49.797h-1.891v-1.428h-0.042c-0.364,0.532-0.864,0.944-1.501,1.238
		c-0.638,0.295-1.292,0.441-1.964,0.441c-0.77,0-1.467-0.133-2.09-0.399c-0.623-0.266-1.154-0.637-1.596-1.112
		c-0.44-0.476-0.78-1.029-1.019-1.659s-0.356-1.315-0.356-2.058s0.118-1.432,0.356-2.069c0.238-0.637,0.578-1.189,1.019-1.658
		c0.441-0.47,0.973-0.837,1.596-1.103c0.623-0.267,1.32-0.399,2.09-0.399c0.714,0,1.386,0.15,2.017,0.451
		c0.63,0.302,1.112,0.711,1.448,1.229h0.042v-7.35h1.891V49.797z M66.796,48.285c0.504,0,0.958-0.088,1.364-0.263
		s0.749-0.413,1.029-0.714s0.497-0.665,0.651-1.092c0.153-0.428,0.23-0.893,0.23-1.396c0-0.505-0.077-0.97-0.23-1.396
		c-0.154-0.428-0.371-0.791-0.651-1.093c-0.28-0.301-0.623-0.538-1.029-0.714c-0.406-0.175-0.86-0.263-1.364-0.263
		s-0.959,0.088-1.365,0.263c-0.406,0.176-0.749,0.413-1.029,0.714c-0.28,0.302-0.497,0.665-0.65,1.093
		c-0.154,0.427-0.231,0.892-0.231,1.396c0,0.504,0.077,0.969,0.231,1.396c0.153,0.427,0.37,0.791,0.65,1.092
		s0.623,0.539,1.029,0.714S66.292,48.285,66.796,48.285z"/>
	<path fill="#F5952F" d="M74.335,44.82c0-0.729,0.136-1.407,0.409-2.037s0.647-1.184,1.123-1.659
		c0.477-0.476,1.036-0.851,1.681-1.124c0.644-0.272,1.337-0.409,2.079-0.409c0.741,0,1.435,0.137,2.079,0.409
		c0.644,0.273,1.203,0.648,1.68,1.124c0.476,0.476,0.851,1.029,1.123,1.659c0.273,0.63,0.41,1.309,0.41,2.037
		c0,0.728-0.137,1.41-0.41,2.047c-0.272,0.638-0.647,1.19-1.123,1.659c-0.477,0.469-1.036,0.84-1.68,1.113
		c-0.645,0.272-1.338,0.409-2.079,0.409c-0.742,0-1.436-0.137-2.079-0.409c-0.645-0.273-1.204-0.645-1.681-1.113
		c-0.476-0.469-0.85-1.021-1.123-1.659C74.471,46.23,74.335,45.548,74.335,44.82z M76.351,44.82c0,0.504,0.077,0.969,0.231,1.396
		c0.153,0.427,0.37,0.791,0.65,1.092s0.623,0.539,1.029,0.714s0.861,0.263,1.365,0.263s0.958-0.088,1.364-0.263
		s0.749-0.413,1.029-0.714s0.497-0.665,0.651-1.092c0.153-0.428,0.23-0.893,0.23-1.396c0-0.505-0.077-0.97-0.23-1.396
		c-0.154-0.428-0.371-0.791-0.651-1.093c-0.28-0.301-0.623-0.538-1.029-0.714c-0.406-0.175-0.86-0.263-1.364-0.263
		s-0.959,0.088-1.365,0.263c-0.406,0.176-0.749,0.413-1.029,0.714c-0.28,0.302-0.497,0.665-0.65,1.093
		C76.428,43.851,76.351,44.315,76.351,44.82z"/>
	<path fill="#F5952F" d="M87.291,39.843h1.891v1.533h0.042c0.237-0.532,0.65-0.963,1.238-1.292c0.588-0.328,1.268-0.493,2.037-0.493
		c0.476,0,0.935,0.073,1.376,0.221c0.44,0.146,0.825,0.375,1.154,0.683s0.592,0.703,0.788,1.187
		c0.195,0.482,0.294,1.054,0.294,1.711v6.405h-1.89v-5.88c0-0.462-0.063-0.857-0.189-1.187s-0.294-0.595-0.504-0.798
		s-0.451-0.35-0.725-0.441c-0.272-0.091-0.557-0.137-0.851-0.137c-0.392,0-0.756,0.063-1.092,0.189s-0.63,0.325-0.882,0.599
		c-0.252,0.272-0.448,0.619-0.588,1.039c-0.141,0.42-0.21,0.917-0.21,1.491v5.124h-1.891V39.843z"/>
	<path fill="#F5952F" d="M100.396,45.513c0,0.435,0.094,0.83,0.283,1.187c0.188,0.357,0.438,0.662,0.745,0.914
		s0.665,0.448,1.071,0.588s0.826,0.21,1.26,0.21c0.588,0,1.099-0.137,1.533-0.41c0.434-0.272,0.833-0.633,1.197-1.081l1.428,1.092
		c-1.05,1.358-2.521,2.037-4.41,2.037c-0.784,0-1.494-0.133-2.132-0.399c-0.637-0.266-1.176-0.633-1.616-1.102
		c-0.441-0.47-0.781-1.022-1.019-1.659c-0.238-0.637-0.357-1.326-0.357-2.068s0.13-1.432,0.389-2.069
		c0.259-0.637,0.616-1.189,1.071-1.658c0.454-0.47,0.997-0.837,1.627-1.103c0.63-0.267,1.316-0.399,2.059-0.399
		c0.882,0,1.627,0.154,2.236,0.462c0.608,0.309,1.109,0.711,1.501,1.208c0.393,0.497,0.676,1.057,0.851,1.68s0.263,1.257,0.263,1.9
		v0.672H100.396z M106.359,44.001c-0.015-0.42-0.081-0.805-0.2-1.155c-0.119-0.35-0.297-0.654-0.535-0.913s-0.535-0.462-0.893-0.609
		c-0.356-0.146-0.773-0.221-1.249-0.221c-0.462,0-0.886,0.088-1.271,0.263c-0.386,0.176-0.711,0.402-0.977,0.683
		c-0.267,0.28-0.473,0.592-0.62,0.935c-0.146,0.343-0.22,0.683-0.22,1.019H106.359z"/>
	<path fill="#F5952F" d="M110.748,48.537c0-0.378,0.137-0.704,0.409-0.977c0.273-0.273,0.599-0.41,0.977-0.41
		s0.703,0.137,0.977,0.41c0.273,0.272,0.409,0.599,0.409,0.977s-0.136,0.703-0.409,0.977c-0.273,0.272-0.599,0.409-0.977,0.409
		s-0.703-0.137-0.977-0.409C110.885,49.24,110.748,48.915,110.748,48.537z M113.1,45.513h-2.016V34.929h2.016V45.513z"/>
</g>
</svg>
