<?xml version="1.0" encoding="utf-8"?>
<!-- Generator: Adobe Illustrator 16.0.0, SVG Export Plug-In . SVG Version: 6.00 Build 0)  -->
<!DOCTYPE svg PUBLIC "-//W3C//DTD SVG 1.1//EN" "http://www.w3.org/Graphics/SVG/1.1/DTD/svg11.dtd">
<svg version="1.1" id="Ebene_2" xmlns="http://www.w3.org/2000/svg" xmlns:xlink="http://www.w3.org/1999/xlink" x="0px" y="0px"
	 width="202.975px" height="268.983px" viewBox="0 -5.017 202.975 268.983" enable-background="new 0 -5.017 202.975 268.983"
	 xml:space="preserve">
<path fill="none" stroke="#F7941E" stroke-width="2" stroke-linecap="round" stroke-linejoin="round" stroke-miterlimit="10" d="
	M89.682,181.291l89.266-168.173c0,0,7.543-13.735,12.402-4.104c0.511,1.292,0.405,1.842,1.349-0.043
	c0.942-1.886,2.357-9.351,1.021-10.058c0,0,4.247,4.06-0.472,12.127c-1.238,2.242-1.741,0.942-2.789-2.41
	c0,0-1.037-7.334-7.505-1.886c-3.326,1.99-6.993,10.163-6.993,10.163L87.402,182.339"/>
<path fill="none" stroke="#F7941E" stroke-width="2" stroke-linecap="round" stroke-linejoin="round" stroke-miterlimit="10" d="
	M180.205,3.077c0,0-6.443,1.571-17.13,21.845C152.388,45.195,82.453,177.52,82.453,177.52"/>
<path fill="none" stroke="#F7941E" stroke-width="2" stroke-linecap="round" stroke-linejoin="round" stroke-miterlimit="10" d="
	M141.702,84.012c0,0,16.501,5.501,16.815,6.326c0.314,0.825-47.304,88.753-47.304,88.753l45.889-88.792l-16.238-5.431"/>
<polyline fill="none" stroke="#F7941E" stroke-width="2" stroke-linecap="round" stroke-linejoin="round" stroke-miterlimit="10" points="
	135.73,94.541 151.131,100.514 137.223,93.442 "/>
<path fill="none" stroke="#F7941E" stroke-width="2" stroke-linecap="round" stroke-linejoin="round" stroke-miterlimit="10" d="
	M154.309,41.528c-13.55-7.177-28.008,19.382-29.579,22.21c-1.572,2.829,0.313,6.916,0.471,9.43
	c0.158,2.515-12.887,24.516-26.717,48.09c-13.83,23.573-22.159,52.804-22.159,52.804s40.706-73.077,47.148-83.763
	c1.729-1.415,4.715,0.628,4.715,0.628s-1.259-2.882-4.296-2.358c-3.039,0.524-48.824,86.54-48.824,86.54s11.42-34.103,16.45-43.557
	c5.029-9.456,34.156-57.545,33.842-61.632c-0.315-4.085-1.049-8.153-0.629-9.001c0.418-0.847,18.404-26.096,29.579-21.487"/>
<path fill="none" stroke="#F7941E" stroke-width="2" stroke-linecap="round" stroke-linejoin="round" stroke-miterlimit="10" d="
	M162.447,44.723c0,0,8.173,4.873,5.973,13.673c-2.201,8.801-9.899,21.059-9.899,21.059"/>
<path fill="none" stroke="#F7941E" stroke-width="2" stroke-linecap="round" stroke-linejoin="round" stroke-miterlimit="10" d="
	M152.493,75.971c0,0,9.482-17.89,8.854-20.089c-0.629-2.201-2.827-2.986-2.827-2.986"/>
<path fill="none" stroke="#F7941E" stroke-width="2" stroke-linecap="round" stroke-linejoin="round" stroke-miterlimit="10" d="
	M148.306,52.896c0,0-3.087,1.414-6.26,6.6c-3.173,5.187-4.588,8.33-2.218,9.447"/>
<path fill="none" stroke="#F7941E" stroke-width="2" stroke-linecap="round" stroke-linejoin="round" stroke-miterlimit="10" d="
	M154.746,87.785l3.773-6.444c0,0,1.099-1.886-2.673-4.086c-3.771-2.2-6.759,0-6.759,0s1.572,2.166-1.729,4.776
	c-2.515,0.096-2.356,0.096-3.929-0.848c0,0,2.468,2.69,4.875,0.848c2.406-1.843,2.092-4.358,2.092-4.358s9.024-0.917,7.254,5.149"/>
<path fill="none" stroke="#F7941E" stroke-width="2" stroke-linecap="round" stroke-linejoin="round" stroke-miterlimit="10" d="
	M97.226,197.95c0,0,8.016,6.915,11.945,5.5c3.928-1.414,5.89-5.936,5.5-7.858c-14.145-8.015-40.862-22.315-42.433-24.044
	c-3.771,1.729-7.986,6.701-6.443,7.543c1.729,0.943,1.189,2.358-0.113,4.558l-9.88,16.634c0,0,9.836,14.432,42.132,23.232
	c5.815-9.324,12.205-20.496,12.205-20.496l-11.948,21.648c0,0-38.525-17.603-41.668-20.535
	c-3.143-2.934,13.224-31.779,13.935-32.584s44.862,22.945,44.862,22.945s-2.016,8.559-7.457,7.857
	C102.419,201.648,97.226,197.95,97.226,197.95"/>
<polyline fill="none" stroke="#F7941E" stroke-width="2" stroke-linecap="round" stroke-linejoin="round" stroke-miterlimit="10" points="
	114.18,193.882 162.605,93.442 112.114,195.1 "/>
<path fill="none" stroke="#F7941E" stroke-width="2" stroke-linecap="round" stroke-linejoin="round" stroke-miterlimit="10" d="
	M95.182,233.624c3.458-0.157,2.986,3.379,2.986,3.379c-0.157,2.436-2.043,4.558-4.4,4.558s-2.907-2.278-2.279-4.636
	C92.118,234.567,95.182,233.624,95.182,233.624c2.043-0.628-0.088-6.614-3.703-6.405c-5.254-0.006-27.099,21.65-27.099,21.65
	s17.704-17,20.219-18.65c0,0,10.315-8.937,12.365-0.732c0.524,2.096-0.407,4.317-0.407,4.317s2.056-0.046,2.398,1.812
	c0.471,2.566-1.257,8.119-6.916,4.662c-3.457-2.618,1.195-6.858,2.358-6.81c1.029,0.043,1.805,0.235,1.805,0.235"/>
<path fill="none" stroke="#F7941E" stroke-width="2" stroke-linecap="round" stroke-linejoin="round" stroke-miterlimit="10" d="
	M91.097,240.991l-28.131,19.821L2.46,231.268c0,0-1.571-4.008,1.101-5.658"/>
<path fill="none" stroke="#F7941E" stroke-width="2" stroke-linecap="round" stroke-linejoin="round" stroke-miterlimit="10" d="
	M91.097,238.654L61.63,253.977l-57.52-28.367c0,0-1.179-5.657,3.222-8.722c7.701,2.436,21.216,8.957,24.988,11.472L7.49,218.065
	c0,0-3.248,2.725-2.514,7.021c4.924,4.715,56.366,30.175,56.366,30.175l25.774-12.993l-25.878,19.697L2.67,233.258
	c0,0-0.767-5.848,1.44-7.648"/>
<path fill="none" stroke="#F7941E" stroke-width="2" stroke-linecap="round" stroke-linejoin="round" stroke-miterlimit="10" d="
	M8.668,216.888c0,0,6.758-5.344,11.001-6.444c7.229,3.536,56.026,27.11,56.026,27.11l-53.747-27.11c0,0-11.444,5.478-11.63,6.444"/>
<path fill="none" stroke="#F7941E" stroke-width="2" stroke-linecap="round" stroke-linejoin="round" stroke-miterlimit="10" d="
	M59.351,208.95c0,0-7.963,5.344-23.81,9.115c0,0,23.285-4.714,27.209-10.984"/>
<path fill="none" stroke="#F7941E" stroke-width="2" stroke-linecap="round" stroke-linejoin="round" stroke-miterlimit="10" d="
	M170.776,28.929c2.358-1.1,7.785-4.899,9.43-6.015c1.312-0.89,4.322-4.561,1.729-4.445c-1.894,0.085-7.688,3.506-7.688,3.506
	s6.114-4.44,8.709-4.283c2.594,0.157,0.025,4.205-3.274,6.719l-10.067,6.292"/>
<path fill="none" stroke="#F7941E" stroke-width="2" stroke-linecap="round" stroke-linejoin="round" stroke-miterlimit="10" d="
	M180.677,22.8c0,0,1.021,0-0.472,4.165c-1.032,2.878-11.473,21.767-12.729,23.26c0,0,15.079-23.036,14.982-28.496"/>
<line fill="none" stroke="#F7941E" stroke-width="2" stroke-linecap="round" stroke-linejoin="round" stroke-miterlimit="10" x1="183.165" y1="160.756" x2="183.757" y2="159.164"/>
<line fill="none" stroke="#F7941E" stroke-width="2" stroke-linecap="round" stroke-linejoin="round" stroke-miterlimit="10" x1="185.392" y1="165.89" x2="187.046" y2="166.177"/>
<line fill="none" stroke="#F7941E" stroke-width="2" stroke-linecap="round" stroke-linejoin="round" stroke-miterlimit="10" x1="181.829" y1="167.75" x2="182.013" y2="169.007"/>
<line fill="none" stroke="#F7941E" stroke-width="2" stroke-linecap="round" stroke-linejoin="round" stroke-miterlimit="10" x1="179.21" y1="166.034" x2="177.796" y2="166.672"/>
<line fill="none" stroke="#F7941E" stroke-width="2" stroke-linecap="round" stroke-linejoin="round" stroke-miterlimit="10" x1="178.66" y1="162.302" x2="177.18" y2="161.332"/>
<line fill="none" stroke="#F7941E" stroke-width="2" stroke-linecap="round" stroke-linejoin="round" stroke-miterlimit="10" x1="81.475" y1="91.561" x2="81.929" y2="94.856"/>
<line fill="none" stroke="#F7941E" stroke-width="2" stroke-linecap="round" stroke-linejoin="round" stroke-miterlimit="10" x1="88.84" y1="96.491" x2="85.963" y2="97.527"/>
<line fill="none" stroke="#F7941E" stroke-width="2" stroke-linecap="round" stroke-linejoin="round" stroke-miterlimit="10" x1="86.412" y1="102.916" x2="84.968" y2="101.666"/>
<line fill="none" stroke="#F7941E" stroke-width="2" stroke-linecap="round" stroke-linejoin="round" stroke-miterlimit="10" x1="80.065" y1="103.429" x2="80.987" y2="101.98"/>
<line fill="none" stroke="#F7941E" stroke-width="2" stroke-linecap="round" stroke-linejoin="round" stroke-miterlimit="10" x1="76.324" y1="97.4" x2="79.049" y2="98.314"/>
<line fill="none" stroke="#F7941E" stroke-width="2" stroke-linecap="round" stroke-linejoin="round" stroke-miterlimit="10" x1="194.038" y1="58.988" x2="194.153" y2="60.733"/>
<line fill="none" stroke="#F7941E" stroke-width="2" stroke-linecap="round" stroke-linejoin="round" stroke-miterlimit="10" x1="198.014" y1="63.309" x2="197.042" y2="63.545"/>
<line fill="none" stroke="#F7941E" stroke-width="2" stroke-linecap="round" stroke-linejoin="round" stroke-miterlimit="10" x1="196.333" y1="66.614" x2="196.031" y2="66.161"/>
<line fill="none" stroke="#F7941E" stroke-width="2" stroke-linecap="round" stroke-linejoin="round" stroke-miterlimit="10" x1="192.011" y1="67.354" x2="192.818" y2="66.387"/>
<line fill="none" stroke="#F7941E" stroke-width="2" stroke-linecap="round" stroke-linejoin="round" stroke-miterlimit="10" x1="189.459" y1="62.383" x2="191.462" y2="63.309"/>
<path fill="none" stroke="#F7941E" stroke-width="2" stroke-linecap="round" stroke-linejoin="round" stroke-miterlimit="10" d="
	M163.657,43.309c0,0,6.543,5.238,5.914,10.896c-0.63,5.658-14.407,34.564-14.407,34.564"/>
<path fill="none" stroke="#F7941E" stroke-width="2" stroke-linecap="round" stroke-linejoin="round" stroke-miterlimit="10" d="
	M82.453,177.52l85.756-164.07c0,0,7.639-11.38,17.278-15.466c0,0,4.967-2.643,8.233,0.929"/>
<g>
	<path fill="#F7941E" stroke="#F7941E" stroke-width="2" stroke-miterlimit="10" d="M193.067,114.684c0.81,0,0.81-1.257,0-1.257
		C192.255,113.427,192.255,114.684,193.067,114.684L193.067,114.684z"/>
</g>
<g>
	<path fill="#F7941E" stroke="#F7941E" stroke-width="2" stroke-miterlimit="10" d="M194.369,64.734c0.811,0,0.811-1.257,0-1.257
		C193.558,63.478,193.558,64.734,194.369,64.734L194.369,64.734z"/>
</g>
<g>
	<path fill="#F7941E" stroke="#F7941E" stroke-width="2" stroke-miterlimit="10" d="M82.323,99.833c0.811,0,0.811-1.257,0-1.257
		C81.511,98.576,81.511,99.833,82.323,99.833L82.323,99.833z"/>
</g>
<g>
	<path fill="#F7941E" stroke="#F7941E" stroke-width="2" stroke-miterlimit="10" d="M72.369,134.563c0.81,0,0.81-1.257,0-1.257
		C71.558,133.307,71.558,134.563,72.369,134.563L72.369,134.563z"/>
</g>
<g>
	<path fill="#F7941E" stroke="#F7941E" stroke-width="2" stroke-miterlimit="10" d="M181.515,165.262c0.811,0,0.811-1.258,0-1.258
		S180.704,165.262,181.515,165.262L181.515,165.262z"/>
</g>
<g>
	<path fill="#F7941E" stroke="#F7941E" stroke-width="2" stroke-miterlimit="10" d="M44.421,163.219c0.811,0,0.811-1.258,0-1.258
		C43.611,161.961,43.611,163.219,44.421,163.219L44.421,163.219z"/>
</g>
<g>
	<path fill="#F7941E" stroke="#F7941E" stroke-width="2" stroke-miterlimit="10" d="M49.136,173.538c0.811,0,0.811-1.258,0-1.258
		S48.325,173.538,49.136,173.538L49.136,173.538z"/>
</g>
</svg>
