<?xml version="1.0" encoding="utf-8"?>
<!-- Generator: Adobe Illustrator 16.0.0, SVG Export Plug-In . SVG Version: 6.00 Build 0)  -->
<!DOCTYPE svg PUBLIC "-//W3C//DTD SVG 1.1//EN" "http://www.w3.org/Graphics/SVG/1.1/DTD/svg11.dtd">
<svg version="1.1" id="Ebene_1" xmlns="http://www.w3.org/2000/svg" xmlns:xlink="http://www.w3.org/1999/xlink" x="0px" y="0px"
	 width="145.622px" height="270.938px" viewBox="0 0 145.622 270.938" enable-background="new 0 0 145.622 270.938"
	 xml:space="preserve">
<g>
	<path fill="#EBECEB" d="M22.939,270.564c-20.201,0-20.259-0.081-20.477-0.383c-0.111-0.153-0.122-0.168-0.145-1.959l-1.285-0.001
		c-0.133,0-0.26-0.053-0.354-0.146c-0.094-0.095-0.146-0.222-0.146-0.354L0.893,1c0-0.276,0.224-0.499,0.5-0.5l143.083-0.127l0,0
		c0.134,0,0.262,0.053,0.355,0.148c0.094,0.095,0.146,0.224,0.145,0.357l-0.795,74.496c0.485,191.542,0.326,191.887,0.231,192.093
		c-0.146,0.318-0.158,0.345-2.285,0.399l-0.019,1.709c-0.003,0.273-0.224,0.493-0.497,0.495
		C140.81,270.076,60.939,270.564,22.939,270.564z M3.342,269.438c1.233,0.062,5.875,0.126,19.598,0.126
		c36.434,0,111.363-0.449,118.174-0.49l0.013-1.184c-13.743,0.297-74.453,0.342-109.76,0.342c-0.016,0-0.026,0-0.042,0
		c-13.232,0-23.612-0.006-28.006-0.009C3.327,268.83,3.335,269.206,3.342,269.438z M3.306,267.224
		c4.386,0.003,14.774,0.009,28.018,0.009c0.013,0,0.029,0,0.042,0c35.333,0,96.106-0.045,109.771-0.343l2.044-191.522
		C143.084,37.06,143,7.139,142.988,2.958L3.2,3.388C3.19,15.592,3.017,240.315,3.306,267.224z M1.534,267.222l0.772,0.001
		C2.01,239.625,2.199,5.269,2.201,2.889c0-0.275,0.223-0.499,0.499-0.5l140.786-0.433c0.147,0.032,0.26,0.051,0.354,0.146
		c0.055,0.055,0.096,0.121,0.12,0.193l0.011-0.921L1.893,1.5L1.534,267.222z M143.363,151.988l-1.226,114.877
		c0.686-0.02,1.095-0.037,1.338-0.051C143.558,262.464,143.518,222.54,143.363,151.988z"/>
</g>
</svg>
