<?xml version="1.0" encoding="utf-8"?>
<!-- Generator: Adobe Illustrator 16.0.0, SVG Export Plug-In . SVG Version: 6.00 Build 0)  -->
<!DOCTYPE svg PUBLIC "-//W3C//DTD SVG 1.1//EN" "http://www.w3.org/Graphics/SVG/1.1/DTD/svg11.dtd">
<svg version="1.1" id="Ebene_3" xmlns="http://www.w3.org/2000/svg" xmlns:xlink="http://www.w3.org/1999/xlink" x="0px" y="0px"
	 width="146.75px" height="235.917px" viewBox="0 0 146.75 235.917" enable-background="new 0 0 146.75 235.917"
	 xml:space="preserve">
<g>
	<path fill="#EBECEB" d="M142.847,234.515L142.847,234.515c-1.332-0.004-133.123-0.364-140.312-0.655
		c-0.216-0.009-0.401-0.155-0.46-0.363c-0.39-1.372-0.481-208.47-0.491-232.08c0-0.133,0.053-0.26,0.147-0.354
		c0.094-0.093,0.221-0.146,0.353-0.146c0,0,0.001,0,0.002,0L144.731,1.54c0.275,0.001,0.498,0.225,0.498,0.5l0.155,230.125
		c0,0.133-0.053,0.261-0.147,0.354c-0.094,0.093-0.221,0.146-0.353,0.146c-0.001,0-0.002,0-0.002,0l-1.532-0.007l-0.004,1.359
		C143.346,234.292,143.122,234.515,142.847,234.515z M3.026,232.875c10.646,0.279,130.527,0.615,139.322,0.64l0.002-0.86
		c-18.507-0.08-132.391-0.574-137.941-0.595c-0.11,0-0.218-0.037-0.305-0.105c-0.418-0.325-1.05-0.817-1.237-115.2
		C2.775,60.336,2.852,3.317,2.853,2.748c0-0.276,0.224-0.5,0.5-0.5c0,0,0,0,0,0c0.348,0,35.191,0.021,69.648,0.191
		c70.042,0.345,70.269,0.887,70.49,1.411c0.484,1.15,0.066,159.273-0.138,227.808l1.031,0.005L144.229,2.538L2.583,1.919
		C2.589,13.704,2.681,222.166,3.026,232.875z M4.809,231.061c9.152,0.036,119.355,0.514,137.545,0.593
		c0.244-82.026,0.556-219.808,0.21-227.226c-5.797-0.87-92.428-1.152-138.711-1.18C3.748,79.642,3.818,223.023,4.809,231.061z"/>
</g>
</svg>
