<?xml version="1.0" encoding="utf-8"?>
<!-- Generator: Adobe Illustrator 16.0.0, SVG Export Plug-In . SVG Version: 6.00 Build 0)  -->
<!DOCTYPE svg PUBLIC "-//W3C//DTD SVG 1.1//EN" "http://www.w3.org/Graphics/SVG/1.1/DTD/svg11.dtd">
<svg version="1.1" xmlns="http://www.w3.org/2000/svg" xmlns:xlink="http://www.w3.org/1999/xlink" x="0px" y="0px"
	 width="146.938px" height="180.083px" viewBox="0 0 146.938 180.083" enable-background="new 0 0 146.938 180.083"
	 xml:space="preserve">
<g id="Ebene_2" display="none">
	<g display="inline">
		<path fill="#EBECEB" d="M104.249,178.967c-0.013,0-0.025,0-0.038,0c-102.328,0-102.554-0.327-102.793-0.675
			c-0.074-0.106-0.103-0.239-0.083-0.366C1.543,175.17,0.593,4.527,0.583,2.801c-0.001-0.275,0.219-0.5,0.494-0.503L2.563,2.28
			l0-1.276c0-0.134,0.054-0.262,0.148-0.355c0.095-0.094,0.243-0.142,0.357-0.145l73.704,0.854L145.815,0.5
			c0.135,0.013,0.262,0.05,0.357,0.145s0.148,0.223,0.148,0.357c-0.003,1.054-0.271,105.967-0.799,152.493l0.26,24.946
			c0.001,0.133-0.051,0.262-0.145,0.356s-0.222,0.148-0.354,0.148C145.283,178.946,127.397,178.967,104.249,178.967z M62.372,177.94
			c12.228,0.018,26.202,0.026,41.839,0.026c0.011,0,0.026,0,0.038,0c20.878,0,37.472-0.017,40.528-0.02l-0.02-1.814
			C143.104,176.642,99.749,177.434,62.372,177.94z M2.32,177.567c0.098,0.006,0.212,0.012,0.346,0.019
			C2.507,171.427,2.546,43.836,2.562,3.28L1.586,3.292C1.936,65.905,2.478,168.688,2.32,177.567z M3.652,177.295
			c0.75,0.06,3.027,0.129,9.575,0.129c31.135,0,124.66-1.546,130.846-2.146c0.112-1.179,0.272-6.15,0.45-21.784L142.954,3.125
			L76.773,2.358L3.562,3.268C3.555,22.709,3.5,168.855,3.652,177.295z M118.412,1.841l25.043,0.291
			c0.271,0.003,0.491,0.223,0.494,0.495l0.991,95.114c0.238-43.777,0.365-90.824,0.38-96.233L118.412,1.841z M3.563,1.509l0,0.758
			l31.571-0.392L3.563,1.509z"/>
	</g>
</g>
<g id="Ebene_3">
	<g>
		<path fill="#EBECEB" d="M127.66,179.367c-38.409,0-125.598-0.538-126.474-0.544c-0.133-0.001-0.26-0.055-0.354-0.149
			s-0.145-0.223-0.144-0.355l0.905-97.85C1.312,39.694,1.174,0.929,1.173,0.542c0-0.134,0.052-0.262,0.147-0.356
			c0.094-0.095,0.217-0.132,0.356-0.146L146.122,0.88c0.275,0.001,0.497,0.226,0.497,0.501
			c-0.003,1.673-0.286,167.449-0.286,177.334c0,0.189-0.107,0.362-0.276,0.447C145.864,179.258,145.646,179.367,127.66,179.367z
			 M51.19,178.102c26.522,0.134,57.468,0.266,76.47,0.266c12.181,0,16.458-0.054,17.673-0.108
			c0.007-13.274,0.269-166.391,0.285-176.382L2.175,1.043C2.18,2.467,2.196,6.819,2.224,13.256C2.286,6.777,2.323,3.085,2.333,2.208
			c0.002-0.161,0.081-0.311,0.213-0.403c0.25-0.176,0.628-0.44,24.447-0.44c38.596,0,113.411,0.753,117.723,1.185
			c0.171,0.017,0.32,0.121,0.397,0.274c0.499,0.999-0.03,121.708-0.281,173.56c-0.001,0.273-0.221,0.494-0.493,0.498
			C143.544,176.892,91.728,177.607,51.19,178.102z M1.693,177.826c0.336,0.002,0.835,0.005,1.482,0.009
			c-0.355-1.949-0.719-9.729-1.095-41.855L1.693,177.826z M4.046,177.557c0.332,0.005,0.822,0.007,1.458,0.007
			c16.345,0,129.86-1.56,138.331-1.676c0.278-57.603,0.701-165.087,0.373-172.373c-7.037-0.396-77.75-1.151-117.214-1.151
			C9.48,2.364,4.545,2.516,3.329,2.631C3.282,6.875,3.035,33.04,2.594,80.47C3.134,158.65,3.717,175.229,4.046,177.557z"/>
	</g>
</g>
</svg>
