<?xml version="1.0" encoding="utf-8"?>
<!-- Generator: Adobe Illustrator 16.0.0, SVG Export Plug-In . SVG Version: 6.00 Build 0)  -->
<!DOCTYPE svg PUBLIC "-//W3C//DTD SVG 1.1//EN" "http://www.w3.org/Graphics/SVG/1.1/DTD/svg11.dtd">
<svg version="1.1" id="Ebene_1" xmlns="http://www.w3.org/2000/svg" xmlns:xlink="http://www.w3.org/1999/xlink" x="0px" y="0px"
	 width="146.938px" height="180.083px" viewBox="0 0 146.938 180.083" enable-background="new 0 0 146.938 180.083"
	 xml:space="preserve">
<g>
	<path fill="#EBECEB" d="M3.5,179.214c-0.131,0-0.257-0.052-0.351-0.144C3.054,178.977,3,178.85,3,178.717l-0.009-1.696l-1.49-0.027
		c-0.272-0.005-0.49-0.227-0.491-0.499L0.5,2.049C0.5,1.774,0.721,1.55,0.995,1.547l1.07-0.012L2.062,1.013
		c0-0.134,0.052-0.262,0.147-0.356C2.304,0.561,2.418,0.493,2.567,0.51l53.05,0.447L144.272,0c0.139,0.012,0.263,0.051,0.358,0.145
		c0.095,0.095,0.147,0.223,0.147,0.357l-0.004,1.207l0.562,0.005c0.272,0.002,0.493,0.223,0.496,0.495
		c0.068,6.855,1.658,167.994,0.917,176.346c-0.011,0.126-0.069,0.243-0.164,0.328c-0.19,0.172-0.263,0.236-5.498,0.236
		c-8.209,0-26.148-0.215-53.322-0.639l-84.261,0.733C3.503,179.214,3.501,179.214,3.5,179.214z M3.991,177.039l0.006,1.171
		l44.094-0.384C27.176,177.466,9.571,177.143,3.991,177.039z M133.542,178.082c3.067,0.024,5.585,0.037,7.546,0.037
		c2.963,0,4.188-0.029,4.693-0.056c0.649-11.86-0.846-165.425-0.943-175.354l-0.067,0l-0.632,174.787
		c-0.001,0.273-0.222,0.496-0.496,0.498L133.542,178.082z M3.986,176.039c8.909,0.165,48.872,0.897,83.783,1.441l55.372-0.482
		l0.63-174.297L55.617,1.958L3.07,2.525L3.986,176.039z M2.009,176.002l0.977,0.019L2.07,2.536L1.502,2.542L2.009,176.002z
		 M107.622,1.396l36.152,0.305l0.002-0.695L107.622,1.396z"/>
</g>
</svg>
