<?xml version="1.0" encoding="utf-8"?>
<!-- Generator: Adobe Illustrator 16.0.0, SVG Export Plug-In . SVG Version: 6.00 Build 0)  -->
<!DOCTYPE svg PUBLIC "-//W3C//DTD SVG 1.1//EN" "http://www.w3.org/Graphics/SVG/1.1/DTD/svg11.dtd">
<svg version="1.1" xmlns="http://www.w3.org/2000/svg" xmlns:xlink="http://www.w3.org/1999/xlink" x="0px" y="0px" width="1082px"
	 height="801.842px" viewBox="0 0 1082 801.842" enable-background="new 0 0 1082 801.842" xml:space="preserve">
<g id="Ebene_6">
	<path fill="#F7941E" d="M336.167,283.333C309,296,289.333,300.167,289.333,300.167s-2.833,0.667-4.038,0
		c-2.372-0.833-2.628-2-0.962-3.333s0.833-1.333,0-2.167s-4-1.5-2.333-4.167s0.667-3.833-1.5-4.667s-3.333-0.833-2-3.833
		s-0.833-4-2.667-5.333s-0.667-2.333,0.333-3.333s0.167-2.167-4.333-6.5S270.667,258,270.667,258s13.333-14.333,42-20.667
		c4.333,0.5,5.833,2.167,5.667,4.167s-1.667,2.333-1,3s6.167,3.167,3.833,5.5s-2.333,2.5-1,3s4.203-0.556,4.333,3.333
		c0.167,5,5.333,6.667,5.833,8.167s-0.833,3.833,0,5.333s4.088,0.736,3,5c-1.11,4.35-1.668,5.884,1.667,5.446
		C336.788,280.044,338.5,281.279,336.167,283.333z"/>
</g>
<g id="Ebene_7">
	<path d="M250.333,314c0,0-2,1.5,17.667-3.333s76.833-19.833,105.5-39.5c-1.5-1.667-6.167-3.5-12-1s-10,6.167-17.667,9.667
		s-25,13.333-61,21.5C265.5,306.5,247.167,311.667,250.333,314z"/>
	<path d="M312.667,237.333c0,0-3.833-23.333-22.667-104.333c0,0-33.5,3.667-73.333,52.667c0,0,26,16.833,54,72.333
		C283.833,246.167,306.167,238,312.667,237.333z"/>
	<path d="M737.833,436.167c1.334-8.333,4-23.333,1.167-21.167s-7.333,4.5-28.25,51.921c0,0-6.917,15.08-15.75,16.246
		c0,0-17.832,5.001-56.166,5.167s-85.168-0.667-98.334,1.333c-2,0-2.834,1-6.5,0.5c0,0-0.667-1.667-8.5,2.833
		s-73.833,37.833-97.167,57.5c-7.333,5.834-19.167,12.333-23.167,15c0,0-11,9.5-22.833-4.333c0,0-18.333-25.334-26.333-45.167
		c0,0-4.333-8.667-5-15.5s0.5-60,0.333-65c0.167-2.667,2,1.333,4.333,2c0,0,43.609,34.015,46.833,33.167c0,0,0.167,2.166,45.833-35
		c22.167-18,41.892-33.356,46.167-34.333c0,0,16.667-3.333,20.167-7c1.167-1.333-0.501-2.333-0.167-3.5c0,0,0.668-1.667,2.834-3
		s1.832-2.167,0.666-4.833s-3-2-0.833-7s10.832-27.833,13.166-32.5s-1.5-3.667-1.5-3.667s-4-2-16.666,28
		c-0.334,1.333-0.5,2.5-1.167,2.333c-1.833-4.167-7.167-15.5-7-17.333s-2.167-1.167-2.833-0.167s-2,5-0.667,8.667
		c0.479,2.024,0.002,3.924,0.305,5.044c-0.556-1.241-2.298-4.746-5.138-7.044c-1.333,0.333-3.833,4.167-2.167,8.5
		s6.333,15.833,6.333,18.833s0,3.666-2.333,3.333s-12.667-0.5-19.5,1.167c-3.5,1.833-4.667-1.333-4.667-2.5
		c0,0-2.667-7.667,5.167-15.167s7.667-11.833,7.5-14.833s-2.333-4.667-2.833-3.833s-13.333,17-15.333,18.5s-7.333,7-0.833,23.5
		c1,3.333,3,6-3,10.667s-30.167,29.5-55.333,46.333c0,0-4.5,4-8.833,1.333s-20.667-18-28.667-26.667S350.833,408,347.5,397.333
		s-10.167-33.5-9.833-38.667c-0.667-4.167-4.333-7.167-5.5-6.833c-3.333,56.667-4.333,72.167-4.333,85.667
		c0,0-13.5-26.167-14.667-32.333s-4-14.667-3-31c0.667-13.5-1.5-16.5-2.667-18.5c0,0-2.167-5.167-14.5-7.167
		c2.128,2.176,4.417,4.058,4.167,6.333c-0.5,4.556-0.167,13.5,1.667,15s3.5,5.5,0.667,8.167c0,0-13.5-6-20.333-15
		c-2.333-2.333-3.5-4.667-12,0.667s-10,9.667-26.5,18.5c0,0-34.167,19.333-47.5,28c0,0-13,6.834-7,13.667
		c3.5,2.667,8.5,2.667,11.667,2s20.833-6.834,54.667-2.667c15.167,1.833,26.833,3,29.333,6.667s3.452,21.667,2.059,31.333
		s-8.393,24.834-6.059,28c2,2.333,6.5-1.666,7-3c0,0,2.333-3.167,7.167-27.5c0,0,3.167-9.333,2.667-13.167
		c0,0,0.333-1.667,1.667,4.667c18.167,68.667,27,79.334,31.5,91.667s11.169,21.332,11.167,26.999c-0.002,4.836,0.667,7-10.833,13
		S303.5,586.834,294,593s-17.667,27.666-0.333,64.666c0.5-3.333-0.5-8.834-0.333-11.5s-4-39.333,13.5-45.333
		c0,0,1.833-4.001,35.167-7.167s68.167-3.333,77.333-3.333s22.333-3.334,27.667-3.5c7.333-6.5,22.667-22.5,80.333-66.333
		c0,0,10.833-7.871,14.667-9.186s41.833-2.148,46-2.314s130.999-2.501,132.666-5.917S727,483.667,728,478.5s20.333-39,25-51.5
		C753,427,753.999,423,737.833,436.167z M272.5,418.834c0-1.999-0.333-2.334-0.333-2.334c-1.667-1.667-31.833-2.167-52-4
		c3.5,0.167,45.333-14.333,45.333-14.333s6.553-2.026,8.5-1.833C280.5,398.5,286.167,418,286.167,418
		C282.167,416.333,274.833,417.333,272.5,418.834z"/>
</g>
<g id="Ebene_8">
	<g>
		<path d="M493.354,433.549c-9.943,0-18.462-1.626-20.631-2.54c-2.787-1.174-3.23-2.725-3.111-3.82
			c0.285-2.621,3.795-3.614,7.191-4.24c6.362-1.172,8.649-2.606,9.414-5.902c4.001-18.091,2.829-49.753,0.481-53.69
			c-3.946-6.666-9.095-17.047-10.632-24.385c-2.97-14.178-3.599-35.306-1.98-66.493c0.027-0.525,0.26-1.019,0.649-1.374
			c5.115-4.671,24.043-3.541,28.418-2.831c3.772,0.612,6.273,1.468,6.222,3.655c-0.005,0.212-0.033,0.408-0.083,0.589
			c0.824,4.059,1.852,47.849-0.578,60.686c-2.008,10.61-7.884,22.526-10.708,28.253c-0.542,1.1-0.982,1.991-1.273,2.625
			c-1.602,3.961-0.326,45.419,1.591,51.571c1.171,3.313,2.882,6.408,10.604,7.103c4.954,0.472,7.444,1.668,7.844,3.766
			c0.301,1.575-0.656,2.94-2.844,4.058c-0.091,0.046-0.185,0.085-0.281,0.117C507.222,432.829,499.972,433.549,493.354,433.549z
			 M474.841,427.523c4.387,1.356,22.822,3.869,36.626-0.328c-0.702-0.168-1.653-0.334-2.906-0.454
			c-9.586-0.863-12.409-5.232-14.03-9.826c-0.777-2.492-1.492-10.292-1.956-19.262c-0.399,7.389-1.2,14.605-2.455,20.278
			c-1.484,6.394-7.033,7.927-12.59,8.951C476.329,427.104,475.462,427.327,474.841,427.523z M477.972,274.843
			c-1.461,29.649-0.818,49.804,2.01,63.309c1.345,6.42,6.07,16.259,10.156,23.162c0.868,1.456,1.55,4.721,2.016,9.073
			c0.153-3.982,0.456-6.905,0.944-7.971c0.301-0.658,0.758-1.584,1.321-2.727c2.746-5.568,8.458-17.154,10.365-27.228
			c2.179-11.516,1.419-49.445,0.748-57.742c-0.29,0.042-0.563,0.073-0.805,0.101C490.165,276.845,481.366,275.573,477.972,274.843z
			 M486.699,271.83c2.643,0.116,5.862,0.109,9.667-0.153C493.284,271.553,489.831,271.59,486.699,271.83z"/>
	</g>
	<g>
		<path d="M491.92,356.262c-2.533,0-4.353-1.201-4.455-1.27c-0.916-0.617-1.158-1.86-0.54-2.776c0.614-0.91,1.847-1.154,2.759-0.551
			c0.103,0.065,1.75,1.072,3.674,0.324c2.315-0.901,6.788-5.766,8.545-9.296c0.493-0.988,1.695-1.391,2.682-0.899
			c0.988,0.493,1.391,1.693,0.898,2.682c-2.024,4.065-7.128,9.861-10.676,11.241C493.787,356.113,492.81,356.262,491.92,356.262z"/>
	</g>
	<g>
		<path d="M490.832,429.169c-2.154,0-3.984-0.047-5.15-0.086c-1.104-0.038-1.968-0.963-1.931-2.067s0.934-1.954,2.067-1.931
			c9.006,0.306,19.835-0.314,21.63-1.853c0.838-0.719,2.101-0.623,2.82,0.217c0.719,0.839,0.622,2.102-0.217,2.82
			C507.186,428.725,497.468,429.169,490.832,429.169z"/>
	</g>
</g>
<g id="Sessel">
	<g>
		<path d="M306.5,595c-0.608-38.706-16.894-75.151-30.103-110.735c-6.959-18.748-13.311-39.512-26.808-54.771
			c-12.862-14.542-31.324-15.271-48.753-9.404c-1.409,0.474-2.484,2.284-1.494,3.672c29.576,41.458,56.417,86.106,76.174,133.123
			c4.266,10.152,8.082,20.51,11.117,31.099c0.644,2.246,1.224,4.509,1.776,6.779c0.417,1.72,0.452,4.524,1.433,5.999
			c2.232,3.354,4.411,6.745,6.581,10.14c4.318,6.757,8.476,13.572,12.197,20.681c26.818,51.223,37.816,110.541,41.88,167.668
			c0.11,1.542,1.525,2.946,3.165,2.411c3.906-1.276,7.97-2.262,12.085-2.411c1.172-0.043,2.035-0.743,2.411-1.835
			c2.264-6.573,0.211-15.75-0.669-22.294c-4.389-32.633-14.493-64.701-24.471-95.954c-5.414-16.957-11.174-33.802-17.11-50.582
			c-1.067-3.018-5.899-1.718-4.821,1.33c14.797,41.828,29.253,84.289,38.299,127.806c1.857,8.935,3.479,17.972,4.16,27.082
			c0.175,2.341,0.271,4.691,0.224,7.039c-0.014,0.72-0.049,1.439-0.104,2.157c-0.073,0.958-0.103,1.03-0.099,1
			c-0.055,0.361-0.111,0.739-0.231,1.086c0.804-0.611,1.607-1.224,2.411-1.835c-4.562,0.166-9.082,1.174-13.415,2.589
			c1.055,0.804,2.11,1.607,3.165,2.411c-3.375-47.449-11.722-95-28.834-139.533c-8.203-21.349-18.909-40.764-31.412-59.82
			c-2.721-4.147-3.06-10.746-4.475-15.569c-2.212-7.54-4.909-14.935-7.785-22.244c-6.488-16.489-14.202-32.489-22.397-48.189
			c-16.769-32.123-35.895-63.158-56.938-92.655c-0.498,1.224-0.996,2.448-1.494,3.672c9.053-3.047,18.579-4.855,27.977-2.325
			c7.793,2.099,14.05,7.69,18.833,13.982c12.285,16.158,18.108,37.108,25.147,55.852C286.46,525.271,300.938,559.248,301.5,595
			C301.551,598.221,306.551,598.226,306.5,595L306.5,595z"/>
	</g>
	<g>
		<path d="M316.25,630.25c49.57-0.017,99.311-3.702,148.75-6.75c-0.72-1.254-1.439-2.508-2.159-3.762
			c-3.63,6.65-4.746,15.366-6.222,22.636c-6.866,33.814-10.106,68.458-13.165,102.779c-1.391,15.603-2.597,31.222-3.705,46.847
			c-0.077,1.084,0.817,2.15,1.835,2.411c3.622,0.927,13.104,3.536,14.602-1.833c0.272-0.978,0.18-2.108,0.163-3.11
			c-0.092-5.209-0.051-10.404,0.207-15.609c1.575-31.785,7.912-63.412,14.625-94.435c4.313-19.936,9.14-39.759,14.23-59.509
			c0.805-3.125-4.017-4.45-4.821-1.33c-11.181,43.39-21.548,87.326-26.949,131.867c-1.652,13.621-1.922,27.021-2.285,40.679
			c-0.027,1.008-0.095-0.352,0.423-0.554c-2.456,0.96-6.402-0.357-8.864-0.988c0.612,0.804,1.224,1.607,1.835,2.411
			c3.148-44.396,6.665-88.997,13.898-132.949c1.984-12.056,3.657-25.175,8.391-36.569c-0.398,0.958-0.024,0.044,0.12-0.22
			c0.856-1.569-0.191-3.883-2.159-3.762c-49.439,3.048-99.18,6.733-148.75,6.75C313.026,625.251,313.025,630.251,316.25,630.25
			L316.25,630.25z"/>
	</g>
	<g>
		<path d="M476.665,621.661c9.421-2.258,16.409-9.811,10.728-19.285c-8.292-13.827-24.825-18.223-39.728-20.537
			c-3.153-0.489-4.508,4.328-1.329,4.822c12.037,1.869,24.96,4.699,33.572,13.979c3.173,3.419,6.95,8.572,2.843,12.602
			c-1.906,1.87-4.852,2.983-7.416,3.598C472.201,617.591,473.53,622.412,476.665,621.661L476.665,621.661z"/>
	</g>
</g>
<g id="Ebene_4">
	<g>
		<path d="M612.415,517.661c20.276-3.602,40.866-5.791,61.377-7.481c40.873-3.369,82.737-4.186,123.293,2.731
			c3.153,0.537,4.503-4.28,1.33-4.822c-40.612-6.926-82.324-6.25-123.267-3.019c-21.404,1.689-42.909,4.013-64.063,7.769
			C607.914,513.402,609.263,518.221,612.415,517.661L612.415,517.661z"/>
	</g>
	<g>
		<path d="M793.25,521.75c-24.232-1.773-48.577-2.53-72.868-2.745c-20.729-0.183-41.481,0.19-62.165,1.625
			c-17.899,1.242-36.083,3.128-53.415,7.96c-0.573,0.162-1.146,0.328-1.717,0.499c-3.085,0.911-1.771,5.737,1.33,4.822
			c17.42-5.144,35.749-6.986,53.802-8.281c20.679-1.482,41.44-1.786,62.165-1.625c24.289,0.188,48.638,0.972,72.868,2.745
			C796.469,526.985,796.445,521.983,793.25,521.75L793.25,521.75z"/>
	</g>
	<g>
		<path d="M596.75,546c37.657-0.259,76.289,1.143,113.335,8.161c3.151,0.597,4.495-4.222,1.33-4.822
			c-37.499-7.104-76.55-8.601-114.665-8.339C593.527,541.022,593.524,546.022,596.75,546L596.75,546z"/>
	</g>
	<g>
		<path d="M699.835,550.089c-12.504,1.962-25.002,3.963-37.495,5.994c-14.632,2.38-29.914,3.902-44.255,7.756
			c-2.369,0.638-2.409,4.206,0,4.822c5.737,1.467,11.486,2.891,17.25,4.25c0-1.607,0-3.215,0-4.822
			c-11.833,2.917-23.666,5.834-35.5,8.75c-2.788,0.688-2.12,4.869,0.665,4.911c21.917,0.333,43.833,0.667,65.75,1
			c3.226,0.049,3.221-4.951,0-5c-21.917-0.333-43.833-0.667-65.75-1c0.222,1.637,0.443,3.273,0.665,4.911
			c11.833-2.917,23.666-5.834,35.5-8.75c2.376-0.586,2.406-4.254,0-4.822c-5.765-1.359-11.513-2.782-17.25-4.25
			c0,1.607,0,3.215,0,4.822c14.008-3.765,28.929-5.259,43.22-7.588c12.837-2.093,25.681-4.146,38.53-6.162
			C704.343,554.412,702.988,549.595,699.835,550.089L699.835,550.089z"/>
	</g>
	<g>
		<path d="M820.75,537c-15.86,1.808-31.895,3.878-47.415,7.665c-3.131,0.765-1.803,5.586,1.33,4.822
			c15.089-3.683,30.665-5.73,46.085-7.487C823.915,541.64,823.95,536.635,820.75,537L820.75,537z"/>
	</g>
	<g>
		<path d="M809.835,562.339c-15.772,2.153-34.709,4.84-51.585,4.161c-3.239-0.13-3.191,4.796,0,5
			c17.865,1.142,35.82,2.391,53.556,4.896c2.128,0.301,4.256,0.639,6.353,1.114c2.682,0.609,1.623-3.573,0.383-3.102
			c-3.137,1.196-6.56,1.793-9.831,2.483c-19.862,4.193-40.254,7.585-60.46,9.608c-3.177,0.318-3.208,5.321,0,5
			c22.527-2.256,45.674-5.685,67.658-11.115c2.081-0.515,5.788-1.053,7-3.123c2.21-3.772-3.893-4.711-6.099-5.109
			c-19.216-3.466-39.109-4.409-58.56-5.652c0,1.667,0,3.333,0,5c17.562,0.707,35.539-1.968,52.915-4.339
			C814.348,566.727,812.987,561.909,809.835,562.339L809.835,562.339z"/>
	</g>
	<g>
		<path d="M809.335,592.339c-3.521,1.304-7.332,2-10.992,2.766c-14.293,2.986-28.844,4.777-43.343,6.396
			c-3.167,0.354-3.202,5.357,0,5c14.69-1.64,29.4-3.494,43.899-6.416c3.914-0.788,8.004-1.531,11.766-2.923
			C813.661,596.052,812.366,591.218,809.335,592.339L809.335,592.339z"/>
	</g>
	<g>
		<path d="M798.488,607.908c-0.61-0.294-0.907-2.161-0.42-2.612c0.549-0.507-0.014-0.003-0.45,0.222
			c-0.653,0.334-0.26,0.157-1.356,0.525c-2.242,0.754-4.581,1.233-6.897,1.688c-10.099,1.983-20.409,2.968-30.642,3.949
			c-21.611,2.072-43.298,3.386-64.973,4.569c-3.206,0.175-3.224,5.176,0,5c23.062-1.26,46.135-2.675,69.12-4.976
			c10.312-1.032,20.778-2.061,30.901-4.371c2.724-0.622,6.867-1.318,8.513-3.912c0.935-1.475,0.302-3.643-1.272-4.399
			C798.121,602.199,795.584,606.511,798.488,607.908L798.488,607.908z"/>
	</g>
	<g>
		<path d="M616.25,631.75c61.502-5.777,123.727-9.498,185.5-8c0-1.667,0-3.333,0-5c-19.752,1.979-38.228,7.771-57.165,13.339
			c-2.831,0.833-2.069,4.664,0.665,4.911c14.059,1.271,28.163,2.139,42.266,2.75c-0.222-1.637-0.443-3.273-0.665-4.911
			c-29.065,5.609-58.454,10.915-87.016,18.75c-3.105,0.853-1.785,5.677,1.33,4.822c28.561-7.836,57.949-13.142,87.016-18.75
			c2.882-0.557,2.039-4.794-0.665-4.911c-14.103-0.611-28.207-1.479-42.266-2.75c0.222,1.637,0.443,3.273,0.665,4.911
			c18.488-5.437,36.546-11.229,55.835-13.161c3.152-0.315,3.281-4.921,0-5c-61.773-1.498-123.998,2.223-185.5,8
			C613.068,627.049,613.039,632.052,616.25,631.75L616.25,631.75z"/>
	</g>
	<g>
		<path d="M679.589,646.085c0.711-1.75,2.029-1.531-0.329-1.034c-3.365,0.71-7.096,0.903-10.881,1.143
			c-27.37,1.728-54.989,0.878-82.379,0.307c-2.902-0.061-3.297,4.071-0.665,4.911c17.768,5.665,36.458,8.659,54.837,11.554
			c19.35,3.048,38.816,5.548,58.328,7.285c3.213,0.286,3.186-4.717,0-5c-19.57-1.743-39.077-4.284-58.483-7.341
			c-17.885-2.816-36.065-5.808-53.352-11.32c-0.222,1.638-0.443,3.274-0.665,4.911c28.062,0.585,56.404,1.527,84.439-0.444
			c3.224-0.227,12.325,0.415,13.972-3.641C685.624,644.426,680.785,643.139,679.589,646.085L679.589,646.085z"/>
	</g>
	<g>
		<path d="M642.452,659.482c0.562-0.597-0.719,0.412-1.443,0.764c-2.623,1.273-5.804,2.242-8.772,3.146
			c-18.928,5.766-38.692,9.088-58.151,12.447c-2.781,0.48-2.131,5.102,0.665,4.911c34.376-2.336,68.883-3.195,103.316-4.219
			c28.389-0.844,57.034-2.482,85.44-1.635c0.581,0.018,1.165,0.038,1.743,0.104c3.201,0.362,3.166-4.642,0-5
			c-8.2-0.93-16.878-0.112-25.101,0.022c-17.153,0.282-34.305,0.722-51.453,1.202c-35.932,1.006-71.897,2.021-107.784,4.134
			c-2.055,0.121-4.108,0.252-6.162,0.392c0.222,1.637,0.443,3.273,0.665,4.911c19.854-3.429,40.009-6.834,59.298-12.8
			c3.368-1.042,8.697-2.108,11.274-4.844C648.196,660.674,644.667,657.131,642.452,659.482L642.452,659.482z"/>
	</g>
	<g>
		<path d="M608.415,693.911c10.634-3.787,22.452-5.195,33.552-6.738c40.012-5.562,80.761-6.298,121.09-5.958
			c12.394,0.104,24.785,0.391,37.173,0.785c3.226,0.103,3.216-4.897,0-5c-47.243-1.507-94.793-1.578-141.868,3.223
			c-16.615,1.694-33.765,3.598-49.835,8.407c-0.482,0.145-0.966,0.29-1.441,0.459C604.07,690.163,605.369,694.995,608.415,693.911
			L608.415,693.911z"/>
	</g>
	<g>
		<path d="M686.75,690.5c-12.909,1.662-25.812,3.37-38.711,5.107c-16.362,2.204-33.029,3.852-49.204,7.231
			c-2.954,0.618-1.959,4.654,0.665,4.911c17.024,1.663,34.016,3.718,51,5.75c3.197,0.383,3.16-4.622,0-5
			c-16.984-2.032-33.976-4.087-51-5.75c0.222,1.637,0.443,3.273,0.665,4.911c15.475-3.234,31.412-4.825,47.065-6.943
			c13.168-1.782,26.341-3.521,39.52-5.218C689.902,695.094,689.941,690.089,686.75,690.5L686.75,690.5z"/>
	</g>
	<g>
		<path d="M688.25,704.5c16.008-1.551,32.094-2.485,48.162-3.083c13.744-0.511,27.512-0.665,41.257-0.131
			c11.586,0.45,23.454,1.229,34.666,4.375c0-1.607,0-3.215,0-4.822c-9.959,3.104-20.869,3.972-31.179,5.099
			c-16.476,1.801-33.081,2.766-49.656,2.562c-3.226-0.039-3.222,4.961,0,5c16.586,0.203,33.167-0.814,49.656-2.562
			c10.733-1.138,22.148-2.049,32.509-5.276c2.336-0.729,2.434-4.139,0-4.822c-23.811-6.68-50.438-5.301-74.884-4.505
			c-16.857,0.55-33.741,1.54-50.531,3.166C685.07,699.808,685.041,704.811,688.25,704.5L688.25,704.5z"/>
	</g>
	<g>
		<path d="M623.75,729c24.51-2.513,49.038-4.858,73.58-7.027c16.221-1.434,32.454-2.83,48.712-3.764
			c15.616-0.897,31.173-0.435,46.783-1.895c8.131-0.761,16.256-1.704,24.34-2.87c-0.443-1.607-0.887-3.215-1.33-4.822
			c-31.433,9.202-63.409,17.9-95.75,23.217c-3.176,0.522-1.823,5.34,1.33,4.822c32.34-5.316,64.316-14.015,95.75-23.217
			c3.179-0.932,1.774-5.27-1.33-4.822c-29.634,4.276-59.396,3.643-89.173,5.911c-31.695,2.415-63.345,5.493-94.973,8.664
			c-2.646,0.266-5.293,0.531-7.939,0.803C620.575,724.325,620.543,729.329,623.75,729L623.75,729z"/>
	</g>
	<g>
		<path d="M665.415,747.839c-27.218-6.776-54.411-13.73-81.75-20c-0.222,1.638-0.443,3.274-0.665,4.911
			c25.622,1.276,51.419,3.106,76.827,6.742c9.832,1.406,19.534,2.41,29.479,2.725c8.399,0.266,17.534,0.979,25.859-0.556
			c-0.812-1.394-1.622-2.786-2.433-4.179c-1.589,1.706-4.787,4.996-1.375,6.933c3.063,1.738,7.298,1.089,10.739,1.075
			c9.431-0.036,18.861-0.099,28.292-0.157c17.037-0.105,34.074-0.217,51.111-0.333c3.243-0.022,3.199-4.827,0-5
			c-4.506-0.244-9.221,0.703-13.619,1.51c-15.035,2.759-29.631,7.955-43.796,13.579c-2.959,1.176-1.67,6.013,1.33,4.822
			c13.937-5.534,28.207-10.507,42.947-13.418c4.232-0.836,8.789-1.729,13.138-1.493c0-1.667,0-3.333,0-5
			c-13.877,0.095-27.753,0.186-41.63,0.273c-9.729,0.062-19.457,0.122-29.186,0.176c-3.185,0.017-6.37,0.033-9.556,0.045
			c-0.834,0.003-1.669,0.006-2.504,0.006c-1.034,0.006-2.066-0.024-3.098-0.09c-1.715-0.628-1.967,0.081-0.756,2.126
			c0.462-0.535,1.014-1,1.496-1.519c1.786-1.918-0.009-4.625-2.433-4.179c-7.842,1.446-16.617,0.598-24.529,0.378
			c-10.167-0.283-20.069-1.425-30.12-2.824c-25.216-3.511-50.77-5.376-76.186-6.643c-2.821-0.141-3.407,4.282-0.665,4.911
			c27.34,6.269,54.533,13.223,81.75,20C667.215,753.44,668.542,748.618,665.415,747.839L665.415,747.839z"/>
	</g>
	<g>
		<path d="M741.915,758.339c-5.943-0.938-12.196-0.65-18.179-0.624c-27.183,0.118-54.38,1.928-81.486,3.785
			c-3.198,0.219-3.22,5.221,0,5c26.661-1.827,53.391-3.544,80.123-3.776c4.914-0.043,9.835-0.029,14.744,0.205
			c1.054,0.05,2.107,0.115,3.157,0.211c0.55,0.051,1.221,0.165,0.311,0.021C743.738,763.659,745.093,758.842,741.915,758.339
			L741.915,758.339z"/>
	</g>
	<g>
		<path d="M675.5,754c-9.279-0.92-18.862-0.151-28.091,0.846c-23.471,2.537-46.299,9.115-67.921,18.496
			c1.01,1.309,2.02,2.617,3.029,3.926c-0.78,0.753,0.908-0.426,0.885-0.416c2.279-0.923,4.754-1.382,7.169-1.784
			c14.348-2.395,29.519-1.279,43.929-0.317c3.221,0.215,3.199-4.786,0-5c-14.974-0.999-30.357-1.841-45.259,0.495
			c-3.179,0.499-7.785,1.1-10.259,3.487c-2.199,2.121,0.581,4.988,3.029,3.926c21.165-9.182,43.615-15.458,66.574-17.939
			c8.831-0.954,18.037-1.599,26.914-0.719C678.708,759.318,678.678,754.315,675.5,754L675.5,754z"/>
	</g>
	<g>
		<path d="M650.165,778.911c12.134-3.633,25.31-4.768,37.842-5.953c41.989-3.971,84.479-2.761,126.493,0.042c0-1.667,0-3.333,0-5
			c-4.729,0.496-9.419,1.712-14.014,2.881c-16.385,4.17-32.377,9.923-48.151,15.958c-2.979,1.141-1.687,5.977,1.33,4.822
			c15.263-5.841,30.707-11.327,46.51-15.532c3.706-0.985,7.44-1.879,11.207-2.604c0.916-0.177,1.836-0.336,2.759-0.477
			c0.79-0.12-0.391,0.03,0.359-0.048c3.176-0.333,3.261-4.782,0-5c-42.331-2.823-85.08-3.958-127.379,0.042
			c-12.668,1.198-26.021,2.376-38.286,6.047C645.755,775.012,647.067,779.838,650.165,778.911L650.165,778.911z"/>
	</g>
	<g>
		<path d="M797.5,791.5c-20.542-2.212-41.238-3.333-61.875-4.125c-42.604-1.635-85.52-1.096-127.875,4.125
			c-3.157,0.389-3.195,5.394,0,5c42.37-5.223,85.258-5.706,127.875-4.125c20.636,0.766,41.336,1.913,61.875,4.125
			C800.704,796.845,800.671,791.842,797.5,791.5L797.5,791.5z"/>
	</g>
	<g>
		<path d="M620.5,778c-22.232,2.961-44.603,5.637-66.665,9.7c-2.848,0.525-2.074,4.874,0.665,4.911
			c9.178,0.124,18.3,0.985,27.406,2.09c5.348,0.648,10.937,1.936,16.344,1.799c3.219-0.081,3.227-5.081,0-5
			c-5.403,0.137-11.002-1.136-16.344-1.799c-9.1-1.129-18.233-1.966-27.406-2.09c0.222,1.637,0.443,3.273,0.665,4.911
			c21.623-3.983,43.545-6.62,65.335-9.522C623.647,782.581,623.688,777.575,620.5,778L620.5,778z"/>
	</g>
</g>
<g id="Ebene_10">
	<g>
		<path fill="#0094AC" d="M537.498,408.546c-13.071,0-27.154-0.895-41.008-3.396c-21.453-0.755-40.5-5.122-54.133-16.314
			c-7.606-6.245-13.184-14.407-16.688-24.388c-1.207-1.839-2.35-3.755-3.42-5.743c-17.685-32.852-8.397-72.788,3.846-90.653
			c9.228-13.464,25.096-22.552,45.889-26.282c5.962-1.069,11.498-1.562,16.093-1.759c4.313-0.95,8.888-1.852,13.743-2.711
			c-12.175-3.24-20.446-3.464-22.487-3.464c-0.829,0-1.5-0.671-1.5-1.5s0.671-1.5,1.5-1.5c2.423,0,13.408,0.306,29.225,5.329
			c0.647-0.104,1.304-0.208,1.961-0.311c0.813-0.125,1.586,0.432,1.714,1.25c0.015,0.098,0.021,0.195,0.017,0.29
			c4.427,1.544,9.175,3.449,14.182,5.802c24.097,4.856,57.337,17.413,72.266,49.846c12.554,27.272,13.066,57.372,1.338,78.552
			c-5.855,10.575-14.562,18.594-25.669,23.775c-9.927,8.23-21.148,13.133-31.699,13.133
			C540.965,408.53,539.238,408.546,537.498,408.546z M517.982,404.857c7.632,0.568,15.832,0.799,24.657,0.643
			c6.639,0,13.676-2.197,20.472-6.075c-3.369,0.899-6.901,1.588-10.586,2.062C540.906,402.982,529.267,404.238,517.982,404.857z
			 M496.555,402.16c17.411,0.611,36.518-1.195,55.587-3.648c7.434-0.957,14.208-2.822,20.248-5.549
			c9.004-7.461,16.956-17.74,22.111-29.423c11.531-26.136,7.144-53.179-12.037-74.195c-20.051-21.971-39.985-35.254-56.934-43.281
			c-11.538-2.296-20.906-2.794-24.904-2.898c-0.034-0.001-0.068-0.003-0.102-0.006c-0.079-0.007-4.963-0.449-12.267-0.143
			c-69.522,15.281-67.688,42.194-63.762,99.881c0.503,7.4,1.746,14.046,3.745,19.98C438.725,378.707,458.667,395.22,496.555,402.16z
			 M433.964,374.948c2.808,4.389,6.235,8.233,10.297,11.568c8.463,6.949,19.191,11.158,31.373,13.457
			C459.804,394.823,445.208,386.879,433.964,374.948z M537.579,248.984c14.666,8.354,30.865,20.548,47.103,38.338
			c20.018,21.935,24.598,50.156,12.564,77.429c-3.51,7.956-8.18,15.227-13.566,21.459c5.601-4.341,10.214-9.722,13.729-16.072
			c11.275-20.361,10.725-49.423-1.438-75.845C583.855,267.972,559.103,255.189,537.579,248.984z M465.06,246.354
			c-12.667,3.305-27.292,9.971-36.49,23.392c-11.262,16.433-19.924,52.234-5.908,83.04c-0.543-3.095-0.93-6.324-1.159-9.684
			C418.031,292.09,416.08,263.385,465.06,246.354z M502.462,240.228c2.707,0.114,6.695,0.375,11.551,0.966
			c-1.94-0.723-3.822-1.375-5.64-1.963C506.355,239.557,504.388,239.889,502.462,240.228z"/>
	</g>
	<g>
		<path fill="#0094AC" d="M529.335,284.834c-0.04,0-0.081-0.001-0.121-0.005l-12.506-1c-0.443-0.035-0.847-0.265-1.104-0.626
			c-0.258-0.362-0.341-0.819-0.229-1.249l3.506-13.392c0.21-0.802,1.031-1.279,1.831-1.071c0.802,0.21,1.281,1.03,1.071,1.831
			l-3.053,11.66l10.721,0.858c0.826,0.066,1.442,0.789,1.376,1.615C530.766,284.239,530.108,284.834,529.335,284.834z"/>
	</g>
	<g>
		<path fill="#0094AC" d="M517.829,281.833c-0.552,0-1.083-0.306-1.345-0.834c-0.368-0.742-0.064-1.642,0.677-2.01
			c0.24-0.119,24.296-12.25,47.824-40.065c21.691-25.645,47.369-70.271,46.515-137.238c-0.011-0.828,0.652-1.508,1.48-1.519
			c0.007,0,0.014,0,0.02,0c0.82,0,1.489,0.659,1.5,1.481c0.867,67.962-25.252,113.275-47.316,139.322
			c-12.496,14.751-25.045,25.021-33.372,31.038c-9.049,6.539-15.065,9.545-15.317,9.669
			C518.28,281.783,518.053,281.833,517.829,281.833z"/>
	</g>
	<g>
		<path fill="#0094AC" d="M608.352,43.812c0,0.661,0.145,1.264,0.434,1.808c0.287,0.544,0.666,1.008,1.135,1.392
			c0.469,0.384,1.014,0.683,1.633,0.896c0.619,0.214,1.258,0.32,1.92,0.32c0.896,0,1.674-0.208,2.336-0.624
			c0.66-0.416,1.27-0.965,1.824-1.648l2.176,1.664c-1.6,2.07-3.84,3.104-6.721,3.104c-1.195,0-2.277-0.203-3.248-0.608
			c-0.971-0.405-1.791-0.965-2.463-1.68s-1.189-1.557-1.553-2.528c-0.363-0.97-0.543-2.021-0.543-3.152
			c0-1.13,0.195-2.181,0.592-3.152c0.395-0.971,0.938-1.813,1.631-2.528c0.693-0.714,1.521-1.274,2.48-1.68
			c0.961-0.405,2.006-0.608,3.137-0.608c1.344,0,2.479,0.235,3.408,0.704c0.928,0.47,1.689,1.083,2.287,1.84s1.029,1.611,1.297,2.56
			c0.266,0.95,0.398,1.915,0.398,2.896v1.024H608.352z M617.441,41.507c-0.021-0.64-0.123-1.227-0.305-1.76
			s-0.453-0.997-0.816-1.392c-0.363-0.395-0.816-0.704-1.359-0.928c-0.545-0.224-1.18-0.336-1.904-0.336
			c-0.705,0-1.35,0.134-1.936,0.4c-0.588,0.267-1.084,0.614-1.488,1.04c-0.406,0.427-0.721,0.901-0.943,1.424
			c-0.225,0.523-0.338,1.04-0.338,1.552H617.441z"/>
		<path fill="#0094AC" d="M623.969,35.171h2.879v2.336h0.064c0.363-0.811,0.992-1.466,1.889-1.968
			c0.896-0.501,1.93-0.752,3.104-0.752c0.725,0,1.424,0.112,2.096,0.336c0.672,0.224,1.26,0.571,1.76,1.04
			c0.502,0.469,0.902,1.072,1.201,1.808c0.299,0.736,0.447,1.605,0.447,2.608v9.76h-2.879v-8.96c0-0.704-0.098-1.307-0.289-1.808
			c-0.191-0.501-0.447-0.906-0.768-1.216c-0.32-0.309-0.688-0.533-1.104-0.672s-0.85-0.208-1.297-0.208
			c-0.598,0-1.152,0.096-1.664,0.288c-0.512,0.192-0.959,0.496-1.344,0.912s-0.684,0.944-0.896,1.584s-0.32,1.397-0.32,2.272v7.808
			h-2.879V35.171z"/>
		<path fill="#0094AC" d="M644.865,35.171v17.344c0,0.384-0.027,0.891-0.08,1.52c-0.055,0.629-0.225,1.237-0.512,1.824
			c-0.289,0.586-0.748,1.093-1.377,1.52c-0.629,0.426-1.52,0.64-2.672,0.64c-0.32,0-0.635-0.021-0.943-0.064
			c-0.311-0.043-0.613-0.118-0.912-0.224l0.318-2.656c0.172,0.064,0.363,0.123,0.576,0.176c0.215,0.053,0.416,0.08,0.609,0.08
			c0.789,0,1.338-0.251,1.646-0.752c0.311-0.502,0.465-1.232,0.465-2.192V35.171H644.865z M641.312,29.731
			c0-0.576,0.207-1.072,0.623-1.488s0.912-0.624,1.488-0.624s1.072,0.208,1.488,0.624s0.625,0.912,0.625,1.488
			c0,0.576-0.209,1.072-0.625,1.488s-0.912,0.624-1.488,0.624s-1.072-0.208-1.488-0.624S641.312,30.307,641.312,29.731z"/>
		<path fill="#0094AC" d="M648.705,42.755c0-1.109,0.207-2.144,0.623-3.104s0.986-1.803,1.713-2.528
			c0.725-0.725,1.578-1.296,2.559-1.712c0.982-0.416,2.037-0.624,3.168-0.624s2.188,0.208,3.168,0.624
			c0.982,0.416,1.836,0.987,2.561,1.712s1.297,1.568,1.713,2.528s0.623,1.995,0.623,3.104c0,1.109-0.207,2.149-0.623,3.12
			s-0.988,1.813-1.713,2.528c-0.725,0.715-1.578,1.28-2.561,1.696c-0.98,0.416-2.037,0.624-3.168,0.624s-2.186-0.208-3.168-0.624
			c-0.98-0.416-1.834-0.981-2.559-1.696c-0.727-0.714-1.297-1.557-1.713-2.528S648.705,43.865,648.705,42.755z M651.775,42.755
			c0,0.768,0.117,1.478,0.354,2.128c0.234,0.651,0.564,1.206,0.992,1.664c0.426,0.459,0.947,0.821,1.566,1.088
			c0.619,0.267,1.312,0.4,2.08,0.4c0.77,0,1.461-0.133,2.08-0.4c0.619-0.267,1.141-0.629,1.568-1.088
			c0.426-0.458,0.758-1.013,0.992-1.664c0.234-0.65,0.352-1.36,0.352-2.128s-0.117-1.477-0.352-2.128
			c-0.234-0.65-0.566-1.205-0.992-1.664c-0.428-0.458-0.949-0.821-1.568-1.088c-0.619-0.267-1.311-0.4-2.08-0.4
			c-0.768,0-1.461,0.133-2.08,0.4c-0.619,0.267-1.141,0.629-1.566,1.088c-0.428,0.459-0.758,1.014-0.992,1.664
			C651.893,41.278,651.775,41.987,651.775,42.755z"/>
		<path fill="#0094AC" d="M666.656,35.171h3.328l4.49,11.84h0.064l4.309-11.84h3.072l-7.199,18.432
			c-0.256,0.661-0.521,1.264-0.797,1.808c-0.277,0.544-0.605,1.008-0.988,1.392c-0.383,0.384-0.844,0.683-1.387,0.896
			c-0.541,0.213-1.205,0.32-1.992,0.32c-0.424,0-0.855-0.027-1.291-0.08c-0.436-0.054-0.854-0.166-1.258-0.336l0.35-2.624
			c0.572,0.234,1.145,0.352,1.717,0.352c0.445,0,0.822-0.059,1.129-0.176s0.572-0.288,0.795-0.512
			c0.223-0.224,0.408-0.486,0.557-0.784c0.148-0.299,0.297-0.64,0.445-1.024l0.932-2.4L666.656,35.171z"/>
	</g>
	<g>
		<path fill="#0094AC" d="M21.843,65.144h2.88v11.36h0.064c0.362-0.811,0.992-1.466,1.888-1.968
			c0.896-0.501,1.931-0.752,3.104-0.752c0.725,0,1.424,0.112,2.096,0.336c0.672,0.224,1.258,0.571,1.76,1.04s0.901,1.072,1.2,1.808
			c0.298,0.736,0.448,1.605,0.448,2.608v9.76h-2.88v-8.96c0-0.704-0.096-1.307-0.288-1.808c-0.192-0.501-0.448-0.906-0.768-1.216
			c-0.32-0.309-0.688-0.533-1.104-0.672s-0.848-0.208-1.296-0.208c-0.597,0-1.152,0.096-1.664,0.288
			c-0.512,0.192-0.96,0.496-1.344,0.912s-0.683,0.944-0.896,1.584c-0.213,0.64-0.32,1.397-0.32,2.272v7.808h-2.88V65.144z"/>
		<path fill="#0094AC" d="M39.699,76.023c0.81-0.747,1.749-1.307,2.816-1.68c1.066-0.373,2.133-0.56,3.2-0.56
			c1.109,0,2.064,0.139,2.864,0.416c0.8,0.278,1.456,0.651,1.968,1.12c0.512,0.47,0.891,1.008,1.136,1.616
			c0.245,0.608,0.368,1.243,0.368,1.904v7.744c0,0.534,0.011,1.024,0.032,1.472c0.021,0.448,0.053,0.875,0.096,1.28h-2.56
			c-0.064-0.768-0.096-1.536-0.096-2.304h-0.064c-0.64,0.982-1.397,1.675-2.272,2.08c-0.875,0.405-1.888,0.608-3.04,0.608
			c-0.704,0-1.376-0.096-2.016-0.288c-0.64-0.192-1.2-0.48-1.68-0.864c-0.48-0.384-0.859-0.858-1.136-1.424
			c-0.277-0.565-0.416-1.221-0.416-1.968c0-0.981,0.219-1.802,0.656-2.464c0.437-0.661,1.034-1.2,1.792-1.616
			c0.757-0.416,1.642-0.714,2.656-0.896c1.013-0.181,2.096-0.272,3.248-0.272h2.112v-0.64c0-0.384-0.075-0.768-0.224-1.152
			c-0.15-0.384-0.374-0.73-0.672-1.04c-0.299-0.309-0.672-0.554-1.12-0.736c-0.448-0.181-0.981-0.272-1.6-0.272
			c-0.555,0-1.04,0.054-1.456,0.16c-0.416,0.107-0.795,0.24-1.136,0.4s-0.651,0.347-0.928,0.56c-0.277,0.213-0.544,0.416-0.8,0.608
			L39.699,76.023z M47.827,82.04c-0.683,0-1.382,0.038-2.096,0.112c-0.715,0.075-1.365,0.219-1.952,0.432
			c-0.587,0.213-1.067,0.512-1.44,0.896c-0.374,0.384-0.56,0.875-0.56,1.472c0,0.875,0.293,1.504,0.88,1.888
			c0.586,0.384,1.381,0.576,2.384,0.576c0.789,0,1.461-0.133,2.016-0.4c0.554-0.267,1.002-0.613,1.344-1.04s0.586-0.901,0.736-1.424
			c0.149-0.522,0.224-1.04,0.224-1.552v-0.96H47.827z"/>
		<path fill="#0094AC" d="M54.419,74.167h3.328l4.544,11.616l4.352-11.616h3.072l-5.952,15.168h-3.168L54.419,74.167z"/>
		<path fill="#0094AC" d="M74.419,82.808c0,0.661,0.144,1.264,0.432,1.808c0.288,0.544,0.667,1.008,1.136,1.392
			c0.469,0.384,1.013,0.683,1.632,0.896c0.619,0.214,1.259,0.32,1.92,0.32c0.896,0,1.674-0.208,2.336-0.624
			c0.661-0.416,1.269-0.965,1.824-1.648l2.176,1.664c-1.6,2.07-3.84,3.104-6.72,3.104c-1.195,0-2.277-0.203-3.248-0.608
			c-0.971-0.405-1.792-0.965-2.464-1.68s-1.189-1.557-1.552-2.528c-0.363-0.97-0.544-2.021-0.544-3.152
			c0-1.13,0.197-2.181,0.592-3.152c0.395-0.971,0.938-1.813,1.632-2.528c0.693-0.714,1.52-1.274,2.48-1.68s2.005-0.608,3.136-0.608
			c1.344,0,2.48,0.235,3.408,0.704c0.928,0.47,1.69,1.083,2.288,1.84c0.597,0.757,1.029,1.611,1.296,2.56
			c0.267,0.95,0.4,1.915,0.4,2.896v1.024H74.419z M83.507,80.503c-0.021-0.64-0.123-1.227-0.304-1.76
			c-0.182-0.533-0.454-0.997-0.816-1.392c-0.363-0.395-0.816-0.704-1.36-0.928s-1.179-0.336-1.904-0.336
			c-0.704,0-1.35,0.134-1.936,0.4c-0.587,0.267-1.083,0.614-1.488,1.04c-0.405,0.427-0.72,0.901-0.944,1.424
			s-0.336,1.04-0.336,1.552H83.507z"/>
		<path fill="#0094AC" d="M98.483,68.728c0-0.576,0.208-1.072,0.624-1.488s0.912-0.624,1.488-0.624c0.576,0,1.072,0.208,1.488,0.624
			s0.624,0.912,0.624,1.488c0,0.576-0.208,1.072-0.624,1.488s-0.912,0.624-1.488,0.624c-0.576,0-1.072-0.208-1.488-0.624
			S98.483,69.303,98.483,68.728z M99.155,74.167h2.88v15.168h-2.88V74.167z"/>
		<path fill="#0094AC" d="M121.811,89.335h-2.88V87.16h-0.064c-0.555,0.811-1.318,1.44-2.288,1.888
			c-0.971,0.448-1.968,0.672-2.992,0.672c-1.173,0-2.235-0.203-3.184-0.608c-0.949-0.405-1.76-0.97-2.432-1.696
			c-0.672-0.725-1.189-1.568-1.552-2.528c-0.363-0.96-0.544-2.005-0.544-3.136c0-1.13,0.181-2.181,0.544-3.152
			s0.88-1.813,1.552-2.528c0.672-0.714,1.482-1.274,2.432-1.68s2.011-0.608,3.184-0.608c1.088,0,2.112,0.229,3.072,0.688
			c0.96,0.459,1.696,1.083,2.208,1.872h0.064v-11.2h2.88V89.335z M113.938,87.031c0.768,0,1.461-0.133,2.08-0.4
			c0.619-0.267,1.141-0.629,1.568-1.088c0.427-0.458,0.757-1.013,0.992-1.664c0.234-0.65,0.352-1.36,0.352-2.128
			s-0.118-1.477-0.352-2.128c-0.235-0.65-0.565-1.205-0.992-1.664c-0.427-0.458-0.949-0.821-1.568-1.088
			c-0.619-0.267-1.312-0.4-2.08-0.4s-1.461,0.133-2.08,0.4c-0.619,0.267-1.141,0.629-1.568,1.088
			c-0.427,0.459-0.757,1.014-0.992,1.664c-0.235,0.651-0.352,1.36-0.352,2.128s0.117,1.478,0.352,2.128
			c0.235,0.651,0.565,1.206,0.992,1.664c0.427,0.459,0.949,0.821,1.568,1.088C112.477,86.898,113.17,87.031,113.938,87.031z"/>
		<path fill="#0094AC" d="M128.338,82.808c0,0.661,0.144,1.264,0.432,1.808c0.288,0.544,0.667,1.008,1.136,1.392
			c0.469,0.384,1.013,0.683,1.632,0.896c0.619,0.214,1.259,0.32,1.92,0.32c0.896,0,1.674-0.208,2.336-0.624
			c0.661-0.416,1.269-0.965,1.824-1.648l2.176,1.664c-1.6,2.07-3.84,3.104-6.72,3.104c-1.195,0-2.277-0.203-3.248-0.608
			c-0.971-0.405-1.792-0.965-2.464-1.68s-1.189-1.557-1.552-2.528c-0.363-0.97-0.544-2.021-0.544-3.152
			c0-1.13,0.197-2.181,0.592-3.152c0.395-0.971,0.938-1.813,1.632-2.528c0.693-0.714,1.52-1.274,2.48-1.68s2.005-0.608,3.136-0.608
			c1.344,0,2.48,0.235,3.408,0.704c0.928,0.47,1.69,1.083,2.288,1.84c0.597,0.757,1.029,1.611,1.296,2.56
			c0.267,0.95,0.4,1.915,0.4,2.896v1.024H128.338z M137.426,80.503c-0.021-0.64-0.123-1.227-0.304-1.76
			c-0.182-0.533-0.454-0.997-0.816-1.392c-0.363-0.395-0.816-0.704-1.36-0.928s-1.179-0.336-1.904-0.336
			c-0.704,0-1.35,0.134-1.936,0.4c-0.587,0.267-1.083,0.614-1.488,1.04c-0.405,0.427-0.72,0.901-0.944,1.424
			s-0.336,1.04-0.336,1.552H137.426z"/>
		<path fill="#0094AC" d="M144.019,76.023c0.81-0.747,1.749-1.307,2.816-1.68c1.066-0.373,2.133-0.56,3.2-0.56
			c1.109,0,2.064,0.139,2.864,0.416c0.8,0.278,1.456,0.651,1.968,1.12c0.512,0.47,0.891,1.008,1.136,1.616
			c0.245,0.608,0.368,1.243,0.368,1.904v7.744c0,0.534,0.011,1.024,0.032,1.472c0.021,0.448,0.053,0.875,0.096,1.28h-2.56
			c-0.064-0.768-0.096-1.536-0.096-2.304h-0.064c-0.64,0.982-1.397,1.675-2.272,2.08c-0.875,0.405-1.888,0.608-3.04,0.608
			c-0.704,0-1.376-0.096-2.016-0.288c-0.64-0.192-1.2-0.48-1.68-0.864c-0.48-0.384-0.859-0.858-1.136-1.424
			c-0.277-0.565-0.416-1.221-0.416-1.968c0-0.981,0.219-1.802,0.656-2.464c0.437-0.661,1.034-1.2,1.792-1.616
			c0.757-0.416,1.642-0.714,2.656-0.896c1.013-0.181,2.096-0.272,3.248-0.272h2.112v-0.64c0-0.384-0.075-0.768-0.224-1.152
			c-0.15-0.384-0.374-0.73-0.672-1.04c-0.299-0.309-0.672-0.554-1.12-0.736c-0.448-0.181-0.981-0.272-1.6-0.272
			c-0.555,0-1.04,0.054-1.456,0.16c-0.416,0.107-0.795,0.24-1.136,0.4s-0.651,0.347-0.928,0.56c-0.277,0.213-0.544,0.416-0.8,0.608
			L144.019,76.023z M152.146,82.04c-0.683,0-1.382,0.038-2.096,0.112c-0.715,0.075-1.365,0.219-1.952,0.432
			c-0.587,0.213-1.067,0.512-1.44,0.896c-0.374,0.384-0.56,0.875-0.56,1.472c0,0.875,0.293,1.504,0.88,1.888
			c0.586,0.384,1.381,0.576,2.384,0.576c0.789,0,1.461-0.133,2.016-0.4c0.554-0.267,1.002-0.613,1.344-1.04s0.586-0.901,0.736-1.424
			c0.149-0.522,0.224-1.04,0.224-1.552v-0.96H152.146z"/>
		<path fill="#0094AC" d="M168.626,77.976c-0.342-0.427-0.763-0.784-1.264-1.072c-0.501-0.288-1.115-0.432-1.84-0.432
			c-0.683,0-1.275,0.144-1.776,0.432c-0.501,0.288-0.752,0.709-0.752,1.264c0,0.448,0.144,0.811,0.432,1.088
			c0.288,0.277,0.629,0.501,1.024,0.672c0.395,0.171,0.816,0.299,1.264,0.384c0.448,0.085,0.832,0.16,1.152,0.224
			c0.619,0.149,1.2,0.331,1.744,0.544s1.013,0.491,1.408,0.832c0.395,0.341,0.704,0.757,0.928,1.248s0.336,1.088,0.336,1.792
			c0,0.854-0.182,1.584-0.544,2.192c-0.363,0.608-0.832,1.104-1.408,1.488c-0.576,0.384-1.232,0.662-1.968,0.832
			s-1.478,0.256-2.224,0.256c-1.259,0-2.363-0.192-3.312-0.576c-0.949-0.384-1.797-1.088-2.544-2.112l2.176-1.792
			c0.469,0.47,0.992,0.886,1.568,1.248c0.576,0.363,1.28,0.544,2.112,0.544c0.362,0,0.73-0.037,1.104-0.112
			c0.373-0.075,0.704-0.192,0.992-0.352s0.522-0.362,0.704-0.608c0.181-0.245,0.272-0.528,0.272-0.848
			c0-0.426-0.134-0.778-0.4-1.056s-0.587-0.496-0.96-0.656c-0.374-0.16-0.768-0.288-1.184-0.384
			c-0.416-0.096-0.784-0.176-1.104-0.24c-0.619-0.149-1.205-0.32-1.76-0.512c-0.555-0.192-1.045-0.448-1.472-0.768
			c-0.427-0.32-0.768-0.725-1.024-1.216c-0.256-0.49-0.384-1.098-0.384-1.824c0-0.789,0.165-1.477,0.496-2.064
			c0.33-0.586,0.768-1.072,1.312-1.456c0.544-0.384,1.162-0.672,1.856-0.864c0.693-0.192,1.392-0.288,2.096-0.288
			c1.024,0,2.005,0.192,2.944,0.576c0.938,0.384,1.685,1.024,2.24,1.92L168.626,77.976z"/>
	</g>
	<g>
		<path fill="#0094AC" d="M168.334,266.5c-0.136,0-0.273-0.019-0.41-0.057c-51.102-14.476-72.426-52.154-81.317-81.213
			c-9.601-31.378-7.127-59.752-7.101-60.035c0.076-0.825,0.813-1.43,1.631-1.356c0.825,0.076,1.432,0.806,1.356,1.631
			c-0.025,0.278-2.442,28.148,7.011,58.974c5.532,18.039,13.99,33.551,25.14,46.106c13.919,15.675,32.121,26.779,54.098,33.005
			c0.797,0.226,1.26,1.055,1.035,1.852C169.59,266.069,168.988,266.5,168.334,266.5z"/>
	</g>
	<g>
		<path fill="#0094AC" d="M156.335,272.167c-0.615,0-1.192-0.381-1.412-0.994c-0.28-0.78,0.125-1.639,0.905-1.918l11.457-4.113
			l-5.314-11.512c-0.347-0.752-0.019-1.644,0.733-1.991c0.752-0.348,1.644-0.019,1.991,0.733l6.001,13
			c0.176,0.382,0.184,0.821,0.021,1.208c-0.163,0.388-0.48,0.69-0.876,0.832l-12.999,4.667
			C156.675,272.139,156.504,272.167,156.335,272.167z"/>
	</g>
	<g>
		<g>
			<path fill="#0094AC" d="M213.667,269.167c3.224,0,3.224-5,0-5S210.443,269.167,213.667,269.167L213.667,269.167z"/>
		</g>
	</g>
	<g>
		<g>
			<path fill="#0094AC" d="M219.595,261.826c0.783-0.598,1.542-1.216,2.284-1.863c0.296-0.258,0.592-0.518,0.889-0.775
				c0.147-0.127,0.295-0.252,0.444-0.377c-0.066,0.055,0.668-0.536,0.383-0.318c1.081-0.825,1.65-2.136,0.897-3.42
				c-0.625-1.067-2.334-1.726-3.42-0.897c-0.783,0.598-1.542,1.216-2.284,1.863c-0.296,0.258-0.592,0.518-0.889,0.775
				c-0.147,0.127-0.295,0.252-0.444,0.377c0.066-0.056-0.668,0.536-0.383,0.318c-1.081,0.825-1.65,2.136-0.897,3.42
				C216.8,261.996,218.509,262.655,219.595,261.826L219.595,261.826z"/>
		</g>
	</g>
	<g>
		<g>
			<path fill="#0094AC" d="M213.744,256.332c0.33-1.769,0.422-3.537,0.423-5.332c0.001-3.225-4.999-3.224-5,0
				c0,1.337,0.001,2.684-0.244,4.002c-0.249,1.338,0.35,2.691,1.746,3.075C211.897,258.416,213.495,257.672,213.744,256.332
				L213.744,256.332z"/>
		</g>
	</g>
	<g>
		<g>
			<path fill="#0094AC" d="M217.738,278.159c1.635,0.999,3.139,2.183,4.667,3.333c1.091,0.822,2.792,0.176,3.42-0.897
				c0.75-1.279,0.189-2.603-0.897-3.42c-1.528-1.151-3.032-2.335-4.667-3.333C217.502,272.156,214.992,276.481,217.738,278.159
				L217.738,278.159z"/>
		</g>
	</g>
	<g>
		<g>
			<path fill="#0094AC" d="M207.335,269.256c-3.525,0.624-7.146,0.137-10.264,2.252c-2.651,1.799-0.153,6.133,2.523,4.317
				c2.573-1.746,6.116-1.226,9.069-1.748C211.836,273.517,210.488,268.699,207.335,269.256L207.335,269.256z"/>
		</g>
	</g>
	<g>
		<g>
			<path fill="#0094AC" d="M192.333,324.167c3.224,0,3.224-5,0-5S189.109,324.167,192.333,324.167L192.333,324.167z"/>
		</g>
	</g>
	<g>
		<g>
			<path fill="#0094AC" d="M188.492,312.072c-1.36-1.959-3.318-3.39-4.667-5.333c-0.775-1.117-2.176-1.626-3.42-0.897
				c-1.107,0.648-1.675,2.299-0.897,3.42c1.359,1.959,3.318,3.391,4.667,5.333c0.775,1.117,2.176,1.626,3.42,0.897
				C188.702,314.844,189.271,313.193,188.492,312.072L188.492,312.072z"/>
		</g>
	</g>
	<g>
		<g>
			<path fill="#0094AC" d="M202.159,313.262c0.378-0.711,0.956-1.289,1.333-2c0.64-1.203,0.313-2.712-0.897-3.42
				c-1.14-0.667-2.781-0.305-3.42,0.897c-0.378,0.711-0.955,1.289-1.333,2c-0.64,1.203-0.312,2.712,0.897,3.42
				C199.878,314.826,201.519,314.463,202.159,313.262L202.159,313.262z"/>
		</g>
	</g>
	<g>
		<g>
			<path fill="#0094AC" d="M202,325.167c0.556,0,1.111,0,1.667,0c1.363,0,2.5-1.137,2.5-2.5s-1.137-2.5-2.5-2.5
				c-0.556,0-1.111,0-1.667,0c-1.363,0-2.5,1.137-2.5,2.5S200.637,325.167,202,325.167L202,325.167z"/>
		</g>
	</g>
	<g>
		<g>
			<path fill="#0094AC" d="M181.667,330.833c0.953-0.002,1.743-0.267,2.595-0.675c1.229-0.589,1.542-2.318,0.897-3.42
				c-0.73-1.247-2.191-1.486-3.42-0.897c-0.264,0.124-0.212,0.104,0.154-0.059c-0.113,0.043-0.231,0.072-0.349,0.099
				c0.833-0.189,0.399-0.048,0.123-0.047c-1.363,0.003-2.5,1.135-2.5,2.5C179.167,329.694,180.304,330.836,181.667,330.833
				L181.667,330.833z"/>
		</g>
	</g>
	<g>
		<path fill="#0094AC" d="M764.999,593.671c-0.675,0-1.287-0.457-1.455-1.142c-0.198-0.805,0.293-1.617,1.098-1.814
			c0.597-0.147,56.747-13.929,83.001-17.385c-3.768-1.703-10.134-3.978-14.821-5.652c-13.308-4.754-14.988-5.577-14.987-7.345
			c0-0.688,0.001-2.678,8.68-6.546c-4.219-2.041-16.048-4.617-20.54-4.695c-0.455-0.008-0.883-0.223-1.161-0.583
			c-0.278-0.361-0.378-0.829-0.27-1.271c0.242-0.998,0.608-2.505,14.544-7.395c6.539-2.295,13.08-4.278,13.146-4.298
			c0.733-0.224,1.51,0.141,1.812,0.842c0.302,0.701,0.029,1.517-0.633,1.896l-12.541,7.181c5.234,1.401,14.889,4.238,20.536,7.444
			c0.485,0.275,0.777,0.797,0.759,1.354c-0.018,0.557-0.343,1.058-0.845,1.301c-1.829,0.888-6.156,2.404-9.431,3.511
			c8.499,3.158,26.797,10.221,29.879,13.581c0.293,0.319,0.434,0.75,0.385,1.181c-0.048,0.431-0.28,0.819-0.636,1.066
			c-4.457,3.087-55.222,13.403-60.996,14.57c-0.812,0.157-1.603-0.361-1.768-1.174c-0.164-0.812,0.361-1.604,1.174-1.768
			c13.326-2.691,31.903-6.651,44.86-9.77c-27.154,4.036-78.859,16.727-79.431,16.867
			C765.238,593.657,765.117,593.671,764.999,593.671z M821.343,560.056c2.152,1.105,7.808,3.125,12.487,4.797
			c12.312,4.398,18.245,6.691,19.456,8.71c0.182,0.302,0.248,0.654,0.197,0.993c1.696-0.462,3.114-0.878,4.191-1.236
			c-5.642-3.338-21.067-9.39-30.85-12.908c-0.604-0.217-1.003-0.794-0.992-1.437c0.011-0.642,0.429-1.205,1.04-1.402
			c0.078-0.025,6.092-1.968,10.179-3.499c-8.023-3.626-20.345-6.581-20.485-6.614c-0.599-0.143-1.049-0.636-1.137-1.245
			c-0.088-0.608,0.205-1.21,0.739-1.516l2.925-1.675c-3.642,1.303-6.817,2.542-8.961,3.533c6.793,1.015,19.105,3.615,20.579,7.065
			c0.158,0.369,0.161,0.786,0.01,1.157c-0.152,0.371-0.446,0.666-0.816,0.819C826.222,557.118,822.723,558.959,821.343,560.056z"/>
	</g>
	<g>
		<path fill="#0094AC" d="M718.666,586.5c-0.658,0-1.255-0.435-1.441-1.088c-0.211-0.739,0.171-1.519,0.885-1.805
			c0.579-0.231,2.317-0.544,4.946-0.914l28.657-5.112c-34.146-2.272-84.604-5.25-90.074-4.112c-0.802,0.169-1.605-0.352-1.774-1.163
			c-0.169-0.811,0.352-1.605,1.163-1.774c8.105-1.689,99.203,4.616,103.077,4.886c0.755,0.052,1.353,0.659,1.394,1.416
			c0.037,0.704-0.42,1.332-1.085,1.522c8.469-0.768,17.091-1.503,24.905-2.122c-21.613-2.681-70.077-4.956-90.883-5.734
			c-0.828-0.031-1.475-0.728-1.443-1.555c0.03-0.828,0.754-1.479,1.555-1.443c9.584,0.358,93.878,3.634,102.375,8.083
			c0.594,0.312,0.909,0.979,0.772,1.636c-0.137,0.656-0.693,1.142-1.362,1.189c-26.51,1.894-62.891,5.353-76.155,7.132l-5.246,0.936
			C718.842,586.492,718.753,586.5,718.666,586.5z"/>
	</g>
	<g>
		<path fill="#0094AC" d="M726.331,618.306c-0.717,0-1.352-0.516-1.477-1.247c-0.14-0.816,0.409-1.592,1.226-1.731
			c22.547-3.861,59.302-10.777,62.448-12.985c0.486-0.569,1.336-0.697,1.974-0.27c0.688,0.461,0.872,1.393,0.411,2.081
			c-0.598,0.893-1.599,2.385-33.38,8.501c-15.42,2.967-30.794,5.604-30.947,5.63C726.501,618.299,726.415,618.306,726.331,618.306z"
			/>
	</g>
	<g>
		<path fill="#0094AC" d="M816.913,615.5c-0.241,0-0.485-0.058-0.712-0.181c-2.005-1.083-8.452-1.515-12.046-1.533
			c-0.828-0.004-1.496-0.679-1.492-1.508c0.004-0.825,0.675-1.492,1.5-1.492c0.002,0,0.005,0,0.007,0
			c1.028,0.005,10.137,0.101,13.457,1.895c0.729,0.394,1.001,1.304,0.606,2.032C817.963,615.215,817.446,615.5,816.913,615.5z"/>
	</g>
	<g>
		<path fill="#0094AC" d="M799.89,637.5c-0.244,0-0.49-0.06-0.716-0.182c-2.899-1.577-7.359-2.479-10.616-3.137
			c-4.071-0.823-5.757-1.164-5.973-2.758c-0.067-0.491,0.021-1.417,1.355-2.095c2.635-1.336,15.945-4.208,31.767-7.545
			c1.308-0.276,2.553-0.539,3.712-0.784c-1.214-0.419-2.747-0.83-4.24-1.108c-0.814-0.152-1.352-0.936-1.199-1.75
			s0.933-1.353,1.75-1.199c5.699,1.063,8.693,2.626,8.899,4.646c0.077,0.761-0.429,1.457-1.176,1.618
			c-1.955,0.423-4.408,0.939-7.127,1.514c-8.658,1.826-22.048,4.65-28.126,6.328c0.322,0.066,0.645,0.131,0.951,0.193
			c2.088,0.422,4.644,0.938,7.067,1.68l-0.151-0.244c-0.248-0.401-0.294-0.896-0.122-1.335s0.54-0.772,0.994-0.899
			c1.01-0.282,24.85-6.93,35.792-8.918c0.818-0.149,1.596,0.393,1.744,1.207c0.148,0.815-0.393,1.597-1.207,1.744
			c-9.025,1.641-27.582,6.67-33.597,8.323l1.494,2.411c0.358,0.578,0.282,1.325-0.186,1.82
			C800.69,637.338,800.293,637.5,799.89,637.5z"/>
	</g>
	<g>
		<path fill="#0094AC" d="M816.914,649.834c-0.179,0-0.359-0.031-0.535-0.099c-9.848-3.762-44.429-2.583-44.776-2.569
			c-0.872,0.055-1.523-0.618-1.553-1.445c-0.029-0.828,0.618-1.523,1.445-1.553c1.448-0.052,35.544-1.213,45.954,2.765
			c0.774,0.296,1.162,1.163,0.866,1.937C818.087,649.467,817.518,649.834,816.914,649.834z"/>
	</g>
	<g>
		<path fill="#0094AC" d="M709.009,663.167c-0.574,0-1.123-0.331-1.371-0.89c-0.337-0.757,0.003-1.644,0.76-1.98
			c0.77-0.343,2.349-1.045,8.724-1.505c-1.278,0.026-2.016,0.047-2.079,0.048c-0.014,0.001-0.028,0.001-0.043,0.001
			c-0.809,0-1.476-0.644-1.498-1.458c-0.023-0.828,0.629-1.518,1.457-1.541c2.437-0.071,59.845-1.615,72.365,4.477
			c0.644,0.312,0.977,1.036,0.795,1.729s-0.839,1.158-1.54,1.117c-18.949-1.129-69.713-3.352-76.96-0.127
			C709.42,663.126,709.213,663.167,709.009,663.167z"/>
	</g>
	<g>
		<path fill="#0094AC" d="M815.456,677.591c-0.049,0-0.098-0.002-0.146-0.007l-42.121-4.09c-0.769-0.075-1.354-0.721-1.355-1.492
			s0.585-1.418,1.353-1.494l16.923-1.667c-23.207-0.243-60.53,0.437-83.071,0.993c-0.013,0-0.025,0-0.038,0
			c-0.811,0-1.479-0.647-1.499-1.463c-0.02-0.828,0.635-1.517,1.463-1.537c3.863-0.096,94.726-2.31,103.947,0.047
			c0.706,0.18,1.18,0.841,1.125,1.567c-0.056,0.726-0.624,1.307-1.349,1.379l-21.947,2.163l26.859,2.607
			c0.825,0.08,1.429,0.813,1.349,1.638C816.872,677.011,816.219,677.591,815.456,677.591z"/>
	</g>
	<g>
		<path fill="#0094AC" d="M695.456,733.382c-2.846,0-5.077-0.068-6.491-0.224c-0.823-0.091-1.417-0.832-1.327-1.655
			c0.091-0.823,0.828-1.415,1.655-1.327c9.435,1.038,58.454-2.03,78.443-3.352c-9.327-1.277-25.9-2.292-41.44-2.68
			c-0.828-0.021-1.483-0.709-1.463-1.537s0.701-1.46,1.537-1.463c0.119,0.004,12.003,0.306,24.06,1.084
			c25.064,1.619,26.417,3.606,27.144,4.675c0.302,0.444,0.344,1.016,0.109,1.499c-0.234,0.482-0.709,0.804-1.245,0.841
			C773.725,729.434,717.007,733.382,695.456,733.382z"/>
	</g>
	<g>
		<path fill="#0094AC" d="M794.232,730.501c-0.512,0-1.011-0.263-1.291-0.735c-0.423-0.712-0.188-1.633,0.525-2.055l8.211-4.867
			l-5.685,1.265c-0.76,0.169-1.525-0.272-1.758-1.018c-0.232-0.744,0.145-1.543,0.867-1.836c2.276-0.924,22.356-9.029,26.492-9.228
			c0.819-0.031,1.531,0.599,1.57,1.426c0.04,0.828-0.599,1.53-1.426,1.57c-1.352,0.065-5.429,1.388-10.265,3.138
			c0.199,0.158,0.359,0.369,0.459,0.62c0.271,0.686,0.005,1.467-0.63,1.843l-16.308,9.667
			C794.757,730.434,794.493,730.501,794.232,730.501z"/>
	</g>
	<g>
		<path fill="#0094AC" d="M838.667,710.09h-11.334c-0.474,0-0.919-0.224-1.202-0.603s-0.37-0.87-0.236-1.323l3.334-11.257
			c0.235-0.795,1.078-1.245,1.864-1.013c0.795,0.235,1.248,1.07,1.013,1.864l-2.764,9.331h9.325c0.828,0,1.5,0.672,1.5,1.5
			S839.495,710.09,838.667,710.09z"/>
	</g>
	<g>
		<path fill="#0094AC" d="M827.334,710.09c-0.454,0-0.903-0.206-1.198-0.597c-0.499-0.661-0.367-1.602,0.294-2.101
			c0.144-0.108,14.618-10.998,34.528-23.372c18.404-11.437,45.365-26.526,69.291-33.461c0.794-0.233,1.628,0.227,1.858,1.022
			s-0.228,1.628-1.022,1.858c-23.599,6.84-50.3,21.791-68.543,33.128c-19.797,12.303-34.163,23.111-34.306,23.219
			C827.966,709.991,827.648,710.09,827.334,710.09z"/>
	</g>
	<g>
		<path fill="#0094AC" d="M840.669,658.841c-0.044,0-0.089-0.002-0.134-0.006l-13.334-1.174c-0.545-0.048-1.021-0.389-1.241-0.89
			s-0.15-1.082,0.182-1.517l5.998-7.833c0.505-0.658,1.445-0.782,2.104-0.279c0.657,0.504,0.782,1.445,0.279,2.104l-4.339,5.666
			l10.615,0.935c0.825,0.072,1.435,0.801,1.362,1.626C842.093,658.253,841.438,658.841,840.669,658.841z"/>
	</g>
	<g>
		<path fill="#0094AC" d="M829.235,656.666c-0.586,0-1.142-0.345-1.384-0.918c-0.321-0.764,0.037-1.643,0.801-1.965
			c0.15-0.062,15.231-6.389,34.52-12.383c25.973-8.071,46.806-11.733,61.911-10.898c0.827,0.046,1.461,0.754,1.415,1.581
			c-0.046,0.826-0.739,1.436-1.581,1.415c-14.539-0.812-35.571,2.911-60.827,10.759c-19.154,5.951-34.124,12.229-34.273,12.292
			C829.626,656.629,829.429,656.666,829.235,656.666z"/>
	</g>
	<g>
		<path fill="#0094AC" d="M866.001,596.666c-0.513,0-1.013-0.264-1.293-0.737l-6-10.166c-0.262-0.445-0.277-0.993-0.04-1.451
			c0.236-0.459,0.693-0.764,1.207-0.807l12-1.001c0.831-0.054,1.552,0.544,1.62,1.37s-0.545,1.551-1.37,1.62l-9.618,0.802
			l4.785,8.107c0.421,0.714,0.184,1.634-0.529,2.055C866.523,596.599,866.261,596.666,866.001,596.666z"/>
	</g>
	<g>
		<path fill="#0094AC" d="M926.999,606.167c-0.192,0-0.389-0.037-0.577-0.116c-2.577-1.077-48.633-14.037-66.162-18.94
			c-0.798-0.223-1.264-1.051-1.04-1.849c0.224-0.797,1.049-1.264,1.849-1.04c2.58,0.722,63.236,17.692,66.51,19.062
			c0.765,0.319,1.125,1.198,0.806,1.962C928.144,605.82,927.586,606.167,926.999,606.167z"/>
	</g>
	<g>
		<path fill="#0094AC" d="M969.066,614.272h2.88v24.192h-2.88V614.272z"/>
		<path fill="#0094AC" d="M978.697,631.937c0,0.662,0.145,1.265,0.433,1.809s0.666,1.008,1.136,1.392
			c0.469,0.384,1.013,0.684,1.632,0.896s1.259,0.319,1.92,0.319c0.896,0,1.675-0.208,2.336-0.624s1.27-0.965,1.824-1.647
			l2.176,1.664c-1.6,2.069-3.84,3.104-6.72,3.104c-1.195,0-2.277-0.203-3.248-0.607c-0.971-0.405-1.792-0.966-2.464-1.681
			c-0.672-0.714-1.189-1.557-1.552-2.527c-0.363-0.971-0.544-2.021-0.544-3.152s0.196-2.181,0.592-3.152
			c0.395-0.97,0.938-1.812,1.632-2.527s1.521-1.274,2.48-1.681c0.96-0.404,2.005-0.607,3.136-0.607c1.344,0,2.479,0.234,3.408,0.704
			c0.928,0.469,1.69,1.083,2.288,1.84c0.597,0.757,1.028,1.61,1.296,2.56c0.267,0.95,0.399,1.915,0.399,2.896v1.023H978.697z
			 M987.786,629.633c-0.021-0.64-0.123-1.227-0.305-1.76s-0.453-0.997-0.815-1.393c-0.363-0.395-0.816-0.704-1.36-0.928
			s-1.179-0.336-1.904-0.336c-0.704,0-1.35,0.134-1.936,0.4c-0.587,0.267-1.083,0.613-1.488,1.04s-0.72,0.901-0.943,1.424
			c-0.225,0.522-0.337,1.04-0.337,1.552H987.786z"/>
		<path fill="#0094AC" d="M994.378,625.153c0.811-0.747,1.749-1.307,2.815-1.681c1.066-0.373,2.134-0.56,3.2-0.56
			c1.109,0,2.064,0.139,2.864,0.416s1.456,0.65,1.968,1.12c0.512,0.469,0.891,1.008,1.136,1.615
			c0.245,0.608,0.368,1.243,0.368,1.904v7.744c0,0.533,0.011,1.024,0.032,1.472c0.021,0.448,0.053,0.875,0.096,1.28h-2.56
			c-0.064-0.768-0.096-1.536-0.096-2.304h-0.064c-0.64,0.981-1.397,1.675-2.272,2.08c-0.875,0.404-1.888,0.607-3.039,0.607
			c-0.704,0-1.377-0.096-2.017-0.288c-0.64-0.191-1.2-0.479-1.68-0.863c-0.48-0.385-0.859-0.859-1.136-1.425
			c-0.278-0.564-0.416-1.221-0.416-1.968c0-0.98,0.218-1.803,0.655-2.464s1.035-1.2,1.792-1.616s1.643-0.714,2.656-0.896
			c1.013-0.182,2.096-0.272,3.248-0.272h2.112v-0.64c0-0.384-0.075-0.769-0.225-1.152s-0.373-0.73-0.672-1.04
			c-0.299-0.309-0.672-0.555-1.12-0.735c-0.447-0.182-0.981-0.272-1.6-0.272c-0.555,0-1.04,0.054-1.456,0.16
			s-0.795,0.24-1.136,0.399c-0.342,0.16-0.651,0.348-0.929,0.561c-0.277,0.214-0.544,0.416-0.8,0.608L994.378,625.153z
			 M1002.506,631.169c-0.684,0-1.382,0.037-2.096,0.112c-0.716,0.074-1.366,0.219-1.952,0.432c-0.587,0.214-1.067,0.512-1.44,0.896
			c-0.373,0.385-0.56,0.875-0.56,1.473c0,0.875,0.293,1.504,0.88,1.888c0.586,0.384,1.381,0.576,2.384,0.576
			c0.789,0,1.461-0.133,2.016-0.4c0.555-0.267,1.003-0.612,1.345-1.04c0.341-0.426,0.586-0.9,0.735-1.424
			c0.149-0.522,0.225-1.04,0.225-1.552v-0.96H1002.506z"/>
		<path fill="#0094AC" d="M1010.922,623.297h2.88v2.336h0.064c0.191-0.405,0.448-0.773,0.768-1.104
			c0.32-0.331,0.678-0.613,1.072-0.849c0.395-0.234,0.826-0.421,1.296-0.56c0.469-0.139,0.938-0.208,1.408-0.208
			c0.469,0,0.896,0.063,1.28,0.191l-0.128,3.104c-0.235-0.064-0.47-0.117-0.704-0.16c-0.235-0.043-0.47-0.064-0.704-0.064
			c-1.408,0-2.485,0.396-3.232,1.185s-1.12,2.016-1.12,3.68v7.616h-2.88V623.297z"/>
		<path fill="#0094AC" d="M1022.762,623.297h2.88v2.336h0.064c0.362-0.811,0.992-1.467,1.888-1.968
			c0.896-0.501,1.931-0.752,3.104-0.752c0.725,0,1.424,0.111,2.096,0.336c0.672,0.224,1.259,0.571,1.76,1.04
			c0.501,0.47,0.901,1.072,1.2,1.808c0.299,0.736,0.448,1.605,0.448,2.608v9.76h-2.88v-8.96c0-0.704-0.097-1.307-0.288-1.808
			c-0.192-0.501-0.448-0.907-0.769-1.217c-0.319-0.309-0.688-0.532-1.104-0.672c-0.416-0.139-0.849-0.208-1.296-0.208
			c-0.598,0-1.152,0.097-1.664,0.288c-0.513,0.192-0.96,0.496-1.344,0.912c-0.385,0.416-0.684,0.944-0.896,1.584
			c-0.214,0.64-0.32,1.397-0.32,2.272v7.808h-2.88V623.297z"/>
	</g>
</g>
</svg>
