<?xml version="1.0" encoding="utf-8"?>
<!-- Generator: Adobe Illustrator 16.0.0, SVG Export Plug-In . SVG Version: 6.00 Build 0)  -->
<!DOCTYPE svg PUBLIC "-//W3C//DTD SVG 1.1//EN" "http://www.w3.org/Graphics/SVG/1.1/DTD/svg11.dtd">
<svg version="1.1" id="Ebene_1" xmlns="http://www.w3.org/2000/svg" xmlns:xlink="http://www.w3.org/1999/xlink" x="0px" y="0px"
	 width="215.25px" height="50.25px" viewBox="7.625 0 215.25 50.25" enable-background="new 7.625 0 215.25 50.25"
	 xml:space="preserve">
<g id="Ebene_2">
	
		<rect x="178.24" y="8.868" transform="matrix(-0.6994 0.7148 -0.7148 -0.6994 338.5889 -100.3571)" stroke="#000000" stroke-width="2" stroke-linecap="round" stroke-linejoin="round" stroke-miterlimit="10" width="24.32" height="24.32"/>
	
		<rect x="24.182" y="8.945" transform="matrix(-0.6994 0.7148 -0.7148 -0.6994 76.5227 9.7591)" fill="#F7941E" stroke="#F7941E" stroke-width="2" stroke-linecap="round" stroke-linejoin="round" stroke-miterlimit="10" width="24.054" height="24.055"/>
	
		<polyline fill="none" stroke="#000000" stroke-width="2" stroke-linecap="round" stroke-linejoin="round" stroke-miterlimit="10" points="
		213.916,36.417 218.375,41.417 11.625,41.417 	"/>
	
		<line fill="none" stroke="#000000" stroke-width="2" stroke-linecap="round" stroke-linejoin="round" stroke-miterlimit="10" x1="214.378" y1="46.25" x2="218.375" y2="41.417"/>
</g>
<g id="Ebene_3">
	<g>
		<g>
			<path fill="#F7941E" d="M167.877,9.376c-0.807,1.003-2.038,1.882-2.507,3.108c-0.12,0.312,0.017,0.753,0.257,0.973
				c1.077,0.979,2.561,1.403,3.939,1.757c1.25,0.321,1.781-1.608,0.531-1.929c-1.012-0.26-2.261-0.519-3.058-1.243
				c0.086,0.324,0.172,0.648,0.257,0.973c-0.076,0.204,0.172-0.192,0.176-0.198c0.211-0.256,0.439-0.499,0.666-0.742
				c0.391-0.423,0.791-0.836,1.151-1.285C170.091,9.795,168.686,8.371,167.877,9.376L167.877,9.376z"/>
		</g>
	</g>
	<g>
		<g>
			<path fill="#F7941E" d="M176.996,9.137c-2.848,1.283-5.914,1.887-8.996,2.28c-1.262,0.161-1.277,2.163,0,2
				c3.459-0.44,6.812-1.114,10.006-2.553C179.18,10.334,178.162,8.611,176.996,9.137L176.996,9.137z"/>
		</g>
	</g>
	<g>
		<g>
			<path fill="#F7941E" d="M180,10.25c1.29,0,1.29-2,0-2S178.71,10.25,180,10.25L180,10.25z"/>
		</g>
	</g>
	<g>
		<g>
			<path fill="#F7941E" d="M182,35.25c1.29,0,1.29-2,0-2S180.71,35.25,182,35.25L182,35.25z"/>
		</g>
	</g>
	<g>
		<g>
			<path fill="#F7941E" d="M186.5,36.417c1.29,0,1.29-2,0-2S185.21,36.417,186.5,36.417L186.5,36.417z"/>
		</g>
	</g>
	<g>
		<g>
			<path fill="#F7941E" d="M175.171,31.887c-1.883-1.291-4.36-1.429-6.487-2.101c-1.233-0.39-1.758,1.541-0.531,1.928
				c1.953,0.617,4.287,0.718,6.01,1.899C175.229,34.346,176.227,32.611,175.171,31.887L175.171,31.887z"/>
		</g>
	</g>
	<g>
		<g>
			<path fill="#F7941E" d="M169.922,32.137c-0.826-0.613-1.418-1.527-2.131-2.261c-0.066,0.522-0.135,1.047-0.202,1.569
				c0.931-0.443,1.949-0.664,2.927-0.981c1.223-0.396,0.699-2.327-0.531-1.928c-1.147,0.372-2.311,0.661-3.404,1.185
				c-0.596,0.283-0.622,1.139-0.202,1.569c0.849,0.872,1.552,1.843,2.535,2.573c0.438,0.326,1.114,0.072,1.368-0.358
				C170.579,32.995,170.357,32.461,169.922,32.137L169.922,32.137z"/>
		</g>
	</g>
	<g>
		<g>
			<path fill="#F7941E" d="M170.166,24.917c1.29,0,1.29-2,0-2S168.876,24.917,170.166,24.917L170.166,24.917z"/>
		</g>
	</g>
	<g>
		<g>
			<path fill="#F7941E" d="M166.166,25.25c1.29,0,1.29-2,0-2S164.876,25.25,166.166,25.25L166.166,25.25z"/>
		</g>
	</g>
	<g>
		<g>
			<path fill="#F7941E" d="M162.833,22.917c-2.271-0.256-4.56-0.134-6.833-0.333c-1.285-0.113-1.273,1.888,0,2
				c2.273,0.199,4.562,0.077,6.833,0.333C164.113,25.062,164.1,23.06,162.833,22.917L162.833,22.917z"/>
		</g>
	</g>
	<g>
		<g>
			<path fill="#F7941E" d="M158.671,24.72c-0.933-0.474-1.782-1.04-2.464-1.843c-0.354-0.417-1.053-0.362-1.414,0
				c-0.409,0.409-0.354,0.999,0,1.415c0.777,0.918,1.801,1.612,2.868,2.155C158.809,27.029,159.82,25.304,158.671,24.72
				L158.671,24.72z"/>
		</g>
	</g>
	<g>
		<g>
			<path fill="#F7941E" d="M157.661,20.887c-0.871,0.496-1.574,1.266-2.5,1.667c-0.501,0.216-0.608,0.941-0.358,1.368
				c0.301,0.513,0.867,0.575,1.368,0.359c0.927-0.4,1.629-1.171,2.5-1.667C159.791,21.976,158.784,20.248,157.661,20.887
				L157.661,20.887z"/>
		</g>
	</g>
	<g>
		<g>
			<path fill="#F7941E" d="M168.833,19.75c1.29,0,1.29-2,0-2S167.543,19.75,168.833,19.75L168.833,19.75z"/>
		</g>
	</g>
	<g>
		<g>
			<path fill="#F7941E" d="M162.666,20.583c1.29,0,1.29-2,0-2S161.376,20.583,162.666,20.583L162.666,20.583z"/>
		</g>
	</g>
	<g>
		<g>
			<path fill="#F7941E" d="M151.166,21.917c1.29,0,1.29-2,0-2S149.876,21.917,151.166,21.917L151.166,21.917z"/>
		</g>
	</g>
	<g>
		<g>
			<path fill="#F7941E" d="M188.333,17.417c1.29,0,1.29-2,0-2S187.043,17.417,188.333,17.417L188.333,17.417z"/>
		</g>
	</g>
	<g>
		<g>
			<path fill="#F7941E" d="M177.333,20.25c1.29,0,1.29-2,0-2S176.043,20.25,177.333,20.25L177.333,20.25z"/>
		</g>
	</g>
	<g>
		<g>
			<path fill="#F7941E" d="M174,19.75c-0.057,0-0.111,0-0.167,0c-1.29,0-1.29,2,0,2c0.056,0,0.11,0,0.167,0
				C175.29,21.75,175.29,19.75,174,19.75L174,19.75z"/>
		</g>
	</g>
	<g>
		<g>
			<path fill="#F7941E" d="M169.666,22.583c1.29,0,1.29-2,0-2S168.376,22.583,169.666,22.583L169.666,22.583z"/>
		</g>
	</g>
	<g>
		<g>
			<path fill="#F7941E" d="M179,28.25c1.29,0,1.29-2,0-2S177.71,28.25,179,28.25L179,28.25z"/>
		</g>
	</g>
	<g>
		<g>
			<path fill="#F7941E" d="M174.166,27.917c1.29,0,1.29-2,0-2S172.876,27.917,174.166,27.917L174.166,27.917z"/>
		</g>
	</g>
	<g>
		<g>
			<path fill="#F7941E" d="M152.666,27.083c1.29,0,1.29-2,0-2S151.376,27.083,152.666,27.083L152.666,27.083z"/>
		</g>
	</g>
	<g>
		<g>
			<path fill="#F7941E" d="M138.666,25.917c1.29,0,1.29-2,0-2S137.376,25.917,138.666,25.917L138.666,25.917z"/>
		</g>
	</g>
	<g>
		<g>
			<path fill="#F7941E" d="M112.333,24.584c1.29,0,1.29-2,0-2S111.043,24.584,112.333,24.584L112.333,24.584z"/>
		</g>
	</g>
	<g>
		<g>
			<path fill="#F7941E" d="M103.833,24.584c1.29,0,1.29-2,0-2S102.543,24.584,103.833,24.584L103.833,24.584z"/>
		</g>
	</g>
	<g>
		<g>
			<path fill="#F7941E" d="M96.666,23.583c1.29,0,1.29-2,0-2S95.376,23.583,96.666,23.583L96.666,23.583z"/>
		</g>
	</g>
	<g>
		<g>
			<path fill="#F7941E" d="M85.5,23.583c1.29,0,1.29-2,0-2S84.21,23.583,85.5,23.583L85.5,23.583z"/>
		</g>
	</g>
	<g>
		<g>
			<path fill="#F7941E" d="M72.166,23.083c1.29,0,1.29-2,0-2S70.876,23.083,72.166,23.083L72.166,23.083z"/>
		</g>
	</g>
	<g>
		<g>
			<path fill="#F7941E" d="M63.333,21.25c-2.692-0.018-5.305-0.07-7.847,0.952c-1.181,0.475-0.666,2.41,0.531,1.929
				c2.387-0.96,4.793-0.897,7.316-0.881C64.623,23.258,64.622,21.258,63.333,21.25L63.333,21.25z"/>
		</g>
	</g>
	<g>
		<g>
			<path fill="#F7941E" d="M55.802,20.579c-0.508,0.774-0.958,1.581-1.5,2.333c-0.319,0.443-0.078,1.113,0.358,1.369
				c0.504,0.295,1.05,0.082,1.368-0.359c0.542-0.751,0.992-1.559,1.5-2.333C58.238,20.506,56.506,19.505,55.802,20.579
				L55.802,20.579z"/>
		</g>
	</g>
	<g>
		<g>
			<path fill="#F7941E" d="M58.098,23.453c-0.901-0.315-1.719-0.82-2.667-1c-0.535-0.102-1.077,0.142-1.23,0.699
				c-0.136,0.493,0.163,1.128,0.699,1.23c0.944,0.18,1.766,0.686,2.667,1C58.787,25.809,59.308,23.876,58.098,23.453L58.098,23.453z
				"/>
		</g>
	</g>
	<g>
		<g>
			<path fill="#F7941E" d="M54.833,18.083c1.29,0,1.29-2,0-2S53.543,18.083,54.833,18.083L54.833,18.083z"/>
		</g>
	</g>
	<g>
		<g>
			<path fill="#F7941E" d="M51,14.917c1.29,0,1.29-2,0-2S49.71,14.917,51,14.917L51,14.917z"/>
		</g>
	</g>
	<g>
		<g>
			<path fill="#F7941E" d="M63.333,19.75c1.29,0,1.29-2,0-2S62.043,19.75,63.333,19.75L63.333,19.75z"/>
		</g>
	</g>
	<g>
		<g>
			<path fill="#F7941E" d="M46,32.583c1.29,0,1.29-2,0-2S44.71,32.583,46,32.583L46,32.583z"/>
		</g>
	</g>
	<g>
		<g>
			<path fill="#F7941E" d="M50.666,28.417c1.29,0,1.29-2,0-2S49.376,28.417,50.666,28.417L50.666,28.417z"/>
		</g>
	</g>
	<g>
		<g>
			<path fill="#F7941E" d="M55.833,27.583c1.29,0,1.29-2,0-2S54.543,27.583,55.833,27.583L55.833,27.583z"/>
		</g>
	</g>
	<g>
		<g>
			<path fill="#F7941E" d="M55.166,31.75c1.29,0,1.29-2,0-2S53.876,31.75,55.166,31.75L55.166,31.75z"/>
		</g>
	</g>
	<g>
		<g>
			<path fill="#F7941E" d="M61.833,25.417c1.29,0,1.29-2,0-2S60.543,25.417,61.833,25.417L61.833,25.417z"/>
		</g>
	</g>
	<g>
		<g>
			<path fill="#F7941E" d="M76,26.417c1.29,0,1.29-2,0-2S74.71,26.417,76,26.417L76,26.417z"/>
		</g>
	</g>
	<g>
		<g>
			<path fill="#F7941E" d="M46.666,11.083c1.29,0,1.29-2,0-2S45.376,11.083,46.666,11.083L46.666,11.083z"/>
		</g>
	</g>
	<g>
		<g>
			<path fill="#F7941E" d="M74.833,19.583c1.29,0,1.29-2,0-2S73.543,19.583,74.833,19.583L74.833,19.583z"/>
		</g>
	</g>
	<g>
		<g>
			<path fill="#F7941E" d="M106.333,24.25c1.29,0,1.29-2,0-2S105.043,24.25,106.333,24.25L106.333,24.25z"/>
		</g>
	</g>
	<g>
		<g>
			<path fill="#F7941E" d="M160.333,30.417c1.29,0,1.29-2,0-2S159.043,30.417,160.333,30.417L160.333,30.417z"/>
		</g>
	</g>
	<g>
		<g>
			<path fill="#F7941E" d="M181,13.583c1.29,0,1.29-2,0-2S179.71,13.583,181,13.583L181,13.583z"/>
		</g>
	</g>
	<g>
		<g>
			<path fill="#F7941E" d="M164.5,21.583c1.29,0,1.29-2,0-2S163.21,21.583,164.5,21.583L164.5,21.583z"/>
		</g>
	</g>
</g>
</svg>
