<?xml version="1.0" encoding="UTF-8" standalone="no"?>
<!-- Generator: Adobe Illustrator 16.0.0, SVG Export Plug-In . SVG Version: 6.00 Build 0)  -->

<svg
   xmlns:dc="http://purl.org/dc/elements/1.1/"
   xmlns:cc="http://creativecommons.org/ns#"
   xmlns:rdf="http://www.w3.org/1999/02/22-rdf-syntax-ns#"
   xmlns:svg="http://www.w3.org/2000/svg"
   xmlns="http://www.w3.org/2000/svg"
   xmlns:xlink="http://www.w3.org/1999/xlink"
   xmlns:sodipodi="http://sodipodi.sourceforge.net/DTD/sodipodi-0.dtd"
   xmlns:inkscape="http://www.inkscape.org/namespaces/inkscape"
   version="1.1"
   x="0px"
   y="0px"
   width="602.667px"
   height="380.981px"
   viewBox="0 0 602.667 380.981"
   enable-background="new 0 0 602.667 380.981"
   xml:space="preserve"
   id="svg4282"
   sodipodi:docname="ProdServ_INTACT_mobileV2.svg"
   inkscape:version="0.92.3 (unknown)"><metadata
   id="metadata4288"><rdf:RDF><cc:Work
       rdf:about=""><dc:format>image/svg+xml</dc:format><dc:type
         rdf:resource="http://purl.org/dc/dcmitype/StillImage" /><dc:title></dc:title></cc:Work></rdf:RDF></metadata><defs
   id="defs4286" /><sodipodi:namedview
   pagecolor="#ffffff"
   bordercolor="#666666"
   borderopacity="1"
   objecttolerance="10"
   gridtolerance="10"
   guidetolerance="10"
   inkscape:pageopacity="0"
   inkscape:pageshadow="2"
   inkscape:window-width="1855"
   inkscape:window-height="1056"
   id="namedview4284"
   showgrid="false"
   inkscape:zoom="0.4861723"
   inkscape:cx="301.3335"
   inkscape:cy="190.49049"
   inkscape:window-x="3905"
   inkscape:window-y="24"
   inkscape:window-maximized="1"
   inkscape:current-layer="svg4282" />
<g
   id="Ebene_10">
</g>
<g
   id="Ebene_4"
   transform="matrix(0.91636859,0,0,0.92164746,54.053008,-5.1237562)">
	<g
   id="Ebene_9_1_">
		<path
   d="m 39.435,247.273 c 0,0 -22.893,49.874 -28.649,71.138 -3.798,14.032 -4.443,54.57 -3.469,56.908 0.974,2.34 60.757,12.638 96.422,-2.563 0,0 0.011,-7.376 0.011,-9.909 0,-2.532 -2.729,-5.262 -6.236,-6.82 2.376,1.314 5.064,-1.087 4.773,-2.786 -0.471,-2.75 0.294,-7.934 -2.824,-8.323 -3.118,-0.39 0,-1.754 0.975,-2.338 0.974,-0.585 -1.364,-6.237 -2.339,-7.406 -0.974,-1.169 -0.584,-4.093 -1.169,-6.82 -0.584,-2.729 -1.364,-7.602 -4.872,-14.265 -2.347,-4.455 -0.195,-24.521 6.626,-36.994 -1.364,0 -7.016,1.561 -33.911,-10.523 -12.281,-5.266 -25.338,-19.299 -25.338,-19.299 z"
   id="path4130"
   inkscape:connector-curvature="0"
   style="fill:#020000" />
		<path
   d="m 106.38,261.598 c 0,0 -0.194,7.698 -3.605,7.503 -1.169,1.364 0.487,5.264 -2.631,5.264 -3.118,0 5.75,5.358 -12.765,1.753 -28.81,-7.914 -43.783,-23.84 -50.478,-31.183 0,0 -2.534,-5.263 1.949,-5.847 4.482,-0.585 0.584,-3.119 0.584,-3.119 0,0 -2.144,-4.093 5.067,-6.042 -1.364,-1.363 -4.775,-5.979 -0.682,-7.148 4.093,-1.169 6.236,-2.205 5.554,-3.473 0,0 -1.049,-4.816 2.433,-4.736 7.575,5.929 50.429,35.752 60.697,42.846 0,0 -2.364,0.364 -3.493,2.722 0,0 0.097,1.462 -1.267,1.462"
   id="path4132"
   inkscape:connector-curvature="0"
   style="fill:#f7941e" />
		<path
   d="m 161.171,274.653 c 0,0 -0.825,1.8 -1.346,2.062 0,0 -10.275,1.061 -29.57,-7.612 0,0 -30.793,-12.862 -87.409,-57.492 -20.873,-16.454 -28.486,-26.537 -32.645,-39.272 0.954,-1.604 1.026,-1.763 1.418,-2.333"
   id="path4134"
   inkscape:connector-curvature="0"
   style="fill:#020000" />
		<path
   d="m 24.038,190.949 c 0,0 39.25,43.724 113.298,79.389 21.309,10.135 30.922,6.313 19.229,-4.99 C 144.871,254.043 104.907,218.821 42.932,183.74 21.883,172.047 8.771,164.37 11.76,173.118 c 2.674,7.828 10.837,16.512 12.278,17.831 z"
   id="path4136"
   inkscape:connector-curvature="0"
   style="fill:#020000" />
		<path
   d="m 65.356,208.091 c 0,0 -6.988,-2.729 -1.726,1.949 5.262,4.677 45.935,34.105 51.423,34.105 3.118,0 -4.135,-5.521 -17.672,-15.606 -6.444,-4.802 -17.29,-12.495 -32.025,-20.448 z"
   id="path4138"
   inkscape:connector-curvature="0" />
	</g>
	<g
   id="Test_Cases_links">
		
			<path
   stroke-miterlimit="10"
   d="m 70.273,143.234 c 3.409,7.991 30.671,58.734 23.552,76.758 -1.512,4.766 -5.209,4.293 -14.421,-9.659 10.604,-17.849 -7.33,-36.411 -24.871,-53.868 30.155,-17.883 8.234,-13.824 8.234,-13.824 0,0 1.793,1.808 2.916,6.536"
   id="path4141"
   inkscape:connector-curvature="0"
   style="fill:#ffffff;stroke:#000000;stroke-width:2.17359996;stroke-linecap:round;stroke-linejoin:round;stroke-miterlimit:10" />
		
			<path
   stroke-miterlimit="10"
   d="m 116.667,202.402 c 0,0 7.823,-14.836 17.578,-12.169 10.422,-22 35.088,-61.333 54.422,-67.333 0,0 8.667,-18 -26.667,-26.667 -35.334,-8.667 -55.958,94.322 -45.333,106.169 z"
   id="path4143"
   inkscape:connector-curvature="0"
   style="fill:#ffffff;stroke:#000000;stroke-width:2.17359996;stroke-linecap:round;stroke-linejoin:round;stroke-miterlimit:10" />
		
			<path
   stroke-miterlimit="10"
   d="m 214.667,112.233 c 0,0 8.667,-29.333 0,-40 24,-8.667 85.333,-11.333 106,8.667 6,22 4,39.172 0,45.586 -9.334,-3.586 -59.334,-24.253 -106,-14.253 z"
   id="path4145"
   inkscape:connector-curvature="0"
   style="fill:#ffffff;stroke:#000000;stroke-width:2.17359996;stroke-linecap:round;stroke-linejoin:round;stroke-miterlimit:10" />
		
			<path
   stroke-miterlimit="10"
   d="m 402.71,137.348 c 36.623,0 65.363,47.885 55.018,65.218 -1.395,-21.164 -16.663,-1.999 -16.663,-1.999 0,0 -4.722,-49.039 -68.146,-45.706 1.081,-3.961 2.914,-5.802 4.735,-7.997"
   id="path4147"
   inkscape:connector-curvature="0"
   style="fill:#fcfcfc;stroke:#000000;stroke-width:2.17359996;stroke-linecap:round;stroke-linejoin:round;stroke-miterlimit:10" />
		
			<path
   stroke-miterlimit="10"
   d="m 450.928,192.803 c 0,0 4.572,3.859 6.8,9.764"
   id="path4149"
   inkscape:connector-curvature="0"
   style="fill:none;stroke:#000000;stroke-width:2.17359996;stroke-linecap:round;stroke-linejoin:round;stroke-miterlimit:10" />
		
			<path
   stroke-miterlimit="10"
   d="m 312.269,130.9 c 0,0 5.378,15.21 -8.622,26.543 56.875,6.79 126.026,-31.376 124.184,-42.043 C 417.322,104.067 403.39,92.199 389.39,90.716 380.723,101.9 343.684,131.153 312.269,130.9 Z"
   id="path4151"
   inkscape:connector-curvature="0"
   style="fill:#ffffff;stroke:#000000;stroke-width:2.17359996;stroke-linecap:round;stroke-linejoin:round;stroke-miterlimit:10" />
	</g>
	<g
   id="Sparcles">
		<g
   id="g4158">
			<g
   id="g4156">
				<path
   d="m 103.667,213.9 c 3.869,0 3.869,-6 0,-6 -3.869,0 -3.87,6 0,6 z"
   id="path4154"
   inkscape:connector-curvature="0"
   style="fill:#f7941e" />
			</g>
		</g>
		<g
   id="g4164">
			<g
   id="g4162">
				<path
   d="m 107.417,168.65 c 3.869,0 3.869,-6 0,-6 -3.869,0 -3.87,6 0,6 z"
   id="path4160"
   inkscape:connector-curvature="0"
   style="fill:#f7941e" />
			</g>
		</g>
		<g
   id="g4170">
			<g
   id="g4168">
				<path
   d="m 98.417,141.15 c 3.869,0 3.869,-6 0,-6 -3.869,0 -3.87,6 0,6 z"
   id="path4166"
   inkscape:connector-curvature="0"
   style="fill:#f7941e" />
			</g>
		</g>
		<g
   id="g4176">
			<g
   id="g4174">
				<path
   d="m 100.167,117.4 c 3.869,0 3.869,-6 0,-6 -3.869,0 -3.87,6 0,6 z"
   id="path4172"
   inkscape:connector-curvature="0"
   style="fill:#f7941e" />
			</g>
		</g>
		<g
   id="g4182">
			<g
   id="g4180">
				<path
   d="m 144.167,71.65 c 3.869,0 3.869,-6 0,-6 -3.869,0 -3.87,6 0,6 z"
   id="path4178"
   inkscape:connector-curvature="0"
   style="fill:#f7941e" />
			</g>
		</g>
		<g
   id="g4188">
			<g
   id="g4186">
				<path
   d="m 51.667,70.4 c 3.869,0 3.869,-6 0,-6 -3.869,0 -3.87,6 0,6 z"
   id="path4184"
   inkscape:connector-curvature="0"
   style="fill:#f7941e" />
			</g>
		</g>
		<g
   id="g4194">
			<g
   id="g4192">
				<path
   d="m 182.167,201.15 c 3.869,0 3.869,-6 0,-6 -3.869,0 -3.87,6 0,6 z"
   id="path4190"
   inkscape:connector-curvature="0"
   style="fill:#f7941e" />
			</g>
		</g>
	</g>
	<g
   id="Ebene_8">
		
			<path
   stroke-miterlimit="10"
   d="m 250,46.9 c 0,0 12,29.333 11.333,32.667 C 282,72.9 300.667,58.901 402.667,52.234 400.667,38.9 385.333,16.9 380,14.9 328.667,19.567 264.667,39.567 250,46.9 Z"
   id="path4197"
   inkscape:connector-curvature="0"
   style="fill:#ffffff;stroke:#000000;stroke-width:2.17359996;stroke-linecap:round;stroke-linejoin:round;stroke-miterlimit:10" />
		
			<path
   stroke-miterlimit="10"
   d="m 446.667,39.567 c 0,0 0.667,38.667 7.333,44 31.333,2 132.667,7.333 142,-16.667 -10,-16 -20.667,-28.667 -20.667,-28.667 0,0 -51.333,14.667 -128.666,1.334 z"
   id="path4199"
   inkscape:connector-curvature="0"
   style="fill:#ffffff;stroke:#000000;stroke-width:2.17359996;stroke-linecap:round;stroke-linejoin:round;stroke-miterlimit:10" />
		
			<path
   stroke-miterlimit="10"
   d="m 382.417,43.4 -3.75,-8 -13.333,2.833 c 0,0 8.67,5.347 -5.333,9.333 -10.833,3.083 -13.917,-1.25 -10.583,-3.917"
   id="path4201"
   inkscape:connector-curvature="0"
   style="fill:#ffffff;stroke:#000000;stroke-width:2.17359996;stroke-linecap:round;stroke-linejoin:round;stroke-miterlimit:10" />
		
			<path
   stroke-miterlimit="10"
   d="m 330,30.9 c 0,0 6.333,12 5.667,18"
   id="path4203"
   inkscape:connector-curvature="0"
   style="fill:#ffffff;stroke:#000000;stroke-width:2.17359996;stroke-linecap:round;stroke-linejoin:round;stroke-miterlimit:10" />
		
			<line
   stroke-miterlimit="10"
   x1="322"
   y1="32.900002"
   x2="325.66699"
   y2="42.400002"
   id="line4205"
   style="fill:#ffffff;stroke:#000000;stroke-width:2.17359996;stroke-linecap:round;stroke-linejoin:round;stroke-miterlimit:10" />
		
			<path
   stroke-miterlimit="10"
   d="m 314.667,34.15 c 0,0 6.167,10.5 5.5,18.5"
   id="path4207"
   inkscape:connector-curvature="0"
   style="fill:#ffffff;stroke:#000000;stroke-width:2.17359996;stroke-linecap:round;stroke-linejoin:round;stroke-miterlimit:10" />
		
			<path
   stroke-miterlimit="10"
   d="m 306.667,36.4 c 0,0 5.5,10.75 7,18.25"
   id="path4209"
   inkscape:connector-curvature="0"
   style="fill:#ffffff;stroke:#000000;stroke-width:2.17359996;stroke-linecap:round;stroke-linejoin:round;stroke-miterlimit:10" />
		
			<path
   stroke-miterlimit="10"
   d="m 298.667,39.15 c 0,0 3.75,10.25 3.75,17"
   id="path4211"
   inkscape:connector-curvature="0"
   style="fill:#ffffff;stroke:#000000;stroke-width:2.17359996;stroke-linecap:round;stroke-linejoin:round;stroke-miterlimit:10" />
		
			<path
   stroke-miterlimit="10"
   d="m 569.667,47.15 c 0,0 4.75,2.25 0.25,6.75 -4.5,4.5 -29.75,-2 -29.75,-2 l 4.5,9.5"
   id="path4213"
   inkscape:connector-curvature="0"
   style="fill:#ffffff;stroke:#000000;stroke-width:2.17359996;stroke-linecap:round;stroke-linejoin:round;stroke-miterlimit:10" />
		
			<path
   stroke-miterlimit="10"
   d="m 573.417,62.15 c 0,0 -25.443,2.753 -25.25,8.75 0.25,7.75 19.312,3.116 26.75,2 10,-1.5 10.5,-11 -1.5,-10.75 z"
   id="path4215"
   inkscape:connector-curvature="0"
   style="fill:#ffffff;stroke:#000000;stroke-width:2.17359996;stroke-linecap:round;stroke-linejoin:round;stroke-miterlimit:10" />
		
			<path
   stroke-miterlimit="10"
   d="m 525.167,54.15 c 0,0 3.5,19.25 6.25,25"
   id="path4217"
   inkscape:connector-curvature="0"
   style="fill:#ffffff;stroke:#000000;stroke-width:2.17359996;stroke-linecap:round;stroke-linejoin:round;stroke-miterlimit:10" />
		
			<path
   stroke-miterlimit="10"
   d="m 516.167,54.9 c 0,0 2.25,16.5 4.25,24"
   id="path4219"
   inkscape:connector-curvature="0"
   style="fill:#ffffff;stroke:#000000;stroke-width:2.17359996;stroke-linecap:round;stroke-linejoin:round;stroke-miterlimit:10" />
		
			<path
   stroke-miterlimit="10"
   d="m 505.667,54.4 c 0,0 1.75,12.25 2.75,17.25"
   id="path4221"
   inkscape:connector-curvature="0"
   style="fill:#ffffff;stroke:#000000;stroke-width:2.17359996;stroke-linecap:round;stroke-linejoin:round;stroke-miterlimit:10" />
		
			<path
   stroke-miterlimit="10"
   d="m 496.667,53.9 c 0,0 2,15 3.25,22.25"
   id="path4223"
   inkscape:connector-curvature="0"
   style="fill:#ffffff;stroke:#000000;stroke-width:2.17359996;stroke-linecap:round;stroke-linejoin:round;stroke-miterlimit:10" />
		
			<path
   stroke-miterlimit="10"
   d="m 486.417,53.4 c 0,0 -0.5,11.25 2,18.25"
   id="path4225"
   inkscape:connector-curvature="0"
   style="fill:#ffffff;stroke:#000000;stroke-width:2.17359996;stroke-linecap:round;stroke-linejoin:round;stroke-miterlimit:10" />
		<path
   stroke-miterlimit="10"
   d="m 142.254,124.905 c 0,0 3.531,-8.461 10.059,-3.75 6.528,4.711 -14.174,18.382 -18.48,25.49 3.593,-1.648 6.834,-0.288 9.453,-0.332"
   id="path4227"
   inkscape:connector-curvature="0"
   style="fill:none;stroke:#000000;stroke-width:2;stroke-linecap:round;stroke-linejoin:round;stroke-miterlimit:10" />
		<path
   stroke-miterlimit="10"
   d="m 162.057,123.476 -11.488,15.65 c 0,0 6.106,-0.267 10.069,2.8"
   id="path4229"
   inkscape:connector-curvature="0"
   style="fill:none;stroke:#000000;stroke-width:2;stroke-linecap:round;stroke-linejoin:round;stroke-miterlimit:10" />
		<path
   stroke-miterlimit="10"
   d="m 163.651,133.109 c 0,0 -8.624,6.177 -14.39,16.269"
   id="path4231"
   inkscape:connector-curvature="0"
   style="fill:none;stroke:#000000;stroke-width:2;stroke-linecap:round;stroke-linejoin:round;stroke-miterlimit:10" />
		<path
   stroke-miterlimit="10"
   d="m 126.167,159.456 c 0,0 16.25,-4.056 20.25,0.444"
   id="path4233"
   inkscape:connector-curvature="0"
   style="fill:none;stroke:#000000;stroke-width:2;stroke-linecap:round;stroke-linejoin:round;stroke-miterlimit:10" />
		<path
   stroke-miterlimit="10"
   d="m 124.417,167.444 c 0,0 11.875,-4.877 16.75,0"
   id="path4235"
   inkscape:connector-curvature="0"
   style="fill:none;stroke:#000000;stroke-width:2;stroke-linecap:round;stroke-linejoin:round;stroke-miterlimit:10" />
		<path
   stroke-miterlimit="10"
   d="m 122.167,177.4 c 0,0 11.666,-8.5 14.125,-3.333"
   id="path4237"
   inkscape:connector-curvature="0"
   style="fill:none;stroke:#000000;stroke-width:2;stroke-linecap:round;stroke-linejoin:round;stroke-miterlimit:10" />
		<path
   stroke-miterlimit="10"
   d="m 122.167,185.15 c 0,0 9.5,-9.5 11.666,-3.646"
   id="path4239"
   inkscape:connector-curvature="0"
   style="fill:none;stroke:#000000;stroke-width:2;stroke-linecap:round;stroke-linejoin:round;stroke-miterlimit:10" />
		<path
   stroke-miterlimit="10"
   d="m 301.667,78.4 c 0,0 8,7.75 0.5,10 -6.082,1.825 -18.5,-12.19 -18.5,-12.19 l -0.435,11.024"
   id="path4241"
   inkscape:connector-curvature="0"
   style="fill:none;stroke:#000000;stroke-width:2;stroke-linecap:round;stroke-linejoin:round;stroke-miterlimit:10" />
		<path
   stroke-miterlimit="10"
   d="m 303.647,99.592 c 0,0 3.5,4.059 0,5.559 -3.5,1.5 -7.98,0 -7.23,-5.25 -1,3.25 -2.75,7.75 -8,5 -5.25,-2.75 -9.25,-11.083 -3,-12.667"
   id="path4243"
   inkscape:connector-curvature="0"
   style="fill:none;stroke:#000000;stroke-width:2;stroke-linecap:round;stroke-linejoin:round;stroke-miterlimit:10" />
		<path
   stroke-miterlimit="10"
   d="m 271.917,75.9 c 0,0 2.287,6.75 -2.356,22.75"
   id="path4245"
   inkscape:connector-curvature="0"
   style="fill:none;stroke:#000000;stroke-width:2;stroke-linecap:round;stroke-linejoin:round;stroke-miterlimit:10" />
		<path
   stroke-miterlimit="10"
   d="m 265.167,78.15 c 0,0 1,2.875 -0.5,8.75"
   id="path4247"
   inkscape:connector-curvature="0"
   style="fill:none;stroke:#000000;stroke-width:2;stroke-linecap:round;stroke-linejoin:round;stroke-miterlimit:10" />
		<path
   stroke-miterlimit="10"
   d="m 254.417,75.15 c 0,0 5,12.083 0,23.5"
   id="path4249"
   inkscape:connector-curvature="0"
   style="fill:none;stroke:#000000;stroke-width:2;stroke-linecap:round;stroke-linejoin:round;stroke-miterlimit:10" />
		<path
   stroke-miterlimit="10"
   d="m 245.417,75.15 c 0,0 3,11.94 0,23.5"
   id="path4251"
   inkscape:connector-curvature="0"
   style="fill:none;stroke:#000000;stroke-width:2;stroke-linecap:round;stroke-linejoin:round;stroke-miterlimit:10" />
		<path
   stroke-miterlimit="10"
   d="m 384.167,109.15 c 0,0 9.286,-8.5 9.251,-0.559 -0.024,5.605 -24.501,11.137 -24.501,11.137 0,0 4.261,2.339 4.261,4.754"
   id="path4253"
   inkscape:connector-curvature="0"
   style="fill:none;stroke:#000000;stroke-width:2;stroke-linecap:round;stroke-linejoin:round;stroke-miterlimit:10" />
		<path
   stroke-miterlimit="10"
   d="m 392.417,119.728 c 0,0 12.75,-8.828 9.75,1.922 -1.834,6.572 -26.417,8.457 -26.417,8.457 0,0 2.708,4.844 2.417,7.241"
   id="path4255"
   inkscape:connector-curvature="0"
   style="fill:none;stroke:#000000;stroke-width:2;stroke-linecap:round;stroke-linejoin:round;stroke-miterlimit:10" />
		<path
   stroke-miterlimit="10"
   d="m 358.917,123.476 c 0,0 7.25,4.591 8.25,18.758"
   id="path4257"
   inkscape:connector-curvature="0"
   style="fill:none;stroke:#000000;stroke-width:2;stroke-linecap:round;stroke-linejoin:round;stroke-miterlimit:10" />
		<path
   stroke-miterlimit="10"
   d="m 351.417,126.486 c 0,0 6.185,10.647 5.75,18.665"
   id="path4259"
   inkscape:connector-curvature="0"
   style="fill:none;stroke:#000000;stroke-width:2;stroke-linecap:round;stroke-linejoin:round;stroke-miterlimit:10" />
		<path
   stroke-miterlimit="10"
   d="m 342.667,130.15 c 0,0 4.34,13.781 2.59,17.531"
   id="path4261"
   inkscape:connector-curvature="0"
   style="fill:none;stroke:#000000;stroke-width:2;stroke-linecap:round;stroke-linejoin:round;stroke-miterlimit:10" />
		<path
   stroke-miterlimit="10"
   d="m 333.917,133.186 c 0,0 1.75,5.99 1.25,10.214"
   id="path4263"
   inkscape:connector-curvature="0"
   style="fill:none;stroke:#000000;stroke-width:2;stroke-linecap:round;stroke-linejoin:round;stroke-miterlimit:10" />
		<path
   stroke-miterlimit="10"
   d="m 398.667,147.681 c 0,0 4.784,-9.024 10.017,-9.902"
   id="path4265"
   inkscape:connector-curvature="0"
   style="fill:none;stroke:#000000;stroke-width:2;stroke-linecap:round;stroke-linejoin:round;stroke-miterlimit:10" />
		<path
   stroke-miterlimit="10"
   d="m 408.684,149.378 c 0,0 2.429,-9.152 7.706,-9.815"
   id="path4267"
   inkscape:connector-curvature="0"
   style="fill:none;stroke:#000000;stroke-width:2;stroke-linecap:round;stroke-linejoin:round;stroke-miterlimit:10" />
		<path
   stroke-miterlimit="10"
   d="m 418.917,147.681 c 0,0 2.176,-4.872 5.088,-4.951"
   id="path4269"
   inkscape:connector-curvature="0"
   style="fill:none;stroke:#000000;stroke-width:2;stroke-linecap:round;stroke-linejoin:round;stroke-miterlimit:10" />
		<path
   stroke-miterlimit="10"
   d="m 421.831,157.234 c 0,0 5.4,-9.345 8.743,-10.589"
   id="path4271"
   inkscape:connector-curvature="0"
   style="fill:none;stroke:#000000;stroke-width:2;stroke-linecap:round;stroke-linejoin:round;stroke-miterlimit:10" />
		<path
   stroke-miterlimit="10"
   d="m 450.928,172.471 -1.988,7.127 c 0,0 -4.274,-12.281 -12.024,-19.698"
   id="path4273"
   inkscape:connector-curvature="0"
   style="fill:none;stroke:#000000;stroke-width:2;stroke-linecap:round;stroke-linejoin:round;stroke-miterlimit:10" />
		<path
   stroke-miterlimit="10"
   d="m 371.333,22.9 c 0,0 6.666,3.333 -2.667,6.667 -9.333,3.334 -26,2 -26,2 l 3.333,8"
   id="path4275"
   inkscape:connector-curvature="0"
   style="fill:none;stroke:#000000;stroke-width:2;stroke-linecap:round;stroke-linejoin:round;stroke-miterlimit:10" />
	</g>
</g>
<g
   id="Ebene_7"
   display="none">
	<g
   id="YVIQef.tif"
   display="inline"
   opacity="0.6">
		
			<image
   sodipodi:absref="/home/lukas.hausner/Desktop/qitasc.github.io/img/products-and-services/index/96603C3F138137C0.png"
   xlink:href="96603C3F138137C0.png"
   transform="matrix(2.2354 0 0 2.2354 -114.2891 -292.7432)"
   id="Layer_0"
   height="314"
   width="588"
   overflow="visible">
		</image>
	</g>
</g>
</svg>