<?xml version="1.0" encoding="utf-8"?>
<!-- Generator: Adobe Illustrator 16.0.0, SVG Export Plug-In . SVG Version: 6.00 Build 0)  -->
<!DOCTYPE svg PUBLIC "-//W3C//DTD SVG 1.1//EN" "http://www.w3.org/Graphics/SVG/1.1/DTD/svg11.dtd">
<svg version="1.1" id="Ebene_4" xmlns="http://www.w3.org/2000/svg" xmlns:xlink="http://www.w3.org/1999/xlink" x="0px" y="0px"
	 width="2612px" height="797.082px" viewBox="0 0 2612 797.082" enable-background="new 0 0 2612 797.082" xml:space="preserve">
<g id="Ebene_9_2_">
	<path fill="#020000" d="M372.768,663.374c0,0-22.893,49.874-28.649,71.138c-3.798,14.032-4.443,54.57-3.469,56.908
		c0.974,2.34,60.757,12.638,96.422-2.563c0,0,0.011-7.376,0.011-9.909c0-2.532-2.729-5.262-6.236-6.82
		c2.376,1.314,5.064-1.087,4.773-2.786c-0.471-2.75,0.294-7.934-2.824-8.323c-3.118-0.39,0-1.754,0.975-2.338
		c0.974-0.585-1.364-6.237-2.339-7.406c-0.974-1.169-0.584-4.093-1.169-6.82c-0.584-2.729-1.364-7.602-4.872-14.265
		c-2.347-4.455-0.195-24.521,6.626-36.994c-1.364,0-7.016,1.561-33.911-10.523C385.825,677.406,372.768,663.374,372.768,663.374z"/>
	<path fill="#F7941E" d="M439.713,677.698c0,0-0.194,7.698-3.605,7.503c-1.169,1.364,0.487,5.264-2.631,5.264
		c-3.118,0,5.75,5.358-12.765,1.753c-28.81-7.914-43.783-23.84-50.478-31.183c0,0-2.534-5.263,1.949-5.847
		c4.482-0.585,0.584-3.119,0.584-3.119s-2.144-4.093,5.067-6.042c-1.364-1.363-4.775-5.979-0.682-7.148
		c4.093-1.169,6.236-2.205,5.554-3.473c0,0-1.049-4.816,2.433-4.736c7.575,5.929,50.429,35.752,60.697,42.846
		c0,0-2.364,0.364-3.493,2.722c0,0,0.097,1.462-1.267,1.462"/>
	<path fill="#020000" d="M494.504,690.754c0,0-0.825,1.8-1.346,2.062c0,0-10.275,1.061-29.57-7.612c0,0-30.793-12.862-87.409-57.492
		c-20.873-16.454-28.486-26.538-32.645-39.273c0.954-1.604,1.026-1.763,1.418-2.333"/>
	<path fill="#020000" d="M357.371,607.05c0,0,39.25,43.724,113.298,79.389c21.309,10.135,30.922,6.313,19.229-4.99
		c-11.694-11.305-51.658-46.527-113.633-81.609c-21.049-11.693-34.161-19.37-31.172-10.622
		C347.767,597.046,355.93,605.73,357.371,607.05z"/>
	<path d="M398.689,624.191c0,0-6.988-2.729-1.726,1.949c5.262,4.677,45.935,34.105,51.423,34.105c3.118,0-4.135-5.521-17.672-15.606
		C424.271,639.838,413.424,632.145,398.689,624.191z"/>
</g>
<g id="Test_Cases_rechts">
	
		<path fill="none" stroke="#000000" stroke-width="2.1736" stroke-linecap="round" stroke-linejoin="round" stroke-miterlimit="10" d="
		M2133.414,792.09c0,0,120.633-1.45,130.775-1.45c10.145,0-46.006-8.694-46.006-8.694"/>
	
		<path fill="none" stroke="#000000" stroke-width="2.1736" stroke-linecap="round" stroke-linejoin="round" stroke-miterlimit="10" d="
		M2255.134,781.945c-1.812,0-52.89-1.812-98.897,3.261"/>
	
		<line fill="none" stroke="#000000" stroke-width="2.1736" stroke-linecap="round" stroke-linejoin="round" stroke-miterlimit="10" x1="2133.414" y1="780.497" x2="2180.87" y2="779.41"/>
	
		<path fill="none" stroke="#000000" stroke-width="2.1736" stroke-linecap="round" stroke-linejoin="round" stroke-miterlimit="10" d="
		M2161.671,775.788c0,0-22.461-5.435-30.068-4.348c46.37-2.536,95.637-4.347,114.475-2.898c-7.97-4.347-89.841-4.709-89.841-4.709
		s104.332-6.521,105.418-6.159"/>
	
		<polyline fill="none" stroke="#000000" stroke-width="2.1736" stroke-linecap="round" stroke-linejoin="round" stroke-miterlimit="10" points="
		2227.239,759.486 2272.885,763.833 2251.873,769.629 	"/>
	
		<line fill="none" stroke="#000000" stroke-width="2.1736" stroke-linecap="round" stroke-linejoin="round" stroke-miterlimit="10" x1="2259.843" y1="751.153" x2="2149.354" y2="749.705"/>
	
		<path fill="none" stroke="#000000" stroke-width="2.1736" stroke-linecap="round" stroke-linejoin="round" stroke-miterlimit="10" d="
		M2130.879,747.168c0,0,97.086-5.07,107.953-2.535"/>
	
		<path fill="none" stroke="#000000" stroke-width="2.1736" stroke-linecap="round" stroke-linejoin="round" stroke-miterlimit="10" d="
		M2267.088,739.199c0,0-49.629-2.898-67.38-5.072"/>
	
		<path fill="none" stroke="#000000" stroke-width="2.1736" stroke-linecap="round" stroke-linejoin="round" stroke-miterlimit="10" d="
		M2247.164,733.04c0,0-73.901-0.725-95.637,2.174"/>
	
		<path fill="none" stroke="#000000" stroke-width="2.1736" stroke-linecap="round" stroke-linejoin="round" stroke-miterlimit="10" d="
		M2243.541,724.346c14.129,0-95.998-3.623-102.52-1.087c0,0,82.596-9.056,104.332-9.056"/>
	
		<path fill="none" stroke="#000000" stroke-width="2.1736" stroke-linecap="round" stroke-linejoin="round" stroke-miterlimit="10" d="
		M2243.541,717.102c1.087,0,26.808-2.536,26.808-2.536s-39.124-15.578-89.479-14.129"/>
	
		<path fill="none" stroke="#000000" stroke-width="2.1736" stroke-linecap="round" stroke-linejoin="round" stroke-miterlimit="10" d="
		M2234.847,705.871l-76.074,5.071c0,0-21.019-6.792-30.792-7.607c38.037-6.158,73.901-6.158,98.896-5.071"/>
	
		<path fill="none" stroke="#000000" stroke-width="2.1736" stroke-linecap="round" stroke-linejoin="round" stroke-miterlimit="10" d="
		M2254.047,693.192c0,0-78.973-7.971-110.852-2.898"/>
	
		<path fill="none" stroke="#000000" stroke-width="2.1736" stroke-linecap="round" stroke-linejoin="round" stroke-miterlimit="10" d="
		M2247.164,677.376c0,0-37.997,9.792-114.127,6.602c18.49-2.981,23.199-4.477,26.838-6.602"/>
</g>
<g id="Test_Cases_links">
	
		<path fill="#FCFCFC" stroke="#000000" stroke-width="2.1736" stroke-linecap="round" stroke-linejoin="round" stroke-miterlimit="10" d="
		M2162.758,665.334c44.832,2,89.492-23.833,89.492-23.833s19.084,9.167,27.412,2.246c-6.918,17.5-35.534,26.763-52.6,31.141
		C2213.25,678.846,2162.758,665.334,2162.758,665.334"/>
	
		<path fill="#FCFCFC" stroke="#000000" stroke-width="2.1736" stroke-linecap="round" stroke-linejoin="round" stroke-miterlimit="10" d="
		M2236.25,654.251c0,0,13.614,6.958,16.95,7"/>
	
		<path fill="#FCFCFC" stroke="#000000" stroke-width="2.1736" stroke-linecap="round" stroke-linejoin="round" stroke-miterlimit="10" d="
		M2243,651.251c0,0,14,7.08,15.5,7.165"/>
	
		<path fill="#FCFCFC" stroke="#000000" stroke-width="2.1736" stroke-linecap="round" stroke-linejoin="round" stroke-miterlimit="10" d="
		M2249.338,648.001c0,0,10.912,5.914,14.162,6.832"/>
	
		<path fill="#FFFFFF" stroke="#000000" stroke-width="2.1736" stroke-linecap="round" stroke-linejoin="round" stroke-miterlimit="10" d="
		M255.277,480.981c0,0,7.605,32.185-1.865,44.086c37.006-8.432,65.413-14.094,87.086,5.888c0,0,28.995-19.714,28.598-27.814
		C368.7,495.04,286.598,455.776,255.277,480.981z"/>
	
		<path fill="#FFFFFF" stroke="#000000" stroke-width="2.1736" stroke-linecap="round" stroke-linejoin="round" stroke-miterlimit="10" d="
		M403.607,559.334c3.409,7.991,30.671,58.734,23.552,76.759c-1.512,4.766-5.209,4.293-14.421-9.659
		c10.604-17.849-7.33-36.411-24.871-53.869c30.155-17.883,8.234-13.824,8.234-13.824s1.793,1.808,2.916,6.536"/>
	
		<path fill="#FFFFFF" stroke="#000000" stroke-width="2.1736" stroke-linecap="round" stroke-linejoin="round" stroke-miterlimit="10" d="
		M450,618.503c0,0,7.823-14.836,17.578-12.169C478,584.333,502.667,545,522,539c0,0,8.667-18-26.667-26.667
		S439.376,606.655,450,618.503z"/>
	
		<path fill="#FFFFFF" stroke="#000000" stroke-width="2.1736" stroke-linecap="round" stroke-linejoin="round" stroke-miterlimit="10" d="
		M548,528.333c0,0,8.667-29.333,0-40C572,479.667,633.333,477,654,497c6,22,4,39.172,0,45.586
		C644.667,539,594.667,518.333,548,528.333z"/>
	
		<path fill="#FCFCFC" stroke="#000000" stroke-width="2.1736" stroke-linecap="round" stroke-linejoin="round" stroke-miterlimit="10" d="
		M736.043,553.448c36.623,0,65.363,47.885,55.018,65.219c-1.395-21.165-16.663-1.999-16.663-1.999s-4.722-49.04-68.146-45.706
		c1.081-3.961,2.914-5.802,4.735-7.997"/>
	
		<path fill="none" stroke="#000000" stroke-width="2.1736" stroke-linecap="round" stroke-linejoin="round" stroke-miterlimit="10" d="
		M784.262,608.903c0,0,4.572,3.859,6.8,9.764"/>
	
		<path fill="#FFFFFF" stroke="#000000" stroke-width="2.1736" stroke-linecap="round" stroke-linejoin="round" stroke-miterlimit="10" d="
		M645.603,547c0,0,5.378,15.21-8.622,26.543c56.875,6.79,126.026-31.376,124.184-42.043c-10.509-11.333-24.441-23.201-38.441-24.684
		C714.057,518,677.017,547.253,645.603,547z"/>
	
		<path fill="#FFFFFF" stroke="#000000" stroke-width="2.1736" stroke-linecap="round" stroke-linejoin="round" stroke-miterlimit="10" d="
		M224.667,442.667c0,0-16,48.667-15.333,50.667c-34-3.333-91.333-18.667-100-42c14-22.667,27.333-59.333,27.333-59.333
		S196,446.667,224.667,442.667z"/>
	
		<path fill="#FFFFFF" stroke="#000000" stroke-width="2.1736" stroke-linecap="round" stroke-linejoin="round" stroke-miterlimit="10" d="
		M1687.334,522.334l26.667-38.667c0,0-22-30-146.667-40c-6.667,11.333-22,39.333-22,39.333S1646.667,496.334,1687.334,522.334z"/>
	
		<path fill="#FFFFFF" stroke="#000000" stroke-width="2.1736" stroke-linecap="round" stroke-linejoin="round" stroke-miterlimit="10" d="
		M1889.75,528.5l3.584,13.167c0,0-25.333,32-140-5.333c4.667-17.333,14-38,14-38s9.666,5.167,17.916,6.917"/>
	
		<path fill="#FFFFFF" stroke="#000000" stroke-width="2.1736" stroke-linecap="round" stroke-linejoin="round" stroke-miterlimit="10" d="
		M1780.001,471.667l7.333,52.667c0,0,130.667,9.333,148.667,0c-4-16.667-10-44.667-10-44.667S1852.001,491.667,1780.001,471.667z"/>
	
		<path fill="#FFFFFF" stroke="#000000" stroke-width="2.1736" stroke-linecap="round" stroke-linejoin="round" stroke-miterlimit="10" d="
		M2046,535.5c0,0-4.5-20.75-94.75-50c3.25-13.75,9-35.25,9-35.25s73.084,4.416,119.751,52.75l-3.667,5.333"/>
	
		<path fill="#FFFFFF" stroke="#000000" stroke-width="2.1736" stroke-linecap="round" stroke-linejoin="round" stroke-miterlimit="10" d="
		M2045.5,551.25c0,0,4.5-33.75,2.25-38.25c16.25-3.5,98.75-16.5,103,21.5c0.25,12.25-2,29.5-4.5,31.75
		C2132,557.5,2101.5,544.25,2045.5,551.25z"/>
	
		<path fill="#FFFFFF" stroke="#000000" stroke-width="2.1736" stroke-linecap="round" stroke-linejoin="round" stroke-miterlimit="10" d="
		M2198.75,587.75l-1.5,5c0,0,57.5-3.5,64.5,42.25c6.25-6,13.25-12.25,17,2c2-14.75-9.25-59.5-56-60.25"/>
	
		<path fill="#FFFFFF" stroke="#000000" stroke-width="2.1736" stroke-linecap="round" stroke-linejoin="round" stroke-miterlimit="10" d="
		M2214.25,530.5c0,0-28.5,33.75-73.75,39c0,9.25,0,15.75-9.5,25.75c24.25,0.75,83-1.25,119.5-40c-10.25-10.5-23.75-21.25-36.5-25.75
		"/>
	
		<path fill="#FCFCFC" stroke="#000000" stroke-width="2.1736" stroke-linecap="round" stroke-linejoin="round" stroke-miterlimit="10" d="
		M2264.667,619.334c0,0,8.666-6,12.666-0.667"/>
	
		<path fill="#FCFCFC" stroke="#000000" stroke-width="2.1736" stroke-linecap="round" stroke-linejoin="round" stroke-miterlimit="10" d="
		M2262.667,612.667c0,0,6.667-5.333,10-4"/>
	
		<path fill="#FCFCFC" stroke="#000000" stroke-width="2.1736" stroke-linecap="round" stroke-linejoin="round" stroke-miterlimit="10" d="
		M2258.667,606c0,0,6.334-5.333,10.334-5"/>
	
		<path fill="#FCFCFC" stroke="#000000" stroke-width="2.1736" stroke-linecap="round" stroke-linejoin="round" stroke-miterlimit="10" d="
		M2254.334,600.667c0,0,5.333-5.333,8-6.333"/>
	
		<path fill="#FCFCFC" stroke="#000000" stroke-width="2.1736" stroke-linecap="round" stroke-linejoin="round" stroke-miterlimit="10" d="
		M2215.334,541c0,0,19.666,14,22.333,16.667"/>
	
		<path fill="#FCFCFC" stroke="#000000" stroke-width="2.1736" stroke-linecap="round" stroke-linejoin="round" stroke-miterlimit="10" d="
		M2210.334,547c0,0,13,11,15,16.333"/>
	
		<path fill="#FCFCFC" stroke="#000000" stroke-width="2.1736" stroke-linecap="round" stroke-linejoin="round" stroke-miterlimit="10" d="
		M2203.001,552.333c0,0,9.666,8,10.333,17.333"/>
	
		<path fill="#FCFCFC" stroke="#000000" stroke-width="2.1736" stroke-linecap="round" stroke-linejoin="round" stroke-miterlimit="10" d="
		M2196.001,559c0,0,2.332,4,3.666,8.667"/>
	
		<path fill="#FCFCFC" stroke="#000000" stroke-width="2.1736" stroke-linecap="round" stroke-linejoin="round" stroke-miterlimit="10" d="
		M2190.001,561.333c0,0,1.667,5.667,2,10"/>
	
		<path fill="#FFFFFF" stroke="#000000" stroke-width="2.1736" stroke-linecap="round" stroke-linejoin="round" stroke-miterlimit="10" d="
		M2184.001,565.667c0,0,3,10,2,17"/>
	
		<path fill="#FFFFFF" stroke="#000000" stroke-width="2.1736" stroke-linecap="round" stroke-linejoin="round" stroke-miterlimit="10" d="
		M2178.667,570c0,0,0.666,5,0,8"/>
	
		<path fill="#FFFFFF" stroke="#000000" stroke-width="2.1736" stroke-linecap="round" stroke-linejoin="round" stroke-miterlimit="10" d="
		M2144.001,532.333l1,7.333c0,0-9.001-13-21.334-15"/>
	
		<path fill="#FFFFFF" stroke="#000000" stroke-width="2.1736" stroke-linecap="round" stroke-linejoin="round" stroke-miterlimit="10" d="
		M2143.667,546.333l-2.333,8c0,0-11.333-17.333-21-20.333"/>
	
		<line fill="#FFFFFF" stroke="#000000" stroke-width="2.1736" stroke-linecap="round" stroke-linejoin="round" stroke-miterlimit="10" x1="2131.334" y1="547.667" x2="2133.001" y2="539"/>
	
		<path fill="#FFFFFF" stroke="#000000" stroke-width="2.1736" stroke-linecap="round" stroke-linejoin="round" stroke-miterlimit="10" d="
		M2113.667,518.667c0,0-0.666,19.334-3.333,24.667"/>
	
		<path fill="#FFFFFF" stroke="#000000" stroke-width="2.1736" stroke-linecap="round" stroke-linejoin="round" stroke-miterlimit="10" d="
		M2106.334,518c0,0-0.334,12.667-1.667,16.667"/>
	
		<path fill="#FFFFFF" stroke="#000000" stroke-width="2.1736" stroke-linecap="round" stroke-linejoin="round" stroke-miterlimit="10" d="
		M2098.334,518c0,0,1,9.333-0.333,12.667"/>
	
		<path fill="#FFFFFF" stroke="#000000" stroke-width="2.1736" stroke-linecap="round" stroke-linejoin="round" stroke-miterlimit="10" d="
		M2091.334,517c0,0-1.001,21.667-2.667,25.333"/>
	
		<path fill="#FFFFFF" stroke="#000000" stroke-width="2.1736" stroke-linecap="round" stroke-linejoin="round" stroke-miterlimit="10" d="
		M2083.667,517.667c0,0-0.333,13.334-0.333,16.667"/>
	
		<path fill="#FFFFFF" stroke="#000000" stroke-width="2.1736" stroke-linecap="round" stroke-linejoin="round" stroke-miterlimit="10" d="
		M2065.001,499c0,0-8.001,9-9.667,11.667"/>
	
		<path fill="#FFFFFF" stroke="#000000" stroke-width="2.1736" stroke-linecap="round" stroke-linejoin="round" stroke-miterlimit="10" d="
		M2056.667,493c0,0-11.666,16.333-15.333,20"/>
	
		<line fill="#FFFFFF" stroke="#000000" stroke-width="2.1736" stroke-linecap="round" stroke-linejoin="round" stroke-miterlimit="10" x1="2049.001" y1="488.667" x2="2034.667" y2="509"/>
	
		<path fill="#FFFFFF" stroke="#000000" stroke-width="2.1736" stroke-linecap="round" stroke-linejoin="round" stroke-miterlimit="10" d="
		M2042.001,485c0,0-6.666,9.333-11,13.667"/>
	
		<path fill="#FFFFFF" stroke="#000000" stroke-width="2.1736" stroke-linecap="round" stroke-linejoin="round" stroke-miterlimit="10" d="
		M2027.667,478.333c0,0-9,16.667-12.667,18.667"/>
	
		<path fill="#FFFFFF" stroke="#000000" stroke-width="2.1736" stroke-linecap="round" stroke-linejoin="round" stroke-miterlimit="10" d="
		M1913,490l8.333,4c0,0-36.667,2.667-46,2"/>
	
		<path fill="#FFFFFF" stroke="#000000" stroke-width="2.1736" stroke-linecap="round" stroke-linejoin="round" stroke-miterlimit="10" d="
		M1908.333,508.667c0,0,8.643-4.804,11-4.333c3.334,0.667,6.334,5.667,2.667,8s-6.667-0.333-10.333-1.333
		c-4.992-1.362-15.666-9-26-5.333s-5,10.334-2,10.667S1896.333,517,1908.333,508.667z"/>
	
		<path fill="#FFFFFF" stroke="#000000" stroke-width="2.1736" stroke-linecap="round" stroke-linejoin="round" stroke-miterlimit="10" d="
		M1858.333,494.667c0,0,2.334,20.333,3.334,23.333"/>
	
		<path fill="#FFFFFF" stroke="#000000" stroke-width="2.1736" stroke-linecap="round" stroke-linejoin="round" stroke-miterlimit="10" d="
		M1849.667,493.667c0,0,1.332,12.333,1.666,15"/>
	
		<path fill="#FFFFFF" stroke="#000000" stroke-width="2.1736" stroke-linecap="round" stroke-linejoin="round" stroke-miterlimit="10" d="
		M1840.333,492.333c0,0,0.667,20.666,2.667,24.333"/>
	
		<path fill="#FFFFFF" stroke="#000000" stroke-width="2.1736" stroke-linecap="round" stroke-linejoin="round" stroke-miterlimit="10" d="
		M1829.667,491c0,0,1,23.667,2,26"/>
	
		<line fill="#FFFFFF" stroke="#000000" stroke-width="2.1736" stroke-linecap="round" stroke-linejoin="round" stroke-miterlimit="10" x1="1873" y1="529.333" x2="1876" y2="542.333"/>
	
		<path fill="#FFFFFF" stroke="#000000" stroke-width="2.1736" stroke-linecap="round" stroke-linejoin="round" stroke-miterlimit="10" d="
		M1865,529c0,0,0.334,13.667,0.667,15"/>
	
		<path fill="#FFFFFF" stroke="#000000" stroke-width="2.1736" stroke-linecap="round" stroke-linejoin="round" stroke-miterlimit="10" d="
		M1857.667,528.333c0,0-1.001,15.333,0.666,18.333"/>
	
		<line fill="#FFFFFF" stroke="#000000" stroke-width="2.1736" stroke-linecap="round" stroke-linejoin="round" stroke-miterlimit="10" x1="1845.333" y1="528.333" x2="1844.667" y2="536.333"/>
	
		<path fill="#FFFFFF" stroke="#000000" stroke-width="2.1736" stroke-linecap="round" stroke-linejoin="round" stroke-miterlimit="10" d="
		M1839,527.667c0,0-1.333,16.667-1.333,18.667"/>
	
		<line fill="#FFFFFF" stroke="#000000" stroke-width="2.1736" stroke-linecap="round" stroke-linejoin="round" stroke-miterlimit="10" x1="1830" y1="527" x2="1828" y2="544.667"/>
	
		<path fill="#FFFFFF" stroke="#000000" stroke-width="2.1736" stroke-linecap="round" stroke-linejoin="round" stroke-miterlimit="10" d="
		M1696.333,481l0.667,10.333c0,0-20.667-14.667-37.334-20"/>
	
		<path fill="#FFFFFF" stroke="#000000" stroke-width="2" stroke-linecap="round" stroke-linejoin="round" stroke-miterlimit="10" d="
		M1686,496v9c0,0-24.001-17-34.334-20.667"/>
	
		<path fill="#FFFFFF" stroke="#000000" stroke-width="2" stroke-linecap="round" stroke-linejoin="round" stroke-miterlimit="10" d="
		M1644.333,463.667c0,0-7.999,15-10.333,19.333"/>
	
		<path fill="#FFFFFF" stroke="#000000" stroke-width="2" stroke-linecap="round" stroke-linejoin="round" stroke-miterlimit="10" d="
		M1635,461.333c0,0-8.334,17-9.667,19.667"/>
	
		<line fill="#FFFFFF" stroke="#000000" stroke-width="2" stroke-linecap="round" stroke-linejoin="round" stroke-miterlimit="10" x1="1625" y1="460" x2="1621.666" y2="468"/>
	
		<line fill="#FFFFFF" stroke="#000000" stroke-width="2" stroke-linecap="round" stroke-linejoin="round" stroke-miterlimit="10" x1="1617" y1="456.667" x2="1607.333" y2="477.667"/>
</g>
<g id="Ebene_11">
</g>
<g id="Sparcles">
	<g>
		<g>
			<path fill="#F7941E" d="M421,404c3.869,0,3.869-6,0-6S417.131,404,421,404L421,404z"/>
		</g>
	</g>
	<g>
		<g>
			<path fill="#F7941E" d="M477,486c3.869,0,3.869-6,0-6S473.131,486,477,486L477,486z"/>
		</g>
	</g>
	<g>
		<g>
			<path fill="#F7941E" d="M384,486c3.869,0,3.869-6,0-6S380.131,486,384,486L384,486z"/>
		</g>
	</g>
	<g>
		<g>
			<path fill="#F7941E" d="M433,532c3.869,0,3.869-6,0-6S429.131,532,433,532L433,532z"/>
		</g>
	</g>
	<g>
		<g>
			<path fill="#F7941E" d="M430,557c3.869,0,3.869-6,0-6S426.131,557,430,557L430,557z"/>
		</g>
	</g>
	<g>
		<g>
			<path fill="#F7941E" d="M442,584c3.869,0,3.869-6,0-6S438.131,584,442,584L442,584z"/>
		</g>
	</g>
	<g>
		<g>
			<path fill="#F7941E" d="M437,627c3.869,0,3.869-6,0-6S433.131,627,437,627L437,627z"/>
		</g>
	</g>
	<g>
		<g>
			<path fill="#F7941E" d="M432,641c3.869,0,3.869-6,0-6S428.131,641,432,641L432,641z"/>
		</g>
	</g>
	<g>
		<g>
			<path fill="#F7941E" d="M471,624c3.869,0,3.869-6,0-6S467.131,624,471,624L471,624z"/>
		</g>
	</g>
	<g>
		<g>
			<path fill="#F7941E" d="M514,617c3.869,0,3.869-6,0-6S510.131,617,514,617L514,617z"/>
		</g>
	</g>
	<g>
		<g>
			<path fill="#F7941E" d="M523,384c3.869,0,3.869-6,0-6S519.131,384,523,384L523,384z"/>
		</g>
	</g>
	<g>
		<g>
			<path fill="#F7941E" d="M462,339c3.869,0,3.869-6,0-6S458.131,339,462,339L462,339z"/>
		</g>
	</g>
	<g>
		<g>
			<path fill="#F7941E" d="M489,314c3.869,0,3.869-6,0-6S485.131,314,489,314L489,314z"/>
		</g>
	</g>
	<g>
		<g>
			<path fill="#F7941E" d="M488,248c3.869,0,3.869-6,0-6S484.131,248,488,248L488,248z"/>
		</g>
	</g>
	<g>
		<g>
			<path fill="#F7941E" d="M537,219c3.869,0,3.869-6,0-6S533.131,219,537,219L537,219z"/>
		</g>
	</g>
	<g>
		<g>
			<path fill="#F7941E" d="M528,194c3.869,0,3.869-6,0-6S524.131,194,528,194L528,194z"/>
		</g>
	</g>
	<g>
		<g>
			<path fill="#F7941E" d="M409,53c3.869,0,3.869-6,0-6S405.131,53,409,53L409,53z"/>
		</g>
	</g>
	<g>
		<g>
			<path fill="#F7941E" d="M299,197c3.869,0,3.869-6,0-6S295.131,197,299,197L299,197z"/>
		</g>
	</g>
	<g>
		<g>
			<path fill="#F7941E" d="M899,380c3.869,0,3.869-6,0-6S895.131,380,899,380L899,380z"/>
		</g>
	</g>
	<g>
		<g>
			<path fill="#F7941E" d="M1016,419c3.869,0,3.869-6,0-6S1012.131,419,1016,419L1016,419z"/>
		</g>
	</g>
	<g>
		<g>
			<path fill="#F7941E" d="M1028,480c3.869,0,3.869-6,0-6S1024.131,480,1028,480L1028,480z"/>
		</g>
	</g>
	<g>
		<g>
			<path fill="#F7941E" d="M1102,449c3.869,0,3.869-6,0-6S1098.131,449,1102,449L1102,449z"/>
		</g>
	</g>
	<g>
		<g>
			<path fill="#F7941E" d="M1183,433c3.869,0,3.869-6,0-6S1179.131,433,1183,433L1183,433z"/>
		</g>
	</g>
	<g>
		<g>
			<path fill="#F7941E" d="M774,656c3.869,0,3.869-6,0-6S770.131,656,774,656L774,656z"/>
		</g>
	</g>
	<g>
		<g>
			<path fill="#F7941E" d="M768,638c3.869,0,3.869-6,0-6S764.131,638,768,638L768,638z"/>
		</g>
	</g>
	<g>
		<g>
			<path fill="#F7941E" d="M754,619c3.869,0,3.869-6,0-6S750.131,619,754,619L754,619z"/>
		</g>
	</g>
	<g>
		<g>
			<path fill="#F7941E" d="M731,603c3.869,0,3.869-6,0-6S727.131,603,731,603L731,603z"/>
		</g>
	</g>
	<g>
		<g>
			<path fill="#F7941E" d="M685,593c3.869,0,3.869-6,0-6S681.131,593,685,593L685,593z"/>
		</g>
	</g>
	<g>
		<g>
			<path fill="#F7941E" d="M1471,571c3.869,0,3.869-6,0-6S1467.131,571,1471,571L1471,571z"/>
		</g>
	</g>
	<g>
		<g>
			<path fill="#F7941E" d="M1732,377c3.869,0,3.869-6,0-6S1728.131,377,1732,377L1732,377z"/>
		</g>
	</g>
	<g>
		<g>
			<path fill="#F7941E" d="M1909,582c3.869,0,3.869-6,0-6S1905.131,582,1909,582L1909,582z"/>
		</g>
	</g>
	<g>
		<g>
			<path fill="#F7941E" d="M1930,573c3.869,0,3.869-6,0-6S1926.131,573,1930,573L1930,573z"/>
		</g>
	</g>
	<g>
		<g>
			<path fill="#F7941E" d="M1961,569c3.869,0,3.869-6,0-6S1957.131,569,1961,569L1961,569z"/>
		</g>
	</g>
	<g>
		<g>
			<path fill="#F7941E" d="M2013,577c3.869,0,3.869-6,0-6S2009.131,577,2013,577L2013,577z"/>
		</g>
	</g>
	<g>
		<g>
			<path fill="#F7941E" d="M2068,597c3.869,0,3.869-6,0-6S2064.131,597,2068,597L2068,597z"/>
		</g>
	</g>
	<g>
		<g>
			<path fill="#F7941E" d="M2074,566c3.869,0,3.869-6,0-6S2070.131,566,2074,566L2074,566z"/>
		</g>
	</g>
	<g>
		<g>
			<path fill="#F7941E" d="M2099,585c3.869,0,3.869-6,0-6S2095.131,585,2099,585L2099,585z"/>
		</g>
	</g>
	<g>
		<g>
			<path fill="#F7941E" d="M2246,491c3.869,0,3.869-6,0-6S2242.131,491,2246,491L2246,491z"/>
		</g>
	</g>
	<g>
		<g>
			<path fill="#F7941E" d="M2277,718c3.869,0,3.869-6,0-6S2273.131,718,2277,718L2277,718z"/>
		</g>
	</g>
	<g>
		<g>
			<path fill="#F7941E" d="M2292,706c3.869,0,3.869-6,0-6S2288.131,706,2292,706L2292,706z"/>
		</g>
	</g>
	<g>
		<g>
			<path fill="#F7941E" d="M2292,731c3.869,0,3.869-6,0-6S2288.131,731,2292,731L2292,731z"/>
		</g>
	</g>
	<g>
		<g>
			<path fill="#F7941E" d="M2334,696c3.869,0,3.869-6,0-6S2330.131,696,2334,696L2334,696z"/>
		</g>
	</g>
	<g>
		<g>
			<path fill="#F7941E" d="M2307,658c3.869,0,3.869-6,0-6S2303.131,658,2307,658L2307,658z"/>
		</g>
	</g>
	<g>
		<g>
			<path fill="#F7941E" d="M2277,681c3.869,0,3.869-6,0-6S2273.131,681,2277,681L2277,681z"/>
		</g>
	</g>
	<g>
		<g>
			<path fill="#F7941E" d="M2256,748c3.869,0,3.869-6,0-6S2252.131,748,2256,748L2256,748z"/>
		</g>
	</g>
	<g>
		<g>
			<path fill="#F7941E" d="M2175,777c3.869,0,3.869-6,0-6S2171.131,777,2175,777L2175,777z"/>
		</g>
	</g>
	<g>
		<g>
			<path fill="#F7941E" d="M2141,761c3.869,0,3.869-6,0-6S2137.131,761,2141,761L2141,761z"/>
		</g>
	</g>
	<g>
		<g>
			<path fill="#F7941E" d="M2125,787c3.869,0,3.869-6,0-6S2121.131,787,2125,787L2125,787z"/>
		</g>
	</g>
	<g>
		<g>
			<path fill="#F7941E" d="M2410,658c3.869,0,3.869-6,0-6S2406.131,658,2410,658L2410,658z"/>
		</g>
	</g>
	<g>
		<g>
			<path fill="#F7941E" d="M2480,584c3.869,0,3.869-6,0-6S2476.131,584,2480,584L2480,584z"/>
		</g>
	</g>
	<g>
		<g>
			<path fill="#F7941E" d="M2258,429c3.869,0,3.869-6,0-6S2254.131,429,2258,429L2258,429z"/>
		</g>
	</g>
	<g>
		<g>
			<path fill="#F7941E" d="M2101,495c3.869,0,3.869-6,0-6S2097.131,495,2101,495L2101,495z"/>
		</g>
	</g>
	<g>
		<g>
			<path fill="#F7941E" d="M2118,411c3.869,0,3.869-6,0-6S2114.131,411,2118,411L2118,411z"/>
		</g>
	</g>
	<g>
		<g>
			<path fill="#F7941E" d="M2161,286c3.869,0,3.869-6,0-6S2157.131,286,2161,286L2161,286z"/>
		</g>
	</g>
	<g>
		<g>
			<path fill="#F7941E" d="M2115,265c3.869,0,3.869-6,0-6S2111.131,265,2115,265L2115,265z"/>
		</g>
	</g>
	<g>
		<g>
			<path fill="#F7941E" d="M2126,175c3.869,0,3.869-6,0-6S2122.131,175,2126,175L2126,175z"/>
		</g>
	</g>
	<g>
		<g>
			<path fill="#F7941E" d="M2063,136c3.869,0,3.869-6,0-6S2059.131,136,2063,136L2063,136z"/>
		</g>
	</g>
	<g>
		<g>
			<path fill="#F7941E" d="M2134,66c3.869,0,3.869-6,0-6S2130.131,66,2134,66L2134,66z"/>
		</g>
	</g>
	<g>
		<g>
			<path fill="#F7941E" d="M2133,37c3.869,0,3.869-6,0-6S2129.131,37,2133,37L2133,37z"/>
		</g>
	</g>
	<g>
		<g>
			<path fill="#F7941E" d="M1971,302c3.869,0,3.869-6,0-6S1967.131,302,1971,302L1971,302z"/>
		</g>
	</g>
	<g>
		<g>
			<path fill="#F7941E" d="M2077,332c3.869,0,3.869-6,0-6S2073.131,332,2077,332L2077,332z"/>
		</g>
	</g>
	<g>
		<g>
			<path fill="#F7941E" d="M1936,353c3.869,0,3.869-6,0-6S1932.131,353,1936,353L1936,353z"/>
		</g>
	</g>
	<g>
		<g>
			<path fill="#F7941E" d="M1813,333c3.869,0,3.869-6,0-6S1809.131,333,1813,333L1813,333z"/>
		</g>
	</g>
	<g>
		<g>
			<path fill="#F7941E" d="M350.624,553.093c3.869,0,3.869-6,0-6S346.754,553.093,350.624,553.093L350.624,553.093z"/>
		</g>
	</g>
	<g>
		<g>
			<path fill="#F7941E" d="M334.125,544.094c3.869,0,3.869-6,0-6S330.255,544.094,334.125,544.094L334.125,544.094z"/>
		</g>
	</g>
	<g>
		<g>
			<path fill="#F7941E" d="M290.626,536.594c3.869,0,3.869-6,0-6S286.757,536.594,290.626,536.594L290.626,536.594z"/>
		</g>
	</g>
	<g>
		<g>
			<path fill="#F7941E" d="M893.597,514.095c3.869,0,3.869-6,0-6S889.728,514.095,893.597,514.095L893.597,514.095z"/>
		</g>
	</g>
	<g>
		<g>
			<path fill="#F7941E" d="M920.595,508.096c3.869,0,3.869-6,0-6S916.726,508.096,920.595,508.096L920.595,508.096z"/>
		</g>
	</g>
	<g>
		<g>
			<path fill="#F7941E" d="M952.094,502.096c3.869,0,3.869-6,0-6S948.225,502.096,952.094,502.096L952.094,502.096z"/>
		</g>
	</g>
	<g>
		<g>
			<path fill="#F7941E" d="M862.098,425.6c3.869,0,3.869-6,0-6S858.229,425.6,862.098,425.6L862.098,425.6z"/>
		</g>
	</g>
	<g>
		<g>
			<path fill="#F7941E" d="M961.093,517.095c3.869,0,3.869-6,0-6S957.224,517.095,961.093,517.095L961.093,517.095z"/>
		</g>
	</g>
	<g>
		<g>
			<path fill="#F7941E" d="M1492.066,455.598c3.869,0,3.869-6,0-6S1488.197,455.598,1492.066,455.598L1492.066,455.598z"/>
		</g>
	</g>
	<g>
		<g>
			<path fill="#F7941E" d="M1315.075,466.098c3.869,0,3.869-6,0-6S1311.206,466.098,1315.075,466.098L1315.075,466.098z"/>
		</g>
	</g>
</g>
<g id="Ebene_8">
	
		<path fill="#FFFFFF" stroke="#000000" stroke-width="2.1736" stroke-linecap="round" stroke-linejoin="round" stroke-miterlimit="10" d="
		M583.333,463c0,0,12,29.333,11.333,32.667C615.333,489,634,475.001,736,468.334C734,455,718.667,433,713.333,431
		C662,435.667,598,455.667,583.333,463z"/>
	
		<path fill="#FFFFFF" stroke="#000000" stroke-width="2.1736" stroke-linecap="round" stroke-linejoin="round" stroke-miterlimit="10" d="
		M780,455.667c0,0,0.667,38.667,7.333,44c31.333,2,132.667,7.333,142-16.667c-10-16-20.667-28.667-20.667-28.667
		S857.333,469,780,455.667z"/>
	
		<path fill="#FFFFFF" stroke="#000000" stroke-width="2.1736" stroke-linecap="round" stroke-linejoin="round" stroke-miterlimit="10" d="
		M715.75,459.5l-3.75-8l-13.333,2.833c0,0,8.67,5.347-5.333,9.333c-10.833,3.083-13.917-1.25-10.583-3.917"/>
	
		<path fill="#FFFFFF" stroke="#000000" stroke-width="2.1736" stroke-linecap="round" stroke-linejoin="round" stroke-miterlimit="10" d="
		M663.333,447c0,0,6.333,12,5.667,18"/>
	
		<line fill="#FFFFFF" stroke="#000000" stroke-width="2.1736" stroke-linecap="round" stroke-linejoin="round" stroke-miterlimit="10" x1="655.333" y1="449" x2="659" y2="458.5"/>
	
		<path fill="#FFFFFF" stroke="#000000" stroke-width="2.1736" stroke-linecap="round" stroke-linejoin="round" stroke-miterlimit="10" d="
		M648,450.25c0,0,6.167,10.5,5.5,18.5"/>
	
		<path fill="#FFFFFF" stroke="#000000" stroke-width="2.1736" stroke-linecap="round" stroke-linejoin="round" stroke-miterlimit="10" d="
		M640,452.5c0,0,5.5,10.75,7,18.25"/>
	
		<path fill="#FFFFFF" stroke="#000000" stroke-width="2.1736" stroke-linecap="round" stroke-linejoin="round" stroke-miterlimit="10" d="
		M632,455.25c0,0,3.75,10.25,3.75,17"/>
	
		<path fill="#FFFFFF" stroke="#000000" stroke-width="2.1736" stroke-linecap="round" stroke-linejoin="round" stroke-miterlimit="10" d="
		M903,463.25c0,0,4.75,2.25,0.25,6.75s-29.75-2-29.75-2l4.5,9.5"/>
	
		<path fill="#FFFFFF" stroke="#000000" stroke-width="2.1736" stroke-linecap="round" stroke-linejoin="round" stroke-miterlimit="10" d="
		M906.75,478.25c0,0-25.443,2.753-25.25,8.75c0.25,7.75,19.312,3.116,26.75,2C918.25,487.5,918.75,478,906.75,478.25z"/>
	
		<path fill="#FFFFFF" stroke="#000000" stroke-width="2.1736" stroke-linecap="round" stroke-linejoin="round" stroke-miterlimit="10" d="
		M858.5,470.25c0,0,3.5,19.25,6.25,25"/>
	
		<path fill="#FFFFFF" stroke="#000000" stroke-width="2.1736" stroke-linecap="round" stroke-linejoin="round" stroke-miterlimit="10" d="
		M849.5,471c0,0,2.25,16.5,4.25,24"/>
	
		<path fill="#FFFFFF" stroke="#000000" stroke-width="2.1736" stroke-linecap="round" stroke-linejoin="round" stroke-miterlimit="10" d="
		M839,470.5c0,0,1.75,12.25,2.75,17.25"/>
	
		<path fill="#FFFFFF" stroke="#000000" stroke-width="2.1736" stroke-linecap="round" stroke-linejoin="round" stroke-miterlimit="10" d="
		M830,470c0,0,2,15,3.25,22.25"/>
	
		<path fill="#FFFFFF" stroke="#000000" stroke-width="2.1736" stroke-linecap="round" stroke-linejoin="round" stroke-miterlimit="10" d="
		M819.75,469.5c0,0-0.5,11.25,2,18.25"/>
	<path fill="none" stroke="#000000" stroke-width="2" stroke-linecap="round" stroke-linejoin="round" stroke-miterlimit="10" d="
		M475.587,541.005c0,0,3.531-8.461,10.059-3.75c6.528,4.711-14.174,18.382-18.48,25.49c3.593-1.648,6.834-0.288,9.453-0.332"/>
	<path fill="none" stroke="#000000" stroke-width="2" stroke-linecap="round" stroke-linejoin="round" stroke-miterlimit="10" d="
		M495.391,539.576l-11.488,15.65c0,0,6.106-0.267,10.069,2.8"/>
	<path fill="none" stroke="#000000" stroke-width="2" stroke-linecap="round" stroke-linejoin="round" stroke-miterlimit="10" d="
		M496.984,549.209c0,0-8.624,6.177-14.39,16.269"/>
	<path fill="none" stroke="#000000" stroke-width="2" stroke-linecap="round" stroke-linejoin="round" stroke-miterlimit="10" d="
		M459.5,575.556c0,0,16.25-4.056,20.25,0.444"/>
	<path fill="none" stroke="#000000" stroke-width="2" stroke-linecap="round" stroke-linejoin="round" stroke-miterlimit="10" d="
		M457.75,583.544c0,0,11.875-4.877,16.75,0"/>
	<path fill="none" stroke="#000000" stroke-width="2" stroke-linecap="round" stroke-linejoin="round" stroke-miterlimit="10" d="
		M455.5,593.5c0,0,11.666-8.5,14.125-3.333"/>
	<path fill="none" stroke="#000000" stroke-width="2" stroke-linecap="round" stroke-linejoin="round" stroke-miterlimit="10" d="
		M455.5,601.25c0,0,9.5-9.5,11.666-3.646"/>
	<path fill="none" stroke="#000000" stroke-width="2" stroke-linecap="round" stroke-linejoin="round" stroke-miterlimit="10" d="
		M635,494.5c0,0,8,7.75,0.5,10c-6.082,1.825-18.5-12.19-18.5-12.19l-0.435,11.024"/>
	<path fill="none" stroke="#000000" stroke-width="2" stroke-linecap="round" stroke-linejoin="round" stroke-miterlimit="10" d="
		M636.98,515.692c0,0,3.5,4.059,0,5.559s-7.98,0-7.23-5.25c-1,3.25-2.75,7.75-8,5s-9.25-11.083-3-12.667"/>
	<path fill="none" stroke="#000000" stroke-width="2" stroke-linecap="round" stroke-linejoin="round" stroke-miterlimit="10" d="
		M605.25,492c0,0,2.287,6.75-2.356,22.75"/>
	<path fill="none" stroke="#000000" stroke-width="2" stroke-linecap="round" stroke-linejoin="round" stroke-miterlimit="10" d="
		M598.5,494.25c0,0,1,2.875-0.5,8.75"/>
	<path fill="none" stroke="#000000" stroke-width="2" stroke-linecap="round" stroke-linejoin="round" stroke-miterlimit="10" d="
		M587.75,491.25c0,0,5,12.083,0,23.5"/>
	<path fill="none" stroke="#000000" stroke-width="2" stroke-linecap="round" stroke-linejoin="round" stroke-miterlimit="10" d="
		M578.75,491.25c0,0,3,11.94,0,23.5"/>
	<path fill="none" stroke="#000000" stroke-width="2" stroke-linecap="round" stroke-linejoin="round" stroke-miterlimit="10" d="
		M717.5,525.25c0,0,9.286-8.5,9.251-0.559c-0.024,5.605-24.501,11.137-24.501,11.137s4.261,2.339,4.261,4.754"/>
	<path fill="none" stroke="#000000" stroke-width="2" stroke-linecap="round" stroke-linejoin="round" stroke-miterlimit="10" d="
		M725.75,535.828c0,0,12.75-8.828,9.75,1.922c-1.834,6.572-26.417,8.457-26.417,8.457s2.708,4.844,2.417,7.241"/>
	<path fill="none" stroke="#000000" stroke-width="2" stroke-linecap="round" stroke-linejoin="round" stroke-miterlimit="10" d="
		M692.25,539.576c0,0,7.25,4.591,8.25,18.758"/>
	<path fill="none" stroke="#000000" stroke-width="2" stroke-linecap="round" stroke-linejoin="round" stroke-miterlimit="10" d="
		M684.75,542.586c0,0,6.185,10.647,5.75,18.665"/>
	<path fill="none" stroke="#000000" stroke-width="2" stroke-linecap="round" stroke-linejoin="round" stroke-miterlimit="10" d="
		M676,546.25c0,0,4.34,13.781,2.59,17.531"/>
	<path fill="none" stroke="#000000" stroke-width="2" stroke-linecap="round" stroke-linejoin="round" stroke-miterlimit="10" d="
		M667.25,549.286c0,0,1.75,5.99,1.25,10.214"/>
	<path fill="none" stroke="#000000" stroke-width="2" stroke-linecap="round" stroke-linejoin="round" stroke-miterlimit="10" d="
		M732,563.781c0,0,4.784-9.024,10.017-9.902"/>
	<path fill="none" stroke="#000000" stroke-width="2" stroke-linecap="round" stroke-linejoin="round" stroke-miterlimit="10" d="
		M742.017,565.478c0,0,2.429-9.152,7.706-9.815"/>
	<path fill="none" stroke="#000000" stroke-width="2" stroke-linecap="round" stroke-linejoin="round" stroke-miterlimit="10" d="
		M752.25,563.781c0,0,2.176-4.872,5.088-4.951"/>
	<path fill="none" stroke="#000000" stroke-width="2" stroke-linecap="round" stroke-linejoin="round" stroke-miterlimit="10" d="
		M755.164,573.334c0,0,5.4-9.345,8.743-10.589"/>
	<path fill="none" stroke="#000000" stroke-width="2" stroke-linecap="round" stroke-linejoin="round" stroke-miterlimit="10" d="
		M784.262,588.571l-1.988,7.127c0,0-4.274-12.281-12.024-19.698"/>
	<path fill="none" stroke="#000000" stroke-width="2" stroke-linecap="round" stroke-linejoin="round" stroke-miterlimit="10" d="
		M704.667,439c0,0,6.666,3.333-2.667,6.667s-26,2-26,2l3.333,8"/>
</g>
</svg>
