<?xml version="1.0" encoding="utf-8"?>
<!-- Generator: Adobe Illustrator 16.0.0, SVG Export Plug-In . SVG Version: 6.00 Build 0)  -->
<!DOCTYPE svg PUBLIC "-//W3C//DTD SVG 1.1//EN" "http://www.w3.org/Graphics/SVG/1.1/DTD/svg11.dtd">
<svg version="1.1" id="Ebene_1" xmlns="http://www.w3.org/2000/svg" xmlns:xlink="http://www.w3.org/1999/xlink" x="0px" y="0px"
	 width="1480.625px" height="570px" viewBox="-312.375 -39 1480.625 570" enable-background="new -312.375 -39 1480.625 570"
	 xml:space="preserve">
<g id="Ebene_1_1_">
	<g id="Ebene_3">
		<path d="M-160.969,158.972c0,0-35.245,9.31,28.261,52.201c2.327,0.333,19.284,30.59,22.721,38.346
			c1.886,5.542,2.659,4.434,2.659,11.082s-26.432,65.865-28.869,69.855c3.77,0.219,7.314-2.659,12.189-8.868
			c4.875-6.209,18.716-30.037,18.716-30.037s-2.093,11.198-4.31,22.504c-2.213,11.307-5.318,18.175-1.995,25.489
			c0,0,6.262-5.794,12.026-26.406c0.221,7.979-16.295,131.514-17.572,138.218c-1.278,6.703-2.993,10.175-4.963,13.509
			c-1.861,3.249-9.878,8.051-17.417,13.146c-7.534,5.102-20.833,11.312-20.833,17.515c0.442,1.552,16.005-0.296,45.487-12.928
			c13.3,2.438,53.843,11.466,56.5,8.14c0,0-2.437-5.542-26.155-17.29c-6.205-2.887-19.259-5.666-18.375-14.312
			c0,0,21.536-139.712,24.419-186.258c0,0-2.517-31.059-4.011-34.384c0,0-14.364-68.78-16.852-74.305c0,0,52.76,32.733,63.67,40.467
			c1.933,0,7.328-5.085,5.247-6.905c-4.417-3.867-60.728-52.078-71.701-55.57c-4.157-1.164-5.321,0.332-7.149,1.163
			c-1.828,0.832-5.486-0.665-6.648-2.826c-1.167-2.162-0.335-3.325,0.997-4.489c1.333-1.164-9.144-8.811-13.797-9.642
			c4.653,7.814,26.597,44.055,29.589,84.34c0,0-30.584-77.581-47.43-79.797c0,0-3.104,6.097-1.276,10.418
			c0.832,1.828,0.333,3.823-2.826,5.319c-0.997,0.332-2.162,0.5-2.162,0.5s2.327,1.829,3.99,2.327
			c1.659,0.498,3.16,1.495,3.16,1.495"/>
		<path d="M-185.153,112.994c0,0,59.783-37.359,64.355-38.068c-1.071-1.938-13.671-1.449-20.991,2.908
			c-7.318,4.356-13.622,11.09-29.904,15.545C-181.69,100.941-189.606,112.823-185.153,112.994z"/>
		<path d="M-152.875,60.952c0,0-21.087,10.028-25.522,13.593c-6.354-13.834-31.083-40.584-39.416-42.993
			c2.126-6.809,30.872-31.739,38.5-32.771C-172.4,11.44-152.964,55.925-152.875,60.952z"/>
		<path fill="#F6931F" d="M-171.692,93.378c0,0,18.221-5.528,29.905-15.545c1.426-3.83-2.585-3.939-2.585-3.939
			s1.122-1.634-0.137-2.256c-1.256-0.622-2.014-1.623-1.331-3.316c0.683-1.695-2.649-3.499-2.649-3.499s-0.708-4.575-4.221-5.062
			c-3.512-0.487-27.721,12.715-28.843,14.35c-1.121,1.634-2.243,3.269,0.575,2.317c2.817-0.95,0.635,1.879,0.635,1.879
			s-1.122,1.636,1.012,2.378c2.135,0.743,1.577,1.561,1.831,2.939c0.259,1.378-1.424,3.831,1.65,4.257
			c3.072,0.426,1.768,3.377,1.768,3.377S-173.631,94.452-171.692,93.378z"/>
	</g>
	<g id="Ebene_6">
		
			<path fill="#FFFFFF" stroke="#000000" stroke-width="2" stroke-linecap="round" stroke-linejoin="round" stroke-miterlimit="10" d="
			M86.288,42.927l1.381-10.773c0,0,6.629,0,7.182,2.763c0.552,2.761-13.812,114.909-19.891,128.167
			c-6.079,13.259-55.244,38.395-74.03,47.234c-18.782,8.839-29.83,9.945-30.938,8.287c-1.104-1.658,4.42-136.456,4.42-136.456
			s1.103,3.314,17.125-0.276C7.557,78.283,79.1,52.317,94.017,37.678"/>
	</g>
	<g id="Ebene_2">
		
			<polyline fill="none" stroke="#009BA4" stroke-width="3" stroke-linecap="round" stroke-linejoin="round" stroke-miterlimit="10" points="
			0.047,219.248 -16.232,169.931 -21.02,162.748 -20.541,172.803 -2.186,219.886 -0.271,219.567 -19.264,169.292 		"/>
	</g>
	<g id="Ebene_4">
		<path d="M82.329,126.899c0,0-14.179,9.759-12.522,11.417c1.658,1.657-2.486,3.868-0.276,5.525c0,2.21-3.039,4.697,0.276,6.354
			c3.315,1.657,14.271-5.617,13.442-7.55c-0.829-1.933,1.656-2.761,0.552-4.972s3.314-4.696,1.657-6.353s-1.936-3.591-3.867-2.486"
			/>
		<path d="M-84.144,234.905c0,0,47.511-28.728,51.931-28.451c4.421,0.277,12.721,0.17,15.104-0.737
			c5.801-2.21,24.952-14.456,18.599-14.731c2.486-1.381,0.552-4.144-1.935-4.972c1.935-2.485,4.694-4.696,1.935-4.972
			c-2.763-0.276-23.47,8.778-28.451,8.01c-3.591-0.552-2.763-2.763-2.211-4.972c0.552-2.21-3.04-0.828-4.419,1.38
			c-1.38,2.21-2.211,5.802-3.866,11.602c0,0-40.605,23.756-51.102,26.518"/>
	</g>
</g>
<g id="Ebene_3_1_">
	<path fill="#FFFFFF" d="M82.018,438.667l-9.632,3.122l12.841,2.712l-16.013,3.069c0,0,10.283,2.56,11.101,3.352
		c-1.995,0.486-9.87,2.687-10.306,3.3c3.196,0.768,9.334,3.408,8.823,4.262c-4.144,0.445-11.355,4.553-11.714,5.337
		c6.752-0.288,3.938-0.288,3.938-0.288s-3.735,10.335-3.735,11.819c3.064-1.172,6.808-2.222,9.843-2.991
		c3.197-0.811,5.607-1.312,5.607-1.312l0.205,0.465c0,0-11.626,0.202-12.745,5.729c2.206-0.255,1.745,0,1.745,0
		s1.813,6.039,1.813,8.597c0,0,21.158-2.303,23.818-1.842l-0.255,0.87l52.695,0.307l-3.755-4.006l-4.448,0.382l-10.572-4.308
		l11.462,0.368l-3.276-4.004l5.781-0.354c0,0-6.906-5.475-6.446-6.293s8.834,0,8.834,0s-10.834-5.678-11.676-6.19
		c-6.828,0-12.404,0.101-14.348,0.384c3.019-0.793,9.976-2.021,11.562-1.97c1.586,0.052-2.966-3.58-2.966-3.58l15.859-0.236
		c0,0-6.344-4.881-7.367-4.778c-1.023,0.102,3.837-1.001,3.837-1.001l-0.238-0.668l2.029-0.173c0,0-5.423-3.172-5.27-3.837
		c0.153-0.665,5.781-0.562,5.781-0.562s-2.2-4.144-3.684-4.554c-1.484-0.41,5.883-0.564,5.883-0.564s-6.524-3.388-9.299-3.663
		c-2.774-0.275-18.788-0.377-19.146-1.298c5.474-1.279,27.15-4.962,24.651-9.106c-2.499-4.144-14.061-12.329-13.549-13.967
		c-6.396,3.786-39.342,23.533-47.681,23.073c0.307,2.046,0.818,4.143-2.148,5.065"/>
	<path fill="#FFFFFF" d="M410.648,433.671c0,0-0.647,8.533-3.512,9.76c4.283-0.156,9.757-0.536,9.757-0.536l-9.757,7.878
		c0,0,8.502,4.78-5.783,7.338c10.681-0.205,12.232,0.091,12.232,0.091l-1.603,1.466l0,0c0,0,4.451,6.006,4.494,9.119
		c-1.578,0.887-4.603,4.347-14.243,4.151c3.851,0.197,7.447,1.34,7.447,1.34l-7.447,4.294l-1.915,6.142l1.915,0.976
		c0,0,78.559-1.795,80.81-1.182c-5.935-1.227-8.134-4.808-8.134-4.808l2.282-0.432c0,0,0.46-7.757,3.403-8.858
		c2.942-1.103,7.495-2.579,7.495-2.579l-9.649-0.614l-12.38-1.126l15.136-1.53c0,0-3.216-1.896-1.113-4.003
		c-12.796-0.298-2.769-4.643,0.608-6.027c0.754-0.338,1.932-0.802,3.84-1.312c-1.486-0.223-6.142-3.572-6.142-3.572l-6.089-0.257
		l-1.738-5.292c0,0,2.812-5.515,8.336-5.208c5.525,0.307,7.523-0.832,7.523-0.832s-3.12-1.521-6.547-1.948
		c-3.428-0.426-9.048-11.663-9.048-11.663l5.7,0.528l-7.775-8.787c0,0,3.548-0.151,3.55-1.368c0.104-0.5-1.738-1.216-1.738-1.216
		s-47.784,2.126-52.03,1.216c0,0-9.49,4.56-15.015,4.457c5.321,0.92,16.281,0.457,16.281,0.457s-10.906,2.836-11.333,3.474
		c9.191-0.896,12.013-1.042,12.013-1.042s-20.951,8.42-21.348,9.65"/>
	
		<path fill="none" stroke="#000000" stroke-width="2.1736" stroke-linecap="round" stroke-linejoin="round" stroke-miterlimit="10" d="
		M402.466,485.688c0,0,74.058-0.891,80.285-0.891c6.227,0-28.244-5.338-28.244-5.338"/>
	
		<path fill="none" stroke="#000000" stroke-width="2.1736" stroke-linecap="round" stroke-linejoin="round" stroke-miterlimit="10" d="
		M477.191,479.46c-1.112,0-32.47-1.112-60.714,2.002"/>
	
		<line fill="none" stroke="#000000" stroke-width="2.1736" stroke-linecap="round" stroke-linejoin="round" stroke-miterlimit="10" x1="402.466" y1="478.571" x2="431.6" y2="477.904"/>
	
		<path fill="none" stroke="#000000" stroke-width="2.1736" stroke-linecap="round" stroke-linejoin="round" stroke-miterlimit="10" d="
		M419.813,475.681c0,0-13.789-3.337-18.46-2.669c28.467-1.557,58.713-2.669,70.278-1.779c-4.892-2.67-55.154-2.892-55.154-2.892
		s64.051-4.004,64.718-3.781"/>
	
		<polyline fill="none" stroke="#000000" stroke-width="2.1736" stroke-linecap="round" stroke-linejoin="round" stroke-miterlimit="10" points="
		460.066,465.673 488.088,468.341 475.19,471.898 	"/>
	
		<line fill="none" stroke="#000000" stroke-width="2.1736" stroke-linecap="round" stroke-linejoin="round" stroke-miterlimit="10" x1="480.082" y1="460.557" x2="412.251" y2="459.667"/>
	
		<path fill="none" stroke="#000000" stroke-width="2.1736" stroke-linecap="round" stroke-linejoin="round" stroke-miterlimit="10" d="
		M400.909,458.11c0,0,59.603-3.113,66.274-1.557"/>
	
		<path fill="none" stroke="#000000" stroke-width="2.1736" stroke-linecap="round" stroke-linejoin="round" stroke-miterlimit="10" d="
		M484.53,453.217c0,0-30.468-1.778-41.366-3.113"/>
	
		<path fill="none" stroke="#000000" stroke-width="2.1736" stroke-linecap="round" stroke-linejoin="round" stroke-miterlimit="10" d="
		M472.299,449.437c0,0-45.37-0.444-58.713,1.336"/>
	
		<path fill="none" stroke="#000000" stroke-width="2.1736" stroke-linecap="round" stroke-linejoin="round" stroke-miterlimit="10" d="
		M470.074,444.1c8.673,0-58.935-2.225-62.938-0.669c0,0,50.706-5.56,64.05-5.56"/>
	
		<path fill="none" stroke="#000000" stroke-width="2.1736" stroke-linecap="round" stroke-linejoin="round" stroke-miterlimit="10" d="
		M470.074,439.651c0.667,0,16.458-1.557,16.458-1.557s-24.019-9.563-54.932-8.674"/>
	
		<path fill="none" stroke="#000000" stroke-width="2.1736" stroke-linecap="round" stroke-linejoin="round" stroke-miterlimit="10" d="
		M464.736,432.757l-46.703,3.113c0,0-12.904-4.17-18.904-4.669c23.351-3.781,45.369-3.781,60.714-3.114"/>
	
		<path fill="none" stroke="#000000" stroke-width="2.1736" stroke-linecap="round" stroke-linejoin="round" stroke-miterlimit="10" d="
		M476.524,424.973c0,0-48.483-4.892-68.054-1.778"/>
	
		<path fill="none" stroke="#000000" stroke-width="2.1736" stroke-linecap="round" stroke-linejoin="round" stroke-miterlimit="10" d="
		M472.299,415.265c0,0-23.328,6.01-70.065,4.052c11.352-1.829,14.243-2.749,16.477-4.052"/>
	
		<path fill="#FCFCFC" stroke="#000000" stroke-width="2.1736" stroke-linecap="round" stroke-linejoin="round" stroke-miterlimit="10" d="
		M420.479,401.117c27.524,1.229,54.941-14.63,54.941-14.63s11.715,5.627,16.828,1.379c-4.247,10.742-21.814,16.429-32.291,19.117
		C451.478,409.413,420.479,401.117,420.479,401.117"/>
	
		<path fill="#FCFCFC" stroke="#000000" stroke-width="2.1736" stroke-linecap="round" stroke-linejoin="round" stroke-miterlimit="10" d="
		M465.599,394.313c0,0,8.357,4.272,10.405,4.298"/>
	
		<path fill="#FCFCFC" stroke="#000000" stroke-width="2.1736" stroke-linecap="round" stroke-linejoin="round" stroke-miterlimit="10" d="
		M469.743,392.473c0,0,8.594,4.346,9.515,4.398"/>
	
		<path fill="#FCFCFC" stroke="#000000" stroke-width="2.1736" stroke-linecap="round" stroke-linejoin="round" stroke-miterlimit="10" d="
		M473.633,390.478c0,0,6.699,3.63,8.694,4.194"/>
	<path d="M248.732,417.336c0,0-0.921,44.185-3.942,54.025c-1.737,7.111-4.297,13.098-4.297,13.098s31.104,4.911,55.252,0
		c-4.502-14.12-10.076-52.424-7.824-66.545C254.257,418.836,248.732,417.336,248.732,417.336z"/>
	<path fill="#F7941E" d="M247.606,414.972c0,0-0.869,0.793-0.921,1.407c-0.051,0.614,1.842,1.314,2.559,1.418
		c3.53,0.716,20.004,1.072,38.369,0.307c1.023,0,1.37-0.315,1.37-1.187c0-0.87-0.295-1.013,0.216-1.628
		c0.512-0.614-0.231-0.459-0.385-1.686c-0.153-1.229,1.893-1.996,1.432-2.764s-0.614-1.995,0.87-2.866
		c0.562-0.459,0.255-1.892,0.153-2.967c-0.102-1.073-0.367-1.887-1.126-2.71c-0.417-0.45-0.768-1.639-0.104-1.996
		c0.666-0.357,1.433-1.432,1.126-2.712c-0.307-1.278-2.098-2.455,0.04-2.932c1.381-0.205,1.034-2.849,0.062-3.31
		c-0.973-0.46-0.358-0.869,0.255-1.228c0.614-0.357,0.616-2.959-0.048-3.726c-20.875-1.799-38.272-0.667-42.517-1.064
		c0,0-2.827-0.299-1.685,1.08c0.691,0.834,1.842,1.073,1.842,1.073s-3.684,0.667-2.916,2.149c0.767,1.483,2.353,2.482,1.176,3.659
		c-1.177,1.177-2.098,1.894-1.177,3.787c0.921,1.892,1.586,2.66,2.251,2.762c0.665,0.103-2.303,0.973-1.843,1.996
		c0.461,1.021,1.228,2.302,0.768,3.887c-0.46,1.586-1.33,2.61-0.87,3.787c0.461,1.175,1.535,2.25,0.717,3.427
		c-0.819,1.177-0.307,1.738-0.307,1.738"/>
	<path d="M209.134,385.303c9.439,0,30.292,0.015,33.229,0c3.758-0.02,69.209,1.464,71.521,1.722
		c3.159,0.351,15.586,1.154,18.878,1.38c8.748,0.385,12.432-0.614,9.668-1.688c-2.762-1.074-42.019-1.918-49.957-2.379
		c-7.938-0.461-59.167-0.888-65.843-1.168c-4.052-0.17-25.938-0.674-25.478,0.861C201.435,384.974,200.92,385.303,209.134,385.303z"
		/>
	
		<path fill="none" stroke="#000000" stroke-width="2.1736" stroke-linecap="round" stroke-linejoin="round" stroke-miterlimit="10" d="
		M84.686,444.028c0,0-4.448-1.557-13.343-2.002c1.111-0.89,10.452-3.336,10.452-3.336s54.044-5.655,60.047-10.563
		c6.003-4.907-9.184-11.629-12.232-17.067c-14.507,8.885-29.929,19.365-47.593,23.13"/>
	
		<path fill="none" stroke="#000000" stroke-width="2.1736" stroke-linecap="round" stroke-linejoin="round" stroke-miterlimit="10" d="
		M128.276,440.024l18.903-0.667c0,0-6.004-4.005-9.563-3.781"/>
	
		<path fill="none" stroke="#000000" stroke-width="2.1736" stroke-linecap="round" stroke-linejoin="round" stroke-miterlimit="10" d="
		M124.94,445.14l20.016-0.667c0,0-2.891-4.892-4.67-4.671"/>
	
		<path fill="none" stroke="#000000" stroke-width="2.1736" stroke-linecap="round" stroke-linejoin="round" stroke-miterlimit="10" d="
		M138.951,445.362c0,0,4.448,3.112,6.005,3.558c-10.898-1.334-32.693-1.558-39.142-1.334s-29.356,3.336-35.806,6.45"/>
	
		<path fill="none" stroke="#000000" stroke-width="2.1736" stroke-linecap="round" stroke-linejoin="round" stroke-miterlimit="10" d="
		M75.123,448.92c0,0-4.67-1.334-6.672-1.11c11.12-1.559,32.915-7.562,48.26-6.005"/>
	
		<path fill="none" stroke="#000000" stroke-width="2.1736" stroke-linecap="round" stroke-linejoin="round" stroke-miterlimit="10" d="
		M142.287,449.588c-1.112,0.223-12.677,2.668-12.677,2.668"/>
	
		<path fill="none" stroke="#000000" stroke-width="2.1736" stroke-linecap="round" stroke-linejoin="round" stroke-miterlimit="10" d="
		M145.624,455.37c0,0-50.262-0.223-68.943,3.113"/>
	
		<path fill="none" stroke="#000000" stroke-width="2.1736" stroke-linecap="round" stroke-linejoin="round" stroke-miterlimit="10" d="
		M67.117,463.82c0,0,38.92-1.778,43.145-0.443"/>
	
		<path fill="none" stroke="#000000" stroke-width="2.1736" stroke-linecap="round" stroke-linejoin="round" stroke-miterlimit="10" d="
		M136.283,461.153l11.342,5.781c0,0-52.931-2.223-79.841,7.784"/>
	
		<path fill="none" stroke="#000000" stroke-width="2.1736" stroke-linecap="round" stroke-linejoin="round" stroke-miterlimit="10" d="
		M139.618,468.492l5.783,5.114c0,0-54.487-2.668-63.383-2.225"/>
	
		<path fill="none" stroke="#000000" stroke-width="2.1736" stroke-linecap="round" stroke-linejoin="round" stroke-miterlimit="10" d="
		M70.23,477.165c0,0,62.048-0.89,72.501,0.445"/>
	
		<path fill="none" stroke="#000000" stroke-width="2.1736" stroke-linecap="round" stroke-linejoin="round" stroke-miterlimit="10" d="
		M73.789,485.839c0,0,58.935-4.894,68.054-4.226"/>
	
		<polyline fill="none" stroke="#000000" stroke-width="2.1736" stroke-linecap="round" stroke-linejoin="round" stroke-miterlimit="10" points="
		95.584,484.948 150.516,485.395 146.291,481.168 	"/>
	
		<path fill="#FFFFFF" stroke="#000000" stroke-width="2.1736" stroke-linecap="round" stroke-linejoin="round" stroke-miterlimit="10" d="
		M92.581,361.418c0,0,15.564,38.033,6.56,50.531c20.464-4.283,31.105-10.012,33.152-12.468c2.046-2.457-8.595-47.478-29.877-53.615
		C97.913,357.324,98.299,359.781,92.581,361.418z"/>
	
		<path fill="#FFFFFF" stroke="#000000" stroke-width="2.1736" stroke-linecap="round" stroke-linejoin="round" stroke-miterlimit="10" d="
		M145.624,309.183c0,0,6.929,19.084,2.001,27.016c21.964-7.776,38.883-13.252,53.521-2.61c0,0,16.277-14.085,15.458-18.998
		C215.786,309.68,162.927,291.584,145.624,309.183z"/>
	
		<path fill="#FFFFFF" stroke="#000000" stroke-width="2.1736" stroke-linecap="round" stroke-linejoin="round" stroke-miterlimit="10" d="
		M232.362,336.428c3.479,4.044,28.854,28.673,28.035,40.543c0,3.07-2.25,3.479-10.232-2.974
		c2.891-12.414-11.05-19.945-24.557-26.903c14.326-16.064,2.252-9.618,2.252-9.618s1.385,0.726,2.919,3.283"/>
	
		<path fill="#FFFFFF" stroke="#000000" stroke-width="2.1736" stroke-linecap="round" stroke-linejoin="round" stroke-miterlimit="10" d="
		M284.953,379.12c0,0,4.803-9.106,10.792-7.471c6.398-13.505,21.541-37.652,33.41-41.336c0,0,5.321-11.051-16.371-16.371
		C291.092,308.621,278.431,371.847,284.953,379.12z"/>
	
		<path fill="#FFFFFF" stroke="#000000" stroke-width="2.1736" stroke-linecap="round" stroke-linejoin="round" stroke-miterlimit="10" d="
		M345.117,323.764c0,0,5.32-18.006,0-24.557c14.734-5.32,52.388-6.958,65.075,5.32c3.684,13.508,2.456,24.049,0,27.986
		C404.462,330.313,373.767,317.626,345.117,323.764z"/>
	
		<path fill="#FCFCFC" stroke="#000000" stroke-width="2.1736" stroke-linecap="round" stroke-linejoin="round" stroke-miterlimit="10" d="
		M460.56,339.182c22.483,0,40.127,29.398,33.776,40.04c-0.856-12.993-10.229-1.228-10.229-1.228s-2.899-30.106-41.835-28.06
		c0.664-2.432,1.789-3.562,2.907-4.909"/>
	
		<path fill="none" stroke="#000000" stroke-width="2.1736" stroke-linecap="round" stroke-linejoin="round" stroke-miterlimit="10" d="
		M490.163,373.228c0,0,2.806,2.369,4.173,5.994"/>
	
		<path fill="#FFFFFF" stroke="#000000" stroke-width="2.1736" stroke-linecap="round" stroke-linejoin="round" stroke-miterlimit="10" d="
		M405.037,335.225c0,0,3.301,9.339-5.293,16.295c34.917,4.168,77.369-19.262,76.238-25.811c-6.452-6.958-15.004-14.244-23.6-15.153
		C447.062,317.42,424.323,335.38,405.037,335.225z"/>
	<g id="Ebene_4_1_">
		<g>
			<g>
				<path fill="#F7941E" d="M311.659,371.718c1.935,0,1.935-3,0-3S309.724,371.718,311.659,371.718L311.659,371.718z"/>
			</g>
		</g>
		<g>
			<g>
				<path fill="#F7941E" d="M290.786,349.923c1.935,0,1.935-3,0-3S288.851,349.923,290.786,349.923L290.786,349.923z"/>
			</g>
		</g>
		<g>
			<g>
				<path fill="#F7941E" d="M330.997,363.431c1.935,0,1.935-3,0-3S329.062,363.431,330.997,363.431L330.997,363.431z"/>
			</g>
		</g>
		<g>
			<g>
				<path fill="#F7941E" d="M389.012,479.46c1.935,0,1.935-3,0-3S387.078,479.46,389.012,479.46L389.012,479.46z"/>
			</g>
		</g>
		<g>
			<g>
				<path fill="#F7941E" d="M379.804,363.431c1.935,0,1.935-3,0-3S377.869,363.431,379.804,363.431L379.804,363.431z"/>
			</g>
		</g>
		<g>
			<g>
				<path fill="#F7941E" d="M337.75,348.39c1.935,0,1.935-3,0-3S335.816,348.39,337.75,348.39L337.75,348.39z"/>
			</g>
		</g>
		<g>
			<g>
				<path fill="#F7941E" d="M340.206,337.338c1.935,0,1.935-3,0-3S338.271,337.338,340.206,337.338L340.206,337.338z"/>
			</g>
		</g>
		<g>
			<g>
				<path fill="#F7941E" d="M348.8,324.446c1.935,0,1.935-3,0-3S346.866,324.446,348.8,324.446L348.8,324.446z"/>
			</g>
		</g>
		<g>
			<g>
				<path fill="#F7941E" d="M356.781,307.871c1.935,0,1.935-3,0-3S354.847,307.871,356.781,307.871L356.781,307.871z"/>
			</g>
		</g>
		<g>
			<g>
				<path fill="#F7941E" d="M277.586,378.267c1.935,0,1.935-3,0-3S275.651,378.267,277.586,378.267L277.586,378.267z"/>
			</g>
		</g>
		<g>
			<g>
				<path fill="#F7941E" d="M279.224,356.165c1.935,0,1.935-3,0-3S277.289,356.165,279.224,356.165L279.224,356.165z"/>
			</g>
		</g>
		<g>
			<g>
				<path fill="#F7941E" d="M276.563,331.814c1.935,0,1.935-3,0-3S274.629,331.814,276.563,331.814L276.563,331.814z"/>
			</g>
		</g>
		<g>
			<g>
				<path fill="#F7941E" d="M297.641,312.168c1.935,0,1.935-3,0-3S295.707,312.168,297.641,312.168L297.641,312.168z"/>
			</g>
		</g>
		<g>
			<g>
				<path fill="#F7941E" d="M274.722,343.683c1.935,0,1.935-3,0-3S272.787,343.683,274.722,343.683L274.722,343.683z"/>
			</g>
		</g>
		<g>
			<g>
				<path fill="#F7941E" d="M374.79,328.744c1.935,0,1.935-3,0-3S372.855,328.744,374.79,328.744L374.79,328.744z"/>
			</g>
		</g>
		<g>
			<g>
				<path fill="#F7941E" d="M409.374,314.215c1.935,0,1.935-3,0-3S407.439,314.215,409.374,314.215L409.374,314.215z"/>
			</g>
		</g>
		<g>
			<g>
				<path fill="#F7941E" d="M426.154,307.258c1.935,0,1.935-3,0-3S424.22,307.258,426.154,307.258L426.154,307.258z"/>
			</g>
		</g>
		<g>
			<g>
				<path fill="#F7941E" d="M252.621,309.917c1.935,0,1.935-3,0-3S250.686,309.917,252.621,309.917L252.621,309.917z"/>
			</g>
		</g>
		<g>
			<g>
				<path fill="#F7941E" d="M232.566,282.904c1.935,0,1.935-3,0-3S230.631,282.904,232.566,282.904L232.566,282.904z"/>
			</g>
		</g>
		<g>
			<g>
				<path fill="#F7941E" d="M312.989,273.082c1.935,0,1.935-3,0-3S311.055,273.082,312.989,273.082L312.989,273.082z"/>
			</g>
		</g>
		<g>
			<g>
				<path fill="#F7941E" d="M456.44,352.891c1.935,0,1.935-3,0-3S454.506,352.891,456.44,352.891L456.44,352.891z"/>
			</g>
		</g>
		<g>
			<g>
				<path fill="#F7941E" d="M496.345,390.954c1.935,0,1.935-3,0-3S494.411,390.954,496.345,390.954L496.345,390.954z"/>
			</g>
		</g>
		<g>
			<g>
				<path fill="#F7941E" d="M444.367,409.166c1.935,0,1.935-3,0-3S442.432,409.166,444.367,409.166L444.367,409.166z"/>
			</g>
		</g>
		<g>
			<g>
				<path fill="#F7941E" d="M477.313,415.102c1.935,0,1.935-3,0-3S475.379,415.102,477.313,415.102L477.313,415.102z"/>
			</g>
		</g>
		<g>
			<g>
				<path fill="#F7941E" d="M488.978,431.472c1.935,0,1.935-3,0-3S487.043,431.472,488.978,431.472L488.978,431.472z"/>
			</g>
		</g>
		<g>
			<g>
				<path fill="#F7941E" d="M466.673,443.342c1.935,0,1.935-3,0-3S464.738,443.342,466.673,443.342L466.673,443.342z"/>
			</g>
		</g>
		<g>
			<g>
				<path fill="#F7941E" d="M470.561,440.476c1.935,0,1.935-3,0-3S468.626,440.476,470.561,440.476L470.561,440.476z"/>
			</g>
		</g>
		<g>
			<g>
				<path fill="#F7941E" d="M473.221,448.662c1.935,0,1.935-3,0-3S471.286,448.662,473.221,448.662L473.221,448.662z"/>
			</g>
		</g>
		<g>
			<g>
				<path fill="#F7941E" d="M204.625,300.5c1.935,0,1.935-3,0-3S202.69,300.5,204.625,300.5L204.625,300.5z"/>
			</g>
		</g>
		<g>
			<g>
				<path fill="#F7941E" d="M187.625,260.5c1.935,0,1.935-3,0-3S185.69,260.5,187.625,260.5L187.625,260.5z"/>
			</g>
		</g>
		<g>
			<g>
				<path fill="#F7941E" d="M223.125,246c1.935,0,1.935-3,0-3S221.19,246,223.125,246L223.125,246z"/>
			</g>
		</g>
		<g>
			<g>
				<path fill="#F7941E" d="M128.125,194.5c1.935,0,1.935-3,0-3S126.19,194.5,128.125,194.5L128.125,194.5z"/>
			</g>
		</g>
		<g>
			<g>
				<path fill="#F7941E" d="M131.625,240c1.935,0,1.935-3,0-3S129.69,240,131.625,240L131.625,240z"/>
			</g>
		</g>
		<g>
			<g>
				<path fill="#F7941E" d="M74.125,216c1.935,0,1.935-3,0-3S72.19,216,74.125,216L74.125,216z"/>
			</g>
		</g>
		<g>
			<g>
				<path fill="#F7941E" d="M104.625,188c1.935,0,1.935-3,0-3S102.69,188,104.625,188L104.625,188z"/>
			</g>
		</g>
		<g>
			<g>
				<path fill="#F7941E" d="M281.292,372.167c1.935,0,1.935-3,0-3S279.357,372.167,281.292,372.167L281.292,372.167z"/>
			</g>
		</g>
		<g>
			<g>
				<path fill="#F7941E" d="M283.292,364.833c1.935,0,1.935-3,0-3S281.357,364.833,283.292,364.833L283.292,364.833z"/>
			</g>
		</g>
		<g>
			<g>
				<path fill="#F7941E" d="M241.958,302.167c1.935,0,1.935-3,0-3S240.024,302.167,241.958,302.167L241.958,302.167z"/>
			</g>
		</g>
		<g>
			<g>
				<path fill="#F7941E" d="M235.292,291.5c1.935,0,1.935-3,0-3S233.357,291.5,235.292,291.5L235.292,291.5z"/>
			</g>
		</g>
		<g>
			<g>
				<path fill="#F7941E" d="M230.625,268.833c1.935,0,1.935-3,0-3S228.69,268.833,230.625,268.833L230.625,268.833z"/>
			</g>
		</g>
		<g>
			<g>
				<path fill="#F7941E" d="M229.292,254.833c1.935,0,1.935-3,0-3S227.357,254.833,229.292,254.833L229.292,254.833z"/>
			</g>
		</g>
		<g>
			<g>
				<path fill="#F7941E" d="M240.625,272.167c1.935,0,1.935-3,0-3S238.69,272.167,240.625,272.167L240.625,272.167z"/>
			</g>
		</g>
		<g>
			<g>
				<path fill="#F7941E" d="M245.958,334.167c1.935,0,1.935-3,0-3S244.024,334.167,245.958,334.167L245.958,334.167z"/>
			</g>
		</g>
		<g>
			<g>
				<path fill="#F7941E" d="M439.292,358.833c1.935,0,1.935-3,0-3S437.357,358.833,439.292,358.833L439.292,358.833z"/>
			</g>
		</g>
		<g>
			<g>
				<path fill="#F7941E" d="M445.292,354.167c1.935,0,1.935-3,0-3S443.357,354.167,445.292,354.167L445.292,354.167z"/>
			</g>
		</g>
		<g>
			<g>
				<path fill="#F7941E" d="M435.292,363.5c1.935,0,1.935-3,0-3S433.357,363.5,435.292,363.5L435.292,363.5z"/>
			</g>
		</g>
		<g>
			<g>
				<path fill="#F7941E" d="M425.958,354.833c1.935,0,1.935-3,0-3S424.024,354.833,425.958,354.833L425.958,354.833z"/>
			</g>
		</g>
		<g>
			<g>
				<path fill="#F7941E" d="M501.292,373.5c1.935,0,1.935-3,0-3S499.357,373.5,501.292,373.5L501.292,373.5z"/>
			</g>
		</g>
		<g>
			<g>
				<path fill="#F7941E" d="M501.292,366.833c1.935,0,1.935-3,0-3S499.357,366.833,501.292,366.833L501.292,366.833z"/>
			</g>
		</g>
		<g>
			<g>
				<path fill="#F7941E" d="M498.625,356.833c1.935,0,1.935-3,0-3S496.69,356.833,498.625,356.833L498.625,356.833z"/>
			</g>
		</g>
		<g>
			<g>
				<path fill="#F7941E" d="M493.958,344.167c1.935,0,1.935-3,0-3S492.024,344.167,493.958,344.167L493.958,344.167z"/>
			</g>
		</g>
		<g>
			<g>
				<path fill="#F7941E" d="M134.625,246.833c1.935,0,1.935-3,0-3S132.69,246.833,134.625,246.833L134.625,246.833z"/>
			</g>
		</g>
		<g>
			<g>
				<path fill="#F7941E" d="M138.625,254.833c1.935,0,1.935-3,0-3S136.69,254.833,138.625,254.833L138.625,254.833z"/>
			</g>
		</g>
		<g>
			<g>
				<path fill="#F7941E" d="M149.292,263.5c1.935,0,1.935-3,0-3S147.357,263.5,149.292,263.5L149.292,263.5z"/>
			</g>
		</g>
		<g>
			<g>
				<path fill="#F7941E" d="M117.958,245.5c1.935,0,1.935-3,0-3S116.024,245.5,117.958,245.5L117.958,245.5z"/>
			</g>
		</g>
		<g>
			<g>
				<path fill="#F7941E" d="M106.625,212.167c1.935,0,1.935-3,0-3S104.69,212.167,106.625,212.167L106.625,212.167z"/>
			</g>
		</g>
	</g>
	<path fill="none" stroke="#000000" stroke-width="2" stroke-linecap="round" stroke-linejoin="round" stroke-miterlimit="10" d="
		M300.662,331.544c0,0,2.168-5.195,6.175-2.302c4.008,2.891-8.702,11.283-11.346,15.648c2.206-1.013,4.196-0.177,5.803-0.204"/>
	<path fill="none" stroke="#000000" stroke-width="2" stroke-linecap="round" stroke-linejoin="round" stroke-miterlimit="10" d="
		M312.819,330.667l-7.052,9.607c0,0,3.749-0.164,6.181,1.719"/>
	<path fill="none" stroke="#000000" stroke-width="2" stroke-linecap="round" stroke-linejoin="round" stroke-miterlimit="10" d="
		M313.798,336.58c0,0-5.294,3.793-8.835,9.988"/>
	<path fill="none" stroke="#000000" stroke-width="2" stroke-linecap="round" stroke-linejoin="round" stroke-miterlimit="10" d="
		M290.786,352.756c0,0,9.976-2.49,12.432,0.271"/>
	<path fill="none" stroke="#000000" stroke-width="2" stroke-linecap="round" stroke-linejoin="round" stroke-miterlimit="10" d="
		M289.711,357.658c0,0,7.29-2.993,10.283,0"/>
	<path fill="none" stroke="#000000" stroke-width="2" stroke-linecap="round" stroke-linejoin="round" stroke-miterlimit="10" d="
		M288.33,363.771c0,0,7.161-5.218,8.671-2.046"/>
	<path fill="none" stroke="#000000" stroke-width="2" stroke-linecap="round" stroke-linejoin="round" stroke-miterlimit="10" d="
		M288.33,368.529c0,0,5.832-5.833,7.161-2.239"/>
	<path fill="none" stroke="#000000" stroke-width="2" stroke-linecap="round" stroke-linejoin="round" stroke-miterlimit="10" d="
		M398.528,302.994c0,0,4.911,4.758,0.307,6.139c-3.734,1.121-11.357-7.483-11.357-7.483l-0.267,6.768"/>
	<path fill="none" stroke="#000000" stroke-width="2" stroke-linecap="round" stroke-linejoin="round" stroke-miterlimit="10" d="
		M399.744,316.004c0,0,2.148,2.491,0,3.412c-2.149,0.921-4.899,0-4.439-3.224c-0.614,1.996-1.688,4.759-4.911,3.07
		s-5.679-6.804-1.842-7.776"/>
	<path fill="none" stroke="#000000" stroke-width="2" stroke-linecap="round" stroke-linejoin="round" stroke-miterlimit="10" d="
		M379.804,300.077c0,0,1.864,5.526-0.987,15.348"/>
	<path fill="none" stroke="#000000" stroke-width="2" stroke-linecap="round" stroke-linejoin="round" stroke-miterlimit="10" d="
		M375.425,300.077c0,0,1.309,4.529,0.388,8.134"/>
	<path fill="none" stroke="#000000" stroke-width="2" stroke-linecap="round" stroke-linejoin="round" stroke-miterlimit="10" d="
		M369.52,300.999c0,0,3.07,7.418,0,14.426"/>
	<path fill="none" stroke="#000000" stroke-width="2" stroke-linecap="round" stroke-linejoin="round" stroke-miterlimit="10" d="
		M363.995,300.999c0,0,1.842,7.33,0,14.426"/>
	<path fill="none" stroke="#000000" stroke-width="2" stroke-linecap="round" stroke-linejoin="round" stroke-miterlimit="10" d="
		M449.175,321.871c0,0,5.701-5.218,5.68-0.343c-0.015,3.441-15.042,6.838-15.042,6.838s2.616,1.436,2.616,2.918"/>
	<path fill="none" stroke="#000000" stroke-width="2" stroke-linecap="round" stroke-linejoin="round" stroke-miterlimit="10" d="
		M454.241,328.366c0,0,7.828-5.42,5.986,1.18c-1.126,4.034-16.218,5.191-16.218,5.191s1.663,2.974,1.484,4.444"/>
	<path fill="none" stroke="#000000" stroke-width="2" stroke-linecap="round" stroke-linejoin="round" stroke-miterlimit="10" d="
		M433.674,330.667c0,0,4.451,2.818,5.065,11.516"/>
	<path fill="none" stroke="#000000" stroke-width="2" stroke-linecap="round" stroke-linejoin="round" stroke-miterlimit="10" d="
		M429.07,332.514c0,0,3.797,6.537,3.53,11.459"/>
	<path fill="none" stroke="#000000" stroke-width="2" stroke-linecap="round" stroke-linejoin="round" stroke-miterlimit="10" d="
		M423.698,334.765c0,0,2.665,8.46,1.59,10.762"/>
	<path fill="none" stroke="#000000" stroke-width="2" stroke-linecap="round" stroke-linejoin="round" stroke-miterlimit="10" d="
		M418.327,336.628c0,0,1.074,3.677,0.767,6.271"/>
	<path fill="none" stroke="#000000" stroke-width="2" stroke-linecap="round" stroke-linejoin="round" stroke-miterlimit="10" d="
		M458.078,345.526c0,0,2.937-5.54,6.149-6.079"/>
	<path fill="none" stroke="#000000" stroke-width="2" stroke-linecap="round" stroke-linejoin="round" stroke-miterlimit="10" d="
		M464.227,346.568c0,0,1.491-5.619,4.731-6.026"/>
	<path fill="none" stroke="#000000" stroke-width="2" stroke-linecap="round" stroke-linejoin="round" stroke-miterlimit="10" d="
		M470.51,345.526c0,0,1.336-2.991,3.124-3.039"/>
	<path fill="none" stroke="#000000" stroke-width="2" stroke-linecap="round" stroke-linejoin="round" stroke-miterlimit="10" d="
		M472.299,351.391c0,0,3.315-5.736,5.367-6.5"/>
	<path fill="none" stroke="#000000" stroke-width="2" stroke-linecap="round" stroke-linejoin="round" stroke-miterlimit="10" d="
		M490.163,360.744l-1.221,4.377c0,0-2.624-7.54-7.381-12.094"/>
	<path fill="none" stroke="#000000" stroke-width="2" stroke-linecap="round" stroke-linejoin="round" stroke-miterlimit="10" d="
		M458.999,405.364c0,0-5.524,1.382-3.223-1.382c2.301-2.763,12.07-2.661,12.07-2.661l-3.619-1.942"/>
	<path fill="none" stroke="#000000" stroke-width="2" stroke-linecap="round" stroke-linejoin="round" stroke-miterlimit="10" d="
		M447.333,401.931c0,0-2.762,1.444,1.229,1.438c2.613-0.004,15.504-5.593,11.946-6.411
		C459.355,396.693,456.364,396.711,447.333,401.931z"/>
</g>
<g>
	<g>
		<defs>
			<rect id="SVGID_1_" x="551.625" y="265.68" width="524" height="228.322"/>
		</defs>
		<clipPath id="SVGID_2_">
			<use xlink:href="#SVGID_1_"  overflow="visible"/>
		</clipPath>
		<g clip-path="url(#SVGID_2_)">
			<defs>
				<rect id="SVGID_3_" x="551.625" y="265.68" width="524" height="228.322"/>
			</defs>
			<clipPath id="SVGID_4_">
				<use xlink:href="#SVGID_3_"  overflow="visible"/>
			</clipPath>
			<path clip-path="url(#SVGID_4_)" fill="#FFFFFF" d="M832.842,484.488c0,0,10.274,5.474,59.745,1.5
				c0.38-7.779,0.692-20.794,0.692-20.794s3.779-0.441,3.731-4.463c-0.049-4.021,1.854-8.779-4.615-11.062
				c0.571-4.566,2.093-18.075,0.762-19.978c-1.332-1.903-22.071-2.142-22.071-2.142l-0.761-2.285l-2.331-0.772
				c0,0-0.061,1.65-2.955,0c-2.325-0.604-6.841-0.861-6.841-0.861l-7.446,2.815c0,0,0.511,1.998-2.277,2.384
				c-2.79,0.386-15.633,0.575-15.633,0.575l-0.666,24.165c0,0-3.559,2.474-3.539,5.708s1.712,9.484,3.387,9.546
				C832.557,474.689,832.842,484.488,832.842,484.488"/>
			<path clip-path="url(#SVGID_4_)" fill="#FFFFFF" d="M749.742,428.062l-14.903,0.71c0,0-0.938,11.257,5.911,55.589
				c19.787,1.713,53.782,2.822,56.431-0.031c0.365-11.227,2.363-37.404,2.649-42.731c0.285-5.327,1.617-12.852,0.285-13.708
				c-3.139-0.285-14.186,0.186-14.085-0.337s-2.468-9.101-4.561-10.093c0.951-0.516,1.617-1.088,1.617-1.088l-6.539-1.142
				l-1.357-2.283h-3.805c0,0-2.378-1.058-7.04-1.671c0.095,0.719,0.285,1.29,0.285,1.29s-2.759-0.762-3.33-0.667
				c-0.57,0.096-0.285,1.048-0.285,1.048s-5.137-0.096-6.374,1.331c0.666,0.952,1.039,1.311-0.729,1.702
				c0.229,1.342-1.364,3.535-1.364,3.535l-0.143,1.137C752.406,420.653,749.409,422.819,749.742,428.062"/>
			<path clip-path="url(#SVGID_4_)" fill="#FFFFFF" d="M653.229,440.441l1.066,10.18l0.36,15.982l1.332,19.385l3.302,1.092
				c0,0,48.451,1.688,49.308,0.452s0-26.023,0-26.023s-2.741-27.156-0.99-28.298c-4.622-0.285-16.324-1.129-16.324-1.129
				s-4.272-6.406-1.232-5.636c-0.194-2.464-1.968-5.413-3.27-5.794c-1.302-0.38,16.779-23.117,18.441-25.495
				c1.662-2.379,4.57-10.428,0.69-13.062c-2.738-1.303-5.307-2.444-8.922,2.217s-17.764,32.612-19.347,34.478
				c-3.485,0.438-10.62,1.035-11.001,2.496c-0.571-0.632-0.987-1.729-0.987-1.729l-4.34,3.476l-1.618,0.19l-5.993,5.138
				c0,0-3.33,6.944-3.33,7.61S651.421,439.395,653.229,440.441"/>
			<path clip-path="url(#SVGID_4_)" fill="#FFFFFF" d="M557.733,432.653c0,0,4.868,51.266,7.372,56.308
				c8.218,0.502,57.222-0.625,59.759-0.932c-0.845-6.274-6.021-35.302,2.039-54.121
				C614.109,432.226,567.693,430.953,557.733,432.653"/>
		</g>
		<g clip-path="url(#SVGID_2_)">
			<defs>
				<rect id="SVGID_5_" x="551.625" y="265.68" width="524" height="228.322"/>
			</defs>
			<clipPath id="SVGID_6_">
				<use xlink:href="#SVGID_5_"  overflow="visible"/>
			</clipPath>
			<path clip-path="url(#SVGID_6_)" fill="#FFFFFF" d="M604.656,431.504l-0.026-2.301l0.418-1.672l-2.091-3.659
				c0,0,0.575,0.787,0.104-0.938c-0.472-1.726-2.301-1.782-2.301-1.782l0.314-1.359c0,0-0.18,0.549-2.846-0.078
				c0,0,11.332-30.678,12.569-38.859c1.236-8.182-1.973-7.104-4.826-5.2c-2.854,1.902-7.14,7.136-8.873,20.646
				c-1.735,13.508-2.188,23.232-2.188,23.232l-1.617-0.877h-3.996l-2.188-0.741l-2.664,0.933c0,0-5.518-1.019-6.85-0.353
				c-1.332,0.666,0.856,1.589,0.856,1.589c-3.032,1.046-2.759,2.759-2.759,2.759l-1.894,1.808l-1.056,1.343v1.796l-1.807,2.244
				l0.241,1.101l-0.224,0.441"/>
			
				<path clip-path="url(#SVGID_6_)" fill="none" stroke="#000000" stroke-width="2" stroke-linecap="round" stroke-linejoin="round" stroke-miterlimit="10" d="
				M604.656,431.504l-0.026-2.301l0.418-1.672l-2.091-3.659c0,0,0.575,0.787,0.104-0.938c-0.472-1.726-2.301-1.782-2.301-1.782
				l0.314-1.359c0,0-0.18,0.549-2.846-0.078c0,0,11.332-30.678,12.569-38.859c1.236-8.182-1.973-7.104-4.826-5.2
				c-2.854,1.902-7.14,7.136-8.873,20.646c-1.735,13.508-2.188,23.232-2.188,23.232l-1.617-0.877h-3.996l-2.188-0.741l-2.664,0.933
				c0,0-5.518-1.019-6.85-0.353c-1.332,0.666,0.856,1.589,0.856,1.589c-3.032,1.046-2.759,2.759-2.759,2.759l-1.894,1.808
				l-1.056,1.343v1.796l-1.807,2.244l0.241,1.101l-0.224,0.441"/>
			<path clip-path="url(#SVGID_6_)" d="M600.871,428.509c-0.787,0.18-0.1,3.895,1.367,3.551
				C604.768,431.473,604.074,427.771,600.871,428.509"/>
			<path clip-path="url(#SVGID_6_)" d="M571.595,432.021c0,0-1.805-1.449-0.644-2.953c0.938-1.216,2.371-0.412,2.345,0.747
				C573.271,430.975,572.462,432.391,571.595,432.021"/>
			
				<path clip-path="url(#SVGID_6_)" fill="none" stroke="#000000" stroke-width="2" stroke-linecap="round" stroke-linejoin="round" stroke-miterlimit="10" d="
				M572.633,489.431l-7.529-0.47c0,0-5.019-25.566-5.019-29.487"/>
			
				<path clip-path="url(#SVGID_6_)" fill="none" stroke="#000000" stroke-width="2" stroke-linecap="round" stroke-linejoin="round" stroke-miterlimit="10" d="
				M558.988,448.024c0,0-1.255-14.431-1.255-15.371c0-0.941,57.563-2.354,69.169,1.255c-1.725,4.548-3.607,11.763-3.607,11.763"/>
			
				<path clip-path="url(#SVGID_6_)" fill="none" stroke="#000000" stroke-width="2" stroke-linecap="round" stroke-linejoin="round" stroke-miterlimit="10" d="
				M622.039,458.846c0,0,2.039,26.351,2.823,29.645"/>
			
				<path clip-path="url(#SVGID_6_)" fill="none" stroke="#000000" stroke-width="2" stroke-linecap="round" stroke-linejoin="round" stroke-miterlimit="10" d="
				M625.177,488.411c0,0-49.25,1.334-52.543,1.02"/>
			<path clip-path="url(#SVGID_6_)" fill="#FFFFFF" d="M558.204,448.024c0,0,6.692,1.673,5.019,6.273
				c-1.673,4.601-3.137,5.176-3.137,5.176s-5.646,1.254-5.176-2.51C555.38,453.2,554.909,447.24,558.204,448.024"/>
			
				<path clip-path="url(#SVGID_6_)" fill="none" stroke="#000000" stroke-width="2" stroke-linecap="round" stroke-linejoin="round" stroke-miterlimit="10" d="
				M558.204,448.024c0,0,6.692,1.673,5.019,6.273c-1.673,4.601-3.137,5.176-3.137,5.176s-5.646,1.254-5.176-2.51
				C555.38,453.2,554.909,447.24,558.204,448.024z"/>
			<path clip-path="url(#SVGID_6_)" fill="#FFFFFF" d="M623.294,445.671c0,0-3.137,0.471-2.979,3.922
				c0.157,3.45-0.471,4.705-1.255,6.273s1.255,3.137,3.607,2.823S630.666,452.102,623.294,445.671"/>
			
				<path clip-path="url(#SVGID_6_)" fill="none" stroke="#000000" stroke-width="2" stroke-linecap="round" stroke-linejoin="round" stroke-miterlimit="10" d="
				M623.294,445.671c0,0-3.137,0.471-2.979,3.922c0.157,3.45-0.471,4.705-1.255,6.273s1.255,3.137,3.607,2.823
				S630.666,452.102,623.294,445.671z"/>
			<path clip-path="url(#SVGID_6_)" fill="#FFFFFF" d="M588.062,416.087c0,0,6.945-40.718,6.945-43.477s-6.85-2.759-9.229,4.472
				c-2.378,7.229,0,33.582-1.332,41.765"/>
			
				<path clip-path="url(#SVGID_6_)" fill="none" stroke="#000000" stroke-width="2" stroke-linecap="round" stroke-linejoin="round" stroke-miterlimit="10" d="
				M588.062,416.087c0,0,6.945-40.718,6.945-43.477s-6.85-2.759-9.229,4.472c-2.378,7.229,0,33.582-1.332,41.765"/>
			<path clip-path="url(#SVGID_6_)" fill="#FFFFFF" d="M653.86,450.621c0,0-10.665,6.483,0.628,15.476
				c8.574-1.255,3.346-12.622,1.882-15.476H653.86z"/>
			
				<path clip-path="url(#SVGID_6_)" fill="none" stroke="#000000" stroke-width="2" stroke-linecap="round" stroke-linejoin="round" stroke-miterlimit="10" d="
				M653.86,450.621c0,0-10.665,6.483,0.628,15.476c8.574-1.255,3.346-12.622,1.882-15.476H653.86z"/>
			<path clip-path="url(#SVGID_6_)" fill="#FFFFFF" d="M705.097,445.555c0,0-4.392,0.627-5.229,4.6
				c-0.836,3.974,0.628,4.601,0.628,4.601s1.045,2.091,1.045,3.138c0,1.046,1.674,5.019,3.766,5.019c2.091,0,7.109-3.764,6.9-6.064
				C711.998,454.547,709.07,445.346,705.097,445.555"/>
			
				<path clip-path="url(#SVGID_6_)" fill="none" stroke="#000000" stroke-width="2" stroke-linecap="round" stroke-linejoin="round" stroke-miterlimit="10" d="
				M705.097,445.555c0,0-4.392,0.627-5.229,4.6c-0.836,3.974,0.628,4.601,0.628,4.601s1.045,2.091,1.045,3.138
				c0,1.046,1.674,5.019,3.766,5.019c2.091,0,7.109-3.764,6.9-6.064C711.998,454.547,709.07,445.346,705.097,445.555z"/>
			
				<path clip-path="url(#SVGID_6_)" fill="none" stroke="#000000" stroke-width="2" stroke-linecap="round" stroke-linejoin="round" stroke-miterlimit="10" d="
				M654.488,466.097l1.673,19.819c0,0,2.3,1.254,3.974,1.254"/>
			
				<path clip-path="url(#SVGID_6_)" fill="none" stroke="#000000" stroke-width="2" stroke-linecap="round" stroke-linejoin="round" stroke-miterlimit="10" d="
				M660.135,487.17c0,0,48.487,1.614,48.727,0.419c0.627-3.137-0.419-25.514-0.419-25.514"/>
			
				<path clip-path="url(#SVGID_6_)" fill="none" stroke="#000000" stroke-width="2" stroke-linecap="round" stroke-linejoin="round" stroke-miterlimit="10" d="
				M707.188,445.555c0,0-0.419-11.085,0.418-12.131c-18.403-2.299-49.981-4.182-55-1.463c0,6.9,1.254,17.461,1.254,17.461"/>
			
				<path clip-path="url(#SVGID_6_)" fill="none" stroke="#000000" stroke-width="2" stroke-linecap="round" stroke-linejoin="round" stroke-miterlimit="10" d="
				M680.106,418.789c0,0-12.035,0.587-12.891,1.861c-0.856,1.274-1.572-1.134-1.572-1.134l-4.352,3.705h-2.003l-5.49,5.019
				c0,0-2.854,5.339-3.425,7.194c-0.57,1.855,1.826,3.938,2.232,4.556"/>
			
				<path clip-path="url(#SVGID_6_)" fill="none" stroke="#000000" stroke-width="2" stroke-linecap="round" stroke-linejoin="round" stroke-miterlimit="10" d="
				M691.282,431.306c0,0-1.427-2.142-2.283-3.756s1.052-1.104,1.052-1.104s-0.41-4.505-3.204-5.768"/>
			<path clip-path="url(#SVGID_6_)" d="M669.994,430.168c0,0,3.213-2.36,4.782,0.45"/>
			<path clip-path="url(#SVGID_6_)" fill="#FFFFFF" d="M682.891,419.644c0,0,29.24-32.187,36.171-30.67
				c15.851,3.47,5.327,10.939,1.713,11.891c-3.615,0.951-33.848,19.165-36.342,21.485"/>
			
				<path clip-path="url(#SVGID_6_)" fill="none" stroke="#000000" stroke-width="2" stroke-linecap="round" stroke-linejoin="round" stroke-miterlimit="10" d="
				M682.891,419.644c0,0,29.24-32.187,36.171-30.67c15.851,3.47,5.327,10.939,1.713,11.891
				c-3.615,0.951-33.848,19.165-36.342,21.485"/>
			
				<path clip-path="url(#SVGID_6_)" fill="none" stroke="#000000" stroke-width="2" stroke-linecap="round" stroke-linejoin="round" stroke-miterlimit="10" d="
				M677.644,418.427c3.119-5.377,8.348-14.352,10.404-18.643c3.413-7.123,7.987-14.588,10.655-17.217
				c4.411-4.345,8.789,0.944,8.789,0.944s1.877,5.79-2.271,11.551"/>
			
				<path clip-path="url(#SVGID_6_)" fill="none" stroke="#000000" stroke-width="2" stroke-linecap="round" stroke-linejoin="round" stroke-miterlimit="10" d="
				M749.902,485.175c0,0,28.44,2.3,47.263-0.836c0.418-0.628,0.209-21.958,1.255-23.005"/>
			
				<path clip-path="url(#SVGID_6_)" fill="none" stroke="#000000" stroke-width="2" stroke-linecap="round" stroke-linejoin="round" stroke-miterlimit="10" d="
				M800.093,443.141c0,0,1.045-14.221,0.209-15.267c-7.946-0.419-62.737-0.627-65.457,0.627c0,6.902,0.209,15.895,0.628,18.404"/>
			
				<polyline clip-path="url(#SVGID_6_)" fill="none" stroke="#000000" stroke-width="2" stroke-linecap="round" stroke-linejoin="round" stroke-miterlimit="10" points="
				749.902,485.175 740.7,484.129 737.982,462.911 			"/>
			<path clip-path="url(#SVGID_6_)" fill="#FFFFFF" d="M734.636,447.323c0,0,7.737,0.209,7.528,4.601s-0.418,5.646-0.418,5.646
				s-0.209,2.301-2.51,4.183c-2.3,1.882-5.02-0.628-5.228-2.092C733.799,458.198,730.871,447.532,734.636,447.323"/>
			
				<path clip-path="url(#SVGID_6_)" fill="none" stroke="#000000" stroke-width="2" stroke-linecap="round" stroke-linejoin="round" stroke-miterlimit="10" d="
				M734.636,447.323c0,0,7.737,0.209,7.528,4.601s-0.418,5.646-0.418,5.646s-0.209,2.301-2.51,4.183
				c-2.3,1.882-5.02-0.628-5.228-2.092C733.799,458.198,730.871,447.532,734.636,447.323z"/>
			<path clip-path="url(#SVGID_6_)" fill="#FFFFFF" d="M798.838,443.559c0,0-6.483,2.719-5.438,7.11s2.51,9.41,2.719,10.247
				c0,0,1.255,0.628,4.392,0.21C803.648,460.707,804.903,443.142,798.838,443.559"/>
			
				<path clip-path="url(#SVGID_6_)" fill="none" stroke="#000000" stroke-width="2" stroke-linecap="round" stroke-linejoin="round" stroke-miterlimit="10" d="
				M798.838,443.559c0,0-6.483,2.719-5.438,7.11s2.51,9.41,2.719,10.247c0,0,1.255,0.628,4.392,0.21
				C803.648,460.707,804.903,443.142,798.838,443.559z"/>
			
				<path clip-path="url(#SVGID_6_)" fill="none" stroke="#000000" stroke-width="2" stroke-linecap="round" stroke-linejoin="round" stroke-miterlimit="10" d="
				M786.03,427.808c-0.294-2.649-0.784-3.58-1.707-5.777c-0.922-2.197-2.06-4.14-2.59-4.769c0.667-0.274,1.569-0.568,1.569-0.568
				s-1.099-1.158-7.024-1.629c-0.235-0.432-0.923-2.473-0.923-2.473s-2.728,0.02-3.591,0.216c-1.294-0.962-3.924-1.433-7.652-1.53
				c0.04,0.412,0.501,1.41,0.266,1.469s-2.071-0.841-3.738-0.92c0.079,0.256,0.349,1.246,0.349,1.246s-4.057-0.638-6.863,1.325
				c0.295,0.333,1.746,0.589,1.746,0.589s-1.324,0.504-2.029,0.995"/>
			
				<path clip-path="url(#SVGID_6_)" fill="none" stroke="#000000" stroke-width="2" stroke-linecap="round" stroke-linejoin="round" stroke-miterlimit="10" d="
				M753.842,417.459c0,0-0.894,0.608-1.437,2.097"/>
			
				<path clip-path="url(#SVGID_6_)" fill="none" stroke="#000000" stroke-width="2" stroke-linecap="round" stroke-linejoin="round" stroke-miterlimit="10" d="
				M751.986,421.285c0,0-2.924,3.649-2.08,6.396c0.314,0.039,0.982,0,0.982,0"/>
			
				<path clip-path="url(#SVGID_6_)" fill="none" stroke="#000000" stroke-width="2" stroke-linecap="round" stroke-linejoin="round" stroke-miterlimit="10" d="
				M757.107,418.38c0,0,1.084,2.011,1.551,2.219c0.529,0.234,3.276-0.334,3.845-0.785"/>
			<path clip-path="url(#SVGID_6_)" fill="#FFFFFF" d="M786.03,417.145c0,0,43.385-8.536,50.743,7.77c0,0,0.589,1.119-2.472,1.531
				c0,0-9.654,0.059-14.011-0.589c-5.062-0.706-20.604-6.946-34.261-6.301"/>
			
				<path clip-path="url(#SVGID_6_)" fill="none" stroke="#000000" stroke-width="2" stroke-linecap="round" stroke-linejoin="round" stroke-miterlimit="10" d="
				M786.03,417.145c0,0,43.385-8.536,50.743,7.77c0,0,0.589,1.119-2.472,1.531c0,0-9.654,0.059-14.011-0.589
				c-5.062-0.706-20.604-6.946-34.261-6.301"/>
			<path clip-path="url(#SVGID_6_)" fill="#FFFFFF" d="M761.954,410.14c0,0-4.856-12.127-2.148-16.66
				c2.355-3.941,9.624-11.76,12.45-9.596c2.916,2.234-0.158,8.404-3.709,12.657c-4.305,5.154-4.532,13.01-4.532,13.01"/>
			
				<path clip-path="url(#SVGID_6_)" fill="none" stroke="#000000" stroke-width="2" stroke-linecap="round" stroke-linejoin="round" stroke-miterlimit="10" d="
				M761.954,410.14c0,0-4.856-12.127-2.148-16.66c2.355-3.941,9.624-11.76,12.45-9.596c2.916,2.234-0.158,8.404-3.709,12.657
				c-4.305,5.154-4.532,13.01-4.532,13.01"/>
			<path clip-path="url(#SVGID_6_)" d="M779.007,421.657c0,0-2.316-0.078-2.454,1.57c-0.137,1.648,2.257,2.768,3.866,1.472
				C781.164,424.071,781.145,422.246,779.007,421.657"/>
			
				<path clip-path="url(#SVGID_6_)" fill="none" stroke="#000000" stroke-width="2" stroke-linecap="round" stroke-linejoin="round" stroke-miterlimit="10" d="
				M833.679,452.856c0,0-5.438,1.882-5.02,6.692c0.419,4.81,1.464,8.364,3.347,8.991c1.882,0.627,6.9,0.419,7.527-2.719
				c0.628-3.136-0.209-11.92-2.718-13.175C834.306,451.393,833.679,452.856,833.679,452.856z"/>
			
				<path clip-path="url(#SVGID_6_)" fill="none" stroke="#000000" stroke-width="2" stroke-linecap="round" stroke-linejoin="round" stroke-miterlimit="10" d="
				M894.116,464.986c0,0-5.855,1.672-7.528-4.603c-2.22-8.323,1.673-11.083,3.974-10.873c2.3,0.208,4.6,0.835,5.854,3.136
				c1.256,2.302,0.628,8.157,0.419,9.62C896.521,464.467,895.58,464.567,894.116,464.986z"/>
			
				<polyline clip-path="url(#SVGID_6_)" fill="none" stroke="#000000" stroke-width="2" stroke-linecap="round" stroke-linejoin="round" stroke-miterlimit="10" points="
				832.006,468.54 833.051,484.644 840.579,486.316 			"/>
			
				<path clip-path="url(#SVGID_6_)" fill="none" stroke="#000000" stroke-width="2" stroke-linecap="round" stroke-linejoin="round" stroke-miterlimit="10" d="
				M840.579,486.316c0,0,7.738,2.719,52.282-0.418c0.471-0.157,0.418-20.704,0.418-20.704"/>
			
				<path clip-path="url(#SVGID_6_)" fill="none" stroke="#000000" stroke-width="2" stroke-linecap="round" stroke-linejoin="round" stroke-miterlimit="10" d="
				M892.652,449.301c0,0,1.463-14.848,0.627-19.449c-0.836-4.601-60.229,0-60.229,0l-1.046,24.05"/>
			
				<path clip-path="url(#SVGID_6_)" fill="none" stroke="#000000" stroke-width="2" stroke-linecap="round" stroke-linejoin="round" stroke-miterlimit="10" d="
				M873.365,427.55l-2.66-0.626v-1.255l-2.725-1.098c0,0-1.808,0.752-3.037-0.94c0,0-6.536,0.837-6.745,0"/>
			
				<polyline clip-path="url(#SVGID_6_)" fill="none" stroke="#000000" stroke-width="2" stroke-linecap="round" stroke-linejoin="round" stroke-miterlimit="10" points="
				848.475,428.91 850.173,427.604 850.813,426.323 858.198,423.631 			"/>
			<path clip-path="url(#SVGID_6_)" fill="#FFFFFF" d="M857.789,421.907c0,0-10.472-42.495-18.592-44.495
				c-8.119-2.001-8.699,2.339-6.562,7.876c2.138,5.537,20.171,29.243,22.077,37.241"/>
			
				<path clip-path="url(#SVGID_6_)" fill="none" stroke="#000000" stroke-width="2" stroke-linecap="round" stroke-linejoin="round" stroke-miterlimit="10" d="
				M857.789,421.907c0,0-10.472-42.495-18.592-44.495c-8.119-2.001-8.699,2.339-6.562,7.876
				c2.138,5.537,20.171,29.243,22.077,37.241"/>
			<path clip-path="url(#SVGID_6_)" fill="#FFFFFF" d="M865.782,421.285c0,0,4.237-26.472,3.354-37.163
				c-0.605-7.321,4.424-16.553,8.562-7.206c4.138,9.347,1.287,16.625-1.855,25.614c-3.728,10.663-7.849,19.999-7.849,19.999"/>
			
				<path clip-path="url(#SVGID_6_)" fill="none" stroke="#000000" stroke-width="2" stroke-linecap="round" stroke-linejoin="round" stroke-miterlimit="10" d="
				M865.782,421.285c0,0,4.237-26.472,3.354-37.163c-0.605-7.321,4.424-16.553,8.562-7.206c4.138,9.347,1.287,16.625-1.855,25.614
				c-3.728,10.663-7.849,19.999-7.849,19.999"/>
			
				<polyline clip-path="url(#SVGID_6_)" fill="none" stroke="#F7941E" stroke-width="4" stroke-linecap="round" stroke-linejoin="round" stroke-miterlimit="10" points="
				857.577,442.915 853.724,458.755 867.994,458.897 			"/>
			
				<line clip-path="url(#SVGID_6_)" fill="none" stroke="#F7941E" stroke-width="4" stroke-linecap="round" stroke-linejoin="round" stroke-miterlimit="10" x1="863.808" y1="448.194" x2="864.235" y2="472.6"/>
			
				<path clip-path="url(#SVGID_6_)" fill="none" stroke="#F7941E" stroke-width="4" stroke-linecap="round" stroke-linejoin="round" stroke-miterlimit="10" d="
				M760.825,450.621c0,0-1.118-2.828,4.281-5.994c4.139-2.426,10.56,2.854,8.419,5.994c-3.59,5.758-7.092,4.557-5.79,5.071
				c1.378,0.546,5.094,1.143,7.075,3.49c2.426,3.425,3.696,10.491-4.853,12.272c-6.85,1.427-11.701-2.568-9.989-5.565"/>
			
				<path clip-path="url(#SVGID_6_)" fill="none" stroke="#F7941E" stroke-width="4" stroke-linecap="round" stroke-linejoin="round" stroke-miterlimit="10" d="
				M676.346,457.344c0,0-1.427-5.924-0.285-7.922c1.926-3.37,11.006-3.861,13.004,2.988c0,0,0.553,4.489-5.155,11.481
				c-5.708,6.993-8.705,8.42-8.705,8.42s-1.569,0.713-1.142-0.143c0.429-0.856,18.717,0.155,18.717,0.155"/>
			
				<path clip-path="url(#SVGID_6_)" fill="none" stroke="#F7941E" stroke-width="4" stroke-linecap="round" stroke-linejoin="round" stroke-miterlimit="10" d="
				M581.878,457.344l8.704-9.435c0,0,0.856-1.142,0.999,1.142c0.144,2.283,0.033,24.61,0.033,24.61"/>
		</g>
		<g clip-path="url(#SVGID_2_)">
			<defs>
				<rect id="SVGID_7_" x="551.625" y="265.68" width="524" height="228.322"/>
			</defs>
			<clipPath id="SVGID_8_">
				<use xlink:href="#SVGID_7_"  overflow="visible"/>
			</clipPath>
			<path clip-path="url(#SVGID_8_)" d="M1014.976,397.007l0.928,3.354c0,0,0.381-0.218,1.427-0.19
				c1.108,0.31,2.949,4.779,2.949,4.779"/>
			<path clip-path="url(#SVGID_8_)" d="M973.617,400.407c0,0-10.273,5.058-14.437,9.904c-5.859,6.923-7.706,13.289-1.143,14.485
				c12.083,2.203,88.261-6.242,110.95-26.006c7.801-8.301,2.474-14.009-10.084-15.341s-38.545,0.314-49.906,4.344
				C997.52,391.352,981.861,396.788,973.617,400.407"/>
			<path clip-path="url(#SVGID_8_)" d="M990.359,417.234c-1.819-1.463-1.594-4.649-1.034-5.388"/>
			<path clip-path="url(#SVGID_8_)" d="M994.498,437.177c0,0,0.785,17.838-1.784,21.263c-2.568,3.425-1.604,4.031-1.105,4.495
				s1.677,1.035,1.677,1.035s-6.707,4.815-5.066,6.385c1.642,1.57,3.532,2.962,3.532,2.962s-9.953,3.995-11.38,7.241
				c-1.428,3.247,1.427,6.422,8.348,8.491s32.357,7.242,52.407-3.425c-1.066-11.061-2.391-21.369-2.676-27.185
				c-0.25-6.564,0.321-20.835-1.677-29.111c-6.064,2.747-17.517,6.351-22.583,7.063
				C1008.09,437.427,994.498,437.177,994.498,437.177"/>
			<path clip-path="url(#SVGID_8_)" fill="#F7941E" d="M988.569,423.456c0,0-1.635,1.198-0.457,1.805
				c1.177,0.606,2.354,1.32,1.854,1.642c-0.499,0.321-1.213,1.07-0.249,1.355c0.963,0.285,1.213,0.214,1.213,0.214
				s-0.606,0.535-0.393,1.035c0.214,0.499,1.284,1.641,1.927,1.641c-0.5,0.606-0.821,1.284,0,1.463
				c0.82,0.179,1.296,0.535,1.296,0.535s-2.772,1.569-1.535,2.104c1.238,0.535,1.772,0.606,1.772,0.606s-0.998,0.856,0.5,1.32
				s16.352,0.321,23.486-1.498c7.136-1.82,17.172-5.066,19.609-6.875c0.785-0.499-0.464-2.437-1.034-3.15
				c-0.571-0.713-0.643-1.962-0.643-2.497s0.285-0.999-1.605-2.926c-0.178-0.285,0.179-0.713,0.714-1.177s-0.218-0.548-0.687-0.714
				c-0.496-0.176-1.383,0.107-0.205-0.963c1.177-1.07,1.355-2.283,0.214-2.89C1016.046,419.268,1001.169,421.898,988.569,423.456"/>
		</g>
		<g clip-path="url(#SVGID_2_)">
			<defs>
				<rect id="SVGID_9_" x="551.625" y="265.68" width="524" height="228.322"/>
			</defs>
			<clipPath id="SVGID_10_">
				<use xlink:href="#SVGID_9_"  overflow="visible"/>
			</clipPath>
			<path clip-path="url(#SVGID_10_)" fill="#FFFFFF" d="M989.641,271.007c-9.133-0.381-61.854,7.611-86.589,12.938
				c-2.379,25.116,24.354,130.757,24.354,130.757c12.558-3.806,71.921-17.547,71.921-17.547l14.08-1.617
				C1013.407,395.538,987.644,285.562,989.641,271.007"/>
			<path clip-path="url(#SVGID_10_)" fill="none" stroke="#000000" stroke-width="2" stroke-miterlimit="10" d="M989.641,271.007
				c-9.133-0.381-61.854,7.611-86.589,12.938c-2.379,25.116,24.354,130.757,24.354,130.757
				c12.558-3.806,71.921-17.547,71.921-17.547l14.08-1.617C1013.407,395.538,987.644,285.562,989.641,271.007"/>
			
				<polyline clip-path="url(#SVGID_10_)" fill="none" stroke="#000000" stroke-width="2" stroke-linecap="round" stroke-linejoin="round" stroke-miterlimit="10" points="
				953.282,300.118 955.364,309.486 965.031,308.109 963.557,298.406 953.282,300.118 			"/>
			
				<polygon clip-path="url(#SVGID_10_)" fill="none" stroke="#000000" stroke-width="2" stroke-linecap="round" stroke-linejoin="round" stroke-miterlimit="10" points="
				960.132,323.331 962.415,333.415 972.517,331.703 970.025,321.809 			"/>
			
				<path clip-path="url(#SVGID_10_)" fill="none" stroke="#000000" stroke-width="2" stroke-linecap="round" stroke-linejoin="round" stroke-miterlimit="10" d="
				M976.376,346.544l1.28,7.882l-9.914,2.393l-1.418-9.704c0-0.713,10.052-1.909,10.052-1.909"/>
			
				<polyline clip-path="url(#SVGID_10_)" fill="none" stroke="#000000" stroke-width="2" stroke-linecap="round" stroke-linejoin="round" stroke-miterlimit="10" points="
				970.025,367.473 980.015,365.428 982.727,375.132 972.309,377.558 970.025,367.473 			"/>
			
				<path clip-path="url(#SVGID_10_)" fill="none" stroke="#F7941E" stroke-width="3" stroke-linecap="round" stroke-linejoin="round" stroke-miterlimit="10" d="
				M952.236,310.583c0,0,3.52,3.14,5.231,5.138c0.999-4.281,3.14-18.979,6.564-21.691"/>
			
				<path clip-path="url(#SVGID_10_)" fill="none" stroke="#F7941E" stroke-width="3" stroke-linecap="round" stroke-linejoin="round" stroke-miterlimit="10" d="
				M959.157,333.415l4.875,3.71c0,0,4.248-14.93,7.958-20.78"/>
			
				<path clip-path="url(#SVGID_10_)" fill="none" stroke="#F7941E" stroke-width="3" stroke-linecap="round" stroke-linejoin="round" stroke-miterlimit="10" d="
				M966.792,354.726l5.198,3.995c0,0,3.648-13.081,7.93-18.932"/>
			<path clip-path="url(#SVGID_10_)" fill="#F7941E" d="M969.907,364.162c1.105,0,1.105-1.713,0-1.713
				C968.804,362.449,968.804,364.162,969.907,364.162"/>
			<path clip-path="url(#SVGID_10_)" fill="#F7941E" d="M972.517,362.259c1.104,0,1.104-1.712,0-1.712
				S971.412,362.259,972.517,362.259"/>
			<path clip-path="url(#SVGID_10_)" fill="#F7941E" d="M974.408,357.548c1.104,0,1.104-1.713,0-1.713
				S973.304,357.548,974.408,357.548"/>
			<path clip-path="url(#SVGID_10_)" fill="#F7941E" d="M975.291,351.908c1.104,0,1.104-1.712,0-1.712
				C974.186,350.196,974.186,351.908,975.291,351.908"/>
			<path clip-path="url(#SVGID_10_)" fill="#F7941E" d="M982.898,341.172c1.104,0,1.104-1.712,0-1.712
				C981.793,339.46,981.793,341.172,982.898,341.172"/>
			<path clip-path="url(#SVGID_10_)" fill="#F7941E" d="M984.795,357.632c1.104,0,1.104-1.713,0-1.713
				S983.69,357.632,984.795,357.632"/>
			<path clip-path="url(#SVGID_10_)" fill="#F7941E" d="M1004.698,358.434c1.104,0,1.104-1.713,0-1.713
				S1003.594,358.434,1004.698,358.434"/>
			<path clip-path="url(#SVGID_10_)" fill="#F7941E" d="M1009.329,346.062c1.104,0,1.104-1.713,0-1.713
				S1008.225,346.062,1009.329,346.062"/>
			<path clip-path="url(#SVGID_10_)" fill="#F7941E" d="M974.137,374.067c1.104,0,1.104-1.712,0-1.712
				C973.031,372.355,973.031,374.067,974.137,374.067"/>
			<path clip-path="url(#SVGID_10_)" fill="#F7941E" d="M1007.509,332.56c1.104,0,1.104-1.713,0-1.713
				S1006.404,332.56,1007.509,332.56"/>
			<path clip-path="url(#SVGID_10_)" fill="#F7941E" d="M958.039,371.755c1.104,0,1.104-1.713,0-1.713
				C956.934,370.042,956.934,371.755,958.039,371.755"/>
			<path clip-path="url(#SVGID_10_)" fill="#F7941E" d="M959.942,368.33c1.104,0,1.104-1.713,0-1.713
				C958.837,366.617,958.837,368.33,959.942,368.33"/>
			<path clip-path="url(#SVGID_10_)" fill="#F7941E" d="M961.464,372.896c1.104,0,1.104-1.713,0-1.713
				S960.359,372.896,961.464,372.896"/>
			<path clip-path="url(#SVGID_10_)" fill="#F7941E" d="M969.455,372.896c1.104,0,1.104-1.713,0-1.713
				S968.351,372.896,969.455,372.896"/>
			<path clip-path="url(#SVGID_10_)" fill="#F7941E" d="M984.27,336.365c1.104,0,1.104-1.712,0-1.712
				S983.165,336.365,984.27,336.365"/>
			<path clip-path="url(#SVGID_10_)" fill="#F7941E" d="M984.739,333.357c1.105,0,1.105-1.713,0-1.713
				C983.636,331.645,983.636,333.357,984.739,333.357"/>
			<path clip-path="url(#SVGID_10_)" fill="#F7941E" d="M983.941,328.61c1.104,0,1.104-1.712,0-1.712S982.837,328.61,983.941,328.61
				"/>
			<path clip-path="url(#SVGID_10_)" fill="#F7941E" d="M984.084,317.849c1.104,0,1.104-1.713,0-1.713
				S982.979,317.849,984.084,317.849"/>
			<path clip-path="url(#SVGID_10_)" fill="#F7941E" d="M993.189,321.198c1.104,0,1.104-1.712,0-1.712
				S992.085,321.198,993.189,321.198"/>
			<path clip-path="url(#SVGID_10_)" fill="#F7941E" d="M975.312,366.548c1.104,0,1.104-1.713,0-1.713
				S974.207,366.548,975.312,366.548"/>
			<path clip-path="url(#SVGID_10_)" fill="#F7941E" d="M986.579,368.52c1.104,0,1.104-1.712,0-1.712S985.475,368.52,986.579,368.52
				"/>
			<path clip-path="url(#SVGID_10_)" fill="#F7941E" d="M1001.801,382.409c1.104,0,1.104-1.712,0-1.712
				S1000.696,382.409,1001.801,382.409"/>
			<path clip-path="url(#SVGID_10_)" fill="#F7941E" d="M975.163,332.939c1.104,0,1.104-1.712,0-1.712
				S974.059,332.939,975.163,332.939"/>
			<path clip-path="url(#SVGID_10_)" fill="#F7941E" d="M1009.792,408.477c1.104,0,1.104-1.713,0-1.713
				S1008.688,408.477,1009.792,408.477"/>
			<path clip-path="url(#SVGID_10_)" fill="#F7941E" d="M1002.752,405.622c1.104,0,1.104-1.712,0-1.712
				S1001.647,405.622,1002.752,405.622"/>
			<path clip-path="url(#SVGID_10_)" fill="#F7941E" d="M1002.752,398.963c1.104,0,1.104-1.713,0-1.713
				S1001.647,398.963,1002.752,398.963"/>
			<path clip-path="url(#SVGID_10_)" fill="#F7941E" d="M1003.323,391.542c1.104,0,1.104-1.712,0-1.712
				S1002.219,391.542,1003.323,391.542"/>
			<path clip-path="url(#SVGID_10_)" fill="#F7941E" d="M993.049,382.79c1.104,0,1.104-1.712,0-1.712
				C991.943,381.078,991.943,382.79,993.049,382.79"/>
			<path clip-path="url(#SVGID_10_)" fill="#F7941E" d="M1011.504,398.012c1.104,0,1.104-1.712,0-1.712
				S1010.399,398.012,1011.504,398.012"/>
			<path clip-path="url(#SVGID_10_)" fill="#F7941E" d="M1011.124,392.494c1.104,0,1.104-1.713,0-1.713
				S1010.02,392.494,1011.124,392.494"/>
			<path clip-path="url(#SVGID_10_)" fill="#F7941E" d="M1013.787,386.596c1.105,0,1.105-1.713,0-1.713
				C1012.683,384.883,1012.683,386.596,1013.787,386.596"/>
			<path clip-path="url(#SVGID_10_)" fill="#F7941E" d="M1015.69,371.374c1.104,0,1.104-1.713,0-1.713
				S1014.586,371.374,1015.69,371.374"/>
			<path clip-path="url(#SVGID_10_)" fill="#F7941E" d="M957.658,335.413c1.104,0,1.104-1.712,0-1.712
				S956.554,335.413,957.658,335.413"/>
			<path clip-path="url(#SVGID_10_)" fill="#F7941E" d="M960.132,324.188c1.104,0,1.104-1.713,0-1.713
				S959.027,324.188,960.132,324.188"/>
			<path clip-path="url(#SVGID_10_)" fill="#F7941E" d="M978.778,320.953c1.104,0,1.104-1.713,0-1.713
				S977.674,320.953,978.778,320.953"/>
			
				<polyline clip-path="url(#SVGID_10_)" fill="none" stroke="#000000" stroke-width="2" stroke-linecap="round" stroke-linejoin="round" stroke-miterlimit="10" points="
				934.518,305.605 939.773,299.215 942.817,314.483 			"/>
			
				<path clip-path="url(#SVGID_10_)" fill="none" stroke="#000000" stroke-width="2" stroke-linecap="round" stroke-linejoin="round" stroke-miterlimit="10" d="
				M939.773,328.754c0,0,0.855-2.759,3.044-2.854c2.188-0.095,4.235,3.153,2.378,5.804c-1.95,2.782-4.709,6.184-4.709,6.184
				l8.42-1.555"/>
			<path clip-path="url(#SVGID_10_)" fill="#FFFFFF" d="M944.34,352.585c0,0,1.016-3.986,3.71-3.33
				c4.281,1.044,2.474,6.037,0.285,6.132c2.569-0.804,6.089,0.34,4.992,4.19c-0.469,1.646-6.323,2.984-7.275,1.082"/>
			
				<path clip-path="url(#SVGID_10_)" fill="none" stroke="#000000" stroke-width="2" stroke-linecap="round" stroke-linejoin="round" stroke-miterlimit="10" d="
				M944.34,352.585c0,0,1.016-3.986,3.71-3.33c4.281,1.044,2.474,6.037,0.285,6.132c2.569-0.804,6.089,0.34,4.992,4.19
				c-0.469,1.646-6.323,2.984-7.275,1.082"/>
			<polyline clip-path="url(#SVGID_10_)" fill="#FFFFFF" points="951.902,370.518 951.76,378.224 958.324,376.916 			"/>
			
				<polyline clip-path="url(#SVGID_10_)" fill="none" stroke="#000000" stroke-width="2" stroke-linecap="round" stroke-linejoin="round" stroke-miterlimit="10" points="
				951.902,370.518 951.76,378.224 958.324,376.916 			"/>
			<line clip-path="url(#SVGID_10_)" fill="#FFFFFF" x1="955.471" y1="374.228" x2="957.468" y2="382.996"/>
			
				<line clip-path="url(#SVGID_10_)" fill="none" stroke="#000000" stroke-width="2" stroke-linecap="round" stroke-linejoin="round" stroke-miterlimit="10" x1="955.471" y1="374.228" x2="957.468" y2="382.996"/>
		</g>
	</g>
</g>
</svg>
