<?xml version="1.0" encoding="UTF-8" standalone="no"?>
<!-- Generator: Adobe Illustrator 16.0.0, SVG Export Plug-In . SVG Version: 6.00 Build 0)  -->

<svg
   xmlns:dc="http://purl.org/dc/elements/1.1/"
   xmlns:cc="http://creativecommons.org/ns#"
   xmlns:rdf="http://www.w3.org/1999/02/22-rdf-syntax-ns#"
   xmlns:svg="http://www.w3.org/2000/svg"
   xmlns="http://www.w3.org/2000/svg"
   xmlns:sodipodi="http://sodipodi.sourceforge.net/DTD/sodipodi-0.dtd"
   xmlns:inkscape="http://www.inkscape.org/namespaces/inkscape"
   version="1.1"
   x="0px"
   y="0px"
   width="315.86536"
   height="376.4176"
   viewBox="0 0 315.86536 376.4176"
   enable-background="new 0 0 1202.667 370"
   xml:space="preserve"
   id="svg11755"
   sodipodi:docname="ProdServ_MagierInternational_Mobile.svg"
   inkscape:version="0.92.3 (unknown)"><metadata
   id="metadata11761"><rdf:RDF><cc:Work
       rdf:about=""><dc:format>image/svg+xml</dc:format><dc:type
         rdf:resource="http://purl.org/dc/dcmitype/StillImage" /><dc:title></dc:title></cc:Work></rdf:RDF></metadata><defs
   id="defs11759" /><sodipodi:namedview
   pagecolor="#ffffff"
   bordercolor="#666666"
   borderopacity="1"
   objecttolerance="10"
   gridtolerance="10"
   guidetolerance="10"
   inkscape:pageopacity="0"
   inkscape:pageshadow="2"
   inkscape:window-width="1855"
   inkscape:window-height="1056"
   id="namedview11757"
   showgrid="false"
   inkscape:zoom="0.68907616"
   inkscape:cx="518.14433"
   inkscape:cy="143.64332"
   inkscape:window-x="3905"
   inkscape:window-y="24"
   inkscape:window-maximized="1"
   inkscape:current-layer="svg11755"
   fit-margin-top="20"
   fit-margin-left="20"
   fit-margin-right="20"
   fit-margin-bottom="20" />





<g
   id="Magier_Analyse"
   transform="translate(-5.9371717,-5.596)">
	<g
   id="Magier">
		<path
   d="m 225.077,129.885 c 0,0 -24.805,6.552 19.891,36.739 1.638,0.234 13.572,21.528 15.99,26.989 1.326,3.899 1.872,3.12 1.872,7.8 0,4.681 -17.785,44.305 -19.5,47.113 2.652,0.156 5.147,-1.873 8.58,-6.241 3.432,-4.367 11.232,-20.279 11.232,-20.279 0,0 0.468,7.021 -1.092,14.977 -1.56,7.956 -3.744,12.791 -1.404,17.939 0,0 3.588,-2.027 7.644,-16.536 0.156,5.616 -0.468,22.309 -10.764,81.434 0,0 -3.276,19.033 -3.588,21.217 -0.312,2.184 -0.156,3.433 -5.46,7.02 -5.304,3.588 -14.664,7.958 -14.664,12.325 0.312,1.091 3.12,2.027 23.869,-6.865 9.36,1.717 25.896,6.397 27.769,4.057 0,0 -1.716,-3.899 -18.408,-12.168 -4.368,-2.028 -7.021,-2.808 -6.396,-8.893 0,0 19.657,-93.602 21.685,-126.362 0,0 -1.912,-15.679 -2.965,-18.019 0,0 13.572,-0.585 15.562,-1.404 0,0 0.819,-0.117 1.521,-0.233 0.702,-0.117 3.51,-0.858 4.212,-2.574 0,0 0.585,-0.352 0.468,-1.17 0.702,-1.287 -1.326,-11.154 -2.925,-14.86 -1.519,-3.519 -23.986,-51.364 -31.708,-53.821 -2.925,-0.819 -3.744,0.234 -5.031,0.819 -1.287,0.585 -3.861,-0.468 -4.68,-1.989 -0.819,-1.521 -0.234,-2.34 0.702,-3.159 0.936,-0.819 -6.435,-6.201 -9.711,-6.786 3.276,5.5 18.72,31.006 20.826,59.359 0,0 -21.528,-54.602 -33.384,-56.161 0,0 -2.185,4.29 -0.897,7.332 0.585,1.287 0.234,2.691 -1.989,3.744 -0.702,0.234 -1.521,0.351 -1.521,0.351 0,0 1.638,1.287 2.808,1.638 1.17,0.351 2.223,1.053 2.223,1.053"
   id="path11429"
   inkscape:connector-curvature="0" />
		<g
   id="Ebene_8">
			<path
   d="m 293,191.117 c 0,0 1.685,1.248 1.998,0.779 0.312,-0.468 0.803,-0.857 0.803,-1.247 0,-0.391 0.286,0.545 0.91,1.014 0.624,0.468 1.936,-0.936 2.482,-1.326 0.546,-0.39 2.021,0.078 2.021,0.078 0,0 1.557,-1.249 -0.394,-3.042 0.312,-0.624 1.559,-0.858 0.311,-1.638 -1.249,-0.78 -5.82,1.949 -5.82,1.949 L 293,189.478 Z"
   id="path11431"
   inkscape:connector-curvature="0" />
		</g>
		<path
   d="m 276.714,171.304 c 0,0 -27.769,-57.409 -32.449,-58.345 -2.34,-1.404 -14.977,-4.134 -14.508,-5.304 0.468,-1.17 4.263,-1.478 7.956,0 0.39,-0.156 -2.73,-3.51 -2.73,-3.51 0,0 -0.546,-3.12 2.184,-2.729 0.546,-0.312 1.404,-0.858 1.326,-1.404 -0.078,-0.546 3.198,-1.326 3.51,-1.95 0.312,-0.624 2.886,-1.248 3.978,-0.078 1.481,0.078 0.78,-1.248 1.56,-0.468 0.78,0.78 1.015,0.702 2.028,2.808 1.014,2.106 1.716,5.694 1.872,6.24 0,0 -1.015,2.73 0.312,4.212 1.326,1.482 35.257,58.969 35.257,58.969"
   id="path11434"
   inkscape:connector-curvature="0" />
		<g
   id="Ebene_7">
			<path
   d="m 203.393,105.782 c 0,0 38.065,-31.825 41.185,-32.761 -0.936,-1.248 -9.672,0.312 -14.353,4.056 -4.68,3.744 -8.424,9.048 -19.344,13.729 -6.24,6.24 -10.609,15.288 -7.488,14.976 z"
   id="path11436"
   inkscape:connector-curvature="0" />
			<path
   d="m 220.865,66.381 c 0,0 -13.732,9.031 -16.479,11.944 C 198.619,69.294 181.042,50.067 175,49.193 c 0.824,-4.953 16.204,-22.141 21.422,-23.597 6.042,8.158 23.894,37.29 24.443,40.785 z"
   id="path11438"
   inkscape:connector-curvature="0" />
		</g>
		<path
   stroke-miterlimit="10"
   d="m 208.833,72.333 c 0,0 6.833,10.834 7.333,15.667 -3.167,6.5 -6.5,12.999 -6.5,12.999 0,0 0.167,5.833 1.333,13.167 1.166,7.334 0.333,10.333 0.333,10.333"
   id="path11441"
   inkscape:connector-curvature="0"
   style="fill:none;stroke:#c92600;stroke-width:2;stroke-linecap:round;stroke-miterlimit:10" />
		<path
   stroke-miterlimit="10"
   d="M 208.833,72.333 C 210.338,74.302 187.167,46.5 180,42.667"
   id="path11443"
   inkscape:connector-curvature="0"
   style="fill:none;stroke:#c92600;stroke-width:2;stroke-linecap:round;stroke-miterlimit:10" />
		<path
   stroke-miterlimit="10"
   d="m 207.167,73.667 c 0,0 -21.167,-25.833 -28.333,-29.833"
   id="path11445"
   inkscape:connector-curvature="0"
   style="fill:none;stroke:#fce122;stroke-width:2;stroke-linecap:round;stroke-miterlimit:10" />
		<path
   stroke-miterlimit="10"
   d="m 207.167,73.667 c 0,0 6.833,12.167 6.833,14.833 0,0 -7.167,12.667 -7.167,14.167 0,1.5 0.333,10.167 0.667,13.833 0.334,3.666 0,6.333 -0.5,8.5"
   id="path11447"
   inkscape:connector-curvature="0"
   style="fill:none;stroke:#fce122;stroke-width:2;stroke-linecap:round;stroke-miterlimit:10" />
		<path
   stroke-miterlimit="10"
   d="m 177.833,45.5 c 0,0 4.167,1 27.833,29.333"
   id="path11449"
   inkscape:connector-curvature="0"
   style="fill:none;stroke:#32323c;stroke-width:2;stroke-linecap:round;stroke-miterlimit:10" />
		<path
   stroke-miterlimit="10"
   d="m 212.333,88.833 c 0,0 -8,13.333 -7.833,15.333 0.167,2 0.5,17.5 -1.167,20.5"
   id="path11451"
   inkscape:connector-curvature="0"
   style="fill:none;stroke:#32323c;stroke-width:2;stroke-linecap:round;stroke-miterlimit:10" />
		<path
   d="m 210.881,90.806 c 0,0 12.168,-5.616 19.344,-13.729 0.625,-2.808 -2.184,-2.496 -2.184,-2.496 0,0 0.624,-1.248 -0.312,-1.56 -0.936,-0.312 -1.561,-0.937 -1.248,-2.184 0.312,-1.248 -2.184,-2.184 -2.184,-2.184 0,0 -0.937,-3.12 -3.432,-3.12 -2.496,0 -18.097,11.544 -18.721,12.792 -0.624,1.248 -1.248,2.496 0.625,1.56 1.873,-0.936 0.624,1.248 0.624,1.248 0,0 -0.624,1.249 0.936,1.561 1.56,0.312 1.248,0.936 1.56,1.872 0.312,0.936 -0.624,2.808 1.561,2.808 2.184,0 1.56,2.184 1.56,2.184 0,0 0.623,2.184 1.871,1.248 z"
   id="path11453"
   inkscape:connector-curvature="0"
   style="fill:#f6931f" />
	</g>
</g>
<g
   id="Magier_Wissenschafter"
   transform="translate(-5.9371717,-5.596)">
	<path
   d="m 84.904,71.31 c 0,0 4.256,-42.156 5.63,-43.803 7.964,1.373 18.4,5.492 31.857,18.949 -9.612,9.75 -15.654,21.696 -19.361,31.857 C 92.869,74.468 84.904,71.31 84.904,71.31 Z"
   id="path11457"
   inkscape:connector-curvature="0" />
	<path
   d="m 77.42,91.425 c 0,0 -2.112,-1.817 -0.36,-1.611 1.75,0.206 1.03,-0.927 0.875,-1.545 -0.463,-1.339 -0.618,-2.163 0.773,-2.884 0.721,-0.412 0.206,-1.184 0,-1.39 -0.206,-0.206 -0.699,-0.824 0.371,-1.802 1.071,-0.978 1.792,-1.957 1.946,-2.936 0.155,-0.978 0.567,-1.03 1.184,-1.132 0.618,-0.104 -0.103,-1.133 -0.412,-1.339 -0.309,-0.206 -0.875,-0.619 0.103,-1.597 0.979,-0.979 1.596,-1.493 0.927,-1.802 -0.429,-0.257 0.097,-1.184 0.28,-1.39 0.801,-0.789 1.179,-0.618 2.278,-0.48 0.885,0.11 8.768,0.937 15.413,5.115 1.207,0.758 1.922,1.235 2.575,2.23 0.343,0.653 0.24,2.129 -0.687,2.85 -0.927,0.721 -2.575,2.505 -1.098,3.124 0.343,0.275 -0.069,1.304 -0.996,1.75 -0.927,0.447 -0.171,1.717 0.034,1.888 0.206,0.172 0.378,0.652 -0.343,1.202 -0.721,0.549 -2.163,0.855 -1.442,1.749 0.721,0.894 1.167,1.135 0.172,1.993 -0.996,0.858 -0.687,0.927 -0.172,1.235 0.515,0.309 0.618,0.584 0.069,1.099 -0.549,0.515 -0.961,0.652 -1.305,0.652 -0.344,0 -12.357,-2.405 -20.185,-4.979 z"
   id="path11459"
   inkscape:connector-curvature="0"
   style="fill:#f7941e" />
	<path
   d="m 61.251,87.547 c 0,0 14.933,8.703 50.875,13.08 2.06,0.206 2.575,-0.824 -2.163,-1.958 -4.737,-1.133 -9.859,-2.332 -13.285,-2.574 -5.098,-0.36 -20.289,-4.428 -28.321,-8.548 -3.604,-1.647 -6.178,-1.235 -7.106,0 z"
   id="path11461"
   inkscape:connector-curvature="0" />
	<g
   id="g11467">
		<g
   id="g11465">
			<path
   d="m 160.685,114.757 c 1.29,0 1.29,-2 0,-2 -1.29,0 -1.289,2 0,2 z"
   id="path11463"
   inkscape:connector-curvature="0"
   style="fill:#3c8863" />
		</g>
	</g>
	<g
   id="g11473">
		<path
   d="m 168.46,91.976 c -1.544,-1.235 -2.368,-0.412 -0.103,2.678 2.265,3.09 6.797,8.342 4.84,10.196 -1.957,1.853 -3.398,1.544 -2.986,0.411 0.412,-1.132 0.206,-4.119 -2.06,-7.724 -2.266,-3.604 -2.472,-3.192 -2.781,-2.574 -0.309,0.618 -0.721,1.699 0.103,2.936 0.824,1.236 2.626,3.914 2.059,5.458 -0.566,1.545 -4.119,6.694 -4.891,8.6 -0.772,1.905 -1.854,2.369 -2.472,2.369 -0.618,0 -4.17,-2.472 -2.678,-8.548 0.567,-1.7 1.494,-1.339 3.142,-3.811 1.647,-2.472 4.222,-7.034 2.111,-8.409 -0.669,0.324 -0.309,0.736 -1.802,2.538 -1.493,1.803 -5.973,6.643 -6.797,7.518 -0.824,0.875 -3.604,2.833 -2.677,4.995 0.926,2.163 6.127,12.565 5.046,13.8 -0.618,2.522 -2.266,6.384 -2.884,6.642 -0.618,0.257 -15.757,38.672 -16.632,39.753 -0.412,0.516 -0.566,0.36 -1.082,-0.72 -5.562,-11.586 -26.21,-42.997 -27.137,-44.232 -1.957,-2.472 -6.128,-1.854 -7.672,-1.339 -1.545,0.515 -3.914,0.721 -4.377,-2.266 -0.258,-1.287 0.257,-4.583 -1.391,-9.217 -2.111,7.26 -3.604,21.215 -0.618,31.875 2.987,10.659 9.807,20.735 8.328,32.913 -8.806,-24.201 -19.501,-45.787 -21.767,-50.987 -2.266,-5.2 -2.935,-9.732 -1.957,-11.534 0.463,-0.978 0.051,-2.317 -0.36,-2.626 0,0 0.103,2.37 -3.089,4.377 -3.193,2.008 -3.399,5.509 -3.708,6.591 -0.309,1.082 0.618,1.906 -3.914,4.48 0.876,1.288 2.214,1.288 3.192,1.803 0.979,0.515 0.927,1.029 0.309,1.544 -8.959,6.18 -33.47,22.966 -45.056,31.41 -0.753,0.773 -0.8,1.341 -0.746,3.09 0.224,1.099 0.282,4.567 3.578,9.475 6.669,9.936 27.824,21.027 49.622,30.931 0,0 2.592,-7.397 3.159,-12.084 3.844,0.413 8.29,1.941 10.041,2.268 0.775,0.079 3.476,0.919 5.046,2.608 -0.093,2.41 -1.642,4.718 -2.06,5.63 -6.831,14.884 -10.848,46.894 -11.054,52.11 -0.206,5.218 2.403,23.205 5.767,25.677 0,-3.637 -3.295,-16.683 0.619,-18.056 3.913,-1.373 6.934,-0.892 9.887,-1.922 0,0 1.731,-2.823 2.709,-7.356 0.616,-2.857 0.736,-0.215 0.208,1.657 -6.419,32.201 -19.773,74.769 -24.613,93.718 -0.824,1.957 -2.139,4.016 -9.039,6.591 -6.899,2.574 -16.889,5.915 -15.86,6.487 1.03,0.574 28.939,0.413 30.278,-0.926 1.957,1.19 -1.109,-8.084 -0.431,-9.481 2.697,-5.556 29.244,-113.484 31.715,-116.779 -0.047,24.525 -1.688,104.561 -1.893,107.311 -0.245,3.296 -0.811,9.836 -2.312,13.183 -0.944,4.524 -2.057,5.56 -2.057,6.598 8.157,0.41 24.799,0 24.799,0 -1.235,-3.149 -15.036,-8.658 -15.036,-8.658 0,0 0.622,-54.964 1.58,-94.197 0.002,-0.004 3.341,-2.832 7.141,-3.432 0,3.897 1.168,13.235 0.711,15.219 1.143,-3.625 2.384,-6.362 2.584,-11.374 0.206,-5.151 -8.824,-54.172 -9.922,-58.908 v 0.367 c -2.34,-15.442 -8.866,-39.192 -16.168,-63.808 -0.721,-2.884 7.604,11.617 8.68,13.183 6.424,9.337 18.371,36.594 22.078,35.976 2.357,-0.376 19.489,-24.869 22.451,-34.191 0.137,-0.429 -2.46,-14.498 -2.735,-18.273 0.687,-2.609 3.447,-7.816 3.457,-7.851 0.721,-2.162 13.884,-13.876 18.743,-17.816 1.544,-1.758 3.295,-4.642 -9.166,-15.867 z m -73.017,92.585 c -3.347,1.183 -3.707,2.316 -4.222,3.244 -0.515,0.926 -1.03,2.215 -1.751,2.572 -0.721,0.363 -5.527,-0.755 -6.608,-1.115 -0.343,-0.583 0.085,-0.643 -0.684,-1.227 -6.715,-5.099 -40.397,-20.479 -42.587,-24.313 L 73.92,142.026 c 18.372,30.683 22.125,41.882 22.657,42.121 0.26,0.119 -0.001,0.001 -1.134,0.414 z"
   id="path11469"
   inkscape:connector-curvature="0" />
		<path
   d="m 128.458,270.532 c -0.031,0.101 -0.062,0.196 -0.093,0.297 0.036,-0.082 0.067,-0.183 0.093,-0.297 z"
   id="path11471"
   inkscape:connector-curvature="0" />
	</g>
	<g
   id="g11481">
		<circle
   cx="157.37601"
   cy="90.464996"
   r="7.0029998"
   id="circle11475"
   style="fill:#ffffff" />
		<g
   id="g11479">
			<path
   d="m 163.38,90.465 c -0.417,7.737 -11.59,7.736 -12.007,0 -0.183,-3.396 2.875,-5.834 6.004,-6.003 3.396,-0.183 5.834,2.874 6.003,6.003 0.069,1.283 2.069,1.29 2,0 -0.555,-10.307 -15.452,-10.307 -16.007,0 -0.244,4.521 3.841,7.779 8.004,8.003 4.521,0.243 7.779,-3.84 8.003,-8.003 0.069,-1.289 -1.931,-1.282 -2,0 z"
   id="path11477"
   inkscape:connector-curvature="0" />
		</g>
	</g>
	<g
   id="g11489">
		<ellipse
   transform="matrix(0.8916,0.4528,-0.4528,0.8916,60.4782,-64.3395)"
   cx="164.636"
   cy="94.161003"
   rx="1.4"
   ry="1.9529999"
   id="ellipse11483" />
		<g
   id="g11487">
			<path
   d="m 164.588,94.038 c -0.114,0.206 -0.205,0.325 -0.382,0.489 0.12,-0.111 -0.253,-0.005 -0.016,-0.013 0.144,-0.004 0.371,0.06 0.42,0.211 -0.016,-0.048 0.011,-0.308 0.072,-0.44 0.095,-0.209 0.212,-0.333 0.382,-0.49 -0.12,0.111 0.252,0.005 0.015,0.012 -0.143,0.004 -0.371,-0.06 -0.42,-0.21 0.017,0.048 -0.01,0.308 -0.071,0.441 -0.339,0.744 -0.219,1.609 0.539,2.053 0.651,0.381 1.712,0.206 2.052,-0.538 0.707,-1.547 0.699,-3.446 -0.902,-4.429 -1.563,-0.959 -3.417,0.269 -4.185,1.647 -0.826,1.483 -0.615,3.498 0.902,4.428 1.564,0.958 3.417,-0.267 4.185,-1.646 0.943,-1.693 -1.649,-3.205 -2.591,-1.515 z"
   id="path11485"
   inkscape:connector-curvature="0" />
		</g>
	</g>
	<g
   id="g11497">
		<path
   d="m 158.858,88.752 c 0,0 0.333,0.238 0.437,0.821 0.206,-0.721 0,-1.51 0,-1.51 0,0 0.754,0.961 0.893,1.51 0.068,-0.583 -0.275,-1.819 -0.583,-2.266 0.721,0.618 1.681,2.128 1.613,2.781 0.344,-1.236 -0.892,-3.81 -1.201,-4.188 1.373,0.995 2.609,3.878 2.472,5.32"
   id="path11491"
   inkscape:connector-curvature="0"
   style="fill:#ffffff" />
		<g
   id="g11495">
			<path
   d="m 158.505,89.105 c 0.198,0.165 0.236,0.337 0.308,0.6 0.125,0.456 0.865,0.5 0.964,0 0.118,-0.598 0.139,-1.178 0,-1.776 -0.278,0.162 -0.557,0.324 -0.835,0.486 0.3,0.389 0.604,0.822 0.764,1.29 0.183,0.535 0.957,0.441 0.982,-0.133 0.038,-0.85 -0.217,-1.789 -0.652,-2.518 -0.262,0.202 -0.523,0.404 -0.785,0.606 0.609,0.565 1.456,1.543 1.466,2.427 0.006,0.551 0.864,0.698 0.982,0.133 0.301,-1.441 -0.394,-3.403 -1.251,-4.573 -0.262,0.202 -0.523,0.404 -0.785,0.606 1.36,1.07 2.417,3.22 2.326,4.967 -0.034,0.645 0.967,0.642 1,0 0.103,-1.978 -1.07,-4.456 -2.619,-5.674 -0.406,-0.319 -1.15,0.107 -0.785,0.606 0.684,0.933 1.393,2.642 1.151,3.802 0.327,0.044 0.655,0.088 0.982,0.133 -0.014,-1.168 -0.94,-2.375 -1.759,-3.134 -0.41,-0.38 -1.083,0.106 -0.785,0.606 0.348,0.583 0.545,1.335 0.515,2.013 0.327,-0.044 0.655,-0.088 0.982,-0.133 -0.219,-0.644 -0.608,-1.197 -1.021,-1.731 -0.329,-0.425 -0.938,0.044 -0.835,0.486 0.098,0.422 0.084,0.816 0,1.245 0.321,0 0.643,0 0.964,0 -0.106,-0.386 -0.246,-0.777 -0.565,-1.042 -0.495,-0.406 -1.206,0.297 -0.709,0.708 z"
   id="path11493"
   inkscape:connector-curvature="0" />
		</g>
	</g>
	<g
   id="Ebene_11">
		<g
   id="g11503">
			<g
   id="g11501">
				<path
   d="m 164.135,97.764 c 1.29,0 1.29,-2 0,-2 -1.29,0 -1.29,2 0,2 z"
   id="path11499"
   inkscape:connector-curvature="0" />
			</g>
		</g>
		<g
   id="g11509">
			<g
   id="g11507">
				<path
   d="m 163.774,99.207 c 1.29,0 1.29,-2 0,-2 -1.29,0 -1.289,2 0,2 z"
   id="path11505"
   inkscape:connector-curvature="0"
   style="fill:#3c8863" />
			</g>
		</g>
		<g
   id="g11515">
			<g
   id="g11513">
				<path
   d="m 163.465,101.061 c 1.29,0 1.29,-2 0,-2 -1.29,0 -1.289,2 0,2 z"
   id="path11511"
   inkscape:connector-curvature="0" />
			</g>
		</g>
		<g
   id="g11521">
			<g
   id="g11519">
				<path
   d="m 163.104,102.966 c 1.29,0 1.29,-2 0,-2 -1.29,0 -1.289,2 0,2 z"
   id="path11517"
   inkscape:connector-curvature="0"
   style="fill:#009ba4" />
			</g>
		</g>
		<g
   id="g11527">
			<g
   id="g11525">
				<path
   d="m 162.898,104.562 c 1.29,0 1.29,-2 0,-2 -1.29,0 -1.289,2 0,2 z"
   id="path11523"
   inkscape:connector-curvature="0"
   style="fill:#3c8863" />
			</g>
		</g>
		<g
   id="g11533">
			<g
   id="g11531">
				<path
   d="m 162.487,105.952 c 1.29,0 1.29,-2 0,-2 -1.29,0 -1.29,2 0,2 z"
   id="path11529"
   inkscape:connector-curvature="0"
   style="fill:#ebeceb" />
			</g>
		</g>
		<g
   id="g11539">
			<g
   id="g11537">
				<path
   d="m 162.229,107.6 c 1.29,0 1.29,-2 0,-2 -1.29,0 -1.289,2 0,2 z"
   id="path11535"
   inkscape:connector-curvature="0" />
			</g>
		</g>
		<g
   id="g11545">
			<g
   id="g11543">
				<path
   d="m 161.972,109.505 c 1.29,0 1.29,-2 0,-2 -1.29,0 -1.29,2 0,2 z"
   id="path11541"
   inkscape:connector-curvature="0"
   style="fill:#3c8863" />
			</g>
		</g>
		<g
   id="g11551">
			<g
   id="g11549">
				<path
   d="m 161.56,111.205 c 1.29,0 1.29,-2 0,-2 -1.29,0 -1.289,2 0,2 z"
   id="path11547"
   inkscape:connector-curvature="0" />
			</g>
		</g>
		<g
   id="g11557">
			<g
   id="g11555">
				<path
   d="m 161.148,112.956 c 1.29,0 1.29,-2 0,-2 -1.29,0 -1.29,2 0,2 z"
   id="path11553"
   inkscape:connector-curvature="0"
   style="fill:#009ba4" />
			</g>
		</g>
		<g
   id="g11563">
			<g
   id="g11561">
				<path
   d="m 160.273,116.869 c 1.29,0 1.29,-2 0,-2 -1.29,0 -1.29,2 0,2 z"
   id="path11559"
   inkscape:connector-curvature="0" />
			</g>
		</g>
		<g
   id="g11569">
			<g
   id="g11567">
				<path
   d="m 149.871,137.671 c 1.29,0 1.29,-2 0,-2 -1.29,0 -1.289,2 0,2 z"
   id="path11565"
   inkscape:connector-curvature="0" />
			</g>
		</g>
		<g
   id="g11575">
			<g
   id="g11573">
				<path
   d="m 148.841,139.011 c 1.29,0 1.29,-2 0,-2 -1.29,0 -1.29,2 0,2 z"
   id="path11571"
   inkscape:connector-curvature="0"
   style="fill:#009ba4" />
			</g>
		</g>
		<g
   id="g11581">
			<g
   id="g11579">
				<path
   d="m 147.399,140.349 c 1.29,0 1.29,-2 0,-2 -1.29,0 -1.289,2 0,2 z"
   id="path11577"
   inkscape:connector-curvature="0"
   style="fill:#3c8863" />
			</g>
		</g>
		<g
   id="g11587">
			<g
   id="g11585">
				<path
   d="m 145.751,142.1 c 1.29,0 1.29,-2 0,-2 -1.29,0 -1.289,2 0,2 z"
   id="path11583"
   inkscape:connector-curvature="0" />
			</g>
		</g>
		<g
   id="g11593">
			<g
   id="g11591">
				<path
   d="m 144.413,143.233 c 1.29,0 1.29,-2 0,-2 -1.29,0 -1.29,2 0,2 z"
   id="path11589"
   inkscape:connector-curvature="0"
   style="fill:#009ba4" />
			</g>
		</g>
		<g
   id="g11599">
			<g
   id="g11597">
				<path
   d="m 142.971,144.571 c 1.29,0 1.29,-2 0,-2 -1.29,0 -1.289,2 0,2 z"
   id="path11595"
   inkscape:connector-curvature="0"
   style="fill:#3c8863" />
			</g>
		</g>
		<g
   id="g11605">
			<g
   id="g11603">
				<path
   d="m 141.529,145.448 c 1.29,0 1.29,-2 0,-2 -1.29,0 -1.29,2 0,2 z"
   id="path11601"
   inkscape:connector-curvature="0"
   style="fill:#ebeceb" />
			</g>
		</g>
		<g
   id="g11611">
			<g
   id="g11609">
				<path
   d="m 140.242,146.425 c 1.29,0 1.29,-2 0,-2 -1.29,0 -1.289,2 0,2 z"
   id="path11607"
   inkscape:connector-curvature="0"
   style="fill:#009ba4" />
			</g>
		</g>
		<g
   id="g11617">
			<g
   id="g11615">
				<path
   d="m 138.439,147.198 c 1.29,0 1.29,-2 0,-2 -1.29,0 -1.289,2 0,2 z"
   id="path11613"
   inkscape:connector-curvature="0"
   style="fill:#3c8863" />
			</g>
		</g>
		<g
   id="g11623">
			<g
   id="g11621">
				<path
   d="m 136.432,148.228 c 1.29,0 1.29,-2 0,-2 -1.29,0 -1.29,2 0,2 z"
   id="path11619"
   inkscape:connector-curvature="0" />
			</g>
		</g>
		<g
   id="g11629">
			<g
   id="g11627">
				<path
   d="m 134.32,148.949 c 1.29,0 1.29,-2 0,-2 -1.29,0 -1.289,2 0,2 z"
   id="path11625"
   inkscape:connector-curvature="0"
   style="fill:#009ba4" />
			</g>
		</g>
		<g
   id="g11635">
			<g
   id="g11633">
				<path
   d="m 132.466,149.36 c 1.29,0 1.29,-2 0,-2 -1.29,0 -1.289,2 0,2 z"
   id="path11631"
   inkscape:connector-curvature="0"
   style="fill:#3c8863" />
			</g>
		</g>
		<g
   id="g11641">
			<g
   id="g11639">
				<path
   d="m 130.819,149.618 c 1.29,0 1.29,-2 0,-2 -1.29,0 -1.29,2 0,2 z"
   id="path11637"
   inkscape:connector-curvature="0" />
			</g>
		</g>
		<g
   id="g11647">
			<g
   id="g11645">
				<path
   d="m 129.068,149.927 c 1.29,0 1.29,-2 0,-2 -1.29,0 -1.29,2 0,2 z"
   id="path11643"
   inkscape:connector-curvature="0"
   style="fill:#009ba4" />
			</g>
		</g>
		<g
   id="g11653">
			<g
   id="g11651">
				<path
   d="m 127.266,150.185 c 1.29,0 1.29,-2 0,-2 -1.29,0 -1.289,2 0,2 z"
   id="path11649"
   inkscape:connector-curvature="0"
   style="fill:#3c8863" />
			</g>
		</g>
		<g
   id="g11659">
			<g
   id="g11657">
				<path
   d="m 125.875,150.236 c 1.29,0 1.29,-2 0,-2 -1.29,0 -1.289,2 0,2 z"
   id="path11655"
   inkscape:connector-curvature="0" />
			</g>
		</g>
		<g
   id="g11665">
			<g
   id="g11663">
				<path
   d="m 124.64,150.236 c 1.29,0 1.29,-2 0,-2 -1.29,0 -1.29,2 0,2 z"
   id="path11661"
   inkscape:connector-curvature="0"
   style="fill:#009ba4" />
			</g>
		</g>
		<g
   id="g11671">
			<g
   id="g11669">
				<path
   d="m 112,147.333 c 1.29,0 1.29,-2 0,-2 -1.29,0 -1.29,2 0,2 z"
   id="path11667"
   inkscape:connector-curvature="0"
   style="fill:#3c8863" />
			</g>
		</g>
		<g
   id="g11677">
			<g
   id="g11675">
				<path
   d="m 109.913,146.734 c 1.29,0 1.29,-2 0,-2 -1.29,0 -1.29,2 0,2 z"
   id="path11673"
   inkscape:connector-curvature="0" />
			</g>
		</g>
		<g
   id="g11683">
			<g
   id="g11681">
				<path
   d="m 108.316,145.962 c 1.29,0 1.29,-2 0,-2 -1.29,0 -1.289,2 0,2 z"
   id="path11679"
   inkscape:connector-curvature="0"
   style="fill:#009ba4" />
			</g>
		</g>
		<g
   id="g11689">
			<g
   id="g11687">
				<path
   d="m 107.131,145.241 c 1.29,0 1.29,-2 0,-2 -1.29,0 -1.289,2 0,2 z"
   id="path11685"
   inkscape:connector-curvature="0"
   style="fill:#3c8863" />
			</g>
		</g>
		<path
   stroke-miterlimit="10"
   d="m 100.5,257.333 c 0,0 -13,0.666 -14.167,4.5 -1.167,3.834 0.333,9.666 0.833,11"
   id="path11691"
   inkscape:connector-curvature="0"
   style="fill:none;stroke:#ebeceb;stroke-width:2;stroke-linecap:round;stroke-linejoin:round;stroke-miterlimit:10" />
		<path
   stroke-miterlimit="10"
   d="m 118.833,255.833 c 0,0 10,-7.833 11.5,-1.333"
   id="path11693"
   inkscape:connector-curvature="0"
   style="fill:none;stroke:#ebeceb;stroke-width:2;stroke-linecap:round;stroke-linejoin:round;stroke-miterlimit:10" />
		<path
   stroke-miterlimit="10"
   d="m 78.833,185.833 c 0,0 -1.333,11.5 -3.333,17.167"
   id="path11695"
   inkscape:connector-curvature="0"
   style="fill:none;stroke:#ebeceb;stroke-width:2;stroke-linecap:round;stroke-linejoin:round;stroke-miterlimit:10" />
		<path
   stroke-miterlimit="10"
   d="m 151.167,134 c 0,0 2.5,21.333 5.833,20.5"
   id="path11697"
   inkscape:connector-curvature="0"
   style="fill:none;stroke:#ebeceb;stroke-width:2;stroke-linecap:round;stroke-linejoin:round;stroke-miterlimit:10" />
		<path
   stroke-miterlimit="10"
   d="m 100.001,259.167 c 0,0 -10.917,0.749 -11.667,3.166 -1.25,1.75 -2.667,6.5 1.583,18.5"
   id="path11699"
   inkscape:connector-curvature="0"
   style="fill:none;stroke:#009ba4;stroke-width:2;stroke-linecap:round;stroke-linejoin:round;stroke-miterlimit:10" />
		<path
   stroke-miterlimit="10"
   d="m 77.5,203.333 c 0,0 3.5,-12.5 2.833,-16.667"
   id="path11701"
   inkscape:connector-curvature="0"
   style="fill:none;stroke:#009ba4;stroke-width:2;stroke-linecap:round;stroke-linejoin:round;stroke-miterlimit:10" />
		<path
   stroke-miterlimit="10"
   d="m 152.167,130.667 c 0,0 1.75,20.668 5.333,22.5"
   id="path11703"
   inkscape:connector-curvature="0"
   style="fill:none;stroke:#009ba4;stroke-width:2;stroke-linecap:round;stroke-linejoin:round;stroke-miterlimit:10" />
		<path
   stroke-miterlimit="10"
   d="m 119.167,257.583 c 0,0 8.112,-5.774 10.583,-3.5 2.083,1.917 1.5,6.5 1.5,6.5"
   id="path11705"
   inkscape:connector-curvature="0"
   style="fill:none;stroke:#009ba4;stroke-width:2;stroke-linecap:round;stroke-linejoin:round;stroke-miterlimit:10" />
		<path
   stroke-miterlimit="10"
   d="m 82.177,188.036 c 0,0 1.31,1.332 -2.844,15.298"
   id="path11707"
   inkscape:connector-curvature="0"
   style="fill:none;stroke:#3c8863;stroke-width:2;stroke-linecap:round;stroke-linejoin:round;stroke-miterlimit:10" />
		<path
   stroke-miterlimit="10"
   d="m 153.63,129.05 c 0,0 2.692,20.501 4.531,22.726"
   id="path11709"
   inkscape:connector-curvature="0"
   style="fill:none;stroke:#3c8863;stroke-width:2;stroke-linecap:round;stroke-linejoin:round;stroke-miterlimit:10" />
		<path
   stroke-miterlimit="10"
   d="m 90.053,280.577 c 0,0 -4.043,-17.201 0.619,-18.056 4.662,-0.855 9.887,-1.922 9.887,-1.922 0,0 11.349,-38.611 10.442,-54.933 -1,-18 -25.774,-70.814 -28.667,-78.333 -1.667,-4.333 -5,-9.667 -3,-13.333 0.333,-1.667 -0.333,-3 -0.333,-3"
   id="path11711"
   inkscape:connector-curvature="0"
   style="fill:none;stroke:#3c8863;stroke-width:2;stroke-linecap:round;stroke-linejoin:round;stroke-miterlimit:10" />
		<path
   stroke-miterlimit="10"
   d="m 128.458,270.532 c 2.791,-6.135 3.876,-13.865 0.876,-15.198 -3,-1.333 -11.333,5 -11.333,5 0,0 -1.667,-38 -4,-50"
   id="path11713"
   inkscape:connector-curvature="0"
   style="fill:none;stroke:#3c8863;stroke-width:2;stroke-linecap:round;stroke-linejoin:round;stroke-miterlimit:10" />
		<path
   stroke-miterlimit="10"
   d="m 95,110 c 0,0 -3,15 -1.667,24.667 1.333,11.667 11,25.667 10.333,43"
   id="path11715"
   inkscape:connector-curvature="0"
   style="fill:none;stroke:#3c8863;stroke-width:2;stroke-linecap:round;stroke-linejoin:round;stroke-miterlimit:10" />
		<g
   id="g11721">
			<g
   id="g11719">
				<path
   d="m 113.667,147.667 c 1.29,0 1.29,-2 0,-2 -1.29,0 -1.29,2 0,2 z"
   id="path11717"
   inkscape:connector-curvature="0"
   style="fill:#009ba4" />
			</g>
		</g>
		<g
   id="g11727">
			<g
   id="g11725">
				<path
   d="m 115.5,148.5 c 1.29,0 1.29,-2 0,-2 -1.29,0 -1.29,2 0,2 z"
   id="path11723"
   inkscape:connector-curvature="0"
   style="fill:#ebeceb" />
			</g>
		</g>
		<g
   id="g11733">
			<g
   id="g11731">
				<path
   d="m 117.167,149.5 c 1.29,0 1.29,-2 0,-2 -1.29,0 -1.29,2 0,2 z"
   id="path11729"
   inkscape:connector-curvature="0"
   style="fill:#3c8863" />
			</g>
		</g>
		<g
   id="g11739">
			<g
   id="g11737">
				<path
   d="m 118.833,150 c 1.29,0 1.29,-2 0,-2 -1.29,0 -1.289,2 0,2 z"
   id="path11735"
   inkscape:connector-curvature="0"
   style="fill:#009ba4" />
			</g>
		</g>
		<g
   id="g11745">
			<g
   id="g11743">
				<path
   d="m 120.833,150.333 c 1.29,0 1.29,-2 0,-2 -1.29,0 -1.289,2 0,2 z"
   id="path11741"
   inkscape:connector-curvature="0"
   style="fill:#ebeceb" />
			</g>
		</g>
		<g
   id="g11751">
			<g
   id="g11749">
				<path
   d="m 122.5,150.333 c 1.29,0 1.29,-2 0,-2 -1.29,0 -1.29,2 0,2 z"
   id="path11747"
   inkscape:connector-curvature="0"
   style="fill:#3c8863" />
			</g>
		</g>
	</g>
</g>
</svg>