<?xml version="1.0" encoding="UTF-8" standalone="no"?>
<!-- Generator: Adobe Illustrator 16.0.0, SVG Export Plug-In . SVG Version: 6.00 Build 0)  -->

<svg
   xmlns:dc="http://purl.org/dc/elements/1.1/"
   xmlns:cc="http://creativecommons.org/ns#"
   xmlns:rdf="http://www.w3.org/1999/02/22-rdf-syntax-ns#"
   xmlns:svg="http://www.w3.org/2000/svg"
   xmlns="http://www.w3.org/2000/svg"
   xmlns:sodipodi="http://sodipodi.sourceforge.net/DTD/sodipodi-0.dtd"
   xmlns:inkscape="http://www.inkscape.org/namespaces/inkscape"
   version="1.1"
   id="Ebene_1"
   x="0px"
   y="0px"
   width="513.333px"
   height="524.667px"
   viewBox="0 0 513.333 524.667"
   enable-background="new 0 0 513.333 524.667"
   xml:space="preserve"
   sodipodi:docname="Startbild_Testcases.svg"
   inkscape:version="0.92.3 (unknown)"><metadata
   id="metadata3510"><rdf:RDF><cc:Work
       rdf:about=""><dc:format>image/svg+xml</dc:format><dc:type
         rdf:resource="http://purl.org/dc/dcmitype/StillImage" /><dc:title></dc:title></cc:Work></rdf:RDF></metadata><defs
   id="defs3508" /><sodipodi:namedview
   pagecolor="#ffffff"
   bordercolor="#666666"
   borderopacity="1"
   objecttolerance="10"
   gridtolerance="10"
   guidetolerance="10"
   inkscape:pageopacity="0"
   inkscape:pageshadow="2"
   inkscape:window-width="1855"
   inkscape:window-height="1056"
   id="namedview3506"
   showgrid="false"
   inkscape:zoom="1.7420574"
   inkscape:cx="256.6665"
   inkscape:cy="262.3335"
   inkscape:window-x="3905"
   inkscape:window-y="24"
   inkscape:window-maximized="1"
   inkscape:current-layer="Ebene_1" />
<g
   id="g2369"
   transform="translate(44.200611,96.437697)">
	<path
   d="M 100.25,146.875 97.137,115.811 94.986,88.29 c 0,0 25.292,-19.525 45.43,-8.27 6.484,15.058 21.725,53.454 21.725,53.454 0,0 -9.932,-3.611 -31.072,1.57 -21.139,5.182 -30.819,11.831 -30.819,11.831 z"
   id="path2367"
   inkscape:connector-curvature="0"
   style="fill:#b6d2d6" />
</g>
<g
   id="g2373"
   transform="translate(44.200611,96.437697)">
	<path
   d="m 232.958,114.079 c 7.376,-12.924 21.459,-31.724 25.959,-42.545 -9.709,-24.022 -31.084,-25.02 -31.084,-25.02 l -8.179,1.26 c 0,0 -17.499,12.453 -39.044,27.411 20.334,-6.61 36.182,4.519 46.668,18.15 10.486,13.632 5.68,20.744 5.68,20.744 l 4.012,-4.85"
   id="path2371"
   inkscape:connector-curvature="0"
   style="fill:#b6d2d6" />
</g>
<g
   id="g2377"
   transform="translate(44.200611,96.437697)">
	<path
   d="m 162.922,134.533 c 0,0 -8.673,-7.468 -32.61,1.868 4.593,2.368 12.853,4.488 12.853,4.488 l -7.795,6.646 c 0,0 21.532,-3.729 27.552,-13.002 z"
   id="path2375"
   inkscape:connector-curvature="0"
   style="fill:#3d5d5f" />
</g>
<g
   id="g2381"
   transform="translate(44.200611,96.437697)">
	<path
   d="m 115.148,140.392 c 0,0 4.576,1.449 8.566,1.406 3.991,-0.042 7.972,7.433 7.972,7.433 0,0 -32.299,6.381 -31.436,0.521 0.863,-5.863 14.898,-9.36 14.898,-9.36 z"
   id="path2379"
   inkscape:connector-curvature="0"
   style="fill:#3d5d5f" />
</g>
<g
   id="g2385"
   transform="translate(44.200611,96.437697)">
	<path
   d="m 183.6,73.401 c 0,0 -8.568,4.768 -8.934,6.896 -0.363,2.129 -3.379,8.606 10.699,20.857 2.641,-3.493 6.129,-9.932 6.129,-9.932 0,0 -7.854,0.076 -9.551,3.024 -1.128,-5.156 -1.672,-19.043 1.657,-20.845 z"
   id="path2383"
   inkscape:connector-curvature="0"
   style="fill:#3d5d5f" />
</g>
<g
   id="g2389"
   transform="translate(44.200611,96.437697)">
	<path
   d="m 190.058,90.392 c 0,0 -4.835,-8.933 4.978,-16.99 1.885,-0.869 14.593,0.558 23.365,11.465 -0.75,4.534 0.253,10.202 -9.43,10.479 3.555,2.135 5.921,9.609 5.921,9.609 0,0 8.571,-2.498 14.479,-7.333 2.389,2.827 8.419,13.083 -0.019,19.34 -9.87,1.264 -23.837,0.934 -26.091,-3.6 l -5.383,-12.207 2.152,-4.812 -4.854,-6.604 -3.683,2.716 z"
   id="path2387"
   inkscape:connector-curvature="0"
   style="fill:#3d5d5f" />
</g>
<g
   id="g2393"
   transform="translate(44.200611,96.437697)">
	<path
   d="m 91.586,77.146 c 0,0 7.516,-8.48 22.325,-6.698 l 3.25,6.698 3.297,0.154 -2.302,-7.099 c 0,0 4.647,0.475 7.395,-0.968 2.747,-1.441 9.532,-5.938 11.981,-5.505 2.448,0.434 4.267,-3.729 4.124,-9.234 -0.143,-5.505 0.261,-17.776 -0.688,-20.77 -0.948,-2.993 -2.872,-10.729 -7.81,-12.797 C 128.22,18.862 119.848,16.84 119.436,12.922 119.024,9.005 119.255,5.568 116.154,5.03 113.053,4.492 68.457,8.075 52.363,16.305 48.4,17.085 38.597,14.623 35.442,18.536 32.287,22.448 31.79,19.081 28.341,26.453 24.894,33.826 5.847,51.268 4.184,60.749 c -1.664,9.48 5.758,14.104 9.542,14.326 3.784,0.222 8.514,-0.401 11.737,1.643 3.223,2.044 19.149,-0.043 23.131,-0.799 3.981,-0.759 10.075,-1.128 13.766,1.227 3.69,2.352 12.215,6.886 21.977,4.252 -2.565,9.604 -3.936,14.526 -3.437,15.755 0.5,1.229 7.784,18.393 7.784,18.393 l 1.417,5.734 8.287,10.252 -0.549,-6.762 c 0,0 -3.706,-13.235 3.229,-16.102 6.936,-2.866 7.861,-4.012 6.707,-4.01 -1.154,0.002 -10.637,3.395 -10.637,3.395 l -4.935,6.498 -6.473,-19.483 z"
   id="path2391"
   inkscape:connector-curvature="0"
   style="fill:#e5e3e3" />
</g>
<g
   id="g2397"
   transform="translate(44.200611,96.437697)">
	<path
   d="m 98.073,126.864 c -0.4,0 -0.778,-0.242 -0.932,-0.638 -0.116,-0.297 -0.259,-0.654 -0.419,-1.053 -1.553,-3.877 -2.914,-7.491 -2.506,-9.112 0.493,-1.946 3.452,-6.287 5.19,-7.616 0.75,-0.572 2.305,-1.143 4.105,-1.803 0.673,-0.247 1.564,-0.573 2.351,-0.895 -2.411,0.491 -6.298,1.853 -7.601,2.659 -1.095,0.679 -3.498,4.42 -4.755,6.619 -0.192,0.334 -0.573,0.53 -0.942,0.5 -0.385,-0.028 -0.718,-0.275 -0.858,-0.634 -0.665,-1.707 -6.508,-16.758 -6.939,-19.484 -0.461,-2.92 4.581,-18.923 8.081,-22.646 0.379,-0.401 1.011,-0.421 1.414,-0.043 0.402,0.378 0.422,1.011 0.043,1.414 -3.248,3.455 -7.916,18.724 -7.562,20.963 0.296,1.876 3.995,11.72 6.087,17.159 1.201,-1.942 3.08,-4.744 4.377,-5.548 0.979,-0.607 9.833,-4.477 11.893,-2.529 0.359,0.34 0.512,0.798 0.417,1.257 -0.231,1.122 -1.642,1.737 -5.319,3.085 -1.439,0.528 -3.071,1.126 -3.579,1.514 -1.472,1.125 -4.112,5.123 -4.465,6.516 -0.282,1.125 1.684,6.032 2.424,7.879 0.162,0.406 0.308,0.769 0.425,1.071 0.201,0.515 -0.054,1.094 -0.569,1.294 -0.117,0.048 -0.24,0.071 -0.361,0.071 z"
   id="path2395"
   inkscape:connector-curvature="0"
   style="fill:#010101" />
</g>
<g
   id="g2401"
   transform="translate(44.200611,96.437697)">
	<path
   d="m 98.386,132.531 c -0.158,0 -0.318,-0.037 -0.467,-0.116 -2.664,-1.41 -4.814,-4.735 -5.354,-7.135 -0.264,-1.168 -0.556,-1.922 -0.838,-2.652 -0.422,-1.091 -0.859,-2.219 -1.133,-4.499 -0.066,-0.548 0.325,-1.046 0.874,-1.112 0.549,-0.061 1.046,0.325 1.112,0.874 0.244,2.031 0.6,2.95 1.012,4.015 0.295,0.76 0.628,1.622 0.925,2.935 0.433,1.925 2.28,4.717 4.339,5.807 0.488,0.258 0.674,0.864 0.416,1.352 -0.181,0.338 -0.527,0.531 -0.886,0.531 z"
   id="path2399"
   inkscape:connector-curvature="0"
   style="fill:#010101" />
</g>
<g
   id="g2405"
   transform="translate(44.200611,96.437697)">
	<path
   d="m 94.401,128.251 c -0.29,0 -0.578,-0.125 -0.775,-0.368 -0.185,-0.228 -0.429,-0.479 -0.707,-0.77 -1.27,-1.323 -3.188,-3.322 -4.273,-6.947 -0.126,-0.419 -0.174,-0.847 -0.226,-1.299 -0.122,-1.07 -0.288,-2.535 -1.645,-5.151 -5.395,-10.399 -7.579,-17.053 -6.677,-20.341 0.335,-1.224 0.787,-2.936 1.282,-4.808 1.342,-5.084 2.864,-10.847 3.454,-12.24 0.215,-0.508 0.801,-0.745 1.311,-0.531 0.509,0.216 0.746,0.803 0.531,1.311 -0.535,1.261 -2.169,7.451 -3.362,11.97 -0.496,1.879 -0.95,3.598 -1.287,4.826 -0.423,1.543 -0.139,6.05 6.523,18.892 1.527,2.945 1.726,4.691 1.857,5.847 0.044,0.392 0.08,0.702 0.154,0.951 0.947,3.163 2.664,4.952 3.8,6.137 0.322,0.335 0.6,0.627 0.814,0.889 0.349,0.428 0.285,1.058 -0.143,1.407 -0.185,0.151 -0.408,0.225 -0.631,0.225 z"
   id="path2403"
   inkscape:connector-curvature="0"
   style="fill:#010101" />
</g>
<g
   id="g2409"
   transform="translate(44.200611,96.437697)">
	<path
   d="m 106.553,153.256 c -0.352,0 -0.65,-0.011 -0.89,-0.035 -3.506,-0.353 -5.554,-1.204 -6.262,-2.601 -0.286,-0.563 -0.479,-1.484 0.219,-2.668 3.175,-5.679 21.094,-12.549 41.669,-15.961 10.75,-1.782 16.416,-1.365 19.392,-0.365 -4.207,-10.492 -17.291,-43.002 -21.078,-50.987 -3.301,-2.768 -11.018,-3.52 -21.236,-2.065 -7.5,1.073 -20.375,8.427 -23.198,10.081 l 2.28,18.46 c 0.067,0.548 -0.322,1.047 -0.87,1.115 -0.542,0.065 -1.046,-0.322 -1.115,-0.87 l -2.36,-19.11 c -0.048,-0.392 0.138,-0.775 0.476,-0.979 0.637,-0.384 15.689,-9.416 24.504,-10.676 6.44,-0.92 17.99,-1.792 22.998,2.68 0.099,0.088 0.179,0.194 0.236,0.313 4.16,8.682 20.507,49.511 22.362,54.149 0.149,0.275 0.206,0.498 0.227,0.624 0.02,0.116 0.021,0.235 -0.002,0.354 -0.012,0.063 -0.029,0.124 -0.052,0.183 -0.736,1.951 -3.113,4.091 -7.065,6.361 -6.075,3.712 -30.92,10.128 -37.83,10.899 -5.377,0.599 -10.063,1.098 -12.405,1.098 z m 47.246,-20.488 c -2.915,0 -6.858,0.313 -12.183,1.196 -21.706,3.6 -37.799,10.581 -40.262,14.984 -0.3,0.509 -0.201,0.704 -0.168,0.768 0.257,0.507 1.636,1.208 4.676,1.514 1.645,0.163 7.028,-0.409 12.875,-1.06 6.605,-0.737 31.25,-7.099 37.032,-10.632 3.205,-1.841 5.325,-3.599 6.062,-5.011 -0.375,-0.422 -2.011,-1.759 -8.032,-1.759 z"
   id="path2407"
   inkscape:connector-curvature="0"
   style="fill:#010101" />
</g>
<g
   id="g2413"
   transform="translate(44.200611,96.437697)">
	<path
   d="m 100.249,150.751 c -0.509,0 -0.944,-0.387 -0.995,-0.904 l -3.523,-36.495 c -0.053,-0.55 0.35,-1.039 0.899,-1.092 0.556,-0.05 1.039,0.35 1.092,0.899 l 3.523,36.495 c 0.053,0.55 -0.35,1.039 -0.899,1.092 -0.033,0.004 -0.065,0.005 -0.097,0.005 z"
   id="path2411"
   inkscape:connector-curvature="0"
   style="fill:#010101" />
</g>
<g
   id="g2417"
   transform="translate(44.200611,96.437697)">
	<path
   d="m 117.162,78.146 c -0.419,0 -0.809,-0.266 -0.949,-0.685 l -2.014,-6.042 c -0.175,-0.524 0.108,-1.09 0.632,-1.265 0.522,-0.174 1.089,0.108 1.265,0.632 l 2.014,6.042 c 0.174,0.524 -0.109,1.09 -0.633,1.265 -0.104,0.036 -0.211,0.053 -0.315,0.053 z"
   id="path2415"
   inkscape:connector-curvature="0"
   style="fill:#010101" />
</g>
<g
   id="g2421"
   transform="translate(44.200611,96.437697)">
	<path
   d="m 119.436,77.718 c -0.485,0 -0.911,-0.354 -0.987,-0.848 -0.273,-1.776 -1.249,-5.473 -1.258,-5.51 -0.141,-0.534 0.177,-1.082 0.711,-1.223 0.535,-0.141 1.081,0.177 1.223,0.711 0.041,0.156 1.013,3.838 1.301,5.718 0.084,0.546 -0.291,1.056 -0.836,1.14 -0.052,0.008 -0.104,0.012 -0.154,0.012 z"
   id="path2419"
   inkscape:connector-curvature="0"
   style="fill:#010101" />
</g>
<g
   id="g2425"
   transform="translate(44.200611,96.437697)">
	<path
   d="m 220.933,119.282 c -5.647,0 -12.887,-1.189 -19.408,-5.898 -0.448,-0.323 -0.549,-0.948 -0.226,-1.396 0.323,-0.448 0.948,-0.549 1.396,-0.225 11.066,7.99 24.767,5.062 27.153,4.465 1.991,-3.238 17.644,-28.675 28.045,-44.949 -0.672,-6.225 -11.788,-23.617 -30.068,-23.765 -1.912,-0.118 -2.21,-0.048 -2.801,0.089 -0.563,0.131 -1.337,0.311 -3.332,0.461 -3.897,0.587 -28.898,18.848 -44.868,31.078 -0.499,1.231 -3.023,9.229 9.243,21.298 0.394,0.387 0.399,1.021 0.012,1.414 -0.387,0.393 -1.021,0.398 -1.414,0.012 -14.473,-14.24 -9.735,-23.457 -9.526,-23.842 0.066,-0.124 0.159,-0.232 0.271,-0.318 4.106,-3.146 40.283,-30.762 46.06,-31.627 1.916,-0.148 2.603,-0.307 3.104,-0.424 0.789,-0.183 1.258,-0.266 3.322,-0.139 18.726,0.15 31.61,18.33 32.021,25.964 0.011,0.209 -0.044,0.416 -0.156,0.592 -11.053,17.282 -28.244,45.263 -28.416,45.543 -0.13,0.211 -0.334,0.367 -0.571,0.436 -0.329,0.097 -4.326,1.231 -9.841,1.231 z"
   id="path2423"
   inkscape:connector-curvature="0"
   style="fill:#010101" />
</g>
<g
   id="g2431"
   transform="translate(44.200611,96.437697)">
	<path
   d="m 130.312,136.401 c 0,0 5.308,4 13.461,3.99 -2.275,1.887 -11.187,8.839 -11.187,8.839 0,0 -3.413,-7.421 -10.238,-7.565 -6.825,-0.144 -7.201,-1.273 -7.201,-1.273"
   id="path2427"
   inkscape:connector-curvature="0"
   style="fill:#ffffff" />
	<path
   d="m 132.587,150.23 c -0.079,0 -0.158,-0.009 -0.236,-0.028 -0.296,-0.071 -0.544,-0.275 -0.672,-0.552 -0.032,-0.068 -3.248,-6.855 -9.352,-6.984 -7.531,-0.16 -7.981,-1.513 -8.129,-1.958 -0.174,-0.524 0.11,-1.09 0.634,-1.265 0.424,-0.139 0.871,0.016 1.121,0.356 0.214,0.135 1.467,0.762 6.417,0.867 5.767,0.123 9.23,4.845 10.535,7.048 1.76,-1.375 5.622,-4.399 8.202,-6.456 -6.862,-0.699 -11.194,-3.905 -11.397,-4.058 -0.44,-0.332 -0.528,-0.958 -0.197,-1.399 0.332,-0.44 0.958,-0.529 1.399,-0.2 0.051,0.038 5.156,3.79 12.832,3.79 0.01,0 0.018,0 0.028,0 0,0 0,0 0.001,0 0.421,0 0.797,0.264 0.94,0.66 0.144,0.396 0.022,0.84 -0.302,1.11 -2.261,1.875 -10.845,8.573 -11.209,8.857 -0.177,0.139 -0.394,0.212 -0.615,0.212 z"
   id="path2429"
   inkscape:connector-curvature="0"
   style="fill:#010101" />
</g>
<g
   id="g2437"
   transform="translate(44.200611,96.437697)">
	<path
   d="m 218.479,83.448 c 0,0 -0.123,8.487 -3.535,10.383 -3.414,1.896 -6.826,2.464 -6.826,2.464 0,0 6.256,0.381 6.826,9.18 0,0 11.695,-3.545 14.428,-8.701"
   id="path2433"
   inkscape:connector-curvature="0"
   style="fill:#ffffff" />
	<path
   d="m 214.944,106.475 c -0.201,0 -0.4,-0.061 -0.569,-0.178 -0.251,-0.174 -0.409,-0.453 -0.429,-0.757 -0.507,-7.828 -5.835,-8.243 -5.889,-8.246 -0.508,-0.031 -0.911,-0.438 -0.938,-0.945 -0.027,-0.507 0.332,-0.955 0.833,-1.039 0.032,-0.005 3.295,-0.569 6.506,-2.352 2.372,-1.317 2.991,-7.471 3.021,-9.523 0.008,-0.553 0.467,-1.027 1.015,-0.985 0.552,0.008 0.993,0.462 0.985,1.015 -0.014,0.928 -0.241,9.127 -4.05,11.242 -1.423,0.791 -2.839,1.358 -4.03,1.757 1.812,1.13 3.826,3.344 4.416,7.67 2.952,-1.026 10.65,-4.011 12.673,-7.827 0.26,-0.488 0.866,-0.673 1.352,-0.416 0.488,0.259 0.675,0.864 0.416,1.352 -2.895,5.461 -14.527,9.04 -15.021,9.19 -0.096,0.027 -0.193,0.042 -0.291,0.042 z"
   id="path2435"
   inkscape:connector-curvature="0"
   style="fill:#010101" />
</g>
<g
   id="g2441"
   transform="translate(44.200611,96.437697)">
	<path
   d="m 229.353,117.961 c -0.407,0 -0.789,-0.25 -0.938,-0.655 -0.19,-0.517 0.073,-1.089 0.588,-1.282 0.104,-0.04 2.254,-0.896 3.283,-3.544 1.124,-2.892 0.463,-6.933 -1.912,-11.685 -4.267,-8.54 -9.315,-15.526 -20.089,-21.865 -0.191,-0.108 -20.445,-11.389 -33.603,0.317 -0.415,0.367 -1.046,0.33 -1.412,-0.083 -0.367,-0.413 -0.33,-1.044 0.082,-1.412 14.238,-12.666 35.718,-0.676 35.935,-0.554 11.209,6.595 16.451,13.844 20.876,22.702 2.687,5.375 3.348,9.869 1.966,13.357 -1.38,3.483 -4.306,4.595 -4.43,4.641 -0.115,0.043 -0.231,0.063 -0.346,0.063 z"
   id="path2439"
   inkscape:connector-curvature="0"
   style="fill:#010101" />
</g>
<g
   id="g2461"
   transform="translate(44.200611,96.437697)">
	<path
   d="m 31.15,42.146 h -5.016 v -1.98 h 12.145 v 1.98 H 33.262 V 55.742 H 31.15 Z"
   id="path2443"
   inkscape:connector-curvature="0"
   style="fill:#010101" />
	<path
   d="m 39.071,51.253 c 0,0.455 0.099,0.869 0.297,1.243 0.197,0.374 0.458,0.693 0.78,0.957 0.323,0.264 0.697,0.47 1.122,0.616 0.426,0.146 0.865,0.22 1.32,0.22 0.616,0 1.151,-0.143 1.606,-0.429 0.454,-0.286 0.872,-0.664 1.254,-1.133 l 1.496,1.144 c -1.101,1.423 -2.641,2.134 -4.62,2.134 -0.822,0 -1.566,-0.14 -2.233,-0.418 -0.667,-0.278 -1.231,-0.663 -1.694,-1.154 -0.462,-0.491 -0.817,-1.071 -1.066,-1.738 -0.25,-0.667 -0.374,-1.39 -0.374,-2.167 0,-0.777 0.136,-1.5 0.407,-2.167 0.271,-0.667 0.645,-1.246 1.122,-1.738 0.476,-0.491 1.045,-0.876 1.704,-1.155 0.66,-0.278 1.379,-0.418 2.156,-0.418 0.924,0 1.705,0.162 2.343,0.484 0.639,0.323 1.163,0.744 1.573,1.265 0.411,0.521 0.708,1.108 0.892,1.761 0.183,0.652 0.274,1.316 0.274,1.99 v 0.704 h -8.359 z m 6.248,-1.584 c -0.016,-0.439 -0.085,-0.843 -0.21,-1.21 -0.124,-0.366 -0.312,-0.686 -0.561,-0.957 -0.25,-0.271 -0.561,-0.483 -0.935,-0.638 -0.374,-0.155 -0.811,-0.231 -1.31,-0.231 -0.483,0 -0.928,0.092 -1.331,0.275 -0.403,0.183 -0.744,0.422 -1.022,0.715 -0.279,0.294 -0.495,0.62 -0.649,0.979 -0.154,0.359 -0.23,0.715 -0.23,1.066 h 6.248 z"
   id="path2445"
   inkscape:connector-curvature="0"
   style="fill:#010101" />
	<path
   d="m 55.35,47.932 c -0.234,-0.294 -0.524,-0.539 -0.869,-0.737 -0.345,-0.198 -0.767,-0.297 -1.265,-0.297 -0.47,0 -0.877,0.099 -1.221,0.297 -0.345,0.198 -0.518,0.487 -0.518,0.869 0,0.308 0.1,0.558 0.297,0.748 0.198,0.19 0.433,0.345 0.704,0.462 0.271,0.117 0.562,0.205 0.869,0.264 0.309,0.059 0.572,0.11 0.792,0.154 0.426,0.103 0.825,0.228 1.199,0.374 0.374,0.146 0.696,0.337 0.968,0.572 0.271,0.234 0.484,0.521 0.638,0.857 0.154,0.338 0.231,0.748 0.231,1.232 0,0.587 -0.125,1.089 -0.374,1.507 -0.249,0.418 -0.572,0.759 -0.968,1.022 -0.396,0.265 -0.848,0.455 -1.354,0.572 -0.506,0.117 -1.016,0.176 -1.528,0.176 -0.866,0 -1.625,-0.132 -2.277,-0.396 -0.652,-0.265 -1.235,-0.748 -1.749,-1.452 l 1.496,-1.232 c 0.322,0.323 0.682,0.609 1.078,0.858 0.396,0.25 0.88,0.374 1.452,0.374 0.249,0 0.502,-0.025 0.759,-0.077 0.256,-0.051 0.483,-0.132 0.682,-0.242 0.198,-0.109 0.359,-0.249 0.484,-0.418 0.124,-0.168 0.187,-0.362 0.187,-0.583 0,-0.293 -0.092,-0.535 -0.274,-0.726 -0.184,-0.19 -0.404,-0.341 -0.66,-0.451 -0.257,-0.11 -0.528,-0.198 -0.814,-0.264 C 53.03,51.329 52.776,51.274 52.556,51.23 52.13,51.127 51.727,51.009 51.346,50.877 50.964,50.745 50.627,50.569 50.334,50.35 50.04,50.129 49.806,49.851 49.63,49.514 c -0.176,-0.338 -0.264,-0.756 -0.264,-1.255 0,-0.542 0.113,-1.015 0.341,-1.419 0.227,-0.402 0.527,-0.736 0.901,-1.001 0.374,-0.264 0.8,-0.462 1.276,-0.594 0.476,-0.132 0.957,-0.198 1.441,-0.198 0.704,0 1.378,0.133 2.023,0.396 0.645,0.263 1.158,0.704 1.54,1.32 z"
   id="path2447"
   inkscape:connector-curvature="0"
   style="fill:#010101" />
	<path
   d="m 65.162,47.029 h -2.838 v 4.729 c 0,0.294 0.008,0.583 0.022,0.869 0.014,0.286 0.069,0.543 0.165,0.771 0.095,0.228 0.241,0.41 0.439,0.55 0.198,0.14 0.487,0.209 0.869,0.209 0.234,0 0.477,-0.022 0.726,-0.066 0.25,-0.044 0.477,-0.124 0.683,-0.241 v 1.804 c -0.235,0.132 -0.539,0.224 -0.913,0.274 -0.374,0.052 -0.664,0.077 -0.869,0.077 -0.763,0 -1.353,-0.106 -1.771,-0.318 -0.418,-0.213 -0.727,-0.487 -0.925,-0.825 -0.197,-0.337 -0.315,-0.715 -0.352,-1.133 -0.037,-0.418 -0.055,-0.84 -0.055,-1.266 v -5.434 h -2.288 v -1.716 h 2.288 v -2.926 h 1.979 v 2.926 h 2.838 v 1.716 z"
   id="path2449"
   inkscape:connector-curvature="0"
   style="fill:#010101" />
	<path
   d="m 85.182,43.531 c -0.44,-0.572 -0.998,-1.012 -1.673,-1.32 -0.675,-0.308 -1.371,-0.462 -2.09,-0.462 -0.88,0 -1.676,0.165 -2.387,0.495 -0.712,0.33 -1.32,0.781 -1.826,1.354 -0.506,0.571 -0.898,1.242 -1.177,2.013 -0.279,0.77 -0.418,1.595 -0.418,2.475 0,0.822 0.132,1.599 0.396,2.332 0.265,0.733 0.646,1.379 1.145,1.937 0.498,0.558 1.107,0.997 1.826,1.319 0.718,0.323 1.532,0.484 2.441,0.484 0.895,0 1.68,-0.184 2.354,-0.55 0.674,-0.366 1.246,-0.88 1.716,-1.54 l 1.782,1.342 c -0.118,0.161 -0.323,0.393 -0.616,0.693 -0.294,0.301 -0.682,0.602 -1.166,0.901 -0.484,0.301 -1.067,0.565 -1.749,0.792 -0.682,0.228 -1.471,0.342 -2.365,0.342 -1.231,0 -2.343,-0.235 -3.333,-0.704 -0.989,-0.47 -1.833,-1.086 -2.529,-1.849 -0.697,-0.762 -1.229,-1.624 -1.596,-2.585 -0.366,-0.96 -0.55,-1.932 -0.55,-2.915 0,-1.202 0.198,-2.313 0.594,-3.333 0.396,-1.019 0.95,-1.899 1.661,-2.64 0.711,-0.741 1.565,-1.316 2.563,-1.728 0.997,-0.41 2.097,-0.615 3.3,-0.615 1.026,0 2.035,0.197 3.024,0.594 0.99,0.396 1.801,1.005 2.432,1.826 z"
   id="path2451"
   inkscape:connector-curvature="0"
   style="fill:#010101" />
	<path
   d="m 89.362,46.589 c 0.557,-0.513 1.202,-0.897 1.936,-1.154 0.734,-0.257 1.467,-0.386 2.2,-0.386 0.763,0 1.419,0.096 1.969,0.286 0.55,0.191 1.001,0.448 1.354,0.771 0.352,0.322 0.612,0.692 0.78,1.11 0.169,0.418 0.254,0.854 0.254,1.31 v 5.324 c 0,0.366 0.007,0.703 0.021,1.012 0.015,0.308 0.036,0.602 0.066,0.88 h -1.761 c -0.044,-0.528 -0.065,-1.056 -0.065,-1.584 h -0.044 c -0.44,0.675 -0.961,1.151 -1.562,1.43 -0.601,0.279 -1.298,0.418 -2.09,0.418 -0.484,0 -0.946,-0.065 -1.386,-0.197 -0.44,-0.133 -0.825,-0.33 -1.155,-0.595 -0.33,-0.264 -0.591,-0.59 -0.781,-0.979 -0.19,-0.389 -0.285,-0.84 -0.285,-1.354 0,-0.674 0.149,-1.239 0.45,-1.693 0.301,-0.455 0.712,-0.825 1.232,-1.111 0.52,-0.286 1.129,-0.491 1.826,-0.616 0.696,-0.124 1.44,-0.187 2.232,-0.187 h 1.452 v -0.44 c 0,-0.264 -0.052,-0.527 -0.154,-0.792 -0.103,-0.264 -0.256,-0.502 -0.462,-0.715 -0.205,-0.212 -0.462,-0.381 -0.77,-0.506 -0.308,-0.125 -0.675,-0.188 -1.1,-0.188 -0.382,0 -0.716,0.037 -1.002,0.11 -0.285,0.073 -0.546,0.165 -0.78,0.275 -0.235,0.109 -0.448,0.238 -0.639,0.385 -0.191,0.147 -0.374,0.286 -0.55,0.418 z m 5.588,4.137 c -0.47,0 -0.95,0.025 -1.441,0.076 -0.491,0.052 -0.938,0.151 -1.342,0.298 -0.404,0.147 -0.733,0.352 -0.99,0.615 -0.257,0.265 -0.385,0.602 -0.385,1.013 0,0.602 0.201,1.033 0.605,1.298 0.402,0.264 0.949,0.396 1.639,0.396 0.542,0 1.004,-0.091 1.386,-0.274 0.382,-0.183 0.689,-0.422 0.924,-0.715 0.234,-0.294 0.403,-0.62 0.506,-0.979 0.103,-0.359 0.154,-0.715 0.154,-1.067 V 50.728 H 94.95 Z"
   id="path2453"
   inkscape:connector-curvature="0"
   style="fill:#010101" />
	<path
   d="m 106.28,47.932 c -0.235,-0.294 -0.524,-0.539 -0.869,-0.737 -0.345,-0.198 -0.767,-0.297 -1.266,-0.297 -0.469,0 -0.876,0.099 -1.221,0.297 -0.345,0.198 -0.517,0.487 -0.517,0.869 0,0.308 0.099,0.558 0.297,0.748 0.198,0.19 0.433,0.345 0.704,0.462 0.271,0.117 0.561,0.205 0.869,0.264 0.308,0.059 0.571,0.11 0.792,0.154 0.425,0.103 0.824,0.228 1.198,0.374 0.374,0.146 0.697,0.337 0.969,0.572 0.271,0.234 0.483,0.521 0.638,0.857 0.154,0.338 0.231,0.748 0.231,1.232 0,0.587 -0.125,1.089 -0.374,1.507 -0.25,0.418 -0.572,0.759 -0.969,1.022 -0.396,0.265 -0.847,0.455 -1.353,0.572 -0.506,0.117 -1.016,0.176 -1.529,0.176 -0.865,0 -1.624,-0.132 -2.276,-0.396 -0.653,-0.265 -1.236,-0.748 -1.749,-1.452 l 1.495,-1.232 c 0.323,0.323 0.683,0.609 1.078,0.858 0.396,0.25 0.88,0.374 1.452,0.374 0.249,0 0.502,-0.025 0.759,-0.077 0.257,-0.051 0.484,-0.132 0.683,-0.242 0.197,-0.109 0.359,-0.249 0.483,-0.418 0.125,-0.168 0.188,-0.362 0.188,-0.583 0,-0.293 -0.092,-0.535 -0.275,-0.726 -0.183,-0.191 -0.403,-0.341 -0.66,-0.451 -0.257,-0.11 -0.527,-0.198 -0.813,-0.264 -0.286,-0.066 -0.539,-0.121 -0.759,-0.165 -0.426,-0.103 -0.829,-0.221 -1.21,-0.353 -0.382,-0.132 -0.719,-0.308 -1.013,-0.527 -0.293,-0.221 -0.527,-0.499 -0.704,-0.836 -0.176,-0.338 -0.264,-0.756 -0.264,-1.255 0,-0.542 0.113,-1.015 0.341,-1.419 0.228,-0.402 0.528,-0.736 0.902,-1.001 0.374,-0.264 0.799,-0.462 1.276,-0.594 0.476,-0.132 0.957,-0.198 1.44,-0.198 0.704,0 1.379,0.133 2.024,0.396 0.645,0.264 1.158,0.704 1.54,1.32 z"
   id="path2455"
   inkscape:connector-curvature="0"
   style="fill:#010101" />
	<path
   d="m 112,51.253 c 0,0.455 0.099,0.869 0.297,1.243 0.198,0.374 0.458,0.693 0.781,0.957 0.322,0.264 0.696,0.47 1.122,0.616 0.425,0.146 0.865,0.22 1.32,0.22 0.615,0 1.15,-0.143 1.605,-0.429 0.454,-0.286 0.872,-0.664 1.254,-1.133 l 1.496,1.144 c -1.1,1.423 -2.64,2.134 -4.62,2.134 -0.821,0 -1.565,-0.14 -2.232,-0.418 -0.668,-0.278 -1.232,-0.663 -1.694,-1.154 -0.462,-0.491 -0.817,-1.071 -1.067,-1.738 -0.249,-0.667 -0.374,-1.39 -0.374,-2.167 0,-0.777 0.136,-1.5 0.407,-2.167 0.271,-0.667 0.646,-1.246 1.122,-1.738 0.477,-0.491 1.045,-0.876 1.705,-1.155 0.66,-0.278 1.379,-0.418 2.156,-0.418 0.924,0 1.705,0.162 2.343,0.484 0.638,0.323 1.162,0.744 1.573,1.265 0.41,0.521 0.707,1.108 0.891,1.761 0.184,0.653 0.275,1.316 0.275,1.99 v 0.704 H 112 Z m 6.248,-1.584 c -0.015,-0.439 -0.085,-0.843 -0.209,-1.21 -0.125,-0.366 -0.312,-0.686 -0.561,-0.957 -0.25,-0.271 -0.562,-0.483 -0.936,-0.638 -0.374,-0.155 -0.811,-0.231 -1.309,-0.231 -0.484,0 -0.928,0.092 -1.331,0.275 -0.404,0.184 -0.745,0.422 -1.023,0.715 -0.278,0.294 -0.495,0.62 -0.648,0.979 -0.154,0.359 -0.231,0.715 -0.231,1.066 h 6.248 z"
   id="path2457"
   inkscape:connector-curvature="0"
   style="fill:#010101" />
	<path
   d="m 128.28,47.932 c -0.235,-0.294 -0.524,-0.539 -0.869,-0.737 -0.345,-0.198 -0.767,-0.297 -1.266,-0.297 -0.469,0 -0.876,0.099 -1.221,0.297 -0.345,0.198 -0.517,0.487 -0.517,0.869 0,0.308 0.099,0.558 0.297,0.748 0.198,0.19 0.433,0.345 0.704,0.462 0.271,0.117 0.561,0.205 0.869,0.264 0.308,0.059 0.571,0.11 0.792,0.154 0.425,0.103 0.824,0.228 1.198,0.374 0.374,0.146 0.697,0.337 0.969,0.572 0.271,0.234 0.483,0.521 0.638,0.857 0.154,0.338 0.231,0.748 0.231,1.232 0,0.587 -0.125,1.089 -0.374,1.507 -0.25,0.418 -0.572,0.759 -0.969,1.022 -0.396,0.265 -0.847,0.455 -1.353,0.572 -0.506,0.117 -1.016,0.176 -1.529,0.176 -0.865,0 -1.624,-0.132 -2.276,-0.396 -0.653,-0.265 -1.236,-0.748 -1.749,-1.452 l 1.495,-1.232 c 0.323,0.323 0.683,0.609 1.078,0.858 0.396,0.25 0.88,0.374 1.452,0.374 0.249,0 0.502,-0.025 0.759,-0.077 0.257,-0.051 0.484,-0.132 0.683,-0.242 0.197,-0.109 0.359,-0.249 0.483,-0.418 0.125,-0.168 0.188,-0.362 0.188,-0.583 0,-0.293 -0.092,-0.535 -0.275,-0.726 -0.183,-0.191 -0.403,-0.341 -0.66,-0.451 -0.257,-0.11 -0.527,-0.198 -0.813,-0.264 -0.286,-0.066 -0.539,-0.121 -0.759,-0.165 -0.426,-0.103 -0.829,-0.221 -1.21,-0.353 -0.382,-0.132 -0.719,-0.308 -1.013,-0.527 -0.293,-0.221 -0.527,-0.499 -0.704,-0.836 -0.176,-0.338 -0.264,-0.756 -0.264,-1.255 0,-0.542 0.113,-1.015 0.341,-1.419 0.228,-0.402 0.528,-0.736 0.902,-1.001 0.374,-0.264 0.799,-0.462 1.276,-0.594 0.476,-0.132 0.957,-0.198 1.44,-0.198 0.704,0 1.379,0.133 2.024,0.396 0.645,0.264 1.158,0.704 1.54,1.32 z"
   id="path2459"
   inkscape:connector-curvature="0"
   style="fill:#010101" />
</g>
<g
   id="g2465"
   transform="translate(44.200611,96.437697)">
	<path
   d="m 78.015,83.488 c -6.076,0 -12.042,-2.404 -14.379,-4.391 C 61.134,76.971 54.02,75.495 50.281,76.325 48.01,76.83 29.97,79.938 25.096,77.651 20.616,76.262 18.37,76.287 16.572,76.299 13.903,76.323 12.18,76.185 7.814,73.031 5.105,71.075 3.521,68.234 3.233,64.814 2.733,58.876 6.237,51.31 12.379,45.07 22.754,34.526 28.77,23.86 29.422,22.678 c 2.523,-4.571 10.317,-8.117 15.445,-7.037 4.288,0.911 4.718,0.75 15.728,-3.315 l 0.925,-0.341 c 11.974,-4.419 46.578,-9.033 52.491,-8.447 5.645,0.565 5.943,4.041 6.232,7.402 0.051,0.597 0.104,1.218 0.186,1.854 0.327,2.546 2.485,3.336 6.945,4.747 1.262,0.399 2.691,0.851 4.202,1.412 6.96,2.585 11.672,14.521 11.061,20.941 -0.335,3.517 -0.215,6.659 -0.099,9.696 0.079,2.062 0.16,4.195 0.103,6.444 -0.14,5.486 -2.37,8.499 -6.814,9.209 -1.519,0.243 -3.716,1.511 -5.841,2.736 -2.536,1.462 -5.157,2.975 -7.299,3.19 -1.457,0.147 -3.811,0.188 -6.536,0.235 -4.242,0.073 -9.05,0.157 -11.41,0.674 -3.787,0.83 -12.566,5.88 -12.654,5.932 -0.48,0.276 -1.09,0.112 -1.366,-0.366 -0.276,-0.479 -0.112,-1.09 0.366,-1.366 0.372,-0.214 9.14,-5.258 13.226,-6.153 2.554,-0.561 7.468,-0.646 11.803,-0.72 2.569,-0.044 4.995,-0.086 6.37,-0.226 1.715,-0.172 4.147,-1.576 6.5,-2.933 2.387,-1.377 4.642,-2.678 6.525,-2.979 2.455,-0.393 4.984,-1.565 5.131,-7.285 0.056,-2.186 -0.024,-4.286 -0.102,-6.317 -0.119,-3.104 -0.242,-6.312 0.106,-9.962 0.528,-5.549 -3.817,-16.667 -9.766,-18.877 -1.464,-0.544 -2.869,-0.988 -4.108,-1.38 -4.37,-1.381 -7.821,-2.473 -8.326,-6.398 -0.086,-0.666 -0.142,-1.315 -0.195,-1.938 -0.287,-3.343 -0.445,-5.184 -4.438,-5.583 -5.468,-0.553 -39.954,4.035 -51.6,8.333 l -0.924,0.341 c -11.079,4.09 -11.983,4.424 -16.835,3.396 -4.243,-0.899 -11.193,2.266 -13.279,6.046 -0.665,1.206 -6.806,12.094 -17.369,22.828 -5.744,5.836 -9.031,12.8 -8.579,18.174 0.241,2.861 1.505,5.136 3.759,6.764 4.046,2.922 5.298,2.908 7.569,2.89 1.85,-0.02 4.383,-0.041 9.208,1.463 0.05,0.016 0.1,0.035 0.146,0.059 3.544,1.755 19.175,-0.389 23.939,-1.449 3.954,-0.879 11.849,0.451 15.084,3.2 2.816,2.395 12.092,5.585 19.044,2.892 0.516,-0.198 1.095,0.057 1.294,0.571 0.199,0.515 -0.057,1.094 -0.571,1.294 -2.121,0.822 -4.411,1.158 -6.684,1.159 z"
   id="path2463"
   inkscape:connector-curvature="0"
   style="fill:#010101" />
</g>
<g
   id="g2471"
   transform="translate(44.200611,96.437697)">
	<path
   d="m 142.636,149.751 c 0,0 -0.38,7.887 -11.566,7.695 6.068,6.826 11.566,19.531 9.859,22.753 6.447,-1.138 16.497,-2.275 17.823,0 0.189,-8.344 -10.482,-27.811 -16.306,-30.969"
   id="path2467"
   inkscape:connector-curvature="0"
   style="fill:#ffffff" />
	<path
   d="m 158.751,181.199 c -0.35,0 -0.682,-0.184 -0.864,-0.497 -0.544,-0.935 -6.112,-1.402 -16.785,0.481 -0.376,0.066 -0.757,-0.087 -0.982,-0.396 -0.225,-0.309 -0.254,-0.719 -0.075,-1.057 1.369,-2.582 -3.699,-14.844 -9.723,-21.62 -0.264,-0.297 -0.327,-0.721 -0.161,-1.082 0.166,-0.361 0.52,-0.596 0.926,-0.583 9.514,0.195 10.458,-5.736 10.542,-6.638 -0.213,-0.301 -0.25,-0.709 -0.062,-1.055 0.264,-0.486 0.871,-0.666 1.355,-0.402 6.482,3.515 17.02,23.471 16.829,31.87 -0.01,0.448 -0.316,0.834 -0.75,0.946 -0.083,0.023 -0.167,0.033 -0.25,0.033 z M 133.15,158.386 c 4.794,6.137 9.311,15.824 9.067,20.579 5.745,-0.948 12.139,-1.598 15.428,-0.58 -1.027,-8.057 -9.092,-22.692 -14.265,-27.25 -0.634,2.264 -2.817,6.669 -10.23,7.251 z"
   id="path2469"
   inkscape:connector-curvature="0"
   style="fill:#010101" />
</g>

<g
   id="g2483"
   transform="translate(44.200611,96.437697)">
	<path
   d="m 195.036,73.732 c 0,0 -9.291,6.637 -4.74,17.255 0,0 -5.709,0.554 -8.25,3.475 -2.844,-4.754 -0.85,-17.73 0.754,-19.435"
   id="path2479"
   inkscape:connector-curvature="0"
   style="fill:#ffffff" />
	<path
   d="m 182.045,95.462 c -0.029,0 -0.059,-0.001 -0.088,-0.004 -0.319,-0.028 -0.605,-0.208 -0.771,-0.483 -2.953,-4.936 -1.17,-18.451 0.884,-20.633 0.38,-0.403 1.012,-0.421 1.414,-0.043 0.402,0.379 0.421,1.012 0.043,1.414 -1.105,1.174 -3.021,11.888 -1.158,17.084 2.062,-1.595 4.908,-2.314 6.542,-2.614 -3.653,-10.536 5.447,-17.195 5.543,-17.264 0.449,-0.322 1.071,-0.216 1.393,0.232 0.322,0.448 0.219,1.072 -0.229,1.395 -0.353,0.253 -8.574,6.318 -4.404,16.048 0.126,0.293 0.104,0.628 -0.059,0.903 -0.163,0.275 -0.445,0.455 -0.763,0.486 -0.054,0.005 -5.348,0.555 -7.593,3.136 -0.19,0.218 -0.466,0.343 -0.754,0.343 z"
   id="path2481"
   inkscape:connector-curvature="0"
   style="fill:#010101" />
</g>
<g
   id="g2489"
   transform="translate(44.200611,96.437697)">
	<path
   d="m 193.709,112.424 c 0,0 -7.184,1.177 -9.268,-3.098 1.113,-9.996 6.992,-18.45 10.594,-19.588 2.084,2.652 2.789,4.284 4.996,6.748 -1.394,2.053 -2.152,5.377 -2.152,5.377"
   id="path2485"
   inkscape:connector-curvature="0"
   style="fill:#ffffff" />
	<path
   d="m 191.542,113.575 c -2.532,0 -6.418,-0.569 -7.998,-3.811 -0.083,-0.17 -0.116,-0.361 -0.096,-0.549 1.097,-9.844 6.968,-19.066 11.287,-20.431 0.395,-0.124 0.83,0.009 1.087,0.336 0.904,1.15 1.545,2.099 2.165,3.017 0.804,1.188 1.562,2.311 2.79,3.682 0.307,0.342 0.34,0.849 0.082,1.229 -1.269,1.869 -1.997,5.007 -2.005,5.039 -0.123,0.538 -0.66,0.871 -1.197,0.751 -0.538,-0.123 -0.875,-0.659 -0.752,-1.197 0.029,-0.129 0.673,-2.907 1.889,-5.052 -1.035,-1.217 -1.731,-2.248 -2.463,-3.331 -0.485,-0.718 -0.984,-1.456 -1.611,-2.29 -2.983,1.671 -8.127,8.945 -9.248,18.165 1.9,3.261 8.016,2.314 8.078,2.305 0.546,-0.09 1.058,0.282 1.146,0.826 0.089,0.545 -0.28,1.058 -0.824,1.147 -0.11,0.018 -1.046,0.164 -2.33,0.164 z"
   id="path2487"
   inkscape:connector-curvature="0"
   style="fill:#010101" />
</g>
<g
   id="g2495"
   transform="translate(44.200611,96.437697)">
	<path
   d="m 196.742,100.349 c 0,0 -1.138,23.249 -17.063,18.699 8.342,6.067 8.25,14.789 8.25,14.789 0,0 14.84,-7.775 15.334,-12.515 0.494,-4.739 -2.919,-17.112 -6.521,-20.973 z"
   id="path2491"
   inkscape:connector-curvature="0"
   style="fill:#ffffff" />
	<path
   d="m 187.928,134.837 c -0.182,0 -0.362,-0.049 -0.522,-0.147 -0.299,-0.184 -0.48,-0.511 -0.478,-0.862 0,-0.101 -0.05,-8.307 -7.838,-13.972 -0.393,-0.285 -0.523,-0.811 -0.311,-1.247 0.212,-0.436 0.709,-0.657 1.173,-0.523 1.282,0.366 2.506,0.552 3.64,0.552 h 10e-4 c 11.122,-0.002 12.141,-18.155 12.149,-18.338 0.02,-0.401 0.278,-0.752 0.655,-0.89 0.378,-0.137 0.8,-0.037 1.075,0.257 3.776,4.047 7.321,16.615 6.783,21.76 -0.534,5.124 -14.297,12.475 -15.864,13.296 -0.144,0.076 -0.304,0.114 -0.463,0.114 z m -4.878,-14.211 c 4.257,4.312 5.433,9.142 5.756,11.602 5.541,-3.062 13.167,-8.184 13.462,-11.009 0.41,-3.935 -2.022,-13.277 -4.81,-18.138 -0.271,1.894 -0.792,4.562 -1.775,7.255 -2.462,6.739 -6.643,10.301 -12.089,10.302 -0.001,0 -0.002,0 -0.002,0 -0.179,0 -0.36,-0.004 -0.542,-0.012 z"
   id="path2493"
   inkscape:connector-curvature="0"
   style="fill:#010101" />
</g>
<g
   id="g2501"
   transform="translate(44.200611,96.437697)">
	<path
   d="m 184.417,164.356 c 0,0 4.783,13.921 0,20.069 -3.417,-2.562 -11.103,-2.22 -11.103,-2.22 0,0 3.352,-11.377 1.932,-13.888"
   id="path2497"
   inkscape:connector-curvature="0"
   style="fill:#ffffff" />
	<path
   d="m 184.417,185.426 c -0.209,0 -0.419,-0.065 -0.599,-0.2 -2.567,-1.925 -8.423,-2.112 -10.458,-2.021 -0.342,0.016 -0.633,-0.128 -0.832,-0.382 -0.199,-0.254 -0.264,-0.589 -0.172,-0.899 1.342,-4.556 2.855,-11.636 2.021,-13.113 -0.272,-0.48 -0.103,-1.091 0.378,-1.363 0.479,-0.271 1.091,-0.103 1.362,0.378 1.327,2.347 -0.545,9.984 -1.474,13.365 2.218,0.025 6.612,0.29 9.492,1.87 3.517,-5.996 -0.619,-18.252 -0.664,-18.38 -0.179,-0.522 0.1,-1.091 0.622,-1.271 0.522,-0.177 1.091,0.099 1.27,0.621 0.203,0.589 4.901,14.508 -0.156,21.009 -0.197,0.253 -0.492,0.386 -0.79,0.386 z"
   id="path2499"
   inkscape:connector-curvature="0"
   style="fill:#010101" />
</g>


<g
   id="g2519"
   transform="translate(44.200611,96.437697)">
	<path
   d="m 180.831,139.334 c 0,0 3.928,7.344 9.053,8.368 -3.929,3.587 -7.686,23.743 -7.686,23.743 0,0 -10.763,-3.76 -10.933,-7.089 -0.171,-3.331 9.566,-25.022 9.566,-25.022 z"
   id="path2515"
   inkscape:connector-curvature="0"
   style="fill:#ffffff" />
	<path
   d="m 182.198,172.445 c -0.111,0 -0.223,-0.019 -0.33,-0.056 -1.903,-0.665 -11.407,-4.174 -11.602,-7.982 -0.178,-3.471 8.646,-23.24 9.652,-25.483 0.156,-0.348 0.496,-0.576 0.877,-0.589 0.374,-0.023 0.736,0.19 0.917,0.527 0.037,0.069 3.771,6.941 8.367,7.86 0.369,0.074 0.666,0.349 0.768,0.712 0.101,0.363 -0.011,0.752 -0.29,1.006 -3.02,2.757 -6.349,17.673 -7.376,23.188 -0.054,0.287 -0.229,0.536 -0.482,0.682 -0.154,0.09 -0.327,0.135 -0.501,0.135 z m -1.23,-30.963 c -3.71,8.386 -8.812,20.723 -8.704,22.823 0.077,1.52 4.633,4.078 9.173,5.799 0.827,-4.198 3.543,-17.02 6.744,-21.885 -3.261,-1.356 -5.859,-4.693 -7.213,-6.737 z"
   id="path2517"
   inkscape:connector-curvature="0"
   style="fill:#010101" />
</g>
<g
   id="g2525">
	<path
   fill="#FFFFFF"
   d="M149.319,256.521c0,0,6.066,11.376,18.2,3.224c-2.653,5.119-3.221,7.775-3.033,9.67   c-6.637,2.275-21.803,0.946-25.596-5.498C144.579,260.125,149.319,256.521,149.319,256.521z"
   id="path2521" />
	<path
   fill="#010101"
   d="M156.833,271.448c-6.768,0-15.753-1.84-18.805-7.025c-0.269-0.458-0.134-1.045,0.307-1.339   c5.595-3.729,10.331-7.324,10.377-7.359c0.233-0.178,0.533-0.242,0.819-0.181c0.286,0.063,0.531,0.248,0.668,0.506   c0.029,0.055,3.104,5.637,8.982,5.637c2.423,0,5.04-0.933,7.778-2.772c0.378-0.253,0.882-0.221,1.224,0.084   c0.341,0.304,0.432,0.801,0.222,1.206c-2.849,5.498-3.06,7.757-2.925,9.111c0.046,0.462-0.232,0.895-0.671,1.045   C162.764,271.062,159.931,271.448,156.833,271.448z M140.292,264.181c2.94,3.612,10.446,5.268,16.542,5.268   c2.531,0,4.846-0.269,6.621-0.762c0.012-1.732,0.566-3.785,1.757-6.471c-2.069,0.977-4.087,1.471-6.028,1.471   c-5.494,0-8.836-3.851-10.132-5.715C147.526,259.106,144.167,261.568,140.292,264.181z"
   id="path2523" />
</g>
<g
   id="g2531">
	<path
   fill="#FFFFFF"
   d="M156.531,289.647c0,0,0.007,2.328,0,3.846c3.594-1.326,14.969-3.414,21.227,4.361   c3.033-2.086,2.669-5.992,2.669-5.992s-9.396-5.465-17.124-5.992"
   id="path2527" />
	<path
   fill="#010101"
   d="M177.759,298.854c-0.294,0-0.583-0.129-0.78-0.373c-5.837-7.253-16.489-5.383-20.102-4.05   c-0.308,0.112-0.651,0.068-0.92-0.119c-0.269-0.188-0.428-0.496-0.426-0.824c0.007-1.514,0-3.837,0-3.838l2-0.006   c0,0,0.004,1.228,0.003,2.481c4.675-1.289,14.327-2.217,20.342,4.333c1.324-1.332,1.542-3.134,1.564-4.003   c-1.995-1.094-9.778-5.149-16.206-5.588c-0.551-0.038-0.967-0.515-0.93-1.066c0.038-0.551,0.521-0.956,1.065-0.93   c7.872,0.537,17.167,5.897,17.559,6.126c0.279,0.162,0.463,0.449,0.493,0.771c0.017,0.184,0.378,4.518-3.099,6.909   C178.153,298.796,177.955,298.854,177.759,298.854z"
   id="path2529" />
</g>
<g
   id="g2537">
	<path
   fill="#FFFFFF"
   d="M166.572,283.065c0,0-5.878,4.17-5.688,7.014c-6.066-1.326-21.615,0.572-23.321,1.898   c3.981-4.174,3.697-6.256,3.697-6.256l18.676-3.531"
   id="path2533" />
	<path
   fill="#010101"
   d="M137.573,292.963c-0.28,0-0.556-0.113-0.751-0.336c-0.341-0.39-0.34-0.966,0.017-1.341   c3.459-3.627,3.426-5.459,3.425-5.477c-0.021-0.496,0.322-0.979,0.81-1.071l18.676-3.531c0.545-0.101,1.066,0.254,1.168,0.797   c0.103,0.542-0.254,1.065-0.797,1.168l-17.94,3.393c-0.157,0.749-0.586,1.899-1.685,3.455c5.242-1.087,14.6-1.801,19.543-1.104   c0.872-2.931,5.026-6.009,5.953-6.666c0.45-0.32,1.074-0.214,1.394,0.236c0.319,0.45,0.213,1.075-0.236,1.395   c-2.251,1.6-5.375,4.559-5.27,6.132c0.021,0.313-0.106,0.619-0.345,0.824c-0.239,0.205-0.56,0.286-0.866,0.219   c-5.804-1.264-21.006,0.626-22.495,1.713C137.996,292.899,137.783,292.963,137.573,292.963z"
   id="path2535" />
</g>
<g
   id="g2543">
	<path
   fill="#FFFFFF"
   d="M173.631,281.17c0,0-20.332,3.98-26.588-3.793c3.033-1.895,2.276-4.551,2.276-4.551   s16.495,3.602,27.112-0.948C174.725,275.102,173.631,281.17,173.631,281.17z"
   id="path2539" />
	<path
   fill="#010101"
   d="M162.473,283.189c-7.986,0-13.44-1.744-16.209-5.185c-0.18-0.223-0.255-0.512-0.207-0.794   c0.047-0.281,0.213-0.529,0.456-0.682c2.368-1.479,1.85-3.408,1.844-3.428c-0.096-0.339-0.008-0.702,0.233-0.959   s0.6-0.369,0.942-0.292c0.061,0.013,6.185,1.33,13.225,1.33c5.375,0,9.843-0.746,13.281-2.219c0.388-0.168,0.842-0.071,1.129,0.241   s0.347,0.771,0.148,1.146c-1.612,3.046-2.688,8.941-2.699,9.001c-0.073,0.405-0.388,0.725-0.792,0.804   C173.607,282.194,168.454,283.189,162.473,283.189z M148.535,277.517c3.213,3.012,9.258,3.672,13.938,3.672   c4.576,0,8.738-0.618,10.307-0.883c0.262-1.298,0.895-4.187,1.809-6.685c-3.301,1.035-7.268,1.558-11.832,1.558   c-5.402,0-10.176-0.729-12.375-1.127C150.292,275.033,149.878,276.343,148.535,277.517z"
   id="path2541" />
</g>
<g
   id="g2547">
	<path
   fill="#F5952F"
   d="M245.573,323.247c-0.012,0-0.023,0-0.035-0.001l-58.832-2.033c-0.553-0.019-0.984-0.481-0.965-1.033   c0.019-0.553,0.487-1.011,1.033-0.965l58.832,2.033c0.553,0.019,0.984,0.481,0.965,1.033   C246.552,322.822,246.109,323.247,245.573,323.247z"
   id="path2545" />
</g>
<g
   id="g2553">
	<path
   fill="#FFFFFF"
   d="M169.972,321.991c0,0,1.528,7.336,5.132,7.906c4.93-3.033,12.517-10.428,13.842-13.271   c-1.896-0.949-5.5-2.656-5.5-2.656s-5.497,4.361-7.015,4.361"
   id="path2549" />
	<path
   fill="#010101"
   d="M175.104,330.897c-0.052,0-0.104-0.004-0.156-0.013c-4.165-0.659-5.784-7.869-5.954-8.689   c-0.113-0.541,0.233-1.069,0.774-1.183c0.537-0.117,1.069,0.233,1.183,0.774c0.346,1.646,1.786,6.28,3.979,7.039   c4.384-2.811,10.598-8.821,12.612-11.779c-1.384-0.677-3.098-1.495-3.965-1.908c-1.94,1.51-5.604,4.192-7.146,4.192   c-0.553,0-1-0.447-1-1s0.447-1,1-1c0.765-0.055,3.926-2.187,6.394-4.145c0.298-0.237,0.707-0.285,1.049-0.12   c0,0,3.616,1.713,5.52,2.665c0.484,0.242,0.688,0.826,0.459,1.317c-1.45,3.112-9.294,10.667-14.224,13.7   C175.469,330.846,175.288,330.897,175.104,330.897z"
   id="path2551" />
</g>
<g
   id="g2559">
	<path
   fill="#FFFFFF"
   d="M175.104,316.245c0,0,1.706,3.035,1.327,6.068c-3.981-1.707-19.15,1.707-24.364,2.654   c-0.284-2.463-4.789-5.311-4.789-5.311s7.58-4.584,11.14-4.193"
   id="path2555" />
	<path
   fill="#010101"
   d="M152.067,325.967c-0.213,0-0.422-0.068-0.596-0.196c-0.222-0.165-0.366-0.414-0.398-0.689   c-0.167-1.443-2.744-3.575-4.33-4.58c-0.292-0.186-0.469-0.509-0.465-0.855c0.003-0.346,0.186-0.666,0.482-0.845   c0.805-0.487,7.992-4.749,11.766-4.332c0.549,0.061,0.945,0.555,0.885,1.104c-0.061,0.549-0.559,0.944-1.103,0.885   c-2.198-0.242-6.576,1.859-9.17,3.285c1.23,0.938,2.945,2.457,3.635,4.075c0.598-0.114,1.279-0.248,2.024-0.395   c8.249-1.619,16.543-3.106,20.677-2.404c-0.12-2.242-1.231-4.263-1.244-4.286c-0.27-0.481-0.098-1.091,0.384-1.36   c0.483-0.268,1.091-0.099,1.36,0.382c0.076,0.136,1.862,3.36,1.447,6.683c-0.039,0.312-0.222,0.587-0.495,0.743   c-0.272,0.156-0.602,0.177-0.892,0.052c-3.103-1.329-15.092,1.023-20.853,2.154c-1.155,0.227-2.157,0.423-2.938,0.565   C152.187,325.962,152.127,325.967,152.067,325.967z"
   id="path2557" />
</g>
<g
   id="g2565">
	<path
   fill="#FFFFFF"
   d="M166.572,309.528c0,0,7.06,0.867,9.859,2.734c-1.327,1.707-3.223,4.363-3.128,5.311   c-8.248-1.705-25.313-3.383-29.673-2.734c0.19-2.764,2.655-5.746,2.655-5.746"
   id="path2561" />
	<path
   fill="#010101"
   d="M173.323,318.575c-0.074,0-0.148-0.008-0.222-0.022c-8.57-1.771-25.289-3.325-29.324-2.725   c-0.299,0.04-0.604-0.05-0.826-0.255s-0.34-0.501-0.319-0.803c0.209-3.05,2.773-6.183,2.882-6.314   c0.352-0.426,0.98-0.487,1.407-0.134c0.426,0.351,0.486,0.98,0.135,1.407c-0.019,0.022-1.598,1.958-2.205,3.999   c5.753-0.26,19.92,1.185,27.705,2.677c0.31-0.759,0.975-1.94,2.374-3.822c-2.488-1.13-6.821-1.857-8.481-2.062   c-0.548-0.067-0.938-0.566-0.871-1.114c0.068-0.549,0.57-0.946,1.115-0.87c0.298,0.036,7.329,0.919,10.292,2.895   c0.231,0.154,0.388,0.397,0.433,0.672c0.044,0.274-0.027,0.555-0.198,0.774c-2.263,2.91-2.899,4.302-2.921,4.631   c0.032,0.316-0.09,0.612-0.326,0.825C173.792,318.496,173.561,318.575,173.323,318.575z"
   id="path2563" />
</g>
<g
   id="g2571">
	<path
   fill="#FFFFFF"
   d="M170.653,304.213c0,0,1.797,2.93,1.608,5.016c-4.928-0.947-24.982,4.74-24.982,4.74l-0.994-5.521"
   id="path2567" />
	<path
   fill="#010101"
   d="M147.279,314.969c-0.186,0-0.369-0.052-0.53-0.151c-0.239-0.15-0.404-0.394-0.455-0.672l-0.994-5.521   c-0.098-0.543,0.264-1.063,0.807-1.161c0.546-0.099,1.063,0.263,1.162,0.808l0.799,4.44c3.879-1.067,17.092-4.581,22.862-4.581   c0.09,0,0.177,0.001,0.263,0.002c-0.255-1.312-1.038-2.816-1.393-3.396c-0.288-0.472-0.14-1.087,0.331-1.375   c0.467-0.288,1.084-0.142,1.374,0.33c0.201,0.328,1.964,3.279,1.752,5.628c-0.025,0.281-0.169,0.539-0.395,0.709   s-0.513,0.235-0.79,0.184c-3.858-0.744-19.007,3.155-24.521,4.72C147.462,314.957,147.37,314.969,147.279,314.969z"
   id="path2569" />
</g>
<g
   id="g2577">
	<path
   fill="#FFFFFF"
   d="M161.737,302.84c0,0-21.33,4.604-24.174,11.998c-3.981-3.225-4.74-7.314-4.74-7.314   s11.011-4.984,17.267-5.469"
   id="path2573" />
	<path
   fill="#010101"
   d="M137.563,315.838c-0.227,0-0.449-0.077-0.629-0.223c-4.22-3.418-5.061-7.728-5.094-7.909   c-0.084-0.452,0.152-0.904,0.571-1.094c0.457-0.206,11.244-5.062,17.603-5.555c0.555-0.04,1.031,0.369,1.074,0.92   c0.042,0.551-0.369,1.031-0.92,1.074c-5.065,0.393-13.548,3.915-16.15,5.039c0.361,1.093,1.262,3.203,3.253,5.148   c4.579-7.056,23.412-11.194,24.256-11.377c0.537-0.118,1.072,0.227,1.188,0.767c0.116,0.54-0.227,1.072-0.767,1.188   c-5.786,1.25-21.279,5.73-23.452,11.38c-0.115,0.298-0.366,0.524-0.675,0.606C137.736,315.828,137.649,315.838,137.563,315.838z"
   id="path2575" />
</g>
<g
   id="g2583">
	<path
   fill="#FFFFFF"
   d="M168.486,297.854c0,0,6.05,7.014,7.945,7.963c-9.48-3.602-30.905-4.361-33.749-3.412   c-0.759-1.896-1.422-4.551-1.422-4.551S142.339,295.768,168.486,297.854z"
   id="path2579" />
	<path
   fill="#010101"
   d="M176.431,306.817c-0.118,0-0.238-0.021-0.355-0.065c-7.135-2.711-21.003-3.721-28.068-3.721   c-2.98,0-4.542,0.167-5.009,0.322c-0.501,0.167-1.049-0.085-1.245-0.577c-0.775-1.937-1.436-4.568-1.464-4.68   c-0.059-0.236-0.03-0.486,0.083-0.702c0.228-0.439,0.761-1.467,9.434-1.467c4.71,0,11.021,0.312,18.759,0.93   c0.262,0.021,0.505,0.145,0.677,0.344c2.289,2.653,6.386,7.096,7.637,7.722c0.476,0.239,0.682,0.809,0.468,1.297   C177.183,306.592,176.817,306.817,176.431,306.817z M148.007,301.031c5.946,0,16.642,0.712,24.351,2.536   c-1.797-1.832-3.63-3.911-4.359-4.748c-7.499-0.592-13.618-0.892-18.192-0.892c-4.526,0-6.526,0.299-7.36,0.501   c0.199,0.723,0.515,1.816,0.872,2.826C144.589,301.075,146.476,301.031,148.007,301.031z"
   id="path2581" />
</g>
<g
   id="g2589">
	<path
   fill="#FFFFFF"
   d="M186.103,307.334c0,0,2.192,2.654,2.843,5.119c2.166-1.895,9.875-5.291,11.754-5.672   s-0.379-4.727-0.379-4.727L186.103,307.334z"
   id="path2585" />
	<path
   fill="#010101"
   d="M188.946,313.454c-0.098,0-0.196-0.015-0.293-0.044c-0.331-0.102-0.586-0.366-0.674-0.701   c-0.585-2.218-2.627-4.713-2.647-4.737c-0.206-0.25-0.278-0.584-0.194-0.896c0.085-0.312,0.314-0.565,0.618-0.678l14.218-5.279   c0.47-0.174,1.002,0.027,1.235,0.477c0.424,0.816,1.751,3.602,1.012,5.149c-0.256,0.536-0.726,0.897-1.322,1.019   c-1.767,0.357-9.261,3.665-11.294,5.444C189.419,313.368,189.185,313.454,188.946,313.454z M187.705,307.807   c0.538,0.772,1.23,1.871,1.735,3.046c3.069-2.001,9.167-4.635,10.999-5.038c0.094-0.389-0.182-1.446-0.631-2.503L187.705,307.807z"
   id="path2587" />
</g>
<g
   id="g2595">
	<path
   fill="#FFFFFF"
   d="M206.008,307.254c0,0-2.002,2.547-3.844,4.062c1.758,1.137,3.844,5.119,3.844,6.256   c3.223-2.654,4.93-5.119,4.93-5.119S208.284,307.555,206.008,307.254z"
   id="path2591" />
	<path
   fill="#010101"
   d="M206.018,318.568c-0.146,0-0.292-0.032-0.429-0.095c-0.349-0.161-0.575-0.516-0.581-0.899   c-0.013-0.773-1.864-4.433-3.387-5.417c-0.268-0.174-0.438-0.464-0.455-0.782c-0.019-0.319,0.116-0.627,0.362-0.83   c1.734-1.427,3.674-3.884,3.693-3.908c0.219-0.278,0.569-0.42,0.917-0.373c2.646,0.35,5.194,4.821,5.678,5.714   c0.18,0.332,0.158,0.736-0.057,1.046c-0.073,0.105-1.824,2.61-5.116,5.321C206.464,318.493,206.243,318.568,206.018,318.568z    M203.683,311.305c1.146,1.187,2.247,3.025,2.85,4.491c1.599-1.455,2.684-2.744,3.212-3.418c-0.903-1.515-2.321-3.389-3.391-3.964   C205.795,309.088,204.774,310.272,203.683,311.305z"
   id="path2593" />
</g>
<g
   id="g2601">
	<path
   fill="#FFFFFF"
   d="M217.764,308.448c0,0-2.844,3.678-2.654,4.885c1.895,1.396,7.204,5.188,7.204,5.188l2.275-5.037   C224.589,313.483,217.954,310.7,217.764,308.448z"
   id="path2597" />
	<path
   fill="#010101"
   d="M222.314,319.52c-0.206,0-0.41-0.063-0.581-0.187c-0.053-0.037-5.338-3.812-7.217-5.196   c-0.212-0.156-0.354-0.39-0.395-0.649c-0.223-1.421,1.691-4.15,2.852-5.651c0.252-0.326,0.679-0.464,1.074-0.348   c0.396,0.117,0.679,0.464,0.713,0.875c0.082,0.972,3.342,2.991,6.216,4.197c0.249,0.104,0.445,0.305,0.544,0.556   s0.092,0.532-0.02,0.778l-2.275,5.037c-0.123,0.272-0.362,0.476-0.651,0.554C222.489,319.508,222.401,319.52,222.314,319.52z    M216.179,312.876c1.534,1.119,4.263,3.075,5.725,4.121l1.358-3.006c-1.632-0.748-4.255-2.112-5.616-3.68   C216.94,311.345,216.378,312.323,216.179,312.876z"
   id="path2599" />
</g>
<g
   id="g2607">
	<path
   fill="#FFFFFF"
   d="M234.258,310.368c0,0-2.653,2.273-2.653,3.602c1.517,0.949,6.186,4.506,6.884,6.234   c0.699,1.729,4.111-3.959,4.111-3.959S235.747,311.756,234.258,310.368"
   id="path2603" />
	<path
   fill="#010101"
   d="M238.893,321.531L238.893,321.531c-0.593,0-1.09-0.356-1.331-0.952c-0.522-1.293-4.631-4.6-6.487-5.762   c-0.292-0.183-0.47-0.503-0.47-0.848c0-1.659,2.298-3.758,3.003-4.361c0.386-0.33,0.959-0.318,1.333,0.028   c1.169,1.092,6.32,4.536,8.207,5.771c0.449,0.295,0.586,0.891,0.31,1.352C241.558,319.925,240.022,321.531,238.893,321.531z    M232.762,313.544c1.539,1.076,5.135,3.775,6.364,5.732c0.521-0.492,1.34-1.552,2.108-2.734c-1.614-1.07-5.183-3.461-6.945-4.846   C233.615,312.358,233.03,313.067,232.762,313.544z"
   id="path2605" />
</g>
<g
   id="g2613">
	<line
   fill="#FFFFFF"
   x1="170.653"
   y1="304.213"
   x2="161.882"
   y2="302.792"
   id="line2609" />
	<path
   fill="#010101"
   d="M170.654,305.213c-0.053,0-0.106-0.004-0.161-0.013l-8.771-1.422c-0.545-0.089-0.916-0.603-0.827-1.147   s0.597-0.918,1.147-0.827l8.771,1.422c0.545,0.089,0.915,0.603,0.827,1.147C171.56,304.865,171.136,305.213,170.654,305.213z"
   id="path2611" />
</g>
<g
   id="g2617"
   transform="translate(44.200611,96.437697)">
	<path
   d="m 182.907,208.075 c -0.166,0 -0.33,-0.041 -0.479,-0.122 -4.685,-2.558 -7.457,-20.384 -7.758,-22.409 -0.045,-0.304 0.052,-0.612 0.264,-0.835 0.56,-0.59 3.466,-3.507 5.689,-2.89 0.532,0.147 0.845,0.698 0.697,1.23 -0.146,0.533 -0.697,0.842 -1.23,0.698 -0.627,-0.173 -2.189,0.862 -3.366,1.998 1.011,6.543 3.301,16.536 5.785,19.657 1.995,-4.416 5.603,-7.914 9.118,-8.955 -3.509,-3.948 -5.533,-9.449 -4.803,-12.918 h -1.311 c -0.553,0 -1,-0.448 -1,-1 0,-0.552 0.447,-1 1,-1 h 2.747 c 0.362,0 0.696,0.196 0.873,0.512 0.177,0.316 0.169,0.703 -0.021,1.012 -1.479,2.407 0.808,9.306 5.265,13.335 0.307,0.277 0.411,0.715 0.263,1.101 -0.149,0.386 -0.52,0.641 -0.934,0.641 -3.137,0 -7.847,3.732 -9.858,9.287 -0.1,0.274 -0.313,0.491 -0.587,0.594 -0.115,0.043 -0.235,0.064 -0.354,0.064 z"
   id="path2615"
   inkscape:connector-curvature="0"
   style="fill:#010101" />
</g>
<g
   id="g2621">
	<path
   fill="#010101"
   d="M272.717,406.793h-1.764c-0.548,0-0.993-0.44-1-0.988l-0.689-59.598c-0.006-0.553,0.437-1.005,0.988-1.012   c0.004,0,0.008,0,0.012,0c0.547,0,0.993,0.44,1,0.988l0.453,39.175v-35.817c0-0.553,0.447-1,1-1s1,0.447,1,1v56.252   C273.717,406.346,273.27,406.793,272.717,406.793z"
   id="path2619" />
</g>
<g
   id="g2625">
	<path
   fill="#010101"
   d="M303.236,393.381c-0.537,0-0.981-0.427-0.998-0.968l-1.623-50.938c-0.018-0.553,0.415-1.014,0.967-1.031   c0.536-0.038,1.015,0.415,1.031,0.967l1.623,50.938c0.018,0.553-0.415,1.014-0.967,1.031   C303.258,393.381,303.247,393.381,303.236,393.381z"
   id="path2623" />
</g>
<g
   id="g2629">
	<path
   fill="#010101"
   d="M304.608,393.381c-0.548,0-0.994-0.44-1-0.989l-0.559-51.064c-0.006-0.552,0.437-1.005,0.989-1.011   c0.004,0,0.007,0,0.011,0c0.548,0,0.994,0.44,1,0.989l0.559,51.064c0.006,0.552-0.437,1.005-0.989,1.011   C304.615,393.381,304.612,393.381,304.608,393.381z"
   id="path2627" />
</g>
<g
   id="g2633">
	<polygon
   fill="#7F674B"
   points="277.316,341.991 299.002,342.672 325.905,328.977 325.237,326.276 315.745,325.463    292.881,335.403 267.787,334.631  "
   id="polygon2631" />
</g>
<g
   id="g2637">
	<path
   fill="#010101"
   d="M299.002,343.672c-0.553,0-1-0.447-1-1v-3.289c0-0.553,0.447-1,1-1s1,0.447,1,1v3.289   C300.002,343.225,299.555,343.672,299.002,343.672z"
   id="path2635" />
</g>
<g
   id="g2641">
	<polygon
   fill="#7F674B"
   points="261.708,337.491 265.643,341.002 125.169,337.057 129.448,333.75  "
   id="polygon2639" />
</g>
<g
   id="g2645">
	<path
   fill="#010101"
   d="M261.709,338.491c-0.01,0-0.02,0-0.029,0l-135.404-3.803c-0.552-0.016-0.987-0.476-0.972-1.028   c0.015-0.552,0.469-0.974,1.027-0.972l135.405,3.803c0.552,0.016,0.986,0.476,0.972,1.028   C262.693,338.061,262.249,338.491,261.709,338.491z"
   id="path2643" />
</g>
<g
   id="g2649">
	<path
   fill="#010101"
   d="M265.644,342.002c-0.01,0-0.019,0-0.028,0l-145.25-3.945c-0.552-0.016-0.987-0.475-0.972-1.027   c0.015-0.553,0.472-0.975,1.027-0.973l145.25,3.945c0.552,0.016,0.987,0.475,0.973,1.027   C266.628,341.573,266.183,342.002,265.644,342.002z"
   id="path2647" />
</g>
<g
   id="g2653">
	<path
   fill="#D3D2D1"
   d="M246.854,270.781l-0.877,57.676l1.539,3.885l43.611,2.289c0,0,24.984-7.082,24.984-9.932   c-2.848-1.754-23.494-5.697-23.494-5.697l-0.613-41.645L246.854,270.781z"
   id="path2651" />
</g>
<g
   id="g2657">
	<path
   fill="#010101"
   d="M292.88,334.688c-0.14,0-0.282-0.029-0.418-0.092c-0.501-0.231-0.721-0.825-0.489-1.327l1.314-2.852   c0.231-0.501,0.823-0.723,1.327-0.489c0.501,0.231,0.721,0.825,0.489,1.327l-1.314,2.852   C293.621,334.472,293.259,334.688,292.88,334.688z"
   id="path2655" />
</g>
<g
   id="g2661">
	<polygon
   fill="#F5952F"
   points="292.004,322.627 292.004,325.463 280.486,325.463 280.486,323.545  "
   id="polygon2659" />
</g>
<g
   id="g2665">
	<path
   fill="#5A5146"
   d="M335.067,369.055l29.547-1.393l10.938-38.686l-2.909-1.131l-10.053,36.133l-10.065-1.469   c0,0-16.767,0.555-17.738,1.531C332.366,366.477,335.067,369.055,335.067,369.055z"
   id="path2663" />
</g>
<g
   id="g2669">
	<path
   fill="#202223"
   d="M322.825,399.372c0,0,2.76,6.1,1.645,7.162c-1.115,1.064-19.374,1.326-18.98-0.344   c0.395-1.664-9.156-0.9-8.505-2.369c0.652-1.463,7.467-6.092,7.467-6.092l5.155,1.643   C309.606,399.372,318.79,398.709,322.825,399.372z"
   id="path2667" />
</g>
<g
   id="g2673">
	<path
   fill="#373A3B"
   d="M357.475,354.506c0,0-1.379,6.598-9.206,7.021c-7.827,0.428-11.005-0.83-11.005-0.83   s-12.4,2.096-15.357,3.594c-2.957,1.496,1.619,33.148,0.261,35.08c0,0-12.147,1.477-11.366-0.123   c0.78-1.592-0.715-0.523-0.715-0.523l-3.617-0.996c0,0,0.356-39.4,3.37-40.92c1.833-0.924,24.159-5.301,24.159-5.301l8.154-1.387   C342.153,350.122,350.072,354.399,357.475,354.506z"
   id="path2671" />
</g>
<g
   id="g2677">
	<path
   fill="#F3F3F3"
   d="M365.336,327.641l0.186,5.014c0,0,11.66-6.143,11.795-7.611c0.134-1.471-1.768-3.086-1.768-3.086   l-13.396-2.754l-0.746-3.271l-6.184,2.82l-9.532-2.408l-39.304-4.66l-0.164,3.689c0,0,37.971,4.408,38.916,5.229   c0.946,0.822,0.904,3.832,0.904,3.832l8.375-0.094l-2.006,15.486l-6.863,1.201l-2.711,7.727c0,0,8.104,5.67,14.078,4.232   c3.839-4.85,6.992-17.584,6.992-17.584l0.078-11.801l7.823,0.779l-6.37,3.26"
   id="path2675" />
</g>
<g
   id="g2681">
	<path
   fill="#D6BBAE"
   d="M345,290.829c0,0-1.145,18.395,5.665,19.625s6.81,1.23,6.81,1.23l-2.652,6.207l5.803-2.398l1.732-4.068   l6.547-2.947l-0.252-3.262l-3.007-1.121l0.816-5.904c0,0-1.854,1.49-2.028-0.232c-0.177-1.723-0.447-4.389-0.447-4.389   l-3.361-2.523l-2.431,0.666l-1.595-3.51l-3.529,1.867l-1.432-2.746L345,290.829z"
   id="path2679" />
</g>
<g
   id="g2685">
	<path
   fill="#D6BBAE"
   d="M365.336,328.458v4.887l-7.861,1.287l0.104-6.445C357.579,328.186,361.614,325.709,365.336,328.458z"
   id="path2683" />
</g>
<g
   id="g2689">
	<path
   fill="#D6BBAE"
   d="M306.032,311.424c0,0-13.146-2.691-15.343-1.848c-2.197,0.842-5.96,2.387-5.697,5.549   c0.261,3.162,0.72,4.908,0.72,4.908s-0.318-5.371,2.549-6.162s3.85,2.037,3.85,2.037s2.355-1.518,5.483-2.178   c4.021-0.85,7.342,0.141,7.342,0.141L306.032,311.424z"
   id="path2687" />
</g>
<g
   id="g2693">
	<path
   fill="#E0C642"
   d="M370.804,307.862c0,0,4.883-7.51,4.509-8.854c-0.373-1.348,0.669-2.865,0.021-4.418   c-0.648-1.555-2.157-4.199-2.157-4.199l-0.956-5.279l1.904-1.963l-6.021-1.629l1.068-3.15h-5.186l-4.824-1.6l-1.942,2.139   l-8.402,0.449v1.506c0,0-7.482,1.617-6.423,3.643c0.819,1.574,0.53,3.41,0.249,4.088c-0.28,0.678,4.756,0.406,4.756,0.406   l4.685-1.678l1.479,2.336l3.353-1.646l1.82,3.24l2.566-1.266l0.398,3.121l2.285,0.461l0.553,5.439l2.091-1.051l-1.294,6.33   l3.926,1.066L370.804,307.862z"
   id="path2691" />
</g>
<g
   id="g2697">
	<path
   fill="#5F87C3"
   d="M352.413,339.827l1.514-14.531c0,0-11.188,0.055-11.775-0.861c0.271,5.246,1.586,14.627,1.586,14.627   S347.235,341.342,352.413,339.827z"
   id="path2695" />
</g>
<g
   id="g2701">
	<path
   fill="#010101"
   d="M294.196,331.836c-0.017,0-0.033,0-0.051-0.001l-47.12-2.379c-0.551-0.028-0.976-0.498-0.948-1.05   c0.028-0.552,0.507-0.972,1.05-0.948l46.919,2.369l18.004-6.48l-20.852-3.141c-0.546-0.083-0.922-0.592-0.84-1.139   c0.083-0.545,0.582-0.914,1.139-0.84l24.765,3.73c0.452,0.068,0.801,0.436,0.846,0.892c0.045,0.455-0.226,0.884-0.656,1.038   l-21.916,7.889C294.425,331.817,294.311,331.836,294.196,331.836z"
   id="path2699" />
</g>
<g
   id="g2705">
	<path
   fill="#010101"
   d="M245.977,329.458c-0.229,0-0.454-0.079-0.634-0.227c-0.233-0.191-0.367-0.477-0.366-0.777l0.232-58.907   c0.001-0.294,0.132-0.572,0.356-0.762c0.226-0.188,0.525-0.268,0.812-0.22l45.795,7.808c0.48,0.081,0.832,0.498,0.832,0.985V279   c0,0.553-0.447,1-1,1s-1-0.447-1-1v-0.799l-43.8-7.467l-0.223,56.497l44.166-8.994c0.541-0.109,1.069,0.238,1.179,0.78   c0.11,0.541-0.238,1.069-0.78,1.179l-45.37,9.24C246.111,329.451,246.043,329.458,245.977,329.458z"
   id="path2703" />
</g>
<g
   id="g2709">
	<path
   fill="#010101"
   d="M292.005,320.217c-0.011,0-0.021,0-0.033-0.001c-0.552-0.018-0.984-0.479-0.967-1.031l0.105-3.309   c0.017-0.541,0.461-0.968,0.998-0.968c0.011,0,0.021,0,0.033,0.001c0.552,0.018,0.984,0.479,0.967,1.031l-0.105,3.309   C292.987,319.791,292.542,320.217,292.005,320.217z"
   id="path2707" />
</g>
<g
   id="g2713">
	<path
   fill="#010101"
   d="M292.357,309.477c-0.012,0-0.022,0-0.034-0.001c-0.552-0.018-0.984-0.479-0.966-1.032l0.525-15.961   c0.018-0.552,0.486-1.012,1.032-0.966c0.552,0.018,0.984,0.479,0.966,1.032l-0.525,15.961   C293.337,309.05,292.894,309.477,292.357,309.477z"
   id="path2711" />
</g>
<g
   id="g2717">
	<path
   fill="#010101"
   d="M292.356,336.004c-0.02,0-0.039-0.001-0.06-0.002l-44.84-2.662c-0.388-0.022-0.727-0.269-0.87-0.63   l-1.539-3.885c-0.203-0.514,0.048-1.095,0.562-1.298c0.512-0.203,1.094,0.048,1.298,0.562l1.305,3.292l43.985,2.611l20.842-8.137   l2.233-3.451c0.3-0.464,0.92-0.597,1.383-0.297c0.464,0.301,0.597,0.92,0.297,1.383l-2.409,3.723   c-0.114,0.177-0.28,0.312-0.477,0.389l-21.347,8.334C292.604,335.981,292.48,336.004,292.356,336.004z"
   id="path2715" />
</g>
<g
   id="g2721">
	<path
   fill="#010101"
   d="M358.667,336.404c-0.877,0-1.403-0.375-1.69-0.688c-0.9-0.985-0.753-2.627-0.565-4.705   c0.082-0.919,0.168-1.869,0.168-2.824c0-0.756,0.34-2.513,3.491-2.513c2.398,0,5.445,0.975,5.574,1.017   c0.413,0.133,0.692,0.518,0.692,0.951v5.703c0,2.476-4.748,2.979-7.578,3.059C358.749,336.403,358.676,336.404,358.667,336.404z    M360.07,327.673c-0.557,0-1.491,0.066-1.491,0.513c0,1.045-0.094,2.085-0.177,3.004c-0.107,1.198-0.256,2.841,0.051,3.176   c0.017,0.019,0.097,0.038,0.214,0.038v1l0.035-1.001c3.143-0.088,5.283-0.709,5.635-1.125v-4.889   C363.357,328.119,361.526,327.673,360.07,327.673z"
   id="path2719" />
</g>
<g
   id="g2725">
	<path
   fill="#010101"
   d="M357.27,354.85c-0.022,0-0.044-0.001-0.066-0.002c-8.638-0.576-14.135-2.92-15.587-4.854   c-0.495-0.66-0.505-1.229-0.426-1.589c0.097-0.44,0.342-0.895,0.712-1.582c0.71-1.315,1.781-3.304,2.592-6.614   c0.132-0.536,0.672-0.865,1.21-0.733c0.536,0.132,0.864,0.673,0.733,1.21c-0.872,3.559-2.062,5.768-2.774,7.087   c-0.202,0.375-0.41,0.762-0.49,0.971c0.504,0.973,5.039,3.419,13.671,4.073c3.626-4.452,6.134-17.855,6.159-17.994   c0.1-0.543,0.62-0.908,1.165-0.802c0.543,0.101,0.902,0.622,0.802,1.165c-0.111,0.605-2.785,14.876-6.97,19.348   C357.81,354.736,357.545,354.85,357.27,354.85z"
   id="path2723" />
</g>
<g
   id="g2729">
	<path
   fill="#010101"
   d="M365.337,334.344c-0.352,0-0.691-0.185-0.875-0.514c-0.269-0.482-0.095-1.091,0.388-1.36   c5.198-2.895,10.905-6.379,11.852-7.423c-0.038-1.544-0.901-2.538-1.269-2.892l-13.365-2.509c-0.451-0.084-0.787-0.466-0.813-0.925   l-0.13-2.24c-1.294,0.754-3.146,1.805-4.13,2.227c-1.648,0.707-7.803-0.626-10.435-1.248l-39.588-4.912l-0.111,2.06   c9.382,1.094,34.993,4.137,37.755,5.072c0.877,0.258,2.506,1.344,2.506,3.658c0,0.553-0.447,1-1,1s-1-0.447-1-1   c0-1.326-0.905-1.686-1.086-1.744c-0.048-0.016-0.112-0.04-0.157-0.062c-1.584-0.627-24.264-3.429-38.182-5.046   c-0.525-0.061-0.912-0.52-0.884-1.047l0.22-4.068c0.016-0.277,0.145-0.535,0.357-0.713s0.491-0.258,0.765-0.226l40.705,5.051   c0.036,0.004,0.072,0.011,0.107,0.02c3.805,0.899,8.431,1.666,9.243,1.366c1.451-0.622,5.263-2.916,5.301-2.939   c0.301-0.183,0.673-0.191,0.983-0.028c0.31,0.164,0.512,0.478,0.531,0.827l0.18,3.098l12.866,2.415   c0.154,0.028,0.299,0.093,0.424,0.188c0.094,0.071,2.288,1.79,2.205,4.893c-0.017,0.613-0.048,1.752-12.878,8.896   C365.668,334.303,365.501,334.344,365.337,334.344z"
   id="path2727" />
</g>
<g
   id="g2733">
	<path
   fill="#010101"
   d="M365.337,328.641c-0.265,0-0.521-0.105-0.709-0.293c-0.174,0.145-0.397,0.232-0.642,0.232   c-0.553,0-1-0.447-1-1v-4.633c0-0.296,0.132-0.577,0.358-0.768c0.229-0.189,0.529-0.27,0.819-0.217l8.234,1.486   c0.429,0.078,0.758,0.424,0.814,0.856c0.056,0.432-0.175,0.851-0.57,1.034l-6.885,3.207   C365.623,328.611,365.478,328.641,365.337,328.641z M364.987,324.144v2.557l3.955-1.843L364.987,324.144z"
   id="path2731" />
</g>
<g
   id="g2737">
	<path
   fill="#010101"
   d="M359.4,327.276c-0.293,0-0.582-0.128-0.78-0.373c-0.322-0.401-2.047-0.651-3.363-0.608   c-0.524,0.036-1.015-0.413-1.032-0.966c-0.019-0.552,0.414-1.015,0.966-1.032c0.896-0.033,3.883-0.019,4.988,1.353   c0.346,0.431,0.278,1.06-0.152,1.406C359.841,327.204,359.62,327.276,359.4,327.276z"
   id="path2735" />
</g>
<g
   id="g2741">
	<path
   fill="#010101"
   d="M355.404,338.059c-0.745,0-1.358-0.065-1.601-0.096c-0.548-0.068-0.937-0.567-0.869-1.115   s0.565-0.931,1.115-0.869c1.406,0.171,3.212,0.068,3.656-0.366c0.029-0.028,0.037-0.036,0.029-0.11   c-0.055-0.55,0.346-1.04,0.896-1.095c0.557-0.044,1.04,0.347,1.095,0.896c0.067,0.675-0.147,1.277-0.623,1.741   C358.25,337.877,356.645,338.059,355.404,338.059z"
   id="path2739" />
</g>
<g
   id="g2745">
	<path
   fill="#010101"
   d="M348.333,341.878L348.333,341.878c-2.521,0-4.772-0.807-5.353-1.917   c-0.578-1.105-2.103-13.132-1.824-15.638c0.03-0.271,0.169-0.517,0.385-0.683s0.489-0.234,0.759-0.196l0.395,0.061   c1.833,0.276,2.753,0.416,4.133,0.416c1.482,0,3.595-0.166,7.51-0.484c0.304-0.023,0.588,0.085,0.795,0.297   c0.208,0.213,0.312,0.506,0.281,0.802l-1.588,15.598c-0.039,0.379-0.289,0.703-0.646,0.836   C351.556,341.573,349.926,341.878,348.333,341.878z M344.752,339.015c0.278,0.254,1.532,0.863,3.581,0.863   c1.166,0,2.363-0.196,3.566-0.582l1.402-13.769c-6.398,0.516-7.22,0.504-10.179,0.064   C343.213,329.047,344.356,337.751,344.752,339.015z"
   id="path2743" />
</g>
<g
   id="g2749">
	<path
   fill="#010101"
   d="M359.327,312.02c-2.899,0-6.273-0.463-9.88-1.85c-6.993-2.684-5.988-15.354-5.393-19.866l-1.655,0.48   c-0.38,0.11-0.781-0.01-1.037-0.308c-0.255-0.296-0.314-0.715-0.15-1.07c0.248-0.539,0.908-2.079,1.079-2.912   c-0.132-0.077-0.409-0.16-0.626-0.182c-0.352-0.035-0.662-0.254-0.812-0.575c-0.148-0.321-0.12-0.697,0.081-0.988   c0.142-0.206,3.335-4.801,7.069-4.107c-0.145-0.172-0.299-0.344-0.452-0.503c-0.26-0.268-0.349-0.657-0.23-1.011   c0.117-0.354,0.422-0.613,0.79-0.672c5.521-0.883,7.867-0.892,8.934-0.679c0.122-0.418,0.252-1.013,0.332-1.557   c0.047-0.318,0.243-0.595,0.529-0.743c0.284-0.149,0.624-0.149,0.912-0.004l5.288,2.679l4.901-1.224   c0.324-0.083,0.67,0.006,0.918,0.232c0.248,0.228,0.364,0.563,0.312,0.896l-0.388,2.42c1.484-0.045,3.722,0.207,5.093,2.096   c0.239,0.329,0.256,0.77,0.041,1.115c-0.693,1.118-1.411,1.767-2.011,2.143l2.433,4.045c0.186,0.31,0.19,0.694,0.013,1.008   c-0.177,0.313-0.51,0.508-0.87,0.508h-0.128c1.645,1.461,3.435,3.514,3.108,5.315c-0.094,0.513-0.562,0.859-1.084,0.816l-0.5-0.05   c0.383,1.108,0.676,2.54,0.202,3.634c-0.427,0.984-1.103,1.165-1.467,1.186c-0.093,0.005-0.188,0.001-0.279-0.011l-0.145,3.709   c-0.012,0.312-0.17,0.602-0.427,0.781c-0.257,0.179-0.583,0.229-0.88,0.131l-0.757-0.244l-0.824,2.855   c-0.117,0.405-0.476,0.693-0.896,0.721c-0.405,0.017-0.757-0.18-0.942-0.518c-0.098,0.18-0.252,0.331-0.451,0.425   C368.839,310.254,364.987,312.02,359.327,312.02z M346.085,290.175c-0.757,5.228-1.185,16.108,4.078,18.128   c9.82,3.772,17.984,0.064,18.065,0.028c0.216-0.102,0.448-0.117,0.664-0.064l-0.98-2.247l-2.57-0.873   c-0.451-0.154-0.731-0.605-0.669-1.079l0.491-3.703c-0.287,0.199-0.659,0.233-0.979,0.091c-0.326-0.146-0.55-0.455-0.586-0.811   l-0.516-5.076h-1.129c-0.45,0-0.846-0.302-0.965-0.736l-0.582-2.128l-1.697,0.623c-0.462,0.171-0.98-0.022-1.22-0.454l-1.317-2.379   l-2.529,1.15c-0.448,0.201-0.979,0.052-1.249-0.359l-1.238-1.878c-0.931,0.177-1.807,0.494-1.969,0.738   C348.74,290.274,347.435,290.446,346.085,290.175z M366.764,303.517l2.211,0.751c0.266,0.091,0.481,0.29,0.595,0.548l0.645,1.479   l0.342-1.184c0.075-0.26,0.253-0.479,0.491-0.605c0.24-0.128,0.52-0.153,0.777-0.068l0.483,0.156l0.169-4.32   c0.018-0.445,0.328-0.826,0.761-0.933c0.432-0.102,0.886,0.088,1.106,0.476c0.015,0.025,0.031,0.052,0.049,0.079   c0.038-0.862-0.479-2.28-0.923-3.118c-0.173-0.325-0.152-0.72,0.053-1.026c0.207-0.305,0.565-0.469,0.93-0.438l0.849,0.085   c-0.719-1.289-2.74-3.086-4.348-4.182c-0.362-0.247-0.521-0.701-0.393-1.121c0.13-0.419,0.518-0.705,0.956-0.705h1.263l-2.12-3.525   c-0.182-0.303-0.19-0.679-0.023-0.989s0.485-0.511,0.838-0.525l0,0c-0.021,0,0.598-0.11,1.379-1.101   c-1.474-1.203-3.946-0.657-3.974-0.651c-0.323,0.075-0.665-0.016-0.908-0.244c-0.243-0.227-0.358-0.56-0.306-0.888l0.357-2.231   l-3.794,0.947c-0.235,0.06-0.479,0.031-0.694-0.078l-4.435-2.246c-0.455,1.873-1.047,2.04-1.358,2.127   c-0.401,0.114-0.815,0.009-1.139-0.279c-0.761-0.176-3.612,0.075-6.433,0.466c0.885,1.332,0.522,1.91,0.362,2.164   c-0.628,1.002-2.047,0.53-2.579,0.354c-1.667-0.564-3.488,1.029-4.523,2.161c0.184,0.124,0.356,0.275,0.5,0.462   c0.318,0.413,0.438,0.914,0.346,1.446c-0.077,0.441-0.25,0.992-0.442,1.526l1.165-0.339c0.22-0.063,0.439-0.049,0.633,0.024   c0.637,0.231,1.456,0.371,1.76,0.298c0.676-1.4,3.103-1.822,4.135-1.939c0.385-0.045,0.741,0.129,0.948,0.442l1.12,1.698   l2.592-1.179c0.476-0.215,1.036-0.031,1.289,0.426l1.351,2.438l1.914-0.702c0.264-0.098,0.554-0.079,0.803,0.05   c0.249,0.128,0.433,0.354,0.507,0.625l0.668,2.441h1.27c0.513,0,0.943,0.389,0.995,0.898l0.432,4.248l0.462-0.335   c0.325-0.235,0.757-0.254,1.1-0.049c0.343,0.204,0.531,0.594,0.479,0.99L366.764,303.517z"
   id="path2747" />
</g>
<g
   id="g2753">
	<path
   fill="#010101"
   d="M354.823,318.891c-0.132,0-0.265-0.025-0.393-0.08c-0.508-0.218-0.744-0.805-0.527-1.312l2.652-6.207   c0.219-0.51,0.809-0.744,1.312-0.527c0.508,0.218,0.744,0.805,0.527,1.312l-2.652,6.207   C355.58,318.664,355.21,318.891,354.823,318.891z"
   id="path2751" />
</g>
<g
   id="g2757">
	<path
   fill="#010101"
   d="M314.604,400.572c-3.746,0-4.233-0.717-4.443-1.024c-0.296-0.435-0.311-0.987-0.038-1.478   c0.47-0.849,1.081-1.547,1.603-2.053l-0.724-0.493c-0.246-0.168-0.404-0.437-0.433-0.733c-0.027-0.297,0.079-0.59,0.289-0.801   l1.344-1.341c-0.183-9.854-0.396-31.867,1.288-33.995l0.195-0.249c1.574-2.001,2.364-3.006,4.46-3.724   c2.799-0.959,20.307-3.471,21.051-3.577c0.544-0.078,1.054,0.302,1.132,0.849s-0.302,1.054-0.849,1.132   c-5.016,0.718-18.51,2.743-20.686,3.489c-1.537,0.526-2.041,1.167-3.536,3.068l-0.198,0.251c-0.982,1.746-1.093,20.438-0.85,33.143   c0.005,0.272-0.101,0.535-0.293,0.728l-0.791,0.789l0.812,0.554c0.273,0.187,0.437,0.495,0.437,0.826   c0,0.33-0.163,0.64-0.436,0.825c-0.01,0.007-0.95,0.664-1.697,1.702c1.335,0.223,4.486,0.081,7.801-0.244   c-0.166-0.159-0.275-0.374-0.302-0.609c-0.04-0.35,0.106-0.693,0.386-0.907l1.003-0.768l-0.956-0.493   c-0.281-0.146-0.477-0.415-0.528-0.728c-0.051-0.312,0.049-0.63,0.27-0.857l0.995-1.026c-0.839-28.948-0.174-29.184,0.666-29.479   c5.088-1.78,11.041-2.534,14.594-2.639c1.137-0.033,2.58-0.002,4.253,0.034c3.828,0.083,8.599,0.186,11.391-0.521   c4.104-1.042,4.457-6.375,4.46-6.43c0.031-0.551,0.511-0.973,1.056-0.94c0.551,0.031,0.973,0.504,0.94,1.056   c-0.016,0.278-0.454,6.854-5.965,8.254c-3.055,0.773-7.974,0.667-11.926,0.581c-1.575-0.034-3.064-0.066-4.149-0.033   c-3.299,0.097-8.751,0.775-13.513,2.362c-0.364,2.855-0.078,18.44,0.205,28.118c0.008,0.27-0.094,0.531-0.282,0.726l-0.352,0.362   l1.161,0.6c0.304,0.157,0.507,0.459,0.537,0.801c0.03,0.341-0.116,0.674-0.389,0.882l-0.931,0.713l1.372,0.624   c0.405,0.185,0.641,0.615,0.575,1.057c-0.065,0.44-0.414,0.785-0.856,0.845C319.494,400.37,316.59,400.572,314.604,400.572z"
   id="path2755" />
</g>
<g
   id="g2761">
	<path
   fill="#010101"
   d="M309.303,407.951c-3.096,0-3.944-0.533-5.852-1.955c-0.22-0.164-0.362-0.411-0.396-0.683   c-0.567-4.731,7.483-6.406,8.403-6.582c0.551-0.102,1.066,0.253,1.169,0.795c0.104,0.542-0.251,1.065-0.794,1.17   c-1.755,0.337-6.531,1.759-6.793,3.989c1.711,1.258,2.316,1.44,7.218,1.159c3.517-0.203,9.062-0.279,11.261-0.302   c0.027-1.747-0.241-4.646-1.726-5.243c-0.512-0.206-0.761-0.788-0.555-1.301c0.205-0.512,0.787-0.761,1.301-0.555   c3.488,1.401,2.992,7.497,2.924,8.188c-0.05,0.509-0.477,0.898-0.988,0.901c-0.077,0-7.709,0.054-12.102,0.307   C311.142,407.912,310.14,407.951,309.303,407.951z"
   id="path2759" />
</g>
<g
   id="g2765">
	<path
   fill="#010101"
   d="M309.606,400.372c-0.124,0-0.249-0.022-0.37-0.071l-4.117-1.643c-0.254-0.101-0.455-0.302-0.558-0.555   c-0.102-0.253-0.096-0.536,0.017-0.785c0.371-0.823,1.441-2.15,1.937-2.742c0.028-3.529,0.271-29.271,1.284-35.541   c0.196-1.204,3.1-3.53,3.129-3.549c3.202-2.193,27.86-6.452,30.662-6.93c0.547-0.091,1.061,0.272,1.153,0.817   c0.094,0.544-0.272,1.061-0.817,1.153c-10.827,1.85-27.719,5.137-29.877,6.615c-0.398,0.286-2.005,1.805-2.289,2.297   c-1.028,6.604-1.246,35.225-1.248,35.514c-0.002,0.237-0.088,0.467-0.243,0.646c-0.36,0.419-0.89,1.07-1.302,1.643l3.01,1.201   c0.514,0.204,0.764,0.786,0.559,1.299C310.378,400.133,310.002,400.372,309.606,400.372z"
   id="path2763" />
</g>
<g
   id="g2769">
	<path
   fill="#010101"
   d="M304.609,406.793c-0.056,0-0.112-0.005-0.169-0.015l-1.42-0.235c-4.138-0.678-6.324-1.086-6.927-2.269   c-0.087-0.169-0.123-0.359-0.104-0.549c0.34-3.594,7.691-6.41,9.162-6.938c0.518-0.188,1.092,0.083,1.279,0.604   c0.187,0.52-0.084,1.092-0.604,1.279c-2.888,1.038-6.914,3.114-7.712,4.784c0.946,0.414,3.479,0.829,5.229,1.115l1.433,0.238   c0.544,0.092,0.91,0.608,0.817,1.153C305.51,406.449,305.087,406.793,304.609,406.793z"
   id="path2767" />
</g>
<g
   id="g2773">
	<path
   fill="#010101"
   d="M342.373,369.335c-0.001,0-0.001,0-0.002,0c-8.178,0-8.227-0.184-8.466-1.068   c-0.222-0.831-0.142-3.814-0.097-5.059c0.02-0.539,0.462-0.964,0.999-0.964c0.008,0,0.017,0,0.025,0l31.813,0.812   c0.297,0.008,0.574,0.146,0.759,0.379c0.184,0.233,0.255,0.535,0.194,0.825l-0.813,3.895c-0.095,0.454-0.488,0.783-0.951,0.796   C365.691,368.956,351.438,369.335,342.373,369.335z M335.783,367.19c0.737,0.065,2.48,0.146,6.588,0.146c0,0,0.001,0,0.002,0   c7.81,0,19.493-0.283,22.617-0.363l0.407-1.946l-29.619-0.756C335.752,365.389,335.75,366.515,335.783,367.19z"
   id="path2771" />
</g>
<g
   id="g2777">
	<path
   fill="#010101"
   d="M363.74,364.065c-0.453,0-0.863-0.31-0.972-0.77c-0.084-0.353-0.084-0.353,1.242-4.909   c2.185-7.506,6.731-23.125,7.214-29.14c0.044-0.55,0.521-0.957,1.077-0.917c0.551,0.045,0.961,0.526,0.917,1.077   c-0.499,6.218-5.084,21.969-7.288,29.539c-0.595,2.045-1.112,3.82-1.192,4.197c-0.033,0.422-0.333,0.792-0.767,0.895   C363.894,364.056,363.816,364.065,363.74,364.065z"
   id="path2775" />
</g>
<g
   id="g2781">
	<path
   fill="#010101"
   d="M366.466,364.245c-0.089,0-0.179-0.012-0.269-0.036c-0.532-0.148-0.844-0.699-0.696-1.231   c0.318-1.144,7.125-25.63,9.539-33.14c-0.321-0.191-0.522-0.556-0.485-0.953c0.042-0.449,0.376-0.802,0.797-0.888   c0.108-0.193,0.286-0.408,0.594-0.527c0.334-0.13,0.697-0.098,1.079,0.099c0.456,0.233,0.662,0.774,0.476,1.253   c-1.494,3.838-9.986,34.384-10.071,34.691C367.306,363.955,366.904,364.245,366.466,364.245z"
   id="path2779" />
</g>
<g
   id="g2785">
	<path
   fill="#010101"
   d="M339.582,403.604c-0.02,0-0.04-0.001-0.06-0.002l-2.521-0.15c-0.546-0.032-0.965-0.497-0.939-1.044   l1.515-33.074c0.025-0.552,0.504-0.978,1.045-0.953c0.378,0.018,0.697,0.242,0.853,0.56c0.11-0.435,0.504-0.752,0.969-0.752   c0.008,0,0.017,0,0.025,0c0.553,0.015,0.988,0.474,0.975,1.025l-0.861,33.416c-0.007,0.271-0.124,0.528-0.323,0.711   C340.073,403.51,339.832,403.604,339.582,403.604z M338.105,401.514l0.504,0.03l0.649-25.215L338.105,401.514z"
   id="path2783" />
</g>
<g
   id="g2789">
	<path
   fill="#010101"
   d="M365.643,403.954c-0.023,0-0.046-0.001-0.069-0.002l-2.08-0.145c-0.513-0.036-0.915-0.455-0.931-0.969   l-0.98-33.744c-0.016-0.553,0.419-1.013,0.971-1.029c0.354,0.001,0.665,0.162,0.852,0.432c0.171-0.173,0.404-0.284,0.666-0.296   c0.513-0.036,1.019,0.402,1.044,0.954l1.527,33.754c0.013,0.284-0.097,0.562-0.301,0.761   C366.154,403.852,365.903,403.954,365.643,403.954z M364.537,401.875l0.057,0.004l-0.159-3.521L364.537,401.875z"
   id="path2787" />
</g>
<g
   id="g2793">
	<path
   fill="#010101"
   d="M360.625,316.493c-0.131,0-0.264-0.025-0.392-0.08c-0.509-0.216-0.745-0.804-0.528-1.312l1.732-4.068   c0.217-0.509,0.805-0.746,1.312-0.528c0.509,0.216,0.745,0.804,0.528,1.312l-1.732,4.068   C361.383,316.265,361.014,316.493,360.625,316.493z"
   id="path2791" />
</g>
<g
   id="g2797">
	<path
   fill="#F5952F"
   d="M292.004,327.276c-0.007,0-0.015,0-0.021,0l-11.519-0.246c-0.544-0.012-0.979-0.456-0.979-1v-3.402   c0-0.271,0.109-0.528,0.303-0.717c0.192-0.188,0.458-0.292,0.725-0.283l11.519,0.32c0.542,0.016,0.973,0.459,0.973,1v3.328   c0,0.269-0.108,0.526-0.301,0.715C292.517,327.173,292.266,327.276,292.004,327.276z M281.486,325.051l9.519,0.203v-1.334   l-9.519-0.265V325.051z"
   id="path2795" />
</g>
<g
   id="g2801">
	<path
   fill="#010101"
   d="M286.941,322.222c-0.426,0-0.837-0.143-1.19-0.418c-1.632-1.275-1.759-5.435-1.759-6.679   c0-2.843,2.715-5.584,6.455-6.519c1.804-0.458,12.514,1.287,15.751,1.831c0.545,0.092,0.912,0.607,0.82,1.152   c-0.092,0.544-0.602,0.906-1.152,0.82c-6.54-1.102-13.917-2.109-14.935-1.863c-3.208,0.802-4.939,2.957-4.939,4.578   c0,1.945,0.278,3.529,0.589,4.401c-0.001-0.12-0.004-0.239-0.006-0.349c-0.022-1.206-0.05-2.706,0.534-3.881   c0.954-1.915,2.5-2.426,3.264-2.426c0.357,0,0.688,0.191,0.866,0.501c0.006,0.009,0.785,1.306,1.979,1.427   c0.857,0.077,1.828-0.451,2.868-1.599c0.131-0.145,0.301-0.248,0.488-0.297c2.561-0.669,8.23-0.052,8.471-0.026   c0.549,0.061,0.945,0.555,0.885,1.104s-0.549,0.944-1.104,0.885c-1.464-0.161-5.519-0.473-7.477-0.088   c-1.429,1.49-2.889,2.164-4.354,2.009c-1.455-0.156-2.483-1.115-3.032-1.777c-0.301,0.155-0.717,0.483-1.062,1.179   c-0.366,0.736-0.344,1.966-0.325,2.953c0.024,1.338,0.05,2.722-1.151,3.021C287.261,322.203,287.1,322.222,286.941,322.222z"
   id="path2799" />
</g>
<g
   id="g2805">
	<path
   fill="#010101"
   d="M298.635,340.061L298.635,340.061l-23.616-0.031c-0.553-0.001-1-0.449-0.999-1.001s0.448-0.999,1-0.999   h0.001l23.387,0.031l23.506-11.3l-6.217-0.299c-0.552-0.026-0.978-0.495-0.951-1.047c0.027-0.552,0.506-0.973,1.047-0.951   l10.16,0.488c0.457,0.022,0.841,0.352,0.933,0.801c0.091,0.448-0.135,0.901-0.547,1.1l-27.27,13.109   C298.933,340.027,298.786,340.061,298.635,340.061z"
   id="path2803" />
</g>
<g
   id="g2809">
	<path
   fill="#010101"
   d="M299.002,343.672c-0.015,0-0.03,0-0.045-0.001l-18.821-0.85c-0.552-0.025-0.979-0.492-0.954-1.044   c0.025-0.552,0.503-0.988,1.044-0.954l18.574,0.839l26.41-12.418l-0.301-3.199c-0.053-0.55,0.352-1.037,0.901-1.089   c0.561-0.072,1.038,0.353,1.089,0.901l0.367,3.898c0.04,0.42-0.188,0.819-0.569,0.999l-27.27,12.822   C299.294,343.64,299.149,343.672,299.002,343.672z"
   id="path2807" />
</g>
<g
   id="g2813">
	<path
   fill="#F5952F"
   d="M275.021,318.028c-0.308,0-0.611-0.142-0.808-0.408l-1.645-2.242c-0.326-0.445-0.23-1.071,0.215-1.398   c0.446-0.327,1.07-0.23,1.398,0.215l1.645,2.242c0.326,0.445,0.23,1.071-0.215,1.398   C275.433,317.965,275.226,318.028,275.021,318.028z"
   id="path2811" />
</g>
<g
   id="g2817">
	<path
   fill="#F5952F"
   d="M272.718,322.223c-0.067,0-0.135-0.007-0.203-0.021l-4.931-1.02c-0.541-0.112-0.889-0.642-0.777-1.182   c0.111-0.542,0.639-0.887,1.182-0.777l4.931,1.02c0.541,0.112,0.889,0.642,0.777,1.182   C273.599,321.898,273.183,322.223,272.718,322.223z"
   id="path2815" />
</g>
<g
   id="g2821">
	<path
   fill="#F5952F"
   d="M295.951,320.217c-0.312,0-0.618-0.145-0.813-0.417c-0.322-0.449-0.219-1.074,0.229-1.396l3.053-2.189   c0.45-0.323,1.074-0.22,1.396,0.229c0.322,0.449,0.219,1.074-0.229,1.396l-3.053,2.189   C296.356,320.157,296.152,320.217,295.951,320.217z"
   id="path2819" />
</g>
<g
   id="g2825">
	<path
   fill="#F5952F"
   d="M297.476,323.383c-0.407,0-0.79-0.25-0.938-0.654c-0.19-0.519,0.075-1.094,0.593-1.284l5.926-2.18   c0.518-0.19,1.094,0.074,1.284,0.593s-0.075,1.094-0.593,1.284l-5.926,2.18C297.708,323.364,297.591,323.383,297.476,323.383z"
   id="path2823" />
</g>
<g
   id="g2837">
	<path
   fill="#F5952F"
   d="M282.333,289.982c-0.287-0.229-0.578-0.367-0.875-0.42c-0.299-0.053-0.614-0.028-0.949,0.072   c-0.375,0.111-0.693,0.276-0.957,0.497c-0.262,0.22-0.472,0.479-0.629,0.773c-0.156,0.299-0.258,0.618-0.307,0.963   c-0.049,0.343-0.046,0.694,0.01,1.053c0.055,0.359,0.16,0.68,0.318,0.963c0.156,0.28,0.354,0.512,0.59,0.691   s0.504,0.296,0.801,0.348s0.619,0.026,0.963-0.077c0.729-0.218,1.254-0.676,1.576-1.377l0.955,0.574   c-0.262,0.486-0.6,0.884-1.012,1.196c-0.414,0.311-0.865,0.539-1.354,0.685c-0.518,0.154-1.006,0.207-1.464,0.157   c-0.46-0.052-0.864-0.197-1.218-0.436s-0.649-0.558-0.889-0.955c-0.238-0.398-0.397-0.868-0.475-1.408   c-0.086-0.528-0.077-1.042,0.023-1.543c0.102-0.498,0.281-0.96,0.542-1.382s0.589-0.788,0.986-1.101   c0.397-0.312,0.854-0.545,1.372-0.699c0.498-0.149,0.983-0.201,1.457-0.154c0.473,0.047,0.908,0.209,1.305,0.487L282.333,289.982z"
   id="path2827" />
	<path
   fill="#F5952F"
   d="M283.655,283.246l1.121-0.335l1.723,11.32l-1.119,0.335L283.655,283.246z"
   id="path2829" />
	<path
   fill="#F5952F"
   d="M287.096,283.862c-0.039-0.229,0.01-0.453,0.143-0.67c0.135-0.217,0.316-0.36,0.546-0.43   c0.229-0.068,0.437-0.041,0.618,0.081c0.184,0.123,0.293,0.299,0.33,0.529c0.033,0.251-0.012,0.479-0.14,0.683   c-0.126,0.205-0.31,0.344-0.549,0.415s-0.449,0.05-0.63-0.063C287.235,284.295,287.129,284.113,287.096,283.862z M287.766,286.527   l1.121-0.335l1.076,7.004l-1.121,0.336L287.766,286.527z"
   id="path2831" />
	<path
   fill="#F5952F"
   d="M296.172,285.846c-0.287-0.229-0.578-0.367-0.877-0.42c-0.297-0.053-0.613-0.028-0.948,0.072   c-0.374,0.111-0.692,0.276-0.956,0.497c-0.262,0.22-0.473,0.479-0.629,0.774c-0.156,0.297-0.26,0.617-0.309,0.962   c-0.047,0.343-0.045,0.694,0.01,1.054c0.057,0.358,0.162,0.679,0.32,0.962c0.156,0.28,0.354,0.512,0.59,0.691   c0.236,0.181,0.504,0.296,0.801,0.348s0.619,0.026,0.963-0.077c0.729-0.218,1.254-0.676,1.576-1.377l0.955,0.574   c-0.262,0.486-0.6,0.884-1.013,1.196c-0.413,0.311-0.864,0.539-1.353,0.685c-0.518,0.154-1.006,0.207-1.465,0.156   s-0.865-0.196-1.218-0.435s-0.649-0.558-0.888-0.956c-0.238-0.397-0.398-0.867-0.477-1.407c-0.084-0.528-0.076-1.042,0.025-1.542   c0.102-0.499,0.281-0.961,0.541-1.383s0.59-0.788,0.986-1.101c0.398-0.312,0.855-0.545,1.373-0.699   c0.498-0.149,0.982-0.2,1.457-0.153c0.473,0.045,0.907,0.208,1.305,0.486L296.172,285.846z"
   id="path2833" />
	<path
   fill="#F5952F"
   d="M297.395,279.14l1.12-0.335l1.116,7.4l2.594-4l1.594-0.477l-2.764,4.16l4.17,2.746l-1.652,0.494   l-3.902-2.686l0.568,3.682l-1.121,0.335L297.395,279.14z"
   id="path2835" />
</g>
<g
   id="g2849">
	<path
   fill="#F5952F"
   d="M312.862,268.978c-0.01-0.366-0.092-0.68-0.243-0.94s-0.373-0.487-0.665-0.68   c-0.327-0.214-0.658-0.352-0.996-0.411c-0.338-0.061-0.67-0.055-0.998,0.018c-0.328,0.07-0.639,0.199-0.934,0.383   c-0.294,0.184-0.561,0.411-0.8,0.686c-0.24,0.272-0.416,0.561-0.531,0.862c-0.114,0.302-0.164,0.601-0.149,0.897   s0.098,0.576,0.249,0.837c0.152,0.261,0.378,0.49,0.679,0.688c0.636,0.416,1.325,0.522,2.07,0.318l0.174,1.101   c-0.54,0.111-1.062,0.109-1.566-0.006c-0.505-0.115-0.969-0.314-1.396-0.594c-0.452-0.296-0.807-0.636-1.062-1.02   s-0.406-0.788-0.451-1.212s0.009-0.855,0.159-1.295c0.151-0.439,0.408-0.863,0.771-1.271c0.35-0.404,0.748-0.729,1.196-0.973   c0.447-0.245,0.916-0.403,1.407-0.476c0.489-0.074,0.981-0.058,1.477,0.046c0.494,0.103,0.967,0.303,1.419,0.6   c0.434,0.285,0.786,0.624,1.055,1.017c0.27,0.391,0.425,0.828,0.467,1.311L312.862,268.978z"
   id="path2839" />
	<path
   fill="#F5952F"
   d="M318.868,265.653l0.978,0.643l-7.554,8.605l-0.978-0.643L318.868,265.653z"
   id="path2841" />
	<path
   fill="#F5952F"
   d="M319.004,270.911l0.978,0.643l-4.669,5.332l-0.978-0.643L319.004,270.911z M320.611,268.683   c0.151-0.176,0.354-0.282,0.605-0.32c0.253-0.037,0.479,0.01,0.68,0.141c0.201,0.133,0.312,0.308,0.336,0.526   c0.024,0.22-0.04,0.417-0.191,0.593c-0.172,0.187-0.375,0.298-0.613,0.333c-0.239,0.034-0.463-0.017-0.672-0.154   c-0.209-0.137-0.328-0.312-0.356-0.521C320.37,269.069,320.44,268.87,320.611,268.683z"
   id="path2843" />
	<path
   fill="#F5952F"
   d="M324.936,276.907c-0.011-0.365-0.093-0.68-0.244-0.941c-0.151-0.26-0.373-0.486-0.665-0.68   c-0.327-0.213-0.658-0.352-0.995-0.41c-0.338-0.061-0.671-0.055-0.999,0.018c-0.328,0.07-0.639,0.199-0.934,0.383   c-0.294,0.184-0.561,0.412-0.8,0.686c-0.24,0.273-0.416,0.561-0.531,0.863c-0.114,0.301-0.164,0.6-0.149,0.896   s0.098,0.576,0.249,0.836c0.152,0.262,0.378,0.49,0.679,0.689c0.636,0.416,1.325,0.523,2.07,0.318l0.174,1.102   c-0.54,0.111-1.062,0.109-1.566-0.006c-0.505-0.117-0.969-0.314-1.396-0.594c-0.452-0.297-0.806-0.637-1.062-1.021   c-0.256-0.383-0.406-0.787-0.451-1.211c-0.044-0.424,0.009-0.855,0.159-1.295c0.151-0.439,0.408-0.863,0.771-1.271   c0.35-0.404,0.748-0.729,1.196-0.973c0.447-0.244,0.916-0.402,1.407-0.475c0.489-0.074,0.981-0.059,1.477,0.045   c0.494,0.104,0.967,0.305,1.419,0.6c0.434,0.285,0.787,0.625,1.056,1.018c0.269,0.391,0.424,0.828,0.466,1.311L324.936,276.907z"
   id="path2845" />
	<path
   fill="#F5952F"
   d="M330.854,273.526l0.978,0.643l-4.944,5.617l4.73-0.59l1.392,0.914l-4.964,0.562l0.584,4.959l-1.442-0.947   l-0.457-4.715l-2.451,2.805l-0.979-0.643L330.854,273.526z"
   id="path2847" />
</g>
<g
   id="g2861">
	<path
   fill="#F5952F"
   d="M278.346,260.288c-0.253-0.265-0.523-0.443-0.811-0.536s-0.604-0.112-0.95-0.06   c-0.386,0.059-0.724,0.179-1.015,0.36s-0.534,0.408-0.73,0.681s-0.342,0.576-0.438,0.909c-0.096,0.334-0.141,0.683-0.136,1.045   c0.005,0.363,0.065,0.696,0.184,0.997c0.116,0.301,0.279,0.556,0.488,0.768c0.21,0.211,0.458,0.362,0.745,0.454   c0.287,0.093,0.608,0.112,0.965,0.058c0.751-0.115,1.335-0.497,1.751-1.147l0.866,0.701c-0.326,0.444-0.716,0.793-1.168,1.044   s-0.931,0.415-1.435,0.492c-0.533,0.082-1.024,0.066-1.472-0.048c-0.447-0.113-0.829-0.313-1.146-0.599   c-0.316-0.284-0.565-0.641-0.747-1.069c-0.182-0.427-0.274-0.913-0.276-1.46c-0.012-0.533,0.068-1.042,0.236-1.523   c0.17-0.48,0.412-0.912,0.728-1.295c0.316-0.383,0.692-0.7,1.129-0.954c0.437-0.253,0.922-0.421,1.456-0.503   c0.514-0.079,1.001-0.062,1.464,0.05c0.462,0.111,0.87,0.331,1.225,0.662L278.346,260.288z"
   id="path2851" />
	<path
   fill="#F5952F"
   d="M280.585,253.8l1.156-0.177l0.144,11.45l-1.156,0.177L280.585,253.8z"
   id="path2853" />
	<path
   fill="#F5952F"
   d="M283.908,254.885c-0.006-0.231,0.073-0.446,0.235-0.644c0.162-0.196,0.361-0.313,0.599-0.35   s0.438,0.02,0.602,0.166c0.165,0.146,0.249,0.337,0.255,0.568c-0.002,0.254-0.08,0.474-0.234,0.658   c-0.153,0.185-0.354,0.297-0.601,0.334c-0.247,0.038-0.452-0.012-0.615-0.148C283.986,255.334,283.906,255.138,283.908,254.885z    M284.205,257.617l1.156-0.177l0.098,7.086l-1.156,0.177L284.205,257.617z"
   id="path2855" />
	<path
   fill="#F5952F"
   d="M292.624,258.104c-0.253-0.265-0.522-0.443-0.81-0.536c-0.287-0.094-0.604-0.113-0.95-0.06   c-0.386,0.059-0.724,0.179-1.015,0.359c-0.291,0.182-0.534,0.409-0.73,0.681c-0.196,0.273-0.343,0.576-0.438,0.91   c-0.096,0.334-0.141,0.682-0.136,1.045s0.065,0.695,0.183,0.996c0.116,0.301,0.28,0.556,0.488,0.768   c0.21,0.211,0.459,0.363,0.746,0.455c0.286,0.092,0.608,0.111,0.964,0.057c0.752-0.114,1.336-0.497,1.752-1.147l0.866,0.701   c-0.326,0.445-0.716,0.793-1.168,1.044c-0.452,0.252-0.931,0.416-1.435,0.493c-0.533,0.081-1.024,0.065-1.472-0.048   s-0.83-0.313-1.146-0.6c-0.316-0.284-0.565-0.641-0.748-1.068c-0.181-0.427-0.273-0.914-0.276-1.46   c-0.011-0.534,0.068-1.043,0.237-1.523c0.17-0.48,0.412-0.912,0.728-1.296c0.316-0.382,0.692-0.699,1.129-0.953   s0.922-0.422,1.456-0.504c0.514-0.078,1.001-0.062,1.464,0.05c0.462,0.111,0.87,0.332,1.225,0.662L292.624,258.104z"
   id="path2857" />
	<path
   fill="#F5952F"
   d="M294.759,251.631l1.157-0.177l0.083,7.483l3.121-3.603l1.646-0.252l-3.313,3.737l3.752,3.296l-1.705,0.261   l-3.494-3.199l0.054,3.726l-1.156,0.178L294.759,251.631z"
   id="path2859" />
</g>





























































































<g
   id="g3239">
	<path
   fill="#FFFFFF"
   d="M285.17,354.596c0,0,4.447,5.232,3.691,6.865c-0.758,1.631,3.25-3.451,3.25-3.451l-4.211-6.312   L285.17,354.596z"
   id="path3235" />
	<path
   fill="#010101"
   d="M288.81,362.784c-0.317,0.004-0.693-0.184-0.88-0.475c-0.327-0.512-0.08-1.043,0.024-1.27   c0.144-0.662-1.542-3.438-3.546-5.796c-0.33-0.388-0.315-0.962,0.034-1.333l2.73-2.898c0.208-0.222,0.497-0.347,0.812-0.311   c0.304,0.025,0.579,0.188,0.748,0.441l4.211,6.312c0.24,0.36,0.222,0.834-0.047,1.174   C289.649,362.749,289.316,362.784,288.81,362.784z M286.505,354.638c1.141,1.405,2.482,3.263,3.095,4.873   c0.399-0.474,0.845-1.017,1.275-1.553l-3.108-4.66L286.505,354.638z"
   id="path3237" />
</g>
<g
   id="g3245">
	<path
   fill="#FFFFFF"
   d="M300.439,368.336l5.107-2.803c0,0,7.979,11.166,9.616,12.188c-4.791,1.217-8.293,5.211-8.293,5.211   S305.465,370.467,300.439,368.336z"
   id="path3241" />
	<path
   fill="#010101"
   d="M306.87,383.932c-0.1,0-0.2-0.015-0.299-0.046c-0.378-0.118-0.65-0.448-0.695-0.842   c-0.374-3.307-2.149-12.229-5.827-13.787c-0.353-0.149-0.589-0.487-0.608-0.87c-0.019-0.383,0.182-0.743,0.518-0.928l5.107-2.803   c0.446-0.243,1.001-0.117,1.295,0.296c3.865,5.409,8.413,11.347,9.332,11.92c0.34,0.212,0.521,0.606,0.459,1.003   c-0.062,0.396-0.354,0.717-0.742,0.814c-4.438,1.128-7.754,4.864-7.787,4.901C307.428,383.811,307.153,383.932,306.87,383.932z    M302.384,368.41c3.192,2.791,4.638,9.124,5.195,12.432c1.259-1.111,3.256-2.615,5.701-3.563c-2.333-2.598-6.367-8.13-8.03-10.441   L302.384,368.41z"
   id="path3243" />
</g>
<g
   id="g3251">
	<path
   fill="#FFFFFF"
   d="M335.7,387.774c0,0-1.893,10.977,6.072,13.623c-2.459,2.66-4.98,4.285-4.98,4.285   s-11.51-10.312-8.75-17.484C331.415,387.17,335.7,387.774,335.7,387.774z"
   id="path3247" />
	<path
   fill="#010101"
   d="M336.792,406.682c-0.24,0-0.479-0.086-0.667-0.255c-0.491-0.44-11.989-10.862-9.017-18.589   c0.111-0.287,0.348-0.508,0.643-0.598c1.401-0.427,3.089-0.643,5.017-0.643c1.732,0,3.019,0.178,3.072,0.186   c0.268,0.038,0.508,0.183,0.668,0.4c0.159,0.219,0.224,0.492,0.178,0.759c-0.004,0.026-0.44,2.655,0.059,5.531   c0.634,3.66,2.433,6.007,5.344,6.974c0.322,0.107,0.568,0.371,0.653,0.7c0.084,0.329-0.004,0.679-0.234,0.928   c-2.517,2.722-5.065,4.378-5.173,4.447C337.167,406.629,336.979,406.682,336.792,406.682z M328.821,389.02   c-1.566,5.551,5.901,13.283,8.065,15.378c0.696-0.506,1.882-1.424,3.146-2.651c-5.104-2.655-5.866-9.097-5.462-13.081   c-0.48-0.035-1.104-0.067-1.804-0.067C331.286,388.598,329.934,388.743,328.821,389.02z"
   id="path3249" />
</g>
<g
   id="g3257">
	<path
   fill="#FFFFFF"
   d="M386.491,410.754c0,0,1.37,12.365,3.512,13.314c-6.643,1.822-16.678,9.779-21.594,6.086   c1.234-4.566-3.007-10.783-3.007-10.783S371.153,429.118,386.491,410.754z"
   id="path3253" />
	<path
   fill="#010101"
   d="M371.599,432.121c-1.485,0.001-2.761-0.392-3.791-1.166c-0.327-0.246-0.472-0.666-0.365-1.061   c1.022-3.781-2.347-9.157-2.78-9.827c-0.082-0.118-0.122-0.187-0.122-0.187c-0.269-0.466-0.123-1.064,0.332-1.351   c0.455-0.288,1.052-0.165,1.355,0.278l0.09,0.136c0.343,0.485,1.63,2.012,4.182,2.012c2.813,0,7.738-1.881,15.224-10.842   c0.258-0.309,0.676-0.435,1.056-0.316c0.384,0.115,0.662,0.448,0.706,0.847c0.687,6.189,2.033,11.923,2.941,12.521   c0.387,0.171,0.614,0.562,0.583,0.983c-0.031,0.422-0.335,0.773-0.742,0.886c-2.088,0.572-4.552,1.791-7.159,3.081   C379.125,430.084,375.006,432.121,371.599,432.121z M369.531,429.68c0.582,0.296,1.265,0.44,2.068,0.44   c2.94,0,6.845-1.932,10.622-3.799c2.152-1.064,4.209-2.082,6.107-2.767c-0.829-1.527-1.78-4.544-2.559-10.431   c-5.794,6.526-10.925,9.831-15.27,9.831c-0.001,0,0,0-0.001,0c-0.835,0-1.575-0.123-2.224-0.319   C369.159,424.707,369.908,427.312,369.531,429.68z"
   id="path3255" />
</g>


<g
   id="g3273">
	<path
   fill="#010101"
   d="M296.922,389.448h-1.186c-0.553,0-1-0.447-1-1s0.447-1,1-1h1.186c0.553,0,1,0.447,1,1   S297.475,389.448,296.922,389.448z"
   id="path3271" />
</g>
<g
   id="g3277">
	<path
   fill="#F5952F"
   d="M367.067,455.299c-0.275,0-0.55-0.113-0.747-0.336L259.96,335.295c-0.367-0.412-0.33-1.045,0.083-1.411   c0.411-0.368,1.045-0.33,1.411,0.083l106.359,119.668c0.367,0.412,0.33,1.045-0.083,1.411   C367.541,455.216,367.303,455.299,367.067,455.299z"
   id="path3275" />
</g>
<g
   id="g3281">
	<path
   fill="#F5952F"
   d="M372.058,409.297c-0.199,0-0.4-0.06-0.576-0.184l-104.272-73.666c-0.451-0.318-0.559-0.942-0.239-1.394   c0.318-0.45,0.941-0.558,1.394-0.239l104.272,73.666c0.451,0.318,0.559,0.942,0.239,1.394   C372.681,409.15,372.372,409.297,372.058,409.297z"
   id="path3279" />
</g>




<g
   id="g3311">
	<path
   fill="#FFFFFF"
   d="M357.885,408.2c0,0,3.206,12.326-0.775,16.494c-2.654-3.223-5.293-3.6-7.377-3.6   c1.887-5.287,3.001-8.719,3.784-19.334C353.517,401.76,355.583,408.391,357.885,408.2z"
   id="path3307" />
	<path
   fill="#010101"
   d="M357.11,425.694c-0.012,0-0.024,0-0.037-0.001c-0.285-0.01-0.553-0.143-0.734-0.363   c-2.343-2.844-4.559-3.235-6.605-3.235c-0.325,0-0.63-0.158-0.817-0.424s-0.233-0.606-0.124-0.912   c1.923-5.39,2.962-8.686,3.729-19.071c0.035-0.479,0.406-0.865,0.883-0.92c0.476-0.058,0.927,0.237,1.069,0.695   c0.938,3.005,2.519,5.741,3.315,5.741c0.455,0,0.951,0.304,1.065,0.744c0.137,0.525,3.297,12.918-1.021,17.437   C357.644,425.583,357.382,425.694,357.11,425.694z M351.123,420.164c1.785,0.192,3.85,0.864,5.909,2.95   c1.916-3.449,0.828-10.659,0.041-14.031c-1.166-0.396-2.153-1.71-2.914-3.13C353.466,412.802,352.525,416.144,351.123,420.164z"
   id="path3309" />
</g>




<g
   id="g3371">
	<g
   id="g3369">
		<path
   fill="#F5952F"
   d="M241.369,416.692c1.29,0,1.29-2,0-2S240.079,416.692,241.369,416.692L241.369,416.692z"
   id="path3367" />
	</g>
</g>
<g
   id="g3377">
	<g
   id="g3375">
		<path
   fill="#F5952F"
   d="M249.047,406.737c1.29,0,1.29-2,0-2S247.757,406.737,249.047,406.737L249.047,406.737z"
   id="path3373" />
	</g>
</g>
<g
   id="g3383">
	<g
   id="g3381">
		<path
   fill="#F5952F"
   d="M232.333,357.25c1.29,0,1.29-2,0-2S231.042,357.25,232.333,357.25L232.333,357.25z"
   id="path3379" />
	</g>
</g>
<g
   id="g3389">
	<g
   id="g3387">
		<path
   fill="#F5952F"
   d="M304.505,302.36c1.29,0,1.29-2,0-2S303.215,302.36,304.505,302.36L304.505,302.36z"
   id="path3385" />
	</g>
</g>
<g
   id="g3395">
	<g
   id="g3393">
		<path
   fill="#F5952F"
   d="M321.286,288.424c1.29,0,1.29-2,0-2S319.996,288.424,321.286,288.424L321.286,288.424z"
   id="path3391" />
	</g>
</g>
<g
   id="g3401">
	<g
   id="g3399">
		<path
   fill="#F5952F"
   d="M268.956,264.251c1.29,0,1.29-2,0-2S267.666,264.251,268.956,264.251L268.956,264.251z"
   id="path3397" />
	</g>
</g>
<g
   id="g3407">
	<g
   id="g3405">
		<path
   fill="#F5952F"
   d="M471.44,290.366c1.29,0,1.29-2,0-2S470.15,290.366,471.44,290.366L471.44,290.366z"
   id="path3403" />
	</g>
</g>
<g
   id="g3413">
	<g
   id="g3411">
		<path
   fill="#F5952F"
   d="M407.292,285.94c1.29,0,1.29-2,0-2S406.001,285.94,407.292,285.94L407.292,285.94z"
   id="path3409" />
	</g>
</g>
<g
   id="g3419">
	<g
   id="g3417">
		<path
   fill="#F5952F"
   d="M461.104,284.002c1.29,0,1.29-2,0-2S459.814,284.002,461.104,284.002L461.104,284.002z"
   id="path3415" />
	</g>
</g>
<g
   id="g3425">
	<g
   id="g3423">
		<path
   fill="#F5952F"
   d="M388.805,309.26c1.29,0,1.29-2,0-2S387.515,309.26,388.805,309.26L388.805,309.26z"
   id="path3421" />
	</g>
</g>
<g
   id="g3431">
	<g
   id="g3429">
		<path
   fill="#F5952F"
   d="M383.118,342.823c1.29,0,1.29-2,0-2S381.828,342.823,383.118,342.823L383.118,342.823z"
   id="path3427" />
	</g>
</g>
<g
   id="g3437">
	<g
   id="g3435">
		<path
   fill="#F5952F"
   d="M384.825,351.924c1.29,0,1.29-2,0-2S383.535,351.924,384.825,351.924L384.825,351.924z"
   id="path3433" />
	</g>
</g>
<g
   id="g3443">
	<g
   id="g3441">
		<path
   fill="#F5952F"
   d="M483.256,382.241c1.29,0,1.29-2,0-2S481.966,382.241,483.256,382.241L483.256,382.241z"
   id="path3439" />
	</g>
</g>
<g
   id="g3449">
	<g
   id="g3447">
		<path
   fill="#010101"
   d="M260.708,356.682c1.29,0,1.29-2,0-2S259.417,356.682,260.708,356.682L260.708,356.682z"
   id="path3445" />
	</g>
</g>
<g
   id="g3455">
	<g
   id="g3453">
		<path
   fill="#010101"
   d="M253.313,381.141c1.29,0,1.29-2,0-2S252.023,381.141,253.313,381.141L253.313,381.141z"
   id="path3451" />
	</g>
</g>
<g
   id="g3461">
	<g
   id="g3459">
		<path
   fill="#010101"
   d="M255.02,389.389c1.29,0,1.29-2,0-2S253.73,389.389,255.02,389.389L255.02,389.389z"
   id="path3457" />
	</g>
</g>
<g
   id="g3467">
	<g
   id="g3465">
		<path
   fill="#010101"
   d="M208.948,398.206c1.29,0,1.29-2,0-2S207.658,398.206,208.948,398.206L208.948,398.206z"
   id="path3463" />
	</g>
</g>
<g
   id="g3473">
	<g
   id="g3471">
		<path
   fill="#010101"
   d="M184.159,425.045c1.29,0,1.29-2,0-2S182.869,425.045,184.159,425.045L184.159,425.045z"
   id="path3469" />
	</g>
</g>
<g
   id="g3479">
	<g
   id="g3477">
		<path
   fill="#010101"
   d="M407.292,384.938c1.29,0,1.29-2,0-2S406.001,384.938,407.292,384.938L407.292,384.938z"
   id="path3475" />
	</g>
</g>
<g
   id="g3485">
	<g
   id="g3483">
		<path
   fill="#F5952F"
   d="M291.643,240.41c1.29,0,1.29-2,0-2S290.353,240.41,291.643,240.41L291.643,240.41z"
   id="path3481" />
	</g>
</g>
<g
   id="g3491">
	<g
   id="g3489">
		<path
   fill="#F5952F"
   d="M280.181,229.059c1.29,0,1.29-2,0-2S278.891,229.059,280.181,229.059L280.181,229.059z"
   id="path3487" />
	</g>
</g>
<g
   id="g3497">
	<g
   id="g3495">
		<path
   fill="#F5952F"
   d="M372.368,285.27c1.29,0,1.29-2,0-2S371.078,285.27,372.368,285.27L372.368,285.27z"
   id="path3493" />
	</g>
</g>

</svg>