<?xml version="1.0" encoding="utf-8"?>
<!-- Generator: Adobe Illustrator 16.0.4, SVG Export Plug-In . SVG Version: 6.00 Build 0)  -->
<!DOCTYPE svg PUBLIC "-//W3C//DTD SVG 1.1//EN" "http://www.w3.org/Graphics/SVG/1.1/DTD/svg11.dtd">
<svg version="1.1" id="Ebene_2" xmlns="http://www.w3.org/2000/svg" xmlns:xlink="http://www.w3.org/1999/xlink" x="0px" y="0px"
	 width="99.212px" height="99.213px" viewBox="0 0 99.212 99.213" enable-background="new 0 0 99.212 99.213" xml:space="preserve">
<path fill="#D8D8D8" d="M9.273,30.743c0,0,5-15.667,14.833-20s21-8.667,37-5.167s25.334,12.666,29.5,20.833s6.465,16.026,3,33.167
	c-3.167,15.667-17,29.334-29.5,32.167c-12.576,2.851-31.667,5.167-53.833-22c-19-23.334,6-56.334,17.167-61.167
	c4.833-2.167,23.167-11.167,42,0.167s29.166,33.667,25.833,46.333c-2.057,7.814-3.5,28-26.5,36.833
	c-10.447,4.012-23.143,5.053-33.5,1c-19.167-7.5-31.57-22.507-31-44.167c0.5-19,3.833-22.667,3.833-22.667"/>
<g>
	<g>
		<path fill="#E0E0E0" d="M66.487,15.945C79.17,26.81,88.11,45.72,82.578,62.311c-2.09,6.267-7.83,13.096-13.168,16.855
			c-7.452,5.25-19.082,8.141-28.058,6.922c0,3.214,0,6.429,0,9.643c9.366-1.567,19.532-4.538,27.687-9.523
			c7.405-4.526,12.304-12.644,15.557-20.464c7.061-16.975,5.356-36.393-6.953-50.453c-3.549-4.054-9.267,0.334-8.357,4.865
			c1.333,6.643,3.538,13.067,4.789,19.728c1.146,6.107-0.327,11.545-3.134,16.923c-5.089,9.752-13.257,19.313-22.773,24.952
			c-5.542,3.283-0.514,11.93,5.047,8.635c11.432-6.773,20.883-18.041,26.983-29.732c3.096-5.932,4.614-12.145,4.139-18.843
			c-0.589-8.308-3.778-16.207-5.407-24.321c-2.786,1.622-5.572,3.243-8.357,4.865c9.71,11.09,10.001,26.185,4.922,39.424
			c-2.482,6.471-6.7,12.851-12.669,16.5c-6.956,4.252-16.172,6.47-24.13,7.802c-4.729,0.792-4.857,8.983,0,9.643
			c11.366,1.544,23.594-1.091,33.647-6.61c8.441-4.635,14.881-13.341,18.954-21.89c9.299-19.523-2.572-45.367-17.736-58.357
			C68.69,4.703,61.583,11.743,66.487,15.945L66.487,15.945z"/>
	</g>
</g>
<polyline fill="none" stroke="#65666C" stroke-width="2" stroke-linecap="round" stroke-linejoin="round" stroke-miterlimit="10" points="
	16.106,71.242 52.028,29.127 60.489,35.833 71.606,22.159 59.44,35.576 49.856,29.242 12.94,72.575 "/>
<polyline fill="none" stroke="#65666C" stroke-width="2" stroke-linecap="round" stroke-linejoin="round" stroke-miterlimit="10" points="
	67.606,21.742 72.606,20.576 72.773,25.576 73.273,19.492 67.356,20.909 "/>
<path fill="#F4F4F4" d="M71.17,41.51l-0.518,1.812l-17.433,0.863l-2.503-3.021h-1.208c0,0-1.208-9.665-8.716-8.975
	c2.157,3.021,2.503,4.92,0,5.783c-3.193-2.417-7.767-4.661-7.767-4.661l0.086,2.33c0,0,2.157,0.949,1.812,3.193
	c-0.345,2.244-0.949,5.178,0.95,7.508c-2.935,1.467-7.595,4.143-7.595,4.143s-2.849,0.433-4.488,2.159
	c-1.639,1.725-3.106,4.056-2.848,8.025s2.417,10.441,4.833,11.563c2.417,1.123,5.092-0.086,5.092-0.086s1.295-0.517,3.193,1.468
	s7.076,7.854,7.076,7.854l7.336,0.776l2.589-2.33l13.981-0.95c0,0,0.604,1.813,0.863,1.899s5.264,0.172,5.264,0.172
	S81.612,66.97,81.44,59.893C81.266,52.815,79.108,42.459,71.17,41.51z"/>
<path fill="none" stroke="#000000" stroke-width="2" stroke-linecap="round" stroke-linejoin="round" stroke-miterlimit="10" d="
	M7.44,29.993c0,0,6.833-14.917,16.667-19.25s21-8.667,37-5.167s23.25,9.833,27.417,18s9.417,14,4.917,36.5
	C90.305,75.749,76.607,88.91,64.106,91.743c-12.576,2.851-31.417,6.25-53.583-20.917c-16.417-22.333,5.083-56.667,16.25-61.5
	c2.992-1.341,10.526-5.372,21-5.75c6.446-0.232,15.242,0.015,22.417,4.333c18.833,11.333,28.416,34.5,25.083,47.167
	c-2.057,7.814-3.5,28-26.5,36.833c-10.447,4.012-23.143,5.053-33.5,1c-23.583-9.5-31.25-31.25-31.583-43.75
	S6.023,33.326,7.44,29.993z"/>
<path fill="none" stroke="#000000" stroke-width="2" stroke-linecap="round" stroke-linejoin="round" stroke-miterlimit="10" d="
	M27.243,72.579c0,0,6.645,0,7.395-5.478c0.435-3.179-0.188-11.182-4.51-13.813c-4.323-2.632-9.397,1.128-9.209,6.484
	c0.188,5.355,1.973,11.181,4.511,11.651c2.537,0.47,6.469,1.098,7.596-4.541s-0.099-16.755-5.955-15.88
	c-5.783,0.864-5.775,9.24-5.118,12.998c0.657,3.759,2.442,7.986,4.604,8.081"/>
<path fill="none" stroke="#000000" stroke-width="2" stroke-linecap="round" stroke-linejoin="round" stroke-miterlimit="10" d="
	M27.872,59.208c0,0,0.188-1.128,0.846-1.034c0.657,0.094,2.416,4.219,2.322,6.379c-0.093,2.16-2.134,3.771-2.604,0.575
	c-0.47-3.195,0.232-7.324,0.939-6.954c0.975,0.51,1.433,3.454,1.32,5.603c-0.076,1.444-1.243,2.216-1.507,2.291"/>
<path fill="none" stroke="#000000" stroke-width="2" stroke-linecap="round" stroke-linejoin="round" stroke-miterlimit="10" d="
	M24.677,58.55c0,0-1.663,3.414-0.973,6.262c0.505,2.082,1.985,3.452,2.289,0.129c0.292-3.195-0.751-7.799-1.785-4.041
	c-1.034,3.759,0.282,6.107,0.282,6.107"/>
<path fill="none" stroke="#000000" stroke-width="2" stroke-linecap="round" stroke-linejoin="round" stroke-miterlimit="10" d="
	M31.989,72.579c0,0,2.33,0.345,5.467,4.201c3.761,4.622,4.229,4.792,4.229,4.792l7.235,0.563l2.067-2.349l13.719-0.563l1.597,1.597
	h4.98c0,0,9.959-13.344,10.338-19.639c0.309-5.181-1.693-13.626-5.734-17.855c-2.537-2.725-4.886-3.194-4.886-3.194l-0.94,2.819
	l-16.413-0.061l-2.676-2.071l1.899,3.97l18.223-0.241l-0.094-2.255c0,0,3.853-0.939,7.329,7.612s0.564,15.597-0.281,18.511
	s-6.672,11.652-6.672,11.652l-5.074,0.752l-1.597-1.597"/>
<path fill="none" stroke="#000000" stroke-width="2" stroke-linecap="round" stroke-linejoin="round" stroke-miterlimit="10" d="
	M83.596,53.679c0,0,1.971-0.861,2.441,1.206s0.283,3.852-1.314,3.665c-1.598-0.188-2.162-0.47-2.162-0.47s0.848,0,1.879-2.255
	c1.033-2.255-1.102-2.664-1.102-2.664"/>
<path fill="none" stroke="#000000" stroke-width="2" stroke-linecap="round" stroke-linejoin="round" stroke-miterlimit="10" d="
	M46.948,46.522c0,0,3.101-1.786,2.067-7.706c-1.034-5.92-3.758-9.209-10.148-6.484c3.194,2.538,5.075,3.666,1.973,5.545
	c-3.101,1.879-5.916,6.653,1.315,9.396c-3.57-3.758-3.665-4.041-3.195-6.954s4.416-2.255,3.947-4.792
	c-0.47-2.537-3.57-1.691-3.57-1.691s2.161-2.162,4.792-0.658c2.631,1.504,6.295,1.503,4.134,13.813"/>
<path fill="none" stroke="#000000" stroke-width="2" stroke-linecap="round" stroke-linejoin="round" stroke-miterlimit="10" d="
	M38.19,45.659c0,0-9.299,4.018-9.394,4.395c-0.094,0.377,8.977-5.062,8.977-5.062"/>
<path fill="none" stroke="#000000" stroke-width="2" stroke-linecap="round" stroke-linejoin="round" stroke-miterlimit="10" d="
	M40.188,37.798c0,0-3.843-4.378-7.508-4.66c1.033,2.913,3.085,4.081,2.146,6.806c-0.94,2.725-1.315,3.758,0.939,6.296
	c-1.316-2.631-1.797-5.526-0.669-7.406c0.375-0.752-2.246-3.617-3.28-3.71c3.194,0.188,6.835,1.852,7.681,2.416"/>
</svg>
