<?xml version="1.0" encoding="utf-8"?>
<!-- Generator: Adobe Illustrator 16.0.4, SVG Export Plug-In . SVG Version: 6.00 Build 0)  -->
<!DOCTYPE svg PUBLIC "-//W3C//DTD SVG 1.1//EN" "http://www.w3.org/Graphics/SVG/1.1/DTD/svg11.dtd">
<svg version="1.1" xmlns="http://www.w3.org/2000/svg" xmlns:xlink="http://www.w3.org/1999/xlink" x="0px" y="0px"
	 width="99.212px" height="99.213px" viewBox="0 0 99.212 99.213" enable-background="new 0 0 99.212 99.213" xml:space="preserve">
<g id="Ebene_6">
	
		<image display="none" overflow="visible" width="787" height="787" xlink:href="../../../Projekte/QRONOS/Time Tracking Tool/Icons/PNG without text/Redknee.png"  transform="matrix(0.1258 0 0 0.1258 0 0)">
	</image>
	<g id="Ebene_5">
		<path fill="#E5E5E5" d="M9.273,30.773c0,0,5-15.667,14.833-20s21-8.667,37-5.167s25.334,12.666,29.5,20.833s6.465,16.026,3,33.167
			c-3.167,15.667-17,29.334-29.5,32.167c-12.576,2.851-31.667,5.167-53.833-22c-19-23.334,6-56.334,17.167-61.167
			c4.833-2.167,23.167-11.167,42,0.167s29.166,33.667,25.833,46.333c-2.057,7.814-3.5,28-26.5,36.833
			c-10.447,4.012-23.143,5.053-33.5,1c-19.167-7.5-31.57-22.507-31-44.167c0.5-19,3.833-22.667,3.833-22.667"/>
	</g>
	<g id="Ebene_5_Kopie">
	</g>
</g>
<g id="Ebene_9">
</g>
<g id="Ebene_3" display="none">
	<g id="Ebene_4" display="inline">
		<path fill="#EAEAEA" d="M83.423,41.531c0,0-2.694,0.707-1.919,5.422s6.689,1.929,7.226,1.06c0.535-0.87,2.395-4.083-1.583-6.074
			C83.17,39.948,83.423,41.531,83.423,41.531z"/>
		<path fill="#ABD3DD" d="M78.097,60.719c0,0-3.085-1.947-5.202,0.638c-2.117,2.587-0.369,5.973,1.708,6.821
			c2.076,0.85,4.722-1.374,5.73-3.236C81.344,63.079,78.097,60.719,78.097,60.719z"/>
		<path fill="#ABD3DD" d="M51.648,86.064c0,0,2.376-3.859,0.769-6.014c-1.607-2.154-5.942-3.12-7.663,0.534
			c-1.723,3.657,1.722,5.427,2.284,5.824C47.6,86.805,51.648,86.064,51.648,86.064z"/>
		<path fill="#EAEAEA" d="M30.518,68.012c0,0,3.768-2.727,2.093-5.399c-1.674-2.674-6.359-3.268-7.577,0.235
			C23.817,66.352,25.127,69.136,30.518,68.012z"/>
		<path fill="#ABD3DD" d="M50.017,42.19c0,0-3.403-3.556-6.418,1.768c-1.982,3.74,3.313,5.611,4.816,5.352
			c1.236,0.002,3.234-1.857,3.042-4.415C51.263,42.337,50.017,42.19,50.017,42.19z"/>
		<path fill="#548E5B" d="M24.82,45.027c0,0,1.631-3.391-0.126-5.883c-1.756-2.492-6.479-1.35-7.077,2.246
			c-0.598,3.595,3.251,4.787,4.933,4.831C24.231,46.264,24.82,45.027,24.82,45.027z"/>
		<path fill="#BA352C" d="M35.025,16.14c-1.447-0.257-4.614-0.793-5.222,3.485c-0.607,4.277,3.062,5.594,5.273,4.855
			c2.212-0.739,2.62-3.001,2.531-3.974C37.519,19.533,36.471,16.397,35.025,16.14z"/>
		<path fill="#ABD3DD" d="M57.046,11.134c0,0-3.024,2.144-1.639,5.096c1.385,2.953,4.883,3.01,5.765,2.753
			c0.882-0.258,3.932-2.114,2.068-5.778C61.377,9.541,58.177,10.177,57.046,11.134z"/>
	</g>
</g>
<g id="Ebene_2">
	<g>
		<g>
			<path fill="#EFEFEF" d="M66.487,15.975C79.17,26.84,88.11,45.75,82.578,62.341c-2.09,6.267-7.83,13.096-13.168,16.855
				c-7.452,5.25-19.082,8.141-28.058,6.922c0,3.214,0,6.429,0,9.643c9.366-1.567,19.532-4.538,27.687-9.523
				c7.116-4.35,11.9-12.021,15.112-19.511c7.337-17.101,3.845-36.21-8.343-50.073c-3.545-4.033-9.288,0.321-8.356,4.865
				c1.113,5.427,3.016,10.616,4.452,15.957c1.593,5.923,0.686,10.97-1.463,16.584C66.733,63.74,59.71,73.503,50.75,78.872
				c-5.524,3.31-0.499,11.958,5.047,8.635c10.948-6.56,18.941-17.796,23.736-29.451c2.488-6.048,3.953-12.066,2.93-18.626
				c-1.097-7.029-3.941-13.611-5.368-20.569c-2.786,1.622-5.571,3.243-8.357,4.865c9.547,10.859,11.915,25.984,6.207,39.291
				c-2.603,6.065-6.42,11.816-12.12,15.301c-6.956,4.252-16.172,6.47-24.13,7.802c-4.729,0.792-4.857,8.983,0,9.643
				c11.366,1.544,23.594-1.091,33.647-6.61c8.441-4.635,14.881-13.341,18.954-21.89c9.299-19.523-2.572-45.367-17.736-58.357
				C68.69,4.733,61.583,11.773,66.487,15.975L66.487,15.975z"/>
		</g>
	</g>
	<g id="Verbindungen">
		
			<polyline fill="none" stroke="#8C8C8E" stroke-width="2" stroke-linecap="round" stroke-linejoin="round" stroke-miterlimit="10" points="
			59.523,71.439 59.764,50.387 58.183,73.165 		"/>
		
			<line fill="none" stroke="#8C8C8E" stroke-width="2" stroke-linecap="round" stroke-linejoin="round" stroke-miterlimit="10" x1="28.273" y1="66.439" x2="54.517" y2="76.114"/>
		
			<polyline fill="none" stroke="#8C8C8E" stroke-width="2" stroke-linecap="round" stroke-linejoin="round" stroke-miterlimit="10" points="
			55.728,46.466 28.166,61.432 55.514,46.928 		"/>
		
			<polyline fill="none" stroke="#8C8C8E" stroke-width="2" stroke-linecap="round" stroke-linejoin="round" stroke-miterlimit="10" points="
			55.524,42.979 29.538,33.28 54.392,43.019 		"/>
		
			<polyline fill="none" stroke="#8C8C8E" stroke-width="2" stroke-linecap="round" stroke-linejoin="round" stroke-miterlimit="10" points="
			29.519,29.897 52.523,23.182 29.626,30.33 		"/>
		
			<line fill="none" stroke="#8C8C8E" stroke-width="2" stroke-linecap="round" stroke-linejoin="round" stroke-miterlimit="10" x1="57.894" y1="29.469" x2="59.382" y2="41.052"/>
		
			<polyline fill="none" stroke="#8C8C8E" stroke-width="2" stroke-linecap="round" stroke-linejoin="round" stroke-miterlimit="10" points="
			74.826,32.201 62.487,41.196 74.042,31.545 		"/>
		
			<line fill="none" stroke="#8C8C8E" stroke-width="2" stroke-linecap="round" stroke-linejoin="round" stroke-miterlimit="10" x1="64.523" y1="46.439" x2="74.517" y2="48.805"/>
	</g>
	
		<path fill="#65656B" stroke="#000000" stroke-width="2" stroke-linecap="round" stroke-linejoin="round" stroke-miterlimit="10" d="
		M63.627,80.539c0,0,2.633-4.595-1.455-6.379c-6.181-2.697-8.842,2.881-5.965,5.753c3.66,4.214,9.801,2.146,7.964-3.705
		c-2.59-6.706-11.538-0.389-9.356,3.382C56.996,83.361,61.307,82.691,63.627,80.539"/>
	
		<path fill="#65656B" stroke="#000000" stroke-width="2" stroke-linecap="round" stroke-linejoin="round" stroke-miterlimit="10" d="
		M82.515,51.424c0.467-1.024,1.432-4.202-2.26-5.905c-4.533-2.092-7.097,3.093-6.035,5.501c1.061,2.409,4.557,3.503,7.062,0.856
		c1.432-1.512,0.523-4.46-1.152-5.648c-1.674-1.188-4.879-0.97-5.398,1.814c-0.428,5.301,2.867,6.42,5.041,6.146
		C81.064,53.844,82.294,51.904,82.515,51.424z"/>
	
		<path fill="#65656B" stroke="#000000" stroke-width="2" stroke-linecap="round" stroke-linejoin="round" stroke-miterlimit="10" d="
		M64.312,46.946c0,0,1.013-4.143-3.194-5.985c-6.044-2.648-6.934,4.16-6.41,5.303c0.17,1.583,3.188,4.481,6.811,3.149
		c3.622-1.333,4.396-5.935,1.824-8.176c-2.571-2.239-7.295-1.272-7.548,2.674c-0.252,3.945,3.161,7.473,7.602,5.016"/>
	
		<path fill="#65656B" stroke="#000000" stroke-width="2" stroke-linecap="round" stroke-linejoin="round" stroke-miterlimit="10" d="
		M80.517,30.087c0,0,2.202-5.063-2.887-6.31c-5.09-1.247-5.662,2.083-4.849,4.808s2.503,4.75,6.113,3.517
		c3.611-1.233,2.43-4.958,0.583-6.641c-1.848-1.684-4.565-3.732-7.094,0.766C69.855,30.724,78.089,35.045,80.517,30.087z"/>
	
		<path fill="#65656B" stroke="#000000" stroke-width="2" stroke-linecap="round" stroke-linejoin="round" stroke-miterlimit="10" d="
		M59.891,27.984c0,0,3.984-3.642-1.813-6.722c-3.536-1.902-5.371,3.803-4.625,5.083c0.746,1.282,1.254,3.657,5.07,2.344
		c3.816-1.312,4.408-5.052,0.76-7.94c-3.571-2.186-6.329,1.256-6.457,2.9c-0.136,1.743-0.367,5.715,5.067,5.819"/>
	
		<path fill="#65656B" stroke="#000000" stroke-width="2" stroke-linecap="round" stroke-linejoin="round" stroke-miterlimit="10" d="
		M28.846,33.526c0.385-1.088,2.07-4.184-1.522-6.05c-3.593-1.868-6.133,0.66-6.508,2.955c-0.375,2.294,1.835,6.264,6.033,5.188
		c4.199-1.075,3.46-7.038,1.47-8.369c-1.989-1.331-5.119-1.979-7.389,1.749c-2.271,3.726,2.574,7.192,5.242,6.308
		C28.839,34.421,28.459,34.614,28.846,33.526z"/>
	
		<path fill="#65656B" stroke="#000000" stroke-width="2" stroke-linecap="round" stroke-linejoin="round" stroke-miterlimit="10" d="
		M28.303,64.542c0,0,2.327-4.818-2.866-6.501c-5.193-1.685-6.416,4.225-5.613,5.604c0.802,1.376,2.898,4.937,7.173,2.38
		c4.277-2.555,1.355-6.856-1.309-7.44c-2.666-0.584-7.186,2.938-5.529,6.511c1.659,3.574,6.211,2.272,7.591-0.234"/>
	<path fill="none" stroke="#000000" stroke-width="2" stroke-linecap="round" stroke-linejoin="round" stroke-miterlimit="10" d="
		M9.273,30.773c0,0,5-15.667,14.833-20s21-8.667,37-5.167s25.334,12.666,29.5,20.833s6.465,16.026,3,33.167
		c-3.167,15.667-17,29.334-29.5,32.167c-12.576,2.851-31.667,5.167-53.833-22c-19-23.334,6-56.334,17.167-61.167
		c4.833-2.167,23.167-11.167,42,0.167s29.166,33.667,25.833,46.333c-2.057,7.814-3.5,28-26.5,36.833
		c-10.447,4.012-23.143,5.053-33.5,1c-19.167-7.5-31.57-22.507-31-44.167c0.5-19,3.833-22.667,3.833-22.667"/>
</g>
<g id="Ebene_7" display="none">
	<path display="inline" fill="#E5E5E5" d="M9.273,30.773c0,0,5-15.667,14.833-20s21-8.667,37-5.167s25.334,12.666,29.5,20.833
		s6.465,16.026,3,33.167c-3.167,15.667-17,29.334-29.5,32.167c-12.576,2.851-31.667,5.167-53.833-22
		c-19-23.334,6-56.334,17.167-61.167c4.833-2.167,23.167-11.167,42,0.167s29.166,33.667,25.833,46.333
		c-2.057,7.814-3.5,28-26.5,36.833c-10.447,4.012-23.143,5.053-33.5,1c-19.167-7.5-31.57-22.507-31-44.167
		c0.5-19,3.833-22.667,3.833-22.667"/>
	<g display="inline">
		<g>
			<path fill="#FFFFFF" d="M27.273,27.273c8.522-0.563,14.752-5.474,22.496-8.345c-1.622-2.786-3.243-5.571-4.865-8.357
				c-6.151,6.053-11.319,13.413-16.657,20.165c-5.455,6.901-11.913,13.906-16.125,21.68c-2.25,4.152,2.484,9.809,6.841,6.841
				c11.528-7.854,20.114-19.923,29.918-29.699c3.265-3.255,6.49-5.258,10.57-7.383c1.151-0.6,2.321-1.163,3.499-1.708
				c4.375-2.023-4.423-1.812-3.597-5.788c0.012-0.057,0.27-0.425-0.387,0.709c-0.438,0.757-0.949,1.472-1.455,2.184
				c-6.469,9.109-14.775,17.159-22.41,25.274c-6.328,6.725-13.596,13.194-18.979,20.737c-3.168,4.438,2.763,8.836,6.841,6.841
				c3.609-1.767,6.753-4.797,9.767-7.4c5.108-4.413,10.017-9.061,14.925-13.692c7.552-7.126,16.781-17.387,24.308-22.407
				c5.387-3.593,0.742-11.466-5.047-8.635C57.963,22.668,51,31.465,44.576,38.809c-6.997,8-13.512,17.064-21.839,23.763
				c-3.812,3.066,0.293,10.219,4.865,8.356c9.328-3.799,16.966-11.213,24.393-17.812C59.69,46.277,67.527,37.746,77.13,33.59
				c-2.021-2.618-4.04-5.235-6.06-7.853C56.122,38.077,39.002,50.671,28.706,67.416c-3.09,5.025,3.74,9.734,7.853,6.059
				C50.091,61.381,64.907,49.547,80.63,40.424c-2.28-2.28-4.561-4.561-6.841-6.841c-9.148,13.222-21.151,24.441-31.552,36.655
				c-3.731,4.381,0.866,10.362,6.059,7.853c12.186-5.889,20.049-18.192,31.834-24.667c-2.02-2.618-4.039-5.235-6.059-7.853
				c-4.325,4.062-7.995,8.969-11.74,13.551c-3.783,4.629-7.792,9.266-11.042,14.294c-1.709,2.645-0.082,6.646,2.988,7.345
				c3.804,0.867,8.523-0.007,12.325-0.666c6.345-1.1,3.647-10.735-2.658-9.643c1.14-0.197-2.456,0.245-3.043,0.298
				c-1.006,0.091-2.014,0.157-3.022,0.22c-0.217,0.013-2.515-0.21-0.943,0.148c0.996,2.448,1.992,4.896,2.988,7.345
				c3.001-4.644,6.717-8.892,10.209-13.164c3.504-4.287,6.962-8.855,11.009-12.657c4.24-3.982-1.169-10.539-6.059-7.853
				c-11.799,6.482-19.694,18.8-31.834,24.667c2.02,2.617,4.039,5.235,6.059,7.853C60.274,64.432,72.775,52.576,82.424,38.63
				c2.95-4.264-2.709-9.239-6.841-6.841c-16.429,9.533-31.956,21.978-46.096,34.615c2.618,2.02,5.235,4.039,7.853,6.059
				c9.781-15.906,26.598-27.931,40.802-39.654c4.765-3.933-1.31-9.908-6.059-7.853c-8.771,3.795-16.162,11.292-23.199,17.557
				c-7.161,6.375-14.879,15.083-23.94,18.773c1.622,2.785,3.243,5.571,4.865,8.356c7.635-6.142,13.714-14.354,20.08-21.734
				c6.327-7.336,13.172-16.628,22.075-20.983c-1.682-2.878-3.365-5.756-5.047-8.635c-8.775,5.853-16.207,14.375-23.818,21.592
				c-5.053,4.792-10.121,9.569-15.317,14.206c-3.024,2.699-6.176,5.897-9.864,7.702c2.28,2.28,4.561,4.561,6.841,6.841
				c-0.104,0.146-0.394,0.466,0.43-0.503c0.549-0.646,1.118-1.274,1.685-1.903c1.595-1.77,3.228-3.505,4.857-5.242
				c4.661-4.966,9.361-9.896,14.014-14.871c4.758-5.086,9.479-10.212,14.018-15.495c2.979-3.468,6.366-7.107,8.41-11.237
				c2.555-5.162-0.736-10.787-6.915-8.926c-5.149,1.551-10.812,4.625-15.02,8.015c-11.773,9.482-19.789,23.618-32.32,32.155
				c2.28,2.28,4.561,4.561,6.841,6.841c3.991-7.365,10.081-13.988,15.25-20.527c5.111-6.466,10.078-13.498,15.968-19.293
				c3.397-3.343-0.03-10.15-4.865-8.357c-6.542,2.425-12.743,7.519-19.838,7.988C20.873,17.696,20.832,27.698,27.273,27.273
				L27.273,27.273z"/>
		</g>
	</g>
	<g id="Verbindungslinien" display="inline">
		
			<line fill="none" stroke="#F5952F" stroke-width="2" stroke-linecap="round" stroke-linejoin="round" stroke-miterlimit="10" x1="53.255" y1="66.556" x2="37.398" y2="64.189"/>
		
			<line fill="none" stroke="#F5952F" stroke-width="2" stroke-linecap="round" stroke-linejoin="round" stroke-miterlimit="10" x1="35.023" y1="48.689" x2="42.432" y2="38.3"/>
		
			<line fill="none" stroke="#F5952F" stroke-width="2" stroke-linecap="round" stroke-linejoin="round" stroke-miterlimit="10" x1="59.13" y1="58.306" x2="55.932" y2="43.05"/>
		
			<line fill="none" stroke="#F5952F" stroke-width="2" stroke-linecap="round" stroke-linejoin="round" stroke-miterlimit="10" x1="94.523" y1="51.189" x2="65.38" y2="67.556"/>
		
			<line fill="none" stroke="#F5952F" stroke-width="2" stroke-linecap="round" stroke-linejoin="round" stroke-miterlimit="10" x1="26.023" y1="57.189" x2="4.523" y2="50.564"/>
		
			<line fill="none" stroke="#F5952F" stroke-width="2" stroke-linecap="round" stroke-linejoin="round" stroke-miterlimit="10" x1="29.523" y1="68.814" x2="16.023" y2="80.189"/>
		
			<line fill="none" stroke="#F5952F" stroke-width="2" stroke-linecap="round" stroke-linejoin="round" stroke-miterlimit="10" x1="64.19" y1="31.523" x2="94.773" y2="44.689"/>
		
			<line fill="none" stroke="#F5952F" stroke-width="2" stroke-linecap="round" stroke-linejoin="round" stroke-miterlimit="10" x1="56.182" y1="18.05" x2="62.273" y2="6.064"/>
		
			<line fill="none" stroke="#F5952F" stroke-width="2" stroke-linecap="round" stroke-linejoin="round" stroke-miterlimit="10" x1="43.065" y1="21.273" x2="29.648" y2="8.689"/>
		
			<line fill="none" stroke="#F5952F" stroke-width="2" stroke-linecap="round" stroke-linejoin="round" stroke-miterlimit="10" x1="57.755" y1="76.056" x2="50.44" y2="95.273"/>
		
			<line fill="none" stroke="#F5952F" stroke-width="2" stroke-linecap="round" stroke-linejoin="round" stroke-miterlimit="10" x1="64.255" y1="73.681" x2="82.94" y2="82.773"/>
	</g>
	
		<path display="inline" fill="#65656B" stroke="#000000" stroke-width="2" stroke-linecap="round" stroke-linejoin="round" stroke-miterlimit="10" d="
		M43.96,17.776c0,0-1.897,19.474-1.391,20.232c0.506,0.759,21.371,1.265,21.371,1.265l0.379-20.359L43.96,17.776z"/>
	
		<path display="inline" fill="#575759" stroke="#000000" stroke-width="2" stroke-linecap="round" stroke-linejoin="round" stroke-miterlimit="10" d="
		M46.489,21.443c0,0-1.265,14.163-0.758,14.29c0.505,0.126,4.805,0.253,4.805,0.253l0.885-14.542H46.489z"/>
	
		<path display="inline" fill="none" stroke="#000000" stroke-width="2" stroke-linecap="round" stroke-linejoin="round" stroke-miterlimit="10" d="
		M48.133,36.364c0,0-0.885,4.426-2.15,4.805c-1.265,0.379-5.311,1.265-0.252,2.15s16.818,1.012,15.933-0.506
		c-0.885-1.518-9.863-1.138-11.001-1.77c-0.797-0.443-0.759-1.897-0.759-1.897"/>
	
		<path display="inline" fill="#65656B" stroke="#000000" stroke-width="2" stroke-linecap="round" stroke-linejoin="round" stroke-miterlimit="10" d="
		M27.523,48.939c0,0-2.25,18.875-1.5,19.25s10.375,0.625,10.375,0.625l1.375-19.375L27.523,48.939z"/>
	
		<polygon display="inline" fill="#B0AFB0" stroke="#000000" stroke-width="2" stroke-linecap="round" stroke-linejoin="round" stroke-miterlimit="10" points="
		29.648,51.689 28.273,65.689 34.398,66.064 35.523,51.814 	"/>
	
		<polygon display="inline" fill="#65656B" stroke="#000000" stroke-width="2" stroke-linecap="round" stroke-linejoin="round" stroke-miterlimit="10" points="
		54.005,58.806 54.112,75.476 64.273,75.773 64.38,58.905 	"/>
	
		<polygon display="inline" fill="#B0AFB0" stroke="#000000" stroke-width="2" stroke-linecap="round" stroke-linejoin="round" stroke-miterlimit="10" points="
		56.358,61.286 56.251,72.995 62.005,72.988 62.005,61.181 	"/>
	
		<path display="inline" fill="none" stroke="#000000" stroke-width="2" stroke-linecap="round" stroke-linejoin="round" stroke-miterlimit="10" d="
		M9.273,30.773c0,0,5-15.667,14.833-20s21-8.667,37-5.167s25.334,12.666,29.5,20.833s6.465,16.026,3,33.167
		c-3.167,15.667-17,29.334-29.5,32.167c-12.576,2.851-31.667,5.167-53.833-22c-19-23.334,6-56.334,17.167-61.167
		c4.833-2.167,23.167-11.167,42,0.167s29.166,33.667,25.833,46.333c-2.057,7.814-3.5,28-26.5,36.833
		c-10.447,4.012-23.143,5.053-33.5,1c-19.167-7.5-31.57-22.507-31-44.167c0.5-19,3.833-22.667,3.833-22.667"/>
</g>
</svg>
