<?xml version="1.0" encoding="utf-8"?>
<!-- Generator: Adobe Illustrator 16.0.0, SVG Export Plug-In . SVG Version: 6.00 Build 0)  -->
<!DOCTYPE svg PUBLIC "-//W3C//DTD SVG 1.1//EN" "http://www.w3.org/Graphics/SVG/1.1/DTD/svg11.dtd">
<svg version="1.1" id="Ebene_12" xmlns="http://www.w3.org/2000/svg" xmlns:xlink="http://www.w3.org/1999/xlink" x="0px" y="0px"
	 width="207.333px" height="406.288px" viewBox="0 0 207.333 406.288" enable-background="new 0 0 207.333 406.288"
	 xml:space="preserve">
<g>
	<g>
		<defs>
			<rect id="SVGID_1_" x="32.534" y="27.154" width="417.457" height="381.694"/>
		</defs>
		<clipPath id="SVGID_2_">
			<use xlink:href="#SVGID_1_"  overflow="visible"/>
		</clipPath>
		<g clip-path="url(#SVGID_2_)">
			<defs>
				<rect id="SVGID_3_" x="32.534" y="27.154" width="417.457" height="381.694"/>
			</defs>
			<clipPath id="SVGID_4_">
				<use xlink:href="#SVGID_3_"  overflow="visible"/>
			</clipPath>
			<path clip-path="url(#SVGID_4_)" d="M92.539,150c0,0-27.337,7.221,21.922,40.49c1.805,0.258,14.958,23.727,17.623,29.746
				c1.461,4.298,2.063,3.438,2.063,8.596c0,5.158-19.601,48.829-21.491,51.924c2.922,0.173,5.674-2.063,9.457-6.877
				c3.782-4.813,12.379-22.352,12.379-22.352s0.516,7.737-1.204,16.506s-4.126,14.099-1.547,19.772c0,0,3.954-2.235,8.425-18.225
				c0.171,6.189-0.516,24.586-11.864,89.748c0,0-3.61,20.978-3.955,23.384c-0.343,2.407-0.171,3.783-6.017,7.737
				s-16.162,8.77-16.162,13.583c0.344,1.203,3.439,2.234,26.306-7.565c10.316,1.892,28.542,7.05,30.604,4.471
				c0,0-1.891-4.298-20.289-13.411c-4.813-2.235-7.737-3.095-7.049-9.8c0,0,21.664-103.161,23.899-139.268
				c0,0-2.106-17.279-3.267-19.858c0,0,14.958-0.645,17.15-1.547c0,0,0.902-0.129,1.676-0.258s3.869-0.946,4.642-2.837
				c0,0,0.645-0.387,0.516-1.29c0.773-1.418-1.462-12.294-3.224-16.377c-1.674-3.877-26.435-56.609-34.945-59.317
				c-3.224-0.902-4.126,0.258-5.545,0.903s-4.255-0.516-5.158-2.192c-0.903-1.676-0.258-2.579,0.774-3.481
				c1.031-0.903-7.092-6.834-10.703-7.479c3.611,6.061,20.632,34.172,22.953,65.421c0,0-23.727-60.178-36.794-61.896
				c0,0-2.407,4.728-0.988,8.081c0.645,1.418,0.258,2.966-2.192,4.126c-0.773,0.258-1.676,0.387-1.676,0.387
				s1.805,1.418,3.095,1.805c1.29,0.387,2.45,1.161,2.45,1.161"/>
			<path clip-path="url(#SVGID_4_)" d="M167.33,217.484c0,0,1.891,1.376,2.236,0.859c0.343-0.516,0.902-0.944,0.902-1.375
				c0-0.43,0.322,0.602,1.01,1.117c0.687,0.516,2.137-1.03,2.739-1.461c0.602-0.43,2.23,0.086,2.23,0.086s1.716-1.376-0.433-3.353
				c0.344-0.688,1.719-0.946,0.343-1.805c-1.375-0.859-6.449,2.149-6.449,2.149l-2.579,1.978V217.484z"/>
			<path clip-path="url(#SVGID_4_)" d="M149.449,195.649c0,0-30.604-63.271-35.763-64.303c-2.579-1.547-16.505-4.557-15.99-5.846
				s4.699-1.629,8.769,0c0.43-0.172-3.008-3.868-3.008-3.868s-0.603-3.438,2.407-3.009c0.601-0.344,1.547-0.945,1.461-1.547
				c-0.086-0.602,3.525-1.461,3.869-2.149s3.181-1.375,4.384-0.086c1.633,0.086,0.859-1.375,1.719-0.516
				c0.86,0.859,1.118,0.774,2.235,3.095c1.117,2.321,1.892,6.275,2.063,6.877c0,0-1.117,3.009,0.343,4.642
				c1.462,1.634,38.857,64.991,38.857,64.991"/>
			<path clip-path="url(#SVGID_4_)" d="M68.64,123.437c0,0,41.952-35.075,45.391-36.106c-1.032-1.375-10.66,0.344-15.817,4.47
				c-5.158,4.126-9.285,9.973-21.32,15.13C70.015,113.809,65.202,123.78,68.64,123.437"/>
			<path clip-path="url(#SVGID_4_)" d="M87.896,80.012c0,0-15.134,9.953-18.161,13.164c-6.357-9.953-25.729-31.143-32.387-32.106
				c0.908-5.458,17.859-24.402,23.609-26.007C67.617,44.053,87.291,76.159,87.896,80.012"/>
			<path clip-path="url(#SVGID_4_)" fill="#F6931F" d="M76.893,106.931c0,0,13.411-6.189,21.32-15.13
				c0.687-3.095-2.408-2.75-2.408-2.75s0.688-1.376-0.343-1.72c-1.032-0.343-1.72-1.031-1.375-2.407
				c0.343-1.376-2.408-2.408-2.408-2.408s-1.032-3.438-3.782-3.438c-2.751,0-19.945,12.723-20.632,14.099
				c-0.688,1.375-1.376,2.75,0.687,1.719c2.063-1.032,0.688,1.376,0.688,1.376s-0.688,1.375,1.032,1.719
				c1.72,0.345,1.375,1.032,1.72,2.063c0.343,1.031-0.688,3.095,1.718,3.095c2.408,0,1.72,2.408,1.72,2.408
				S75.518,107.962,76.893,106.931"/>
		</g>
		<g clip-path="url(#SVGID_2_)">
			<defs>
				<rect id="SVGID_5_" x="32.534" y="27.154" width="417.457" height="381.694"/>
			</defs>
			<clipPath id="SVGID_6_">
				<use xlink:href="#SVGID_5_"  overflow="visible"/>
			</clipPath>
			<path clip-path="url(#SVGID_6_)" fill="#FFFFFF" d="M228.882,55.351l0.688,163.682c0,0,172.622,54.332,187.752,66.711
				c2.75-24.071,28.197-240.709,26.134-252.4C443.457,33.343,263.957,45.723,228.882,55.351"/>
			<path clip-path="url(#SVGID_6_)" fill="none" stroke="#000000" stroke-miterlimit="10" d="M228.882,55.351l0.688,163.682
				c0,0,172.622,54.332,187.752,66.711c2.75-24.071,28.197-240.709,26.134-252.4C443.457,33.343,263.957,45.723,228.882,55.351z"/>
			<path clip-path="url(#SVGID_6_)" d="M305.565,249.98c0,0-53.3,118.291-63.616,140.986c-12.035,2.063-7.908-3.095-7.908-3.095
				l69.805-145.113l12.036,4.814l15.474,134.452c-5.846,4.127-9.628,1.376-9.628,1.376l-10.832-135.484
				c0,0,2.234,137.547,4.986,154.741c-3.783,4.126-10.316,0-10.316,0l0.343-155.772"/>
			<path clip-path="url(#SVGID_6_)" fill="none" stroke="#000000" stroke-miterlimit="10" d="M420.417,282.992
				c0,0,29.573-243.116,25.102-249.649"/>
			<polyline clip-path="url(#SVGID_6_)" points="314.162,246.713 309.692,248.604 305.394,249.12 305.221,244.307 			"/>
			<path clip-path="url(#SVGID_6_)" fill="none" stroke="#000000" stroke-miterlimit="10" d="M397.378,102.804
				c0,0,5.158-4.126,6.877-0.343c1.719,3.782,3.095,4.126,2.407,1.031c-0.688-3.095-5.846-2.408-4.814,0
				c1.032,2.407,8.941-0.344,8.941-0.344l0.688,3.095l3.095-4.126c0,0-1.376,0.688,1.719,2.751c3.095,2.063,3.783-1.72,3.783-1.72"
				/>
			<path clip-path="url(#SVGID_6_)" fill="none" stroke="#000000" stroke-miterlimit="10" d="M397.378,108.994l0.688,4.126
				c0,0,0-5.846,1.719-2.751c1.719,3.095,3.439,4.814,3.439,4.814"/>
			<path clip-path="url(#SVGID_6_)" fill="none" stroke="#000000" stroke-miterlimit="10" d="M406.147,113.121v2.063l4.986-2.063
				l0.344,3.095l7.565-0.344c0,0,0-5.158-1.72-3.439"/>
			<path clip-path="url(#SVGID_6_)" fill="none" stroke="#000000" stroke-miterlimit="10" d="M396.174,119.225l-0.602,2.793
				l3.825-1.698c0,0-0.322,3.106,2.429,3.106c2.751,0,0.699-3.434,0.699-3.434l3.444,5.505l-1.029,4.471l3.784-7.65l1.376,3.697
				h4.814l-2.408-2.923l5.502,2.063"/>
			<path clip-path="url(#SVGID_6_)" fill="none" stroke="#000000" stroke-miterlimit="10" d="M399.441,89.394l0.344,4.126
				c0,0-2.75-5.501,2.408-3.095c5.158,2.407,3.095,4.47,3.095,4.47l-2.751-2.407l6.19-1.032l-0.344,3.095l3.782-2.751l1.72,3.439
				c0,0,6.19,3.782,6.878,2.407c0.687-1.375-0.688-5.502-0.688-5.502l3.783,1.032"/>
			<path clip-path="url(#SVGID_6_)" fill="none" stroke="#000000" stroke-miterlimit="10" d="M399.786,77.702l0.343,5.501
				l1.72-1.375l2.751,1.032c0,0,3.782-2.751,1.375-3.095c-2.407-0.344,2.751,4.126,2.751,4.126l8.252-2.407l0.688,2.75l2.063-3.095
				l2.751,2.063"/>
			<path clip-path="url(#SVGID_6_)" fill="none" stroke="#000000" stroke-miterlimit="10" d="M394.971,133.408l-1.032,3.438
				c0,0,2.408-5.845,3.783-5.501c1.375,0.344,3.782,4.47,3.782,4.47l-3.782,1.376c0,0,3.782-5.502,7.565-2.408
				c3.783,3.095,0.688,3.783,0.688,3.783"/>
			<path clip-path="url(#SVGID_6_)" fill="none" stroke="#000000" stroke-miterlimit="10" d="M412.165,136.16l-1.72,1.375
				l4.814,2.063c0,0,4.813-2.063,2.407-3.095"/>
			<path clip-path="url(#SVGID_6_)" fill="none" stroke="#000000" stroke-miterlimit="10" d="M396.002,148.882l3.783,2.063
				l1.375-4.814l-4.47-0.344c-5.501-5.501-4.126,3.438-4.126,3.438l2.063-6.876"/>
			<path clip-path="url(#SVGID_6_)" fill="none" stroke="#000000" stroke-miterlimit="10" d="M405.115,151.29v-4.126
				c0,0,0.172-1.032,4.986,1.375c4.814,2.408-2.321,1.032-2.321,1.032l4.557-2.75v5.501l4.986-1.72"/>
			<path clip-path="url(#SVGID_6_)" fill="none" stroke="#000000" stroke-miterlimit="10" d="M393.596,159.542
				c0,0,5.846,2.407,3.783-0.688c-2.063-3.095-6.19,2.751-6.19,2.751"/>
			<path clip-path="url(#SVGID_6_)" fill="none" stroke="#000000" stroke-miterlimit="10" d="M402.536,159.199l-2.063,3.783
				l-1.72-4.814l9.629,6.189c0,0,4.126-2.407,0-3.438c-4.126-1.032-5.502,2.063-5.502,2.063l9.972-0.345"/>
			<path clip-path="url(#SVGID_6_)" fill="none" stroke="#000000" stroke-miterlimit="10" d="M248.569,85.009l-0.258,7.737
				c0,0,46.165-1.573,46.165-0.258c0,3.353,0.197,1.993-0.924,14.947"/>
			<polyline clip-path="url(#SVGID_6_)" fill="none" stroke="#000000" stroke-miterlimit="10" points="293.186,122.405 
				292.928,128.336 256.822,128.079 256.306,141.49 			"/>
			<polygon clip-path="url(#SVGID_6_)" fill="none" stroke="#000000" stroke-miterlimit="10" points="248.053,141.49 247.795,154.9 
				265.333,155.674 265.849,142.263 			"/>
			<path clip-path="url(#SVGID_6_)" fill="none" stroke="#000000" stroke-miterlimit="10" d="M256.306,155.158
				c0,0-0.258,8.769,0.258,10.058c0.516,1.29,71.955,5.674,71.955,5.674l0.516-5.158l-3.353,3.095"/>
			
				<line clip-path="url(#SVGID_6_)" fill="none" stroke="#000000" stroke-miterlimit="10" x1="329.034" y1="165.732" x2="331.871" y2="169.601"/>
			<polygon clip-path="url(#SVGID_6_)" fill="none" stroke="#000000" stroke-miterlimit="10" points="318.847,151.419 
				318.203,164.185 338.061,165.216 338.061,152.321 			"/>
			<polyline clip-path="url(#SVGID_6_)" fill="none" stroke="#000000" stroke-miterlimit="10" points="325.682,147.937 
				329.034,151.29 329.55,115.441 300.923,114.668 			"/>
			
				<line clip-path="url(#SVGID_6_)" fill="none" stroke="#000000" stroke-miterlimit="10" x1="332.387" y1="147.937" x2="329.034" y2="151.29"/>
			<path clip-path="url(#SVGID_6_)" d="M342.445,110.799c-0.172,4.041-0.344,8.081-0.516,12.122
				c-0.012,0.28,0.244,0.516,0.516,0.516h17.021c0.294,0,0.498-0.235,0.516-0.516c0.258-4.212,0.516-8.425,0.774-12.637
				c0.017-0.276-0.248-0.524-0.516-0.516c-5.759,0.172-11.52,0.344-17.279,0.516c-0.665,0.02-0.666,1.051,0,1.031
				c5.76-0.172,11.52-0.343,17.279-0.516l-0.516-0.516c-0.258,4.212-0.516,8.425-0.774,12.637l0.516-0.516h-17.021l0.516,0.516
				c0.172-4.041,0.344-8.081,0.516-12.122C343.504,110.134,342.473,110.136,342.445,110.799"/>
			<path clip-path="url(#SVGID_6_)" fill="none" stroke="#000000" stroke-miterlimit="10" d="M293.552,108.467
				c0,0-9.69-0.912-8.637,7.664s13.061,4.743,14.535,3.283C300.925,117.955,303.662,108.832,293.552,108.467z"/>
			<polygon clip-path="url(#SVGID_6_)" fill="none" stroke="#000000" stroke-miterlimit="10" points="241.348,85.009 
				256.822,84.751 257.338,73.404 241.864,74.435 			"/>
			<path clip-path="url(#SVGID_6_)" fill="none" stroke="#000000" stroke-miterlimit="10" d="M290.607,103.578
				c1.032,1.032,2.944,3.857,2.944,3.857l3.503-3.084"/>
			<polyline clip-path="url(#SVGID_6_)" fill="none" stroke="#000000" stroke-miterlimit="10" points="252.695,137.879 
				256.306,141.49 259.917,138.137 			"/>
			<polyline clip-path="url(#SVGID_6_)" fill="none" stroke="#000000" stroke-miterlimit="10" points="288.544,177.854 
				291.526,180.948 300.439,187.912 290.93,195.133 282.225,186.88 291.639,180.948 291.639,168.827 			"/>
			
				<line clip-path="url(#SVGID_6_)" fill="none" stroke="#000000" stroke-miterlimit="10" x1="294.991" y1="177.596" x2="291.639" y2="180.948"/>
			<polyline clip-path="url(#SVGID_6_)" fill="none" stroke="#000000" stroke-miterlimit="10" points="329.55,115.441 
				341.929,115.958 338.834,112.089 			"/>
			
				<line clip-path="url(#SVGID_6_)" fill="none" stroke="#000000" stroke-miterlimit="10" x1="338.319" y1="119.052" x2="341.929" y2="115.958"/>
			<path clip-path="url(#SVGID_6_)" fill="none" stroke="#000000" stroke-miterlimit="10" d="M324.392,73.919
				c0,0,3.095,2.063,1.032,3.61c-2.063,1.548,3.61-4.9,3.61-4.9l2.837,4.642"/>
			
				<line clip-path="url(#SVGID_6_)" fill="none" stroke="#000000" stroke-miterlimit="10" x1="336.255" y1="72.63" x2="333.935" y2="77.53"/>
			<path clip-path="url(#SVGID_6_)" fill="none" stroke="#000000" stroke-miterlimit="10" d="M333.418,73.919
				c1.29,0.773,2.321-1.032,3.869,2.063c1.547,3.095-0.773,5.416-1.032,4.126c-0.258-1.29,1.032,1.032,4.126,0
				c3.095-1.031,2.321-3.353,2.321-3.353l-3.353-2.321c0,0,1.805,5.158,6.189,5.158"/>
			<path clip-path="url(#SVGID_6_)" fill="none" stroke="#000000" stroke-miterlimit="10" d="M329.808,81.141
				c0,0,2.837,3.095,2.063,4.9c-0.773,1.806-5.674,2.063-2.321-0.258c3.353-2.321,5.674-1.29,5.674-1.29s-1.806,0-0.258,3.095
				c1.547,3.095,4.384,1.031,4.384,1.031"/>
			
				<line clip-path="url(#SVGID_6_)" fill="none" stroke="#000000" stroke-miterlimit="10" x1="338.061" y1="86.299" x2="340.382" y2="84.751"/>
			<path clip-path="url(#SVGID_6_)" fill="none" stroke="#000000" stroke-miterlimit="10" d="M333.677,64.893
				c0,0.773-15.99,4.9-16.506,13.926c-0.516,9.027,10.832,21.664,27.08,11.606c16.248-10.059,5.674-19.343,0.516-20.89
				c-10.389-3.117-25.274-7.221-25.79,8.253c-0.612,18.346,27.229,20.82,32.753,11.348c9.027-15.474-18.053-23.469-23.727-23.727"/>
			<path clip-path="url(#SVGID_6_)" d="M321.448,92.897c-4.813,4.66-8.495,10.246-12.637,15.474
				c-0.408,0.516,0.317,1.25,0.729,0.729c4.141-5.226,7.826-10.816,12.637-15.474C322.656,93.163,321.926,92.434,321.448,92.897"/>
			<path clip-path="url(#SVGID_6_)" d="M308.163,104.747c0.21,1.412,0.238,2.823,0.239,4.248c0,0.338,0.329,0.583,0.653,0.497
				c2.197-0.575,4.393-1.402,6.312-2.631c0.396-0.252,0.294-0.788-0.123-0.943c-2.198-0.816-4.42-1.537-6.706-2.063
				c-0.648-0.148-0.922,0.846-0.274,0.995c2.285,0.526,4.508,1.247,6.706,2.063c-0.042-0.314-0.082-0.628-0.124-0.942
				c-1.851,1.185-3.946,1.973-6.065,2.526l0.653,0.498c-0.001-1.518-0.053-3.018-0.277-4.522
				C309.06,103.816,308.066,104.097,308.163,104.747"/>
			<path clip-path="url(#SVGID_6_)" d="M308.038,105.232c1.147,1.383,2.665,2.377,4.354,2.969c0.629,0.222,0.897-0.776,0.273-0.993
				c-1.528-0.537-2.865-1.459-3.898-2.705C308.342,103.99,307.615,104.725,308.038,105.232"/>
			<path clip-path="url(#SVGID_6_)" d="M355.491,88.727c12.226,9.916,16.011,27.82,15.458,42.815
				c-0.271,7.377-1.695,15.687-5.858,21.946c-4.726,7.106-15.365,4.459-22.524,5.558c-0.656,0.1-0.376,1.094,0.273,0.993
				c7.609-1.166,17.049,1.337,22.644-5.366c4.711-5.645,5.954-14.747,6.428-21.802c1.046-15.543-3.029-34.604-15.691-44.874
				C355.709,87.583,354.975,88.308,355.491,88.727"/>
			<path clip-path="url(#SVGID_6_)" d="M344.402,156.599c-1.391,1.373-2.882,2.62-4.385,3.868c-0.268,0.223-0.151,0.643,0.104,0.81
				c1.555,1.017,3.198,1.841,4.9,2.579c0.297,0.129,0.667,0.043,0.757-0.309c0.52-1.986,0.534-4.027,0.536-6.068
				c0-0.531-0.688-0.681-0.962-0.261c-0.992,1.52-1.846,3.123-2.837,4.643c-0.365,0.559,0.529,1.076,0.891,0.521
				c0.992-1.52,1.845-3.122,2.837-4.642c-0.32-0.086-0.641-0.174-0.96-0.26c-0.001,1.948-0.001,3.896-0.497,5.794
				c0.251-0.103,0.504-0.206,0.757-0.309c-1.702-0.737-3.346-1.562-4.9-2.579l0.104,0.81c1.502-1.248,2.994-2.495,4.384-3.869
				C345.605,156.86,344.875,156.131,344.402,156.599"/>
			<path clip-path="url(#SVGID_6_)" fill="none" stroke="#000000" stroke-miterlimit="10" d="M312.443,202.87
				c0,0,1.72,6.189,0,6.533c-1.72,0.344,2.063-4.126,2.063-4.126l1.031,4.126"/>
			<path clip-path="url(#SVGID_6_)" fill="none" stroke="#000000" stroke-miterlimit="10" d="M320.352,205.277
				c0,0-4.815-0.344-3.095,2.751c1.72,3.095,4.126,2.407,4.126,2.407l0.344-3.783l4.471,0.688"/>
			<path clip-path="url(#SVGID_6_)" fill="none" stroke="#000000" stroke-miterlimit="10" d="M322.759,209.748l1.72,2.751
				c0,0-1.376-2.064,2.406-1.376c3.783,0.688,9.972-3.095,5.502-3.095"/>
			<path clip-path="url(#SVGID_6_)" fill="none" stroke="#000000" stroke-miterlimit="10" d="M309.004,214.218
				c0,0,7.221-0.688,6.877,1.72c-0.345,2.406-4.471,5.845-4.471,3.438c0-2.407,6.189-3.782,6.189-3.782l5.846,4.47"/>
			<path clip-path="url(#SVGID_6_)" fill="none" stroke="#000000" stroke-miterlimit="10" d="M319.32,219.721
				c0,0,4.126-1.719,1.375-4.127"/>
			<path clip-path="url(#SVGID_6_)" d="M342.188,216.969c0.75-7.153,1.097-16.872-5.062-21.977c-4.23-3.508-10.26-2.87-15.124-1.273
				c-5.276,1.733-10.398,4.877-14.201,8.939c-4.779,5.105-5.56,13.534,0.332,18.038c7.596,5.806,20.833,8.327,29.238,3.017
				c4.404-2.781,6.984-8.226,6.847-13.335c-0.152-5.602-3.919-10.334-8.145-13.626c-8.241-6.423-22.456-3.694-29.642,3.197
				c-2.588,2.481-2.135,6.485-2.278,9.742c-0.221,5.075-0.226,9.101,3.887,12.624c10.422,8.926,30.178,7.126,34.129-7.613
				c0.172-0.644-0.822-0.916-0.994-0.274c-2.708,10.102-13.066,13.446-22.549,11.892c-4.158-0.682-8.174-2.924-11.121-5.907
				c-3.824-3.873-2.503-10.615-2.111-15.539c0.428-5.398,6.865-7.922,11.302-9.383c6.621-2.181,14.353-1.738,19.797,2.934
				c5.425,4.655,8.504,11.505,5.386,18.401c-2.919,6.458-9.386,8.748-16.019,8.631c-5.511-0.099-11.28-1.809-15.908-4.804
				c-2.879-1.861-4.866-4.046-5.019-7.605c-0.093-2.167,0.511-4.755,1.464-6.715c2.21-4.554,7.575-7.828,11.926-9.985
				c4.924-2.439,11.395-4.266,16.587-1.591c7.544,3.887,6.982,15.189,6.246,22.216C341.087,217.632,342.119,217.624,342.188,216.969
				"/>
			<path clip-path="url(#SVGID_6_)" d="M319.492,191.866c-0.386-10.779-5.417-20.747-9.979-30.291
				c-2.499-5.228-5.024-10.458-6.764-15.996c-1.904-6.056-3.82-12.11-6.366-17.933c-0.267-0.608-1.156-0.083-0.892,0.52
				c2.511,5.741,4.387,11.718,6.263,17.688c1.508,4.804,3.607,9.371,5.759,13.916c4.798,10.137,10.537,20.635,10.946,32.096
				C318.484,192.53,319.516,192.532,319.492,191.866"/>
			<path clip-path="url(#SVGID_6_)" d="M294.409,128.114c-0.316,1.708-0.374,3.45-0.688,5.158c-0.091,0.49,0.472,0.885,0.861,0.501
				c1.389-1.365,2.906-2.591,4.71-3.357c0.386-0.164,0.284-0.701,0-0.89c-1.239-0.836-2.455-1.694-3.905-2.116
				c-0.641-0.186-1.125,0.81-0.488,0.995c1.361,0.396,2.414,1.229,3.445,2.011v-0.89c-1.032,0.797-3.261,2.097-4.706,3.519
				c0.289,0.167,0.682,0.335,0.969,0.502c0.316-1.709,0.427-3.45,0.742-5.158C295.469,127.737,294.529,127.46,294.409,128.114"/>
			<path clip-path="url(#SVGID_6_)" d="M295.25,131.518c0-0.001,1.399-0.069,2.151-0.415c0.604-0.278,0.166-1.167-0.435-0.891
				c-0.574,0.263-1.716,0.273-1.716,0.273C294.218,130.487,294.218,131.519,295.25,131.518
				C295.25,131.518,294.218,131.518,295.25,131.518"/>
			<path clip-path="url(#SVGID_6_)" d="M351.834,207.204c-0.288,1.366-0.058,2.765-0.344,4.126c-0.058,0.272,0.076,0.56,0.36,0.636
				c2.175,0.569,5.356,0.149,5.681-2.605c0.318-2.679-2.615-3.308-4.649-2.861c-0.65,0.144-0.375,1.137,0.273,0.995
				c1.332-0.292,3.669-0.097,3.345,1.84c-0.336,2.01-2.864,2.034-4.376,1.636c0.121,0.211,0.241,0.423,0.36,0.635
				c0.289-1.366,0.058-2.765,0.344-4.126C352.966,206.829,351.971,206.553,351.834,207.204"/>
			<path clip-path="url(#SVGID_6_)" d="M352.178,211.674c-1.299,4.832-0.647,9.229,0.344,14.029c0.134,0.65,1.128,0.374,0.994-0.274
				c-0.954-4.621-1.597-8.818-0.343-13.48C353.346,211.306,352.351,211.032,352.178,211.674"/>
			<path clip-path="url(#SVGID_6_)" d="M352.866,226.46c-0.251,1.103-0.571,2.583,0.197,3.56c0.538,0.684,1.52,0.455,2.171,0.111
				c1.26-0.664,3.122-2.646,2.315-4.194c-0.734-1.413-3.174-0.808-4.323-0.524c-0.646,0.16-0.372,1.155,0.274,0.995
				c0.739-0.183,1.493-0.333,2.257-0.302c0.225,0.009,0.364,0.032,0.594,0.11c0.096,0.031,0.197,0.097,0.287,0.199
				c-0.09-0.103,0.031,0.062,0.052,0.104c-0.063-0.133,0.009,0.067,0.018,0.112c-0.028-0.15-0.004,0.077-0.006,0.123
				c-0.001,0.027-0.018,0.156,0.002,0.02c-0.008,0.054-0.02,0.107-0.033,0.161c-0.083,0.357-0.236,0.619-0.486,0.978
				c-0.192,0.273-0.527,0.631-0.844,0.901c-0.197,0.168-0.68,0.467-0.865,0.537c-0.077,0.028-0.155,0.05-0.234,0.068
				c-0.134,0.03,0.054,0.007-0.122,0.015c-0.134,0.007-0.114-0.004-0.103-0.002c-0.033-0.006-0.064-0.016-0.096-0.026
				c-0.083-0.025,0.099,0.055-0.026-0.017c-0.103-0.06,0.035,0.05-0.079-0.072c-0.083-0.09,0.062,0.092-0.008-0.015
				c-0.023-0.032-0.042-0.068-0.06-0.105c-0.064-0.122,0.036,0.102-0.016-0.036c-0.016-0.045-0.029-0.092-0.042-0.138
				c-0.04-0.146-0.04-0.181-0.051-0.302c-0.058-0.665,0.074-1.341,0.221-1.987C354.007,226.087,353.014,225.812,352.866,226.46"/>
			<path clip-path="url(#SVGID_6_)" d="M358.728,210.246c3.321,1.076,5.929,3.292,8.368,5.713c0.077-0.287,0.152-0.575,0.229-0.862
				c-0.962,0.305-1.946,0.608-2.958,0.669c-0.661,0.039-0.665,1.072,0,1.031c1.108-0.066,2.179-0.371,3.232-0.705
				c0.364-0.115,0.512-0.581,0.227-0.862c-2.568-2.551-5.331-4.847-8.823-5.979C358.367,209.044,358.098,210.041,358.728,210.246"/>
			<path clip-path="url(#SVGID_6_)" d="M367.615,216.074c0.238-0.745,0.301-1.573,0.636-2.283c0.282-0.598-0.608-1.123-0.891-0.521
				c-0.378,0.803-0.471,1.689-0.739,2.529C366.417,216.437,367.415,216.705,367.615,216.074"/>
			<path clip-path="url(#SVGID_6_)" d="M366.964,216.832c-0.671,2.635,0.904,4.343,3.455,4.761c0.216,0.035,0.478-0.015,0.583-0.237
				c0.725-1.537,1.09-3.18,0.739-4.867c-0.111-0.535-1.15-0.799-1.589-0.974c-0.739-0.294-1.555-0.413-2.348-0.437
				c-0.666-0.02-0.664,1.013,0,1.031c0.758,0.021,2.908,0.211,3.034,1.174c0.159,1.204-0.218,2.473-0.728,3.553
				c0.194-0.079,0.389-0.158,0.583-0.238c-1.962-0.32-3.272-1.38-2.735-3.491C368.124,216.462,367.129,216.188,366.964,216.832"/>
			<path clip-path="url(#SVGID_6_)" d="M368.392,221.179c-1.257,2.6-2.041,5.372-3.146,8.032c-0.256,0.615,0.743,0.88,0.995,0.274
				c1.072-2.576,1.824-5.269,3.042-7.786C369.571,221.104,368.682,220.58,368.392,221.179"/>
			<path clip-path="url(#SVGID_6_)" d="M364.918,230.534c1.646,0.651,7.547,3.225,4.93,5.671c-0.486,0.454,0.245,1.183,0.729,0.729
				c3.5-3.271-3.015-6.457-5.385-7.396C364.573,229.294,364.307,230.293,364.918,230.534"/>
			<path clip-path="url(#SVGID_6_)" d="M365.315,229.591c-0.862-0.662-1.518-1.027-2.531-1.429
				c-0.344-0.135-0.619,0.201-0.653,0.499c-0.508,4.427-4.025,7.694-6.12,11.432c-0.325,0.58,0.565,1.1,0.891,0.521
				c2.221-3.961,5.722-7.261,6.26-11.952c-0.218,0.166-0.436,0.33-0.653,0.497c0.898,0.355,1.525,0.743,2.284,1.323
				C365.322,230.887,365.835,229.99,365.315,229.591"/>
			<path clip-path="url(#SVGID_6_)" d="M354.945,240.887c-1.109,0.391-2.167,0.903-3.219,1.427
				c-0.155,0.077-0.262,0.275-0.255,0.445c0.052,1.228,0.493,2.238,1.386,3.088c0.951,0.905,2.132,0.311,3.154-0.252
				c2.297-1.27,2.711-3.806,0.812-5.607c-0.481-0.456-1.213,0.271-0.729,0.729c1.491,1.415,1.02,2.963-0.604,3.986
				c-0.467,0.296-1.412,0.818-1.903,0.414c-0.725-0.597-1.045-1.445-1.083-2.358c-0.086,0.148-0.17,0.298-0.256,0.445
				c0.972-0.484,1.947-0.962,2.972-1.322C355.843,241.662,355.575,240.666,354.945,240.887"/>
			<path clip-path="url(#SVGID_6_)" d="M352.522,230.243c-1.188,3.499-4.055,6.067-5.158,9.628c-0.051,0.166,0,0.384,0.132,0.501
				c1.235,1.105,2.487,1.736,4.148,1.871c0.245,0.02,0.416-0.176,0.497-0.378c0.268-0.662,0.347-1.156,0.362-1.857
				c0.015-0.666-1.017-0.664-1.032,0c0.247,0.972-0.105,1.305-1.054,1.005c-1.612-0.383-2.019-1.249-1.395-2.631
				c0.445-0.987,1.078-1.896,1.68-2.79c1.1-1.631,2.177-3.199,2.813-5.074C353.731,229.885,352.734,229.617,352.522,230.243"/>
			<path clip-path="url(#SVGID_6_)" d="M366.964,235.401c-0.338,1.409-1.084,3.974,0.085,5.24c0.752,0.814,1.8,0.605,2.606-0.017
				c2.806-2.156,0.576-4.924-2.057-5.585c-0.646-0.161-0.919,0.833-0.274,0.995c1.852,0.464,3.545,1.839,1.883,3.618
				c-2.177,2.332-1.423-3.251-1.249-3.978C368.114,235.028,367.119,234.754,366.964,235.401"/>
			<path clip-path="url(#SVGID_6_)" d="M351.04,241.971c-0.594,0.309-1.124,0.721-1.72,1.031c-0.589,0.308-0.068,1.198,0.521,0.891
				c0.595-0.311,1.125-0.723,1.72-1.031C352.151,242.553,351.628,241.664,351.04,241.971"/>
			<path clip-path="url(#SVGID_6_)" fill="none" stroke="#000000" stroke-miterlimit="10" d="M358.865,248.949
				c0,0,8.253-2.063,7.221-4.127s-4.126,3.096-2.751,5.846c1.376,2.751,4.126-1.719,4.126-1.719l1.72-2.752l1.032,3.783l-4.814-1.72
				"/>
			<path clip-path="url(#SVGID_6_)" fill="none" stroke="#000000" stroke-miterlimit="10" d="M368.15,252.044
				c0,0,5.158-1.377,4.47-3.783"/>
			<path clip-path="url(#SVGID_6_)" fill="none" stroke="#000000" stroke-miterlimit="10" d="M371.588,252.731
				c0,0-2.407-3.781,3.438-2.063c5.846,1.719,2.408,3.438,4.126,4.471c1.72,1.031-4.47,0.343-4.47,0.343l2.751-6.189l5.501,6.534"/>
			<path clip-path="url(#SVGID_6_)" fill="none" stroke="#000000" stroke-miterlimit="10" d="M370.213,254.795
				c0,0,2.75,3.094,0.344,4.813s-2.75-2.75-2.75-2.75l6.533,1.375l-2.407,2.751"/>
			<path clip-path="url(#SVGID_6_)" fill="none" stroke="#000000" stroke-miterlimit="10" d="M376.746,259.608
				c0,0,2.407,1.721-0.688,2.408c-3.095,0.687,4.814-0.002,3.095-3.439"/>
			<path clip-path="url(#SVGID_6_)" fill="none" stroke="#000000" stroke-miterlimit="10" d="M380.185,265.111
				c0,0-4.126-5.847,2.063-2.752c6.19,3.095,1.375,3.095,1.375,3.095"/>
			<path clip-path="url(#SVGID_6_)" d="M361.272,196.509c-1.287,0.023-2.802,0.326-3.626,1.417
				c-0.811,1.072-0.455,2.405,0.339,3.379c0.77,0.946,2.743-0.231,3.436-0.886c0.971-0.919,1.009-2.321,0.691-3.531
				c-0.168-0.643-1.163-0.371-0.993,0.274c0.216,0.829,0.259,1.7-0.311,2.4c-0.577,0.712-1.562,0.955-2.424,1.092
				c0.167,0.044,0.334,0.088,0.501,0.132c-0.567-0.696-1.001-1.596-0.318-2.362c0.643-0.719,1.803-0.867,2.704-0.883
				C361.937,197.528,361.938,196.496,361.272,196.509"/>
			<path clip-path="url(#SVGID_6_)" d="M357.662,202.183c-0.042,1.687-0.668,3.199-1.649,4.553
				c-0.391,0.541,0.505,1.055,0.891,0.521c1.085-1.501,1.744-3.213,1.79-5.074C358.709,201.517,357.678,201.518,357.662,202.183"/>
			<path clip-path="url(#SVGID_6_)" d="M354.585,205.07c0.248,0.728,0.646,1.49,0.669,2.271c0.02,0.663,1.052,0.666,1.032,0
				c-0.026-0.893-0.424-1.713-0.707-2.545C355.367,204.169,354.371,204.439,354.585,205.07"/>
			<path clip-path="url(#SVGID_6_)" d="M355.633,208.181c1.121,0.348,2.248,0.348,3.37,0c0.633-0.196,0.363-1.192-0.275-0.994
				c-0.958,0.295-1.864,0.295-2.82,0C355.27,206.989,355,207.985,355.633,208.181"/>
			<path clip-path="url(#SVGID_6_)" d="M362.647,228.145c-0.825-0.017-1.637-0.168-2.441-0.349
				c-0.747-0.168-1.757-0.356-2.352-0.876c-0.5-0.436-1.232,0.292-0.73,0.73c1.336,1.166,3.813,1.492,5.523,1.525
				C363.313,229.189,363.312,228.158,362.647,228.145"/>
			<path clip-path="url(#SVGID_6_)" d="M358.005,230.38c-0.26-2.032,0.301-3.405,2.152-4.369c0.59-0.308,0.068-1.197-0.521-0.892
				c-2.145,1.116-2.966,2.883-2.663,5.261C357.058,231.03,358.09,231.039,358.005,230.38"/>
		</g>
	</g>
</g>
</svg>
