<?xml version="1.0" encoding="utf-8"?>
<!-- Generator: Adobe Illustrator 16.0.0, SVG Export Plug-In . SVG Version: 6.00 Build 0)  -->
<!DOCTYPE svg PUBLIC "-//W3C//DTD SVG 1.1//EN" "http://www.w3.org/Graphics/SVG/1.1/DTD/svg11.dtd">
<svg version="1.1" xmlns="http://www.w3.org/2000/svg" xmlns:xlink="http://www.w3.org/1999/xlink" x="0px" y="0px"
	 width="1134.719px" height="888.594px" viewBox="0 0 1134.719 888.594" enable-background="new 0 0 1134.719 888.594"
	 xml:space="preserve">
<g id="Ebene_2">
	<path d="M451.46,128.307c0,0-2.666-55.667-21.333-87c11-8,56.917-27,88.25-20.333c-7,45.667-16.854,93.573-20.375,105.75
		c-13.5-2.75-35.25-2.375-46.5,2.375"/>
	<path fill="#F7941E" d="M449.19,174.161c0,0-3.75-3.812-0.812-4.25s2-1,1.25-2.5s-2.188-2.562,0.375-4.062s2.771-1.938,0.386-4.188
		c-2.948-3.5-2.392-4.25-0.732-5.125c1.409-0.938,2.347-2.875,0.722-4.562s-1.506-3.812-0.722-4.062s3.722-1.25,2.034-4.062
		s-5.188-9.188-0.625-12.062s25.188-7.438,48.625-2.25c2.438,0.438,3.438,5.312,1.875,5.875s-1.75,0.5-1.062,1.812
		s4.125,6.25,0.625,7.125c-1.875,0.562-2.75,1.625-1.562,2.188s2.688,1.562,2.062,3.625s0,4.5,1.312,7.312s1.875,4.438,0,5.688
		s-0.75,3-0.188,3.562s2.312,2.938-0.125,5.75s-2.625,4.438-0.75,4.75s4.188,1.283-0.812,3.627
		C495.846,179.319,457.534,177.724,449.19,174.161"/>
	<path d="M541.252,181.224c0,0-36.125,9.375-127.75-7.625c-4.625-1.375-3.75-2.75-0.75-2.875c13.125,0,32.125,1.625,38.375,4.125
		c5,1.625,41,3.625,50.125,3.5c4.75-0.25,17.5-1.5,20.625-2.125S536.627,173.849,541.252,181.224z"/>
	<path d="M358.597,347.887c3.855-2.859,66.78-50.538,84.28-48.413c-4.75,15.875-8.625,28.5-13.125,48
		c-4.25,16.375-19.375,82.5-19.125,102s14.5,391.833,10.5,400.5s-49.001,28.953-51,36.286c-2,7.333,57.167-4.953,57.167-4.953
		s58.5,7.167,67.5,4.259c3.5-1.092,1.334-2.925-2-4.092s-44.5-24.834-47-31.167s-3.333-127.999-2-148.666
		s1.333-108.167,3.333-113.167c4,4.5,12,11.75,14.75,9.75s-1.25-10.25-3.5-16.5s-8.904-38.504-7.904-47.754
		c10.75,20.25,33.904,54.254,48.404,57.254c4,0.25,1.5-6,0-9.25c-7-14.25-29.5-56.213-32.25-65.856s-2.25-14.894-1.5-15.644
		s11.909,2.596,25.945-1.92c5.214-1.068,2.944-4.655,3.694-29.655c-3.749-1.584-18.916-4.251-20.416,5.166
		c-0.583,1.917,1.584,3.168,2.084,2.834c1.166-0.584,0.916-1.084,1.833-1.584s3.667-1.834,8.25,1.5
		c0.5,4.334,0.27,9.672-0.73,10.838s-13.993,5.988-13.826,2.821c1.667-24.5-1.666-35.917,7.5-35.667
		c4.083-3.417,11.167-7.833,15.667-10.583c46.833-28.417,105.5-61.083,114-67.833c2.833-2.667,5-6.167,2.25-13.417
		c-3.084-5.167-3.668-7.25-6.834-9.583c-8.333-6.917-98.25-56.583-99.166-64.167c-0.75-5.917,7.083-3.75,12.833-3.333
		c-2.5-5.333-8.5-11.666-11.75-15.083s-12.666-24.167-13.083-27.833c-1.5,13.417-2.916,24.25-6.5,32.5s-34.002,75.835-37.751,82.167
		c0,0,11-41.167,12.667-48.333s5.5-24.333-2-39c-3.667-9-6.833-20-6.833-20c1.166,8.167,2.583,22.167,1.833,24.667
		s-3.084,5.167-5.667,2.833s-7-6.917-12.5-6.333c-9.667,0.833-15.961,1.08-26.359,9.747c-14.111,11.761-56.471,44.666-59.221,45.749
		c-9.117,5.584-14.45,9.584-15.783,14.251c-1.155,4.04,39.554,80.244,55.403,97.146c2-0.75,2.87-3.672,4-3.979
		c5.75,5.729,7.333,34.833,4,38.833S384,474.804,384,472.804s-3.334-3.742-2.001-5.742s5.644-8.841,5.903-10.508
		s-11.241-3.333-12.573,0.667c-1.334,4-3.329,23.583,3.337,26.916c6.667,3.333,30.446,8.488,31.602-0.25s5.746-27.087-1.352-44
		c-2.679-6.383-5.75-9-3.75-12.5C400.5,410.72,356.6,357.015,358.597,347.887z M580.711,375.39
		c-7.417,2.417-33.75,18.417-42.25,24.083c-7.75,4.917-75.666,51.583-75.666,51.583s-0.084,2.916-0.584,6.666
		c-0.417-2.75-2.166-7.75-5.333-13.666s-7.75-7.583-6.917-15.25c4.5-41.333,52.417-99.083,52.417-99.083
		c14.085,6.922,74.833,34.75,84.5,37.417C593.211,369.64,588.128,372.973,580.711,375.39z"/>
</g>
<g id="Ebene_4">
	<path fill="none" stroke="#000000" stroke-width="3" stroke-linecap="round" stroke-linejoin="round" stroke-miterlimit="10" d="
		M1006,730.887c0,0-16.833-0.5-34.333-13.667c-15.437-13.617-18.53-33.329-15.501-38.333c0.502-2.287,30.334-12.833,57.334-3.666
		c3.333,1.332,6.166-2.001,5.291,2.229c1.012,0.396,3.793-2.978,4.376-3.562c1.138,0.533,0.601,6.027,1.515,6.554
		c1.763-0.601,4.486-3.638,5.652-4.721c1.607,1.252,0.546,9.404,0.546,9.404s41.062-76.438,54.015-79.222
		c12.953-2.774-8.275,55.312-45.213,87.555c0.552,3.335,5.318,5.596,5.318,5.596l-4.772,3.302l1.104,7.779l-5.238,1.389l1.931,5.283
		l-3.036,2.781l1.105,5.838l3.3,9.732c0,0,6.616,22.236,11.578,30.021c4.961,7.785,25.915,44.19,28.948,51.417
		c1.654-2.223,4.961-3.336,4.961-3.336l4.189,4.175l3.096-1.387v4.17l5.861,0.833l1.143,6.118l6.908,2.775l-1.092,4.729l4.414,6.671
		l-3.854,2.222l3.032,8.62l-3.03,8.611l-3.309,3.896l-4.134-3.827l-1.379,4.52h-2.755l-3.308-2.572"/>
	<path fill="none" stroke="#000000" stroke-width="3" stroke-linecap="round" stroke-linejoin="round" stroke-miterlimit="10" d="
		M1022.307,836.342c0,0-7.72,9.727-11.027,26.405c-1.654,5.837-4.962,5.837-4.962,5.837s-16.816,5.836-19.02,17.512
		c13.783-0.279,33.911-0.286,33.911-0.286s6.337,0.28,6.615-1.669c0.277-1.941,1.377-7.225,12.125-8.059
		c5.239-0.279,7.437-1.102,7.437-1.102s0.826-22.234,4.134-25.851"/>
	<path fill="none" stroke="#000000" stroke-width="3" stroke-linecap="round" stroke-linejoin="round" stroke-miterlimit="10" d="
		M1025.622,885.535l63.389,0.281c0,0,5.511-27.521-3.309-45.032"/>
	<path stroke="#000000" stroke-width="3" stroke-linecap="round" stroke-linejoin="round" stroke-miterlimit="10" d="
		M1010.792,694.387c2.671,0.237,3.947,3.564,0.579,3.996C1008,698.805,1008.121,694.149,1010.792,694.387z"/>
	<path fill="none" stroke="#000000" stroke-width="3" stroke-linecap="round" stroke-linejoin="round" stroke-miterlimit="10" d="
		M1051.804,648.706c0,0,6.063-13.343,8.544-18.899c3.309-8.619,15.986-40.028,2.482-39.755
		c-11.83,6.836-32.336,70.925-38.163,88.169"/>
	<path fill="none" stroke="#000000" stroke-width="3" stroke-linecap="round" stroke-linejoin="round" stroke-miterlimit="10" d="
		M962.167,684.887c0,0-6.525-0.136-6.25-3.75"/>
	<path fill="none" stroke="#000000" stroke-width="3" stroke-linecap="round" stroke-linejoin="round" stroke-miterlimit="10" d="
		M988.952,784.359c0.524,8.345,10.75,26.965,17.366,35.024c4.393,5.355,27.566,27.519,27.566,27.519"/>
	<path fill="none" stroke="#000000" stroke-width="3" stroke-linecap="round" stroke-linejoin="round" stroke-miterlimit="10" d="
		M1014.868,784.906c0,0-8.543,19.46-16.812,15.011c-8.27-4.442-5.512-16.398-8.27-17.513c-2.759-1.107-1.582,7.734-11.231,11.622
		c-9.647,3.891-7.922-13.896-4.34-22.233l2.135-5.004l-0.827-2.503l5.514-4.169l1.103-4.729l0.633-2.17l5.396-8.34v-3.602
		l4.253-4.449l-0.221-4.725l4.969-2.216"/>
</g>
<g id="Ebene_5">
	<path fill="#FFFFFF" d="M119.734,724.577c0,0-15.955,6.181-14.417,9.402c0.879,9.595,87.027,10.001,88.125,7.381
		c0.22-2.181-2.198-3.378-2.198-3.378s1.099-1.731-0.439-3.454c-1.539-1.723-15.823-3.945-21.977-1.294
		c5.275-11.416,11.647-32.587-4.614-46.725c-14.065-7.326-22.828-12.149-40.353-1.937c-7.996,6.038-18.105,15.006-6.018,36.346
		L119.734,724.577z"/>
	<path fill="#FFFFFF" d="M155.715,673.91c0,0,6.741-43.516,50.913-87.248c4.175,1.979,15.823,13.187-31.866,74.501
		c0,0,0.734-0.42-1.024,1.12"/>
	<path fill="#FFFFFF" d="M129.051,675.559c0,0-13.615-71.974-23.839-82.522c-10.224-10.55-14.839-18.021-16.157-6.374
		c-1.319,11.648,16.996,65.683,35.088,92.068"/>
	<path d="M96.013,793.167c0,0-0.586,62.12-5.86,73.548C86.944,874.528,84,885.469,84,885.469s44.539,7.031,79.115,0
		c-6.447-20.22-14.651-70.911-11.427-91.128C103.485,795.657,96.013,793.167,96.013,793.167z"/>
	<path fill="#F7941E" d="M95.416,740.615c0,0-4.234,1.303-2.598,3.275c0.99,1.194,2.758,1.517,2.758,1.517s-5.349,0.952-4.25,3.076
		c1.099,2.123,3.298,4.762,1.611,6.445c-1.685,1.686-3.002,2.71-1.685,5.422c1.319,2.71,2.271,3.811,3.223,3.956
		c0.953,0.146-3.296,1.393-2.637,2.856c0.66,1.465,1.758,3.297,1.099,5.566c-0.659,2.271-1.906,3.738-1.247,5.422
		c0.66,1.685,2.199,3.224,1.027,4.907c-1.173,1.686-0.439,2.49-0.439,2.49s-2.052,2.051-0.514,3.297
		c1.539,1.244,2.124,1.319,2.124,1.319s-1.171,0.658-1.245,1.539c-0.073,0.878,1.979,1.975,3.003,2.123
		c5.055,1.025,29.083,1.758,55.38,0.659c1.464,0,1.685-2.345,1.685-3.591c0-1.244-0.072-2.928,0.659-3.809
		c0.733-0.878-0.879-1.318-1.098-3.076c-0.22-1.758,2.711-2.855,2.052-3.955c-0.66-1.1-0.879-2.857,1.245-4.104
		c0.807-0.659,0.365-2.71,0.219-4.248s-0.525-2.702-1.612-3.88c-0.596-0.646-1.099-2.348-0.148-2.86
		c0.953-0.512,2.052-2.05,1.612-3.882c-0.439-1.832-3.005-3.516,0.057-4.199c1.978-0.294,1.481-4.078,0.089-4.736
		c-1.393-0.66-0.514-1.247,0.366-1.758c0.879-0.515,0.882-4.238-0.069-5.338C126.191,742.476,101.492,741.184,95.416,740.615z"/>
	<path d="M58.8,739.692c0,0,19.047-1.026,36.041,1.172c16.995,2.196,108.856,6.446,115.449,6.301
		c1.465-0.441,2.417-1.101,2.417-1.101s-4.175-1.39-5.567-2.051c-1.391-0.658-10.549-3.81-12.599-1.318c0,0,0.657,0.586-9.598-0.073
		c-10.255-0.659-22.562-2.345-26.737-2.198c-4.175,0.146-16.628-0.293-19.998,0c-3.37,0.294-26.812-0.952-30.84-2.71
		c-4.029-1.759-6.3-4.321-12.014-4.396c-15.09-0.512-36.425,1.32-62.853,4.47c-2.563,0.295-1.611,2.053,0.806,2.053
		C35.725,739.84,54.989,739.836,58.8,739.692z"/>
	<g>
		<path d="M153.811,740.645c-0.194,0-0.393-0.032-0.587-0.102c-0.706-0.25-17.341-6.164-22.081-8.845
			c-0.845-0.478-1.144-1.55-0.667-2.395c0.479-0.845,1.549-1.143,2.397-0.666c4.475,2.531,21.356,8.531,21.526,8.592
			c0.915,0.324,1.393,1.33,1.067,2.245C155.211,740.193,154.535,740.645,153.811,740.645z"/>
	</g>
	<g>
		<path d="M126.093,741.36c-0.455,0-0.923-0.061-1.402-0.194c-1.743-0.492-2.664-0.759-3.146-0.905
			c-1.835,0.368-8.448,1.484-12.886-0.369c-0.111-0.046-0.217-0.104-0.317-0.173c-1.31-0.897-1.821-1.389-2.094-1.673
			c-0.03-0.009-0.063-0.018-0.1-0.026c-0.695-0.198-3.306-1.44-3.375-3.938c-0.073-2.643,2.696-4.832,8.711-6.894
			c0.92-0.318,1.919,0.175,2.234,1.093c0.314,0.919-0.176,1.917-1.094,2.232c-5.925,2.031-6.335,3.476-6.338,3.487
			c0.058,0.152,0.569,0.536,0.872,0.652c0.669,0.188,1.053,0.357,1.555,0.886c0.155,0.164,0.438,0.464,1.46,1.174
			c3.377,1.308,9.109,0.465,11.065,0.021c0.323-0.072,0.663-0.055,0.977,0.057c0.005,0.002,0.543,0.182,3.425,0.991
			c1.241,0.352,2.527-0.859,2.746-1.198c0.219-0.432,0.599-0.733,1.062-0.867c0.467-0.134,0.956-0.056,1.372,0.19
			c1.068,0.628,4.174,1.766,5.928,1.535c-0.916-1.309-3.947-4.488-6.841-6.161c-0.729-0.362-4.335-2.757-5.422-3.48
			c-0.808-0.539-1.025-1.63-0.488-2.438c0.538-0.807,1.63-1.027,2.438-0.488c2.17,1.447,4.665,3.069,5.087,3.285
			c0.089,0.043,9.098,5.862,9.012,9.798c-0.024,1.123-0.665,2.049-1.759,2.536c-2.688,1.202-6.434-0.065-8.402-0.916
			C129.369,740.482,127.837,741.36,126.093,741.36z"/>
	</g>
	<g>
		<path d="M120.625,724.821c-0.412,0-0.825-0.146-1.159-0.438c-0.227-0.199-5.124-4.575-6.192-10.773
			c-0.373-0.078-0.758-0.233-1.122-0.507c-0.794-0.597-1.22-1.562-1.268-2.87c-0.043-1.214-0.088-3.811,0.162-6.398
			c-0.102-0.051-0.178-0.1-0.225-0.131c-2.232-1.518-0.517-5.717,1.313-8.975c0.044-0.076,0.093-0.149,0.147-0.221
			c0.406-0.517,0.75-0.953,1.046-1.321c-0.146-0.17-0.259-0.37-0.333-0.59c-0.196-0.589-0.066-1.234,0.338-1.704
			c0.113-0.131,2.841-3.225,8.72-4.354c0.96-0.181,1.875,0.443,2.059,1.396c0.182,0.954-0.441,1.875-1.396,2.057
			c-2.17,0.417-3.782,1.145-4.881,1.799c0.068,0.153,0.117,0.326,0.145,0.521c0.089,0.657-0.223,1.333-0.762,1.715
			c-0.365,0.354-1.573,1.89-2.082,2.54c-0.795,1.428-1.25,2.496-1.511,3.265c0.097,0.026,0.19,0.061,0.283,0.105
			c0.731,0.347,1.132,1.148,0.969,1.943c-0.591,2.865-0.533,6.667-0.479,8.197c0.005-0.001,0.01-0.002,0.015-0.004
			c0.511-0.127,1.054-0.019,1.477,0.297c0.423,0.316,0.682,0.803,0.706,1.331c0.256,5.594,5.147,10,5.196,10.043
			c0.726,0.645,0.795,1.754,0.152,2.48C121.595,724.619,121.111,724.821,120.625,724.821z"/>
	</g>
	<g>
		<path d="M120.553,688.926c-0.459,0-0.917-0.177-1.262-0.534c-0.677-0.696-0.66-1.809,0.039-2.485
			c0.309-0.301,7.722-7.368,20.429-9.411c0.467-0.074,0.943,0.041,1.324,0.322l0.426,0.314c2.469,0.03,11.708,0.411,16.408,4.199
			c0.755,0.608,0.874,1.716,0.266,2.473c-0.61,0.755-1.719,0.875-2.472,0.265c-3.612-2.911-11.881-3.469-14.763-3.423
			c-0.427,0.001-0.756-0.118-1.066-0.345l-0.286-0.211c-11.186,2.016-17.753,8.275-17.82,8.342
			C121.435,688.761,120.994,688.926,120.553,688.926z"/>
	</g>
	<g>
		<path d="M161.722,739.912c-0.717,0-1.392-0.442-1.651-1.158c-0.331-0.911,0.14-1.922,1.053-2.253
			c0.604-0.22,0.958-0.532,1.094-0.686c0.135-0.537,0.522-0.986,1.051-1.199c0.783-0.312,2.276-1.304,3.616-2.264
			c-0.104-0.179-0.189-0.37-0.252-0.579c-0.201-0.676,0.019-1.405,0.56-1.856c1.261-1.052,3.033-3.815,4.106-5.635
			c-0.457-0.472-0.61-1.165-0.395-1.793c0.024-0.071,0.627-1.81,1.357-3.105c0.223-0.397,0.59-0.689,1.023-0.82
			c-0.107-0.038-0.209-0.087-0.309-0.147c-0.693-0.419-1.01-1.254-0.77-2.026c0.69-2.229,1.239-5.227,1.535-7.004
			c-0.675-0.273-1.125-0.939-1.101-1.688c0.055-1.73-0.086-3.763-0.206-5.099c-0.386-0.081-0.757-0.211-1.062-0.415
			c-0.398-0.266-0.671-0.682-0.755-1.153c-0.792-4.401-2.526-7.842-3.417-9.399c-0.331,0.025-0.674,0.028-0.961-0.011
			c-0.503-0.072-0.951-0.358-1.228-0.784c-1.312-2.023-6.67-6.461-8.623-8c-0.764-0.601-0.895-1.706-0.294-2.469
			c0.601-0.762,1.708-0.895,2.469-0.294c0.695,0.55,6.349,5.036,8.773,8.005c0.146-0.021,0.294-0.045,0.416-0.069
			c0.692-0.141,1.396,0.147,1.794,0.727c0.125,0.185,2.931,4.309,4.285,10.454c0.035-0.002,0.067-0.003,0.096-0.005
			c0.898-0.046,1.738,0.621,1.849,1.545c0.015,0.135,0.353,2.937,0.388,5.689c0.026,0.008,0.049,0.013,0.069,0.02
			c0.824,0.255,1.342,1.07,1.222,1.924c-0.021,0.159-0.403,2.868-1.03,5.726c0.108,0.028,0.217,0.067,0.326,0.112
			c0.723,0.31,1.575,1.078,1.527,2.974c-0.065,2.649-0.792,4.332-2.16,4.999c-0.316,0.157-0.811,0.316-1.432,0.274
			c-0.017,0.043-0.036,0.089-0.055,0.131l0.079,0.072c0.593,0.546,0.737,1.427,0.351,2.135c-0.262,0.477-2.191,3.964-4.178,6.347
			c0.299,0.269,0.501,0.634,0.563,1.043c0.096,0.629-0.156,1.261-0.658,1.652c-0.379,0.294-3.421,2.645-5.499,3.721
			c-0.596,0.995-1.785,1.831-2.965,2.258C162.125,739.878,161.921,739.912,161.722,739.912z"/>
	</g>
	<g>
		<path d="M190.994,743.576c-1.442,0-3.262-0.203-5.511-0.453c-0.192-0.021-0.381-0.074-0.556-0.157l-1.202-0.566
			c-2.401,0.155-13.593,0.888-16.024,1.155c-0.954,0.097-1.834-0.593-1.938-1.558c-0.106-0.964,0.59-1.834,1.557-1.938
			c2.79-0.307,16.069-1.163,16.632-1.2c0.299-0.019,0.596,0.038,0.866,0.166l1.346,0.637c1.48,0.163,4.435,0.474,5.626,0.365
			c-0.721-1.092-2.918-2.066-4.409-2.438c-0.829-0.205-1.393-0.979-1.331-1.832c0.054-0.745,0.57-1.366,1.269-1.564
			c-3.493-0.898-8.224-0.997-11.46-0.733c-0.971,0.08-1.817-0.641-1.896-1.607c-0.08-0.969,0.64-1.816,1.606-1.896
			c1.564-0.131,15.392-1.09,19.004,4.788c0.347,0.564,0.347,1.279-0.003,1.844c-0.153,0.248-0.362,0.45-0.606,0.591
			c0.727,0.736,1.289,1.624,1.496,2.687c0.041,0.21,0.043,0.426,0.006,0.637C195.054,742.879,193.672,743.576,190.994,743.576z"/>
	</g>
	<g>
		<path d="M155.534,675.559c-0.07,0-0.142-0.005-0.212-0.015c-0.965-0.117-1.652-0.993-1.535-1.956
			c0.209-1.73,5.661-42.889,51.929-89.05c0.59-0.589,1.52-0.683,2.217-0.218c1.463,0.976,4.029,3.367,4.785,8.426
			c2.586,17.32-18.414,47.25-36.486,69.312c-0.616,0.752-1.724,0.861-2.474,0.245c-0.752-0.615-0.862-1.724-0.246-2.474
			c14.425-17.609,38.249-49.672,35.729-66.562c-0.383-2.562-1.32-4.14-2.187-5.089c-44.358,44.853-49.727,85.425-49.776,85.833
			C157.169,674.903,156.412,675.559,155.534,675.559z"/>
	</g>
	<g>
		<path d="M124.987,679.991c-0.591,0-1.167-0.299-1.501-0.84c-39.468-64.203-35.995-88.246-34.854-96.146
			c0.004-0.038,0.011-0.073,0.02-0.108c0.467-2.235,1.7-3.144,2.653-3.512c2.63-1.016,5.668,1.036,6.252,1.457
			c21.13,16.322,32.432,91.063,32.905,94.237c0.143,0.96-0.522,1.854-1.482,1.997c-0.958,0.143-1.855-0.521-1.998-1.481
			c-0.113-0.764-11.56-76.51-31.53-91.937c-0.881-0.627-2.328-1.207-2.88-0.993c-0.262,0.103-0.415,0.666-0.469,0.902
			c-1.104,7.651-4.321,30.789,34.38,93.742c0.508,0.827,0.25,1.91-0.578,2.418C125.619,679.906,125.302,679.991,124.987,679.991z"/>
	</g>
	<ellipse cx="136.706" cy="718.266" rx="4.067" ry="3.848"/>
	<path d="M102.899,733.234c0,0-62.56-144.155-74.28-170.086c-6.3,2.345-8.644,6.007-9.669,7.911
		c9.084,20.512,70.601,156.31,77.503,163.469S104.067,735.925,102.899,733.234z"/>
	<g>
		<path fill="#F7941E" d="M93.265,727.854c-0.508,2.375,0.082,4.816,2.313,5.771c0.563,0.241,1.149,0.354,1.725,0.354
			c1.707,0,3.332-1.001,4.045-2.669c1.539-3.6,1.091-4.232,0.952-6.96c-2.203-5.555-6.396-2.886-7.129-2.105
			C94.438,723.025,93.618,726.205,93.265,727.854z"/>
	</g>
	<g>
		<path fill="#F7941E" d="M87.339,717.127c-0.134,0-0.27-0.006-0.406-0.018c-2.417-0.223-4.197-2.356-3.977-4.772
			c0.176-1.927,1.276-5.575,1.61-6.646c0.719-2.319,3.181-3.614,5.5-2.896c2.318,0.722,3.614,3.183,2.894,5.503
			c-0.609,1.963-1.194,4.223-1.25,4.837C91.501,715.412,89.585,717.127,87.339,717.127z"/>
	</g>
	<g>
		<path fill="#F7941E" d="M74.62,692.079c-0.974,0-1.954-0.32-2.769-0.984c-1.885-1.53-2.171-4.299-0.639-6.181
			c0.871-1.074,1.493-3.31,1.658-4.224c0.429-2.383,2.704-3.979,5.091-3.557c2.384,0.422,3.98,2.684,3.568,5.068
			c-0.088,0.515-0.94,5.109-3.496,8.254C77.166,691.525,75.898,692.079,74.62,692.079z"/>
	</g>
	<g>
		<path fill="#F7941E" d="M61.769,664.679c-1.502,0-2.973-0.788-3.786-2.059c-1.56-2.432-0.756-4.599,3.264-11.923
			c1.167-2.128,3.838-2.908,5.967-1.738c0.528,0.291,0.974,0.672,1.327,1.117c1.371,0.983,2.108,2.716,1.739,4.474
			c-0.476,2.27-2.475,9.709-8.208,10.117C61.971,664.676,61.87,664.679,61.769,664.679z"/>
	</g>
	<g>
		<path fill="#F7941E" d="M49.863,638.433c-0.37,0-0.743-0.046-1.114-0.145c-1.195-0.312-2.233-1.134-2.848-2.251
			c-0.966-1.757-1.122-4.036,0.938-10.493c0.142-0.443,0.348-0.85,0.603-1.21c-0.082-0.397-0.169-0.791-0.254-1.139
			c-0.572-2.357,0.875-4.736,3.234-5.308c2.356-0.572,4.736,0.875,5.309,3.234c0.493,2.031,1.041,4.818,0.842,6.549
			c-0.444,3.889-2.593,7.987-2.836,8.441C52.958,637.565,51.453,638.433,49.863,638.433z"/>
	</g>
	<g>
		<path fill="#F7941E" d="M37.622,611.007c-1.802,0-3.462-1.054-4.192-2.775c-0.075-0.177-0.139-0.358-0.19-0.544
			c-2.111-7.638,2.751-14.035,5.958-16.613c1.892-1.52,4.659-1.218,6.18,0.674c0.927,1.151,1.177,2.631,0.803,3.952
			c0.662,6.859-3.582,14.188-7.398,15.161C38.395,610.959,38.005,611.007,37.622,611.007z"/>
	</g>
	<g>
		<path fill="#F7941E" d="M26.211,584.077c-1.734,0-3.288-0.96-4.086-2.537c-0.899-1.796-1.335-4.902,3.231-13.187
			c1.172-2.126,3.845-2.9,5.971-1.729c0.306,0.168,0.583,0.366,0.832,0.592c0.066,0.025,0.132,0.05,0.198,0.078
			c2.242,0.93,3.305,3.502,2.373,5.744c-3.395,8.173-5.076,10.915-8.342,11.036C26.328,584.076,26.269,584.077,26.211,584.077z"/>
	</g>
	<path fill="none" stroke="#000000" stroke-width="3" stroke-linecap="round" stroke-linejoin="round" stroke-miterlimit="10" d="
		M161.667,737.887c0,0-1.783,2.838-7.25,1.25"/>
</g>
</svg>
