<svg id="conQlude" xmlns="http://www.w3.org/2000/svg" viewBox="0 0 417.3 126.67"><defs><style>.cls-1{fill:#fff;}.cls-2{fill:#f7941e;}</style></defs><title>conQlude</title><path d="M62.35,53.38c1.39,0,2.88.07,4.45.21l1.54.14.34-5.21-1.46-.13c-1.69-.16-3.28-.23-4.87-.23-18.27,0-26.59,11.36-26.59,21.92s8.32,21.85,26.59,21.85c1.59,0,3.18-.07,4.87-.22l1.46-.14-.34-5.21-1.54.14c-1.56.14-3.06.21-4.45.21C47.67,86.71,41,78.09,41,70.08S47.67,53.38,62.35,53.38Z"/><path d="M97.85,47.94l-.8,0v0l-.39,0-.39,0-.8.09a22,22,0,0,0,0,44l.8,0,1.58,0a22,22,0,0,0,0-44ZM96.66,86.85l-1-.06a16.85,16.85,0,0,1,0-33.64l1-.06,1,.06a16.85,16.85,0,0,1,0,33.64Z"/><path d="M144,47.53a23.23,23.23,0,0,0-11,2.78v-2h-5.22V90.94H133V56.36l1.51-1A18.35,18.35,0,0,1,144,52.75c6.06,0,12.49,4,12.49,11.38V90.94h5.22V64.13a14.34,14.34,0,0,0-1-5.7C158.2,51.71,151.79,47.53,144,47.53Z"/><rect x="238.41" y="21.85" width="5.22" height="69.09"/><path d="M284.34,75.41c0,6.17-4.42,10.82-10.75,11.31l-1,.07-1-.07c-6.34-.49-10.76-5.14-10.76-11.31V48.53h-5.22V75.41c0,9,6.63,15.92,15.76,16.52l.82,0H273l.82,0c9.13-.6,15.76-7.54,15.76-16.52V48.53h-5.22Z"/><path d="M328.12,47.93h-1.9c-18.32,0-26.66,11.29-26.66,21.78s8.32,21.71,26.59,21.71h2.75s2.33-.16,3.1-.23l1.35-.14V22.11h-5.23Zm0,38.27h-2c-14.68,0-21.37-8.55-21.37-16.49s6.71-16.56,21.44-16.56h1.9Z"/><path d="M381.54,69.88v-1.5c0-12-7.27-20.15-18.08-20.15-7.68,0-19.11,5.84-19.11,21.93,0,10.82,9.1,21.77,26.51,21.77,1.56,0,3.24-.15,4.87-.3l1.37-.12V86.27l-1.65.15c-1.49.15-3,.29-4.37.29-14.78,0-21.51-8.58-21.51-16.55v-.28ZM363.46,53.45c7.85,0,11.91,6.23,12.6,11.21H350.21C352.26,56.54,358.81,53.45,363.46,53.45Z"/><rect x="172.17" y="35.75" width="53.74" height="55.16" rx="4.5"/><path class="cls-1" d="M219.38,63.33A20.3,20.3,0,0,1,215.71,75L213,72.33A16.64,16.64,0,0,0,199.85,46.7V43a20.32,20.32,0,0,1,19.53,20.34Z"/><path class="cls-2" d="M215.06,76.62l-.16-.17-.16-.17-2.64-2.63h0l-.16-.17-.17-.16h0l-2.24-2.22-3-3,5.81-1.21-12.53-3.36-.8-.21.8,3,2.76,10.36,1.22-5.81L209,76.05l.17.17.17.17A16.58,16.58,0,0,1,199.85,80v3.72A20.35,20.35,0,0,0,212,79l.16.16.18.16,4.6,4.62,2.74-2.74-4.62-4.61Z"/><path class="cls-1" d="M198.25,80v3.72a20.36,20.36,0,0,1,0-40.68V46.7a16.64,16.64,0,0,0,0,33.25Z"/></svg>