<svg id="disQover" xmlns="http://www.w3.org/2000/svg" viewBox="0 0 406.59 126.67"><defs><style>.cls-1{fill:#fff;}.cls-2{fill:#f7941e;}</style></defs><title>disQover</title><rect x="145.02" y="35.75" width="53.74" height="55.16" rx="4.5"/><path class="cls-1" d="M192.23,63.33A20.22,20.22,0,0,1,188.56,75l-2.67-2.67A16.64,16.64,0,0,0,172.7,46.7V43a20.32,20.32,0,0,1,19.53,20.34Z"/><path class="cls-2" d="M187.91,76.62l-.16-.17-.16-.17L185,73.65h0l-.16-.17-.17-.16h0l-2.23-2.22-3-3,5.8-1.21L172.7,63.54l-.8-.21.8,3,2.76,10.36,1.22-5.81,5.19,5.19.17.17.17.17A16.58,16.58,0,0,1,172.7,80v3.72A20.35,20.35,0,0,0,184.85,79l.17.16.17.16,4.6,4.62,2.74-2.74-4.62-4.61Z"/><path class="cls-1" d="M171.1,80v3.72a20.36,20.36,0,0,1,0-40.68V46.7a16.64,16.64,0,0,0,0,33.25Z"/><path d="M64.32,47.71H62.41C44.1,47.71,35.75,59,35.75,69.49S44.07,91.2,62.34,91.2H65.1S67.42,91,68.19,91l1.35-.13V21.89H64.32Zm0,38.26h-2C47.66,86,41,77.43,41,69.49s6.71-16.56,21.44-16.56h1.91Z"/><rect x="84.28" y="48.28" width="5.22" height="42.67"/><rect x="83.54" y="36.15" width="6.7" height="6.7"/><path d="M233.52,47.2l-.8-.05v0l-.39,0-.39,0-.8.09a22,22,0,0,0,0,44l.8,0,1.58,0a22,22,0,0,0,0-44Zm-1.19,38.91-1-.06a16.85,16.85,0,0,1,0-33.64l1-.06,1,.06a16.85,16.85,0,0,1,0,33.64Z"/><polygon points="278.68 80.95 265.85 47.76 260.95 49.51 278.66 95.32 281.04 89.24 281.04 89.26 296.38 49.51 291.49 47.76 278.68 80.95"/><path d="M324,47.49c-7.68,0-19.11,5.84-19.11,21.93,0,10.82,9.11,21.78,26.52,21.78,1.55,0,3.24-.16,4.87-.31l1.36-.12V85.53l-1.64.16c-1.49.14-3,.29-4.37.29-14.79,0-21.52-8.59-21.52-16.56v-.28h32v-1.5C342.12,55.59,334.86,47.49,324,47.49Zm0,5.22c7.86,0,11.92,6.23,12.61,11.21H310.79C312.85,55.8,319.39,52.71,324,52.71Z"/><path d="M369.35,47.51a23.3,23.3,0,0,0-11,2.78v-2h-5.22V90.92h5.22V56.34l1.52-1a18.35,18.35,0,0,1,9.49-2.66h1.5V47.51Z"/><path d="M118.76,66.76c-.56-.1-2.24-.49-4.49-1-3.49-.85-7.66-2.56-7.66-5.79,0-4.22,4.82-7.38,11.72-7.7a14.88,14.88,0,0,1,9.47,3.83l1,.9,3.89-3.49-1.26-1.12a23.39,23.39,0,0,0-10.38-5.06A17.06,17.06,0,0,0,117.8,47c-9.66.56-16.41,5.87-16.41,12.92,0,5,4,8.85,11.2,10.75,1,.25,4.12,1,5.37,1.25,3.79.65,10.15,2.34,10.15,6.29,0,4.38-5.06,7.56-12.23,7.74a15,15,0,0,1-10.55-4.3l-1-1-3.86,3.51,1.15,1.11a20.42,20.42,0,0,0,12.68,5.8,15.08,15.08,0,0,0,1.84.06h.2c10-.38,17-5.7,17-12.94C133.33,74.84,131.43,68.85,118.76,66.76Z"/></svg>