<svg id="intaQt" xmlns="http://www.w3.org/2000/svg" viewBox="0 0 297.81 126.67"><defs><style>.cls-1{fill:#fff;}.cls-2{fill:#f7941e;}</style></defs><title>intaQt</title><rect x="34.92" y="36.12" width="6.7" height="6.7"/><rect x="35.66" y="48.26" width="5.22" height="42.67"/><path d="M71.85,47.52a23.29,23.29,0,0,0-11,2.77v-2H55.62V90.92h5.22V56.34l1.52-1a18.34,18.34,0,0,1,9.49-2.65c6.05,0,12.48,4,12.48,11.37V90.92h5.22V64.11a14.17,14.17,0,0,0-1-5.7C86.08,51.69,79.67,47.52,71.85,47.52Z"/><path d="M119.46,86.38a14.48,14.48,0,0,1-1.53.06c-6.25,0-9.83-3.74-9.83-10.26v-22h11.7V48.92H108.1V36.05h-5.22V48.92H99.55v5.22h3.33v22c0,9.55,5.77,15.48,15.05,15.48a20.6,20.6,0,0,0,2.16-.08l1.52-.17-.69-5.2Z"/><path d="M149.46,47.52a20.53,20.53,0,0,0-14.65,5.89l-1.16,1.11L137.51,58l1-1a15.13,15.13,0,0,1,10.94-4.31c4.45,0,9.18,2.75,9.58,10.4a20.29,20.29,0,0,0-11.43-3.49c-9.8,0-17.18,6.85-17.18,15.93s7.38,16.08,17.18,16.08a21.21,21.21,0,0,0,11.46-3.06v2.32h5.22V64.19C164.29,52.67,156.84,47.52,149.46,47.52Zm9.61,34.58-1.63,1.24a16.18,16.18,0,0,1-9.83,3.1c-5.8,0-12-3.8-12-10.86s6-10.71,12-10.71a14.79,14.79,0,0,1,9.76,3.42l1.7,1.44Z"/><path d="M262.39,86.21l-1.46.17a14.48,14.48,0,0,1-1.53.06c-6.25,0-9.83-3.74-9.83-10.26v-22h11.69V48.92H249.57V36.05h-5.22V48.92H241v5.22h3.33v22c0,9.55,5.77,15.48,15,15.48a20.6,20.6,0,0,0,2.16-.08l1.52-.17Z"/><rect x="175.79" y="35.75" width="53.74" height="55.16" rx="4.5"/><path class="cls-1" d="M223,63.32A20.21,20.21,0,0,1,219.32,75l-2.66-2.67a16.65,16.65,0,0,0-13.19-25.63V43A20.36,20.36,0,0,1,223,63.32Z"/><path class="cls-2" d="M218.67,76.62l-.16-.17-.16-.17-2.64-2.64h0l-.16-.17-.17-.16h0l-2.23-2.22-3-3L216,66.9l-12.52-3.36-.8-.22.8,3,2.76,10.37,1.22-5.81,5.19,5.19.16.17.18.17A16.6,16.6,0,0,1,203.47,80v3.72A20.38,20.38,0,0,0,215.61,79l.17.16.17.16,4.6,4.61,2.75-2.73-4.63-4.61Z"/><path class="cls-1" d="M201.87,80v3.72a20.36,20.36,0,0,1,0-40.69v3.71a16.65,16.65,0,0,0,0,33.26Z"/></svg>