<?xml version="1.0" encoding="utf-8"?>
<!-- Generator: Adobe Illustrator 16.0.0, SVG Export Plug-In . SVG Version: 6.00 Build 0)  -->
<!DOCTYPE svg PUBLIC "-//W3C//DTD SVG 1.1//EN" "http://www.w3.org/Graphics/SVG/1.1/DTD/svg11.dtd">
<svg version="1.1" xmlns="http://www.w3.org/2000/svg" xmlns:xlink="http://www.w3.org/1999/xlink" x="0px" y="0px"
	 width="968.952px" height="926.954px" viewBox="0 0 968.952 926.954" enable-background="new 0 0 968.952 926.954"
	 xml:space="preserve">
<g id="Ebene_4">
	<path fill="none" stroke="#000000" stroke-width="3" stroke-linecap="round" stroke-linejoin="round" stroke-miterlimit="10" d="
		M450.884,42.794c0,0-4.508,31.196-8.503,29.012c-3.994-2.183-22.766-4.193-22.766-4.193l-5.838,31.264l-14.685-4.844l-5.59,40.674
		l-11.447-9.883l-2.858,37.461c0,0-16.787-84.689-16.484-103.838"/>
	<path fill="none" stroke="#000000" stroke-width="3" stroke-linecap="round" stroke-linejoin="round" stroke-miterlimit="10" d="
		M462.638,10.39c0,0-105.405,23.183-113.725,28.059c1.767,46.801,24.964,149.708,26.982,152.634
		c18.154-2.925,104.896-11.483,110.948-10.508C480.792,135.723,462.638,10.39,462.638,10.39z"/>
	<path fill="none" stroke="#000000" stroke-width="3" stroke-linecap="round" stroke-linejoin="round" stroke-miterlimit="10" d="
		M473.637,88.183c0,0,23.518-2.669,30.578,2.206c-1.008,18.526-0.236,131.66-0.236,131.66l-101.807-3.211l1-29.628"/>
	<path fill="none" stroke="#000000" stroke-width="3" stroke-linecap="round" stroke-linejoin="round" stroke-miterlimit="10" d="
		M661.334,88.183l-102.881,5.85l7.399,140.388l101.391-1.934C667.244,232.487,670.417,93.058,661.334,88.183z"/>
	<path fill="none" stroke="#000000" stroke-width="3" stroke-linecap="round" stroke-linejoin="round" stroke-miterlimit="10" d="
		M683.134,161.302l5.192,88.208h149.985c0,0-9.263-81.374-11.279-87.225C825.704,158.406,703.717,153.481,683.134,161.302z"/>
	<path fill="none" stroke="#000000" stroke-width="3" stroke-linecap="round" stroke-linejoin="round" stroke-miterlimit="10" d="
		M836.932,234.421l-0.823-85.63c0,0-124.541,1.489-139.116,4.257"/>
	
		<polyline fill="none" stroke="#000000" stroke-width="3" stroke-linecap="round" stroke-linejoin="round" stroke-miterlimit="10" points="
		809.592,249.51 683.134,260.235 673.728,171.061 683.487,171.061 	"/>
	
		<line fill="none" stroke="#000000" stroke-width="3" stroke-linecap="round" stroke-linejoin="round" stroke-miterlimit="10" x1="667.781" y1="200.781" x2="674.729" y2="200.781"/>
	<path fill="none" stroke="#000000" stroke-width="3" stroke-linecap="round" stroke-linejoin="round" stroke-miterlimit="10" d="
		M734.407,149.689c0,0-8.293-106.358-6.897-111.233c1.396-4.875-113.3,0-113.3,0l7.062,48.998"/>
	
		<polyline fill="none" stroke="#000000" stroke-width="3" stroke-linecap="round" stroke-linejoin="round" stroke-miterlimit="10" points="
		471.033,67.612 561.805,67.612 561.461,93.345 	"/>
	<path fill="none" stroke="#000000" stroke-width="3" stroke-linecap="round" stroke-linejoin="round" stroke-miterlimit="10" d="
		M503.811,190.99c0,0,52.133-1.711,57.335,0"/>
	<path fill="none" stroke="#000000" stroke-width="3" stroke-linecap="round" stroke-linejoin="round" stroke-miterlimit="10" d="
		M34.444,73.091c0,0-3.033,146.91-6.059,148.574c25.215,1.664,99.786,0,99.786,0s10.11-147.202,3.049-155.236
		C107.014,68.146,34.444,73.091,34.444,73.091z"/>
	<path fill="none" stroke="#000000" stroke-width="3" stroke-linecap="round" stroke-linejoin="round" stroke-miterlimit="10" d="
		M130.032,194.395h35.48c0,0,0.083-151.601-6.051-151.601c-32.431,0-91.782,5.851-91.782,5.851v22.047"/>
	
		<polyline fill="none" stroke="#000000" stroke-width="3" stroke-linecap="round" stroke-linejoin="round" stroke-miterlimit="10" points="
		357.209,65.364 362.709,56.674 368.581,64.476 	"/>
	<path fill="none" stroke="#000000" stroke-width="3" stroke-linecap="round" stroke-linejoin="round" stroke-miterlimit="10" d="
		M379.198,162.285c0,0,86.439-15.687,94.038-15.789c-1.57-1.876-6.342-5.082-6.342-5.082"/>
	
		<line fill="none" stroke="#000000" stroke-width="3" stroke-linecap="round" stroke-linejoin="round" stroke-miterlimit="10" x1="468.728" y1="151.85" x2="473.236" y2="146.496"/>
	<path fill="none" stroke="#000000" stroke-width="3" stroke-linecap="round" stroke-linejoin="round" stroke-miterlimit="10" d="
		M698.093,173.699l5.771-2.639L709,177.6l9.537-3.27c0,0-5.661-8.12-5.135-3.27s5.135,6.54,5.135,6.54l9.171-2.128l12.106-1.914
		v6.045"/>
	
		<polyline fill="none" stroke="#000000" stroke-width="3" stroke-linecap="round" stroke-linejoin="round" stroke-miterlimit="10" points="
		751.186,177.955 751.186,171.061 764.025,177.955 767.512,171.061 755.954,177.955 782,177.955 	"/>
	
		<polyline fill="none" stroke="#000000" stroke-width="3" stroke-linecap="round" stroke-linejoin="round" stroke-miterlimit="10" points="
		791.17,174.56 791.17,179.603 801.074,174.56 796.122,171.061 806.21,179.603 	"/>
	
		<polyline fill="none" stroke="#000000" stroke-width="3" stroke-linecap="round" stroke-linejoin="round" stroke-miterlimit="10" points="
		700.197,193.942 706.8,194.395 706.8,188.594 702.03,196.396 713.035,194.395 722.94,194.395 722.94,196.396 	"/>
	
		<polyline fill="none" stroke="#000000" stroke-width="3" stroke-linecap="round" stroke-linejoin="round" stroke-miterlimit="10" points="
		734.407,193.942 734.407,196.396 741.661,195.169 	"/>
	<path fill="none" stroke="#000000" stroke-width="3" stroke-linecap="round" stroke-linejoin="round" stroke-miterlimit="10" d="
		M751.186,197.813l3.302-5.319h9.17l5.87,3.901c0,0-15.836,4.016-8.806,1.418c7.03-2.598,11.373-5.614,14.674-3.871
		c3.302,1.744,12.106,2.453,12.106,2.453l5.135-1.227l8.437,5.612"/>
	
		<polyline fill="none" stroke="#000000" stroke-width="3" stroke-linecap="round" stroke-linejoin="round" stroke-miterlimit="10" points="
		812.079,196.396 812.079,198.962 818.682,196.638 818.682,192.494 	"/>
	<path fill="none" stroke="#000000" stroke-width="3" stroke-linecap="round" stroke-linejoin="round" stroke-miterlimit="10" d="
		M702.398,208.282l4.402,4.781l-4.402,2.585c0,0,9.537-3.001,12.472,0.752c2.936,3.754,8.07,0,8.07,0l-1.834-8.119"/>
	<path fill="none" stroke="#000000" stroke-width="3" stroke-linecap="round" stroke-linejoin="round" stroke-miterlimit="10" d="
		M734.407,213.175l-3.396,2.473l20.176-2.473c0,0-0.367-1.306,11.371,0s23.477,1.789,22.009-0.58c-1.466-2.37-8.437,0-8.437,0
		l15.041,0.58l1.834-4.894l5.686,8.119"/>
	
		<polyline fill="none" stroke="#000000" stroke-width="3" stroke-linecap="round" stroke-linejoin="round" stroke-miterlimit="10" points="
		812.079,213.175 807.676,218.069 815.38,218.069 	"/>
	
		<polyline fill="none" stroke="#000000" stroke-width="3" stroke-linecap="round" stroke-linejoin="round" stroke-miterlimit="10" points="
		704.599,226.893 702.398,234.421 711.569,233.276 	"/>
	
		<polyline fill="none" stroke="#000000" stroke-width="3" stroke-linecap="round" stroke-linejoin="round" stroke-miterlimit="10" points="
		722.94,232.212 722.94,236.113 731.01,236.113 728.442,232.212 734.407,228.312 739.815,232.212 749.351,234.421 	"/>
	<path fill="none" stroke="#000000" stroke-width="3" stroke-linecap="round" stroke-linejoin="round" stroke-miterlimit="10" d="
		M755.588,232.212l2.567,2.208l6.693-3.764l6.146,1.882c0,0,3.301-4.582,0-4.228c-3.302,0.354,6.603,3.901,6.603,3.901"/>
	
		<polyline fill="none" stroke="#000000" stroke-width="3" stroke-linecap="round" stroke-linejoin="round" stroke-miterlimit="10" points="
		782,228.312 783.834,232.212 789.703,230.262 801.074,230.262 	"/>
	
		<polyline fill="none" stroke="#000000" stroke-width="3" stroke-linecap="round" stroke-linejoin="round" stroke-miterlimit="10" points="
		824.917,157.149 821.628,160.854 816.849,157.149 811.529,159.002 806.21,159.002 	"/>
	<path fill="none" stroke="#000000" stroke-width="3" stroke-linecap="round" stroke-linejoin="round" stroke-miterlimit="10" d="
		M576.576,208.171c0,0,71.165-3.685,78.501,0.778"/>
	<path fill="none" stroke="#000000" stroke-width="3" stroke-linecap="round" stroke-linejoin="round" stroke-miterlimit="10" d="
		M580.611,206.742v-28.436h6.97v28.436h6.97l-1.468-36.238h7.337l1.835,36.238l8.793,0.187l-1.824-72.965h6.603l2.936,72.825
		l8.224-0.047v-21.699h5.349l1.834,21.699c0,0,3.212,0.115,5.084,0.187s-2.517-86.427-2.517-86.427h6.237l4.034,86.24"/>
	
		<polyline fill="none" stroke="#000000" stroke-width="3" stroke-linecap="round" stroke-linejoin="round" stroke-miterlimit="10" points="
		580.611,218.069 585.748,220.155 585.748,215.648 583.179,222.048 	"/>
	
		<line fill="none" stroke="#000000" stroke-width="3" stroke-linecap="round" stroke-linejoin="round" stroke-miterlimit="10" x1="600.053" y1="215.622" x2="596.384" y2="218.069"/>
	
		<polyline fill="none" stroke="#000000" stroke-width="3" stroke-linecap="round" stroke-linejoin="round" stroke-miterlimit="10" points="
		613.117,215.622 610.691,218.848 615.826,218.069 618.761,218.848 	"/>
	
		<polyline fill="none" stroke="#000000" stroke-width="3" stroke-linecap="round" stroke-linejoin="round" stroke-miterlimit="10" points="
		630.867,215.622 627.932,216.846 632.701,218.848 632.701,216.846 	"/>
	
		<polyline fill="none" stroke="#000000" stroke-width="3" stroke-linecap="round" stroke-linejoin="round" stroke-miterlimit="10" points="
		644.072,215.622 642.972,218.848 648.474,218.069 651.042,220.51 	"/>
	<path fill="none" stroke="#000000" stroke-width="3" stroke-linecap="round" stroke-linejoin="round" stroke-miterlimit="10" d="
		M382.887,171.061v4.271l3.668-4.271c0,0-2.901,2.881,2.568,3.499c5.469,0.618,3.301-3.499,3.301-3.499l4.769,4.271l5.136-4.271
		l2.844-3.657l4.126,3.964c0,0,4.739,1.76,5.296-0.307s3.281-3.657,3.281-3.657l2.793,3.657"/>
	
		<polyline fill="none" stroke="#000000" stroke-width="3" stroke-linecap="round" stroke-linejoin="round" stroke-miterlimit="10" points="
		426.215,165.897 426.215,169.516 431.675,167.403 428.945,163.716 431.675,171.368 436.077,167.542 	"/>
	<path fill="none" stroke="#000000" stroke-width="3" stroke-linecap="round" stroke-linejoin="round" stroke-miterlimit="10" d="
		M704.966,73.34c0,0-7.703,4.255-2.568,7.092s15.454,0.046,10.271-6.207c-3.154-3.807-8.731-2.305-8.731-2.305"/>
	<path fill="none" stroke="#000000" stroke-width="3" stroke-linecap="round" stroke-linejoin="round" stroke-miterlimit="10" d="
		M640.402,48.162c0,0-6.601,4.966-2.933,8.512s13.478-0.363,12.472-4.256c-1.101-4.256-10.156-4.255-10.156-4.255"/>
	<path fill="none" stroke="#000000" stroke-width="3" stroke-linecap="round" stroke-linejoin="round" stroke-miterlimit="10" d="
		M686.257,113.059c0,0-5.512,2.476-3.123,7.444c2.389,4.968,11.194,1.5,10.46-1.908S686.257,113.059,686.257,113.059z"/>
	<path fill="none" stroke="#000000" stroke-width="3" stroke-linecap="round" stroke-linejoin="round" stroke-miterlimit="10" d="
		M655.449,62.347l-3.975-4.259c2.267-0.713,45.419,15.252,45.419,15.252"/>
	
		<line fill="none" stroke="#000000" stroke-width="3" stroke-linecap="round" stroke-linejoin="round" stroke-miterlimit="10" x1="658.011" y1="56.674" x2="651.474" y2="58.088"/>
	<path fill="none" stroke="#000000" stroke-width="3" stroke-linecap="round" stroke-linejoin="round" stroke-miterlimit="10" d="
		M667.781,133.627l3.475,2.218l2.473-4.701c0,0-6.125,2.664,1.001,4.701c7.126,2.038,7.805-2.35,7.805-2.35l-2.879-4.124
		l5.136,10.284"/>
	
		<polyline fill="none" stroke="#000000" stroke-width="3" stroke-linecap="round" stroke-linejoin="round" stroke-miterlimit="10" points="
		688.085,130.79 688.085,134.513 693.637,134.513 698.093,130.79 	"/>
	<path fill="none" stroke="#000000" stroke-width="3" stroke-linecap="round" stroke-linejoin="round" stroke-miterlimit="10" d="
		M667.781,148.409h6.402l-0.455,3.441c0,0,3.349-3.909,9.406-3.441c6.058,0.467,7.159-0.849,7.159-0.849"/>
	
		<polyline fill="none" stroke="#000000" stroke-width="3" stroke-linecap="round" stroke-linejoin="round" stroke-miterlimit="10" points="
		669.383,161.302 673.728,161.302 673.728,164.833 679.038,164.833 	"/>
	
		<polyline fill="none" stroke="#000000" stroke-width="3" stroke-linecap="round" stroke-linejoin="round" stroke-miterlimit="10" points="
		684.791,111.64 683.134,99.229 679.038,102.865 	"/>
	
		<line fill="none" stroke="#000000" stroke-width="3" stroke-linecap="round" stroke-linejoin="round" stroke-miterlimit="10" x1="683.134" y1="99.229" x2="688.085" y2="101.8"/>
	
		<polyline fill="none" stroke="#000000" stroke-width="3" stroke-linecap="round" stroke-linejoin="round" stroke-miterlimit="10" points="
		676.287,90.008 676.287,96.746 690.293,96.746 690.293,88.183 674.729,88.183 	"/>
	<path fill="none" stroke="#000000" stroke-width="3" stroke-linecap="round" stroke-linejoin="round" stroke-miterlimit="10" d="
		M699.302,87.453l5.664-2.055c-0.367,3.9-11.329,30.143-11.329,30.143"/>
	
		<line fill="none" stroke="#000000" stroke-width="3" stroke-linecap="round" stroke-linejoin="round" stroke-miterlimit="10" x1="708.267" y1="90.86" x2="704.966" y2="85.398"/>
	
		<polyline fill="none" stroke="#000000" stroke-width="3" stroke-linecap="round" stroke-linejoin="round" stroke-miterlimit="10" points="
		477.532,105.435 481.933,107.03 481.933,111.64 486.843,105.435 484.869,102.54 490.738,111.64 	"/>
	
		<polyline fill="none" stroke="#000000" stroke-width="3" stroke-linecap="round" stroke-linejoin="round" stroke-miterlimit="10" points="
		480.101,118.594 484.135,122.984 485.603,118.594 	"/>
	
		<polyline fill="none" stroke="#000000" stroke-width="3" stroke-linecap="round" stroke-linejoin="round" stroke-miterlimit="10" points="
		480.43,134.513 486.843,135.845 486.843,130.79 484.135,139.655 490.738,139.655 	"/>
	
		<polyline fill="none" stroke="#000000" stroke-width="3" stroke-linecap="round" stroke-linejoin="round" stroke-miterlimit="10" points="
		417.877,192.494 431.146,192.494 431.146,198.962 434.61,195.169 434.61,191.606 439.012,195.284 	"/>
	<path fill="none" stroke="#000000" stroke-width="3" stroke-linecap="round" stroke-linejoin="round" stroke-miterlimit="10" d="
		M446.349,193.942l2.57,5.02l3.668-5.02l6.604,2.695h9.537l-2.934-2.243c0,0-9.537,5.808-1.102,6.387
		c8.438,0.579,8.543-3.419,8.543-3.419"/>
	
		<polyline fill="none" stroke="#000000" stroke-width="3" stroke-linecap="round" stroke-linejoin="round" stroke-miterlimit="10" points="
		458.07,182.332 458.07,188.594 463.959,182.332 466.894,185.463 473.236,182.332 474.598,185.463 	"/>
	<path fill="none" stroke="#000000" stroke-width="3" stroke-linecap="round" stroke-linejoin="round" stroke-miterlimit="10" d="
		M490.738,187.175l-3.895-1.712c0,0,4.628-3.502,3.895-5.86s-3.895-1.648-3.895-1.648"/>
	
		<line fill="none" stroke="#000000" stroke-width="3" stroke-linecap="round" stroke-linejoin="round" stroke-miterlimit="10" x1="482.851" y1="147.56" x2="484.135" y2="149.705"/>
	<path fill="none" stroke="#000000" stroke-width="3" stroke-linecap="round" stroke-linejoin="round" stroke-miterlimit="10" d="
		M539.893,83.941c0,0-37.416,20.599-25.312,39.043c1.835-2.124,1.838-4.963,1.838-4.963"/>
	
		<line fill="none" stroke="#000000" stroke-width="3" stroke-linecap="round" stroke-linejoin="round" stroke-miterlimit="10" x1="509.08" y1="120.789" x2="514.582" y2="122.984"/>
	<path fill="none" stroke="#000000" stroke-width="3" stroke-linecap="round" stroke-linejoin="round" stroke-miterlimit="10" d="
		M512.171,132.651l1.311,3.194l5.135-1.597c0,0-1.835-1.685,4.035,0.974c5.869,2.66,3.38-2.571,3.38-2.571l-4.48-1.861"/>
	
		<polyline fill="none" stroke="#000000" stroke-width="3" stroke-linecap="round" stroke-linejoin="round" stroke-miterlimit="10" points="
		532.479,132.651 531.089,135.977 538.426,135.977 	"/>
	<path fill="none" stroke="#000000" stroke-width="3" stroke-linecap="round" stroke-linejoin="round" stroke-miterlimit="10" d="
		M516.419,143.202v4.358l6.232-2.179l3.904,2.179c0,0,7.679-0.354,5.923-2.179"/>
	
		<polyline fill="none" stroke="#000000" stroke-width="3" stroke-linecap="round" stroke-linejoin="round" stroke-miterlimit="10" points="
		546.129,79.015 546.129,83.941 543.928,79.015 550.164,80.479 	"/>
	
		<polyline fill="none" stroke="#000000" stroke-width="3" stroke-linecap="round" stroke-linejoin="round" stroke-miterlimit="10" points="
		504.215,149.705 509.08,160.854 506.647,160.854 511.831,159.002 509.08,154.751 	"/>
	
		<polyline fill="none" stroke="#000000" stroke-width="3" stroke-linecap="round" stroke-linejoin="round" stroke-miterlimit="10" points="
		514.582,157.149 516.419,161.302 522.285,159.002 519.365,155.28 	"/>
	
		<line fill="none" stroke="#000000" stroke-width="3" stroke-linecap="round" stroke-linejoin="round" stroke-miterlimit="10" x1="509.08" y1="143.202" x2="503.697" y2="143.202"/>
	
		<line fill="none" stroke="#000000" stroke-width="3" stroke-linecap="round" stroke-linejoin="round" stroke-miterlimit="10" x1="506.388" y1="134.513" x2="504.215" y2="135.845"/>
	
		<line fill="none" stroke="#000000" stroke-width="3" stroke-linecap="round" stroke-linejoin="round" stroke-miterlimit="10" x1="550.164" y1="75.469" x2="553.833" y2="76.585"/>
	<path fill="none" stroke="#000000" stroke-width="3" stroke-linecap="round" stroke-linejoin="round" stroke-miterlimit="10" d="
		M80.988,93.345c0,0-23.477,4.11-24.944,18.295c12.472,9.149,24.944,17.731,24.944,17.731V93.345z"/>
	<path fill="none" stroke="#000000" stroke-width="3" stroke-linecap="round" stroke-linejoin="round" stroke-miterlimit="10" d="
		M52.008,121.92l27.879,12.992l-5.869,32.629C74.018,167.542,39.536,155.605,52.008,121.92z"/>
	<path fill="none" stroke="#000000" stroke-width="3" stroke-linecap="round" stroke-linejoin="round" stroke-miterlimit="10" d="
		M85.022,138.237l-4.034,31.279c0,0,12.472,0,22.622-6.448C96.396,154.751,85.022,138.237,85.022,138.237z"/>
	<path fill="none" stroke="#000000" stroke-width="3" stroke-linecap="round" stroke-linejoin="round" stroke-miterlimit="10" d="
		M90.527,136.642l19.075,23.777c0,0,7.401-4.075,6.971-9.666C109.834,145.795,90.527,136.642,90.527,136.642z"/>
	<path fill="none" stroke="#000000" stroke-width="3" stroke-linecap="round" stroke-linejoin="round" stroke-miterlimit="10" d="
		M119.141,143.202L91.628,130.79l12.655-34.044C104.284,96.746,130.511,115.542,119.141,143.202z"/>
	<path fill="none" stroke="#000000" stroke-width="3" stroke-linecap="round" stroke-linejoin="round" stroke-miterlimit="10" d="
		M88.325,93.345l-2.783,36.027l9.02-36.027C94.562,93.345,90.16,92.425,88.325,93.345z"/>
	<path fill="none" stroke="#000000" stroke-width="3" stroke-linecap="round" stroke-linejoin="round" stroke-miterlimit="10" d="
		M62.28,147.56c0,0-11.372,14.51-9.904,27.772"/>
	
		<polyline fill="none" stroke="#000000" stroke-width="3" stroke-linecap="round" stroke-linejoin="round" stroke-miterlimit="10" points="
		57.262,147.56 62.28,146.496 62.28,151.85 	"/>
	<path fill="none" stroke="#000000" stroke-width="3" stroke-linecap="round" stroke-linejoin="round" stroke-miterlimit="10" d="
		M49.289,182.332l-1.682,4.843l4.639-2.422l2.331,2.422c0,0,6.721,2.25,5.194-1.712c-1.526-3.961-3.727-2.948-3.727-2.948
		l6.236,2.557"/>
	<path fill="none" stroke="#000000" stroke-width="3" stroke-linecap="round" stroke-linejoin="round" stroke-miterlimit="10" d="
		M94.562,197.391c0,0-2.048-33.939-4.51-36.972"/>
	
		<polyline fill="none" stroke="#000000" stroke-width="3" stroke-linecap="round" stroke-linejoin="round" stroke-miterlimit="10" points="
		87.591,163.716 89.793,158.291 94.562,161.918 	"/>
	
		<polyline fill="none" stroke="#000000" stroke-width="3" stroke-linecap="round" stroke-linejoin="round" stroke-miterlimit="10" points="
		83.34,203.33 83.34,208.949 90.052,206.14 87.591,203.33 90.052,208.282 94.562,206.14 	"/>
	<path fill="none" stroke="#000000" stroke-width="3" stroke-linecap="round" stroke-linejoin="round" stroke-miterlimit="10" d="
		M98.229,200.838c0,0,18.363-22.984,16.161-37.771"/>
	
		<polyline fill="none" stroke="#000000" stroke-width="3" stroke-linecap="round" stroke-linejoin="round" stroke-miterlimit="10" points="
		111.434,164.833 114.37,161.302 118.771,165.274 	"/>
	<path fill="none" stroke="#000000" stroke-width="3" stroke-linecap="round" stroke-linejoin="round" stroke-miterlimit="10" d="
		M62.28,92.464c0,0,4.402,11.493,7.703,14.625v-4.55"/>
	
		<line fill="none" stroke="#000000" stroke-width="3" stroke-linecap="round" stroke-linejoin="round" stroke-miterlimit="10" x1="66.132" y1="107.09" x2="69.983" y2="107.09"/>
	
		<polyline fill="none" stroke="#000000" stroke-width="3" stroke-linecap="round" stroke-linejoin="round" stroke-miterlimit="10" points="
		52.245,85.398 52.245,92.464 57.262,88.129 57.262,85.398 62.28,85.398 	"/>
	<path fill="none" stroke="#000000" stroke-width="3" stroke-linecap="round" stroke-linejoin="round" stroke-miterlimit="10" d="
		M115.103,93.345c0,0,0.367,26.731-5.869,28.542"/>
	
		<polyline fill="none" stroke="#000000" stroke-width="3" stroke-linecap="round" stroke-linejoin="round" stroke-miterlimit="10" points="
		106.814,118.594 109.234,122.984 112.17,122.984 	"/>
	
		<polyline fill="none" stroke="#000000" stroke-width="3" stroke-linecap="round" stroke-linejoin="round" stroke-miterlimit="10" points="
		106.814,83.941 106.814,88.129 114.573,86.036 110.693,81.542 116.588,87.453 118.771,84.835 	"/>
	<path fill="none" stroke="#000000" stroke-width="3" stroke-linecap="round" stroke-linejoin="round" stroke-miterlimit="10" d="
		M83.34,62.348l-2.352,5.265l7.963-2.632c0,0-6.129-4.815,7.077,0"/>
	
		<line fill="none" stroke="#000000" stroke-width="3" stroke-linecap="round" stroke-linejoin="round" stroke-miterlimit="10" x1="103.56" y1="64.98" x2="103.609" y2="67.612"/>
	
		<polyline fill="none" stroke="#000000" stroke-width="3" stroke-linecap="round" stroke-linejoin="round" stroke-miterlimit="10" points="
		111.434,62.348 111.434,65.703 115.103,64.025 120.239,65.703 125.741,61.019 118.771,61.019 	"/>
	<path fill="none" stroke="#000000" stroke-width="3" stroke-linecap="round" stroke-linejoin="round" stroke-miterlimit="10" d="
		M135.645,83.941c0,0,4.036,0.997,2.568,4.241c-1.468,3.244,4.769-4.241,4.769-4.241l3.026,4.188"/>
	<path fill="none" stroke="#000000" stroke-width="3" stroke-linecap="round" stroke-linejoin="round" stroke-miterlimit="10" d="
		M134.301,99.777l1.344,2.763l5.182-2.763c0,0-9.491,0.045,0,2.763c9.492,2.717,9.492-2.763,9.492-2.763l-1.467-0.548"/>
	
		<polyline fill="none" stroke="#000000" stroke-width="3" stroke-linecap="round" stroke-linejoin="round" stroke-miterlimit="10" points="
		134.301,115.542 137.479,118.594 137.479,122.984 	"/>
	<path fill="none" stroke="#000000" stroke-width="3" stroke-linecap="round" stroke-linejoin="round" stroke-miterlimit="10" d="
		M146.008,115.542l-2.292,3.721c0,0,9.537,0.966,8.437-0.668"/>
	
		<polyline fill="none" stroke="#000000" stroke-width="3" stroke-linecap="round" stroke-linejoin="round" stroke-miterlimit="10" points="
		131.241,179.603 152.241,179.603 147.979,175.332 	"/>
	
		<line fill="none" stroke="#000000" stroke-width="3" stroke-linecap="round" stroke-linejoin="round" stroke-miterlimit="10" x1="147.979" y1="183.579" x2="152.241" y2="179.603"/>
	
		<polyline fill="none" stroke="#000000" stroke-width="3" stroke-linecap="round" stroke-linejoin="round" stroke-miterlimit="10" points="
		131.827,162.285 134.301,165.274 140.24,143.202 143.543,154.239 152.241,134.314 	"/>
	<path fill="none" stroke="#000000" stroke-width="3" stroke-linecap="round" stroke-linejoin="round" stroke-miterlimit="10" d="
		M831.387,147.56c3.334-10.33,3.333-79.948,3.333-79.948l94,5.728c0,0-1.999,132.866-9.333,148.708
		c-30-0.825-81.078-5.647-81.078-5.647"/>
	<path fill="none" stroke="#000000" stroke-width="3" stroke-linecap="round" stroke-linejoin="round" stroke-miterlimit="10" d="
		M847.304,174.508c0,0,16.083,6.528,20.083,10.955"/>
	<path fill="none" stroke="#000000" stroke-width="3" stroke-linecap="round" stroke-linejoin="round" stroke-miterlimit="10" d="
		M854.138,177.955c0,0-5.45,14.987-6.116,16.935s9.698,1.748,9.698,1.748s-0.993-14.447,0-16.123l-2.958-0.912l-4.041,14.339h5
		l0.166-1.448h-2.5l0.375-2.354l1.375-0.125c0,0-0.25-6.875,0.375-7.75"/>
	<g id="Ebene_6">
		<g>
			<g>
				<path d="M861.054,174.724c1.935,0,1.935-3,0-3S859.12,174.724,861.054,174.724L861.054,174.724z"/>
			</g>
		</g>
		<g>
			<g>
				<path d="M856.721,171.39c1.935,0,1.935-3,0-3S854.787,171.39,856.721,171.39L856.721,171.39z"/>
			</g>
		</g>
		<g>
			<g>
				<path d="M856.387,163.39c1.935,0,1.935-3,0-3S854.453,163.39,856.387,163.39L856.387,163.39z"/>
			</g>
		</g>
		<g>
			<g>
				<path d="M852.387,155.057c1.935,0,1.935-3,0-3S850.453,155.057,852.387,155.057L852.387,155.057z"/>
			</g>
		</g>
		<g>
			<g>
				<path d="M863.721,163.39c1.935,0,1.935-3,0-3S861.787,163.39,863.721,163.39L863.721,163.39z"/>
			</g>
		</g>
		<g>
			<g>
				<path d="M881.054,153.057c1.935,0,1.935-3,0-3S879.12,153.057,881.054,153.057L881.054,153.057z"/>
			</g>
		</g>
		<g>
			<g>
				<path d="M884.054,161.39c1.935,0,1.935-3,0-3S882.12,161.39,884.054,161.39L884.054,161.39z"/>
			</g>
		</g>
		<g>
			<g>
				<path d="M875.054,167.39c1.935,0,1.935-3,0-3S873.12,167.39,875.054,167.39L875.054,167.39z"/>
			</g>
		</g>
		<g>
			<g>
				<path d="M902.387,160.39c1.935,0,1.935-3,0-3S900.453,160.39,902.387,160.39L902.387,160.39z"/>
			</g>
		</g>
		<g>
			<g>
				<path d="M864.054,138.057c1.935,0,1.935-3,0-3S862.12,138.057,864.054,138.057L864.054,138.057z"/>
			</g>
		</g>
		<g>
			<g>
				<path d="M855.721,119.724c1.935,0,1.935-3,0-3S853.787,119.724,855.721,119.724L855.721,119.724z"/>
			</g>
		</g>
	</g>
	
		<polyline fill="none" stroke="#000000" stroke-width="3" stroke-linecap="round" stroke-linejoin="round" stroke-miterlimit="10" points="
		890.387,92.464 888.387,96.746 893.721,94.605 896.054,96.746 	"/>
	<path fill="none" stroke="#000000" stroke-width="3" stroke-linecap="round" stroke-linejoin="round" stroke-miterlimit="10" d="
		M902.387,94.605c0,0-4-0.003-2,2.141s10,3.724,10,3.724l-1.333-5.865l-1.667,2.141h7"/>
	
		<polyline fill="none" stroke="#000000" stroke-width="3" stroke-linecap="round" stroke-linejoin="round" stroke-miterlimit="10" points="
		875.054,102.54 878.721,107.09 875.054,107.09 881.054,104.815 884.054,107.09 888.387,104.815 	"/>
	
		<polyline fill="none" stroke="#000000" stroke-width="3" stroke-linecap="round" stroke-linejoin="round" stroke-miterlimit="10" points="
		892.221,107.09 892.221,104.815 896.054,109.224 	"/>
	
		<polyline fill="none" stroke="#000000" stroke-width="3" stroke-linecap="round" stroke-linejoin="round" stroke-miterlimit="10" points="
		902.387,104.815 902.387,109.224 909.721,107.09 911.721,109.224 	"/>
	
		<polyline fill="none" stroke="#000000" stroke-width="3" stroke-linecap="round" stroke-linejoin="round" stroke-miterlimit="10" points="
		884.054,118.021 886.387,120.502 890.721,118.021 	"/>
	<path fill="none" stroke="#000000" stroke-width="3" stroke-linecap="round" stroke-linejoin="round" stroke-miterlimit="10" d="
		M898.054,118.021v2.481c0,0,1.666-2.945,4.333-2.279s8.668,6.521,9.334,4.76s-3-4.962-3-4.962"/>
</g>
<g id="Ebene_3">
	<path fill="none" stroke="#009BA4" stroke-width="3" stroke-linecap="round" stroke-linejoin="round" stroke-miterlimit="10" d="
		M645.292,856.39c0,0-112.927,8.75-100.073,31.5c10.274,18.186,302.041,27,277.296,0c-24.746-27-186.32-26-186.32-26
		s-87.654,1.495-94.979,24.5c-2.548,8,8.733,9.5,8.733,9.5s41.121,14.5,245.118,6.003c36.545-2.003,48.189-17.624,26.355-22.813
		c-21.835-5.189-124.456-29.689-213.977-11.189"/>
	<path fill="none" stroke="#009BA4" stroke-width="3" stroke-linecap="round" stroke-linejoin="round" stroke-miterlimit="10" d="
		M798.387,738.39c0,0-77,107-81,138c-5.134-11.431-6.496-26.499-6.496-26.499l9.147,21.084c0,0,62.849-122.085,87.349-137.085"/>
	
		<line fill="none" stroke="#009BA4" stroke-width="3" stroke-linecap="round" stroke-linejoin="round" stroke-miterlimit="10" x1="745.885" y1="853.891" x2="717.387" y2="876.39"/>
	
		<path display="none" fill="none" stroke="#009BA4" stroke-width="6" stroke-linecap="round" stroke-linejoin="round" stroke-miterlimit="10" d="
		M784.387,631.89c0,0,24,12,25,18.5"/>
	
		<path display="none" fill="none" stroke="#009BA4" stroke-width="6" stroke-linecap="round" stroke-linejoin="round" stroke-miterlimit="10" d="
		M809.387,623.39c0,0,10,60.499,0,64.999c-10.287,4.629-36-11.499-32-22.999"/>
	
		<path display="none" fill="none" stroke="#009BA4" stroke-width="6" stroke-linecap="round" stroke-linejoin="round" stroke-miterlimit="10" d="
		M826.387,618.39c0,0-12,18-2,22.75s22-5.25,17.5-13.75S830.138,611.362,826.387,618.39z"/>
	
		<path display="none" fill="none" stroke="#009BA4" stroke-width="6" stroke-linecap="round" stroke-linejoin="round" stroke-miterlimit="10" d="
		M848.887,609.89c0,0,2.54,22,11.5,22c5.853,0,19.5-8.5,13.5-16.278c-7.288-9.449-14-12.722-14-12.722"/>
	
		<path display="none" fill="none" stroke="#009BA4" stroke-width="6" stroke-linecap="round" stroke-linejoin="round" stroke-miterlimit="10" d="
		M892.387,584.89c-12.5-5.5-14.5,11.5-15,15.5s12.5,15.222,12.5,15.222l-17-15.903"/>
	
		<path display="none" fill="none" stroke="#009BA4" stroke-width="6" stroke-linecap="round" stroke-linejoin="round" stroke-miterlimit="10" d="
		M847.89,665.893c0,0-12,9.5-9,14.5s6.847,0,15.54,0c10.706,0,14.449,2.997,7.703,10.997s-21.299,9.5-19.272,6"/>
	
		<path display="none" fill="none" stroke="#009BA4" stroke-width="6" stroke-linecap="round" stroke-linejoin="round" stroke-miterlimit="10" d="
		M869.387,669.39l32.5,43.5c0,0-37.051-44-29-52c0,0,5.5-10.188,17.5-4.594s1.549,23.805-7.75,21.094"/>
	
		<path display="none" fill="none" stroke="#009BA4" stroke-width="6" stroke-linecap="round" stroke-linejoin="round" stroke-miterlimit="10" d="
		M897.716,645.321c0,0,2.415,16.569,10.915,15.069s19-10,13.5-19.25C916.739,632.072,901.92,629.518,897.716,645.321z"/>
	
		<path display="none" fill="none" stroke="#009BA4" stroke-width="6" stroke-linecap="round" stroke-linejoin="round" stroke-miterlimit="10" d="
		M921.887,602.89l30,47.5c0,0-30.5-22-30-23.75s18-16.25,24-15.75"/>
	<g id="Ebene_5">
		<g>
			<path fill="#009BA4" d="M820.392,699.126l3.744,0.004l5.043,13.324h0.073l4.856-13.318l3.455,0.004l-8.115,20.73
				c-0.287,0.744-0.587,1.42-0.897,2.033c-0.312,0.611-0.683,1.133-1.112,1.564c-0.431,0.432-0.951,0.768-1.561,1.008
				c-0.609,0.238-1.356,0.357-2.24,0.357c-0.479,0-0.963-0.031-1.452-0.092c-0.49-0.059-0.962-0.186-1.416-0.379l0.396-2.951
				c0.644,0.264,1.288,0.396,1.932,0.398c0.501,0,0.924-0.066,1.27-0.197c0.346-0.133,0.644-0.324,0.895-0.576
				s0.46-0.545,0.627-0.881s0.335-0.721,0.502-1.152l1.051-2.699L820.392,699.126z"/>
			<path fill="#009BA4" d="M839.575,707.673c0.001-1.248,0.234-2.412,0.704-3.492c0.469-1.078,1.111-2.025,1.928-2.842
				c0.816-0.814,1.776-1.457,2.882-1.924c1.104-0.467,2.292-0.701,3.564-0.699c1.271,0,2.459,0.236,3.563,0.705
				c1.103,0.469,2.062,1.111,2.878,1.928s1.457,1.766,1.924,2.846c0.468,1.08,0.701,2.244,0.7,3.492s-0.235,2.418-0.705,3.51
				c-0.469,1.092-1.112,2.039-1.928,2.842c-0.817,0.805-1.777,1.439-2.882,1.906s-2.292,0.699-3.563,0.699
				c-1.272-0.002-2.461-0.236-3.564-0.703c-1.104-0.471-2.063-1.107-2.878-1.912c-0.816-0.803-1.457-1.752-1.924-2.846
				C839.806,710.091,839.574,708.921,839.575,707.673z M843.031,707.675c-0.001,0.865,0.13,1.662,0.394,2.395
				c0.263,0.734,0.635,1.357,1.114,1.873c0.479,0.518,1.067,0.926,1.763,1.227c0.696,0.301,1.477,0.451,2.341,0.451
				c0.863,0,1.644-0.148,2.34-0.449c0.696-0.299,1.284-0.707,1.765-1.223s0.853-1.139,1.118-1.871
				c0.264-0.732,0.396-1.529,0.397-2.393c0-0.865-0.131-1.662-0.395-2.395s-0.636-1.355-1.114-1.873
				c-0.48-0.516-1.067-0.924-1.763-1.227c-0.696-0.299-1.477-0.449-2.34-0.451c-0.864,0-1.645,0.148-2.341,0.449
				c-0.696,0.299-1.285,0.707-1.765,1.223c-0.481,0.516-0.854,1.139-1.118,1.871C843.164,706.015,843.031,706.812,843.031,707.675z"
				/>
			<path fill="#009BA4" d="M876.9,716.234l-3.24-0.004l0.002-2.627h-0.072c-0.409,0.912-1.117,1.648-2.126,2.213
				c-1.008,0.562-2.172,0.844-3.492,0.842c-0.84,0-1.632-0.127-2.376-0.379s-1.397-0.643-1.961-1.172
				c-0.563-0.527-1.013-1.207-1.349-2.035s-0.502-1.807-0.501-2.934l0.008-10.98l3.24,0.002l-0.008,10.08
				c0,0.793,0.106,1.471,0.322,2.035c0.215,0.564,0.503,1.02,0.863,1.369c0.36,0.348,0.773,0.6,1.241,0.756s0.954,0.234,1.458,0.236
				c0.672,0,1.296-0.107,1.872-0.324c0.576-0.215,1.081-0.557,1.513-1.025c0.432-0.467,0.769-1.061,1.009-1.779
				c0.241-0.721,0.362-1.572,0.362-2.557l0.007-8.785l3.24,0.004L876.9,716.234z"/>
		</g>
	</g>
</g>
<g id="Ebene_2">
	<path d="M295.821,186.312c0,0-61.225,21.668-132.036,22.418c-0.024-2.284-3.143-5.565,10.784-6.398
		c13.927-0.831,71.205-6.692,93.84-15.729C291.044,177.566,296.361,183.451,295.821,186.312z"/>
	<path d="M239.937,140.644c0,0-35.125,5.398-47.05,11.808c-10.067-33.59-16.877-47.805-42.21-81.109
		c0,0,41.857-38.139,85.356-40.084C236.033,31.258,241.057,127.725,239.937,140.644z"/>
	<path fill="#F7941E" d="M253.555,190.932c0,0,1.7-1.737-3.757-3.676c-1.327-1.185-0.533-1.88,0.94-2.923
		c1.473-1.042,2.8-5.168-0.699-6.674c0.159-1.086,0.092-2.058-1.056-2.616c1.296-1.671,2.851-4.737-0.479-6.774
		c-3.327-2.037-3.119-3.869-2.21-4.334c0.908-0.467,0.436-1.946-0.656-2.677c-0.363-1.824-1.566-2.21-4.66-3.206
		c2.67-1.229,5.301-6.455,1.678-8.758c-3.624-2.302-0.253-2.166,0.196-2.971c0.449-0.805,0.315-2.746-1.3-4.212
		c-0.057-0.256-0.81-1.521-1.615-1.466c-7.356,0.502-37.13,2.257-48.676,13.326c0,0-3.942,3.995-1.06,6.534
		c1.225,2.386,1.434,3.213,2.349,3.316c0.916,0.104,1.666,1.01,1.5,1.525c-0.166,0.517-0.863,2.095,0.34,2.482
		c1.205,0.387,0.984,1.072-0.008,1.797c-0.993,0.726-2.347,4.938,0.431,5.736c2.779,0.799,1.476,1.611,0.521,3.393
		c-0.952,1.78,0.78,3.476,1.317,5.641c0.537,2.165,1.791,1.807,2.37,2.658s-0.12,2.144-1.201,2.556
		c-1.082,0.41-2.058,2.562-0.879,3.32c1.178,0.76,2.141,2.49,1.488,3.04c-0.651,0.552-0.521,3.049,0.959,4.003
		C199.391,199.97,240.175,194.891,253.555,190.932z"/>
	<path d="M441.669,91.925c0,0,0.764-9.206-0.303-10.806c-1.066-1.601-3.717-2.849-3.717-2.849s-0.372-1.281-2.312-3.913
		c-1.43-1.939-4.168-0.671-4.168-0.671s16.625-40.587,13.958-43.789c-1.841-2.208-20.46,40.014-26.292,45.471
		c-3.238,3.792-11.661,21.381-11.863,25.014c-0.895,16.079,1.778,20.808,1.778,20.808s-0.889,8.359-4.09,10.494
		c-3.202,2.133-28.812,92.303-28.812,92.303l-93.905,48.019c0,0-19.802,7.053-28.251,7.63c-3.024-6.046-2.326-20.969-2.326-20.969
		s-49.098,0-54.433,0c0,0,19.041,12.627,18.946,20.631c-0.094,8.003-13.255,14.406-15.39,14.939
		c-2.133,0.534-81.277,90.347-86.078,101.019c-4.803,10.672,114.471,28.814,114.471,28.814s3.973,6.936,3.973,10.67
		c0,3.737-11.74,6.406-11.74,6.406s-5.339-5.866-6.402-5.336c-1.062,0.532,1.631,9.02,6.402,11.739
		c3.74,2.131,14.337-1.462,14.337-1.462s-2.158,0.14-4.638,6.104c-3.202,4.802-4.63,8.549-11.592,25.585
		c-13.393,32.768-20.116,81.821-24.781,108.491c-4.623,33.256-3.23,36.306-2.696,40.575c7.368-14.766,25.014-36.913,29.282-46.517
		c-1.066,37.881-27.117,301.525-27.117,306.861c2.667-0.533,1.066,2.134,0.533,5.335c-0.534,3.201-12.361,16.007-13.429,24.544
		c9.355,1.879,42.359,2.135,45.027,0c0,0,5.177-5.787-7.589-18.792c-5.193-5.289-12.274-11.087-3.203-11.087
		c2.134-42.151,19.209-305.366,24.011-320.839c1.627-4.971,0,0,0,0s-3.621,64.164-0.296,69.863
		c3.735,6.402,14.831-47.269,14.831-47.269s13.21,294.792,13.21,302.796v4.268c0,0-6.403,14.94-6.403,21.876
		c10.671,2.668,64.283,1.062,64.283,1.062s16.006-0.534,17.606-3.201c1.601-2.668-40.273-18.67-47.209-20.804
		c-6.936-2.134-14.939-6.402-3.735-7.47c-2.668-44.816-22.186-346.84-21.652-351.107c0.533-4.269,4.373-77.921,4.373-82.189
		c1.916-12.804-1.461-63.335-1.995-76.137c-0.534-12.8-0.467-62.815,0.066-64.416c0.534-1.601,101.908-70.961,112.579-75.763
		c10.67-4.803,26.854-88.391,34.021-103.111c0.654-1.346-0.4-2.885-0.053-4.311c1.778-7.292,10.571-12.87,14.925-18.546
		C442.481,100.59,441.669,91.925,441.669,91.925z M151.758,387.785c3.734-1.601,50.734-53.283,64.12-57.623
		c9.154,13.338,19.643,77.368,19.643,77.368c0.003,1.601-3.608,0.709-5.178-1.52C211.463,401.395,148.519,389.173,151.758,387.785z"
		/>
</g>
</svg>
