<?xml version="1.0" encoding="utf-8"?>
<!-- Generator: Adobe Illustrator 16.0.0, SVG Export Plug-In . SVG Version: 6.00 Build 0)  -->
<!DOCTYPE svg PUBLIC "-//W3C//DTD SVG 1.1//EN" "http://www.w3.org/Graphics/SVG/1.1/DTD/svg11.dtd">
<svg version="1.1" xmlns="http://www.w3.org/2000/svg" xmlns:xlink="http://www.w3.org/1999/xlink" x="0px" y="0px"
	 width="665.967px" height="926.954px" viewBox="0 0 665.967 926.954" enable-background="new 0 0 665.967 926.954"
	 xml:space="preserve">
<g id="Ebene_4">
	<path fill="none" stroke="#000000" stroke-width="3" stroke-linecap="round" stroke-linejoin="round" stroke-miterlimit="10" d="
		M350.39,42.794c0,0-4.508,31.196-8.503,29.012c-3.994-2.183-22.766-4.193-22.766-4.193l-5.838,31.264l-14.685-4.844l-5.59,40.674
		l-11.447-9.883l-2.858,37.461c0,0-16.787-84.689-16.484-103.838"/>
	<path fill="none" stroke="#000000" stroke-width="3" stroke-linecap="round" stroke-linejoin="round" stroke-miterlimit="10" d="
		M362.144,10.39c0,0-105.405,23.183-113.725,28.059c1.767,46.801,24.964,149.708,26.982,152.634
		c18.154-2.925,104.896-11.483,110.948-10.508C380.297,135.723,362.144,10.39,362.144,10.39z"/>
	<path fill="none" stroke="#000000" stroke-width="3" stroke-linecap="round" stroke-linejoin="round" stroke-miterlimit="10" d="
		M373.143,88.183c0,0,23.518-2.669,30.578,2.206c-1.008,18.526-0.236,131.66-0.236,131.66l-101.807-3.211l1-29.628"/>
	
		<polyline fill="none" stroke="#000000" stroke-width="3" stroke-linecap="round" stroke-linejoin="round" stroke-miterlimit="10" points="
		256.715,65.364 262.215,56.674 268.086,64.476 	"/>
	<path fill="none" stroke="#000000" stroke-width="3" stroke-linecap="round" stroke-linejoin="round" stroke-miterlimit="10" d="
		M278.703,162.285c0,0,86.439-15.687,94.038-15.789c-1.57-1.876-6.342-5.082-6.342-5.082"/>
	
		<line fill="none" stroke="#000000" stroke-width="3" stroke-linecap="round" stroke-linejoin="round" stroke-miterlimit="10" x1="368.233" y1="151.85" x2="372.741" y2="146.496"/>
	<path fill="none" stroke="#000000" stroke-width="3" stroke-linecap="round" stroke-linejoin="round" stroke-miterlimit="10" d="
		M282.393,171.061v4.271l3.668-4.271c0,0-2.901,2.881,2.568,3.499c5.469,0.618,3.301-3.499,3.301-3.499l4.769,4.271l5.136-4.271
		l2.844-3.657l4.126,3.964c0,0,4.739,1.76,5.296-0.307s3.281-3.657,3.281-3.657l2.793,3.657"/>
	
		<polyline fill="none" stroke="#000000" stroke-width="3" stroke-linecap="round" stroke-linejoin="round" stroke-miterlimit="10" points="
		325.72,165.897 325.72,169.516 331.18,167.403 328.45,163.716 331.18,171.368 335.583,167.542 	"/>
	
		<polyline fill="none" stroke="#000000" stroke-width="3" stroke-linecap="round" stroke-linejoin="round" stroke-miterlimit="10" points="
		377.037,105.435 381.438,107.03 381.438,111.64 386.349,105.435 384.374,102.54 390.243,111.64 	"/>
	
		<polyline fill="none" stroke="#000000" stroke-width="3" stroke-linecap="round" stroke-linejoin="round" stroke-miterlimit="10" points="
		379.606,118.594 383.641,122.984 385.108,118.594 	"/>
	
		<polyline fill="none" stroke="#000000" stroke-width="3" stroke-linecap="round" stroke-linejoin="round" stroke-miterlimit="10" points="
		379.936,134.513 386.349,135.845 386.349,130.79 383.641,139.655 390.243,139.655 	"/>
	
		<polyline fill="none" stroke="#000000" stroke-width="3" stroke-linecap="round" stroke-linejoin="round" stroke-miterlimit="10" points="
		317.382,192.494 330.651,192.494 330.651,198.962 334.116,195.169 334.116,191.606 338.517,195.284 	"/>
	<path fill="none" stroke="#000000" stroke-width="3" stroke-linecap="round" stroke-linejoin="round" stroke-miterlimit="10" d="
		M345.854,193.942l2.57,5.02l3.668-5.02l6.604,2.695h9.537l-2.934-2.243c0,0-9.537,5.808-1.102,6.387
		c8.438,0.579,8.543-3.419,8.543-3.419"/>
	
		<polyline fill="none" stroke="#000000" stroke-width="3" stroke-linecap="round" stroke-linejoin="round" stroke-miterlimit="10" points="
		357.575,182.332 357.575,188.594 363.465,182.332 366.399,185.463 372.741,182.332 374.104,185.463 	"/>
	<path fill="none" stroke="#000000" stroke-width="3" stroke-linecap="round" stroke-linejoin="round" stroke-miterlimit="10" d="
		M390.243,187.175l-3.895-1.712c0,0,4.628-3.502,3.895-5.86s-3.895-1.648-3.895-1.648"/>
	
		<line fill="none" stroke="#000000" stroke-width="3" stroke-linecap="round" stroke-linejoin="round" stroke-miterlimit="10" x1="382.356" y1="147.56" x2="383.641" y2="149.705"/>
	<g id="Ebene_6">
	</g>
</g>
<g id="Ebene_3">
	<path fill="none" stroke="#009BA4" stroke-width="3" stroke-linecap="round" stroke-linejoin="round" stroke-miterlimit="10" d="
		M418.805,863.89c0,0-112.927,8.75-100.073,31.5c10.274,18.186,302.041,27,277.296,0c-24.746-27-186.32-26-186.32-26
		s-87.654,1.495-94.979,24.5c-2.548,8,8.733,9.5,8.733,9.5s41.121,14.5,245.118,6.003c36.545-2.003,48.189-17.624,26.355-22.813
		c-21.835-5.189-124.456-29.689-213.977-11.189"/>
	<path fill="none" stroke="#009BA4" stroke-width="3" stroke-linecap="round" stroke-linejoin="round" stroke-miterlimit="10" d="
		M571.899,745.89c0,0-77,107-81,138c-5.134-11.431-6.496-26.499-6.496-26.499l9.147,21.084c0,0,62.849-122.085,87.349-137.085"/>
	
		<line fill="none" stroke="#009BA4" stroke-width="3" stroke-linecap="round" stroke-linejoin="round" stroke-miterlimit="10" x1="519.397" y1="861.391" x2="490.899" y2="883.89"/>
	
		<path display="none" fill="none" stroke="#009BA4" stroke-width="6" stroke-linecap="round" stroke-linejoin="round" stroke-miterlimit="10" d="
		M683.893,631.89c0,0,24,12,25,18.5"/>
	
		<path display="none" fill="none" stroke="#009BA4" stroke-width="6" stroke-linecap="round" stroke-linejoin="round" stroke-miterlimit="10" d="
		M708.893,623.39c0,0,10,60.499,0,64.999c-10.287,4.629-36-11.499-32-22.999"/>
	
		<path display="none" fill="none" stroke="#009BA4" stroke-width="6" stroke-linecap="round" stroke-linejoin="round" stroke-miterlimit="10" d="
		M725.893,618.39c0,0-12,18-2,22.75s22-5.25,17.5-13.75S729.644,611.362,725.893,618.39z"/>
	
		<path display="none" fill="none" stroke="#009BA4" stroke-width="6" stroke-linecap="round" stroke-linejoin="round" stroke-miterlimit="10" d="
		M748.393,609.89c0,0,2.54,22,11.5,22c5.853,0,19.5-8.5,13.5-16.278c-7.288-9.449-14-12.722-14-12.722"/>
	
		<path display="none" fill="none" stroke="#009BA4" stroke-width="6" stroke-linecap="round" stroke-linejoin="round" stroke-miterlimit="10" d="
		M791.893,584.89c-12.5-5.5-14.5,11.5-15,15.5s12.5,15.222,12.5,15.222l-17-15.903"/>
	
		<path display="none" fill="none" stroke="#009BA4" stroke-width="6" stroke-linecap="round" stroke-linejoin="round" stroke-miterlimit="10" d="
		M747.396,665.893c0,0-12,9.5-9,14.5s6.847,0,15.54,0c10.706,0,14.449,2.997,7.703,10.997s-21.299,9.5-19.272,6"/>
	
		<path display="none" fill="none" stroke="#009BA4" stroke-width="6" stroke-linecap="round" stroke-linejoin="round" stroke-miterlimit="10" d="
		M768.893,669.39l32.5,43.5c0,0-37.051-44-29-52c0,0,5.5-10.188,17.5-4.594s1.549,23.805-7.75,21.094"/>
	
		<path display="none" fill="none" stroke="#009BA4" stroke-width="6" stroke-linecap="round" stroke-linejoin="round" stroke-miterlimit="10" d="
		M797.222,645.321c0,0,2.415,16.569,10.915,15.069s19-10,13.5-19.25C816.244,632.072,801.426,629.518,797.222,645.321z"/>
	
		<path display="none" fill="none" stroke="#009BA4" stroke-width="6" stroke-linecap="round" stroke-linejoin="round" stroke-miterlimit="10" d="
		M821.393,602.89l30,47.5c0,0-30.5-22-30-23.75s18-16.25,24-15.75"/>
	<g id="Ebene_5">
		<g>
			<path fill="#009BA4" d="M593.904,706.626l3.744,0.004l5.043,13.324h0.073l4.856-13.318l3.455,0.004l-8.115,20.73
				c-0.287,0.744-0.587,1.42-0.897,2.033c-0.312,0.611-0.683,1.133-1.112,1.564c-0.431,0.432-0.951,0.768-1.561,1.008
				c-0.609,0.238-1.356,0.357-2.24,0.357c-0.479,0-0.963-0.031-1.452-0.092c-0.49-0.059-0.962-0.186-1.416-0.379l0.396-2.951
				c0.644,0.264,1.288,0.396,1.932,0.398c0.501,0,0.924-0.066,1.27-0.197c0.346-0.133,0.644-0.324,0.895-0.576
				s0.46-0.545,0.627-0.881s0.335-0.721,0.502-1.152l1.051-2.699L593.904,706.626z"/>
			<path fill="#009BA4" d="M613.087,715.173c0.001-1.248,0.234-2.412,0.704-3.492c0.469-1.078,1.111-2.025,1.928-2.842
				c0.816-0.814,1.776-1.457,2.882-1.924c1.104-0.467,2.292-0.701,3.564-0.699c1.271,0,2.459,0.236,3.563,0.705
				c1.103,0.469,2.062,1.111,2.878,1.928s1.457,1.766,1.924,2.846c0.468,1.08,0.701,2.244,0.7,3.492s-0.235,2.418-0.705,3.51
				c-0.469,1.092-1.112,2.039-1.928,2.842c-0.817,0.805-1.777,1.439-2.882,1.906s-2.292,0.699-3.563,0.699
				c-1.272-0.002-2.461-0.236-3.564-0.703c-1.104-0.471-2.063-1.107-2.878-1.912c-0.816-0.803-1.457-1.752-1.924-2.846
				C613.318,717.591,613.086,716.421,613.087,715.173z M616.543,715.175c-0.001,0.865,0.13,1.662,0.394,2.395
				c0.263,0.734,0.635,1.357,1.114,1.873c0.479,0.518,1.067,0.926,1.763,1.227c0.696,0.301,1.477,0.451,2.341,0.451
				c0.863,0,1.644-0.148,2.34-0.449c0.696-0.299,1.284-0.707,1.765-1.223s0.853-1.139,1.118-1.871
				c0.264-0.732,0.396-1.529,0.397-2.393c0-0.865-0.131-1.662-0.395-2.395s-0.636-1.355-1.114-1.873
				c-0.48-0.516-1.067-0.924-1.763-1.227c-0.696-0.299-1.477-0.449-2.34-0.451c-0.864,0-1.645,0.148-2.341,0.449
				c-0.696,0.299-1.285,0.707-1.765,1.223c-0.481,0.516-0.854,1.139-1.118,1.871C616.676,713.515,616.543,714.312,616.543,715.175z"
				/>
			<path fill="#009BA4" d="M650.412,723.734l-3.24-0.004l0.002-2.627h-0.072c-0.409,0.912-1.117,1.648-2.126,2.213
				c-1.008,0.562-2.172,0.844-3.492,0.842c-0.84,0-1.632-0.127-2.376-0.379s-1.397-0.643-1.961-1.172
				c-0.563-0.527-1.013-1.207-1.349-2.035s-0.502-1.807-0.501-2.934l0.008-10.98l3.24,0.002l-0.008,10.08
				c0,0.793,0.106,1.471,0.322,2.035c0.215,0.564,0.503,1.02,0.863,1.369c0.36,0.348,0.773,0.6,1.241,0.756s0.954,0.234,1.458,0.236
				c0.672,0,1.296-0.107,1.872-0.324c0.576-0.215,1.081-0.557,1.513-1.025c0.432-0.467,0.769-1.061,1.009-1.779
				c0.241-0.721,0.362-1.572,0.362-2.557l0.007-8.785l3.24,0.004L650.412,723.734z"/>
		</g>
	</g>
</g>
<g id="Ebene_2">
	<path d="M195.326,186.312c0,0-61.225,21.668-132.036,22.418c-0.024-2.284-3.143-5.565,10.784-6.398
		c13.927-0.831,71.205-6.692,93.84-15.729C190.55,177.566,195.867,183.451,195.326,186.312z"/>
	<path d="M139.442,140.644c0,0-35.125,5.398-47.05,11.808c-10.067-33.59-16.877-47.805-42.21-81.109
		c0,0,41.857-38.139,85.356-40.084C135.539,31.258,140.562,127.725,139.442,140.644z"/>
	<path fill="#F7941E" d="M153.06,190.932c0,0,1.7-1.737-3.757-3.676c-1.327-1.185-0.533-1.88,0.94-2.923
		c1.473-1.042,2.8-5.168-0.699-6.674c0.159-1.086,0.092-2.058-1.056-2.616c1.296-1.671,2.851-4.737-0.479-6.774
		c-3.327-2.037-3.119-3.869-2.21-4.334c0.908-0.467,0.436-1.946-0.656-2.677c-0.363-1.824-1.566-2.21-4.66-3.206
		c2.67-1.229,5.301-6.455,1.678-8.758c-3.624-2.302-0.253-2.166,0.196-2.971c0.449-0.805,0.315-2.746-1.3-4.212
		c-0.057-0.256-0.81-1.521-1.615-1.466c-7.356,0.502-37.13,2.257-48.676,13.326c0,0-3.942,3.995-1.06,6.534
		c1.225,2.386,1.434,3.213,2.349,3.316c0.916,0.104,1.666,1.01,1.5,1.525c-0.166,0.517-0.863,2.095,0.34,2.482
		c1.205,0.387,0.984,1.072-0.008,1.797c-0.993,0.726-2.347,4.938,0.431,5.736c2.779,0.799,1.476,1.611,0.521,3.393
		c-0.952,1.78,0.78,3.476,1.317,5.641c0.537,2.165,1.791,1.807,2.37,2.658s-0.12,2.144-1.201,2.556
		c-1.082,0.41-2.058,2.562-0.879,3.32c1.178,0.76,2.141,2.49,1.488,3.04c-0.651,0.552-0.521,3.049,0.959,4.003
		C98.896,199.97,139.68,194.891,153.06,190.932z"/>
	<path d="M341.174,91.925c0,0,0.764-9.206-0.303-10.806c-1.066-1.601-3.717-2.849-3.717-2.849s-0.372-1.281-2.312-3.913
		c-1.43-1.939-4.168-0.671-4.168-0.671s16.625-40.587,13.958-43.789c-1.841-2.208-20.46,40.014-26.292,45.471
		c-3.238,3.792-11.661,21.381-11.863,25.014c-0.895,16.079,1.778,20.808,1.778,20.808s-0.889,8.359-4.09,10.494
		c-3.202,2.133-28.812,92.303-28.812,92.303l-93.905,48.019c0,0-19.802,7.053-28.251,7.63c-3.024-6.046-2.326-20.969-2.326-20.969
		s-49.098,0-54.433,0c0,0,19.041,12.627,18.946,20.631c-0.094,8.003-13.255,14.406-15.39,14.939
		c-2.133,0.534-81.277,90.347-86.078,101.019c-4.803,10.672,114.471,28.814,114.471,28.814s3.973,6.936,3.973,10.67
		c0,3.737-11.74,6.406-11.74,6.406s-5.339-5.866-6.402-5.336c-1.062,0.532,1.631,9.02,6.402,11.739
		c3.74,2.131,14.337-1.462,14.337-1.462s-2.158,0.14-4.638,6.104c-3.202,4.802-4.63,8.549-11.592,25.585
		c-13.393,32.768-20.116,81.821-24.781,108.491c-4.623,33.256-3.23,36.306-2.696,40.575c7.368-14.766,25.014-36.913,29.282-46.517
		c-1.066,37.881-27.117,301.525-27.117,306.861c2.667-0.533,1.066,2.134,0.533,5.335c-0.534,3.201-12.361,16.007-13.429,24.544
		c9.355,1.879,42.359,2.135,45.027,0c0,0,5.177-5.787-7.589-18.792c-5.193-5.289-12.274-11.087-3.203-11.087
		c2.134-42.151,19.209-305.366,24.011-320.839c1.627-4.971,0,0,0,0s-3.621,64.164-0.296,69.863
		c3.735,6.402,14.831-47.269,14.831-47.269s13.21,294.792,13.21,302.796v4.268c0,0-6.403,14.94-6.403,21.876
		c10.671,2.668,64.283,1.062,64.283,1.062s16.006-0.534,17.606-3.201c1.601-2.668-40.273-18.67-47.209-20.804
		c-6.936-2.134-14.939-6.402-3.735-7.47c-2.668-44.816-22.186-346.84-21.652-351.107c0.533-4.269,4.373-77.921,4.373-82.189
		c1.916-12.804-1.461-63.335-1.995-76.137c-0.534-12.8-0.467-62.815,0.066-64.416c0.534-1.601,101.908-70.961,112.579-75.763
		c10.67-4.803,26.854-88.391,34.021-103.111c0.654-1.346-0.4-2.885-0.053-4.311c1.778-7.292,10.571-12.87,14.925-18.546
		C341.986,100.59,341.174,91.925,341.174,91.925z M51.263,387.785c3.734-1.601,50.734-53.283,64.12-57.623
		c9.154,13.338,19.643,77.368,19.643,77.368c0.003,1.601-3.608,0.709-5.178-1.52C110.968,401.395,48.024,389.173,51.263,387.785z"/>
</g>
</svg>
