<?xml version="1.0" encoding="utf-8"?>
<!-- Generator: Adobe Illustrator 16.0.0, SVG Export Plug-In . SVG Version: 6.00 Build 0)  -->
<!DOCTYPE svg PUBLIC "-//W3C//DTD SVG 1.1//EN" "http://www.w3.org/Graphics/SVG/1.1/DTD/svg11.dtd">
<svg version="1.1" id="Ebene_1" xmlns="http://www.w3.org/2000/svg" xmlns:xlink="http://www.w3.org/1999/xlink" x="0px" y="0px"
	 width="542px" height="360px" viewBox="0 0 542 360" enable-background="new 0 0 542 360" xml:space="preserve">
<g id="Ebene_3">
	<path fill="#FFFFFF" d="M463,6c16,7.5,74.5,172.5,74.5,172.5s-4,2-2,4c-20.5-1.5-349,108-349,108s16.5,15.5,30,25
		c11.5,4,69.5,33,67,34s-23.5,2-23.5,2s0,0,1,3C77,361,8,339,7.5,336.5s-2-15-2-15l-1.5-2c0,0-2.5-16,12.5-80
		C36,167,83.5,91,83.5,91S104,57.5,105,62.5c2.5,7.5,3,101,3,101l3.5-3.5c0,0,118.5-72,183-106s153-49.5,153-49.5L451,11"/>
</g>
<g id="Ebene_6">
	<path fill="none" stroke="#009BA4" stroke-width="4" stroke-linecap="round" stroke-linejoin="round" stroke-miterlimit="10" d="
		M102.5,172c0,0-6.5-87.5-3.5-95.5c-8-3.5-88,116-94.5,242c0,17.5,274.5,36,279,31s-87-38-106.5-58c19-20,349-110,360.5-112.5
		C530,153.5,476,11.5,462.5,6.5C415,17,227.5,79,108,175c-1-29-0.5-110-4-113C88.5,71.5-3,273.5,8.5,336.5c7.5,10.5,137,25,252,18.5
		c7.5-0.5-35-30-74.5-63.5c37-16,306-101.5,349.5-108.5c-6-20.5-77.5-172-88-177.5c-37,6.5-92.5,1-336,154"/>
	<g id="Ebene_7">
		<path fill="none" stroke="#009BA4" stroke-width="4" stroke-linecap="round" stroke-linejoin="round" stroke-miterlimit="10" d="
			M214.216,171.272c0,0,40.252,77.434,25.018,84.18s-17.7,0.962-17.7,0.962s-2.204-0.957,9.002-2.641
			c22.948-3.399-20.941-78.483-20.941-78.483"/>
		<path fill="none" stroke="#009BA4" stroke-width="4" stroke-linecap="round" stroke-linejoin="round" stroke-miterlimit="10" d="
			M204.713,144.89c0,0-20.57,7.573-1.925,14.092c6.415,2.243-4.739-18.547-8.238-13.001c-10.897,17.269,1.831,13.888,9.224,11.334
			c7.394-2.553,2.693-9.83,2.693-9.83"/>
		<path fill="none" stroke="#009BA4" stroke-width="4" stroke-linecap="round" stroke-linejoin="round" stroke-miterlimit="10" d="
			M262.387,156.82c0,0-26.062,19.041-11.761,40.988c8.804,13.509,33.554,15.497,45.319,2.379
			c7.608-8.483,10.775-39.32-16.452-45.372c-19.603-4.315-25.806,0.326-33.806,11.52c-5.346,10.513-6.962,40.189,19.788,47.344
			c26.75,7.153,53.722-21.21,38.289-47.81c-15.432-26.599-40.783-8.006-47.231,2.028"/>
		<path fill="none" stroke="#009BA4" stroke-width="4" stroke-linecap="round" stroke-linejoin="round" stroke-miterlimit="10" d="
			M333.669,201.365L291.756,93.356l45.318,101.368c0,0-16.424-44.836-6.729-54.509c9.696-9.673,30.872-25.887,46.346-8.437
			c15.475,17.451,17.136,48.025-10.554,53.296c-17.555,3.645-33.605-4.629-40.888-19.835c0,0-12.156-25.701,14.022-38.958
			c17.801-9.037,40.363,10.18,42.077,21.923c3.527,15.41,0.617,31.169-26.359,39.629c-16.96,4.688-28.376-17.288-28.376-17.288"/>
		<path fill="none" stroke="#009BA4" stroke-width="4" stroke-linecap="round" stroke-linejoin="round" stroke-miterlimit="10" d="
			M422.367,111.006c0,0-5.469-11.538-17.27-10.896c-15.256,0.829-25.467,16.448-21.305,23.753
			c5.711,10.021,17.748,9.795,28.417,8.139c10.67-1.654,19.367,0.024,21.443,8.52s-6.851,22.43-30.148,19.392
			c-6.046-2.361-6.046-2.361-6.046-2.361s-1.289,5.987,8.481,7.608c9.772,1.621,27.719-4.734,33.904-19.596
			c6.187-14.861-12.313-18.698-23.548-17.55c-11.235,1.148-31.843,2.921-27.91-8.705c4.635-13.702,22.29-25.42,35.892-12.71"/>
	</g>
</g>
</svg>
