<?xml version="1.0" encoding="utf-8"?>
<!-- Generator: Adobe Illustrator 16.0.0, SVG Export Plug-In . SVG Version: 6.00 Build 0)  -->
<!DOCTYPE svg PUBLIC "-//W3C//DTD SVG 1.1//EN" "http://www.w3.org/Graphics/SVG/1.1/DTD/svg11.dtd">
<svg version="1.1" id="Ebene_2_Kopie" xmlns="http://www.w3.org/2000/svg" xmlns:xlink="http://www.w3.org/1999/xlink" x="0px"
	 y="0px" width="200px" height="200px" viewBox="0 0 200 200" enable-background="new 0 0 200 200" xml:space="preserve">
<g id="Ebene_4">
	<path fill="#FFFFFF" d="M126.101,105.146c0,0,15.691,76.078,14.074,79.122c-7.037,2.377-41.747,4.944-63.811,0.19
		c6.086-15.121,14.36-41.558,16.547-78.265c0,0-7.988-0.479-5.707-5.232c-1.236-3.898,0.285-4.087,0.476-5.611
		c0.189-1.521-1.142-3.422,0.095-4.374c1.236-0.952,1.331-2.377-1.426-3.519c-2.759-1.142-42.699,6.752-53.446,2.188
		c1.808-2.188,3.613-3.234,3.613-3.234l0.19-1.807c0,0,10.367-7.798,24.725-8.749c0,0,62.668-8.274,91.673-1.236
		c11.508,2.852,22.064,8.464,18.927,10.175c1.712,1.046,2.661,2.568-1.523,2.949c-4.185,0.379-33.188-5.611-40.512-5.42
		c-1.521,0.95-3.233,1.521,0.286,3.042c0.855,0.855-1.999,3.329-1.048,5.802c0.572,1.521-2.188,4.183-0.664,5.707
		c1.521,1.52,2.852,2.662-0.096,3.993c0.096,1.236,2.852,1.521,2.473,2.662C130.571,104.671,126.101,105.146,126.101,105.146z"/>
</g>
<path fill="#FFFFFF" stroke="#F7941E" stroke-width="2" stroke-linecap="round" stroke-linejoin="round" stroke-miterlimit="10" d="
	M92.151,106.003c0,0-6.467,62.764-13.504,77.979c9.129,1.776,44.887,6.656,60.102-0.951c-0.762-14.709-11.793-72.718-12.553-77.79
	c3.298,7.607,10.524,46.091,15.343,78.552c-5.832,3.042-19.082,8.24-65.491,1.394c1.066-4.309,6.229-15.894,9.257-24.6
	c4.565-13.122,8.683-43.232,8.37-54.206"/>
<path fill="none" stroke="#F7941E" stroke-width="2" stroke-linecap="round" stroke-linejoin="round" stroke-miterlimit="10" d="
	M38.515,88.565c0,0,45.648-0.507,68.979-4.057c39.789-6.054,57.576,2.105,62.383,1.268c5.834-1.015,2.789-5.325-13.946-10.397
	c-13.682-4.145-83.687-9.13-117.416,9.89c-5.579,3.296-9.509,6.277,3.551,6.085c15.47-0.225,56.362-6.242,62.384-7.607
	c19.02-4.312,51.48,2.283,64.667,4.058c6.594-0.253,6.848-2.029-4.057-7.354c-11.121-5.43-41.591-10.65-84.194-7.354
	C31.668,77.409,32.43,89.072,38.515,88.565z"/>
<path fill="none" stroke="#009BA4" stroke-width="2" stroke-linecap="round" stroke-linejoin="round" stroke-miterlimit="10" d="
	M90.819,107.333c0,0,0.19,2.473,7.988,2.852c7.798,0.381-1.331,7.418,0.571,1.904c1.902-5.518,7.988,7.605,9.129,11.981
	c1.141,4.375-3.233,8.559-5.897,3.613c-5.896-11.602-1.331-19.209-0.951-16.167c0.38,3.043-7.798,15.598-11.792,10.271
	c-3.994-5.325,8.368-11.792,12.171-11.412c16.167,0.382,26.248-2.282,26.248-2.282S95.385,116.653,90.819,107.333z"/>
<path fill="none" stroke="#F7941E" stroke-width="2" stroke-linecap="round" stroke-linejoin="round" stroke-miterlimit="10" d="
	M130.062,85.27c3.552,2.283-3.042,1.774-0.76,5.579c2.282,3.803-3.298,2.536-0.508,5.834c2.79,3.296,0.762,2.788-2.028,4.31
	c-2.79,1.521,3.298,2.028,2.282,3.297c-1.013,1.267-36.771,2.281-38.8,1.013c-2.028-1.267-1.014-1.267-1.774-2.79
	c-0.76-1.521,0.761-2.534-1.268-4.311c-2.028-1.773,2.536-2.534,1.522-3.296s-2.537-3.552-0.508-4.057
	c2.027-0.507-2.536-3.044-2.536-3.044s3.423-0.063,3.994,1.078c0.569,1.14-4.945,2.471-2.852,5.516
	c2.091,3.042-4.945-0.572,0.57,5.705c-0.379,0.951-2.283,3.425,0.951,5.135c3.233,1.713,38.229,3.615,42.793-1.71
	c0.57-1.144-5.136-0.762-1.522-2.853c1.712-1.904,0-1.904-2.472-4.946c-2.475-3.042,3.043-2.092,1.521-4.944
	c0.192-3.614,4.755-3.233,0-6.277c-0.951-0.38-0.38-1.521,1.143-1.902"/>
</svg>
