<?xml version="1.0" encoding="utf-8"?>
<!-- Generator: Adobe Illustrator 16.0.0, SVG Export Plug-In . SVG Version: 6.00 Build 0)  -->
<!DOCTYPE svg PUBLIC "-//W3C//DTD SVG 1.1//EN" "http://www.w3.org/Graphics/SVG/1.1/DTD/svg11.dtd">
<svg version="1.1" id="Ebene_2_Kopie" xmlns="http://www.w3.org/2000/svg" xmlns:xlink="http://www.w3.org/1999/xlink" x="0px"
	 y="0px" width="200px" height="200px" viewBox="0 0 200 200" enable-background="new 0 0 200 200" xml:space="preserve">
<path fill="#FFFFFF" stroke="#F7941E" stroke-width="2" stroke-linecap="round" stroke-linejoin="round" stroke-miterlimit="10" d="
	M176.583,163.703c0,0-31.939,5.519-87.012,30.491c0,0-41.928-103.964-46.66-109.879C56.185,79.058,118.354,60,127.425,62.497
	c5.257,4.075,48.235,80.833,48.762,103.833c-16.56,3.286-79.388,23.76-88.456,28.129C83.525,182.892,43.042,86.418,41.334,83.002
	c8.018-3.287,74.655-25.631,88.194-20.373c0,0,44.293,75.838,48.235,100.68"/>
<path fill="none" stroke="#F7941E" stroke-width="2" stroke-linecap="round" stroke-linejoin="round" stroke-miterlimit="10" d="
	M96.669,170.801c12.486-0.658,9.331-1.71,9.331-1.71c-4.732-0.132-17.218,1.445-17.218,1.445s11.83-0.394,11.698,0.265
	c-0.761,3.814,1.183,8.938,2.235,10.515c-1.972,1.184-6.836,2.365-6.836,2.365s-0.13-7.623,1.053-12.88"/>
<path fill="#FFFFFF" stroke="#009BA4" stroke-width="2" stroke-linecap="round" stroke-linejoin="round" stroke-miterlimit="10" d="
	M142.409,118.752c0,0-23.263,63.878-20.24,73.472c3.154-3.154,23.264-67.164,21.95-73.341c-0.921-0.264-2.104,1.052-1.71-7.36
	c1.971-2.104,5.388-5.258,5.651-7.755c-0.525,4.732-0.131,8.281,0.396,9.987c-1.314,1.842-3.942,6.704-5.389,5.521"/>
</svg>
