<?xml version="1.0" encoding="utf-8"?>
<!-- Generator: Adobe Illustrator 16.0.0, SVG Export Plug-In . SVG Version: 6.00 Build 0)  -->
<!DOCTYPE svg PUBLIC "-//W3C//DTD SVG 1.1//EN" "http://www.w3.org/Graphics/SVG/1.1/DTD/svg11.dtd">
<svg version="1.1" xmlns="http://www.w3.org/2000/svg" xmlns:xlink="http://www.w3.org/1999/xlink" x="0px" y="0px" width="1140px"
	 height="400px" viewBox="0 0 1140 400" enable-background="new 0 0 1140 400" xml:space="preserve">
<g id="Team">
	<g>
		<g>
			<defs>
				<rect id="SVGID_1_" x="187.971" y="244.543" width="48.452" height="108.778"/>
			</defs>
			<clipPath id="SVGID_2_">
				<use xlink:href="#SVGID_1_"  overflow="visible"/>
			</clipPath>
			<g clip-path="url(#SVGID_2_)">
				<defs>
					<rect id="SVGID_3_" x="187.971" y="244.543" width="48.452" height="108.778"/>
				</defs>
				<clipPath id="SVGID_4_">
					<use xlink:href="#SVGID_3_"  overflow="visible"/>
				</clipPath>
				<path clip-path="url(#SVGID_4_)" d="M216.503,259.366c0,0-0.33-6.879-2.636-10.751c1.359-0.988,7.034-3.337,10.906-2.513
					c-0.865,5.644-2.083,11.563-2.518,13.068c-1.668-0.34-4.356-0.294-5.746,0.293"/>
				<path clip-path="url(#SVGID_4_)" fill="#F5952F" d="M216.223,265.033c0,0-0.463-0.472-0.1-0.525
					c0.363-0.054,0.247-0.124,0.154-0.309c-0.093-0.186-0.271-0.317,0.046-0.503c0.316-0.185,0.342-0.239,0.047-0.517
					c-0.364-0.433-0.295-0.525-0.09-0.634c0.174-0.115,0.29-0.355,0.089-0.563c-0.201-0.209-0.186-0.472-0.089-0.502
					c0.097-0.031,0.46-0.155,0.251-0.502c-0.208-0.348-0.641-1.136-0.077-1.491c0.563-0.355,3.112-0.919,6.009-0.278
					c0.301,0.055,0.425,0.657,0.232,0.727c-0.193,0.069-0.216,0.062-0.131,0.224s0.51,0.772,0.077,0.881
					c-0.232,0.069-0.34,0.201-0.193,0.271c0.146,0.069,0.332,0.192,0.255,0.447c-0.078,0.255,0,0.557,0.162,0.904
					s0.231,0.548,0,0.702c-0.232,0.155-0.093,0.371-0.023,0.44c0.07,0.069,0.286,0.363-0.015,0.711s-0.325,0.548-0.093,0.587
					c0.231,0.039,0.518,0.158-0.101,0.448C221.988,265.671,217.254,265.474,216.223,265.033"/>
				<path clip-path="url(#SVGID_4_)" d="M227.6,265.906c0,0-4.464,1.158-15.787-0.942c-0.571-0.17-0.463-0.34-0.093-0.355
					c1.622,0,3.97,0.2,4.743,0.51c0.618,0.2,5.066,0.448,6.194,0.433c0.587-0.031,2.163-0.186,2.549-0.263
					S227.028,264.994,227.6,265.906"/>
				<path clip-path="url(#SVGID_4_)" d="M236.266,288.366c-0.381-0.639-0.453-0.896-0.845-1.185
					c-1.029-0.854-12.142-6.992-12.254-7.93c-0.093-0.73,0.875-0.463,1.586-0.412c-0.309-0.658-1.05-1.441-1.452-1.863
					c-0.402-0.423-1.565-2.986-1.617-3.439c-0.186,1.657-0.36,2.996-0.803,4.016s-4.202,9.372-4.666,10.154
					c0,0,1.359-5.087,1.565-5.973s0.68-3.008-0.247-4.82c-0.453-1.111-0.844-2.471-0.844-2.471c0.144,1.009,0.319,2.739,0.227,3.048
					s-0.381,0.639-0.701,0.351c-0.319-0.289-0.865-0.855-1.544-0.783c-1.195,0.104-1.226,0.381-2.358,0.587
					c-2.225,0.453-9.484,1.329-9.824,1.463c-0.186-0.917-0.114-2.492-0.083-3.697c0.031-1.205,0.35-8.238,0.401-8.918
					c-0.227,0.082-0.638,0.175-0.988-0.443c-0.443-0.752-0.886-2.533-1.741-2.873c-1.05-0.371-4.346-1.761-4.665-1.916
					c0.289,0.454,0.607,1.041,0.803,1.205c0.196,0.165,1.143,0.68,3.192,1.185c0.216,0.206,0.402,0.711,0.33,0.804
					c-0.072,0.093-0.216,0.071-0.721-0.021c-0.505-0.093-3.471,0.36-3.841,0.309s-2.523-0.999-5.479-1.04
					c-0.494,0.165-1.432,0.639-1.123,0.731c0.309,0.092,4.027,0.566,5.293,1.246c-0.783-0.237-3.285-0.948-4.768-0.701
					c-0.34,0.093-0.093,0.196,0.093,0.278c0.185,0.083,0.751,0.206,0.751,0.206s-0.607-0.01-0.741,0.124s0.175,0.227,0.422,0.236
					c0.248,0.011,1.555,0.093,3.244,1.04c1.215,0.639,1.38,0.639,1.658,0.587c0.701-0.134,3.924-0.957,4.789-0.854
					c0.484,0.082,0.906,0.082,0.947,0.854c0.021,0.196,0.01,0.371,0.01,0.371s-0.381,11.771,0.505,13.954
					c0.824,0.412,4.963-0.546,5.906-0.654c0.942-0.107,6.596-0.865,8.759-0.603c-0.587,1.962-1.066,3.522-1.622,5.932
					c-0.525,2.024-2.395,10.195-2.364,12.605c0.031,2.41,1.792,48.422,1.298,49.493s-6.056,3.578-6.303,4.484
					s7.065-0.612,7.065-0.612s7.229,0.886,8.341,0.526c0.433-0.135,0.165-0.361-0.247-0.506s-5.499-3.069-5.808-3.852
					s-0.412-15.818-0.247-18.372c0.165-2.554,0.165-13.367,0.412-13.984c0.495,0.556,1.483,1.451,1.823,1.204
					s-0.154-1.267-0.432-2.039c-0.278-0.771-1.101-4.758-0.977-5.901c1.329,2.503,4.19,6.705,5.982,7.076
					c0.494,0.03,0.185-0.742,0-1.144c-0.865-1.761-3.646-6.946-3.985-8.139c-0.34-1.191-0.278-1.84-0.186-1.933
					s1.658,1.102,3.393,0.544c0.644-0.133,0.531-1.533,0.624-4.622c-0.463-0.196-2.337-0.525-2.523,0.638
					c-0.072,0.237,0.196,0.392,0.258,0.351c0.144-0.072,0.113-0.134,0.227-0.195c0.113-0.062,0.453-0.227,1.02,0.185
					c0.062,0.536-0.134,2.153-0.258,2.297c-0.124,0.145-1.916-0.041-1.895-0.433c0.206-3.027-0.206-4.438,0.927-4.407
					c0.504-0.423,1.38-0.969,1.936-1.309c5.788-3.511,13.038-7.548,14.088-8.382C236.338,289.694,236.605,289.262,236.266,288.366
					 M232.476,289.9c-0.917,0.299-4.171,2.276-5.221,2.977c-0.958,0.607-9.351,6.374-9.351,6.374s-0.011,0.36-0.072,0.824
					c-0.052-0.34-0.268-0.958-0.659-1.689c-0.391-0.73-0.958-0.937-0.854-1.884c0.556-5.108,6.478-12.245,6.478-12.245
					c1.74,0.855,9.248,4.295,10.442,4.624C234.021,289.189,233.393,289.602,232.476,289.9"/>
			</g>
		</g>
	</g>
	<g>
		<g>
			<defs>
				<rect id="SVGID_5_" x="174.643" y="242.909" width="39.26" height="112.407"/>
			</defs>
			<clipPath id="SVGID_6_">
				<use xlink:href="#SVGID_5_"  overflow="visible"/>
			</clipPath>
			<g clip-path="url(#SVGID_6_)">
				<defs>
					<rect id="SVGID_7_" x="174.643" y="242.909" width="39.26" height="112.407"/>
				</defs>
				<clipPath id="SVGID_8_">
					<use xlink:href="#SVGID_7_"  overflow="visible"/>
				</clipPath>
				<path clip-path="url(#SVGID_8_)" d="M196.617,258.095c0,0,0.363-7.118,2.908-11.125c-1.5-1.023-7.759-3.453-12.031-2.601
					c0.955,5.84,2.298,11.966,2.778,13.523c1.84-0.352,4.806-0.304,6.339,0.304"/>
				<path clip-path="url(#SVGID_8_)" fill="#F5952F" d="M196.926,263.958c0,0,0.511-0.487,0.111-0.543s-0.272-0.128-0.17-0.32
					c0.103-0.191,0.298-0.327-0.051-0.52c-0.35-0.191-0.378-0.247-0.053-0.535c0.402-0.447,0.326-0.543,0.1-0.655
					c-0.192-0.12-0.32-0.367-0.098-0.583c0.221-0.216,0.205-0.488,0.098-0.52c-0.107-0.032-0.507-0.16-0.277-0.52
					c0.23-0.36,0.708-1.175,0.085-1.543c-0.622-0.367-3.434-0.951-6.629-0.287c-0.333,0.056-0.469,0.679-0.256,0.751
					c0.213,0.071,0.239,0.063,0.145,0.231s-0.562,0.799-0.085,0.911c0.256,0.072,0.375,0.208,0.213,0.28
					c-0.162,0.071-0.367,0.199-0.281,0.463c0.085,0.264,0,0.575-0.179,0.936c-0.179,0.359-0.256,0.567,0,0.728
					c0.255,0.159,0.102,0.383,0.025,0.455s-0.315,0.376,0.017,0.735c0.332,0.359,0.358,0.567,0.102,0.607
					c-0.255,0.04-0.571,0.164,0.111,0.464C190.566,264.618,195.789,264.414,196.926,263.958"/>
				<path clip-path="url(#SVGID_8_)" d="M184.376,264.861c0,0,4.925,1.199,17.416-0.975c0.631-0.176,0.511-0.352,0.103-0.368
					c-1.79,0-4.38,0.208-5.232,0.527c-0.682,0.208-5.589,0.464-6.833,0.448c-0.647-0.032-2.386-0.192-2.812-0.272
					C186.591,264.143,185.006,263.918,184.376,264.861"/>
				<path clip-path="url(#SVGID_8_)" d="M209.277,286.174c-0.526-0.366-9.104-6.463-11.49-6.191c0.647,2.03,1.176,3.645,1.789,6.139
					c0.58,2.094,2.642,10.549,2.607,13.043c-0.034,2.493-1.977,50.105-1.432,51.214c0.545,1.108,6.68,3.702,6.953,4.64
					c0.273,0.938-7.793-0.633-7.793-0.633s-7.975,0.916-9.202,0.544c-0.477-0.14-0.182-0.374,0.272-0.522
					c0.455-0.149,6.066-3.176,6.407-3.985c0.341-0.811,0.455-16.368,0.273-19.011c-0.182-2.644-0.182-13.832-0.455-14.472
					c-0.545,0.575-1.636,1.503-2.011,1.247s0.17-1.311,0.477-2.11c0.307-0.799,1.214-4.924,1.078-6.106
					c-1.465,2.59-4.622,6.938-6.599,7.321c-0.545,0.032-0.205-0.768,0-1.183c0.954-1.822,4.021-7.188,4.396-8.422
					c0.375-1.232,0.307-1.904,0.205-2c-0.103-0.096-1.624,0.332-3.537-0.245c-0.711-0.137-0.401-0.596-0.504-3.793
					c0.511-0.202,2.579-0.543,2.783,0.661c0.08,0.245-0.216,0.405-0.284,0.362c-0.159-0.075-0.125-0.139-0.25-0.202
					c-0.125-0.064-0.5-0.235-1.125,0.191c-0.068,0.554-0.037,1.236,0.1,1.386c0.137,0.149,1.908,0.766,1.885,0.36
					c-0.228-3.133,0.227-4.593-1.022-4.561c-0.557-0.437-1.522-1.002-2.136-1.354c-6.385-3.634-14.383-7.811-15.542-8.674
					c-0.386-0.341-0.682-0.789-0.307-1.716c0.42-0.66,0.5-0.927,0.932-1.226c1.136-0.885,13.394-7.235,13.519-8.205
					c0.102-0.757-0.966-0.479-1.75-0.427c0.341-0.682,1.159-1.491,1.602-1.929c0.443-0.437,1.727-3.09,1.784-3.559
					c0.205,1.716,0.397,3.101,0.886,4.155c0.489,1.056,4.635,9.698,5.146,10.508c0,0-1.5-5.265-1.727-6.181
					c-0.227-0.917-0.75-3.111,0.273-4.987c0.5-1.151,0.931-2.558,0.931-2.558c-0.159,1.045-0.352,2.835-0.25,3.154
					c0.102,0.319,0.42,0.661,0.772,0.362c0.352-0.298,0.954-0.885,1.704-0.81c1.318,0.106,2.176,0.138,3.593,1.246
					c1.924,1.504,7.699,5.712,8.074,5.851c1.243,0.714,1.97,1.226,2.151,1.822c0.158,0.517-5.392,10.261-7.553,12.422
					c-0.272-0.096-0.391-0.469-0.545-0.509c-0.784,0.733-1,4.454-0.545,4.966c0.455,0.512,2,0.203,2-0.053s0.455-0.479,0.273-0.734
					s-0.77-1.131-0.805-1.344c-0.036-0.213,1.532-0.426,1.714,0.085c0.182,0.512,0.454,3.016-0.455,3.442
					c-0.909,0.426-4.15,1.085-4.308-0.032c-0.157-1.117-0.783-3.464,0.185-5.627c0.365-0.815,0.784-1.15,0.511-1.598
					C203.564,294.208,209.549,287.341,209.277,286.174 M178.997,289.69c1.011,0.309,4.601,2.355,5.76,3.079
					c1.057,0.629,10.315,6.597,10.315,6.597s0.011,0.373,0.08,0.853c0.057-0.352,0.295-0.991,0.727-1.748
					c0.432-0.756,1.057-0.97,0.943-1.949c-0.613-5.286-7.146-12.671-7.146-12.671c-1.92,0.886-10.202,4.443-11.52,4.785
					C177.292,288.955,177.985,289.381,178.997,289.69"/>
			</g>
		</g>
	</g>
	<g>
		<g>
			<defs>
				<rect id="SVGID_9_" x="259.12" y="249.558" width="84.723" height="97.048"/>
			</defs>
			<clipPath id="SVGID_10_">
				<use xlink:href="#SVGID_9_"  overflow="visible"/>
			</clipPath>
			<g clip-path="url(#SVGID_10_)">
				<defs>
					<rect id="SVGID_11_" x="259.12" y="249.558" width="84.723" height="97.048"/>
				</defs>
				<clipPath id="SVGID_12_">
					<use xlink:href="#SVGID_11_"  overflow="visible"/>
				</clipPath>
				<path clip-path="url(#SVGID_12_)" d="M301.663,269.547c0,0-5.735,4.372-13.195,6.858c-0.08-0.24-0.521-0.481,0.922-1.043
					s7.299-3.128,9.385-4.853S301.623,269.227,301.663,269.547"/>
				<path clip-path="url(#SVGID_12_)" fill="none" stroke="#FFFFFF" stroke-width="0.217" stroke-miterlimit="10" d="
					M301.663,269.547c0,0-5.735,4.372-13.195,6.858c-0.08-0.24-0.521-0.481,0.922-1.043s7.299-3.128,9.385-4.853
					S301.623,269.227,301.663,269.547z"/>
				<path clip-path="url(#SVGID_12_)" d="M294.204,266.619c0,0-3.53,1.765-4.572,2.848c-2.206-3.208-3.409-4.479-7.219-7.139
					c0,0,3.128-5.454,7.66-7.139C290.072,255.189,293.883,265.216,294.204,266.619"/>
				<path clip-path="url(#SVGID_12_)" d="M300.379,288.598c0,0-0.682-6.176-3.208-6.698c-2.527-0.521-2.768-0.722-3.008-0.962
					c0.321,0.762,1.123,1.403,1.444,1.564c0.321,0.16,0.521,0.561,0.521,0.762c0,0-0.246-0.16-1.125,0.261
					c-0.88,0.421-6.775,4.432-10.646,8.081c-3.723,1.051-6.997,1.945-9.786,2.848c0,0-1.514,0.351-1.915,0.371
					c0.039,0.223,0.09,0.331,0.09,0.331s-0.702,0.069-1.604-0.271c0,0-0.727-0.391-0.938-0.631c-0.21-0.241-0.541-0.587-1.414-0.557
					c-0.872,0.03-2.888,0.256-3.399,0.21c0.105,0.422,0.857,0.662,1.685,0.587c0.827-0.075,1.669,0.075,1.669,0.315
					c0,0.241-3.294,1.91-3.625,2.182c-1.398,0.346-5.625,1.714-5.279,2.842c0.226-0.015,0.436-0.15,0.707-0.315
					c0.271-0.166,2.857-1.278,3.97-1.474c-1.834,0.736-3.218,1.429-3.598,1.858c-0.422,0.478,0.635,0.382,0.635,0.322
					c0,0,3.144-1.369,4.241-1.654c1.098-0.286,4.934-2.286,5.099-2.422c0.166-0.136,0.888-0.481,1.88-0.361
					c0.075,0.211,0.256,0.602,0.256,0.602s9.986-2.978,11.49-3.278c0.316-0.045,0.587-0.21,0.812-0.481c0,0,9.039-6.948,9.205-7.099
					s1.143-0.857,1.339-0.09c0.195,0.767,0.691,7.354,0.782,7.865c0.175,2.075,0.361,3.294-0.03,3.94c0,0-1.519,1.339-3.128,5.505
					c-0.572,1.384-1.76,3.715-5.835,6.934c0,0-0.115,0.112-0.587,0.285c-0.466,0.241-1.278,0.392-0.616,0.526
					c0.662,0.136,2.557,0.075,4.121-1.112c1.564-1.188,3.098-3.054,3.023-2.587c-0.075,0.466-0.331,0.902-0.616,1.248
					c-0.286,0.346-2.632,3.429-3.113,4.241c-0.481,0.812-0.677,0.843-0.526,1.414s0.286,1.309,0.346,1.76s0.06,0.541,0.526,0.226
					c0.466-0.316,2.332-1.896,3.384-3.851c0.166-0.346,0.286-0.481,0.286-0.481s0.105-0.181-0.632,1.685s-9.37,22.199-11.22,28.455
					c0,0,0.201,0.046,0.19,0.236c-0.01,0.19,0.05,0.351-0.23,0.562c-0.281,0.21-1.614,0.771-3.389,3.328
					c0.01,0.091,0.021,0.091,0.21,0.11c0.191,0.021,7.5,0.091,7.601,0.051c0.1-0.041-0.141-0.331-0.602-0.542
					c-0.461-0.21-2.737-1.183-2.897-1.634c-0.16-0.451-0.271-0.963,0.02-1.083c0.291-0.12,0.512-0.101,0.742,0.01
					c0.331-0.752,5.455-14.438,6.567-16.965s6.527-14.949,7.881-17.355c1.474,1.594,3.76,4.421,6.738,9.564
					c-0.15,2.347-0.301,3.159-0.932,24.967c0.15,0.06,0.421,0.029,0.421,0.029s0.06,0.301-0.301,0.933
					c-0.361,0.632-0.766,1.147-0.766,1.719c0,0-0.047,0.321,0.254,0.369c0.301,0.048,8.272,0,8.272,0s0.436-0.192-0.195-0.568
					c-0.632-0.376-1.023-0.646-3.715-1.264c-0.586-0.15-1.955-0.436-2.016-1.173c0.211,0.015,0.527,0.045,0.527,0.045
					s0.511-23.041,0.451-24.53c-0.015-0.736-0.18-1.098-0.406-1.443s-5.114-9.641-6.091-10.904c-0.361-0.557-0.797-3.384-0.812-3.88
					s-0.226-4.181-0.121-4.617c0.105-0.437,1.895-5.775,1.925-5.911c0.03-0.135,0.722-2.09,0.737-3.925
					c0.015-1.835,0.045-2.016,0.045-2.016s-0.181-0.061,0.346-0.075s13.731-0.842,14.062-0.962
					c0.331-0.121,9.806-4.393,10.047-4.347c0.038-0.071,0.154-0.154,0.522-0.136c0,0,4.967,0.301,5.554,0.226
					s3.579-0.526,4.106-0.541c0.466-0.046,0.293-0.226,0.233-0.264c0,0-0.557-0.143-2.655,0c-0.127,0.016-0.09-0.067,0.076-0.128
					c0.165-0.06,1.865-0.391,2.692-0.376c0.105,0,0.188-0.128,0.068-0.188c-0.12-0.061-1.121-0.271-3.181,0
					c-0.203,0.015-1.361,0.203-1.338,0.128c0.309-0.144,2.985-1.572,3.429-1.707c0.105-0.046,0.173-0.166,0.008-0.241
					c-0.166-0.075-1.406,0.022-3.707,1.294c-0.136,0.067-0.203,0.082-0.406,0.104c-0.203,0.023-2.324,0.181-3.535-0.067
					c-0.263-0.022-0.291-0.287-0.218-0.557c0.128-0.474,3.128-1.519,2.737-2.098c0,0-0.067-0.12-0.158-0.091
					c-0.09,0.03-1.414,0.723-2.068,0.896s-1.286,0.278-1.662,0.669c-0.375,0.392-0.962,1.654-1.098,2.046
					c-0.06,0.173-0.233,0.474-0.436,0.556c-0.173-0.12-0.323-0.3-0.323-0.3s0.007-0.008-8.558,3.594
					c-0.188,0.083-0.399,0.144-0.639,0.128c-0.241-0.015-12.325-0.384-13.378-0.232c-0.226,0.029-0.707,0.149-0.774,0.045
					c-0.067-0.105-0.241-1.55-2.429-2.76c0,0-0.135-0.046-0.241-0.038c0.692,1.03,1.143,2.452,1.166,3.196
					C300.472,284.236,300.595,287.56,300.379,288.598"/>
				<path clip-path="url(#SVGID_12_)" d="M330.257,263.664l0.151-1.143l-0.502-0.05v0.502c0,0-1.356,0.037-1.983-0.678
					c-0.025-0.327,0.05-0.452-0.101-0.653c-0.15-0.201-0.803-0.527-1.18-1.055c-0.376-0.527-1.632-1.983-0.753-5.047
					c-0.164-0.138-0.427-0.577-0.126-1.18c0.449-0.897,1.381-1.432,1.381-1.432s0.201-0.464-0.013-0.477s-1.854,0.961-2.586,3.641
					c-0.804,2.938,1.28,6.164,3.276,6.905C329.278,263.739,330.257,263.664,330.257,263.664"/>
				<path clip-path="url(#SVGID_12_)" d="M334.754,260.265l0.791,0.688c0,0,1.478-1.271,0.888-4.858
					c-0.625-3.801-4.846-4.821-5.486-4.721c-0.125,0-0.326,0.34-0.251,0.516c0.075,0.175,0.264,0.564,0.264,0.564
					s1.883,0.326,3.013,1.456c0.603,0.603,1.444,1.771,1.531,3.025c0.029,0.418,0.06,2.078-0.54,2.938l-0.258,0.345L334.754,260.265
					z"/>
				<path clip-path="url(#SVGID_12_)" fill="#F5952F" d="M333.988,270.394c-0.265,0.397-0.603,0.762-0.913,1.125
					c-0.355,0.415-1.213-0.271-1.613-0.369c-0.429-0.105-1.397,0.2-1.231,0.803c0.074,0.269,0.371,0.369,0.609,0.418
					c0.219,0.045,0.457,0.019,0.678,0.049c0.319,0.043,0.614,0.232,0.843,0.446c0.549,0.513,0.084,1.042-0.118,1.565
					c-0.141,0.364-0.163,0.707-0.138,1.094c0.012,0.174,0.282,0.175,0.271,0c-0.031-0.483,0.035-0.865,0.273-1.299
					c0.145-0.263,0.302-0.548,0.247-0.86c-0.125-0.715-0.789-1.138-1.471-1.229c-0.068-0.011-0.137-0.015-0.207-0.013
					c-0.303,0.039-0.472-0.148-0.507-0.564c0.347-0.244,0.757-0.171,1.117-0.004c0.272,0.125,0.53,0.409,0.847,0.419
					c0.324,0.012,0.493-0.15,0.696-0.388c0.292-0.342,0.601-0.682,0.85-1.056C334.319,270.385,334.084,270.249,333.988,270.394"/>
				<path clip-path="url(#SVGID_12_)" fill="#F5952F" d="M326.186,263.669c-0.897,1.048-1.376,2.447-1.163,3.829
					c0.121,0.781,0.401,1.471,0.885,2.098c0.515,0.667,1.02,1.213,1.292,2.026c0.055,0.165,0.316,0.095,0.261-0.071
					c-0.442-1.32-1.621-2.137-2.037-3.465c-0.458-1.463-0.027-3.081,0.953-4.226C326.49,263.729,326.299,263.536,326.186,263.669"/>
				<path clip-path="url(#SVGID_12_)" fill="#F5952F" d="M329.488,268.146c-0.035,0.925-0.749,1.169-1.373,1.654
					c-0.473,0.366-0.68,0.853-0.845,1.414c-0.156,0.528-0.141,1.112,0.074,1.618c0.26,0.613,0.958,0.656,1.393,1.059
					c0.128,0.118,0.32-0.072,0.191-0.191c-0.434-0.401-1.024-0.447-1.35-1.003c-0.345-0.588-0.078-1.495,0.187-2.06
					c0.284-0.604,0.893-0.827,1.394-1.208c0.398-0.304,0.582-0.799,0.6-1.283C329.765,267.971,329.494,267.972,329.488,268.146"/>
				<path clip-path="url(#SVGID_12_)" fill="#F5952F" d="M328.771,264.392c0.549,1.233,2.206,1.438,3.094,2.346
					c0.328,0.334,0.597,0.959,0.028,1.234c-0.305,0.146-0.585,0.268-0.827,0.511c-0.532,0.535-0.545,1.377-1.042,1.939
					c-0.204,0.23-0.473,0.382-0.676,0.616c-0.19,0.22-0.323,0.48-0.432,0.748c-0.196,0.478,0.129,0.951,0.472,1.25
					c0.151,0.132,0.344,0.245,0.534,0.31c0.376,0.128,0.643,0.268,0.93,0.562c0.347,0.354,0.226,0.959,0.63,1.276
					c0.114,0.09,0.295-0.021,0.212-0.164c-0.286-0.492-0.567-1.021-1.013-1.388c-0.185-0.151-0.828-0.736-1.117-0.566
					c-0.384,0.226,1.524,1.669,1.708,1.794c0.132,0.089,0.265-0.104,0.164-0.213c-0.284-0.306-0.578-0.603-0.88-0.89
					c-0.346-0.328-0.848-0.567-1.138-0.939c-0.107-0.138-0.297,0.056-0.191,0.191c0.27,0.346,0.714,0.556,1.039,0.848
					c0.343,0.309,0.666,0.644,0.979,0.981c0.055-0.071,0.109-0.142,0.164-0.213c-0.37-0.249-0.729-0.522-1.039-0.845
					c-0.092-0.096-0.175-0.185-0.276-0.272c-0.051-0.043-0.102-0.087-0.152-0.132c-0.185-0.163-0.069-0.014-0.258-0.058
					c0.844,0.196,1.385,1.163,1.776,1.838c0.071-0.055,0.142-0.109,0.212-0.164c-0.352-0.276-0.248-0.814-0.526-1.151
					c-0.181-0.22-0.385-0.395-0.616-0.559c-0.215-0.152-0.51-0.175-0.743-0.297c-0.414-0.218-0.738-0.646-0.611-1.127
					c0.116-0.441,0.485-0.759,0.812-1.038c0.577-0.492,0.693-1.111,1.02-1.764c0.2-0.397,0.485-0.608,0.875-0.786
					c0.18-0.082,0.456-0.169,0.555-0.363c0.218-0.429-0.014-0.854-0.265-1.218c-0.771-1.117-2.594-1.143-3.169-2.435
					C328.935,264.096,328.701,264.233,328.771,264.392"/>
				<path clip-path="url(#SVGID_12_)" fill="#F5952F" d="M328.495,270.894c0.083,0.477,0.02,0.855,0.218,1.318
					c0.222,0.516,0.512,0.973,0.868,1.406c0.369,0.449,0.813,0.831,1.278,1.177c0.226,0.168,0.468,0.318,0.719,0.444
					c0.265,0.133,0.69,0.224,0.456,0.619c-0.089,0.15,0.145,0.286,0.234,0.136c0.116-0.195,0.216-0.492-0.004-0.669
					c-0.381-0.306-0.865-0.481-1.269-0.764c-0.641-0.447-1.198-1.036-1.631-1.685c-0.225-0.336-0.395-0.712-0.52-1.095
					c-0.103-0.313-0.033-0.642-0.088-0.961C328.726,270.65,328.464,270.723,328.495,270.894"/>
				<path clip-path="url(#SVGID_12_)" fill="#F5952F" d="M331.768,277.183c0.054-0.337,0.102-0.641,0.296-0.931
					c0.22-0.329,0.533-0.633,0.847-0.871c0.137-0.104,0.002-0.34-0.137-0.233c-0.324,0.246-0.604,0.534-0.857,0.853
					c-0.27,0.34-0.344,0.691-0.411,1.111C331.48,277.282,331.741,277.354,331.768,277.183"/>
				<path clip-path="url(#SVGID_12_)" fill="#F5952F" d="M331.852,270.609c-0.188,0.135-0.45,0.178-0.663,0.268
					c-0.31,0.131-0.575,0.303-0.777,0.575c-0.104,0.14,0.131,0.274,0.234,0.137c0.191-0.258,0.476-0.4,0.769-0.512
					c0.188-0.071,0.408-0.115,0.574-0.234C332.129,270.741,331.994,270.507,331.852,270.609"/>
				<path clip-path="url(#SVGID_12_)" fill="#F5952F" d="M333.617,267.052c0.126,0.347,0.264,0.688,0.397,1.031
					c0.23,0.591-0.82,0.943-1.19,1.154c-0.501,0.284-0.951,0.626-1.527,0.732c-0.41,0.075-0.853,0.066-1.184,0.352
					c-0.132,0.114,0.06,0.305,0.191,0.191c0.452-0.391,1.25-0.228,1.778-0.518c0.554-0.305,1.087-0.648,1.644-0.951
					c0.333-0.18,0.669-0.364,0.599-0.806c-0.069-0.431-0.298-0.85-0.448-1.258C333.818,266.817,333.557,266.888,333.617,267.052"/>
				<path clip-path="url(#SVGID_12_)" fill="#F5952F" d="M333.391,268.053c-0.446,0.179-0.803,0.448-1.11,0.816
					c-0.32,0.385-0.498,0.932-1.017,1.099c-0.166,0.053-0.095,0.313,0.072,0.261c0.355-0.114,0.586-0.366,0.797-0.663
					c0.376-0.53,0.698-0.999,1.33-1.252C333.623,268.25,333.553,267.988,333.391,268.053"/>
				<path clip-path="url(#SVGID_12_)" fill="#F5952F" d="M333.483,261.461c0,0-0.574,0.838-2.692,1.12
					c-0.009,0.414-0.004,1.085-0.004,1.085s2.45-0.074,3.411-1.408c0.463,0.465,1.555,1.575,1.555,1.575l0.989-0.932l-3.842-3.87
					l1.686-0.564c0,0,0.292-0.235-1.977-0.207c-0.179,0.047-0.129,0.132-0.21,0.291c-0.082,0.16-0.505,0.132-0.619,0.02
					c-0.113-0.113-0.339,0.15-0.386,0.48c-0.047,0.329,0.424,0.141,0.414,0.366c-0.009,0.227-0.357,0.151-0.357,0.368
					c0,0.216,0.207,0.282,0.019,0.593c-0.188,0.311-0.084,0.872,0.019,0.938c0.104,0.065,0.235,0.078,0.235,0.078l0.245-1.422
					L333.483,261.461z"/>
				<path clip-path="url(#SVGID_12_)" fill="#F5952F" d="M297.353,271.473c0,0,0.121-0.241-0.522-0.261
					c-0.18-0.08-0.12-0.181,0-0.341c0.121-0.161,0.121-0.642-0.301-0.683c-0.02-0.12-0.06-0.221-0.2-0.24
					c0.08-0.221,0.14-0.598-0.281-0.7c-0.421-0.102-0.461-0.303-0.381-0.383s-0.02-0.221-0.16-0.261
					c-0.101-0.181-0.241-0.181-0.602-0.181c0.24-0.221,0.341-0.862-0.121-0.982c-0.461-0.12-0.1-0.221-0.08-0.32
					c0.02-0.101-0.06-0.302-0.281-0.401c-0.015-0.025-0.137-0.134-0.22-0.101c-0.761,0.304-3.849,1.501-4.692,3.063
					c0,0-0.281,0.557,0.11,0.727c0.21,0.211,0.261,0.291,0.361,0.271c0.1-0.021,0.211,0.05,0.211,0.109
					c0,0.061-0.021,0.251,0.12,0.251c0.14,0,0.14,0.08,0.06,0.19s-0.08,0.602,0.241,0.592s0.21,0.12,0.17,0.341
					s0.201,0.341,0.331,0.552c0.13,0.21,0.25,0.13,0.341,0.2s0.06,0.23-0.04,0.311c-0.101,0.08-0.13,0.341,0.02,0.381
					c0.15,0.041,0.311,0.19,0.261,0.271c-0.05,0.08,0.048,0.34,0.237,0.391C291.934,274.27,296.073,272.346,297.353,271.473"/>
			</g>
			<g clip-path="url(#SVGID_10_)">
				<defs>
					<rect id="SVGID_13_" x="259.12" y="249.558" width="84.723" height="97.048"/>
				</defs>
				<clipPath id="SVGID_14_">
					<use xlink:href="#SVGID_13_"  overflow="visible"/>
				</clipPath>
				<path clip-path="url(#SVGID_14_)" fill="#F5952F" d="M326.337,269.146c0.251,0,0.251-0.39,0-0.39
					S326.086,269.146,326.337,269.146"/>
				<path clip-path="url(#SVGID_14_)" fill="#F5952F" d="M326.214,268.219c0.251,0,0.251-0.389,0-0.389
					S325.963,268.219,326.214,268.219"/>
				<path clip-path="url(#SVGID_14_)" fill="#F5952F" d="M331.495,277.727c0.251,0,0.251-0.39,0-0.39
					S331.244,277.727,331.495,277.727"/>
				<path clip-path="url(#SVGID_14_)" fill="#F5952F" d="M333.274,275.25c0.251,0,0.251-0.389,0-0.389
					S333.023,275.25,333.274,275.25"/>
				<path clip-path="url(#SVGID_14_)" fill="#F5952F" d="M333.842,274.882c0.251,0,0.251-0.39,0-0.39
					C333.591,274.492,333.591,274.882,333.842,274.882"/>
				<path clip-path="url(#SVGID_14_)" fill="#F5952F" d="M334.808,274.418c0.251,0,0.251-0.39,0-0.39
					S334.557,274.418,334.808,274.418"/>
				<path clip-path="url(#SVGID_14_)" fill="#F5952F" d="M334.486,270.149c0.251,0,0.251-0.39,0-0.39
					C334.234,269.76,334.234,270.149,334.486,270.149"/>
				<path clip-path="url(#SVGID_14_)" fill="#F5952F" d="M331.93,258.291c0.251,0,0.251-0.389,0-0.389
					C331.679,257.902,331.679,258.291,331.93,258.291"/>
				<path clip-path="url(#SVGID_14_)" fill="#F5952F" d="M331.088,258.282c0.251,0,0.251-0.39,0-0.39
					C330.837,257.893,330.837,258.282,331.088,258.282"/>
				<path clip-path="url(#SVGID_14_)" fill="#F5952F" d="M330.871,258.632c0.251,0,0.251-0.389,0-0.389
					S330.62,258.632,330.871,258.632"/>
				<path clip-path="url(#SVGID_14_)" fill="#F5952F" d="M330.644,257.903c0.251,0,0.251-0.39,0-0.39
					S330.393,257.903,330.644,257.903"/>
				<path clip-path="url(#SVGID_14_)" fill="#F5952F" d="M331.041,259.285c0.251,0,0.251-0.39,0-0.39
					C330.79,258.896,330.79,259.285,331.041,259.285"/>
				<path clip-path="url(#SVGID_14_)" fill="#F5952F" d="M331.448,259.181c0.251,0,0.251-0.389,0-0.389
					S331.197,259.181,331.448,259.181"/>
				<path clip-path="url(#SVGID_14_)" fill="#F5952F" d="M331.685,258.859c0.251,0,0.251-0.39,0-0.39
					C331.433,258.47,331.433,258.859,331.685,258.859"/>
				<path clip-path="url(#SVGID_14_)" fill="#F5952F" d="M332.11,258.963c0.251,0,0.251-0.389,0-0.389
					S331.859,258.963,332.11,258.963"/>
				<path clip-path="url(#SVGID_14_)" fill="#F5952F" d="M331.315,260.108c0.251,0,0.251-0.39,0-0.39
					S331.064,260.108,331.315,260.108"/>
				<path clip-path="url(#SVGID_14_)" fill="#F5952F" d="M331.344,260.875c0.251,0,0.251-0.39,0-0.39
					S331.093,260.875,331.344,260.875"/>
				<path clip-path="url(#SVGID_14_)" fill="#F5952F" d="M332.555,258.604c0.251,0,0.251-0.389,0-0.389
					S332.304,258.604,332.555,258.604"/>
				<path clip-path="url(#SVGID_14_)" fill="#F5952F" d="M325.117,263.108c0.251,0,0.251-0.39,0-0.39
					S324.866,263.108,325.117,263.108"/>
				<path clip-path="url(#SVGID_14_)" fill="#F5952F" d="M323.64,261.055c0.251,0,0.251-0.389,0-0.389
					C323.389,260.666,323.389,261.055,323.64,261.055"/>
			</g>
			<g clip-path="url(#SVGID_10_)">
				<defs>
					<rect id="SVGID_15_" x="259.12" y="249.558" width="84.723" height="97.048"/>
				</defs>
				<clipPath id="SVGID_16_">
					<use xlink:href="#SVGID_15_"  overflow="visible"/>
				</clipPath>
				<path clip-path="url(#SVGID_16_)" fill="#F5952F" d="M336.59,273.388c0.336,0,0.336-0.521,0-0.521
					C336.253,272.867,336.253,273.388,336.59,273.388"/>
				<path clip-path="url(#SVGID_16_)" fill="#F5952F" d="M337.631,271.335c0.336,0,0.336-0.521,0-0.521
					S337.294,271.335,337.631,271.335"/>
				<path clip-path="url(#SVGID_16_)" fill="#F5952F" d="M321.176,269.642c0.336,0,0.336-0.521,0-0.521
					C320.84,269.12,320.84,269.642,321.176,269.642"/>
				<path clip-path="url(#SVGID_16_)" fill="#F5952F" d="M323.949,271.15c0.336,0,0.336-0.521,0-0.521
					C323.613,270.629,323.613,271.15,323.949,271.15"/>
				<path clip-path="url(#SVGID_16_)" fill="#F5952F" d="M326.985,267.53c0.336,0,0.336-0.521,0-0.521
					S326.649,267.53,326.985,267.53"/>
				<path clip-path="url(#SVGID_16_)" fill="#F5952F" d="M324.884,264.357c0.336,0,0.336-0.521,0-0.521
					C324.547,263.837,324.547,264.357,324.884,264.357"/>
				<path clip-path="url(#SVGID_16_)" fill="#F5952F" d="M324.29,261.701c0.336,0,0.336-0.521,0-0.521
					S323.954,261.701,324.29,261.701"/>
			</g>
			<g clip-path="url(#SVGID_10_)">
				<defs>
					<rect id="SVGID_17_" x="259.12" y="249.558" width="84.723" height="97.048"/>
				</defs>
				<clipPath id="SVGID_18_">
					<use xlink:href="#SVGID_17_"  overflow="visible"/>
				</clipPath>
				<path clip-path="url(#SVGID_18_)" d="M329.937,252.358c0.251,0,0.251-0.389,0-0.389S329.686,252.358,329.937,252.358"/>
				<path clip-path="url(#SVGID_18_)" d="M329.529,262.839c0.251,0,0.251-0.389,0-0.389S329.278,262.839,329.529,262.839"/>
				<path clip-path="url(#SVGID_18_)" d="M328.725,262.587c0.251,0,0.251-0.39,0-0.39S328.474,262.587,328.725,262.587"/>
				<path clip-path="url(#SVGID_18_)" d="M325.943,255.2c0.251,0,0.251-0.39,0-0.39C325.692,254.811,325.692,255.2,325.943,255.2"/>
				<path clip-path="url(#SVGID_18_)" d="M326.091,254.266c0.251,0,0.251-0.39,0-0.39S325.84,254.266,326.091,254.266"/>
				<path clip-path="url(#SVGID_18_)" d="M326.846,253.975c0.251,0,0.251-0.389,0-0.389S326.595,253.975,326.846,253.975"/>
				<path clip-path="url(#SVGID_18_)" d="M327.625,253.382c0.251,0,0.251-0.39,0-0.39S327.374,253.382,327.625,253.382"/>
				<path clip-path="url(#SVGID_18_)" d="M327.687,252.688c0.251,0,0.251-0.39,0-0.39S327.436,252.688,327.687,252.688"/>
				<path clip-path="url(#SVGID_18_)" d="M328.379,252.863c0.251,0,0.251-0.389,0-0.389
					C328.128,252.475,328.128,252.863,328.379,252.863"/>
				<path clip-path="url(#SVGID_18_)" d="M328.602,252.271c0.251,0,0.251-0.39,0-0.39S328.351,252.271,328.602,252.271"/>
				<path clip-path="url(#SVGID_18_)" d="M329.034,252.675c0.251,0,0.251-0.39,0-0.39
					C328.783,252.285,328.783,252.675,329.034,252.675"/>
				<path clip-path="url(#SVGID_18_)" d="M329.727,252.03c0.251,0,0.251-0.39,0-0.39C329.476,251.641,329.476,252.03,329.727,252.03
					"/>
			</g>
			<g clip-path="url(#SVGID_10_)">
				<defs>
					<rect id="SVGID_19_" x="259.12" y="249.558" width="84.723" height="97.048"/>
				</defs>
				<clipPath id="SVGID_20_">
					<use xlink:href="#SVGID_19_"  overflow="visible"/>
				</clipPath>
				<path clip-path="url(#SVGID_20_)" fill="#F5952F" d="M325.117,262.433c0.502,0,0.502-0.778,0-0.778
					S324.615,262.433,325.117,262.433"/>
			</g>
			<g clip-path="url(#SVGID_10_)">
				<defs>
					<rect id="SVGID_21_" x="259.12" y="249.558" width="84.723" height="97.048"/>
				</defs>
				<clipPath id="SVGID_22_">
					<use xlink:href="#SVGID_21_"  overflow="visible"/>
				</clipPath>
				<path clip-path="url(#SVGID_22_)" d="M333.405,273.115c0.358,0,0.358-0.557,0-0.557S333.047,273.115,333.405,273.115"/>
				<path clip-path="url(#SVGID_22_)" d="M338.339,268.135c0.358,0,0.358-0.556,0-0.556
					C337.98,267.579,337.98,268.135,338.339,268.135"/>
				<path clip-path="url(#SVGID_22_)" d="M338.927,266.037c0.358,0,0.358-0.556,0-0.556S338.568,266.037,338.927,266.037"/>
				<path clip-path="url(#SVGID_22_)" d="M321.736,260.421c0.358,0,0.358-0.557,0-0.557S321.377,260.421,321.736,260.421"/>
				<path clip-path="url(#SVGID_22_)" d="M323.87,263.236c0.358,0,0.358-0.557,0-0.557S323.512,263.236,323.87,263.236"/>
				<path clip-path="url(#SVGID_22_)" d="M322.464,265.78c0.358,0,0.358-0.557,0-0.557S322.106,265.78,322.464,265.78"/>
				<path clip-path="url(#SVGID_22_)" d="M339.119,263.114c0.358,0,0.358-0.557,0-0.557
					C338.76,262.558,338.76,263.114,339.119,263.114"/>
				<path clip-path="url(#SVGID_22_)" d="M340.333,261.625c0.358,0,0.358-0.556,0-0.556S339.974,261.625,340.333,261.625"/>
				<path clip-path="url(#SVGID_22_)" d="M322.106,263.942c0.502,0,0.502-0.778,0-0.778S321.604,263.942,322.106,263.942"/>
				<path clip-path="url(#SVGID_22_)" d="M337.393,273.984c0.502,0,0.502-0.778,0-0.778S336.891,273.984,337.393,273.984"/>
				<path clip-path="url(#SVGID_22_)" d="M335.757,276.786c0.502,0,0.502-0.779,0-0.779
					C335.255,276.007,335.255,276.786,335.757,276.786"/>
				<path clip-path="url(#SVGID_22_)" d="M342.467,271.548c0.502,0,0.502-0.778,0-0.778S341.965,271.548,342.467,271.548"/>
				<path clip-path="url(#SVGID_22_)" d="M340.397,262.778c0.502,0,0.502-0.778,0-0.778
					C339.895,262,339.895,262.778,340.397,262.778"/>
				<path clip-path="url(#SVGID_22_)" d="M338.595,259.761c0.502,0,0.502-0.778,0-0.778
					C338.092,258.982,338.092,259.761,338.595,259.761"/>
			</g>
		</g>
	</g>
	<g>
		<g>
			<defs>
				<rect id="SVGID_23_" x="229.621" y="249.553" width="64.312" height="103.609"/>
			</defs>
			<clipPath id="SVGID_24_">
				<use xlink:href="#SVGID_23_"  overflow="visible"/>
			</clipPath>
			<g clip-path="url(#SVGID_24_)">
				<defs>
					<rect id="SVGID_25_" x="229.621" y="249.553" width="64.312" height="103.609"/>
				</defs>
				<clipPath id="SVGID_26_">
					<use xlink:href="#SVGID_25_"  overflow="visible"/>
				</clipPath>
				<path clip-path="url(#SVGID_26_)" d="M263.477,262.073c0,0,3.627-11.512,4.627-12.179c3.035,1.518,6.542,3.572,6.432,5.09
					c-1.814,1.333-4.1,3.961-7.098,9.588C265.809,263.498,263.477,262.073,263.477,262.073"/>
				<path clip-path="url(#SVGID_26_)" fill="#F5952F" d="M261.08,265.516c0,0-0.065-0.139,0-0.269
					c0.065-0.129,0.046-0.212,0.083-0.342c0.037-0.13,0.194-0.296,0.397-0.343c0.204-0.046,0.158-0.323,0.121-0.536
					s0-0.417,0.259-0.444c0.259-0.028,0.222-0.065,0.203-0.223c-0.018-0.157-0.055-0.333,0.102-0.453s0.204-0.259,0.25-0.37
					s0.167-0.148,0.314-0.139c0.148,0.009,0.158-0.056,0.083-0.157c-0.074-0.103,0.092-0.231,0.185-0.231
					c0.092,0,0.266-0.014,0.398,0.064s4.127,2.369,4.219,2.628c0.093,0.26-0.199,0.176-0.023,0.269
					c0.065,0.056-0.018,0.093-0.12,0.148c-0.102,0.056-0.217,0.083-0.162,0.185c0.056,0.103,0.111,0.223-0.167,0.324
					c0,0.139,0.061,0.12-0.042,0.231c-0.102,0.111-0.162,0.185-0.125,0.24c0.037,0.056-0.009,0.167-0.185,0.287
					c-0.176,0.12-0.305,0.167-0.194,0.25c0.111,0.083,0.111,0.277,0.019,0.463c-0.092,0.185-0.139,0.25-0.296,0.323
					c-0.157,0.074-0.037,0.148-0.121,0.26c-0.083,0.11-0.342,0.213-0.129,0.36c0.065,0.056,0.019,0.12-0.129,0.12
					C263.88,267.099,261.75,265.933,261.08,265.516"/>
				<path clip-path="url(#SVGID_26_)" d="M255.746,263.552c0,0,9.774,4.546,15.158,8.321c0.276-0.555-0.542-1.366-1.305-1.873
					c-1.058-0.703-6.126-2.971-10.453-5.761c-1.125-0.708-1.365-0.873-2.346-0.861C256.282,263.304,255.486,263.44,255.746,263.552"
					/>
				<path clip-path="url(#SVGID_26_)" d="M254.867,291.529c0,0,2.947-9.536,2.836-11.466c-0.014-2.359,1.375-4.798,1.402-5.303
					c-0.37,0.151-1.61,1.11-1.918,2.359c-0.311,1.264-1.024,1.184-1.691,1.231c-0.591,0.043-1.037-0.074-2.11,0.444
					c-4.178,1.795-9.106,3.725-9.467,3.85c-0.625-1.624-1.416-5.164-2.263-10.717h-0.208c0,0-0.139-0.222,0.25-1.415
					c0.389-1.194,0.097-3.055,0.139-3.457c0.042-0.402,0.25-1.18,0.403-1.291c-0.375-0.111-1.36-0.277-1.721,2.54
					c-0.028,0.292,0.111,0.833-0.431,0.861c-0.541,0.027-2.235,0-4.011-1.305c-1.264-2.318-3.193-5.678-4.54-5.012
					c0.889,1.389,2.887,4.525,2.887,4.525s-0.722,0-1.291-0.333c-0.847-0.708-2.318-1.763-3.512-1.555
					c0.569,0.764,1.638,1.693,2.929,2.513c-1.277-0.417-2.526-0.777-2.929-0.223c0.777,0.486,2.554,1.166,2.554,1.166
					s-1.097-0.014-1.18,0.583c4.442,0.861,8.398,1.999,8.912,2.471c0.389,0.375,0.111,0.653,0.014,0.583
					c0.375,1.569,2.166,10.884,2.249,12.258c0.055,0.514,0.18,0.902,0.763,0.805c0.583-0.097,7.686-3.865,11.133-3.914
					c0.458,0.027,0.514,0.416,0.306,0.972c-1.888,7.948-3.193,14.533-3.29,15.838c-0.292,3.984-1.027,20.059-1.083,23.834
					c0.167,5.608,0.462,23.167-0.037,25.305c0.667,0.167,1.25,0.167,0.611,1s-3.924,3.134-3.979,3.911
					c1.388,0.171,5.987-0.067,6.626-0.15c0-1.527-0.897-3.483-1.203-3.872c-0.306-0.389-0.056-1.055,0.833-0.777
					c-0.174-4.672-0.898-21.58-0.629-25.276c0.333-4.577,0.912-8.398,0.912-11.174c-0.123,0.394,0.78,6.47,1.817,9.024
					c0.667-2.258-0.048-12.018,0.007-12.656c0,3.628,3.508,12.883,4.263,17.6c0.277,5.608,1.821,19.484,1.904,21.982
					c0,0,0.389,0.75,0.277,1.472c-0.111,0.722-0.416,1.527-0.277,3.054c3.609,0.167,12.178,0.407,12.789,0.38
					c-0.278-0.82-5.774-2.295-7.533-2.586c-1.407-0.232-5.608-1.375-2.369-1.819c-0.277-3.109-2.119-17.667-2.518-22.334
					c-0.555-6.496-2.031-11.707-2.589-13.911c2.847,4.01,5.088,7.461,5.366,7.489c0.278,0.027-2.492-8.478-4.923-12.734
					c-0.74-1.962-3.294-5.849-2.544-10.883c0.519-3.488,3.766-10.031,5.016-12.132c0.968-1.628,1.185-1.943,2.063-1.888
					c1.284,0.081,5.173,1.518,9.356,3.525c0.777,0.389,1.629,0.222,2.073-0.472c0.444-0.694,5.192-7.432,6.201-7.996
					c0.719-0.402,3.092-1.333,5.006-1.563c1.61-0.194,3.257,0.046,5.146,0.046c0-0.36-0.574-0.592-2.767-0.842
					c1.749-0.389,4.456-0.722,4.748-0.639c0.291-0.167,0.342-0.399,0-0.694c-0.398-0.342-0.121-0.657-0.549-0.879
					c-0.254-0.131-0.154-0.62-0.765-0.62c-1.305,0.093-3.961,0.907-4.229,1c-1.508,0.129-3.996,0.582-4.505,0.693
					c-0.509,0.11-0.828-0.547-0.43-0.741s3.51-2.054,2.834-3.377c-1.009,0.676-2.98,2.055-3.443,2.23
					c-0.462,0.176-0.647,0.444-0.86,0.777s-0.519,0.981-0.546,1.157c-0.028,0.176-0.352,1.822-0.731,2.322
					c-0.379,0.5-6.043,7.57-6.283,7.931c-1.147-0.573-8.588-4.071-10.67-4.423c0.787-0.194,1.323-0.417,1.323-0.417
					s-0.916-0.083-1.24-0.499c-0.176-0.278,0.074-0.583-0.037-0.963c-0.231-0.61-0.75-1.971-0.907-2.082
					c-0.491,1.888-1.018,3.211-2.267,5.108C257.957,283.413,256.301,288.596,254.867,291.529"/>
			</g>
		</g>
	</g>
	<g>
		<g>
			<defs>
				<rect id="SVGID_27_" x="124.05" y="254.372" width="60.728" height="93.76"/>
			</defs>
			<clipPath id="SVGID_28_">
				<use xlink:href="#SVGID_27_"  overflow="visible"/>
			</clipPath>
			<g clip-path="url(#SVGID_28_)">
				<defs>
					<rect id="SVGID_29_" x="124.05" y="254.372" width="60.728" height="93.76"/>
				</defs>
				<clipPath id="SVGID_30_">
					<use xlink:href="#SVGID_29_"  overflow="visible"/>
				</clipPath>
				<path clip-path="url(#SVGID_30_)" d="M147.405,268.772c0,0-4.908-11.699-4.815-13.221c2.174-0.714,7.505-1.729,9.337-0.642
					c-0.187,2.981-0.507,9.98,0.27,13.49C149.495,268.462,147.653,268.68,147.405,268.772"/>
				<path clip-path="url(#SVGID_30_)" fill="#F5952F" d="M147.294,268.805c0,0-0.442,0.187-0.193,0.403
					c0.202,0.094,0.156,0.116,0.059,0.163c0,0-0.276,0.132-0.229,0.303s0.124,0.334,0.07,0.489s-0.085,0.357,0.07,0.489
					s0.35,0.171,0.147,0.311c-0.202,0.14-0.376,0.357-0.103,0.582c0.274,0.226,0.724,0.45,0.561,0.621s-0.264,0.241-0.163,0.442
					c0.101,0.202,0.179,0.245,0.241,0.503c0.062,0.258,0.086,0.333,0.28,0.369s3.952,0.008,5.724-0.916
					c0.16-0.062,0.081-0.15,0-0.188c-0.08-0.039,0.083-0.094,0.029-0.218c-0.055-0.124-0.163-0.264-0.039-0.489
					c0.055-0.147-0.078-0.29-0.14-0.396s0.054-0.264-0.078-0.318s-0.442,0.008-0.365-0.116c0.078-0.125,0.249-0.442,0.14-0.567
					c-0.109-0.124-0.194-0.085-0.132-0.217c0.062-0.132-0.062-0.279-0.202-0.311s-0.387-0.046-0.201-0.115
					c0.187-0.07,0.248-0.126,0.092-0.25s-0.288-0.124-0.155-0.256c0.132-0.132,0.132-0.29-0.028-0.279
					c-0.104,0.007-0.148-0.078-0.079-0.155c0.07-0.078-0.173-0.255-0.321-0.284s-2.848,0.101-3.787,0.19
					C147.792,268.661,147.534,268.727,147.294,268.805"/>
				<path clip-path="url(#SVGID_30_)" d="M147.941,273.488c0,0-0.911-0.039-1.49-0.091c-0.58-0.052-2.384,0.152-2.733,0.477
					c-0.145,0.135,0.117,0.213,0.292,0.226c0.313,0.024,4.78,0.344,8.869-0.392c3.808-0.685,5.789-1.491,5.559-1.594
					c-0.787-0.352-1.715-0.093-2.774,0.228c-0.448,0.136-1.671,0.312-1.907,0.223c0,0-0.639,0.42-2.72,0.688
					C149.377,273.468,148.054,273.494,147.941,273.488"/>
				<path clip-path="url(#SVGID_30_)" d="M181.625,346.262c-0.714-0.289-0.714-0.341-0.714-0.341s-5.807-12.826-10.962-28.322
					c-3.385-11.552-5.559-18.602-6.335-20.371c-0.911-2.174-1.967-3.562-2.091-3.893c2.38-0.621,12.028-3.188,12.152-3.871
					c0.125-0.684-7.888-5.569-9.378-6.501s-7.225-4.327-7.681-4.203c-0.456,0.125-0.518,0.663-0.725,0.643
					c-0.207-0.021-0.318-0.439,0.476-1.967c0.269-0.518,0.601-0.829,0.725-0.974s-0.352-0.89-3.375-0.352
					c0.124,2.422,0.145,2.898,0.021,3.768c-0.124,0.87,0.476,6.832,1.118,7.888c0,0-1.325-0.021-4.762-6.749
					c-0.683-1.263-1.594-2.443-2.236-2.836c-0.373-0.042-0.72-0.523-0.88-0.808c-0.161-0.285-0.407-0.891-2.208-2.164
					c-2.681-1.895-4.321-3.285-5.559-4.122c0,0-0.909-0.698-8.89-0.698c-3.858,0.101-5.007,1.288-5.054,1.335
					c0.07,1.592,0.311,4.682,0.318,4.898c0.008,0.218-0.054,0.389,0.008,0.436c0.062,0.046,0.466-0.125,0.567-0.73
					s0.404-3.587,0.567-3.765c0.163-0.179,0.271-0.078,0.349,0.054s2.236,3.982,2.562,3.976c0.249-0.008,0-0.815-0.016-0.854
					c0,0-1.258-3.105-1.382-3.385s-0.008-0.218,0.093-0.147c0.101,0.069,2.88,2.818,3.136,2.88c0.256,0.062,0.016-0.295-0.108-0.535
					c-0.125-0.241-1.63-2.64-1.917-2.942c-0.093-0.179,0.093-0.226,0.341,0.031c0,0,2.228,2.398,2.36,2.406
					c0.132,0.008,0.078-0.559-0.264-1.063c-0.341-0.505-1.11-1.351-1.397-1.545c-0.124-0.101-0.287-0.279,0.093-0.265
					c0.38,0.016,3.144-0.178,6.304,0.342c0.442,0.062,1.607,0.381,1.77,0.396c0.838,0.985,6.125,6.909,7.864,8.222
					c1.957,2.803,8.665,11.304,9.254,11.862c0.419,0.435,0.73,1.056,0.73,1.056l-3.897,1.134c0,0-1.242-1.134-3.789,0.218
					c0,0-0.45,0.232-0.155,0.248s1.521-0.124,1.863-0.124c0.341,0,0.9,0.171,0.729,0.528c-0.171,0.356-0.45,0.9-2.391,1.583
					c0,0-4.86,0.249-5.403,0.481c-0.093,0.218,0.202,0.668,0.295,0.761c0.093,0.094,0.543,0.342,0.559,0.544
					s-0.031,0.637,0.311,0.668c0.341,0.03,0.838,0.17,0.807,0.388c-0.031,0.218,0.559,0.218,0.559,0.218s2.904,0,3.991-0.295
					c1.087-0.296,2.096-0.776,2.593-1.646c0.352-0.615,0.979-1.724,1.646-2.08c0,0,1.957-0.947,2.857-1.103
					c0.171,1.195,0.545,3.897,0.514,4.238c-3.803,4.7-8.117,9.834-9.887,14.259c-0.16,3.101-0.315,9.234-0.362,10.166
					c-0.047,0.932-0.73,21.023-0.761,21.288c-0.031,0.264-0.202,0.962-2.826,1.801c-2.313,0.714-2.686,1.808-2.686,1.808
					s7.096-0.332,7.624-0.441c0.047-0.838-0.093-1.692-0.543-2.469c-0.155-0.264-0.124-0.605,0.218-0.59
					c0.108-1.631,0.321-13.721,0.341-14.901c0.021-1.18,0.58-14.347,0.953-15.796c0,0,5.465-5.817,8.115-9.689
					c0,0,1.056,14.41,2.567,15.776c0,0,1.18-0.953,0.683-6.004c-0.559-6.253-0.352-9.958-0.187-10.455
					c0.642,1.739,2.257,6.894,2.526,9.109c0.269,2.215,2.257,8.592,3.665,9.171c-0.249-1.18-0.994-4.596-0.725-5.403
					c1.325,2.795,9.875,21.055,12.339,29.502c0,0,0.932-0.124,0.849,0.145c-0.083,0.27-0.663,0.663-0.994,0.776
					c-0.331,0.114-1.149,0.673-1.149,0.922c0.776,0.062,6.823,0.165,7.428-0.197C184.275,347.225,182.34,346.552,181.625,346.262
					 M160.617,291.777c0,0-1.258-2.003-1.926-4.534c-0.667-2.531-0.932-4.41-0.683-5.217c4.146,2.546,10.527,6.536,11.102,7.204
					C167.045,289.759,161.129,291.668,160.617,291.777"/>
				<path clip-path="url(#SVGID_30_)" fill="#F5952F" d="M136.798,278.61c-0.321,0-0.321,0.496,0,0.496
					C137.119,279.106,137.119,278.61,136.798,278.61"/>
				<path clip-path="url(#SVGID_30_)" fill="#F5952F" d="M136.751,278.237c0.321,0,0.321-0.497,0-0.497
					C136.431,277.74,136.431,278.237,136.751,278.237"/>
				<path clip-path="url(#SVGID_30_)" fill="#F5952F" d="M133.739,283.393c0.32,0,0.32-0.497,0-0.497
					S133.419,283.393,133.739,283.393"/>
				<path clip-path="url(#SVGID_30_)" fill="#F5952F" d="M132.498,281.805c0.065,0,0.132-0.006,0.197-0.018
					c0.216-0.037,0.413-0.134,0.552-0.272c0.161-0.159,0.233-0.363,0.199-0.56c-0.056-0.321-0.382-0.546-0.792-0.546
					c-0.065,0-0.131,0.006-0.197,0.017c-0.217,0.038-0.413,0.135-0.552,0.273c-0.161,0.159-0.233,0.363-0.199,0.56
					C131.763,281.58,132.088,281.805,132.498,281.805 M132.255,281.052c0.067-0.066,0.172-0.116,0.288-0.136
					c0.037-0.007,0.075-0.01,0.111-0.01c0.167,0,0.291,0.069,0.302,0.135c0.006,0.033-0.017,0.078-0.06,0.121
					c-0.067,0.066-0.172,0.116-0.288,0.136c-0.038,0.007-0.075,0.01-0.112,0.01c-0.167,0-0.291-0.069-0.302-0.135
					C132.19,281.14,132.212,281.095,132.255,281.052"/>
				<path clip-path="url(#SVGID_30_)" fill="#F5952F" d="M134.108,281.188c0.036,0,0.072-0.003,0.109-0.008
					c0.187-0.025,0.355-0.114,0.474-0.25c0.126-0.143,0.184-0.328,0.159-0.509c-0.05-0.362-0.406-0.617-0.813-0.562
					c-0.187,0.025-0.355,0.114-0.474,0.25c-0.126,0.144-0.184,0.329-0.159,0.509C133.449,280.948,133.746,281.188,134.108,281.188
					 M133.937,280.437c0.039-0.044,0.1-0.075,0.167-0.085c0.014-0.002,0.028-0.002,0.042-0.002c0.108,0,0.201,0.061,0.212,0.139
					c0.006,0.049-0.019,0.089-0.041,0.114c-0.04,0.045-0.1,0.076-0.167,0.085c-0.125,0.018-0.242-0.048-0.254-0.137
					C133.89,280.502,133.915,280.462,133.937,280.437"/>
				<path clip-path="url(#SVGID_30_)" fill="#F5952F" d="M135.618,279.604c-0.436,0-0.776,0.286-0.776,0.651
					s0.341,0.651,0.776,0.651s0.776-0.286,0.776-0.651S136.054,279.604,135.618,279.604 M135.618,280.409
					c-0.171,0-0.28-0.092-0.28-0.154c0-0.063,0.109-0.154,0.28-0.154c0.17,0,0.279,0.091,0.279,0.154
					C135.897,280.317,135.789,280.409,135.618,280.409"/>
				<path clip-path="url(#SVGID_30_)" fill="#F5952F" d="M136.767,280.24c0,0.301,0.311,0.528,0.722,0.528s0.722-0.228,0.722-0.528
					s-0.31-0.528-0.722-0.528S136.767,279.939,136.767,280.24 M137.489,280.271c-0.077,0-0.136-0.015-0.176-0.031
					c0.04-0.017,0.099-0.031,0.176-0.031c0.076,0,0.135,0.015,0.175,0.031C137.625,280.257,137.565,280.271,137.489,280.271"/>
				<path clip-path="url(#SVGID_30_)" fill="#F5952F" d="M140.54,279.977c-0.32,0-0.32,0.497,0,0.497
					C140.861,280.474,140.861,279.977,140.54,279.977"/>
				<path clip-path="url(#SVGID_30_)" fill="#F5952F" d="M141.394,280.706c0.321,0,0.321-0.497,0-0.497
					C141.074,280.209,141.074,280.706,141.394,280.706"/>
				<path clip-path="url(#SVGID_30_)" fill="#F5952F" d="M142.792,281.125c0.321,0,0.321-0.496,0-0.496
					C142.471,280.629,142.471,281.125,142.792,281.125"/>
				<path clip-path="url(#SVGID_30_)" fill="#F5952F" d="M143.677,281.685c0.32,0,0.32-0.497,0-0.497
					S143.356,281.685,143.677,281.685"/>
				<path clip-path="url(#SVGID_30_)" fill="#F5952F" d="M144.28,281.883c-0.167,0.121-0.12,0.453,0.142,0.453
					c0.27,0,0.312-0.351,0.127-0.462c0.167-0.121,0.12-0.454-0.142-0.454C144.137,281.42,144.095,281.771,144.28,281.883"/>
				<path clip-path="url(#SVGID_30_)" fill="#F5952F" d="M143.956,280.722c0.321,0,0.321-0.497,0-0.497
					C143.636,280.225,143.636,280.722,143.956,280.722"/>
				<path clip-path="url(#SVGID_30_)" fill="#F5952F" d="M145.727,280.582c0.32,0,0.32-0.497,0-0.497
					C145.406,280.085,145.406,280.582,145.727,280.582"/>
				<path clip-path="url(#SVGID_30_)" fill="#F5952F" d="M146.378,281.39c0.32,0,0.32-0.497,0-0.497S146.058,281.39,146.378,281.39"
					/>
				<path clip-path="url(#SVGID_30_)" fill="#F5952F" d="M145.09,283.438c0.32,0,0.32-0.496,0-0.496
					C144.769,282.942,144.769,283.438,145.09,283.438"/>
				<path clip-path="url(#SVGID_30_)" fill="#F5952F" d="M146.332,284.23c0.32,0,0.32-0.496,0-0.496
					C146.011,283.734,146.011,284.23,146.332,284.23"/>
				<path clip-path="url(#SVGID_30_)" fill="#F5952F" d="M145.121,284.23c-0.32,0-0.32,0.497,0,0.497
					C145.441,284.728,145.441,284.23,145.121,284.23"/>
				<path clip-path="url(#SVGID_30_)" fill="#F5952F" d="M145.152,286.373c0.318,0,0.32-0.488,0.007-0.496
					c0.163-0.123,0.114-0.45-0.146-0.45c-0.318,0-0.32,0.488-0.007,0.496C144.843,286.046,144.892,286.373,145.152,286.373"/>
				<path clip-path="url(#SVGID_30_)" fill="#F5952F" d="M145.928,287.165c-0.32,0-0.32,0.497,0,0.497
					S146.249,287.165,145.928,287.165"/>
				<path clip-path="url(#SVGID_30_)" fill="#F5952F" d="M146.689,287.585c-0.112,0-0.184,0.061-0.217,0.14
					c-0.32,0-0.32,0.497,0,0.497c0.112,0,0.184-0.062,0.217-0.14C147.009,288.081,147.009,287.585,146.689,287.585"/>
				<path clip-path="url(#SVGID_30_)" fill="#F5952F" d="M146.316,289.464c-0.026,0-0.049,0.004-0.071,0.01
					c0.005-0.127-0.075-0.259-0.239-0.259c-0.32,0-0.32,0.497,0,0.497c0.026,0,0.049-0.004,0.071-0.011
					c-0.004,0.128,0.075,0.259,0.24,0.259C146.637,289.96,146.637,289.464,146.316,289.464"/>
				<path clip-path="url(#SVGID_30_)" fill="#F5952F" d="M145.594,291.948c0.162-0.123,0.113-0.45-0.147-0.45
					c-0.018,0-0.035,0.002-0.051,0.005c-0.035-0.074-0.106-0.13-0.213-0.13c-0.32,0-0.32,0.497,0,0.497c0.003,0,0.005,0,0.007-0.001
					c-0.121,0.14-0.061,0.42,0.18,0.42C145.57,292.289,145.645,292.094,145.594,291.948"/>
				<path clip-path="url(#SVGID_30_)" fill="#F5952F" d="M144.081,293.004c-0.321,0-0.321,0.497,0,0.497
					C144.401,293.501,144.401,293.004,144.081,293.004"/>
				<path clip-path="url(#SVGID_30_)" fill="#F5952F" d="M143.009,293.857c-0.055,0-0.1,0.016-0.136,0.04
					c0.019-0.137-0.06-0.288-0.237-0.288c-0.32,0-0.32,0.497,0,0.497c0.055,0,0.1-0.016,0.136-0.04
					c-0.019,0.136,0.06,0.288,0.237,0.288C143.33,294.354,143.33,293.857,143.009,293.857"/>
				<path clip-path="url(#SVGID_30_)" fill="#F5952F" d="M145.649,295.534c-0.321,0-0.321,0.497,0,0.497
					C145.969,296.031,145.969,295.534,145.649,295.534"/>
				<path clip-path="url(#SVGID_30_)" fill="#F5952F" d="M144.344,295.83c-0.32,0-0.32,0.496,0,0.496
					C144.665,296.326,144.665,295.83,144.344,295.83"/>
				<path clip-path="url(#SVGID_30_)" fill="#F5952F" d="M142.636,298.112c-0.32,0-0.32,0.497,0,0.497
					C142.957,298.609,142.957,298.112,142.636,298.112"/>
				<path clip-path="url(#SVGID_30_)" fill="#F5952F" d="M139.251,296.047c-0.32,0-0.32,0.497,0,0.497
					S139.572,296.047,139.251,296.047"/>
				<path clip-path="url(#SVGID_30_)" fill="#F5952F" d="M138.895,294.588c-0.321,0-0.321,0.496,0,0.496
					C139.215,295.084,139.215,294.588,138.895,294.588"/>
				<path clip-path="url(#SVGID_30_)" fill="#F5952F" d="M137.87,294.681c-0.321,0-0.321,0.497,0,0.497
					C138.19,295.178,138.19,294.681,137.87,294.681"/>
				<path clip-path="url(#SVGID_30_)" fill="#F5952F" d="M137.528,293.376c-0.32,0-0.32,0.497,0,0.497
					C137.849,293.873,137.849,293.376,137.528,293.376"/>
				<path clip-path="url(#SVGID_30_)" fill="#F5952F" d="M134.283,296.56c0.32,0,0.32-0.497,0-0.497S133.962,296.56,134.283,296.56"
					/>
				<path clip-path="url(#SVGID_30_)" fill="#F5952F" d="M136.1,297.118c-0.321,0-0.321,0.497,0,0.497
					C136.42,297.615,136.42,297.118,136.1,297.118"/>
				<path clip-path="url(#SVGID_30_)" fill="#F5952F" d="M136.255,298.857c0.32,0,0.32-0.497,0-0.497
					C135.934,298.36,135.934,298.857,136.255,298.857"/>
				<path clip-path="url(#SVGID_30_)" fill="#F5952F" d="M133.538,298.64c-0.321,0-0.321,0.497,0,0.497
					C133.858,299.137,133.858,298.64,133.538,298.64"/>
				<path clip-path="url(#SVGID_30_)" fill="#F5952F" d="M135.214,304.913c-0.32,0-0.32,0.497,0,0.497
					S135.535,304.913,135.214,304.913"/>
				<path clip-path="url(#SVGID_30_)" fill="#F5952F" d="M136.3,305.724c0.065-0.147-0.006-0.36-0.216-0.36
					c-0.31,0-0.319,0.463-0.03,0.494c-0.065,0.147,0.006,0.36,0.216,0.36C136.58,306.218,136.589,305.754,136.3,305.724"/>
				<path clip-path="url(#SVGID_30_)" fill="#F5952F" d="M136.813,305.907c-0.32,0-0.32,0.496,0,0.496
					C137.134,306.403,137.134,305.907,136.813,305.907"/>
				<path clip-path="url(#SVGID_30_)" fill="#F5952F" d="M136.022,306.885c-0.321,0-0.321,0.497,0,0.497
					C136.342,307.382,136.342,306.885,136.022,306.885"/>
				<path clip-path="url(#SVGID_30_)" fill="#F5952F" d="M135.82,308.065c-0.32,0-0.32,0.496,0,0.496
					C136.141,308.562,136.141,308.065,135.82,308.065"/>
				<path clip-path="url(#SVGID_30_)" fill="#F5952F" d="M135.603,308.903c-0.32,0-0.32,0.497,0,0.497
					S135.923,308.903,135.603,308.903"/>
				<path clip-path="url(#SVGID_30_)" fill="#F5952F" d="M131.581,294.308c-0.32,0-0.32,0.497,0,0.497
					S131.901,294.308,131.581,294.308"/>
				<path clip-path="url(#SVGID_30_)" fill="#F5952F" d="M140.727,277.414c0.32,0,0.32-0.497,0-0.497
					S140.406,277.414,140.727,277.414"/>
				<path clip-path="url(#SVGID_30_)" fill="#F5952F" d="M140.121,276.126c0.32,0,0.32-0.497,0-0.497
					C139.8,275.629,139.8,276.126,140.121,276.126"/>
				<path clip-path="url(#SVGID_30_)" fill="#F5952F" d="M139.407,274.697c0.32,0,0.32-0.497,0-0.497
					S139.086,274.697,139.407,274.697"/>
				<path clip-path="url(#SVGID_30_)" fill="#F5952F" d="M137.14,275.753c-0.32,0-0.32,0.497,0,0.497
					C137.46,276.25,137.46,275.753,137.14,275.753"/>
				<path clip-path="url(#SVGID_30_)" fill="#F5952F" d="M137.109,275.179c-0.321,0-0.321,0.497,0,0.497
					c0.021,0,0.04-0.003,0.058-0.007c0.035,0.062,0.097,0.106,0.185,0.113c-0.008,0.13,0.071,0.266,0.239,0.266
					c0.2,0,0.275-0.193,0.226-0.339c0.179-0.095,0.163-0.406-0.051-0.46c0.058-0.146-0.016-0.351-0.221-0.351
					c-0.225,0-0.292,0.246-0.2,0.392c-0.01,0.001-0.02,0.001-0.029,0.003C137.277,275.227,137.208,275.179,137.109,275.179"/>
				<path clip-path="url(#SVGID_30_)" fill="#F5952F" d="M137.031,275.039c0.32,0,0.32-0.497,0-0.497
					C136.71,274.542,136.71,275.039,137.031,275.039"/>
				<path clip-path="url(#SVGID_30_)" fill="#F5952F" d="M136.068,274.495c0.32,0,0.32-0.497,0-0.497
					S135.748,274.495,136.068,274.495"/>
				<path clip-path="url(#SVGID_30_)" fill="#F5952F" d="M135.509,277.259c0.321,0,0.321-0.497,0-0.497
					C135.189,276.762,135.189,277.259,135.509,277.259"/>
				<path clip-path="url(#SVGID_30_)" fill="#F5952F" d="M134.966,276.545c0.321,0,0.321-0.497,0-0.497
					C134.646,276.048,134.646,276.545,134.966,276.545"/>
				<path clip-path="url(#SVGID_30_)" fill="#F5952F" d="M134.484,277.663c0.321,0,0.321-0.497,0-0.497
					C134.164,277.166,134.164,277.663,134.484,277.663"/>
				<path clip-path="url(#SVGID_30_)" fill="#F5952F" d="M143.925,286.28c-0.481-0.047-0.28,0.544-0.155,0.729
					c-0.342-0.016-2.205-0.527-1.537-1.506c0.667-0.979,1.227-1.429,1.335-1.614c0.109-0.187,0.559-0.808-0.248-0.42
					c-0.808,0.389-0.963,0.761-1.367,0.745c0.062-0.435,0.078-1.319,0.202-1.567c0.093-0.141-0.295-0.528-0.559-0.047
					c-0.264,0.481-0.792,1.04-0.963,0.326c0.217-0.078,0.575-0.311,0.683-0.947c0.016-0.326-0.248-0.466-0.528-0.233
					c-0.279,0.233-0.512,0.684-0.512,0.684s-0.528-0.419-0.513-1.211c0.016-0.792-0.636-0.389-0.59-0.016
					c0.046,0.372-0.264,0.932-0.357,0.993c-0.093,0.062-1.009-0.356-1.568-0.932c-0.326-0.279-0.575-0.325-0.559,0.233
					c0,0.232,0,0.497-0.046,0.637c0,0-1.149-0.854-1.506-0.979s-0.357,0.202-0.109,0.56c0.249,0.356,0.419,0.667,0.295,0.605
					c-0.125-0.062-0.808-0.749-1.367-0.592c-0.202,0.048-0.124,0.11,0.109,0.343c0.233,0.233,0.807,1.134,0.729,1.196
					c-0.063,0.051-0.695,0.656-2.736-0.621c0.019-0.031,0.04-0.062,0.055-0.095c0.097-0.21,0.103-0.44,0.016-0.647
					c-0.126-0.304-0.43-0.5-0.774-0.5c-0.121,0-0.239,0.023-0.352,0.07c-0.115,0.048-0.215,0.117-0.297,0.199
					c-0.06-0.048-0.12-0.095-0.181-0.146c-0.513-0.481-0.699-0.513-0.901-0.544c-0.202-0.031-0.171,0.187-0.171,0.187
					s0.295,0.403,0.917,0.963c0.027,0.024,0.057,0.049,0.086,0.074c-0.01,0.122,0.007,0.247,0.056,0.367
					c0.126,0.304,0.43,0.499,0.774,0.499c0.107,0,0.213-0.02,0.315-0.058c0.472,0.299,0.899,0.544,1.019,0.607
					c0.233,0.124,1.072,0.652,1.103,0.823c-0.351-0.049-0.795-0.124-1.289-0.216c-0.022-0.102-0.099-0.188-0.233-0.188
					c-0.095,0-0.161,0.044-0.2,0.104c-0.272-0.053-0.555-0.108-0.841-0.167c0.005-0.038,0.008-0.076,0.008-0.115
					c0-0.468-0.364-0.848-0.812-0.848c-0.374,0-0.689,0.267-0.782,0.627c-0.735-0.161-1.419-0.316-1.938-0.44
					c-1.568-0.373-1.91-0.248-1.91-0.248s-0.186,0.217,0,0.388c0,0,0.326,0.124,0.776,0.155c0.209,0.015,1.623,0.313,3.092,0.652
					c0.113,0.326,0.412,0.561,0.762,0.561c0.223,0,0.425-0.094,0.571-0.246c1.182,0.286,2.153,0.547,2.22,0.633
					c0,0.171-0.031,0.326-0.031,0.326s-1.299-0.021-2.49-0.097c-0.113-0.253-0.329-0.434-0.59-0.458
					c-0.269-0.026-0.516,0.112-0.674,0.343c-0.085-0.012-0.164-0.024-0.236-0.037c-0.414-0.074-0.969-0.124-1.515-0.152
					c-0.371-0.291-0.744-0.577-1.126-0.849c-0.141-0.156-0.477-0.021-0.425,0.244c0.038,0.192,0.097,0.386,0.173,0.576
					c-0.309,0.005-0.53,0.019-0.59,0.041c-0.212,0.078-0.492,0.155-0.088,0.389c0.213,0.123,0.6,0.159,0.97,0.173
					c0.278,0.493,0.629,0.964,0.956,1.388c-1.386,0.12-2.583,0.276-2.61,0.474c-0.046,0.341,0.404,0.295,0.714,0.295
					c0.126,0,1.169-0.066,2.392-0.137c0.061,0.074,0.122,0.147,0.184,0.221c-0.258-0.001-0.517-0.012-0.775-0.038
					c-0.319-0.032-0.315,0.465,0,0.497c0.405,0.041,0.811,0.046,1.215,0.03c0.112,0.117,0.226,0.231,0.343,0.343
					c-1.376,0.502-2.773,1.005-3.313,1.164c-1.103,0.326-0.714,0.761-0.155,0.621c0.256-0.064,1.703-0.519,3.297-1.06
					c-0.206,0.309-0.417,0.614-0.631,0.917c-0.368,0.168-0.697,0.317-0.958,0.438c-1.693,0.776-3.509,1.429-2.966,1.802
					c0,0-0.155,0.248,3.059-1.273c0.085-0.04,0.169-0.08,0.252-0.119c-0.334,0.455-0.673,0.907-1.01,1.36
					c-0.172,0.23,0.197,0.498,0.39,0.301c0.833-0.851,1.688-1.687,2.519-2.544c0.377-0.173,0.736-0.336,1.071-0.487
					c0.153,0.076,0.309,0.146,0.47,0.207c0.3,0.113,0.428-0.366,0.133-0.479c1.239-0.556,2.029-0.895,2.029-0.895
					s-0.062,0.108-0.031,0.202c-0.295,0.03-0.667,0.217-1.103,0.512c-0.435,0.296-0.745,0.56-0.854,0.854
					c-0.621,0.419-6.087,3.804-6.18,4.301s0.326,0.404,0.513,0.357c0.151-0.038,3.86-2.826,5.652-3.851c0,0,0.048,0.185,0.168,0.463
					c-0.781,0.887-1.925,2.148-2,2.362c-0.108,0.311,0.062,0.56,0.326,0.326c0.149-0.132,1.104-1.188,1.972-2.103
					c0.099,0.167,0.216,0.343,0.354,0.519c-0.223,0.297-0.487,0.634-0.804,1.025c-1.397,1.724-3.587,4.192-3.105,4.363
					c0.481,0.171,1.289-1.181,1.661-1.631c0.226-0.272,1.588-1.973,2.644-3.317c0.159,0.156,0.338,0.306,0.537,0.444
					c-0.211,0.504-0.433,0.996-0.619,1.367c-0.852,2.042-3.049,6.289-3.775,8.04c-0.198-0.176-0.388-0.361-0.567-0.561
					c-0.214-0.239-0.564,0.113-0.351,0.352c0.228,0.253,0.473,0.485,0.732,0.703c-0.044,0.14-0.062,0.233-0.044,0.27
					c0,0,0.108,0.404,0.466,0.078c0.002-0.002,0.004-0.006,0.007-0.008c0.145,0.108,0.292,0.213,0.442,0.315
					c0.266,0.181,0.514-0.25,0.25-0.429c-0.147-0.101-0.292-0.204-0.433-0.312c0.887-1.636,3.468-7.288,3.848-8.17
					c0.067-0.156,0.152-0.346,0.25-0.556c0.034,0.077,0.105,0.137,0.216,0.137c0.32,0,0.32-0.497,0-0.497
					c-0.018,0-0.035,0.002-0.051,0.005c0.063-0.133,0.128-0.271,0.194-0.41c0.18,0.085,0.374,0.159,0.58,0.22
					c-0.192,0.811-0.394,1.599-0.537,1.972c-0.574,1.94-1.491,4.067-1.009,4.021c0,0,0.202,0.108,0.373-0.342
					c0.089-0.235,0.703-2.213,1.267-4.183c0.017,0.004,0.034,0.006,0.053,0.006c0.29,0,0.317-0.404,0.083-0.482
					c0.084-0.3,0.167-0.596,0.245-0.882c0.056,0.011,0.112,0.021,0.169,0.028c0.024,0,0.044-0.005,0.065-0.01
					c-0.155,0.126-0.104,0.445,0.152,0.445c0.321,0,0.321-0.497,0-0.497c-0.025,0-0.047,0.004-0.068,0.01
					c0.117-0.094,0.166-0.295,0.224-0.444c0.041-0.104,0.134-0.213,0.244-0.3c-0.062,0.662-0.128,1.373-0.186,2.007
					c-0.033-0.019-0.072-0.03-0.12-0.03c-0.32,0-0.32,0.497,0,0.497c0.03,0,0.055-0.006,0.08-0.014
					c-0.05,0.573-0.086,1.047-0.095,1.302c-0.031,0.932-0.776,9.705-0.885,10.232c-0.109,0.528-0.171,1.724,0.108,1.522
					c0.159-0.115,0.298-0.869,0.403-1.667c0.015,0.003,0.031,0.005,0.047,0.005c0.316,0,0.32-0.482,0.012-0.495
					c0.05-0.436,0.088-0.848,0.112-1.135c0.078-0.916,1.103-12.127,1.118-12.577c0.125,1.289,0.792,7.329,0.932,7.484
					c0.14,0.155,0.357,0.326,0.466,0.093c0.109-0.232-0.512-1.056,0.155-1.273c0.093-0.016-0.078-4.192-1.071-7.67
					c0.202-0.311,0.683-0.497,0.761-0.28c-0.046,0.233,0.031,0.497,0.031,0.497s-0.645,1.246-0.254,1.188
					c-0.011,0.132,0.068,0.271,0.238,0.271c0.294,0,0.317-0.416,0.073-0.486c0.392-0.442,0.777-1.413,0.828-1.501
					c0.093-0.016,0.217,0.03,0.217,0.03s-0.73,1.413-0.187,1.988c0.543,0.574,1.615,1.04,3.121,0.016
					c0.357-0.249,0.046-0.481,0-0.73c-0.046-0.248,0.046-0.792,0.512-0.978c0.155-0.031,0.419,0.17,0.419,0.59
					c0,0.234-0.124,1.195,0.605,1.133c0.73-0.062,1.755-0.714,1.817-2.096c-0.187-0.684-0.295-0.435-0.714-0.528
					c-0.419-0.093-0.435-0.807-0.419-1.024c0.016-0.218-0.233-0.435-0.435,0.016s-0.373,1.614,0.202,1.614
					c0.575,0,1.006-0.483,0.901,0.031c-0.125,0.605-1.119,1.749-1.041,0.864c0.051-0.583-0.549-1.951-1.217-1.967
					s-1.702,0.854-1.469,1.988c0.093,0.419,0.233,0.651,0.233,0.651s-1.382,0.761-1.848,0.249c-0.466-0.513-0.155-0.916,0.14-1.196
					c0.093,0.155,0.559,0.141,0.559,0.141s-0.776,0.311-0.264,0.698c0.249,0.124,0.264-0.062,0.45,0.108
					c0.187,0.171,0.474-0.451,0.513-0.854c0.039-0.403,0.17-0.574,0.279-1.134c0.109-0.559,0.73-1.49,0.885-1.258
					c0.155,0.233-0.047,0.171,0.015,0.466c0.02,0.095,0.238,0.126,0.652-0.077c0.171-0.124,0.249-0.031,0.311,0.031
					c0.062,0.062,0.481,0.093,0.373-0.373c-0.031-0.202-0.264-0.574-0.264-0.574s1.237,0.245,1.641,0.013
					c0.404-0.233,0.207-0.494-0.197-0.463c0,0-1.211,0.108-1.382,0c-0.171-0.109,0.233-0.792,1.071-0.808
					c1.335,0,1.335,0,1.133-0.575C144.655,287.305,144.407,286.327,143.925,286.28 M131.195,281.935
					c0.052-0.021,0.106-0.032,0.161-0.032c0.143,0,0.267,0.075,0.315,0.193c0.033,0.078,0.029,0.166-0.009,0.249
					c-0.005,0.011-0.012,0.021-0.018,0.031c-0.171-0.117-0.35-0.247-0.539-0.39C131.133,281.967,131.162,281.948,131.195,281.935
					 M130.358,283.517c0.173,0,0.314,0.157,0.314,0.351c0,0.004-0.001,0.009-0.001,0.014c-0.204-0.043-0.407-0.086-0.609-0.129
					C130.106,283.615,130.221,283.517,130.358,283.517 M129.687,285.771c0.173,0.011,0.349,0.021,0.524,0.034
					c-0.026,0.229-0.173,0.378-0.3,0.365C129.792,286.158,129.676,285.993,129.687,285.771 M129.191,285.74
					c-0.026,0.475,0.268,0.885,0.673,0.924c0.021,0.002,0.042,0.004,0.063,0.004c0.399,0,0.735-0.355,0.781-0.827
					c0,0,0-0.001,0-0.002c1.148,0.084,2.186,0.187,2.348,0.302c-0.233,0.187-0.637,0.513-2.608,0.637
					c-0.181,0.012-0.375,0.023-0.579,0.036c-0.479-0.361-0.948-0.738-1.416-1.116C128.68,285.711,128.928,285.725,129.191,285.74
					 M131.299,287.811c-0.009-0.007-0.017-0.015-0.027-0.021c-0.159-0.1-0.316-0.203-0.472-0.308c0.73-0.025,1.273-0.029,1.387,0.01
					C132.03,287.545,131.712,287.659,131.299,287.811 M128.031,286.89c-0.292-0.378-0.632-0.813-0.919-1.276
					c0.091,0.003,0.17,0.007,0.23,0.015c0.038,0.005,0.131,0.012,0.264,0.021c0.507,0.403,1.009,0.814,1.519,1.214
					c-0.345,0.023-0.702,0.049-1.055,0.076C128.057,286.923,128.043,286.906,128.031,286.89 M129.985,287.515
					c0.241,0.175,0.484,0.346,0.732,0.509c-0.202,0.074-0.416,0.152-0.637,0.233c0.028-0.048,0.057-0.095,0.085-0.144
					c0.074-0.129,0.021-0.251-0.072-0.317c-0.039-0.051-0.101-0.081-0.188-0.071c-0.366,0.042-0.732,0.077-1.099,0.098
					c-0.071-0.078-0.141-0.157-0.209-0.237C129.063,287.56,129.539,287.535,129.985,287.515 M129.497,288.265
					c-0.032,0.053-0.063,0.106-0.095,0.159c-0.049-0.045-0.097-0.091-0.145-0.137C129.337,288.28,129.417,288.272,129.497,288.265
					 M129.522,289.166c0.054,0.042,0.109,0.083,0.165,0.123c-0.179,0.191-0.359,0.381-0.541,0.569
					c-0.039,0.018-0.078,0.035-0.116,0.053C129.198,289.665,129.361,289.416,129.522,289.166 M130.509,289.238
					c-0.022-0.012-0.045-0.024-0.067-0.037c0.17-0.188,0.339-0.377,0.504-0.569c1.092-0.402,2.014-0.779,2.374-1.017
					c0.031,0.125,0.047,0.326,0.047,0.326S132.011,288.557,130.509,289.238 M131.597,290.754L131.131,291
					c0.416-0.238,0.729-0.381,0.869-0.372c-0.044,0.07-0.158,0.21-0.314,0.392C131.654,290.934,131.625,290.846,131.597,290.754
					 M131.972,291.658c0.511-0.527,0.938-0.94,1.068-0.983c-0.061,0.313-0.256,0.729-0.771,1.457
					C132.165,291.985,132.065,291.828,131.972,291.658 M132.663,292.603c0.534-0.685,0.931-1.209,0.952-1.275
					c-0.047,0.324-0.269,0.967-0.539,1.65C132.938,292.867,132.799,292.743,132.663,292.603 M133.65,293.357
					c0.435-0.899,0.864-1.754,0.927-1.845c0,0-0.204,0.986-0.449,2.054C133.987,293.52,133.824,293.45,133.65,293.357
					 M134.636,293.609c0.006-0.023,0.012-0.047,0.019-0.07c0,0.003,0,0.006,0.001,0.008
					C134.662,293.573,134.654,293.594,134.636,293.609 M135.199,292.693c0,0-0.291,0.228-0.451,0.485
					c0.217-0.849,0.362-1.512,0.357-1.759c0.155,0.047,0.357-0.171,0.357-0.171c-0.016,0.294-0.056,0.773-0.107,1.337
					C135.307,292.618,135.255,292.652,135.199,292.693"/>
			</g>
		</g>
	</g>
	<g id="Ebene_3">
		<text transform="matrix(1 0 0 1 161.167 373.0791)" fill="#32323C" font-family="'Avenir-Medium'" font-size="14">QiTASC Training Team</text>
	</g>
</g>
<g id="License">
	<path fill="#FFFFFF" stroke="#010101" stroke-linecap="round" stroke-linejoin="round" stroke-miterlimit="10" d="M291.879,107.233
		c0,0,0.694,75.578-1.213,76.097c-1.907,0.521-122.727-1.387-122.727-1.387s-2.427-72.63-0.521-75.404
		C185.1,107.059,291.187,107.059,291.879,107.233c0.694,0.173-4.506-4.681-4.506-4.681l-111.633-0.519l-8.321,4.507"/>
	<g>
		<g>
			<defs>
				
					<rect id="SVGID_31_" x="174.118" y="157.894" transform="matrix(-0.9999 -0.0107 0.0107 -0.9999 364.1254 336.342)" width="17.683" height="18.613"/>
			</defs>
			<clipPath id="SVGID_32_">
				<use xlink:href="#SVGID_31_"  overflow="visible"/>
			</clipPath>
			<g clip-path="url(#SVGID_32_)">
				<defs>
					<path id="SVGID_33_" d="M176.703,170.931c-0.346,1.226-0.44,4.781-0.358,4.99c0.083,0.203,5.317,1.164,8.458-0.137
						c0,0,0.01-0.647,0.012-0.868c0.002-0.214-0.215-0.445-0.502-0.586c0.196,0.072,0.404-0.12,0.382-0.259
						c-0.041-0.242,0.032-0.695-0.24-0.733c-0.275-0.036,0.001-0.152,0.087-0.203c0.085-0.051-0.113-0.549-0.198-0.653
						c-0.087-0.103-0.049-0.359-0.098-0.6c-0.049-0.239-0.111-0.666-0.413-1.254c-0.204-0.393,0.006-2.151,0.615-3.238
						c-0.119-0.001-0.615,0.131-2.965-0.955c-1.071-0.472-2.202-1.716-2.202-1.716S177.228,169.073,176.703,170.931"/>
				</defs>
				<clipPath id="SVGID_34_">
					<use xlink:href="#SVGID_33_"  overflow="visible"/>
				</clipPath>
				
					<radialGradient id="SVGID_35_" cx="371.0005" cy="8" r="1.0002" gradientTransform="matrix(4.3225 6.662 6.662 -4.3225 -1479.2662 -2272.5205)" gradientUnits="userSpaceOnUse">
					<stop  offset="0" style="stop-color:#424142"/>
					<stop  offset="0.051" style="stop-color:#424142"/>
					<stop  offset="0.6084" style="stop-color:#302D2E"/>
					<stop  offset="1" style="stop-color:#252122"/>
				</radialGradient>
				<polygon clip-path="url(#SVGID_34_)" fill="url(#SVGID_35_)" points="182.351,160.814 190.519,173.402 178.821,180.992 
					170.654,168.404 				"/>
			</g>
			<g clip-path="url(#SVGID_32_)">
				<defs>
					
						<rect id="SVGID_36_" x="174.118" y="157.894" transform="matrix(-0.9999 -0.0107 0.0107 -0.9999 364.1254 336.3425)" width="17.683" height="18.613"/>
				</defs>
				<clipPath id="SVGID_37_">
					<use xlink:href="#SVGID_36_"  overflow="visible"/>
				</clipPath>
				<path clip-path="url(#SVGID_37_)" fill="#F5952F" d="M185.324,166.13c0,0-0.024,0.69-0.332,0.67
					c-0.108,0.12,0.039,0.473-0.243,0.47c-0.282-0.003,0.515,0.484-1.156,0.143c-2.594-0.737-3.931-2.179-4.53-2.842
					c0,0-0.223-0.474,0.182-0.522c0.405-0.048,0.055-0.28,0.055-0.28s-0.189-0.367,0.463-0.535
					c-0.121-0.125-0.425-0.543-0.055-0.642c0.371-0.101,0.566-0.192,0.505-0.306c0,0-0.09-0.432,0.225-0.423
					c0.678,0.54,4.522,3.254,5.443,3.899c0,0-0.214,0.03-0.319,0.241c0,0,0.007,0.13-0.115,0.129"/>
			</g>
			<g clip-path="url(#SVGID_32_)">
				<defs>
					<path id="SVGID_38_" d="M176.788,158.12c0.353,1.121,1.012,2.011,2.827,3.474c4.923,3.967,7.611,5.124,7.611,5.124
						c1.683,0.779,2.588,0.695,2.588,0.695c0.047-0.022,0.116-0.178,0.116-0.178l-13.016-9.317
						C176.88,157.966,176.874,157.981,176.788,158.12"/>
				</defs>
				<clipPath id="SVGID_39_">
					<use xlink:href="#SVGID_38_"  overflow="visible"/>
				</clipPath>
				
					<linearGradient id="SVGID_40_" gradientUnits="userSpaceOnUse" x1="371.0005" y1="8.0215" x2="372.0005" y2="8.0215" gradientTransform="matrix(6.3864 7.0596 7.0596 -6.3864 -2247.1714 -2410.2087)">
					<stop  offset="0" style="stop-color:#252122"/>
					<stop  offset="0.1807" style="stop-color:#3E3E3F"/>
					<stop  offset="0.4492" style="stop-color:#2E2C2D"/>
					<stop  offset="0.6477" style="stop-color:#231F20"/>
					<stop  offset="1" style="stop-color:#231F20"/>
				</linearGradient>
				<polygon clip-path="url(#SVGID_39_)" fill="url(#SVGID_40_)" points="184,151.394 194.684,163.204 182.718,174.029 
					172.033,162.219 				"/>
			</g>
			<g clip-path="url(#SVGID_32_)">
				<defs>
					<path id="SVGID_41_" d="M176.926,158.19c0.226,0.688,0.934,1.458,1.059,1.574c0,0,3.401,3.872,9.86,7.069
						c1.86,0.909,2.708,0.582,1.693-0.42c-1.017-1.002-4.487-4.128-9.89-7.264c-1.285-0.73-2.229-1.285-2.594-1.289
						C176.898,157.859,176.849,157.958,176.926,158.19"/>
				</defs>
				<clipPath id="SVGID_42_">
					<use xlink:href="#SVGID_41_"  overflow="visible"/>
				</clipPath>
				
					<radialGradient id="SVGID_43_" cx="371" cy="7.999" r="1.0003" gradientTransform="matrix(7.2382 7.2905 7.2905 -7.2382 -2564.4783 -2488.8838)" gradientUnits="userSpaceOnUse">
					<stop  offset="0" style="stop-color:#3E3E3F"/>
					<stop  offset="0.5748" style="stop-color:#2E2C2D"/>
					<stop  offset="1" style="stop-color:#231F20"/>
				</radialGradient>
				<polygon clip-path="url(#SVGID_42_)" fill="url(#SVGID_43_)" points="183.728,151.03 195.475,162.862 183.672,174.58 
					171.925,162.748 				"/>
			</g>
			<g clip-path="url(#SVGID_32_)">
				<defs>
					
						<rect id="SVGID_44_" x="174.118" y="157.894" transform="matrix(-0.9999 -0.0107 0.0107 -0.9999 364.1254 336.3425)" width="17.683" height="18.613"/>
				</defs>
				<clipPath id="SVGID_45_">
					<use xlink:href="#SVGID_44_"  overflow="visible"/>
				</clipPath>
				<path clip-path="url(#SVGID_45_)" d="M181.592,161.308c0,0-0.611-0.247-0.153,0.168c0.456,0.416,3.995,3.035,4.476,3.04
					c0.275,0.003-0.356-0.488-1.535-1.385C183.82,162.704,182.876,162.019,181.592,161.308"/>
			</g>
		</g>
	</g>
	<g id="Ebene_6">
		<g>
			<g>
				<path fill="#F5952F" d="M301.732,82.45c1.937,0,1.954-3.001,0.021-3.001C299.816,79.449,299.799,82.45,301.732,82.45
					L301.732,82.45z"/>
			</g>
		</g>
		<g>
			<g>
				<path fill="#F5952F" d="M295.232,105.533c1.937,0,1.954-3.001,0.021-3.001C293.316,102.532,293.299,105.533,295.232,105.533
					L295.232,105.533z"/>
			</g>
		</g>
		<g>
			<g>
				<path fill="#F5952F" d="M289.899,109.533c1.937,0,1.954-3.001,0.021-3.001C287.983,106.532,287.966,109.533,289.899,109.533
					L289.899,109.533z"/>
			</g>
		</g>
		<g>
			<g>
				<path fill="#F5952F" d="M285.232,100.2c1.937,0,1.954-3.001,0.021-3.001C283.316,97.199,283.299,100.2,285.232,100.2
					L285.232,100.2z"/>
			</g>
		</g>
		<g>
			<g>
				<path fill="#F5952F" d="M263.482,90.7c1.937,0,1.954-3.001,0.021-3.001C261.566,87.699,261.549,90.7,263.482,90.7L263.482,90.7z
					"/>
			</g>
		</g>
		<g>
			<g>
				<path fill="#F5952F" d="M171.649,109.283c1.937,0,1.954-3.001,0.021-3.001C169.733,106.282,169.716,109.283,171.649,109.283
					L171.649,109.283z"/>
			</g>
		</g>
		<g>
			<g>
				<path fill="#F5952F" d="M170.149,106.533c1.937,0,1.954-3.001,0.021-3.001C168.233,103.532,168.216,106.533,170.149,106.533
					L170.149,106.533z"/>
			</g>
		</g>
		<g>
			<g>
				<path fill="#F5952F" d="M179.899,95.533c1.937,0,1.954-3.001,0.021-3.001C177.983,92.532,177.966,95.533,179.899,95.533
					L179.899,95.533z"/>
			</g>
		</g>
		<g>
			<g>
				<path fill="#F5952F" d="M172.399,87.533c1.937,0,1.954-3.001,0.021-3.001C170.483,84.532,170.466,87.533,172.399,87.533
					L172.399,87.533z"/>
			</g>
		</g>
		<g>
			<g>
				<path fill="#F5952F" d="M158.399,119.783c1.937,0,1.954-3.001,0.021-3.001C156.483,116.782,156.466,119.783,158.399,119.783
					L158.399,119.783z"/>
			</g>
		</g>
		<g>
			<g>
				<path fill="#F5952F" d="M295.232,125.533c1.937,0,1.954-3.001,0.021-3.001C293.316,122.532,293.299,125.533,295.232,125.533
					L295.232,125.533z"/>
			</g>
		</g>
		<g>
			<g>
				<path fill="#F5952F" d="M265.232,108.2c1.937,0,1.954-3.001,0.021-3.001C263.316,105.199,263.299,108.2,265.232,108.2
					L265.232,108.2z"/>
			</g>
		</g>
		<g>
			<g>
				<path fill="#F5952F" d="M182.899,107.533c1.937,0,1.954-3.001,0.021-3.001C180.983,104.532,180.966,107.533,182.899,107.533
					L182.899,107.533z"/>
			</g>
		</g>
		<g>
			<g>
				<path fill="#F5952F" d="M189.149,99.533c1.937,0,1.954-3.001,0.021-3.001C187.233,96.532,187.216,99.533,189.149,99.533
					L189.149,99.533z"/>
			</g>
		</g>
		<g>
			<g>
				<path fill="#F5952F" d="M187.399,83.783c1.937,0,1.954-3.001,0.021-3.001C185.483,80.782,185.466,83.783,187.399,83.783
					L187.399,83.783z"/>
			</g>
		</g>
		<g>
			<g>
				<path fill="#F5952F" d="M158.899,93.533c1.937,0,1.954-3.001,0.021-3.001C156.983,90.532,156.966,93.533,158.899,93.533
					L158.899,93.533z"/>
			</g>
		</g>
	</g>
	<g id="Ebene_3_Kopie">
		<text transform="matrix(1 0 0 1 178.8262 199.6987)" fill="#32323C" font-family="'Avenir-Medium'" font-size="14">QiTASC License</text>
	</g>
</g>
<g id="Ebene_7">
	
		<polyline fill="#32323C" stroke="#32323C" stroke-width="2" stroke-linecap="round" stroke-linejoin="round" stroke-miterlimit="10" points="
		352,292.979 785.5,292.979 772.667,285.98 772.75,300.229 786.25,293.729 347.75,294.479 	"/>
	<text transform="matrix(1 0 0 1 542 328.7227)" fill="#32323C" font-family="'Avenir-Medium'" font-size="14">Training</text>
</g>
<g id="Ebene_8">
	<g id="Ebene_9">
		<path fill="none" stroke="#009BA4" stroke-width="2" stroke-linecap="round" stroke-linejoin="round" stroke-miterlimit="10" d="
			M571.265,177.991c0,0-10.281,12.787-13.304,12.787c-3.024,0-6.346,0.451-7.171-5.442c1.728,2.764,3.887,5.184,6.652,4.404
			c2.764-0.777,13.822-11.23,13.822-11.23"/>
		<path fill="none" stroke="#F5952F" stroke-width="2" stroke-linecap="round" stroke-linejoin="round" stroke-miterlimit="10" d="
			M570.574,192.763c0,0-5.961-6.565-1.123-11.057c3.9-3.622,6.912-3.975,9.417,0.346c2.505,4.319,3.11,11.318-2.593,12.094
			c-5.702,0.777-7.87-0.79-9.935-4.577c-2.063-3.788,3.456-12.182,8.38-10.11c4.925,2.074,6.739,8.554,3.716,11.922
			c-3.024,3.37-7.776,4.321-9.503,2.939"/>
		<path fill="none" stroke="#F5952F" stroke-width="2" stroke-linecap="round" stroke-linejoin="round" stroke-miterlimit="10" d="
			M578.521,180.411c0,0,0-3.715,2.852-5.185c2.851-1.468,4.925-1.123,7.086,2.161c2.157,3.283,2.504,9.244-0.521,11.403
			c-3.022,2.161-4.186,0.842-6.131-0.776c-1.949-1.618-5.426-9.435-2.594-12.269c2.938-2.936,5.185-1.812,7.172,0.434
			c1.986,2.246,6.048,9.848,3.195,11.921c-2.851,2.073-8.553,0.777-9.416-1.987"/>
		<path fill="none" stroke="#F5952F" stroke-width="2" stroke-linecap="round" stroke-linejoin="round" stroke-miterlimit="10" d="
			M589.235,173.975c0,0,0.345-2.895,3.715-4.624c3.369-1.727,5.527-1.554,7.084,0c1.555,1.556,5.27,10.073,1.296,12.595
			c-3.974,2.524-7.429,1.4-9.158-1.45c-1.728-2.852-3.239-8.056-0.482-10.348c2.755-2.291,4.543-3.647,7.049-0.539
			c2.505,3.111,4.32,7.361,3.455,9.848c-0.863,2.488-5.011,6.402-8.293,4.929c-3.284-1.473-5.355-8.125-5.183-9.593"/>
		<path fill="none" stroke="#009BA4" stroke-width="2" stroke-linecap="round" stroke-linejoin="round" stroke-miterlimit="10" d="
			M614.721,162.268c0,0-10.829,11.128-11.615,11.317c-0.785,0.189,12.479-6.306,12.997-7.602"/>
		<path fill="none" stroke="#F5952F" stroke-width="2" stroke-linecap="round" stroke-linejoin="round" stroke-miterlimit="10" d="
			M608.327,173.067c0,0,0.691,6.133-4.06,7.083c5.528-2.678,9.157-6.565,6.565-9.848"/>
		<path fill="none" stroke="#009BA4" stroke-width="2" stroke-linecap="round" stroke-linejoin="round" stroke-miterlimit="10" d="
			M568.328,194.06c0,0-2.938,2.09-9.589-3.274c4.578,3.966,8.034,5.976,9.934,3.978"/>
		
			<polyline fill="none" stroke="#F5952F" stroke-width="2" stroke-linecap="round" stroke-linejoin="round" stroke-miterlimit="10" points="
			529.884,168.316 535.032,170.302 530.143,165.378 		"/>
		<path fill="none" stroke="#F5952F" stroke-width="2" stroke-linecap="round" stroke-linejoin="round" stroke-miterlimit="10" d="
			M525.219,165.637l2.505,1.21c0,0,3.283-12.528,18.575-40.777c-2.074-0.95-3.802-1.123-3.802-1.123l4.407,2.765
			c0,0-18.229,37.752-19.266,42.937c-2.765-1.642-5.529-3.542-5.529-3.542"/>
		<path fill="none" stroke="#F5952F" stroke-width="2" stroke-linecap="round" stroke-linejoin="round" stroke-miterlimit="10" d="
			M506.73,159.59c0,0,12.44,6.825,13.477,7.516c2.506-6.135,19.006-43.714,21.167-46.565c-3.542-2.073-15.206-5.442-15.206-5.442
			l16.501,8.812c0,0-21.943,45.01-22.29,46.393c-0.345,1.383-13.65-10.108-13.65-10.108"/>
		
			<polyline fill="none" stroke="#F5952F" stroke-width="2" stroke-linecap="round" stroke-linejoin="round" stroke-miterlimit="10" points="
			553.555,150.605 558.739,151.815 555.277,148.791 		"/>
		
			<polyline fill="none" stroke="#009BA4" stroke-width="2" stroke-linecap="round" stroke-linejoin="round" stroke-miterlimit="10" points="
			602.452,124.169 598.307,124.169 618.436,171.253 624.828,166.502 619.3,167.106 600.293,125.983 603.072,124.947 		"/>
		<path fill="none" stroke="#009BA4" stroke-width="2" stroke-linecap="round" stroke-linejoin="round" stroke-miterlimit="10" d="
			M619.127,115.098l-16.675,7.603c0,0,17.193,39.567,27.991,47.084c4.32-3.11,10.28-9.848,10.28-10.455l-13.648,8.813
			c0,0-21.771-44.579-21.426-45.615C605.995,121.491,618.608,116.135,619.127,115.098"/>
		<path fill="none" stroke="#009BA4" stroke-width="2" stroke-linecap="round" stroke-linejoin="round" stroke-miterlimit="10" d="
			M578.695,132.118c0,0,2.678-3.37,3.974-3.456c1.296-0.086,17.279,0.864,17.279,0.864s-19.353-2.159-20.216-1.813
			c-0.864,0.345-2.506,1.641-2.766,2.332"/>
		<path fill="none" stroke="#009BA4" stroke-width="2" stroke-linecap="round" stroke-linejoin="round" stroke-miterlimit="10" d="
			M569.157,150.095c-4.969,2.477-24.973,12.555-29.425,16.493c-4.492,3.972-6.133,10.107-0.691,11.23
			c5.443,1.123,16.415-9.158,17.969-11.749"/>
		<path fill="none" stroke="#F5952F" stroke-width="2" stroke-linecap="round" stroke-linejoin="round" stroke-miterlimit="10" d="
			M569.451,148.1c1.382,1.728,3.986,7.257,6.91,9.331c9.837,7.083,16.242,2.246,19.007-1.037
			c-3.628-8.294-20.042-27.473-22.289-29.028c-2.246-1.555-26.954,0-26.954,0s23.499-0.173,26.263,2.765
			c4.493,5.356,22.98,26.263,22.98,26.263s-8.12,8.984-16.587,1.382c-6.047-5.702-8.504-8.236-8.504-8.236"/>
		<path fill="none" stroke="#009BA4" stroke-width="2" stroke-linecap="round" stroke-linejoin="round" stroke-miterlimit="10" d="
			M560.639,164.686c-3.974,5.703-16.76,13.305-19.179,14.168c-2.419,0.864-7.516-1.727-6.22-8.294
			c1.365-6.912,27.1-21.098,33.042-22.478"/>
		<path fill="none" stroke="#009BA4" stroke-width="2" stroke-linecap="round" stroke-linejoin="round" stroke-miterlimit="10" d="
			M565.909,173.585c0,0-13.736,11.835-16.156,11.75c-2.419-0.085-6.479-1.493-6.22-6.318c1.037,1.827-0.086,5.282,4.925,5.368
			c5.011,0.087,16.155-8.725,18.574-10.799"/>
	</g>
	
		<polyline fill="#32323C" stroke="#32323C" stroke-width="2" stroke-linecap="round" stroke-linejoin="round" stroke-miterlimit="10" points="
		354,164.997 443.75,164.247 432.25,157.747 433,170.997 444.5,164.997 350.5,166.997 	"/>
	
		<polyline fill="#32323C" stroke="#32323C" stroke-width="2" stroke-linecap="round" stroke-linejoin="round" stroke-miterlimit="10" points="
		681,164.664 770.75,163.914 759.25,157.414 760,170.664 771.5,164.664 677.5,166.664 	"/>
	<text transform="matrix(1 0 0 1 667.3223 196.7441)" fill="#32323C" font-family="'Avenir-Medium'" font-size="14">Sales &amp; Marketing</text>
	<text transform="matrix(1 0 0 1 489.2236 94.6802)" fill="#32323C" font-family="'Avenir-Medium'" font-size="14">QiTASC Business Partner</text>
</g>
<g id="Ebene_15">
	<g id="Banking__x26__Insurance">
		<text transform="matrix(1 0 0 1 835.4814 155.4399)" fill="#32323C" font-family="'Avenir-Medium'" font-size="14">Banking &amp; Insurance Sector</text>
		<path fill="#FFFFFF" d="M971.893,135.98c0,0,2.283,0.36,2.938-0.246c3.446-3.551,10.281-8.286,9.199-9.007
			c-1.53-1.02-8.225,0.309-8.225,0.309l6.661-6.678c0,0-16.342-0.121-1.32-4.566c-3.49-0.443-6.826-1.546-4.447-2.524
			c2.381-0.977,5.288-0.601,5.288-0.601s-4.684-3.715-7.21-5.889c-2.75,0.505-5.167,0.722-5.167,0.722l-1.443-2.644
			c0,0-20.061,4.886-95.859,22.926l-10.574,2.752l12.192-0.449C873.926,130.085,971.188,133.052,971.893,135.98z"/>
		<g id="Ebene_14">
			<path fill="none" stroke="#000000" stroke-linecap="round" stroke-linejoin="round" stroke-miterlimit="10" d="M969.25,107.259
				c-0.656-0.799-0.604-0.482-1.202-2.884c-11.657,5.288-95.625,23.438-95.625,23.438s0.878,1.357,0.135,2.276
				c-5.924,0.272-13.216,0.547-12.859,0.147c0.357-0.402,12.725-2.423,12.725-2.423s2.627,1.556,0.688,2.279
				c-1.937,0.722-15.341,0.371-15.341,0.371s8.712-1.7,14.38-2.414"/>
			<path fill="none" stroke="#000000" stroke-linecap="round" stroke-linejoin="round" stroke-miterlimit="10" d="M887.175,126.186
				c0,0,86.162-19.662,87.122-19.528c0.959,0.134,3.861,4.977,7.69,6.009c-4.565,0.12-32.206,4.206-54.865,7.976"/>
			<path fill="none" stroke="#000000" stroke-linecap="round" stroke-linejoin="round" stroke-miterlimit="10" d="M975.858,113.628
				c0,0-0.48,2.403,5.648,2.284c-1.884,0.985-15.517,3.57,0.96,4.446c0,0-8.919,5.821-8.139,12.627
				c0.275,0.821,1.86-1.366,4.36-4.177c3.66-4.484,5.582-1.239,5.582-1.239s-12.379,6.729-12.257,8.051
				c0.026,1.75,6.965-2.377,8.651-5.407"/>
			<path fill="none" stroke="#000000" stroke-linecap="round" stroke-linejoin="round" stroke-miterlimit="10" d="M873.105,130.362
				c0,0,9.027,0.571,16.229,0.932c7.211,0.361,65.854,2.764,82.558,4.687"/>
			<path fill="none" stroke="#000000" stroke-linecap="round" stroke-linejoin="round" stroke-miterlimit="10" d="M974.328,132.985
				c0,0-48.733-5.286-74.404-4.236"/>
			
				<line fill="none" stroke="#000000" stroke-linecap="round" stroke-linejoin="round" stroke-miterlimit="10" x1="982.316" y1="126.425" x2="976.699" y2="126.847"/>
			<path fill="none" stroke="#000000" stroke-linecap="round" stroke-linejoin="round" stroke-miterlimit="10" d="M979.463,122.761
				c0,0,20.486,0.934,22.953,0.48c2.465-0.454,11.677,0.257,7.812-9.974c-3.421-6.445-12.979-1.683-12.979-1.683
				s-0.658,1.175,1.562,0.961c1.342-0.129,5.993-1.166,7.57-0.721c4.688,1.322,7.729,6.672,3.579,9.911
				c-5.539,4.747-26.17,3.067-31.818,2.827"/>
		</g>
		<g id="Ebene_13">
			<path fill="#FFFFFF" d="M923.819,137.872c0,0,15.723,3.21,22.587-1.661c2.878-0.11,4.207-0.664,4.759-2.546
				c0.555-1.882,1.33-9.301,2.326-11.958c-0.886-5.978-3.764-19.708-8.967-25.686c-0.665-2.768-0.997-6.311,0.442-8.304
				c-1.44-0.554-3.544-0.996-5.646,0.886c-0.996-0.997-2.99-2.879-5.869,0.11c-1.882-0.553-5.314-1.107-5.314,2.104
				c0,3.21-1.881,6.532-1.881,6.532l-10.298,22.365C915.958,119.714,909.87,137.318,923.819,137.872z"/>
		</g>
		<g id="Ebene_12">
			<path fill="none" stroke="#000000" stroke-linecap="round" stroke-linejoin="round" stroke-miterlimit="10" d="M939.652,88.16
				c3.101-1.55,5.092-1.108,4.982-0.332c-2.104,4.207-0.555,6.199,0.222,8.414c6.642,10.407,6.199,15.722,7.528,19.818
				s1.106,6.532-0.111,9.079c-0.221,2.546-0.885,9.189-1.771,10.075c-0.886,0.885-4.208,1.107-4.208,1.107"/>
			<path fill="none" stroke="#000000" stroke-linecap="round" stroke-linejoin="round" stroke-miterlimit="10" d="M941.312,99.563
				c0,0-2.546-1.66-2.436-3.653"/>
			<path fill="none" stroke="#000000" stroke-linecap="round" stroke-linejoin="round" stroke-miterlimit="10" d="M938.877,92.81
				c0,0,0.332-3.432-0.222-4.981c-0.553-1.551-4.539-0.886-5.093,0.442c-0.553,1.329-2.214,9.079-0.443,10.739
				c1.772,1.661,0.334,8.968-0.442,8.083c-0.775-0.885-1.367-14.514-0.331-18.268c-1.884-1.108-4.099-0.554-3.876,1.107"/>
			<path fill="none" stroke="#000000" stroke-linecap="round" stroke-linejoin="round" stroke-miterlimit="10" d="M928.58,92.146
				c0,0-2.214,26.683-2.656,27.901"/>
			<path fill="none" stroke="#000000" stroke-linecap="round" stroke-linejoin="round" stroke-miterlimit="10" d="M939.652,101.224
				c0,0,6.311,13.729,6.532,17.493c1.107,1.218,1.218-1.329,1.218-1.329s-3.653-9.079-5.425-12.179"/>
			<path fill="none" stroke="#000000" stroke-linecap="round" stroke-linejoin="round" stroke-miterlimit="10" d="M946.849,133.221
				c0,0,0.554,3.101-2.324,4.429c-2.879,1.329-13.62,1.328-19.044,0.554c-5.425-0.775-9.409,0.221-12.068-0.554
				c-2.656-0.775,1.218-16.275,3.101-18.601c0,0,6.863-17.161,8.636-19.818c1.772-2.657,2.324-5.757,1.992-6.975"/>
			<path fill="none" stroke="#009BA4" stroke-linecap="round" stroke-linejoin="round" stroke-miterlimit="10" d="M936.772,93.695
				c0,0,4.098-0.554,4.763,0.332c-0.223,0.443-4.651,0.222-4.983,0.997c2.547,0,4.984,0.111,5.094,0.554"/>
			<path fill="none" stroke="#009BA4" stroke-linecap="round" stroke-linejoin="round" stroke-miterlimit="10" d="M928.691,91.37
				c0,0,0.997-0.775-4.429-1.661c-5.425-0.885-8.305-2.989-5.979-2.768c2.326,0.221,6.755,3.1,6.755,3.1l-7.64-2.104l0.222,1.218
				c0,0,1.55,1.661,7.86,1.993c0.775,0.333,3.765,0.886,2.104,0.111c-1.66-0.775-7.64-1.107-9.41-2.547"/>
			<path fill="none" stroke="#009BA4" stroke-linecap="round" stroke-linejoin="round" stroke-miterlimit="10" d="M926.587,92.035
				c0,0-6.421,7.418-7.417,8.304s-1.66,5.314,1.882,6.311c-0.109,0.665-0.223,0.775-1.438,0.111
				c-1.219-0.664-3.655-4.207-0.887-7.417s7.087-6.976,9.41-7.529c-0.22-2.657-1.55-9.964-13.174-17.936
				c-0.332,0.554,0.443,1.439,0.443,1.439s10.074,6.753,11.515,15.389"/>
		</g>
		<path fill="#FFFFFF" d="M923.945,138.984l-0.121-3.846l1.923-0.721c0,0,0.239-6.489-0.962-7.69c-0.601,0.36-2.163,0.24-2.163,0.24
			l-0.479-3.125l0.841-0.842l0.119-1.562l2.765-1.082l0.12-1.682l-26.197,0.36l0.24,3.004l-3.124-0.12v2.043l-0.241,2.764
			l3.966,0.48l-0.119,2.043l-0.603,2.523l-1.201,0.6l0.241,3.005l-2.284-0.841l-0.24,2.043l1.682,0.481v2.644
			C898.106,139.706,910.126,142.35,923.945,138.984z"/>
		<g id="Ebene_11">
			<path fill="none" stroke="#000000" stroke-linecap="round" stroke-linejoin="round" stroke-miterlimit="10" d="M898.032,137.376
				l-0.045,2.298c0,0,16.268,2.659,25.957-0.811c0-1.262-0.182-2.523-0.182-2.523s-7.93,3.425-27.398,0.36l0.091-2.253
				c0,0,0.767,0.135,2.658,0.316"/>
			<path fill="none" stroke="#000000" stroke-linecap="round" stroke-linejoin="round" stroke-miterlimit="10" d="M899.069,131.969
				l-0.092,3.02c0,0,14.061,2.027,26.589-0.677c-0.045-0.946-0.181-2.433-0.181-2.433s-13.475,2.613-25.687,0.18v-2.524
				c0,0,9.689,2.434,26.183-0.18c0.091,1.082-0.045,2.524-0.045,2.524"/>
			<path fill="none" stroke="#000000" stroke-linecap="round" stroke-linejoin="round" stroke-miterlimit="10" d="M925.341,128.859
				l-0.18-2.298c0,0-1.082,0.226-2.659,0.045c-12.123,2.027-26.093,0-26.093,0l-0.045-2.569l0.811-0.135l-0.135-2.163
				c0,0,17.711,1.037,25.823-0.406c0.18,0.856,0,1.983,0,1.983s-9.599,2.434-24.741,0.767l0.045,2.568"/>
			
				<line fill="none" stroke="#000000" stroke-linecap="round" stroke-linejoin="round" stroke-miterlimit="10" x1="922.276" y1="126.291" x2="922.187" y2="123.902"/>
			
				<line fill="none" stroke="#000000" stroke-linecap="round" stroke-linejoin="round" stroke-miterlimit="10" x1="900.42" y1="129.13" x2="900.376" y2="127.417"/>
			<path fill="none" stroke="#000000" stroke-linecap="round" stroke-linejoin="round" stroke-miterlimit="10" d="M900.149,121.378
				l-0.089-2.298c0,0,17.71,1.037,26.228-0.451c0.045,0.766,0.135,2.119,0.135,2.119s-1.758,0.585-3.56,0.585"/>
			<path fill="none" stroke="#000000" stroke-linecap="round" stroke-linejoin="round" stroke-miterlimit="10" d="M926.106,118.359
				c0,0-18.881-0.992-26.046,0.721"/>
			
				<line fill="none" stroke="#000000" stroke-linecap="round" stroke-linejoin="round" stroke-miterlimit="10" x1="902.133" y1="119.666" x2="902.087" y2="121.199"/>
			
				<line fill="none" stroke="#000000" stroke-linecap="round" stroke-linejoin="round" stroke-miterlimit="10" x1="903.801" y1="119.847" x2="903.845" y2="121.469"/>
			
				<line fill="none" stroke="#000000" stroke-linecap="round" stroke-linejoin="round" stroke-miterlimit="10" x1="921.286" y1="122.1" x2="921.33" y2="123.362"/>
			
				<line fill="none" stroke="#000000" stroke-linecap="round" stroke-linejoin="round" stroke-miterlimit="10" x1="919.528" y1="122.325" x2="919.573" y2="123.497"/>
			
				<line fill="none" stroke="#000000" stroke-linecap="round" stroke-linejoin="round" stroke-miterlimit="10" x1="923.313" y1="127.103" x2="923.313" y2="129.265"/>
			
				<line fill="none" stroke="#000000" stroke-linecap="round" stroke-linejoin="round" stroke-miterlimit="10" x1="923.81" y1="132.6" x2="923.944" y2="134.312"/>
			
				<line fill="none" stroke="#000000" stroke-linecap="round" stroke-linejoin="round" stroke-miterlimit="10" x1="922.097" y1="132.87" x2="922.052" y2="134.763"/>
			
				<line fill="none" stroke="#000000" stroke-linecap="round" stroke-linejoin="round" stroke-miterlimit="10" x1="900.916" y1="132.78" x2="900.781" y2="134.763"/>
			
				<line fill="none" stroke="#000000" stroke-linecap="round" stroke-linejoin="round" stroke-miterlimit="10" x1="898.527" y1="135.214" x2="898.392" y2="136.565"/>
			
				<line fill="none" stroke="#000000" stroke-linecap="round" stroke-linejoin="round" stroke-miterlimit="10" x1="900.149" y1="135.754" x2="900.149" y2="136.881"/>
			
				<line fill="none" stroke="#000000" stroke-linecap="round" stroke-linejoin="round" stroke-miterlimit="10" x1="899.835" y1="137.737" x2="899.699" y2="139.9"/>
		</g>
	</g>
	<g id="IT__x26__Telecom">
		<text transform="matrix(1 0 0 1 858.1758 283.5166)" fill="#32323C" font-family="'Avenir-Medium'" font-size="14">IT &amp; Telecom Sector</text>
		<g id="Ebene_20">
			<path fill="none" stroke="#000000" stroke-linecap="round" stroke-linejoin="round" stroke-miterlimit="10" d="M925.953,183.773
				c0.343,33.876-6.18,70.266-6.18,70.266s-1.373,0.571-1.144,0.229c0.229-0.344,7.552-37.076,6.865-70.837"/>
			<path fill="none" stroke="#000000" stroke-linecap="round" stroke-linejoin="round" stroke-miterlimit="10" d="M927.326,182.858
				c-0.114,1.259,3.09,73.813,3.09,73.813s0.572,0.229,1.029,0.229c0.458,0-4.233-73.469-3.891-74.728"/>
			<path fill="none" stroke="#000000" stroke-linecap="round" stroke-linejoin="round" stroke-miterlimit="10" d="M928.471,183.316
				c5.722,49.209,10.756,70.151,10.756,70.151l1.03-0.114c0,0-4.005-13.847-11.329-69.922"/>
			<path fill="none" stroke="#000000" stroke-linecap="round" stroke-linejoin="round" stroke-miterlimit="10" d="M920.117,253.581
				c0,0,9.269-0.229,10.185,0.801c2.06-0.572,6.865-2.06,8.696-1.831"/>
			<path fill="none" stroke="#000000" stroke-linecap="round" stroke-linejoin="round" stroke-miterlimit="10" d="M921.146,248.088
				c0,0,3.776,0.458,9.27,1.145c2.86-0.687,5.149-1.602,7.323-1.945"/>
			<path fill="none" stroke="#000000" stroke-linecap="round" stroke-linejoin="round" stroke-miterlimit="10" d="M921.948,241.795
				c0,0,4.577-0.229,8.238,0.343c3.319-0.458,5.493-1.602,6.522-0.801"/>
			<path fill="none" stroke="#000000" stroke-linecap="round" stroke-linejoin="round" stroke-miterlimit="10" d="M922.749,235.387
				c0,0,5.836-0.344,6.866,0.457c1.83-0.343,5.378-1.258,6.179-0.687"/>
			<path fill="none" stroke="#000000" stroke-linecap="round" stroke-linejoin="round" stroke-miterlimit="10" d="M923.321,230.123
				c0,0,3.891-0.115,5.836,0.457c1.716-0.229,4.463-0.801,5.606-0.114"/>
			<path fill="none" stroke="#000000" stroke-linecap="round" stroke-linejoin="round" stroke-miterlimit="10" d="M923.894,224.858
				c0,0,3.204-0.229,5.378,0.229c2.06-0.114,4.119-0.687,4.691-0.229"/>
			<path fill="none" stroke="#000000" stroke-linecap="round" stroke-linejoin="round" stroke-miterlimit="10" d="M924.466,220.053
				c0,0,3.433-0.572,4.462-0.114c1.831,0.114,3.319-0.229,4.349,0.458"/>
			<path fill="none" stroke="#000000" stroke-linecap="round" stroke-linejoin="round" stroke-miterlimit="10" d="M924.923,214.787
				c0,0,3.548-0.916,4.12-0.687c0.572,0.229,3.318,0.457,3.318,0.457"/>
			<polyline fill="none" stroke="#000000" stroke-linecap="round" stroke-linejoin="round" stroke-miterlimit="10" points="
				924.923,210.093 928.471,209.521 931.675,209.864 			"/>
			<polyline fill="none" stroke="#000000" stroke-linecap="round" stroke-linejoin="round" stroke-miterlimit="10" points="
				925.609,205.401 928.013,204.943 931.103,205.516 			"/>
			<polyline fill="none" stroke="#000000" stroke-linecap="round" stroke-linejoin="round" stroke-miterlimit="10" points="
				925.495,201.968 927.898,201.167 930.645,201.739 			"/>
			<path fill="none" stroke="#000000" stroke-linecap="round" stroke-linejoin="round" stroke-miterlimit="10" d="M925.725,198.306
				l2.288-0.572h2.174l-2.06-2.06l-2.06-0.343l1.831-1.831l1.487-0.572l-1.831-2.06l-1.83-0.114l1.83-2.403l1.603-0.458
				l-1.487-1.488l-1.488-0.687l1.373-1.488l1.145-0.343c0,0,1.259-1.945-0.801-2.174c-2.06-0.229-4.005,1.831-2.174,2.174
				c1.83,0.343,4.119-0.687,2.517-1.259c-1.602-0.572-3.547,0.916-1.602,0.343"/>
			<path fill="none" stroke="#000000" stroke-linecap="round" stroke-linejoin="round" stroke-miterlimit="10" d="M926.525,181.539
				c0,0,0.572-9.203,0.114-12.534c0.687,5.609,0.801,10.868,1.259,12.709"/>
			<path fill="none" stroke="#000000" stroke-linecap="round" stroke-linejoin="round" stroke-miterlimit="10" d="M933.5,166.505
				c0,0,2.25,3.5,0,7"/>
			<path fill="none" stroke="#000000" stroke-linecap="round" stroke-linejoin="round" stroke-miterlimit="10" d="M920.749,167.255
				c0,0-2.249,4.25,1,6.75"/>
			<path fill="none" stroke="#000000" stroke-linecap="round" stroke-linejoin="round" stroke-miterlimit="10" d="M936.75,165.755
				c0,0,3.25,4,0,8.5"/>
			<path fill="none" stroke="#000000" stroke-linecap="round" stroke-linejoin="round" stroke-miterlimit="10" d="M918.25,166.505
				c0,0-2.749,6,0.5,8.5"/>
		</g>
		<g id="Ebene_19">
			<path fill="#FFFFFF" d="M918.787,264.749c0,0,4.656-24.157,4.758-32.314c-0.346-0.607,0.333-1.92-13.129-1.236
				c-2.994,15.918-4.903,31.622-4.903,31.622S915.665,264.913,918.787,264.749z"/>
			<path fill="none" stroke="#000000" stroke-linecap="round" stroke-linejoin="round" stroke-miterlimit="10" d="M924.188,231.606
				c0.041,0.78-4.143,30.512-5.29,32.957c-1.438,1.062-13.212-1.438-13.571-1.854c-0.358-0.414,4.771-31.146,5.275-31.401
				c0.504-0.256,11.812-0.705,12.33,0.207c0.517,0.912-4.814,33.089-4.814,33.089"/>
			<polygon fill="none" stroke="#009BA4" stroke-linecap="round" stroke-linejoin="round" stroke-miterlimit="10" points="
				911.25,233.839 921.438,234.526 917.438,256.216 907.438,255.091 			"/>
			
				<line fill="none" stroke="#000000" stroke-linecap="round" stroke-linejoin="round" stroke-miterlimit="10" x1="910.688" y1="258.153" x2="914.188" y2="258.528"/>
			<polyline fill="none" stroke="#009BA4" stroke-linecap="round" stroke-linejoin="round" stroke-miterlimit="10" points="
				911.75,233.464 907.312,256.466 918.125,257.216 921.062,234.089 911.625,234.276 			"/>
		</g>
		<g id="Ebene_17">
			<path fill="#FFFFFF" d="M964.551,268.044l39.749-12.27l0.084-0.588l-25.882-7.144l-7.984-27.312c0,0-40.607-0.11-40.505,1.43
				c0.168,2.521,8.824,35.294,8.824,35.294S951.693,263.927,964.551,268.044z"/>
			<path fill="none" stroke="#000000" stroke-linecap="round" stroke-linejoin="round" stroke-miterlimit="10" d="M938.839,256.451
				c0,0,24.033,10.42,25.378,10.336s40.002-12.018,40.002-12.018s-21.346-6.135-25.8-6.891c0,0-40.421,7.227-40.168,8.823
				c0.251,1.598,24.117,10.589,25.966,10.841c3.026-0.756,38.993-11.514,40.002-12.27"/>
			<path fill="none" stroke="#000000" stroke-linecap="round" stroke-linejoin="round" stroke-miterlimit="10" d="M978.083,247.711
				c-0.252-1.766-6.555-24.454-7.815-27.396c-1.512-0.252-39.832,0.672-40.421,1.345c-0.589,0.672,8.404,35.043,8.404,35.043
				l0.251-0.504c0,0-8.571-32.941-8.235-34.203"/>
			<polygon fill="none" stroke="#000000" stroke-linecap="round" stroke-linejoin="round" stroke-miterlimit="10" points="
				980.017,255.946 969.26,258.635 977.579,261.492 988.252,258.131 			"/>
			
				<line fill="none" stroke="#000000" stroke-linecap="round" stroke-linejoin="round" stroke-miterlimit="10" x1="944.553" y1="257.123" x2="979.417" y2="249.528"/>
			
				<line fill="none" stroke="#000000" stroke-linecap="round" stroke-linejoin="round" stroke-miterlimit="10" x1="947.336" y1="258.468" x2="982.333" y2="250.278"/>
			
				<line fill="none" stroke="#000000" stroke-linecap="round" stroke-linejoin="round" stroke-miterlimit="10" x1="950.936" y1="259.475" x2="985.5" y2="251.278"/>
			
				<line fill="none" stroke="#000000" stroke-linecap="round" stroke-linejoin="round" stroke-miterlimit="10" x1="953.964" y1="260.904" x2="989.167" y2="251.945"/>
			<path fill="none" stroke="#009BA4" stroke-linecap="round" stroke-linejoin="round" stroke-miterlimit="10" d="M939.763,252.248
				l36.136-6.722l-6.723-22.942c0,0-35.801,1.429-36.052,1.849C932.871,224.853,939.763,252.248,939.763,252.248z"/>
			<polyline fill="none" stroke="#009BA4" stroke-linecap="round" stroke-linejoin="round" stroke-miterlimit="10" points="
				933.75,225.21 940.375,252.153 974.625,244.591 968.375,221.958 932.312,223.834 			"/>
		</g>
	</g>
	<g id="e-commerce">
		<text transform="matrix(1 0 0 1 860.752 372.5703)" fill="#32323C" font-family="'Avenir-Medium'" font-size="14">e-commerce Sector</text>
		<g id="Ebene_23">
			<path fill="none" stroke="#000000" stroke-linecap="round" stroke-linejoin="round" stroke-miterlimit="10" d="M906.834,304.426
				c0,0,5.083,25.917,5.833,25.917s30.5,0.333,30.5,0.333l11.917-2.583l1.25-17.584l-14.083,2.5L906.834,304.426l18.25-2.167
				l31.25,8.25"/>
			<path fill="none" stroke="#000000" stroke-linecap="round" stroke-linejoin="round" stroke-miterlimit="10" d="M924.834,301.676
				c0,0,1.251-0.249-2.083-2.083c-6.917,0.583-19.584,1.583-19.584,1.583s-2.166-1.001-0.166-1.167s19.166-1.666,19.166-1.666"/>
			<path fill="none" stroke="#000000" stroke-linecap="round" stroke-linejoin="round" stroke-miterlimit="10" d="M903.167,301.176
				c-2.083-0.5,3.917,1.416,3.917,3.333"/>
			<path fill="none" stroke="#000000" stroke-linecap="round" stroke-linejoin="round" stroke-miterlimit="10" d="M909.001,348.343
				c0,0-5.249-0.251-1.666,4.916c1,1.25,4.167-0.249,3.25-2.916s-4.834-1.668-4.917,0.916s3.751,3.997,5.333,0.834
				c1.25-2.5-3.584-5.25-3.084-3.167c0.166,0.667,2.165-0.677,3.584-2.5c1.167-1.5,14.5-15.833,16-15.417
				c2.565,0.712,19.999,16.918,20.416,19.084s-0.583,2.666-0.583,2.666s-1.749-2-3.083,0.417s0.916,6.417,4.166,4
				c0,0,2.833-3.416-1.5-5.333c0,0-4.499-1.084-2.166,3.916s5.416,0.667,4.416-1.5s-1.5-3-1.5-3s3.667,1.084-0.583-3.5
				c-3.752-4.047-20.074-17.974-21.333-17c-2.584,2-17.666,17.5-17.666,17.5"/>
			<path fill="none" stroke="#000000" stroke-linecap="round" stroke-linejoin="round" stroke-miterlimit="10" d="M921.917,343.593
				c0,0,4.667,2.5,2.167,4.75s-5.583-2.666-3.333-3.75s2.832-1.916,3.416,2s-5,2.916-4.5,0.916c0,0-0.25-4.084,2.75-3.25
				c1.084,0.334,0.417,0.834-0.333,0.584s1.334-13.417,4.75-14.417c-0.667,0.917-3.25,8.249-4.417,13.333"/>
			<polyline fill="none" stroke="#000000" stroke-linecap="round" stroke-linejoin="round" stroke-miterlimit="10" points="
				909,305.635 914.625,330.26 912.5,306.385 918.375,330.135 916.5,307.135 921.625,330.135 920.375,307.76 925.875,330.01 
				924.25,308.51 929,330.76 928.75,310.135 932,330.385 931.625,310.76 935.375,330.51 934.625,311.51 938,330.385 938.375,312.76 
				941.125,330.385 942.251,313.009 943.084,330.176 			"/>
			<polyline fill="none" stroke="#000000" stroke-linecap="round" stroke-linejoin="round" stroke-miterlimit="10" points="
				942.625,313.135 945.625,329.885 945.625,313.135 948.375,329.135 			"/>
			<polyline fill="none" stroke="#000000" stroke-linecap="round" stroke-linejoin="round" stroke-miterlimit="10" points="
				954.375,315.385 952.875,311.135 952.5,313.885 			"/>
			<path fill="none" stroke="#000000" stroke-linecap="round" stroke-linejoin="round" stroke-miterlimit="10" d="M925.25,303.135
				c0,0,4.5,21,4.5,22.875l19.5,1.375"/>
			
				<line fill="none" stroke="#000000" stroke-linecap="round" stroke-linejoin="round" stroke-miterlimit="10" x1="913.25" y1="330.26" x2="929.75" y2="326.01"/>
		</g>
		<g id="Ebene_22">
			<polyline fill="#FFFFFF" stroke="#000000" stroke-linecap="round" stroke-linejoin="round" stroke-miterlimit="10" points="
				962.875,351.903 972,347.278 962.059,333.379 971.325,331.182 946.864,309.733 950.444,343.469 955.805,336.58 964.448,351.912 
				970.405,347.147 964.25,333.778 973.75,331.278 945.5,306.903 949.5,344.903 955.75,338.778 962.875,351.903 			"/>
			<path fill="#FFFFFF" stroke="#009BA4" stroke-linecap="round" stroke-linejoin="round" stroke-miterlimit="10" d="
				M952.501,337.528l-2.834-22.333l15.667,15.333c0,0-5.179,1.089-5.379,1.69c-0.201,0.602,7.286,14.106,7.286,14.106l-2.74,1.036
				l-7.972-14.103l-5.111,6.866l-2.586-26.878l19.185,17.375l-8.747,1.403l9.564,14.836l-4.719,2.068l-8.111-15.962l-4.17,4.394"/>
		</g>
	</g>
	<text transform="matrix(1 0 0 1 853.9131 56.709)" fill="#32323C" font-family="'Avenir-Medium'" font-size="14">Local Market Projects</text>
</g>
</svg>
