<?xml version="1.0" encoding="utf-8"?>
<!-- Generator: Adobe Illustrator 16.0.0, SVG Export Plug-In . SVG Version: 6.00 Build 0)  -->
<!DOCTYPE svg PUBLIC "-//W3C//DTD SVG 1.1//EN" "http://www.w3.org/Graphics/SVG/1.1/DTD/svg11.dtd">
<svg version="1.1" xmlns="http://www.w3.org/2000/svg" xmlns:xlink="http://www.w3.org/1999/xlink" x="0px" y="0px" width="297.5px"
	 height="428px" viewBox="0 0 297.5 428" enable-background="new 0 0 297.5 428" xml:space="preserve">
<g id="Ebene_1" display="none">
	<g id="m3xDCx_1_" display="inline">
		
			<image overflow="visible" width="735" height="735" id="m3xDCx_2_" xlink:href="EC57C34D916EEA5B.jpg"  transform="matrix(0.6558 0 0 0.6558 -146.5 -4)">
		</image>
	</g>
	<g id="fdkcWr.tif" opacity="0.6">
		
			<image display="inline" overflow="visible" width="308" height="329" id="Layer_0_1_" xlink:href="EC57C34D916EEA59.png"  transform="matrix(1.2046 0 0 1.2046 -46.5 -28)">
		</image>
	</g>
</g>
<g id="Ebene_9">
	<path fill="none" stroke="#3F3C3C" stroke-width="2" stroke-linecap="round" stroke-linejoin="round" stroke-miterlimit="10" d="
		M79.167,268.666c-2.667-0.167-5,1.667-8,3.5c-6.833,1.5-7.833,2.834-7.833,2.834c-3.167,0.834-2.167,2.333-4,2.666s-2,1.334-5,3.5
		c-6.167,1.833-7.667,7.167-10.833,13c-3.167,3.666-5,10.834-5,10.834c-1.333,3.5,0,2.666,2.5,5.333s3.167,2.333,6.667,1
		s5.333-2.833,8.833-5.5s9.833-6.667,10.5-11.333c0,0-9.833-0.667-10.833-1.167S55,287.999,53.5,290.166s-5.667,5.001-5.667,6.334
		s-1.334,3.832-2.667,5.166s-5.5,3.167-4.667,5.167s6.333,4.001,7.667,2.167s-0.333-3.168,2-4.334"/>
	<path fill="none" stroke="#3F3C3C" stroke-width="2" stroke-linecap="round" stroke-linejoin="round" stroke-miterlimit="10" d="
		M81.833,259.5c0,0-2.833-2.334-1,4.333c-1.167,0.833-2,4.001-1.5,7.167c-0.333,1.333-1,2.666-0.5,4.833s0.333,4.166-2.5,0.333
		s-4.667,0-4.833,1.5S67.833,279,67.833,279s-3.5,1-3.5,1.5s-0.667,0.832-4.333,2.166"/>
	<g id="Ebene_10">
		<path stroke="#000000" stroke-width="2" stroke-linecap="round" stroke-linejoin="round" stroke-miterlimit="10" d="M93,296
			c0,0,8,73.834,11,81.5c34.833-1.834,83.167-9.833,90.5-8c0,0-2.5-61,0-65.834C176.5,305,139.5,299.5,93,296z"/>
		<path fill="#F5952F" d="M102.5,377c0,0-5.333,2.501-3.5,6.167c0.667,4.5,0.833,7,1.833,8.5c-0.5,2.333-3.5,4.999,0.167,6.666
			c0.833,2.334-5.5,4.5-1,6.5c-0.833,3-1.667,6.834,0.167,7.834c0,0,46.167,8.832,103.833-0.501c0,0,4.5-0.334,1-5
			s-1.001-4.667-3.167-7c1.334-2.333,0-3.832-1.5-6.166c2-4.5,4.334-6.5-0.833-11.167c0.667-3.5,0.666-5.667-2.167-7.167
			c0.167-2.5-0.666-5.999-2.833-6.166s-47.5,2.832-65.333,5.166C111.333,377,102.5,377,102.5,377z"/>
		<path stroke="#000000" stroke-width="2" stroke-linecap="round" stroke-linejoin="round" stroke-miterlimit="10" d="M23,409.166
			c0,0,9.667,9.334,46.333,11.334s165.833-0.001,177.5-6.334S255,408.834,255.5,408c-5.667-0.334-30.999-0.5-53.333,3.333
			s-70.5,5.334-82.833,4.167S37.167,404.166,23,409.166z"/>
	</g>
	<path fill="none" stroke="#009BA4" stroke-width="2" stroke-linecap="round" stroke-linejoin="round" stroke-miterlimit="10" d="
		M209.667,305.166c0,0-4.676-1.153-12.167-4.667c-13.5-6.333-62.167-17.833-98-18.5c-29.164-0.543-40.833,3-40,10.667
		c-3.833-1.666-3.5-4-2.167-5.667c0,0,5.833-7.5,29-7.333c28.5-0.667,48.667,0.834,63.5,3.5"/>
	<path fill="none" stroke="#3F3C3C" stroke-width="2" stroke-linecap="round" stroke-linejoin="round" stroke-miterlimit="10" d="
		M210.833,256.333c0,0,3.5,5,3.834,10.833c2.5,2.667,0,4,3.5,12.167c4,3.5,6.5,8,6.5,11.833c0.834,2.166,1.334,5,4,6.5
		s18.166,10.333,16.5,14.833c1.834,1.667,1.999,5.501,0.166,8.834c1,2.833-1.833,5.167-5,5c-2.5,1-5.667-3.167-7.5-5.5
		c-6.333-1.667-7.5-2.666-9-5.333c-5-4-6.833-6.001-10.333-8.334s-11.333-8.834-15.833-12.5c-10.667-3.833-33.5-5.999-35-9.166
		c-14-2.667-16.667-3.5-16.167-4.5c-7.5,1-18.333-1.667-20.167-4.167c-4.5-0.667-6.833-0.833-6.833-0.833s-3,2.834-11.333,2.5
		s-16.75-0.084-19.917,0.25c0,0-5,0.5-4.75-1s-2,0-2,0"/>
	<path fill="none" stroke="#3F3C3C" stroke-width="2" stroke-linecap="round" stroke-linejoin="round" stroke-miterlimit="10" d="
		M238.333,315.333c0,0-4.834,0.333-5-1.667s-0.167-3.332-3-3.166s-1.833,1-4.333-1.167s-5.166-4.499-6.333-4.333
		s-0.5-2.668-2.667-2.334s-4.333-1-7.833-4s-3.667-3.167-6.167-3s-5.333-1-5.333-1"/>
	<path fill="none" stroke="#009BA4" stroke-width="2" stroke-linecap="round" stroke-linejoin="round" stroke-miterlimit="10" d="
		M59.5,292.666c0,0,18,1.5,26.167,1.833s37.333,3.666,49.167,4.833s27.5,1.666,35.667,3s29.001,0.667,30.667,0"/>
	<path fill="none" stroke="#3F3C3C" stroke-width="2" stroke-linecap="round" stroke-linejoin="round" stroke-miterlimit="10" d="
		M241.375,326.75c0,0,0.5,1.125-2.25,2.375S228.125,338,232,344.5s3.25,7.5,10.125,9.625s18.125,6.5,16.875,10.5
		s0.75,4.625,0.875,5.375s6.375,6.125,2.875,15.125s-2,25.125,7.75,26.125s5.5,2.625,13.875,2.625c2-0.375,0.5-2.875-1-1.75s6,2,6,2
		"/>
	<path fill="none" stroke="#3F3C3C" stroke-width="2" stroke-linecap="round" stroke-linejoin="round" stroke-miterlimit="10" d="
		M38.75,308.75c0,0-1.75,3.25-3.75,4.25s-6.125,6.875-5.875,9.5s-2.5,3.875-3,4.375s-3.5,5.5-6.125,7.75s-6.614,7.372-4.25,14.25
		c2.75,8,10.75,9.125,15.125,12.125s11.875,2.25,13.25-1.25s0.5-8.125-2.125-5.125s-2.875,10.75-4.75,15.375
		s-9.125,10.375-10.625,12s-7.125,7-6.875,8.625s2.5-1.875,1.375-3.625s-2.875,3.625-4.125,4.5s-4.375,4.375-11.875,4.5"/>
</g>
<g id="Ebene_7">
	<path fill="none" stroke="#000000" stroke-width="2" stroke-linecap="round" stroke-linejoin="round" stroke-miterlimit="10" d="
		M93.668,227.334c-10.75,6.667-22.583,8.583-23.667,5.666s19.873-14.625,19.873-14.625l-4.623,0.542c0,0-14.083,8-15.25,13.25"/>
	<g id="Ebene_8">
		
			<path display="none" fill="none" stroke="#000000" stroke-width="2" stroke-linecap="round" stroke-linejoin="round" stroke-miterlimit="10" d="
			M71.25,232.875c0,0,20.625-13.75,23.375-14.5s4.75,0-1,3.75s-19.75,11.75-19.75,11.75s2.875,1.25,19.375-8.75"/>
		<path fill="none" stroke="#F5952F" stroke-width="2" stroke-linecap="round" stroke-linejoin="round" stroke-miterlimit="10" d="
			M197.75,212.125c0,0,10.125,12.375,12.125,37.625c-3.583,2.001-13.707,11.084-62.207,10.084"/>
		<path fill="none" stroke="#F5952F" stroke-width="2" stroke-linecap="round" stroke-linejoin="round" stroke-miterlimit="10" d="
			M209.875,249.75c0,0,6.208,2.75-0.125,7c-4.026,2.702-15.081,7.751-49.498,8.251c-34.417,0.5-68.167-2.75-76.083-4.917
			C74,257.25,90.083,252.833,89.75,249.75C90.5,236.5,95,224,99,218.5"/>
		<path fill="none" stroke="#FCE12C" stroke-width="2" stroke-linecap="round" stroke-linejoin="round" stroke-miterlimit="10" d="
			M94.5,219c0,0-16.25,10.5-20.25,13.875"/>
		<path fill="none" stroke="#C72D2D" stroke-width="2" stroke-linecap="round" stroke-linejoin="round" stroke-miterlimit="10" d="
			M91.75,218.625c0,0-17.625,11.5-20,14.25"/>
		<path fill="none" stroke="#000000" stroke-width="2" stroke-linecap="round" stroke-linejoin="round" stroke-miterlimit="10" d="
			M81.75,190.25c0.917,3,2.918,19.333,3.418,28.083c5.667-0.417,13.167-0.167,19.083,0.25s52.333,1.083,68.167,0
			s22.083-4,27.166-7.833c0.833-2.25,0.54-14.875,0.54-14.875s2.125,2.375-6.375,4.125c0,0-31,6.75-67,3.75
			c-31.5-2.75-40.5-5.25-42.5-6"/>
		<path fill="none" stroke="#FCE12C" stroke-width="2" stroke-linecap="round" stroke-linejoin="round" stroke-miterlimit="10" d="
			M83.75,195.25c0,0,8.263,2.49,22,4.5c21.168,3.098,55.355,5.285,92.5-2.75"/>
		<path fill="none" stroke="#C72D2C" stroke-width="2" stroke-linecap="round" stroke-linejoin="round" stroke-miterlimit="10" d="
			M83.25,193.25c0,0,34.5,12.25,103.75,4.5"/>
	</g>
	<path fill="none" stroke="#000000" stroke-width="2" stroke-linecap="round" stroke-linejoin="round" stroke-miterlimit="10" d="
		M68.585,168.5c-1.667,1.833-7.335,12,12.415,20.75s57.833,11.417,86.75,10s39.169-4.833,42.002-6.917s2.333-4.917,2.333-4.917
		l-1.333,0.083c0,0,1.123,5.75-17.127,9.375"/>
</g>
<g id="Ebene_6">
	
		<path fill="#FFFFFF" stroke="#EBECEB" stroke-width="2" stroke-linecap="round" stroke-linejoin="round" stroke-miterlimit="10" d="
		M102.875,180.75c-3.125,0.875-4-1.875-3.625-3.875c-1.625-2-1.875-2.5,0.125-5.125s-2.625-3-5.125-3.125
		c-4.875-1.75-4.25,2.25,2.5,6.375c-1.5,1.5-6.875-3-9.25-4.875c-6.25-6.25,3.875-1.875,4.375-5.25S81,157.75,79.125,154.125
		s-2.75-1.125-5.25,0.5s4.625,2.5,8.25,4.25s4.375,4.75,2.125,7.5c-4.375,1.5,5.125,8.5,8.5,9.75s3.375-1,4.75,3.375
		c-0.625,5.125,6.5,4,13.125,2.25s-5.5-6.625-1.75-8.375s4.75,4,5.75,7.25s-1.375,3.625,1.625,6
		c-2.875,3.125-7.375,0.625-8.625-1.25c-1.75,0.625-6.625-2.5-6.625-2.5c-2.5,1.25-5.5-1-5-5.375c-1.75,3.5-7.875-1.375-10-3.25
		c-1.5,3.625,2.875,5,5.25,5.625c-3.5,3.75-6.25,0-6.75-1.25c-4.875-1.625-1-4.875-1.125-6.875c-6.125-3.125-5.125-5.375-4.125-8
		s2.625,2.25,4.375,0.125S82.5,162,82.5,162c-4.5-4.125-7.5-0.5-7.875,1.5c-4.375,1,0.25,3.75,2.5,5.75
		c-2.625,2,0.125,3,4.625,4.125C77.875,173.25,77,173.5,80,178.5s8.375,3.75,12.5,4.25c1.625,4.125,4.125,2,9.5,2.75
		c5.25,3,4,0,4,2.875s-3.875,1.625-6.75-0.25c-1.875,0.25-7.75-2.75-9.875-3.5c-1.875,0.25-4-0.125-7-1.875
		c-9.125-3.5-8.625-11.875-8.625-11.875c-2.875-1.5-0.875-4.5-0.875-4.5c-4.5-2.125-1.125-5.75-1-8.875
		c-2.375-1.125-0.25-4.25,1.375-6.625s-1.415-5.542-1.415-5.542c-1.75,2.583-0.917,4-0.917,4c-0.833,0.833-0.417,6.667-1.75,8.667
		s-0.5,7.083-0.5,7.083c-1.083,2.583,1.083,6.083,2,8.167c-0.083,1.25-1.333,1.417,1.5,5.083c4,6.333,7.083,6.167,11.75,6.167
		c-1.75,2.5,2.167,2.5,5.833,1.917c6.833,4.167,7.167,4.25,10.917,4.167c1.417,3.833,7.167,2.167,9.833-0.167
		c8.167,3.833,10.083,1.583,13.833,3.833s16.333,2.25,20.75,1.333c5.75,0.917,19,0.167,22.75-1.167
		c2.5,1.417,6.917,0.167,11.084-1.5c5.167,0.667,7-0.417,12.75-2.333c4.167,0.167,5.333-1.333,5.666-1.917c0,0,0,0,1.084-0.167
		s2-1.25,2-1.25L191,187.5c0,0,1.75,0.75-2.5,1.5s-4.75-0.75-8.25,0.5s-6,3-9.75,3.25s-5.5-3-2.5-4.25c-1.75-1.25-5.5-4-0.5-3.75
		s-9.5-5.25-12.5-0.5s4.5,2.75,4,4.25s0.75,4-4.25,4s-14.5-1-15.5,0.25S129,197,129,192.25s-7.75,0.75-5-4.75
		c-5,1-4.75-2.75-1.75-4.25c-2-4.5-2.25-7.25,3.5-5.75c3.281-2.031,5.725-2.384,7.122-0.796c4.878,5.546-7.997,3.421-3.372,8.171
		c1.476,2.214,11.25-0.25,9.911-5.315c-0.34-1.287,5.464-0.06,4.089,3.815c6.25-0.875,12.25,2.375,5.5,3.375s-10,2.5-15.25,2.75
		s-6.5,2.25-17-0.25c1.75-3,3.25-5.25-0.5-5.75c1-3,2.25-6.25-1-7c1.75-3,2.75-5.75-1.5-4.25c-5.75-2-10.5-4-11.25-0.25
		c0,0,2.75-0.5,2.125,2.125c1.125,1.625,6.875,4.375,4,5.125s-6.75,0.625-4.5-2c-2.125-0.125-5.125-5.5-2-3"/>
	<g>
		<g>
			<path fill="#009BA4" d="M123.045,179.91c-0.02,0.709-0.273,1.337-0.5,2s0.916,0.763,1.278,0.723
				c0.645-0.071,1.406-0.383,1.631-1.042c0.227-0.663,0.48-1.291,0.5-2c0.019-0.674-0.746-0.781-1.278-0.723
				C124.196,178.92,123.063,179.26,123.045,179.91L123.045,179.91z"/>
		</g>
	</g>
	<g>
		<g>
			<path fill="#009BA4" d="M167.911,189.009c-0.499,0.612-1.113,1.419-0.944,2.263c0.174,0.872,1.424,1.11,2.131,1.209
				c0.687,0.096,1.508-0.11,2.049-0.549c0.454-0.368,0.349-0.831-0.244-0.914c-0.479-0.066-0.961-0.136-1.055-0.604
				c-0.093-0.464,0.464-1.085,0.741-1.424c0.438-0.536-0.372-0.747-0.757-0.744C169.176,188.25,168.344,188.48,167.911,189.009
				L167.911,189.009z"/>
		</g>
	</g>
	<g>
		<g>
			<path fill="#009BA4" d="M70.53,173.353c-0.258,1.082-0.206,2.086,0.396,3.043c0.717,1.143,3.471,0.019,2.648-1.292
				c-0.387-0.616-0.266-1.28-0.104-1.957c0.174-0.729-0.833-1.022-1.349-0.986C71.4,172.212,70.704,172.625,70.53,173.353
				L70.53,173.353z"/>
		</g>
	</g>
	<g>
		<g>
			<path fill="#009BA4" d="M70.301,148.638c0.21,0.889,0.224,1.703,0.013,2.593c-0.189,0.797,2.681,0.34,2.871-0.462
				c0.233-0.984,0.247-1.922,0.013-2.907C73.018,147.098,70.112,147.84,70.301,148.638L70.301,148.638z"/>
		</g>
	</g>
	<g>
		<g>
			<path fill="#009BA4" d="M195.576,187.603c-3.588,0.744-7.493,3.321-11.163,1.985c-0.806-0.294-3.445,0.916-2.326,1.323
				c4.816,1.754,9.187-1.05,13.837-2.015C197.687,188.531,197.303,187.245,195.576,187.603L195.576,187.603z"/>
		</g>
	</g>
	<g>
		<g>
			<path fill="#009BA4" d="M181.386,189.94c-0.813,0.532-1.687,0.967-2.5,1.5c-0.466,0.305-0.379,0.639,0.18,0.668
				c0.682,0.037,1.477-0.175,2.049-0.549c0.813-0.532,1.687-0.967,2.5-1.5c0.466-0.305,0.379-0.639-0.18-0.668
				C182.753,189.354,181.958,189.566,181.386,189.94L181.386,189.94z"/>
		</g>
	</g>
	<g>
		<g>
			<path fill="#009BA4" d="M138.785,181.872c-0.06,0.493,0.318,1.364,0.011,1.731c-0.742,0.884,0.243,1.424,1.064,1.417
				c0.829-0.007,6.88-0.451,6.26,0.836c-0.702,1.46,2.228,1.395,2.76,0.289c1.992-4.141-6.836-3.181-8.74-3.164
				c0.354,0.472,0.71,0.945,1.064,1.417c0.37-0.44,0.652-0.824,0.713-1.407c0.052-0.482-0.262-0.873-0.202-1.362
				C141.889,180.19,138.938,180.616,138.785,181.872L138.785,181.872z"/>
		</g>
	</g>
	<g>
		<g>
			<path fill="#009BA4" d="M106.051,189.638c0.112,0.705-0.018,1.46-0.657,1.885c-0.359,0.239-1.061,0.032-1.446-0.056
				c-0.626-0.142-1.458,0.141-2.02,0.391c-0.223,0.099-1.002,0.532-0.376,0.674c2.353,0.534,7.941-0.24,7.397-3.671
				C108.869,188.356,105.946,188.978,106.051,189.638L106.051,189.638z"/>
		</g>
	</g>
	<g>
		<g>
			<path fill="#009BA4" d="M91.449,170.112c-0.29-0.617-0.429-1.231-0.132-1.868c0.083-0.179,0.395-0.301,0.122-0.187
				c-0.099,0.042-0.475,0.072-0.125,0.064c0.172-0.004,0.359,0.047,0.526,0.081c0.653,0.131,1.532-0.15,2.049-0.549
				c0.488-0.376,0.324-0.744-0.229-0.854c-2.436-0.489-6.582,0.96-5.109,4.09C88.965,171.769,91.781,170.817,91.449,170.112
				L91.449,170.112z"/>
		</g>
	</g>
	<g>
		<g>
			<path fill="#009BA4" d="M72.051,178.388c0.308,2.02,1.762,3.523,3.579,4.34c0.533,0.239,1.346-0.028,1.855-0.206
				c0.066-0.023,1.321-0.553,0.884-0.75c-1.769-0.794-3.122-2.196-3.421-4.16C74.873,177.113,71.95,177.726,72.051,178.388
				L72.051,178.388z"/>
		</g>
	</g>
	<g>
		<g>
			<path fill="#009BA4" d="M75.826,162.717c-0.534,0.586-0.777,1.159-0.779,1.948c-0.002,0.666,0.736,0.76,1.271,0.699
				c0.456-0.052,1.633-0.39,1.635-1.028c0.001-0.343-0.028-0.78,0.221-1.052c0.41-0.45,0.345-0.96-0.299-1.115
				C77.232,162.013,76.286,162.213,75.826,162.717L75.826,162.717z"/>
		</g>
	</g>
	<g>
		<g>
			<path fill="#009BA4" d="M75.051,153.888c-0.001,0.524-0.011,0.997-0.383,1.397c-0.473,0.508,0.404,0.682,0.738,0.673
				c0.666-0.017,1.459-0.242,1.925-0.744c0.572-0.615,0.616-1.301,0.617-2.103C77.95,152.41,75.052,152.897,75.051,153.888
				L75.051,153.888z"/>
		</g>
	</g>
	<g>
		<g>
			<path fill="#009BA4" d="M68.543,158.903c-0.467,1.212-0.731,2.45-0.75,3.75c-0.019,1.34,2.897,0.784,2.913-0.307
				c0.019-1.3,0.282-2.539,0.75-3.75c0.256-0.664-0.935-0.788-1.286-0.751C69.489,157.917,68.799,158.241,68.543,158.903
				L68.543,158.903z"/>
		</g>
	</g>
	<g>
		<g>
			<path fill="#009BA4" d="M112.301,173.888c0.207,0.657,0.292,1.343,0.5,2c0.421,1.335,3.313,0.542,2.897-0.776
				c-0.207-0.657-0.292-1.343-0.5-2C114.778,171.776,111.886,172.57,112.301,173.888L112.301,173.888z"/>
		</g>
	</g>
	<g>
		<g>
			<path fill="#009BA4" d="M113.138,178.254c0.984,0.835,1.182,1.925,0.43,2.99c-0.323,0.458,1.08,0.347,1.173,0.331
				c0.589-0.101,1.328-0.306,1.691-0.819c0.874-1.238,0.546-2.562-0.57-3.51C115.24,176.717,112.641,177.832,113.138,178.254
				L113.138,178.254z"/>
		</g>
	</g>
	<g>
		<g>
			<path fill="#009BA4" d="M186.09,187.401c-1.555,0.403-3.177-1.229-4.85-1.083c-0.646,0.057-1.237,0.237-1.849,0.442
				c-0.358,0.121-0.706,0.292-1.056,0.438c0.238-0.099-0.322-1.112-0.387-1.335c-0.248-0.859-3.141-0.062-2.898,0.776
				c0.659,2.284,2.385,2.23,4.365,1.508c0.596-0.217,0.816-0.448,1.419-0.27c0.597,0.176,1.163,0.488,1.74,0.717
				c1.247,0.497,2.575,0.332,3.835,0.005C188.132,188.153,187.806,186.956,186.09,187.401L186.09,187.401z"/>
		</g>
	</g>
</g>
<g id="Ebene_5">
	<path fill="none" stroke="#000000" stroke-width="2" stroke-linecap="round" stroke-linejoin="round" stroke-miterlimit="10" d="
		M209.834,127.667c0,0-1.667,31.333-1.667,40.333"/>
	<path fill="none" stroke="#3A8964" stroke-width="2" stroke-linecap="round" stroke-linejoin="round" stroke-miterlimit="10" d="
		M208.75,173c-8.75-7.375-47.25-23.25-91.25-34.75"/>
	<path fill="none" stroke="#3A8964" stroke-width="2" stroke-linecap="round" stroke-linejoin="round" stroke-miterlimit="10" d="
		M166.75,158.75c0,0-26-8.875-50.5-16.25"/>
	<path fill="none" stroke="#009BA4" stroke-width="2" stroke-linecap="round" stroke-linejoin="round" stroke-miterlimit="10" d="
		M112.168,147.917l5.332-9.667c0,0-1.5-3.25-6.25,0.25s-3.998,6.583-2.665,8.833"/>
	<path fill="none" stroke="#000000" stroke-width="2" stroke-linecap="round" stroke-linejoin="round" stroke-miterlimit="10" d="
		M247.125,180.375c0,0-6.875,7.625-35.375,6.375s-17,1.75-43-2.75s-62.75-15.25-72-18.25S69.5,143,67.5,138.75s-0.375-8,0.625-8.75"
		/>
	<path fill="none" stroke="#009BA4" stroke-width="2" stroke-linecap="round" stroke-linejoin="round" stroke-miterlimit="10" d="
		M116.75,140.375c0,0,21.243,6.1,30.75,9.125c11,3.5,52.25,19.5,55.375,21.375"/>
	<path fill="none" stroke="#000000" stroke-width="2" stroke-linecap="round" stroke-linejoin="round" stroke-miterlimit="10" d="
		M230.584,181.5c11.25,1.75,15.166-2.652,16.417-5.75c1.75-4.333-0.249-9.583-0.249-9.583c-6.625-14.375-37.084-22.5-37.084-22.5
		L210,141.5c0,0,38.834,9.917,40.084,28.667s-19.709,11.708-25.459,9.458S174.75,157.5,130.25,150.5S71.5,148,67.5,138.75
		s4.75-14,18.5-11.5l1.085,0.333l-1.667,1.25c0,0-11.666-1.667-14.583,2.167s-1.5,9.583,6.417,13.667"/>
</g>
<g id="Ebene_2">
	<path fill="none" stroke="#3F3C3C" stroke-width="2" stroke-linecap="round" stroke-linejoin="round" stroke-miterlimit="10" d="
		M105.75,51.75c0,0,17-35,22.75-38s9.75-4.5,16.5-2.25s15.5,1,18.5,0.25"/>
	<path fill="none" stroke="#3F3C3C" stroke-width="2" stroke-linecap="round" stroke-linejoin="round" stroke-miterlimit="10" d="
		M147.75,12.25c0,0,15-6.25,19.75-1S181.145,26.017,186.75,31c4.5,4,14.5,18.25,15.25,21c1.006,3.689,1.75,11.833,1.75,11.833"/>
	
		<polyline fill="none" stroke="#3B8964" stroke-width="2" stroke-linecap="round" stroke-linejoin="round" stroke-miterlimit="10" points="
		88.5,98.5 89.5,96.5 87,95 88,92 86.25,90.25 89,87.75 85.25,85.75 87.5,82 84.25,80.25 87.5,78 86,75 88.25,73.5 87.25,71.25 
		89.25,69.5 87.75,67 89.75,65.5 89.25,62.5 92.5,62.25 92.5,58.75 95.75,59.75 96.5,56.75 100.25,58.5 101.5,55.75 103.25,58.75 
		106.5,56.25 107.5,59.75 110.5,59 111,61.25 115,61.25 116,64.25 118.25,63.25 119.25,66.75 121.75,66.5 121.75,69.25 124.25,70 
		124.75,72.5 125.75,72.5 126.75,75 128.5,75.75 129.25,77.75 130.75,78.25 131.5,80.25 133.25,80.5 133.25,83.25 135,83.75 	"/>
	<path fill="none" stroke="#3B8964" stroke-width="2" stroke-linecap="round" stroke-linejoin="round" stroke-miterlimit="10" d="
		M128,71.75l2.5-3.25l3.25,8l2.25-9l3,8.25l3.75-9.5l3.75,8.25l3.75-8.75l4,7.5l6-8.5l3,7.917l5-9.333L172,72l4.25-9.5l4.25,9
		l2.5-8.75l2.167,8.583L186.75,63l2.5,8.75L191,63l2.75,9l1-9l2.584,9.833L199.25,64l2.917,9.5L204,64c0,0,1.751,7,2.667,9.333
		c0.75-1.25,0.167-9.083,0.167-9.083l1.833,8.5l-2.833-8.833l-1.334,9.667l-3-9.583l-1.416,9.25l-3.334-10l-1.166,9.083L193,63
		l-1.5,8.5l-2.75-8.25l-1.5,8L185,62.5l-2.25,8.75l-2.75-9l-3.416,9.333L173,63l-5,9l-4.5-8l-5,8.75l-4.25-7.5L150.5,74l-5.25-8.5
		l-2.75,8.25l-4-7l-2.5,8l-2.5-7.25l-3,7.25"/>
</g>
<g id="Ebene_3">
	<path fill="none" stroke="#C72D2D" stroke-width="2" stroke-linecap="round" stroke-linejoin="round" stroke-miterlimit="10" d="
		M82.833,133c0,0,13.667,2.667,23,2.667s104-8,104-8s10.333-0.333,26.333-12.333c-3.333-2.667-29.666-4.333-49.333-3.667
		S100.167,121.333,91.167,126S82.833,130.333,82.833,133z"/>
	<path fill="none" stroke="#EBECEB" stroke-width="2" stroke-linecap="round" stroke-linejoin="round" stroke-miterlimit="10" d="
		M215.834,116c0,0-72.918-3.25-128.584,15.75"/>
	<path fill="none" stroke="#C72D2D" stroke-width="2" stroke-linecap="round" stroke-linejoin="round" stroke-miterlimit="10" d="
		M208,111.167c0,0-1.667-5.333-1.5-5.833"/>
</g>
<g id="Ebene_4">
	<path fill="none" stroke="#3F3C3C" stroke-width="2" stroke-linecap="round" stroke-linejoin="round" stroke-miterlimit="10" d="
		M105.5,120.5c0,0-15.25-9-19.5-27.25c-3.562-15.295-5.75-40.5,15-41C111.25,52.003,121.5,61,125.25,67c6.5,10.75,18.5,27.5,39,33
		c27.662,7.421,52.5,8.5,61.25-6.25s1.872-39.64-12.5-52c-12.5-10.75-22-10-23-8.5"/>
	<path fill="none" stroke="#C72D2D" stroke-width="2" stroke-linecap="round" stroke-linejoin="round" stroke-miterlimit="10" d="
		M106.5,121.167c0,0,2.833-20.167,3.667-28.833"/>
	<path fill="none" stroke="#3F3C3C" stroke-width="2" stroke-linecap="round" stroke-linejoin="round" stroke-miterlimit="10" d="
		M108.167,94.667c-0.25-2,2.833-6.417,10.583-6.167c10.417-0.5,12,3,34.75,10.5c24,8,47.75,6.25,47.75,6.25"/>
</g>
</svg>
