<?xml version="1.0" encoding="utf-8"?>
<!-- Generator: Adobe Illustrator 16.0.0, SVG Export Plug-In . SVG Version: 6.00 Build 0)  -->
<!DOCTYPE svg PUBLIC "-//W3C//DTD SVG 1.1//EN" "http://www.w3.org/Graphics/SVG/1.1/DTD/svg11.dtd">
<svg version="1.1" xmlns="http://www.w3.org/2000/svg" xmlns:xlink="http://www.w3.org/1999/xlink" x="0px" y="0px" width="1140px"
	 height="400px" viewBox="0 0 1140 400" enable-background="new 0 0 1140 400" xml:space="preserve">
<g id="Local_Support_Team">
	<g>
		<g>
			<defs>
				<rect id="SVGID_1_" x="600" y="242.999" width="45.873" height="102.988"/>
			</defs>
			<clipPath id="SVGID_2_">
				<use xlink:href="#SVGID_1_"  overflow="visible"/>
			</clipPath>
			<g clip-path="url(#SVGID_2_)">
				<defs>
					<rect id="SVGID_3_" x="600" y="242.999" width="45.873" height="102.988"/>
				</defs>
				<clipPath id="SVGID_4_">
					<use xlink:href="#SVGID_3_"  overflow="visible"/>
				</clipPath>
				<path clip-path="url(#SVGID_4_)" d="M627.014,257.034c0,0-0.312-6.514-2.496-10.18c1.287-0.936,6.659-3.158,10.325-2.379
					c-0.818,5.343-1.972,10.948-2.384,12.373c-1.579-0.321-4.124-0.278-5.44,0.278"/>
				<path clip-path="url(#SVGID_4_)" fill="#F5952F" d="M626.748,262.398c0,0-0.438-0.445-0.095-0.497
					c0.344-0.051,0.233-0.117,0.146-0.292c-0.087-0.176-0.256-0.3,0.044-0.476s0.325-0.227,0.046-0.49
					c-0.346-0.409-0.28-0.497-0.086-0.6c0.165-0.109,0.274-0.336,0.084-0.533c-0.189-0.198-0.176-0.446-0.084-0.476
					s0.436-0.146,0.238-0.476c-0.198-0.329-0.607-1.075-0.073-1.411c0.533-0.336,2.946-0.87,5.688-0.264
					c0.285,0.052,0.402,0.622,0.22,0.688c-0.183,0.066-0.205,0.059-0.124,0.212c0.08,0.154,0.482,0.731,0.073,0.834
					c-0.22,0.065-0.322,0.19-0.184,0.256c0.14,0.066,0.314,0.183,0.242,0.424c-0.073,0.242,0,0.527,0.153,0.856
					c0.153,0.328,0.219,0.519,0,0.665c-0.22,0.146-0.088,0.351-0.022,0.417c0.066,0.065,0.271,0.344-0.015,0.673
					s-0.307,0.519-0.088,0.556c0.22,0.036,0.49,0.15-0.095,0.424C632.207,263.002,627.725,262.815,626.748,262.398"/>
				<path clip-path="url(#SVGID_4_)" d="M637.52,263.225c0,0-4.227,1.098-14.947-0.892c-0.541-0.161-0.438-0.321-0.087-0.336
					c1.535,0,3.758,0.189,4.489,0.482c0.585,0.189,4.797,0.424,5.865,0.409c0.556-0.029,2.047-0.176,2.413-0.249
					C635.618,262.567,636.979,262.362,637.52,263.225"/>
				<path clip-path="url(#SVGID_4_)" d="M645.725,284.489c-0.361-0.604-0.43-0.848-0.8-1.121c-0.976-0.809-11.495-6.62-11.603-7.507
					c-0.088-0.692,0.829-0.439,1.501-0.391c-0.292-0.624-0.994-1.364-1.374-1.765c-0.381-0.399-1.482-2.827-1.531-3.257
					c-0.175,1.57-0.341,2.838-0.76,3.803c-0.42,0.966-3.979,8.873-4.417,9.614c0,0,1.287-4.817,1.481-5.655
					c0.195-0.839,0.644-2.847-0.233-4.563c-0.43-1.053-0.8-2.34-0.8-2.34c0.137,0.956,0.302,2.594,0.215,2.886
					c-0.088,0.293-0.361,0.605-0.663,0.332c-0.303-0.273-0.819-0.81-1.463-0.741c-1.131,0.098-1.16,0.361-2.232,0.556
					c-2.106,0.43-8.98,1.258-9.302,1.385c-0.176-0.868-0.107-2.359-0.078-3.5s0.331-7.8,0.38-8.443
					c-0.214,0.078-0.604,0.165-0.936-0.42c-0.419-0.712-0.839-2.398-1.647-2.72c-0.995-0.352-4.115-1.668-4.417-1.813
					c0.272,0.429,0.575,0.984,0.761,1.141c0.185,0.156,1.082,0.644,3.022,1.121c0.204,0.195,0.38,0.673,0.312,0.761
					s-0.204,0.068-0.683-0.02c-0.478-0.088-3.285,0.341-3.637,0.292c-0.351-0.049-2.389-0.945-5.187-0.984
					c-0.468,0.156-1.355,0.604-1.062,0.692c0.292,0.088,3.812,0.536,5.011,1.18c-0.74-0.225-3.109-0.897-4.514-0.663
					c-0.322,0.088-0.088,0.186,0.088,0.264c0.175,0.077,0.711,0.194,0.711,0.194s-0.575-0.01-0.701,0.117
					c-0.127,0.127,0.165,0.215,0.399,0.225s1.473,0.087,3.071,0.984c1.15,0.604,1.307,0.604,1.569,0.556
					c0.663-0.127,3.715-0.906,4.534-0.81c0.458,0.078,0.858,0.078,0.896,0.81c0.02,0.186,0.01,0.352,0.01,0.352
					s-0.36,11.144,0.479,13.211c0.779,0.39,4.699-0.517,5.591-0.619c0.893-0.103,6.245-0.819,8.293-0.57
					c-0.556,1.857-1.01,3.334-1.536,5.616c-0.497,1.915-2.267,9.652-2.237,11.934s1.696,45.845,1.229,46.858
					s-5.733,3.388-5.967,4.245c-0.234,0.858,6.688-0.579,6.688-0.579s6.845,0.839,7.897,0.498c0.409-0.128,0.156-0.342-0.234-0.479
					c-0.39-0.137-5.206-2.905-5.499-3.646c-0.292-0.741-0.39-14.976-0.233-17.394c0.155-2.419,0.155-12.656,0.39-13.241
					c0.468,0.526,1.404,1.375,1.726,1.141c0.322-0.233-0.146-1.199-0.409-1.93c-0.264-0.731-1.042-4.506-0.925-5.588
					c1.258,2.369,3.967,6.348,5.663,6.699c0.468,0.029,0.176-0.702,0-1.082c-0.819-1.668-3.451-6.577-3.773-7.706
					c-0.321-1.128-0.263-1.742-0.175-1.83c0.087-0.088,1.569,1.044,3.212,0.515c0.609-0.125,0.502-1.45,0.59-4.375
					c-0.438-0.186-2.213-0.498-2.389,0.604c-0.068,0.225,0.186,0.371,0.244,0.332c0.137-0.068,0.107-0.127,0.215-0.186
					c0.106-0.059,0.429-0.215,0.965,0.176c0.059,0.507-0.127,2.038-0.244,2.174c-0.116,0.137-1.813-0.039-1.794-0.409
					c0.195-2.866-0.194-4.202,0.878-4.173c0.478-0.4,1.307-0.917,1.833-1.238c5.479-3.325,12.344-7.146,13.338-7.937
					C645.792,285.747,646.046,285.338,645.725,284.489 M642.136,285.942c-0.867,0.283-3.948,2.155-4.942,2.817
					c-0.907,0.576-8.854,6.036-8.854,6.036s-0.01,0.341-0.068,0.779c-0.049-0.321-0.253-0.906-0.624-1.599
					c-0.37-0.692-0.906-0.888-0.809-1.784c0.526-4.836,6.133-11.593,6.133-11.593c1.647,0.81,8.755,4.065,9.886,4.378
					C643.599,285.27,643.004,285.66,642.136,285.942"/>
			</g>
		</g>
	</g>
	<g>
		<g>
			<defs>
				<rect id="SVGID_5_" x="573.968" y="242.5" width="36.148" height="103.5"/>
			</defs>
			<clipPath id="SVGID_6_">
				<use xlink:href="#SVGID_5_"  overflow="visible"/>
			</clipPath>
			<g clip-path="url(#SVGID_6_)">
				<defs>
					<rect id="SVGID_7_" x="573.968" y="242.5" width="36.148" height="103.5"/>
				</defs>
				<clipPath id="SVGID_8_">
					<use xlink:href="#SVGID_7_"  overflow="visible"/>
				</clipPath>
				<path clip-path="url(#SVGID_8_)" d="M594.2,256.482c0,0,0.335-6.555,2.678-10.243c-1.38-0.942-7.144-3.18-11.077-2.395
					c0.879,5.377,2.116,11.018,2.558,12.451c1.694-0.323,4.425-0.279,5.837,0.28"/>
				<path clip-path="url(#SVGID_8_)" fill="#F5952F" d="M594.485,261.882c0,0,0.471-0.449,0.103-0.501
					c-0.369-0.051-0.251-0.117-0.157-0.294s0.274-0.302-0.047-0.479c-0.322-0.177-0.348-0.229-0.049-0.493
					c0.37-0.412,0.301-0.5,0.092-0.604c-0.177-0.11-0.294-0.338-0.09-0.537c0.203-0.198,0.188-0.449,0.09-0.479
					c-0.098-0.029-0.467-0.146-0.255-0.479c0.212-0.331,0.651-1.081,0.078-1.42c-0.572-0.338-3.161-0.876-6.104-0.265
					c-0.306,0.052-0.432,0.625-0.235,0.691s0.22,0.06,0.134,0.214c-0.087,0.154-0.518,0.735-0.079,0.839
					c0.235,0.066,0.346,0.191,0.196,0.258c-0.148,0.065-0.337,0.184-0.259,0.427c0.078,0.242,0,0.529-0.165,0.86
					c-0.164,0.331-0.235,0.522,0,0.67c0.236,0.147,0.095,0.354,0.024,0.419c-0.071,0.066-0.291,0.347,0.016,0.678
					c0.306,0.331,0.329,0.522,0.094,0.559c-0.235,0.037-0.525,0.151,0.103,0.428C588.629,262.489,593.438,262.301,594.485,261.882"
					/>
				<path clip-path="url(#SVGID_8_)" d="M582.93,262.713c0,0,4.534,1.104,16.035-0.897c0.581-0.162,0.471-0.324,0.095-0.339
					c-1.647,0-4.032,0.191-4.817,0.486c-0.627,0.19-5.146,0.427-6.292,0.412c-0.596-0.03-2.196-0.177-2.589-0.251
					C584.97,262.051,583.51,261.845,582.93,262.713"/>
				<path clip-path="url(#SVGID_8_)" d="M605.857,282.336c-0.484-0.336-8.383-5.95-10.579-5.7c0.596,1.869,1.082,3.355,1.647,5.651
					c0.533,1.929,2.432,9.714,2.4,12.01s-1.82,46.136-1.318,47.156s6.151,3.408,6.402,4.272c0.251,0.863-7.176-0.584-7.176-0.584
					s-7.344,0.845-8.474,0.502c-0.438-0.129-0.167-0.345,0.252-0.481c0.418-0.138,5.585-2.925,5.899-3.67
					c0.313-0.746,0.418-15.071,0.251-17.504c-0.168-2.434-0.168-12.736-0.419-13.325c-0.502,0.53-1.506,1.384-1.852,1.148
					c-0.345-0.235,0.157-1.207,0.439-1.943c0.283-0.735,1.118-4.533,0.992-5.622c-1.349,2.384-4.256,6.388-6.075,6.741
					c-0.502,0.029-0.188-0.707,0-1.089c0.878-1.678,3.702-6.619,4.048-7.755c0.345-1.135,0.282-1.753,0.188-1.842
					c-0.095-0.088-1.495,0.306-3.257-0.226c-0.654-0.126-0.37-0.548-0.464-3.492c0.471-0.187,2.374-0.5,2.562,0.608
					c0.073,0.226-0.198,0.373-0.262,0.334c-0.146-0.069-0.114-0.128-0.229-0.187s-0.461-0.216-1.036,0.177
					c-0.062,0.51-0.033,1.139,0.092,1.276c0.126,0.137,1.757,0.704,1.735,0.332c-0.209-2.885,0.209-4.229-0.941-4.2
					c-0.512-0.402-1.401-0.922-1.966-1.246c-5.879-3.346-13.243-7.191-14.31-7.986c-0.356-0.314-0.628-0.727-0.283-1.58
					c0.388-0.608,0.461-0.854,0.858-1.128c1.046-0.814,12.332-6.662,12.447-7.556c0.094-0.696-0.889-0.441-1.61-0.393
					c0.313-0.628,1.066-1.373,1.475-1.775s1.59-2.846,1.642-3.277c0.188,1.58,0.366,2.855,0.816,3.827
					c0.45,0.971,4.268,8.929,4.738,9.674c0,0-1.381-4.847-1.59-5.69s-0.69-2.865,0.251-4.592c0.461-1.06,0.857-2.355,0.857-2.355
					c-0.146,0.962-0.324,2.61-0.229,2.904c0.094,0.295,0.387,0.608,0.711,0.334s0.879-0.814,1.569-0.746
					c1.214,0.099,2.004,0.128,3.309,1.148c1.771,1.384,7.089,5.259,7.434,5.386c1.145,0.658,1.813,1.129,1.981,1.679
					c0.145,0.476-4.965,9.447-6.954,11.438c-0.251-0.088-0.36-0.432-0.503-0.469c-0.722,0.675-0.92,4.102-0.502,4.572
					c0.419,0.472,1.841,0.187,1.841-0.049s0.419-0.44,0.252-0.676c-0.168-0.235-0.709-1.041-0.741-1.237
					c-0.033-0.196,1.411-0.393,1.578,0.078c0.167,0.472,0.418,2.777-0.419,3.17c-0.837,0.392-3.821,0.999-3.967-0.03
					c-0.145-1.028-0.721-3.188,0.17-5.181c0.336-0.751,0.722-1.06,0.471-1.472C600.598,289.734,606.107,283.411,605.857,282.336
					 M577.977,285.574c0.931,0.285,4.236,2.169,5.304,2.836c0.973,0.579,9.497,6.073,9.497,6.073s0.011,0.344,0.074,0.785
					c0.052-0.324,0.271-0.912,0.669-1.609c0.397-0.696,0.973-0.893,0.868-1.795c-0.564-4.867-6.579-11.667-6.579-11.667
					c-1.769,0.815-9.394,4.092-10.607,4.406C576.407,284.897,577.046,285.29,577.977,285.574"/>
			</g>
		</g>
	</g>
	<g>
		<g>
			<defs>
				<rect id="SVGID_9_" x="637.454" y="242.221" width="64.312" height="103.609"/>
			</defs>
			<clipPath id="SVGID_10_">
				<use xlink:href="#SVGID_9_"  overflow="visible"/>
			</clipPath>
			<g clip-path="url(#SVGID_10_)">
				<defs>
					<rect id="SVGID_11_" x="637.454" y="242.221" width="64.312" height="103.609"/>
				</defs>
				<clipPath id="SVGID_12_">
					<use xlink:href="#SVGID_11_"  overflow="visible"/>
				</clipPath>
				<path clip-path="url(#SVGID_12_)" d="M671.31,254.741c0,0,3.628-11.512,4.627-12.179c3.035,1.518,6.543,3.572,6.432,5.09
					c-1.813,1.333-4.1,3.961-7.098,9.588C673.642,256.166,671.31,254.741,671.31,254.741"/>
				<path clip-path="url(#SVGID_12_)" fill="#F5952F" d="M668.913,258.184c0,0-0.065-0.139,0-0.269
					c0.064-0.129,0.046-0.212,0.083-0.342s0.194-0.296,0.397-0.343c0.204-0.046,0.157-0.323,0.12-0.536s0-0.417,0.26-0.444
					c0.259-0.028,0.222-0.065,0.203-0.223s-0.056-0.333,0.103-0.453c0.157-0.12,0.203-0.259,0.249-0.37
					c0.047-0.111,0.167-0.148,0.314-0.139c0.148,0.009,0.158-0.056,0.084-0.157c-0.074-0.103,0.092-0.231,0.185-0.231
					s0.266-0.014,0.398,0.064c0.132,0.078,4.127,2.369,4.22,2.628c0.092,0.26-0.199,0.176-0.023,0.269
					c0.065,0.056-0.019,0.093-0.12,0.148s-0.218,0.083-0.162,0.185c0.056,0.103,0.111,0.223-0.166,0.324
					c0,0.139,0.06,0.12-0.042,0.231s-0.162,0.185-0.125,0.24s-0.009,0.167-0.185,0.287s-0.306,0.167-0.194,0.25
					c0.11,0.083,0.11,0.277,0.019,0.463c-0.093,0.185-0.14,0.25-0.297,0.323c-0.157,0.074-0.037,0.148-0.12,0.26
					c-0.083,0.11-0.342,0.213-0.129,0.36c0.064,0.056,0.018,0.12-0.13,0.12C671.713,259.767,669.583,258.601,668.913,258.184"/>
				<path clip-path="url(#SVGID_12_)" d="M663.578,256.22c0,0,9.774,4.546,15.159,8.321c0.276-0.555-0.542-1.366-1.306-1.873
					c-1.058-0.703-6.126-2.971-10.452-5.761c-1.124-0.708-1.365-0.873-2.346-0.861C664.115,255.972,663.319,256.108,663.578,256.22"
					/>
				<path clip-path="url(#SVGID_12_)" d="M662.699,284.197c0,0,2.947-9.536,2.837-11.466c-0.015-2.359,1.374-4.798,1.401-5.303
					c-0.369,0.151-1.609,1.11-1.918,2.359c-0.311,1.264-1.024,1.184-1.69,1.231c-0.591,0.043-1.037-0.074-2.11,0.444
					c-4.178,1.795-9.106,3.725-9.467,3.85c-0.625-1.624-1.416-5.164-2.263-10.717h-0.208c0,0-0.139-0.222,0.25-1.415
					c0.389-1.194,0.097-3.055,0.139-3.457c0.041-0.402,0.25-1.18,0.402-1.291c-0.375-0.111-1.36-0.277-1.722,2.54
					c-0.027,0.292,0.111,0.833-0.43,0.861c-0.542,0.027-2.235,0-4.012-1.305c-1.264-2.318-3.193-5.678-4.539-5.012
					c0.888,1.389,2.887,4.525,2.887,4.525s-0.722,0-1.291-0.333c-0.847-0.708-2.317-1.763-3.512-1.555
					c0.569,0.764,1.638,1.693,2.929,2.513c-1.276-0.417-2.526-0.777-2.929-0.223c0.777,0.486,2.554,1.166,2.554,1.166
					s-1.096-0.014-1.18,0.583c4.442,0.861,8.398,1.999,8.912,2.471c0.389,0.375,0.111,0.653,0.014,0.583
					c0.375,1.569,2.166,10.884,2.249,12.258c0.056,0.514,0.181,0.902,0.764,0.805c0.583-0.097,7.686-3.865,11.133-3.914
					c0.458,0.027,0.513,0.416,0.305,0.972c-1.888,7.948-3.192,14.533-3.29,15.838c-0.291,3.984-1.026,20.059-1.082,23.834
					c0.166,5.608,0.463,23.167-0.037,25.305c0.666,0.167,1.249,0.167,0.61,1c-0.638,0.833-3.924,3.134-3.979,3.911
					c1.389,0.171,5.988-0.067,6.626-0.15c0-1.527-0.896-3.483-1.202-3.872s-0.056-1.055,0.833-0.777
					c-0.175-4.672-0.899-21.58-0.63-25.276c0.333-4.577,0.912-8.398,0.912-11.174c-0.123,0.394,0.78,6.47,1.816,9.024
					c0.666-2.258-0.048-12.018,0.008-12.656c0,3.628,3.508,12.883,4.262,17.6c0.278,5.608,1.821,19.484,1.904,21.982
					c0,0,0.389,0.75,0.278,1.472c-0.111,0.722-0.417,1.527-0.278,3.054c3.609,0.167,12.179,0.407,12.789,0.38
					c-0.277-0.82-5.774-2.295-7.532-2.586c-1.407-0.232-5.608-1.375-2.369-1.819c-0.277-3.109-2.118-17.667-2.518-22.334
					c-0.555-6.496-2.03-11.707-2.59-13.911c2.848,4.01,5.089,7.461,5.366,7.489c0.277,0.027-2.492-8.478-4.923-12.734
					c-0.74-1.962-3.295-5.849-2.545-10.883c0.52-3.488,3.767-10.031,5.016-12.132c0.968-1.628,1.185-1.943,2.063-1.888
					c1.284,0.081,5.173,1.518,9.356,3.525c0.777,0.389,1.628,0.222,2.072-0.472c0.444-0.694,5.191-7.432,6.2-7.996
					c0.719-0.402,3.093-1.333,5.007-1.563c1.61-0.194,3.258,0.046,5.146,0.046c0-0.36-0.574-0.592-2.768-0.842
					c1.749-0.389,4.457-0.722,4.748-0.639c0.291-0.167,0.342-0.399,0-0.694c-0.398-0.342-0.121-0.657-0.549-0.879
					c-0.254-0.131-0.154-0.62-0.766-0.62c-1.305,0.093-3.961,0.907-4.229,1c-1.509,0.129-3.996,0.582-4.506,0.693
					c-0.509,0.11-0.828-0.547-0.43-0.741c0.397-0.194,3.51-2.054,2.834-3.377c-1.008,0.676-2.979,2.055-3.442,2.23
					s-0.647,0.444-0.86,0.777s-0.519,0.981-0.546,1.157c-0.028,0.176-0.352,1.822-0.731,2.322c-0.379,0.5-6.043,7.57-6.283,7.931
					c-1.147-0.573-8.588-4.071-10.67-4.423c0.786-0.194,1.323-0.417,1.323-0.417s-0.916-0.083-1.24-0.499
					c-0.176-0.278,0.074-0.583-0.037-0.963c-0.231-0.61-0.75-1.971-0.907-2.082c-0.49,1.888-1.018,3.211-2.267,5.108
					C665.79,276.081,664.134,281.264,662.699,284.197"/>
			</g>
		</g>
	</g>
	<g id="Ebene_3_Kopie_2">
		<text transform="matrix(1 0 0 1 560.4985 364.4141)" fill="#32323C" font-family="'Avenir-Medium'" font-size="14">Local TrainingTeam</text>
	</g>
	<g>
		<g>
			<defs>
				<rect id="SVGID_13_" x="524.252" y="242.933" width="49.267" height="98.237"/>
			</defs>
			<clipPath id="SVGID_14_">
				<use xlink:href="#SVGID_13_"  overflow="visible"/>
			</clipPath>
			<g clip-path="url(#SVGID_14_)">
				<defs>
					<rect id="SVGID_15_" x="524.252" y="242.933" width="49.267" height="98.237"/>
				</defs>
				<clipPath id="SVGID_16_">
					<use xlink:href="#SVGID_15_"  overflow="visible"/>
				</clipPath>
				<path clip-path="url(#SVGID_16_)" d="M562.363,255.067c0,0,2.435-11.723,2.592-12.135c2.022,0.373,4.897,1.729,8.564,6.067
					c-1.477,1.178-4.206,4.045-6.208,8.345C566.545,256.638,564.641,255.4,562.363,255.067"/>
				<path clip-path="url(#SVGID_16_)" fill="#F5952F" d="M560.046,260.545c0,0-0.609-0.55-0.216-0.511
					c0.393,0.04,0.461-0.078,0.383-0.284c-0.079-0.206-0.226-0.589,0.167-0.845c0.245-0.157,0.196-0.274,0.127-0.383
					c-0.069-0.107-0.134-0.206,0.056-0.412c0.19-0.206,0.69-0.608,0.69-0.824s0-0.363,0.246-0.383
					c0.245-0.02,0.363-0.079,0.098-0.305s-0.118-0.402,0.069-0.511c0.187-0.107,0.481-0.334,0.314-0.412s-0.107-0.314,0.049-0.451
					c0.157-0.138,0.255-0.167,0.51-0.138s3.151,0.589,4.84,2.297c0.138,0.138,0.334,0.481,0.059,0.795
					c-0.275,0.314-0.894,0.757-0.658,0.963c0.235,0.206,0.068,0.432-0.207,0.579s-0.088,0.432-0.049,0.5
					c0.039,0.069,0.127,0.207-0.187,0.373c-0.314,0.167-0.521,0.227-0.373,0.442c0.147,0.216,0.333,0.304,0.049,0.501
					c-0.285,0.196-0.343,0.255-0.176,0.343c0.167,0.089,0.277,0.23-0.03,0.373c-0.147,0.069-0.265,0.138-0.265,0.138
					S562.569,261.733,560.046,260.545"/>
				<path clip-path="url(#SVGID_16_)" d="M555.334,258.975c0,0,2.17,1.541,6.98,3.023c4.81,1.482,7,1.895,7.206,1.875
					s0.383-0.059,0-0.255s-2.258-0.952-4.094-1.237c-1.256-0.255-5.822-1.855-7.324-2.769
					C557.533,259.2,556.139,258.326,555.334,258.975"/>
				<path clip-path="url(#SVGID_16_)" d="M533.559,275.389c0,0-9.305-16.165-9.307-17.082c-0.002-0.962,10.289,17.082,10.289,17.082
					"/>
				<path clip-path="url(#SVGID_16_)" fill="#F5952F" d="M524.376,258.8c0.023,0.091,0.034,0.185,0.087,0.265
					c0.086,0.128,0.247,0.146,0.365,0.05c0.112-0.092,0.035-0.245-0.037-0.331c-0.052-0.062-0.12-0.115-0.186-0.16
					c-0.07-0.049-0.174-0.014-0.215,0.056c-0.045,0.078-0.014,0.167,0.057,0.216c0.034,0.023-0.015-0.013,0.008,0.005
					c0.018,0.015,0.034,0.029,0.051,0.044c0.018,0.017,0.036,0.033,0.053,0.052c0.006,0.007,0.012,0.014,0.018,0.021
					c-0.022-0.026,0,0.003,0.003,0.009c-0.044-0.08,0.039-0.191,0.125-0.149c0.008,0.004,0.015,0.01,0.02,0.018
					c-0.023-0.034,0.006,0.022-0.01-0.02c-0.018-0.051-0.024-0.105-0.038-0.157C524.629,258.521,524.326,258.604,524.376,258.8"/>
				<path clip-path="url(#SVGID_16_)" fill="#F5952F" d="M525.079,259.988c-0.074,0.152,0.012,0.287,0.139,0.374
					c0.126,0.087,0.3,0.075,0.415-0.023c0.117-0.1,0.06-0.258-0.06-0.323c-0.083-0.045-0.177-0.062-0.265-0.093
					c-0.081-0.03-0.172,0.032-0.193,0.109c-0.024,0.088,0.029,0.164,0.11,0.193c0.035,0.013,0.071,0.021,0.106,0.032
					c0.024,0.008,0.048,0.016,0.071,0.023c0.018,0.007,0.018,0.007,0.001,0c0.011,0.005,0.021,0.011,0.032,0.018
					c-0.058-0.037-0.064-0.1-0.016-0.188c0.017-0.013,0.017-0.015,0-0.004c-0.017,0.01,0.012,0.006-0.014,0
					c-0.004-0.001-0.029-0.015-0.039-0.023c-0.014-0.015-0.016-0.017-0.007-0.007c-0.002-0.004-0.005-0.009-0.008-0.013
					c0.015,0.028,0.014,0.056-0.001,0.083c0.037-0.077,0.022-0.169-0.056-0.215C525.225,259.891,525.116,259.911,525.079,259.988"/>
				<path clip-path="url(#SVGID_16_)" fill="#F5952F" d="M525.849,261.466c0.044,0.029,0.103,0.041,0.153,0.055
					c0.032,0.009,0.065,0.019,0.097,0.029c0.013,0.004,0.026,0.009,0.039,0.014c-0.035-0.013,0.01,0.007,0.017,0.012
					c-0.056-0.034-0.057-0.149,0.033-0.187c-0.01,0.004-0.022,0.006-0.033,0.008c0.034-0.007-0.031,0.002-0.038,0.002
					c-0.041,0.002-0.083,0.001-0.124-0.001c-0.049-0.004,0.027,0.006-0.012-0.003c-0.025-0.008-0.015-0.001,0.031,0.021
					c-0.001-0.008-0.002-0.016-0.005-0.022c-0.037,0.064-0.073,0.129-0.11,0.193c0.006,0,0.012-0.001,0.018-0.001
					c0.202-0.006,0.203-0.32,0-0.314c-0.035,0.001-0.067,0.006-0.101,0.013c-0.087,0.017-0.127,0.114-0.109,0.192
					c0.041,0.186,0.189,0.235,0.357,0.237c0.119,0.001,0.285-0.006,0.34-0.135c0.07-0.16-0.044-0.262-0.181-0.318
					c-0.044-0.019-0.09-0.03-0.136-0.043c-0.021-0.006-0.041-0.011-0.062-0.017c-0.01-0.003-0.02-0.007-0.029-0.01
					c0.041,0.014,0.023,0.011,0.013,0.004C525.837,261.084,525.68,261.356,525.849,261.466"/>
				<path clip-path="url(#SVGID_16_)" fill="#F5952F" d="M526.686,262.687c-0.006,0.008-0.013,0.016-0.022,0.021
					c0.031-0.021-0.023,0.005,0.018-0.006c0.014-0.004,0.03-0.003,0.063-0.002c0.021,0.001,0.042,0.006,0.07,0.014
					c-0.004-0.001,0.05,0.02,0.03,0.01c0,0,0.044,0.029,0.022,0.011c0.013,0.014,0.014,0.014,0.003,0.001
					c-0.013-0.019-0.005-0.046,0.003-0.063c0.01-0.021,0.052-0.033,0.017-0.022c-0.035,0.01,0.006,0.002-0.032,0.004
					c-0.033,0.002-0.065-0.001-0.098-0.004c-0.017-0.001-0.035-0.003-0.052-0.005c-0.035-0.005,0.011-0.002,0.019,0.015
					c0.007,0.026,0.015,0.053,0.021,0.079c0-0.005,0.001-0.01,0.001-0.015c-0.015,0.037-0.03,0.074-0.046,0.111h0.002
					c0.182-0.089,0.023-0.359-0.159-0.271c-0.114,0.056-0.154,0.206-0.06,0.301c0.075,0.076,0.17,0.09,0.272,0.1
					c0.175,0.018,0.398-0.029,0.416-0.241c0.027-0.348-0.599-0.455-0.763-0.194C526.306,262.699,526.578,262.856,526.686,262.687"/>
				<path clip-path="url(#SVGID_16_)" fill="#F5952F" d="M527.294,263.933c0.043-0.07,0.05-0.063,0.137-0.046
					c0.034,0.008,0.156,0.028,0.166,0.062c-0.006-0.021,0.036-0.057,0.064-0.061c-0.03,0.004-0.041,0-0.071-0.008
					c-0.027-0.007-0.055-0.016-0.081-0.026c-0.018-0.008-0.034-0.018-0.051-0.026c-0.002-0.001-0.047-0.032-0.019-0.011
					c-0.157-0.125-0.38,0.096-0.222,0.223c0.183,0.146,0.729,0.303,0.692-0.109c-0.02-0.215-0.207-0.303-0.396-0.347
					c-0.214-0.049-0.374-0.001-0.492,0.189C526.916,263.946,527.188,264.104,527.294,263.933"/>
				<path clip-path="url(#SVGID_16_)" fill="#F5952F" d="M528.042,265.179c-0.004-0.061,0.022-0.069,0.096-0.087
					c0.069-0.017,0.153-0.005,0.213,0.028c0.026,0.015,0.022,0.014,0.027,0.031c-0.022-0.078,0.104-0.129,0.051-0.118
					c-0.024,0.006-0.053,0.004-0.077,0.005c-0.115,0.005-0.25-0.01-0.358,0.035c-0.184,0.076-0.104,0.381,0.083,0.303
					c0.158-0.065,0.347,0.01,0.506-0.063c0.212-0.099,0.072-0.356-0.057-0.453c-0.265-0.196-0.826-0.071-0.798,0.319
					C527.742,265.38,528.056,265.381,528.042,265.179"/>
				<path clip-path="url(#SVGID_16_)" fill="#F5952F" d="M528.627,266.601c0.11-0.035,0.204-0.062,0.32-0.054
					c0.039,0.003,0.076,0.014,0.11,0.03c0.021,0.01,0.041,0.021,0.06,0.035c0.063,0.04-0.069-0.012,0.075-0.064
					c-0.038,0.014-0.121-0.034-0.147-0.047c-0.119-0.059-0.232-0.12-0.36-0.158c-0.194-0.059-0.277,0.245-0.083,0.304
					c0.193,0.058,0.795,0.452,0.844,0.001c0.02-0.185-0.144-0.312-0.298-0.372c-0.201-0.078-0.406-0.041-0.604,0.022
					C528.352,266.359,528.434,266.663,528.627,266.601"/>
				<path clip-path="url(#SVGID_16_)" fill="#F5952F" d="M529.446,267.675c0.017-0.044,0.003-0.042-0.041,0.006
					c0.022-0.003,0.044,0.005,0.066,0.01c0.053,0.012,0.106,0.027,0.159,0.041c0.057,0.015,0.112,0.031,0.164,0.059
					c0.06,0.033,0.017-0.066,0.091-0.072c-0.167,0.013-0.333-0.106-0.493-0.138c-0.198-0.039-0.282,0.264-0.083,0.303
					c0.161,0.031,0.309,0.113,0.472,0.14c0.183,0.029,0.405-0.061,0.343-0.287c-0.063-0.229-0.31-0.276-0.509-0.332
					c-0.096-0.026-0.197-0.052-0.296-0.022c-0.133,0.041-0.173,0.171-0.187,0.294C529.108,267.876,529.423,267.874,529.446,267.675"
					/>
				<path clip-path="url(#SVGID_16_)" fill="#F5952F" d="M530.339,269.322c0.001-0.024,0.002-0.049,0.003-0.073
					c0.004-0.071,0.026-0.026-0.028-0.022c0.055-0.004,0.129,0.029,0.182,0.046c0.067,0.021,0.13,0.049,0.192,0.082
					c0.034,0.019,0.066,0.04,0.096,0.065c0.074,0.062,0.01,0.062,0.038-0.019l0.072-0.094c0.049-0.035-0.007-0.024-0.054-0.042
					c-0.061-0.023-0.124-0.041-0.188-0.059c-0.123-0.032-0.252-0.05-0.38-0.049c-0.203,0.001-0.203,0.315,0,0.314
					c0.136-0.001,0.263,0.026,0.393,0.065c0.115,0.034,0.215,0.088,0.338,0.065c0.098-0.019,0.139-0.128,0.125-0.215
					c-0.015-0.1-0.107-0.184-0.184-0.24c-0.177-0.131-0.411-0.216-0.631-0.235c-0.238-0.022-0.283,0.234-0.29,0.409
					C530.017,269.524,530.331,269.523,530.339,269.322"/>
				<path clip-path="url(#SVGID_16_)" fill="#F5952F" d="M531.295,270.893c0-0.032-0.001-0.063-0.004-0.096
					c-0.019,0.049-0.002,0.062,0.048,0.042c0.033,0,0.065,0.002,0.098,0.006c0.094,0.008,0.217,0.02,0.303,0.062
					c0.071,0.035-0.127,0.033-0.151,0.032c-0.052-0.003-0.105-0.001-0.157-0.005c-0.039-0.002-0.125-0.052-0.104,0.006
					c-0.005,0.04-0.011,0.081-0.016,0.121c-0.057,0.033-0.067,0.045-0.029,0.036c0.051-0.005,0.101,0.01,0.149,0.021
					c0.089,0.022,0.174,0.051,0.265,0.063c0.109,0.015,0.187-0.041,0.199-0.151c0.035-0.312-0.322-0.336-0.543-0.334
					c-0.202,0.002-0.203,0.316,0,0.314c0.05-0.001,0.099-0.002,0.148,0c0.026,0.001,0.048,0.004,0.073,0.01
					c0.045,0.01,0.013-0.035,0.007,0.01c0.066-0.051,0.133-0.102,0.199-0.151c-0.19-0.026-0.375-0.125-0.571-0.088
					c-0.134,0.025-0.243,0.149-0.163,0.286c0.082,0.141,0.283,0.164,0.427,0.174c0.15,0.009,0.335,0.03,0.463-0.065
					c0.119-0.089,0.17-0.276,0.097-0.411c-0.069-0.127-0.2-0.181-0.336-0.205c-0.177-0.031-0.361-0.068-0.538-0.018
					c-0.177,0.05-0.179,0.189-0.181,0.341C530.978,271.096,531.292,271.095,531.295,270.893"/>
				<path clip-path="url(#SVGID_16_)" fill="#F5952F" d="M532.199,272.57c0.036-0.125,0.082-0.081,0.194-0.033
					c0.105,0.045,0.205,0.085,0.294,0.159c0.022,0.02,0.043,0.041,0.062,0.064c0.017,0.05,0.038,0.039,0.064-0.032
					c-0.047,0.005-0.121-0.034-0.166-0.046c-0.079-0.021-0.16-0.035-0.239-0.055c-0.038-0.009-0.074-0.022-0.108-0.041
					c-0.033-0.035-0.036-0.017-0.008,0.056c-0.024,0.031-0.048,0.062-0.072,0.094c0.063-0.044,0.406,0.166,0.486,0.192
					c0.193,0.063,0.275-0.24,0.083-0.303c-0.204-0.066-0.377-0.202-0.599-0.202c-0.149,0-0.266,0.154-0.188,0.293
					c0.09,0.159,0.276,0.206,0.442,0.242c0.156,0.035,0.358,0.137,0.512,0.047c0.363-0.213-0.111-0.623-0.325-0.707
					c-0.138-0.055-0.281-0.141-0.435-0.124c-0.173,0.018-0.258,0.158-0.301,0.312C531.841,272.683,532.144,272.766,532.199,272.57"
					/>
				<path clip-path="url(#SVGID_16_)" fill="#F5952F" d="M533.104,274.169c0.041-0.11,0.326,0.029,0.402,0.066
					c0.071,0.034,0.105,0.116,0.144,0.181c0.024,0.04,0.052,0.079,0.078,0.118c0.045,0.068,0.039-0.114,0.083-0.115
					c-0.104,0.002-0.212-0.048-0.315-0.062c-0.121-0.016-0.321-0.06-0.354-0.195c-0.036,0.064-0.073,0.129-0.109,0.193
					c0.187-0.048,0.397,0.118,0.578,0.157c0.197,0.043,0.281-0.26,0.083-0.303c-0.255-0.056-0.472-0.228-0.744-0.157
					c-0.084,0.022-0.13,0.111-0.11,0.193c0.073,0.292,0.379,0.378,0.64,0.424c0.156,0.028,0.525,0.166,0.565-0.099
					c0.022-0.147-0.095-0.269-0.166-0.387c-0.083-0.14-0.191-0.219-0.342-0.275c-0.289-0.109-0.604-0.177-0.734,0.176
					C532.731,274.275,533.035,274.357,533.104,274.169"/>
				<path clip-path="url(#SVGID_16_)" d="M563.973,337.542c-0.628-0.117-1.168-0.5-0.824-0.795c0.157-0.039,0.648-0.167,0.726-0.167
					c-0.177-0.952-5.131-26.11-5.209-26.66c0.393,0.707,0.72,0.812,0.942,0.628c0.379-0.327-0.065-4.397-0.393-5.851
					c-0.105-0.838-0.131-3.221,0.17-3.338c0.131,0.052,0.242,0.382,0.38,0.759c0.36,0.981,3.03,5.524,5.065,6.689
					c0.144,0.064,0.092-0.026,0.026-0.21c-0.455-1.27-2.212-6.113-4.699-10.864c-0.681-1.61-1.257-3.73-0.825-5.838
					c0.118-0.033,0.275,0.248,0.314,0.366c0.02,0.189,0.026,0.38,0.007,0.432c0.857-0.177,2.742-0.575,3.495-0.727
					c0.752-0.15,5.392-1.131,6.917-1.615c0.19-0.098,0.204-0.328,0.191-0.452c-0.294-3.122-2.284-11.565-2.546-12.521
					c-0.262-0.956-0.366-1.126-0.956-1.532c-0.431-0.332-1.113-0.759-1.551-1.243c-0.249-0.274-0.596-0.661,0.583-0.812
					c-0.426-0.209-0.818-0.419-0.936-1.047c-0.118-0.629-0.498-1.329-0.936-1.813c-0.157-0.144-0.635-1.197-0.72-1.597
					c-0.137,1.349-0.229,1.728-0.68,2.998c-0.452,1.27-5.616,17.611-5.727,17.909c0,0-0.069-1.737,1.355-8.885
					c0.864-5.144,1.669-5.557,0.098-11.898c-0.383,0.433-0.737,1.719-0.58,2.032c0.157,0.314,0.177,0.845-0.02,0.982
					c-0.196,0.137-0.422,0.412-1.188,0.146c-0.766-0.265-1.109-0.402-1.846,0.157s-3.151,4.202-6.656,12.772
					c-0.088,0.157-0.216,0.226-0.265,0.216c-3.613-2.042-9.071-5.37-9.641-5.743c0,0-0.049,0.118-0.501-0.54
					c-0.177-0.177-0.098-0.638-0.137-0.962c-0.04-0.324-0.098-1.207-1.649-3.927c-0.343-0.628-0.981-1.129-1.482-1.708
					c-0.5-0.579-1.158-1.826-1.227-2.071c-0.069-0.246-0.324-0.511-0.373-0.442c-0.049,0.069-0.246,0.462-0.029,1.698
					c0.216,0.363,1.629,2.749,1.629,2.798c0,0.05-0.029,0.305-0.569,0.285s-1.718-0.059-1.924,0.285
					c-0.059,0.127,0.02,0.373,0.088,0.55c0.069,0.176,0.324,0.539,0.688,0.716c0.078,0.128-0.01,0.196,0.157,0.53
					c0.167,0.334,1.306,2.111,1.844,2.385c0.265,0.138,0.542,0.09,0.62,0.09c0.412,0,1.109,0.01,1.306,0.088
					c0.314,0.088,0.697,0.344,0.746,0.402c-0.127,0.177-0.52,0.648-0.628,0.736c1.041,0.756,4.078,2.851,4.438,3.093
					s3.671,2.323,4.117,2.565s1.918,1.067,2.978,1.349c0.098,0.013,0.517-0.099,0.543-0.131c2.474-4.195,4.32-8.103,4.916-9.131
					c0.752-1.289,1.499-2.297,2.101-2.074c0.184,0.065,0.524,0.386,0.498,0.838c-0.026,0.451-0.17,0.916-0.222,1.335
					c-0.053,0.419-0.184,1.204-0.288,1.853c-0.105,0.647-2.042,10.072-2.356,13.842c-0.235,3.194,0.04,5.053,0.196,8.47
					c0.406,6.754,0.484,9.254,0.55,10.472c0.026,1.97,1.558,22.03,1.217,23.94c-0.592,0.217-2.909,0.806-3.557,1.021
					s-3.613,1.197-3.799,2.12c0.609,0.157,3.112,0.285,9.759-0.471c0.049-0.864-0.049-1.797-0.511-2.376
					c-0.177-0.235-0.481-0.845,0.461-0.933c-0.118-1.453-0.383-4.173-0.442-5.174c-0.157-1.715-1.021-20.747-1.139-25.289
					c0.393,2.29,1.034,5.76,1.23,7.068s2.33,13.482,2.5,14.896c0.17,1.413,1.375,8.43,1.492,8.743
					c0.236,0.04,0.697,0.295,0.727,0.697c0.03,0.402,0.108,0.422-0.079,0.756s-0.402,1.492-0.304,1.924
					c1.522,0.188,8.963,0.934,9.867,0.727C571.494,340.596,571.582,339.182,563.973,337.542 M559.595,290.792
					c0,0,2.926-11.123,5.498-11.761c0.383-0.039,1.767,2.13,3.416,10.465c-1.257,0.146-8.148,1.188-8.914,1.336V290.792z"/>
			</g>
		</g>
	</g>
	<g id="Ebene_13">
		<g id="Ebene_1_1_">
			<g id="Ebene_3_1_">
				<path fill="#010101" d="M700.484,275.443c0,0-6.784,1.793,5.439,10.049c0.448,0.064,3.713,5.89,4.374,7.383
					c0.363,1.066,0.512,0.853,0.512,2.133c0,1.278-5.087,12.678-5.558,13.445c0.727,0.043,1.409-0.512,2.347-1.706
					c0.938-1.196,3.603-5.783,3.603-5.783s-0.401,2.156-0.83,4.333c-0.425,2.176-1.023,3.498-0.383,4.906
					c0,0,1.206-1.115,2.314-5.083c0.042,1.536-3.136,25.316-3.382,26.606c-0.246,1.292-0.577,1.96-0.956,2.601
					c-0.357,0.626-1.901,1.551-3.353,2.531c-1.45,0.981-4.011,2.177-4.011,3.371c0.086,0.299,3.081-0.058,8.757-2.489
					c2.56,0.471,10.365,2.207,10.876,1.567c0,0-0.469-1.066-5.034-3.328c-1.194-0.556-3.708-1.091-3.537-2.755
					c0,0,4.146-26.895,4.7-35.854c0,0-0.484-5.979-0.772-6.619c0,0-2.765-13.239-3.244-14.303c0,0,10.157,6.301,12.257,7.789
					c0.373,0,1.41-0.979,1.011-1.329c-0.85-0.744-11.69-10.024-13.803-10.697c-0.801-0.224-1.024,0.063-1.376,0.225
					c-0.352,0.159-1.056-0.128-1.28-0.545c-0.224-0.416-0.063-0.64,0.192-0.862c0.256-0.225-1.761-1.697-2.656-1.856
					c0.896,1.504,5.12,8.48,5.697,16.235c0,0-5.889-14.935-9.132-15.361c0,0-0.598,1.173-0.246,2.005
					c0.161,0.353,0.064,0.737-0.542,1.024c-0.193,0.064-0.417,0.097-0.417,0.097s0.447,0.352,0.769,0.448
					c0.318,0.095,0.607,0.287,0.607,0.287"/>
				<path fill="#010101" d="M695.828,266.593c0,0,11.509-7.192,12.389-7.328c-0.205-0.373-2.631-0.279-4.041,0.561
					c-1.408,0.838-2.622,2.134-5.756,2.991C696.494,264.273,694.972,266.56,695.828,266.593z"/>
				<path fill="#010101" d="M702.043,256.575c0,0-4.061,1.93-4.914,2.616c-1.222-2.663-5.982-7.813-7.587-8.276
					c0.409-1.31,5.942-6.108,7.411-6.309C698.284,247.045,702.025,255.607,702.043,256.575z"/>
				<path fill="#F5942F" d="M698.42,262.816c0,0,3.507-1.063,5.757-2.991c0.274-0.737-0.498-0.76-0.498-0.76
					s0.215-0.314-0.026-0.434s-0.388-0.312-0.256-0.639c0.132-0.325-0.51-0.672-0.51-0.672s-0.137-0.881-0.812-0.976
					c-0.676-0.094-5.336,2.448-5.552,2.763s-0.433,0.63,0.11,0.445c0.542-0.183,0.122,0.362,0.122,0.362s-0.216,0.315,0.195,0.457
					c0.411,0.144,0.303,0.301,0.352,0.566c0.051,0.265-0.273,0.737,0.317,0.819c0.591,0.083,0.341,0.65,0.341,0.65
					S698.047,263.022,698.42,262.816z"/>
			</g>
			<g id="Ebene_6_1_">
				<path fill="#FFFFFF" stroke="#010101" stroke-linecap="round" stroke-linejoin="round" stroke-miterlimit="10" d="
					M748.081,253.104l0.265-2.074c0,0,1.277,0,1.384,0.532s-2.659,22.12-3.829,24.673c-1.17,2.552-10.635,7.392-14.251,9.093
					s-5.742,1.914-5.955,1.595c-0.214-0.318,0.849-26.268,0.849-26.268s0.213,0.638,3.298-0.053
					c3.084-0.69,16.856-5.69,19.729-8.508"/>
			</g>
			<g id="Ebene_2">
				<polyline fill="none" stroke="#039BA4" stroke-linecap="round" stroke-linejoin="round" stroke-miterlimit="10" points="
					731.479,287.047 728.346,277.553 727.425,276.17 727.517,278.105 731.05,287.17 731.418,287.108 727.763,277.43 				"/>
			</g>
			<g id="Ebene_4">
				<path fill="#010101" d="M747.318,269.27c0,0-2.729,1.879-2.41,2.198c0.318,0.318-0.479,0.744-0.053,1.062
					c0,0.427-0.585,0.904,0.053,1.224c0.638,0.318,2.747-1.08,2.588-1.453c-0.16-0.373,0.319-0.531,0.105-0.957
					c-0.212-0.426,0.639-0.904,0.319-1.223c-0.319-0.319-0.371-0.691-0.744-0.479"/>
				<path fill="#010101" d="M715.272,290.061c0,0,9.146-5.529,9.997-5.477c0.852,0.054,2.449,0.032,2.907-0.143
					c1.118-0.425,4.804-2.782,3.581-2.836c0.479-0.265,0.105-0.796-0.374-0.957c0.374-0.479,0.904-0.903,0.374-0.956
					c-0.532-0.054-4.52,1.689-5.478,1.542c-0.691-0.106-0.532-0.531-0.425-0.957c0.105-0.427-0.586-0.16-0.853,0.266
					c-0.265,0.426-0.425,1.116-0.743,2.233c0,0-7.817,4.573-9.837,5.104"/>
			</g>
		</g>
	</g>
	<g id="Ebene_26">
		<path fill="none" stroke="#009BA4" stroke-linecap="round" stroke-linejoin="round" stroke-miterlimit="10" d="M599.918,291.742
			c0,0,0.917,0.417,1.667,1.417"/>
		<path fill="none" stroke="#009BA4" stroke-linecap="round" stroke-linejoin="round" stroke-miterlimit="10" d="M590.668,294.992
			c0,0,1.584-0.501,1.917-0.417"/>
		<path fill="none" stroke="#009BA4" stroke-linecap="round" stroke-linejoin="round" stroke-miterlimit="10" d="M593.668,271.409
			c0,0-1.917,4.084-1.25,5.75s3.332,8.466,3.332,8.466s-7.248-11.049-6.998-15.216"/>
		<path fill="none" stroke="#009BA4" stroke-linecap="round" stroke-linejoin="round" stroke-miterlimit="10" d="M631.918,270.159
			c0,0,0.667,2.584-0.833,5.25s-4.797,9.989-4.583,9.166c1.166-4.5,2.583-8.332,1.75-10.666c-0.834-2.334-1-3.25-1-3.25"/>
		<path fill="none" stroke="#009BA4" stroke-linecap="round" stroke-linejoin="round" stroke-miterlimit="10" d="M631.002,294.742
			c0,0-0.417-0.667-2.167-0.25"/>
		<path fill="none" stroke="#009BA4" stroke-linecap="round" stroke-linejoin="round" stroke-miterlimit="10" d="M614.168,263.825
			c0,0-1.666,0.584-2.083,0.584"/>
		<path fill="none" stroke="#009BA4" stroke-linecap="round" stroke-linejoin="round" stroke-miterlimit="10" d="M670.418,268.409
			c0,0-0.5,2.666-1.584,4.166c-1.082,1.5-2,2.834-6.416,12.834c0.75-4.5,2.5-10.917,2.583-12.417s0.583-4.083,1.583-5.25"/>
		
			<line fill="none" stroke="#009BA4" stroke-linecap="round" stroke-linejoin="round" stroke-miterlimit="10" x1="687.751" y1="268.659" x2="688.834" y2="269.742"/>
		<path fill="none" stroke="#009BA4" stroke-linecap="round" stroke-linejoin="round" stroke-miterlimit="10" d="M647.834,266.075
			c0,0,1.084-0.083,1.5-0.583"/>
		<path fill="none" stroke="#009BA4" stroke-linecap="round" stroke-linejoin="round" stroke-miterlimit="10" d="M632.918,310.828
			c0,0-0.834,1.25-5.834-6.75c0.25,3.333,1.5,7.417,1.5,7.417"/>
		<path fill="none" stroke="#009BA4" stroke-linecap="round" stroke-linejoin="round" stroke-miterlimit="10" d="M592.668,311.411
			c0,0,1.833-5.5,1.333-7.083c-1.667,2.667-4.333,6.667-6.083,6.5"/>
		
			<line fill="none" stroke="#009BA4" stroke-linecap="round" stroke-linejoin="round" stroke-miterlimit="10" x1="671.834" y1="311.828" x2="666.918" y2="304.578"/>
		<path fill="none" stroke="#009BA4" stroke-linecap="round" stroke-linejoin="round" stroke-miterlimit="10" d="M662.418,313.328
			c0,0,0.314-5.439-0.168-8.167c-0.25-1.417-0.082-2.916-0.082-2.916"/>
		
			<line fill="none" stroke="#009BA4" stroke-linecap="round" stroke-linejoin="round" stroke-miterlimit="10" x1="669.001" y1="340.411" x2="671.418" y2="340.661"/>
		
			<line fill="none" stroke="#009BA4" stroke-linecap="round" stroke-linejoin="round" stroke-miterlimit="10" x1="657.834" y1="340.577" x2="660.168" y2="340.577"/>
		<polyline fill="none" stroke="#009BA4" stroke-linecap="round" stroke-linejoin="round" stroke-miterlimit="10" points="
			623.751,340.911 624.834,340.827 626.418,341.077 		"/>
		<polyline fill="none" stroke="#009BA4" stroke-linecap="round" stroke-linejoin="round" stroke-miterlimit="10" points="
			594.668,340.827 595.834,340.827 597.668,341.077 		"/>
		<path fill="none" stroke="#009BA4" stroke-linecap="round" stroke-linejoin="round" stroke-miterlimit="10" d="M588.063,256.744
			c0,0,4.438-0.688,5.938,0.312"/>
		<path fill="none" stroke="#009BA4" stroke-linecap="round" stroke-linejoin="round" stroke-miterlimit="10" d="M627.313,256.494
			c0,0,2.938-1.125,5.25-0.188"/>
		
			<line fill="none" stroke="#009BA4" stroke-linecap="round" stroke-linejoin="round" stroke-miterlimit="10" x1="671.438" y1="254.994" x2="675.313" y2="257.369"/>
		
			<line fill="none" stroke="#009BA4" stroke-linecap="round" stroke-linejoin="round" stroke-miterlimit="10" x1="533.875" y1="275.125" x2="524.125" y2="258.5"/>
		<path fill="none" stroke="#009BA4" stroke-linecap="round" stroke-linejoin="round" stroke-miterlimit="10" d="M558.25,269.625
			c0,0-0.125,2.25,0.375,3.875s-0.25,5.375-0.75,6.875S556,290,556.25,291c2.375-5.875,7.25-20,7-21.75"/>
		
			<line fill="none" stroke="#009BA4" stroke-linecap="round" stroke-linejoin="round" stroke-miterlimit="10" x1="559.875" y1="292.75" x2="560.125" y2="291.25"/>
		
			<line fill="none" stroke="#009BA4" stroke-linecap="round" stroke-linejoin="round" stroke-miterlimit="10" x1="724.26" y1="282.776" x2="725.27" y2="284.584"/>
		<path fill="none" stroke="#009BA4" stroke-linecap="round" stroke-linejoin="round" stroke-miterlimit="10" d="M705.625,308.75
			c0,0,0.5,0,2.875-3.625s2.701-4.161,2.701-4.161s-1.826,8.286-1.076,8.786"/>
		<polyline fill="none" stroke="#009BA4" stroke-linecap="round" stroke-linejoin="round" stroke-miterlimit="10" points="
			708.375,334 710,333.625 711.625,333.875 		"/>
		
			<line fill="none" stroke="#009BA4" stroke-linecap="round" stroke-linejoin="round" stroke-miterlimit="10" x1="536.625" y1="281" x2="538.125" y2="280"/>
		
			<line fill="none" stroke="#009BA4" stroke-linecap="round" stroke-linejoin="round" stroke-miterlimit="10" x1="561.25" y1="336.875" x2="563.5" y2="336.375"/>
		
			<line fill="none" stroke="#009BA4" stroke-linecap="round" stroke-linejoin="round" stroke-miterlimit="10" x1="557.625" y1="336.5" x2="555.625" y2="336.5"/>
		<path fill="none" stroke="#009BA4" stroke-linecap="round" stroke-linejoin="round" stroke-miterlimit="10" d="M564.875,308.625
			c0,0-3.625-3.75-5.5-7.625c-0.625,1.75-0.5,3.25-0.125,4.875s0.5,3.875,0.25,4.75"/>
		<path fill="none" stroke="#009BA4" stroke-linecap="round" stroke-linejoin="round" stroke-miterlimit="10" d="M562.375,254.625
			c0,0,4.25,1,5.25,2.125"/>
		<path fill="none" stroke="#009BA4" stroke-linecap="round" stroke-linejoin="round" stroke-miterlimit="10" d="M696.75,258.375
			c0,0,4.375-2.625,5.125-2.5"/>
		<path fill="none" stroke="#009BA4" stroke-linecap="round" stroke-linejoin="round" stroke-miterlimit="10" d="M703.257,270.046
			c0,0,4.118,2.454,9.243,16.079c-0.875-7.5-4.75-15.5-6.25-17.375"/>
	</g>
</g>
<g id="License">
	<g id="Ebene_11">
		<g id="Ebene_3">
			<path fill="#FFFFFF" stroke="#010101" stroke-miterlimit="10" d="M251.706,55.981l-0.342,76.544c0,0-86.001,25.408-93.541,31.198
				c-1.371-11.257-14.048-112.566-13.022-118.035C144.802,45.688,234.233,51.478,251.706,55.981z"/>
			<path fill="#010101" d="M213.502,146.997c0,0,26.555,55.32,31.692,65.934c5.998,0.966,3.939-1.448,3.939-1.448l-34.778-67.863
				l-5.999,2.251l-7.708,62.879c2.912,1.928,4.795,0.641,4.795,0.641l5.396-63.359c0,0-1.112,64.326-2.483,72.364
				c1.888,1.931,5.142,0,5.142,0l-0.173-72.846"/>
			<path fill="none" stroke="#010101" stroke-miterlimit="10" d="M156.281,162.437c0,0-14.731-113.693-12.504-116.749"/>
		</g>
	</g>
	<g id="Ebene_12">
		<path fill="#FFFFFF" stroke="#010101" stroke-linecap="round" stroke-linejoin="round" stroke-miterlimit="10" d="M340.06,148.5
			c0,0,0.606,66.047-1.06,66.5c-1.667,0.455-107.25-1.212-107.25-1.212s-2.121-63.47-0.455-65.894
			C246.747,148.348,339.454,148.348,340.06,148.5c0.606,0.151-3.938-4.091-3.938-4.091l-97.555-0.454l-7.271,3.938"/>
		<g>
			<g>
				<defs>
					
						<rect id="SVGID_17_" x="237.15" y="192.771" transform="matrix(-0.9999 -0.0106 0.0106 -0.9999 487.5997 404.4043)" width="15.453" height="16.267"/>
				</defs>
				<clipPath id="SVGID_18_">
					<use xlink:href="#SVGID_17_"  overflow="visible"/>
				</clipPath>
				<g clip-path="url(#SVGID_18_)">
					<defs>
						<path id="SVGID_19_" d="M239.41,204.164c-0.302,1.071-0.385,4.179-0.312,4.361c0.073,0.178,4.646,1.017,7.392-0.119
							c0,0,0.008-0.566,0.01-0.759c0.002-0.187-0.188-0.389-0.438-0.512c0.171,0.063,0.353-0.104,0.333-0.227
							c-0.035-0.211,0.028-0.607-0.209-0.641c-0.24-0.031,0.001-0.133,0.077-0.177c0.074-0.045-0.099-0.48-0.173-0.571
							c-0.076-0.09-0.042-0.314-0.086-0.524c-0.042-0.208-0.097-0.582-0.36-1.096c-0.178-0.343,0.005-1.88,0.537-2.83
							c-0.104-0.001-0.538,0.115-2.591-0.834c-0.936-0.412-1.924-1.499-1.924-1.499S239.868,202.54,239.41,204.164"/>
					</defs>
					<clipPath id="SVGID_20_">
						<use xlink:href="#SVGID_19_"  overflow="visible"/>
					</clipPath>
					
						<radialGradient id="SVGID_21_" cx="371" cy="8" r="1.0002" gradientTransform="matrix(3.7774 5.8219 5.8219 -3.7774 -1207.7394 -1931.1538)" gradientUnits="userSpaceOnUse">
						<stop  offset="0" style="stop-color:#424142"/>
						<stop  offset="0.051" style="stop-color:#424142"/>
						<stop  offset="0.6084" style="stop-color:#302D2E"/>
						<stop  offset="1" style="stop-color:#252122"/>
					</radialGradient>
					<polygon clip-path="url(#SVGID_20_)" fill="url(#SVGID_21_)" points="244.345,195.323 251.482,206.323 241.261,212.956 
						234.124,201.955 					"/>
				</g>
				<g clip-path="url(#SVGID_18_)">
					<defs>
						
							<rect id="SVGID_22_" x="237.15" y="192.771" transform="matrix(-0.9999 -0.0106 0.0106 -0.9999 487.5997 404.4048)" width="15.453" height="16.266"/>
					</defs>
					<clipPath id="SVGID_23_">
						<use xlink:href="#SVGID_22_"  overflow="visible"/>
					</clipPath>
					<path clip-path="url(#SVGID_23_)" fill="#F5952F" d="M246.943,199.969c0,0-0.021,0.603-0.29,0.586
						c-0.094,0.105,0.034,0.413-0.212,0.41c-0.247-0.002,0.45,0.423-1.01,0.125c-2.267-0.644-3.436-1.904-3.958-2.484
						c0,0-0.195-0.414,0.159-0.457c0.354-0.042,0.048-0.244,0.048-0.244s-0.166-0.321,0.405-0.468
						c-0.106-0.109-0.372-0.475-0.048-0.561c0.324-0.088,0.495-0.168,0.441-0.268c0,0-0.079-0.377,0.196-0.37
						c0.592,0.472,3.952,2.844,4.756,3.408c0,0-0.188,0.026-0.279,0.21c0,0,0.006,0.114-0.101,0.113"/>
				</g>
				<g clip-path="url(#SVGID_18_)">
					<defs>
						<path id="SVGID_24_" d="M239.484,192.968c0.308,0.979,0.884,1.758,2.47,3.036c4.303,3.467,6.651,4.478,6.651,4.478
							c1.471,0.681,2.262,0.607,2.262,0.607c0.041-0.019,0.102-0.156,0.102-0.156l-11.375-8.142
							C239.564,192.834,239.559,192.847,239.484,192.968"/>
					</defs>
					<clipPath id="SVGID_25_">
						<use xlink:href="#SVGID_24_"  overflow="visible"/>
					</clipPath>
					
						<linearGradient id="SVGID_26_" gradientUnits="userSpaceOnUse" x1="370.9995" y1="8.0215" x2="371.9998" y2="8.0215" gradientTransform="matrix(5.581 6.1694 6.1694 -5.581 -1878.7942 -2051.4768)">
						<stop  offset="0" style="stop-color:#252122"/>
						<stop  offset="0.1807" style="stop-color:#3E3E3F"/>
						<stop  offset="0.4492" style="stop-color:#2E2C2D"/>
						<stop  offset="0.6477" style="stop-color:#231F20"/>
						<stop  offset="1" style="stop-color:#231F20"/>
					</linearGradient>
					<polygon clip-path="url(#SVGID_25_)" fill="url(#SVGID_26_)" points="245.786,187.09 255.123,197.412 244.666,206.872 
						235.329,196.551 					"/>
				</g>
				<g clip-path="url(#SVGID_18_)">
					<defs>
						<path id="SVGID_27_" d="M239.604,193.03c0.198,0.602,0.816,1.274,0.925,1.375c0,0,2.972,3.384,8.617,6.178
							c1.625,0.794,2.367,0.508,1.479-0.367c-0.889-0.876-3.921-3.608-8.643-6.348c-1.123-0.638-1.948-1.123-2.267-1.126
							C239.581,192.74,239.537,192.827,239.604,193.03"/>
					</defs>
					<clipPath id="SVGID_28_">
						<use xlink:href="#SVGID_27_"  overflow="visible"/>
					</clipPath>
					
						<radialGradient id="SVGID_29_" cx="371" cy="7.999" r="1" gradientTransform="matrix(6.3254 6.3712 6.3712 -6.3254 -2156.0935 -2120.2378)" gradientUnits="userSpaceOnUse">
						<stop  offset="0" style="stop-color:#3E3E3F"/>
						<stop  offset="0.5748" style="stop-color:#2E2C2D"/>
						<stop  offset="1" style="stop-color:#231F20"/>
					</radialGradient>
					<polygon clip-path="url(#SVGID_28_)" fill="url(#SVGID_29_)" points="245.548,186.772 255.814,197.112 245.5,207.353 
						235.234,197.013 					"/>
				</g>
				<g clip-path="url(#SVGID_18_)">
					<defs>
						
							<rect id="SVGID_30_" x="237.15" y="192.771" transform="matrix(-0.9999 -0.0106 0.0106 -0.9999 487.5997 404.4048)" width="15.453" height="16.266"/>
					</defs>
					<clipPath id="SVGID_31_">
						<use xlink:href="#SVGID_30_"  overflow="visible"/>
					</clipPath>
					<path clip-path="url(#SVGID_31_)" d="M243.682,195.754c0,0-0.534-0.216-0.134,0.147c0.398,0.363,3.492,2.652,3.912,2.657
						c0.241,0.002-0.311-0.427-1.341-1.211C245.629,196.974,244.804,196.375,243.682,195.754"/>
				</g>
			</g>
		</g>
		<g id="Ebene_6">
			<g>
				<g>
					<path fill="#F5952F" d="M348.668,127.031c1.937,0,1.954-3.001,0.021-3.001C346.753,124.03,346.736,127.031,348.668,127.031
						L348.668,127.031z"/>
				</g>
			</g>
			<g>
				<g>
					<path fill="#F5952F" d="M342.988,147.204c1.937,0,1.954-3.001,0.021-3.001C341.073,144.203,341.056,147.204,342.988,147.204
						L342.988,147.204z"/>
				</g>
			</g>
			<g>
				<g>
					<path fill="#F5952F" d="M338.328,150.699c1.937,0,1.954-3.001,0.021-3.001C336.412,147.698,336.395,150.699,338.328,150.699
						L338.328,150.699z"/>
				</g>
			</g>
			<g>
				<g>
					<path fill="#F5952F" d="M334.25,142.543c1.937,0,1.954-3.001,0.021-3.001C332.334,139.542,332.317,142.543,334.25,142.543
						L334.25,142.543z"/>
				</g>
			</g>
			<g>
				<g>
					<path fill="#F5952F" d="M315.242,134.241c1.937,0,1.954-3.001,0.021-3.001C313.327,131.24,313.31,134.241,315.242,134.241
						L315.242,134.241z"/>
				</g>
			</g>
			<g>
				<g>
					<path fill="#F5952F" d="M234.991,150.481c1.937,0,1.954-3.001,0.021-3.001C233.075,147.48,233.058,150.481,234.991,150.481
						L234.991,150.481z"/>
				</g>
			</g>
			<g>
				<g>
					<path fill="#F5952F" d="M233.68,148.078c1.937,0,1.954-3.001,0.021-3.001C231.764,145.077,231.747,148.078,233.68,148.078
						L233.68,148.078z"/>
				</g>
			</g>
			<g>
				<g>
					<path fill="#F5952F" d="M242.2,138.465c1.937,0,1.954-3.001,0.021-3.001C240.285,135.464,240.268,138.465,242.2,138.465
						L242.2,138.465z"/>
				</g>
			</g>
			<g>
				<g>
					<path fill="#F5952F" d="M235.646,131.474c1.937,0,1.954-3.001,0.021-3.001C233.73,128.473,233.713,131.474,235.646,131.474
						L235.646,131.474z"/>
				</g>
			</g>
			<g>
				<g>
					<path fill="#F5952F" d="M223.412,159.657c1.937,0,1.954-3.001,0.021-3.001C221.496,156.656,221.479,159.657,223.412,159.657
						L223.412,159.657z"/>
				</g>
			</g>
			<g>
				<g>
					<path fill="#F5952F" d="M342.988,164.682c1.937,0,1.954-3.001,0.021-3.001C341.073,161.681,341.056,164.682,342.988,164.682
						L342.988,164.682z"/>
				</g>
			</g>
			<g>
				<g>
					<path fill="#F5952F" d="M316.771,149.534c1.937,0,1.954-3.001,0.021-3.001C314.856,146.533,314.839,149.534,316.771,149.534
						L316.771,149.534z"/>
				</g>
			</g>
			<g>
				<g>
					<path fill="#F5952F" d="M244.822,148.952c1.937,0,1.954-3.001,0.021-3.001C242.906,145.951,242.889,148.952,244.822,148.952
						L244.822,148.952z"/>
				</g>
			</g>
			<g>
				<g>
					<path fill="#F5952F" d="M250.284,141.96c1.937,0,1.954-3.001,0.021-3.001C248.368,138.959,248.351,141.96,250.284,141.96
						L250.284,141.96z"/>
				</g>
			</g>
			<g>
				<g>
					<path fill="#F5952F" d="M248.754,128.197c1.937,0,1.954-3.001,0.021-3.001C246.839,125.196,246.822,128.197,248.754,128.197
						L248.754,128.197z"/>
				</g>
			</g>
			<g>
				<g>
					<path fill="#F5952F" d="M223.849,136.717c1.937,0,1.954-3.001,0.021-3.001C221.933,133.716,221.916,136.717,223.849,136.717
						L223.849,136.717z"/>
				</g>
			</g>
			<g>
				<g>
					<path fill="#F5952F" d="M243.168,119.989c1.937,0,1.954-3.001,0.021-3.001C241.253,116.988,241.236,119.989,243.168,119.989
						L243.168,119.989z"/>
				</g>
			</g>
			<g>
				<g>
					<path fill="#F5952F" d="M246.668,105.489c1.937,0,1.954-3.001,0.021-3.001C244.753,102.488,244.736,105.489,246.668,105.489
						L246.668,105.489z"/>
				</g>
			</g>
			<g>
				<g>
					<path fill="#F5952F" d="M205.168,82.989c1.937,0,1.954-3.001,0.021-3.001C203.253,79.988,203.236,82.989,205.168,82.989
						L205.168,82.989z"/>
				</g>
			</g>
			<g>
				<g>
					<path fill="#F5952F" d="M224.668,61.489c1.937,0,1.954-3.001,0.021-3.001C222.753,58.488,222.736,61.489,224.668,61.489
						L224.668,61.489z"/>
				</g>
			</g>
			<g>
				<g>
					<path fill="#F5952F" d="M213.668,138.989c1.937,0,1.954-3.001,0.021-3.001C211.753,135.988,211.736,138.989,213.668,138.989
						L213.668,138.989z"/>
				</g>
			</g>
			<g>
				<g>
					<path fill="#F5952F" d="M180.168,130.989c1.937,0,1.954-3.001,0.021-3.001C178.253,127.988,178.236,130.989,180.168,130.989
						L180.168,130.989z"/>
				</g>
			</g>
			<g>
				<g>
					<path fill="#F5952F" d="M173.668,111.489c1.937,0,1.954-3.001,0.021-3.001C171.753,108.488,171.736,111.489,173.668,111.489
						L173.668,111.489z"/>
				</g>
			</g>
		</g>
	</g>
	<g id="Ebene_3_Kopie">
		<text transform="matrix(1 0 0 1 177.6719 234.5254)" fill="#32323C" font-family="'Avenir-Medium'" font-size="14">QiTASC License and Training</text>
	</g>
</g>
<g id="Ebene_7">
	
		<polyline fill="#32323C" stroke="#32323C" stroke-width="2" stroke-linecap="round" stroke-linejoin="round" stroke-miterlimit="10" points="
		389.333,152.667 479.083,151.917 467.583,145.417 468.333,158.667 479.833,152.667 385.833,154.667 	"/>
	<text transform="matrix(1 0 0 1 689.6865 187.4155)"><tspan x="0" y="0" fill="#32323C" font-family="'Avenir-Medium'" font-size="14">Training, Consulting &amp;</tspan><tspan x="16.856" y="16.8" fill="#32323C" font-family="'Avenir-Medium'" font-size="14">License Reselling</tspan></text>
	
		<polyline fill="#32323C" stroke="#32323C" stroke-width="2" stroke-linecap="round" stroke-linejoin="round" stroke-miterlimit="10" points="
		713.839,151.334 803.589,150.584 792.089,144.084 792.839,157.334 804.339,151.334 710.339,153.334 	"/>
</g>
<g id="Ebene_8">
	<g id="Ebene_9">
		<path fill="none" stroke="#009BA4" stroke-width="2" stroke-linecap="round" stroke-linejoin="round" stroke-miterlimit="10" d="
			M599.932,178.824c0,0-10.28,12.787-13.303,12.787c-3.025,0-6.347,0.451-7.172-5.443c1.729,2.764,3.888,5.184,6.652,4.404
			c2.765-0.777,13.822-11.229,13.822-11.229"/>
		<path fill="none" stroke="#F5952F" stroke-width="2" stroke-linecap="round" stroke-linejoin="round" stroke-miterlimit="10" d="
			M599.24,193.596c0,0-5.961-6.564-1.122-11.057c3.9-3.622,6.912-3.975,9.417,0.346c2.505,4.318,3.11,11.318-2.593,12.094
			c-5.702,0.777-7.87-0.789-9.935-4.576c-2.063-3.789,3.456-12.183,8.38-10.11c4.925,2.074,6.739,8.554,3.716,11.923
			c-3.024,3.369-7.775,4.32-9.504,2.939"/>
		<path fill="none" stroke="#F5952F" stroke-width="2" stroke-linecap="round" stroke-linejoin="round" stroke-miterlimit="10" d="
			M607.188,181.244c0,0,0-3.715,2.852-5.185c2.851-1.468,4.925-1.123,7.086,2.161c2.157,3.283,2.504,9.243-0.521,11.403
			c-3.022,2.16-4.186,0.842-6.131-0.777c-1.949-1.617-5.426-9.435-2.594-12.269c2.938-2.936,5.185-1.812,7.172,0.434
			c1.986,2.245,6.048,9.849,3.195,11.921c-2.851,2.074-8.553,0.777-9.416-1.986"/>
		<path fill="none" stroke="#F5952F" stroke-width="2" stroke-linecap="round" stroke-linejoin="round" stroke-miterlimit="10" d="
			M617.902,174.808c0,0,0.345-2.895,3.715-4.624c3.369-1.727,5.527-1.554,7.084,0c1.555,1.556,5.27,10.073,1.296,12.595
			c-3.974,2.525-7.429,1.4-9.158-1.449c-1.728-2.852-3.239-8.056-0.482-10.348c2.755-2.291,4.543-3.647,7.049-0.539
			c2.505,3.111,4.32,7.361,3.455,9.848c-0.863,2.487-5.011,6.401-8.293,4.929c-3.284-1.473-5.355-8.124-5.183-9.593"/>
		<path fill="none" stroke="#009BA4" stroke-width="2" stroke-linecap="round" stroke-linejoin="round" stroke-miterlimit="10" d="
			M643.388,163.101c0,0-10.829,11.128-11.615,11.317c-0.785,0.189,12.479-6.306,12.997-7.602"/>
		<path fill="none" stroke="#F5952F" stroke-width="2" stroke-linecap="round" stroke-linejoin="round" stroke-miterlimit="10" d="
			M636.994,173.9c0,0,0.691,6.133-4.06,7.083c5.528-2.678,9.157-6.565,6.565-9.848"/>
		<path fill="none" stroke="#009BA4" stroke-width="2" stroke-linecap="round" stroke-linejoin="round" stroke-miterlimit="10" d="
			M596.995,194.893c0,0-2.938,2.09-9.589-3.273c4.578,3.965,8.033,5.975,9.934,3.977"/>
		
			<polyline fill="none" stroke="#F5952F" stroke-width="2" stroke-linecap="round" stroke-linejoin="round" stroke-miterlimit="10" points="
			558.551,169.149 563.699,171.135 558.81,166.211 		"/>
		<path fill="none" stroke="#F5952F" stroke-width="2" stroke-linecap="round" stroke-linejoin="round" stroke-miterlimit="10" d="
			M553.886,166.47l2.505,1.21c0,0,3.283-12.528,18.574-40.777c-2.073-0.95-3.801-1.123-3.801-1.123l4.407,2.765
			c0,0-18.229,37.752-19.266,42.937c-2.765-1.642-5.529-3.542-5.529-3.542"/>
		<path fill="none" stroke="#F5952F" stroke-width="2" stroke-linecap="round" stroke-linejoin="round" stroke-miterlimit="10" d="
			M535.397,160.423c0,0,12.44,6.825,13.477,7.516c2.506-6.135,19.006-43.714,21.167-46.565c-3.542-2.073-15.206-5.442-15.206-5.442
			l16.501,8.812c0,0-21.943,45.01-22.29,46.393c-0.345,1.383-13.65-10.108-13.65-10.108"/>
		
			<polyline fill="none" stroke="#F5952F" stroke-width="2" stroke-linecap="round" stroke-linejoin="round" stroke-miterlimit="10" points="
			582.223,151.438 587.406,152.648 583.943,149.624 		"/>
		
			<polyline fill="none" stroke="#009BA4" stroke-width="2" stroke-linecap="round" stroke-linejoin="round" stroke-miterlimit="10" points="
			631.119,125.002 626.974,125.002 647.103,172.086 653.495,167.335 647.967,167.939 628.96,126.816 631.739,125.78 		"/>
		<path fill="none" stroke="#009BA4" stroke-width="2" stroke-linecap="round" stroke-linejoin="round" stroke-miterlimit="10" d="
			M647.794,115.931l-16.675,7.603c0,0,17.193,39.567,27.991,47.084c4.32-3.11,10.28-9.848,10.28-10.455l-13.648,8.813
			c0,0-21.771-44.579-21.426-45.615C634.662,122.324,647.275,116.968,647.794,115.931"/>
		<path fill="none" stroke="#009BA4" stroke-width="2" stroke-linecap="round" stroke-linejoin="round" stroke-miterlimit="10" d="
			M607.362,132.951c0,0,2.678-3.37,3.974-3.456c1.296-0.086,17.279,0.864,17.279,0.864s-19.353-2.159-20.216-1.813
			c-0.864,0.345-2.506,1.641-2.766,2.332"/>
		<path fill="none" stroke="#009BA4" stroke-width="2" stroke-linecap="round" stroke-linejoin="round" stroke-miterlimit="10" d="
			M597.824,150.928c-4.969,2.477-24.973,12.555-29.425,16.493c-4.492,3.972-6.133,10.107-0.691,11.23
			c5.442,1.123,16.415-9.158,17.97-11.749"/>
		<path fill="none" stroke="#F5952F" stroke-width="2" stroke-linecap="round" stroke-linejoin="round" stroke-miterlimit="10" d="
			M598.118,148.933c1.382,1.728,3.986,7.257,6.91,9.331c9.837,7.083,16.242,2.246,19.007-1.037
			c-3.628-8.294-20.042-27.473-22.289-29.028c-2.246-1.555-26.954,0-26.954,0s23.499-0.173,26.263,2.765
			c4.493,5.356,22.98,26.263,22.98,26.263s-8.12,8.984-16.587,1.382c-6.047-5.702-8.504-8.236-8.504-8.236"/>
		<path fill="none" stroke="#009BA4" stroke-width="2" stroke-linecap="round" stroke-linejoin="round" stroke-miterlimit="10" d="
			M589.306,165.519c-3.974,5.703-16.76,13.305-19.179,14.168c-2.419,0.864-7.516-1.727-6.22-8.294
			c1.365-6.912,27.099-21.098,33.042-22.478"/>
		<path fill="none" stroke="#009BA4" stroke-width="2" stroke-linecap="round" stroke-linejoin="round" stroke-miterlimit="10" d="
			M594.576,174.418c0,0-13.736,11.836-16.156,11.75c-2.418-0.086-6.479-1.494-6.22-6.318c1.037,1.826-0.087,5.281,4.925,5.367
			c5.011,0.088,16.154-8.725,18.574-10.799"/>
	</g>
	<text transform="matrix(1 0 0 1 518.5576 94.8516)" fill="#32323C" font-family="'Avenir-Medium'" font-size="14">QiTASC Business Partner</text>
</g>
<g id="Ebene_27">
	<text transform="matrix(1 0 0 1 836.9814 142.9229)" fill="#32323C" font-family="'Avenir-Medium'" font-size="14">Banking &amp; Insurance Sector</text>
	<path fill="#FFFFFF" d="M973.393,123.466c0,0,2.283,0.36,2.938-0.246c3.446-3.551,10.281-8.286,9.199-9.007
		c-1.53-1.02-8.225,0.309-8.225,0.309l6.661-6.678c0,0-16.342-0.121-1.32-4.566c-3.49-0.443-6.826-1.546-4.447-2.524
		c2.381-0.977,5.288-0.601,5.288-0.601s-4.684-3.715-7.21-5.889c-2.75,0.505-5.167,0.722-5.167,0.722l-1.443-2.644
		c0,0-20.061,4.886-95.859,22.926l-10.574,2.752l12.192-0.449C875.426,117.571,972.688,120.538,973.393,123.466z"/>
	<path fill="none" stroke="#000000" stroke-linecap="round" stroke-linejoin="round" stroke-miterlimit="10" d="M970.75,94.745
		c-0.656-0.799-0.604-0.482-1.202-2.884c-11.657,5.288-95.625,23.438-95.625,23.438s0.878,1.357,0.135,2.276
		c-5.924,0.272-13.216,0.547-12.859,0.147c0.357-0.402,12.725-2.423,12.725-2.423s2.627,1.556,0.688,2.279
		c-1.937,0.722-15.341,0.371-15.341,0.371s8.712-1.7,14.38-2.414"/>
	<path fill="none" stroke="#000000" stroke-linecap="round" stroke-linejoin="round" stroke-miterlimit="10" d="M888.675,113.672
		c0,0,86.162-19.662,87.122-19.528c0.959,0.134,3.861,4.977,7.69,6.009c-4.565,0.12-32.206,4.206-54.865,7.976"/>
	<path fill="none" stroke="#000000" stroke-linecap="round" stroke-linejoin="round" stroke-miterlimit="10" d="M977.358,101.114
		c0,0-0.48,2.403,5.648,2.284c-1.884,0.985-15.517,3.57,0.96,4.446c0,0-8.919,5.821-8.139,12.627c0.275,0.821,1.86-1.366,4.36-4.177
		c3.66-4.484,5.582-1.239,5.582-1.239s-12.379,6.729-12.257,8.051c0.026,1.75,6.965-2.377,8.651-5.407"/>
	<path fill="none" stroke="#000000" stroke-linecap="round" stroke-linejoin="round" stroke-miterlimit="10" d="M874.605,117.848
		c0,0,9.027,0.571,16.229,0.932c7.211,0.361,65.854,2.764,82.558,4.687"/>
	<path fill="none" stroke="#000000" stroke-linecap="round" stroke-linejoin="round" stroke-miterlimit="10" d="M975.828,120.471
		c0,0-48.733-5.286-74.404-4.236"/>
	
		<line fill="none" stroke="#000000" stroke-linecap="round" stroke-linejoin="round" stroke-miterlimit="10" x1="983.816" y1="113.911" x2="978.199" y2="114.333"/>
	<path fill="none" stroke="#000000" stroke-linecap="round" stroke-linejoin="round" stroke-miterlimit="10" d="M980.963,110.247
		c0,0,20.486,0.934,22.953,0.48c2.465-0.454,11.677,0.257,7.812-9.974c-3.421-6.445-12.979-1.683-12.979-1.683
		s-0.658,1.175,1.562,0.961c1.342-0.129,5.993-1.166,7.57-0.721c4.688,1.322,7.729,6.672,3.579,9.911
		c-5.539,4.747-26.17,3.067-31.818,2.827"/>
	<path fill="#FFFFFF" d="M925.319,125.357c0,0,15.723,3.21,22.587-1.661c2.878-0.11,4.207-0.664,4.759-2.546
		c0.555-1.882,1.33-9.301,2.326-11.958c-0.886-5.978-3.764-19.708-8.967-25.686c-0.665-2.768-0.997-6.311,0.442-8.304
		c-1.44-0.554-3.544-0.996-5.646,0.886c-0.996-0.997-2.99-2.879-5.869,0.11c-1.882-0.553-5.314-1.107-5.314,2.104
		c0,3.21-1.881,6.532-1.881,6.532L917.458,107.2C917.458,107.2,911.37,124.804,925.319,125.357z"/>
	<path fill="none" stroke="#000000" stroke-linecap="round" stroke-linejoin="round" stroke-miterlimit="10" d="M941.152,75.646
		c3.101-1.55,5.092-1.108,4.982-0.332c-2.104,4.207-0.555,6.199,0.222,8.414c6.642,10.407,6.199,15.722,7.528,19.818
		s1.106,6.532-0.111,9.079c-0.221,2.546-0.885,9.189-1.771,10.075c-0.886,0.885-4.208,1.107-4.208,1.107"/>
	<path fill="none" stroke="#000000" stroke-linecap="round" stroke-linejoin="round" stroke-miterlimit="10" d="M942.812,87.049
		c0,0-2.546-1.66-2.436-3.653"/>
	<path fill="none" stroke="#000000" stroke-linecap="round" stroke-linejoin="round" stroke-miterlimit="10" d="M940.377,80.295
		c0,0,0.332-3.432-0.222-4.981c-0.553-1.551-4.539-0.886-5.093,0.442c-0.553,1.329-2.214,9.079-0.443,10.739
		c1.772,1.661,0.334,8.968-0.442,8.083c-0.775-0.885-1.367-14.514-0.331-18.268c-1.884-1.108-4.099-0.554-3.876,1.107"/>
	<path fill="none" stroke="#000000" stroke-linecap="round" stroke-linejoin="round" stroke-miterlimit="10" d="M930.08,79.631
		c0,0-2.214,26.683-2.656,27.901"/>
	<path fill="none" stroke="#000000" stroke-linecap="round" stroke-linejoin="round" stroke-miterlimit="10" d="M941.152,88.71
		c0,0,6.311,13.729,6.532,17.493c1.107,1.218,1.218-1.329,1.218-1.329s-3.653-9.079-5.425-12.179"/>
	<path fill="none" stroke="#000000" stroke-linecap="round" stroke-linejoin="round" stroke-miterlimit="10" d="M948.349,120.707
		c0,0,0.554,3.101-2.324,4.429c-2.879,1.329-13.62,1.328-19.044,0.554c-5.425-0.775-9.409,0.221-12.068-0.554
		c-2.656-0.775,1.218-16.275,3.101-18.601c0,0,6.863-17.161,8.636-19.818c1.772-2.657,2.324-5.757,1.992-6.975"/>
	<path fill="none" stroke="#009BA4" stroke-linecap="round" stroke-linejoin="round" stroke-miterlimit="10" d="M938.272,81.181
		c0,0,4.098-0.554,4.763,0.332c-0.223,0.443-4.651,0.222-4.983,0.997c2.547,0,4.984,0.111,5.094,0.554"/>
	<path fill="none" stroke="#009BA4" stroke-linecap="round" stroke-linejoin="round" stroke-miterlimit="10" d="M930.191,78.856
		c0,0,0.997-0.775-4.429-1.661c-5.425-0.885-8.305-2.989-5.979-2.768c2.326,0.221,6.755,3.1,6.755,3.1l-7.64-2.104l0.222,1.218
		c0,0,1.55,1.661,7.86,1.993c0.775,0.333,3.765,0.886,2.104,0.111c-1.66-0.775-7.64-1.107-9.41-2.547"/>
	<path fill="none" stroke="#009BA4" stroke-linecap="round" stroke-linejoin="round" stroke-miterlimit="10" d="M928.087,79.521
		c0,0-6.421,7.418-7.417,8.304s-1.66,5.314,1.882,6.311c-0.109,0.665-0.223,0.775-1.438,0.111c-1.219-0.664-3.655-4.207-0.887-7.417
		s7.087-6.976,9.41-7.529c-0.22-2.657-1.55-9.964-13.174-17.936c-0.332,0.554,0.443,1.439,0.443,1.439s10.074,6.753,11.515,15.389"
		/>
	<path fill="#FFFFFF" d="M925.445,126.47l-0.121-3.846l1.923-0.721c0,0,0.239-6.489-0.962-7.69c-0.601,0.36-2.163,0.24-2.163,0.24
		l-0.479-3.125l0.841-0.842l0.119-1.562l2.765-1.082l0.12-1.682l-26.197,0.36l0.24,3.004l-3.124-0.12v2.043l-0.241,2.764l3.966,0.48
		l-0.119,2.043l-0.603,2.523l-1.201,0.6l0.241,3.005l-2.284-0.841l-0.24,2.043l1.682,0.481v2.644
		C899.606,127.191,911.626,129.835,925.445,126.47z"/>
	<path fill="none" stroke="#000000" stroke-linecap="round" stroke-linejoin="round" stroke-miterlimit="10" d="M899.532,124.862
		l-0.045,2.298c0,0,16.268,2.659,25.957-0.811c0-1.262-0.182-2.523-0.182-2.523s-7.93,3.425-27.398,0.36l0.091-2.253
		c0,0,0.767,0.135,2.658,0.316"/>
	<path fill="none" stroke="#000000" stroke-linecap="round" stroke-linejoin="round" stroke-miterlimit="10" d="M900.569,119.455
		l-0.092,3.02c0,0,14.061,2.027,26.589-0.677c-0.045-0.946-0.181-2.433-0.181-2.433s-13.475,2.613-25.687,0.18v-2.524
		c0,0,9.689,2.434,26.183-0.18c0.091,1.082-0.045,2.524-0.045,2.524"/>
	<path fill="none" stroke="#000000" stroke-linecap="round" stroke-linejoin="round" stroke-miterlimit="10" d="M926.841,116.345
		l-0.18-2.298c0,0-1.082,0.226-2.659,0.045c-12.123,2.027-26.093,0-26.093,0l-0.045-2.569l0.811-0.135l-0.135-2.163
		c0,0,17.711,1.037,25.823-0.406c0.18,0.856,0,1.983,0,1.983s-9.599,2.434-24.741,0.767l0.045,2.568"/>
	
		<line fill="none" stroke="#000000" stroke-linecap="round" stroke-linejoin="round" stroke-miterlimit="10" x1="923.776" y1="113.776" x2="923.687" y2="111.388"/>
	
		<line fill="none" stroke="#000000" stroke-linecap="round" stroke-linejoin="round" stroke-miterlimit="10" x1="901.92" y1="116.616" x2="901.876" y2="114.903"/>
	<path fill="none" stroke="#000000" stroke-linecap="round" stroke-linejoin="round" stroke-miterlimit="10" d="M901.649,108.864
		l-0.089-2.298c0,0,17.71,1.037,26.228-0.451c0.045,0.766,0.135,2.119,0.135,2.119s-1.758,0.585-3.56,0.585"/>
	<path fill="none" stroke="#000000" stroke-linecap="round" stroke-linejoin="round" stroke-miterlimit="10" d="M927.606,105.845
		c0,0-18.881-0.992-26.046,0.721"/>
	
		<line fill="none" stroke="#000000" stroke-linecap="round" stroke-linejoin="round" stroke-miterlimit="10" x1="903.633" y1="107.152" x2="903.587" y2="108.685"/>
	
		<line fill="none" stroke="#000000" stroke-linecap="round" stroke-linejoin="round" stroke-miterlimit="10" x1="905.301" y1="107.333" x2="905.345" y2="108.955"/>
	
		<line fill="none" stroke="#000000" stroke-linecap="round" stroke-linejoin="round" stroke-miterlimit="10" x1="922.786" y1="109.586" x2="922.83" y2="110.848"/>
	
		<line fill="none" stroke="#000000" stroke-linecap="round" stroke-linejoin="round" stroke-miterlimit="10" x1="921.028" y1="109.811" x2="921.073" y2="110.983"/>
	
		<line fill="none" stroke="#000000" stroke-linecap="round" stroke-linejoin="round" stroke-miterlimit="10" x1="924.813" y1="114.588" x2="924.813" y2="116.75"/>
	
		<line fill="none" stroke="#000000" stroke-linecap="round" stroke-linejoin="round" stroke-miterlimit="10" x1="925.31" y1="120.085" x2="925.444" y2="121.798"/>
	
		<line fill="none" stroke="#000000" stroke-linecap="round" stroke-linejoin="round" stroke-miterlimit="10" x1="923.597" y1="120.356" x2="923.552" y2="122.249"/>
	
		<line fill="none" stroke="#000000" stroke-linecap="round" stroke-linejoin="round" stroke-miterlimit="10" x1="902.416" y1="120.266" x2="902.281" y2="122.249"/>
	
		<line fill="none" stroke="#000000" stroke-linecap="round" stroke-linejoin="round" stroke-miterlimit="10" x1="900.027" y1="122.7" x2="899.892" y2="124.051"/>
	
		<line fill="none" stroke="#000000" stroke-linecap="round" stroke-linejoin="round" stroke-miterlimit="10" x1="901.649" y1="123.24" x2="901.649" y2="124.367"/>
	
		<line fill="none" stroke="#000000" stroke-linecap="round" stroke-linejoin="round" stroke-miterlimit="10" x1="901.335" y1="125.223" x2="901.199" y2="127.386"/>
	<text transform="matrix(1 0 0 1 859.6758 271)" fill="#32323C" font-family="'Avenir-Medium'" font-size="14">IT &amp; Telecom Sector</text>
	<path fill="none" stroke="#000000" stroke-linecap="round" stroke-linejoin="round" stroke-miterlimit="10" d="M927.453,171.259
		c0.343,33.872-6.18,70.251-6.18,70.251s-1.373,0.571-1.144,0.229c0.229-0.344,7.552-37.066,6.865-70.823"/>
	<path fill="none" stroke="#000000" stroke-linecap="round" stroke-linejoin="round" stroke-miterlimit="10" d="M928.826,170.344
		c-0.114,1.259,3.09,73.799,3.09,73.799s0.572,0.229,1.029,0.229c0.458,0-4.233-73.455-3.891-74.714"/>
	<path fill="none" stroke="#000000" stroke-linecap="round" stroke-linejoin="round" stroke-miterlimit="10" d="M929.971,170.802
		c5.722,49.198,10.756,70.137,10.756,70.137l1.03-0.114c0,0-4.005-13.847-11.329-69.908"/>
	<path fill="none" stroke="#000000" stroke-linecap="round" stroke-linejoin="round" stroke-miterlimit="10" d="M921.617,241.053
		c0,0,9.269-0.229,10.185,0.801c2.06-0.572,6.865-2.06,8.696-1.831"/>
	<path fill="none" stroke="#000000" stroke-linecap="round" stroke-linejoin="round" stroke-miterlimit="10" d="M922.646,235.56
		c0,0,3.776,0.458,9.27,1.145c2.86-0.687,5.149-1.602,7.323-1.945"/>
	<path fill="none" stroke="#000000" stroke-linecap="round" stroke-linejoin="round" stroke-miterlimit="10" d="M923.448,229.267
		c0,0,4.577-0.229,8.238,0.343c3.319-0.458,5.493-1.602,6.522-0.801"/>
	<path fill="none" stroke="#000000" stroke-linecap="round" stroke-linejoin="round" stroke-miterlimit="10" d="M924.249,222.859
		c0,0,5.836-0.344,6.866,0.457c1.83-0.342,5.378-1.257,6.179-0.686"/>
	<path fill="none" stroke="#000000" stroke-linecap="round" stroke-linejoin="round" stroke-miterlimit="10" d="M924.821,217.599
		c0,0,3.891-0.114,5.836,0.457c1.716-0.229,4.463-0.8,5.606-0.114"/>
	<path fill="none" stroke="#000000" stroke-linecap="round" stroke-linejoin="round" stroke-miterlimit="10" d="M925.394,212.337
		c0,0,3.204-0.229,5.378,0.229c2.06-0.114,4.119-0.687,4.691-0.229"/>
	<path fill="none" stroke="#000000" stroke-linecap="round" stroke-linejoin="round" stroke-miterlimit="10" d="M925.966,207.533
		c0,0,3.433-0.572,4.462-0.113c1.831,0.113,3.319-0.229,4.349,0.457"/>
	<path fill="none" stroke="#000000" stroke-linecap="round" stroke-linejoin="round" stroke-miterlimit="10" d="M926.423,202.27
		c0,0,3.548-0.915,4.12-0.686c0.572,0.229,3.318,0.457,3.318,0.457"/>
	<polyline fill="none" stroke="#000000" stroke-linecap="round" stroke-linejoin="round" stroke-miterlimit="10" points="
		926.423,197.578 929.971,197.006 933.175,197.35 	"/>
	<polyline fill="none" stroke="#000000" stroke-linecap="round" stroke-linejoin="round" stroke-miterlimit="10" points="
		927.109,192.887 929.513,192.429 932.603,193.001 	"/>
	<polyline fill="none" stroke="#000000" stroke-linecap="round" stroke-linejoin="round" stroke-miterlimit="10" points="
		926.995,189.453 929.398,188.652 932.145,189.225 	"/>
	<path fill="none" stroke="#000000" stroke-linecap="round" stroke-linejoin="round" stroke-miterlimit="10" d="M927.225,185.792
		l2.288-0.572h2.174l-2.06-2.06l-2.06-0.344l1.831-1.83l1.487-0.573l-1.831-2.06l-1.83-0.114l1.83-2.403l1.603-0.458l-1.487-1.488
		l-1.488-0.687l1.373-1.488l1.145-0.343c0,0,1.259-1.945-0.801-2.174c-2.06-0.229-4.005,1.831-2.174,2.174
		c1.83,0.343,4.119-0.687,2.517-1.259c-1.602-0.572-3.547,0.916-1.602,0.343"/>
	<path fill="none" stroke="#000000" stroke-linecap="round" stroke-linejoin="round" stroke-miterlimit="10" d="M928.025,169.024
		c0,0,0.572-9.203,0.114-12.534c0.687,5.609,0.801,10.868,1.259,12.709"/>
	<path fill="none" stroke="#000000" stroke-linecap="round" stroke-linejoin="round" stroke-miterlimit="10" d="M935,153.991
		c0,0,2.25,3.5,0,7"/>
	<path fill="none" stroke="#000000" stroke-linecap="round" stroke-linejoin="round" stroke-miterlimit="10" d="M922.249,154.741
		c0,0-2.249,4.25,1,6.75"/>
	<path fill="none" stroke="#000000" stroke-linecap="round" stroke-linejoin="round" stroke-miterlimit="10" d="M938.25,153.241
		c0,0,3.25,4,0,8.5"/>
	<path fill="none" stroke="#000000" stroke-linecap="round" stroke-linejoin="round" stroke-miterlimit="10" d="M919.75,153.991
		c0,0-2.749,6,0.5,8.5"/>
	<path fill="#FFFFFF" d="M920.287,252.221c0,0,4.656-24.157,4.758-32.312c-0.346-0.606,0.333-1.919-13.129-1.235
		c-2.994,15.914-4.903,31.618-4.903,31.618S917.165,252.385,920.287,252.221z"/>
	<path fill="none" stroke="#000000" stroke-linecap="round" stroke-linejoin="round" stroke-miterlimit="10" d="M925.688,219.082
		c0.041,0.779-4.143,30.508-5.29,32.953c-1.438,1.062-13.212-1.438-13.571-1.854c-0.358-0.414,4.771-31.143,5.275-31.398
		c0.504-0.256,11.812-0.704,12.33,0.207c0.517,0.912-4.814,33.086-4.814,33.086"/>
	<polygon fill="none" stroke="#009BA4" stroke-linecap="round" stroke-linejoin="round" stroke-miterlimit="10" points="
		912.75,221.312 922.938,222 918.938,243.688 908.938,242.562 	"/>
	
		<line fill="none" stroke="#000000" stroke-linecap="round" stroke-linejoin="round" stroke-miterlimit="10" x1="912.188" y1="245.625" x2="915.688" y2="246"/>
	<polyline fill="none" stroke="#009BA4" stroke-linecap="round" stroke-linejoin="round" stroke-miterlimit="10" points="
		913.25,220.938 908.812,243.938 919.625,244.688 922.562,221.562 913.125,221.75 	"/>
	<path fill="#FFFFFF" d="M966.051,255.516l39.749-12.27l0.084-0.588l-25.882-7.144l-7.984-27.303c0,0-40.607-0.11-40.505,1.429
		c0.168,2.52,8.824,35.286,8.824,35.286S953.193,251.398,966.051,255.516z"/>
	<path fill="none" stroke="#000000" stroke-linecap="round" stroke-linejoin="round" stroke-miterlimit="10" d="M940.339,243.923
		c0,0,24.033,10.42,25.378,10.336s40.002-12.018,40.002-12.018s-21.346-6.135-25.8-6.891c0,0-40.421,7.227-40.168,8.823
		c0.251,1.598,24.117,10.589,25.966,10.841c3.026-0.756,38.993-11.514,40.002-12.27"/>
	<path fill="none" stroke="#000000" stroke-linecap="round" stroke-linejoin="round" stroke-miterlimit="10" d="M979.583,235.183
		c-0.252-1.766-6.555-24.446-7.815-27.388c-1.512-0.252-39.832,0.672-40.421,1.344s8.404,35.035,8.404,35.035l0.251-0.504
		c0,0-8.571-32.934-8.235-34.195"/>
	<polygon fill="none" stroke="#000000" stroke-linecap="round" stroke-linejoin="round" stroke-miterlimit="10" points="
		981.517,243.418 970.76,246.106 979.079,248.964 989.752,245.603 	"/>
	
		<line fill="none" stroke="#000000" stroke-linecap="round" stroke-linejoin="round" stroke-miterlimit="10" x1="946.053" y1="244.595" x2="980.917" y2="237"/>
	
		<line fill="none" stroke="#000000" stroke-linecap="round" stroke-linejoin="round" stroke-miterlimit="10" x1="948.836" y1="245.939" x2="983.833" y2="237.75"/>
	
		<line fill="none" stroke="#000000" stroke-linecap="round" stroke-linejoin="round" stroke-miterlimit="10" x1="952.436" y1="246.946" x2="987" y2="238.75"/>
	
		<line fill="none" stroke="#000000" stroke-linecap="round" stroke-linejoin="round" stroke-miterlimit="10" x1="955.464" y1="248.376" x2="990.667" y2="239.417"/>
	<path fill="none" stroke="#009BA4" stroke-linecap="round" stroke-linejoin="round" stroke-miterlimit="10" d="M941.263,239.72
		l36.136-6.722l-6.723-22.935c0,0-35.801,1.429-36.052,1.848C934.371,212.331,941.263,239.72,941.263,239.72z"/>
	<polyline fill="none" stroke="#009BA4" stroke-linecap="round" stroke-linejoin="round" stroke-miterlimit="10" points="
		935.25,212.688 941.875,239.625 976.125,232.062 969.875,209.438 933.812,211.312 	"/>
	<text transform="matrix(1 0 0 1 862.252 360.0527)" fill="#32323C" font-family="'Avenir-Medium'" font-size="14">e-commerce Sector</text>
	<path fill="none" stroke="#000000" stroke-linecap="round" stroke-linejoin="round" stroke-miterlimit="10" d="M908.334,291.897
		c0,0,5.083,25.917,5.833,25.917s30.5,0.333,30.5,0.333l11.917-2.583l1.25-17.584l-14.083,2.5L908.334,291.897l18.25-2.167
		l31.25,8.25"/>
	<path fill="none" stroke="#000000" stroke-linecap="round" stroke-linejoin="round" stroke-miterlimit="10" d="M926.334,289.147
		c0,0,1.251-0.249-2.083-2.083c-6.917,0.583-19.584,1.583-19.584,1.583s-2.166-1.001-0.166-1.167s19.166-1.666,19.166-1.666"/>
	<path fill="none" stroke="#000000" stroke-linecap="round" stroke-linejoin="round" stroke-miterlimit="10" d="M904.667,288.647
		c-2.083-0.5,3.917,1.416,3.917,3.333"/>
	<path fill="none" stroke="#000000" stroke-linecap="round" stroke-linejoin="round" stroke-miterlimit="10" d="M910.501,335.814
		c0,0-5.249-0.251-1.666,4.916c1,1.25,4.167-0.249,3.25-2.916s-4.834-1.668-4.917,0.916s3.751,3.997,5.333,0.834
		c1.25-2.5-3.584-5.25-3.084-3.167c0.166,0.667,2.165-0.677,3.584-2.5c1.167-1.5,14.5-15.833,16-15.417
		c2.565,0.712,19.999,16.918,20.416,19.084s-0.583,2.666-0.583,2.666s-1.749-2-3.083,0.417s0.916,6.417,4.166,4
		c0,0,2.833-3.416-1.5-5.333c0,0-4.499-1.084-2.166,3.916s5.416,0.667,4.416-1.5s-1.5-3-1.5-3s3.667,1.084-0.583-3.5
		c-3.752-4.047-20.074-17.974-21.333-17c-2.584,2-17.666,17.5-17.666,17.5"/>
	<path fill="none" stroke="#000000" stroke-linecap="round" stroke-linejoin="round" stroke-miterlimit="10" d="M923.417,331.064
		c0,0,4.667,2.5,2.167,4.75s-5.583-2.666-3.333-3.75s2.832-1.916,3.416,2s-5,2.916-4.5,0.916c0,0-0.25-4.084,2.75-3.25
		c1.084,0.334,0.417,0.834-0.333,0.584s1.334-13.417,4.75-14.417c-0.667,0.917-3.25,8.249-4.417,13.333"/>
	<polyline fill="none" stroke="#000000" stroke-linecap="round" stroke-linejoin="round" stroke-miterlimit="10" points="
		910.5,293.106 916.125,317.731 914,293.856 919.875,317.606 918,294.606 923.125,317.606 921.875,295.231 927.375,317.481 
		925.75,295.981 930.5,318.231 930.25,297.606 933.5,317.856 933.125,298.231 936.875,317.981 936.125,298.981 939.5,317.856 
		939.875,300.231 942.625,317.856 943.751,300.48 944.584,317.647 	"/>
	<polyline fill="none" stroke="#000000" stroke-linecap="round" stroke-linejoin="round" stroke-miterlimit="10" points="
		944.125,300.606 947.125,317.356 947.125,300.606 949.875,316.606 	"/>
	<polyline fill="none" stroke="#000000" stroke-linecap="round" stroke-linejoin="round" stroke-miterlimit="10" points="
		955.875,302.856 954.375,298.606 954,301.356 	"/>
	<path fill="none" stroke="#000000" stroke-linecap="round" stroke-linejoin="round" stroke-miterlimit="10" d="M926.75,290.606
		c0,0,4.5,21,4.5,22.875l19.5,1.375"/>
	
		<line fill="none" stroke="#000000" stroke-linecap="round" stroke-linejoin="round" stroke-miterlimit="10" x1="914.75" y1="317.731" x2="931.25" y2="313.481"/>
	<polyline fill="#FFFFFF" stroke="#000000" stroke-linecap="round" stroke-linejoin="round" stroke-miterlimit="10" points="
		964.375,339.375 973.5,334.75 963.559,320.851 972.825,318.653 948.364,297.205 951.944,330.94 957.305,324.052 965.948,339.384 
		971.905,334.619 965.75,321.25 975.25,318.75 947,294.375 951,332.375 957.25,326.25 964.375,339.375 	"/>
	<path fill="#FFFFFF" stroke="#009BA4" stroke-linecap="round" stroke-linejoin="round" stroke-miterlimit="10" d="M954.001,325
		l-2.834-22.333L966.834,318c0,0-5.179,1.089-5.379,1.69c-0.201,0.602,7.286,14.106,7.286,14.106l-2.74,1.036l-7.972-14.103
		l-5.111,6.866l-2.586-26.878l19.185,17.375l-8.747,1.403l9.564,14.836l-4.719,2.068l-8.111-15.962l-4.17,4.394"/>
	<text transform="matrix(1 0 0 1 855.4131 44.1914)" fill="#32323C" font-family="'Avenir-Medium'" font-size="14">Local Market Projects</text>
</g>
</svg>
