<?xml version="1.0" encoding="utf-8"?>
<!-- Generator: Adobe Illustrator 16.0.0, SVG Export Plug-In . SVG Version: 6.00 Build 0)  -->
<!DOCTYPE svg PUBLIC "-//W3C//DTD SVG 1.1//EN" "http://www.w3.org/Graphics/SVG/1.1/DTD/svg11.dtd">
<svg version="1.1" id="Ebene_2_Kopie" xmlns="http://www.w3.org/2000/svg" xmlns:xlink="http://www.w3.org/1999/xlink" x="0px"
	 y="0px" width="200px" height="200px" viewBox="0 0 200 200" enable-background="new 0 0 200 200" xml:space="preserve">
<g id="Ebene_2">
	<path fill="#FFFFFF" d="M140.855,43.504c0,0-6.47,101.591-7.95,103.075c-1.481,1.48-4.176,0-4.176,0s-41.368-17.652-77.475-25.062
		c-0.673-9.298-0.809-70.199-0.809-70.199L140.855,43.504z"/>
	<path fill="#FFFFFF" d="M83.052,130.141c0,0-30.586,59.283-28.16,60.227c2.56-0.132,2.696-0.672,2.696-0.672l26.139-58.746
		c0,0-1.078,65.076,0.403,65.347c1.482,0.27,2.425-1.886,2.425-1.886l-1.886-63.597c0,0,5.254,55.783,6.603,55.917
		c1.347,0.135,1.751-1.618,1.751-1.618l-7.545-54.299L83.052,130.141"/>
</g>
<path fill="none" stroke="#F7941E" stroke-width="2" stroke-linecap="round" stroke-linejoin="round" stroke-miterlimit="10" d="
	M82.245,130.41c0,0-29.375,59.557-28.026,59.825c1.348,0.268,3.233,0,3.233,0l26.275-59.286c0,0-0.674,63.463-0.404,64.405
	c0.269,0.943,3.099,0.539,3.502-0.402c0.404-0.943-3.098-64.003-3.098-64.003L82.245,130.41z"/>
<path fill="none" stroke="#F7941E" stroke-width="2" stroke-linecap="round" stroke-linejoin="round" stroke-miterlimit="10" d="
	M86.152,131.622c0.674,2.156,6.738,52.953,6.872,54.436c-0.942,0.809-2.695,0.809-2.695,0.809l-5.39-55.244"/>
<path fill="none" stroke="#009BA4" stroke-width="2" stroke-linecap="round" stroke-linejoin="round" stroke-miterlimit="10" d="
	M87.769,133.645c0,0-3.772-0.81-6.468-2.967c-1.887,0.809,1.348,3.234,1.348,3.234s2.963,1.888,5.523,0.271
	c2.157,1.617,6.198,10.238,3.503,8.891c-2.695-1.346-3.368-7.679-3.368-7.679s2.156,9.433-0.135,9.026
	c-2.289-0.403-0.674-11.722,0.404-10.778"/>
<path fill="none" stroke="#F7941E" stroke-width="2" stroke-linecap="round" stroke-linejoin="round" stroke-miterlimit="10" d="
	M128.188,144.421l-76.936-22.903l0.271-68.044l86.635-8.893c0,0-8.62,100.379-9.429,101.999c-7.009-4.178-51.875-19-78.823-27.354
	l0.134-67.638c0,0,84.48-8.624,89.333-8.084c0,4.58-6.872,100.378-8.49,103.613c0,0,1.079-0.27,2.022-0.539
	c1.887-5.659,7.546-102.806,7.546-102.806"/>
</svg>
