<?xml version="1.0" encoding="utf-8"?>
<!-- Generator: Adobe Illustrator 16.0.0, SVG Export Plug-In . SVG Version: 6.00 Build 0)  -->
<!DOCTYPE svg PUBLIC "-//W3C//DTD SVG 1.1//EN" "http://www.w3.org/Graphics/SVG/1.1/DTD/svg11.dtd">
<svg version="1.1" id="Ebene_1" xmlns="http://www.w3.org/2000/svg" xmlns:xlink="http://www.w3.org/1999/xlink" x="0px" y="0px"
	 width="767.941px" height="328.5px" viewBox="0 0 767.941 328.5" enable-background="new 0 0 767.941 328.5" xml:space="preserve">
<g id="Ebene_1_1_">
	<g id="Ebene_3">
		<path fill="none" stroke="#64646A" stroke-linecap="round" stroke-linejoin="round" stroke-miterlimit="10" d="M166.891,67.54
			c0,0,25.996,3.088,27.088,3.309c1.092,0.221-11.796,51.41-11.796,51.41s-76.461-9.927-80.394-9.488
			c5.023-7.722,9.393-13.238,8.956-51.629c25.779,1.544,78.377,6.56,80.176,11.914c-1.311,8.383-6.772,45.893-6.118,52.733
			c-13.982-1.324-78.863-14.783-78.863-14.783s8.52-9.267,7.427-46.113c12.671-0.882,70.782,5.295,74.496,7.502"/>
		<polyline fill="none" stroke="#64646A" stroke-linecap="round" stroke-linejoin="round" stroke-miterlimit="10" points="
			173.882,67.54 190.485,67.54 190.485,70.386 		"/>
		<path fill="none" stroke="#64646A" stroke-linecap="round" stroke-linejoin="round" stroke-miterlimit="10" d="M186.333,120.051
			h6.335c0,0-3.559-24.271-3.417-26.587c0.578,15.335,1.233,29.676,1.233,29.676h-5.713"/>
		<path fill="none" stroke="#64646A" stroke-linecap="round" stroke-linejoin="round" stroke-miterlimit="10" d="M147.917,118.617
			l-42.233-0.733c0,0,1.092-1.544,1.747-3.971c0,3.971-1.747,6.84-1.747,6.84l47.662-0.26"/>
	</g>
	<g id="Ebene_4">
		<path fill="none" stroke="#64646A" stroke-linecap="round" stroke-linejoin="round" stroke-miterlimit="10" d="M187.657,263.396
			h-92.66l-16.23,26.605c0,0,5.662,4.906,7.36,5.475c1.699,0.564,110.21,0,110.21,0s7.171-5.098,7.171-5.852
			s-15.097-27.176-15.097-27.176L95.374,264.9l-14.91,25.479l5.662,4.531l109.456-0.758l5.85-5.096l-13.295-26.572l0.18-50.707
			c0,0-89.357-1.604-90.112-1.035c-0.755,0.564-3.02,51.521-3.02,51.521l3.869-50.768l90.3,1.887l-0.943,49.066"/>
		<polyline fill="none" stroke="#64646A" stroke-linecap="round" stroke-linejoin="round" stroke-miterlimit="10" points="
			80.655,290.193 201.054,290.229 83.108,291.514 		"/>
		<path fill="none" stroke="#64646A" stroke-linecap="round" stroke-linejoin="round" stroke-miterlimit="10" d="M184.92,259.055
			c0,0-85.395,1.037-85.866,0c-0.472-1.037,3.302-43.688,3.302-43.688h82.563v42.65l-85.3,0.188l3.585-41.895l79.733,0.281
			l0.566,43.375"/>
		<path fill="none" stroke="#64646A" stroke-linecap="round" stroke-linejoin="round" stroke-miterlimit="10" d="M97.969,277.643
			c0,0,1.664-1.332,1.044-1.764c-0.62-0.43-4.229-0.43-4.229-0.43l-0.92,2.193h9.2l0.708-1.602"/>
		<path fill="none" stroke="#64646A" stroke-linecap="round" stroke-linejoin="round" stroke-miterlimit="10" d="M104.692,277.643
			h3.326c0,0,0.991-2.477,2.406-2.191c0,0.777,0,2.191,0,2.191h2.619l1.415-1.096l0.85,1.521h2.618l0.354-0.426"/>
		<polyline fill="none" stroke="#64646A" stroke-linecap="round" stroke-linejoin="round" stroke-miterlimit="10" points="
			122.313,278.068 123.092,276.748 125.781,276.547 126.064,278.068 122.667,278.068 		"/>
		<polyline fill="none" stroke="#64646A" stroke-linecap="round" stroke-linejoin="round" stroke-miterlimit="10" points="
			128.117,276.748 128.117,278.068 130.452,278.068 131.655,276.547 133.637,276.223 134.273,278.492 138.661,278.492 
			138.661,275.879 135.193,275.879 135.335,277.643 		"/>
		<polyline fill="none" stroke="#64646A" stroke-linecap="round" stroke-linejoin="round" stroke-miterlimit="10" points="
			141.138,276.547 140.572,278.068 146.729,278.068 145.879,276.547 148.427,276.223 148.852,277.643 		"/>
		
			<line fill="none" stroke="#64646A" stroke-linecap="round" stroke-linejoin="round" stroke-miterlimit="10" x1="151.187" y1="276.223" x2="151.824" y2="278.068"/>
		<polyline fill="none" stroke="#64646A" stroke-linecap="round" stroke-linejoin="round" stroke-miterlimit="10" points="
			153.735,276.547 154.372,278.068 159.255,278.492 159.255,276.547 		"/>
		<polyline fill="none" stroke="#64646A" stroke-linecap="round" stroke-linejoin="round" stroke-miterlimit="10" points="
			161.802,277.146 161.802,278.068 165.766,278.068 165.766,276.748 167.251,278.068 167.959,276.547 		"/>
		<polyline fill="none" stroke="#64646A" stroke-linecap="round" stroke-linejoin="round" stroke-miterlimit="10" points="
			170.012,277.643 171.993,277.643 172.417,276.043 		"/>
		<path fill="none" stroke="#64646A" stroke-linecap="round" stroke-linejoin="round" stroke-miterlimit="10" d="M175.107,276.043
			v2.025l3.821-0.426l1.84-1.766l2.972,0.164l0.425,1.104c0,0,0.283,0.071-0.425,0.496c-0.708,0.426-2.901,0.851-2.901,0.851"/>
		<path fill="none" stroke="#64646A" stroke-linecap="round" stroke-linejoin="round" stroke-miterlimit="10" d="M185.722,277.643
			c0.212,0.213,3.397-0.336,3.397-0.336l-0.708-1.855l-3.491-0.426l2.642-0.564l-0.542-1.484h-3.421l0.622,1.84"/>
		<path fill="none" stroke="#64646A" stroke-linecap="round" stroke-linejoin="round" stroke-miterlimit="10" d="M182.113,273.68
			v1.273c0,0-3.524,0.492-3.821-0.637c-0.425,0.85-3.68,1.664-3.963,0.055c-0.354,1.008-2.973,1.078-3.822,1.078
			c-0.849,0,0-1.344,0-1.344"/>
		<polyline fill="none" stroke="#64646A" stroke-linecap="round" stroke-linejoin="round" stroke-miterlimit="10" points="
			167.959,273.68 167.959,275.332 163.643,275.332 164.35,273.68 162.652,273.68 		"/>
		<polyline fill="none" stroke="#64646A" stroke-linecap="round" stroke-linejoin="round" stroke-miterlimit="10" points="
			160.175,273.68 160.175,275.332 154.867,275.449 155.504,273.68 157.521,273.68 		"/>
		<polyline fill="none" stroke="#64646A" stroke-linecap="round" stroke-linejoin="round" stroke-miterlimit="10" points="
			153.098,273.68 152.39,274.953 145.455,274.316 146.304,272.973 148.852,273.68 		"/>
		<polyline fill="none" stroke="#64646A" stroke-linecap="round" stroke-linejoin="round" stroke-miterlimit="10" points="
			142.412,274.506 138.661,274.564 137.67,272.973 137.67,274.506 132.292,274.564 132.292,273.256 134.486,272.973 		"/>
		<polyline fill="none" stroke="#64646A" stroke-linecap="round" stroke-linejoin="round" stroke-miterlimit="10" points="
			128.966,274.506 128.966,272.619 123.587,272.619 123.233,273.963 126.064,273.963 126.064,272.973 		"/>
		<polyline fill="none" stroke="#64646A" stroke-linecap="round" stroke-linejoin="round" stroke-miterlimit="10" points="
			120.261,272.973 120.261,274.506 116.015,274.506 116.015,272.973 		"/>
		<polyline fill="none" stroke="#64646A" stroke-linecap="round" stroke-linejoin="round" stroke-miterlimit="10" points="
			113.396,273.963 112.831,272.619 110.708,273.963 108.655,273.963 108.655,272.619 		"/>
		<polyline fill="none" stroke="#64646A" stroke-linecap="round" stroke-linejoin="round" stroke-miterlimit="10" points="
			106.886,274.506 104.692,272.619 102.428,273.562 96.483,273.562 96.483,272.619 		"/>
		<polyline fill="none" stroke="#64646A" stroke-linecap="round" stroke-linejoin="round" stroke-miterlimit="10" points="
			98.113,268.549 98.892,269.965 101.864,269.965 102.501,269.258 103.209,269.965 106.747,270.461 106.747,269.504 		"/>
		<polyline fill="none" stroke="#64646A" stroke-linecap="round" stroke-linejoin="round" stroke-miterlimit="10" points="
			110.286,268.549 109.79,269.965 111.984,270.178 		"/>
		<polyline fill="none" stroke="#64646A" stroke-linecap="round" stroke-linejoin="round" stroke-miterlimit="10" points="
			114.246,268.939 114.246,269.787 116.475,269.787 117.572,268.939 118.563,270.07 121.677,270.07 122.313,268.939 123.021,270.07 
			124.791,270.07 		"/>
		<polyline fill="none" stroke="#64646A" stroke-linecap="round" stroke-linejoin="round" stroke-miterlimit="10" points="
			127.621,268.939 127.268,270.178 130.381,270.461 130.381,268.939 128.117,268.939 		"/>
		<path fill="none" stroke="#64646A" stroke-linecap="round" stroke-linejoin="round" stroke-miterlimit="10" d="M133.389,269.08
			l-1.097,1.15h4.104v-1.15h2.76l0.637,0.955h1.345l1.273-1.273h3.963l0.637,1.273c0,0-2.972,0.248-3.185,0.195"/>
		<polyline fill="none" stroke="#64646A" stroke-linecap="round" stroke-linejoin="round" stroke-miterlimit="10" points="
			149.276,270.238 150.55,268.762 152.249,268.762 153.098,270.23 		"/>
		<polyline fill="none" stroke="#64646A" stroke-linecap="round" stroke-linejoin="round" stroke-miterlimit="10" points="
			157.132,270.42 157.132,268.58 160.175,269.287 160.175,270.42 		"/>
		<polyline fill="none" stroke="#64646A" stroke-linecap="round" stroke-linejoin="round" stroke-miterlimit="10" points="
			162.652,270.525 162.227,268.898 165.907,268.898 165.907,270.42 167.393,270.525 		"/>
		<polyline fill="none" stroke="#64646A" stroke-linecap="round" stroke-linejoin="round" stroke-miterlimit="10" points="
			169.445,268.898 167.959,269.287 168.702,270.809 170.129,270.525 170.719,269.5 173.196,269.287 173.479,270.055 
			171.215,270.809 		"/>
		<path fill="none" stroke="#64646A" stroke-linecap="round" stroke-linejoin="round" stroke-miterlimit="10" d="M176.876,269.287
			c-0.566-0.07-2.477,0.213-2.477,0.213l0.283,1.309h1.439"/>
		<path fill="none" stroke="#64646A" stroke-linecap="round" stroke-linejoin="round" stroke-miterlimit="10" d="M180.199,270.41
			h-1.727c0,0-0.708-1.547,2.123-1.158c0.354,0.672-1.344,1.592,2.052,0.955c0.425-0.354,0-1.273,0-1.273l2.406,0.318l0.778,1.521"
			/>
	</g>
	<g id="Sparcles">
		<g>
			<g>
				<path fill="#F7941E" d="M70.522,208.632c1.29,0,1.29-2,0-2S69.232,208.632,70.522,208.632L70.522,208.632z"/>
			</g>
		</g>
		<g>
			<g>
				<path fill="#F7941E" d="M82.021,239.253c1.29,0,1.29-2,0-2S80.732,239.253,82.021,239.253L82.021,239.253z"/>
			</g>
		</g>
		<g>
			<g>
				<path fill="#F7941E" d="M116.852,213.359c1.29,0,1.29-2,0-2S115.562,213.359,116.852,213.359L116.852,213.359z"/>
			</g>
		</g>
		<g>
			<g>
				<path fill="#F7941E" d="M107.887,144.094c1.29,0,1.29-2,0-2C106.597,142.094,106.597,144.094,107.887,144.094L107.887,144.094z"
					/>
			</g>
		</g>
		<g>
			<g>
				<path fill="#F7941E" d="M142.412,174.334c1.29,0,1.29-2,0-2S141.122,174.334,142.412,174.334L142.412,174.334z"/>
			</g>
		</g>
		<g>
			<g>
				<path fill="#F7941E" d="M154.287,180.803c1.29,0,1.29-2,0-2S152.997,180.803,154.287,180.803L154.287,180.803z"/>
			</g>
		</g>
		<g>
			<g>
				<path fill="#F7941E" d="M150.772,189.127c1.29,0,1.29-2,0-2S149.482,189.127,150.772,189.127L150.772,189.127z"/>
			</g>
		</g>
		<g>
			<g>
				<path fill="#F7941E" d="M148.438,193.604c1.29,0,1.29-2,0-2S147.149,193.604,148.438,193.604L148.438,193.604z"/>
			</g>
		</g>
		<g>
			<g>
				<path fill="#F7941E" d="M148.087,199.104c1.29,0,1.29-2,0-2S146.798,199.104,148.087,199.104L148.087,199.104z"/>
			</g>
		</g>
		<g>
			<g>
				<path fill="#F7941E" d="M150.772,203.604c1.29,0,1.29-2,0-2S149.482,203.604,150.772,203.604L150.772,203.604z"/>
			</g>
		</g>
		<g>
			<g>
				<path fill="#F7941E" d="M147.012,158.334c1.29,0,1.29-2,0-2C145.722,156.334,145.722,158.334,147.012,158.334L147.012,158.334z"
					/>
			</g>
		</g>
		<g>
			<g>
				<path fill="#F7941E" d="M151.824,163.586c1.29,0,1.29-2,0-2C150.534,161.586,150.535,163.586,151.824,163.586L151.824,163.586z"
					/>
			</g>
		</g>
		<g>
			<g>
				<path fill="#F7941E" d="M122.185,200.693c1.29,0,1.29-2,0-2S120.896,200.693,122.185,200.693L122.185,200.693z"/>
			</g>
		</g>
		<g>
			<g>
				<path fill="#F7941E" d="M157.021,216.92c1.29,0,1.29-2,0-2S155.732,216.92,157.021,216.92L157.021,216.92z"/>
			</g>
		</g>
		<g>
			<g>
				<path fill="#F7941E" d="M195.355,266.253c1.29,0,1.29-2,0-2S194.065,266.253,195.355,266.253L195.355,266.253z"/>
			</g>
		</g>
		<g>
			<g>
				<path fill="#F7941E" d="M197.021,258.587c1.29,0,1.29-2,0-2S195.732,258.587,197.021,258.587L197.021,258.587z"/>
			</g>
		</g>
		<g>
			<g>
				<path fill="#F7941E" d="M204.688,259.253c1.29,0,1.29-2,0-2S203.399,259.253,204.688,259.253L204.688,259.253z"/>
			</g>
		</g>
		<g>
			<g>
				<path fill="#F7941E" d="M206.355,272.587c1.29,0,1.29-2,0-2S205.065,272.587,206.355,272.587L206.355,272.587z"/>
			</g>
		</g>
		<g>
			<g>
				<path fill="#F7941E" d="M196.355,279.253c1.29,0,1.29-2,0-2S195.065,279.253,196.355,279.253L196.355,279.253z"/>
			</g>
		</g>
		<g>
			<g>
				<path fill="#F7941E" d="M186.688,268.587c1.29,0,1.29-2,0-2S185.399,268.587,186.688,268.587L186.688,268.587z"/>
			</g>
		</g>
		<g>
			<g>
				<path fill="#F7941E" d="M181.021,265.253c1.29,0,1.29-2,0-2S179.732,265.253,181.021,265.253L181.021,265.253z"/>
			</g>
		</g>
		<g>
			<g>
				<path fill="#F7941E" d="M65.355,223.087c1.29,0,1.29-2,0-2S64.065,223.087,65.355,223.087L65.355,223.087z"/>
			</g>
		</g>
		<g>
			<g>
				<path fill="#F7941E" d="M82.021,170.001c1.29,0,1.29-2,0-2S80.732,170.001,82.021,170.001L82.021,170.001z"/>
			</g>
		</g>
		<g>
			<g>
				<path fill="#F7941E" d="M87.688,228.587c1.29,0,1.29-2,0-2S86.399,228.587,87.688,228.587L87.688,228.587z"/>
			</g>
		</g>
		<g>
			<g>
				<path fill="#F7941E" d="M113.887,115.428c1.29,0,1.29-2,0-2C112.597,113.428,112.597,115.428,113.887,115.428L113.887,115.428z"
					/>
			</g>
		</g>
		<g>
			<g>
				<path fill="#F7941E" d="M85.667,98.617c1.29,0,1.29-2,0-2S84.377,98.617,85.667,98.617L85.667,98.617z"/>
			</g>
		</g>
		<g>
			<g>
				<path fill="#F7941E" d="M177.021,105.993c1.29,0,1.29-2,0-2S175.732,105.993,177.021,105.993L177.021,105.993z"/>
			</g>
		</g>
		<g>
			<g>
				<path fill="#F7941E" d="M170.688,116.993c1.29,0,1.29-2,0-2S169.398,116.993,170.688,116.993L170.688,116.993z"/>
			</g>
		</g>
		<g>
			<g>
				<path fill="#F7941E" d="M170.977,130.492c1.29,0,1.29-2,0-2S169.687,130.492,170.977,130.492L170.977,130.492z"/>
			</g>
		</g>
		<g>
			<g>
				<path fill="#F7941E" d="M158.644,140.826c1.29,0,1.29-2,0-2S157.354,140.826,158.644,140.826L158.644,140.826z"/>
			</g>
		</g>
		<g>
			<g>
				<path fill="#F7941E" d="M166.644,135.492c1.29,0,1.29-2,0-2S165.354,135.492,166.644,135.492L166.644,135.492z"/>
			</g>
		</g>
		<g>
			<g>
				<path fill="#F7941E" d="M182.021,121.993c1.29,0,1.29-2,0-2S180.732,121.993,182.021,121.993L182.021,121.993z"/>
			</g>
		</g>
		<g>
			<g>
				<path fill="#F7941E" d="M182.355,101.659c1.29,0,1.29-2,0-2S181.065,101.659,182.355,101.659L182.355,101.659z"/>
			</g>
		</g>
		<g>
			<g>
				<path fill="#F7941E" d="M137.352,149.377c1.29,0,1.29-2,0-2S136.062,149.377,137.352,149.377L137.352,149.377z"/>
			</g>
		</g>
		<g>
			<g>
				<path fill="#F7941E" d="M134.021,218.253c1.29,0,1.29-2,0-2S132.732,218.253,134.021,218.253L134.021,218.253z"/>
			</g>
		</g>
		<g>
			<g>
				<path fill="#F7941E" d="M116.688,227.253c1.29,0,1.29-2,0-2S115.399,227.253,116.688,227.253L116.688,227.253z"/>
			</g>
		</g>
		<g>
			<g>
				<path fill="#F7941E" d="M147.688,244.587c1.29,0,1.29-2,0-2S146.399,244.587,147.688,244.587L147.688,244.587z"/>
			</g>
		</g>
	</g>
	<g id="Ebene_5">
		<path fill="none" stroke="#64646A" stroke-linecap="round" stroke-linejoin="round" stroke-miterlimit="10" d="M408.406,31.889
			c0,0-1.681,28.321,0,33.509c0,0,46.016,2.378,55.891,0c1.471-6.918,0.211-33.509,0-34.589c-0.211-1.082-53.789-1.081-54.84,0
			c-1.051,1.08,0,33.076,0,33.076l52.738,0.649c0,0,1.254-29.904,0.42-31.996C461.783,30.445,408.406,31.889,408.406,31.889"/>
		<path fill="none" stroke="#64646A" stroke-linecap="round" stroke-linejoin="round" stroke-miterlimit="10" d="M405.675,83.774
			h61.771c0,0,2.207,3.676,0.631,3.892s-62.402-0.541-62.402-0.541s-3.174-2.486,1.984-2.486s59.369,0.541,59.369,0.541l-3.47-6.81
			c0,0-51.793-1.297-53.475-0.865c-1.68,0.433-3.045,8.54-3.045,8.54s-0.211-9.62,3.676-9.729c3.889-0.108,53.687,0,53.687,0
			l1.891,5.669"/>
		<path fill="none" stroke="#64646A" stroke-linecap="round" stroke-linejoin="round" stroke-miterlimit="10" d="M418.912,75.344
			c0,0-0.629-3.892,1.996-4c2.627-0.108,8.192,0.326,8.51-1.513c0.316-1.838,0-4.432,0-4.432"/>
		<path fill="none" stroke="#64646A" stroke-linecap="round" stroke-linejoin="round" stroke-miterlimit="10" d="M452.531,76.269
			c0,0,1.26-4.493-3.047-5.033c-4.31-0.54-7.146,0.107-6.306-5.837"/>
	</g>
	<g id="Ebene_7">
		<polyline fill="none" stroke="#64646A" stroke-linecap="round" stroke-linejoin="round" stroke-miterlimit="10" points="
			148.518,120.326 150.62,211.427 145.276,203.143 154.276,202.729 149.572,211.427 142.214,203.143 156.339,202.936 
			150.62,211.427 149.501,120.955 		"/>
		<polyline fill="none" stroke="#64646A" stroke-linecap="round" stroke-linejoin="round" stroke-miterlimit="10" points="
			191.699,266.521 278.831,265.928 281.164,61.078 391.832,62.245 384.498,57.911 383.331,68.226 393.832,62.245 383.164,55.078 
			389.8,63.078 276.498,62.411 280.997,267.923 193.175,268.014 		"/>
		<polygon fill="none" stroke="#64646A" stroke-linecap="round" stroke-linejoin="round" stroke-miterlimit="10" points="
			491.982,188.854 483.814,197.657 489.814,203.854 490.982,202.52 570.48,201.355 569.648,205.189 578.814,197.661 
			568.648,190.355 568.648,195.521 491.982,196.354 491.314,191.604 486.148,197.657 491.148,206.188 490.982,201.188 
			568.648,202.189 569.48,206.189 575.814,198.855 570.314,193.355 569.48,196.021 490.982,196.188 		"/>
	</g>
	<g id="Ebene_8">
		<path fill="none" stroke="#64646A" stroke-linecap="round" stroke-linejoin="round" stroke-miterlimit="10" d="M446.884,171.992
			c-0.141,1.963-3.584,39.474,1.326,40.877c4.908,1.4,20.969,1.752,21.529,0c0.561-1.754,2.354-39.604,0-41.446
			c-1.613-1.263-20.479-2.666-22.58,0c-2.105,2.666-1.799,38.759-1.027,40.793c0.142,2.524,9.644,0.819,21.914,0.329
			c1.133-0.166,2.535-1.079,2.877-40.633c0,0-3.287-4.418-23.135-0.209"/>
		<path fill="none" stroke="#64646A" stroke-linecap="round" stroke-linejoin="round" stroke-miterlimit="10" d="M448.912,174.93
			c0.068,0.209-1.543,32.818-1.053,33.029c0.489,0.211,20.196,0,20.196,0l0.353-33.029l-20.06-0.422"/>
		<path fill="none" stroke="#64646A" stroke-linecap="round" stroke-linejoin="round" stroke-miterlimit="10" d="M458.517,172.052
			c0,0-2.731-0.278-2.731,0.702c0,0.982,1.053,1.475,3.717,1.475c2.666,0,3.717-0.912,2.523-1.612
			c-1.191-0.703-5.259-1.337-5.75-0.601"/>
		<path fill="none" stroke="#64646A" stroke-linecap="round" stroke-linejoin="round" stroke-miterlimit="10" d="M461.396,209.643
			c0,0-5.755-0.562-6.277,0.49c-0.525,1.053-0.455,1.543,0.666,1.754c1.125,0.211,8.135,0.646,7.014-1.611
			c-0.631-1.123-3.647-1.053-3.647-1.053"/>
	</g>
	<g id="Ebene_10">
		<text transform="matrix(1 0 0 1 425.9229 229.126)" fill="#64646A" font-family="'Avenir-Medium'" font-size="13">smartphone</text>
		<text transform="matrix(1 0 0 1 438.4902 243.7285)" fill="#64646A" font-family="'Avenir-Medium'" font-size="13">of client</text>
		<text transform="matrix(1 0 0 1 421.5811 102.8794)" fill="#64646A" font-family="'Avenir-Medium'" font-size="13">portal</text>
		<text transform="matrix(1 0 0 1 408.4316 117.8813)" fill="#64646A" font-family="'Avenir-Medium'" font-size="13">(Web GUI)</text>
		<text transform="matrix(1 0 0 1 137.4268 92.873)" fill="#64646A" font-family="'Avenir-Medium'" font-size="13">test</text>
		<text transform="matrix(1 0 0 1 133.5342 104.874)" fill="#64646A" font-family="'Avenir-Medium'" font-size="13">cases</text>
	</g>
	<g id="Ebene_11">
		<text transform="matrix(1 0 0 1 557.543 180.8027)" fill="#F7941E" font-family="'Avenir-Medium'" font-size="15">7</text>
		<text transform="matrix(1 0 0 1 506.9082 80.0947)" fill="#F7941E" font-family="'Avenir-Medium'" font-size="15">6</text>
		<text transform="matrix(1 0 0 1 338.8032 80.0947)" fill="#F7941E" font-family="'Avenir-Medium'" font-size="15">5</text>
		<text transform="matrix(1 0 0 1 497.6367 221.0869)" fill="#F7941E" font-family="'Avenir-Medium'" font-size="15">4</text>
		<text transform="matrix(1 0 0 1 618.9629 110.875)" fill="#F7941E" font-family="'Avenir-Medium'" font-size="15">3</text>
		<text transform="matrix(1 0 0 1 519.877 50.5078)" fill="#F7941E" font-family="'Avenir-Medium'" font-size="15">2</text>
		<text transform="matrix(1 0 0 1 292.7656 55.0781)" fill="#F7941E" font-family="'Avenir-Medium'" font-size="15"> 1</text>
	</g>
	<polyline fill="none" stroke="#64646A" stroke-linecap="round" stroke-linejoin="round" stroke-miterlimit="10" points="
		198.989,281.37 457.22,281.75 455.7,250.113 450.67,253.719 460.505,255.76 455.988,249.093 450.295,255.344 461.574,255.785 
		456.79,249.093 454.981,279.014 199.095,280.25 	"/>
</g>
<g id="Ebene_2">
	<g id="Ebene_9_2_">
		<polyline fill="none" stroke="#0094AC" stroke-linecap="round" stroke-linejoin="round" stroke-miterlimit="10" points="
			681.338,24.813 677.088,76.563 595.838,74.852 594.838,24.813 677.838,20.563 680.088,77.813 594.838,77.813 592.088,27.063 
			681.338,23.813 		"/>
		<path fill="none" stroke="#0094AC" stroke-linecap="round" stroke-linejoin="round" stroke-miterlimit="10" d="M677.414,111.264
			c0,0-2.248,19.445,0,37.156c9.223,4.427,39.576,11.166,65.436,1.923c0.45-15.98,0.898-39.081,0.898-39.081l4.722,34.269
			c0,0-20.014,12.898-74.657,4.812c-0.225-13.86,1.125-40.235,3.6-41.775"/>
		<path fill="none" stroke="#0094AC" stroke-linecap="round" stroke-linejoin="round" stroke-miterlimit="10" d="M678.315,108.567
			c0,0-4.274-4.622,8.543-6.93c12.817-2.312,55.543-4.813,56.892,3.465c0.227,4.043-7.194,9.048-29.009,9.048
			c-15.742,0-44.092-6.161-37.11-10.205c6.98-4.043,53.302-2.502,60.949-0.384c7.646,2.117,6.297,6.161,2.25,7.7
			c-4.05,1.54-67.714,3.754-62.993-5.422"/>
		<polyline fill="none" stroke="#0094AC" stroke-linecap="round" stroke-linejoin="round" stroke-miterlimit="10" points="
			594.834,174.044 685.592,174.044 684.106,231.111 595.644,227.732 593.213,171.48 684.241,171.48 687.213,228.413 
			593.213,229.492 596.049,169.861 		"/>
		<polyline fill="none" stroke="#0094AC" stroke-linecap="round" stroke-linejoin="round" stroke-miterlimit="10" points="
			639.461,77.813 627.711,86.61 634.709,86.61 636.713,164.608 629.209,164.608 638.709,170.359 647.208,163.609 640.209,163.61 
			639.709,85.61 640.958,85.935 648.958,85.11 637.459,77.813 630.709,85.361 636.211,85.611 635.711,164.11 629.459,163.36 
			640.211,170.105 649.209,163.61 641.709,164.863 640.709,87.11 648.209,86.61 637.459,77.813 		"/>
		<path fill="none" stroke="#0094AC" stroke-linecap="round" stroke-linejoin="round" stroke-miterlimit="10" d="M680.336,49.508
			l5.875,4.601l-1.002-8.875l-3.871,3.954c0,0,19.621-3.032,26.121,7.319c3.566,5.679,9.881,16.058,2.75,32.1c-1,2.25-3,8.5-3,8.5
			l-3.752-7.307l9.502,2.558l-6.5,4.75l-3.5-7.307l11.498,3.587l-8.248,4.388c0,0,11.525-24.915,3.721-39.187
			C706.543,52.398,699.709,50.508,680.336,49.508z"/>
	</g>
	<polyline fill="none" stroke="#64646A" stroke-linecap="round" stroke-linejoin="round" stroke-miterlimit="10" points="
		555.709,61.842 500.918,62.508 500.086,68.508 490.586,58.806 500.918,52.341 500.752,57.175 554.375,57.008 554.709,53.342 
		561.709,59.842 555.709,66.175 555.709,61.842 499.586,61.175 499.586,66.175 492.918,59.008 499.586,51.438 499.586,56.508 
		555.875,56.842 555.709,50.508 563.543,59.508 554.875,68.508 554.704,61.826 	"/>
	<text transform="matrix(1 0 0 1 618.7891 47.2354)" fill="#0194AC" font-family="'Avenir-Medium'" font-size="13">online</text>
	<text transform="matrix(1 0 0 1 618.9639 60.2363)" fill="#0194AC" font-family="'Avenir-Medium'" font-size="13">portal</text>
	<text transform="matrix(1 0 0 1 683.1992 127.6157)" fill="#0094AC" font-family="'Avenir-Medium'" font-size="13">customer</text>
	<text transform="matrix(1 0 0 1 696.1699 141.6187)" fill="#0094AC" font-family="'Avenir-Medium'" font-size="13">data</text>
	<text transform="matrix(1 0 0 1 626.1152 196.9453)" fill="#0094AC" font-family="'Avenir-Medium'" font-size="13">form</text>
	<text transform="matrix(1 0 0 1 612.7822 212.9482)" fill="#0094AC" font-family="'Avenir-Medium'" font-size="13">application</text>
</g>
</svg>
