<?xml version="1.0" encoding="utf-8"?>
<!-- Generator: Adobe Illustrator 16.0.0, SVG Export Plug-In . SVG Version: 6.00 Build 0)  -->
<!DOCTYPE svg PUBLIC "-//W3C//DTD SVG 1.1//EN" "http://www.w3.org/Graphics/SVG/1.1/DTD/svg11.dtd">
<svg version="1.1" id="Ebene_1" xmlns="http://www.w3.org/2000/svg" xmlns:xlink="http://www.w3.org/1999/xlink" x="0px" y="0px"
	 width="767.941px" height="328.5px" viewBox="0 0 767.941 328.5" enable-background="new 0 0 767.941 328.5" xml:space="preserve">
<g id="Ebene_3">
	<path fill="none" stroke="#64646A" stroke-linecap="round" stroke-linejoin="round" stroke-miterlimit="10" d="M167.214,70.984
		c0,0,24.987,2.906,26.038,3.114c1.05,0.208-11.339,48.37-11.339,48.37s-73.497-9.34-77.277-8.928
		c4.829-7.265,9.029-12.455,8.608-48.576c24.78,1.453,75.339,6.171,77.067,11.209c-1.259,7.888-6.509,43.179-5.88,49.615
		c-13.441-1.246-75.807-13.909-75.807-13.909s8.19-8.719,7.14-43.387c12.179-0.83,68.038,4.982,71.608,7.059"/>
	<polyline fill="none" stroke="#64646A" stroke-linecap="round" stroke-linejoin="round" stroke-miterlimit="10" points="
		173.934,70.984 189.893,70.984 189.893,73.663 	"/>
	<path fill="none" stroke="#64646A" stroke-linecap="round" stroke-linejoin="round" stroke-miterlimit="10" d="M185.902,120.391
		h6.089c0,0-3.421-22.835-3.286-25.016c0.557,14.428,1.186,27.921,1.186,27.921H184.4"/>
	<path fill="none" stroke="#64646A" stroke-linecap="round" stroke-linejoin="round" stroke-miterlimit="10" d="M148.976,119.041
		l-40.597-0.69c0,0,1.05-1.454,1.68-3.736c0,3.736-1.68,6.436-1.68,6.436l45.814-0.246"/>
</g>
<g id="Ebene_4">
	<path fill="none" stroke="#64646A" stroke-linecap="round" stroke-linejoin="round" stroke-miterlimit="10" d="M187.657,263.396
		h-92.66l-16.23,26.605c0,0,5.662,4.906,7.36,5.475c1.699,0.564,110.21,0,110.21,0s7.171-5.098,7.171-5.852
		s-15.097-27.176-15.097-27.176L95.374,264.9l-14.91,25.479l5.662,4.531l109.456-0.758l5.85-5.096l-13.295-26.572l0.18-50.707
		c0,0-89.357-1.604-90.112-1.035c-0.755,0.564-3.02,51.521-3.02,51.521l3.869-50.768l90.3,1.887l-0.943,49.066"/>
	<polyline fill="none" stroke="#64646A" stroke-linecap="round" stroke-linejoin="round" stroke-miterlimit="10" points="
		80.655,290.193 201.054,290.229 83.108,291.514 	"/>
	<path fill="none" stroke="#64646A" stroke-linecap="round" stroke-linejoin="round" stroke-miterlimit="10" d="M184.92,259.055
		c0,0-85.395,1.037-85.866,0c-0.472-1.037,3.302-43.688,3.302-43.688h82.563v42.65l-85.3,0.188l3.585-41.895l79.733,0.281
		l0.566,43.375"/>
	<path fill="none" stroke="#64646A" stroke-linecap="round" stroke-linejoin="round" stroke-miterlimit="10" d="M97.969,277.643
		c0,0,1.664-1.332,1.044-1.764c-0.62-0.43-4.229-0.43-4.229-0.43l-0.92,2.193h9.2l0.708-1.602"/>
	<path fill="none" stroke="#64646A" stroke-linecap="round" stroke-linejoin="round" stroke-miterlimit="10" d="M104.692,277.643
		h3.326c0,0,0.991-2.477,2.406-2.191c0,0.777,0,2.191,0,2.191h2.619l1.415-1.096l0.85,1.521h2.618l0.354-0.426"/>
	<polyline fill="none" stroke="#64646A" stroke-linecap="round" stroke-linejoin="round" stroke-miterlimit="10" points="
		122.313,278.068 123.092,276.748 125.781,276.547 126.064,278.068 122.667,278.068 	"/>
	<polyline fill="none" stroke="#64646A" stroke-linecap="round" stroke-linejoin="round" stroke-miterlimit="10" points="
		128.117,276.748 128.117,278.068 130.452,278.068 131.655,276.547 133.637,276.223 134.273,278.492 138.661,278.492 
		138.661,275.879 135.193,275.879 135.335,277.643 	"/>
	<polyline fill="none" stroke="#64646A" stroke-linecap="round" stroke-linejoin="round" stroke-miterlimit="10" points="
		141.138,276.547 140.572,278.068 146.729,278.068 145.879,276.547 148.427,276.223 148.852,277.643 	"/>
	
		<line fill="none" stroke="#64646A" stroke-linecap="round" stroke-linejoin="round" stroke-miterlimit="10" x1="151.187" y1="276.223" x2="151.824" y2="278.068"/>
	<polyline fill="none" stroke="#64646A" stroke-linecap="round" stroke-linejoin="round" stroke-miterlimit="10" points="
		153.735,276.547 154.372,278.068 159.255,278.492 159.255,276.547 	"/>
	<polyline fill="none" stroke="#64646A" stroke-linecap="round" stroke-linejoin="round" stroke-miterlimit="10" points="
		161.802,277.146 161.802,278.068 165.766,278.068 165.766,276.748 167.251,278.068 167.959,276.547 	"/>
	<polyline fill="none" stroke="#64646A" stroke-linecap="round" stroke-linejoin="round" stroke-miterlimit="10" points="
		170.012,277.643 171.993,277.643 172.417,276.043 	"/>
	<path fill="none" stroke="#64646A" stroke-linecap="round" stroke-linejoin="round" stroke-miterlimit="10" d="M175.107,276.043
		v2.025l3.821-0.426l1.84-1.766l2.972,0.164l0.425,1.104c0,0,0.283,0.071-0.425,0.496c-0.708,0.426-2.901,0.851-2.901,0.851"/>
	<path fill="none" stroke="#64646A" stroke-linecap="round" stroke-linejoin="round" stroke-miterlimit="10" d="M185.722,277.643
		c0.212,0.213,3.397-0.336,3.397-0.336l-0.708-1.855l-3.491-0.426l2.642-0.564l-0.542-1.484h-3.421l0.622,1.84"/>
	<path fill="none" stroke="#64646A" stroke-linecap="round" stroke-linejoin="round" stroke-miterlimit="10" d="M182.113,273.68
		v1.273c0,0-3.524,0.492-3.821-0.637c-0.425,0.85-3.68,1.664-3.963,0.055c-0.354,1.008-2.973,1.078-3.822,1.078
		c-0.849,0,0-1.344,0-1.344"/>
	<polyline fill="none" stroke="#64646A" stroke-linecap="round" stroke-linejoin="round" stroke-miterlimit="10" points="
		167.959,273.68 167.959,275.332 163.643,275.332 164.35,273.68 162.652,273.68 	"/>
	<polyline fill="none" stroke="#64646A" stroke-linecap="round" stroke-linejoin="round" stroke-miterlimit="10" points="
		160.175,273.68 160.175,275.332 154.867,275.449 155.504,273.68 157.521,273.68 	"/>
	<polyline fill="none" stroke="#64646A" stroke-linecap="round" stroke-linejoin="round" stroke-miterlimit="10" points="
		153.098,273.68 152.39,274.953 145.455,274.316 146.304,272.973 148.852,273.68 	"/>
	<polyline fill="none" stroke="#64646A" stroke-linecap="round" stroke-linejoin="round" stroke-miterlimit="10" points="
		142.412,274.506 138.661,274.564 137.67,272.973 137.67,274.506 132.292,274.564 132.292,273.256 134.486,272.973 	"/>
	<polyline fill="none" stroke="#64646A" stroke-linecap="round" stroke-linejoin="round" stroke-miterlimit="10" points="
		128.966,274.506 128.966,272.619 123.587,272.619 123.233,273.963 126.064,273.963 126.064,272.973 	"/>
	<polyline fill="none" stroke="#64646A" stroke-linecap="round" stroke-linejoin="round" stroke-miterlimit="10" points="
		120.261,272.973 120.261,274.506 116.015,274.506 116.015,272.973 	"/>
	<polyline fill="none" stroke="#64646A" stroke-linecap="round" stroke-linejoin="round" stroke-miterlimit="10" points="
		113.396,273.963 112.831,272.619 110.708,273.963 108.655,273.963 108.655,272.619 	"/>
	<polyline fill="none" stroke="#64646A" stroke-linecap="round" stroke-linejoin="round" stroke-miterlimit="10" points="
		106.886,274.506 104.692,272.619 102.428,273.562 96.483,273.562 96.483,272.619 	"/>
	<polyline fill="none" stroke="#64646A" stroke-linecap="round" stroke-linejoin="round" stroke-miterlimit="10" points="
		98.113,268.549 98.892,269.965 101.864,269.965 102.501,269.258 103.209,269.965 106.747,270.461 106.747,269.504 	"/>
	<polyline fill="none" stroke="#64646A" stroke-linecap="round" stroke-linejoin="round" stroke-miterlimit="10" points="
		110.286,268.549 109.79,269.965 111.984,270.178 	"/>
	<polyline fill="none" stroke="#64646A" stroke-linecap="round" stroke-linejoin="round" stroke-miterlimit="10" points="
		114.246,268.939 114.246,269.787 116.475,269.787 117.572,268.939 118.563,270.07 121.677,270.07 122.313,268.939 123.021,270.07 
		124.791,270.07 	"/>
	<polyline fill="none" stroke="#64646A" stroke-linecap="round" stroke-linejoin="round" stroke-miterlimit="10" points="
		127.621,268.939 127.268,270.178 130.381,270.461 130.381,268.939 128.117,268.939 	"/>
	<path fill="none" stroke="#64646A" stroke-linecap="round" stroke-linejoin="round" stroke-miterlimit="10" d="M133.389,269.08
		l-1.097,1.15h4.104v-1.15h2.76l0.637,0.955h1.345l1.273-1.273h3.963l0.637,1.273c0,0-2.972,0.248-3.185,0.195"/>
	<polyline fill="none" stroke="#64646A" stroke-linecap="round" stroke-linejoin="round" stroke-miterlimit="10" points="
		149.276,270.238 150.55,268.762 152.249,268.762 153.098,270.23 	"/>
	<polyline fill="none" stroke="#64646A" stroke-linecap="round" stroke-linejoin="round" stroke-miterlimit="10" points="
		157.132,270.42 157.132,268.58 160.175,269.287 160.175,270.42 	"/>
	<polyline fill="none" stroke="#64646A" stroke-linecap="round" stroke-linejoin="round" stroke-miterlimit="10" points="
		162.652,270.525 162.227,268.898 165.907,268.898 165.907,270.42 167.393,270.525 	"/>
	<polyline fill="none" stroke="#64646A" stroke-linecap="round" stroke-linejoin="round" stroke-miterlimit="10" points="
		169.445,268.898 167.959,269.287 168.702,270.809 170.129,270.525 170.719,269.5 173.196,269.287 173.479,270.055 171.215,270.809 
			"/>
	<path fill="none" stroke="#64646A" stroke-linecap="round" stroke-linejoin="round" stroke-miterlimit="10" d="M176.876,269.287
		c-0.566-0.07-2.477,0.213-2.477,0.213l0.283,1.309h1.439"/>
	<path fill="none" stroke="#64646A" stroke-linecap="round" stroke-linejoin="round" stroke-miterlimit="10" d="M180.199,270.41
		h-1.727c0,0-0.708-1.547,2.123-1.158c0.354,0.672-1.344,1.592,2.052,0.955c0.425-0.354,0-1.273,0-1.273l2.406,0.318l0.778,1.521"/>
</g>
<g id="Sparcles">
	<g>
		<g>
			<path fill="#F7941E" d="M70.522,208.632c1.29,0,1.29-2,0-2S69.232,208.632,70.522,208.632L70.522,208.632z"/>
		</g>
	</g>
	<g>
		<g>
			<path fill="#F7941E" d="M82.021,239.253c1.29,0,1.29-2,0-2S80.732,239.253,82.021,239.253L82.021,239.253z"/>
		</g>
	</g>
	<g>
		<g>
			<path fill="#F7941E" d="M116.852,213.359c1.29,0,1.29-2,0-2S115.562,213.359,116.852,213.359L116.852,213.359z"/>
		</g>
	</g>
	<g>
		<g>
			<path fill="#F7941E" d="M107.887,144.094c1.29,0,1.29-2,0-2C106.597,142.094,106.597,144.094,107.887,144.094L107.887,144.094z"
				/>
		</g>
	</g>
	<g>
		<g>
			<path fill="#F7941E" d="M142.412,174.334c1.29,0,1.29-2,0-2S141.122,174.334,142.412,174.334L142.412,174.334z"/>
		</g>
	</g>
	<g>
		<g>
			<path fill="#F7941E" d="M154.287,180.803c1.29,0,1.29-2,0-2S152.997,180.803,154.287,180.803L154.287,180.803z"/>
		</g>
	</g>
	<g>
		<g>
			<path fill="#F7941E" d="M150.772,189.127c1.29,0,1.29-2,0-2S149.482,189.127,150.772,189.127L150.772,189.127z"/>
		</g>
	</g>
	<g>
		<g>
			<path fill="#F7941E" d="M148.438,193.604c1.29,0,1.29-2,0-2S147.149,193.604,148.438,193.604L148.438,193.604z"/>
		</g>
	</g>
	<g>
		<g>
			<path fill="#F7941E" d="M148.087,199.104c1.29,0,1.29-2,0-2S146.798,199.104,148.087,199.104L148.087,199.104z"/>
		</g>
	</g>
	<g>
		<g>
			<path fill="#F7941E" d="M150.772,203.604c1.29,0,1.29-2,0-2S149.482,203.604,150.772,203.604L150.772,203.604z"/>
		</g>
	</g>
	<g>
		<g>
			<path fill="#F7941E" d="M147.012,158.334c1.29,0,1.29-2,0-2C145.722,156.334,145.722,158.334,147.012,158.334L147.012,158.334z"
				/>
		</g>
	</g>
	<g>
		<g>
			<path fill="#F7941E" d="M151.824,163.586c1.29,0,1.29-2,0-2C150.534,161.586,150.535,163.586,151.824,163.586L151.824,163.586z"
				/>
		</g>
	</g>
	<g>
		<g>
			<path fill="#F7941E" d="M122.185,200.693c1.29,0,1.29-2,0-2S120.896,200.693,122.185,200.693L122.185,200.693z"/>
		</g>
	</g>
	<g>
		<g>
			<path fill="#F7941E" d="M157.021,216.92c1.29,0,1.29-2,0-2S155.732,216.92,157.021,216.92L157.021,216.92z"/>
		</g>
	</g>
	<g>
		<g>
			<path fill="#F7941E" d="M195.355,266.253c1.29,0,1.29-2,0-2S194.065,266.253,195.355,266.253L195.355,266.253z"/>
		</g>
	</g>
	<g>
		<g>
			<path fill="#F7941E" d="M197.021,258.587c1.29,0,1.29-2,0-2S195.732,258.587,197.021,258.587L197.021,258.587z"/>
		</g>
	</g>
	<g>
		<g>
			<path fill="#F7941E" d="M204.688,259.253c1.29,0,1.29-2,0-2S203.399,259.253,204.688,259.253L204.688,259.253z"/>
		</g>
	</g>
	<g>
		<g>
			<path fill="#F7941E" d="M206.355,272.587c1.29,0,1.29-2,0-2S205.065,272.587,206.355,272.587L206.355,272.587z"/>
		</g>
	</g>
	<g>
		<g>
			<path fill="#F7941E" d="M196.355,279.253c1.29,0,1.29-2,0-2S195.065,279.253,196.355,279.253L196.355,279.253z"/>
		</g>
	</g>
	<g>
		<g>
			<path fill="#F7941E" d="M186.688,268.587c1.29,0,1.29-2,0-2S185.399,268.587,186.688,268.587L186.688,268.587z"/>
		</g>
	</g>
	<g>
		<g>
			<path fill="#F7941E" d="M181.021,265.253c1.29,0,1.29-2,0-2S179.732,265.253,181.021,265.253L181.021,265.253z"/>
		</g>
	</g>
	<g>
		<g>
			<path fill="#F7941E" d="M65.355,223.087c1.29,0,1.29-2,0-2S64.065,223.087,65.355,223.087L65.355,223.087z"/>
		</g>
	</g>
	<g>
		<g>
			<path fill="#F7941E" d="M82.021,170.001c1.29,0,1.29-2,0-2S80.732,170.001,82.021,170.001L82.021,170.001z"/>
		</g>
	</g>
	<g>
		<g>
			<path fill="#F7941E" d="M87.688,228.587c1.29,0,1.29-2,0-2S86.399,228.587,87.688,228.587L87.688,228.587z"/>
		</g>
	</g>
	<g>
		<g>
			<path fill="#F7941E" d="M113.887,115.428c1.29,0,1.29-2,0-2C112.597,113.428,112.597,115.428,113.887,115.428L113.887,115.428z"
				/>
		</g>
	</g>
	<g>
		<g>
			<path fill="#F7941E" d="M85.667,98.617c1.29,0,1.29-2,0-2S84.377,98.617,85.667,98.617L85.667,98.617z"/>
		</g>
	</g>
	<g>
		<g>
			<path fill="#F7941E" d="M177.021,105.993c1.29,0,1.29-2,0-2S175.732,105.993,177.021,105.993L177.021,105.993z"/>
		</g>
	</g>
	<g>
		<g>
			<path fill="#F7941E" d="M170.688,116.993c1.29,0,1.29-2,0-2S169.398,116.993,170.688,116.993L170.688,116.993z"/>
		</g>
	</g>
	<g>
		<g>
			<path fill="#F7941E" d="M170.977,130.492c1.29,0,1.29-2,0-2S169.687,130.492,170.977,130.492L170.977,130.492z"/>
		</g>
	</g>
	<g>
		<g>
			<path fill="#F7941E" d="M158.644,140.826c1.29,0,1.29-2,0-2S157.354,140.826,158.644,140.826L158.644,140.826z"/>
		</g>
	</g>
	<g>
		<g>
			<path fill="#F7941E" d="M166.644,135.492c1.29,0,1.29-2,0-2S165.354,135.492,166.644,135.492L166.644,135.492z"/>
		</g>
	</g>
	<g>
		<g>
			<path fill="#F7941E" d="M182.021,121.993c1.29,0,1.29-2,0-2S180.732,121.993,182.021,121.993L182.021,121.993z"/>
		</g>
	</g>
	<g>
		<g>
			<path fill="#F7941E" d="M182.355,101.659c1.29,0,1.29-2,0-2S181.065,101.659,182.355,101.659L182.355,101.659z"/>
		</g>
	</g>
	<g>
		<g>
			<path fill="#F7941E" d="M137.352,149.377c1.29,0,1.29-2,0-2S136.062,149.377,137.352,149.377L137.352,149.377z"/>
		</g>
	</g>
	<g>
		<g>
			<path fill="#F7941E" d="M134.021,218.253c1.29,0,1.29-2,0-2S132.732,218.253,134.021,218.253L134.021,218.253z"/>
		</g>
	</g>
	<g>
		<g>
			<path fill="#F7941E" d="M116.688,227.253c1.29,0,1.29-2,0-2S115.399,227.253,116.688,227.253L116.688,227.253z"/>
		</g>
	</g>
	<g>
		<g>
			<path fill="#F7941E" d="M147.688,244.587c1.29,0,1.29-2,0-2S146.399,244.587,147.688,244.587L147.688,244.587z"/>
		</g>
	</g>
</g>
<g id="Ebene_5">
	<path fill="none" stroke="#64646A" stroke-linecap="round" stroke-linejoin="round" stroke-miterlimit="10" d="M408.406,31.889
		c0,0-1.681,28.321,0,33.509c0,0,46.016,2.378,55.891,0c1.471-6.918,0.211-33.509,0-34.589c-0.211-1.082-53.789-1.081-54.84,0
		c-1.051,1.08,0,33.076,0,33.076l52.738,0.649c0,0,1.254-29.904,0.42-31.996C461.783,30.445,408.406,31.889,408.406,31.889"/>
	<path fill="none" stroke="#64646A" stroke-linecap="round" stroke-linejoin="round" stroke-miterlimit="10" d="M405.675,83.774
		h61.771c0,0,2.207,3.676,0.631,3.892s-62.402-0.541-62.402-0.541s-3.174-2.486,1.984-2.486s59.369,0.541,59.369,0.541l-3.47-6.81
		c0,0-51.793-1.297-53.475-0.865c-1.68,0.433-3.045,8.54-3.045,8.54s-0.211-9.62,3.676-9.729c3.889-0.108,53.687,0,53.687,0
		l1.891,5.669"/>
	<path fill="none" stroke="#64646A" stroke-linecap="round" stroke-linejoin="round" stroke-miterlimit="10" d="M418.912,75.344
		c0,0-0.629-3.892,1.996-4c2.627-0.108,8.192,0.326,8.51-1.513c0.316-1.838,0-4.432,0-4.432"/>
	<path fill="none" stroke="#64646A" stroke-linecap="round" stroke-linejoin="round" stroke-miterlimit="10" d="M452.531,76.269
		c0,0,1.26-4.493-3.047-5.033c-4.31-0.54-7.146,0.107-6.306-5.837"/>
</g>
<g id="Ebene_6">
	<path fill="none" stroke="#64646A" stroke-linecap="round" stroke-linejoin="round" stroke-miterlimit="10" d="M483.683,154.511
		c0,0-8.608-3.375-13.017,0c-4.405,3.376-2.971,7.546-2.971,7.546s-7.863,1.619-8.41,7.15c-1.081,10.923,1.815,18.072,9.806,20.878
		c1.845,0.792,6.598,1.266,7.828,0.571c-0.719,3.178-0.248,4.592,0.717,5.162c1.998,1.185,4.101,0.397,6.047-1.091
		c3.996,5.262,7.481,9.73,13.015,8.936c2.253-0.298,5.122-3.574,5.019-4.966c3.382,1.788,7.074,4.966,12.709-0.991
		c2.87,0.495,7.274,2.185,7.174-4.965c4.712,0.198,14.141,1.489,17.317-6.852c2.151-5.461-0.922-10.725-0.922-10.725
		s4.304-4.27,3.382-8.639c-0.923-4.369-5.432-5.66-5.432-5.66s3.792-7.25,0.923-11.021c-2.871-3.774-11.579-3.872-11.579-3.872
		s-2.563-7.546-5.226-8.142c-2.667-0.597-6.969,3.277-7.481,4.667c-3.794,0-13.322-0.795-12.81,7.051
		c-7.174-2.88-13.694-5.56-15.475-0.497c-0.308,1.191-0.104,2.284-0.104,2.284s-4.815-1.29-8.916,0.397
		c-4.097,1.688-7.993,6.354-5.43,11.321c-3.177-0.299-7.095,1.949-7.936,6.158c-2.673,13.405,4.331,17.631,8.857,19.359
		c2.091,1.099,4.812,1.517,7.89,1.094c-0.511,3.475-2.56,5.063,0.719,8.241c2.152,1.688,5.431-0.894,6.866-3.277
		c-0.206,5.163-0.206,6.553,1.639,7.646s5.433,1.589,11.274-3.574c1.742,1.918,9.837,7.646,15.37,1.391
		c2.254,0.596,7.377,1.39,9.017-5.462c4.408,0.696,8.712,1.291,11.99-2.681c3.28-3.972,1.641-12.016,1.641-12.016
		s3.741-2.781,4.33-5.958c0.587-3.178-1.256-11.122-5.971-12.115c0.514-3.772,2.563-15.392-8.709-17.477
		c-2.562-2.979-6.663-8.937-13.527-0.694c-7.911-0.808-13.424-3.674-14.552,4.17C494.151,147.396,483.067,146.667,483.683,154.511z"
		/>
	<polyline fill="none" stroke="#64646A" stroke-linecap="round" stroke-linejoin="round" stroke-miterlimit="10" points="
		202.781,288.076 458.333,289.243 453.263,285.41 453.263,292.576 457.23,290.076 450.619,285.41 451.06,294.076 455.468,289.743 	
		"/>
	<polyline fill="none" stroke="#64646A" stroke-linecap="round" stroke-linejoin="round" stroke-miterlimit="10" points="
		199.356,279.682 389.849,279.197 389.373,275.366 395.15,279.512 388.314,281.908 388.58,276.074 396.835,280.395 388.419,283.657 
		389.849,278.408 	"/>
	<polyline fill="none" stroke="#64646A" stroke-linecap="round" stroke-linejoin="round" stroke-miterlimit="10" points="
		194.175,272.307 357.09,271.65 356.757,262.896 353.673,267.273 362.257,266.775 356.257,262.232 351.257,266.941 360.007,266.775 
		356.757,262.896 	"/>
	<polyline fill="none" stroke="#64646A" stroke-linecap="round" stroke-linejoin="round" stroke-miterlimit="10" points="
		476.273,239.989 477.142,245.688 473.132,244.668 477.417,249.178 480.25,244 474.312,244.783 477.847,248.504 	"/>
	
		<line fill="none" stroke="#64646A" stroke-linecap="round" stroke-linejoin="round" stroke-miterlimit="10" x1="475.75" y1="236.52" x2="473.99" y2="232.229"/>
	
		<line fill="none" stroke="#64646A" stroke-linecap="round" stroke-linejoin="round" stroke-miterlimit="10" x1="471.748" y1="227.141" x2="469.908" y2="223.939"/>
	
		<line fill="none" stroke="#64646A" stroke-linecap="round" stroke-linejoin="round" stroke-miterlimit="10" x1="466.464" y1="218.443" x2="464.546" y2="215.336"/>
	
		<line fill="none" stroke="#64646A" stroke-linecap="round" stroke-linejoin="round" stroke-miterlimit="10" x1="461.748" y1="211.629" x2="459.281" y2="208.98"/>
	
		<line fill="none" stroke="#64646A" stroke-linecap="round" stroke-linejoin="round" stroke-miterlimit="10" x1="456.455" y1="206.027" x2="452.539" y2="202.993"/>
	
		<line fill="none" stroke="#64646A" stroke-linecap="round" stroke-linejoin="round" stroke-miterlimit="10" x1="449.636" y1="200.129" x2="444.812" y2="197.25"/>
	
		<line fill="none" stroke="#64646A" stroke-linecap="round" stroke-linejoin="round" stroke-miterlimit="10" x1="441.285" y1="194.938" x2="436.589" y2="192.633"/>
	
		<line fill="none" stroke="#64646A" stroke-linecap="round" stroke-linejoin="round" stroke-miterlimit="10" x1="432.464" y1="191.203" x2="427.488" y2="189.59"/>
	
		<line fill="none" stroke="#64646A" stroke-linecap="round" stroke-linejoin="round" stroke-miterlimit="10" x1="424.164" y1="188.768" x2="418.697" y2="188.361"/>
	
		<line fill="none" stroke="#64646A" stroke-linecap="round" stroke-linejoin="round" stroke-miterlimit="10" x1="415.296" y1="187.627" x2="410.062" y2="188.04"/>
	
		<line fill="none" stroke="#64646A" stroke-linecap="round" stroke-linejoin="round" stroke-miterlimit="10" x1="407.238" y1="188.264" x2="402.054" y2="188.255"/>
	
		<line fill="none" stroke="#64646A" stroke-linecap="round" stroke-linejoin="round" stroke-miterlimit="10" x1="398.783" y1="188.096" x2="394.578" y2="188.846"/>
	
		<line fill="none" stroke="#64646A" stroke-linecap="round" stroke-linejoin="round" stroke-miterlimit="10" x1="390.906" y1="189.973" x2="385.119" y2="191.85"/>
	
		<line fill="none" stroke="#64646A" stroke-linecap="round" stroke-linejoin="round" stroke-miterlimit="10" x1="381.83" y1="193.614" x2="377.834" y2="195.936"/>
	
		<line fill="none" stroke="#64646A" stroke-linecap="round" stroke-linejoin="round" stroke-miterlimit="10" x1="374.948" y1="197.501" x2="371.73" y2="199.092"/>
	<polyline fill="none" stroke="#64646A" stroke-linecap="round" stroke-linejoin="round" stroke-miterlimit="10" points="
		367.869,202.072 361.993,207.051 362.719,202.479 368.197,206.227 362.574,207.005 361.665,202.896 366.331,205.872 
		361.661,207.077 	"/>
</g>
<g id="Ebene_7">
	<polyline fill="none" stroke="#64646A" stroke-linecap="round" stroke-linejoin="round" stroke-miterlimit="10" points="
		148.518,120.326 150.62,211.427 145.276,203.143 154.276,202.729 149.572,211.427 142.214,203.143 156.339,202.936 150.62,211.427 
		149.501,120.955 	"/>
	<polyline fill="none" stroke="#64646A" stroke-linecap="round" stroke-linejoin="round" stroke-miterlimit="10" points="
		191.699,266.521 278.831,265.928 281.164,61.078 391.832,62.245 384.498,57.911 383.331,68.226 393.832,62.245 383.164,55.078 
		389.8,63.078 276.498,62.411 280.997,267.923 193.175,268.014 	"/>
	<polyline fill="none" stroke="#64646A" stroke-linecap="round" stroke-linejoin="round" stroke-miterlimit="10" points="
		536,63.167 496.167,63.833 495.333,69.833 485.833,60.131 496.167,53.667 496,58.5 534.667,58.333 535,54.667 542,61.167 536,67.5 
		536,63.167 494.833,62.5 494.833,67.5 488.167,60.333 494.833,52.762 494.833,57.833 536.167,58.167 536,51.833 543.833,60.833 
		535.167,69.833 534.996,63.151 	"/>
	<polygon fill="none" stroke="#64646A" stroke-linecap="round" stroke-linejoin="round" stroke-miterlimit="10" points="
		553.67,161.5 545.502,170.305 551.502,176.5 552.67,175.167 632.168,174.003 631.336,177.837 640.502,170.309 630.336,163.003 
		630.336,168.17 553.67,169 553.002,164.25 547.836,170.305 552.836,178.834 552.67,173.834 630.336,174.837 631.168,178.837 
		637.502,171.503 632.002,166.003 631.168,168.67 552.67,168.834 	"/>
</g>
<g id="Ebene_8">
	<path fill="none" stroke="#64646A" stroke-linecap="round" stroke-linejoin="round" stroke-miterlimit="10" d="M463.876,255.229
		c-0.141,1.963-3.584,39.475,1.326,40.877c4.908,1.401,20.969,1.752,21.529,0c0.561-1.754,2.354-39.604,0-41.445
		c-1.613-1.264-20.479-2.666-22.58,0c-2.105,2.666-1.8,38.759-1.027,40.793c0.141,2.523,9.643,0.818,21.914,0.329
		c1.133-0.166,2.535-1.079,2.877-40.634c0,0-3.287-4.418-23.135-0.209"/>
	<path fill="none" stroke="#64646A" stroke-linecap="round" stroke-linejoin="round" stroke-miterlimit="10" d="M465.904,258.165
		c0.067,0.21-1.543,32.819-1.054,33.03c0.49,0.211,20.197,0,20.197,0l0.353-33.03l-20.06-0.421"/>
	<path fill="none" stroke="#64646A" stroke-linecap="round" stroke-linejoin="round" stroke-miterlimit="10" d="M475.509,255.288
		c0,0-2.731-0.279-2.731,0.702c0,0.982,1.053,1.475,3.717,1.475c2.666,0,3.717-0.912,2.522-1.613c-1.19-0.703-5.258-1.336-5.75-0.6"
		/>
	<path fill="none" stroke="#64646A" stroke-linecap="round" stroke-linejoin="round" stroke-miterlimit="10" d="M478.388,292.879
		c0,0-5.754-0.562-6.276,0.49c-0.525,1.053-0.455,1.543,0.666,1.753c1.125,0.211,8.135,0.646,7.014-1.611
		c-0.631-1.122-3.648-1.053-3.648-1.053"/>
	<path fill="none" stroke="#64646A" stroke-linecap="round" stroke-linejoin="round" stroke-miterlimit="10" d="M346.054,220.676
		c0,0-1.543,32.682-0.912,33.383c0.633,0.7,20.127,0,20.127,0v-33.102L346.054,220.676z"/>
	<path fill="none" stroke="#64646A" stroke-linecap="round" stroke-linejoin="round" stroke-miterlimit="10" d="M344.99,216.398
		c0,0-1.393,0.14-1.604,4.908c-0.211,4.77-0.561,34.586,0,36.123c0.562,1.535,7.574,2.237,22.582,1.396
		c1.192,0,1.896-1.332,1.964-2.243c0.07-0.913,1.265-38.781-0.561-39.623s-20.548-2.876-22.722,0.491
		c-2.176,3.364-1.965,39.479-1.965,39.479s-0.211,1.846,1.894,2.254c2.104,0.412,22.652,2.377,22.793-1.972
		c0.14-4.351,1.402-39.343,1.402-39.343s0.631-3.415-22.372-2.293"/>
	<path fill="none" stroke="#64646A" stroke-linecap="round" stroke-linejoin="round" stroke-miterlimit="10" d="M354.469,217.872
		c0,0-1.729,0.14-1.718,1.16c0.008,0.723,0.386,0.942,1.999,1.082c1.613,0.141,6.381,0.282,5.189-1.472
		c-0.633-0.771-4.811-0.771-4.811-0.771"/>
	<path fill="none" stroke="#64646A" stroke-linecap="round" stroke-linejoin="round" stroke-miterlimit="10" d="M353.137,255.742
		c-0.036,0.104-1.018,0.979-0.562,1.927c0.456,0.947,3.927,0.912,5.119,0.843c1.191-0.07,1.963-0.141,1.646-2.033
		c-0.141-0.809-5.891-0.734-5.891-0.734"/>
	<path fill="none" stroke="#64646A" stroke-linecap="round" stroke-linejoin="round" stroke-miterlimit="10" d="M419.193,245.021
		c0,0.158-1.105,11.467,0.522,11.992c1.631,0.525,15.57-0.264,15.57-0.264v-10.835l-17.199,0.735l0.578,9.259l18.094-0.316
		l-0.473-10.571l-17.096-0.264"/>
	<polyline fill="none" stroke="#64646A" stroke-linecap="round" stroke-linejoin="round" stroke-miterlimit="10" points="
		425.083,242.531 429.134,242.677 426.031,243.287 428.24,243.287 	"/>
	<path fill="none" stroke="#64646A" stroke-linecap="round" stroke-linejoin="round" stroke-miterlimit="10" d="M410.197,281.578
		c0,0,4.367,0.051,5.051-3.053s1.15-33.768-2.314-35.616c-2.789-1.41-6.049-1.199-6.838,3.375
		c-0.789,4.577-1.155,34.137,1.265,34.769c1.313,1.156,7.362,0.576,8.627-2.21c1.262-2.788-0.736-32.188-3.054-34.503
		c-1.051-1.421-5.983-2.262-7.332,0.156c-0.875,1.788-0.926,7.471-0.819,9.679c0.104,2.208,0.733,22.984,2.682,25.036
		c1.158,1.104,1.789,1.104,2.314,1.157c0.524,0.053,0.944,0.841,0.473,3.104c-0.473,2.26-0.314,3.68,1.158,3.732
		c1.473,0.052,10.889-2.053,13.256-2.053s18.354-0.157,17.672,5.996c-0.42,1.576-4.312,8.048-19.828,7.836
		c-15.518-0.211-22.354-0.842-19.488-10.678c0.498-1.683,2.132-2.42,2.604-2.893c0.473-0.475,0.842-1.584,0.842-1.584
		s-0.209,1.727-0.842,2.443c-0.631,0.72-3.072,1.773-2.893,6.188c0.157,2.842,4.629,6.521,10.729,7.047
		c6.103,0.527,21.144-0.21,27.246-6.837c1.262-2.155,1.104-3.961-4.998-6.397c-6.1-2.438-24.51,0-24.51,0s-2.73-0.448-1.736-2.442
		c-5.049-0.045-6.361,0.062-6.44-0.415c-0.08-0.475-0.134-40.814,0.762-41.604c0.895-0.787,33.873-1.734,33.977-1.313
		c0.105,0.421,1.896,3.681,1.422,43.022c-1.368,1.211-34.084,1-35.137-0.578c-1.053-1.577-2.629-38.869-1.893-40.709
		c0.733-1.842,2.787-2.647,10.1-2.455c7.312,0.193,26.668,2.14,26.668,2.14s1.26,40.289,1.209,40.5
		c-0.053,0.21-12.625,2.052-29.457,1.787"/>
	<path fill="none" stroke="#64646A" stroke-linecap="round" stroke-linejoin="round" stroke-miterlimit="10" d="M422.507,270.884
		c0,0-2.561-0.001-2.596-0.176s-0.316-2.489,0-2.7c0.313-0.21,2.91,0,2.91,0s0.313,2.91,0,3.227
		c0.176,0.525,0.631,2.455,0.141,2.597s-3.199,0-3.199,0s-0.481,2.487-0.235,2.7c0.246,0.21,3.436,0,3.436,0l-0.246-1.823"/>
	<polyline fill="none" stroke="#64646A" stroke-linecap="round" stroke-linejoin="round" stroke-miterlimit="10" points="
		419.806,277.404 419.806,279.055 422.822,278.879 	"/>
	<path fill="none" stroke="#64646A" stroke-linecap="round" stroke-linejoin="round" stroke-miterlimit="10" d="M423.943,276.88
		c0,0-0.771,2.175,0,2.313c0.771,0.141,3.088-0.142,3.088-0.142s0.35-2.067,0.174-2.174c-0.174-0.104,0,2.104,0.979,2.174
		c0.982,0.069,3.332-0.315,3.332-0.315v-2.277"/>
	<path fill="none" stroke="#64646A" stroke-linecap="round" stroke-linejoin="round" stroke-miterlimit="10" d="M424.574,274.602
		c0,0-0.771,1.295-0.42,1.685c0.352,0.386,3.754,0.175,3.754,0.175v-1.857"/>
	<path fill="none" stroke="#64646A" stroke-linecap="round" stroke-linejoin="round" stroke-miterlimit="10" d="M428.888,276.18
		l2.629-0.177c0,0,0.179-2.728-0.243-2.872c-0.423-0.145-2.632,0-2.632,0l-0.176-1.967"/>
	<polyline fill="none" stroke="#64646A" stroke-linecap="round" stroke-linejoin="round" stroke-miterlimit="10" points="
		424.062,273.339 427.169,273.339 426.994,271.76 	"/>
	<path fill="none" stroke="#64646A" stroke-linecap="round" stroke-linejoin="round" stroke-miterlimit="10" d="M427.169,267.914
		c0,0,0.176,2.689-0.176,2.76c-0.351,0.069-2.933,0-2.933,0l-0.151-2.596L427.169,267.914z"/>
	<path fill="none" stroke="#64646A" stroke-linecap="round" stroke-linejoin="round" stroke-miterlimit="10" d="M428.328,267.914
		c0,0,3.332-0.268,3.471,0c0.144,0.27,0,2.654,0,2.654l-3.156-0.281"/>
	
		<line fill="none" stroke="#64646A" stroke-linecap="round" stroke-linejoin="round" stroke-miterlimit="10" x1="431.517" y1="272.918" x2="431.861" y2="270.989"/>
</g>
<g id="Ebene_9_1_">
	<polyline fill="none" stroke="#0094AC" stroke-linecap="round" stroke-linejoin="round" stroke-miterlimit="10" points="
		652.612,20.418 647.958,80.304 558.97,78.322 557.874,20.418 648.779,15.5 651.243,81.75 557.874,81.75 554.862,23.022 
		652.612,19.261 	"/>
	<path fill="none" stroke="#0094AC" stroke-linecap="round" stroke-linejoin="round" stroke-miterlimit="10" d="M666.604,81.221
		c0,0-2.093,23.916,0,38.775c8.578,3.715,36.817,9.368,60.876,1.615c0.415-13.407,0.834-38.241,0.834-38.241l4.396,34.203
		c0,0-18.617,10.821-69.452,4.038c-0.208-11.629,1.047-35.76,3.347-37.051"/>
	<path fill="none" stroke="#0094AC" stroke-linecap="round" stroke-linejoin="round" stroke-miterlimit="10" d="M666.815,81.111
		c0,0-4.027-3.877,8.052-5.815c12.074-1.938,52.326-4.038,53.595,2.907c0.216,3.393-6.78,7.591-27.326,7.591
		c-14.83,0-41.537-5.169-34.964-8.561c6.575-3.393,50.215-2.1,57.422-0.323c7.199,1.777,5.932,5.169,2.116,6.461
		c-3.815,1.292-63.791,3.15-59.344-4.55"/>
	<polyline fill="none" stroke="#0094AC" stroke-linecap="round" stroke-linejoin="round" stroke-miterlimit="10" points="
		643.145,145.84 735.072,145.84 733.567,206.799 643.965,203.189 641.503,143.103 733.704,143.103 736.714,203.917 641.503,205.069 
		644.376,141.373 	"/>
	<polyline fill="none" stroke="#0094AC" stroke-linecap="round" stroke-linejoin="round" stroke-miterlimit="10" points="
		694.512,125.749 694.512,139.749 691.637,136.874 699.137,137.624 694.762,142.374 690.012,137.874 699.762,138.249 
		695.762,142.374 694.887,125 	"/>
	<polyline fill="none" stroke="#0094AC" stroke-linecap="round" stroke-linejoin="round" stroke-miterlimit="10" points="
		610.667,87.75 604.167,87.75 609.75,82.25 613.917,89.75 602.542,89.75 607.417,81.75 610.417,110 659.874,111.125 657.999,113.75 
		656.624,105.25 662.124,110.75 657.124,115.875 655.249,107.25 662.124,110.75 608.292,108.75 608.292,81.75 	"/>
</g>
<g id="Ebene_10">
	<text transform="matrix(1 0 0 1 569.3555 48.1221)" fill="#0194AC" font-family="'Avenir-Medium'" font-size="13">office net</text>
	<text transform="matrix(1 0 0 1 566.5996 62.124)" fill="#0194AC" font-family="'Avenir-Medium'" font-size="13">application</text>
	<text transform="matrix(1 0 0 1 670.3916 102.3584)" fill="#0094AC" font-family="'Avenir-Medium'" font-size="13">customer</text>
	<text transform="matrix(1 0 0 1 681.3594 117.3618)" fill="#0094AC" font-family="'Avenir-Medium'" font-size="13">data</text>
	<text transform="matrix(1 0 0 1 654.1328 178.7539)" fill="#0094AC" font-family="'Avenir-Medium'" font-size="13">SMS server</text>
	<text transform="matrix(1 0 0 1 482.1777 170.252)" fill="#64646A" font-family="'Avenir-Medium'" font-size="13">mobile</text>
	<text transform="matrix(1 0 0 1 477.9092 184.2539)" fill="#64646A" font-family="'Avenir-Medium'" font-size="13">network</text>
	<text transform="matrix(1 0 0 1 422.0117 100.9277)" fill="#64646A" font-family="'Avenir-Medium'" font-size="13">portal</text>
	<text transform="matrix(1 0 0 1 410.8633 116.9307)" fill="#64646A" font-family="'Avenir-Medium'" font-size="13">(Web GUI)</text>
	<text transform="matrix(1 0 0 1 134.5669 91.71)" fill="#64646A" font-family="'Avenir-Medium'" font-size="13">test</text>
	<text transform="matrix(1 0 0 1 127.6724 106.7124)" fill="#64646A" font-family="'Avenir-Medium'" font-size="13">cases</text>
</g>
<g id="Ebene_11">
	<g id="Ebene_13">
		<text transform="matrix(1 0 0 1 303.6694 55.0781)" fill="#F7941E" font-family="'Avenir-Medium'" font-size="15"> 1</text>
		<text transform="matrix(1 0 0 1 511.666 51.833)" fill="#F7941E" font-family="'Avenir-Medium'" font-size="15">2</text>
		<text transform="matrix(1 0 0 1 680.3584 65.4233)" fill="#F7941E" font-family="'Avenir-Medium'" font-size="15">3</text>
		<text transform="matrix(1 0 0 1 559.8672 192.6328)" fill="#F7941E" font-family="'Avenir-Medium'" font-size="15">4</text>
		<text transform="matrix(1 0 0 1 368.1973 187.127)" fill="#F7941E" font-family="'Avenir-Medium'" font-size="15">5</text>
		<text transform="matrix(1 0 0 1 499.2988 279.5117)" fill="#F7941E" font-family="'Avenir-Medium'" font-size="15">6</text>
		<text transform="matrix(1 0 0 1 607.8281 162.5859)" fill="#F7941E" font-family="'Avenir-Medium'" font-size="15">7</text>
	</g>
</g>
</svg>
