<?xml version="1.0" encoding="utf-8"?>
<!-- Generator: Adobe Illustrator 16.0.0, SVG Export Plug-In . SVG Version: 6.00 Build 0)  -->
<!DOCTYPE svg PUBLIC "-//W3C//DTD SVG 1.1//EN" "http://www.w3.org/Graphics/SVG/1.1/DTD/svg11.dtd">
<svg version="1.1" xmlns="http://www.w3.org/2000/svg" xmlns:xlink="http://www.w3.org/1999/xlink" x="0px" y="0px"
	 width="1169.854px" height="535.933px" viewBox="0 0 1169.854 535.933" enable-background="new 0 0 1169.854 535.933"
	 xml:space="preserve">
<g id="Verbindungen">
	<g id="links">
		
			<line fill="none" stroke="#8C8C8E" stroke-width="2" stroke-linecap="round" stroke-linejoin="round" stroke-miterlimit="10" x1="203.333" y1="136.5" x2="203.333" y2="210"/>
		
			<polyline fill="none" stroke="#8C8C8E" stroke-width="2" stroke-linecap="round" stroke-linejoin="round" stroke-miterlimit="10" points="
			196.473,202.145 203.333,211.062 210.688,202.145 		"/>
		<path fill="none" stroke="#8C8C8E" stroke-width="2" stroke-linecap="round" stroke-linejoin="round" stroke-miterlimit="10" d="
			M215.5,462.433c0,0-0.667,26.568,27,30.234s74.992,2.19,74.992,2.19"/>
		
			<polyline fill="none" stroke="#8C8C8E" stroke-width="2" stroke-linecap="round" stroke-linejoin="round" stroke-miterlimit="10" points="
			308.456,488.312 317.938,495.151 308.456,501 		"/>
		
			<line fill="none" stroke="#8C8C8E" stroke-width="2" stroke-linecap="round" stroke-linejoin="round" stroke-miterlimit="10" x1="296.833" y1="349" x2="385.167" y2="349"/>
		
			<line fill="none" stroke="#8C8C8E" stroke-width="2" stroke-linecap="round" stroke-linejoin="round" stroke-miterlimit="10" x1="299.354" y1="354.364" x2="395.667" y2="354.333"/>
		<g id="Ebene_7">
		</g>
		<g id="Ebene_8">
			<g>
				<g>
					<path fill="#8C8C8E" d="M399.667,355.333c1.29,0,1.29-2,0-2S398.377,355.333,399.667,355.333L399.667,355.333z"/>
				</g>
			</g>
			<g>
				<g>
					<path fill="#8C8C8E" d="M403.833,355.292c1.29,0,1.29-2,0-2S402.543,355.292,403.833,355.292L403.833,355.292z"/>
				</g>
			</g>
			<g>
				<g>
					<path fill="#8C8C8E" d="M408,355.292c1.29,0,1.29-2,0-2S406.71,355.292,408,355.292L408,355.292z"/>
				</g>
			</g>
			<g>
				<g>
					<path fill="#8C8C8E" d="M412.458,355.333c1.29,0,1.29-2,0-2S411.169,355.333,412.458,355.333L412.458,355.333z"/>
				</g>
			</g>
			<g>
				<g>
					<path fill="#8C8C8E" d="M416.583,355.333c1.29,0,1.29-2,0-2S415.294,355.333,416.583,355.333L416.583,355.333z"/>
				</g>
			</g>
			<g>
				<g>
					<path fill="#8C8C8E" d="M420.833,355.333c1.29,0,1.29-2,0-2S419.544,355.333,420.833,355.333L420.833,355.333z"/>
				</g>
			</g>
			<g>
				<g>
					<path fill="#8C8C8E" d="M424.958,355.375c1.29,0,1.29-2,0-2S423.669,355.375,424.958,355.375L424.958,355.375z"/>
				</g>
			</g>
			<g>
				<g>
					<path fill="#8C8C8E" d="M429.25,355.375c1.29,0,1.29-2,0-2S427.96,355.375,429.25,355.375L429.25,355.375z"/>
				</g>
			</g>
			<g>
				<g>
					<path fill="#8C8C8E" d="M433.542,355.375c1.29,0,1.29-2,0-2S432.252,355.375,433.542,355.375L433.542,355.375z"/>
				</g>
			</g>
			<g>
				<g>
					<path fill="#8C8C8E" d="M437.583,355.333c1.29,0,1.29-2,0-2S436.294,355.333,437.583,355.333L437.583,355.333z"/>
				</g>
			</g>
			<g>
				<g>
					<path fill="#8C8C8E" d="M441.583,355.333c1.29,0,1.29-2,0-2S440.294,355.333,441.583,355.333L441.583,355.333z"/>
				</g>
			</g>
			<g>
				<g>
					<path fill="#8C8C8E" d="M445.792,355.292c1.29,0,1.29-2,0-2S444.502,355.292,445.792,355.292L445.792,355.292z"/>
				</g>
			</g>
			<g>
				<g>
					<path fill="#8C8C8E" d="M450.292,355.333c1.29,0,1.29-2,0-2S449.002,355.333,450.292,355.333L450.292,355.333z"/>
				</g>
			</g>
			<g>
				<g>
					<path fill="#8C8C8E" d="M389.083,350.083c1.29,0,1.29-2,0-2S387.794,350.083,389.083,350.083L389.083,350.083z"/>
				</g>
			</g>
			<g>
				<g>
					<path fill="#8C8C8E" d="M393.458,350.042c1.29,0,1.29-2,0-2S392.169,350.042,393.458,350.042L393.458,350.042z"/>
				</g>
			</g>
			<g>
				<g>
					<path fill="#8C8C8E" d="M397.542,350.042c1.29,0,1.29-2,0-2S396.252,350.042,397.542,350.042L397.542,350.042z"/>
				</g>
			</g>
			<g>
				<g>
					<path fill="#8C8C8E" d="M402,350.042c1.29,0,1.29-2,0-2S400.71,350.042,402,350.042L402,350.042z"/>
				</g>
			</g>
			<g>
				<g>
					<path fill="#8C8C8E" d="M380.5,363.458c1.29,0,1.29-2,0-2S379.21,363.458,380.5,363.458L380.5,363.458z"/>
				</g>
			</g>
			<g>
				<g>
					<path fill="#8C8C8E" d="M384.458,363.458c1.29,0,1.29-2,0-2S383.169,363.458,384.458,363.458L384.458,363.458z"/>
				</g>
			</g>
			<g>
				<g>
					<path fill="#8C8C8E" d="M388.917,363.5c1.29,0,1.29-2,0-2S387.627,363.5,388.917,363.5L388.917,363.5z"/>
				</g>
			</g>
			<g>
				<g>
					<path fill="#8C8C8E" d="M392.583,363.5c1.29,0,1.29-2,0-2S391.294,363.5,392.583,363.5L392.583,363.5z"/>
				</g>
			</g>
			<g>
				<g>
					<path fill="#8C8C8E" d="M396.917,363.458c1.29,0,1.29-2,0-2S395.627,363.458,396.917,363.458L396.917,363.458z"/>
				</g>
			</g>
			<g>
				<g>
					<path fill="#8C8C8E" d="M401.125,363.5c1.29,0,1.29-2,0-2S399.835,363.5,401.125,363.5L401.125,363.5z"/>
				</g>
			</g>
			<g>
				<g>
					<path fill="#8C8C8E" d="M405.417,363.458c1.29,0,1.29-2,0-2S404.127,363.458,405.417,363.458L405.417,363.458z"/>
				</g>
			</g>
			<g>
				<g>
					<path fill="#8C8C8E" d="M409.417,363.458c1.29,0,1.29-2,0-2S408.127,363.458,409.417,363.458L409.417,363.458z"/>
				</g>
			</g>
			<g>
				<g>
					<path fill="#8C8C8E" d="M413.583,363.458c1.29,0,1.29-2,0-2S412.294,363.458,413.583,363.458L413.583,363.458z"/>
				</g>
			</g>
			<g>
				<g>
					<path fill="#8C8C8E" d="M418,363.5c1.29,0,1.29-2,0-2S416.71,363.5,418,363.5L418,363.5z"/>
				</g>
			</g>
			<g>
				<g>
					<path fill="#8C8C8E" d="M422.125,363.417c1.29,0,1.29-2,0-2S420.835,363.417,422.125,363.417L422.125,363.417z"/>
				</g>
			</g>
			<g>
				<g>
					<path fill="#8C8C8E" d="M426.5,363.5c1.29,0,1.29-2,0-2S425.21,363.5,426.5,363.5L426.5,363.5z"/>
				</g>
			</g>
			<g>
				<g>
					<path fill="#8C8C8E" d="M430.5,363.458c1.29,0,1.29-2,0-2S429.21,363.458,430.5,363.458L430.5,363.458z"/>
				</g>
			</g>
			<g>
				<g>
					<path fill="#8C8C8E" d="M434.5,363.5c1.29,0,1.29-2,0-2S433.21,363.5,434.5,363.5L434.5,363.5z"/>
				</g>
			</g>
			<g>
				<g>
					<path fill="#8C8C8E" d="M438.833,363.417c1.29,0,1.29-2,0-2S437.544,363.417,438.833,363.417L438.833,363.417z"/>
				</g>
			</g>
			<g>
				<g>
					<path fill="#8C8C8E" d="M443.042,363.458c1.29,0,1.29-2,0-2S441.752,363.458,443.042,363.458L443.042,363.458z"/>
				</g>
			</g>
			<g>
				<g>
					<path fill="#8C8C8E" d="M447.458,363.5c1.29,0,1.29-2,0-2S446.169,363.5,447.458,363.5L447.458,363.5z"/>
				</g>
			</g>
			<g>
				<g>
					<path fill="#8C8C8E" d="M451.417,363.5c1.29,0,1.29-2,0-2S450.127,363.5,451.417,363.5L451.417,363.5z"/>
				</g>
			</g>
			<g>
				<g>
					<path fill="#8C8C8E" d="M400.458,370.417c1.29,0,1.29-2,0-2S399.169,370.417,400.458,370.417L400.458,370.417z"/>
				</g>
			</g>
			<g>
				<g>
					<path fill="#8C8C8E" d="M404.75,370.5c1.29,0,1.29-2,0-2S403.46,370.5,404.75,370.5L404.75,370.5z"/>
				</g>
			</g>
			<g>
				<g>
					<path fill="#8C8C8E" d="M408.792,370.541c1.29,0,1.29-2,0-2S407.502,370.541,408.792,370.541L408.792,370.541z"/>
				</g>
			</g>
			<g>
				<g>
					<path fill="#8C8C8E" d="M413.375,370.583c1.29,0,1.29-2,0-2S412.085,370.583,413.375,370.583L413.375,370.583z"/>
				</g>
			</g>
			<g>
				<g>
					<path fill="#8C8C8E" d="M417.375,370.458c1.29,0,1.29-2,0-2S416.085,370.458,417.375,370.458L417.375,370.458z"/>
				</g>
			</g>
			<g>
				<g>
					<path fill="#8C8C8E" d="M421.542,370.5c1.29,0,1.29-2,0-2S420.252,370.5,421.542,370.5L421.542,370.5z"/>
				</g>
			</g>
			<g>
				<g>
					<path fill="#8C8C8E" d="M425.583,370.5c1.29,0,1.29-2,0-2S424.294,370.5,425.583,370.5L425.583,370.5z"/>
				</g>
			</g>
			<g>
				<g>
					<path fill="#8C8C8E" d="M429.667,370.541c1.29,0,1.29-2,0-2S428.377,370.541,429.667,370.541L429.667,370.541z"/>
				</g>
			</g>
			<g>
				<g>
					<path fill="#8C8C8E" d="M434.083,370.541c1.29,0,1.29-2,0-2S432.794,370.541,434.083,370.541L434.083,370.541z"/>
				</g>
			</g>
			<g>
				<g>
					<path fill="#8C8C8E" d="M438.25,370.458c1.29,0,1.29-2,0-2S436.96,370.458,438.25,370.458L438.25,370.458z"/>
				</g>
			</g>
			<g>
				<g>
					<path fill="#8C8C8E" d="M442.5,370.458c1.29,0,1.29-2,0-2S441.21,370.458,442.5,370.458L442.5,370.458z"/>
				</g>
			</g>
			<g>
				<g>
					<path fill="#8C8C8E" d="M446.5,370.417c1.29,0,1.29-2,0-2S445.21,370.417,446.5,370.417L446.5,370.417z"/>
				</g>
			</g>
			<g>
				<g>
					<path fill="#8C8C8E" d="M450.542,370.458c1.29,0,1.29-2,0-2S449.252,370.458,450.542,370.458L450.542,370.458z"/>
				</g>
			</g>
			<g>
				<g>
					<path fill="#8C8C8E" d="M454.917,370.458c1.29,0,1.29-2,0-2S453.627,370.458,454.917,370.458L454.917,370.458z"/>
				</g>
			</g>
			<g>
				<g>
					<path fill="#8C8C8E" d="M459.292,370.5c1.29,0,1.29-2,0-2S458.002,370.5,459.292,370.5L459.292,370.5z"/>
				</g>
			</g>
		</g>
		
			<line fill="none" stroke="#8C8C8E" stroke-width="2" stroke-linecap="round" stroke-linejoin="round" stroke-miterlimit="10" x1="375.958" y1="362.417" x2="304.5" y2="362.417"/>
		
			<line fill="none" stroke="#8C8C8E" stroke-width="2" stroke-linecap="round" stroke-linejoin="round" stroke-miterlimit="10" x1="308.456" y1="369.458" x2="395.875" y2="369.458"/>
	</g>
	<g id="Ebene_10">
		<path fill="none" stroke="#8C8C8E" stroke-linecap="round" stroke-linejoin="round" stroke-miterlimit="10" d="M1023.75,230.297
			c0,0,0.126,10.703-1.198,10.703c-2.055,0.261-43.802,0-43.802,0"/>
		<g>
			<g>
				<path fill="#8C8C8E" d="M975.562,242.062c1.29,0,1.29-2,0-2S974.272,242.062,975.562,242.062L975.562,242.062z"/>
			</g>
		</g>
		<g>
			<g>
				<path fill="#8C8C8E" d="M971.25,242.062c1.29,0,1.29-2,0-2S969.96,242.062,971.25,242.062L971.25,242.062z"/>
			</g>
		</g>
		<g>
			<g>
				<path fill="#8C8C8E" d="M967.5,242.062c1.29,0,1.29-2,0-2S966.21,242.062,967.5,242.062L967.5,242.062z"/>
			</g>
		</g>
		<g>
			<g>
				<path fill="#8C8C8E" d="M964.062,241.938c1.29,0,1.29-2,0-2S962.772,241.938,964.062,241.938L964.062,241.938z"/>
			</g>
		</g>
		<g>
			<g>
				<path fill="#8C8C8E" d="M960.375,241.938c1.29,0,1.29-2,0-2S959.085,241.938,960.375,241.938L960.375,241.938z"/>
			</g>
		</g>
		<g>
			<g>
				<path fill="#8C8C8E" d="M956.5,242c1.29,0,1.29-2,0-2S955.21,242,956.5,242L956.5,242z"/>
			</g>
		</g>
		<g>
			<g>
				<path fill="#8C8C8E" d="M952.812,241.938c1.29,0,1.29-2,0-2S951.522,241.938,952.812,241.938L952.812,241.938z"/>
			</g>
		</g>
		<g>
			<g>
				<path fill="#8C8C8E" d="M949.812,242c1.29,0,1.29-2,0-2S948.522,242,949.812,242L949.812,242z"/>
			</g>
		</g>
		<g>
			<g>
				<path fill="#8C8C8E" d="M946,241.938c1.29,0,1.29-2,0-2S944.71,241.938,946,241.938L946,241.938z"/>
			</g>
		</g>
		<g>
			<g>
				<path fill="#8C8C8E" d="M942,242c1.29,0,1.29-2,0-2S940.71,242,942,242L942,242z"/>
			</g>
		</g>
		<g>
			<g>
				<path fill="#8C8C8E" d="M938.25,242c1.29,0,1.29-2,0-2S936.96,242,938.25,242L938.25,242z"/>
			</g>
		</g>
		<g>
			<g>
				<path fill="#8C8C8E" d="M934.812,242.062c1.29,0,1.29-2,0-2S933.522,242.062,934.812,242.062L934.812,242.062z"/>
			</g>
		</g>
		<g>
			<g>
				<path fill="#8C8C8E" d="M930.812,242.125c1.29,0,1.29-2,0-2S929.522,242.125,930.812,242.125L930.812,242.125z"/>
			</g>
		</g>
		<g>
			<g>
				<path fill="#8C8C8E" d="M926.812,242c1.29,0,1.29-2,0-2S925.522,242,926.812,242L926.812,242z"/>
			</g>
		</g>
		<g>
			<g>
				<path fill="#8C8C8E" d="M923.812,242.062c1.29,0,1.29-2,0-2S922.522,242.062,923.812,242.062L923.812,242.062z"/>
			</g>
		</g>
		<g>
			<g>
				<path fill="#8C8C8E" d="M919.812,242c1.29,0,1.29-2,0-2S918.522,242,919.812,242L919.812,242z"/>
			</g>
		</g>
	</g>
	<g id="Ebene_10_Kopie">
		<path fill="none" stroke="#8C8C8E" stroke-linecap="round" stroke-linejoin="round" stroke-miterlimit="10" d="M1116.938,265.112
			c0,0,0.123,9.056-1.201,9.056c-2.055,0.262-82.094-0.125-82.094-0.125"/>
		<g>
			<g>
				<path fill="#8C8C8E" d="M1030.456,275.105c1.29,0,1.29-2,0-2S1029.166,275.105,1030.456,275.105L1030.456,275.105z"/>
			</g>
		</g>
		<g>
			<g>
				<path fill="#8C8C8E" d="M1026.144,275.105c1.29,0,1.29-2,0-2S1024.854,275.105,1026.144,275.105L1026.144,275.105z"/>
			</g>
		</g>
		<g>
			<g>
				<path fill="#8C8C8E" d="M1022.394,275.105c1.29,0,1.29-2,0-2S1021.104,275.105,1022.394,275.105L1022.394,275.105z"/>
			</g>
		</g>
		<g>
			<g>
				<path fill="#8C8C8E" d="M1018.956,274.98c1.29,0,1.29-2,0-2S1017.666,274.98,1018.956,274.98L1018.956,274.98z"/>
			</g>
		</g>
		<g>
			<g>
				<path fill="#8C8C8E" d="M1015.269,274.98c1.29,0,1.29-2,0-2S1013.979,274.98,1015.269,274.98L1015.269,274.98z"/>
			</g>
		</g>
		<g>
			<g>
				<path fill="#8C8C8E" d="M1011.394,275.043c1.29,0,1.29-2,0-2S1010.104,275.043,1011.394,275.043L1011.394,275.043z"/>
			</g>
		</g>
		<g>
			<g>
				<path fill="#8C8C8E" d="M1007.706,274.98c1.29,0,1.29-2,0-2S1006.416,274.98,1007.706,274.98L1007.706,274.98z"/>
			</g>
		</g>
		<g>
			<g>
				<path fill="#8C8C8E" d="M1004.706,275.043c1.29,0,1.29-2,0-2S1003.416,275.043,1004.706,275.043L1004.706,275.043z"/>
			</g>
		</g>
		<g>
			<g>
				<path fill="#8C8C8E" d="M1000.894,274.98c1.29,0,1.29-2,0-2S999.604,274.98,1000.894,274.98L1000.894,274.98z"/>
			</g>
		</g>
		<g>
			<g>
				<path fill="#8C8C8E" d="M996.894,275.043c1.29,0,1.29-2,0-2S995.604,275.043,996.894,275.043L996.894,275.043z"/>
			</g>
		</g>
		<g>
			<g>
				<path fill="#8C8C8E" d="M993.144,275.043c1.29,0,1.29-2,0-2S991.854,275.043,993.144,275.043L993.144,275.043z"/>
			</g>
		</g>
		<g>
			<g>
				<path fill="#8C8C8E" d="M989.706,275.105c1.29,0,1.29-2,0-2S988.416,275.105,989.706,275.105L989.706,275.105z"/>
			</g>
		</g>
		<g>
			<g>
				<path fill="#8C8C8E" d="M985.706,275.168c1.29,0,1.29-2,0-2S984.416,275.168,985.706,275.168L985.706,275.168z"/>
			</g>
		</g>
		<g>
			<g>
				<path fill="#8C8C8E" d="M981.706,275.043c1.29,0,1.29-2,0-2S980.416,275.043,981.706,275.043L981.706,275.043z"/>
			</g>
		</g>
	</g>
	<g id="Ebene_10_Kopie_Kopie">
		<path fill="none" stroke="#8C8C8E" stroke-linecap="round" stroke-linejoin="round" stroke-miterlimit="10" d="M929.625,351.656
			c0,0,0,10.961-2.131,11.023c-2.055,0.262-87.869-0.062-87.869-0.062"/>
		<g>
			<g>
				<path fill="#8C8C8E" d="M834.15,363.617c1.29,0,1.29-2,0-2S832.86,363.617,834.15,363.617L834.15,363.617z"/>
			</g>
		</g>
		<g>
			<g>
				<path fill="#8C8C8E" d="M830.713,363.492c1.29,0,1.29-2,0-2S829.423,363.492,830.713,363.492L830.713,363.492z"/>
			</g>
		</g>
		<g>
			<g>
				<path fill="#8C8C8E" d="M827.025,363.492c1.29,0,1.29-2,0-2S825.735,363.492,827.025,363.492L827.025,363.492z"/>
			</g>
		</g>
		<g>
			<g>
				<path fill="#8C8C8E" d="M823.15,363.555c1.29,0,1.29-2,0-2S821.86,363.555,823.15,363.555L823.15,363.555z"/>
			</g>
		</g>
		<g>
			<g>
				<path fill="#8C8C8E" d="M819.463,363.492c1.29,0,1.29-2,0-2S818.173,363.492,819.463,363.492L819.463,363.492z"/>
			</g>
		</g>
		<g>
			<g>
				<path fill="#8C8C8E" d="M816.463,363.555c1.29,0,1.29-2,0-2S815.173,363.555,816.463,363.555L816.463,363.555z"/>
			</g>
		</g>
		<g>
			<g>
				<path fill="#8C8C8E" d="M812.65,363.492c1.29,0,1.29-2,0-2S811.36,363.492,812.65,363.492L812.65,363.492z"/>
			</g>
		</g>
		<g>
			<g>
				<path fill="#8C8C8E" d="M808.65,363.555c1.29,0,1.29-2,0-2S807.36,363.555,808.65,363.555L808.65,363.555z"/>
			</g>
		</g>
		<g>
			<g>
				<path fill="#8C8C8E" d="M804.9,363.555c1.29,0,1.29-2,0-2S803.61,363.555,804.9,363.555L804.9,363.555z"/>
			</g>
		</g>
	</g>
	<g id="Ebene_13">
		
			<line fill="none" stroke="#8C8C8E" stroke-linecap="round" stroke-linejoin="round" stroke-miterlimit="10" x1="1018.12" y1="376.634" x2="983.535" y2="376.634"/>
		<g>
			<g>
				<path fill="#8C8C8E" d="M979.583,377.583c1.29,0,1.29-2,0-2S978.293,377.583,979.583,377.583L979.583,377.583z"/>
			</g>
		</g>
		<g>
			<g>
				<path fill="#8C8C8E" d="M975.792,377.667c1.29,0,1.29-2,0-2S974.502,377.667,975.792,377.667L975.792,377.667z"/>
			</g>
		</g>
		<g>
			<g>
				<path fill="#8C8C8E" d="M972.167,377.708c1.29,0,1.29-2,0-2S970.877,377.708,972.167,377.708L972.167,377.708z"/>
			</g>
		</g>
		<g>
			<g>
				<path fill="#8C8C8E" d="M968.417,377.667c1.29,0,1.29-2,0-2S967.127,377.667,968.417,377.667L968.417,377.667z"/>
			</g>
		</g>
		<g>
			<g>
				<path fill="#8C8C8E" d="M964.458,377.625c1.29,0,1.29-2,0-2S963.168,377.625,964.458,377.625L964.458,377.625z"/>
			</g>
		</g>
		<g>
			<g>
				<path fill="#8C8C8E" d="M960.75,377.667c1.29,0,1.29-2,0-2S959.46,377.667,960.75,377.667L960.75,377.667z"/>
			</g>
		</g>
		<g>
			<g>
				<path fill="#8C8C8E" d="M957.125,377.667c1.29,0,1.29-2,0-2S955.835,377.667,957.125,377.667L957.125,377.667z"/>
			</g>
		</g>
	</g>
	<g id="Ebene_13_Kopie">
		
			<line fill="none" stroke="#8C8C8E" stroke-linecap="round" stroke-linejoin="round" stroke-miterlimit="10" x1="861.083" y1="449.271" x2="820.963" y2="449.196"/>
		<g>
			<g>
				<path fill="#8C8C8E" d="M817.011,450.146c1.29,0,1.29-2,0-2S815.721,450.146,817.011,450.146L817.011,450.146z"/>
			</g>
		</g>
		<g>
			<g>
				<path fill="#8C8C8E" d="M813.22,450.229c1.29,0,1.29-2,0-2S811.93,450.229,813.22,450.229L813.22,450.229z"/>
			</g>
		</g>
		<g>
			<g>
				<path fill="#8C8C8E" d="M809.595,450.271c1.29,0,1.29-2,0-2S808.305,450.271,809.595,450.271L809.595,450.271z"/>
			</g>
		</g>
		<g>
			<g>
				<path fill="#8C8C8E" d="M805.845,450.229c1.29,0,1.29-2,0-2S804.555,450.229,805.845,450.229L805.845,450.229z"/>
			</g>
		</g>
		<g>
			<g>
				<path fill="#8C8C8E" d="M801.886,450.188c1.29,0,1.29-2,0-2S800.596,450.188,801.886,450.188L801.886,450.188z"/>
			</g>
		</g>
	</g>
</g>
<g id="Ebene_4_1_">
	<g id="Ebene_2_3_">
		<path fill="#8C8C8E" stroke="#8C8C8E" stroke-miterlimit="10" d="M1032.062,164.63h-19.021c-4.502,0-8.152,1.698-8.152,8.151
			v49.364c0,4.502,1.473,8.151,8.152,8.151h19.021c4.502,0,8.151-1.611,8.151-6.113v-51.402
			C1040.214,166.441,1039.422,164.63,1032.062,164.63z M1019.495,168.253l8.549-0.057c0.438,0,1.244,0.468,1.244,0.905
			s-0.807,0.68-1.244,0.68l-8.549,0.057c-0.438,0-0.793-0.354-0.793-0.793C1018.702,168.608,1019.058,168.253,1019.495,168.253z
			 M1028.157,226.901h-9.963c-0.532,0-0.963-0.432-0.963-0.963c0-0.53,0.431-0.962,0.963-0.962h9.963
			c0.531,0,0.962,0.432,0.962,0.962C1029.119,226.47,1028.688,226.901,1028.157,226.901z M1036.081,221.467h-26.889v-50.044h27.172
			L1036.081,221.467z"/>
	</g>
	<g id="Ebene_2_Kopie">
		<path fill="#8C8C8E" stroke="#8C8C8E" stroke-miterlimit="10" d="M938.208,285.631h-19.021c-7.246,0-8.151,3.65-8.151,8.151
			v49.364c0,4.501,2.405,7.755,8.179,7.755l18.993,0.396c6.793,0,8.152-3.65,8.152-8.151v-49.364
			C946.36,288.461,942.71,285.631,938.208,285.631z M925.641,289.254l6.454-0.114c0.438,0,0.679,0.524,0.679,0.963
			s-0.203,0.607-0.641,0.607l-6.492,0.129c-0.438,0-0.792-0.354-0.792-0.793C924.849,289.608,925.203,289.254,925.641,289.254z
			 M934.302,347.901h-9.963c-0.688-0.196-1.358-0.488-1.358-1.02s0.396-0.905,1.358-0.905h9.963c0.532,0,0.964,0.432,0.963,0.963
			C935.264,347.562,934.834,347.901,934.302,347.901z M942.511,342.467l-26.494-0.105l0.34-49.932l26.04,0.051L942.511,342.467z"/>
	</g>
	<g id="Ebene_2_Kopie_1_">
		<path fill="#8C8C8E" stroke="#8C8C8E" stroke-miterlimit="10" d="M1125.848,199.631h-19.021c-7.246,0-8.151,3.65-8.151,8.151
			v49.364c0,4.501,2.405,7.755,8.179,7.755l18.993,0.396c6.793,0,8.152-3.65,8.152-8.151v-49.364
			C1134,202.461,1130.35,199.631,1125.848,199.631z M1113.28,203.254l6.454-0.114c0.438,0,0.679,0.524,0.679,0.963
			s-0.203,0.607-0.641,0.607l-6.492,0.129c-0.438,0-0.792-0.354-0.792-0.793C1112.488,203.608,1112.843,203.254,1113.28,203.254z
			 M1121.941,261.901h-9.963c-0.688-0.196-1.358-0.488-1.358-1.02s0.396-0.905,1.358-0.905h9.963c0.532,0,0.964,0.432,0.963,0.963
			C1122.903,261.562,1122.474,261.901,1121.941,261.901z M1130.15,256.467l-26.494-0.105l0.34-49.932l26.04,0.051L1130.15,256.467z"
			/>
	</g>
	<g id="Ebene_4_2_">
		<path fill="none" stroke="#8C8C8E" stroke-width="2" stroke-linecap="round" stroke-linejoin="round" stroke-miterlimit="10" d="
			M862.058,395.193c0,0-0.101,61.043,0.802,62.346c0.902,1.305,53.728-0.3,54.629-0.901c0.902-0.602,1.003-58.438-1.604-60.942
			C913.278,393.188,862.058,395.193,862.058,395.193z"/>
		
			<rect x="885.312" y="400.706" fill="none" stroke="#8C8C8E" stroke-width="2" stroke-linecap="round" stroke-linejoin="round" stroke-miterlimit="10" width="26.263" height="14.535"/>
		<path fill="none" stroke="#8C8C8E" stroke-width="2" stroke-linecap="round" stroke-linejoin="round" stroke-miterlimit="10" d="
			M895.536,398c0,0,5.212-0.4,5.713,0"/>
		
			<rect x="887.518" y="435.389" fill="none" stroke="#8C8C8E" stroke-width="2" stroke-linecap="round" stroke-linejoin="round" stroke-miterlimit="10" width="3.709" height="2.806"/>
		<path fill="none" stroke="#8C8C8E" stroke-width="2" stroke-linecap="round" stroke-linejoin="round" stroke-miterlimit="10" d="
			M895.536,434.888c0,0,1.903,0.501,1.804,1.103c-0.099,0.601-0.5,2.204-0.5,2.204h-3.007l-1.004-1.653"/>
		<path fill="none" stroke="#8C8C8E" stroke-width="2" stroke-linecap="round" stroke-linejoin="round" stroke-miterlimit="10" d="
			M900.347,434.888h3.41c0,0,1.001,1.603,0,2.405c-1.004,0.802-2.508,0-2.508,0"/>
		<path fill="none" stroke="#8C8C8E" stroke-width="2" stroke-linecap="round" stroke-linejoin="round" stroke-miterlimit="10" d="
			M904.203,439.197c0.455,0.301,1.447,2.807,0,2.807c-1.449,0-5.057,0.4-4.456-0.901c0.602-1.304,0.602-1.905,0.602-1.905"/>
		<path fill="none" stroke="#8C8C8E" stroke-width="2" stroke-linecap="round" stroke-linejoin="round" stroke-miterlimit="10" d="
			M897.345,440.099c0,0-0.507,1.52-1.809,1.964c-1.303,0.443-1.904,0-1.904,0"/>
		<path fill="none" stroke="#8C8C8E" stroke-width="2" stroke-linecap="round" stroke-linejoin="round" stroke-miterlimit="10" d="
			M891.227,440.099c0,0,0.201,2.114-0.4,2.161c-0.603,0.045-4.412-0.197-4.412-0.197v-2.264"/>
		<path fill="none" stroke="#8C8C8E" stroke-width="2" stroke-linecap="round" stroke-linejoin="round" stroke-miterlimit="10" d="
			M891.227,444.109c0,0,1.104,1.502,0,2.205c-1.104,0.7-3.709,0-3.709,0v-1.604"/>
		<path fill="none" stroke="#8C8C8E" stroke-width="2" stroke-linecap="round" stroke-linejoin="round" stroke-miterlimit="10" d="
			M897.345,444.109c0,0,0.497,2.327-0.404,2.517c-0.902,0.189-4.109,0.088-3.309-0.813"/>
		<path fill="none" stroke="#8C8C8E" stroke-width="2" stroke-linecap="round" stroke-linejoin="round" stroke-miterlimit="10" d="
			M904.959,444.109c0,0-0.701,2.387-1.704,2.596c-1.003,0.21-3.909-2.396-2.908-2.596"/>
		<path fill="none" stroke="#8C8C8E" stroke-width="2" stroke-linecap="round" stroke-linejoin="round" stroke-miterlimit="10" d="
			M904.959,448.118c0,0,0.501,2.405,0,2.606c-0.502,0.2-3.71,0-3.71,0"/>
		<path fill="none" stroke="#8C8C8E" stroke-width="2" stroke-linecap="round" stroke-linejoin="round" stroke-miterlimit="10" d="
			M898.393,448.118c0,0-0.569,3.007-0.911,3.107c-0.341,0.101-3.248-0.413-3.248-0.413"/>
		<path fill="none" stroke="#8C8C8E" stroke-width="2" stroke-linecap="round" stroke-linejoin="round" stroke-miterlimit="10" d="
			M892.33,448.118c0,0,0.299,2.282-1.906,2.694s-2.906-0.388-2.906-0.388l-0.401-1.905"/>
		<path fill="none" stroke="#8C8C8E" stroke-width="2" stroke-linecap="round" stroke-linejoin="round" stroke-miterlimit="10" d="
			M880.701,447.517c0,3.985-3.231,7.218-7.216,7.218h-0.902c-3.986,0-7.218-3.232-7.218-7.218v-42.389
			c0-3.984,3.231-7.217,7.218-7.217h0.902c3.984,0,7.216,3.232,7.216,7.217V447.517z"/>
		<path fill="none" stroke="#8C8C8E" stroke-width="2" stroke-linecap="round" stroke-linejoin="round" stroke-miterlimit="10" d="
			M873.033,455.536c0,0,0.652,4.31-3.759,5.312c-4.41,1.004-6.314,3.91-3.007,5.514s0.16-0.2-1.673,1.703
			c-1.836,1.905,8.79,0.701,3.576,2.005c-5.211,1.304-3.708,2.205-2.004,2.205s5.413-0.1-0.802,1.704
			c-1.103,0.502-1.203,1.504,1.203,1.002c2.405-0.5,4.811-0.399,2.154,1.004c-2.656,1.401-2.756,2.806-0.552,2.104
			c2.206-0.703,5.014-2.706-0.7,0.902c-1.672,1.652,4.41,0.701,4.41-0.902c0,0-6.116,4.11-3.158,4.511s6.467-2.806,4.763-2.707
			c-1.705,0.101-3.91,5.312-2.104,4.711c1.804-0.602,4.811-3.808,3.508-3.206c-1.304,0.601-3.308,5.812-1.403,4.911
			c1.904-0.902,4.209-4.211,2.906-3.709c-1.304,0.5-2.708,5.212-0.4,4.61c2.305-0.601,4.209-5.413,2.806-3.208
			c-1.402,2.206-1.503,5.514-0.3,4.912c1.202-0.602,3.407-5.713,2.204-2.706c-1.202,3.007,0,3.651,1.103,2.778
			c1.103-0.874,1.403-4.756,0.702-2.377c-0.702,2.377,0.701,4.169,1.904,2.737c1.202-1.436,1.804-4.272,0.901-2.137
			c-0.901,2.137,0.902,3.791,2.206,2.646c1.303-1.143,1.537-2.547,1.319-2.346s2.516,4.135,3.505,2.72
			c0.989-1.417,1.089-4.424,0.487-3.222c-0.602,1.203,0.306,4.11,2.258,2.707s2.956-5.213,1.753-3.809
			c-1.202,1.402-0.904,4.61,1.604,2.807c2.505-1.805,1.102-6.114,0.701-4.411c-0.4,1.705,1.196,4.11,3.405,2.606
			c2.208-1.503,0.398-4.71,0-3.407c-0.397,1.303-0.097,3.708,2.409,2.706c2.506-1.003,1.703-4.912,0.902-3.81
			c-0.803,1.104,1.904,3.609,1.904,3.609s2.505-5.815,0.802-5.112c-1.705,0.701,0.4,4.41,1.504,3.106
			c1.101-1.303,0.901-6.315,0.601-5.413c-0.301,0.903,0.101,5.814,2.105,4.11c2.004-1.704,1.002-6.014,0.4-5.212
			c-0.602,0.801,1.303,5.012,3.509,3.107c2.205-1.904-1.202-6.917-1.104-5.412c0.101,1.503,4.611,5.613,3.81,1.103
			s-0.901,1.401,2.104-2.307c3.008-3.708-1.804-5.912-2.505-4.61c-0.702,1.303,5.868,1.002,3.485-1.905
			c-2.383-2.905-6.794-5.011-6.794-2.706c0,2.306,4.912-2.405,1.604-2.706s-5.413,0.902-4.812,2.507
			c0.601,1.604,1.604-2.706-0.902-3.108c-2.507-0.4-2.507,3.709-1.804,2.706c0.701-1.002,0-4.811-2.105-3.909
			c-2.104,0.902-1.804,3.509-0.803,2.907c1.003-0.602-0.253-4.511-1.68-3.308c-1.426,1.203-3.91,3.81-1.967,2.907
			c1.943-0.901,2.138-3.509-0.666-2.907c-2.805,0.602-7.411,5.596-3.505,3.909c3.907-1.686-1.701-3.709-1.701-3.709
			s-3.008,2.205-1.856,2.907c1.152,0.702,4.062-5.813,0-4.109c-4.06,1.703-6.192,3.81-5.427,4.21s1.581-3.709-0.331-3.509
			c-1.911,0.2-6.322,2.104-4.418,2.405c1.905,0.301,4.511-2.706-0.601-3.106c-5.112-0.402-7.017,3.207-5.613,3.207
			s0.401-3.007-1.703-2.205c-2.105,0.803-3.209-0.711-1.904-1.809"/>
	</g>
	<g id="Ebene_4_3_">
		<path fill="none" stroke="#8C8C8E" stroke-width="2" stroke-linecap="round" stroke-linejoin="round" stroke-miterlimit="10" d="
			M1019.244,321.014c0,0-0.101,61.043,0.802,62.346c0.902,1.305,53.728-0.3,54.629-0.901c0.902-0.602,1.003-58.438-1.604-60.942
			C1070.465,319.009,1019.244,321.014,1019.244,321.014z"/>
		
			<rect x="1042.498" y="326.526" fill="none" stroke="#8C8C8E" stroke-width="2" stroke-linecap="round" stroke-linejoin="round" stroke-miterlimit="10" width="26.263" height="14.535"/>
		<path fill="none" stroke="#8C8C8E" stroke-width="2" stroke-linecap="round" stroke-linejoin="round" stroke-miterlimit="10" d="
			M1052.723,323.82c0,0,5.212-0.4,5.713,0"/>
		
			<rect x="1044.704" y="361.209" fill="none" stroke="#8C8C8E" stroke-width="2" stroke-linecap="round" stroke-linejoin="round" stroke-miterlimit="10" width="3.709" height="2.806"/>
		<path fill="none" stroke="#8C8C8E" stroke-width="2" stroke-linecap="round" stroke-linejoin="round" stroke-miterlimit="10" d="
			M1052.723,360.708c0,0,1.903,0.501,1.804,1.103c-0.099,0.601-0.5,2.204-0.5,2.204h-3.007l-1.004-1.653"/>
		<path fill="none" stroke="#8C8C8E" stroke-width="2" stroke-linecap="round" stroke-linejoin="round" stroke-miterlimit="10" d="
			M1057.533,360.708h3.41c0,0,1.001,1.603,0,2.405c-1.004,0.802-2.508,0-2.508,0"/>
		<path fill="none" stroke="#8C8C8E" stroke-width="2" stroke-linecap="round" stroke-linejoin="round" stroke-miterlimit="10" d="
			M1061.39,365.018c0.455,0.301,1.447,2.807,0,2.807c-1.449,0-5.057,0.4-4.456-0.901c0.602-1.304,0.602-1.905,0.602-1.905"/>
		<path fill="none" stroke="#8C8C8E" stroke-width="2" stroke-linecap="round" stroke-linejoin="round" stroke-miterlimit="10" d="
			M1054.531,365.919c0,0-0.507,1.52-1.809,1.964c-1.303,0.443-1.904,0-1.904,0"/>
		<path fill="none" stroke="#8C8C8E" stroke-width="2" stroke-linecap="round" stroke-linejoin="round" stroke-miterlimit="10" d="
			M1048.413,365.919c0,0,0.201,2.114-0.4,2.161c-0.603,0.045-4.412-0.197-4.412-0.197v-2.264"/>
		<path fill="none" stroke="#8C8C8E" stroke-width="2" stroke-linecap="round" stroke-linejoin="round" stroke-miterlimit="10" d="
			M1048.413,369.93c0,0,1.104,1.502,0,2.205c-1.104,0.7-3.709,0-3.709,0v-1.604"/>
		<path fill="none" stroke="#8C8C8E" stroke-width="2" stroke-linecap="round" stroke-linejoin="round" stroke-miterlimit="10" d="
			M1054.531,369.93c0,0,0.497,2.327-0.404,2.517c-0.902,0.189-4.109,0.088-3.309-0.813"/>
		<path fill="none" stroke="#8C8C8E" stroke-width="2" stroke-linecap="round" stroke-linejoin="round" stroke-miterlimit="10" d="
			M1062.146,369.93c0,0-0.701,2.387-1.704,2.596c-1.003,0.21-3.909-2.396-2.908-2.596"/>
		<path fill="none" stroke="#8C8C8E" stroke-width="2" stroke-linecap="round" stroke-linejoin="round" stroke-miterlimit="10" d="
			M1062.146,373.938c0,0,0.501,2.405,0,2.606c-0.502,0.2-3.71,0-3.71,0"/>
		<path fill="none" stroke="#8C8C8E" stroke-width="2" stroke-linecap="round" stroke-linejoin="round" stroke-miterlimit="10" d="
			M1055.579,373.938c0,0-0.569,3.007-0.911,3.107c-0.341,0.101-3.248-0.413-3.248-0.413"/>
		<path fill="none" stroke="#8C8C8E" stroke-width="2" stroke-linecap="round" stroke-linejoin="round" stroke-miterlimit="10" d="
			M1049.517,373.938c0,0,0.299,2.282-1.906,2.694s-2.906-0.388-2.906-0.388l-0.401-1.905"/>
		<path fill="none" stroke="#8C8C8E" stroke-width="2" stroke-linecap="round" stroke-linejoin="round" stroke-miterlimit="10" d="
			M1037.888,373.337c0,3.985-3.231,7.218-7.216,7.218h-0.902c-3.986,0-7.218-3.232-7.218-7.218v-42.389
			c0-3.984,3.231-7.217,7.218-7.217h0.902c3.984,0,7.216,3.232,7.216,7.217V373.337z"/>
		<path fill="none" stroke="#8C8C8E" stroke-width="2" stroke-linecap="round" stroke-linejoin="round" stroke-miterlimit="10" d="
			M1030.22,381.356c0,0,0.652,4.31-3.759,5.312c-4.41,1.004-6.314,3.91-3.007,5.514s0.16-0.2-1.673,1.703
			c-1.836,1.905,8.79,0.701,3.576,2.005c-5.211,1.304-3.708,2.205-2.004,2.205s5.413-0.1-0.802,1.704
			c-1.103,0.502-1.203,1.504,1.203,1.002c2.405-0.5,4.811-0.399,2.154,1.004c-2.656,1.401-2.756,2.806-0.552,2.104
			c2.206-0.703,5.014-2.706-0.7,0.902c-1.672,1.652,4.41,0.701,4.41-0.902c0,0-6.116,4.11-3.158,4.511s6.467-2.806,4.763-2.707
			c-1.705,0.101-3.91,5.312-2.104,4.711c1.804-0.602,4.811-3.808,3.508-3.206c-1.304,0.601-3.308,5.812-1.403,4.911
			c1.904-0.902,4.209-4.211,2.906-3.709c-1.304,0.5-2.708,5.212-0.4,4.61c2.305-0.601,4.209-5.413,2.806-3.208
			c-1.402,2.206-1.503,5.514-0.3,4.912c1.202-0.602,3.407-5.713,2.204-2.706c-1.202,3.007,0,3.651,1.103,2.778
			c1.103-0.874,1.403-4.756,0.702-2.377c-0.702,2.377,0.701,4.169,1.904,2.737c1.202-1.436,1.804-4.272,0.901-2.137
			c-0.901,2.137,0.902,3.791,2.206,2.646c1.303-1.143,1.537-2.547,1.319-2.346s2.516,4.135,3.505,2.72
			c0.989-1.417,1.089-4.424,0.487-3.222c-0.602,1.203,0.306,4.11,2.258,2.707s2.956-5.213,1.753-3.809
			c-1.202,1.402-0.904,4.61,1.604,2.807c2.505-1.805,1.102-6.114,0.701-4.411c-0.4,1.705,1.196,4.11,3.405,2.606
			c2.208-1.503,0.398-4.71,0-3.407c-0.397,1.303-0.097,3.708,2.409,2.706c2.506-1.003,1.703-4.912,0.902-3.81
			c-0.803,1.104,1.904,3.609,1.904,3.609s2.505-5.815,0.802-5.112c-1.705,0.701,0.4,4.41,1.504,3.106
			c1.101-1.303,0.901-6.315,0.601-5.413c-0.301,0.903,0.101,5.814,2.105,4.11c2.004-1.704,1.002-6.014,0.4-5.212
			c-0.602,0.801,1.303,5.012,3.509,3.107c2.205-1.904-1.202-6.917-1.104-5.412c0.101,1.503,4.611,5.613,3.81,1.103
			s-0.901,1.401,2.104-2.307c3.008-3.708-1.804-5.912-2.505-4.61c-0.702,1.303,5.868,1.002,3.485-1.905
			c-2.383-2.905-6.794-5.011-6.794-2.706c0,2.306,4.912-2.405,1.604-2.706s-5.413,0.902-4.812,2.507
			c0.601,1.604,1.604-2.706-0.902-3.108c-2.507-0.4-2.507,3.709-1.804,2.706c0.701-1.002,0-4.811-2.105-3.909
			c-2.104,0.902-1.804,3.509-0.803,2.907c1.003-0.602-0.253-4.511-1.68-3.308c-1.426,1.203-3.91,3.81-1.967,2.907
			c1.943-0.901,2.138-3.509-0.666-2.907c-2.805,0.602-7.411,5.596-3.505,3.909c3.907-1.686-1.701-3.709-1.701-3.709
			s-3.008,2.205-1.856,2.907c1.152,0.702,4.062-5.813,0-4.109c-4.06,1.703-6.192,3.81-5.427,4.21s1.581-3.709-0.331-3.509
			c-1.911,0.2-6.322,2.104-4.418,2.405c1.905,0.301,4.511-2.706-0.601-3.106c-5.112-0.402-7.017,3.207-5.613,3.207
			s0.401-3.007-1.703-2.205c-2.105,0.803-3.209-0.711-1.904-1.809"/>
	</g>
</g>
<g id="Ebene_15">
	<text transform="matrix(1 0 0 1 96.25 414.0039)" fill="#32323C" font-family="'BradleyHandITCTT-Bold'" font-size="24">Test Setup</text>
	<text transform="matrix(1 0 0 1 103.0029 431.2109)"><tspan x="0" y="0" fill="#32323C" font-family="'BradleyHandITCTT-Bold'" font-size="19">Command Application</tspan><tspan x="0" y="18" fill="#32323C" font-family="'BradleyHandITCTT-Bold'" font-size="18">with</tspan><tspan x="34.037" y="18" fill="#32323C" font-family="'BradleyHandITCTT-Bold'" font-size="19"> </tspan><tspan x="38.882" y="18" fill="#F7941E" font-family="'BradleyHandITCTT-Bold'" font-size="19">IN</tspan><tspan x="59.022" y="18" fill="#32323C" font-family="'BradleyHandITCTT-Bold'" font-size="19">TACT </tspan></text>
	<text transform="matrix(1 0 0 1 368.75 518.5)" fill="#32323C" font-family="'BradleyHandITCTT-Bold'" font-size="22">Automated Verification</text>
	<text transform="matrix(0.9957 0.0923 -0.0923 0.9957 174.9326 84.7456)"><tspan x="0" y="0" fill="#F7941E" font-family="'BradleyHandITCTT-Bold'" font-size="23">Test</tspan><tspan x="0" y="22" fill="#F7941E" font-family="'BradleyHandITCTT-Bold'" font-size="23"> Cases</tspan></text>
</g>
<g id="Ebene_16">
</g>
<g id="Ebene_3_1_">
	<path fill="none" stroke="#8C8C8E" stroke-width="2" stroke-linecap="round" stroke-linejoin="round" stroke-miterlimit="10" d="
		M495.809,486.449c0,0,9.343,3.735,8.876,4.803c-0.468,1.068-40.177,1.335-40.177,1.335s-15.882,2.135-17.596,2.268
		c-1.713,0.134-22.113-4.67-24.137-4.202c-2.024,0.467,7.475-1.135,7.475-1.135"/>
	<path fill="none" stroke="#8C8C8E" stroke-width="2" stroke-linecap="round" stroke-linejoin="round" stroke-miterlimit="10" d="
		M501.882,482.713c0,0-18.998,6.405-19.621,6.672"/>
	<path fill="none" stroke="#8C8C8E" stroke-width="2" stroke-linecap="round" stroke-linejoin="round" stroke-miterlimit="10" d="
		M487.868,484.314c0,0-12.303,3.603-13.081,5.07c-17.285-0.533-56.527-1.334-58.396-2.535c9.032-2.135,23.046-4.137,23.046-4.137"/>
	<path fill="none" stroke="#8C8C8E" stroke-width="2" stroke-linecap="round" stroke-linejoin="round" stroke-miterlimit="10" d="
		M425.89,482.713l13.236-3.335c0,0,55.592,1.601,58.084,2.401"/>
	<path fill="none" stroke="#8C8C8E" stroke-width="2" stroke-linecap="round" stroke-linejoin="round" stroke-miterlimit="10" d="
		M504.702,478.177c0,0-80.681-2.534-81.148-2.534c-0.467,0,9.032,3.735,9.032,3.735"/>
	<path fill="none" stroke="#8C8C8E" stroke-width="2" stroke-linecap="round" stroke-linejoin="round" stroke-miterlimit="10" d="
		M424.8,471.64c0,0,16.818-1.868,19.154-2.002c2.335-0.133,62.444,4.803,62.444,4.803"/>
	<path fill="none" stroke="#8C8C8E" stroke-width="2" stroke-linecap="round" stroke-linejoin="round" stroke-miterlimit="10" d="
		M425.89,467.77c0,0-7.319-0.801-7.008-1.601c0.312-0.8,22.268-3.736,22.268-3.736"/>
	<path fill="none" stroke="#8C8C8E" stroke-width="2" stroke-linecap="round" stroke-linejoin="round" stroke-miterlimit="10" d="
		M422.493,461.365c0,0,68.021-4.803,69.579-4.803c1.557,0,9.188,4.803,9.188,4.803"/>
	<path fill="none" stroke="#8C8C8E" stroke-width="2" stroke-linecap="round" stroke-linejoin="round" stroke-miterlimit="10" d="
		M441.15,455.896c0,0-21.333,1.868-21.801,3.068"/>
	<path fill="none" stroke="#8C8C8E" stroke-width="2" stroke-linecap="round" stroke-linejoin="round" stroke-miterlimit="10" d="
		M427.135,456.562l-8.263-3.336c0,0,50.62-3.068,52.644-2.936c2.024,0.134,18.531,5.604,18.531,5.604"/>
	
		<line fill="none" stroke="#8C8C8E" stroke-width="2" stroke-linecap="round" stroke-linejoin="round" stroke-miterlimit="10" x1="501.882" y1="452.293" x2="483.196" y2="450.287"/>
	<path fill="none" stroke="#8C8C8E" stroke-width="2" stroke-linecap="round" stroke-linejoin="round" stroke-miterlimit="10" d="
		M421.978,451.289l-3.105-2.198c0,0,26.015-11.341,26.95-12.275c7.475,1.734,37.373,8.405,37.373,8.405l4.672-3.469
		c0,0-17.441-6.404-18.687-7.205c-8.097,0.935-21.683,2.653-21.683,2.653"/>
	<path fill="none" stroke="#8C8C8E" stroke-width="2" stroke-linecap="round" stroke-linejoin="round" stroke-miterlimit="10" d="
		M439.438,438.817c0,0-21.957,5.069-23.825,6.537c3.582,0.267,6.88,0.8,6.88,0.8"/>
	<path fill="none" stroke="#8C8C8E" stroke-width="2" stroke-linecap="round" stroke-linejoin="round" stroke-miterlimit="10" d="
		M500.168,437.349c0,0-20.85,0.069-23.116,0.368"/>
	<path fill="none" stroke="#8C8C8E" stroke-width="2" stroke-linecap="round" stroke-linejoin="round" stroke-miterlimit="10" d="
		M492.072,435.881l9.188-3.469c0,0-19.933-2.535-22.892-2.668"/>
	<path fill="none" stroke="#8C8C8E" stroke-width="2" stroke-linecap="round" stroke-linejoin="round" stroke-miterlimit="10" d="
		M501.26,429.21c0,0-28.187-2.402-29.588-2.802"/>
	<path fill="none" stroke="#8C8C8E" stroke-width="2" stroke-linecap="round" stroke-linejoin="round" stroke-miterlimit="10" d="
		M481.171,432.812c0,0-11.679-6.271-12.458-7.071c-0.778-0.801-33.668,8.806-45.175,7.873c5.155,2.267,8.582,4.103,8.582,4.103"/>
	<path fill="none" stroke="#8C8C8E" stroke-width="2" stroke-linecap="round" stroke-linejoin="round" stroke-miterlimit="10" d="
		M428.071,431.705c0,0,24.593-8.499,25.299-12.769c7.401,0.934,18.302,3.202,18.302,3.202"/>
	<path fill="none" stroke="#8C8C8E" stroke-width="2" stroke-linecap="round" stroke-linejoin="round" stroke-miterlimit="10" d="
		M431.807,429.21l-8.27-3.89c0,0,21.745-0.504,23.491-1.447"/>
	<path fill="none" stroke="#8C8C8E" stroke-width="2" stroke-linecap="round" stroke-linejoin="round" stroke-miterlimit="10" d="
		M425.89,423.339l-8.565-1.867c0,0,35.816-7.072,39.709-7.472c4.359,1.867,6.562,3.202,6.562,3.202l14.771-0.268l8.097,5.605
		l16.819,1.333"/>
	
		<polyline fill="none" stroke="#8C8C8E" stroke-width="2" stroke-linecap="round" stroke-linejoin="round" stroke-miterlimit="10" points="
		489.813,418.937 478.368,410.798 431.185,412.533 435.283,416.669 	"/>
	<path fill="none" stroke="#8C8C8E" stroke-width="2" stroke-linecap="round" stroke-linejoin="round" stroke-miterlimit="10" d="
		M441.15,411.331l7.164-6.271c0,0,44.069,3.869,46.405,4.803c2.336,0.935,2.492,4.137,2.492,4.137l-9.343,3.553"/>
</g>
<g id="Ebene_2">
	<g id="Ebene_2_2_">
		<path fill="none" stroke="#F7941E" stroke-width="2" stroke-linecap="round" stroke-linejoin="round" stroke-miterlimit="10" d="
			M212.691,312.045l-46.811,29.55l43.93-30.027L166,338.667l39.649-27.775l-40.279,25.178c0,0,27.001-22.645,36.935-25.159
			c-18.449,4.064-37.168,22.614-37.168,22.614l30.625-22.614l-29.544,18.848l22.167-16.361c0,0-17.255,9.537-19.112,12.259"/>
		<path fill="none" stroke="#F7941E" stroke-width="2" stroke-linecap="round" stroke-linejoin="round" stroke-miterlimit="10" d="
			M194.241,371.181l42.397-23.847l-37.516,23.941L236,351.11l-30.352,19.14l29.708-15.886l-22.773,14.553l20.388-9.495"/>
		<path fill="none" stroke="#F7941E" stroke-width="2" stroke-linecap="round" stroke-linejoin="round" stroke-miterlimit="10" d="
			M236.638,341.595c0,0-48.363,27.606-48.031,27.827s48.031-25.005,48.031-25.005l-44.85,26.455"/>
		<path fill="none" stroke="#F7941E" stroke-width="2" stroke-linecap="round" stroke-linejoin="round" stroke-miterlimit="10" d="
			M227,318.667l-58.39,36l61.14-34.5l-61.204,37.537l63.5-36.303l-62.331,38.369l64.068-36.448l-63.17,38.157l64.828-35.825
			l-62.08,37.09l63.265-34.737l-61.694,35.892l61.22-32.209l-59.919,33.458l60.405-30.966l-58.306,32.4l58.306-30.042
			c0,0-56.407,30.944-56.133,31.07s56.133-27.86,56.133-27.86l-52.926,29.121"/>
		<path fill="none" stroke="#F7941E" stroke-width="2" stroke-linecap="round" stroke-linejoin="round" stroke-miterlimit="10" d="
			M166.802,348.224l55.062-33.462l-54.724,35.647l58.475-33.817l-57.557,36.149"/>
		<path fill="none" stroke="#F7941E" stroke-width="2" stroke-linecap="round" stroke-linejoin="round" stroke-miterlimit="10" d="
			M214.567,313.396l-47.723,30.507l50.265-29.606l-50.641,31.632"/>
	</g>
	<g id="Ebene_2_1_">
		<path fill="none" stroke="#8C8C8E" stroke-width="2" stroke-linecap="round" stroke-linejoin="round" stroke-miterlimit="10" d="
			M122.287,340.933c0,0-31.484,44.078-30.656,47.227s2.982,1.657,4.309,1.823c1.325,0.165,2.982,3.811,4.805,3.976
			c1.823,0.167,205.313,0.167,207.136,0c2.983-0.165,2.651-2.153,4.806-3.148c0,0,4.805-0.331,4.805-4.142
			c0-3.812-28.336-48.719-28.336-48.719"/>
		<path fill="none" stroke="#8C8C8E" stroke-width="2" stroke-linecap="round" stroke-linejoin="round" stroke-miterlimit="10" d="
			M164.543,337.949c0,0-17.399,15.41-5.634,29.828c11.765,14.416,37.616,19.222,62.472,13.091
			c24.856-6.132,28.335-26.68,26.016-32.645c-2.154-7.126-8.617-10.274-8.617-10.274s47.223,0.592,50.375,0
			c1.821-0.342-3.148-90.477-3.148-90.477s-155.766-1.491-157.257-0.828c-1.491,0.663-7.623,90.642-6.96,91.305
			C122.453,338.612,164.543,337.949,164.543,337.949"/>
		<path fill="none" stroke="#8C8C8E" stroke-width="2" stroke-linecap="round" stroke-linejoin="round" stroke-miterlimit="10" d="
			M241.267,331.321c0,0,41.426,0.828,42.586,0c1.161-0.829-1.988-77.055-2.485-77.884c-0.497-0.828-148.807-0.497-149.8,0
			c-0.995,0.497-6.463,77.386-5.469,77.552s37.616,0.7,37.616,0.7"/>
		<path fill="none" stroke="#8C8C8E" stroke-width="2" stroke-linecap="round" stroke-linejoin="round" stroke-miterlimit="10" d="
			M218.564,345.075c0,0,18.603-5.248,18.062-17.068"/>
		<path fill="none" stroke="#8C8C8E" stroke-width="2" stroke-linecap="round" stroke-linejoin="round" stroke-miterlimit="10" d="
			M184.759,348.224c0,0-20.547-4.641-19.623-14.699"/>
		<path fill="none" stroke="#8C8C8E" stroke-width="2" stroke-linecap="round" stroke-linejoin="round" stroke-miterlimit="10" d="
			M155.926,365.125c0,0-6.738-0.221-6.849-0.552s0.332-3.313,0-4.529s-2.873,1.988-3.425,2.541s-1.326,2.43-2.762,2.54
			c-1.436,0.111-4.198-0.772-4.198-0.772"/>
		
			<polyline fill="none" stroke="#8C8C8E" stroke-width="2" stroke-linecap="round" stroke-linejoin="round" stroke-miterlimit="10" points="
			137.256,361.479 134.273,365.136 128.75,365.136 		"/>
		<path fill="none" stroke="#8C8C8E" stroke-width="2" stroke-linecap="round" stroke-linejoin="round" stroke-miterlimit="10" d="
			M128.75,361.148c0,0-2.229,3.885-2.772,3.987c-0.542,0.102-7.613-0.452-7.613-0.452s1.437-3.646,2.541-4.198
			S128.75,361.148,128.75,361.148z"/>
		<path fill="none" stroke="#8C8C8E" stroke-width="2" stroke-linecap="round" stroke-linejoin="round" stroke-miterlimit="10" d="
			M124.552,357.062c0,0-1.768-2.32-0.994-2.982"/>
		<path fill="none" stroke="#8C8C8E" stroke-width="2" stroke-linecap="round" stroke-linejoin="round" stroke-miterlimit="10" d="
			M141.833,357.062c0,0-4.667-5.395-6.167-5.395s-0.333,3.307-1.333,3.903s-5.583-1.206-5.583-1.206v-1.53
			c0,0-0.083,3.14-1.583,2.736"/>
		<path fill="none" stroke="#8C8C8E" stroke-width="2" stroke-linecap="round" stroke-linejoin="round" stroke-miterlimit="10" d="
			M248.5,363.308c0,0,3,1.042,4.5-2.966"/>
		<path fill="none" stroke="#8C8C8E" stroke-width="2" stroke-linecap="round" stroke-linejoin="round" stroke-miterlimit="10" d="
			M256.5,363.308c0,0,3.667,0.974,4.167,0s1.667-5.475,3.5-5.308s3.167,1.771,3.167,1.771v2.975l4.5-0.292
			c0,0,0.333-1.912,2.167-2.683s2.333-2.481,5-2.709s-2.167-2.167,2.333-2.697c0.667-2.197,4.667-2.697,4.667-2.697l2.167,5.395
			l-4.059,0.643"/>
		<path fill="none" stroke="#8C8C8E" stroke-width="2" stroke-linecap="round" stroke-linejoin="round" stroke-miterlimit="10" d="
			M276.167,363.43L281,363.74l1.833-3.398l1.274,3.088l7.726-0.122c0,0-1.553-4.14-2.276-4.474"/>
		<path fill="none" stroke="#8C8C8E" stroke-width="2" stroke-linecap="round" stroke-linejoin="round" stroke-miterlimit="10" d="
			M278.667,350.5c0,0,5.383,2.168,5.441-1.666s-4.274-3.759-4.274-3.759L278,348.224l-3-0.131l-1-2.259l-1.667,2.39"/>
		
			<polyline fill="none" stroke="#8C8C8E" stroke-width="2" stroke-linecap="round" stroke-linejoin="round" stroke-miterlimit="10" points="
			275,352.834 267.833,354.079 266.333,352.834 262.833,354.364 255.667,354.079 254.167,351.11 254.167,347.334 259.167,347.334 
			261.167,349.5 		"/>
		
			<polyline fill="none" stroke="#8C8C8E" stroke-width="2" stroke-linecap="round" stroke-linejoin="round" stroke-miterlimit="10" points="
			148.833,349.5 146.667,354.364 149.667,355.57 		"/>
		
			<polyline fill="none" stroke="#8C8C8E" stroke-width="2" stroke-linecap="round" stroke-linejoin="round" stroke-miterlimit="10" points="
			127.167,345.075 127.167,347.334 130.833,347.334 133.003,344.5 135.5,344.5 136.5,347.334 141.833,346.834 141.833,348.224 
			145.5,348.224 145.5,346.361 		"/>
		<path fill="none" stroke="#8C8C8E" stroke-width="2" stroke-linecap="round" stroke-linejoin="round" stroke-miterlimit="10" d="
			M242.5,357.704c0,0-6.402,18.457-37.946,19.463S156.922,362.299,160,350.85c0.57-2.046,2.702-6.283,5.136-8.514"/>
		<path fill="none" stroke="#8C8C8E" stroke-width="2" stroke-linecap="round" stroke-linejoin="round" stroke-miterlimit="10" d="
			M309.5,388.667c0,0-203,0.167-208.333,0"/>
		<g id="Ebene_3">
			<path fill="none" stroke="#8C8C8E" stroke-width="2" stroke-linecap="round" stroke-linejoin="round" stroke-miterlimit="10" d="
				M165.04,334.635c0,0,2.651,24.193,4.64,26.017s14.954,13.684,37.947,10.108c23.448-3.646,25.685-10.708,28.17-17.616
				s0.828-25.137,0.828-25.137s-6.02-17.896-38.941-17.067C167.691,313.59,164.885,333.27,165.04,334.635z"/>
		</g>
	</g>
	<g id="Ebene_4">
		<path d="M199.123,313.425c0,0-5.106,0.104-9.418,2.071c-8.23,3.756-15.521,15.604-0.483,23.778
			c2.486,1.519,8.454,2.314,9.017,2.32c0.193,0.002,0.193-4.475,0.193-4.475s-6.656-0.055-11.568-4.891
			c-3.661-3.605-3.098-9.415-0.777-11.942c3.387-3.689,6.933-5.561,13.036-5.951L199.123,313.425"/>
		<path d="M213.548,331.614l3.265,2.913c0,0,6.06-6.411-0.428-14.724c-3.535-4.529-12.289-6.549-14.691-6.399
			c0.055,0.619,0,1.001,0,1.001s5.052,0.068,10.203,3.927c3.83,2.87,4.335,8.189,3.25,10.56
			C214.4,330.522,213.548,331.614,213.548,331.614"/>
		<path fill="#FFFFFF" d="M209.258,335.049c0,0-3.701,2.017-8.644,2.237c-0.056,1.492,0,4.309,0,4.309s6.361,0.222,11.842-3.246
			c1.436,1.352,3.982,3.688,3.982,3.688s3.121-1.961,3.452-3.148c-3.646-2.763-12.442-9.801-12.442-9.801s4.433-1.081,4.57-1.108
			c0.138-0.027-2.458-1.63-12.29-2.968c0,0,2.238,9.596,2.9,10.037c0.469-0.883,2.734-4.114,2.734-4.114L209.258,335.049"/>
	</g>
</g>
<g id="Ebene_5">
	<path fill="none" stroke="#F7941E" stroke-width="2" stroke-linecap="round" stroke-linejoin="round" stroke-miterlimit="10" d="
		M264.333,67.667c0,0-11,15.5-11.833,63.167c-34.667-1.5-59.333-6.167-73.667-9.833s-28-5.167-28-5.167s12.5-14.667,10.5-33.333
		S159.5,56.167,159.5,56.167s63.167,2.5,69.5,3S260,61.5,264.333,67.667z"/>
	<path fill="none" stroke="#F7941E" stroke-width="2" stroke-linecap="round" stroke-linejoin="round" stroke-miterlimit="10" d="
		M253.333,129c0,0,2.667,0.167,4.5,0c1.167-18.333,0-32.667,0-40.5c0,0,0.308-5.309,1.128-7.913"/>
	<path fill="none" stroke="#F7941E" stroke-width="2" stroke-linecap="round" stroke-linejoin="round" stroke-miterlimit="10" d="
		M154.245,117.092c0,0-0.911,1.575-0.911,4.408c10,0.167,27.901,0.217,33.239,1.334"/>
	
		<path display="none" fill="none" stroke="#F7941E" stroke-width="2" stroke-linecap="round" stroke-linejoin="round" stroke-miterlimit="10" d="
		M179.333,75.333l13.5,1.333c0,0-8-1.833-7.833,1.333s0.167,8.167,0.167,8.167"/>
	
		<path display="none" fill="none" stroke="#F7941E" stroke-width="2" stroke-linecap="round" stroke-linejoin="round" stroke-miterlimit="10" d="
		M192.833,82.333c0,0,5.167-0.667,4.667-2.667s-8,2.5-4.667,6.5c2.5,3,5.5,0.5,7,0"/>
	
		<path display="none" fill="none" stroke="#F7941E" stroke-width="2" stroke-linecap="round" stroke-linejoin="round" stroke-miterlimit="10" d="
		M207.583,82c0,0-2.152-2.701-3.917-1.413c-1.25,0.913-2,2.746,0,3.913s4.5,3.75,1.982,4.5c-2.083,0.621-3.815,0.07-4.815-1.382"/>
	
		<path display="none" fill="none" stroke="#F7941E" stroke-width="2" stroke-linecap="round" stroke-linejoin="round" stroke-miterlimit="10" d="
		M212.583,76.833c0,0-3.75,13.5,1.75,14.667"/>
	
		<line display="none" fill="none" stroke="#F7941E" stroke-width="2" stroke-linecap="round" stroke-linejoin="round" stroke-miterlimit="10" x1="216" y1="81.5" x2="209.75" y2="81.5"/>
	
		<path display="none" fill="none" stroke="#F7941E" stroke-width="2" stroke-linecap="round" stroke-linejoin="round" stroke-miterlimit="10" d="
		M192.833,101.083c0,0-1.868-4.009-4.583-3.583c-4.25,0.667-6.75,6.167-4.167,8.667s6.833,3.333,10.167,0.25"/>
	
		<path display="none" fill="none" stroke="#F7941E" stroke-width="2" stroke-linecap="round" stroke-linejoin="round" stroke-miterlimit="10" d="
		M202.333,102.5c0,0-1.5-2.25-4.33-0.933c-1.803,0.839-5.587,3.767-1.253,8.017c2.841,1.5,4.917-0.917,5.583-3.167
		c0.617-2.083,1.875-4.417,1.875-4.417s-3.375,7.5-1.042,9.083"/>
	
		<path display="none" fill="none" stroke="#F7941E" stroke-width="2" stroke-linecap="round" stroke-linejoin="round" stroke-miterlimit="10" d="
		M212.834,102.937c0,0-0.501-1.563-3.084,0s-1.333,3.147,0.667,4.313s3.21,4.667,0.147,4.75s-4.23-0.917-4.147-2.583"/>
	
		<path display="none" fill="none" stroke="#F7941E" stroke-width="2" stroke-linecap="round" stroke-linejoin="round" stroke-miterlimit="10" d="
		M216,107.833c0,0,5-0.263,5.083-1.715s-1.333-3.798-4.583,0s-1.41,9.465,4.587,6.465"/>
	
		<path display="none" fill="none" stroke="#F7941E" stroke-width="2" stroke-linecap="round" stroke-linejoin="round" stroke-miterlimit="10" d="
		M230.083,107.123c0,0,2-0.54-1.25-1.79s-4.917,1.655-2.417,3.411s5.417,5.006,2.25,5.339s-6.5-0.417-5.75-3"/>
</g>
</svg>
