<?xml version="1.0" encoding="utf-8"?>
<!-- Generator: Adobe Illustrator 16.0.0, SVG Export Plug-In . SVG Version: 6.00 Build 0)  -->
<!DOCTYPE svg PUBLIC "-//W3C//DTD SVG 1.1//EN" "http://www.w3.org/Graphics/SVG/1.1/DTD/svg11.dtd">
<svg version="1.1" id="Ebene_1" xmlns="http://www.w3.org/2000/svg" xmlns:xlink="http://www.w3.org/1999/xlink" x="0px" y="0px"
	 width="400px" height="300px" viewBox="0 0 400 300" enable-background="new 0 0 400 300" xml:space="preserve">
<g id="weiß">
	<path fill="#FFFFFF" d="M353.53,96.111c0,0-7.106,44.978-13.67,53.047c-6.457-0.151-16.737-1.921-16.737-1.921l-7.871,7.747
		c0,0-20.477-3.887-29.785-11.678c-5.258,2.856-25.454,11.678-25.454,11.678s-9.825-6.236-12.576-15.986
		c-5.681,0.022-14.712,0.036-14.712,0.036s-7.916,5.945-8.256,12.581c-10.809-0.685-16.839,1.706-38.737-25.052
		c-3.886,6.947-14.309,28.422-14.309,28.422s-12.148-5.776-30.787-3.816c-14.157,3.039-26.774,7.73-29.372,3.816
		c-1.788-16.724-9.449-59.784-12.79-64.454c11.951-4.885,41.191-16.841,41.191-16.841l7.76,24.474c0,0,4.83-11.077,4.466-16.818
		c5.378-0.613,45.164,6.771,45.164,6.771l-3.692,12.92l13.537-7.902l8.407,11.183c0,0,10.444-35.11,19.55-30.627
		c9.11,4.484,29.258,14.426,29.258,14.426s-6.15,5.127-6.562,8.614c3.896-0.205,8.993-0.537,8.993-0.537s2.344,15.449,7.137,19.991
		c8.891-0.383,23.45-1.299,23.45-1.299s4.922,10.556,12.305,11.581c3.937-6.915,13.605-30.62,11.929-36.125
		C329.026,91.064,353.53,96.111,353.53,96.111z"/>
	<polygon fill="#FFFFFF" points="271.802,192.106 274.641,181.183 307.495,202.088 276.274,223.177 274.698,210.422 
		197.257,211.196 145.507,214.249 145.25,231.274 111.567,209.083 142.813,182.608 145.159,196.366 	"/>
	<path fill="#FFFFFF" d="M327.527,204.07l8.833,5.255l7.235,12.202c0,0,21.34-32.773,24.896-33.651
		c-6.68,11.938-24.282,40.093-24.282,40.093L327.527,204.07z"/>
	<path fill="#FFFFFF" d="M10.886,217.17l0.527-4.413c0,0,13.964,10.973,17.559,18.518c3.88-6.086,40.674-51.351,40.674-51.351
		l-39.208,55.703l-2.911-2.159L10.886,217.17z"/>
</g>
<g id="schwarz">
	
		<polyline fill="none" stroke="#000000" stroke-width="2" stroke-linecap="round" stroke-linejoin="round" stroke-miterlimit="10" points="
		145.815,196.694 274.416,192.669 274.416,183.723 311.016,201.614 279.119,225.091 277.6,210.315 147.066,211.783 147.894,228.553 
		113.582,207.427 144.473,182.608 145.48,199.154 277.377,196.579 275.981,180.36 307.994,200.719 277.105,223.749 277.719,207.203 
		145.143,214.358 147.066,232.578 111.567,208.096 144.81,179.924 148.167,200.942 	"/>
	<path fill="none" stroke="#000000" stroke-width="2" stroke-linecap="round" stroke-linejoin="round" stroke-miterlimit="10" d="
		M139.664,73.689l-41.192,16.84c0,0,12.791,45.743,12.791,64.455c12.645,2.699,40.539-8.316,40.539-8.316
		S153.722,111.113,139.664,73.689z"/>
	<path fill="none" stroke="#000000" stroke-width="2" stroke-linecap="round" stroke-linejoin="round" stroke-miterlimit="10" d="
		M140.634,151.168c0,0,16.02-1.839,29.692,3.816c13.126-16.764,27.344-67.078,27.344-67.078s-40.15-6.562-45.778-6.562
		c-1.8,14.767-4.125,20.918-4.125,20.918"/>
	<path fill="none" stroke="#000000" stroke-width="2" stroke-linecap="round" stroke-linejoin="round" stroke-miterlimit="10" d="
		M185.075,125.548c0,0,18.61,30.243,39.394,26.067c2.184-7.107,15.311-22.145,22.968-23.238
		c-13.126-5.468-39.375-28.985-39.921-35.548c0,0-10.89,5.309-12.306,6.563"/>
	<path fill="none" stroke="#000000" stroke-width="2" stroke-linecap="round" stroke-linejoin="round" stroke-miterlimit="10" d="
		M216.254,104.838c0,0,7.119-31.696,18.602-31.149l30.28,14.906c0,0-13.874,4.234-13.874,50.172
		c-4.374,0.546-16.506,0.085-16.506,0.085"/>
	<path fill="none" stroke="#000000" stroke-width="2" stroke-linecap="round" stroke-linejoin="round" stroke-miterlimit="10" d="
		M247.437,138.998c0,0,3.827,13.441,12.576,15.986c6.017-3.091,26.266-10.268,27.358-13.55
		c-3.828-10.391-20.241-30.012-19.969-45.323c-9.021,0.851-9.021,0.851-9.021,0.851"/>
	<path fill="none" stroke="#000000" stroke-width="2" stroke-linecap="round" stroke-linejoin="round" stroke-miterlimit="10" d="
		M287.371,144.782c0,0,14.753,10.014,27.881,10.202c4.372-6.92,16.95-22.779,16.95-22.779s-31.159-2.921-36.095-17.868
		c-6.028,0.915-22.636,1.857-22.636,1.857"/>
	<path fill="none" stroke="#000000" stroke-width="2" stroke-linecap="round" stroke-linejoin="round" stroke-miterlimit="10" d="
		M310.874,125.548c0,0,12.03-27.25,10.391-36c18.426,3.556,32.266,6.563,32.266,6.563s-4.103,40.469-15.995,53.047
		c-8.615,0-14.412-1.921-14.412-1.921"/>
	<path fill="none" stroke="#000000" stroke-width="2" stroke-linecap="round" stroke-linejoin="round" stroke-miterlimit="10" d="
		M8.899,210.276l22.894,25.352c0,0,41.159-63.562,44.609-68.936c-9.094,3.751-48.059,68.936-48.059,68.936l-17.25-21.971
		l0.739-6.669c0,0,16.726,16.9,19.501,24.075"/>
	<path fill="none" stroke="#000000" stroke-width="2" stroke-linecap="round" stroke-linejoin="round" stroke-miterlimit="10" d="
		M329.291,205.865l16.549,23.452c0,0,39.849-63.149,43.562-62.475c-14.186,6.417-40.525,62.475-40.525,62.475l-23.066-31.239
		l13.058,7.767l8.556,15.018c0,0,33.076-54.529,41.979-56.308"/>
</g>
<g id="Sparcles">
	<g>
		<g>
			<path fill="#F5952F" d="M197.075,184.592c4.396,0,4.396-6.815,0-6.815C192.68,177.776,192.68,184.592,197.075,184.592
				L197.075,184.592z"/>
		</g>
	</g>
	<g>
		<g>
			<path fill="#F5952F" d="M5.208,228.891c4.395,0,4.395-6.815,0-6.815S0.812,228.891,5.208,228.891L5.208,228.891z"/>
		</g>
	</g>
	<g>
		<g>
			<path fill="#F5952F" d="M395.752,183.629c4.396,0,4.396-6.815,0-6.815C391.357,176.813,391.357,183.629,395.752,183.629
				L395.752,183.629z"/>
		</g>
	</g>
	<g>
		<g>
			<path fill="#F5952F" d="M295.61,229.174c4.396,0,4.396-6.815,0-6.815S291.215,229.174,295.61,229.174L295.61,229.174z"/>
		</g>
	</g>
	<g>
		<g>
			<path fill="#F5952F" d="M347.479,245.789c4.395,0,4.395-6.815,0-6.815S343.084,245.789,347.479,245.789L347.479,245.789z"/>
		</g>
	</g>
	<g>
		<g>
			<path fill="#F5952F" d="M354.01,232.726c4.395,0,4.395-6.814,0-6.814C349.614,225.912,349.614,232.726,354.01,232.726
				L354.01,232.726z"/>
		</g>
	</g>
	<g>
		<g>
			<path fill="#F5952F" d="M312.295,214.974c4.395,0,4.395-6.812,0-6.812C307.898,208.162,307.898,214.974,312.295,214.974
				L312.295,214.974z"/>
		</g>
	</g>
	<g>
		<g>
			<path fill="#F5952F" d="M240.238,201.026c4.395,0,4.395-6.813,0-6.813C235.842,194.212,235.842,201.026,240.238,201.026
				L240.238,201.026z"/>
		</g>
	</g>
	<g>
		<g>
			<path fill="#F5952F" d="M219.508,212.987c4.396,0,4.396-6.813,0-6.813C215.113,206.173,215.113,212.987,219.508,212.987
				L219.508,212.987z"/>
		</g>
	</g>
	<g>
		<g>
			<path fill="#F5952F" d="M368.492,206.456c4.395,0,4.395-6.814,0-6.814S364.098,206.456,368.492,206.456L368.492,206.456z"/>
		</g>
	</g>
	<g>
		<g>
			<path fill="#F5952F" d="M61.716,178.266c4.394,0,4.394-6.815,0-6.815C57.321,171.451,57.321,178.266,61.716,178.266
				L61.716,178.266z"/>
		</g>
	</g>
	<g>
		<g>
			<path fill="#F5952F" d="M79.158,239.345c4.395,0,4.395-6.813,0-6.813S74.762,239.345,79.158,239.345L79.158,239.345z"/>
		</g>
	</g>
	<g>
		<g>
			<path fill="#F5952F" d="M155.688,236.876c4.395,0,4.395-6.815,0-6.815S151.292,236.876,155.688,236.876L155.688,236.876z"/>
		</g>
	</g>
	<g>
		<g>
			<path fill="#F5952F" d="M153.313,219.261c4.394,0,4.394-6.813,0-6.813C148.918,212.448,148.918,219.261,153.313,219.261
				L153.313,219.261z"/>
		</g>
	</g>
	<g>
		<g>
			<path fill="#F5952F" d="M160.548,208.806c4.395,0,4.395-6.815,0-6.815S156.153,208.806,160.548,208.806L160.548,208.806z"/>
		</g>
	</g>
	<g>
		<g>
			<path fill="#F5952F" d="M168.963,201.026c4.395,0,4.395-6.813,0-6.813C164.568,194.212,164.568,201.026,168.963,201.026
				L168.963,201.026z"/>
		</g>
	</g>
</g>
</svg>
