<?xml version="1.0" encoding="utf-8"?>
<!-- Generator: Adobe Illustrator 16.0.0, SVG Export Plug-In . SVG Version: 6.00 Build 0)  -->
<!DOCTYPE svg PUBLIC "-//W3C//DTD SVG 1.1//EN" "http://www.w3.org/Graphics/SVG/1.1/DTD/svg11.dtd">
<svg version="1.1" id="Ebene_1" xmlns="http://www.w3.org/2000/svg" xmlns:xlink="http://www.w3.org/1999/xlink" x="0px" y="0px"
	 width="400px" height="300px" viewBox="0 0 400 300" enable-background="new 0 0 400 300" xml:space="preserve">
<g id="weiß">
	<path fill="#FFFFFF" d="M292.066,171.312c0,0-13.233-18.812-16.379-52.015c-3.75-31.303-0.812-73.464,1.812-80.964
		c-11.947,1.069-156.641,12.548-166.85,17.041c-0.115,2.658-0.233,5.322-0.233,5.322l-15.25,2.637c0,0-0.171,24.704,0.044,27.195
		c-4.569,1.091-9.711,3.138-9.711,3.138s-3.346,29.656,7,57.5c10.346,27.847,15.634,38.981,30.667,51
		c-4.149,1.858-7.431-0.776-7.431-0.776l-41.53,81.062c0,0,250.753-13.549,273.015-11.428c-3.982-9.322-23.035-45.879-23.035-45.879
		l24.521-5.962l4.05-1.068l-53.117-52.953L292.066,171.312z"/>
</g>
<g id="schwarz">
	<g id="orange">
		<path fill="none" stroke="#F5952F" stroke-width="2" stroke-linecap="round" stroke-linejoin="round" stroke-miterlimit="10" d="
			M182.284,96.544c0,0,0.771-5.72-5.687-5.601c-6.458,0.119-17.802,2.49-15.766,17.629c2.239,9.108,16.906,2.847,16.906,2.847
			c4.836-2.475,8.322-12.166,4.207-18.64c-4.113-6.475-15.256,2.383-17.484,5.698c-2.229,3.315-6.165,16.572,8.714,15.789
			c4.395-0.086,12.847-10.692,11.196-22.592c-2.867,10.165-8.702,20.183-2.637,21.92c6.066,1.739,24.287-12.177,17.601-22.241
			c-6.687-10.062-18.866-14.67-35.167-6.843c-16.301,7.827-15.179,23.168-11.127,30.564c4.051,7.394,18.667,13.432,31.465,5.75
			c1.152,0.302,1.064,1.524-1.087,2.609c-2.15,1.085-21.917,10.151-29.822-9.972c-7.226-18.393,11-31.791,22.612-31.08
			c11.611,0.709,25.362,4.941,23.542,23.229c-0.75,6.665-15.078,13.196-19.387,8.349c-2.824-3.177,5.019-21.973,5.019-21.973"/>
		
			<line fill="none" stroke="#F5952F" stroke-width="2" stroke-linecap="round" stroke-linejoin="round" stroke-miterlimit="10" x1="151.304" y1="168.447" x2="259.023" y2="152.929"/>
		
			<line fill="none" stroke="#F5952F" stroke-width="2" stroke-linecap="round" stroke-linejoin="round" stroke-miterlimit="10" x1="152.406" y1="180.492" x2="262.361" y2="161.998"/>
		
			<line fill="none" stroke="#F5952F" stroke-width="2" stroke-linecap="round" stroke-linejoin="round" stroke-miterlimit="10" x1="154.58" y1="190.586" x2="263.252" y2="171.725"/>
		
			<line fill="none" stroke="#F5952F" stroke-width="2" stroke-linecap="round" stroke-linejoin="round" stroke-miterlimit="10" x1="156.715" y1="200.216" x2="266.924" y2="181.7"/>
		
			<line fill="none" stroke="#F5952F" stroke-width="2" stroke-linecap="round" stroke-linejoin="round" stroke-miterlimit="10" x1="175.328" y1="206.209" x2="262.773" y2="193.927"/>
		
			<line fill="none" stroke="#F5952F" stroke-width="2" stroke-linecap="round" stroke-linejoin="round" stroke-miterlimit="10" x1="215.736" y1="210.881" x2="250.734" y2="205.633"/>
		
			<line fill="none" stroke="#F5952F" stroke-width="2" stroke-linecap="round" stroke-linejoin="round" stroke-miterlimit="10" x1="148" y1="158.004" x2="256" y2="143.113"/>
		
			<line fill="none" stroke="#F5952F" stroke-width="2" stroke-linecap="round" stroke-linejoin="round" stroke-miterlimit="10" x1="146" y1="144.135" x2="253.5" y2="131.697"/>
		
			<line fill="none" stroke="#F5952F" stroke-width="2" stroke-linecap="round" stroke-linejoin="round" stroke-miterlimit="10" x1="211.818" y1="86.971" x2="245.25" y2="83.765"/>
		
			<line fill="none" stroke="#F5952F" stroke-width="2" stroke-linecap="round" stroke-linejoin="round" stroke-miterlimit="10" x1="213.454" y1="95.88" x2="247.475" y2="93.09"/>
		
			<line fill="none" stroke="#F5952F" stroke-width="2" stroke-linecap="round" stroke-linejoin="round" stroke-miterlimit="10" x1="213.57" y1="104.744" x2="246.557" y2="101.588"/>
	</g>
	<path fill="none" stroke="#000000" stroke-width="2" stroke-linecap="round" stroke-linejoin="round" stroke-miterlimit="10" d="
		M298.746,164.248c0,0,52.492,53.744,54.01,53.866c1.516,0.122-232.621,55.664-232.621,55.664l0.46-71.296l121.596,10.732
		l54.254-46.515l54.486,53.575L122.124,276.51l0.198-71.415l115.805,10.473l62.859-51.512"/>
	
		<polyline fill="none" stroke="#000000" stroke-width="2" stroke-linecap="round" stroke-linejoin="round" stroke-miterlimit="10" points="
		326.26,228.146 347.07,269.28 74.206,282.451 115.735,201.39 80.31,278.921 347.221,271.023 324.111,226.867 	"/>
	<path fill="none" stroke="#000000" stroke-width="2" stroke-linecap="round" stroke-linejoin="round" stroke-miterlimit="10" d="
		M128.566,202.442c0,0-22.421-55.853-17.916-147.068c25.361-5.271,166.515-16.797,166.515-16.797s-14.961,94.271,14.901,132.735"/>
	<path fill="none" stroke="#000000" stroke-width="2" stroke-linecap="round" stroke-linejoin="round" stroke-miterlimit="10" d="
		M125.328,202.696c0,0-35.441-80.25-30.272-140.218c9.964-0.788,15.361-1.782,15.361-1.782"/>
	<path fill="none" stroke="#000000" stroke-width="2" stroke-linecap="round" stroke-linejoin="round" stroke-miterlimit="10" d="
		M122.959,201.484c0,0-41.709-33.562-37.549-108.781l9.801-2.174"/>
</g>
<g id="Sparcles">
	<g>
		<g>
			<path fill="#F5952F" d="M131.429,203.056c3.869,0,3.869-6,0-6C127.56,197.056,127.56,203.056,131.429,203.056L131.429,203.056z"
				/>
		</g>
	</g>
	<g>
		<g>
			<path fill="#F5952F" d="M275.977,194.525c3.869,0,3.869-6,0-6S272.105,194.525,275.977,194.525L275.977,194.525z"/>
		</g>
	</g>
	<g>
		<g>
			<path fill="#F5952F" d="M165.2,198.929c3.869,0,3.869-6,0-6C161.331,192.929,161.331,198.929,165.2,198.929L165.2,198.929z"/>
		</g>
	</g>
	<g>
		<g>
			<path fill="#F5952F" d="M240.059,166.571c3.869,0,3.869-6,0-6S236.188,166.571,240.059,166.571L240.059,166.571z"/>
		</g>
	</g>
	<g>
		<g>
			<path fill="#F5952F" d="M104.797,181.986c3.869,0,3.869-6,0-6C100.928,175.986,100.928,181.986,104.797,181.986L104.797,181.986z
				"/>
		</g>
	</g>
	<g>
		<g>
			<path fill="#F5952F" d="M277.412,87.518c3.869,0,3.869-6,0-6S273.543,87.518,277.412,87.518L277.412,87.518z"/>
		</g>
	</g>
	<g>
		<g>
			<path fill="#F5952F" d="M81.284,108.622c3.869,0,3.869-6,0-6C77.415,102.622,77.415,108.622,81.284,108.622L81.284,108.622z"/>
		</g>
	</g>
	<g>
		<g>
			<path fill="#F5952F" d="M101.141,160.901c3.869,0,3.869-6,0-6C97.272,154.901,97.272,160.901,101.141,160.901L101.141,160.901z"
				/>
		</g>
	</g>
	<g>
		<g>
			<path fill="#F5952F" d="M280.639,161.197c3.868,0,3.868-6,0-6C276.77,155.197,276.77,161.197,280.639,161.197L280.639,161.197z"
				/>
		</g>
	</g>
	<g>
		<g>
			<path fill="#F5952F" d="M277.242,145.924c3.869,0,3.869-6,0-6S273.373,145.924,277.242,145.924L277.242,145.924z"/>
		</g>
	</g>
	<g>
		<g>
			<path fill="#F5952F" d="M280.824,127.624c3.869,0,3.869-6,0-6S276.955,127.624,280.824,127.624L280.824,127.624z"/>
		</g>
	</g>
	<g>
		<g>
			<path fill="#F5952F" d="M288.053,110.449c3.869,0,3.869-6,0-6S284.184,110.449,288.053,110.449L288.053,110.449z"/>
		</g>
	</g>
</g>
</svg>
