<?xml version="1.0" encoding="utf-8"?>
<!-- Generator: Adobe Illustrator 16.0.0, SVG Export Plug-In . SVG Version: 6.00 Build 0)  -->
<!DOCTYPE svg PUBLIC "-//W3C//DTD SVG 1.1//EN" "http://www.w3.org/Graphics/SVG/1.1/DTD/svg11.dtd">
<svg version="1.1" xmlns="http://www.w3.org/2000/svg" xmlns:xlink="http://www.w3.org/1999/xlink" x="0px" y="0px" width="400px"
	 height="300px" viewBox="0 0 400 300" enable-background="new 0 0 400 300" xml:space="preserve">
<g id="weiß">
	<path fill="#FFFFFF" d="M293,98.5l55-2.25l29.5,31c0,0-3,79.5-3.75,81s-80-2-80-2l-1.5-26l-22.75-0.5l1-35l21.5,0.75L293,98.5z"/>
	<polygon fill="#FFFFFF" points="192,148.25 193,154.5 180.75,169 192.25,183.75 191.75,191.5 173,168.5 	"/>
	<polygon fill="#FFFFFF" points="209,145.25 198.25,192 203,192.25 212.75,144.25 	"/>
	<polygon fill="#FFFFFF" points="216.75,147.25 216.75,153.25 227.25,169.5 216.5,181.75 216.75,191.75 236.25,168.25 	"/>
	<polygon fill="#FFFFFF" points="192,148.25 173,168.5 191.75,191.5 192.25,183.75 180.75,169 193,154.5 	"/>
	<polygon fill="#FFFFFF" points="162.25,99 162.5,131 243.5,130.25 241.5,99.5 	"/>
	<polygon fill="#FFFFFF" points="34.25,97 32.75,144.25 9.5,145.5 10,168.5 10.5,182 34.5,182.25 35,207.75 118,208 118.75,122.25 
		86.75,94.75 	"/>
</g>
<g id="schwarz">
	<path fill="none" stroke="#000000" stroke-width="2" stroke-linecap="round" stroke-linejoin="round" stroke-miterlimit="10" d="
		M39.75,150c0,0-13-5.75-16.75,7.5s-1.5,21.5,16.25,18.25C22,176.5,19,168.75,20,157c0.75-5.75,9.5-11.5,19.5-4.5"/>
	<path fill="none" stroke="#000000" stroke-width="2" stroke-linecap="round" stroke-linejoin="round" stroke-miterlimit="10" d="
		M62,150.25c0,0-14.75-4-15.5,5.75s15,3.75,15.5,13s-13.75,9-15.75,5.75c5.75,0.5,20,1.75,17.75-7s-10.75-6.25-13-8.25
		s-4.25-3.75-1.75-6.75s12.5-0.25,12.5-0.25"/>
	
		<polyline fill="none" stroke="#000000" stroke-width="2" stroke-linecap="round" stroke-linejoin="round" stroke-miterlimit="10" points="
		69.25,149 81,176.5 92,150 78.5,175.75 67.75,148.75 	"/>
	
		<polyline fill="none" stroke="#000000" stroke-width="2" stroke-linecap="round" stroke-linejoin="round" stroke-miterlimit="10" points="
		9.75,144.75 10.5,182.5 96,180.75 97,146 12,144.25 8.5,181.75 98.25,180.5 95.75,142.75 8.5,145 	"/>
	<path fill="none" stroke="#000000" stroke-width="2" stroke-linecap="round" stroke-linejoin="round" stroke-miterlimit="10" d="
		M35,182.75C33.75,182.5,36,208,36,208l80.75-1.75c0,0,1.75-80.5,1.25-82s-33.25-28.5-33.25-28.5L33.25,101l-0.75,42.75l1.75-46.5
		L87.5,94.5c0,0,31.75,27.5,32,28.5s-1,85.5-1,85.5l-84.25-0.25L35,182.75z"/>
	<path fill="none" stroke="#000000" stroke-width="2" stroke-linecap="round" stroke-linejoin="round" stroke-miterlimit="10" d="
		M118,124.25c0,0-26.5,3.25-28,6c-2.5-10.25-5.25-34.5-5.25-34.5s2.5,33.75,4,36.5c3.25-3,25.25-9,30.75-9.25"/>
	
		<polyline fill="none" stroke="#000000" stroke-width="2" stroke-linecap="round" stroke-linejoin="round" stroke-miterlimit="10" points="
		182,105.25 192.5,124.5 183.75,104.5 	"/>
	
		<polyline fill="none" stroke="#000000" stroke-width="2" stroke-linecap="round" stroke-linejoin="round" stroke-miterlimit="10" points="
		192.25,104.5 180.5,125.25 194.5,104.25 	"/>
	
		<polyline fill="none" stroke="#000000" stroke-width="2" stroke-linecap="round" stroke-linejoin="round" stroke-miterlimit="10" points="
		198.25,124.5 198.25,106 205.25,124.25 211.25,104 211.5,124 211.75,105 204,124 197.5,103.25 197.5,124.75 	"/>
	
		<polyline fill="none" stroke="#000000" stroke-width="2" stroke-linecap="round" stroke-linejoin="round" stroke-miterlimit="10" points="
		219.75,105.5 219.5,124.5 230,124.25 221.5,122.75 220.25,103.5 	"/>
	<path fill="none" stroke="#000000" stroke-width="2" stroke-linecap="round" stroke-linejoin="round" stroke-miterlimit="10" d="
		M164.25,98.5c0,0,0,30.75,0.5,31.75s77.75-0.5,77.75-0.5L241.75,99L162,98.75l0.5,32.25l81.75-0.5l-0.5-29.25H165"/>
	
		<polygon fill="none" stroke="#000000" stroke-width="2" stroke-linecap="round" stroke-linejoin="round" stroke-miterlimit="10" points="
		192,147.25 173.5,168.5 192.5,190.5 192.75,184.25 180.5,169.25 192.5,155.5 193,147.75 172.25,168.25 192.5,192.25 191,183.75 
		178.5,169.5 194,153.25 	"/>
	
		<polyline fill="none" stroke="#000000" stroke-width="2" stroke-linecap="round" stroke-linejoin="round" stroke-miterlimit="10" points="
		210,144 199.75,191.75 203,191.5 213.5,144.5 207.75,144.75 197.5,193 203.5,193 212.75,143.5 	"/>
	
		<polyline fill="none" stroke="#000000" stroke-width="2" stroke-linecap="round" stroke-linejoin="round" stroke-miterlimit="10" points="
		216.5,146 237,168.5 216.75,192.25 217.75,184.75 230,170.5 217.25,153.75 216.5,147.5 235,168.5 215.75,190.75 216.5,182.25 
		227.5,169.5 216.25,154 216.5,146 	"/>
	<path fill="none" stroke="#000000" stroke-width="2" stroke-linecap="round" stroke-linejoin="round" stroke-miterlimit="10" d="
		M278.25,153l8.5,1c0,0-1,22-11.5,16.75c5,2.75,10.25,1.5,10.25-4.75c0-4.25-1.25-13.75-1.25-13.75l-8,0.75"/>
	<path fill="none" stroke="#000000" stroke-width="2" stroke-linecap="round" stroke-linejoin="round" stroke-miterlimit="10" d="
		M306.25,154c0,0-11-3.5-13.75,1.75s1.25,7,4.75,7.25s10.75,2.75,7.25,6.5s-13.5-0.25-13.5-0.25s11.25,6.75,15.25-2.25
		c0.25-3.5-1.5-5-7.75-6.25c-2,0.25-10.75-0.75-2.5-6c5.25-3.25,11,1.75,11,1.75"/>
	<path fill="none" stroke="#000000" stroke-width="2" stroke-linecap="round" stroke-linejoin="round" stroke-miterlimit="10" d="
		M321.25,152.75c0,0-11-1.5-11.5,7.75s10.75,13.75,15.25,10.75s8.25-15.25-1.5-18.75s-12.5,4-12.25,7.75s1.847,16.657,12.5,9
		C331.75,163.5,326.75,154.75,321.25,152.75z"/>
	
		<polyline fill="none" stroke="#000000" stroke-width="2" stroke-linecap="round" stroke-linejoin="round" stroke-miterlimit="10" points="
		334.75,171 335,150 349.75,170.25 349.75,150.5 348.5,171.75 333.5,151 334.25,172.75 	"/>
	<path fill="none" stroke="#000000" stroke-width="2" stroke-linecap="round" stroke-linejoin="round" stroke-miterlimit="10" d="
		M271.25,144c0,0-2,35-1.25,36s85.75-0.25,85.75-0.25l-0.75-34h-85.75l2,32.25l83.25-0.5l-0.25-33.75H269.5"/>
	<path fill="none" stroke="#000000" stroke-width="2" stroke-linecap="round" stroke-linejoin="round" stroke-miterlimit="10" d="
		M291.75,143.75c0,0,4-45,4.75-45.25s51.25-1.75,51.25-1.75s26.5,28.25,28.75,30c0.5,9.5-2.25,81.5-2.25,81.5s-79-1.75-80-1.5
		s-2-25.75-2-25.75L292,206l84,1.5l2.25-80.5c0,0-29.5-30-29.5-31.25c-8.25,0-56,2.75-56,2.75L291.75,143.75"/>
	<path fill="none" stroke="#000000" stroke-width="2" stroke-linecap="round" stroke-linejoin="round" stroke-miterlimit="10" d="
		M376.25,127.5c0,0-18.25-2.75-29,1c-3.75-9.5,0.5-31.75,0.5-31.75s-3.75,29.5-3.5,30.75C349,126.5,369,123.5,376.25,127.5z"/>
</g>
<g id="Sparcles">
	<g>
		<g>
			<path fill="#F5952F" d="M201.33,154.884c3.869,0,3.869-6,0-6S197.461,154.884,201.33,154.884L201.33,154.884z"/>
		</g>
	</g>
	<g>
		<g>
			<path fill="#F5952F" d="M32.411,193.885c3.869,0,3.869-6,0-6S28.542,193.885,32.411,193.885L32.411,193.885z"/>
		</g>
	</g>
	<g>
		<g>
			<path fill="#F5952F" d="M376.244,154.036c3.869,0,3.869-6,0-6S372.375,154.036,376.244,154.036L376.244,154.036z"/>
		</g>
	</g>
	<g>
		<g>
			<path fill="#F5952F" d="M288.08,194.134c3.869,0,3.869-6,0-6S284.211,194.134,288.08,194.134L288.08,194.134z"/>
		</g>
	</g>
	<g>
		<g>
			<path fill="#F5952F" d="M358.25,210c3.869,0,3.869-6,0-6S354.381,210,358.25,210L358.25,210z"/>
		</g>
	</g>
	<g>
		<g>
			<path fill="#F5952F" d="M364,198.5c3.869,0,3.869-6,0-6S360.131,198.5,364,198.5L364,198.5z"/>
		</g>
	</g>
	<g>
		<g>
			<path fill="#F5952F" d="M302.768,181.634c3.869,0,3.869-6,0-6S298.898,181.634,302.768,181.634L302.768,181.634z"/>
		</g>
	</g>
	<g>
		<g>
			<path fill="#F5952F" d="M239.33,169.353c3.869,0,3.869-6,0-6S235.461,169.353,239.33,169.353L239.33,169.353z"/>
		</g>
	</g>
	<g>
		<g>
			<path fill="#F5952F" d="M221.08,179.884c3.869,0,3.869-6,0-6S217.211,179.884,221.08,179.884L221.08,179.884z"/>
		</g>
	</g>
	<g>
		<g>
			<path fill="#F5952F" d="M352.244,174.134c3.869,0,3.869-6,0-6S348.375,174.134,352.244,174.134L352.244,174.134z"/>
		</g>
	</g>
	<g>
		<g>
			<path fill="#F5952F" d="M82.161,149.315c3.869,0,3.869-6,0-6S78.292,149.315,82.161,149.315L82.161,149.315z"/>
		</g>
	</g>
	<g>
		<g>
			<path fill="#F5952F" d="M97.517,203.09c3.869,0,3.869-6,0-6S93.647,203.09,97.517,203.09L97.517,203.09z"/>
		</g>
	</g>
</g>
</svg>
