<?xml version="1.0" encoding="utf-8"?>
<!-- Generator: Adobe Illustrator 16.0.0, SVG Export Plug-In . SVG Version: 6.00 Build 0)  -->
<!DOCTYPE svg PUBLIC "-//W3C//DTD SVG 1.1//EN" "http://www.w3.org/Graphics/SVG/1.1/DTD/svg11.dtd">
<svg version="1.1" xmlns="http://www.w3.org/2000/svg" xmlns:xlink="http://www.w3.org/1999/xlink" x="0px" y="0px" width="256px"
	 height="256px" viewBox="0 0 256 256" enable-background="new 0 0 256 256" xml:space="preserve">
<g id="Hut">
	<g>
		<path fill="#353535" d="M63.176,125.97c0,0-20.37,45.902-25.397,64.97c-3.319,12.585-3.882,48.939-3.031,51.038
			c0.851,2.099,53.077,11.335,84.235-2.299c0,0,0.009-6.615,0.009-8.888s-2.383-4.72-5.448-6.117
			c2.076,1.179,4.424-0.976,4.171-2.499c-0.413-2.466,0.257-7.115-2.468-7.464c-2.725-0.35,0-1.574,0.851-2.098
			c0.852-0.526-1.191-5.593-2.042-6.643c-0.852-1.048-0.511-3.671-1.022-6.116c-0.511-2.448-1.192-6.819-4.257-12.792
			c-2.049-3.996-0.17-21.99,5.79-33.178c-1.192,0-4.432-0.55-27.928-11.386C75.912,137.78,63.176,125.97,63.176,125.97z"/>
		<path fill="#1C1C1C" d="M75.413,248.484c-12.678,0-23.264-1.285-28.445-2.052c-12.8-1.894-13.347-3.242-13.61-3.891
			c-1.186-2.923-0.165-40.094,2.971-51.984c5-18.966,24.643-63.317,25.477-65.196c0.196-0.443,0.595-0.763,1.069-0.861
			c0.476-0.097,0.967,0.041,1.322,0.369c0.125,0.117,12.68,11.695,23.046,16.257c16.208,7.475,25.392,11.259,27.324,11.259
			c0.527,0,1.015,0.276,1.286,0.728c0.271,0.452,0.286,1.013,0.038,1.478c-5.811,10.908-7.488,28.455-5.779,31.788
			c2.87,5.592,3.729,9.875,4.241,12.435l0.149,0.735c0.225,1.078,0.298,2.156,0.363,3.107c0.056,0.83,0.142,2.086,0.355,2.37
			c0.883,1.089,2.861,5.602,2.541,7.495c-0.117,0.691-0.48,1.083-0.75,1.284c1.792,1.25,1.93,4.126,2.027,6.161
			c0.036,0.739,0.069,1.438,0.157,1.962c0.16,0.965-0.18,2.027-0.934,2.917c-0.202,0.238-0.425,0.454-0.664,0.646
			c1.82,1.589,2.896,3.492,2.896,5.301c0,2.273-0.009,8.89-0.009,8.89c-0.001,0.596-0.354,1.134-0.898,1.372
			C105.549,247.195,87.816,248.484,75.413,248.484z M36.09,241.085c2.922,1.238,19.582,4.399,39.322,4.399
			c16.898,0,31.414-2.348,42.071-6.795c0.002-1.933,0.008-6.17,0.008-7.897c0-1.444-1.761-3.361-4.194-4.573
			c-0.166-0.067-0.331-0.146-0.495-0.239c-0.698-0.396-0.96-1.271-0.595-1.986c0.365-0.717,1.229-1.017,1.958-0.684
			c0.11,0.051,0.219,0.102,0.328,0.154c0.102,0.033,0.204,0.05,0.311,0.05h0c0.359,0,0.761-0.189,1.075-0.508
			c0.267-0.271,0.354-0.523,0.354-0.598c-0.115-0.684-0.152-1.468-0.192-2.298c-0.073-1.517-0.183-3.808-0.985-3.91
			c-0.541-0.069-2.184-0.28-2.459-1.703c-0.272-1.409,1.09-2.243,2.175-2.854c-0.204-1.237-1.336-4.055-1.881-4.727
			c-0.811-0.998-0.907-2.416-1.019-4.058c-0.061-0.896-0.124-1.822-0.307-2.697l-0.154-0.759c-0.514-2.562-1.29-6.434-3.969-11.655
			c-2.209-4.307-0.569-21.119,4.887-32.74c-2.82-0.804-9.333-3.312-26.319-11.146c-8.713-3.834-18.538-12.082-22.295-15.392
			c-3.876,8.843-20.123,46.307-24.485,62.853C36.155,202.979,35.465,236.298,36.09,241.085z"/>
	</g>
	<g>
		<path fill="#F7941E" d="M123.602,139.99c0,0-0.175,6.902-3.234,6.729c-1.048,1.226,0.437,4.72-2.36,4.72s5.157,4.807-11.448,1.572
			c-25.837-7.099-39.267-21.382-45.27-27.965c0,0-2.273-4.721,1.748-5.244c4.021-0.524,0.524-2.796,0.524-2.796
			s-1.922-3.67,4.545-5.418c-1.224-1.223-4.283-5.365-0.612-6.413c3.669-1.048,5.592-1.978,4.981-3.113c0,0-0.941-4.323,2.182-4.25
			c6.794,5.315,45.227,32.064,54.437,38.425c0,0-2.122,0.326-3.133,2.442c0,0,0.087,1.311-1.137,1.311"/>
	</g>
	<g>
		<path fill="#353535" d="M175.845,148.748c-11.035-11.376-51.351-49.812-116.03-88.844c-21.492-12.731-34.88-21.088-31.828-11.563
			c0.827,2.585,2.175,5.255,3.688,7.764C36.502,66.189,44.746,75.846,61.1,89.669c56.932,48.122,87.902,61.993,87.902,61.993
			c5.185,2.498,9.697,4.231,13.562,5.453C179.759,164.254,186.551,159.778,175.845,148.748z"/>
		<path fill="#1C1C1C" d="M175.97,162.07c-0.001,0-0.001,0-0.002,0c-3.508-0.001-8.32-1.227-13.918-3.545
			c-4.379-1.388-8.987-3.242-13.699-5.512c-0.273-0.122-31.778-14.492-88.219-62.199C44.054,77.226,35.42,67.369,30.353,56.817
			c-1.743-2.897-3.02-5.595-3.795-8.02c-0.446-1.391-0.919-3.404,0.115-4.82c0.415-0.568,1.235-1.246,2.788-1.246
			c4.353,0,13.725,5.562,27.911,13.979l3.208,1.902c68.689,41.453,108.966,81.486,116.343,89.09
			c4.634,4.774,6.39,8.602,5.217,11.374C181.561,160.443,180.021,162.07,175.97,162.07z M29.058,45.785
			c0.018,0.016-0.15,0.515,0.357,2.099c0.71,2.22,1.903,4.725,3.544,7.446l0.069,0.127c4.865,10.164,13.279,19.744,29.04,33.067
			c56.121,47.436,87.24,61.631,87.547,61.769c4.644,2.237,9.14,4.045,13.401,5.392l0.123,0.045
			c6.648,2.761,10.646,3.34,12.829,3.341c0,0,0,0,0.001,0c1.853,0,3.094-0.424,3.405-1.161c0.458-1.083-0.474-3.858-4.606-8.116
			c-7.332-7.559-47.367-47.349-115.729-88.604l-3.199-1.897c-12.262-7.276-22.851-13.56-26.38-13.56
			C29.196,45.732,29.083,45.773,29.058,45.785z"/>
	</g>
	<g>
		<path fill="#D8D8D8" d="M117.25,210.168c0,0-27.842,15.719-72.721,1.775c1.018-17.161,0.25-18.221,4.25-30.707
			s14.81-40.056,17.427-43.909c5.25,4,35.865,20.156,49.202,19.156c-4.76,16.964-6.419,26.624-3.69,32.874
			S117.25,210.168,117.25,210.168z"/>
		<path fill="#B2B2B2" d="M80.758,219.211c-11.872,0-24.211-1.963-36.674-5.835c-0.659-0.205-1.093-0.833-1.053-1.521
			c0.197-3.32,0.327-6.036,0.438-8.349c0.458-9.581,0.597-12.473,3.881-22.728c4.031-12.582,14.88-40.268,17.615-44.294
			c0.231-0.341,0.593-0.571,1-0.638c0.405-0.065,0.822,0.038,1.15,0.287c4.938,3.763,35.381,19.827,48.181,18.854
			c0.494-0.039,0.963,0.167,1.273,0.546c0.31,0.379,0.416,0.885,0.284,1.355c-4.379,15.606-6.399,25.824-3.76,31.868
			c2.764,6.33,5.515,20.526,5.631,21.128c0.122,0.633-0.174,1.272-0.736,1.59C117.428,211.79,104.012,219.211,80.758,219.211z
			 M46.095,210.854c11.792,3.556,23.449,5.357,34.663,5.357c19.044,0,31.394-5.225,34.799-6.864
			c-0.709-3.491-3.013-14.347-5.214-19.389c-2.894-6.628-1.198-16.423,3.082-31.943c-13.489-0.479-39.136-13.597-46.727-18.524
			c-3.347,6.521-12.622,30.128-16.49,42.204c-3.165,9.877-3.287,12.436-3.742,21.955C46.368,205.691,46.255,208.048,46.095,210.854z
			"/>
	</g>
	<g>
		<path fill="#353535" d="M67.44,147.731c0,0-4.129,10.549-5.349,15.126c22.459,13.5,49.662,9.185,49.662,9.185
			s0.565-6.728,2.209-10.814C100.889,162.411,87.816,159.607,67.44,147.731z"/>
		<path fill="#1C1C1C" d="M101.236,174.198c-10.579,0-26.091-1.744-39.918-10.056c-0.573-0.344-0.849-1.025-0.676-1.672
			c1.227-4.605,5.231-14.853,5.401-15.286c0.16-0.408,0.49-0.726,0.904-0.87c0.414-0.144,0.87-0.099,1.249,0.121
			c16.285,9.491,28.365,13.541,40.394,13.541c1.696,0,3.459-0.082,5.238-0.243c0.52-0.048,1.027,0.181,1.339,0.6
			c0.312,0.419,0.383,0.97,0.188,1.454c-1.542,3.833-2.101,10.315-2.106,10.381c-0.058,0.688-0.578,1.247-1.26,1.355
			C111.815,173.551,107.661,174.198,101.236,174.198z M63.852,162.152c12.987,7.458,27.438,9.046,37.384,9.046
			c4.261,0,7.522-0.301,9.145-0.489c0.195-1.715,0.636-4.951,1.447-7.822c-1.096,0.06-2.179,0.09-3.239,0.09
			c-12.212,0-24.365-3.922-40.381-13.07C67.128,152.726,64.934,158.557,63.852,162.152z"/>
	</g>
	<g>
		<path fill="#353535" d="M111.753,180.022c0,0-27.452,2.087-51.687-9.165c-0.255,1.832-2.804,11.441-3.069,14.136
			c0,0,39.316,13.027,54.72,4.364C111.717,189.357,111.753,187.357,111.753,180.022z"/>
		<path fill="#1C1C1C" d="M96.705,193.83c-0.001,0-0.002,0-0.003,0c-17.601-0.001-39.263-7.11-40.176-7.413
			c-0.666-0.221-1.09-0.873-1.021-1.57c0.167-1.692,1.113-5.67,1.949-9.179c0.531-2.23,1.033-4.338,1.127-5.018
			c0.066-0.471,0.351-0.883,0.768-1.11c0.417-0.227,0.918-0.244,1.35-0.043c17.201,7.985,35.974,9.178,45.633,9.178
			c3.304,0,5.289-0.146,5.309-0.148c0.419-0.037,0.827,0.111,1.133,0.396c0.306,0.283,0.48,0.683,0.48,1.1
			c0,7.265-0.035,9.28-0.036,9.362c-0.01,0.532-0.301,1.02-0.765,1.28C108.718,192.766,103.419,193.83,96.705,193.83z
			 M58.671,183.95c4.826,1.496,23.224,6.879,38.031,6.88c0.001,0,0.002,0,0.002,0c5.735,0,10.277-0.802,13.523-2.385
			c0.009-1.043,0.022-3.125,0.025-6.842c-0.94,0.037-2.267,0.071-3.921,0.071c-9.586,0-27.935-1.15-45.169-8.679
			c-0.198,0.875-0.463,1.994-0.79,3.366C59.755,178.952,59.019,182.048,58.671,183.95z"/>
	</g>
	<g>
		<path fill="#353535" d="M113.187,196.349c0,0-20.525,8.507-58.246-4.428l-2.785,14.437c0,0,31.913,13.373,64.133,0.307
			C115.547,202.837,113.187,196.349,113.187,196.349z"/>
		<path fill="#1C1C1C" d="M85.787,213.893c-0.002,0-0.002,0-0.004,0c-19.3-0.001-33.605-5.9-34.205-6.151
			c-0.655-0.274-1.028-0.971-0.893-1.668l2.785-14.437c0.082-0.427,0.345-0.796,0.721-1.014s0.828-0.264,1.238-0.121
			c13.724,4.706,26.675,7.092,38.494,7.092c0.001,0,0.001,0,0.003,0c12.197,0,18.625-2.604,18.688-2.631
			c0.379-0.157,0.802-0.153,1.179,0.013c0.375,0.165,0.665,0.476,0.805,0.86c0.098,0.27,2.409,6.644,3.166,10.542
			c0.137,0.704-0.244,1.406-0.909,1.676C107.3,211.929,96.847,213.893,85.787,213.893z M53.868,205.407
			c3.726,1.366,16.263,5.485,31.915,5.485c0.001,0,0.003,0,0.004,0c10.219,0,19.89-1.733,28.764-5.153
			c-0.61-2.52-1.666-5.696-2.283-7.486c-2.663,0.826-8.841,2.341-18.343,2.341c-0.001,0-0.003,0-0.003,0
			c-11.679,0.001-24.398-2.254-37.833-6.703L53.868,205.407z"/>
	</g>
	<g>
		<path fill="#212121" d="M134.625,127.125c0.423-0.508-0.923-5.389-14.423-16.264s-33.25-24.125-35.875-20.625
			S131.673,129.438,134.625,127.125z"/>
		<path fill="#232323" d="M134.213,128.732c0,0-0.001,0-0.002,0c-6.12-0.003-47.682-29.916-51.115-36.788
			c-0.636-1.273-0.334-2.121,0.031-2.608c0.401-0.535,1.193-1.173,2.686-1.173c6.806,0,26.086,14.083,35.33,21.53
			c13.467,10.848,14.911,15.68,15.032,16.903c0.06,0.6-0.074,1.101-0.397,1.489l-0.228,0.221
			C135.188,128.589,134.738,128.732,134.213,128.732z M86.087,91.175c3.997,5.857,37.14,30.077,46.303,34.016
			c-1.287-2.113-4.612-6.301-13.128-13.161C106.764,101.962,91.127,91.556,86.087,91.175z"/>
	</g>
</g>
<g id="Ebene_4_Kopie_Kopie_Kopie_Kopie_Kopie_Kopie_Kopie_Kopie_Kopie_Kopie_Kopie_Kopie">
	<g>
		<path fill="#95CC71" d="M93.617,178.857v3.265c0,0,13.716,2.212,18.136-0.788l0-3.101
			C111.753,178.233,105.5,180.107,93.617,178.857"/>
		<path fill="#58A328" d="M103.359,184.407c-4.935,0-9.777-0.771-9.981-0.805c-0.727-0.117-1.261-0.744-1.261-1.48v-3.265
			c0-0.425,0.18-0.83,0.497-1.115c0.316-0.284,0.742-0.416,1.16-0.377c2.66,0.28,5.248,0.422,7.693,0.422
			c6.417,0,9.826-0.981,9.86-0.991c0.453-0.135,0.946-0.047,1.324,0.237c0.378,0.283,0.603,0.728,0.603,1.2l0,3.101
			c0,0.497-0.247,0.962-0.658,1.241C110.779,183.809,107.757,184.407,103.359,184.407z M95.117,180.819
			c1.734,0.227,5.007,0.588,8.242,0.588c3.829,0,5.851-0.506,6.894-0.961v-0.349c-1.759,0.315-4.705,0.689-8.787,0.689
			c-2.037,0-4.166-0.094-6.35-0.28V180.819z"/>
	</g>
	<g>
		<path fill="#95CC71" d="M112.935,195.176c0,0-9.844,3.448-19.318,3.282v3.149c0,0,12.491,0.218,20.16-3.581L112.935,195.176z"/>
		<path fill="#58A328" d="M93.995,203.109C93.995,203.109,93.995,203.109,93.995,203.109l-0.404-0.002
			c-0.818-0.015-1.474-0.682-1.474-1.5v-3.149c0-0.402,0.162-0.788,0.449-1.07c0.287-0.281,0.676-0.423,1.078-0.43
			c0.214,0.004,0.426,0.006,0.641,0.006h0.001c8.887,0,18.063-3.172,18.154-3.204c0.388-0.135,0.815-0.106,1.18,0.081
			c0.365,0.188,0.638,0.517,0.754,0.91l0.841,2.851c0.207,0.699-0.12,1.445-0.772,1.769
			C107.258,202.93,96.149,203.109,93.995,203.109z M95.117,199.955v0.142c3.233-0.07,11.124-0.496,16.853-2.895l-0.038-0.127
			C108.984,197.976,102.142,199.816,95.117,199.955z"/>
	</g>
	<g>
		<path fill="#95CC71" d="M113.963,161.228c0.074,0.822-0.546,2.87-0.546,2.87s-4.441,0.285-16.5-1.93
			c0.123-0.939,0.583-3.181,0.583-3.181S111.21,161.583,113.963,161.228z"/>
		<path fill="#58A328" d="M112.831,165.609c-1.647,0-6.522-0.191-16.185-1.966c-0.785-0.145-1.32-0.878-1.216-1.67
			c0.128-0.982,0.583-3.194,0.602-3.288c0.165-0.803,0.943-1.322,1.748-1.172c0.119,0.022,11.914,2.247,15.526,2.247
			c0.184,0,0.341-0.005,0.466-0.021c0.405-0.057,0.812,0.062,1.131,0.317s0.519,0.63,0.555,1.036
			c0.09,1.004-0.393,2.739-0.605,3.438c-0.181,0.597-0.718,1.02-1.34,1.062C113.512,165.595,113.295,165.609,112.831,165.609z
			 M98.643,160.954c4.892,0.861,8.378,1.28,10.734,1.48c-3.672-0.456-8.348-1.276-10.692-1.703
			C98.67,160.806,98.657,160.88,98.643,160.954z"/>
	</g>
	<g>
		<path fill="#95CC71" d="M90.542,223.709c0,0-8.904,4.25-2.902,10.75c4.753,4.5,9.706,1.5,10.956-3.25
			C99.596,229.209,96.691,222.459,90.542,223.709z"/>
		<path fill="#58A328" d="M92.482,238.175L92.482,238.175c-2.028,0-4.059-0.908-5.874-2.627c-0.024-0.022-0.048-0.047-0.071-0.071
			c-2-2.165-2.795-4.396-2.366-6.631c0.786-4.091,5.523-6.395,5.724-6.49c0.11-0.053,0.227-0.092,0.347-0.116
			c3.527-0.719,6.823,0.772,8.749,3.888c1.017,1.646,1.705,3.981,1.02,5.592C98.944,235.586,95.932,238.175,92.482,238.175z
			 M88.708,233.404c1.236,1.158,2.54,1.771,3.774,1.771c2.072,0,3.99-1.788,4.664-4.348c0.026-0.1,0.063-0.196,0.109-0.289
			c0.116-0.281,0.012-1.604-0.939-3.029c-0.612-0.916-1.983-2.453-4.297-2.453c-0.32,0-0.652,0.029-0.99,0.088
			c-1.092,0.571-3.522,2.227-3.911,4.276C86.882,230.653,87.417,231.994,88.708,233.404z"/>
	</g>
	<g>
		<g>
			<path fill="#95CC71" d="M59.191,204.107c3.224,0,3.224-5,0-5S55.967,204.107,59.191,204.107L59.191,204.107z"/>
			<path fill="#58A328" d="M59.191,205.607c-2.234,0-3.918-1.72-3.918-4c0-1.014,0.343-1.972,0.967-2.696
				c0.723-0.841,1.771-1.304,2.951-1.304c2.234,0,3.918,1.72,3.918,4c0,1.014-0.343,1.972-0.967,2.696
				C61.42,205.145,60.372,205.607,59.191,205.607z M59.191,200.607c-0.406,0-0.581,0.147-0.676,0.259
				c-0.154,0.179-0.242,0.449-0.242,0.741c0,0.301,0.089,1,0.918,1c0.406,0,0.581-0.147,0.676-0.259
				c0.154-0.179,0.242-0.449,0.242-0.741C60.109,201.307,60.02,200.607,59.191,200.607z"/>
		</g>
	</g>
	<g>
		<g>
			<path fill="#95CC71" d="M63.941,182.607c3.224,0,3.224-5,0-5S60.717,182.607,63.941,182.607L63.941,182.607z"/>
			<path fill="#58A328" d="M63.941,184.107c-2.234,0-3.918-1.72-3.918-4c0-1.014,0.343-1.972,0.967-2.696
				c0.723-0.841,1.771-1.304,2.951-1.304c2.234,0,3.918,1.72,3.918,4c0,1.014-0.343,1.972-0.967,2.696
				C66.17,183.645,65.122,184.107,63.941,184.107z M63.941,179.107c-0.406,0-0.581,0.147-0.676,0.259
				c-0.154,0.179-0.242,0.449-0.242,0.741c0,0.301,0.089,1,0.918,1c0.406,0,0.581-0.147,0.676-0.259
				c0.154-0.179,0.242-0.449,0.242-0.741C64.859,179.807,64.77,179.107,63.941,179.107z"/>
		</g>
	</g>
	<g>
		<g>
			<path fill="#95CC71" d="M70.191,160.857c3.224,0,3.224-5,0-5S66.967,160.857,70.191,160.857L70.191,160.857z"/>
			<path fill="#58A328" d="M70.191,162.357c-2.234,0-3.918-1.72-3.918-4c0-1.014,0.343-1.972,0.967-2.696
				c0.723-0.841,1.771-1.304,2.951-1.304c2.234,0,3.918,1.72,3.918,4c0,1.014-0.343,1.972-0.967,2.696
				C72.42,161.895,71.372,162.357,70.191,162.357z M70.191,157.357c-0.406,0-0.581,0.147-0.676,0.259
				c-0.154,0.179-0.242,0.449-0.242,0.741c0,0.301,0.089,1,0.918,1c0.406,0,0.581-0.147,0.676-0.259
				c0.154-0.179,0.242-0.449,0.242-0.741C71.109,158.057,71.02,157.357,70.191,157.357z"/>
		</g>
	</g>
</g>
<g id="Ebene_18">
	<g id="_x33_">
		<g>
			<path fill="#848484" d="M103.965,103.507l-5.502,0.145l-0.808-3.554l4.405-3.229c-0.139-0.381-0.145-3.215-0.145-3.215
				l-4.992-2.561l1.217-3.637c0,0,3.26-0.166,5.3-0.257c0.042-0.492,1.836-3.433,1.836-3.433l-3.092-4.687l3.124-2.565
				c0,0,2.61,1.333,4.456,2.319c0.835-0.676,3.01-1.845,3.01-1.845l0.713-5.316l2.866-0.862L119.116,75
				c0.788-0.161,4.468,0.037,4.468,0.037l2.672-4.803l3.047,0.982c0,0-0.058,2.464,0.089,4.971c0.725,0.183,3.296,1.712,3.296,1.712
				l4.825-2.726l2.099,2.547l-2.398,4.53c0.854,0.748,2.089,2.948,2.089,2.948l5.196-0.021l1.025,3.715c0,0-1.879,1.151-4.562,2.933
				c0.309,0.928,0.149,3.516,0.149,3.516l5.417,3.104l-1.001,3.045l-5.84,0.267c0.025,0.495-1.537,3.235-1.537,3.235l2.959,4.857
				l-2.775,2.459c0,0-3.362-1.547-4.861-2.277c-0.709,0.299-2.861,1.863-2.861,1.863l0.045,5.643l-3.698,0.689
				c0,0-1.703-2.501-2.753-4.364c-0.388,0.143-3.467,0.217-3.467,0.217l-3.059,5.032l-3.091-1.038c0,0-0.665-3.568-0.835-5.825
				c-0.566-0.23-2.893-1.379-2.893-1.379l-4.921,3.206l-2.285-2.546l2.221-4.705C104.672,105.831,103.965,103.507,103.965,103.507
				 M121.104,98.582c1.876,0.055,4.231-0.385,4.819-3.406c0.681-3.462-2.875-5.057-4.671-4.675c-1.395,0.34-2.609,0.85-3.312,3.027
				C117.25,95.703,119.233,98.524,121.104,98.582"/>
			<path fill="#636363" d="M117.899,119.713l-3.749-1.259l-0.054-0.289c-0.026-0.141-0.617-3.325-0.817-5.578
				c-0.643-0.291-1.855-0.883-2.385-1.144l-5.042,3.284l-2.792-3.112l2.207-4.675c-0.854-0.882-1.422-2.27-1.658-2.926l-5.543,0.146
				l-0.971-4.274l4.422-3.241c-0.074-0.644-0.096-1.818-0.101-2.687l-5.104-2.618l1.461-4.368l0.34-0.018
				c0,0,2.92-0.148,4.962-0.242c0.304-0.734,1.052-2.018,1.607-2.938l-3.166-4.798l3.725-3.059l0.292,0.149
				c0,0,2.36,1.206,4.181,2.173c0.779-0.56,2.073-1.285,2.595-1.572l0.722-5.384l3.531-1.062l2.798,4.241
				c0.208-0.017,0.521-0.029,1.005-0.029c1.023,0,2.339,0.057,2.931,0.085l2.72-4.89l3.793,1.222l-0.009,0.373
				c-0.001,0.023-0.051,2.259,0.07,4.6c0.811,0.334,2.226,1.146,2.819,1.494l4.939-2.79l2.577,3.128l-2.381,4.498
				c0.679,0.738,1.445,1.999,1.762,2.54l5.288-0.021l1.228,4.446l-0.32,0.197c-0.019,0.011-1.766,1.083-4.256,2.729
				c0.167,0.912,0.126,2.36,0.097,3.012l5.504,3.154l-1.236,3.76l-5.813,0.265c-0.233,0.687-0.81,1.783-1.351,2.744l3.023,4.964
				l-3.333,2.953l-0.296-0.137c0,0-3.065-1.411-4.652-2.176c-0.588,0.317-1.739,1.118-2.359,1.562l0.046,5.803l-4.431,0.826
				l-0.184-0.27c-0.017-0.023-1.548-2.276-2.601-4.094c-0.701,0.085-1.987,0.134-2.92,0.159L117.899,119.713z M115.027,117.694
				l2.433,0.817l2.993-4.924l0.273-0.007c1.394-0.034,3.058-0.116,3.316-0.19l0.379-0.108l0.219,0.335
				c0.827,1.468,2.083,3.363,2.548,4.058l2.964-0.552l-0.044-5.481l0.208-0.151c0.225-0.164,2.221-1.607,2.961-1.92l0.209-0.088
				l0.204,0.099c1.227,0.598,3.703,1.743,4.556,2.136l2.218-1.965L137.57,105l0.146-0.256c0.68-1.191,1.436-2.673,1.473-2.991
				l-0.025-0.502l0.502,0.006l5.495-0.251l0.766-2.331l-5.333-3.056l0.02-0.31c0.043-0.693,0.103-2.642-0.125-3.328l-0.12-0.363
				l0.318-0.211c2.024-1.344,3.607-2.34,4.257-2.744l-0.823-2.985l-5.108,0.021l-0.144-0.256c-0.333-0.591-1.336-2.25-1.982-2.816
				l-0.298-0.261l2.428-4.585l-1.62-1.966l-4.713,2.662l-0.249-0.148c-0.97-0.577-2.687-1.537-3.162-1.657l-0.355-0.09l-0.021-0.366
				c-0.113-1.928-0.105-3.849-0.096-4.638l-2.304-0.743l-2.624,4.717l-0.312-0.017c-0.019-0.001-1.86-0.099-3.189-0.099
				c-0.776,0-1.055,0.033-1.152,0.053l-0.331,0.068l-2.745-4.161l-2.201,0.662l-0.704,5.25l-0.225,0.121
				c-0.021,0.011-2.143,1.155-2.932,1.793l-0.258,0.208l-0.292-0.156c-1.47-0.785-3.426-1.791-4.156-2.166l-2.522,2.071l3.019,4.576
				l-0.166,0.271c-0.799,1.31-1.702,2.919-1.767,3.233l-0.038,0.438l-0.436,0.001c-1.64,0.074-4.069,0.195-4.957,0.24l-0.972,2.906
				l4.881,2.504l0,0.305c0.003,1.274,0.049,2.804,0.118,3.055l0.092,0.333l-0.27,0.231l-4.141,3.035l0.644,2.834l5.473-0.144
				l0.111,0.364c0.006,0.022,0.679,2.193,1.75,3.079l0.3,0.248l-2.245,4.755l1.777,1.98l4.801-3.127l0.255,0.126
				c0.023,0.011,2.317,1.143,2.86,1.364l0.287,0.117l0.023,0.309C114.39,114.046,114.868,116.803,115.027,117.694z M121.388,99.086
				C121.388,99.086,121.389,99.086,121.388,99.086l-0.299-0.004c-1-0.031-2.058-0.699-2.829-1.788
				c-0.882-1.245-1.18-2.709-0.797-3.918c0.798-2.472,2.25-3.016,3.67-3.362c0.221-0.047,0.447-0.069,0.684-0.069
				c1.144,0,2.751,0.552,3.766,1.786c0.806,0.98,1.093,2.205,0.831,3.542C125.92,97.802,124.229,99.086,121.388,99.086z
				 M121.817,90.945c-0.167,0-0.323,0.015-0.461,0.044c-1.224,0.298-2.3,0.709-2.94,2.692c-0.284,0.895-0.031,2.059,0.66,3.035
				c0.583,0.822,1.366,1.345,2.043,1.366l0.27,0.004c2.359,0,3.645-0.956,4.044-3.006c0.206-1.049-0.003-1.962-0.622-2.714
				C124.003,91.384,122.725,90.945,121.817,90.945z"/>
		</g>
		<g id="Ebene_26">
			<g>
				<path fill="#8C8C8C" d="M138.326,111.682c-0.828,0-1.5-0.671-1.5-1.5v-0.589l-1.639-2.627c-0.235-0.377-0.291-0.84-0.152-1.262
					l1.866-5.681c0.258-0.787,1.108-1.213,1.893-0.957c0.787,0.259,1.216,1.106,0.957,1.894l-1.646,5.014l1.494,2.396
					c0.148,0.238,0.228,0.513,0.228,0.794v1.019C139.826,111.011,139.154,111.682,138.326,111.682z"/>
			</g>
			<g>
				<path fill="#8C8C8C" d="M144.007,101.345c-0.828,0-1.5-0.671-1.5-1.5v-0.18l-3.821-2.222c-0.415-0.242-0.689-0.667-0.738-1.145
					l-0.445-4.382c-0.084-0.824,0.517-1.561,1.341-1.644c0.813-0.083,1.561,0.516,1.644,1.34l0.368,3.621l3.906,2.271
					c0.462,0.269,0.746,0.763,0.746,1.297v1.043C145.507,100.674,144.835,101.345,144.007,101.345z"/>
			</g>
			<g>
				<path fill="#8C8C8C" d="M143.45,89.654c-0.6,0-1.166-0.363-1.397-0.956l-0.491-1.259c-0.301-0.771,0.08-1.641,0.853-1.942
					c0.769-0.299,1.641,0.081,1.942,0.853l0.491,1.259c0.301,0.771-0.081,1.641-0.853,1.942
					C143.816,89.621,143.632,89.654,143.45,89.654z"/>
			</g>
			<g>
				<path fill="#8C8C8C" d="M135.429,82.496c-0.281,0-0.565-0.079-0.818-0.244c-0.694-0.453-0.89-1.382-0.437-2.076l1.532-2.348
					l-0.112-0.273c-0.314-0.767,0.052-1.643,0.818-1.957c0.77-0.316,1.643,0.052,1.957,0.818l0.411,1.002
					c0.188,0.457,0.138,0.976-0.132,1.389l-1.963,3.008C136.398,82.257,135.918,82.496,135.429,82.496z"/>
			</g>
			<g>
				<path fill="#8C8C8C" d="M127.632,77.483c-0.829,0-1.5-0.671-1.5-1.5c-0.025-0.333-0.42-2.174-0.771-3.667
					c-0.189-0.807,0.311-1.614,1.118-1.803c0.805-0.187,1.614,0.312,1.803,1.118c0.388,1.652,0.85,3.749,0.85,4.353
					C129.132,76.812,128.46,77.483,127.632,77.483z"/>
			</g>
			<g>
				<path fill="#8C8C8C" d="M116.776,77.483c-0.676,0-1.267-0.455-1.444-1.101c-0.197-0.395-1.048-1.628-1.759-2.588
					c-0.493-0.666-0.353-1.605,0.313-2.098c0.665-0.492,1.604-0.353,2.098,0.313c2.194,2.963,2.247,3.455,2.286,3.814
					c0.089,0.824-0.507,1.563-1.331,1.651C116.884,77.48,116.83,77.483,116.776,77.483z"/>
			</g>
			<g>
				<path fill="#8C8C8C" d="M129.1,117.029c-0.829,0-1.5-0.671-1.5-1.5v-4.456c0-0.829,0.671-1.5,1.5-1.5c0.828,0,1.5,0.671,1.5,1.5
					v4.456C130.6,116.358,129.928,117.029,129.1,117.029z"/>
			</g>
			<g>
				<path fill="#8C8C8C" d="M121.231,108.02c-3.733,0-6.489-1.124-6.547-1.148c-0.763-0.322-1.122-1.201-0.8-1.965
					c0.322-0.763,1.202-1.12,1.965-0.8c0.405,0.169,10.114,4.057,16.675-5.09c4.418-7.281-4.75-14.524-5.143-14.83
					c-0.654-0.508-0.773-1.45-0.267-2.104s1.446-0.775,2.103-0.269c4.079,3.152,10.55,11.141,5.837,18.816
					c-0.018,0.029-0.037,0.058-0.057,0.085C130.79,106.618,125.401,108.02,121.231,108.02z"/>
			</g>
			<g>
				<path fill="#8C8C8C" d="M115.262,101.99c-0.333,0-0.667-0.111-0.946-0.339c-2.047-1.679-5.181-6.47-2.391-12.588
					c2.779-6.089,9.841-5.789,10.136-5.777c0.827,0.043,1.463,0.749,1.42,1.576c-0.043,0.826-0.742,1.48-1.571,1.42l0,0
					c-0.217-0.007-5.333-0.188-7.256,4.026c-2.512,5.508,1.402,8.888,1.57,9.029c0.631,0.531,0.719,1.475,0.192,2.109
					C116.12,101.804,115.692,101.989,115.262,101.99z"/>
			</g>
		</g>
		<g>
			<path fill="#666666" d="M117.68,120.612c-0.159,0-0.32-0.025-0.478-0.078l-3.091-1.038c-0.516-0.173-0.897-0.612-0.997-1.147
				c-0.024-0.131-0.532-2.865-0.773-5.094c-0.444-0.209-0.959-0.459-1.376-0.662l-4.207,2.74c-0.62,0.402-1.441,0.295-1.935-0.255
				l-2.285-2.546c-0.403-0.449-0.498-1.096-0.24-1.642l1.791-3.794c-0.509-0.675-0.894-1.447-1.155-2.061l-4.432,0.116
				c-0.738,0.018-1.344-0.47-1.502-1.167l-0.808-3.554c-0.132-0.583,0.094-1.189,0.576-1.542l3.706-2.716
				c-0.023-0.385-0.042-0.901-0.052-1.598l-4.184-2.146c-0.66-0.338-0.973-1.107-0.738-1.811l1.217-3.637
				c0.196-0.585,0.73-0.991,1.346-1.022c0,0,2.391-0.122,4.36-0.214c0.229-0.458,0.569-1.081,1.079-1.941l-2.571-3.897
				c-0.423-0.641-0.293-1.498,0.3-1.985l3.124-2.565c0.462-0.378,1.104-0.447,1.634-0.177c0,0,1.939,0.991,3.663,1.898
				c0.517-0.335,1.101-0.678,1.567-0.943l-0.246-4.174c-0.042-0.713,0.424-1.356,1.114-1.539l2.889-0.763
				c0.608-0.162,1.254,0.075,1.614,0.592l2.369,3.398c1.061-0.064,2.601-0.093,3.738-0.105l2.247-4.039
				c0.348-0.626,1.089-0.918,1.771-0.699l3.047,0.982c0.632,0.204,1.055,0.799,1.04,1.463c-0.001,0.021-0.042,1.854,0.041,3.92
				c0.59,0.286,1.267,0.659,1.856,0.998l4.075-2.302c0.634-0.359,1.433-0.209,1.895,0.352l2.099,2.547
				c0.386,0.468,0.452,1.121,0.168,1.656l-1.911,3.61c0.427,0.55,0.833,1.175,1.132,1.663l4.335-0.018c0.002,0,0.004,0,0.006,0
				c0.675,0,1.267,0.45,1.446,1.101l1.025,3.715c0.178,0.644-0.093,1.329-0.662,1.678c-0.017,0.01-1.515,0.929-3.709,2.37
				c0.06,0.654,0.062,1.373,0.049,1.952l4.626,2.651c0.617,0.354,0.901,1.093,0.679,1.77l-1.001,3.045
				c-0.194,0.592-0.734,1.002-1.356,1.03l-4.823,0.22c-0.194,0.436-0.476,1.003-0.886,1.751l2.504,4.109
				c0.378,0.62,0.257,1.421-0.286,1.903l-2.775,2.459c-0.446,0.395-1.084,0.487-1.622,0.24c0,0-2.525-1.163-4.186-1.952
				c-0.383,0.241-0.898,0.588-1.404,0.943l0.039,4.863c0.006,0.727-0.511,1.353-1.226,1.486l-3.698,0.689
				c-0.588,0.109-1.18-0.138-1.515-0.63c-0.061-0.089-1.29-1.896-2.312-3.602c-0.432,0.031-1.015,0.062-1.81,0.087l-2.635,4.334
				C118.684,120.348,118.192,120.612,117.68,120.612z M115.91,116.935l1.111,0.373l2.436-4.007c0.265-0.437,0.735-0.708,1.245-0.72
				c1.218-0.03,2.724-0.101,3.093-0.161c0.661-0.19,1.375,0.099,1.717,0.707c0.647,1.147,1.566,2.569,2.144,3.444l1.491-0.278
				l-0.035-4.387c-0.004-0.484,0.227-0.94,0.618-1.225c0.538-0.391,2.354-1.692,3.16-2.032c0.398-0.167,0.851-0.156,1.239,0.034
				c1.004,0.489,2.847,1.346,3.944,1.853l1.103-0.977l-2.307-3.786c-0.283-0.466-0.292-1.049-0.021-1.523
				c0.557-0.977,1.21-2.239,1.349-2.655c0.034-0.313,0.166-0.609,0.381-0.846c0.268-0.295,0.644-0.472,1.042-0.49l4.807-0.219
				l0.296-0.901l-4.356-2.497c-0.495-0.284-0.786-0.824-0.751-1.393c0.074-1.224,0.039-2.603-0.076-2.951
				c-0.212-0.642,0.031-1.349,0.595-1.723c1.556-1.033,2.835-1.851,3.647-2.363l-0.422-1.53l-4.05,0.017
				c-0.564-0.037-1.047-0.291-1.313-0.765c-0.449-0.798-1.321-2.162-1.77-2.555c-0.523-0.458-0.663-1.215-0.337-1.83l1.93-3.646
				l-0.662-0.804l-3.73,2.107c-0.468,0.265-1.042,0.257-1.504-0.017c-1.108-0.659-2.542-1.439-2.909-1.551
				c-0.602-0.182-1.081-0.736-1.118-1.363c-0.088-1.514-0.104-2.997-0.103-3.97l-0.824-0.266l-2.073,3.727
				c-0.263,0.473-0.761,0.768-1.302,0.771c-2.084,0.012-4.615,0.076-5.069,0.158c-0.576,0.102-1.19-0.132-1.525-0.613l-2.269-3.255
				l-0.689,0.182l0.229,3.892c0.034,0.583-0.273,1.133-0.787,1.409c-0.793,0.427-2.249,1.264-2.777,1.69
				c-0.47,0.379-1.118,0.441-1.65,0.157c-1.166-0.623-2.639-1.385-3.558-1.858l-1.318,1.083l2.348,3.559
				c0.32,0.485,0.331,1.111,0.028,1.607c-0.681,1.116-1.486,2.537-1.647,2.952c-0.136,0.666-0.709,1.167-1.402,1.198
				c-1.317,0.059-3.143,0.149-4.27,0.206l-0.483,1.443l3.845,1.973c0.5,0.256,0.814,0.77,0.815,1.331
				c0.002,1.097,0.04,2.465,0.091,2.821c0.164,0.596-0.055,1.237-0.56,1.607l-3.611,2.647l0.317,1.395l4.273-0.112
				c0.692-0.025,1.279,0.417,1.475,1.063c0.243,0.787,0.848,2.117,1.431,2.599c0.529,0.437,0.693,1.177,0.401,1.796l-1.795,3.804
				l0.761,0.848l3.844-2.504c0.445-0.289,1.008-0.322,1.482-0.088c0.881,0.435,2.419,1.182,2.795,1.335
				c0.527,0.214,0.887,0.709,0.93,1.276C115.361,113.626,115.707,115.758,115.91,116.935z M121.388,100.086
				C121.388,100.086,121.389,100.086,121.388,100.086l-0.329-0.005c-1.313-0.04-2.664-0.866-3.616-2.209
				c-1.062-1.499-1.412-3.292-0.934-4.798c0.913-2.827,2.647-3.607,4.387-4.031c0.319-0.068,0.614-0.098,0.92-0.098
				c1.682,0,3.464,0.844,4.538,2.15c1.002,1.219,1.362,2.729,1.04,4.37C127.059,97.189,125.831,100.086,121.388,100.086z
				 M121.817,91.945c-0.122,0-0.206,0.012-0.254,0.022c-1.022,0.25-1.701,0.487-2.196,2.021c-0.187,0.588,0.019,1.435,0.524,2.149
				c0.431,0.608,0.959,0.936,1.258,0.945l0.239,0.004c1.871,0,2.758-0.637,3.062-2.197c0.148-0.754,0.013-1.371-0.413-1.888
				C123.468,92.308,122.489,91.945,121.817,91.945z"/>
		</g>
		<g>
			<path fill="#666666" d="M121.747,103.581C121.747,103.581,121.747,103.581,121.747,103.581c-0.445,0-0.89-0.039-1.323-0.114
				c-3.857-0.672-6.358-3.636-7.029-5.347c-0.403-1.027-2.198-6.339,2.007-10.078c2.57-2.282,5.561-2.623,7.116-2.623
				c0.687,0,1.166,0.065,1.312,0.087c1.368,0.186,5.777,2.218,6.833,5.912c0.974,3.446-0.573,7.346-1.924,8.898
				C127.687,101.528,125.03,103.581,121.747,103.581z M122.517,88.419c-1.129,0-3.295,0.242-5.123,1.865
				c-2.716,2.415-1.481,6.039-1.207,6.74c0.39,0.995,2.184,3.039,4.752,3.486c0.265,0.046,0.536,0.069,0.807,0.069
				c2.047,0,3.948-1.334,4.726-2.231c0.822-0.944,1.958-3.792,1.303-6.11c-0.61-2.134-3.641-3.636-4.317-3.757
				C123.368,88.471,123.04,88.419,122.517,88.419z"/>
		</g>
		<g>
			<path fill="#666666" d="M121.183,110.664L121.183,110.664c-2.758,0-5.252-0.65-7.415-1.931
				c-5.687-3.356-8.268-9.787-8.283-13.282c-0.012-1.968,0.401-11.979,9.681-15.557c2.099-0.81,4.312-1.221,6.579-1.221
				c4.977,0,8.646,1.97,9.162,2.261c2.172,1.095,8.104,7.59,7.534,14.026c-0.577,6.357-5.642,11.925-8.882,13.688
				C127.771,109.623,124.631,110.664,121.183,110.664z M121.746,81.674c-1.896,0-3.746,0.343-5.499,1.02
				c-7.441,2.87-7.771,11.119-7.761,12.743c0.012,2.709,2.184,7.985,6.81,10.714c1.695,1.004,3.675,1.513,5.888,1.513
				c2.888,0,5.544-0.889,6.942-1.65c2.24-1.217,6.839-5.934,7.328-11.32c0.46-5.193-4.813-10.569-5.887-11.074
				c-0.041-0.02-0.085-0.042-0.124-0.065C129.414,83.537,126.155,81.674,121.746,81.674z"/>
		</g>
	</g>
	<g id="_x32_">
		<g>
			<path fill="#BFBFBF" d="M99.122,40.076c-2.945-0.916-6.636-2.04-6.636-2.04l0.339-3.697l6.746,0.011c0,0,0.933-2.434,1.728-3.577
				c-2.251-2.28-4.779-4.514-4.779-4.514l1.976-3.081l5.854,2.394c0,0,2.101-2.121,3.323-2.912
				c-1.105-2.578-2.592-5.729-2.592-5.729l2.977-1.881l4.085,4.5c0,0,2.583-1.316,4.43-1.448c-0.149-3.031-0.269-6.518-0.269-6.518
				l4.19-0.523l1.493,5.868c0,0,3.47,0.071,4.771,0.24c1.082-2.213,2.713-5.742,2.713-5.742l3.65,1.163l-1.184,5.943
				c0,0,3.034,1.106,4.363,1.963l4.446-3.801l3.079,2.156l-3.418,5.46c0,0,2.499,2.912,2.709,3.638
				c2.249-0.467,5.912-1.513,5.912-1.513l1.723,3.095l-4.969,3.401c0,0,0.803,1.81,0.747,3.012c2.456,0.161,6.551,0.014,6.551,0.014
				v3.994l-6.137,2.543c0,0-0.238,3.785-0.935,4.925c2.016,0.963,5.451,2.776,5.451,2.776l-1.386,3.935l-6.106-1.329
				c0,0-1.747,2.752-2.595,3.531l3.437,4.807l-2.705,2.604l-4.757-3.502c0,0-3.351,2.182-3.893,2.486l1.021,5.519l-3.645,1.455
				l-2.726-5.304c0,0-2.666,0.431-4.516,0.487l-1.258,6.223l-3.755-0.054l-0.491-6.321c0,0-2.988-0.795-4.118-1.446l-4.065,5.364
				l-3.244-1.596l2.333-6.276c0,0-2.612-1.899-3.424-2.598c-2.5,1.125-5.945,3.131-5.945,3.131l-2.03-2.625l4.182-5.255
				c0,0-1.388-2.052-1.623-3.646l-6.401,0.711l-0.946-3.36l6.283-2.824C99.085,44.313,98.986,41.511,99.122,40.076 M123.416,45.016
				c2.204-0.333,3.872-1.559,3.816-4.589c-0.058-3.034-3.823-3.829-3.823-3.829c-1.361-0.487-4.727,1.143-4.722,4.043
				C118.7,43.538,121.208,45.349,123.416,45.016"/>
		</g>
		<g id="Ebene_24">
			<g>
				<path fill="#C9C9C9" d="M141.967,62.393c-0.437,0-0.87-0.19-1.166-0.556l-2.526-3.118c-0.521-0.644-0.423-1.588,0.221-2.11
					s1.588-0.423,2.109,0.221l2.526,3.118c0.521,0.644,0.423,1.588-0.221,2.11C142.632,62.283,142.299,62.393,141.967,62.393z"/>
			</g>
			<g>
				<path fill="#C9C9C9" d="M149.093,53.087c-0.28,0-0.562-0.078-0.815-0.241l-4.083-2.647c-0.694-0.451-0.893-1.38-0.442-2.075
					c0.451-0.696,1.379-0.892,2.075-0.443l4.083,2.647c0.694,0.451,0.893,1.38,0.442,2.075
					C150.065,52.847,149.584,53.087,149.093,53.087z"/>
			</g>
			<g>
				<path fill="#C9C9C9" d="M151.025,39.386h-3.974c-0.828,0-1.5-0.671-1.5-1.5s0.672-1.5,1.5-1.5h3.974c0.828,0,1.5,0.671,1.5,1.5
					S151.854,39.386,151.025,39.386z"/>
			</g>
			<g>
				<path fill="#C9C9C9" d="M144.008,31.588c-0.592,0-1.152-0.352-1.39-0.933c-0.313-0.767,0.055-1.643,0.821-1.956l4.233-1.73
					c0.768-0.312,1.644,0.055,1.956,0.821c0.313,0.767-0.055,1.643-0.821,1.956l-4.233,1.73
					C144.389,31.552,144.196,31.588,144.008,31.588z"/>
			</g>
			<g>
				<path fill="#C9C9C9" d="M138.771,23.753c-0.331,0-0.665-0.109-0.942-0.333c-0.644-0.521-0.744-1.465-0.223-2.11l2.673-3.305
					c0.52-0.645,1.465-0.745,2.109-0.223c0.644,0.521,0.744,1.465,0.223,2.11l-2.673,3.305
					C139.643,23.563,139.209,23.753,138.771,23.753z"/>
			</g>
			<g>
				<path fill="#C9C9C9" d="M132.533,68.461c-0.668,0-1.277-0.45-1.452-1.127l-0.888-3.454c-0.206-0.802,0.277-1.62,1.08-1.826
					c0.803-0.206,1.619,0.277,1.826,1.079l0.888,3.454c0.206,0.802-0.277,1.62-1.08,1.826
					C132.782,68.445,132.656,68.461,132.533,68.461z"/>
			</g>
			<g>
				<path fill="#C9C9C9" d="M121.12,70.54c-0.065,0-0.132-0.004-0.198-0.013c-0.821-0.109-1.399-0.862-1.291-1.684l0.608-4.604
					c0.108-0.822,0.864-1.401,1.684-1.291c0.821,0.109,1.399,0.862,1.291,1.684l-0.608,4.604
					C122.506,69.991,121.861,70.54,121.12,70.54z"/>
			</g>
			<g>
				<path fill="#C9C9C9" d="M108.733,68.237c-0.308,0-0.617-0.094-0.884-0.289c-0.669-0.489-0.814-1.428-0.326-2.096l3.014-4.122
					c0.489-0.668,1.427-0.814,2.096-0.326c0.669,0.489,0.814,1.428,0.326,2.096l-3.014,4.122
					C109.651,68.024,109.195,68.237,108.733,68.237z"/>
			</g>
			<g>
				<path fill="#C9C9C9" d="M122.512,60.202c-2.583,0-4.759-0.437-6.038-1.094c-0.737-0.379-1.027-1.283-0.648-2.02
					c0.379-0.736,1.282-1.026,2.02-0.648c1.901,0.977,8.304,1.391,13.768-1.302c4.232-2.087,6.794-5.433,7.613-9.946
					c2.268-12.491-8.459-19.225-8.916-19.506c-0.705-0.432-0.929-1.355-0.498-2.061c0.433-0.707,1.354-0.93,2.059-0.501
					c0.13,0.079,12.948,8.056,10.307,22.604c-0.984,5.421-4.179,9.605-9.238,12.1C129.462,59.544,125.682,60.202,122.512,60.202z"/>
			</g>
			<g>
				<path fill="#C9C9C9" d="M100.341,60.833c-0.483,0-0.957-0.232-1.247-0.663c-0.462-0.688-0.279-1.62,0.408-2.082l4.233-2.845
					c0.688-0.462,1.62-0.279,2.082,0.408c0.462,0.688,0.279,1.62-0.408,2.082l-4.233,2.845
					C100.92,60.751,100.629,60.833,100.341,60.833z"/>
			</g>
			<g>
				<path fill="#C9C9C9" d="M129.473,19.766c-0.171,0-0.345-0.029-0.514-0.091c-0.778-0.284-1.179-1.145-0.895-1.923l1.62-4.441
					c0.283-0.778,1.149-1.18,1.923-0.895c0.778,0.284,1.18,1.145,0.896,1.923l-1.62,4.441
					C130.66,19.388,130.085,19.766,129.473,19.766z"/>
			</g>
			<g>
				<path fill="#C9C9C9" d="M120.274,47.396c-0.029,0-0.058-0.001-0.087-0.002c-1.588-0.091-3.229-1.453-4.179-3.469
					c-1.122-2.38-0.935-4.969,0.501-6.926c2.925-3.99,6.878-3.632,7.045-3.613c0.824,0.085,1.423,0.823,1.338,1.646
					c-0.085,0.819-0.813,1.417-1.63,1.339c-0.137-0.008-2.471-0.139-4.333,2.401c-1.116,1.522-0.516,3.216-0.207,3.873
					c0.573,1.214,1.392,1.739,1.638,1.753c0.827,0.047,1.459,0.756,1.412,1.583C121.724,46.78,121.063,47.396,120.274,47.396z"/>
			</g>
		</g>
		<g>
			<path fill="#898989" d="M119.189,72.608c-0.71,0-1.334-0.503-1.472-1.217l-0.846-4.401c-0.859-0.234-2.095-0.592-3.097-0.965
				l-2.677,3.532c-0.435,0.572-1.213,0.755-1.857,0.44l-3.244-1.596c-0.69-0.34-1.012-1.147-0.744-1.869l1.938-5.215
				c-0.554-0.41-1.261-0.937-1.834-1.382c-2.279,1.103-4.95,2.655-4.98,2.672c-0.651,0.378-1.481,0.217-1.941-0.379l-2.03-2.625
				c-0.423-0.546-0.417-1.311,0.013-1.852l3.529-4.435c-0.292-0.516-0.635-1.189-0.899-1.901l-5.132,0.57
				c-0.731,0.083-1.411-0.378-1.609-1.084l-0.946-3.36c-0.201-0.715,0.151-1.47,0.829-1.774l5.373-2.415
				c-0.011-0.618-0.017-1.433,0.002-2.191c-2.681-0.829-5.514-1.691-5.514-1.691c-0.68-0.207-1.122-0.864-1.057-1.572l0.339-3.697
				c0.071-0.772,0.718-1.363,1.494-1.363c0.001,0,0.001,0,0.002,0l5.735,0.01c0.226-0.532,0.528-1.206,0.855-1.833
				c-1.95-1.915-3.87-3.614-3.891-3.633c-0.555-0.49-0.669-1.311-0.27-1.934l1.976-3.081c0.39-0.609,1.161-0.852,1.831-0.579
				l4.941,2.021c0.493-0.473,1.167-1.098,1.821-1.636c-0.995-2.255-2.088-4.575-2.101-4.602c-0.323-0.685-0.085-1.503,0.555-1.908
				l2.977-1.881c0.615-0.39,1.422-0.28,1.912,0.26l3.344,3.684c0.668-0.288,1.574-0.637,2.5-0.871
				c-0.12-2.649-0.208-5.22-0.208-5.22c-0.027-0.776,0.543-1.443,1.313-1.54l4.19-0.523c0.748-0.093,1.453,0.385,1.639,1.119
				l1.213,4.769c0.782,0.024,1.828,0.064,2.698,0.123c1.017-2.118,2.236-4.754,2.25-4.785c0.317-0.687,1.099-1.027,1.816-0.8
				l3.65,1.163c0.728,0.232,1.165,0.973,1.016,1.722l-0.937,4.703c0.728,0.291,1.659,0.685,2.465,1.091l3.652-3.123
				c0.52-0.444,1.273-0.481,1.835-0.089l3.079,2.156c0.654,0.458,0.835,1.348,0.411,2.025l-2.838,4.533
				c0.678,0.817,1.21,1.508,1.594,2.068c2.115-0.499,4.733-1.246,4.764-1.254c0.671-0.191,1.385,0.104,1.723,0.713l1.723,3.095
				c0.377,0.677,0.176,1.53-0.463,1.967l-3.998,2.737c0.098,0.303,0.194,0.643,0.271,0.996c0.484,0.012,1.026,0.019,1.622,0.019
				c1.841,0,3.522-0.06,3.532-0.061c0.398-0.017,0.803,0.137,1.095,0.419c0.294,0.283,0.459,0.672,0.459,1.08v3.994
				c0,0.648-0.416,1.223-1.032,1.425l-4.891,1.605c-0.163,1.044-0.433,2.55-0.783,3.748c1.965,1.173,4.157,2.884,4.27,2.972
				c0.507,0.396,0.704,1.073,0.49,1.68l-1.145,3.248c-0.251,0.713-0.991,1.128-1.734,0.967l-5.096-1.109
				c-0.383,0.574-0.891,1.309-1.378,1.935l2.749,3.845c0.433,0.605,0.355,1.437-0.181,1.953l-2.705,2.604
				c-0.526,0.507-1.341,0.561-1.93,0.127l-3.921-2.887c-0.616,0.4-1.417,0.917-2.063,1.327l1.268,4.1
				c0.228,0.736-0.141,1.525-0.851,1.825l-3.418,1.441c-0.648,0.274-1.397,0.06-1.806-0.513l-3.007-4.229
				c-0.651,0.091-1.561,0.207-2.465,0.286l-0.466,4.5c-0.072,0.697-0.617,1.251-1.312,1.335l-3.802,0.458
				C119.309,72.605,119.249,72.608,119.189,72.608z M113.291,62.681c0.255,0,0.513,0.065,0.748,0.2
				c0.655,0.377,3.023,1.072,4.496,1.446c0.564,0.143,0.995,0.6,1.104,1.171l0.76,3.954l1.224-0.147l0.473-4.573
				c0.078-0.748,0.696-1.322,1.447-1.345c1.731-0.052,4.295-0.464,4.321-0.468c0.561-0.089,1.13,0.146,1.462,0.611l2.844,3.999
				l1.059-0.446l-1.209-3.91c-0.208-0.676,0.083-1.406,0.7-1.751c0.363-0.204,2.528-1.601,3.808-2.434
				c0.524-0.341,1.206-0.321,1.708,0.049l3.738,2.752l0.86-0.828l-2.684-3.753c-0.44-0.617-0.352-1.464,0.206-1.977
				c0.484-0.445,1.661-2.157,2.343-3.23c0.337-0.531,0.969-0.796,1.586-0.662l4.812,1.048l0.341-0.967
				c-1.049-0.777-2.839-2.051-4.078-2.644c-0.383-0.183-0.67-0.52-0.791-0.927s-0.063-0.846,0.157-1.208
				c0.283-0.465,0.794-2.799,1.093-4.994c0.077-0.569,0.473-1.044,1.019-1.223l4.74-1.556v-1.367
				c-0.604,0.012-1.332,0.021-2.086,0.021c-1.238,0-2.269-0.026-3.062-0.079c-0.815-0.053-1.438-0.75-1.4-1.566
				c0.026-0.579-0.347-1.715-0.621-2.336c-0.291-0.661-0.071-1.437,0.524-1.844l3.841-2.629l-0.482-0.867
				c-1.28,0.352-3.364,0.906-4.872,1.219c-0.772,0.155-1.528-0.299-1.745-1.052c-0.162-0.332-1.385-1.886-2.407-3.078
				c-0.427-0.498-0.481-1.216-0.133-1.772l2.662-4.252l-0.96-0.672l-3.563,3.046c-0.504,0.431-1.231,0.479-1.788,0.12
				c-0.972-0.627-3.263-1.522-4.063-1.814c-0.695-0.253-1.102-0.977-0.957-1.702l0.921-4.628l-1.113-0.355
				c-0.576,1.235-1.485,3.171-2.169,4.57c-0.283,0.578-0.905,0.915-1.542,0.829c-0.999-0.13-3.665-0.208-4.607-0.228
				c-0.674-0.014-1.257-0.476-1.423-1.13l-1.167-4.585l-1.514,0.189c0.048,1.29,0.128,3.292,0.218,5.126
				c0.041,0.814-0.578,1.512-1.391,1.57c-1.26,0.09-3.256,0.983-3.855,1.289c-0.604,0.307-1.337,0.172-1.792-0.328l-3.238-3.567
				l-0.796,0.503c0.54,1.166,1.372,2.984,2.053,4.575c0.288,0.672,0.05,1.454-0.564,1.851c-0.89,0.576-2.519,2.15-3.071,2.708
				c-0.427,0.431-1.071,0.563-1.634,0.333l-4.698-1.921l-0.614,0.957c0.952,0.867,2.469,2.277,3.896,3.723
				c0.507,0.514,0.577,1.316,0.165,1.91c-0.567,0.815-1.317,2.628-1.559,3.258c-0.222,0.58-0.779,0.963-1.4,0.963
				c-0.001,0-0.001,0-0.002,0l-5.375-0.009l-0.103,1.116c1.328,0.406,3.56,1.09,5.476,1.686c0.678,0.21,1.115,0.867,1.048,1.573
				c-0.104,1.098-0.057,3.291-0.03,4.043c0.021,0.609-0.328,1.171-0.884,1.421l-5.103,2.293l0.25,0.891l5.137-0.571
				c0.804-0.089,1.532,0.473,1.649,1.272c0.151,1.025,1.071,2.565,1.381,3.024c0.368,0.542,0.34,1.261-0.068,1.774L99.497,58.7
				l0.514,0.665c1.245-0.697,3.276-1.802,4.939-2.551c0.533-0.238,1.153-0.148,1.593,0.23c0.628,0.54,2.616,2.004,3.329,2.522
				c0.544,0.396,0.758,1.105,0.524,1.735l-1.861,5.006l0.917,0.451l2.642-3.485C112.387,62.889,112.835,62.681,113.291,62.681z
				 M122.887,46.555L122.887,46.555c-2.729,0-5.684-2.258-5.701-5.907c-0.002-1.423,0.56-2.736,1.625-3.804
				c1.393-1.394,3.548-2.145,4.993-1.695c1.842,0.416,4.864,1.964,4.926,5.249c0.064,3.428-1.745,5.595-5.091,6.101
				C123.391,46.537,123.14,46.555,122.887,46.555z M122.903,38.011l-0.051,0.002c-0.469,0-1.301,0.333-1.918,0.952
				c-0.497,0.498-0.749,1.062-0.748,1.674c0.008,1.799,1.408,2.916,2.701,2.916l0,0c0.102,0,0.204-0.007,0.305-0.022
				c1.839-0.278,2.575-1.169,2.54-3.078c-0.034-1.791-2.614-2.385-2.641-2.39C123.03,38.051,122.962,38.032,122.903,38.011z"/>
		</g>
		<g>
			<path fill="#898989" d="M123.431,62.393c-6.96,0-16.484-3.378-20.42-12.9c-4.187-10.129-0.334-19.031,4.668-23.985
				c3.036-2.994,9.596-6.021,16.266-6.021c2.861,0,5.483,0.556,7.792,1.652c0.469,0.228,11.214,5.577,12.568,17.238
				c1.35,11.566-6.335,19.368-13.325,22.534C128.838,61.88,126.229,62.393,123.431,62.393z M123.945,22.486
				c-5.8,0-11.623,2.656-14.157,5.155c-2.089,2.069-8.56,9.685-4.004,20.705c3.371,8.153,11.614,11.046,17.648,11.046
				c2.374,0,4.556-0.42,6.31-1.215c6.07-2.749,12.746-9.494,11.583-19.455c-1.167-10.046-10.79-14.833-10.887-14.881
				C128.546,22.944,126.357,22.486,123.945,22.486z"/>
		</g>
		<g>
			<path fill="#EAEAEA" d="M113.482,30.827c0,0,2.113-0.039,2.696,2.08c0.591,2.121-0.864,3.6-2.484,3.999
				c-1.378,0.065-3.311-1.134-3.409-2.354C110.12,32.736,111.172,30.823,113.482,30.827z"/>
			<path fill="#898989" d="M113.584,38.408c-2.035,0-4.628-1.666-4.795-3.735c-0.132-1.463,0.319-2.888,1.239-3.896
				c0.868-0.949,2.06-1.451,3.447-1.451c1.225,0,3.458,0.67,4.149,3.183c0.353,1.266,0.211,2.499-0.41,3.562
				c-0.656,1.123-1.809,1.958-3.162,2.291c-0.094,0.023-0.191,0.037-0.288,0.042L113.584,38.408z M113.483,32.327
				c-0.545,0-0.948,0.155-1.24,0.475c-0.348,0.381-0.522,0.985-0.465,1.616c0.091,0.285,0.984,0.935,1.714,0.987
				c0.494-0.158,0.91-0.467,1.131-0.847c0.208-0.356,0.244-0.765,0.109-1.249C114.494,32.44,113.779,32.333,113.483,32.327z"/>
		</g>
		<g>
			<path fill="#EAEAEA" d="M111.953,42.853c0,0,2.107-0.031,2.689,2.085c0.595,2.116-0.859,3.601-2.482,4
				c-1.376,0.063-3.31-1.134-3.412-2.361C108.592,44.753,109.646,42.851,111.953,42.853z"/>
			<path fill="#898989" d="M112.055,50.44c-2.035,0-4.629-1.668-4.801-3.74c-0.126-1.474,0.329-2.898,1.25-3.901
				c0.868-0.946,2.06-1.446,3.446-1.446c1.217,0,3.447,0.671,4.139,3.188c0.354,1.262,0.215,2.495-0.406,3.56
				c-0.656,1.125-1.81,1.961-3.165,2.294c-0.095,0.023-0.192,0.038-0.29,0.042L112.055,50.44z M111.949,44.353
				c-0.538,0-0.942,0.155-1.235,0.475c-0.349,0.38-0.524,0.986-0.47,1.621c0.089,0.282,0.982,0.935,1.717,0.989
				c0.493-0.158,0.909-0.467,1.131-0.848c0.208-0.356,0.243-0.763,0.107-1.245C112.958,44.47,112.245,44.359,111.949,44.353z"/>
		</g>
		<g>
			<path fill="#EAEAEA" d="M132.131,34.463c0,0,0.962-1.515,2.751-0.982c1.791,0.535,2.185,2.235,1.705,3.568
				c-0.6,1.01-2.357,1.84-3.289,1.36C131.924,37.705,131.052,36.099,132.131,34.463z"/>
			<path fill="#898989" d="M133.941,40.049c-0.488,0-0.936-0.103-1.33-0.306c-1.176-0.602-2.028-1.623-2.338-2.798
				c-0.289-1.102-0.074-2.277,0.605-3.308c0.103-0.161,1.184-1.77,3.257-1.77c0.387,0,0.782,0.059,1.174,0.176
				c1.149,0.343,2.022,1.051,2.525,2.047c0.523,1.037,0.583,2.3,0.163,3.466c-0.032,0.09-0.072,0.176-0.121,0.258
				C137.133,39.067,135.404,40.049,133.941,40.049z M134.136,34.867c-0.44,0-0.736,0.396-0.738,0.4
				c-0.228,0.345-0.295,0.637-0.223,0.915c0.09,0.341,0.399,0.683,0.807,0.892l-0.04-0.025c0.373,0,1.009-0.339,1.281-0.663
				c0.086-0.338,0.063-0.688-0.065-0.943c-0.126-0.249-0.356-0.42-0.705-0.525C134.34,34.884,134.232,34.867,134.136,34.867z"/>
		</g>
		<g>
			<path fill="#EAEAEA" d="M119.317,51.567c0,0,0.469-1.746,2.467-1.819c2.006-0.066,2.952,1.409,2.926,2.904
				c-0.336,2.049-2.021,2.308-3.119,2.153C119.953,54.558,118.793,53.571,119.317,51.567z"/>
			<path fill="#898989" d="M122.119,56.342c-0.258,0-0.506-0.02-0.736-0.052c-1.412-0.213-2.481-0.828-3.108-1.779
				c-0.417-0.633-0.827-1.724-0.409-3.324c0.264-0.984,1.408-2.849,3.864-2.938l0.183-0.003c1.228,0,2.291,0.422,3.076,1.221
				c0.797,0.811,1.242,1.981,1.222,3.21c-0.001,0.073-0.008,0.146-0.02,0.217C125.842,55.021,124.282,56.342,122.119,56.342z
				 M121.913,51.247c-0.955,0.033-1.146,0.703-1.147,0.71c-0.06,0.23-0.142,0.668,0.014,0.905c0.14,0.211,0.527,0.384,1.037,0.46
				c0.084,0.012,0.191,0.021,0.302,0.021c0.746,0,0.986-0.311,1.091-0.821c-0.014-0.388-0.143-0.73-0.36-0.951
				C122.636,51.353,122.329,51.247,121.913,51.247z"/>
		</g>
		<g>
			<path fill="#EAEAEA" d="M135.056,49.812c0,0-1.569,0.919-3.016-0.434c-1.449-1.358-1.066-3.091,0.017-4.141
				c1.052-0.688,3.054-0.232,3.704,0.654C136.735,47.222,136.851,48.75,135.056,49.812z"/>
			<path fill="#898989" d="M133.816,51.618c-1.032,0-2.001-0.396-2.801-1.143c-0.922-0.864-1.413-1.927-1.423-3.077
				c-0.01-1.173,0.508-2.353,1.42-3.237c0.068-0.066,0.144-0.126,0.224-0.178c0.577-0.378,1.309-0.578,2.114-0.578
				c1.217,0,2.809,0.495,3.619,1.599c0.829,1.131,1.146,2.318,0.918,3.434c-0.153,0.748-0.636,1.817-2.067,2.665
				C135.668,51.192,134.888,51.618,133.816,51.618z M132.971,46.454c-0.241,0.285-0.38,0.618-0.378,0.919
				c0.003,0.318,0.157,0.616,0.473,0.912c0.243,0.227,0.482,0.333,0.751,0.333c0.284,0,0.509-0.115,0.511-0.116
				c0.184-0.11,0.562-0.372,0.621-0.665c0.052-0.252-0.097-0.648-0.397-1.058c-0.107-0.127-0.62-0.374-1.2-0.374
				C133.179,46.405,133.053,46.429,132.971,46.454z"/>
		</g>
		<g>
			<path fill="#EAEAEA" d="M122.076,26.425c0,0,1.359-1.337,3.181-0.344c1.818,1,1.881,2.839,1.057,4.186
				c-0.883,0.966-3.06,0.927-3.953,0.194C121.03,29.375,120.526,27.958,122.076,26.425z"/>
			<path fill="#898989" d="M124.236,32.502c-1.114,0-2.144-0.321-2.827-0.882c-1.407-1.148-1.749-2.331-1.787-3.121
				c-0.037-0.765,0.176-1.931,1.398-3.141c0.122-0.12,1.212-1.146,2.875-1.146c0.71,0,1.409,0.185,2.078,0.55
				c1.144,0.629,1.906,1.563,2.208,2.703c0.308,1.162,0.093,2.468-0.59,3.583c-0.05,0.082-0.107,0.158-0.172,0.229
				C126.71,32.056,125.549,32.502,124.236,32.502z M123.896,27.213c-0.448,0-0.788,0.3-0.792,0.303
				c-0.31,0.307-0.496,0.623-0.486,0.839c0.012,0.248,0.27,0.6,0.69,0.943c0.081,0.065,0.422,0.204,0.927,0.204
				c0.447,0,0.75-0.105,0.892-0.189c0.184-0.37,0.24-0.754,0.155-1.078c-0.088-0.333-0.34-0.616-0.75-0.841
				C124.312,27.274,124.101,27.213,123.896,27.213z"/>
		</g>
	</g>
	<g id="_x31_">
		<g>
			<path fill="#A0A0A0" d="M157.524,63.073c-4.107-0.032-6.522-0.32-6.522-0.32L150,57.958l5.873-2.279c0,0,0.248-3.435,0.814-5.184
				c-3.755-2.02-5.268-3.096-5.268-3.096l1.314-4.642l5.831,0.009c0,0,1.848-3.483,3.098-4.949
				c-2.402-2.826-3.189-4.732-3.189-4.732l3.071-3.525l4.603,2.619c0,0,2.789-2.65,5.097-3.525
				c-1.372-3.758-1.302-5.564-1.302-5.564l5.138-2.253l2.599,4.266c0,0,4.451-1.24,6.171-1.526c0.52-3.201,1.306-5.31,1.306-5.31
				l5.095,0.073l0.734,4.986c0,0,4.304,0.226,6.322,0.808l3.263-4.31l4.761,1.542l-1.315,6.002c0,0,4.318,2.733,4.874,3.562
				c2.681-1.456,5.19-3.425,5.19-3.425l3.398,3.244l-3.252,5.453c0,0,2.414,3.588,2.812,5.12c3.188-0.734,6.002-0.861,6.002-0.861
				l1.792,5.161l-5.415,2.204c0,0,1.163,4.863,0.708,6.568c2.951,0.437,6.474,1.507,6.474,1.507l-0.247,5.491l-6.724,0.575
				c0,0-1.167,4.137-1.953,5.448l4.646,4.114l-2.44,4.327l-5.819-1.958c0,0-3.413,4.027-3.985,4.62l2.189,4.93l-4.092,3.234
				l-4.268-4.01c0,0-3.234,1.575-5.566,2.342l0.418,6.214l-4.808,1.367l-2.686-5.667c0,0-4.108,0.144-5.809-0.253l-2.328,6.495
				l-4.75-0.773l-0.24-6.967c0,0-4.063-1.404-5.37-1.975c-2.748,2.383-4.663,3.89-4.663,3.89l-3.604-2.526l1.594-5.909
				c0,0-2.566-2.051-3.489-3.983l-5.206,1.761l-2.518-3.879l4.236-4.373C159.118,68.435,157.905,64.932,157.524,63.073
				 M190.405,60.011c2.683-1.268,4.336-3.456,3.083-7.254c-1.25-3.804-6.367-3.366-6.367-3.366
				c-1.919-0.096-5.573,3.247-4.438,6.897C183.812,59.942,187.722,61.278,190.405,60.011"/>
		</g>
		<g id="Ebene_21">
			<g>
				<path fill="#ADADAD" d="M191.714,80.5c-0.072,0-0.141-0.001-0.206-0.004c-0.329-0.014-0.713-0.021-1.143-0.028
					c-3.368-0.056-9.638-0.161-15.68-4.182c-0.689-0.459-0.877-1.39-0.418-2.08c0.46-0.691,1.392-0.876,2.08-0.417
					c5.31,3.534,10.792,3.625,14.067,3.68c0.46,0.008,0.87,0.015,1.224,0.03c1.807,0.077,14.655-2.544,18.396-16.28
					c4.535-15.413-10.521-24.972-10.674-25.067c-0.704-0.437-0.92-1.362-0.483-2.065c0.438-0.705,1.364-0.919,2.065-0.483
					c0.172,0.107,17.142,10.883,11.979,28.433C209.025,76.338,195.582,80.5,191.714,80.5z"/>
			</g>
			<g>
				<path fill="#ADADAD" d="M196.326,90.504c-0.828,0-1.5-0.671-1.5-1.5v-4.221c0-0.829,0.672-1.5,1.5-1.5s1.5,0.671,1.5,1.5v4.221
					C197.826,89.833,197.154,90.504,196.326,90.504z"/>
			</g>
			<g>
				<path fill="#ADADAD" d="M209.397,83.572c-0.58,0-1.132-0.338-1.377-0.903l-1.336-3.078c-0.33-0.76,0.019-1.643,0.778-1.973
					c0.764-0.33,1.645,0.02,1.974,0.779l1.336,3.078c0.33,0.76-0.019,1.643-0.778,1.973
					C209.799,83.532,209.597,83.572,209.397,83.572z"/>
			</g>
			<g>
				<path fill="#ADADAD" d="M219.496,72.608c-0.285,0-0.573-0.081-0.828-0.25l-3.119-2.069c-0.69-0.458-0.879-1.389-0.421-2.079
					c0.46-0.69,1.392-0.878,2.079-0.421l3.119,2.069c0.69,0.458,0.879,1.389,0.421,2.079
					C220.458,72.373,219.981,72.608,219.496,72.608z"/>
			</g>
			<g>
				<path fill="#ADADAD" d="M224.695,61.331c-0.828,0-1.5-0.671-1.5-1.5v-1.706l-4.04-0.947c-0.807-0.189-1.308-0.996-1.118-1.803
					c0.188-0.807,1-1.309,1.802-1.118l5.198,1.218c0.679,0.159,1.158,0.764,1.158,1.46v2.895
					C226.195,60.66,225.523,61.331,224.695,61.331z"/>
			</g>
			<g>
				<path fill="#ADADAD" d="M222.097,45.587c-0.828,0-1.5-0.671-1.5-1.5v-1.783c0-0.829,0.672-1.5,1.5-1.5s1.5,0.671,1.5,1.5v1.783
					C223.597,44.916,222.925,45.587,222.097,45.587z"/>
			</g>
			<g>
				<path fill="#ADADAD" d="M213.109,35.368c-0.28,0-0.563-0.078-0.815-0.242c-0.695-0.451-0.893-1.38-0.441-2.075l1.316-2.028
					l-0.556-0.813c-0.467-0.684-0.291-1.618,0.394-2.084c0.684-0.465,1.617-0.291,2.085,0.393l1.118,1.638
					c0.341,0.5,0.349,1.155,0.019,1.663l-1.86,2.866C214.081,35.127,213.6,35.368,213.109,35.368z"/>
			</g>
			<g>
				<path fill="#ADADAD" d="M201.823,28.061c-0.116,0-0.234-0.014-0.354-0.042c-0.805-0.194-1.3-1.005-1.105-1.81l1.04-4.307
					c0.194-0.805,0.999-1.302,1.811-1.106c0.805,0.194,1.3,1.005,1.105,1.81l-1.04,4.307C203.114,27.6,202.5,28.061,201.823,28.061z
					"/>
			</g>
			<g>
				<path fill="#ADADAD" d="M188.898,24.941c-0.727,0-1.365-0.529-1.48-1.27l-0.601-3.862c-0.127-0.818,0.434-1.585,1.252-1.713
					c0.814-0.119,1.586,0.433,1.713,1.252l0.601,3.862c0.127,0.818-0.434,1.585-1.252,1.713
					C189.053,24.936,188.976,24.941,188.898,24.941z"/>
			</g>
			<g>
				<path fill="#ADADAD" d="M181.772,91.688c-0.14,0-0.281-0.02-0.422-0.061c-0.795-0.232-1.251-1.065-1.019-1.86l1.188-4.066
					c0.231-0.796,1.065-1.252,1.86-1.02s1.251,1.065,1.019,1.86l-1.188,4.066C183.021,91.262,182.422,91.688,181.772,91.688z"/>
			</g>
			<g>
				<path fill="#ADADAD" d="M167.514,86.284c-0.452,0-0.899-0.204-1.194-0.592c-0.502-0.659-0.374-1.6,0.285-2.102l3.564-2.712
					c0.658-0.502,1.601-0.375,2.102,0.286c0.502,0.659,0.374,1.6-0.285,2.102l-3.564,2.712
					C168.149,86.184,167.83,86.284,167.514,86.284z"/>
			</g>
			<g>
				<path fill="#ADADAD" d="M158.006,75.739c-0.61,0-1.184-0.375-1.407-0.981c-0.287-0.777,0.11-1.64,0.888-1.927l3.621-1.337
					c0.773-0.286,1.64,0.11,1.927,0.888c0.287,0.777-0.11,1.64-0.888,1.927l-3.621,1.337
					C158.354,75.709,158.179,75.739,158.006,75.739z"/>
			</g>
			<g>
				<path fill="#ADADAD" d="M175.516,27.213c-0.749,0-1.376-0.552-1.482-1.28c-0.151-0.431-0.917-1.825-1.567-2.907
					c-0.427-0.71-0.197-1.631,0.513-2.059c0.706-0.426,1.631-0.198,2.058,0.513c1.953,3.247,1.971,3.861,1.979,4.19
					c0.023,0.828-0.628,1.519-1.456,1.542C175.545,27.213,175.53,27.213,175.516,27.213z"/>
			</g>
		</g>
		<g>
			<path fill="#7C7C7C" d="M183.129,94.668c-0.08,0-0.161-0.006-0.242-0.02l-4.75-0.773c-0.706-0.115-1.233-0.713-1.258-1.429
				l-0.205-5.941c-0.988-0.348-2.521-0.894-3.62-1.318c-2.363,2.028-3.949,3.278-4.021,3.335c-0.52,0.411-1.248,0.43-1.789,0.049
				l-3.604-2.526c-0.517-0.362-0.751-1.009-0.587-1.619l1.348-4.995c-0.686-0.618-1.688-1.603-2.457-2.698l-4.063,1.375
				c-0.648,0.222-1.365-0.029-1.738-0.604l-2.518-3.879c-0.381-0.586-0.306-1.358,0.181-1.86l3.6-3.716
				c-0.292-0.881-0.738-2.275-1.064-3.492c-3.428-0.07-5.424-0.303-5.516-0.314c-0.64-0.076-1.159-0.552-1.291-1.183l-1.002-4.795
				c-0.149-0.718,0.242-1.439,0.926-1.705l5.004-1.941c0.088-0.873,0.245-2.199,0.486-3.362c-3.051-1.683-4.339-2.593-4.397-2.634
				c-0.517-0.368-0.746-1.021-0.573-1.631l1.314-4.642c0.183-0.646,0.772-1.091,1.443-1.091c0.001,0,0.002,0,0.002,0l4.939,0.007
				c0.483-0.868,1.297-2.279,2.08-3.409c-1.941-2.464-2.637-4.121-2.669-4.198c-0.217-0.525-0.118-1.129,0.256-1.558l3.071-3.525
				c0.468-0.538,1.249-0.672,1.873-0.318l3.666,2.086c0.809-0.69,2.1-1.715,3.439-2.465c-0.982-3.073-0.956-4.657-0.949-4.847
				c0.022-0.574,0.371-1.085,0.896-1.315l5.138-2.253c0.69-0.305,1.493-0.047,1.884,0.593l2.011,3.301
				c1.117-0.301,2.862-0.76,4.179-1.051c0.521-2.728,1.168-4.483,1.199-4.565c0.221-0.594,0.784-0.993,1.427-0.976l5.095,0.073
				c0.735,0.011,1.355,0.553,1.463,1.281l0.558,3.79c1.178,0.091,2.978,0.263,4.406,0.542l2.675-3.533
				c0.386-0.51,1.055-0.718,1.658-0.521l4.761,1.542c0.734,0.238,1.169,0.994,1.003,1.748l-1.092,4.981
				c1.229,0.797,2.514,1.678,3.405,2.411c2.163-1.284,4.023-2.738,4.045-2.754c0.585-0.459,1.421-0.42,1.962,0.095l3.398,3.244
				c0.506,0.483,0.61,1.252,0.252,1.854l-2.771,4.646c0.562,0.877,1.402,2.243,1.968,3.431c2.725-0.524,4.905-0.627,5.01-0.632
				c0.662-0.026,1.268,0.379,1.484,1.006l1.792,5.161c0.262,0.754-0.112,1.581-0.852,1.881l-4.244,1.728
				c0.243,1.201,0.544,2.957,0.568,4.408c2.626,0.506,5.188,1.281,5.313,1.319c0.655,0.199,1.093,0.818,1.062,1.502l-0.247,5.491
				c-0.033,0.752-0.62,1.363-1.37,1.427l-5.701,0.487c-0.3,0.992-0.782,2.504-1.265,3.666l3.802,3.366
				c0.529,0.469,0.66,1.244,0.312,1.86l-2.44,4.327c-0.354,0.626-1.103,0.912-1.785,0.685l-4.855-1.634
				c-0.745,0.876-1.929,2.262-2.706,3.151l1.796,4.044c0.277,0.626,0.097,1.361-0.44,1.786l-4.093,3.234
				c-0.582,0.459-1.414,0.426-1.957-0.083l-3.522-3.311c-0.91,0.421-2.345,1.063-3.711,1.581l0.342,5.082
				c0.047,0.706-0.406,1.35-1.087,1.543l-4.808,1.367c-0.703,0.2-1.452-0.139-1.766-0.8l-2.27-4.789
				c-0.227,0.003-0.481,0.005-0.756,0.005c-1.245,0-2.287-0.039-3.115-0.117l-1.914,5.34
				C184.323,94.278,183.753,94.668,183.129,94.668z M179.835,91.113l2.302,0.375l1.907-5.32c0.258-0.717,1.015-1.126,1.753-0.955
				c0.651,0.152,2.026,0.239,3.772,0.239c0.932,0,1.632-0.024,1.643-0.024c0.595-0.02,1.151,0.315,1.408,0.856l2.142,4.52
				l2.418-0.688l-0.337-5.002c-0.046-0.684,0.378-1.312,1.028-1.525c2.21-0.727,5.347-2.251,5.378-2.266
				c0.562-0.271,1.23-0.171,1.685,0.255l3.325,3.125l2.163-1.71l-1.717-3.866c-0.248-0.558-0.133-1.211,0.291-1.65
				c0.396-0.41,2.562-2.945,3.921-4.548c0.398-0.469,1.042-0.647,1.623-0.452l4.644,1.562l1.235-2.19l-3.738-3.31
				c-0.541-0.479-0.664-1.275-0.292-1.895c0.497-0.829,1.365-3.558,1.796-5.084c0.169-0.601,0.693-1.034,1.315-1.087l5.412-0.462
				l0.135-2.992c-1.245-0.342-3.323-0.871-5.142-1.14c-0.423-0.062-0.799-0.303-1.033-0.66c-0.235-0.357-0.307-0.798-0.196-1.211
				c0.22-0.825-0.201-3.669-0.718-5.833c-0.172-0.72,0.208-1.459,0.894-1.738l4.097-1.667l-0.946-2.724
				c-1.068,0.103-2.791,0.316-4.627,0.739c-0.793,0.18-1.584-0.298-1.789-1.084c-0.229-0.886-1.662-3.258-2.604-4.66
				c-0.324-0.482-0.342-1.107-0.044-1.606l2.639-4.425l-1.615-1.542c-1.013,0.733-2.641,1.851-4.356,2.783
				c-0.681,0.369-1.532,0.16-1.962-0.483c-0.344-0.404-2.577-1.958-4.43-3.13c-0.533-0.337-0.799-0.973-0.663-1.589l1.023-4.673
				l-2.452-0.794l-2.618,3.459c-0.377,0.495-1.016,0.707-1.612,0.536c-1.518-0.438-4.835-0.69-5.985-0.751
				c-0.713-0.038-1.301-0.573-1.405-1.279l-0.548-3.724l-2.71-0.039c-0.26,0.878-0.629,2.289-0.912,4.035
				c-0.103,0.635-0.6,1.134-1.233,1.239c-1.623,0.271-5.972,1.479-6.016,1.492c-0.647,0.182-1.335-0.091-1.684-0.665l-1.916-3.146
				l-2.952,1.294c0.123,0.809,0.418,2.175,1.124,4.108c0.281,0.771-0.109,1.626-0.877,1.917c-1.662,0.63-3.881,2.531-4.596,3.21
				c-0.48,0.456-1.2,0.542-1.775,0.216l-3.535-2.012l-1.599,1.834c0.429,0.753,1.225,2,2.534,3.54
				c0.477,0.561,0.477,1.385-0.001,1.945c-0.937,1.098-2.421,3.75-2.914,4.679c-0.261,0.49-0.771,0.797-1.325,0.797
				c-0.001,0-0.002,0-0.002,0l-4.695-0.007l-0.704,2.486c0.798,0.499,2.171,1.319,4.234,2.428c0.638,0.343,0.939,1.094,0.716,1.783
				c-0.418,1.293-0.68,3.925-0.745,4.83c-0.042,0.579-0.413,1.081-0.953,1.291l-4.688,1.819l0.515,2.465
				c1.063,0.083,2.886,0.193,5.293,0.212c0.708,0.005,1.315,0.505,1.458,1.199c0.356,1.74,1.529,5.138,1.541,5.172
				c0.186,0.535,0.054,1.128-0.34,1.534l-3.405,3.515l1.233,1.899l4.102-1.388c0.716-0.243,1.507,0.088,1.834,0.774
				c0.636,1.33,2.434,2.947,3.072,3.458c0.466,0.373,0.667,0.986,0.512,1.562l-1.32,4.894l1.82,1.276
				c0.811-0.66,2.137-1.756,3.742-3.148c0.436-0.379,1.053-0.472,1.582-0.242c1.238,0.541,5.221,1.918,5.261,1.932
				c0.586,0.203,0.987,0.746,1.009,1.366L179.835,91.113z M188.255,61.978L188.255,61.978c-2.68,0-5.885-1.623-7.005-5.247
				c-0.624-2.007-0.213-4.14,1.159-6.003c1.251-1.698,3.111-2.839,4.63-2.839c0.009,0,0.027,0,0.048,0
				c0.101-0.006,0.277-0.014,0.513-0.014c3.671,0,6.405,1.649,7.313,4.413c1.335,4.045-0.039,7.27-3.867,9.079
				C190.2,61.767,189.235,61.978,188.255,61.978z M187.039,49.389v1.5c-0.345,0-1.382,0.488-2.214,1.618
				c-0.459,0.623-1.161,1.885-0.71,3.336c0.67,2.166,2.562,3.135,4.14,3.135c0,0,0,0,0.001,0c0.539,0,1.061-0.112,1.509-0.324
				c2.48-1.172,3.168-2.795,2.299-5.428c-0.697-2.122-3.354-2.351-4.464-2.351c-0.202,0-0.331,0.008-0.356,0.01
				c-0.063,0.005-0.134,0.007-0.197,0.003L187.039,49.389z"/>
		</g>
		<g>
			<path fill="#7C7C7C" d="M188.621,83.571c-8.406,0-15.988-3.287-21.352-9.254c-11.194-12.458-6.748-25.519-3.102-32.196
				c3.196-5.829,14.001-14.257,25.178-14.257c1.057,0,2.105,0.076,3.119,0.227c0.643,0.098,15.714,2.527,21.754,16.227
				c5.741,13.048-0.32,26.526-8.382,33.527C201.71,81.43,195.273,83.571,188.621,83.571z M189.346,30.864
				c-9.654,0-19.639,7.395-22.546,12.697c-3.989,7.304-6.759,18.223,2.701,28.751c4.786,5.326,11.576,8.259,19.12,8.259
				c5.95,0,11.65-1.866,15.249-4.992c6.057-5.261,13.08-17.606,7.604-30.054c-5.382-12.205-19.314-14.447-19.454-14.469
				C191.156,30.929,190.255,30.864,189.346,30.864z"/>
		</g>
	</g>
</g>
<g id="Ebene_20">
	<g>
		<g>
			<path fill="#F7941E" d="M124,126.158c6.449,0,6.449-10,0-10C117.551,116.158,117.551,126.158,124,126.158L124,126.158z"/>
		</g>
	</g>
	<g>
		<path fill="#353535" d="M140.5,135.886l-5.812-7.864c0,0-46.188-25.354-51.688-39.188c-10.5-4.333-12.809-4.667-12.809-4.667
			S85.044,106.748,104.393,122C116.276,131.368,132.192,136.92,140.5,135.886z"/>
	</g>
	<g>
		<path fill="#232323" d="M134.364,128.725c-1.847,0-6.562-1.862-21.058-11.845c-9.243-6.366-21.146-15.313-26.905-20.952
			c-2.925-2.865-4.493-4.966-3.274-6.592l2.4,1.8c0.223-0.297,0.211-0.597,0.189-0.679c1.193,4.533,43.344,35.193,48.496,35.275
			c-0.076,0.002-0.287,0.035-0.513,0.212l1.85,2.361C135.31,128.495,135.015,128.725,134.364,128.725z"/>
	</g>
</g>
<g id="Ebene_19">
	<g>
		<g>
			<path fill="#F7941E" d="M91,93.667c6.449,0,6.449-10,0-10S84.551,93.667,91,93.667L91,93.667z"/>
		</g>
	</g>
	<g>
		<g>
			<path d="M77,75.074c6.449,0,6.449-10,0-10S70.551,75.074,77,75.074L77,75.074z"/>
		</g>
	</g>
	<g>
		<g>
			<path fill="#F7941E" d="M77,51c6.449,0,6.449-10,0-10S70.551,51,77,51L77,51z"/>
		</g>
	</g>
	<g>
		<g>
			<path d="M63.667,26c6.449,0,6.449-10,0-10S57.218,26,63.667,26L63.667,26z"/>
		</g>
	</g>
	<g>
		<g>
			<path fill="#F7941E" d="M116.667,17.333c6.449,0,6.449-10,0-10S110.218,17.333,116.667,17.333L116.667,17.333z"/>
		</g>
	</g>
	<g>
		<g>
			<path fill="#F7941E" d="M148.24,118.301c6.448,0,6.448-10,0-10S141.792,118.301,148.24,118.301L148.24,118.301z"/>
		</g>
	</g>
	<g>
		<g>
			<path d="M167.348,120.009c6.448,0,6.448-10,0-10S160.899,120.009,167.348,120.009L167.348,120.009z"/>
		</g>
	</g>
	<g>
		<g>
			<path fill="#F7941E" d="M173.751,104.845c6.448,0,6.448-10,0-10S167.303,104.845,173.751,104.845L173.751,104.845z"/>
		</g>
	</g>
	<g>
		<g>
			<path fill="#F7941E" d="M209.396,111.552c6.448,0,6.448-10,0-10S202.948,111.552,209.396,111.552L209.396,111.552z"/>
		</g>
	</g>
	<g>
		<g>
			<path fill="#F7941E" d="M236,100.805c6.448,0,6.448-10,0-10S229.552,100.805,236,100.805L236,100.805z"/>
		</g>
	</g>
	<g>
		<g>
			<path fill="#F7941E" d="M240.667,77.902c6.448,0,6.448-10,0-10S234.219,77.902,240.667,77.902L240.667,77.902z"/>
		</g>
	</g>
	<g>
		<g>
			<path d="M188.9,125.372c6.448,0,6.448-10,0-10S182.452,125.372,188.9,125.372L188.9,125.372z"/>
		</g>
	</g>
	<g>
		<g>
			<path d="M218,63.25c6.448,0,6.448-10,0-10S211.552,63.25,218,63.25L218,63.25z"/>
		</g>
	</g>
	<g>
		<g>
			<path fill="#F7941E" d="M92.175,64.831c6.449,0,6.449-10,0-10S85.727,64.831,92.175,64.831L92.175,64.831z"/>
		</g>
	</g>
</g>
</svg>
