<?xml version="1.0" encoding="utf-8"?>
<!-- Generator: Adobe Illustrator 16.0.0, SVG Export Plug-In . SVG Version: 6.00 Build 0)  -->
<!DOCTYPE svg PUBLIC "-//W3C//DTD SVG 1.1//EN" "http://www.w3.org/Graphics/SVG/1.1/DTD/svg11.dtd">
<svg version="1.1" xmlns="http://www.w3.org/2000/svg" xmlns:xlink="http://www.w3.org/1999/xlink" x="0px" y="0px" width="400px"
	 height="300px" viewBox="0 0 400 300" enable-background="new 0 0 400 300" xml:space="preserve">
<g id="Error_Message">
	<g>
		<polygon fill="#EBECEB" points="13.582,44.927 12.219,163.647 188.062,157.4 188.062,41.479 11.54,41.479 10.859,159.554 
			189.695,159.123 189.695,41.479 		"/>
	</g>
	<g>
		<polygon fill="#565656" points="190.514,71.532 10.859,73.966 10.859,41.479 189.695,41.479 		"/>
	</g>
	<g>
		<path d="M12.219,163.645c-0.261,0-0.512-0.102-0.699-0.284c-0.195-0.191-0.304-0.454-0.301-0.728l0.035-3.052l-0.393,0.001
			c-0.001,0-0.001,0-0.002,0c-0.266,0-0.521-0.105-0.708-0.294c-0.188-0.189-0.293-0.445-0.292-0.712l0.68-117.103
			c0.003-0.55,0.45-0.994,1-0.994h176.522c0.08,0,0.157,0.009,0.232,0.027l1.382-0.027c0.299,0.001,0.528,0.098,0.72,0.286
			c0.192,0.188,0.3,0.445,0.3,0.714v116.677c0,0.552-0.446,0.999-0.998,1l-53.74,0.128l-123.704,4.359
			C12.243,163.645,12.231,163.645,12.219,163.645z M13.255,159.576l-0.023,2.032l61.829-2.18L13.255,159.576z M14.571,45.88
			l-1.293,111.696l122.642-0.292l51.142-1.803V42.531L14.571,45.88z M12.534,42.479l-0.077,13.224l0.125-10.816
			c0.006-0.54,0.44-0.978,0.98-0.988l73.116-1.419H12.534z"/>
	</g>
	<g>
		<path d="M19.324,75.634c-0.542,0-0.987-0.434-1-0.978c-0.005-0.258,0.087-0.496,0.244-0.677l-4.838,0.057
			c-0.57-0.031-1.006-0.436-1.012-0.988c-0.006-0.552,0.436-1.005,0.988-1.012l173.119-2.043c0.537,0,1.002,0.434,1.012,0.983
			c0.009,0.55-0.428,1.004-0.978,1.017L19.346,75.634C19.338,75.634,19.331,75.634,19.324,75.634z"/>
	</g>
	<g>
		<path fill="#919191" d="M68.221,123.883c0,0-0.819,20.733,0.273,22.976c1.091,2.243,63.841,0.561,63.841,0.561l3.001-21.295
			l-70.117-2.241v24.533l68.752-2.398l-0.272-22.135H68.221z"/>
		<path d="M65.219,149.417c-0.259,0-0.508-0.1-0.695-0.281c-0.195-0.188-0.305-0.448-0.305-0.719v-24.533
			c0-0.271,0.11-0.53,0.304-0.718s0.472-0.297,0.728-0.281l2.602,0.083c0.114-0.053,0.238-0.083,0.368-0.083h65.479
			c0.547,0,0.993,0.44,1,0.988l0.015,1.233l0.653,0.021c0.284,0.009,0.551,0.138,0.733,0.356c0.183,0.217,0.265,0.502,0.225,0.783
			l-1.47,10.428l0.115,9.314c0.007,0.543-0.422,0.993-0.965,1.012l-0.607,0.021l-0.073,0.521c-0.068,0.483-0.476,0.847-0.963,0.86
			c-0.226,0.006-22.809,0.606-40.919,0.606c-4.565,0-8.515-0.038-11.743-0.113l-14.446,0.504
			C65.243,149.417,65.231,149.417,65.219,149.417z M66.219,124.916v22.465l1.393-0.048c-0.006-0.012-0.012-0.024-0.018-0.036
			c-1.028-2.111-0.623-16.542-0.415-22.35L66.219,124.916z M69.315,146.192c0.599,0.178,2.744,0.54,10.373,0.719l51.964-1.813
			l1.203-8.534l-0.117-9.522l-63.559-2.032C68.85,134.199,68.796,144.2,69.315,146.192z M127.806,124.883l4.908,0.157l-0.002-0.157
			H127.806z"/>
	</g>
	<g>
		<path d="M95.549,142.138c-0.746,0-1.431-0.131-2.057-0.394c-0.626-0.262-1.162-0.623-1.608-1.083
			c-0.446-0.46-0.796-1.002-1.049-1.628c-0.253-0.625-0.38-1.302-0.38-2.029c0-0.727,0.126-1.403,0.38-2.029
			c0.253-0.625,0.603-1.168,1.049-1.629c0.446-0.46,0.982-0.821,1.608-1.083c0.625-0.262,1.311-0.394,2.057-0.394
			c0.745,0,1.43,0.131,2.056,0.394c0.625,0.262,1.162,0.623,1.608,1.083c0.446,0.46,0.796,1.003,1.049,1.629
			c0.253,0.626,0.38,1.302,0.38,2.029c0,0.727-0.127,1.403-0.38,2.029c-0.253,0.626-0.603,1.168-1.049,1.628
			c-0.446,0.46-0.982,0.821-1.608,1.083C96.979,142.006,96.294,142.138,95.549,142.138z M95.549,140.896
			c0.561,0,1.067-0.104,1.518-0.311c0.451-0.207,0.837-0.485,1.159-0.835s0.57-0.761,0.745-1.235
			c0.175-0.474,0.263-0.978,0.263-1.511s-0.088-1.037-0.263-1.511s-0.423-0.886-0.745-1.235s-0.708-0.628-1.159-0.835
			c-0.451-0.207-0.957-0.311-1.518-0.311c-0.562,0-1.068,0.104-1.519,0.311s-0.837,0.485-1.159,0.835
			c-0.322,0.35-0.571,0.761-0.745,1.235c-0.175,0.474-0.262,0.978-0.262,1.511s0.087,1.038,0.262,1.511
			c0.174,0.474,0.423,0.886,0.745,1.235c0.322,0.35,0.708,0.628,1.159,0.835S94.988,140.896,95.549,140.896z"/>
		<path d="M102.546,132.118h1.325v4.223h0.11l4.32-4.223h1.85l-4.72,4.513l5.038,5.258h-1.932l-4.555-4.886h-0.11v4.886h-1.325
			V132.118z"/>
	</g>
	<g>
		<path d="M32.475,88.762h1.201l4.182,9.771h-1.546l-0.98-2.416h-4.651l-0.966,2.416h-1.546L32.475,88.762z M34.849,94.958
			l-1.822-4.485H33l-1.849,4.485H34.849z"/>
		<path d="M38.81,91.991h1.242v1.007h0.028c0.156-0.349,0.428-0.632,0.814-0.849c0.387-0.216,0.833-0.324,1.339-0.324
			c0.312,0,0.614,0.048,0.904,0.145c0.29,0.096,0.543,0.246,0.759,0.448c0.216,0.203,0.389,0.462,0.518,0.78
			s0.193,0.692,0.193,1.125v4.209h-1.242v-3.864c0-0.304-0.042-0.563-0.125-0.78c-0.083-0.216-0.193-0.391-0.331-0.525
			c-0.138-0.133-0.297-0.229-0.476-0.29c-0.18-0.06-0.366-0.09-0.559-0.09c-0.258,0-0.497,0.042-0.718,0.125
			c-0.221,0.083-0.414,0.214-0.58,0.393c-0.166,0.18-0.294,0.407-0.386,0.683c-0.092,0.276-0.138,0.603-0.138,0.98v3.368H38.81
			V91.991z"/>
		<path d="M51.259,95.718c0,0.285,0.062,0.545,0.187,0.78c0.124,0.234,0.287,0.435,0.49,0.6c0.202,0.166,0.437,0.295,0.704,0.387
			c0.267,0.092,0.542,0.138,0.828,0.138c0.386,0,0.722-0.089,1.007-0.269c0.285-0.179,0.547-0.416,0.787-0.71L56.2,97.36
			c-0.69,0.893-1.656,1.339-2.898,1.339c-0.515,0-0.982-0.087-1.4-0.262c-0.419-0.175-0.773-0.416-1.063-0.725
			c-0.29-0.308-0.513-0.671-0.669-1.09c-0.156-0.418-0.234-0.872-0.234-1.359s0.085-0.94,0.255-1.359
			c0.17-0.418,0.405-0.782,0.704-1.09s0.656-0.55,1.07-0.725s0.865-0.262,1.353-0.262c0.58,0,1.069,0.101,1.47,0.304
			c0.4,0.202,0.729,0.467,0.987,0.793c0.257,0.327,0.444,0.695,0.559,1.104c0.115,0.41,0.172,0.826,0.172,1.249v0.442H51.259z
			 M55.179,94.724c-0.009-0.276-0.053-0.529-0.131-0.759s-0.195-0.43-0.352-0.601c-0.156-0.17-0.352-0.303-0.586-0.4
			c-0.234-0.097-0.508-0.145-0.821-0.145c-0.304,0-0.582,0.058-0.835,0.172c-0.253,0.115-0.467,0.265-0.642,0.449
			s-0.311,0.389-0.407,0.614s-0.145,0.448-0.145,0.669H55.179z"/>
		<path d="M57.995,91.991h1.242v1.007h0.028c0.083-0.174,0.193-0.333,0.331-0.476c0.138-0.143,0.292-0.264,0.462-0.366
			c0.17-0.101,0.356-0.182,0.559-0.241c0.202-0.06,0.405-0.09,0.607-0.09c0.203,0,0.387,0.027,0.552,0.083l-0.055,1.339
			c-0.102-0.027-0.203-0.05-0.304-0.069c-0.102-0.019-0.203-0.028-0.304-0.028c-0.607,0-1.072,0.17-1.394,0.511
			c-0.322,0.341-0.483,0.87-0.483,1.587v3.285h-1.242V91.991z"/>
		<path d="M63.101,91.991h1.242v1.007h0.028c0.083-0.174,0.193-0.333,0.331-0.476c0.138-0.143,0.292-0.264,0.462-0.366
			c0.17-0.101,0.356-0.182,0.559-0.241c0.202-0.06,0.405-0.09,0.607-0.09c0.203,0,0.387,0.027,0.552,0.083l-0.055,1.339
			c-0.102-0.027-0.203-0.05-0.304-0.069c-0.102-0.019-0.203-0.028-0.304-0.028c-0.607,0-1.072,0.17-1.394,0.511
			c-0.322,0.341-0.483,0.87-0.483,1.587v3.285h-1.242V91.991z"/>
		<path d="M67.642,95.262c0-0.479,0.09-0.925,0.269-1.339c0.18-0.414,0.426-0.777,0.738-1.09c0.313-0.312,0.681-0.559,1.104-0.738
			c0.423-0.179,0.878-0.269,1.366-0.269s0.943,0.09,1.366,0.269s0.792,0.426,1.104,0.738c0.312,0.313,0.559,0.676,0.738,1.09
			c0.179,0.414,0.269,0.86,0.269,1.339s-0.09,0.927-0.269,1.346c-0.18,0.419-0.426,0.782-0.738,1.09
			c-0.313,0.308-0.681,0.552-1.104,0.731s-0.878,0.269-1.366,0.269s-0.943-0.09-1.366-0.269c-0.423-0.179-0.792-0.423-1.104-0.731
			c-0.312-0.308-0.559-0.671-0.738-1.09C67.731,96.189,67.642,95.741,67.642,95.262z M68.966,95.262
			c0,0.331,0.051,0.637,0.152,0.918c0.102,0.281,0.244,0.52,0.428,0.718c0.184,0.198,0.409,0.354,0.676,0.469
			c0.267,0.115,0.566,0.172,0.897,0.172s0.63-0.058,0.897-0.172c0.267-0.115,0.492-0.271,0.676-0.469s0.327-0.437,0.428-0.718
			c0.102-0.281,0.152-0.587,0.152-0.918s-0.05-0.637-0.152-0.918c-0.101-0.28-0.244-0.52-0.428-0.717s-0.409-0.354-0.676-0.47
			c-0.267-0.115-0.566-0.172-0.897-0.172s-0.63,0.058-0.897,0.172c-0.267,0.115-0.493,0.272-0.676,0.47
			c-0.185,0.198-0.327,0.437-0.428,0.717C69.017,94.625,68.966,94.931,68.966,95.262z"/>
		<path d="M76.157,91.991h1.242v1.007h0.028c0.083-0.174,0.193-0.333,0.331-0.476c0.138-0.143,0.292-0.264,0.462-0.366
			c0.17-0.101,0.356-0.182,0.559-0.241c0.202-0.06,0.405-0.09,0.607-0.09c0.203,0,0.387,0.027,0.552,0.083l-0.055,1.339
			c-0.102-0.027-0.203-0.05-0.304-0.069c-0.102-0.019-0.203-0.028-0.304-0.028c-0.607,0-1.072,0.17-1.394,0.511
			c-0.322,0.341-0.483,0.87-0.483,1.587v3.285h-1.242V91.991z"/>
		<path d="M85.101,88.099h1.242v4.899h0.028c0.156-0.349,0.428-0.632,0.814-0.849c0.387-0.216,0.833-0.324,1.339-0.324
			c0.312,0,0.614,0.048,0.904,0.145c0.29,0.096,0.543,0.246,0.759,0.448c0.216,0.203,0.389,0.462,0.518,0.78
			s0.193,0.692,0.193,1.125v4.209h-1.242v-3.864c0-0.304-0.042-0.563-0.125-0.78c-0.083-0.216-0.193-0.391-0.331-0.525
			c-0.138-0.133-0.297-0.229-0.476-0.29c-0.18-0.06-0.366-0.09-0.559-0.09c-0.258,0-0.497,0.042-0.718,0.125
			c-0.221,0.083-0.414,0.214-0.58,0.393c-0.166,0.18-0.294,0.407-0.386,0.683c-0.092,0.276-0.138,0.603-0.138,0.98v3.368h-1.242
			V88.099z"/>
		<path d="M92.802,92.792c0.35-0.322,0.754-0.563,1.214-0.725c0.46-0.161,0.92-0.241,1.38-0.241c0.478,0,0.89,0.06,1.235,0.179
			c0.345,0.12,0.628,0.281,0.849,0.483c0.221,0.202,0.384,0.435,0.49,0.697s0.159,0.536,0.159,0.821v3.34
			c0,0.23,0.004,0.442,0.014,0.635c0.009,0.193,0.023,0.377,0.042,0.552h-1.104c-0.028-0.331-0.042-0.663-0.042-0.994h-0.027
			c-0.276,0.423-0.603,0.722-0.98,0.897c-0.377,0.175-0.814,0.262-1.311,0.262c-0.304,0-0.594-0.042-0.87-0.124
			c-0.276-0.083-0.518-0.207-0.725-0.373c-0.207-0.166-0.371-0.371-0.49-0.614s-0.179-0.527-0.179-0.849
			c0-0.423,0.094-0.777,0.283-1.062s0.446-0.518,0.773-0.697c0.327-0.18,0.708-0.309,1.146-0.387s0.904-0.117,1.401-0.117h0.911
			V94.2c0-0.166-0.032-0.332-0.097-0.497s-0.161-0.315-0.29-0.449c-0.129-0.133-0.29-0.239-0.483-0.317
			c-0.193-0.078-0.423-0.117-0.69-0.117c-0.239,0-0.449,0.023-0.628,0.069c-0.18,0.046-0.343,0.104-0.49,0.173
			c-0.147,0.069-0.281,0.149-0.4,0.241c-0.12,0.092-0.235,0.18-0.345,0.262L92.802,92.792z M96.308,95.386
			c-0.294,0-0.596,0.017-0.904,0.048c-0.309,0.033-0.589,0.095-0.842,0.187c-0.253,0.092-0.46,0.221-0.621,0.386
			c-0.161,0.166-0.242,0.377-0.242,0.635c0,0.377,0.126,0.648,0.379,0.814s0.596,0.249,1.028,0.249c0.34,0,0.63-0.057,0.87-0.172
			c0.239-0.115,0.432-0.265,0.58-0.449c0.147-0.184,0.253-0.389,0.317-0.614c0.064-0.225,0.097-0.448,0.097-0.669v-0.414H96.308z"/>
		<path d="M103.416,93.634c-0.147-0.184-0.329-0.338-0.545-0.462c-0.216-0.125-0.481-0.187-0.794-0.187
			c-0.294,0-0.55,0.062-0.766,0.187c-0.216,0.124-0.325,0.306-0.325,0.545c0,0.193,0.062,0.35,0.187,0.469
			c0.124,0.12,0.271,0.216,0.441,0.29s0.352,0.129,0.545,0.166c0.193,0.037,0.359,0.069,0.497,0.097
			c0.267,0.064,0.518,0.143,0.752,0.234c0.234,0.092,0.437,0.212,0.607,0.359c0.17,0.147,0.303,0.327,0.4,0.539
			c0.097,0.211,0.145,0.469,0.145,0.773c0,0.368-0.078,0.683-0.234,0.945c-0.157,0.262-0.359,0.476-0.607,0.642
			s-0.531,0.285-0.849,0.359c-0.318,0.074-0.638,0.11-0.959,0.11c-0.543,0-1.019-0.083-1.428-0.249
			c-0.41-0.166-0.775-0.469-1.098-0.911l0.939-0.773c0.202,0.203,0.428,0.382,0.676,0.538c0.248,0.157,0.552,0.235,0.911,0.235
			c0.156,0,0.315-0.016,0.476-0.048s0.304-0.083,0.428-0.152c0.125-0.069,0.226-0.156,0.304-0.262
			c0.078-0.105,0.118-0.228,0.118-0.366c0-0.184-0.058-0.336-0.173-0.456s-0.253-0.214-0.414-0.283
			c-0.161-0.069-0.331-0.125-0.511-0.166c-0.179-0.042-0.338-0.076-0.476-0.104c-0.267-0.064-0.52-0.138-0.759-0.221
			c-0.24-0.083-0.451-0.193-0.635-0.331s-0.331-0.313-0.441-0.524s-0.166-0.474-0.166-0.787c0-0.34,0.071-0.637,0.214-0.891
			c0.143-0.253,0.331-0.462,0.566-0.628c0.234-0.166,0.501-0.29,0.8-0.373c0.299-0.083,0.601-0.124,0.904-0.124
			c0.441,0,0.865,0.083,1.27,0.249c0.405,0.166,0.727,0.441,0.966,0.828L103.416,93.634z"/>
		<path d="M109.902,88.099h1.242v4.831h0.028c0.221-0.34,0.538-0.609,0.952-0.807s0.855-0.297,1.325-0.297
			c0.506,0,0.964,0.087,1.374,0.262c0.409,0.175,0.759,0.417,1.049,0.725s0.513,0.672,0.669,1.09
			c0.156,0.419,0.234,0.872,0.234,1.359s-0.078,0.938-0.234,1.353c-0.157,0.414-0.379,0.778-0.669,1.09
			c-0.29,0.313-0.64,0.557-1.049,0.731c-0.41,0.175-0.868,0.262-1.374,0.262c-0.441,0-0.872-0.097-1.29-0.29
			c-0.419-0.193-0.748-0.465-0.987-0.814h-0.028v0.938h-1.242V88.099z M113.297,97.54c0.332,0,0.63-0.058,0.897-0.172
			c0.267-0.115,0.492-0.271,0.676-0.469c0.184-0.198,0.326-0.437,0.428-0.718c0.101-0.281,0.152-0.587,0.152-0.918
			s-0.051-0.637-0.152-0.918c-0.102-0.28-0.244-0.52-0.428-0.717c-0.184-0.198-0.41-0.354-0.676-0.47
			c-0.267-0.115-0.566-0.172-0.897-0.172c-0.331,0-0.63,0.058-0.897,0.172c-0.267,0.115-0.492,0.272-0.676,0.47
			s-0.327,0.437-0.428,0.717c-0.102,0.281-0.152,0.587-0.152,0.918s0.05,0.637,0.152,0.918c0.101,0.281,0.244,0.52,0.428,0.718
			s0.409,0.354,0.676,0.469C112.667,97.482,112.966,97.54,113.297,97.54z"/>
		<path d="M119.273,95.718c0,0.285,0.062,0.545,0.187,0.78c0.124,0.234,0.287,0.435,0.49,0.6c0.202,0.166,0.437,0.295,0.704,0.387
			c0.267,0.092,0.542,0.138,0.828,0.138c0.386,0,0.722-0.089,1.007-0.269c0.285-0.179,0.547-0.416,0.787-0.71l0.938,0.717
			c-0.69,0.893-1.656,1.339-2.898,1.339c-0.515,0-0.982-0.087-1.4-0.262c-0.419-0.175-0.773-0.416-1.063-0.725
			c-0.29-0.308-0.513-0.671-0.669-1.09c-0.156-0.418-0.234-0.872-0.234-1.359s0.085-0.94,0.255-1.359
			c0.17-0.418,0.405-0.782,0.704-1.09s0.656-0.55,1.07-0.725s0.865-0.262,1.353-0.262c0.58,0,1.069,0.101,1.47,0.304
			c0.4,0.202,0.729,0.467,0.987,0.793c0.257,0.327,0.444,0.695,0.559,1.104c0.115,0.41,0.172,0.826,0.172,1.249v0.442H119.273z
			 M123.193,94.724c-0.009-0.276-0.053-0.529-0.131-0.759s-0.195-0.43-0.352-0.601c-0.156-0.17-0.352-0.303-0.586-0.4
			c-0.234-0.097-0.508-0.145-0.821-0.145c-0.304,0-0.582,0.058-0.835,0.172c-0.253,0.115-0.467,0.265-0.642,0.449
			s-0.311,0.389-0.407,0.614s-0.145,0.448-0.145,0.669H123.193z"/>
		<path d="M126.947,95.718c0,0.285,0.062,0.545,0.187,0.78c0.124,0.234,0.287,0.435,0.49,0.6c0.202,0.166,0.437,0.295,0.704,0.387
			c0.267,0.092,0.542,0.138,0.828,0.138c0.386,0,0.722-0.089,1.007-0.269c0.285-0.179,0.547-0.416,0.787-0.71l0.938,0.717
			c-0.69,0.893-1.656,1.339-2.898,1.339c-0.515,0-0.982-0.087-1.4-0.262c-0.419-0.175-0.773-0.416-1.063-0.725
			c-0.29-0.308-0.513-0.671-0.669-1.09c-0.156-0.418-0.234-0.872-0.234-1.359s0.085-0.94,0.255-1.359
			c0.17-0.418,0.405-0.782,0.704-1.09s0.656-0.55,1.07-0.725s0.865-0.262,1.353-0.262c0.58,0,1.069,0.101,1.47,0.304
			c0.4,0.202,0.729,0.467,0.987,0.793c0.257,0.327,0.444,0.695,0.559,1.104c0.115,0.41,0.172,0.826,0.172,1.249v0.442H126.947z
			 M130.867,94.724c-0.009-0.276-0.053-0.529-0.131-0.759s-0.195-0.43-0.352-0.601c-0.156-0.17-0.352-0.303-0.586-0.4
			c-0.234-0.097-0.508-0.145-0.821-0.145c-0.304,0-0.582,0.058-0.835,0.172c-0.253,0.115-0.467,0.265-0.642,0.449
			s-0.311,0.389-0.407,0.614s-0.145,0.448-0.145,0.669H130.867z"/>
		<path d="M133.683,91.991h1.242v1.007h0.028c0.156-0.349,0.428-0.632,0.814-0.849c0.387-0.216,0.833-0.324,1.339-0.324
			c0.312,0,0.614,0.048,0.904,0.145c0.29,0.096,0.543,0.246,0.759,0.448c0.216,0.203,0.389,0.462,0.518,0.78
			s0.193,0.692,0.193,1.125v4.209h-1.242v-3.864c0-0.304-0.042-0.563-0.125-0.78c-0.083-0.216-0.193-0.391-0.331-0.525
			c-0.138-0.133-0.297-0.229-0.476-0.29c-0.18-0.06-0.366-0.09-0.559-0.09c-0.258,0-0.497,0.042-0.718,0.125
			c-0.221,0.083-0.414,0.214-0.58,0.393c-0.166,0.18-0.294,0.407-0.386,0.683c-0.092,0.276-0.138,0.603-0.138,0.98v3.368h-1.242
			V91.991z"/>
		<path d="M35.649,115.095h-1.242v-0.938H34.38c-0.239,0.35-0.568,0.621-0.987,0.814c-0.419,0.193-0.849,0.29-1.291,0.29
			c-0.506,0-0.964-0.087-1.373-0.262c-0.41-0.175-0.759-0.418-1.049-0.731c-0.29-0.312-0.513-0.676-0.669-1.09
			c-0.156-0.414-0.234-0.865-0.234-1.353s0.078-0.94,0.234-1.359c0.157-0.418,0.38-0.782,0.669-1.09
			c0.29-0.308,0.64-0.55,1.049-0.725c0.409-0.175,0.867-0.262,1.373-0.262c0.469,0,0.911,0.099,1.325,0.297s0.731,0.467,0.952,0.807
			h0.027v-4.831h1.242V115.095z M32.254,114.102c0.331,0,0.63-0.058,0.897-0.172c0.267-0.115,0.492-0.271,0.676-0.469
			s0.327-0.437,0.428-0.718c0.102-0.281,0.152-0.587,0.152-0.918s-0.05-0.637-0.152-0.918c-0.101-0.28-0.244-0.52-0.428-0.717
			s-0.409-0.354-0.676-0.47c-0.267-0.115-0.566-0.172-0.897-0.172s-0.63,0.058-0.897,0.172c-0.267,0.115-0.493,0.272-0.676,0.47
			c-0.185,0.198-0.327,0.437-0.428,0.717c-0.101,0.281-0.152,0.587-0.152,0.918s0.051,0.637,0.152,0.918
			c0.102,0.281,0.244,0.52,0.428,0.718c0.184,0.198,0.409,0.354,0.676,0.469C31.624,114.044,31.923,114.102,32.254,114.102z"/>
		<path d="M38.465,112.28c0,0.285,0.062,0.545,0.187,0.78c0.124,0.234,0.287,0.435,0.49,0.6c0.202,0.166,0.437,0.295,0.704,0.387
			c0.267,0.092,0.542,0.138,0.828,0.138c0.386,0,0.722-0.089,1.007-0.269c0.285-0.179,0.547-0.416,0.787-0.71l0.938,0.717
			c-0.69,0.893-1.656,1.339-2.898,1.339c-0.515,0-0.982-0.087-1.4-0.262c-0.419-0.175-0.773-0.416-1.063-0.725
			c-0.29-0.308-0.513-0.671-0.669-1.09c-0.156-0.418-0.234-0.872-0.234-1.359s0.085-0.94,0.255-1.359
			c0.17-0.418,0.405-0.782,0.704-1.09s0.656-0.55,1.07-0.725s0.865-0.262,1.353-0.262c0.58,0,1.069,0.101,1.47,0.304
			c0.4,0.202,0.729,0.467,0.987,0.793c0.257,0.327,0.444,0.695,0.559,1.104c0.115,0.41,0.172,0.826,0.172,1.249v0.442H38.465z
			 M42.385,111.286c-0.009-0.276-0.053-0.529-0.131-0.759s-0.195-0.43-0.352-0.601c-0.156-0.17-0.352-0.303-0.586-0.4
			c-0.234-0.097-0.508-0.145-0.821-0.145c-0.304,0-0.582,0.058-0.835,0.172c-0.253,0.115-0.467,0.265-0.642,0.449
			s-0.311,0.389-0.407,0.614s-0.145,0.448-0.145,0.669H42.385z"/>
		<path d="M48.706,109.63h-1.781v2.967c0,0.184,0.005,0.366,0.014,0.545c0.009,0.18,0.043,0.341,0.104,0.483
			c0.06,0.143,0.151,0.257,0.276,0.345c0.124,0.088,0.306,0.131,0.545,0.131c0.147,0,0.299-0.014,0.456-0.042
			c0.156-0.027,0.299-0.078,0.428-0.152v1.132c-0.147,0.083-0.338,0.14-0.573,0.172c-0.234,0.032-0.416,0.048-0.545,0.048
			c-0.479,0-0.849-0.067-1.111-0.2c-0.262-0.133-0.455-0.306-0.58-0.518c-0.124-0.211-0.198-0.448-0.221-0.71
			s-0.035-0.527-0.035-0.794v-3.409h-1.435v-1.077h1.435v-1.835h1.242v1.835h1.781V109.63z"/>
		<path d="M51.245,112.28c0,0.285,0.062,0.545,0.187,0.78c0.124,0.234,0.287,0.435,0.49,0.6c0.202,0.166,0.437,0.295,0.704,0.387
			c0.267,0.092,0.542,0.138,0.828,0.138c0.386,0,0.722-0.089,1.007-0.269c0.285-0.179,0.547-0.416,0.787-0.71l0.938,0.717
			c-0.69,0.893-1.656,1.339-2.898,1.339c-0.515,0-0.982-0.087-1.4-0.262c-0.419-0.175-0.773-0.416-1.063-0.725
			c-0.29-0.308-0.513-0.671-0.669-1.09c-0.156-0.418-0.234-0.872-0.234-1.359s0.085-0.94,0.255-1.359
			c0.17-0.418,0.405-0.782,0.704-1.09s0.656-0.55,1.07-0.725s0.865-0.262,1.353-0.262c0.58,0,1.069,0.101,1.47,0.304
			c0.4,0.202,0.729,0.467,0.987,0.793c0.257,0.327,0.444,0.695,0.559,1.104c0.115,0.41,0.172,0.826,0.172,1.249v0.442H51.245z
			 M55.165,111.286c-0.009-0.276-0.053-0.529-0.131-0.759s-0.195-0.43-0.352-0.601c-0.156-0.17-0.352-0.303-0.586-0.4
			c-0.234-0.097-0.508-0.145-0.821-0.145c-0.304,0-0.582,0.058-0.835,0.172c-0.253,0.115-0.467,0.265-0.642,0.449
			s-0.311,0.389-0.407,0.614s-0.145,0.448-0.145,0.669H55.165z"/>
		<path d="M62.659,110.292c-0.23-0.239-0.472-0.421-0.725-0.545s-0.554-0.187-0.904-0.187c-0.341,0-0.637,0.062-0.89,0.187
			c-0.253,0.124-0.465,0.294-0.635,0.511c-0.17,0.216-0.299,0.465-0.386,0.745c-0.087,0.281-0.131,0.573-0.131,0.876
			s0.051,0.591,0.152,0.863c0.102,0.271,0.244,0.508,0.428,0.71c0.184,0.203,0.405,0.361,0.662,0.477
			c0.258,0.115,0.547,0.172,0.87,0.172c0.35,0,0.649-0.062,0.897-0.187c0.249-0.124,0.479-0.306,0.69-0.545l0.883,0.883
			c-0.322,0.359-0.697,0.616-1.125,0.773c-0.428,0.156-0.881,0.234-1.359,0.234c-0.506,0-0.969-0.083-1.387-0.249
			c-0.419-0.166-0.78-0.397-1.083-0.697c-0.304-0.299-0.538-0.658-0.704-1.077c-0.166-0.418-0.249-0.881-0.249-1.387
			c0-0.506,0.083-0.971,0.249-1.394s0.398-0.787,0.697-1.09s0.658-0.541,1.077-0.711c0.418-0.17,0.885-0.255,1.401-0.255
			c0.478,0,0.936,0.085,1.373,0.255c0.437,0.17,0.816,0.43,1.139,0.78L62.659,110.292z"/>
		<path d="M68.139,109.63h-1.781v2.967c0,0.184,0.005,0.366,0.014,0.545c0.009,0.18,0.043,0.341,0.104,0.483
			c0.06,0.143,0.151,0.257,0.276,0.345c0.124,0.088,0.306,0.131,0.545,0.131c0.147,0,0.299-0.014,0.456-0.042
			c0.156-0.027,0.299-0.078,0.428-0.152v1.132c-0.147,0.083-0.338,0.14-0.573,0.172c-0.234,0.032-0.416,0.048-0.545,0.048
			c-0.479,0-0.849-0.067-1.111-0.2c-0.262-0.133-0.455-0.306-0.58-0.518c-0.124-0.211-0.198-0.448-0.221-0.71
			s-0.035-0.527-0.035-0.794v-3.409h-1.435v-1.077h1.435v-1.835h1.242v1.835h1.781V109.63z"/>
		<path d="M70.678,112.28c0,0.285,0.062,0.545,0.187,0.78c0.124,0.234,0.287,0.435,0.49,0.6c0.202,0.166,0.437,0.295,0.704,0.387
			c0.267,0.092,0.542,0.138,0.828,0.138c0.386,0,0.722-0.089,1.007-0.269c0.285-0.179,0.547-0.416,0.787-0.71l0.938,0.717
			c-0.69,0.893-1.656,1.339-2.898,1.339c-0.515,0-0.982-0.087-1.4-0.262c-0.419-0.175-0.773-0.416-1.063-0.725
			c-0.29-0.308-0.513-0.671-0.669-1.09c-0.156-0.418-0.234-0.872-0.234-1.359s0.085-0.94,0.255-1.359
			c0.17-0.418,0.405-0.782,0.704-1.09s0.656-0.55,1.07-0.725s0.865-0.262,1.353-0.262c0.58,0,1.069,0.101,1.47,0.304
			c0.4,0.202,0.729,0.467,0.987,0.793c0.257,0.327,0.444,0.695,0.559,1.104c0.115,0.41,0.172,0.826,0.172,1.249v0.442H70.678z
			 M74.598,111.286c-0.009-0.276-0.053-0.529-0.131-0.759s-0.195-0.43-0.352-0.601c-0.156-0.17-0.352-0.303-0.586-0.4
			c-0.234-0.097-0.508-0.145-0.821-0.145c-0.304,0-0.582,0.058-0.835,0.172c-0.253,0.115-0.467,0.265-0.642,0.449
			s-0.311,0.389-0.407,0.614s-0.145,0.448-0.145,0.669H74.598z"/>
		<path d="M83.969,115.095h-1.242v-0.938h-0.027c-0.239,0.35-0.568,0.621-0.987,0.814c-0.419,0.193-0.849,0.29-1.291,0.29
			c-0.506,0-0.964-0.087-1.373-0.262c-0.41-0.175-0.759-0.418-1.049-0.731c-0.29-0.312-0.513-0.676-0.669-1.09
			c-0.156-0.414-0.234-0.865-0.234-1.353s0.078-0.94,0.234-1.359c0.157-0.418,0.38-0.782,0.669-1.09
			c0.29-0.308,0.64-0.55,1.049-0.725c0.409-0.175,0.867-0.262,1.373-0.262c0.469,0,0.911,0.099,1.325,0.297s0.731,0.467,0.952,0.807
			h0.027v-4.831h1.242V115.095z M80.574,114.102c0.331,0,0.63-0.058,0.897-0.172c0.267-0.115,0.492-0.271,0.676-0.469
			s0.327-0.437,0.428-0.718c0.102-0.281,0.152-0.587,0.152-0.918s-0.05-0.637-0.152-0.918c-0.101-0.28-0.244-0.52-0.428-0.717
			s-0.409-0.354-0.676-0.47c-0.267-0.115-0.566-0.172-0.897-0.172s-0.63,0.058-0.897,0.172c-0.267,0.115-0.493,0.272-0.676,0.47
			c-0.185,0.198-0.327,0.437-0.428,0.717c-0.101,0.281-0.152,0.587-0.152,0.918s0.051,0.637,0.152,0.918
			c0.102,0.281,0.244,0.52,0.428,0.718c0.184,0.198,0.409,0.354,0.676,0.469C79.943,114.044,80.243,114.102,80.574,114.102z"/>
		<path d="M86.826,115.178c-0.249,0-0.462-0.09-0.642-0.27c-0.18-0.179-0.27-0.393-0.27-0.642s0.09-0.462,0.27-0.642
			c0.179-0.18,0.393-0.269,0.642-0.269s0.462,0.089,0.642,0.269c0.18,0.179,0.269,0.393,0.269,0.642s-0.089,0.462-0.269,0.642
			C87.288,115.088,87.074,115.178,86.826,115.178z"/>
	</g>
	<g>
		<path fill="#FFFFFF" d="M56.977,53.067h6.792v1.338h-5.366v3.136h4.994v1.337h-4.994v3.374h5.633v1.338h-7.06V53.067z"/>
		<path fill="#FFFFFF" d="M66.059,53.067h3.701c0.673,0,1.229,0.092,1.665,0.275c0.436,0.183,0.78,0.416,1.033,0.698
			c0.253,0.283,0.429,0.6,0.528,0.951c0.099,0.352,0.149,0.691,0.149,1.019c0,0.337-0.06,0.661-0.179,0.973
			c-0.119,0.312-0.29,0.595-0.513,0.847c-0.223,0.253-0.496,0.466-0.817,0.639c-0.322,0.174-0.682,0.28-1.078,0.32l2.987,4.801
			h-1.783l-2.676-4.637h-1.59v4.637h-1.427V53.067z M67.485,57.705h1.873c0.277,0,0.552-0.022,0.825-0.067
			c0.272-0.045,0.515-0.126,0.729-0.246c0.213-0.119,0.384-0.29,0.513-0.513c0.128-0.223,0.193-0.513,0.193-0.869
			c0-0.357-0.065-0.647-0.193-0.87c-0.129-0.223-0.3-0.394-0.513-0.513c-0.213-0.119-0.456-0.201-0.729-0.246
			c-0.272-0.044-0.547-0.067-0.825-0.067h-1.873V57.705z"/>
		<path fill="#FFFFFF" d="M75.14,53.067h3.701c0.673,0,1.229,0.092,1.665,0.275c0.436,0.183,0.78,0.416,1.033,0.698
			c0.253,0.283,0.429,0.6,0.528,0.951c0.099,0.352,0.149,0.691,0.149,1.019c0,0.337-0.06,0.661-0.179,0.973
			c-0.119,0.312-0.29,0.595-0.513,0.847c-0.223,0.253-0.496,0.466-0.817,0.639c-0.322,0.174-0.682,0.28-1.078,0.32l2.987,4.801
			h-1.783l-2.676-4.637h-1.59v4.637H75.14V53.067z M76.566,57.705h1.873c0.277,0,0.552-0.022,0.825-0.067
			c0.272-0.045,0.515-0.126,0.729-0.246c0.213-0.119,0.384-0.29,0.513-0.513c0.128-0.223,0.193-0.513,0.193-0.869
			c0-0.357-0.065-0.647-0.193-0.87c-0.129-0.223-0.3-0.394-0.513-0.513c-0.213-0.119-0.456-0.201-0.729-0.246
			c-0.272-0.044-0.547-0.067-0.825-0.067h-1.873V57.705z"/>
		<path fill="#FFFFFF" d="M89.052,63.858c-0.803,0-1.541-0.141-2.215-0.424c-0.674-0.282-1.251-0.671-1.731-1.167
			s-0.857-1.08-1.129-1.754c-0.273-0.674-0.409-1.402-0.409-2.185c0-0.783,0.136-1.511,0.409-2.185
			c0.272-0.674,0.649-1.258,1.129-1.754s1.058-0.885,1.731-1.167s1.412-0.423,2.215-0.423s1.541,0.141,2.215,0.423
			c0.673,0.282,1.25,0.671,1.731,1.167c0.48,0.496,0.857,1.08,1.129,1.754s0.409,1.402,0.409,2.185c0,0.783-0.136,1.511-0.409,2.185
			s-0.649,1.258-1.129,1.754c-0.481,0.496-1.058,0.884-1.731,1.167C90.592,63.717,89.854,63.858,89.052,63.858z M89.052,62.52
			c0.604,0,1.149-0.111,1.635-0.334c0.486-0.223,0.902-0.522,1.249-0.899c0.347-0.376,0.614-0.82,0.803-1.331
			c0.188-0.51,0.283-1.053,0.283-1.627c0-0.574-0.095-1.117-0.283-1.627c-0.188-0.51-0.456-0.954-0.803-1.33
			c-0.347-0.376-0.763-0.676-1.249-0.899c-0.485-0.223-1.03-0.334-1.635-0.334s-1.149,0.111-1.635,0.334
			c-0.486,0.223-0.902,0.523-1.249,0.899c-0.347,0.376-0.615,0.82-0.803,1.33c-0.188,0.51-0.282,1.053-0.282,1.627
			c0,0.575,0.094,1.117,0.282,1.627c0.188,0.511,0.456,0.954,0.803,1.331c0.347,0.376,0.763,0.676,1.249,0.899
			C87.902,62.409,88.447,62.52,89.052,62.52z"/>
		<path fill="#FFFFFF" d="M96.587,53.067h3.701c0.673,0,1.229,0.092,1.665,0.275c0.436,0.183,0.78,0.416,1.033,0.698
			c0.253,0.283,0.429,0.6,0.528,0.951c0.099,0.352,0.149,0.691,0.149,1.019c0,0.337-0.06,0.661-0.179,0.973
			c-0.119,0.312-0.29,0.595-0.513,0.847c-0.223,0.253-0.496,0.466-0.817,0.639c-0.322,0.174-0.682,0.28-1.078,0.32l2.987,4.801
			h-1.783l-2.676-4.637h-1.59v4.637h-1.427V53.067z M98.014,57.705h1.873c0.277,0,0.552-0.022,0.825-0.067
			c0.272-0.045,0.515-0.126,0.729-0.246c0.213-0.119,0.384-0.29,0.513-0.513c0.128-0.223,0.193-0.513,0.193-0.869
			c0-0.357-0.065-0.647-0.193-0.87c-0.129-0.223-0.3-0.394-0.513-0.513c-0.213-0.119-0.456-0.201-0.729-0.246
			c-0.272-0.044-0.547-0.067-0.825-0.067h-1.873V57.705z"/>
	</g>
	<g>
		<path fill="#F5952F" d="M35.515,67.976c-2.563,0-4.947-0.781-6.399-2.256c-1.842-1.872-2.581-4.685-2.036-7.735
			c0.008-0.08,0.017-0.159,0.028-0.239c0.167-1.215,0.558-2.238,1.096-3.095c0.724-1.411,1.701-2.598,2.803-3.375
			c-0.008-0.043-0.013-0.086-0.016-0.131c-0.03-0.552,0.392-1.023,0.943-1.054c0.134-0.007,1.333-0.068,3,0.016
			c1.565-0.069,3.368,0.141,5.05,0.687c1.963,0.476,3.866,1.251,5.156,2.51c1.169,1.14,1.736,2.546,1.687,4.177
			c0,4.375-2.348,7.864-6.442,9.542C38.817,67.666,37.13,67.976,35.515,67.976z M29.064,58.252
			c-0.197,2.584,2.169,5.469,5.399,6.519c1.627,0.528,5.693,1.227,8.321-3.685c1.425-2.665,1.392-4.829-0.1-6.434
			c-0.826-0.889-2.041-1.536-3.359-1.957c-0.751-0.172-1.525-0.302-2.283-0.397c-0.182,0.193-0.441,0.314-0.728,0.314l0,0
			c-0.241,0.001-4.464,0.069-6.373,3.029c-0.396,0.794-0.701,1.676-0.874,2.59C29.067,58.238,29.066,58.246,29.064,58.252z"/>
	</g>
	<g>
		<path fill="#FFFFFF" d="M39.495,63.47c-0.272,0-0.543-0.11-0.74-0.327l-6.129-6.742c-0.372-0.409-0.342-1.042,0.067-1.413
			c0.409-0.372,1.041-0.341,1.413,0.067l6.129,6.742c0.372,0.409,0.342,1.042-0.067,1.413C39.976,63.384,39.735,63.47,39.495,63.47z
			"/>
	</g>
	<g>
		<path fill="#FFFFFF" d="M32.34,63.445c-0.083,0-0.167-0.011-0.251-0.033c-0.523-0.142-0.844-0.652-0.716-1.179
			c0.46-1.889,5.97-6.44,8.317-8.31c0.432-0.344,1.062-0.273,1.405,0.159c0.344,0.432,0.273,1.061-0.159,1.405
			c-3.446,2.745-7.339,6.286-7.621,7.223C33.184,63.147,32.777,63.445,32.34,63.445z"/>
	</g>
</g>
<g id="Ebene_3">
	<g>
		<path fill="#F9F9FA" d="M297.827,152.688c0,0,28.798-49.101,28.071-80.624c-1.199-12.701-17.014-12.053-22.699,3.529
			c-5.686,15.582-21.071,77.607-21.071,77.607l-9.454,6.675l0.651,3.331c0,0-8.15,7.382-8.281,8.182
			c1.571-8.724,5.825-18.269,5.128-20.795c-0.7-2.523-2.23-7.221-9.24-9.729c-7.012-2.508-15.07,0.645-16.608,14.121
			c-1.256,11.014,1.565,35.056,1.192,41.564c-0.372,6.513,16.731,29.674,16.731,29.674l3.993,7.146c0,0-1.565,10.276,0.317,18.747
			c-14.961,0-18.213-0.58-20.204-0.275c-1.99,0.306-14.369,2.704-14.421,12.075c9.125,3.962,24.067,1.846,48.067-2.036
			c0-6.938,0-11.176,0-11.176l6.871,0.633l0.079,22.291l-0.496,6.647c0,0,3.019,4.418,11.022,3.889
			c8.002-0.528,11.099-1.147,9.229-8.6c-1.868-7.452-4.188-6.492-4.188-6.492l-0.22-9.191l2.531-3.344l5.954-0.523
			c0,0-0.596,3.567,2.354,5.866s17.641,10.493,22.088,10.067c4.444-0.423,7.378-3.365,5.343-10.067
			c-2.028-6.704-6.615-7.236-10.909-9.909c5.353-7.716,14.774-24.005,14.178-40.39c-0.595-16.384-4.823-23.205-13.526-18.268
			c-3.965-8.892-7.812-17.64-14.141-17.64l-1.315-3.527c0,0,45.18-1.023,53.771-1.798c8.593-0.774,24.005-2.2,17.775-13.489
			c-6.229-11.291-69.771-0.262-75.987,0.691c1.864-2.455-0.979-2.927-0.979-2.927L302,156.86v-4.942L297.827,152.688z"/>
	</g>
	<g>
		<path fill="#E1C0D9" d="M265.247,149.448c0,0-1.504,1.351-0.271,2.734c1.236,1.385,2.778,0.345,2.999-0.512
			C268.505,149.607,265.865,148.615,265.247,149.448z"/>
		<path fill="#010101" d="M266.326,153.856L266.326,153.856c-0.545,0-1.352-0.175-2.096-1.009c-1.358-1.523-0.593-3.25,0.284-4.085
			c0.338-0.394,0.85-0.609,1.455-0.609c0.918,0,1.89,0.489,2.477,1.245c0.555,0.715,0.731,1.61,0.498,2.521
			C268.698,152.871,267.652,153.856,266.326,153.856z M265.959,150.152l-0.044,0.039c-0.274,0.258-0.676,0.782-0.192,1.324
			c0.202,0.227,0.404,0.341,0.604,0.341c0.339,0,0.644-0.308,0.682-0.437c0.08-0.313,0.035-0.567-0.142-0.795
			c-0.229-0.295-0.636-0.471-0.896-0.471l0,0C265.965,150.153,265.962,150.153,265.959,150.152z"/>
	</g>
	<g>
		<path fill="#E1C0D9" d="M259.972,144.697c0,0-1.18,1.716,0.066,2.76c1.245,1.045,4.085-0.411,3.627-1.847
			C262.744,142.725,259.972,144.697,259.972,144.697z"/>
		<path fill="#010101" d="M261.129,148.812L261.129,148.812c-0.675,0-1.274-0.204-1.733-0.589c-1.536-1.288-0.834-3.24-0.248-4.093
			l0.101-0.146l0.144-0.103c0.122-0.086,1.221-0.843,2.463-0.843c0.762,0,2.134,0.294,2.764,2.267
			c0.21,0.659,0.076,1.361-0.375,1.979C263.586,148.185,262.306,148.812,261.129,148.812z M260.708,145.414
			c-0.156,0.292-0.432,0.939-0.027,1.277c0.126,0.106,0.335,0.122,0.448,0.122c0.542,0,1.215-0.317,1.5-0.707
			c0.058-0.08,0.093-0.16,0.083-0.191c-0.279-0.875-0.669-0.875-0.857-0.875C261.44,145.04,260.964,145.267,260.708,145.414z"/>
	</g>
	<g>
		<path fill="#E1C0D9" d="M253.559,143.532c0,0-0.633,2.542,1.484,2.735s2.264-2.714,1.857-3.257
			C256.298,142.201,253.797,141.754,253.559,143.532z"/>
		<path fill="#010101" d="M255.24,147.276L255.24,147.276c-0.093,0-0.189-0.004-0.288-0.013c-1.063-0.097-1.648-0.626-1.951-1.053
			c-0.764-1.074-0.502-2.524-0.426-2.863c0.19-1.245,1.187-2.046,2.55-2.046c1.046,0,2.082,0.447,2.577,1.111
			c0.518,0.691,0.498,2.246-0.043,3.326C257.17,146.715,256.288,147.276,255.24,147.276z M255.125,143.301
			c-0.526,0-0.555,0.21-0.575,0.364l-0.021,0.109c-0.081,0.341-0.105,0.99,0.103,1.279c0.037,0.051,0.133,0.185,0.502,0.218
			l0.106,0.005l0,0c0.244,0,0.4-0.082,0.54-0.281c0.298-0.424,0.336-1.145,0.278-1.424
			C255.917,143.463,255.534,143.301,255.125,143.301z"/>
	</g>
	<g>
		<path fill="#E1C0D9" d="M247.677,148.012c0,0,1.186,2.483,2.805,1.254c1.618-1.229,1.362-3.008,0.008-3.699
			C249.136,144.875,246.779,145.518,247.677,148.012z"/>
		<path fill="#010101" d="M249.575,150.608L249.575,150.608c-1.718,0-2.695-1.943-2.801-2.165l-0.039-0.093
			c-0.511-1.421-0.17-2.357,0.207-2.893c0.515-0.732,1.397-1.152,2.422-1.152c0.56,0,1.106,0.128,1.581,0.371
			c0.94,0.48,1.556,1.366,1.646,2.368c0.1,1.116-0.449,2.216-1.505,3.018C250.609,150.425,250.102,150.608,249.575,150.608z
			 M248.6,147.622c0.218,0.423,0.679,0.986,0.976,0.986l0,0c0.1,0,0.219-0.075,0.302-0.138c0.495-0.376,0.759-0.831,0.722-1.248
			c-0.028-0.317-0.234-0.596-0.564-0.764c-0.473-0.243-1.236-0.163-1.456,0.15C248.437,146.81,248.444,147.168,248.6,147.622z"/>
	</g>
	<g>
		<path fill="#010101" d="M294.736,223.823c-5.735,0-10.792-2.37-14.214-6.85c-15.987-20.687-14.472-33.929-14.399-34.482
			c0.07-0.547,0.57-0.938,1.121-0.861c0.547,0.071,0.932,0.571,0.862,1.118c-0.02,0.154-1.401,13.076,14.002,33.007
			c4.227,5.533,11.32,7.426,18.979,5.066c8.235-2.534,12.481-18.565,13.692-27.639c1.081-8.113-0.335-20.956-0.779-22.393
			c-0.207-0.337-0.201-0.779,0.048-1.117c0.328-0.443,0.954-0.539,1.398-0.211c1.344,0.993,2.229,17.132,1.315,23.984
			c-0.351,2.631-3.756,25.8-15.087,29.287C299.299,223.465,296.966,223.823,294.736,223.823z"/>
	</g>
	<g>
		<path fill="#010101" d="M299.715,223c-0.013,0-0.025,0-0.038,0c-3.476,0-6.388-3.249-6.511-3.384
			c-0.369-0.409-0.338-1.011,0.071-1.382c0.407-0.371,1.041-0.323,1.411,0.084c0.024,0.027,2.478,2.696,5.103,2.795
			c0.553,0.021,0.983,0.429,0.962,0.98C300.693,222.633,300.249,223,299.715,223z"/>
	</g>
	<g>
		<path fill="#010101" d="M316.134,173c-0.535,0-0.979-0.352-0.998-0.891c-0.02-0.553,0.412-0.979,0.964-0.998
			c0.388-0.014,38.943-1.361,54.984-1.863c6.506-0.203,14.015-2.342,15.777-6.053c0.735-1.548,0.353-3.317-1.137-5.265
			c-0.021-0.027-0.039-0.052-0.057-0.081c-6.262-10.178-57.015-2.441-76.042,1.399c-0.289,0.057-0.581-0.012-0.81-0.189
			c-0.23-0.178-0.371-0.445-0.387-0.735l-0.128-2.305l-4.964,1.782c-0.305,0.109-0.646,0.064-0.913-0.123S302,157.186,302,156.86
			v-3.8l-3.139,1.053c-0.523,0.176-1.09-0.106-1.267-0.63c-0.176-0.524,0.106-1.091,0.63-1.267l4.457-1.495
			c0.307-0.104,0.641-0.051,0.902,0.136c0.261,0.188,0.416,0.49,0.416,0.812v3.769l4.889-1.755c0.295-0.106,0.627-0.066,0.891,0.108
			c0.263,0.174,0.429,0.463,0.445,0.778l0.138,2.495c9.342-1.818,69.085-12.893,76.981-0.306c2.435,3.21,2.065,5.741,1.324,7.302
			c-2.216,4.667-10.397,6.908-17.521,7.132c-16.037,0.5-54.589,1.807-54.977,1.807C316.158,173,316.146,173,316.134,173z"/>
	</g>
	<g>
		<path fill="#010101" d="M256,218h-2.531c-0.33,0-0.638-0.162-0.824-0.435c-0.187-0.271-0.228-0.618-0.108-0.926l4.104-10.64
			h-2.071c-0.326,0-0.632-0.159-0.819-0.427c-0.187-0.267-0.232-0.608-0.12-0.915l3.522-9.675l-1.855-1.652
			c-0.211-0.188-0.333-0.456-0.335-0.739c-0.002-0.282,0.115-0.553,0.323-0.744c0.037-0.034,3.802-3.516,5.813-6.876
			c1.761-2.941,2.546-5.351,3.229-9.914c0.641-4.263,3.891-7.879,4.937-8.949l-0.012-1.482c-0.003-0.378,0.207-0.725,0.543-0.897
			l2.205-1.132v-1.682c0-1.934,5.47-5.582,10.217-8.383c1.591-6.345,17.809-70.723,21.211-80.474
			c1.91-5.474,7.185-9.059,12.859-9.059c0.045,0,0.089,0,0.135,0c4.827,0,8.599,2.605,10.089,7.185
			c3.53,10.838-9.334,50.726-21.88,73.813c-3.49,6.421-9.533,14.564-9.595,14.646c-0.326,0.442-0.954,0.513-1.398,0.183
			c-0.443-0.328-0.538-0.968-0.209-1.412c0.06-0.081,6.021-8.172,9.444-14.47c13.5-24.841,24.876-62.497,21.735-72.137
			C323.397,67.083,320.329,65,316.4,65c-0.033,0-0.067,0-0.102,0c-3.978,0-9.077,2.257-10.982,7.718
			c-3.474,9.952-21.084,80.103-21.262,80.812c-0.065,0.262-0.232,0.432-0.464,0.568c-4.307,2.522-9.146,5.835-9.591,6.887v2.223
			c0,0.375-0.21,0.719-0.543,0.89l-2.2,1.13l0.011,1.288c0.002,0.278-0.112,0.546-0.315,0.736c-0.04,0.038-4.002,3.811-4.646,8.104
			c-0.728,4.859-1.576,7.445-3.49,10.645c-1.595,2.662-4.105,5.296-5.381,6.557l1.555,1.385c0.306,0.272,0.415,0.704,0.274,1.089
			L255.998,204h2.101c0.33,0,0.638,0.162,0.824,0.435c0.187,0.271,0.228,0.618,0.108,0.926L254.927,216H256c0.553,0,1,0.447,1,1
			S256.553,218,256,218z"/>
	</g>
	<g>
		<path fill="#010101" d="M295.659,247.904c-0.342,0-0.665-0.176-0.85-0.473c-0.369-0.595-0.783-1.37-1.105-1.999l-2.854,2.256
			c-0.31,0.244-0.734,0.284-1.082,0.103l-4.955-2.584c-0.49-0.256-0.68-0.859-0.425-1.349c0.256-0.491,0.857-0.682,1.349-0.425
			l4.381,2.284l3.312-2.617c0.238-0.189,0.551-0.255,0.845-0.19c0.297,0.068,0.545,0.268,0.677,0.542
			c0.007,0.015,0.597,1.24,1.177,2.274c1.915-0.806,4.507-3.67,5.826-5.484c0.272-0.377,0.768-0.511,1.193-0.335l2.851,1.189
			l1.125-4.885c0.057-0.245,0.203-0.459,0.41-0.602l3.467-2.368V229c0-0.553,0.447-1,1-1s1,0.447,1,1v4.771
			c0,0.33-0.163,0.64-0.436,0.826l-3.58,2.445l-1.303,5.658c-0.066,0.287-0.256,0.53-0.518,0.665
			c-0.264,0.134-0.571,0.146-0.842,0.033l-3.229-1.348c-1.235,1.581-4.455,5.371-7.27,5.84
			C295.769,247.899,295.714,247.904,295.659,247.904z"/>
	</g>
	<g>
		<path fill="#010101" d="M287.027,275.228c-0.206,0-0.414-0.063-0.593-0.195c-0.401-0.296-0.518-0.837-0.294-1.266
			c0.44-1.562,0.709-15.418,0.774-24.008c0.004-0.55,0.451-0.759,1-0.759c0.003,0,0.005,0,0.008,0c0.552,0,0.996,0.222,0.992,0.774
			c-0.185,24.062-0.86,24.862-1.082,25.163C287.637,275.203,287.334,275.228,287.027,275.228z"/>
	</g>
	<g>
		<path fill="#010101" d="M297.448,285.181c-1.42,0-2.969-0.104-4.644-0.314c-6.197-0.777-7.301-4.153-7.345-4.297
			c-0.015-0.047-0.025-0.094-0.032-0.143c-0.025-0.163-0.597-4.04,0.706-6.646c0.247-0.494,0.848-0.692,1.342-0.447
			c0.494,0.247,0.694,0.848,0.447,1.342c-0.921,1.843-0.604,4.791-0.531,5.356c0.15,0.338,1.201,2.291,5.662,2.851
			c4.206,0.526,11.501,0.794,13.031-3.354c1.169-3.181-2.673-8.124-4.252-9.76c-0.174-0.18-0.273-0.418-0.28-0.669l-0.237-9.191
			c-0.006-0.229,0.067-0.452,0.206-0.634c3.957-5.161,10.062-13.52,10.663-15.392c0.168-0.524,0.73-0.814,1.258-0.646
			c0.525,0.169,0.815,0.731,0.646,1.258c-0.854,2.659-9.058,13.481-10.765,15.716l0.219,8.461c1.233,1.36,6.062,7.08,4.419,11.548
			C306.753,283.497,303.15,285.181,297.448,285.181z"/>
	</g>
	<g>
		<path fill="#010101" d="M287.036,252.338c-0.117,0-0.236-0.021-0.353-0.064c-10.502-3.959-16.894-11.182-20.406-16.543
			c-0.302-0.462-0.173-1.082,0.289-1.385c0.463-0.302,1.082-0.173,1.385,0.289c3.35,5.112,9.44,11.998,19.438,15.768
			c0.517,0.194,0.778,0.771,0.583,1.288C287.821,252.091,287.44,252.338,287.036,252.338z"/>
	</g>
	<g>
		<path fill="#010101" d="M336.211,272.99c-2.579,0-5.655-0.77-8.161-1.571c-4.804-1.538-17.987-10.335-18.546-10.709
			c-0.206-0.138-0.354-0.347-0.414-0.587c-0.06-0.235-0.57-2.341-0.213-3.751c0.136-0.536,0.679-0.857,1.216-0.724
			c0.535,0.136,0.859,0.681,0.724,1.216c-0.149,0.588-0.02,1.661,0.131,2.403c2.101,1.392,13.576,8.923,17.712,10.247
			c4.745,1.518,8.388,1.891,9.997,1.028c1.01-0.543,2.371-1.693,2.53-5.412c0.153-3.577-1.224-7.721-12.591-11.322
			c-0.32-0.102-0.568-0.356-0.66-0.68s-0.016-0.671,0.204-0.926l0.761-0.884c0.304-0.362,7.678-9.231,11.225-20.664
			c4.438-14.298,3.28-32.587-2.337-36.922c-1.882-1.452-4.154-1.311-6.95,0.43c-0.261,0.164-0.585,0.196-0.873,0.09
			c-0.29-0.106-0.514-0.34-0.607-0.634c-2.096-6.551-7.529-16.944-13.188-16.944c-0.553,0-1-0.447-1-1s0.447-1,1-1
			c6.875,0,12.389,10.638,14.701,17.174c3.825-1.948,6.514-0.955,8.141,0.302c5.772,4.456,8.293,22.123,3.024,39.098
			c-2.861,9.222-8.421,17.493-11.411,21.126c11.41,3.96,12.729,8.919,12.561,12.843c-0.152,3.557-1.324,5.875-3.583,7.088
			C338.691,272.793,337.515,272.99,336.211,272.99z"/>
	</g>
	<g>
		<path fill="#010101" d="M323.958,246.298c-0.177,0-0.356-0.047-0.52-0.146c-0.472-0.287-0.62-0.902-0.333-1.374
			c0.132-0.218,13.183-22.017,6.949-43.445c-0.154-0.53,0.15-1.085,0.681-1.239c0.53-0.156,1.085,0.15,1.239,0.681
			c6.484,22.29-6.602,44.126-7.162,45.045C324.624,246.127,324.295,246.298,323.958,246.298z"/>
	</g>
	<g>
		<path fill="#010101" d="M244.037,267.654c-7.633,0-11.608-2.804-11.778-2.927c-0.389-0.28-0.523-0.797-0.322-1.231
			c0.012-0.024,0.305-0.652,2.176-4.325c5.168-9.801,16.215-7.509,17.614-7.171H266c0.553,0,1,0.447,1,1s-0.447,1-1,1h-14.396
			c-0.09,0-0.181-0.013-0.268-0.036c-0.436-0.122-10.718-2.843-15.448,6.128c-0.901,1.77-1.432,2.821-1.737,3.436
			c1.43,0.751,4.979,2.242,10.481,2.121c6.861-0.139,20.901-2.342,21.042-2.363L280,261.026V251c0-0.553,0.447-1,1-1s1,0.447,1,1
			v10.881c0,0.492-0.358,0.911-0.845,0.988l-15.17,2.392c-0.581,0.091-14.316,2.246-21.312,2.388
			C244.458,267.652,244.246,267.654,244.037,267.654z"/>
	</g>
	<g>
		<path fill="#010101" d="M281.456,183.621c-0.643,0.001-1.306-0.233-1.739-0.659c-0.41-0.403-0.717-0.954-0.717-1.51
			c0-0.001,0-0.001,0-0.002c0-0.951,0.779-1.976,2.336-1.976c0.551,0,2.039,0.525,2.039,2.073
			C283.375,182.833,282.009,183.621,281.456,183.621z"/>
	</g>
	<g>
		<path fill="#010101" d="M289.412,155c-0.017,0-0.032,0-0.048,0c-1.521,0-2.222-1.058-2.297-1.178
			c-0.293-0.468-0.151-1.078,0.317-1.371c0.456-0.289,1.063-0.153,1.362,0.297c0.043,0.056,0.205,0.316,0.693,0.279
			c0.68-0.016,2.639-0.618,6.139-5.869c12.263-18.411,18.41-31.883,18.271-40.246c-0.009-0.552,0.432-0.913,0.983-0.913
			c0.006,0,0.012,0,0.017,0c0.545,0,0.991,0.333,1,0.88c0.147,8.9-5.939,22.406-18.607,41.425
			C294.211,152.854,291.648,155,289.412,155z"/>
	</g>
	<g>
		<path fill="#E1C0D9" d="M253.469,150.646c1.807-1.085,7.45-2.963,9.1,3.859c1.643,6.821-8.522,11.144-10.965,5.967
			C249.157,155.297,251.041,152.295,253.469,150.646z"/>
		<path fill="#010101" d="M255.476,163.757c-2.179,0-3.92-1.041-4.776-2.857c-2.982-6.311,0.103-9.651,2.208-11.08
			c1.034-0.624,2.701-1.258,4.417-1.258c1.806,0,5.015,0.742,6.216,5.709c0.522,2.17,0.034,4.349-1.376,6.139
			C260.562,162.442,257.937,163.757,255.476,163.757z M257.324,150.562c-1.309,0-2.617,0.508-3.341,0.942
			c-2.753,1.871-3.266,4.755-1.476,8.541c0.667,1.415,1.982,1.712,2.968,1.712c1.843,0,3.899-1.039,5.118-2.586
			c0.723-0.918,1.483-2.432,1.002-4.431C260.926,151.968,259.488,150.562,257.324,150.562z"/>
	</g>
	<g>
		<path fill="#010101" d="M317.562,172.45c-0.279,0-0.557-0.116-0.755-0.344c-0.33-0.381-0.594-1.112-0.249-1.92
			c0.387-0.905,1.562-3.659,20.054-4.549c22.104-1.062,37.28-1.308,37.431-1.311c0.566-0.042,1.007,0.433,1.016,0.984
			s-0.433,1.007-0.984,1.016c-0.15,0.002-15.298,0.247-37.366,1.309c-16.08,0.773-18.074,2.954-18.289,3.298
			c0.247,0.408,0.172,0.947-0.2,1.271C318.028,172.369,317.795,172.45,317.562,172.45z"/>
	</g>
	<g>
		<path fill="#010101" d="M266.823,254.199c-0.495,0-0.925-0.367-0.99-0.871c-1.773-13.616-0.611-19.888-0.561-20.147
			c0.104-0.543,0.621-0.893,1.17-0.792c0.542,0.104,0.896,0.628,0.794,1.17c-0.012,0.062-1.145,6.272,0.579,19.512
			c0.071,0.548-0.314,1.049-0.862,1.12C266.909,254.196,266.866,254.199,266.823,254.199z"/>
	</g>
	<g>
		<path fill="#010101" d="M306.376,257.619c-1.069,0-1.636-0.084-1.693-0.093c-0.545-0.086-0.918-0.598-0.833-1.144
			c0.085-0.544,0.58-0.922,1.14-0.833l0,0c0.033,0.006,3.32,0.466,9.622-1.109c0.534-0.136,1.078,0.191,1.212,0.728
			c0.135,0.535-0.191,1.078-0.728,1.212C310.972,257.411,308.055,257.619,306.376,257.619z"/>
	</g>
	<g>
		<path fill="#010101" d="M323.015,254.058c-0.48,0-0.903-0.347-0.985-0.835c-0.091-0.545,0.276-1.061,0.821-1.151
			c2.915-0.487,6.005-0.224,6.135-0.212c0.55,0.049,0.956,0.533,0.908,1.083c-0.049,0.551-0.538,0.967-1.083,0.909
			c-0.029-0.002-2.972-0.252-5.63,0.192C323.125,254.054,323.069,254.058,323.015,254.058z"/>
	</g>
	<g>
		<path fill="#010101" d="M282.497,157.86c-0.086,0-0.174-0.011-0.261-0.034c-0.533-0.144-0.85-0.691-0.706-1.226l1.007-3.749
			c0.144-0.532,0.694-0.85,1.226-0.706c0.533,0.144,0.85,0.691,0.706,1.226l-1.007,3.749
			C283.342,157.566,282.938,157.86,282.497,157.86z"/>
	</g>
	<g>
		<path fill="#010101" d="M253.875,214.121c-0.33,0-0.653-0.163-0.845-0.463c-3.03-4.757-5.187-8.18-6.407-10.176
			c-3.703-6.059-3.991-30.736-3.991-38.155c0-18.338,3.408-25.642,12.157-26.052c6.769-0.311,12.207,2.052,14.909,6.502
			c2.546,4.189,2.263,9.595-0.774,14.831c-2.398,4.137-1.963,12.468-1.959,12.552c0.031,0.552-0.391,1.023-0.942,1.054
			c-0.553,0.028-1.023-0.392-1.054-0.942c-0.021-0.366-0.471-9.018,2.225-13.667c2.659-4.583,2.949-9.245,0.796-12.789
			c-2.312-3.805-7.09-5.829-13.106-5.542c-6.329,0.296-10.251,4.423-10.251,24.054c0,14.33,0.969,32.647,3.698,37.112
			c1.214,1.984,3.363,5.397,6.388,10.145c0.296,0.466,0.159,1.084-0.307,1.381C254.245,214.07,254.059,214.121,253.875,214.121z"/>
	</g>
	<g>
		<path fill="#010101" d="M266.824,235.741c-0.396,0-0.771-0.237-0.929-0.629c-1.39-3.473-3.353-7.514-4.059-7.992
			c-0.183-0.079-0.295-0.188-0.402-0.354c0,0-2.956-4.583-6.33-9.86c-0.297-0.466-0.161-1.084,0.304-1.382
			c0.466-0.297,1.083-0.16,1.382,0.304c2.991,4.68,5.654,8.812,6.217,9.686c1.515,1.19,3.593,5.975,4.746,8.857
			c0.205,0.513-0.045,1.095-0.558,1.3C267.074,235.719,266.948,235.741,266.824,235.741z"/>
	</g>
	<g>
		<path fill="#010101" d="M291.616,271.467c-0.295,0-0.586-0.129-0.783-0.378c-0.344-0.432-0.272-1.061,0.16-1.404
			c6.493-5.165,12.046-1.475,12.102-1.437c0.455,0.312,0.571,0.935,0.26,1.391c-0.312,0.454-0.933,0.569-1.387,0.263
			c-0.182-0.124-4.429-2.87-9.73,1.348C292.054,271.396,291.834,271.467,291.616,271.467z"/>
	</g>
	<g>
		<path fill="#010101" d="M255.428,256.41c-0.253,0-0.505-0.095-0.699-0.285c-0.038-0.035-0.861-0.77-3.547-2.02
			c-0.501-0.232-0.718-0.827-0.484-1.328c0.231-0.5,0.824-0.719,1.328-0.484c3.104,1.443,4.019,2.318,4.113,2.413
			c0.389,0.393,0.385,1.026-0.007,1.415C255.937,256.313,255.682,256.41,255.428,256.41z"/>
	</g>
</g>
<g id="Ebene_4">
	<g>
		<path fill="#F5952F" d="M242.669,94.257c-0.075,0-0.151-0.008-0.228-0.026l-24.341-5.667c-0.327-0.076-0.594-0.311-0.711-0.626
			c-0.054-0.146-0.072-0.299-0.058-0.449l-2.658-0.714c-0.264-0.071-0.486-0.246-0.617-0.486c-0.131-0.239-0.159-0.522-0.076-0.782
			l0.97-3.06L188.096,71.54c-0.383-0.155-0.631-0.531-0.623-0.945c0.001-0.076,0.011-0.15,0.029-0.222l-1.548-0.513
			c-0.259-0.086-0.471-0.274-0.588-0.521c-0.117-0.246-0.128-0.53-0.031-0.785c0.011-0.029,0.571-1.535,0.69-3.29
			c-4.023-0.959-9.685-1.993-14.893-2.746c-0.547-0.079-0.926-0.586-0.847-1.133s0.594-0.92,1.133-0.847
			c3.465,0.501,9.605,1.466,14.489,2.641c-0.212-1.002-0.69-1.93-1.616-2.56c-3.067-2.086-28.383-8.133-37.879-10.287
			c-0.539-0.122-0.876-0.658-0.754-1.196c0.122-0.539,0.662-0.876,1.196-0.754c3.532,0.801,34.623,7.905,38.561,10.583
			c1.764,1.199,2.437,2.998,2.596,4.758c2.646,0.739,4.628,1.54,5.102,2.349c0.382,0.652,0.451,1.364,0.2,2.059
			c-0.226,0.624-0.699,1.174-1.26,1.641l25.318,8.387c0.52,0.172,0.804,0.73,0.639,1.251l-0.595,1.877l4.019,1.633
			c0.285,0.116,0.502,0.356,0.586,0.653c0.084,0.296,0.027,0.614-0.154,0.863l-1.342,1.837l22.403,6.016
			c0.526,0.142,0.843,0.68,0.71,1.209C243.524,93.954,243.117,94.257,242.669,94.257z M216.203,85.115l2.251,0.605l1.042-1.426
			l-2.687-1.091L216.203,85.115z M203.964,75.826l11.593,4.708l0.249-0.786L203.964,75.826z M187.522,68.272l2.125,0.704
			c0.837-0.462,1.608-1.031,1.786-1.524c0.042-0.114,0.047-0.211-0.044-0.368c-0.315-0.361-1.559-0.82-3.394-1.32
			C187.898,66.755,187.698,67.639,187.522,68.272z"/>
	</g>
	<g>
		<path fill="#F5952F" d="M272.675,127.284c-0.024,0-0.049-0.001-0.074-0.002l-26.131-1.912c-0.391-0.029-0.729-0.283-0.864-0.651
			c-0.137-0.368-0.045-0.781,0.233-1.057l1.703-1.69l-3.822-2.175l-27.813-4.439c-0.504-0.08-0.866-0.527-0.842-1.036l0.11-2.245
			c-0.163-0.081-0.302-0.206-0.4-0.362c-0.142-0.225-0.188-0.496-0.13-0.754l0.745-3.281l0.158-3.233l-25.029-5.675
			c-0.539-0.122-0.876-0.658-0.754-1.196c0.122-0.538,0.658-0.876,1.196-0.754l24.687,5.597l0.092-1.874l-35.589-5.809
			c-0.545-0.089-0.915-0.603-0.826-1.148c0.089-0.545,0.603-0.917,1.148-0.826l36.47,5.952c0.502,0.082,0.862,0.528,0.838,1.036
			l-0.153,3.124c0.211,0.075,0.391,0.219,0.511,0.409c0.142,0.225,0.188,0.496,0.13,0.754l-0.889,3.914l-0.126,2.575l23.494,5.328
			c0.097,0.021,0.188,0.057,0.273,0.106l3.373,1.919l6.768,1.08c0.372,0.059,0.679,0.322,0.795,0.681
			c0.115,0.358,0.02,0.751-0.248,1.017l-0.887,0.88l0.753,0.429l21.255,3.331c0.529,0.083,0.899,0.569,0.838,1.102
			C273.609,126.906,273.179,127.284,272.675,127.284z M248.807,123.535l1.701,0.124l-1.161-0.66L248.807,123.535z M217.106,113.524
			l14.598,2.33l-14.551-3.299L217.106,113.524z"/>
	</g>
	<g>
		<path fill="#F5952F" d="M298.502,119.187c-0.195,0-0.393-0.057-0.564-0.175l-9.727-6.669c-0.331-0.227-0.494-0.629-0.415-1.022
			c0.08-0.394,0.387-0.701,0.779-0.782l5.828-1.197l-21.272-13.286c-0.196-0.122-0.338-0.304-0.412-0.51l-2.751-1.397
			c-0.379-0.193-0.595-0.605-0.537-1.026c0.058-0.422,0.376-0.761,0.793-0.846c1.06-0.214,2.514-0.72,3.438-1.353l-16.996-7.744
			c-0.502-0.229-0.724-0.822-0.495-1.325c0.229-0.503,0.822-0.724,1.325-0.496l16.842,7.674c-0.242-0.417-0.678-0.888-1.291-1.387
			c-5.522-4.489-22.887-13.86-23.062-13.954c-0.486-0.262-0.668-0.868-0.406-1.354s0.866-0.667,1.355-0.406
			c0.72,0.388,17.706,9.555,23.374,14.163c1.785,1.451,2.516,2.897,2.169,4.299c-0.123,0.495-0.376,0.934-0.712,1.32l-0.825,2.716
			l22.585,11.47c0.491,0.25,0.688,0.849,0.44,1.341l-0.753,1.497l0.37,0.231c0.348,0.217,0.527,0.623,0.455,1.025
			c-0.072,0.403-0.383,0.721-0.783,0.803l-1.202,0.247l-0.944,1.877l4.138,4.596c0.339,0.376,0.343,0.947,0.009,1.328
			C299.059,119.07,298.782,119.187,298.502,119.187z M291.283,112.024l1.627,1.115c-0.01-0.171,0.024-0.345,0.104-0.505l0.542-1.077
			L291.283,112.024z M290.762,104.709l4.748,2.965l0.222-0.441L290.762,104.709z"/>
	</g>
	<g>
		<path fill="#F5952F" d="M163.078,173.18H121.32c-0.552,0-1-0.447-1-1s0.448-1,1-1h40.959l0.131-0.577l-29.613-1.716
			c-0.552-0.031-0.973-0.505-0.941-1.056c0.032-0.552,0.507-0.971,1.056-0.94l28.669,1.66v-4.839c0-0.527,0.41-0.964,0.936-0.998
			l43.475-2.791l4.834-0.581l-1.037-2.939l-2.184-2.636c-0.232-0.28-0.294-0.665-0.16-1.005c0.134-0.339,0.441-0.578,0.803-0.625
			l30.928-3.975c0.538-0.077,1.016,0.289,1.111,0.811c0.096,0.523-0.233,1.029-0.75,1.153l-26.991,6.468l2.263,2.731
			c0.233,0.281,0.294,0.668,0.158,1.008c-0.136,0.341-0.446,0.579-0.81,0.623l-1.025,0.123c-0.174,0.257-0.456,0.419-0.765,0.438
			l-6.191,0.397l-40.862,4.91l-1.26,5.575C163.951,172.856,163.545,173.18,163.078,173.18z M163.581,164.649v0.859
			c0.141-0.316,0.44-0.542,0.794-0.585l5.812-0.698L163.581,164.649z M210.305,153.89l0.819,0.988l9.851-2.36L210.305,153.89z"/>
	</g>
</g>
</svg>
