<?xml version="1.0" encoding="utf-8"?>
<!-- Generator: Adobe Illustrator 16.0.0, SVG Export Plug-In . SVG Version: 6.00 Build 0)  -->
<!DOCTYPE svg PUBLIC "-//W3C//DTD SVG 1.1//EN" "http://www.w3.org/Graphics/SVG/1.1/DTD/svg11.dtd">
<svg version="1.1" xmlns="http://www.w3.org/2000/svg" xmlns:xlink="http://www.w3.org/1999/xlink" x="0px" y="0px" width="400px"
	 height="300px" viewBox="0 0 400 300" enable-background="new 0 0 400 300" xml:space="preserve">
<g id="Bug">
	<path fill="none" stroke="#000000" stroke-width="2" stroke-linecap="round" stroke-linejoin="round" stroke-miterlimit="10" d="
		M275.327,177.521c0,0,5.158-9.914,0.983-36.011s-15.646-53.457-33.684-60.45c0,0,5.311-5.65,2.276-9.292
		c-3.034-3.641-19.421-10.772-25.642-9.862c-6.221,0.911-24.276,15.78-14.869,24.58c2.124,1.214,8.926,5.735,9.354,5.101
		c0.427-0.635-11.478-7.759-10.719-10.526c2.956,0.783,8.964,7.061,11.379,7.702c3.204-1.245-13.655-10.621-11.076-12.025
		c3.187,1.859,13.655,9.445,13.655,9.445s-11.838-10.871-11.683-12.593s13.655,11.531,13.655,11.531L207.882,71.01l13.959,12.441
		L210.31,68.128l14.565,14.262l-13.269-15.627l16.607,14.298c0,0-13.924-14.848-14.565-15.512
		c-0.643-0.665,16.284,14.793,16.993,15.512c0,0-13.671-15.965-14.87-16.574c-1.198-0.609,17.297,14.79,18.663,16.574
		c1.107,0.08-14.455-15.615-16.539-17.788c2.883,0.759,17.904,14.414,19.725,16.69c1.821,2.276-14.959-15.873-16.386-17.449
		c-1.973-0.607,17.601,14.262,19.421,17.752c1.062-0.758-13.959-16.538-13.959-16.538s14.607,12.191,16.386,15.324
		c0,0-7.956-10.879-10.62-13.048c3.945,1.517,11.076,10.285,11.38,11.683c0-3.338-2.694-6.58-4.552-8.648
		c3.944,3.034,5.462,4.171,5.462,7.699"/>
	<path fill="none" stroke="#000000" stroke-width="2" stroke-linecap="round" stroke-linejoin="round" stroke-miterlimit="10" d="
		M296.966,137.618c0,0,3.771-0.902,0.737-2.785c-2.604-1.616-1.11,5.654,1.771,12.049c2.882,6.395-2.984,43.081-2.984,43.081
		s11.986,23.518,13.808,22.152c1.82-1.366-12.595-22.607-12.595-22.607c7.283-48.248,1.215-52.8,0-54.675
		c-4.552-4.758-19.415-9.982-17.606-2.31c1.809,7.672,15.938,5.095,15.938,5.095l-2.884-5.095l-0.15,4.155l-3.642-5.573l0.758,6.513
		l-5.007-8.041l1.973,7.101l-5.007-6.798l3.034,6.798l-4.399-5.573"/>
	<path fill="none" stroke="#000000" stroke-width="2" stroke-linecap="round" stroke-linejoin="round" stroke-miterlimit="10" d="
		M200.972,141.337c0,0-3.662-0.478-1.021-2.685c2.265-1.894,0.8,6.337,2.47,13.835c1.607,7.21,13.192,39.752,13.192,39.752
		s5.925,22.8,3.434,22.759c-2.203-0.036-4.632-23.076-4.632-23.076c-19.125-49.6-15.39-51.273-14.464-53.27
		c3.735-5.229,17.138-12.067,16.329-4.247c-0.807,7.821-14.43,6.829-14.43,6.829l2.121-5.38l0.629,4.109l2.782-5.938l0.045,6.552
		l3.782-8.542l-1.031,7.271l3.927-7.306l-2.065,7.088l3.495-6.023"/>
	<path fill="none" stroke="#000000" stroke-width="2" stroke-linecap="round" stroke-linejoin="round" stroke-miterlimit="10" d="
		M278.711,88.308c0,0,1.882-3.391-1.556-2.425c-2.951,0.83,1.952,5.109,7.045,9.933c5.228,4.95,19.724,24.354,19.724,24.354
		s25.814,4.845,26.037,2.58c0.222-2.265-25.554-3.781-25.554-3.781c-30.666-37.954-25.05-32.714-27.252-33.085
		c-6.584,0.144-19.486,6.386-13.135,11.248c5.159,3.948,14.062-8.136,14.062-8.136l-5.706-1.314l2.963,2.917l-6.569-1.078
		l5.316,3.839l-9.312-1.737l6.569,3.34l-8.395-0.897l7.062,2.352l-7.081-0.518"/>
	<path fill="none" stroke="#000000" stroke-width="2" stroke-linecap="round" stroke-linejoin="round" stroke-miterlimit="10" d="
		M194.016,126.134c0,0-2.368,1.926-1.057-2.709c2.807-1.849,0.75,6.461-0.705,13.253c-1.508,7.041-1.607,29.209-1.607,29.209
		s-16.862,22.08-18.117,18.706c-0.607-1.632,16.712-19.048,16.712-19.048c0.736-38.548,2.498-40.141,3.716-42.12
		c4.749-5.158,19.339-11.657,19.188-3.651c-0.124,6.502-17.082,6.276-17.082,6.276l2.841-5.343l0.505,4.127l3.657-5.887l-0.33,6.562
		l4.997-8.472l-1.651,7.257l5.097-7.231l-2.872,7.052l4.511-5.956"/>
	<g id="Panzer">
		<path fill="none" stroke="#000000" stroke-width="2" stroke-linecap="round" stroke-linejoin="round" stroke-miterlimit="10" d="
			M228.073,82.692c17.298-5.702,28.361,4.249,39.394,18.815c24.688,37.628,9.603,73.435,7.478,78.291
			c-2.124,4.854-4.247,7.89-9.406,6.979c-54.621-28.834-55.89-82.15-53.104-92.25C214.861,85.728,228.073,82.692,228.073,82.692
			c5.603,3.643,14.786,12.236,19.105,21.85c5.557,12.366,23.567,46.733,22.48,81.326"/>
		<path fill="none" stroke="#000000" stroke-width="2" stroke-linecap="round" stroke-linejoin="round" stroke-miterlimit="10" d="
			M227.485,82.844c0,0,35.625,34.746,41.025,103.976c-2.215-10.513-10.862-65.741-41.814-102.61"/>
		<path fill="none" stroke="#000000" stroke-width="2" stroke-linecap="round" stroke-linejoin="round" stroke-miterlimit="10" d="
			M266.752,186.018c0,0-17.601-72.979-41.641-102.417"/>
		<path fill="none" stroke="#000000" stroke-width="2" stroke-linecap="round" stroke-linejoin="round" stroke-miterlimit="10" d="
			M223.784,84.817c8.376,8.872,29.769,64.106,41.906,101.2c-2.016-3.249-11.229-15.172-44.74-100.596"/>
		<path fill="none" stroke="#000000" stroke-width="2" stroke-linecap="round" stroke-linejoin="round" stroke-miterlimit="10" d="
			M265.416,185.24c0,0-41.754-99.058-42.664-100.423"/>
		<path fill="none" stroke="#000000" stroke-width="2" stroke-linecap="round" stroke-linejoin="round" stroke-miterlimit="10" d="
			M264.021,185.24c0,0-12.745-10.449-44.975-98.717"/>
		<path fill="none" stroke="#000000" stroke-width="2" stroke-linecap="round" stroke-linejoin="round" stroke-miterlimit="10" d="
			M261.581,184.593c0,0-22.443-24.52-43.988-95.831"/>
		<path fill="none" stroke="#000000" stroke-width="2" stroke-linecap="round" stroke-linejoin="round" stroke-miterlimit="10" d="
			M257.345,181.011c0,0-22.287-17.937-42.331-91.116"/>
		<path fill="none" stroke="#000000" stroke-width="2" stroke-linecap="round" stroke-linejoin="round" stroke-miterlimit="10" d="
			M213.342,92.275c0,0,15.438,70.331,45.5,90.686"/>
		<path fill="none" stroke="#000000" stroke-width="2" stroke-linecap="round" stroke-linejoin="round" stroke-miterlimit="10" d="
			M212.147,95.815c0,0,8.48,62.437,46.107,85.195"/>
		<path fill="none" stroke="#000000" stroke-width="2" stroke-linecap="round" stroke-linejoin="round" stroke-miterlimit="10" d="
			M211.606,103.783c0,0,6.242,52.591,43.894,75.454"/>
		<path fill="none" stroke="#000000" stroke-width="2" stroke-linecap="round" stroke-linejoin="round" stroke-miterlimit="10" d="
			M230.793,82.844c0,0,19.27,6.222,33.986,57.505c2.896,12.305,7.131,32.166,5.828,45.668"/>
		<path fill="none" stroke="#000000" stroke-width="2" stroke-linecap="round" stroke-linejoin="round" stroke-miterlimit="10" d="
			M271.607,183.743c0,0,1.82-22.304-5.917-50.98c-7.738-28.676-21.467-45.061-32.137-50.677"/>
		<path fill="none" stroke="#000000" stroke-width="2" stroke-linecap="round" stroke-linejoin="round" stroke-miterlimit="10" d="
			M271.794,182.961c0,0,2.089-13.025,1.179-27.136s-11.944-65.58-36.881-73.739"/>
		<path fill="none" stroke="#000000" stroke-width="2" stroke-linecap="round" stroke-linejoin="round" stroke-miterlimit="10" d="
			M273.202,183.221c0,0,4.781-11.722,0-41.71c-4.781-29.989-15.718-50.168-33.615-59.424"/>
		<path fill="none" stroke="#000000" stroke-width="2" stroke-linecap="round" stroke-linejoin="round" stroke-miterlimit="10" d="
			M278.738,165.081c0,0,4.854-38.645-14.718-67.951"/>
	</g>
	<path fill="none" stroke="#000000" stroke-width="2" stroke-linecap="round" stroke-linejoin="round" stroke-miterlimit="10" d="
		M246.012,72.914c0,0,2.229-3.117,6.662-6.911s6.168-1.668,6.168-1.668s-6.868,17.296-11.238,17.751l9.741-17.296
		c0,0-11.228,16.307-12.138,16.271c-0.91-0.036,9.44-15.815,9.44-15.815l-8.12,9.255"/>
	<path fill="none" stroke="#000000" stroke-width="2" stroke-linecap="round" stroke-linejoin="round" stroke-miterlimit="10" d="
		M255.5,54.928c0,0,5.222,7.738,3.342,9.407c-1.388,1.232-4.919-7.586-4.194-9.407s10.435-10.773,12.104-9.559
		c1.669,1.214-12.104,9.559-12.104,9.559"/>
	<path fill="none" stroke="#000000" stroke-width="2" stroke-linecap="round" stroke-linejoin="round" stroke-miterlimit="10" d="
		M183.151,89.895c0,0,20.934,14.149,27.158,9.792c0.759-1.669,0.607-7.586-26.248-12.441c-3.035,0.152-3.338,2.649,23.669,12.29
		c2.579,0.151,1.972-3.567-3.338-5.653c-5.311-2.085-23.905-8.777-19.421-4.899c9.862,3.268,22.91,9.034,22.91,9.034"/>
	<path fill="none" stroke="#000000" stroke-width="2" stroke-linecap="round" stroke-linejoin="round" stroke-miterlimit="10" d="
		M178.344,103.025c0,0,1.621-15.78,3.138-14.263C184.872,92.152,178.344,103.025,178.344,103.025s-22.443-2.28-17.648-5.895
		c1.744-1.315,17.751,4.681,17.751,4.681"/>
	<path fill="none" stroke="#000000" stroke-width="2" stroke-linecap="round" stroke-linejoin="round" stroke-miterlimit="10" d="
		M244.083,26.858c0,0-16.931,39.04-16.477,34.969c0.468-4.189,17.544-36.183,17.544-36.183"/>
	<path fill="none" stroke="#000000" stroke-width="2" stroke-linecap="round" stroke-linejoin="round" stroke-miterlimit="10" d="
		M169.192,45.256c0,0,17.297,4.513,37.021,23.63c0,0,1.047,2.276-4.482-2.579c-5.531-4.855-13.875-14.111-30.489-19.27
		C168.889,47.493,166.966,44.539,169.192,45.256z"/>
</g>
<g id="Ebene_4">
	<g id="Ebene_5" opacity="0.4">
		<path fill="#EBECEB" d="M303.529,53.598c0,0-24.118-44.574-91.962-29.956c-74.114,35.021-62.278,86.168-57.337,98.623
			c0,0,18.13,47.924,52.181,56.463c16.096,3.132,60.018,7.784,85.014-16.666c24.996-24.452,29.981-49.528,24.531-76.248
			C310.506,59.095,303.529,53.598,303.529,53.598z"/>
	</g>
	<path fill="none" stroke="#BFC2C9" stroke-width="2" stroke-linecap="round" stroke-linejoin="round" stroke-miterlimit="10" d="
		M171.389,154.095c8.288,6.688,47.632,46.731,102.391,15.595c54.76-31.138,46.013-86.973,35.482-102.781
		c-37.655-49.202-71.26-45.947-90.909-43.067C196.097,27.848,174.2,45.083,165.2,63.333c-7.591,9.074-20.545,69.18,19.82,101.455
		c51.848,37.194,101.73,2.896,112.185-7.685c37.941-42,22.915-106.925-23.385-128.28c-46.3-21.354-84.884-4.16-114.187,38.5
		c-25.706,38.953,9.902,84.96,9.902,84.96s40.136,60.34,118.333,9.308c16.138-13.052,44.389-58.043,11.69-110.233
		c-9.154-15.367-42.6-35.119-90.891-22.387c-48.292,12.731-55.922,49.871-54.555,82.233c1.367,32.363,30.907,53.583,30.907,53.583"
		/>
	<path fill="none" stroke="#BFC2C9" stroke-width="2" stroke-linecap="round" stroke-linejoin="round" stroke-miterlimit="10" d="
		M176.75,163.25C67.326,276.053,45,287.5,44.75,279.5c1-33,125.882-122.524,128.416-122.647s5.709,5.802,5.709,5.802
		C165.292,182.584,54.908,299.301,45.02,277.639c-9.697-21.247,87.483-94.894,126.369-123.544"/>
	<path fill="none" stroke="#BFC2C9" stroke-width="2" stroke-linecap="round" stroke-linejoin="round" stroke-miterlimit="10" d="
		M51.341,270.731"/>
	<path fill="none" stroke="#BFC2C9" stroke-width="2" stroke-linecap="round" stroke-linejoin="round" stroke-miterlimit="10" d="
		M284.042,52.393c0,0,18.35,25.003,16.77,46.395"/>
	<path fill="none" stroke="#BFC2C9" stroke-width="2" stroke-linecap="round" stroke-linejoin="round" stroke-miterlimit="10" d="
		M283.346,63.662c0,0,14.861,22.161,11.022,47.234"/>
	<path fill="none" stroke="#F5952F" stroke-width="2" stroke-linecap="round" stroke-linejoin="round" stroke-miterlimit="10" d="
		M168.207,154.095c0,0,9.042,10.067,10.667,10.986C177.75,167.5,167,155.25,167,155.25l8.375,12.052L165.25,155.75l8.927,13.033
		L163.75,157.75l8.765,14l-11.015-12.5l9.741,13.683c0,0-10.943-10.183-11.217-12.433c-0.281,2.241,6.875,13.578,9.425,13.914
		c0,0-11.699-10.664-11.449-12.664c-0.458,2.641,9.911,14.444,10.207,14.104S161,172,156,163
		c0.81,5.965,10.668,16.189,11.438,14.521c0,0-3.438,0.391-13.188-12.44"/>
</g>
</svg>
