<?xml version="1.0" encoding="utf-8"?>
<!-- Generator: Adobe Illustrator 16.0.0, SVG Export Plug-In . SVG Version: 6.00 Build 0)  -->
<!DOCTYPE svg PUBLIC "-//W3C//DTD SVG 1.1//EN" "http://www.w3.org/Graphics/SVG/1.1/DTD/svg11.dtd">
<svg version="1.1" xmlns="http://www.w3.org/2000/svg" xmlns:xlink="http://www.w3.org/1999/xlink" x="0px" y="0px" width="400px"
	 height="300px" viewBox="0 0 400 300" enable-background="new 0 0 400 300" xml:space="preserve">
<g id="weiß">
	<path fill="#FFFFFF" d="M333.269,152.332c0,0,17.397-24.332,12.981-42.499S321.001,69.233,302.834,66.7
		c-20.834-2.866-42.922,1.427-57.461,21.53c-6.539,11.27-11.129,35.525-5.752,45.568s18.387,32.086,35.383,36.894
		S320.037,169.33,333.269,152.332z"/>
	<path fill="#FFFFFF" d="M167.667,235c0,0,1.643-7.451,6.571-0.059s8.788,29.74,1.525,42.399
		c10.741-0.918,31.598-3.435,36.584,13.112c-20.19,0.408-58.201,1.052-58.201,1.052v3.314l-57.442,0.009l-2.745-3.994
		c0,0-4.426,5.394-8.859,3.863c-3.998-3.428-4.925-4.222-4.925-4.222l-7.387,4.222l-0.352-3.166l-6.936-0.026l2.715-10.176
		l-3.518-0.352c0,0,3.306-6.822,7.388-8.816c-2.251-3.661-2.111-6.332-2.111-6.332L78,265.167c0,0-1.732-6.616,3.667-5.252
		s9.127,3.398,9.127,3.398s0.539-44.036,12.206-41.258c4.333,0.611,6.546,3.158,6.546,3.158s0.12-16.298,23.87-28.089
		c-10.147-9.872-18.317-17.63-16.45-34.044c-7.821-9.085-14.91-17.748-14.91-17.748l4.718-2.333c0,0-12.688-10.642-9.981-12.154
		s12.446,9.283,12.446,9.283s12.874-12.035,17.28-13.128c-3.871-4.786-18.724-22.667-49.522-25.483
		C49,97.833,25.959,90.036,45.959,69.909c0,0,6.887-2.579,15.394-0.475s40.71,11.417,58.007,28.593s22.802,21.179,29.307,38.604
		c1.545-3.944,1.477-6.623,1.477-6.623l2.199,4.796l2.694-3.412c0,0-28.53-71.261-32.795-92.943S120.75,6.588,133.417,9.524
		S143.667,11,148.368,22.95c2.912,7.402,14.493,103.126,17.229,107.172c5.746,1.792,30.28,11.209,38.341,37.127
		c3.562,9.251,3.6,22.552-1.194,25.081s-16.077,5.504-22.411,5.337c-1,1.333-1.667,2.849-1.667,2.849l7.929,3.151
		c0,0,34.709-6.981,44.14-1.51s5.963,7.829-1.027,9.92S199.5,218.334,193,217.834C184,220.834,173.573,229.539,167.667,235z"/>
</g>
<g id="schwarz">
	<path fill="none" stroke="#000000" stroke-width="2" stroke-linecap="round" stroke-linejoin="round" stroke-miterlimit="10" d="
		M126.519,127c0,0-9.002-21.479-60.063-27.21C26.76,95.333,35.741,69.356,51,68.707c15.259-0.649,73.333,14.626,97.667,67.924
		c2.328-7.414,1.477-6.623,1.477-6.623l2.199,4.796l4.872-6.169l2.229,4.925"/>
	<path fill="none" stroke="#000000" stroke-width="2" stroke-linecap="round" stroke-linejoin="round" stroke-miterlimit="10" d="
		M155.038,131.393c0,0-49.736-115.393-28.519-121.059c20.796-5.554,23.141,18.883,24.536,30.705
		c1.396,11.822,11.971,86.005,14.542,89.083c18.736,3.706,41.674,30.525,41.254,52.016c0.42,8.763-4.633,14.987-26.652,14.987
		c-6.739,0-17.924-4.998-24.747-9.454"/>
	<path fill="none" stroke="#009BA4" stroke-width="2" stroke-linecap="round" stroke-linejoin="round" stroke-miterlimit="10" d="
		M130.899,180.123c0,0,3.071,6.444,10.156,10.235c7.036-0.33,20.73-18.085,20.73-18.085s-23.841-40.33-35.266-45.273
		c-9.376,1.551-23.142,20.296-23.142,20.296l13.589,15.785"/>
	<path fill="none" stroke="#009BA4" stroke-width="2" stroke-linecap="round" stroke-linejoin="round" stroke-miterlimit="10" d="
		M105.426,141.408c0,0-8.717-6.088-9.069-8.551c-0.352-2.463,1.722-2.771,1.722-2.771l9.716,8.188"/>
	<path fill="none" stroke="#000000" stroke-width="2" stroke-linecap="round" stroke-linejoin="round" stroke-miterlimit="10" d="
		M136.453,188.682c0,0-8.281-4.817-4.741-14.315c6.07-16.286-8.619-18.292-8.619-18.292c-4.572,0.352-6.507,4.247-6.507,12.338
		c0.352,9.146,2.11,17.211,18.292,29.875"/>
	<path fill="none" stroke="#000000" stroke-width="2" stroke-linecap="round" stroke-linejoin="round" stroke-miterlimit="10" d="
		M122.636,255.334c0,0,0.064-36.667-21.357-32.973c-13.05,2.251-12.321,66.112-4.574,72.467l57.442-0.009
		c0,0-2.735-15.688-37.562-11.819"/>
	<path fill="none" stroke="#000000" stroke-width="2" stroke-linecap="round" stroke-linejoin="round" stroke-miterlimit="10" d="
		M154.147,223.373l3.817,6.166l9.042-3.931l2.775,3.701l3.052-7.933c0,0,3.931,2.97,7.6-2.192c3.669-5.16,3.556-11.715,3.556-11.715
		l2.607-3.803c0,0-5.334-2.913-8-3.038c-2.667-0.125,4.162-3.022-0.135-3.504"/>
	<path fill="none" stroke="#000000" stroke-width="2" stroke-linecap="round" stroke-linejoin="round" stroke-miterlimit="10" d="
		M154.147,291.505l58.201-1.052c0,0-2.463-18.292-36.584-13.112c5.98-6.685,7.484-53.007-8.096-42.341"/>
	<path fill="none" stroke="#000000" stroke-width="2" stroke-linecap="round" stroke-linejoin="round" stroke-miterlimit="10" d="
		M154.147,264c0,0,9.853-16.745,13.52-29c0,0,16.59-17.042,27.892-17.365c24.625-0.702,53.751-8.599,35.177-15.478
		c-11.959-4.43-44.14,1.51-44.14,1.51"/>
	<path fill="none" stroke="#000000" stroke-width="2" stroke-linecap="round" stroke-linejoin="round" stroke-miterlimit="10" d="
		M133.417,197.125c0,0-23.083,12.959-24.177,25.917"/>
	<path fill="none" stroke="#000000" stroke-width="2" stroke-linecap="round" stroke-linejoin="round" stroke-miterlimit="10" d="
		M91.256,263.629c0,0-5.974-4.341-10.899-3.637c-4.925,0.703-2.306,5.485-2.306,5.485l-8.077,0.352l2.111,6.332
		c0,0-6.332,4.947-7.388,8.816c3.518,0.352,3.518,0.352,3.518,0.352l-3.518,10.202h7.739l0.352,3.166l7.387-4.222l4.925,4.222
		c0,0,8.235,1.405,8.859-5.318"/>
	<g>
		<g>
			<path d="M167.667,175.273c3.869,0,3.869-6,0-6S163.798,175.273,167.667,175.273L167.667,175.273z"/>
		</g>
	</g>
	<path fill="none" stroke="#000000" stroke-width="2" stroke-linecap="round" stroke-linejoin="round" stroke-miterlimit="10" d="
		M195.386,192.667c0,0,0.418,1.333,6.683,0"/>
</g>
<g id="welt">
	<path fill="none" stroke="#009BA4" stroke-width="2" stroke-linecap="round" stroke-linejoin="round" stroke-miterlimit="10" d="
		M236.625,118.333c-2.631,27.567,46.511,73.72,90.042,35.667c49.216-43.023-6.333-91.634-35.667-87.3
		c-25.333,3.634-48.239,14.673-51.333,34.966s-2.334,43.335,24.666,63.668s85.666-3.807,79-47.904
		c-6.666-44.097-43.667-56.698-63-50.73s-48.667,17.472-39,63.386"/>
	<path fill="none" stroke="#009BA4" stroke-width="2" stroke-linecap="round" stroke-linejoin="round" stroke-miterlimit="10" d="
		M270,89.667c0,0-12.406,9.165-12.953,11.999S271.168,87,273.834,89.667c-3.167,1.833-19,19-19,19L278,89.389l-20.953,21.778
		L280.5,90.833L258.167,112.5l24.038-20.231l-21.538,22.398L286,92.5l-23.333,23.833L291.387,92L266,116.333l27.5-23l-25.833,24.333
		l27.667-24l-24.167,24L300.5,93l-25.496,24.667L300.5,96.833l-22.833,20.833l23.833-19l-22.333,22.167l22.333-19.168L283,120.833
		l22.167-19.168L284,124.833l19.5-17.722L283,129l18.834-14.5l-21,20.667l26-19.833l-24.629,22.151l26.629-18.688L283,139.333
		l24.58-15.849L284.167,144l23.413-17.667l-23.746,15.074l23-12.408l-22,16.333l21-13.333L286,146.667l17-10.036l-15.5,11.536
		l14.334-8l-12.667,9l10.667-4.833l-6,4"/>
	<path fill="none" stroke="#009BA4" stroke-width="2" stroke-linecap="round" stroke-linejoin="round" stroke-miterlimit="10" d="
		M300.5,93l6.334-5l-4.667,6.667l6.667-5.278l-4.167,5.945l17.167-17l-16.167,19l18.336-18.386l-17.836,20.813L325.667,82
		l-16,19.666l17.602-17.499l-13.384,17.499L328.834,86c0,0-10.668,11.522-11.834,13.761s12.834-11.928,12.834-11.928l-11.334,13
		l12.833-11.445l-7.166,8.945l7.166-6.833l-4.064,7.167l4.898-4.333l-2.116,3.849l3.218-1.516"/>
	<path fill="none" stroke="#009BA4" stroke-width="2" stroke-linecap="round" stroke-linejoin="round" stroke-miterlimit="10" d="
		M321.167,78.333l-7.5,3.667c0,0,7.677-6.951,6.505-6.226S309.5,82,309.5,82l6.476-7.153L305,80.667l8.084-7L297.438,79.5
		l12.396-5.833L292.167,82l14.5-9.167L287,82l15.834-9.167L284.5,80.667l12.938-7.833L276.667,84l5.167-5.583l-11.167,8.25
		l11.167-9.333L266,90l12.5-11.666c0,0-13.001,9.333-13.167,9.333s8.834-8,8.834-8L262.834,86.5l9.5-8.167L268,80.667l2.5-2.333
		l-2.833,0.833l0.833-1.833l-3.167,1"/>
	<path fill="none" stroke="#009BA4" stroke-width="2" stroke-linecap="round" stroke-linejoin="round" stroke-miterlimit="10" d="
		M341.334,119.579c-0.452,0.904-6.667,5.255-6.667,5.255l6.667-2.627l-5,3.627l5.597-2.349l-2.097,2.349l4.014-0.831L342,127h1.07"
		/>
	<path fill="none" stroke="#009BA4" stroke-width="2" stroke-linecap="round" stroke-linejoin="round" stroke-miterlimit="10" d="
		M246,143l5-1.592c0,0-5.602,2.307-5,3.089s5-1.497,5-1.497l-2.522,2.333l2.522-0.5l-1,1.5h2l-1,2.167l1,0.667V150"/>
</g>
<g id="orange">
	<path fill="none" stroke="#F5952F" stroke-width="2" stroke-linecap="round" stroke-linejoin="round" stroke-miterlimit="10" d="
		M339.542,78.667C292.751,13,245.373,76.09,245.373,76.09S220,97,265.333,108.667c0,0,50.167-25.334,80.917,36.667
		c0,0,12.072,36.665-33.089,28.333c0,0-118.415-56.819-67.788-97.576c0,0-60.039,26.243-6.373,73.91
		c0,0,14.989,71.998,74.161,23.666c0,0-61.495-32.999-47.828-64.999"/>
	<path fill="none" stroke="#F5952F" stroke-width="2" stroke-linecap="round" stroke-linejoin="round" stroke-miterlimit="10" d="
		M263.33,109.333C220.994,113.333,239,150,239,150s55.175,18.339,108.715-4.667c0,0,30.952-47-6.715-64.667"/>
	<path fill="none" stroke="#F5952F" stroke-width="2" stroke-linecap="round" stroke-linejoin="round" stroke-miterlimit="10" d="
		M265.333,108.667c0,0,43.334-52,75.667-28c32,54-27.971,91.964-27.971,91.964"/>
	<path fill="none" stroke="#F5952F" stroke-width="2" stroke-linecap="round" stroke-linejoin="round" stroke-miterlimit="10" d="
		M245.373,76.09c0,0,80.057-40.757,102.342,69.243"/>
</g>
<g id="Sparcles">
	<g>
		<g>
			<path fill="#F5952F" d="M209.666,98.333c3.869,0,3.869-6,0-6S205.797,98.333,209.666,98.333L209.666,98.333z"/>
		</g>
	</g>
	<g>
		<g>
			<path fill="#F5952F" d="M216.695,85c3.869,0,3.869-6,0-6S212.826,85,216.695,85L216.695,85z"/>
		</g>
	</g>
	<g>
		<g>
			<path fill="#F5952F" d="M106.667,172.686c3.869,0,3.869-6,0-6S102.797,172.686,106.667,172.686L106.667,172.686z"/>
		</g>
	</g>
	<g>
		<g>
			<path fill="#F5952F" d="M251,130c3.869,0,3.869-6,0-6S247.131,130,251,130L251,130z"/>
		</g>
	</g>
	<g>
		<g>
			<path fill="#F5952F" d="M229.709,144.408c3.869,0,3.869-6,0-6S225.84,144.408,229.709,144.408L229.709,144.408z"/>
		</g>
	</g>
	<g>
		<g>
			<path fill="#F5952F" d="M243.542,164.667c3.869,0,3.869-6,0-6S239.673,164.667,243.542,164.667L243.542,164.667z"/>
		</g>
	</g>
	<g>
		<g>
			<path fill="#F5952F" d="M327.269,156.586c3.869,0,3.869-6,0-6S323.399,156.586,327.269,156.586L327.269,156.586z"/>
		</g>
	</g>
	<g>
		<g>
			<path fill="#F5952F" d="M333.269,170.919c3.869,0,3.869-6,0-6S329.399,170.919,333.269,170.919L333.269,170.919z"/>
		</g>
	</g>
	<g>
		<g>
			<path fill="#F5952F" d="M243.542,153.582c3.869,0,3.869-6,0-6S239.673,153.582,243.542,153.582L243.542,153.582z"/>
		</g>
	</g>
	<g>
		<g>
			<path fill="#F5952F" d="M243.542,180.181c3.869,0,3.869-6,0-6S239.673,180.181,243.542,180.181L243.542,180.181z"/>
		</g>
	</g>
	<g>
		<g>
			<path fill="#F5952F" d="M109.239,140.485c3.869,0,3.869-6,0-6S105.37,140.485,109.239,140.485L109.239,140.485z"/>
		</g>
	</g>
	<g>
		<g>
			<path fill="#F5952F" d="M318.334,186c3.869,0,3.869-6,0-6S314.465,186,318.334,186L318.334,186z"/>
		</g>
	</g>
	<g>
		<g>
			<path fill="#F5952F" d="M105.302,148.966c3.869,0,3.869-6,0-6S101.433,148.966,105.302,148.966L105.302,148.966z"/>
		</g>
	</g>
	<g>
		<g>
			<path fill="#F5952F" d="M101.752,158.898c3.869,0,3.869-6,0-6S97.883,158.898,101.752,158.898L101.752,158.898z"/>
		</g>
	</g>
	<g>
		<g>
			<path fill="#F5952F" d="M347.715,146c3.869,0,3.869-6,0-6S343.846,146,347.715,146L347.715,146z"/>
		</g>
	</g>
	<g>
		<g>
			<path fill="#F5952F" d="M211.333,116.667c3.869,0,3.869-6,0-6S207.464,116.667,211.333,116.667L211.333,116.667z"/>
		</g>
	</g>
	<g>
		<g>
			<path fill="#F5952F" d="M331.333,64.667c3.869,0,3.869-6,0-6S327.464,64.667,331.333,64.667L331.333,64.667z"/>
		</g>
	</g>
	<g>
		<g>
			<path fill="#F5952F" d="M233.334,193.358c3.869,0,3.869-6,0-6S229.465,193.358,233.334,193.358L233.334,193.358z"/>
		</g>
	</g>
	<g>
		<g>
			<path fill="#F5952F" d="M146,168.334c3.869,0,3.869-6,0-6S142.131,168.334,146,168.334L146,168.334z"/>
		</g>
	</g>
	<g>
		<g>
			<path fill="#F5952F" d="M353.75,155.448c3.869,0,3.869-6,0-6S349.881,155.448,353.75,155.448L353.75,155.448z"/>
		</g>
	</g>
	<g>
		<g>
			<path fill="#F5952F" d="M353.75,132c3.869,0,3.869-6,0-6S349.881,132,353.75,132L353.75,132z"/>
		</g>
	</g>
	<g>
		<g>
			<path fill="#F5952F" d="M288.293,189.172c3.869,0,3.869-6,0-6S284.424,189.172,288.293,189.172L288.293,189.172z"/>
		</g>
	</g>
	<g>
		<g>
			<path fill="#F5952F" d="M273,198.958c3.869,0,3.869-6,0-6S269.131,198.958,273,198.958L273,198.958z"/>
		</g>
	</g>
	<g>
		<g>
			<path fill="#F5952F" d="M247.334,198.958c3.869,0,3.869-6,0-6S243.465,198.958,247.334,198.958L247.334,198.958z"/>
		</g>
	</g>
	<g>
		<g>
			<path fill="#F5952F" d="M229.709,205.246c3.869,0,3.869-6,0-6S225.84,205.246,229.709,205.246L229.709,205.246z"/>
		</g>
	</g>
	<g>
		<g>
			<path fill="#F5952F" d="M220.666,135c3.869,0,3.869-6,0-6S216.797,135,220.666,135L220.666,135z"/>
		</g>
	</g>
</g>
</svg>
