<?xml version="1.0" encoding="utf-8"?>
<!-- Generator: Adobe Illustrator 16.0.0, SVG Export Plug-In . SVG Version: 6.00 Build 0)  -->
<!DOCTYPE svg PUBLIC "-//W3C//DTD SVG 1.1//EN" "http://www.w3.org/Graphics/SVG/1.1/DTD/svg11.dtd">
<svg version="1.1" xmlns="http://www.w3.org/2000/svg" xmlns:xlink="http://www.w3.org/1999/xlink" x="0px" y="0px" width="400px"
	 height="300px" viewBox="0 0 400 300" enable-background="new 0 0 400 300" xml:space="preserve">
<g id="weiß">
	<path fill="#FFFFFF" stroke="#C2C2C2" stroke-miterlimit="10" d="M221.042,150L255,123.667l63.059-3.107l35.274,0.44
		c0,0,6.19-8.5,5.679-50.75c-0.949-32.971-1.679-40.917-1.679-40.917s-11.251-6.12-98.667,1.648
		c-6.42,0.326-12.164-0.01-12.164-0.01s-30.67-3.805-60.836,3.362c0.964,16.158,3.793,48.143,3.793,48.143s0.29,33.857,1.541,38.191
		c10.25,0.833,41,2.583,41,2.583S230.834,135,221.042,150z"/>
	<path fill="#FFFFFF" stroke="#F5952F" stroke-miterlimit="10" d="M138.25,269.591c0,0,38.985-11.425,54.618-44.258
		s-3.107-80.23-8.688-87.695s-22.98-36.695-80.705-32.917c-62.225,12.529-62.557,48.081-62.557,48.081s-11.075,24.888-10.884,36.13
		s-1.286,42.196,41.174,70.264C80.168,265.763,114.495,275.5,138.25,269.591z"/>
	<path fill="#FFFFFF" d="M131.02,105.592c0,0,15.512-9.383,24.458-3.054s9.865,12.767,9.865,12.767s-2.735-12.197-12.664-11.751
		s-16.328,2.95-16.328,2.95L131.02,105.592z"/>
	<path fill="#FFFFFF" d="M54.167,126.794c0,0,1.851-18.772,12.342-21.533c-5.509,5.989-7.833,6.05-6.171,16.52
		S54.167,126.794,54.167,126.794z"/>
	<path fill="#FFFFFF" d="M22.272,180.223c0,0-5.302,11.078,7.588,24.053c-9.196-5.617-13.147-4.662-12.378-15.344
		C18.5,184.5,22.272,180.223,22.272,180.223z"/>
	<path fill="#FFFFFF" d="M86.02,270.821c0,0-15.608,5.435-22.72-6.193c-1.633-2.962-2.961-10.095-2.961-10.095l-3.462-3.426
		c0,0-0.549,3.84,0.538,10.491S65.539,275.893,86.02,270.821z"/>
	<path fill="#FFFFFF" d="M149.502,269.928c0,0,11.875,7.262,18.561,2.542s4.058-13.284,4.058-13.284s3.732-3.012,4.18-11.724
		s-3.302,3.288-3.052,5.288s0.968,5.078-3.641,9.039S155.078,271.6,149.502,269.928z"/>
	<path fill="#FFFFFF" d="M200.197,197.129c0,0,7.119-5.021,7.811-8.197s0.597-8.557-1.265-10.041
		c5.226,5.543,13.423,13.359,1.59,19.109c-2.501,1.399-9.703,4.956-9.703,4.956L200.197,197.129z"/>
</g>
<g id="hellblau">
	<path fill="none" stroke="#BFC2C9" stroke-width="2" stroke-linecap="round" stroke-linejoin="round" stroke-miterlimit="10" d="
		M179.916,132c0,0-21.916-35.333-84.583-26.333c-47,7-64.334,73-64.667,78.667c-3.893,18.889,4.417,70.56,69.084,85.417
		c24,4.524,64.187-0.083,89.25-37.75s0.167-87.333-11.083-98S119.999,82.667,60,122c-20,11.667-26.167,60.126-26,72.333
		s-0.005,68.666,80.831,72.333C137,267,177.666,254.85,192.333,222.758S191.517,143.764,179.916,132z"/>
	<path fill="none" stroke="#BFC2C9" stroke-width="2" stroke-linecap="round" stroke-linejoin="round" stroke-miterlimit="10" d="
		M143.833,113.667c0,0-28.167,47.167-18.167,54.833c6,2.833,25-15.833,37-2.333s17.833,27.166,24.5,14.666s6.333-17,6.333-17
		s2.5,14.499-5.667,18.833s-9.333-5.5-22.5-15.833s-10.333-10.5-31.333,1s-11.166-4.667-7.833-12.5s4.901-40.741,22-40.5"/>
	<path fill="none" stroke="#BFC2C9" stroke-width="2" stroke-linecap="round" stroke-linejoin="round" stroke-miterlimit="10" d="
		M171.167,245c0.5,0,10.332-15.317,8.749-22.242s-4.917-17.425,0-21.758s5.75-8.436-5.416-14.718s-10.931-12.828-17.098-11.39
		c-13.146,3.066-23.068-13.879-33.568,10.864c-3,7.91-4.333,23.743,12.333,16.743s20.333,7.999,20.5,18.333
		s2.735,25.391,12.333,24.834s14.883-15.29,11.667-25.167s-8-17,0.667-24.5c0.167-0.833,4.333-4.486-11.167-10.243
		c-7.868-2.309-3.292-12.336-14.107-12.424s-12.893-4.166-17.227-3.666s-14.167-0.409-15.833,27.462
		c-0.5,5.871,1.333,11.538,13.5,7.371c3.833-1.167,11-4.833,13,2s8.083,31.458,16,35.667s7.15,1.03,10.667-2.334"/>
	<path fill="none" stroke="#BFC2C9" stroke-width="2" stroke-linecap="round" stroke-linejoin="round" stroke-miterlimit="10" d="
		M80.5,226.333c0,0,6.166,19.5,10.667,18s9.167-0.834,11.5,5s12.053,19.666,18.276,15.5S124,246.167,126,239.5
		s3.504-22.14-6.665-20.986s-18.669-8.276-36.335-0.062c-4.333,1.548-6,1.881-8.167-1.452s-1.833-3.383-13.667-1.941
		s5.999-11.558,11-13.892s2.333-17.666,2.333-23s11.167-11.168,4.5-14.334s-26.833,6.791-31.5,5.791s-10,0-10,0
		s37.384-7.098,42.333-3.291c0,0,0.282,5.71-2.333,11.834s4.5,12.5-0.5,20s-26.5,17.5-17.833,18s9.333-4,13,0s4,5.667,24.833-2.5
		c3-0.834,7.85-2.5,14.258,2.5c2.742,2.333,17.575-8.5,17.575,9.833S127,238.666,126.5,247.333s0.5,21.334-3.833,21.167
		s-10.334,3.167-17.667-19c0,0-0.971-6.659-10.667-3.818C89.833,247,80.517,238.999,79.948,231
		c-0.281-4.667-1.615-7.499-3.448-6.833s-3.166-4.668-7.333-2.834s-6.5,3.501-17.833-0.666S37.5,210.833,37.5,210.833
		s17.333,14.666,22.333,14.5s8.666-11.15,12.333-2.575c1.333,3.075,8,0.909,10,5.409"/>
</g>
<g id="grau">
	<path fill="none" stroke="#000000" stroke-width="2" stroke-linecap="round" stroke-linejoin="round" stroke-miterlimit="10" d="
		M200,174.125c0,0,25,14.209,8.333,23.875S150.334,224.334,81.5,216.5C43.666,211,2.334,203.666,23,179.333
		c4.333-3.667,10-7.545,10-7.545s-14.314,5.298-11.667,17.5s13.333,28.046,63,32.712S193,208.999,207,190.666
		c4.855-6.404-1.389-16.666-9.194-19.166"/>
	<path fill="none" stroke="#000000" stroke-width="2" stroke-linecap="round" stroke-linejoin="round" stroke-miterlimit="10" d="
		M54.167,124.667c0,0,2.167-34.667,38.833-13.667s101,92.334,81.667,144c-4,10.333-22.273,20.923-29.441,13.59
		c15.166,8.316,22.441,6.316,25.774,1.363s6.333-47.71-12.333-80.665s-66-85.614-88-84.948c0,0-10-1.007-10.667,14.66"/>
	<path fill="none" stroke="#000000" stroke-width="2" stroke-linecap="round" stroke-linejoin="round" stroke-miterlimit="10" d="
		M166.333,119c0,0,0.333-13.511-7.333-14.755s-32.333-5.661-64,39.88S55.666,247.683,61.666,261.666s20.972,12.158,30.306,7.158
		c-13.667,7-39.978,11.206-35.306-22.158s56.668-156,93.667-146C158.666,102.333,164.333,109.333,166.333,119z"/>
	<path fill="none" stroke="#C2C2C2" stroke-width="2" stroke-linecap="round" stroke-linejoin="round" stroke-miterlimit="10" d="
		M218,150c0,0,11.667-11.667,14.5-27c-10.167-1.333-39.5-1-41.5-2.333s-1.667-70,1.333-80.667c29-6,131-18,165-10.667
		c2,14.667,3.667,82-4,91.667c-31,0-91.666-1.667-96.333-3.333c-10.334,10.667-31.666,31.333-37,34
		c12.333-19.666,19.332-32.333,19.666-35c-7-0.333-41.86,0.667-41.86,0.667s-7.807-1-12.14-83C199,31.333,216,27,288,34.333
		c9.666,0.667,66,5,66,5s0.003,69.673-2,75.667s-97,8.667-97,8.667S224,149.333,218,150z"/>
</g>
<g id="Sparcles">
	<g>
		<g>
			<path fill="#F5952F" d="M214.062,149c3.869,0,3.869-6,0-6S210.193,149,214.062,149L214.062,149z"/>
		</g>
	</g>
	<g>
		<g>
			<path fill="#F5952F" d="M214.062,131c3.869,0,3.869-6,0-6S210.193,131,214.062,131L214.062,131z"/>
		</g>
	</g>
	<g>
		<g>
			<path fill="#F5952F" d="M179.916,94.333c3.869,0,3.869-6,0-6S176.047,94.333,179.916,94.333L179.916,94.333z"/>
		</g>
	</g>
	<g>
		<g>
			<path fill="#F5952F" d="M258.666,135c3.869,0,3.869-6,0-6S254.797,135,258.666,135L258.666,135z"/>
		</g>
	</g>
	<g>
		<g>
			<path fill="#F5952F" d="M297.333,112.333c3.869,0,3.869-6,0-6S293.464,112.333,297.333,112.333L297.333,112.333z"/>
		</g>
	</g>
	<g>
		<g>
			<path fill="#F5952F" d="M365.5,114.667c3.869,0,3.869-6,0-6S361.631,114.667,365.5,114.667L365.5,114.667z"/>
		</g>
	</g>
	<g>
		<g>
			<path fill="#F5952F" d="M368,66.667c3.869,0,3.869-6,0-6S364.131,66.667,368,66.667L368,66.667z"/>
		</g>
	</g>
	<g>
		<g>
			<path fill="#F5952F" d="M374,81c3.869,0,3.869-6,0-6S370.131,81,374,81L374,81z"/>
		</g>
	</g>
	<g>
		<g>
			<path fill="#F5952F" d="M376.333,98c3.869,0,3.869-6,0-6S372.464,98,376.333,98L376.333,98z"/>
		</g>
	</g>
	<g>
		<g>
			<path fill="#F5952F" d="M362.5,129.167c3.869,0,3.869-6,0-6S358.631,129.167,362.5,129.167L362.5,129.167z"/>
		</g>
	</g>
	<g>
		<g>
			<path fill="#F5952F" d="M189,63.333c3.869,0,3.869-6,0-6S185.13,63.333,189,63.333L189,63.333z"/>
		</g>
	</g>
	<g>
		<g>
			<path fill="#F5952F" d="M24.481,166.833c3.869,0,3.869-6,0-6S20.612,166.833,24.481,166.833L24.481,166.833z"/>
		</g>
	</g>
	<g>
		<g>
			<path fill="#F5952F" d="M183.416,70.833c3.869,0,3.869-6,0-6S179.547,70.833,183.416,70.833L183.416,70.833z"/>
		</g>
	</g>
	<g>
		<g>
			<path fill="#F5952F" d="M177.916,79.833c3.869,0,3.869-6,0-6S174.047,79.833,177.916,79.833L177.916,79.833z"/>
		</g>
	</g>
	<g>
		<g>
			<path fill="#F5952F" d="M196,215.333c3.869,0,3.869-6,0-6S192.13,215.333,196,215.333L196,215.333z"/>
		</g>
	</g>
	<g>
		<g>
			<path fill="#F5952F" d="M214.062,176.333c3.869,0,3.869-6,0-6S210.193,176.333,214.062,176.333L214.062,176.333z"/>
		</g>
	</g>
	<g>
		<g>
			<path fill="#F5952F" d="M129.666,119.333c3.869,0,3.869-6,0-6S125.797,119.333,129.666,119.333L129.666,119.333z"/>
		</g>
	</g>
	<g>
		<g>
			<path fill="#F5952F" d="M214.062,197.333c3.869,0,3.869-6,0-6S210.193,197.333,214.062,197.333L214.062,197.333z"/>
		</g>
	</g>
	<g>
		<g>
			<path fill="#F5952F" d="M174.666,46.667c3.869,0,3.869-6,0-6S170.797,46.667,174.666,46.667L174.666,46.667z"/>
		</g>
	</g>
	<g>
		<g>
			<path fill="#F5952F" d="M182.666,26.333c3.869,0,3.869-6,0-6S178.797,26.333,182.666,26.333L182.666,26.333z"/>
		</g>
	</g>
	<g>
		<g>
			<path fill="#F5952F" d="M153.666,116.667c3.869,0,3.869-6,0-6S149.797,116.667,153.666,116.667L153.666,116.667z"/>
		</g>
	</g>
	<g>
		<g>
			<path fill="#F5952F" d="M106.666,228.333c3.869,0,3.869-6,0-6S102.797,228.333,106.666,228.333L106.666,228.333z"/>
		</g>
	</g>
	<g>
		<g>
			<path fill="#F5952F" d="M91.167,234c3.869,0,3.869-6,0-6S87.297,234,91.167,234L91.167,234z"/>
		</g>
	</g>
	<g>
		<g>
			<path fill="#F5952F" d="M72.167,235c3.869,0,3.869-6,0-6S68.297,235,72.167,235L72.167,235z"/>
		</g>
	</g>
	<g>
		<g>
			<path fill="#F5952F" d="M54.167,230c3.869,0,3.869-6,0-6S50.297,230,54.167,230L54.167,230z"/>
		</g>
	</g>
	<g>
		<g>
			<path fill="#F5952F" d="M200,185.666c3.869,0,3.869-6,0-6S196.131,185.666,200,185.666L200,185.666z"/>
		</g>
	</g>
</g>
</svg>
