<?xml version="1.0" encoding="utf-8"?>
<!-- Generator: Adobe Illustrator 16.0.0, SVG Export Plug-In . SVG Version: 6.00 Build 0)  -->
<!DOCTYPE svg PUBLIC "-//W3C//DTD SVG 1.1//EN" "http://www.w3.org/Graphics/SVG/1.1/DTD/svg11.dtd">
<svg version="1.1" xmlns="http://www.w3.org/2000/svg" xmlns:xlink="http://www.w3.org/1999/xlink" x="0px" y="0px"
	 width="1202.667px" height="370px" viewBox="0 0 1202.667 370" enable-background="new 0 0 1202.667 370" xml:space="preserve">
<g id="Magier_Faden">
	<path d="M1145.755,59.71c0,0,0.475-30.975,1.168-45.537c7.557,0.525,17.593,3.43,32.161,16.31
		c-6.085,6.791-12.282,20.792-15.591,33.881C1160.024,61.531,1150.749,59.604,1145.755,59.71z"/>
	<path fill="#F7941E" d="M1141.263,80.85c0,0-2.009-1.172-0.973-1.663c0.31-0.123,0.729,0.14,0.973,0
		c0.244-0.139,0.536-0.753-0.163-2.012c-0.695-1.26-0.226-1.715,0.067-2.048c0.291-0.332,1.279-1.033,0.47-1.68
		c-0.812-0.648-0.194-1.646,0.162-2.17c0.357-0.525,1.523-1.943,1.377-3.133c-0.096-0.822,0.131-1.068,0.73-1.26
		c0.601-0.193,0.633-0.542,0.308-0.823c-0.324-0.28-1.231-0.63-1.005-1.348c0.227-0.717,1.443-1.907,1.477-2.169
		c0.031-0.262-0.018-0.245-0.373-0.543c-0.357-0.297-0.52-1.208,0.518-2.03c0.472-0.331,2.027-0.384,3.26-0.314
		c2.798,0.317,10.881,1.015,15.453,4.673c0.601,0.577,1.282,1.855,0.615,2.957c-0.665,1.104-2.463,3.028-1.572,3.605
		c0.455,0.262,1.12,0.438,0.34,1.627c-0.356,0.473-1.28,0.963-0.794,1.855c0.487,0.893,1.071,0.805,0.503,1.574
		c-0.567,0.771-1.102,1.156-1.378,1.365c-0.275,0.21-0.405,0.281-0.032,0.771c0.371,0.49,1.296,0.979,0.826,1.54
		c-0.47,0.56-1.216,1.505-0.908,1.627c0.31,0.122,1.313,0.419,0.974,0.945c-0.34,0.525-0.647,0.98-1.734,1.243
		C1159.295,83.703,1145.61,82.005,1141.263,80.85z"/>
	<path d="M1124.901,77.945c0,0,5.968,3.43,23.739,6.195c18.03,2.59,24.682,2.065,26.042,2.065c0.643-0.085,0.697-0.438,0.697-0.49
		c0-0.281-1.654-0.7-3.452-1.015c-1.801-0.315-7.801-1.313-10.362-1.26c-2.562,0.052-11.674-0.805-19.944-2.502
		c-0.683-0.193-0.729-0.403-1.234-0.647c-0.502-0.245-4.361-1.348-6.842-2.345S1126.88,75.442,1124.901,77.945z"/>
	<path d="M1062.962,173.707c0,0-15.631-52.99-19.59-71.611c1.104-0.84,2.595,0,2.595,0S1062.378,164.119,1062.962,173.707z"/>
	<g id="Ebene_18">
		<g>
			<path fill="#F7941E" d="M1061.275,170.812c0.116,0.284,0.31,0.552,0.52,0.76c0.31,0.31,0.791,0.333,1.101,0
				c0.29-0.315,0.312-0.877,0-1.188c-0.047-0.048-0.093-0.094-0.134-0.147c0.129,0.155-0.015-0.028-0.04-0.071
				c-0.038-0.064-0.072-0.133-0.104-0.203c-0.17-0.419-0.729-0.513-1.062-0.3C1061.158,169.913,1061.104,170.393,1061.275,170.812
				L1061.275,170.812z"/>
		</g>
		<g>
			<path fill="#F7941E" d="M1059.792,165.802c0.136,0.192,0.252,0.348,0.447,0.475c0.089,0.056,0.191,0.092,0.287,0.128
				c0.195,0.072-0.12-0.074,0.031,0.014c0.375,0.215,0.844,0.105,1.063-0.301c0.21-0.384,0.098-0.935-0.279-1.15
				c-0.114-0.067-0.237-0.122-0.364-0.168c-0.06-0.024-0.175-0.088,0.05,0.026c-0.013-0.007-0.021-0.014-0.033-0.021
				c0.062,0.034,0.11,0.083,0.142,0.15c-0.256-0.363-0.665-0.555-1.065-0.301C1059.738,164.863,1059.533,165.438,1059.792,165.802
				L1059.792,165.802z"/>
		</g>
		<g>
			<path fill="#F7941E" d="M1059.098,160.818c0.168,0.097,0.312,0.229,0.485,0.315c0.388,0.192,0.838,0.122,1.066-0.302
				c0.198-0.365,0.106-0.958-0.278-1.149c-0.175-0.086-0.319-0.217-0.488-0.315c-0.372-0.214-0.843-0.104-1.063,0.302
				C1058.61,160.053,1058.723,160.604,1059.098,160.818L1059.098,160.818z"/>
		</g>
		<g>
			<path fill="#F7941E" d="M1057.64,155.848c0.307,0.251,0.594,0.466,0.963,0.609c0.4,0.156,0.853-0.172,0.956-0.586
				c0.121-0.468-0.143-0.878-0.541-1.033c-0.204-0.08,0.137,0.077-0.051-0.03c-0.057-0.032-0.111-0.071-0.165-0.109
				c-0.13-0.093-0.253-0.2-0.378-0.302c-0.339-0.278-0.871-0.059-1.064,0.301C1057.125,155.129,1057.3,155.572,1057.64,155.848
				L1057.64,155.848z"/>
		</g>
		<g>
			<path fill="#F7941E" d="M1056.193,150.577c0.312,0.474,0.68,0.887,1.153,1.176c0.369,0.225,0.849,0.098,1.065-0.301
				c0.213-0.391,0.089-0.924-0.28-1.149c-0.072-0.047-0.145-0.094-0.216-0.147c-0.071-0.056-0.069-0.053,0.006,0.007
				c-0.033-0.029-0.064-0.06-0.094-0.09c-0.065-0.061-0.123-0.128-0.18-0.196c-0.026-0.033-0.057-0.066-0.082-0.102
				c-0.136-0.174,0.091,0.138-0.031-0.046c-0.245-0.372-0.673-0.549-1.063-0.301C1056.13,149.643,1055.944,150.203,1056.193,150.577
				L1056.193,150.577z"/>
		</g>
		<g>
			<path fill="#F7941E" d="M1054.701,145.537c0.204,0.372,0.402,0.726,0.729,0.987c0.368,0.291,0.87,0.299,1.283,0.134
				c0.398-0.159,0.665-0.563,0.545-1.033c-0.107-0.413-0.559-0.746-0.959-0.586c-0.045,0.02-0.091,0.036-0.138,0.05
				c-0.195,0.064,0.151,0.002-0.025,0c0.035,0.005,0.07,0.009,0.106,0.015c-0.081-0.027-0.063-0.018,0.053,0.028
				c-0.146-0.08,0.128,0.13,0.007,0.002c-0.055-0.067-0.048-0.052,0.021,0.042c-0.033-0.047-0.062-0.099-0.093-0.148
				c-0.064-0.111-0.125-0.226-0.186-0.337c-0.218-0.394-0.696-0.536-1.065-0.302
				C1054.616,144.617,1054.482,145.143,1054.701,145.537L1054.701,145.537z"/>
		</g>
		<g>
			<path fill="#F7941E" d="M1053.24,139.585c0.312,0.621,0.756,1.179,1.351,1.493c0.382,0.2,0.837,0.114,1.064-0.302
				c0.203-0.373,0.104-0.948-0.277-1.149c-0.101-0.052-0.195-0.109-0.286-0.176c-0.174-0.125,0.115,0.109-0.042-0.039
				c-0.048-0.045-0.093-0.095-0.136-0.145c-0.03-0.034-0.059-0.068-0.086-0.104c-0.14-0.174,0.09,0.137-0.034-0.054
				c-0.079-0.119-0.144-0.245-0.209-0.373c-0.202-0.402-0.706-0.527-1.064-0.302C1053.146,138.674,1053.039,139.184,1053.24,139.585
				L1053.24,139.585z"/>
		</g>
		<g>
			<path fill="#F7941E" d="M1051.909,135.037c0.37,0.766,1.095,1.047,1.774,1.386c0.384,0.191,0.834,0.122,1.062-0.302
				c0.2-0.366,0.107-0.957-0.277-1.149c-0.25-0.124-0.504-0.233-0.748-0.363c-0.121-0.063-0.233-0.139-0.345-0.221
				c0.113,0.083-0.068-0.087-0.071-0.092c0.092,0.106-0.043-0.093-0.05-0.108c-0.195-0.406-0.713-0.524-1.066-0.301
				C1051.811,134.127,1051.715,134.629,1051.909,135.037L1051.909,135.037z"/>
		</g>
		<g>
			<path fill="#F7941E" d="M1050.049,128.57c0.205,0.935,1.334,1.301,2.068,1.567c0.402,0.144,0.85-0.163,0.957-0.587
				c0.118-0.459-0.141-0.889-0.543-1.034c-0.104-0.039-0.211-0.076-0.313-0.118c-0.065-0.024-0.132-0.051-0.196-0.079
				c-0.223-0.092,0.137,0.068-0.086-0.039c-0.135-0.065-0.263-0.14-0.387-0.222c-0.184-0.122,0.102,0.106-0.044-0.036
				c-0.061-0.069-0.053-0.057,0.018,0.037c0.039,0.125,0.047,0.146,0.026,0.062c-0.096-0.445-0.558-0.704-0.957-0.586
				C1050.174,127.661,1049.953,128.125,1050.049,128.57L1050.049,128.57z"/>
		</g>
		<g>
			<path fill="#F7941E" d="M1048.375,122.61c0.583,0.911,2.103,1.742,2.851,0.593c0.382-0.586,0.185-1.342-0.301-1.773
				c-0.467-0.416-1.057-0.661-1.636-0.823c-0.974-0.271-1.387,1.349-0.416,1.621c0.247,0.067,0.576,0.192,0.712,0.261
				c0.071,0.038,0.142,0.079,0.21,0.123c0.016,0.008,0.209,0.166,0.083,0.053c0.036,0.032,0.146,0.199,0.043,0.032
				c-0.054-0.085-0.056-0.218-0.034-0.313c0.034-0.157,0.162-0.232,0.293-0.291c-0.152,0.068,0.173,0.001-0.004-0.008
				c0.197,0.01,0.019-0.011-0.034-0.027c-0.201-0.068,0.137,0.075-0.059-0.033c-0.062-0.033-0.121-0.073-0.18-0.113
				c-0.021-0.015-0.198-0.161-0.055-0.038c-0.064-0.057-0.273-0.338-0.128-0.112c-0.24-0.376-0.677-0.547-1.065-0.302
				C1048.311,121.68,1048.136,122.233,1048.375,122.61L1048.375,122.61z"/>
		</g>
		<g>
			<path fill="#F7941E" d="M1046.416,114.124c-0.119,0.941,0.326,1.799,0.941,2.442c0.619,0.647,1.59,0.997,2.309,0.318
				c0.66-0.627,0.084-1.566-0.403-2.042c-0.422-0.41-0.9-0.753-1.379-1.081c-0.85-0.583-1.629,0.873-0.785,1.451
				c0.255,0.174,0.506,0.354,0.752,0.544c0.04,0.033,0.079,0.065,0.121,0.098c-0.059-0.047-0.053-0.041,0.021,0.021
				c0.076,0.066,0.15,0.136,0.224,0.207c0.065,0.065,0.128,0.134,0.188,0.206c0.058,0.074,0.057,0.067-0.012-0.021
				c0.036,0.052,0.097,0.213,0.014-0.015c0.034,0.148,0.039,0.053,0.013-0.285c0.042-0.15,0.119-0.266,0.235-0.345
				c0.106-0.044,0.117-0.051,0.026-0.02c0.045-0.021,0.091-0.021,0.137-0.001c-0.146-0.025-0.237-0.104-0.357-0.221
				c-0.181-0.174-0.273-0.314-0.391-0.527c-0.074-0.137-0.066-0.124-0.096-0.214c-0.018-0.053-0.031-0.105-0.043-0.159
				c0.047,0.198,0.02-0.151-0.012,0.091c0.059-0.454-0.094-0.9-0.543-1.032C1047.008,113.427,1046.474,113.668,1046.416,114.124
				L1046.416,114.124z"/>
		</g>
		<g>
			<path fill="#F7941E" d="M1044.484,108.226c0.53,1.166,2.405,3.261,3.59,1.754c1.157-1.47-1.518-2.563-2.417-2.954
				c-0.396-0.171-0.856,0.183-0.96,0.586c-0.122,0.479,0.151,0.863,0.545,1.033c0.037,0.017,0.074,0.033,0.108,0.049
				c0.072,0.033,0.066,0.029-0.02-0.01c0.044,0.02,0.088,0.041,0.134,0.063c0.222,0.103,0.438,0.213,0.652,0.33
				c0.197,0.107,0.387,0.225,0.571,0.353c0.095,0.066,0.038,0.015,0.153,0.128c0.062,0.075,0.062,0.068-0.006-0.019
				c-0.104-0.228-0.068-0.463,0.105-0.708c0.032-0.039,0.085-0.037,0.125-0.04c-0.072,0.007-0.064-0.014-0.074-0.019
				c-0.209-0.109-0.363-0.277-0.525-0.456c-0.263-0.289-0.471-0.567-0.637-0.939
				C1045.389,106.404,1044.045,107.257,1044.484,108.226L1044.484,108.226z"/>
		</g>
		<g>
			<path fill="#F7941E" d="M1043.147,101.723c-0.054,0.738,0.391,1.367,0.919,1.773c0.502,0.386,1.273,0.705,1.896,0.523
				c0.419-0.123,0.723-0.494,0.714-0.975c-0.005-0.409-0.251-0.738-0.493-1.025c-0.419-0.499-1.005-0.875-1.575-1.139
				c-0.39-0.182-0.831-0.129-1.063,0.301c-0.195,0.358-0.111,0.967,0.277,1.149c0.313,0.145,0.607,0.326,0.893,0.527
				c0.145,0.104,0.175,0.137,0.309,0.283c0.059,0.064,0.113,0.132,0.169,0.201c-0.011-0.014-0.023-0.028-0.034-0.041
				c0.097,0.193,0.088,0.062-0.021-0.393c0.065-0.124,0.134-0.247,0.201-0.371c0.204-0.252,0.507-0.154,0.172-0.164
				c0.166,0.006-0.065-0.016-0.091-0.022c-0.212-0.054-0.234-0.079-0.425-0.203c-0.081-0.051-0.176-0.142-0.283-0.275
				c0.096,0.118-0.056-0.153,0.008,0.016c-0.023-0.098-0.028-0.101-0.02-0.007c-0.004-0.053-0.002-0.107,0.006-0.16
				c0.034-0.458-0.38-0.84-0.78-0.84C1043.476,100.883,1043.181,101.266,1043.147,101.723L1043.147,101.723z"/>
		</g>
	</g>
	<path fill="none" stroke="#C92600" stroke-linecap="round" stroke-linejoin="round" stroke-miterlimit="10" d="M1122.375,236.833
		c0,0,4.817,16.508,8,17.875c2.369,1.018,2.165-4.122,1.256-8.301s-5.663-22.675-3.646-24.958
		c2.691,5.289,14.304,28.357,20.891,26.946c-2.25-8.188-7.022-16.33-10.843-23.669c-2.429-4.666-6.24-8.765-7.907-14.445"/>
	<path fill="none" stroke="#FCE122" stroke-linecap="round" stroke-linejoin="round" stroke-miterlimit="10" d="M1122.375,239.083
		c0,0,3.824,13.812,7.688,16.188c0,0,2.5,2.375,2.901-3.375c0,0,0.474-3.5-1.214-8.812s-4.062-17.688-3.5-19.562
		c1.562,3.75,9.062,16.375,12.625,21s7.065,4.938,9.75,4.75c-2.125-5.312-2.125-5.554-3.625-9.028s-7.562-15.409-9.062-17.909
		s-7.688-10.427-7.812-12.052"/>
	<path fill="none" stroke="#C92600" stroke-linecap="round" stroke-linejoin="round" stroke-miterlimit="10" d="M1122.375,241.583
		c0,0,2.562,11.125,7.688,14.812c0,0,3.25,1.688,3.625-1.557c0.392-3.392,0.928-5.932-2-15.131
		c-2.823-8.872-2.811-11.783-2.812-13.312c2.5,5.188,8.112,15.885,12.362,20.26s9.763,3.678,11.075,3.803
		c0,0-2.312-5.579-3.438-8.312c-1.438-3.494-5.51-11.522-6.625-13.625c-1.56-2.939-3.938-6.875-6.062-9.875s-5.761-7.5-5.761-7.5"/>
	<path d="M1124.286,169.893c0,0,4.669-19.058,7.541-38.589c1.698-10.033,3.941-22.627,5.691-27.248
		c-1.704,1.313-4.963,5.303-4.478,6.931c0.099,0.262,0.657,0.524,0.462,1.155c-0.192,0.63-1.555,2.835-3.866,3.229
		c-2.311,0.394-2.698,0.131-5.351-0.21c-2.652-0.342-32.153,2.731-33.979,2.914c-1.823,0.184-4.352,0.42-4.352,0.42
		c-2.385-3.833-9.001-13.519-10.605-16.354c-1.605-2.835-13.305-20.765-14.252-21.709c-0.975-2.363-3.528-10.238-3.893-18.455
		c-0.025-2.677,0.219-2.415,0.146-3.833c-0.072-1.417,0.171-4.988-3.648-20.869c-0.582,0.63-0.73,5.801,0,11.261
		c0.73,5.46,1.096,6.957,1.096,6.957s-1.874-2.861-2.774-4.882c-0.9-2.021-2.795-2.572-8.804-9.477
		c-0.803,0.866-0.413,3.202,0,3.753c0.803,1.129,5.033,5.566,6.128,6.274c0.318,0.236,2.263,4.936,2.676,6.012
		s1.801,4.226,1.558,4.331c-0.242,0.105-3.356-3.071-4.451-3.623c-1.096-0.551-2.919-1.706-5.206,7.324
		c0.343,0.263,3.089-1.338,3.77-3.623c0.146-0.419,0.39-0.603,0.804-0.472c0.413,0.131,2.919,1.339,3.989,3.938
		c1.071,2.599,2.115,7.219,1.021,10.105c-0.364,0.841-2.577,2.547-4.305,0.762c-0.218-0.236-0.008-0.595-0.122-1.207
		c-0.131-0.713-2.067-6.379-3.794-6.694c-0.438,0.358-1.248,0.656-1.427,0.656c0.566,1.295,3.016,7.682,2.481,11.008
		c-0.098,0.665-0.048,0.682,0.162,0.909c0.21,0.228,1.36,1.646,6.228,1.034c1.864-0.158,3.857-0.141,4.005,1.137
		c-0.244,0.595-0.843,1.137-1.007,1.225c7.361,10.094,16.411,21.281,21.129,28.525c2.627,3.938,4.719,6.826,5.838,9.188
		c0.922,1.314,2.479,1.733,3.161,1.786c4.428,0.051,15.712,0.945,17.755,1.26c2.043,0.315,19.687,1.705,21.452,3.281
		c-1.264,3.911-10.604,41.241-13.229,56.676c-7.33,0.803-30.938,0.561-36.678-1.942c-0.619-1.173-0.942-1.908-0.391-5.163
		c0.553-3.255-1.104-4.48-3.535-4.97c-1.88-0.105-6.647-1.785-7.912-3.919c-0.162,1.189-0.131,3.29,2.01,4.234
		c2.139,0.945,4.801,2.275,5.124,2.379c0.323,0.105,1.102,0.421,1.038,2.24c-0.063,1.822-0.26,4.061-1.621,4.621
		c-1.364,0.562-8.629,2.487-10.93,0.211c-0.194-0.561-0.129-2.905-0.097-3.396c0.033-0.488,1.07-1.924,1.426-2.239
		c0.357-0.315,2.206-3.22,1.329-5.075c-1.685,1.61-4.181,4.55-4.603,5.705c-0.423,1.155-1.915,4.339-0.423,5.741
		c-1.978-0.839-3.729-2.626-3.696-3.852c0.031-1.226,0.161-1.889,2.82-4.901c1.558-1.504,4.995-4.863,4.734-6.193
		c-1.394,0.244-4.604,1.33-10.408,8.224c-0.409,0.708-1.395,4.026-0.521,5.705c0.876,1.682,1.653,4.061,8.594,6.476
		c2.692,0.841,9.858-0.068,14.334-1.576c1.202-0.351,3.828-1.468,3.277,1.896c4.279-0.25,12.16,0.274,14.56,0.486
		c2.399,0.208,18.582,1.608,20.302,1.399c-1.168,6.09-3.05,18.144-2.367,23.288c3.633,26.953,21.842,114.544,23.527,122.244
		c0.908,3.503,1.605,7.28-3.974,9.803c-5.576,2.521-20.836,11.25-20.786,13.823c4.409,0.422,20.918-3.323,26.625-4.442
		c0.666-0.178,1.443-0.229,1.783-0.439c0.875,0.473,16.54,6.405,21.793,7.086c2.189,0.398,2.92,0.369,2.821-0.733
		c-0.097-1.104-1.653-4.306-6.566-6.771c-6.373-4.043-12.844-7.563-13.524-9.818c-0.923-3.675-3.305-15.806-3.988-19.901
		c-0.681-4.095-13.767-71.873-12.987-87.203c1.556,5.46,5.642,16.171,7.394,16.591c1.752,0.418,1.848-3.887,1.459-7.034
		c-0.389-3.152-5.545-21.947-3.793-25.832c2.236,4.725,13.717,27.091,20.43,26.462c-0.876-5.252-9.729-22.472-13.815-29.296
		c-3.112-6.302-10.15-18.785-4.993-26.776c1.361,0.211,2.756-0.212,3.924-2.101c1.168-1.89,27.437-57.437,24.809-65.942
		c-1.006-2.45-2.356-2.421-3.308-2.834c-0.519-0.036-0.842-0.525,0.161-0.7c1.006-0.174,3.666-0.945,4.022-1.855
		c-1.265-0.701-4.508-2.31-3.827-3.919c0.682-1.611,1.199-5.11-0.973-8.541c-2.822,2.485-5.901,5.95-9.534,14
		C1141.248,127.997,1128.697,156.313,1124.286,169.893z"/>
	<g id="Ebene_17">
		<path fill="none" stroke="#C92600" stroke-linecap="round" stroke-linejoin="round" stroke-miterlimit="10" d="M1139.9,344.83
			c0,0-2.9-0.254-4.4,0c-1.75-1.746-4.36-1.14-4.36-1.14"/>
		<path fill="none" stroke="#C92600" stroke-linecap="round" stroke-linejoin="round" stroke-miterlimit="10" d="M1075.707,188.904
			c0,0,1.041-4.614,0-5.934"/>
		<path fill="none" stroke="#C92600" stroke-linecap="round" stroke-linejoin="round" stroke-miterlimit="10" d="M1055.729,83.983
			c0,0,3.8-2.456,5.369-3.553"/>
		<path fill="none" stroke="#C92600" stroke-linecap="round" stroke-linejoin="round" stroke-miterlimit="10" d="M1137.519,104.056
			c0,0-1.145,0.613-12.998,64.862c6.066-15.747,22.641-58.859,29.894-62.972"/>
		<path fill="none" stroke="#FCE122" stroke-linecap="round" stroke-linejoin="round" stroke-miterlimit="10" d="M1154.972,106.948
			c0,0-5.972,0-29.409,61.97c0,0,2.438,9.416,1,11.479c-3.312,2.125-2.938-7.688-2.938-7.688s-2,4.25-3.812,5.438
			s-1.438-5.312,0.875-7.125s2.938-1.125,2.938-1.125s-2.688,13.887-3.562,16.287"/>
		<path fill="none" stroke="#FCE122" stroke-linecap="round" stroke-linejoin="round" stroke-miterlimit="10" d="M1136.249,104.771
			c0,0-12.396,57.83-12.624,64.146c0,0,2.262,0.377,0.896,3.791s-2.271,9.625-1.896,12.938"/>
		<path fill="none" stroke="#FCE122" stroke-linecap="round" stroke-linejoin="round" stroke-miterlimit="10" d="M1056.228,84.958
			c0,0,5.468-3.438,5.558-3.938"/>
		<path fill="none" stroke="#FCE122" stroke-linecap="round" stroke-linejoin="round" stroke-miterlimit="10" d="M1076.625,182.97
			c0,0,1.312,2.176,0,6.426"/>
		<path fill="none" stroke="#FCE122" stroke-linecap="round" stroke-linejoin="round" stroke-miterlimit="10" d="M1130.312,344.208
			c0,0,3.75,0,5.207,2c1.48-0.625,2.629-0.5,5.086-0.25"/>
		<path fill="none" stroke="#C92600" stroke-linecap="round" stroke-linejoin="round" stroke-miterlimit="10" d="M1129.438,344.83
			c0,0,3.875,0.316,5.75,2.629"/>
		<path fill="none" stroke="#C92600" stroke-linecap="round" stroke-linejoin="round" stroke-miterlimit="10" d="M1141.448,346.785
			c0,0-4.073-0.701-5.136,0.299"/>
		<path fill="none" stroke="#C92600" stroke-linecap="round" stroke-linejoin="round" stroke-miterlimit="10" d="M1077.562,182.97
			c0,0,1,3.363,0,6.426"/>
		<path fill="none" stroke="#C92600" stroke-linecap="round" stroke-linejoin="round" stroke-miterlimit="10" d="M1155.417,108.009
			c0,0-4.479,4.949-7.042,10.137s-15.361,31.655-21.812,51.062"/>
		<path fill="none" stroke="#C92600" stroke-linecap="round" stroke-linejoin="round" stroke-miterlimit="10" d="M1135.338,106.259
			c0,0-3.9,15.324-7.275,33.012s-5.312,29.646-5.312,29.646s-4.875,1.604-4.188,6.416s5.875-2.612,6.25-4.65
			s-0.312-3.005-0.812-1.13s-2.25,10.967,1.25,10.155s1.354-8.959,0.312-9.875s-4.188,6.625-5.062,9.625s-1.383,4.646-2.004,5.542"
			/>
		<path fill="none" stroke="#C92600" stroke-linecap="round" stroke-linejoin="round" stroke-miterlimit="10" d="M1123.689,173.086
			c0,0-1.564,8.207-1.564,11.915"/>
		<path fill="none" stroke="#C92600" stroke-linecap="round" stroke-linejoin="round" stroke-miterlimit="10" d="M1062.186,81.903
			c0,0-3.186,2.806-5.561,3.931"/>
		<path fill="none" stroke="#C92600" stroke-linecap="round" stroke-linejoin="round" stroke-miterlimit="10" d="M1140.095,79.852
			c0,0,5.923,1.941,21.471,3.588"/>
		<path fill="none" stroke="#C92600" stroke-linecap="round" stroke-linejoin="round" stroke-miterlimit="10" d="M1141.435,77.946
			c0,0,15.94,3.467,19.708,3.307"/>
		<path fill="none" stroke="#C92600" stroke-linecap="round" stroke-linejoin="round" stroke-miterlimit="10" d="M1159.688,61.663
			c0,0,11.264-26.889,14.933-34.933"/>
		<path fill="none" stroke="#C92600" stroke-linecap="round" stroke-linejoin="round" stroke-miterlimit="10" d="M1161.672,62.703
			c0,0,12.203-28.87,14.715-34.535"/>
		<path fill="none" stroke="#FCE122" stroke-linecap="round" stroke-linejoin="round" stroke-miterlimit="10" d="M1160.875,62.083
			c0,0,11.562-28.688,14.68-34.601"/>
		<path fill="none" stroke="#FCE122" stroke-linecap="round" stroke-linejoin="round" stroke-miterlimit="10" d="M1141.263,78.896
			c0,0,10.026,2.75,20.854,3.302"/>
	</g>
</g>
<g id="Ebene_13">
	<path d="M655.595,67.598c0,0-8.063-20.331-18.924-29.609c3.032-4.357,17.52-17.205,29.901-18.683
		c3.232,17.837,5.701,36.866,5.954,41.831c-5.319,0.682-13.28,3.566-16.815,6.748"/>
	<path fill="#F7941E" d="M660.592,84.908c0,0-1.865-0.942-0.84-1.475c1.024-0.533,0.608-0.624,0.143-1.086
		c-0.468-0.462-1.132-0.675-0.379-1.555c0.753-0.881,0.773-1.069-0.392-1.604c-1.53-0.927-1.419-1.277-0.922-1.81
		c0.4-0.527,0.499-1.363-0.314-1.785s-1.04-1.225-0.783-1.417c0.26-0.192,1.213-0.934,0.234-1.766
		c-0.98-0.831-3.08-2.755-1.767-4.398c1.316-1.643,8.326-5.94,17.613-6.97c0.955-0.146,1.941,1.538,1.439,1.944
		c-0.504,0.406-0.582,0.407-0.16,0.806c0.421,0.401,2.314,1.8,1.135,2.567c-0.617,0.445-0.805,0.951-0.295,1.008
		c0.507,0.06,1.188,0.242,1.22,1.087c0.033,0.844,0.572,1.67,1.415,2.549c0.84,0.879,1.254,1.411,0.723,2.111
		c-0.532,0.701,0.105,1.209,0.385,1.347c0.276,0.138,1.224,0.799,0.685,2.151c-0.539,1.351-0.402,1.978,0.328,1.858
		c0.73-0.121,1.705-0.051,0.162,1.448C678.425,80.937,664.117,85.178,660.592,84.908"/>
	<path d="M645.669,89.988c0,0,14.771,0.704,48.997-13.182c1.686-0.9,1.238-1.358,0.063-1.165
		c-5.097,1.054-12.345,3.202-14.571,4.664c-1.814,1.027-15.632,4.684-19.185,5.368c-1.864,0.285-6.914,0.828-8.179,0.838
		C651.532,86.522,646.88,86.783,645.669,89.988z"/>
	<path d="M722.241,149.172c-1.528-1.123-26.477-19.834-33.414-19c1.883,6.23,3.419,11.185,5.202,18.837
		c1.687,6.427,7.684,32.377,7.584,40.03c-0.1,7.654-5.749,153.777-4.163,157.178c1.585,3.404,19.427,11.365,20.221,14.242
		c0.792,2.877-22.666-1.943-22.666-1.943s-23.193,2.811-26.762,1.672c-1.389-0.43-0.529-1.148,0.792-1.607
		c1.323-0.457,17.645-9.746,18.634-12.23c0.992-2.486,1.322-50.234,0.795-58.346c-0.529-8.111-0.529-42.451-1.322-44.412
		c-1.585,1.764-4.758,4.611-5.849,3.824c-1.09-0.781,0.496-4.021,1.389-6.475c0.891-2.453,3.528-15.109,3.133-18.742
		c-4.262,7.949-13.441,21.293-19.189,22.471c-1.588,0.1-0.596-2.354,0-3.631c2.775-5.592,11.695-22.061,12.785-25.844
		c1.09-3.785,0.893-5.846,0.595-6.141c-0.298-0.293-4.721,1.018-10.286-0.752c-2.066-0.42-1.168-1.828-1.465-11.639
		c1.485-0.623,7.499-1.67,8.093,2.027c0.231,0.752-0.627,1.242-0.824,1.111c-0.464-0.23-0.363-0.424-0.729-0.621
		c-0.362-0.197-1.453-0.721-3.27,0.588c-0.198,1.701-0.106,3.795,0.29,4.254c0.396,0.459,5.548,2.35,5.48,1.105
		c-0.66-9.613,0.66-14.096-2.973-13.996c-1.619-1.34-4.428-3.074-6.212-4.152c-18.568-11.153-41.828-23.974-45.197-26.622
		c-1.124-1.047-1.982-2.421-0.893-5.266c1.223-2.028,1.455-2.845,2.71-3.761c3.304-2.714,38.954-22.207,39.316-25.183
		c0.296-2.322-2.81-1.472-5.088-1.308c0.991-2.093,3.37-4.58,4.658-5.919c1.289-1.34,2.02-9.485,2.184-10.924
		c0.597,5.266,4.16,9.517,5.58,12.754c1.421,3.238,13.482,29.762,14.969,32.248c0,0-3.361-16.156-4.022-18.969
		s-1.283-11.576-0.208-15.306c1.453-3.532,1.709-7.849,1.709-7.849c-0.463,3.205-0.024,8.699,0.274,9.681
		c0.297,0.98,1.222,2.028,2.247,1.112c1.023-0.917,2.774-2.715,4.955-2.486c3.833,0.326,6.329,0.423,10.449,3.825
		c5.597,4.616,22.391,17.53,23.481,17.955c3.614,2.192,5.728,3.762,6.258,5.593c0.457,1.584-15.684,31.491-21.968,38.126
		c-0.792-0.295-1.135-1.441-1.584-1.562c-2.28,2.248-2.908,13.672-1.586,15.24c1.32,1.57,5.815,0.621,5.815-0.162
		c0-0.785,1.321-1.469,0.792-2.254c-0.529-0.787-2.237-3.471-2.34-4.125c-0.104-0.654,4.457-1.309,4.984,0.262
		c0.529,1.568,1.32,9.254-1.323,10.562c-2.643,1.309-12.07,3.332-12.53-0.096c-0.456-3.432-2.277-10.631,0.537-17.27
		c1.062-2.504,2.28-3.531,1.487-4.904C705.629,173.831,723.033,152.754,722.241,149.172z M634.178,159.966
		c2.942,0.948,13.382,7.228,16.753,9.452c3.073,1.929,29.999,20.243,29.999,20.243s0.033,1.146,0.231,2.617
		c0.165-1.078,0.858-3.041,2.114-5.363c1.255-2.322,3.073-2.977,2.742-5.984c-1.783-16.223-20.781-38.887-20.781-38.887
		c-5.584,2.716-29.67,13.638-33.502,14.685C629.224,157.709,631.238,159.018,634.178,159.966z"/>
	<g id="Ebene_16">
		<path fill="none" stroke="#009BA4" stroke-linecap="round" stroke-linejoin="round" stroke-miterlimit="10" d="M660.334,85.25
			c0,0,15.127-2.696,20.71-5.875"/>
		<path fill="none" stroke="#009BA4" stroke-linecap="round" stroke-linejoin="round" stroke-miterlimit="10" d="M660.334,82.583
			c0,0,13.097-2.734,18.924-5.191"/>
		<path fill="none" stroke="#009BA4" stroke-linecap="round" stroke-linejoin="round" stroke-miterlimit="10" d="M659.895,79.64
			c0,0,17.191-4.038,18.645-5.666"/>
		<path fill="none" stroke="#FCE122" stroke-linecap="round" stroke-linejoin="round" stroke-miterlimit="10" d="M676.889,69.641
			c-1.207,1.026-18.394,6.777-18.394,6.777s18.477-5.614,18.929-5.995"/>
		<path fill="none" stroke="#009BA4" stroke-linecap="round" stroke-linejoin="round" stroke-miterlimit="10" d="M675.012,67.14
			c-0.588,0.781-17.512,5.424-17.512,5.424s14.083-8.426,17.125-9.578"/>
		<path fill="none" stroke="#009BA4" stroke-linecap="round" stroke-linejoin="round" stroke-miterlimit="10" d="M655.711,67.886"/>
		<path fill="none" stroke="#009BA4" stroke-linecap="round" stroke-linejoin="round" stroke-miterlimit="10" d="M654.562,133.313
			c0,0,4.682,5.227,5.852,10.999c-1.413-2.062-6.002-9.952-7.374-10.048c1.711,3.404,5.03,9.426,5.037,11.123
			c-2.576-4.636-5.378-9.699-6.519-10.209"/>
		<path fill="none" stroke="#009BA4" stroke-linecap="round" stroke-linejoin="round" stroke-miterlimit="10" d="M650.51,135.818
			c0,0,5.66,8.203,6.2,10.192"/>
		<path fill="none" stroke="#FCE122" stroke-linecap="round" stroke-linejoin="round" stroke-miterlimit="10" d="M649.53,136.413
			c0,0,5.531,8.289,5.792,10.229"/>
		<path fill="none" stroke="#009BA4" stroke-linecap="round" stroke-linejoin="round" stroke-miterlimit="10" d="M654.198,147.152
			c0,0-4.939-9.667-5.902-9.993c0.871,2.591,4.552,10.604,4.552,10.604"/>
		<path fill="none" stroke="#FCE122" stroke-linecap="round" stroke-linejoin="round" stroke-miterlimit="10" d="M674.322,191.133
			c0,0,4.037-1.646,6.607-1.473"/>
		<path fill="none" stroke="#009BA4" stroke-linecap="round" stroke-linejoin="round" stroke-miterlimit="10" d="M673.36,190.39
			c0,0,3.748-1.441,6.264-1.617"/>
		<path fill="none" stroke="#FCE122" stroke-linecap="round" stroke-linejoin="round" stroke-miterlimit="10" d="M703.778,180.374
			c0,0,4.272,0.49,5.747,4.309"/>
		<path fill="none" stroke="#009BA4" stroke-linecap="round" stroke-linejoin="round" stroke-miterlimit="10" d="M703.778,179.5
			c0,0,4.389,0.417,6.318,4.546"/>
		<path fill="none" stroke="#009BA4" stroke-linecap="round" stroke-linejoin="round" stroke-miterlimit="10" d="M699.91,359.454
			c0,0,1.283-8.363,3.062-8.825c-4.638,2.455-6.722,5.954-7.43,7.996"/>
		<path fill="none" stroke="#FCE122" stroke-linecap="round" stroke-linejoin="round" stroke-miterlimit="10" d="M693.5,349.833
			c0,0,2.983-3.399,3.95-3.616c-1.783-1.301-3.95-1.051-3.95-1.051s3.125-1.498,3.729-1.332"/>
		<path fill="none" stroke="#009BA4" stroke-linecap="round" stroke-linejoin="round" stroke-miterlimit="10" d="M693.917,341.417
			c0,0,2.694-0.334,3.264,0"/>
		<path fill="none" stroke="#009BA4" stroke-linecap="round" stroke-linejoin="round" stroke-miterlimit="10" d="M697.181,338.333
			c0,0-2.597,0.417-3.264,1"/>
		<path fill="none" stroke="#009BA4" stroke-linecap="round" stroke-linejoin="round" stroke-miterlimit="10" d="M693.917,336.25
			c0,0,2.733-0.583,3.533-0.5c-0.616-1.667-3.116-2.167-3.116-2.167l2.847-1.083"/>
		
			<line fill="none" stroke="#009BA4" stroke-linecap="round" stroke-linejoin="round" stroke-miterlimit="10" x1="695" y1="329.833" x2="697" y2="329.833"/>
		<path fill="none" stroke="#009BA4" stroke-linecap="round" stroke-linejoin="round" stroke-miterlimit="10" d="M694.584,327.25
			c0,0,2.066-0.834,2.866-0.584s-3.109-1.979-3.109-1.979s2.657-0.931,2.84-0.854"/>
		<path fill="none" stroke="#009BA4" stroke-linecap="round" stroke-linejoin="round" stroke-miterlimit="10" d="M682.128,350.9
			c0,0,5.888,7.246,6.38,8.34c-0.508-3.989-2.726-10.934-3.189-10.585"/>
		<path fill="none" stroke="#009BA4" stroke-linecap="round" stroke-linejoin="round" stroke-miterlimit="10" d="M691.584,358.5
			c1.166,2.166-3.363-11.95-3.917-11.673s3.75-0.347,4.75-0.004c-0.833-1.823-4.471-2.494-4.471-2.494l4.471-1.079"/>
		<path fill="none" stroke="#009BA4" stroke-linecap="round" stroke-linejoin="round" stroke-miterlimit="10" d="M688.508,340.417
			c0,0,3.348-0.957,4.576,0"/>
		<path fill="none" stroke="#009BA4" stroke-linecap="round" stroke-linejoin="round" stroke-miterlimit="10" d="M688.508,338.333
			l4.576-0.833l-4.752-1.662l4.752-0.838c0,0-3.902-1.918-4.576-1.834"/>
		<path fill="none" stroke="#FCE122" stroke-linecap="round" stroke-linejoin="round" stroke-miterlimit="10" d="M693.084,331
			c0,0-4.068-0.75-4.576,0"/>
		<path fill="none" stroke="#009BA4" stroke-linecap="round" stroke-linejoin="round" stroke-miterlimit="10" d="M692.417,328.25
			c0,0-3.912,0.165-3.925,0.835"/>
		<path fill="none" stroke="#009BA4" stroke-linecap="round" stroke-linejoin="round" stroke-miterlimit="10" d="M692.417,325.54
			c0,0-3.864,0.282-3.891,1.711"/>
		<path fill="none" stroke="#009BA4" stroke-linecap="round" stroke-linejoin="round" stroke-miterlimit="10" d="M688.492,324.5
			c0,0,2.425-2.25,3.925-2c-0.333-0.75-3.809-0.835-3.809-0.835"/>
		<path fill="none" stroke="#009BA4" stroke-linecap="round" stroke-linejoin="round" stroke-miterlimit="10" d="M697.419,321.252
			c0,0-3.503-0.414-3.919,0"/>
	</g>
</g>
<g id="Magier_Weihnachten">
	<path d="M877.66,145.008c0,0-1.043-13.678-4.288-19.474c-3.245-5.796-6.606-7.535-11.128-8.578
		c-4.521-1.043-6.956-1.276-8.463-3.131c1.623,2.783,2.897,5.333,5.681,6.261c2.782,1.39,2.434,2.666,2.434,2.666
		s-1.508-0.695-8.114,3.594c-6.606,4.289-31.298,22.024-38.253,29.674c0,0-30.139,10.086-43.817,11.013
		c0.696,1.275,0.579,1.971,0.579,1.971c0.117-0.464-5.911-1.275-9.272-3.478c-1.043-0.812-1.508-1.507-2.666-2.202
		c-1.16-0.696-14.605,0.463-16.229,1.159c-1.622,0.695,6.376,1.971,9.621,1.854c2.318,0,4.059,0.812,3.594,1.275
		c-0.463,0.463-13.91,8.347-13.91,8.347s-16.229,4.289-20.054,9.388c-0.232,0.812,1.16,0.581,2.436,0.117
		c1.273-0.464,7.648-3.709,17.503-5.912c-7.419,2.55-17.852,5.332-16.576,8.23c0.578,0.464,2.086-0.232,2.086-0.232
		s-0.696,0.928-0.115,1.159c0.578,0.231,12.982-6.26,17.387-6.954c5.102-1.74,19.59-8.811,21.561-9.738
		c1.972-0.927,4.405-1.623,5.448-0.116c0.116,0.695,0.116,1.391,0.116,1.391s42.427-12.055,45.208-13.098
		c3.479-1.739,31.878-24.344,37.906-28.749c2.55-1.507,4.173-2.55,4.984,1.159c0.811,3.709,3.593,40.919,1.854,44.048
		c-1.738,3.13-10.548,15.998-11.708,22.141c-1.738,3.825-13.91,23.067-27.936,27.819c4.404,1.276,10.432-0.115,11.243-0.463
		c0.812-0.348,7.071-2.666,17.388-13.331c-2.781,8.694-5.332,17.389-12.635,33.964c7.071-3.94,13.794-16.46,13.794-16.46
		s-45.903,111.979-44.744,114.991c0.349,1.044,0,1.971,0,1.971s-13.214,10.433-13.562,13.679c7.419,0.927,19.59,1.854,29.792,0.347
		c-3.131-2.202-7.535-3.94-11.361-5.679c-1.391-0.812-3.361-4.29-1.738-6.608c0,0,2.318,0.231,3.361-0.231
		c6.955-20.169,15.997-44.396,20.17-54.365s23.067-53.206,33.617-75.927c2.201-0.349,5.911,5.911,7.187,7.187
		s16.924,25.967,16.924,25.967s1.738,2.317,2.087,2.897c0.348,0.579-1.623,28.399-1.739,33.617
		c-0.116,5.216-2.434,58.538-1.97,60.624c0.694,1.044,2.086,2.319,0.578,4.984c-1.506,2.667-3.013,7.188-3.013,7.188
		s31.413,0.464,32.688-0.231c1.276-0.696-6.143-4.869-10.663-5.448c-4.521-0.58-12.057-2.202-12.057-4.869
		c1.044,0,2.087,0.232,2.087,0.232s1.739-89.605,1.16-95.98c-3.362-7.419-19.358-37.211-23.532-43.817
		c-1.159-1.971-4.058-4.984-4.288-31.993c0.927-4.173,4.636-16.809,6.026-21.793c1.392-4.984,4.638-15.881,4.406-24.922
		c6.026-0.348,52.395-3.594,54.598-4.289c2.201-0.695,14.721-5.333,18.43-7.419c5.101-2.202,17.156-7.418,19.012-8.23
		c1.854-0.812,9.39-1.275,13.678-0.58c4.289,0.695,5.796,0.812,6.26,0.812c0.463,0,7.419-0.696,9.969-1.391
		c2.55-0.696,11.129-1.971,11.129-1.971s-0.116-1.159-4.521-1.043c-4.404,0.116-7.187,0.696-7.187,0.696s10.78-2.319,12.171-2.319
		c-1.391-0.927-5.447-1.274-11.592-0.695c-2.434,0.348-3.825,0.811-3.825,0.811s-2.55,0.232-1.508-0.579
		c3.132-1.043,11.593-4.521,13.331-6.26c-1.622-0.579-5.1-1.043-16.111,4.984c-10.087-1.043-16.346,1.623-14.26-3.014
		c1.74-1.971,3.131-1.623,7.072-3.593c3.479-2.434,3.246-3.362,3.014-4.752c0,0-5.101,2.898-6.839,3.477
		c-1.739,0.58-5.912,1.276-6.491,1.623c-0.58,0.348-5.333,6.492-6.145,9.622c-0.58,1.159-0.811,1.855-1.854,2.202
		c-0.349-0.463-0.927-1.391-0.927-1.391l-33.153,13.331c0,0-47.296-1.971-54.714,0.347c-1.391-2.667-3.014-6.492-6.027-7.998
		c-1.623-1.275-4.173-3.13-4.637-3.13c1.623,2.086,6.057,6.839,6.405,18.199C880.355,140.951,877.66,145.008,877.66,145.008z"/>
	<g>
		<g>
			<path d="M961.208,33.654c1.29,0,1.29-2,0-2S959.918,33.654,961.208,33.654L961.208,33.654z"/>
		</g>
	</g>
	<g>
		<g>
			<path d="M970.859,45.275c1.29,0,1.29-2,0-2S969.569,45.275,970.859,45.275L970.859,45.275z"/>
		</g>
	</g>
	<g>
		<g>
			<path d="M964.484,47.478c1.29,0,1.29-2,0-2S963.194,47.478,964.484,47.478L964.484,47.478z"/>
		</g>
	</g>
	<g>
		<g>
			<path d="M967.673,49.782c1.29,0,1.29-2,0-2S966.383,49.782,967.673,49.782L967.673,49.782z"/>
		</g>
	</g>
	<g>
		<g>
			<path d="M1024.298,62.663c1.29,0,1.29-2,0-2S1023.008,62.663,1024.298,62.663L1024.298,62.663z"/>
		</g>
	</g>
	<g>
		<g>
			<path d="M1026.152,55.476c1.29,0,1.29-2,0-2S1024.862,55.476,1026.152,55.476L1026.152,55.476z"/>
		</g>
	</g>
	<g>
		<g>
			<path d="M1027.543,44.927c1.29,0,1.29-2,0-2S1026.253,44.927,1027.543,44.927L1027.543,44.927z"/>
		</g>
	</g>
	<g>
		<g>
			<path d="M1031.833,43.42c1.29,0,1.29-2,0-2S1030.543,43.42,1031.833,43.42L1031.833,43.42z"/>
		</g>
	</g>
	<g>
		<g>
			<path d="M1031.484,39.711c1.29,0,1.29-2,0-2S1030.194,39.711,1031.484,39.711L1031.484,39.711z"/>
		</g>
	</g>
	<g>
		<g>
			<path d="M1025.225,32.988c1.29,0,1.29-2,0-2S1023.935,32.988,1025.225,32.988L1025.225,32.988z"/>
		</g>
	</g>
	<g>
		<g>
			<path d="M1006.215,79.819c1.29,0,1.29-2,0-2S1004.925,79.819,1006.215,79.819L1006.215,79.819z"/>
		</g>
	</g>
	<g>
		<g>
			<path d="M990.797,42.725c1.29,0,1.29-2,0-2S989.507,42.725,990.797,42.725L990.797,42.725z"/>
		</g>
	</g>
	<g>
		<g>
			<path d="M988.131,41.682c1.29,0,1.29-2,0-2S986.841,41.682,988.131,41.682L988.131,41.682z"/>
		</g>
	</g>
	<g>
		<g>
			<path d="M1011.895,33.915c1.29,0,1.29-2,0-2S1010.604,33.915,1011.895,33.915L1011.895,33.915z"/>
		</g>
	</g>
	<g>
		<g>
			<path d="M965.875,54.317c1.29,0,1.29-2,0-2S964.585,54.317,965.875,54.317L965.875,54.317z"/>
		</g>
	</g>
	<g>
		<g>
			<path d="M1013.517,30.785c1.29,0,1.29-2,0-2S1012.227,30.785,1013.517,30.785L1013.517,30.785z"/>
		</g>
	</g>
	<g>
		<g>
			<path d="M1013.749,28.09c1.29,0,1.29-2,0-2S1012.459,28.09,1013.749,28.09L1013.749,28.09z"/>
		</g>
	</g>
	<g>
		<g>
			<path fill="#F7941E" d="M1000.419,28.583c1.29,0,1.29-2,0-2S999.129,28.583,1000.419,28.583L1000.419,28.583z"/>
		</g>
	</g>
	<g>
		<g>
			<path fill="#F7941E" d="M998.101,32.756c1.29,0,1.29-2,0-2S996.811,32.756,998.101,32.756L998.101,32.756z"/>
		</g>
	</g>
	<g>
		<g>
			<path fill="#F7941E" d="M969.352,34.233c1.29,0,1.29-2,0-2S968.062,34.233,969.352,34.233L969.352,34.233z"/>
		</g>
	</g>
	<g>
		<g>
			<path fill="#F7941E" d="M970.975,39.016c1.29,0,1.29-2,0-2S969.685,39.016,970.975,39.016L970.975,39.016z"/>
		</g>
	</g>
	<g>
		<g>
			<path fill="#F7941E" d="M973.786,35.363c1.29,0,1.29-2,0-2S972.496,35.363,973.786,35.363L973.786,35.363z"/>
		</g>
	</g>
	<g>
		<g>
			<path fill="#F7941E" d="M968.859,42.174c1.29,0,1.29-2,0-2S967.569,42.174,968.859,42.174L968.859,42.174z"/>
		</g>
	</g>
	<g>
		<g>
			<path fill="#F7941E" d="M975.032,43.769c1.29,0,1.29-2,0-2S973.742,43.769,975.032,43.769L975.032,43.769z"/>
		</g>
	</g>
	<g>
		<g>
			<path fill="#F7941E" d="M972.83,49.101c1.29,0,1.29-2,0-2S971.54,49.101,972.83,49.101L972.83,49.101z"/>
		</g>
	</g>
	<g>
		<g>
			<path fill="#F7941E" d="M980.364,60.692c1.29,0,1.29-2,0-2S979.074,60.692,980.364,60.692L980.364,60.692z"/>
		</g>
	</g>
	<g>
		<g>
			<path fill="#F7941E" d="M979.09,63.126c1.29,0,1.29-2,0-2S977.8,63.126,979.09,63.126L979.09,63.126z"/>
		</g>
	</g>
	<g>
		<g>
			<path fill="#F7941E" d="M979.438,66.488c1.29,0,1.29-2,0-2S978.147,66.488,979.438,66.488L979.438,66.488z"/>
		</g>
	</g>
	<g>
		<g>
			<path fill="#F7941E" d="M969.352,73.676c1.29,0,1.29-2,0-2S968.062,73.676,969.352,73.676L969.352,73.676z"/>
		</g>
	</g>
	<g>
		<g>
			<path fill="#F7941E" d="M1010.387,70.777c1.29,0,1.29-2,0-2S1009.097,70.777,1010.387,70.777L1010.387,70.777z"/>
		</g>
	</g>
	<g>
		<g>
			<path fill="#F7941E" d="M1019.545,74.371c1.29,0,1.29-2,0-2S1018.255,74.371,1019.545,74.371L1019.545,74.371z"/>
		</g>
	</g>
	<g>
		<g>
			<path fill="#F7941E" d="M1015.487,81.79c1.29,0,1.29-2,0-2S1014.197,81.79,1015.487,81.79L1015.487,81.79z"/>
		</g>
	</g>
	<g>
		<g>
			<path fill="#F7941E" d="M1011.314,86.426c1.29,0,1.29-2,0-2S1010.024,86.426,1011.314,86.426L1011.314,86.426z"/>
		</g>
	</g>
	<g>
		<g>
			<path fill="#F7941E" d="M1007.605,88.165c1.29,0,1.29-2,0-2S1006.315,88.165,1007.605,88.165L1007.605,88.165z"/>
		</g>
	</g>
	<g>
		<g>
			<path fill="#F7941E" d="M1005.171,89.44c1.29,0,1.29-2,0-2S1003.881,89.44,1005.171,89.44L1005.171,89.44z"/>
		</g>
	</g>
	<g>
		<g>
			<path fill="#F7941E" d="M1003.085,91.063c1.29,0,1.29-2,0-2S1001.795,91.063,1003.085,91.063L1003.085,91.063z"/>
		</g>
	</g>
	<g>
		<g>
			<path fill="#F7941E" d="M1000.041,92.57c1.29,0,1.29-2,0-2S998.751,92.57,1000.041,92.57L1000.041,92.57z"/>
		</g>
	</g>
	<g>
		<g>
			<path fill="#F7941E" d="M998.882,95.845c1.29,0,1.29-2,0-2S997.592,95.845,998.882,95.845L998.882,95.845z"/>
		</g>
	</g>
	<g>
		<g>
			<path fill="#F7941E" d="M998.273,100.858c1.29,0,1.29-2,0-2S996.983,100.858,998.273,100.858L998.273,100.858z"/>
		</g>
	</g>
	<path fill="#C92600" d="M865.527,64.638c0,0-17.928-30.757-42.503-30.293c-6.954,0.618-3.555,3.246-3.555,3.246
		s20.864,32.457,20.712,39.876l7.108,0.927l21.639-8.81L865.527,64.638z"/>
	
		<path fill="#EBECEB" stroke="#009BA4" stroke-width="2" stroke-linecap="round" stroke-linejoin="round" stroke-miterlimit="10" d="
		M859.462,67.691c0,0,0.501-2.126,2.357-0.889c3.09-0.618,4.327-2.782,4.327-2.782s2.164-1.544,3.709-0.309
		c2.164-0.927,4.637-2.164,5.873-0.309c2.473,0.618,3.71-0.618,4.329,1.236c1.544,1.854,2.472,2.782,1.234,5.255
		c-1.234,2.473-3.091,4.019-4.944,4.637c-1.855,0.618-5.566,1.546-6.802,3.091l-0.927,1.545c0,0-1.217,1.179-2.319,0.619
		c-0.617,0.772-1.544,1.236-2.317,1.7c-0.773,0.464-3.092,1.391-2.937,1.855c0.154,0.464-1.854,0.927-1.854,0.927
		s0.154-0.463-2.164,0.773c-2.318,1.237-5.41,2.937-5.41,2.937s0,0.31-2.319,0.618c-2.318,0.309-3.09,0.772-2.935,1.236
		c0.153,0.464-0.465,1.237-1.545,1.082c-1.392,0.928-3.093,2.009-3.557,1.236c-0.463-0.772,0-0.155-2.009,0.463
		c-2.009,0.619-1.7,1.855-3.091,2.319c-1.392,0.464-2.782-0.618-1.854-1.236c0.927-0.619,0.154-1.855,0.772-2.937
		c0.618-1.082-3.092-1.701-2.318-2.319c0.772-0.618-0.927-3.399,0.465-4.481c0.153-0.928-0.311-1.391,1.081-2.165
		c1.544-2.318,1.236-2.164,2.78-2.009c1.546-1.546,2.629-2.318,3.864-2.164c1.701-1.855,3.401-3.4,4.638-3.245
		c1.236,0.154,0.618-1.392,1.546-1.237c0.929,0.155,2.162-1.236,2.162-1.236s0.62-1.546,1.547-1.236
		c1.546-1.392,3.555-1.701,3.555-1.701s1.237-2.164,2.318-1.545C857.954,67.266,857.723,66.261,859.462,67.691z"/>
	
		<path fill="#EBECEB" stroke="#009BA4" stroke-width="2" stroke-linecap="round" stroke-linejoin="round" stroke-miterlimit="10" d="
		M821.479,34.5c0,0-1.546-2.164-3.091-2.164c-1.546,0,0-2.319-1.7-1.854c-1.854-0.773-2.938-0.619-3.092,0.618
		c0,0-2.163,0.154-1.698,2.009c-1.856,1.854-2.474,2.473-1.856,3.709c-1.546-0.155-0.463,4.946,1.392,4.636
		c1.854-0.309,3.4,0.619,3.554-0.927c0.928,0.773,2.164,0.309,2.783-0.463c0.927,0.618,2.317-0.619,2.78-1.391
		c0.466-0.773,2.938-1.237,1.702-2.01S821.479,34.5,821.479,34.5z"/>
	
		<path fill="#EBECEB" stroke="#009BA4" stroke-width="2" stroke-linecap="round" stroke-linejoin="round" stroke-miterlimit="10" d="
		M822.02,227.542c0,0-1.391,2.318,1.623,2.318s3.478,0.695,4.637-0.231c2.087-0.463,3.014,0,4.174-1.159
		c3.013,0.464,5.332-0.463,5.564-1.855c2.316,0,4.636-1.854,4.867-2.549c0.232-0.696,2.782-2.318,2.782-2.318
		s0.928-0.927,0.928-2.319c0-1.391,1.854-0.927,2.318-2.55c1.623-1.854,3.245-2.55,3.245-4.058c0-1.506-2.318-0.349-2.781,0.349
		c-0.464,0.695-4.173,1.854-4.869,4.173c-0.695,2.318-2.317,3.014-2.55,3.941c-0.232,0.927-0.696-0.695-3.478,0.927
		c-2.782,1.623-5.564,1.159-6.261,2.783c-2.085,0.694-2.78-0.232-4.637,0.463C825.266,225.456,822.252,226.382,822.02,227.542z"/>
	
		<path fill="#EBECEB" stroke="#009BA4" stroke-width="2" stroke-linecap="round" stroke-linejoin="round" stroke-miterlimit="10" d="
		M839.523,246.784c0,0,1.738,1.392,2.667,0.233c0.927-1.16,2.55-1.623,2.317-3.941c1.855-1.624,2.318-2.783,2.55-3.942
		c1.855-1.159,3.014-1.391,3.246-3.941c1.159-0.927,2.087-2.086,1.854-3.245s-2.087,1.623-2.087,1.623s-2.781,1.159-3.245,3.014
		c-0.463,1.854-2.781,2.782-2.781,3.941c-1.16,1.391-2.783,2.551-2.319,3.478C839.639,245.162,837.553,246.784,839.523,246.784z"/>
	
		<path fill="#EBECEB" stroke="#009BA4" stroke-width="2" stroke-linecap="round" stroke-linejoin="round" stroke-miterlimit="10" d="
		M772.175,165.41c0,0-0.696,0.464-0.464,1.623c-0.928,1.391-0.928,0.928,0.579,1.971c-0.579,1.97-1.158,3.825-0.115,4.057
		c0.464,1.623,2.55,0.231,2.318-0.927c-0.232-1.16,0.694-2.55-0.465-3.478C774.028,167.497,774.261,164.483,772.175,165.41z"/>
	
		<path fill="#EBECEB" stroke="#009BA4" stroke-width="2" stroke-linecap="round" stroke-linejoin="round" stroke-miterlimit="10" d="
		M971.786,107.451c0,0-1.39,0-0.695,1.623c0,3.014-0.231,3.709,1.622,3.941c1.393,1.623,2.783,1.391,2.319-0.464
		c1.159,1.159,4.405,1.391,2.55-0.696c-1.854-2.086-1.508-1.159-3.013-1.391c0.231-1.159,0.927-2.086-0.929-2.55
		C971.786,107.451,973.409,105.133,971.786,107.451z"/>
	
		<path fill="#EBECEB" stroke="#009BA4" stroke-width="2" stroke-linecap="round" stroke-linejoin="round" stroke-miterlimit="10" d="
		M876.733,147.791c0,0-3.015-0.696-2.782-2.55c-1.159-1.392-3.014-1.855-2.783-3.941c-1.854-1.16-4.172-0.696-3.939-3.246
		c0.23-2.55,0.23-4.173-0.929-4.405c-1.158-0.231-5.1-3.014-3.013-4.173c0,0-2.551-0.231-1.854-2.318
		c-0.464-1.623-3.016-2.551-1.624-4.173c1.392-1.623-0.927-2.55-2.086-2.318s-3.71,0.927-3.014-0.928
		c0.695-1.854-4.638-1.043-2.783-3.477c1.855-2.435,0.232-4.173,1.624-3.942c1.391,0.232,4.867,3.478,4.867,3.478
		s2.088-1.623,4.173-0.232c2.088,1.392,4.639-1.623,5.798,1.159c2.317,2.55,3.94,1.855,4.173,4.405
		c1.391,3.014,1.855,3.941,1.622,5.796c-0.231,1.854,3.942,0.695,2.551,3.014s-0.463,5.332-0.463,5.332s0.927-0.464,0.927,0.928
		c0,1.391,1.623,0.695,1.391-1.623c-0.232-2.318-1.623-5.101-0.696-6.955c-0.694-1.854-0.927-4.637-0.231-5.332
		c-0.927-1.623-2.086-3.709-1.854-4.637c0.232-0.927-0.464-1.854-0.464-3.014s-3.477-0.464-2.781-3.709
		c0.694-3.246,1.391-3.246,2.551-1.16c1.159,2.086,3.014,3.478,3.129,4.753s1.275,3.825,1.275,5.216c0,0,0.695,1.392,0.695,3.478
		c1.159,3.477,1.854,4.869,1.391,6.492c0.695,4.404,1.623,5.563,0.695,7.882c-0.927,2.318,0.696,3.245-0.464,4.868
		c-1.158,1.623-1.158,3.941-1.854,4.637c-0.694,0.696-0.928,2.782-1.623,3.478c-0.695,0.695-2.317-0.464-2.317-0.464
		S877.197,148.718,876.733,147.791z"/>
	<g>
		<g>
			<path fill="#F7941E" d="M1026,76.333c1.29,0,1.29-2,0-2S1024.71,76.333,1026,76.333L1026,76.333z"/>
		</g>
	</g>
	<g>
		<g>
			<path fill="#F7941E" d="M1035.667,69.333c1.29,0,1.29-2,0-2S1034.377,69.333,1035.667,69.333L1035.667,69.333z"/>
		</g>
	</g>
	<g>
		<g>
			<path fill="#F7941E" d="M1043.334,67.333c1.29,0,1.29-2,0-2S1042.044,67.333,1043.334,67.333L1043.334,67.333z"/>
		</g>
	</g>
	<g>
		<g>
			<path fill="#F7941E" d="M1043.334,96.333c1.29,0,1.29-2,0-2S1042.044,96.333,1043.334,96.333L1043.334,96.333z"/>
		</g>
	</g>
	<g>
		<g>
			<path fill="#F7941E" d="M1035.667,89.667c1.29,0,1.29-2,0-2S1034.377,89.667,1035.667,89.667L1035.667,89.667z"/>
		</g>
	</g>
	<g>
		<g>
			<path fill="#F7941E" d="M1038.667,79.333c1.29,0,1.29-2,0-2S1037.377,79.333,1038.667,79.333L1038.667,79.333z"/>
		</g>
	</g>
	<g>
		<g>
			<path fill="#F7941E" d="M998,87.333c1.29,0,1.29-2,0-2S996.71,87.333,998,87.333L998,87.333z"/>
		</g>
	</g>
	<g>
		<g>
			<path fill="#F7941E" d="M994,82.333c1.29,0,1.29-2,0-2S992.71,82.333,994,82.333L994,82.333z"/>
		</g>
	</g>
	<g>
		<g>
			<path fill="#F7941E" d="M986.5,77.333c1.29,0,1.29-2,0-2S985.21,77.333,986.5,77.333L986.5,77.333z"/>
		</g>
	</g>
	<g>
		<g>
			<path fill="#F7941E" d="M993,65.833c1.29,0,1.29-2,0-2S991.71,65.833,993,65.833L993,65.833z"/>
		</g>
	</g>
	<g>
		<g>
			<path fill="#F7941E" d="M994.5,18.833c1.29,0,1.29-2,0-2S993.21,18.833,994.5,18.833L994.5,18.833z"/>
		</g>
	</g>
	<g>
		<g>
			<path fill="#F7941E" d="M1002.5,66.333c1.29,0,1.29-2,0-2S1001.21,66.333,1002.5,66.333L1002.5,66.333z"/>
		</g>
	</g>
	<g>
		<g>
			<path fill="#F7941E" d="M1006.5,57.333c1.29,0,1.29-2,0-2S1005.21,57.333,1006.5,57.333L1006.5,57.333z"/>
		</g>
	</g>
	<g>
		<g>
			<path fill="#F7941E" d="M1016,48.833c1.29,0,1.29-2,0-2S1014.71,48.833,1016,48.833L1016,48.833z"/>
		</g>
	</g>
	<g>
		<g>
			<path fill="#F7941E" d="M1033.5,97.333c1.29,0,1.29-2,0-2S1032.21,97.333,1033.5,97.333L1033.5,97.333z"/>
		</g>
	</g>
</g>
<g id="Magier_Sparcles">
	<path d="M445.404,102.409c0,0,2.253-17.977,7.827-44.843c0,0,11.747,1.168,28.99,16.781c0,0-11.153,11.027-19.821,33.737
		C462.401,108.083,457.076,103.666,445.404,102.409z"/>
	<path fill="#F7941E" d="M460.074,123.868c0,0,1.182-0.865,0.402-1.197c-0.78-0.331-0.969-0.41-0.509-0.863
		c0.46-0.452,1.306-0.975,0.598-1.618c-0.709-0.643-1.042-1.084-0.383-1.386c0.658-0.302,1.859-1.339,1.37-1.758
		c-0.489-0.419-1.024-1.241-0.432-1.674c0.59-0.433,1.735-1.244,0.559-1.934c-1.024-0.869,0.738-1.841,1.406-3.057
		c0,0,0.942-1.205-0.142-2.433c-1.084-1.229-5.733-3.77-10.628-4.711c-4.796-0.921-6.856-1.033-7.569-0.533
		c-0.714,0.5-0.699,1.429-0.309,1.601c0.39,0.173,0.611,0.353,0.176,0.764c-0.434,0.411-1.894,1.652-1.088,2.298
		c0.804,0.646,1.151,1.032,0.644,1.125c-0.508,0.094-1.261,0.349-1.055,0.958c0.207,0.608-0.055,1.24-0.406,1.655
		c-0.351,0.414-2.065,2.044-1.326,2.874s0.31,1.083-0.121,1.395c-0.432,0.311-0.966,1.189-0.378,2.17
		c0.59,0.98,0.445,1.66-0.213,1.605c-0.658-0.055-1.043,0-0.841,0.38c0.054,0.146,0.122,0.291,0.122,0.291s4.703,1.728,7.816,2.256
		C449.84,122.426,460.074,123.868,460.074,123.868z"/>
	<path d="M476.721,126.904c0,0-3.818-1.238-19.297-3.403c-6.462-0.802-10.6-1.312-14.918-2.798
		c-7.199-1.975-16.197-6.878-19.307-3.118c0,0,1.811,1.872,15.875,5.35c14.064,3.479,35.125,5.153,36.911,5.111
		C477.769,128.003,478.993,127.51,476.721,126.904z"/>
	<path fill="none" stroke="#C92600" stroke-width="2" stroke-linecap="round" stroke-linejoin="round" stroke-miterlimit="10" d="
		M541,261c0,0,5.667-4.5,3-25.833"/>
	<path fill="none" stroke="#C92600" stroke-width="2" stroke-linecap="round" stroke-linejoin="round" stroke-miterlimit="10" d="
		M523.333,254c0,0-3-18.662-0.917-30.162"/>
	<path d="M478.263,182.642c0,0-10.247-8.682-14.191-16.438c-3.007-5.913-1.502-13.403,0.928-17.732
		c2.43-4.33,2.396-8.698,2.361-8.924c1.338,1.882,2.126,5.878,1.488,8.214c-1.119,4.096-0.8,5.333-0.377,6.688
		c1.339-2.749,3.785-5.716,5.229-6.018c1.444-0.301,25.29,0.168,49.769,6.418c0,0,11.941-2.314,19.021-4.121
		s21.345-6.25,25.431-8.434c0.105,0.941,0.387,1.317,0.387,1.317s2.633-1.072,3.159-2.877c0.669-2.297,3.781-6.271,4.132-7.739
		c0.352-1.469,1.309-1.987,0.282-8.622c0,0-0.705-3.426,0.387-2.974c1.092,0.452,2.67,3.315,3.065,11.86
		c0.07,1.808,1.139,3.679,2.548,4.169c0,0,2.454,0.35,6.821-0.329c5.548-0.563,6.12-0.433,7.349-0.645c0,0,5.402-0.636,13.814-0.511
		c0,0,1.486-0.002,1.924,0.831c0.436,0.833-1.107,1.205-1.424,1.304c-0.318,0.099-4.307,0.325-5.602,0.452
		c2.152,0.226,4.373,0.749,5.23,0.932c0,0,1.084,0.226,1.029,1.497c-0.777,0.522-3.789,0.663-4.172,0.748
		c1.162,0.367,1.73,0.79,1.689,1.525c-0.396,0.451-2.68,0.606-3.539,0.72c-0.858,0.113-12.131,0.046-14.256,0.075
		c-2.127,0.028-6.834,0.575-16.318,0.518c0,0-4.309,0.209-5.732,1.817c0.211,0.706,0.845,2.983,0.845,2.983
		s-44.733,11.566-46.211,11.679c-1.479,0.113-2.193-0.198-3.646-0.282c-1.453-0.084-33.593-5.891-36.077-6.116
		c-2.483-0.226-9.219-0.565-8.77,1.948s29.402,30.073,41.835,32.445c0,0,6.109,1.481,10.109,2.484
		c3.605,0.904,12.927,1.694,16.766,9.488c0,0,2.372,9.844,5.635,21.496c2.978,10.633,33.321,114.682,35.293,127.332
		c0.114,0.39-1.714,0.581-1.62,0.904c0.958,3.299,2.043,3.689,2.043,3.689s0.831,0.62,1.902,2.108c0,0,3.24,2.635,3.521,3.914
		c-4.578,0.541-14.582,0.378-20.358-0.828c0.352-1.204,3.169-3.989,5.354-4.441c1.409-1.204,2.08-1.966,2.644-2.343
		c0.564-0.375,0.033-2.287,0.033-2.287l-2.532-0.062c0,0-5.71-31.904-12.05-52.913c-6.34-21.007-18.764-59.825-19.608-61.255
		c0.986,9.109,0.448,20.595-3.639,24.435c-0.634-8.811-2.958-18.072-6.679-29.054c-2.253,11.671-6.282,36.886-6.845,40.048
		c-0.564,3.162-2.537,15.212-3.1,17.47c-0.563,2.26-1.198,6.25-1.62,10.768c-0.423,4.518-3.663,42.617-3.382,46.836
		c-1.549,0.451-3.029,0.526-2.676,2.107c0.352,1.583,3.029,4.444,3.029,7.832c-4.297,0.452-34.589,0.679-36.35-0.076
		c0.634-1.43,2.395-3.538,19.373-5.194c3.804-0.453,7.819-2.108,8.241-4.745c-1.655-0.451,6.129-51.692,6.975-56.286
		c0.846-5.511,5.706-35.578,6.552-39.645c0,0-2.536-18.749-2.325-37.951c0.423-6.775-3.452-9.562-5.494-10.842
		c0,0-11.35-3.533-18.704-5.874c-8.878-2.827-34.35-14.006-40.683-20.782c-6.713,10.392-15.459,25.225-17.362,32.304
		c-3.153,5.948-3.208,4.781-4.406,5.308c-1.197,0.527-2.43-0.451-2.43-0.451s-2.305-1.393-5.052-6.589
		c-2.748-5.195-22.104-35.013-23.865-36.52c0.211-0.603,0.563-1.054,0.563-1.054s-1.69-0.302-3.17,1.054
		c-1.479,1.355-9.968,8.358-10.743,9.11c-0.773,0.753-10.155,1.883-12.761,0.451c-2.607-1.43-6.294-4.141-5.872-6.625
		c1.41-1.731,2.466-5.496,3.453-8.056c0.446-0.897,1.408-0.226,1.689,0.678c0,0,0.352,3.463-0.634,5.346
		c1.127-2.108,2.819-4.668,3.031-5.12c0.21-0.452,1.408,0.979,1.267,2.711c-0.141,1.732-1.581,3.007-1.44,4.062
		c0,0,1.325,4.483,7.04,1.585c7.666-3.886,6.658-7.565,6.658-7.565s0.211-2.675-3.875-1.772c-4.086,0.904-7.608,1.732-7.89-1.054
		c0,0-0.211-0.151,1.232-0.226c1.444-0.076,3.593-1.469,3.98-1.694c0.388-0.226,0.634-0.64,2.253-0.791
		c1.622-0.151,9.405,0.828,13.526,2.711c2.325,0.79,2.396,0.602,3.452,0.79c1.058,0.188,1.796,0.848,1.796,0.848
		s1.092-1.563,1.584-2.315c1.657,2.635,16.325,25.154,25.06,41.909c0,0,0.195,1.236,0.989-0.307
		c8.773-20.63,12.905-26.092,20.023-40.887C458.688,167.826,462.289,175.014,478.263,182.642z"/>
	<path d="M379.871,163.371c0,0,2.02,4.439,2.036,5.035c0.018,0.663-0.853,0.211-0.853,0.211l-2.471-5.268
		C378.583,163.349,379.388,162.984,379.871,163.371z"/>
	<path d="M378.612,160.378l-1.324,0.172c0,0-1.062-2.061-1.229-2.595c-0.176-0.562,0.735-1.194,1.16-0.919
		C377.488,157.208,378.612,160.378,378.612,160.378z"/>
	<path d="M376.236,154.605l-0.974,1.596l-1.773-3.85c0,0,0.695-2.285,0.944-1.923C374.683,150.79,375.692,153.347,376.236,154.605z"
		/>
	<path d="M373.649,148.533c0,0-1.482,0.269-1.642,0.708c-0.092,0.254-1.508-3.331-1.508-3.331l1.172-2.067
		c0,0,1.272,2.898,1.713,4.083"/>
	<path d="M369.1,137.615l-0.815,3.694l1.248,2.554c0,0,0.817-2.62,0.949-2.856C370.507,140.961,369.1,137.615,369.1,137.615z"/>
	<polyline points="367.993,135.077 367.348,139.156 365.544,135.077 366.385,131.154 367.993,135.077 	"/>
	<path d="M365.485,129.114c0,0-0.9,3.354-0.813,4.152c0.087,0.797-1.666-3.496-1.666-3.496l0.973-4.236L365.485,129.114z"/>
	<path d="M361.802,127.004c0,0,1.324-3.59,1.103-4.025s-1.254-2.978-1.254-2.978s-0.852,4.489-0.979,4.647
		c-0.129,0.159,0.882,2.197,1.037,2.373"/>
	<path d="M360.189,116.536c0,0-0.688,5.392-0.604,5.919c-0.772-1.488-2.608-5.532-2.608-5.532s1.322-3.507,1.261-5.123
		C358.923,113.236,360.189,116.536,360.189,116.536z"/>
	<path d="M355.736,114.132l-2.142-4.512c0,0,2.046-2.562,2.088-3.756c0.818,2.022,1.557,3.682,1.557,3.682
		S357.448,110.129,355.736,114.132z"/>
	<path d="M352.622,107.542c0,0,1.601-4.604,1.479-5.407c-0.1-0.655-2.036-4.873-2.036-4.873s-1.033,3.314-1.785,4.874
		C351.432,104.57,352.622,107.542,352.622,107.542z"/>
	<path d="M351.285,95.639c0,0-1.85,4.244-1.949,4.783c-0.947-1.864-2.176-4.607-2.176-4.607s2.129-4.259,1.953-5.38
		C350.023,92.305,351.285,95.639,351.285,95.639z"/>
	<path d="M347.432,86.541l0.365,1.023l-0.169,0.943l-1.422,5.437l-2.571-5.567c0,0,2.433-3.738,2.258-5.333
		C346.622,84.742,347.432,86.541,347.432,86.541z"/>
	<path d="M343.114,84.489c0,0-0.102,1.658-0.187,2.368c-0.487-1.046-0.502-1.23-0.502-1.23L343.114,84.489z"/>
	<g id="Ebene_15">
		<path fill="#C92600" d="M359.513,122.315c0,0,0.582-5.288,0.677-5.779c0.654,1.336,1.461,3.465,1.461,3.465
			s-0.777,4.713-0.972,4.816C360.228,124.034,359.513,122.315,359.513,122.315"/>
		<path fill="#EBECEB" d="M361.708,127.021c0,0,1.292-3.313,1.196-4.042c0.537,1.131,1.075,2.555,1.075,2.555
			s-0.729,4.309-0.935,4.365C362.944,129.925,361.708,127.021,361.708,127.021z"/>
		<path fill="#C92600" d="M366.385,131.154c-0.022-0.243-0.05-0.188-0.9-2.04c-0.609,1.364-0.884,4.2-0.884,4.2
			s0.798,1.808,0.884,1.897C365.572,135.302,366.385,131.154,366.385,131.154"/>
		<path fill="#EBECEB" d="M367.993,135.077c0,0,0.974,1.981,1.107,2.539c0.133,0.555-0.778,3.741-0.778,3.741l-0.974-2.2
			c0,0,0.56-3.929,0.599-4.071"/>
		<path fill="#C92600" d="M370.482,141.007c0,0,1.195,2.668,1.189,2.835c-0.006,0.167-1.073,2.309-1.073,2.309
			s-1.006-2.101-1.065-2.288C369.418,143.493,370.482,141.007,370.482,141.007"/>
		<path fill="#EBECEB" d="M373.649,148.533c0,0,0.756,1.714,0.784,1.895s-0.827,2.118-0.925,1.95
			c-0.41-0.714-1.462-2.997-1.501-3.137C371.968,149.1,372.527,148.238,373.649,148.533z"/>
		<path fill="#C92600" d="M376.16,154.451c0,0,1.283,2.572,1.068,2.685c-0.427,0.225-1.149-0.091-1.161,0.815
			c-0.426-0.833-0.883-1.883-0.846-1.89C375.259,156.054,376.06,154.469,376.16,154.451z"/>
		<path fill="#EBECEB" d="M379.871,163.371c0,0-0.549-0.45-1.288-0.022c-0.534-0.785-1.292-2.551-1.333-2.725
			c-0.042-0.173,1.158-0.541,1.362-0.246C378.885,160.769,379.871,163.371,379.871,163.371z"/>
		<path fill="#EBECEB" d="M345.176,81.507c0,0,0.593,0.881,0.741,1.594c0.134,0.646-0.828,4.503-2.159,5.557
			c-0.603-1.382-0.831-1.801-0.831-1.801s-0.037-1.963,0.187-2.368C344.94,81.182,345.176,81.507,345.176,81.507z"/>
		<path fill="#C92600" d="M347.187,95.929c0,0-0.981-1.804-1.048-2.199c-0.066-0.394,1.708-5.361,1.659-6.166
			c0.723,1.407,1.316,2.871,1.316,2.871S349.35,91.505,347.187,95.929z"/>
		<path fill="#EBECEB" d="M350.302,102.421c0,0-0.915-1.658-0.965-1.999c-0.051-0.342,1.766-4.365,1.949-4.783
			c0.146-0.336,0.871,1.892,0.871,1.892S351.076,101.366,350.302,102.421z"/>
		<path fill="#C92600" d="M353.694,109.832c0,0-1.059-1.954-1.072-2.29c-0.015-0.336,1.488-4.528,1.479-5.407
			c0.516,1.004,1.419,3.259,1.581,3.73C355.843,106.336,354.335,108.903,353.694,109.832z"/>
		<path fill="#EBECEB" d="M356.977,116.923c0,0-1.253-2.564-1.257-2.835c-0.005-0.271,1.548-3.631,1.52-4.542
			c0.784,1.554,0.998,2.253,0.998,2.253S358.263,113.454,356.977,116.923z"/>
		<path d="M347.432,86.541"/>
	</g>
	<g id="Ebene_14">
		<g>
			<path fill="#C92600" stroke="#C92600" stroke-miterlimit="10" d="M343.201,105.776c-1.09,0-1.09-1.807,0-1.807
				S344.291,105.776,343.201,105.776L343.201,105.776z"/>
		</g>
		<g>
			<path fill="#C92600" stroke="#C92600" stroke-miterlimit="10" d="M341.932,100.355c0-0.954,0-1.907,0-2.861
				c0-1.166,1.691-1.166,1.691,0c0,0.954,0,1.908,0,2.861C343.624,101.521,341.932,101.521,341.932,100.355L341.932,100.355z"/>
		</g>
		<g>
			<path fill="#C92600" stroke="#C92600" stroke-miterlimit="10" d="M337.843,102.792c-0.543-0.314-1.116-0.529-1.7-0.737
				c-1.03-0.367-0.588-2.113,0.449-1.743c0.721,0.257,1.435,0.533,2.105,0.92C339.655,101.786,338.802,103.346,337.843,102.792
				L337.843,102.792z"/>
		</g>
		<g>
			<path fill="#C92600" stroke="#C92600" stroke-miterlimit="10" d="M338.697,106.783c-0.794,0.388-1.578,0.794-2.387,1.146
				c-0.428,0.186-0.928-0.199-1.04-0.631c-0.132-0.517,0.165-0.926,0.592-1.112c0.671-0.292,1.322-0.641,1.981-0.963
				c0.419-0.204,0.907-0.131,1.156,0.325C339.215,105.939,339.115,106.578,338.697,106.783L338.697,106.783z"/>
		</g>
		<g>
			<path fill="#C92600" stroke="#C92600" stroke-miterlimit="10" d="M344.227,107.569c0.319,0.917,0.504,1.878,0.845,2.787
				c0.172,0.458-0.184,0.991-0.59,1.111c-0.482,0.142-0.868-0.175-1.04-0.631c-0.34-0.908-0.527-1.87-0.846-2.787
				C342.215,106.955,343.85,106.487,344.227,107.569L344.227,107.569z"/>
		</g>
		<g>
			<path fill="#C92600" stroke="#C92600" stroke-miterlimit="10" d="M372.858,78.519c-1.09,0-1.09-1.808,0-1.808
				C373.948,76.711,373.948,78.519,372.858,78.519L372.858,78.519z"/>
		</g>
		<g>
			<path fill="#C92600" stroke="#C92600" stroke-miterlimit="10" d="M369.17,72.047c-0.36-0.882-0.902-1.649-1.339-2.485
				c-0.533-1.019,0.928-1.93,1.459-0.912c0.438,0.836,0.979,1.603,1.339,2.485c0.185,0.452,0.13,0.965-0.303,1.236
				C369.964,72.598,369.353,72.499,369.17,72.047L369.17,72.047z"/>
		</g>
		<g>
			<path fill="#C92600" stroke="#C92600" stroke-miterlimit="10" d="M368.561,77.84c-0.433,0-0.855-0.023-1.281-0.107
				c-0.454-0.09-0.706-0.667-0.591-1.111c0.131-0.505,0.587-0.721,1.04-0.631c0.265,0.052-0.165-0.013,0.1,0.018
				c0.081,0.009,0.164,0.013,0.245,0.018c0.162,0.009,0.324,0.007,0.487,0.007c0.46,0,0.845,0.411,0.845,0.904
				C369.406,77.429,369.021,77.841,368.561,77.84L368.561,77.84z"/>
		</g>
		<g>
			<path fill="#C92600" stroke="#C92600" stroke-miterlimit="10" d="M375.083,81.215c0.088,0.361,0.223,0.708,0.352,1.054
				c0.171,0.458-0.184,0.992-0.59,1.112c-0.482,0.141-0.869-0.175-1.04-0.631c-0.13-0.346-0.265-0.693-0.353-1.055
				c-0.117-0.476,0.143-0.979,0.591-1.111C374.483,80.454,374.965,80.739,375.083,81.215L375.083,81.215z"/>
		</g>
		<g>
			<path fill="#C92600" stroke="#C92600" stroke-miterlimit="10" d="M377.93,78.443c1.817,0.022,3.616,0.292,5.425,0.452
				c1.078,0.095,1.087,1.903,0,1.807c-1.809-0.16-3.607-0.43-5.425-0.452C376.841,80.236,376.839,78.43,377.93,78.443L377.93,78.443
				z"/>
		</g>
		<g>
			<path fill="#C92600" stroke="#C92600" stroke-miterlimit="10" d="M324.18,55.477c-1.09,0-1.09-1.808,0-1.808
				C325.27,53.669,325.27,55.477,324.18,55.477L324.18,55.477z"/>
		</g>
		<g>
			<path fill="#C92600" stroke="#C92600" stroke-miterlimit="10" d="M324.211,50.973c-0.194-1.519-0.045-3.008-0.031-4.532
				c0.012-1.165,1.702-1.166,1.69,0c-0.013,1.345-0.2,2.711-0.029,4.052C325.986,51.632,324.356,52.124,324.211,50.973
				L324.211,50.973z"/>
		</g>
		<g>
			<path fill="#C92600" stroke="#C92600" stroke-miterlimit="10" d="M321.292,55.627c-0.704-0.075-1.408-0.15-2.112-0.226
				c-0.459-0.049-0.846-0.374-0.846-0.903c0-0.456,0.386-0.953,0.846-0.904c0.704,0.075,1.409,0.151,2.112,0.226
				c0.46,0.049,0.847,0.374,0.847,0.903C322.138,55.18,321.751,55.676,321.292,55.627L321.292,55.627z"/>
		</g>
		<g>
			<path fill="#C92600" stroke="#C92600" stroke-miterlimit="10" d="M323.361,58.417c-0.427,1.064-0.858,2.125-1.339,3.163
				c-0.483,1.045-1.942,0.129-1.459-0.912c0.479-1.038,0.911-2.099,1.338-3.163c0.182-0.453,0.795-0.55,1.156-0.324
				C323.491,57.453,323.542,57.965,323.361,58.417L323.361,58.417z"/>
		</g>
		<g>
			<path fill="#C92600" stroke="#C92600" stroke-miterlimit="10" d="M326.756,58.399c0.391,1.233,0.874,2.41,1.465,3.549
				c0.53,1.02-0.931,1.931-1.458,0.912c-0.662-1.272-1.199-2.604-1.636-3.981C324.776,57.773,326.409,57.302,326.756,58.399
				L326.756,58.399z"/>
		</g>
		<g>
			<path fill="#C92600" stroke="#C92600" stroke-miterlimit="10" d="M328.958,53.702c1.203-0.19,2.278,0.232,3.465,0.27
				c1.088,0.034,1.09,1.841,0,1.807c-0.998-0.032-2.019-0.492-3.017-0.334c-0.455,0.072-0.906-0.114-1.04-0.631
				C328.257,54.383,328.501,53.774,328.958,53.702L328.958,53.702z"/>
		</g>
	</g>
	<path fill="none" stroke="#C92600" stroke-width="2" stroke-linecap="round" stroke-linejoin="round" stroke-miterlimit="10" d="
		M408.166,163.167c0,0-3.11,4.643-4.805,6.238"/>
	<path fill="none" stroke="#EBECEB" stroke-width="2" stroke-linecap="round" stroke-linejoin="round" stroke-miterlimit="10" d="
		M409.5,164.333c0,0-3.5,5.5-5,6.333"/>
	<path fill="none" stroke="#C92600" stroke-width="2" stroke-linecap="round" stroke-linejoin="round" stroke-miterlimit="10" d="
		M410.5,165.667c0,0-2.833,4.833-4.667,6.333"/>
	<path fill="none" stroke="#C92600" stroke-width="2" stroke-linecap="round" stroke-linejoin="round" stroke-miterlimit="10" d="
		M568,143c0,0,1.041,5.013,1.5,6"/>
	<path fill="none" stroke="#EBECEB" stroke-width="2" stroke-linecap="round" stroke-linejoin="round" stroke-miterlimit="10" d="
		M566.5,143.333c0,0,0.167,4.667,1,6.333"/>
	<path fill="none" stroke="#C92600" stroke-width="2" stroke-linecap="round" stroke-linejoin="round" stroke-miterlimit="10" d="
		M564.666,143.667c0,0,0.667,5.333,1.167,6.333"/>
	<path fill="none" stroke="#C92600" stroke-width="2" stroke-linecap="round" stroke-linejoin="round" stroke-miterlimit="10" d="
		M584.667,349.75c0,0-7.833-0.167-9.083,0"/>
	<path fill="none" stroke="#EBECEB" stroke-width="2" stroke-linecap="round" stroke-linejoin="round" stroke-miterlimit="10" d="
		M584.667,347.75c0,0-7.5-0.167-9.583,0.083"/>
	<path fill="none" stroke="#C92600" stroke-width="2" stroke-linecap="round" stroke-linejoin="round" stroke-miterlimit="10" d="
		M584.167,345.833c0,0-7.607-0.097-9.25,0"/>
	<path fill="none" stroke="#C92600" stroke-width="2" stroke-linecap="round" stroke-linejoin="round" stroke-miterlimit="10" d="
		M518.539,346.809c0,0-7.955-0.226-9.205-0.059"/>
	<path fill="none" stroke="#EBECEB" stroke-width="2" stroke-linecap="round" stroke-linejoin="round" stroke-miterlimit="10" d="
		M519.167,345.083c0,0-7.583-0.5-9.667-0.25"/>
	<path fill="none" stroke="#C92600" stroke-width="2" stroke-linecap="round" stroke-linejoin="round" stroke-miterlimit="10" d="
		M510,342.917c0,0,10.893,0.07,9.25,0.167"/>
	<path fill="none" stroke="#C92600" stroke-width="2" stroke-linecap="round" stroke-linejoin="round" stroke-miterlimit="10" d="
		M441.215,118.332c0,0,7.035-1.04,18.743,1.217"/>
	<path fill="none" stroke="#C92600" stroke-width="2" stroke-linecap="round" stroke-linejoin="round" stroke-miterlimit="10" d="
		M461.517,112.377c0,0-8.601-6.21-16.671-7.712"/>
	<path fill="none" stroke="#C92600" stroke-width="2" stroke-linecap="round" stroke-linejoin="round" stroke-miterlimit="10" d="
		M452.317,64.167c0,0,7.061,0.162,25.205,15.808"/>
	<path fill="none" stroke="#C92600" stroke-width="2" stroke-linecap="round" stroke-linejoin="round" stroke-miterlimit="10" d="
		M452.692,60.189c0,0,7.111-0.107,27.389,16.546"/>
	<path fill="none" stroke="#EBECEB" stroke-width="2" stroke-linecap="round" stroke-linejoin="round" stroke-miterlimit="10" d="
		M452.042,62.25c0,0,5.128-1.597,26.728,16.099"/>
	<path fill="none" stroke="#EBECEB" stroke-width="2" stroke-linecap="round" stroke-linejoin="round" stroke-miterlimit="10" d="
		M444.042,108.083c0,0,5.703,0.795,16.827,7.75"/>
</g>
<g id="Hase">
	<path d="M382.478,321.298c0,0,0.578,13.126-1.312,15.646c-1.891,2.521-1.182,2.967-0.814,3.309c0.368,0.34,1.234,0.76,1.234,0.76
		s-4.936,3.544-3.728,4.699s2.599,2.18,2.599,2.18s-7.324,2.939-8.375,5.328c-1.05,2.39,1.05,4.726,6.143,6.248
		c5.093,1.523,23.81,5.329,38.564-2.52c-0.785-8.139-1.759-15.725-1.969-20.004c-0.184-4.83,0.236-15.331-1.234-21.421
		c-4.463,2.021-12.89,4.673-16.617,5.197C392.48,321.482,382.478,321.298,382.478,321.298z"/>
	<g>
		<path fill="#F7941E" d="M378.116,311.202c0,0-1.203,0.882-0.337,1.329c0.866,0.445,1.732,0.971,1.365,1.207
			c-0.368,0.235-0.893,0.788-0.184,0.997c0.708,0.211,0.892,0.158,0.892,0.158s-0.446,0.394-0.289,0.761
			c0.157,0.367,0.945,1.207,1.417,1.207c-0.368,0.447-0.604,0.945,0,1.077c0.604,0.132,0.954,0.394,0.954,0.394
			s-2.04,1.155-1.129,1.549c0.91,0.394,1.304,0.446,1.304,0.446s-0.734,0.63,0.368,0.972c1.103,0.341,12.032,0.235,17.283-1.103
			c5.25-1.339,12.636-3.728,14.429-5.058c0.578-0.368-0.341-1.794-0.761-2.319c-0.42-0.525-0.473-1.443-0.473-1.838
			c0-0.394,0.21-0.734-1.181-2.152c-0.131-0.21,0.131-0.525,0.525-0.866c0.394-0.342-0.16-0.403-0.506-0.525
			c-0.365-0.129-1.017,0.079-0.15-0.709c0.866-0.787,0.998-1.68,0.157-2.126C398.333,308.12,387.387,310.055,378.116,311.202z"/>
		<g>
			<path fill="#F7941E" d="M377.055,310.141c-0.377,0.33-0.591,0.665-0.869,1.089c-0.296,0.452-0.25,1.06,0,1.515
				c0.521,0.95,0.56,1.305,1.402,0.44c-0.458,0.47-0.599,1.247-0.234,1.818c0.625,0.979,1.28,1.39,2.499,1.39
				c-0.354-0.854-0.707-1.707-1.061-2.561c-1.48,1.766-0.306,3.345,1.433,4.323c-0.18-0.684-0.359-1.368-0.539-2.052
				c-0.121,0.219-0.243,0.438-0.364,0.656c-0.346,0.624-0.219,1.295,0.234,1.818c0.545,0.629,0.932,0.643,1.621,1.048
				c0-0.863,0-1.727,0-2.59c-0.645,0.396-1.158,0.799-1.64,1.375c-0.458,0.547-0.564,1.171-0.235,1.817
				c0.511,1.003,1.314,1.277,2.408,1.544c-0.221-0.836-0.441-1.671-0.662-2.507c-0.341,0.4-0.513,0.706-0.604,1.229
				c-0.124,0.713,0.088,1.279,0.689,1.694c2.573,1.775,7.446,0.747,10.333,0.587c5.493-0.307,10.574-1.541,15.807-3.202
				c2.21-0.702,8.567-1.863,8.567-5.085c0-1.497-1.116-3.539-1.697-4.959c-0.521-1.271-0.441-0.213-0.321-1.913
				c0.048-0.688-0.499-1.242-1.102-1.446c-0.243-0.102-0.493-0.179-0.75-0.233c0.101,0.785,0.203,1.571,0.304,2.356
				c0.578-0.684,0.889-1.185,1.38-2c0.274-0.454,0.272-1.061,0-1.515c-0.187-0.312-0.374-0.623-0.561-0.935
				c-0.351-0.584-1.036-0.859-1.694-0.689c-10.966,2.828-22.046,5.122-33.286,6.546c-1.892,0.239-1.916,3.243,0,3
				c11.51-1.458,22.852-3.756,34.084-6.653c-0.565-0.229-1.129-0.459-1.694-0.689c-0.117,0.271-0.233,0.543-0.35,0.813
				c-0.673,0.797-0.51,1.747,0.304,2.356c0.431,0.322,0.965,0.364,1.466,0.535c-0.367-0.482-0.734-0.965-1.101-1.446
				c0.037-0.53-0.55,0.87-0.55,1.211c0,1.148,1.151,1.816,1.26,3.022c0.038,0.411,0.732,2.728,1.338,2.346
				c-1.881,1.186-4.298,1.787-6.395,2.484c-4.515,1.503-8.972,2.601-13.717,3.005c-2.367,0.202-8.018,1.357-10.111-0.087
				c0.23,0.564,0.459,1.13,0.689,1.694c-0.056,0.031-0.112,0.062-0.168,0.094c0.696-0.818,0.51-2.222-0.662-2.507
				c-0.208-0.046-0.413-0.101-0.615-0.165c-0.078,0.605-0.157,1.212-0.235,1.817c0.28-0.385,0.624-0.687,1.034-0.906
				c0.957-0.586,0.985-2.01,0-2.59c-0.32-0.188-0.765-0.292-1.015-0.58c0.078,0.606,0.157,1.212,0.235,1.818
				c0.121-0.219,0.243-0.438,0.364-0.657c0.391-0.706,0.186-1.645-0.539-2.052c-0.275,0.129-0.55,0.259-0.825,0.388
				c0.81-0.966,0.334-2.561-1.061-2.561c0.03,0.032,0.061,0.064,0.091,0.096c-0.078,0.606-0.157,1.212-0.235,1.818
				c0.166-0.17,0.331-0.339,0.496-0.509c0.338-0.347,0.587-0.979,0.386-1.459c-0.285-0.68-0.554-1.83-1.414-1.077
				C380.634,310.985,378.503,308.872,377.055,310.141z"/>
		</g>
	</g>
	<path d="M367.224,293.531c0,0-6.378,0.974-10.438,6.994c-4.061,6.02-7.142,10.323-1.138,11.664
		c8.82,1.969,64.946-4.595,81.642-19.137c5.741-6.108,1.821-10.309-7.42-11.289s-28.363,0.231-36.723,3.196l5.396,6.233
		l-0.279,0.398l1.014,2.476c0,0-0.77-0.021,0,0c0.816,0.227,2.17,3.518,2.17,3.518s-1.331,0.699-7.307,1.873l-0.665,0.733
		l3.071,2.495c0,0,1.29,2.546-0.326,2.782c-1.616,0.236-3.139,0.162-3.139,0.162s-1.627,3.093-4.988,1.046
		c-0.788,0.577-3.991,0.787-5.25-0.237c-0.525,0.368-2.074,1.261-3.413,0.185s-1.172-3.422-0.761-3.964
		c0.412-0.543,1.26-2.127,1.26-2.127s-1.549-0.604-3.387-1.732c-0.708-0.498-1.286-1.652-1.286-1.652s-2.311,0.497-2.73-0.173
		c-0.42-0.668-0.656-1.062-0.656-1.062s-1.966,0.105-2.348,0s-0.881-1.103-0.881-1.103S367.265,294.605,367.224,293.531z"/>
	<path d="M401.449,297.584"/>
	<path fill="none" stroke="#000000" stroke-width="2" stroke-linecap="round" stroke-linejoin="round" stroke-miterlimit="10" d="
		M382.635,290.024l-0.805,3.072l1.225-0.709c0,0-0.625,1.908-0.682,2.45c-0.017,0.155-0.266,2.023-0.926,2.858l0.663,0.449
		c0,0-2.8,3.307-3.027,3.972c-0.155,0.452-1.523,2.451,0.887,4.509c1.37,0.83,2.647-0.413,2.647-0.413"/>
	<path fill="none" stroke="#000000" stroke-width="2" stroke-linecap="round" stroke-linejoin="round" stroke-miterlimit="10" d="
		M381.935,304.55c0,0,1.141,1.549,1.365,1.732c0.383,0.313,2.275,1.768,4.148,0.434c0.245-0.192,0.31-0.783,0.31-0.783
		s0.686,0.981,1.44,1.138c0.753,0.154,2.709,0.332,3.549-1.541c0,0,0.266-0.805-0.394-1.54"/>
	<path fill="none" stroke="#000000" stroke-width="2" stroke-linecap="round" stroke-linejoin="round" stroke-miterlimit="10" d="
		M393.329,305.25c0,0,3.413,0.279,3.413-0.787c0-1.593-1.065-2.156-1.065-2.156s-2.825-1.834-3.03-2.656"/>
	<path fill="none" stroke="#000000" stroke-width="2" stroke-linecap="round" stroke-linejoin="round" stroke-miterlimit="10" d="
		M389.86,291.304c0,0,0.195,2.868,2.243,4.163c-0.857,0.018-1.574-0.088-1.574-0.088l3.185,4.271"/>
	<path fill="none" stroke="#000000" stroke-width="2" stroke-linecap="round" stroke-linejoin="round" stroke-miterlimit="10" d="
		M402.136,297.738c0,0-1.516-3.592-2.674-5.068c0,0-0.359-0.726-1.157-1.955c-0.302-0.465-2.036-2.107-2.142-2.545
		c0,0-3.045-3.343-3.833-3.99l0.875-0.683c0,0-2.38-1.907-2.555-1.978c0.35-0.176,1.015-0.718,1.015-0.718s-1.522-2.328-2.065-2.87"
		/>
	<path fill="none" stroke="#000000" stroke-width="2" stroke-linecap="round" stroke-linejoin="round" stroke-miterlimit="10" d="
		M385.418,278.019c0,0,4.06,0.314,5.758-1.908l1.494,0.652c0,0,0.847-0.897,1.184-1.475c0.389,0.259,1.698,0.63,1.698,0.63
		s1.313-1.47,0.542-3.045l1.016,0.104c0,0,0.788-2.678,0.63-3.867c0,0,1.015,0.157,1.68,0.752
		c-0.262-2.362-2.363-8.925-3.185-10.886c-0.823-1.959-1.838-3.692-2.311-4.253c0.596-0.244,1.4-0.507,1.4-0.507
		s-0.98-1.032-6.266-1.452c-0.21-0.386-0.822-2.206-0.822-2.206s-2.433,0.018-3.203,0.192c-1.155-0.857-3.5-1.277-6.825-1.365
		c0.035,0.367,0.446,1.258,0.236,1.311c-0.21,0.052-1.847-0.75-3.334-0.819c0.07,0.228,0.312,1.11,0.312,1.11
		s-3.619-0.569-6.122,1.181c0.263,0.299,1.558,0.526,1.558,0.526s-1.181,0.449-1.811,0.888"/>
	<path fill="none" stroke="#000000" stroke-width="2" stroke-linecap="round" stroke-linejoin="round" stroke-miterlimit="10" d="
		M369.046,254.9c0,0-0.797,0.543-1.28,1.87"/>
	<path fill="none" stroke="#000000" stroke-width="2" stroke-linecap="round" stroke-linejoin="round" stroke-miterlimit="10" d="
		M367.393,258.312c0,0-2.608,3.255-1.856,5.706c0.281,0.034,0.876,0,0.876,0s-0.614,2.835,1.066,3.08c0,0-0.097,3.051,1.173,3.797
		c0.981,0.578,1.837,2.958,1.837,2.958l0.368-0.21c0,0,1.417,2.327,2.59,2.766c0,0,0.49,0.104-0.064-0.64
		c-0.49-0.683-3.016,2.88-3.086,4.595c-0.053,1.296,0.192,3.588,0.857,4.235c0.333,0.35,0.28-0.351,0.28-0.351
		s-0.63,2.339-0.105,3.22c0.28,0.13,0.735-0.629,0.735-0.629s-0.468,1.679-0.35,3.5c-1.715-0.315-3.873,0.329-4.447,1.812
		c-0.271,0.702-0.208,2.406,1.244,2.283"/>
	<path fill="none" stroke="#000000" stroke-width="2" stroke-linecap="round" stroke-linejoin="round" stroke-miterlimit="10" d="
		M369.072,293.052c0,0-0.283,1.94,0.231,2.369c0.539,0.447,1.921,0.405,2.656,0.056c0.304-0.144,0.367-1.131,0.367-1.131
		s-0.296,1.943,0.421,2.346c0.718,0.403,2.416,0.281,2.678,0.21"/>
	<path fill="none" stroke="#000000" stroke-width="2" stroke-linecap="round" stroke-linejoin="round" stroke-miterlimit="10" d="
		M374.883,294.645c0,0,1.26,3.822,1.47,5.005"/>
	<path fill="none" stroke="#000000" stroke-width="2" stroke-linecap="round" stroke-linejoin="round" stroke-miterlimit="10" d="
		M371.959,255.722c0,0,0.967,1.793,1.383,1.978c0.472,0.21,2.922-0.298,3.43-0.7"/>
	
		<path fill="#FFFFFF" stroke="#000000" stroke-width="2" stroke-linecap="round" stroke-linejoin="round" stroke-miterlimit="10" d="
		M397.756,254.62c0,0,38.695-7.614,45.258,6.93c0,0,0.524,0.998-2.205,1.365c0,0-8.611,0.053-12.496-0.525
		c-4.515-0.629-18.376-6.194-30.557-5.619"/>
	<path fill="none" stroke="#000000" stroke-width="2" stroke-linecap="round" stroke-linejoin="round" stroke-miterlimit="10" d="
		M376.282,248.372c0,0-4.331-10.815-1.916-14.859c2.101-3.516,8.584-10.487,11.104-8.558c2.6,1.993-0.141,7.495-3.308,11.288
		c-3.839,4.598-4.043,11.604-4.043,11.604"/>
	<path d="M391.491,258.645c0,0-2.065-0.07-2.188,1.4c-0.122,1.47,2.013,2.468,3.448,1.312
		C393.417,260.797,393.399,259.169,391.491,258.645z"/>
</g>
<g id="Magier_Analyse">
	<g id="Magier">
		<path d="M225.077,129.885c0,0-24.805,6.552,19.891,36.739c1.638,0.234,13.572,21.528,15.99,26.989
			c1.326,3.899,1.872,3.12,1.872,7.8c0,4.681-17.785,44.305-19.5,47.113c2.652,0.156,5.147-1.873,8.58-6.241
			c3.432-4.367,11.232-20.279,11.232-20.279s0.468,7.021-1.092,14.977c-1.56,7.956-3.744,12.791-1.404,17.939
			c0,0,3.588-2.027,7.644-16.536c0.156,5.616-0.468,22.309-10.764,81.434c0,0-3.276,19.033-3.588,21.217s-0.156,3.433-5.46,7.02
			c-5.304,3.588-14.664,7.958-14.664,12.325c0.312,1.091,3.12,2.027,23.869-6.865c9.36,1.717,25.896,6.397,27.769,4.057
			c0,0-1.716-3.899-18.408-12.168c-4.368-2.028-7.021-2.808-6.396-8.893c0,0,19.657-93.602,21.685-126.362
			c0,0-1.912-15.679-2.965-18.019c0,0,13.572-0.585,15.562-1.404c0,0,0.819-0.117,1.521-0.233c0.702-0.117,3.51-0.858,4.212-2.574
			c0,0,0.585-0.352,0.468-1.17c0.702-1.287-1.326-11.154-2.925-14.86c-1.519-3.519-23.986-51.364-31.708-53.821
			c-2.925-0.819-3.744,0.234-5.031,0.819s-3.861-0.468-4.68-1.989c-0.819-1.521-0.234-2.34,0.702-3.159
			c0.936-0.819-6.435-6.201-9.711-6.786c3.276,5.5,18.72,31.006,20.826,59.359c0,0-21.528-54.602-33.384-56.161
			c0,0-2.185,4.29-0.897,7.332c0.585,1.287,0.234,2.691-1.989,3.744c-0.702,0.234-1.521,0.351-1.521,0.351s1.638,1.287,2.808,1.638
			c1.17,0.351,2.223,1.053,2.223,1.053"/>
		<g id="Ebene_8">
			<path d="M293,191.117c0,0,1.685,1.248,1.998,0.779c0.312-0.468,0.803-0.857,0.803-1.247c0-0.391,0.286,0.545,0.91,1.014
				c0.624,0.468,1.936-0.936,2.482-1.326c0.546-0.39,2.021,0.078,2.021,0.078s1.557-1.249-0.394-3.042
				c0.312-0.624,1.559-0.858,0.311-1.638c-1.249-0.78-5.82,1.949-5.82,1.949L293,189.478V191.117z"/>
		</g>
		<path d="M276.714,171.304c0,0-27.769-57.409-32.449-58.345c-2.34-1.404-14.977-4.134-14.508-5.304c0.468-1.17,4.263-1.478,7.956,0
			c0.39-0.156-2.73-3.51-2.73-3.51s-0.546-3.12,2.184-2.729c0.546-0.312,1.404-0.858,1.326-1.404
			c-0.078-0.546,3.198-1.326,3.51-1.95c0.312-0.624,2.886-1.248,3.978-0.078c1.481,0.078,0.78-1.248,1.56-0.468
			c0.78,0.78,1.015,0.702,2.028,2.808c1.014,2.106,1.716,5.694,1.872,6.24c0,0-1.015,2.73,0.312,4.212
			c1.326,1.482,35.257,58.969,35.257,58.969"/>
		<g id="Ebene_7">
			<path d="M203.393,105.782c0,0,38.065-31.825,41.185-32.761c-0.936-1.248-9.672,0.312-14.353,4.056
				c-4.68,3.744-8.424,9.048-19.344,13.729C204.641,97.046,200.272,106.094,203.393,105.782z"/>
			<path d="M220.865,66.381c0,0-13.732,9.031-16.479,11.944c-5.767-9.031-23.344-28.258-29.386-29.132
				c0.824-4.953,16.204-22.141,21.422-23.597C202.464,33.754,220.316,62.886,220.865,66.381z"/>
		</g>
		<path fill="none" stroke="#C92600" stroke-width="2" stroke-linecap="round" stroke-miterlimit="10" d="M208.833,72.333
			c0,0,6.833,10.834,7.333,15.667c-3.167,6.5-6.5,12.999-6.5,12.999s0.167,5.833,1.333,13.167s0.333,10.333,0.333,10.333"/>
		<path fill="none" stroke="#C92600" stroke-width="2" stroke-linecap="round" stroke-miterlimit="10" d="M208.833,72.333
			C210.338,74.302,187.167,46.5,180,42.667"/>
		<path fill="none" stroke="#FCE122" stroke-width="2" stroke-linecap="round" stroke-miterlimit="10" d="M207.167,73.667
			c0,0-21.167-25.833-28.333-29.833"/>
		<path fill="none" stroke="#FCE122" stroke-width="2" stroke-linecap="round" stroke-miterlimit="10" d="M207.167,73.667
			c0,0,6.833,12.167,6.833,14.833c0,0-7.167,12.667-7.167,14.167s0.333,10.167,0.667,13.833s0,6.333-0.5,8.5"/>
		<path fill="none" stroke="#32323C" stroke-width="2" stroke-linecap="round" stroke-miterlimit="10" d="M177.833,45.5
			c0,0,4.167,1,27.833,29.333"/>
		<path fill="none" stroke="#32323C" stroke-width="2" stroke-linecap="round" stroke-miterlimit="10" d="M212.333,88.833
			c0,0-8,13.333-7.833,15.333s0.5,17.5-1.167,20.5"/>
		<path fill="#F6931F" d="M210.881,90.806c0,0,12.168-5.616,19.344-13.729c0.625-2.808-2.184-2.496-2.184-2.496
			s0.624-1.248-0.312-1.56s-1.561-0.937-1.248-2.184c0.312-1.248-2.184-2.184-2.184-2.184s-0.937-3.12-3.432-3.12
			c-2.496,0-18.097,11.544-18.721,12.792c-0.624,1.248-1.248,2.496,0.625,1.56s0.624,1.248,0.624,1.248s-0.624,1.249,0.936,1.561
			c1.56,0.312,1.248,0.936,1.56,1.872s-0.624,2.808,1.561,2.808c2.184,0,1.56,2.184,1.56,2.184S209.633,91.742,210.881,90.806z"/>
	</g>
</g>
<g id="Magier_Wissenschafter">
	<path d="M84.904,71.31c0,0,4.256-42.156,5.63-43.803c7.964,1.373,18.4,5.492,31.857,18.949
		c-9.612,9.75-15.654,21.696-19.361,31.857C92.869,74.468,84.904,71.31,84.904,71.31z"/>
	<path fill="#F7941E" d="M77.42,91.425c0,0-2.112-1.817-0.36-1.611c1.75,0.206,1.03-0.927,0.875-1.545
		c-0.463-1.339-0.618-2.163,0.773-2.884c0.721-0.412,0.206-1.184,0-1.39s-0.699-0.824,0.371-1.802
		c1.071-0.978,1.792-1.957,1.946-2.936c0.155-0.978,0.567-1.03,1.184-1.132c0.618-0.104-0.103-1.133-0.412-1.339
		c-0.309-0.206-0.875-0.619,0.103-1.597c0.979-0.979,1.596-1.493,0.927-1.802c-0.429-0.257,0.097-1.184,0.28-1.39
		c0.801-0.789,1.179-0.618,2.278-0.48c0.885,0.11,8.768,0.937,15.413,5.115c1.207,0.758,1.922,1.235,2.575,2.23
		c0.343,0.653,0.24,2.129-0.687,2.85c-0.927,0.721-2.575,2.505-1.098,3.124c0.343,0.275-0.069,1.304-0.996,1.75
		c-0.927,0.447-0.171,1.717,0.034,1.888c0.206,0.172,0.378,0.652-0.343,1.202c-0.721,0.549-2.163,0.855-1.442,1.749
		c0.721,0.894,1.167,1.135,0.172,1.993c-0.996,0.858-0.687,0.927-0.172,1.235c0.515,0.309,0.618,0.584,0.069,1.099
		c-0.549,0.515-0.961,0.652-1.305,0.652S85.248,93.999,77.42,91.425z"/>
	<path d="M61.251,87.547c0,0,14.933,8.703,50.875,13.08c2.06,0.206,2.575-0.824-2.163-1.958c-4.737-1.133-9.859-2.332-13.285-2.574
		c-5.098-0.36-20.289-4.428-28.321-8.548C64.753,85.9,62.179,86.312,61.251,87.547z"/>
	<g>
		<g>
			<path fill="#3C8863" d="M160.685,114.757c1.29,0,1.29-2,0-2S159.396,114.757,160.685,114.757L160.685,114.757z"/>
		</g>
	</g>
	<g>
		<path d="M168.46,91.976c-1.544-1.235-2.368-0.412-0.103,2.678c2.265,3.09,6.797,8.342,4.84,10.196
			c-1.957,1.853-3.398,1.544-2.986,0.411c0.412-1.132,0.206-4.119-2.06-7.724c-2.266-3.604-2.472-3.192-2.781-2.574
			c-0.309,0.618-0.721,1.699,0.103,2.936c0.824,1.236,2.626,3.914,2.059,5.458c-0.566,1.545-4.119,6.694-4.891,8.6
			c-0.772,1.905-1.854,2.369-2.472,2.369c-0.618,0-4.17-2.472-2.678-8.548c0.567-1.7,1.494-1.339,3.142-3.811
			c1.647-2.472,4.222-7.034,2.111-8.409c-0.669,0.324-0.309,0.736-1.802,2.538c-1.493,1.803-5.973,6.643-6.797,7.518
			c-0.824,0.875-3.604,2.833-2.677,4.995c0.926,2.163,6.127,12.565,5.046,13.8c-0.618,2.522-2.266,6.384-2.884,6.642
			c-0.618,0.257-15.757,38.672-16.632,39.753c-0.412,0.516-0.566,0.36-1.082-0.72c-5.562-11.586-26.21-42.997-27.137-44.232
			c-1.957-2.472-6.128-1.854-7.672-1.339c-1.545,0.515-3.914,0.721-4.377-2.266c-0.258-1.287,0.257-4.583-1.391-9.217
			c-2.111,7.26-3.604,21.215-0.618,31.875c2.987,10.659,9.807,20.735,8.328,32.913c-8.806-24.201-19.501-45.787-21.767-50.987
			c-2.266-5.2-2.935-9.732-1.957-11.534c0.463-0.978,0.051-2.317-0.36-2.626c0,0,0.103,2.37-3.089,4.377
			c-3.193,2.008-3.399,5.509-3.708,6.591c-0.309,1.082,0.618,1.906-3.914,4.48c0.876,1.288,2.214,1.288,3.192,1.803
			c0.979,0.515,0.927,1.029,0.309,1.544c-8.959,6.18-33.47,22.966-45.056,31.41c-0.753,0.773-0.8,1.341-0.746,3.09
			c0.224,1.099,0.282,4.567,3.578,9.475c6.669,9.936,27.824,21.027,49.622,30.931c0,0,2.592-7.397,3.159-12.084
			c3.844,0.413,8.29,1.941,10.041,2.268c0.775,0.079,3.476,0.919,5.046,2.608c-0.093,2.41-1.642,4.718-2.06,5.63
			c-6.831,14.884-10.848,46.894-11.054,52.11c-0.206,5.218,2.403,23.205,5.767,25.677c0-3.637-3.295-16.683,0.619-18.056
			c3.913-1.373,6.934-0.892,9.887-1.922c0,0,1.731-2.823,2.709-7.356c0.616-2.857,0.736-0.215,0.208,1.657
			c-6.419,32.201-19.773,74.769-24.613,93.718c-0.824,1.957-2.139,4.016-9.039,6.591c-6.899,2.574-16.889,5.915-15.86,6.487
			c1.03,0.574,28.939,0.413,30.278-0.926c1.957,1.19-1.109-8.084-0.431-9.481c2.697-5.556,29.244-113.484,31.715-116.779
			c-0.047,24.525-1.688,104.561-1.893,107.311c-0.245,3.296-0.811,9.836-2.312,13.183c-0.944,4.524-2.057,5.56-2.057,6.598
			c8.157,0.41,24.799,0,24.799,0c-1.235-3.149-15.036-8.658-15.036-8.658s0.622-54.964,1.58-94.197
			c0.002-0.004,3.341-2.832,7.141-3.432c0,3.897,1.168,13.235,0.711,15.219c1.143-3.625,2.384-6.362,2.584-11.374
			c0.206-5.151-8.824-54.172-9.922-58.908v0.367c-2.34-15.442-8.866-39.192-16.168-63.808c-0.721-2.884,7.604,11.617,8.68,13.183
			c6.424,9.337,18.371,36.594,22.078,35.976c2.357-0.376,19.489-24.869,22.451-34.191c0.137-0.429-2.46-14.498-2.735-18.273
			c0.687-2.609,3.447-7.816,3.457-7.851c0.721-2.162,13.884-13.876,18.743-17.816C179.17,106.085,180.921,103.201,168.46,91.976z
			 M95.443,184.561c-3.347,1.183-3.707,2.316-4.222,3.244c-0.515,0.926-1.03,2.215-1.751,2.572
			c-0.721,0.363-5.527-0.755-6.608-1.115c-0.343-0.583,0.085-0.643-0.684-1.227c-6.715-5.099-40.397-20.479-42.587-24.313
			l34.329-21.696c18.372,30.683,22.125,41.882,22.657,42.121C96.837,184.266,96.576,184.148,95.443,184.561z"/>
		<path d="M128.458,270.532c-0.031,0.101-0.062,0.196-0.093,0.297C128.401,270.747,128.432,270.646,128.458,270.532z"/>
	</g>
	<g>
		<circle fill="#FFFFFF" cx="157.376" cy="90.465" r="7.003"/>
		<g>
			<path d="M163.38,90.465c-0.417,7.737-11.59,7.736-12.007,0c-0.183-3.396,2.875-5.834,6.004-6.003
				C160.773,84.279,163.211,87.336,163.38,90.465c0.069,1.283,2.069,1.29,2,0c-0.555-10.307-15.452-10.307-16.007,0
				c-0.244,4.521,3.841,7.779,8.004,8.003c4.521,0.243,7.779-3.84,8.003-8.003C165.449,89.176,163.449,89.183,163.38,90.465z"/>
		</g>
	</g>
	<g>
		<ellipse transform="matrix(0.8916 0.4528 -0.4528 0.8916 60.4782 -64.3395)" cx="164.636" cy="94.161" rx="1.4" ry="1.953"/>
		<g>
			<path d="M164.588,94.038c-0.114,0.206-0.205,0.325-0.382,0.489c0.12-0.111-0.253-0.005-0.016-0.013
				c0.144-0.004,0.371,0.06,0.42,0.211c-0.016-0.048,0.011-0.308,0.072-0.44c0.095-0.209,0.212-0.333,0.382-0.49
				c-0.12,0.111,0.252,0.005,0.015,0.012c-0.143,0.004-0.371-0.06-0.42-0.21C164.676,93.645,164.649,93.905,164.588,94.038
				c-0.339,0.744-0.219,1.609,0.539,2.053c0.651,0.381,1.712,0.206,2.052-0.538c0.707-1.547,0.699-3.446-0.902-4.429
				c-1.563-0.959-3.417,0.269-4.185,1.647c-0.826,1.483-0.615,3.498,0.902,4.428c1.564,0.958,3.417-0.267,4.185-1.646
				C168.122,93.86,165.53,92.348,164.588,94.038z"/>
		</g>
	</g>
	<g>
		<path fill="#FFFFFF" d="M158.858,88.752c0,0,0.333,0.238,0.437,0.821c0.206-0.721,0-1.51,0-1.51s0.754,0.961,0.893,1.51
			c0.068-0.583-0.275-1.819-0.583-2.266c0.721,0.618,1.681,2.128,1.613,2.781c0.344-1.236-0.892-3.81-1.201-4.188
			c1.373,0.995,2.609,3.878,2.472,5.32"/>
		<g>
			<path d="M158.505,89.105c0.198,0.165,0.236,0.337,0.308,0.6c0.125,0.456,0.865,0.5,0.964,0c0.118-0.598,0.139-1.178,0-1.776
				c-0.278,0.162-0.557,0.324-0.835,0.486c0.3,0.389,0.604,0.822,0.764,1.29c0.183,0.535,0.957,0.441,0.982-0.133
				c0.038-0.85-0.217-1.789-0.652-2.518c-0.262,0.202-0.523,0.404-0.785,0.606c0.609,0.565,1.456,1.543,1.466,2.427
				c0.006,0.551,0.864,0.698,0.982,0.133c0.301-1.441-0.394-3.403-1.251-4.573c-0.262,0.202-0.523,0.404-0.785,0.606
				c1.36,1.07,2.417,3.22,2.326,4.967c-0.034,0.645,0.967,0.642,1,0c0.103-1.978-1.07-4.456-2.619-5.674
				c-0.406-0.319-1.15,0.107-0.785,0.606c0.684,0.933,1.393,2.642,1.151,3.802c0.327,0.044,0.655,0.088,0.982,0.133
				c-0.014-1.168-0.94-2.375-1.759-3.134c-0.41-0.38-1.083,0.106-0.785,0.606c0.348,0.583,0.545,1.335,0.515,2.013
				c0.327-0.044,0.655-0.088,0.982-0.133c-0.219-0.644-0.608-1.197-1.021-1.731c-0.329-0.425-0.938,0.044-0.835,0.486
				c0.098,0.422,0.084,0.816,0,1.245c0.321,0,0.643,0,0.964,0c-0.106-0.386-0.246-0.777-0.565-1.042
				C158.719,87.991,158.008,88.694,158.505,89.105L158.505,89.105z"/>
		</g>
	</g>
	<g id="Ebene_11">
		<g>
			<g>
				<path d="M164.135,97.764c1.29,0,1.29-2,0-2S162.845,97.764,164.135,97.764L164.135,97.764z"/>
			</g>
		</g>
		<g>
			<g>
				<path fill="#3C8863" d="M163.774,99.207c1.29,0,1.29-2,0-2S162.485,99.207,163.774,99.207L163.774,99.207z"/>
			</g>
		</g>
		<g>
			<g>
				<path d="M163.465,101.061c1.29,0,1.29-2,0-2S162.176,101.061,163.465,101.061L163.465,101.061z"/>
			</g>
		</g>
		<g>
			<g>
				<path fill="#009BA4" d="M163.104,102.966c1.29,0,1.29-2,0-2S161.815,102.966,163.104,102.966L163.104,102.966z"/>
			</g>
		</g>
		<g>
			<g>
				<path fill="#3C8863" d="M162.898,104.562c1.29,0,1.29-2,0-2S161.609,104.562,162.898,104.562L162.898,104.562z"/>
			</g>
		</g>
		<g>
			<g>
				<path fill="#EBECEB" d="M162.487,105.952c1.29,0,1.29-2,0-2S161.197,105.952,162.487,105.952L162.487,105.952z"/>
			</g>
		</g>
		<g>
			<g>
				<path d="M162.229,107.6c1.29,0,1.29-2,0-2S160.94,107.6,162.229,107.6L162.229,107.6z"/>
			</g>
		</g>
		<g>
			<g>
				<path fill="#3C8863" d="M161.972,109.505c1.29,0,1.29-2,0-2S160.682,109.505,161.972,109.505L161.972,109.505z"/>
			</g>
		</g>
		<g>
			<g>
				<path d="M161.56,111.205c1.29,0,1.29-2,0-2S160.271,111.205,161.56,111.205L161.56,111.205z"/>
			</g>
		</g>
		<g>
			<g>
				<path fill="#009BA4" d="M161.148,112.956c1.29,0,1.29-2,0-2S159.858,112.956,161.148,112.956L161.148,112.956z"/>
			</g>
		</g>
		<g>
			<g>
				<path d="M160.273,116.869c1.29,0,1.29-2,0-2S158.983,116.869,160.273,116.869L160.273,116.869z"/>
			</g>
		</g>
		<g>
			<g>
				<path d="M149.871,137.671c1.29,0,1.29-2,0-2S148.582,137.671,149.871,137.671L149.871,137.671z"/>
			</g>
		</g>
		<g>
			<g>
				<path fill="#009BA4" d="M148.841,139.011c1.29,0,1.29-2,0-2S147.551,139.011,148.841,139.011L148.841,139.011z"/>
			</g>
		</g>
		<g>
			<g>
				<path fill="#3C8863" d="M147.399,140.349c1.29,0,1.29-2,0-2S146.11,140.349,147.399,140.349L147.399,140.349z"/>
			</g>
		</g>
		<g>
			<g>
				<path d="M145.751,142.1c1.29,0,1.29-2,0-2S144.462,142.1,145.751,142.1L145.751,142.1z"/>
			</g>
		</g>
		<g>
			<g>
				<path fill="#009BA4" d="M144.413,143.233c1.29,0,1.29-2,0-2S143.123,143.233,144.413,143.233L144.413,143.233z"/>
			</g>
		</g>
		<g>
			<g>
				<path fill="#3C8863" d="M142.971,144.571c1.29,0,1.29-2,0-2S141.682,144.571,142.971,144.571L142.971,144.571z"/>
			</g>
		</g>
		<g>
			<g>
				<path fill="#EBECEB" d="M141.529,145.448c1.29,0,1.29-2,0-2S140.239,145.448,141.529,145.448L141.529,145.448z"/>
			</g>
		</g>
		<g>
			<g>
				<path fill="#009BA4" d="M140.242,146.425c1.29,0,1.29-2,0-2S138.953,146.425,140.242,146.425L140.242,146.425z"/>
			</g>
		</g>
		<g>
			<g>
				<path fill="#3C8863" d="M138.439,147.198c1.29,0,1.29-2,0-2S137.15,147.198,138.439,147.198L138.439,147.198z"/>
			</g>
		</g>
		<g>
			<g>
				<path d="M136.432,148.228c1.29,0,1.29-2,0-2S135.142,148.228,136.432,148.228L136.432,148.228z"/>
			</g>
		</g>
		<g>
			<g>
				<path fill="#009BA4" d="M134.32,148.949c1.29,0,1.29-2,0-2S133.031,148.949,134.32,148.949L134.32,148.949z"/>
			</g>
		</g>
		<g>
			<g>
				<path fill="#3C8863" d="M132.466,149.36c1.29,0,1.29-2,0-2S131.177,149.36,132.466,149.36L132.466,149.36z"/>
			</g>
		</g>
		<g>
			<g>
				<path d="M130.819,149.618c1.29,0,1.29-2,0-2S129.529,149.618,130.819,149.618L130.819,149.618z"/>
			</g>
		</g>
		<g>
			<g>
				<path fill="#009BA4" d="M129.068,149.927c1.29,0,1.29-2,0-2S127.778,149.927,129.068,149.927L129.068,149.927z"/>
			</g>
		</g>
		<g>
			<g>
				<path fill="#3C8863" d="M127.266,150.185c1.29,0,1.29-2,0-2S125.977,150.185,127.266,150.185L127.266,150.185z"/>
			</g>
		</g>
		<g>
			<g>
				<path d="M125.875,150.236c1.29,0,1.29-2,0-2S124.586,150.236,125.875,150.236L125.875,150.236z"/>
			</g>
		</g>
		<g>
			<g>
				<path fill="#009BA4" d="M124.64,150.236c1.29,0,1.29-2,0-2S123.35,150.236,124.64,150.236L124.64,150.236z"/>
			</g>
		</g>
		<g>
			<g>
				<path fill="#3C8863" d="M112,147.333c1.29,0,1.29-2,0-2S110.71,147.333,112,147.333L112,147.333z"/>
			</g>
		</g>
		<g>
			<g>
				<path d="M109.913,146.734c1.29,0,1.29-2,0-2S108.623,146.734,109.913,146.734L109.913,146.734z"/>
			</g>
		</g>
		<g>
			<g>
				<path fill="#009BA4" d="M108.316,145.962c1.29,0,1.29-2,0-2S107.027,145.962,108.316,145.962L108.316,145.962z"/>
			</g>
		</g>
		<g>
			<g>
				<path fill="#3C8863" d="M107.131,145.241c1.29,0,1.29-2,0-2S105.842,145.241,107.131,145.241L107.131,145.241z"/>
			</g>
		</g>
		<path fill="none" stroke="#EBECEB" stroke-width="2" stroke-linecap="round" stroke-linejoin="round" stroke-miterlimit="10" d="
			M100.5,257.333c0,0-13,0.666-14.167,4.5s0.333,9.666,0.833,11"/>
		<path fill="none" stroke="#EBECEB" stroke-width="2" stroke-linecap="round" stroke-linejoin="round" stroke-miterlimit="10" d="
			M118.833,255.833c0,0,10-7.833,11.5-1.333"/>
		<path fill="none" stroke="#EBECEB" stroke-width="2" stroke-linecap="round" stroke-linejoin="round" stroke-miterlimit="10" d="
			M78.833,185.833c0,0-1.333,11.5-3.333,17.167"/>
		<path fill="none" stroke="#EBECEB" stroke-width="2" stroke-linecap="round" stroke-linejoin="round" stroke-miterlimit="10" d="
			M151.167,134c0,0,2.5,21.333,5.833,20.5"/>
		<path fill="none" stroke="#009BA4" stroke-width="2" stroke-linecap="round" stroke-linejoin="round" stroke-miterlimit="10" d="
			M100.001,259.167c0,0-10.917,0.749-11.667,3.166c-1.25,1.75-2.667,6.5,1.583,18.5"/>
		<path fill="none" stroke="#009BA4" stroke-width="2" stroke-linecap="round" stroke-linejoin="round" stroke-miterlimit="10" d="
			M77.5,203.333c0,0,3.5-12.5,2.833-16.667"/>
		<path fill="none" stroke="#009BA4" stroke-width="2" stroke-linecap="round" stroke-linejoin="round" stroke-miterlimit="10" d="
			M152.167,130.667c0,0,1.75,20.668,5.333,22.5"/>
		<path fill="none" stroke="#009BA4" stroke-width="2" stroke-linecap="round" stroke-linejoin="round" stroke-miterlimit="10" d="
			M119.167,257.583c0,0,8.112-5.774,10.583-3.5c2.083,1.917,1.5,6.5,1.5,6.5"/>
		<path fill="none" stroke="#3C8863" stroke-width="2" stroke-linecap="round" stroke-linejoin="round" stroke-miterlimit="10" d="
			M82.177,188.036c0,0,1.31,1.332-2.844,15.298"/>
		<path fill="none" stroke="#3C8863" stroke-width="2" stroke-linecap="round" stroke-linejoin="round" stroke-miterlimit="10" d="
			M153.63,129.05c0,0,2.692,20.501,4.531,22.726"/>
		<path fill="none" stroke="#3C8863" stroke-width="2" stroke-linecap="round" stroke-linejoin="round" stroke-miterlimit="10" d="
			M90.053,280.577c0,0-4.043-17.201,0.619-18.056s9.887-1.922,9.887-1.922s11.349-38.611,10.442-54.933
			c-1-18-25.774-70.814-28.667-78.333c-1.667-4.333-5-9.667-3-13.333c0.333-1.667-0.333-3-0.333-3"/>
		<path fill="none" stroke="#3C8863" stroke-width="2" stroke-linecap="round" stroke-linejoin="round" stroke-miterlimit="10" d="
			M128.458,270.532c2.791-6.135,3.876-13.865,0.876-15.198s-11.333,5-11.333,5s-1.667-38-4-50"/>
		<path fill="none" stroke="#3C8863" stroke-width="2" stroke-linecap="round" stroke-linejoin="round" stroke-miterlimit="10" d="
			M95,110c0,0-3,15-1.667,24.667c1.333,11.667,11,25.667,10.333,43"/>
		<g>
			<g>
				<path fill="#009BA4" d="M113.667,147.667c1.29,0,1.29-2,0-2S112.377,147.667,113.667,147.667L113.667,147.667z"/>
			</g>
		</g>
		<g>
			<g>
				<path fill="#EBECEB" d="M115.5,148.5c1.29,0,1.29-2,0-2S114.21,148.5,115.5,148.5L115.5,148.5z"/>
			</g>
		</g>
		<g>
			<g>
				<path fill="#3C8863" d="M117.167,149.5c1.29,0,1.29-2,0-2S115.877,149.5,117.167,149.5L117.167,149.5z"/>
			</g>
		</g>
		<g>
			<g>
				<path fill="#009BA4" d="M118.833,150c1.29,0,1.29-2,0-2S117.544,150,118.833,150L118.833,150z"/>
			</g>
		</g>
		<g>
			<g>
				<path fill="#EBECEB" d="M120.833,150.333c1.29,0,1.29-2,0-2S119.544,150.333,120.833,150.333L120.833,150.333z"/>
			</g>
		</g>
		<g>
			<g>
				<path fill="#3C8863" d="M122.5,150.333c1.29,0,1.29-2,0-2S121.21,150.333,122.5,150.333L122.5,150.333z"/>
			</g>
		</g>
	</g>
</g>
</svg>
