<?xml version="1.0" encoding="utf-8"?>
<!-- Generator: Adobe Illustrator 16.0.0, SVG Export Plug-In . SVG Version: 6.00 Build 0)  -->
<!DOCTYPE svg PUBLIC "-//W3C//DTD SVG 1.1//EN" "http://www.w3.org/Graphics/SVG/1.1/DTD/svg11.dtd">
<svg version="1.1" id="Ebene_2" xmlns="http://www.w3.org/2000/svg" xmlns:xlink="http://www.w3.org/1999/xlink" x="0px" y="0px"
	 width="146.75px" height="235.917px" viewBox="0 0 146.75 235.917" enable-background="new 0 0 146.75 235.917"
	 xml:space="preserve">
<g>
	<path fill="#EBECEB" d="M55.483,234.545c-51.824,0-51.975-0.268-52.183-0.638c-0.359-0.633-1.063-126.75-1.59-232.437
		c0-0.133,0.052-0.26,0.145-0.355c0.094-0.094,0.221-0.147,0.354-0.147c0,0,14.401-0.026,34.019-0.026
		c46.98,0,103.743,0.139,107.366,0.799c0.132,0.024,0.249,0.101,0.324,0.212c0.548,0.812,0.129,109.057,0.11,113.665
		c-0.104,26.585-0.504,113.664-1.266,118.012c-0.029,0.17-0.144,0.312-0.304,0.377C141.451,234.418,78.354,234.545,55.483,234.545z
		 M4.206,233.226c2.824,0.198,22.104,0.319,51.277,0.319c0.002,0,0.005,0,0.008,0c37.452,0,81.892-0.197,86.335-0.457
		c1.352-12.649,1.371-220.891,1.202-230.412c-4.906-0.474-42.621-0.734-106.801-0.734c-17.478,0-30.815,0.021-33.515,0.025
		C2.771,13.786,3.827,223.159,4.206,233.226z"/>
</g>
<g>
	<path fill="#EBECEB" d="M2.557,233.39c-0.131,0-0.256-0.052-0.35-0.143c-0.095-0.094-0.149-0.221-0.15-0.354
		C2.038,230.711,0.16,14.474,0.75,3.786c0.008-0.157,0.09-0.301,0.221-0.388C1.805,2.838,92.036,2.63,145.748,2.556
		c0.001,0,0.001,0,0.001,0c0.133,0,0.261,0.053,0.354,0.147c0.095,0.095,0.146,0.223,0.146,0.356l-1.802,228.31
		c-0.002,0.272-0.222,0.493-0.494,0.496L2.562,233.39C2.56,233.39,2.559,233.39,2.557,233.39z M1.73,4.26
		C1.213,18.816,2.952,220.811,3.052,232.385l140.399-1.515l1.794-227.314C97.42,3.624,8.331,3.854,1.73,4.26z"/>
</g>
</svg>
