<?xml version="1.0" encoding="utf-8"?>
<!-- Generator: Adobe Illustrator 16.0.0, SVG Export Plug-In . SVG Version: 6.00 Build 0)  -->
<!DOCTYPE svg PUBLIC "-//W3C//DTD SVG 1.1//EN" "http://www.w3.org/Graphics/SVG/1.1/DTD/svg11.dtd">
<svg version="1.1" id="Ebene_1" xmlns="http://www.w3.org/2000/svg" xmlns:xlink="http://www.w3.org/1999/xlink" x="0px" y="0px"
	 width="602px" height="604.389px" viewBox="39.724 0 602 604.389" enable-background="new 39.724 0 602 604.389"
	 xml:space="preserve">
<g id="Ebene_9">
	<path fill="#020000" d="M130.885,469.983c0,0-22.893,49.874-28.649,71.138c-3.798,14.032-4.443,54.57-3.469,56.908
		c0.974,2.34,60.757,12.638,96.422-2.563c0,0,0.011-7.376,0.011-9.909c0-2.532-2.729-5.262-6.236-6.82
		c2.376,1.314,5.064-1.087,4.773-2.786c-0.471-2.75,0.294-7.934-2.824-8.323c-3.118-0.39,0-1.754,0.975-2.338
		c0.974-0.585-1.364-6.237-2.339-7.406c-0.974-1.169-0.584-4.093-1.169-6.82c-0.584-2.729-1.364-7.602-4.872-14.265
		c-2.347-4.455-0.195-24.521,6.626-36.994c-1.364,0-7.016,1.561-33.911-10.523C143.942,484.016,130.885,469.983,130.885,469.983z"/>
	<path fill="#F7941E" d="M197.83,484.308c0,0-0.194,7.698-3.605,7.503c-1.169,1.364,0.487,5.264-2.631,5.264
		c-3.118,0,5.75,5.358-12.765,1.753c-28.81-7.914-43.783-23.84-50.478-31.183c0,0-2.534-5.263,1.949-5.847
		c4.482-0.585,0.584-3.119,0.584-3.119s-2.144-4.093,5.067-6.042c-1.364-1.363-4.775-5.979-0.682-7.148
		c4.093-1.169,6.236-2.205,5.554-3.473c0,0-1.049-4.816,2.433-4.736c7.575,5.929,50.429,35.752,60.697,42.846
		c0,0-2.364,0.364-3.493,2.722c0,0,0.097,1.462-1.267,1.462"/>
	<path fill="#020000" d="M252.621,497.363c0,0-0.825,1.8-1.346,2.062c0,0-10.275,1.061-29.57-7.612c0,0-30.793-12.862-87.409-57.492
		c-20.873-16.454-28.486-26.537-32.645-39.272c0.954-1.604,1.026-1.763,1.418-2.333"/>
	<path fill="#020000" d="M115.488,413.659c0,0,39.25,43.724,113.298,79.389c21.309,10.135,30.922,6.313,19.229-4.99
		c-11.694-11.305-51.658-46.527-113.633-81.608c-21.049-11.693-34.161-19.37-31.172-10.622
		C105.884,403.656,114.047,412.34,115.488,413.659z"/>
	<path d="M156.806,430.801c0,0-6.988-2.729-1.726,1.949c5.262,4.677,45.935,34.105,51.423,34.105c3.118,0-4.135-5.521-17.672-15.606
		C182.387,446.447,171.541,438.754,156.806,430.801z"/>
</g>
<g id="Ebene_4">
	<g id="Ebene_11">
		<path fill="#FFFFFF" d="M412.114,514.75c0,0-1.055,13.898-5.722,15.896c6.979-0.257,15.895-0.875,15.895-0.875l-15.895,12.83
			c0,0,13.851,7.788-9.419,11.954c17.397-0.334,19.926,0.148,19.926,0.148l-2.611,2.389l0,0c0,0,7.25,9.781,7.32,14.854
			c-2.57,1.443-7.497,7.08-23.2,6.762c6.272,0.32,12.13,2.183,12.13,2.183l-12.13,6.995l-3.12,10.005l3.12,1.588
			c0,0,127.962-2.923,131.63-1.923c-9.668-2-13.25-7.832-13.25-7.832l3.717-0.703c0,0,0.748-12.636,5.541-14.431
			s12.209-4.2,12.209-4.2l-15.719-1l-20.167-1.834l24.655-2.492c0,0-5.238-3.089-1.812-6.521c-20.842-0.486-4.508-7.562,0.992-9.817
			c1.229-0.552,3.145-1.306,6.254-2.137c-2.42-0.363-10.004-5.819-10.004-5.819l-9.919-0.419l-2.831-8.62
			c0,0,4.58-8.983,13.581-8.483c9,0.5,12.252-1.354,12.252-1.354s-5.08-2.479-10.664-3.174
			c-5.584-0.693-14.738-18.995-14.738-18.995l9.283,0.859l-12.666-14.313c0,0,5.779-0.246,5.782-2.229
			c0.169-0.814-2.831-1.98-2.831-1.98s-77.834,3.464-84.75,1.98c0,0-15.458,7.426-24.458,7.259c8.667,1.5,26.521,0.745,26.521,0.745
			s-17.765,4.619-18.46,5.659c14.972-1.46,19.567-1.698,19.567-1.698s-34.127,13.715-34.774,15.721"/>
	</g>
	<g id="Test_Cases_rechts">
		
			<path fill="none" stroke="#000000" stroke-width="2.1736" stroke-linecap="round" stroke-linejoin="round" stroke-miterlimit="10" d="
			M398.786,599.479c0,0,120.631-1.45,130.774-1.45c10.145,0-46.006-8.694-46.006-8.694"/>
		
			<path fill="none" stroke="#000000" stroke-width="2.1736" stroke-linecap="round" stroke-linejoin="round" stroke-miterlimit="10" d="
			M520.505,589.333c-1.812,0-52.89-1.812-98.897,3.261"/>
		
			<line fill="none" stroke="#000000" stroke-width="2.1736" stroke-linecap="round" stroke-linejoin="round" stroke-miterlimit="10" x1="398.786" y1="587.885" x2="446.241" y2="586.798"/>
		
			<path fill="none" stroke="#000000" stroke-width="2.1736" stroke-linecap="round" stroke-linejoin="round" stroke-miterlimit="10" d="
			M427.042,583.176c0,0-22.461-5.435-30.068-4.348c46.37-2.536,95.638-4.347,114.476-2.898c-7.971-4.347-89.84-4.709-89.84-4.709
			s104.332-6.521,105.417-6.158"/>
		
			<polyline fill="none" stroke="#000000" stroke-width="2.1736" stroke-linecap="round" stroke-linejoin="round" stroke-miterlimit="10" points="
			492.61,566.875 538.255,571.221 517.245,577.017 		"/>
		
			<line fill="none" stroke="#000000" stroke-width="2.1736" stroke-linecap="round" stroke-linejoin="round" stroke-miterlimit="10" x1="525.214" y1="558.542" x2="414.725" y2="557.093"/>
		
			<path fill="none" stroke="#000000" stroke-width="2.1736" stroke-linecap="round" stroke-linejoin="round" stroke-miterlimit="10" d="
			M396.25,554.556c0,0,97.086-5.069,107.954-2.534"/>
		
			<path fill="none" stroke="#000000" stroke-width="2.1736" stroke-linecap="round" stroke-linejoin="round" stroke-miterlimit="10" d="
			M532.458,546.587c0,0-49.628-2.897-67.379-5.072"/>
		
			<path fill="none" stroke="#000000" stroke-width="2.1736" stroke-linecap="round" stroke-linejoin="round" stroke-miterlimit="10" d="
			M512.535,540.428c0,0-73.901-0.725-95.637,2.174"/>
		
			<path fill="none" stroke="#000000" stroke-width="2.1736" stroke-linecap="round" stroke-linejoin="round" stroke-miterlimit="10" d="
			M508.912,531.734c14.128,0-95.999-3.623-102.52-1.087c0,0,82.596-9.057,104.331-9.057"/>
		
			<path fill="none" stroke="#000000" stroke-width="2.1736" stroke-linecap="round" stroke-linejoin="round" stroke-miterlimit="10" d="
			M508.912,524.49c1.087,0,26.808-2.536,26.808-2.536s-39.125-15.578-89.479-14.129"/>
		
			<path fill="none" stroke="#000000" stroke-width="2.1736" stroke-linecap="round" stroke-linejoin="round" stroke-miterlimit="10" d="
			M500.218,513.259l-76.074,5.071c0,0-21.018-6.792-30.792-7.607c38.037-6.157,73.901-6.157,98.897-5.07"/>
		
			<path fill="none" stroke="#000000" stroke-width="2.1736" stroke-linecap="round" stroke-linejoin="round" stroke-miterlimit="10" d="
			M519.417,500.581c0,0-78.971-7.971-110.851-2.898"/>
		
			<path fill="none" stroke="#000000" stroke-width="2.1736" stroke-linecap="round" stroke-linejoin="round" stroke-miterlimit="10" d="
			M512.535,484.764c0,0-37.997,9.792-114.127,6.603c18.491-2.981,23.2-4.478,26.838-6.603"/>
		
			<path fill="#FCFCFC" stroke="#000000" stroke-width="2.1736" stroke-linecap="round" stroke-linejoin="round" stroke-miterlimit="10" d="
			M428.128,461.722c44.833,2,89.493-23.833,89.493-23.833s19.083,9.167,27.412,2.246c-6.916,17.5-35.534,26.764-52.599,31.142
			C478.621,475.234,428.128,461.722,428.128,461.722"/>
		
			<path fill="#FCFCFC" stroke="#000000" stroke-width="2.1736" stroke-linecap="round" stroke-linejoin="round" stroke-miterlimit="10" d="
			M501.621,450.639c0,0,13.614,6.958,16.95,7"/>
		
			<path fill="#FCFCFC" stroke="#000000" stroke-width="2.1736" stroke-linecap="round" stroke-linejoin="round" stroke-miterlimit="10" d="
			M508.371,447.639c0,0,14,7.08,15.5,7.165"/>
		
			<path fill="#FCFCFC" stroke="#000000" stroke-width="2.1736" stroke-linecap="round" stroke-linejoin="round" stroke-miterlimit="10" d="
			M514.709,444.389c0,0,10.912,5.914,14.162,6.832"/>
	</g>
	<g id="Test_Cases_links">
		
			<path fill="#FFFFFF" stroke="#000000" stroke-width="2.1736" stroke-linecap="round" stroke-linejoin="round" stroke-miterlimit="10" d="
			M156.513,362.983c3.713,7.854,32.907,57.512,26.487,75.796c-1.328,4.82-5.04,4.489-14.781-9.098
			c9.909-18.243-8.725-36.103-26.925-52.872c29.445-19.029,7.696-14.129,7.696-14.129s1.862,1.737,3.165,6.418"/>
		
			<path fill="#FFFFFF" stroke="#000000" stroke-width="2.1736" stroke-linecap="round" stroke-linejoin="round" stroke-miterlimit="10" d="
			M207.371,425.891c0,0,7.823-14.835,17.578-12.169c10.422-22,35.088-61.332,54.422-67.332c0,0,8.667-18-26.667-26.668
			C217.37,311.056,196.747,414.043,207.371,425.891z"/>
		
			<path fill="#FFFFFF" stroke="#000000" stroke-width="2.1736" stroke-linecap="round" stroke-linejoin="round" stroke-miterlimit="10" d="
			M305.371,335.722c0,0,8.667-29.332,0-40c24-8.667,85.333-11.333,106,8.667c6,22,4,39.172,0,45.586
			C402.038,346.39,352.038,325.722,305.371,335.722z"/>
		
			<path fill="#FCFCFC" stroke="#000000" stroke-width="2.1736" stroke-linecap="round" stroke-linejoin="round" stroke-miterlimit="10" d="
			M493.415,360.837c36.624,0,65.364,47.885,55.018,65.218c-1.395-21.163-16.664-1.999-16.664-1.999s-4.721-49.039-68.145-45.705
			c1.081-3.961,2.914-5.803,4.735-7.998"/>
		
			<path fill="none" stroke="#000000" stroke-width="2.1736" stroke-linecap="round" stroke-linejoin="round" stroke-miterlimit="10" d="
			M541.632,416.292c0,0,4.572,3.859,6.801,9.764"/>
		
			<path fill="#FFFFFF" stroke="#000000" stroke-width="2.1736" stroke-linecap="round" stroke-linejoin="round" stroke-miterlimit="10" d="
			M402.974,354.39c0,0,5.378,15.209-8.622,26.543c56.875,6.789,126.027-31.377,124.185-42.043
			c-10.509-11.334-24.441-23.201-38.441-24.685C471.428,325.39,434.388,354.642,402.974,354.39z"/>
	</g>
	<g id="Sparcles">
		<g>
			<g>
				<path fill="#F7941E" d="M250.871,414.39c3.869,0,3.869-6,0-6S247.002,414.39,250.871,414.39L250.871,414.39z"/>
			</g>
		</g>
		<g>
			<g>
				<path fill="#F7941E" d="M216.871,378.89c3.869,0,3.869-6,0-6S213.002,378.89,216.871,378.89L216.871,378.89z"/>
			</g>
		</g>
		<g>
			<g>
				<path fill="#F7941E" d="M282.371,400.89c3.869,0,3.869-6,0-6S278.502,400.89,282.371,400.89L282.371,400.89z"/>
			</g>
		</g>
		<g>
			<g>
				<path fill="#F7941E" d="M376.871,589.889c3.869,0,3.869-6,0-6S373.002,589.889,376.871,589.889L376.871,589.889z"/>
			</g>
		</g>
		<g>
			<g>
				<path fill="#F7941E" d="M361.871,400.89c3.869,0,3.869-6,0-6S358.002,400.89,361.871,400.89L361.871,400.89z"/>
			</g>
		</g>
		<g>
			<g>
				<path fill="#F7941E" d="M293.371,376.39c3.869,0,3.869-6,0-6S289.502,376.39,293.371,376.39L293.371,376.39z"/>
			</g>
		</g>
		<g>
			<g>
				<path fill="#F7941E" d="M297.371,358.39c3.869,0,3.869-6,0-6S293.502,358.39,297.371,358.39L297.371,358.39z"/>
			</g>
		</g>
		<g>
			<g>
				<path fill="#F7941E" d="M311.371,337.39c3.869,0,3.869-6,0-6S307.502,337.39,311.371,337.39L311.371,337.39z"/>
			</g>
		</g>
		<g>
			<g>
				<path fill="#F7941E" d="M324.371,310.39c3.869,0,3.869-6,0-6S320.502,310.39,324.371,310.39L324.371,310.39z"/>
			</g>
		</g>
		<g>
			<g>
				<path fill="#F7941E" d="M195.371,425.056c3.869,0,3.869-6,0-6S191.502,425.056,195.371,425.056L195.371,425.056z"/>
			</g>
		</g>
		<g>
			<g>
				<path fill="#F7941E" d="M198.038,389.056c3.869,0,3.869-6,0-6S194.169,389.056,198.038,389.056L198.038,389.056z"/>
			</g>
		</g>
		<g>
			<g>
				<path fill="#F7941E" d="M193.705,349.39c3.869,0,3.869-6,0-6S189.835,349.39,193.705,349.39L193.705,349.39z"/>
			</g>
		</g>
		<g>
			<g>
				<path fill="#F7941E" d="M228.038,317.39c3.869,0,3.869-6,0-6S224.169,317.39,228.038,317.39L228.038,317.39z"/>
			</g>
		</g>
		<g>
			<g>
				<path fill="#F7941E" d="M190.705,368.724c3.869,0,3.869-6,0-6S186.835,368.724,190.705,368.724L190.705,368.724z"/>
			</g>
		</g>
		<g>
			<g>
				<path fill="#F7941E" d="M353.705,344.39c3.869,0,3.869-6,0-6S349.835,344.39,353.705,344.39L353.705,344.39z"/>
			</g>
		</g>
		<g>
			<g>
				<path fill="#F7941E" d="M410.038,320.724c3.869,0,3.869-6,0-6S406.168,320.724,410.038,320.724L410.038,320.724z"/>
			</g>
		</g>
		<g>
			<g>
				<path fill="#F7941E" d="M437.371,309.39c3.869,0,3.869-6,0-6S433.502,309.39,437.371,309.39L437.371,309.39z"/>
			</g>
		</g>
		<g>
			<g>
				<path fill="#F7941E" d="M154.705,313.724c3.869,0,3.869-6,0-6S150.835,313.724,154.705,313.724L154.705,313.724z"/>
			</g>
		</g>
		<g>
			<g>
				<path fill="#F7941E" d="M253.038,253.723c3.869,0,3.869-6,0-6S249.169,253.723,253.038,253.723L253.038,253.723z"/>
			</g>
		</g>
		<g>
			<g>
				<path fill="#F7941E" d="M486.705,383.724c3.869,0,3.869-6,0-6S482.835,383.724,486.705,383.724L486.705,383.724z"/>
			</g>
		</g>
		<g>
			<g>
				<path fill="#F7941E" d="M551.705,445.722c3.869,0,3.869-6,0-6S547.835,445.722,551.705,445.722L551.705,445.722z"/>
			</g>
		</g>
		<g>
			<g>
				<path fill="#F7941E" d="M467.038,475.389c3.869,0,3.869-6,0-6S463.168,475.389,467.038,475.389L467.038,475.389z"/>
			</g>
		</g>
		<g>
			<g>
				<path fill="#F7941E" d="M520.705,485.056c3.869,0,3.869-6,0-6C516.836,479.056,516.835,485.056,520.705,485.056L520.705,485.056
					z"/>
			</g>
		</g>
		<g>
			<g>
				<path fill="#F7941E" d="M539.705,511.722c3.869,0,3.869-6,0-6S535.835,511.722,539.705,511.722L539.705,511.722z"/>
			</g>
		</g>
		<g>
			<g>
				<path fill="#F7941E" d="M503.371,531.056c3.869,0,3.869-6,0-6S499.502,531.056,503.371,531.056L503.371,531.056z"/>
			</g>
		</g>
		<g>
			<g>
				<path fill="#F7941E" d="M509.705,526.389c3.869,0,3.869-6,0-6S505.835,526.389,509.705,526.389L509.705,526.389z"/>
			</g>
		</g>
		<g>
			<g>
				<path fill="#F7941E" d="M514.038,539.722c3.869,0,3.869-6,0-6S510.168,539.722,514.038,539.722L514.038,539.722z"/>
			</g>
		</g>
		<g>
			<g>
				<path fill="#F7941E" d="M189.371,225.389c3.869,0,3.869-6,0-6S185.502,225.389,189.371,225.389L189.371,225.389z"/>
			</g>
		</g>
		<g>
			<g>
				<path fill="#F7941E" d="M326.871,247.389c3.869,0,3.869-6,0-6S323.002,247.389,326.871,247.389L326.871,247.389z"/>
			</g>
		</g>
		<g>
			<g>
				<path fill="#F7941E" d="M441.871,267.889c3.869,0,3.869-6,0-6S438.002,267.889,441.871,267.889L441.871,267.889z"/>
			</g>
		</g>
		<g>
			<g>
				<path fill="#F7941E" d="M417.371,404.39c3.869,0,3.869-6,0-6S413.502,404.39,417.371,404.39L417.371,404.39z"/>
			</g>
		</g>
		<g>
			<g>
				<path fill="#F7941E" d="M626.371,409.89c3.869,0,3.869-6,0-6S622.501,409.89,626.371,409.89L626.371,409.89z"/>
			</g>
		</g>
	</g>
	<g id="Ebene_8">
		<path fill="none" stroke="#000000" stroke-width="2" stroke-linecap="round" stroke-linejoin="round" stroke-miterlimit="10" d="
			M232.958,348.394c0,0,3.531-8.461,10.059-3.75c6.528,4.711-14.174,18.383-18.48,25.49c3.593-1.648,6.834-0.287,9.453-0.332"/>
		<path fill="none" stroke="#000000" stroke-width="2" stroke-linecap="round" stroke-linejoin="round" stroke-miterlimit="10" d="
			M252.762,346.965l-11.488,15.65c0,0,6.106-0.267,10.069,2.8"/>
		<path fill="none" stroke="#000000" stroke-width="2" stroke-linecap="round" stroke-linejoin="round" stroke-miterlimit="10" d="
			M254.355,356.599c0,0-8.624,6.176-14.39,16.269"/>
		<path fill="none" stroke="#000000" stroke-width="2" stroke-linecap="round" stroke-linejoin="round" stroke-miterlimit="10" d="
			M216.871,382.944c0,0,16.25-4.055,20.25,0.445"/>
		<path fill="none" stroke="#000000" stroke-width="2" stroke-linecap="round" stroke-linejoin="round" stroke-miterlimit="10" d="
			M215.121,390.933c0,0,11.875-4.877,16.75,0"/>
		<path fill="none" stroke="#000000" stroke-width="2" stroke-linecap="round" stroke-linejoin="round" stroke-miterlimit="10" d="
			M212.871,400.89c0,0,11.666-8.5,14.125-3.334"/>
		<path fill="none" stroke="#000000" stroke-width="2" stroke-linecap="round" stroke-linejoin="round" stroke-miterlimit="10" d="
			M212.871,408.64c0,0,9.5-9.5,11.666-3.646"/>
		<path fill="none" stroke="#000000" stroke-width="2" stroke-linecap="round" stroke-linejoin="round" stroke-miterlimit="10" d="
			M392.371,301.889c0,0,8,7.75,0.5,10c-6.082,1.824-18.5-12.19-18.5-12.19l-0.436,11.024"/>
		<path fill="none" stroke="#000000" stroke-width="2" stroke-linecap="round" stroke-linejoin="round" stroke-miterlimit="10" d="
			M394.352,323.081c0,0,3.5,4.059,0,5.559s-7.979,0-7.229-5.25c-1,3.25-2.75,7.75-8,5s-9.25-11.082-3-12.666"/>
		<path fill="none" stroke="#000000" stroke-width="2" stroke-linecap="round" stroke-linejoin="round" stroke-miterlimit="10" d="
			M361.871,297.139c0,0,3.037,9-1.606,25"/>
		<path fill="none" stroke="#000000" stroke-width="2" stroke-linecap="round" stroke-linejoin="round" stroke-miterlimit="10" d="
			M354.739,297.139c0,0,2.132,7.375,0.632,13.25"/>
		<path fill="none" stroke="#000000" stroke-width="2" stroke-linecap="round" stroke-linejoin="round" stroke-miterlimit="10" d="
			M345.121,298.639c0,0,5,12.083,0,23.5"/>
		<path fill="none" stroke="#000000" stroke-width="2" stroke-linecap="round" stroke-linejoin="round" stroke-miterlimit="10" d="
			M336.121,298.639c0,0,3,11.94,0,23.5"/>
		<path fill="none" stroke="#000000" stroke-width="2" stroke-linecap="round" stroke-linejoin="round" stroke-miterlimit="10" d="
			M474.871,332.64c0,0,9.286-8.5,9.251-0.56c-0.024,5.604-24.501,11.137-24.501,11.137s4.261,2.339,4.261,4.755"/>
		<path fill="none" stroke="#000000" stroke-width="2" stroke-linecap="round" stroke-linejoin="round" stroke-miterlimit="10" d="
			M483.121,343.217c0,0,12.75-8.827,9.75,1.923c-1.834,6.571-26.417,8.457-26.417,8.457s2.708,4.844,2.417,7.24"/>
		<path fill="none" stroke="#000000" stroke-width="2" stroke-linecap="round" stroke-linejoin="round" stroke-miterlimit="10" d="
			M449.621,346.965c0,0,7.25,4.591,8.25,18.759"/>
		<path fill="none" stroke="#000000" stroke-width="2" stroke-linecap="round" stroke-linejoin="round" stroke-miterlimit="10" d="
			M442.121,349.976c0,0,6.185,10.646,5.75,18.664"/>
		<path fill="none" stroke="#000000" stroke-width="2" stroke-linecap="round" stroke-linejoin="round" stroke-miterlimit="10" d="
			M433.371,353.64c0,0,4.34,13.78,2.59,17.53"/>
		<path fill="none" stroke="#000000" stroke-width="2" stroke-linecap="round" stroke-linejoin="round" stroke-miterlimit="10" d="
			M424.621,356.675c0,0,1.75,5.99,1.25,10.215"/>
		<path fill="none" stroke="#000000" stroke-width="2" stroke-linecap="round" stroke-linejoin="round" stroke-miterlimit="10" d="
			M489.371,371.17c0,0,4.784-9.024,10.017-9.901"/>
		<path fill="none" stroke="#000000" stroke-width="2" stroke-linecap="round" stroke-linejoin="round" stroke-miterlimit="10" d="
			M499.388,372.867c0,0,2.43-9.152,7.706-9.815"/>
		<path fill="none" stroke="#000000" stroke-width="2" stroke-linecap="round" stroke-linejoin="round" stroke-miterlimit="10" d="
			M509.621,371.17c0,0,2.176-4.872,5.088-4.95"/>
		<path fill="none" stroke="#000000" stroke-width="2" stroke-linecap="round" stroke-linejoin="round" stroke-miterlimit="10" d="
			M512.535,380.724c0,0,5.399-9.346,8.744-10.59"/>
		<path fill="none" stroke="#000000" stroke-width="2" stroke-linecap="round" stroke-linejoin="round" stroke-miterlimit="10" d="
			M541.632,395.959l-1.988,7.127c0,0-4.273-12.28-12.023-19.698"/>
		<path fill="none" stroke="#000000" stroke-width="2" stroke-linecap="round" stroke-linejoin="round" stroke-miterlimit="10" d="
			M490.871,468.639c0,0-8.999,2.25-5.25-2.25s19.662-4.336,19.662-4.336l-5.896-3.164"/>
		<path fill="none" stroke="#000000" stroke-width="2" stroke-linecap="round" stroke-linejoin="round" stroke-miterlimit="10" d="
			M471.871,463.045c0,0-4.5,2.354,2,2.344c4.257-0.007,25.255-9.108,19.457-10.442C491.452,454.514,486.58,454.545,471.871,463.045z
			"/>
	</g>
</g>
</svg>
