<?xml version="1.0" encoding="utf-8"?>
<!-- Generator: Adobe Illustrator 16.0.0, SVG Export Plug-In . SVG Version: 6.00 Build 0)  -->
<!DOCTYPE svg PUBLIC "-//W3C//DTD SVG 1.1//EN" "http://www.w3.org/Graphics/SVG/1.1/DTD/svg11.dtd">
<svg version="1.1" id="Ebene_1" xmlns="http://www.w3.org/2000/svg" xmlns:xlink="http://www.w3.org/1999/xlink" x="0px" y="0px"
	 width="973.333px" height="406.289px" viewBox="0 0 973.333 406.289" enable-background="new 0 0 973.333 406.289"
	 xml:space="preserve">
<g id="Ebene_11">
	<g id="_x31__Kopie">
		<path fill="#FFFFFF" stroke="#000000" stroke-linecap="round" stroke-linejoin="round" stroke-miterlimit="10" d="
			M770.167,189.502c0,0,2.25,6.75-6.084,13.083c-5.215,2.803-11.916-1.917-11.582-12.583l0.439-9.352l-4.805-8.797
			c0,0-37.637-29.205-38.633-36.438c-0.771-5.606,38.826,20.422,44.041,33.235c-3.283-13.214-10.816-44.046-8.305-52.656
			c2.074-7.114,10.428,6.008,11.762,44.341c-0.168,1,1.832,4.667,1.832,4.667s10.482,5.465,11.834,6.667
			c1.354,1.201-1.168,2.167-1.168,2.167l3.334,0.667l-0.168,2.167l2.668,1.333l-0.168,1.667l1.5,1.667l0.668,1.333
			c0,0,26.984,7.938,32.666,13.5c0.193-1.602,1.543-4.302,3.668-2.5c2.125,1.802,2.832-1.235,2.832,0.167
			c0,1.402,1.834-0.302,1.834,1.5c0,1.802,1.773,1.166,1,2.167s-1.115,0.899-1.5,1.5c-0.387,0.601-24.5,10-24.5,10l-5.334-2.5
			c0,0-1,7.334-3.832,6.168c-1.701-0.7-2-4.834-2-5.668s-1-0.666-2.25-0.711c0,0,0.416,6.711-2.084,7.295
			c-1.127,0.263-3.326-1.289-3.326-6.496c0-5.205-3.191-8.607-4.545-11.01"/>
		
			<path fill="none" stroke="#000000" stroke-width="1.1799" stroke-linecap="round" stroke-linejoin="round" stroke-miterlimit="10" d="
			M761.657,186.669c0,0-0.773,1.201,0,1.802C762.428,189.071,763.202,186.869,761.657,186.669z"/>
		<path fill="none" stroke="#000000" stroke-linecap="round" stroke-linejoin="round" stroke-miterlimit="10" d="M763.756,200.427
			c-1.123,3.491-0.975,2.488-0.975,2.488"/>
	</g>
	<g id="schwarz">
		<path d="M927.333,395.001c-3-2-0.332-2.334-0.332-2.334L893.04,273.197c4.354,9.668,7.965,17.188,8.627,17.471
			c1.748,0.75-14.068-57.332-13.818-61.332c0,0-6.508-31.5-15.758-40.25c-0.75-1.75-1.254-3.75-1.254-3.75s29.496-8.5,30.496-12.5
			c-4.75-5.5-33.75-39-36.5-39c-0.75,0.25-10.5-2-10.5-2s-0.75-1.5,4-9.25c-2.75-1-9.5-2.25-10.25-0.5
			c-0.25,7.75-0.082,40,0.918,50.25c-3.75-8.5-12.975-37.291-13.918-41.25c-1.25-5.25-4.75-6.25-4.75-6.25s2,4.5,1,7.5
			c-8.5,4-39.832,12-45.332,14s-21.418,13.75-21.418,13.75l-7.5-0.25l0.75,2.75c0,0,0.668,0.75,0.668,1.75s0.332,2.167,0.332,2.167
			s-1.332-0.083-2.832,0.667s-8.668,3.667-8.668,3.667s0.5,5.5,2,7c0.25,1.5,1.75,3.5,3,3.75s10.25-7,10.75-8.75
			c1,0.25,1.5-1.75,1.5-1.75s3.25-5.25,3.25-7.5c7-3,21.5-11.25,21.5-11.25s31.609-6.902,40.334-7
			c1.314,6.141,11.414,25.708,19.471,40.71c-3.328,1.122-7.295,2.329-8.305,2.041c-8-2.417-10.666-1.25-10.666-1.25
			s-5.75,8.25-4.5,9c2.75-0.5,3.832-3,6.332-4.5s4.334,2.25,4.334,2.25s-2,6.417-3,7.417s-1.168,2.167-3.168,1.5
			c-5.666-4.167-8.832-1.667-8.832-1.667s3.166,2,5.166,4.167c-4.5-3.5-8.166-2.667-9.666-1.166c3,0,12.666,7.332,13.666,6.832
			s2-3.166,2-3.166s2.418,0.166,4.168-0.834s6.416-10.833,7.166-12.833c0.484-1.292,4.861-2.375,7.902-2.98
			c3.938,7.261,6.971,12.691,7.512,13.657c-3.457,14.554-17.818,74.862-21.914,89.489c-1.332,19-3.332,96.666-3.332,96.666
			s1-0.332,3.666,0.334c2.668,0.666,0,3.666,0,3.666s-17,3.334-20.666,4.334c-3.668,1-4.668,3.334-4.668,3.334L853,402.001
			c0,0-6.668-88.668-7-106c4.764-8.881,14.285-33.903,20.572-49.455l2.094,12.121l9,31.334c-0.623-9.197-1.398-29.051-1.879-43.336
			c9.906,40.213,37.219,146.379,38.379,146.67l1.168,0.666c0,0-2.842,4.367-3.334,6.334c-0.666,2.666,5.334,2,5.334,2s16,0,20,0
			C937.333,399.335,930.333,397.001,927.333,395.001z M868.333,176.335c-4.25-12-6-27.5-6-27.5l22,22.5L868.333,176.335z"/>
		<path d="M802.667,98.002c0,0,21.51-0.222,30.855-0.906c9.344-0.684,26.605-0.175,29.477-1.428c-5.332-2-14.797-2.688-14.797-2.688
			s-8.215-14.222,2.863-64.11c0,0-27.932-5.802-35.432-0.438c-0.322,0.231,8.977,65.371,8.977,65.371L802.667,98.002z"/>
		<path d="M829.083,195.835c0,0-22.75,3.5-53.75,21.75c-0.5,1.5,0,3,3,1.25c5-3.5,49.75-21.25,49.75-21.25L829.083,195.835z"/>
		<path d="M798.833,222.585c0,0,17.834,51.748,21.834,54.748l20.666-10c0,0,0.834-1.832,1.334-3.332s-22.334-47.416-24.084-47.916
			C810.833,216.085,798.833,222.585,798.833,222.585z"/>
		<path d="M813.364,23.594"/>
	</g>
	<g id="Ebene_8">
		<path fill="#F7941F" d="M823.368,93.007c0,0,11.805,2.945,24.928-0.529c-0.41-0.65-0.285-1.851-0.562-2.244
			c-0.277-0.394,0.65-1.631,0.65-1.631s-0.295-1.732-1.059-2.055c-0.764-0.324-1.316-1.111-0.309-1.612
			c1.012-0.501-0.926-1.798-0.926-1.798s1.916-1.135,1.127-1.218c-0.787-0.083,0,0,0,0l-0.496-1.662c0,0,0.191-0.498-0.584-0.701
			c-0.775-0.203,3.43-1.772-0.469-1.983c-3.896-0.211-18.963-1.097-20.434-0.766c-4.734,0.374-3.973,1.993-4.008,2.354
			c-0.039,0.36,1.615,3.709,1.615,3.709s-1.793,0.751-0.35,1.264c0.891,0.316-0.086,1.362-0.086,1.362s-0.299,1.305,0.584,2.005
			c0.883,0.701,1.225,0.494,0.781,1.662s-0.891,0.877-0.059,2.058C824.545,92.402,823.368,93.007,823.368,93.007z"/>
		<path fill="#F7941F" d="M794.01,211.617c0,0-1.645,1.319-0.43,2.277c1.215,0.959,0.617,2.068,0.617,2.068l0.805,2.949
			c0,0,0.703,0.92,0.617,2.066c-0.088,1.148,1.041,3.256,1.041,3.256s0.469,0.613,1.236,0.672s22.094-6.125,23.141-6.335
			c1.045-0.209-2.578-3.372-2.578-3.372s1.264-3.08-0.807-2.947c-2.07,0.131-0.852-2.375-0.852-2.375s0.131-1.724-0.615-2.068
			c-0.746-0.346,0.963-2.525-0.596-2.355c-1.557,0.17-1.01-2.618-1.01-2.618L794.01,211.617z"/>
	</g>
	<g id="Ebene_10">
		<path fill="#FFFFFF" d="M775.25,377.251c-1.334-3.75-3.848-7.555-10.174-9.526c0.506-4.474,2.701-39.894-3.062-43.433
			c-1.432,0.877-3.523,6.483-3.811,9.056c-1.371-3.345-4.031-8.412-4.701-7.462c-1.752,0.615-1.586,37.515,3.914,43.232
			c-2.166,0.801-3.75,2.217-3.75,2.217l0.168,0.75l-2.75,0.916L750,374.585l-3.844-1.178c0,0-0.125-2.508-0.809-4.289
			c-0.684-1.783-5.85-8.701-10.85-10.617c0.668-5.832,3.834-35.666-1.332-39.166c-1.418,0.084-2.656,3.399-3.953,8.242
			c0,0-3.602-1.129-8.867-1.478c-1.098-2.683-3.264-6.931-4.43-6.099c-1.168,0.834-0.824,5.347-0.828,6.424
			c-2.422,0.326-7.84,1.992-8.84,2.992c-2.5-5.832-11.416-31.916-14-32.25c-1.75,0.418-4.25,1.5,3.084,18.168
			c-4.334-5.918-6.834-9.334-6.834-9.334s2.082-17.033-3.166-20.393c-1.75-0.941-5.166-0.941-4.734,26.73
			c-1.766-10.84-4.266-26.006-5.682-26.506c-1.418-0.5-4.834,1.084-0.506,26.934c-0.828-0.184-1.219,0.023-1.398,0.629
			c-0.178,0.605-3.992,40.423-3.877,44.889c-0.385,0.133-1.553,0.573-1.553,0.573s1.25-41.856-0.25-45.106
			c-0.916-1.416-2.666,1.416-3.832,3.25c-2.168,3.166-9.418,20.084,0,43.631l-2.75,1.91l-0.27,1.57c0,0-0.641-1.568-3.895-2.674
			s-8.92-2.081-8.92-2.081l0.168-1.522L646,355.751l-0.166-2.166l-2.918-1.168l-0.416-1.416l-3.529-1.416
			c0,0,6.279-21.25-0.711-38.897c0,0-2.48-0.479-3.928,9.647c-0.75-2.75-3.416-9.75-4.582-8.918
			c-1.166,0.834-5.918,8.25,1.332,39.918c-2.25,2.332-6.527,8.041-6.68,11.521c-4.32-5.104-12.486-13.771-18.57-15.604
			c0.084-0.75,0-1.834,0-1.834l-1,0.334l-0.416-3.334l-1.834-0.916l0.918-1.5c0,0-1.5-1.834-2.75-2.584
			c2.416-4.75,11.582-25.916,7.332-51.166c-0.582-1-2-0.666-2.832,0.834c-0.834,1.5-2.918,6.5-8.25,47.166
			c-0.75-10.584-1.482-46.275-7.699-48.389c-0.969-0.361-3.301-1.945-3.385,12.889c0.75,12.584,7.75,35.5,7.75,35.5
			c-3.582-0.166-11.479,1.682-14.574,6.258c0.074-6.758-0.342-21.092-3.26-22.842c-2.25,0.168-2.666,5.918-5.916,49.584
			l-0.918-0.334c0,0-3.25-45.916-6.25-46.916s-6,12.666,0.418,47.834c-5.334,2.332-13.75,21.416-3.168,28.582
			c1.5,0.75,6.545-0.08,7.564-1.498c1.02,0.748,1.52,1.332,1.52,1.332l-1.168,1.584l2.547,0.595l-2.547,1.071
			c0,0-5.75-0.666-7.5,0.25s-2.848,3.082-2.848,3.082l26.766,0.103l1.75-1.478c0,0,0.721,1.332,1.422,1.729
			s47.203-0.354,47.203-0.354l1.758-1.375c0,0,1.287,0.523,2.891,0.949c1.602,0.426,26.771,0.527,26.771,0.527l-0.295-1.227
			l3.881-0.953c0,0,2.932,2.391,4.025,2.547s4.596-0.469,4.596-0.469l-1.92-4.254l1.695-0.572c0,0,2.711,4.576,3.885,4.66
			c1.172,0.082,78.27,0.166,78.27,0.166s2.133-0.521-0.816-3.635c-0.447-0.531,2.303-0.781,2.303-0.781s3.064,3.789,4.074,3.854
			c1.008,0.064,6.592,0.562,6.592,0.562S774,400.222,772,398.32s-2.918-3.318-2.918-3.318s4.469,0.584,5.443,0
			C775.499,394.419,778.833,392.001,775.25,377.251z M593.049,374.189l-6.508-0.979l-0.375-1.459l-5.918-2.334l-0.764-1.096
			l-2.693-0.611l-0.459-1.377h-0.498l1.529-7.125c2.24,0.166,16.51-5.832,16.51-5.832l0.156,3.188l-1.793,2.644l1.137,0.502
			l0.043,1.416l1.52,1.021l-0.645,1.604l0.707,1.666L593.049,374.189z M640.083,380.875c0,0,0,0.502-0.625,1.252
			c-0.582-1.041-2.457,0.5-2.457,0.5l1.125,1.293l-1.391,1.082l-0.666,1.949c0,0-0.359,1.01-0.551,0.301
			c-0.191-0.711-3.227-10.5-4.268-13.549c1.084,0.699,6.014-1.658,6.014-1.658l0.195,2.082l1.375,0.834l-0.168,2.916
			c0,0,1.625,0.125,2.012,0.668C641.063,379.085,640.083,380.875,640.083,380.875z M690.754,369.501c0,0,1.205-16.75,0.893-17.082
			c-0.314-0.334,1.186-1.25,1.186-1.25l-0.291-0.959l0.639-0.416l-0.502-1.543l2.697-0.875c0,0,4.666-0.584,4.5-3.75
			c-0.168-3.166-0.979-6.186-0.979-6.186s-5.105-8.23-9.146-9.021c-0.043-2.791-0.209-7.584-0.209-7.584s8.125,11.584,11.375,13.084
			c-0.457,1.375-0.896,3-0.896,3l0.771,0.308l-0.207,2.733l1.5,0.5l-0.5,1.75l1.082,1.334
			C702.667,343.544,700.417,356.876,690.754,369.501z M724.875,360.169l-2.543-1.834v-1.457l-2.98-4.627l-0.104-1.461l-1.256-1.209
			l0.074-1.631l1.105-0.72l-1.203-0.688l0.969-1.416l1.41-0.514l6.773,14.305L724.875,360.169z M726.522,340.649l-0.197-0.241
			l2.191-2.572l0.4,11.498L726.522,340.649z"/>
	</g>
	<g id="Ebene_7">
		<path fill="none" stroke="#000000" stroke-linecap="round" stroke-miterlimit="10" d="M601.301,379.876
			c0,0,3.686,13.151,11.059,14.147"/>
		<path fill="none" stroke="#000000" stroke-linecap="round" stroke-miterlimit="10" d="M609.967,393.229
			c0,0-17.73,4.78-19.326,9.96l10.76-0.396"/>
		<path fill="none" stroke="#000000" stroke-linecap="round" stroke-miterlimit="10" d="M589.995,343.169
			c0,0-1.271,0.225-0.375,1.27C590.518,345.485,591.04,343.619,589.995,343.169z"/>
		<path fill="none" stroke="#000000" stroke-linecap="round" stroke-miterlimit="10" d="M630.989,388.146
			c-13.748-13.945-13.4,8.738-13.4,8.738s-12.4-0.051-16.188,5.949c9.762,0,33.271,0,33.271,0s3.588-0.82,1.994-5.603"/>
		<path fill="none" stroke="#000000" stroke-linecap="round" stroke-miterlimit="10" d="M636.467,401.794l2.59,0.599l0.398-1.991
			l2.59,0.994l1.791-1.395l1.592-1.395l-1.195-2.191l0.191-1.195l-1.008-1.991l-0.422-1.194l-2.039-0.201l-1.289-2.789
			c0,0-2.578-0.398-3.375,2.189c-5.58-33.471-30.459-44.029-30.459-44.029v-1.994l-0.92,0.201l-0.523-2.988l-1.793-0.996
			l0.996-1.396c0,0-1.195-1.594-2.789-2.592c10.561-20.521,8.17-43.432,8.17-47.217c0-3.787-2.391-6.975-4.584-1.594
			c-2.498,6.134-7.371,46.025-7.371,46.025s-2.389-36.258-3.982-42.236c-1.594-5.977-4.779-8.359-5.773-5.771
			c-4.184,10.358,2.994,38.267,6.381,47.632c-15.143-0.197-18.717,13.773-18.717,13.773c-1.395,4.183-0.572,10.012,2.615,10.808
			c17.334-3.188,19.975-9.464,19.975-9.464"/>
		<path fill="none" stroke="#000000" stroke-linecap="round" stroke-miterlimit="10" d="M594.229,368.521
			c0,0-2.191,8.368-0.598,8.964c1.594,0.599,4.582-1.989,5.18-3.585c0.598-1.593,0.398,5.38,1.195,5.879
			c0.797,0.497,4.383-1.396,7.572-5.879"/>
		<polyline fill="none" stroke="#000000" stroke-linecap="round" stroke-miterlimit="10" points="594.03,356.566 592.237,359.555 
			593.43,359.955 593.233,361.149 595.026,361.945 594.229,363.738 595.026,365.533 594.229,368.521 		"/>
		
			<line fill="none" stroke="#000000" stroke-linecap="round" stroke-miterlimit="10" x1="578.489" y1="358.56" x2="579.485" y2="356.768"/>
		<path fill="none" stroke="#000000" stroke-linecap="round" stroke-miterlimit="10" d="M667.649,381.671
			c0,0,3.506,7.595,11.457,4.981c7.27-2.391,5.977-19.726,0.994-24.507c-2.988-2.988-6.375-5.775-12.352-3.387
			c0.598-8.068,1.295-42.62-0.498-45.012c-1.793-2.39-7.172,7.86-8.07,17.125c0,0-1.166,22.312,4.213,29.684
			c-1.193,0.796-2.561,1.986-2.561,1.986v1.396l-2.021,0.995l0.584,0.997l-0.705,2.988l0.645,1.992c0,0-13.723,3.088-19.9,11.258
			c-0.598-1.195-2.58,0.396-2.58,0.396l1.303,1.297l-1.492,1.195l-0.197,0.796l-0.398,1.396"/>
		<path fill="none" stroke="#000000" stroke-linecap="round" stroke-miterlimit="10" d="M650.614,383.066
			c0,0,7.105,0.936,6.773,12.354c-0.008,0.258,0.312,3.222,0.299,3.486c0,0,7.062,0.273,8.068,2.79
			c0.598,1.492,0.299,1.294,0.299,1.294l-23.809-0.197c0,0-2.789,0.197-2.889-0.797"/>
		<path fill="none" stroke="#000000" stroke-linecap="round" stroke-miterlimit="10" d="M666.85,397.513
			c0,0,4.484,5.578,6.078,5.678s5.182-0.298,5.182-0.298s-0.898-3.688-2.592-5.581"/>
		<path fill="none" stroke="#000000" stroke-linecap="round" stroke-miterlimit="10" d="M677.51,396.916c0,0,2.99,5.775,4.484,5.877
			c1.494,0.101,4.582,0.197,4.582,0.197s-1.295-4.48-3.787-7.969l-0.795-0.896l0.498-1.195l-2.393-0.198l0.301-0.696l-1.693-1.197
			l-1.295-1.594l0.1-1.693"/>
		<path fill="none" stroke="#000000" stroke-linecap="round" stroke-miterlimit="10" d="M669.143,358.063
			c0,0,2.49-44.133,4.084-45.03c1.594-0.896,4.881,0.301,5.08,6.477c0.201,6.177-0.596,29.289-6.773,38.154"/>
		<path fill="none" stroke="#000000" stroke-linecap="round" stroke-miterlimit="10" d="M668.745,370.515
			c0,0-0.498,1.197,0.299,1.396C669.838,372.109,670.04,370.316,668.745,370.515z"/>
		<path fill="none" stroke="#000000" stroke-linecap="round" stroke-miterlimit="10" d="M676.415,385.455
			c0,0,2.092,1.098,2.691,1.198"/>
		<path fill="none" stroke="#000000" stroke-linecap="round" stroke-miterlimit="10" d="M713.67,346.503
			c0,0,6.076-0.599,11.754-5.578c5.58-4.883,5.678-10.859,4.584-12.651c-0.199-0.897-11.557-4.483-21.518,0.101
			c-3.088,1.194-4.383,2.689-4.383,2.689s-14.846-27.396-19.525-28.395c-4.684-0.994,2.988,19.826,16.338,31.383
			c-0.201,1.195-1.496,3.086-1.496,3.086l1.295,0.101l-0.396,2.788l1.893,0.499l-0.697,1.894l1.096,0.996l-0.398,2.092l-1.193,3.49
			c0,0-2.391,7.969-4.184,10.76c-1.793,2.789-9.367,15.834-10.463,18.426c-0.596-0.797-1.791-1.194-1.791-1.194"/>
		<path fill="none" stroke="#000000" stroke-linecap="round" stroke-miterlimit="10" d="M707.594,385.755
			c0,0,2.393,2.99,3.586,8.968c0.6,2.092,1.793,2.092,1.793,2.092s6.078,2.093,6.875,6.276c-4.982-0.102-12.256-0.104-12.256-0.104
			s-2.293,0.099-2.391-0.598c-0.1-0.698-0.498-2.589-4.383-2.89c-1.893-0.101-3.586-0.498-3.586-0.498s-0.896-8.067-2.094-9.362"/>
		
			<line fill="none" stroke="#000000" stroke-linecap="round" stroke-miterlimit="10" x1="706" y1="402.887" x2="686.872" y2="402.987"/>
		<path fill="none" stroke="#000000" stroke-linecap="round" stroke-miterlimit="10" d="M710.782,333.354c0,0-0.797,0.798,0,0.896
			C711.579,334.351,711.778,333.255,710.782,333.354z"/>
		<path fill="none" stroke="#000000" stroke-linecap="round" stroke-miterlimit="10" d="M705.702,329.169
			c0,0-9.963-29.787-13.15-32.178c-4.881-0.1-0.299,11.157,0.896,14.246c0.896,1.991,3.088,6.773,3.088,6.773"/>
		<path fill="none" stroke="#000000" stroke-linecap="round" stroke-miterlimit="10" d="M726.522,329.964
			c0,0,3.586-0.396,3.486-1.69"/>
		<path fill="none" stroke="#000000" stroke-linecap="round" stroke-miterlimit="10" d="M719.25,366.628
			c-0.189,2.99-3.885,9.664-6.275,12.554c-1.588,1.917-8.068,9.862-8.068,9.862"/>
		<path fill="none" stroke="#000000" stroke-linecap="round" stroke-miterlimit="10" d="M709.885,366.826
			c0,0,3.086,6.973,6.076,5.379c2.988-1.595,1.992-5.879,2.988-6.274c0.996-0.399,1.293,3.487,4.781,4.882
			c3.486,1.395,3.588-4.982,2.293-7.973l-1.496-1.793l0.299-0.896l-1.992-1.493l-0.398-1.693l-0.996-1.493l-1.992-2.989v-1.294
			l-1.494-1.593l0.1-1.695l1.195-0.596l-1.295-0.696l0.498-0.698l-3.67,0.379"/>
		<path fill="none" stroke="#000000" stroke-linecap="round" stroke-miterlimit="10" d="M624.612,362.246
			c-0.299-4.185,6.475-10.857,6.475-10.857s-8.367-32.077-1.195-40.047c1.195-0.799,7.371,10.559,5.779,39.248l0.797,0.598"/>
		<path fill="none" stroke="#000000" stroke-linecap="round" stroke-miterlimit="10" d="M631.684,373.703c0,0,6.178,0,6.576-4.584"
			/>
		<path fill="none" stroke="#000000" stroke-linecap="round" stroke-miterlimit="10" d="M634.276,321.601
			c0,0,0.547-9.066,3.535-10.857c2.988-1.793,5.406,25.104,1.422,38.853c2.189,0.397,3.396,1.592,3.396,1.592l0.207,1.396
			l2.996,0.994v1.994l2,2.191v1.396c0,0,10.455,1.194,12.646,5.379"/>
		<path fill="none" stroke="#000000" stroke-linecap="round" stroke-miterlimit="10" d="M637.262,371.71l0.201,2.391l1.395,0.796
			l-0.398,2.989c0,0,1.992,0.197,2.191,0.797c0.199,0.598-0.795,2.191-0.795,2.191"/>
		<path fill="none" stroke="#000000" stroke-linecap="round" stroke-miterlimit="10" d="M627.901,361.548
			c0,0-0.898,0.996,0.396,1.295C629.293,363.041,628.897,360.951,627.901,361.548z"/>
		<path fill="none" stroke="#000000" stroke-linecap="round" stroke-miterlimit="10" d="M575.299,381.473
			c0,0-1.395,12.552-11.355,14.942s-10.359-13.15-6.773-21.32c3.785-6.373,5.977-7.37,5.977-7.37s-7.771-42.438-1.195-47.815
			c2.191,0,2.59-0.998,6.973,47.02l0.998,0.199c0,0,1.992-46.024,5.18-49.213c3.188-3.188,4.682,19.823,3.686,22.812"/>
		<path fill="none" stroke="#000000" stroke-linecap="round" stroke-miterlimit="10" d="M565.737,394.921
			c0,0-0.795,0.896-2.988,1.793"/>
		<path fill="none" stroke="#000000" stroke-linecap="round" stroke-miterlimit="10" d="M577.542,358.859
			c0,0-0.748,4.883-2.738,9.465"/>
		<path fill="none" stroke="#000000" stroke-linecap="round" stroke-miterlimit="10" d="M575.833,366.203l1,0.129v1.394l2.971,0.399
			l0.611,1.394l5.711,2.192l0.264,1.592c0,0,4.951,0.4,6.346,0.799"/>
		<path fill="none" stroke="#000000" stroke-linecap="round" stroke-miterlimit="10" d="M582.473,399.003
			c0,0-4.383-2.092-6.574,0.102c-2.193,2.193-1.596,3.887-1.596,3.887l10.162-0.199l1.594-1.297c0,0,0.199,1.346,1.594,1.744
			c1.395,0.399,2.988-0.023,2.988-0.023"/>
		<path fill="none" stroke="#000000" stroke-linecap="round" stroke-miterlimit="10" d="M574.303,402.99l-16.734-0.197
			c0,0,1.395-3.188,3.984-3.39c2.59-0.198,6.574,0,6.574,0l2.391-0.995l-2.789-0.599l1.594-1.595l-1.992-0.996"/>
		<path fill="none" stroke="#000000" stroke-linecap="round" stroke-miterlimit="10" d="M569.323,381.274
			c0,0-1.195,0.697,0.498,0.896C570.917,381.673,570.518,380.675,569.323,381.274z"/>
		<path fill="none" stroke="#000000" stroke-linecap="round" stroke-miterlimit="10" d="M722.739,383.466
			c0,0,8.564-2.145,7.57,14.395c2.191,0,7.471,0.747,8.367,5.08c-4.582,0-18.828,0.15-18.828,0.15"/>
		<path fill="none" stroke="#000000" stroke-linecap="round" stroke-miterlimit="10" d="M765.077,367.725
			c0,0,3.088-40.845-3.289-43.433c-2.59,1.99-3.586,9.362-3.586,9.362"/>
		
			<line fill="none" stroke="#000000" stroke-linecap="round" stroke-miterlimit="10" x1="749.237" y1="375.693" x2="750.034" y2="374.501"/>
		<path fill="none" stroke="#000000" stroke-linecap="round" stroke-miterlimit="10" d="M762.586,379.679c0,0-0.598,0.697,0.1,0.896
			C763.383,380.773,763.483,379.48,762.586,379.679z"/>
		<path fill="none" stroke="#000000" stroke-linecap="round" stroke-miterlimit="10" d="M770.157,393.626
			c0,0,0.199,0.797,1.594,1.793"/>
		<path fill="none" stroke="#000000" stroke-linecap="round" stroke-miterlimit="10" d="M768.989,395.564
			c0,0,2.08,0.846,3.273,3.234c1.195,2.391,0.484,4.035,0.484,4.035h-2.789c0,0-2.988-0.42-4.582-0.619
			c-1.594-0.201-3.389-3.795-3.389-3.795L759,398.634c3.586,4.386,1.195,4.201,1.195,4.201s-6.773,0-10.361,0
			c-3.586,0-3.387,0-3.387,0h-8.115"/>
		<path fill="none" stroke="#000000" stroke-linecap="round" stroke-miterlimit="10" d="M759.448,391.136
			c0,0,13.156,6.916,15.99,3.139c3.137-4.186,2.432-21.747-7.871-25.354c-3.984-1.395-4.98-1.494-4.98-1.494
			s-1.195-25.998-4.783-34.567c-3.586-8.565-4.779-8.368-5.379-4.185c-0.598,4.185,0.398,34.668,4.781,40.445
			c-1.793,0.6-3.586,2.191-3.586,2.191l0.201,0.798l-2.791,0.995l-0.996,1.396c0,0-15.393-5.931-32.277,1.791
			c-1.793,0.6-4.383,2.19-4.383,2.19"/>
		<path fill="none" stroke="#000000" stroke-linecap="round" stroke-miterlimit="10" d="M746.149,373.205
			c0,0,0.498-5.679-6.277-11.256c-2.391-2.392-5.379-3.39-5.379-3.39s3.188-28.29,0.598-35.466c0,0-1.793-7.969-4.383-0.993
			c-0.996,2.987-1.494,3.884-1.494,5.478"/>
		<path fill="none" stroke="#000000" stroke-linecap="round" stroke-miterlimit="10" d="M728.264,337.736
			c0,0,0.85,16.243,2.443,21.623c0,0-3.785-17.554-4.383-18.951"/>
		<path fill="none" stroke="#000000" stroke-linecap="round" stroke-miterlimit="10" d="M724.53,361.046l0.299-0.896l2.293-1.19
			c0,0-5.779-10.76-6.775-14.346"/>
		<path fill="none" stroke="#000000" stroke-linecap="round" stroke-miterlimit="10" d="M715.167,325.886
			c0,0-0.398-4.783,0.598-5.778c0.996-0.996,3.188,2.987,4.184,5.578"/>
		<path fill="none" stroke="#000000" stroke-linecap="round" stroke-miterlimit="10" d="M736.784,366.528
			c0,0-1.094,0.003-0.299,1.198C737.381,368.324,737.979,366.828,736.784,366.528z"/>
		<path fill="none" stroke="#000000" stroke-linecap="round" stroke-miterlimit="10" d="M689.067,319.708
			c0,0,0.299,2.392,0.598,8.668c2.391,0.896,6.773,5.08,6.773,5.08s2.588,3.084,3.287,6.474c0.699,3.391,0.199,6.075-2.092,7.073
			c-2.291,0.996-4.881,1.097-4.881,1.097l0.398,1.694l-0.697,0.396l0.299,1.096l-0.996,0.797"/>
		<path fill="none" stroke="#000000" stroke-linecap="round" stroke-miterlimit="10" d="M688.766,305.362
			c0,0,1.496-17.334-3.885-20.022c-5.379-2.689-5.678,30.781-2.092,43.037c-2.092-12.854-5.678-41.244-7.471-42.439
			c-1.793-1.193-5.68,1.693-0.896,26.896"/>
		<path fill="none" stroke="#000000" stroke-linecap="round" stroke-miterlimit="10" d="M691.458,350.589
			c0,0,0.996,14.047-1.594,21.121"/>
		<path fill="none" stroke="#000000" stroke-linecap="round" stroke-miterlimit="10" d="M693.151,335.945
			c0,0-0.947,0.499-0.162,1.135C693.774,337.714,693.985,336.083,693.151,335.945z"/>
		<polyline fill="none" stroke="#000000" stroke-linecap="round" stroke-miterlimit="10" points="682.192,327.778 679.801,329.421 
			679.004,330.267 		"/>
	</g>
	<g id="Ebene_9">
	</g>
	<g id="Sparcles">
		<g>
			<g>
				<path fill="#F7941F" d="M772,366.884c2,0,2-3.102,0-3.102S770,366.884,772,366.884L772,366.884z"/>
			</g>
		</g>
		<g>
			<g>
				<path fill="#F7941F" d="M778.667,374.218c2,0,2-3.102,0-3.102S776.667,374.218,778.667,374.218L778.667,374.218z"/>
			</g>
		</g>
		<g>
			<g>
				<path fill="#F7941F" d="M783.333,360.218c2,0,2-3.102,0-3.102S781.333,360.218,783.333,360.218L783.333,360.218z"/>
			</g>
		</g>
		<g>
			<g>
				<path fill="#F7941F" d="M780,338.218c2,0,2-3.102,0-3.102S778,338.218,780,338.218L780,338.218z"/>
			</g>
		</g>
		<g>
			<g>
				<path fill="#F7941F" d="M692.667,285.552c2,0,2-3.102,0-3.102S690.667,285.552,692.667,285.552L692.667,285.552z"/>
			</g>
		</g>
		<g>
			<g>
				<path fill="#F7941F" d="M556.667,393.552c2,0,2-3.102,0-3.102S554.667,393.552,556.667,393.552L556.667,393.552z"/>
			</g>
		</g>
		<g>
			<g>
				<path fill="#F7941F" d="M590,397.552c2,0,2-3.102,0-3.102S588,397.552,590,397.552L590,397.552z"/>
			</g>
		</g>
		<g>
			<g>
				<path fill="#F7941F" d="M592,391.552c2,0,2-3.102,0-3.102S590,391.552,592,391.552L592,391.552z"/>
			</g>
		</g>
		<g>
			<g>
				<path fill="#F7941F" d="M610,343.218c2,0,2-3.102,0-3.102S608,343.218,610,343.218L610,343.218z"/>
			</g>
		</g>
		<g>
			<g>
				<path fill="#F7941F" d="M589,386.552c2,0,2-3.102,0-3.102S587,386.552,589,386.552L589,386.552z"/>
			</g>
		</g>
		<g>
			<g>
				<path fill="#F7941F" d="M590,377.884c2,0,2-3.102,0-3.102S588,377.884,590,377.884L590,377.884z"/>
			</g>
		</g>
		<g>
			<g>
				<path fill="#F7941F" d="M625.333,336.884c2,0,2-3.102,0-3.102S623.333,336.884,625.333,336.884L625.333,336.884z"/>
			</g>
		</g>
		<g>
			<g>
				<path fill="#F7941F" d="M614,278.218c2,0,2-3.102,0-3.102S612,278.218,614,278.218L614,278.218z"/>
			</g>
		</g>
		<g>
			<g>
				<path fill="#F7941F" d="M627.333,270.884c2,0,2-3.102,0-3.102S625.333,270.884,627.333,270.884L627.333,270.884z"/>
			</g>
		</g>
		<g>
			<g>
				<path fill="#F7941F" d="M630.667,260.884c2,0,2-3.102,0-3.102S628.667,260.884,630.667,260.884L630.667,260.884z"/>
			</g>
		</g>
		<g>
			<g>
				<path fill="#F7941F" d="M786.667,209.552c2,0,2-3.102,0-3.102S784.667,209.552,786.667,209.552L786.667,209.552z"/>
			</g>
		</g>
		<g>
			<g>
				<path fill="#F7941F" d="M791.333,208.218c2,0,2-3.102,0-3.102S789.333,208.218,791.333,208.218L791.333,208.218z"/>
			</g>
		</g>
		<g>
			<g>
				<path fill="#F7941F" d="M794.332,202.551c2,0,2-3.101,0-3.101S792.332,202.551,794.332,202.551L794.332,202.551z"/>
			</g>
		</g>
		<g>
			<g>
				<path fill="#F7941F" d="M800,203.884c2,0,2-3.101,0-3.101S798,203.884,800,203.884L800,203.884z"/>
			</g>
		</g>
		<g>
			<g>
				<path fill="#F7941F" d="M797.333,196.884c2,0,2-3.101,0-3.101S795.333,196.884,797.333,196.884L797.333,196.884z"/>
			</g>
		</g>
		<g>
			<g>
				<path fill="#F7941F" d="M796.667,186.217c2,0,2-3.101,0-3.101S794.667,186.217,796.667,186.217L796.667,186.217z"/>
			</g>
		</g>
		<g>
			<g>
				<path fill="#F7941F" d="M784.333,160.884c2,0,2-3.101,0-3.101S782.333,160.884,784.333,160.884L784.333,160.884z"/>
			</g>
		</g>
		<g>
			<g>
				<path fill="#F7941F" d="M764.667,212.218c2,0,2-3.102,0-3.102S762.667,212.218,764.667,212.218L764.667,212.218z"/>
			</g>
		</g>
		<g>
			<g>
				<path fill="#F7941F" d="M758.333,209.884c2,0,2-3.102,0-3.102S756.333,209.884,758.333,209.884L758.333,209.884z"/>
			</g>
		</g>
		<g>
			<g>
				<path fill="#F7941F" d="M738,199.551c2,0,2-3.101,0-3.101S736,199.551,738,199.551L738,199.551z"/>
			</g>
		</g>
		<g>
			<g>
				<path fill="#F7941F" d="M726.667,210.884c2,0,2-3.102,0-3.102S724.667,210.884,726.667,210.884L726.667,210.884z"/>
			</g>
		</g>
		<g>
			<g>
				<path fill="#F7941F" d="M787.333,170.217c2,0,2-3.101,0-3.101S785.333,170.217,787.333,170.217L787.333,170.217z"/>
			</g>
		</g>
		<g>
			<g>
				<path fill="#F7941F" d="M801.333,176.884c2,0,2-3.101,0-3.101S799.333,176.884,801.333,176.884L801.333,176.884z"/>
			</g>
		</g>
		<g>
			<g>
				<path fill="#F7941F" d="M804.667,187.551c2,0,2-3.101,0-3.101S802.667,187.551,804.667,187.551L804.667,187.551z"/>
			</g>
		</g>
		<g>
			<g>
				<path fill="#F7941F" d="M797.333,190.884c2,0,2-3.101,0-3.101S795.333,190.884,797.333,190.884L797.333,190.884z"/>
			</g>
		</g>
		<g>
			<g>
				<path fill="#F7941F" d="M802.667,196.551c2,0,2-3.101,0-3.101S800.667,196.551,802.667,196.551L802.667,196.551z"/>
			</g>
		</g>
		<g>
			<g>
				<path fill="#F7941F" d="M804,200.884c2,0,2-3.101,0-3.101S802,200.884,804,200.884L804,200.884z"/>
			</g>
		</g>
		<g>
			<g>
				<path fill="#F7941F" d="M704.667,318.218c2,0,2-3.102,0-3.102S702.667,318.218,704.667,318.218L704.667,318.218z"/>
			</g>
		</g>
		<g>
			<g>
				<path fill="#F7941F" d="M783.333,394.218c2,0,2-3.102,0-3.102S781.333,394.218,783.333,394.218L783.333,394.218z"/>
			</g>
		</g>
		<g>
			<g>
				<path fill="#F7941F" d="M776,400.884c2,0,2-3.102,0-3.102S774,400.884,776,400.884L776,400.884z"/>
			</g>
		</g>
		<g>
			<g>
				<path fill="#F7941F" d="M770,400.884c2,0,2-3.102,0-3.102S768,400.884,770,400.884L770,400.884z"/>
			</g>
		</g>
		<g>
			<g>
				<path fill="#F7941F" d="M708,276.884c2,0,2-3.102,0-3.102S706,276.884,708,276.884L708,276.884z"/>
			</g>
		</g>
		<g>
			<g>
				<path fill="#F7941F" d="M799,379.552c2,0,2-3.102,0-3.102S797,379.552,799,379.552L799,379.552z"/>
			</g>
		</g>
		<g>
			<g>
				<path fill="#F7941F" d="M731.333,249.552c2,0,2-3.102,0-3.102S729.333,249.552,731.333,249.552L731.333,249.552z"/>
			</g>
		</g>
		<g>
			<g>
				<path fill="#F7941F" d="M769.667,229.552c2,0,2-3.102,0-3.102S767.667,229.552,769.667,229.552L769.667,229.552z"/>
			</g>
		</g>
		<g>
			<g>
				<path fill="#F7941F" d="M765.667,216.552c2,0,2-3.102,0-3.102S763.667,216.552,765.667,216.552L765.667,216.552z"/>
			</g>
		</g>
		<g>
			<g>
				<path fill="#F7941F" d="M759.333,225.552c2,0,2-3.102,0-3.102S757.333,225.552,759.333,225.552L759.333,225.552z"/>
			</g>
		</g>
		<g>
			<g>
				<path fill="#F7941F" d="M764,236.218c2,0,2-3.102,0-3.102S762,236.218,764,236.218L764,236.218z"/>
			</g>
		</g>
		<g>
			<g>
				<path fill="#F7941F" d="M764,246.884c2,0,2-3.102,0-3.102S762,246.884,764,246.884L764,246.884z"/>
			</g>
		</g>
		<g>
			<g>
				<path fill="#F7941F" d="M732.667,236.218c2,0,2-3.102,0-3.102S730.667,236.218,732.667,236.218L732.667,236.218z"/>
			</g>
		</g>
		<g>
			<g>
				<path fill="#F7941F" d="M781.333,203.552c2,0,2-3.101,0-3.101S779.333,203.552,781.333,203.552L781.333,203.552z"/>
			</g>
		</g>
		<g>
			<g>
				<path fill="#F7941F" d="M723,166.217c2,0,2-3.101,0-3.101S721,166.217,723,166.217L723,166.217z"/>
			</g>
		</g>
		<g>
			<g>
				<path fill="#F7941F" d="M757.333,161.884c2,0,2-3.101,0-3.101S755.333,161.884,757.333,161.884L757.333,161.884z"/>
			</g>
		</g>
		<g>
			<g>
				<path fill="#F7941F" d="M750,168.217c2,0,2-3.101,0-3.101S748,168.217,750,168.217L750,168.217z"/>
			</g>
		</g>
		<g>
			<g>
				<path fill="#F7941F" d="M744.333,172.217c2,0,2-3.101,0-3.101S742.333,172.217,744.333,172.217L744.333,172.217z"/>
			</g>
		</g>
		<g>
			<g>
				<path fill="#F7941F" d="M742,183.551c2,0,2-3.101,0-3.101S740,183.551,742,183.551L742,183.551z"/>
			</g>
		</g>
		<g>
			<g>
				<path fill="#F7941F" d="M796.667,205.551c2,0,2-3.101,0-3.101S794.667,205.551,796.667,205.551L796.667,205.551z"/>
			</g>
		</g>
		<g>
			<g>
				<path fill="#F7941F" d="M730.667,317.552c2,0,2-3.102,0-3.102S728.667,317.552,730.667,317.552L730.667,317.552z"/>
			</g>
		</g>
		<g>
			<g>
				<path fill="#F7941F" d="M746.667,357.552c2,0,2-3.102,0-3.102S744.667,357.552,746.667,357.552L746.667,357.552z"/>
			</g>
		</g>
		<g>
			<g>
				<path fill="#F7941F" d="M747.333,362.884c2,0,2-3.102,0-3.102S745.333,362.884,747.333,362.884L747.333,362.884z"/>
			</g>
		</g>
		<g>
			<g>
				<path fill="#F7941F" d="M744.667,358.884c2,0,2-3.102,0-3.102S742.667,358.884,744.667,358.884L744.667,358.884z"/>
			</g>
		</g>
		<g>
			<g>
				<path fill="#F7941F" d="M747.333,350.884c2,0,2-3.102,0-3.102S745.333,350.884,747.333,350.884L747.333,350.884z"/>
			</g>
		</g>
		<g>
			<g>
				<path d="M784,345.552c2,0,2-3.102,0-3.102S782,345.552,784,345.552L784,345.552z"/>
			</g>
		</g>
		<g>
			<g>
				<path d="M762,323.552c2,0,2-3.102,0-3.102S760,323.552,762,323.552L762,323.552z"/>
			</g>
		</g>
		<g>
			<g>
				<path d="M746.667,300.218c2,0,2-3.102,0-3.102S744.667,300.218,746.667,300.218L746.667,300.218z"/>
			</g>
		</g>
		<g>
			<g>
				<path d="M784,384.218c2,0,2-3.102,0-3.102S782,384.218,784,384.218L784,384.218z"/>
			</g>
		</g>
		<g>
			<g>
				<path d="M779.333,391.552c2,0,2-3.102,0-3.102S777.333,391.552,779.333,391.552L779.333,391.552z"/>
			</g>
		</g>
		<g>
			<g>
				<path d="M782,400.884c2,0,2-3.102,0-3.102S780,400.884,782,400.884L782,400.884z"/>
			</g>
		</g>
		<g>
			<g>
				<path d="M788,398.218c2,0,2-3.102,0-3.102S786,398.218,788,398.218L788,398.218z"/>
			</g>
		</g>
		<g>
			<g>
				<path d="M790.667,391.552c2,0,2-3.102,0-3.102S788.667,391.552,790.667,391.552L790.667,391.552z"/>
			</g>
		</g>
		<g>
			<g>
				<path d="M792,395.552c2,0,2-3.102,0-3.102S790,395.552,792,395.552L792,395.552z"/>
			</g>
		</g>
		<g>
			<g>
				<path d="M792,371.552c2,0,2-3.102,0-3.102S790,371.552,792,371.552L792,371.552z"/>
			</g>
		</g>
		<g>
			<g>
				<path d="M703.333,305.552c2,0,2-3.102,0-3.102S701.333,305.552,703.333,305.552L703.333,305.552z"/>
			</g>
		</g>
		<g>
			<g>
				<path d="M648.667,261.552c2,0,2-3.102,0-3.102S646.667,261.552,648.667,261.552L648.667,261.552z"/>
			</g>
		</g>
		<g>
			<g>
				<path d="M559.333,349.552c2,0,2-3.102,0-3.102S557.333,349.552,559.333,349.552L559.333,349.552z"/>
			</g>
		</g>
		<g>
			<g>
				<path d="M556.667,372.218c2,0,2-3.102,0-3.102S554.667,372.218,556.667,372.218L556.667,372.218z"/>
			</g>
		</g>
		<g>
			<g>
				<path d="M554.667,380.218c2,0,2-3.102,0-3.102S552.667,380.218,554.667,380.218L554.667,380.218z"/>
			</g>
		</g>
		<g>
			<g>
				<path d="M672.667,284.218c2,0,2-3.102,0-3.102S670.667,284.218,672.667,284.218L672.667,284.218z"/>
			</g>
		</g>
		<g>
			<g>
				<path d="M715.333,242.884c2,0,2-3.102,0-3.102S713.333,242.884,715.333,242.884L715.333,242.884z"/>
			</g>
		</g>
		<g>
			<g>
				<path d="M688,219.552c2,0,2-3.102,0-3.102S686,219.552,688,219.552L688,219.552z"/>
			</g>
		</g>
		<g>
			<g>
				<path d="M738,184.217c2,0,2-3.101,0-3.101S736,184.217,738,184.217L738,184.217z"/>
			</g>
		</g>
		<g>
			<g>
				<path d="M739.333,196.217c2,0,2-3.101,0-3.101S737.333,196.217,739.333,196.217L739.333,196.217z"/>
			</g>
		</g>
		<g>
			<g>
				<path d="M734,206.218c2,0,2-3.102,0-3.102S732,206.218,734,206.218L734,206.218z"/>
			</g>
		</g>
		<g>
			<g>
				<path d="M745.333,214.886c2,0,2-3.102,0-3.102S743.333,214.886,745.333,214.886L745.333,214.886z"/>
			</g>
		</g>
		<g>
			<g>
				<path d="M758.667,255.552c2,0,2-3.102,0-3.102S756.667,255.552,758.667,255.552L758.667,255.552z"/>
			</g>
		</g>
		<g>
			<g>
				<path d="M772.667,215.552c2,0,2-3.102,0-3.102S770.667,215.552,772.667,215.552L772.667,215.552z"/>
			</g>
		</g>
		<g>
			<g>
				<path d="M806,180.217c2,0,2-3.101,0-3.101S804,180.217,806,180.217L806,180.217z"/>
			</g>
		</g>
		<g>
			<g>
				<path d="M806,168.217c2,0,2-3.101,0-3.101S804,168.217,806,168.217L806,168.217z"/>
			</g>
		</g>
		<g>
			<g>
				<path d="M809.333,184.884c2,0,2-3.101,0-3.101S807.333,184.884,809.333,184.884L809.333,184.884z"/>
			</g>
		</g>
		<g>
			<g>
				<path d="M816.667,171.217c2,0,2-3.101,0-3.101S814.667,171.217,816.667,171.217L816.667,171.217z"/>
			</g>
		</g>
		<g>
			<g>
				<path d="M808.333,192.551c2,0,2-3.101,0-3.101S806.333,192.551,808.333,192.551L808.333,192.551z"/>
			</g>
		</g>
		<g>
			<g>
				<path d="M744.667,264.884c2,0,2-3.102,0-3.102S742.667,264.884,744.667,264.884L744.667,264.884z"/>
			</g>
		</g>
		<g>
			<g>
				<path d="M747.333,288.218c2,0,2-3.102,0-3.102S745.333,288.218,747.333,288.218L747.333,288.218z"/>
			</g>
		</g>
	</g>
</g>
<g>
	<g>
		<g>
			<g>
				<defs>
					<rect id="SVGID_1_" x="32.571" y="27.19" width="417.458" height="381.696"/>
				</defs>
				<clipPath id="SVGID_2_">
					<use xlink:href="#SVGID_1_"  overflow="visible"/>
				</clipPath>
				<g id="Ebene_12" clip-path="url(#SVGID_2_)">
					<g>
						<defs>
							<rect id="SVGID_3_" x="32.571" y="27.19" width="417.458" height="381.696"/>
						</defs>
						<defs>
							<rect id="SVGID_4_" x="32.571" y="27.19" width="417.458" height="381.696"/>
						</defs>
						<defs>
							<rect id="SVGID_5_" x="32.571" y="27.19" width="417.458" height="381.696"/>
						</defs>
						<defs>
							<rect id="SVGID_6_" x="32.571" y="27.19" width="417.458" height="381.696"/>
						</defs>
						<defs>
							<rect id="SVGID_7_" x="32.571" y="27.19" width="417.458" height="381.696"/>
						</defs>
						<defs>
							<rect id="SVGID_8_" x="32.571" y="27.19" width="417.458" height="381.696"/>
						</defs>
						<clipPath id="SVGID_9_">
							<use xlink:href="#SVGID_3_"  overflow="visible"/>
						</clipPath>
						<clipPath id="SVGID_10_" clip-path="url(#SVGID_9_)">
							<use xlink:href="#SVGID_4_"  overflow="visible"/>
						</clipPath>
						<clipPath id="SVGID_11_" clip-path="url(#SVGID_10_)">
							<use xlink:href="#SVGID_5_"  overflow="visible"/>
						</clipPath>
						<clipPath id="SVGID_12_" clip-path="url(#SVGID_11_)">
							<use xlink:href="#SVGID_6_"  overflow="visible"/>
						</clipPath>
						<clipPath id="SVGID_13_" clip-path="url(#SVGID_12_)">
							<use xlink:href="#SVGID_7_"  overflow="visible"/>
						</clipPath>
						<clipPath id="SVGID_14_" clip-path="url(#SVGID_13_)">
							<use xlink:href="#SVGID_8_"  overflow="visible"/>
						</clipPath>
						<path clip-path="url(#SVGID_14_)" d="M92.577,150.037c0,0-27.338,7.221,21.921,40.491
							c1.805,0.258,14.958,23.728,17.623,29.746c1.462,4.298,2.063,3.438,2.063,8.597c0,5.159-19.601,48.83-21.492,51.924
							c2.922,0.172,5.674-2.063,9.457-6.877c3.782-4.813,12.379-22.352,12.379-22.352s0.516,7.737-1.204,16.506
							c-1.72,8.77-4.126,14.098-1.547,19.771c0,0,3.954-2.234,8.425-18.225c0.171,6.188-0.516,24.586-11.863,89.748
							c0,0-3.611,20.977-3.955,23.385c-0.344,2.406-0.171,3.783-6.018,7.736c-5.847,3.954-16.162,8.77-16.162,13.583
							c0.344,1.203,3.439,2.234,26.306-7.565c10.316,1.893,28.542,7.051,30.604,4.472c0,0-1.891-4.298-20.289-13.411
							c-4.813-2.234-7.737-3.095-7.049-9.8c0,0,21.664-103.161,23.899-139.269c0,0-2.106-17.278-3.267-19.857
							c0,0,14.958-0.646,17.151-1.549c0,0,0.902-0.129,1.676-0.258c0.773-0.129,3.869-0.945,4.642-2.836
							c0,0,0.645-0.388,0.516-1.291c0.774-1.418-1.461-12.292-3.224-16.376c-1.674-3.877-26.435-56.609-34.946-59.317
							c-3.224-0.903-4.126,0.258-5.545,0.903c-1.418,0.645-4.255-0.516-5.158-2.192c-0.903-1.676-0.258-2.579,0.773-3.481
							c1.032-0.903-7.092-6.834-10.703-7.479c3.611,6.061,20.632,34.172,22.954,65.422c0,0-23.727-60.178-36.794-61.897
							c0,0-2.407,4.728-0.988,8.081c0.645,1.418,0.258,2.966-2.192,4.126c-0.773,0.258-1.676,0.387-1.676,0.387
							s1.805,1.418,3.095,1.805c1.29,0.387,2.45,1.161,2.45,1.161"/>
						<path clip-path="url(#SVGID_14_)" d="M167.368,217.522c0,0,1.891,1.375,2.235,0.858c0.344-0.516,0.903-0.944,0.903-1.375
							c0-0.43,0.322,0.602,1.01,1.117c0.687,0.517,2.137-1.031,2.74-1.461c0.602-0.431,2.23,0.086,2.23,0.086
							s1.716-1.377-0.433-3.354c0.344-0.688,1.719-0.945,0.343-1.805c-1.375-0.859-6.449,2.148-6.449,2.148l-2.579,1.979V217.522z"
							/>
						<path clip-path="url(#SVGID_14_)" d="M149.487,195.686c0,0-30.605-63.272-35.763-64.303
							c-2.579-1.547-16.506-4.557-15.99-5.846c0.516-1.29,4.699-1.629,8.769,0c0.43-0.172-3.008-3.869-3.008-3.869
							s-0.603-3.438,2.407-3.009c0.601-0.343,1.547-0.945,1.461-1.547c-0.086-0.602,3.525-1.461,3.869-2.149
							c0.344-0.688,3.181-1.375,4.384-0.085c1.633,0.085,0.859-1.375,1.719-0.516c0.86,0.859,1.118,0.773,2.235,3.095
							c1.118,2.321,1.892,6.275,2.063,6.876c0,0-1.117,3.009,0.344,4.643c1.461,1.634,38.857,64.991,38.857,64.991"/>
						<path clip-path="url(#SVGID_14_)" d="M68.678,123.473c0,0,41.952-35.075,45.391-36.106c-1.031-1.375-10.66,0.343-15.817,4.47
							c-5.158,4.126-9.285,9.973-21.32,15.131C70.053,113.845,65.239,123.817,68.678,123.473"/>
						<path clip-path="url(#SVGID_14_)" d="M87.934,80.049c0,0-15.135,9.953-18.161,13.164C63.416,83.26,44.044,62.07,37.385,61.106
							c0.908-5.458,17.859-24.402,23.61-26.007C67.655,44.089,87.329,76.196,87.934,80.049"/>
						<path clip-path="url(#SVGID_14_)" fill="#F6931F" d="M76.931,106.968c0,0,13.411-6.19,21.32-15.131
							c0.687-3.095-2.408-2.75-2.408-2.75s0.688-1.376-0.344-1.719c-1.032-0.344-1.72-1.032-1.375-2.407
							c0.343-1.376-2.408-2.408-2.408-2.408s-1.032-3.438-3.782-3.438c-2.751,0-19.945,12.723-20.632,14.099
							c-0.688,1.375-1.376,2.75,0.687,1.719c2.063-1.031,0.688,1.376,0.688,1.376s-0.688,1.375,1.032,1.718
							c1.719,0.345,1.375,1.032,1.719,2.063c0.344,1.032-0.688,3.095,1.719,3.095c2.408,0,1.72,2.408,1.72,2.408
							S75.555,107.999,76.931,106.968"/>
					</g>
					<g>
						<defs>
							<rect id="SVGID_15_" x="32.571" y="27.19" width="417.458" height="381.696"/>
						</defs>
						<clipPath id="SVGID_16_">
							<use xlink:href="#SVGID_15_"  overflow="visible"/>
						</clipPath>
						<g clip-path="url(#SVGID_16_)">
							<g>
								<defs>
									<rect id="SVGID_17_" x="32.571" y="27.19" width="417.458" height="381.696"/>
								</defs>
								<defs>
									<rect id="SVGID_18_" x="32.571" y="27.19" width="417.458" height="381.696"/>
								</defs>
								<defs>
									<rect id="SVGID_19_" x="32.571" y="27.19" width="417.458" height="381.696"/>
								</defs>
								<defs>
									<rect id="SVGID_20_" x="32.571" y="27.19" width="417.458" height="381.696"/>
								</defs>
								<defs>
									<rect id="SVGID_21_" x="32.571" y="27.19" width="417.458" height="381.696"/>
								</defs>
								<defs>
									<rect id="SVGID_22_" x="32.571" y="27.19" width="417.458" height="381.696"/>
								</defs>
								<defs>
									<rect id="SVGID_23_" x="32.571" y="27.19" width="417.458" height="381.696"/>
								</defs>
								<defs>
									<rect id="SVGID_24_" x="32.571" y="27.19" width="417.458" height="381.696"/>
								</defs>
								<defs>
									<rect id="SVGID_25_" x="32.571" y="27.19" width="417.458" height="381.696"/>
								</defs>
								<defs>
									<rect id="SVGID_26_" x="32.571" y="27.19" width="417.458" height="381.696"/>
								</defs>
								<defs>
									<rect id="SVGID_27_" x="32.571" y="27.19" width="417.458" height="381.696"/>
								</defs>
								<defs>
									<rect id="SVGID_28_" x="32.571" y="27.19" width="417.458" height="381.696"/>
								</defs>
								<defs>
									<rect id="SVGID_29_" x="32.571" y="27.19" width="417.458" height="381.696"/>
								</defs>
								<defs>
									<rect id="SVGID_30_" x="32.571" y="27.19" width="417.458" height="381.696"/>
								</defs>
								<defs>
									<rect id="SVGID_31_" x="32.571" y="27.19" width="417.458" height="381.696"/>
								</defs>
								<defs>
									<rect id="SVGID_32_" x="32.571" y="27.19" width="417.458" height="381.696"/>
								</defs>
								<defs>
									<rect id="SVGID_33_" x="32.571" y="27.19" width="417.458" height="381.696"/>
								</defs>
								<defs>
									<rect id="SVGID_34_" x="32.571" y="27.19" width="417.458" height="381.696"/>
								</defs>
								<defs>
									<rect id="SVGID_35_" x="32.571" y="27.19" width="417.458" height="381.696"/>
								</defs>
								<defs>
									<rect id="SVGID_36_" x="32.571" y="27.19" width="417.458" height="381.696"/>
								</defs>
								<defs>
									<rect id="SVGID_37_" x="32.571" y="27.19" width="417.458" height="381.696"/>
								</defs>
								<defs>
									<rect id="SVGID_38_" x="32.571" y="27.19" width="417.458" height="381.696"/>
								</defs>
								<defs>
									<rect id="SVGID_39_" x="32.571" y="27.19" width="417.458" height="381.696"/>
								</defs>
								<defs>
									<rect id="SVGID_40_" x="32.571" y="27.19" width="417.458" height="381.696"/>
								</defs>
								<defs>
									<rect id="SVGID_41_" x="32.571" y="27.19" width="417.458" height="381.696"/>
								</defs>
								<defs>
									<rect id="SVGID_42_" x="32.571" y="27.19" width="417.458" height="381.696"/>
								</defs>
								<defs>
									<rect id="SVGID_43_" x="32.571" y="27.19" width="417.458" height="381.696"/>
								</defs>
								<defs>
									<rect id="SVGID_44_" x="32.571" y="27.19" width="417.458" height="381.696"/>
								</defs>
								<defs>
									<rect id="SVGID_45_" x="32.571" y="27.19" width="417.458" height="381.696"/>
								</defs>
								<defs>
									<rect id="SVGID_46_" x="32.571" y="27.19" width="417.458" height="381.696"/>
								</defs>
								<defs>
									<rect id="SVGID_47_" x="32.571" y="27.19" width="417.458" height="381.696"/>
								</defs>
								<defs>
									<rect id="SVGID_48_" x="32.571" y="27.19" width="417.458" height="381.696"/>
								</defs>
								<defs>
									<rect id="SVGID_49_" x="32.571" y="27.19" width="417.458" height="381.696"/>
								</defs>
								<defs>
									<rect id="SVGID_50_" x="32.571" y="27.19" width="417.458" height="381.696"/>
								</defs>
								<defs>
									<rect id="SVGID_51_" x="32.571" y="27.19" width="417.458" height="381.696"/>
								</defs>
								<defs>
									<rect id="SVGID_52_" x="32.571" y="27.19" width="417.458" height="381.696"/>
								</defs>
								<defs>
									<rect id="SVGID_53_" x="32.571" y="27.19" width="417.458" height="381.696"/>
								</defs>
								<defs>
									<rect id="SVGID_54_" x="32.571" y="27.19" width="417.458" height="381.696"/>
								</defs>
								<defs>
									<rect id="SVGID_55_" x="32.571" y="27.19" width="417.458" height="381.696"/>
								</defs>
								<defs>
									<rect id="SVGID_56_" x="32.571" y="27.19" width="417.458" height="381.696"/>
								</defs>
								<defs>
									<rect id="SVGID_57_" x="32.571" y="27.19" width="417.458" height="381.696"/>
								</defs>
								<defs>
									<rect id="SVGID_58_" x="32.571" y="27.19" width="417.458" height="381.696"/>
								</defs>
								<defs>
									<rect id="SVGID_59_" x="32.571" y="27.19" width="417.458" height="381.696"/>
								</defs>
								<defs>
									<rect id="SVGID_60_" x="32.571" y="27.19" width="417.458" height="381.696"/>
								</defs>
								<defs>
									<rect id="SVGID_61_" x="32.571" y="27.19" width="417.458" height="381.696"/>
								</defs>
								<defs>
									<rect id="SVGID_62_" x="32.571" y="27.19" width="417.458" height="381.696"/>
								</defs>
								<defs>
									<rect id="SVGID_63_" x="32.571" y="27.19" width="417.458" height="381.696"/>
								</defs>
								<defs>
									<rect id="SVGID_64_" x="32.571" y="27.19" width="417.458" height="381.696"/>
								</defs>
								<defs>
									<rect id="SVGID_65_" x="32.571" y="27.19" width="417.458" height="381.696"/>
								</defs>
								<defs>
									<rect id="SVGID_66_" x="32.571" y="27.19" width="417.458" height="381.696"/>
								</defs>
								<defs>
									<rect id="SVGID_67_" x="32.571" y="27.19" width="417.458" height="381.696"/>
								</defs>
								<defs>
									<rect id="SVGID_68_" x="32.571" y="27.19" width="417.458" height="381.696"/>
								</defs>
								<defs>
									<rect id="SVGID_69_" x="32.571" y="27.19" width="417.458" height="381.696"/>
								</defs>
								<defs>
									<rect id="SVGID_70_" x="32.571" y="27.19" width="417.458" height="381.696"/>
								</defs>
								<defs>
									<rect id="SVGID_71_" x="32.571" y="27.19" width="417.458" height="381.696"/>
								</defs>
								<defs>
									<rect id="SVGID_72_" x="32.571" y="27.19" width="417.458" height="381.696"/>
								</defs>
								<defs>
									<rect id="SVGID_73_" x="32.571" y="27.19" width="417.458" height="381.696"/>
								</defs>
								<defs>
									<rect id="SVGID_74_" x="32.571" y="27.19" width="417.458" height="381.696"/>
								</defs>
								<defs>
									<rect id="SVGID_75_" x="32.571" y="27.19" width="417.458" height="381.696"/>
								</defs>
								<defs>
									<rect id="SVGID_76_" x="32.571" y="27.19" width="417.458" height="381.696"/>
								</defs>
								<defs>
									<rect id="SVGID_77_" x="32.571" y="27.19" width="417.458" height="381.696"/>
								</defs>
								<defs>
									<rect id="SVGID_78_" x="32.571" y="27.19" width="417.458" height="381.696"/>
								</defs>
								<defs>
									<rect id="SVGID_79_" x="32.571" y="27.19" width="417.458" height="381.696"/>
								</defs>
								<defs>
									<rect id="SVGID_80_" x="32.571" y="27.19" width="417.458" height="381.696"/>
								</defs>
								<defs>
									<rect id="SVGID_81_" x="32.571" y="27.19" width="417.458" height="381.696"/>
								</defs>
								<defs>
									<rect id="SVGID_82_" x="32.571" y="27.19" width="417.458" height="381.696"/>
								</defs>
								<defs>
									<rect id="SVGID_83_" x="32.571" y="27.19" width="417.458" height="381.696"/>
								</defs>
								<defs>
									<rect id="SVGID_84_" x="32.571" y="27.19" width="417.458" height="381.696"/>
								</defs>
								<defs>
									<rect id="SVGID_85_" x="32.571" y="27.19" width="417.458" height="381.696"/>
								</defs>
								<defs>
									<rect id="SVGID_86_" x="32.571" y="27.19" width="417.458" height="381.696"/>
								</defs>
								<defs>
									<rect id="SVGID_87_" x="32.571" y="27.19" width="417.458" height="381.696"/>
								</defs>
								<defs>
									<rect id="SVGID_88_" x="32.571" y="27.19" width="417.458" height="381.696"/>
								</defs>
								<defs>
									<rect id="SVGID_89_" x="32.571" y="27.19" width="417.458" height="381.696"/>
								</defs>
								<defs>
									<rect id="SVGID_90_" x="32.571" y="27.19" width="417.458" height="381.696"/>
								</defs>
								<defs>
									<rect id="SVGID_91_" x="32.571" y="27.19" width="417.458" height="381.696"/>
								</defs>
								<defs>
									<rect id="SVGID_92_" x="32.571" y="27.19" width="417.458" height="381.696"/>
								</defs>
								<defs>
									<rect id="SVGID_93_" x="32.571" y="27.19" width="417.458" height="381.696"/>
								</defs>
								<defs>
									<rect id="SVGID_94_" x="32.571" y="27.19" width="417.458" height="381.696"/>
								</defs>
								<defs>
									<rect id="SVGID_95_" x="32.571" y="27.19" width="417.458" height="381.696"/>
								</defs>
								<clipPath id="SVGID_96_">
									<use xlink:href="#SVGID_17_"  overflow="visible"/>
								</clipPath>
								<clipPath id="SVGID_97_" clip-path="url(#SVGID_96_)">
									<use xlink:href="#SVGID_18_"  overflow="visible"/>
								</clipPath>
								<clipPath id="SVGID_98_" clip-path="url(#SVGID_97_)">
									<use xlink:href="#SVGID_19_"  overflow="visible"/>
								</clipPath>
								<clipPath id="SVGID_99_" clip-path="url(#SVGID_98_)">
									<use xlink:href="#SVGID_20_"  overflow="visible"/>
								</clipPath>
								<clipPath id="SVGID_100_" clip-path="url(#SVGID_99_)">
									<use xlink:href="#SVGID_21_"  overflow="visible"/>
								</clipPath>
								<clipPath id="SVGID_101_" clip-path="url(#SVGID_100_)">
									<use xlink:href="#SVGID_22_"  overflow="visible"/>
								</clipPath>
								<clipPath id="SVGID_102_" clip-path="url(#SVGID_101_)">
									<use xlink:href="#SVGID_23_"  overflow="visible"/>
								</clipPath>
								<clipPath id="SVGID_103_" clip-path="url(#SVGID_102_)">
									<use xlink:href="#SVGID_24_"  overflow="visible"/>
								</clipPath>
								<clipPath id="SVGID_104_" clip-path="url(#SVGID_103_)">
									<use xlink:href="#SVGID_25_"  overflow="visible"/>
								</clipPath>
								<clipPath id="SVGID_105_" clip-path="url(#SVGID_104_)">
									<use xlink:href="#SVGID_26_"  overflow="visible"/>
								</clipPath>
								<clipPath id="SVGID_106_" clip-path="url(#SVGID_105_)">
									<use xlink:href="#SVGID_27_"  overflow="visible"/>
								</clipPath>
								<clipPath id="SVGID_107_" clip-path="url(#SVGID_106_)">
									<use xlink:href="#SVGID_28_"  overflow="visible"/>
								</clipPath>
								<clipPath id="SVGID_108_" clip-path="url(#SVGID_107_)">
									<use xlink:href="#SVGID_29_"  overflow="visible"/>
								</clipPath>
								<clipPath id="SVGID_109_" clip-path="url(#SVGID_108_)">
									<use xlink:href="#SVGID_30_"  overflow="visible"/>
								</clipPath>
								<clipPath id="SVGID_110_" clip-path="url(#SVGID_109_)">
									<use xlink:href="#SVGID_31_"  overflow="visible"/>
								</clipPath>
								<clipPath id="SVGID_111_" clip-path="url(#SVGID_110_)">
									<use xlink:href="#SVGID_32_"  overflow="visible"/>
								</clipPath>
								<clipPath id="SVGID_112_" clip-path="url(#SVGID_111_)">
									<use xlink:href="#SVGID_33_"  overflow="visible"/>
								</clipPath>
								<clipPath id="SVGID_113_" clip-path="url(#SVGID_112_)">
									<use xlink:href="#SVGID_34_"  overflow="visible"/>
								</clipPath>
								<clipPath id="SVGID_114_" clip-path="url(#SVGID_113_)">
									<use xlink:href="#SVGID_35_"  overflow="visible"/>
								</clipPath>
								<clipPath id="SVGID_115_" clip-path="url(#SVGID_114_)">
									<use xlink:href="#SVGID_36_"  overflow="visible"/>
								</clipPath>
								<clipPath id="SVGID_116_" clip-path="url(#SVGID_115_)">
									<use xlink:href="#SVGID_37_"  overflow="visible"/>
								</clipPath>
								<clipPath id="SVGID_117_" clip-path="url(#SVGID_116_)">
									<use xlink:href="#SVGID_38_"  overflow="visible"/>
								</clipPath>
								<clipPath id="SVGID_118_" clip-path="url(#SVGID_117_)">
									<use xlink:href="#SVGID_39_"  overflow="visible"/>
								</clipPath>
								<clipPath id="SVGID_119_" clip-path="url(#SVGID_118_)">
									<use xlink:href="#SVGID_40_"  overflow="visible"/>
								</clipPath>
								<clipPath id="SVGID_120_" clip-path="url(#SVGID_119_)">
									<use xlink:href="#SVGID_41_"  overflow="visible"/>
								</clipPath>
								<clipPath id="SVGID_121_" clip-path="url(#SVGID_120_)">
									<use xlink:href="#SVGID_42_"  overflow="visible"/>
								</clipPath>
								<clipPath id="SVGID_122_" clip-path="url(#SVGID_121_)">
									<use xlink:href="#SVGID_43_"  overflow="visible"/>
								</clipPath>
								<clipPath id="SVGID_123_" clip-path="url(#SVGID_122_)">
									<use xlink:href="#SVGID_44_"  overflow="visible"/>
								</clipPath>
								<clipPath id="SVGID_124_" clip-path="url(#SVGID_123_)">
									<use xlink:href="#SVGID_45_"  overflow="visible"/>
								</clipPath>
								<clipPath id="SVGID_125_" clip-path="url(#SVGID_124_)">
									<use xlink:href="#SVGID_46_"  overflow="visible"/>
								</clipPath>
								<clipPath id="SVGID_126_" clip-path="url(#SVGID_125_)">
									<use xlink:href="#SVGID_47_"  overflow="visible"/>
								</clipPath>
								<clipPath id="SVGID_127_" clip-path="url(#SVGID_126_)">
									<use xlink:href="#SVGID_48_"  overflow="visible"/>
								</clipPath>
								<clipPath id="SVGID_128_" clip-path="url(#SVGID_127_)">
									<use xlink:href="#SVGID_49_"  overflow="visible"/>
								</clipPath>
								<clipPath id="SVGID_129_" clip-path="url(#SVGID_128_)">
									<use xlink:href="#SVGID_50_"  overflow="visible"/>
								</clipPath>
								<clipPath id="SVGID_130_" clip-path="url(#SVGID_129_)">
									<use xlink:href="#SVGID_51_"  overflow="visible"/>
								</clipPath>
								<clipPath id="SVGID_131_" clip-path="url(#SVGID_130_)">
									<use xlink:href="#SVGID_52_"  overflow="visible"/>
								</clipPath>
								<clipPath id="SVGID_132_" clip-path="url(#SVGID_131_)">
									<use xlink:href="#SVGID_53_"  overflow="visible"/>
								</clipPath>
								<clipPath id="SVGID_133_" clip-path="url(#SVGID_132_)">
									<use xlink:href="#SVGID_54_"  overflow="visible"/>
								</clipPath>
								<clipPath id="SVGID_134_" clip-path="url(#SVGID_133_)">
									<use xlink:href="#SVGID_55_"  overflow="visible"/>
								</clipPath>
								<clipPath id="SVGID_135_" clip-path="url(#SVGID_134_)">
									<use xlink:href="#SVGID_56_"  overflow="visible"/>
								</clipPath>
								<clipPath id="SVGID_136_" clip-path="url(#SVGID_135_)">
									<use xlink:href="#SVGID_57_"  overflow="visible"/>
								</clipPath>
								<clipPath id="SVGID_137_" clip-path="url(#SVGID_136_)">
									<use xlink:href="#SVGID_58_"  overflow="visible"/>
								</clipPath>
								<clipPath id="SVGID_138_" clip-path="url(#SVGID_137_)">
									<use xlink:href="#SVGID_59_"  overflow="visible"/>
								</clipPath>
								<clipPath id="SVGID_139_" clip-path="url(#SVGID_138_)">
									<use xlink:href="#SVGID_60_"  overflow="visible"/>
								</clipPath>
								<clipPath id="SVGID_140_" clip-path="url(#SVGID_139_)">
									<use xlink:href="#SVGID_61_"  overflow="visible"/>
								</clipPath>
								<clipPath id="SVGID_141_" clip-path="url(#SVGID_140_)">
									<use xlink:href="#SVGID_62_"  overflow="visible"/>
								</clipPath>
								<clipPath id="SVGID_142_" clip-path="url(#SVGID_141_)">
									<use xlink:href="#SVGID_63_"  overflow="visible"/>
								</clipPath>
								<clipPath id="SVGID_143_" clip-path="url(#SVGID_142_)">
									<use xlink:href="#SVGID_64_"  overflow="visible"/>
								</clipPath>
								<clipPath id="SVGID_144_" clip-path="url(#SVGID_143_)">
									<use xlink:href="#SVGID_65_"  overflow="visible"/>
								</clipPath>
								<clipPath id="SVGID_145_" clip-path="url(#SVGID_144_)">
									<use xlink:href="#SVGID_66_"  overflow="visible"/>
								</clipPath>
								<clipPath id="SVGID_146_" clip-path="url(#SVGID_145_)">
									<use xlink:href="#SVGID_67_"  overflow="visible"/>
								</clipPath>
								<clipPath id="SVGID_147_" clip-path="url(#SVGID_146_)">
									<use xlink:href="#SVGID_68_"  overflow="visible"/>
								</clipPath>
								<clipPath id="SVGID_148_" clip-path="url(#SVGID_147_)">
									<use xlink:href="#SVGID_69_"  overflow="visible"/>
								</clipPath>
								<clipPath id="SVGID_149_" clip-path="url(#SVGID_148_)">
									<use xlink:href="#SVGID_70_"  overflow="visible"/>
								</clipPath>
								<clipPath id="SVGID_150_" clip-path="url(#SVGID_149_)">
									<use xlink:href="#SVGID_71_"  overflow="visible"/>
								</clipPath>
								<clipPath id="SVGID_151_" clip-path="url(#SVGID_150_)">
									<use xlink:href="#SVGID_72_"  overflow="visible"/>
								</clipPath>
								<clipPath id="SVGID_152_" clip-path="url(#SVGID_151_)">
									<use xlink:href="#SVGID_73_"  overflow="visible"/>
								</clipPath>
								<clipPath id="SVGID_153_" clip-path="url(#SVGID_152_)">
									<use xlink:href="#SVGID_74_"  overflow="visible"/>
								</clipPath>
								<clipPath id="SVGID_154_" clip-path="url(#SVGID_153_)">
									<use xlink:href="#SVGID_75_"  overflow="visible"/>
								</clipPath>
								<clipPath id="SVGID_155_" clip-path="url(#SVGID_154_)">
									<use xlink:href="#SVGID_76_"  overflow="visible"/>
								</clipPath>
								<clipPath id="SVGID_156_" clip-path="url(#SVGID_155_)">
									<use xlink:href="#SVGID_77_"  overflow="visible"/>
								</clipPath>
								<clipPath id="SVGID_157_" clip-path="url(#SVGID_156_)">
									<use xlink:href="#SVGID_78_"  overflow="visible"/>
								</clipPath>
								<clipPath id="SVGID_158_" clip-path="url(#SVGID_157_)">
									<use xlink:href="#SVGID_79_"  overflow="visible"/>
								</clipPath>
								<clipPath id="SVGID_159_" clip-path="url(#SVGID_158_)">
									<use xlink:href="#SVGID_80_"  overflow="visible"/>
								</clipPath>
								<clipPath id="SVGID_160_" clip-path="url(#SVGID_159_)">
									<use xlink:href="#SVGID_81_"  overflow="visible"/>
								</clipPath>
								<clipPath id="SVGID_161_" clip-path="url(#SVGID_160_)">
									<use xlink:href="#SVGID_82_"  overflow="visible"/>
								</clipPath>
								<clipPath id="SVGID_162_" clip-path="url(#SVGID_161_)">
									<use xlink:href="#SVGID_83_"  overflow="visible"/>
								</clipPath>
								<clipPath id="SVGID_163_" clip-path="url(#SVGID_162_)">
									<use xlink:href="#SVGID_84_"  overflow="visible"/>
								</clipPath>
								<clipPath id="SVGID_164_" clip-path="url(#SVGID_163_)">
									<use xlink:href="#SVGID_85_"  overflow="visible"/>
								</clipPath>
								<clipPath id="SVGID_165_" clip-path="url(#SVGID_164_)">
									<use xlink:href="#SVGID_86_"  overflow="visible"/>
								</clipPath>
								<clipPath id="SVGID_166_" clip-path="url(#SVGID_165_)">
									<use xlink:href="#SVGID_87_"  overflow="visible"/>
								</clipPath>
								<clipPath id="SVGID_167_" clip-path="url(#SVGID_166_)">
									<use xlink:href="#SVGID_88_"  overflow="visible"/>
								</clipPath>
								<clipPath id="SVGID_168_" clip-path="url(#SVGID_167_)">
									<use xlink:href="#SVGID_89_"  overflow="visible"/>
								</clipPath>
								<clipPath id="SVGID_169_" clip-path="url(#SVGID_168_)">
									<use xlink:href="#SVGID_90_"  overflow="visible"/>
								</clipPath>
								<clipPath id="SVGID_170_" clip-path="url(#SVGID_169_)">
									<use xlink:href="#SVGID_91_"  overflow="visible"/>
								</clipPath>
								<clipPath id="SVGID_171_" clip-path="url(#SVGID_170_)">
									<use xlink:href="#SVGID_92_"  overflow="visible"/>
								</clipPath>
								<clipPath id="SVGID_172_" clip-path="url(#SVGID_171_)">
									<use xlink:href="#SVGID_93_"  overflow="visible"/>
								</clipPath>
								<clipPath id="SVGID_173_" clip-path="url(#SVGID_172_)">
									<use xlink:href="#SVGID_94_"  overflow="visible"/>
								</clipPath>
								<clipPath id="SVGID_174_" clip-path="url(#SVGID_173_)">
									<use xlink:href="#SVGID_95_"  overflow="visible"/>
								</clipPath>
								<path clip-path="url(#SVGID_174_)" fill="#FFFFFF" d="M228.921,55.387l0.688,163.682c0,0,172.623,54.332,187.753,66.711
									c2.75-24.071,28.196-240.709,26.134-252.4C443.496,33.38,263.996,45.759,228.921,55.387"/>
								<path clip-path="url(#SVGID_174_)" fill="none" stroke="#000000" stroke-miterlimit="10" d="M228.921,55.387l0.688,163.682
									c0,0,172.623,54.332,187.753,66.711c2.75-24.071,28.196-240.709,26.134-252.4C443.496,33.38,263.996,45.759,228.921,55.387z
									"/>
								<path clip-path="url(#SVGID_174_)" d="M305.604,250.018c0,0-53.299,118.292-63.616,140.987
									c-12.035,2.062-7.909-3.096-7.909-3.096l69.805-145.113l12.036,4.814l15.474,134.452c-5.846,4.127-9.628,1.376-9.628,1.376
									l-10.832-135.484c0,0,2.234,137.547,4.986,154.741c-3.783,4.126-10.316,0-10.316,0l0.344-155.772"/>
								<path clip-path="url(#SVGID_174_)" fill="none" stroke="#000000" stroke-miterlimit="10" d="M420.457,283.029
									c0,0,29.573-243.116,25.103-249.649"/>
								<polyline clip-path="url(#SVGID_174_)" points="314.201,246.751 309.731,248.642 305.432,249.158 305.26,244.343 								
									"/>
								<path clip-path="url(#SVGID_174_)" fill="none" stroke="#000000" stroke-miterlimit="10" d="M397.417,102.841
									c0,0,5.158-4.126,6.878-0.344c1.719,3.782,3.095,4.126,2.407,1.032c-0.688-3.094-5.846-2.408-4.814,0
									c1.032,2.407,8.941-0.345,8.941-0.345l0.688,3.095l3.096-4.126c0,0-1.376,0.688,1.719,2.751s3.783-1.72,3.783-1.72"/>
								<path clip-path="url(#SVGID_174_)" fill="none" stroke="#000000" stroke-miterlimit="10" d="M397.417,109.031l0.688,4.126
									c0,0,0-5.846,1.718-2.751c1.72,3.095,3.438,4.814,3.438,4.814"/>
								<path clip-path="url(#SVGID_174_)" fill="none" stroke="#000000" stroke-miterlimit="10" d="M406.186,113.157v2.063
									l4.986-2.063l0.344,3.095l7.565-0.343c0,0,0-5.158-1.72-3.439"/>
								<path clip-path="url(#SVGID_174_)" fill="none" stroke="#000000" stroke-miterlimit="10" d="M396.213,119.261l-0.602,2.793
									l3.824-1.698c0,0-0.321,3.106,2.43,3.106s0.699-3.435,0.699-3.435l3.443,5.506l-1.028,4.471l3.783-7.65l1.376,3.697h4.814
									l-2.408-2.922l5.502,2.063"/>
								<path clip-path="url(#SVGID_174_)" fill="none" stroke="#000000" stroke-miterlimit="10" d="M399.48,89.43l0.343,4.126
									c0,0-2.75-5.501,2.408-3.095c5.157,2.407,3.095,4.47,3.095,4.47l-2.751-2.407l6.189-1.032l-0.344,3.095l3.782-2.751
									l1.72,3.439c0,0,6.19,3.782,6.878,2.407s-0.688-5.501-0.688-5.501l3.783,1.031"/>
								<path clip-path="url(#SVGID_174_)" fill="none" stroke="#000000" stroke-miterlimit="10" d="M399.825,77.738l0.343,5.502
									l1.72-1.375l2.751,1.032c0,0,3.782-2.751,1.375-3.095c-2.406-0.344,2.751,4.126,2.751,4.126l8.252-2.407l0.688,2.75
									l2.062-3.095l2.751,2.063"/>
								<path clip-path="url(#SVGID_174_)" fill="none" stroke="#000000" stroke-miterlimit="10" d="M395.01,133.445l-1.031,3.438
									c0,0,2.408-5.845,3.783-5.501c1.375,0.343,3.782,4.47,3.782,4.47l-3.782,1.376c0,0,3.782-5.503,7.565-2.408
									c3.783,3.095,0.688,3.783,0.688,3.783"/>
								<path clip-path="url(#SVGID_174_)" fill="none" stroke="#000000" stroke-miterlimit="10" d="M412.204,136.197l-1.72,1.375
									l4.814,2.062c0,0,4.813-2.062,2.407-3.095"/>
								<path clip-path="url(#SVGID_174_)" fill="none" stroke="#000000" stroke-miterlimit="10" d="M396.042,148.919l3.783,2.063
									l1.375-4.815l-4.47-0.343c-5.502-5.501-4.127,3.438-4.127,3.438l2.063-6.877"/>
								<path clip-path="url(#SVGID_174_)" fill="none" stroke="#000000" stroke-miterlimit="10" d="M405.154,151.327V147.2
									c0,0,0.172-1.031,4.985,1.375c4.814,2.408-2.32,1.031-2.32,1.031l4.557-2.75v5.501l4.986-1.72"/>
								<path clip-path="url(#SVGID_174_)" fill="none" stroke="#000000" stroke-miterlimit="10" d="M393.635,159.58
									c0,0,5.847,2.407,3.783-0.688c-2.062-3.095-6.189,2.751-6.189,2.751"/>
								<path clip-path="url(#SVGID_174_)" fill="none" stroke="#000000" stroke-miterlimit="10" d="M402.575,159.236l-2.063,3.783
									l-1.72-4.814l9.629,6.189c0,0,4.126-2.407,0-3.438c-4.126-1.031-5.502,2.063-5.502,2.063l9.972-0.345"/>
								<path clip-path="url(#SVGID_174_)" fill="none" stroke="#000000" stroke-miterlimit="10" d="M248.607,85.046l-0.258,7.737
									c0,0,46.165-1.573,46.165-0.258c0,3.353,0.197,1.993-0.924,14.947"/>
								<polyline clip-path="url(#SVGID_174_)" fill="none" stroke="#000000" stroke-miterlimit="10" points="293.225,122.442 
									292.967,128.374 256.86,128.116 256.345,141.526 								"/>
								<polygon clip-path="url(#SVGID_174_)" fill="none" stroke="#000000" stroke-miterlimit="10" points="248.092,141.526 
									247.833,154.938 265.371,155.711 265.887,142.3 								"/>
								<path clip-path="url(#SVGID_174_)" fill="none" stroke="#000000" stroke-miterlimit="10" d="M256.345,155.195
									c0,0-0.258,8.769,0.258,10.058c0.516,1.29,71.955,5.674,71.955,5.674l0.517-5.158l-3.354,3.095"/>
								
									<line clip-path="url(#SVGID_174_)" fill="none" stroke="#000000" stroke-miterlimit="10" x1="329.073" y1="165.77" x2="331.91" y2="169.638"/>
								<polygon clip-path="url(#SVGID_174_)" fill="none" stroke="#000000" stroke-miterlimit="10" points="318.886,151.456 
									318.241,164.222 338.1,165.253 338.1,152.358 								"/>
								<polyline clip-path="url(#SVGID_174_)" fill="none" stroke="#000000" stroke-miterlimit="10" points="325.72,147.974 
									329.073,151.327 329.589,115.479 300.961,114.705 								"/>
								
									<line clip-path="url(#SVGID_174_)" fill="none" stroke="#000000" stroke-miterlimit="10" x1="332.426" y1="147.974" x2="329.073" y2="151.327"/>
								<path clip-path="url(#SVGID_174_)" d="M342.484,110.836c-0.172,4.041-0.344,8.081-0.517,12.122
									c-0.013,0.281,0.243,0.516,0.517,0.516h17.021c0.294,0,0.499-0.235,0.517-0.516c0.258-4.212,0.516-8.425,0.772-12.637
									c0.017-0.275-0.248-0.524-0.516-0.516c-5.761,0.172-11.521,0.343-17.28,0.516c-0.664,0.02-0.665,1.051,0,1.032
									c5.76-0.172,11.52-0.344,17.28-0.516l-0.517-0.516c-0.258,4.212-0.516,8.425-0.772,12.637l0.516-0.516h-17.021l0.516,0.516
									c0.172-4.041,0.344-8.081,0.516-12.122C343.543,110.171,342.512,110.173,342.484,110.836"/>
								<path clip-path="url(#SVGID_174_)" fill="none" stroke="#000000" stroke-miterlimit="10" d="M293.59,108.503
									c0,0-9.69-0.912-8.637,7.664c1.053,8.576,13.061,4.743,14.535,3.283C300.962,117.99,303.701,108.869,293.59,108.503z"/>
								<polygon clip-path="url(#SVGID_174_)" fill="none" stroke="#000000" stroke-miterlimit="10" points="241.386,85.046 
									256.86,84.788 257.376,73.44 241.902,74.472 								"/>
								<path clip-path="url(#SVGID_174_)" fill="none" stroke="#000000" stroke-miterlimit="10" d="M290.646,103.615
									c1.032,1.032,2.944,3.857,2.944,3.857l3.503-3.083"/>
								<polyline clip-path="url(#SVGID_174_)" fill="none" stroke="#000000" stroke-miterlimit="10" points="252.734,137.916 
									256.345,141.526 259.955,138.174 								"/>
								<polyline clip-path="url(#SVGID_174_)" fill="none" stroke="#000000" stroke-miterlimit="10" points="288.583,177.891 
									291.565,180.985 300.478,187.949 290.968,195.17 282.264,186.917 291.677,180.985 291.677,168.864 								"/>
								
									<line clip-path="url(#SVGID_174_)" fill="none" stroke="#000000" stroke-miterlimit="10" x1="295.03" y1="177.633" x2="291.677" y2="180.985"/>
								<polyline clip-path="url(#SVGID_174_)" fill="none" stroke="#000000" stroke-miterlimit="10" points="329.589,115.479 
									341.968,115.994 338.874,112.125 								"/>
								
									<line clip-path="url(#SVGID_174_)" fill="none" stroke="#000000" stroke-miterlimit="10" x1="338.357" y1="119.089" x2="341.968" y2="115.994"/>
								<path clip-path="url(#SVGID_174_)" fill="none" stroke="#000000" stroke-miterlimit="10" d="M324.431,73.956
									c0,0,3.096,2.063,1.032,3.61c-2.062,1.548,3.611-4.9,3.611-4.9l2.837,4.642"/>
								
									<line clip-path="url(#SVGID_174_)" fill="none" stroke="#000000" stroke-miterlimit="10" x1="336.294" y1="72.667" x2="333.973" y2="77.566"/>
								<path clip-path="url(#SVGID_174_)" fill="none" stroke="#000000" stroke-miterlimit="10" d="M333.458,73.956
									c1.29,0.773,2.321-1.032,3.868,2.063c1.548,3.095-0.773,5.416-1.031,4.126s1.031,1.032,4.126,0
									c3.095-1.031,2.321-3.353,2.321-3.353l-3.354-2.321c0,0,1.806,5.158,6.189,5.158"/>
								<path clip-path="url(#SVGID_174_)" fill="none" stroke="#000000" stroke-miterlimit="10" d="M329.847,81.177
									c0,0,2.837,3.095,2.063,4.9c-0.774,1.805-5.674,2.063-2.321-0.258c3.354-2.321,5.674-1.289,5.674-1.289
									s-1.805,0-0.258,3.095s4.384,1.031,4.384,1.031"/>
								
									<line clip-path="url(#SVGID_174_)" fill="none" stroke="#000000" stroke-miterlimit="10" x1="338.1" y1="86.335" x2="340.421" y2="84.788"/>
								<path clip-path="url(#SVGID_174_)" fill="none" stroke="#000000" stroke-miterlimit="10" d="M333.715,64.93
									c0,0.773-15.99,4.9-16.506,13.926c-0.516,9.027,10.832,21.664,27.08,11.606s5.674-19.343,0.516-20.89
									c-10.389-3.117-25.273-7.221-25.791,8.253c-0.611,18.346,27.229,20.82,32.754,11.348
									c9.026-15.474-18.053-23.469-23.727-23.727"/>
								<path clip-path="url(#SVGID_174_)" d="M321.487,92.934c-4.813,4.66-8.495,10.246-12.638,15.474
									c-0.408,0.516,0.316,1.25,0.729,0.729c4.141-5.226,7.826-10.816,12.637-15.474C322.695,93.2,321.964,92.471,321.487,92.934"
									/>
								<path clip-path="url(#SVGID_174_)" d="M308.202,104.783c0.21,1.412,0.238,2.824,0.239,4.248
									c0,0.338,0.328,0.583,0.652,0.497c2.197-0.575,4.395-1.402,6.312-2.631c0.396-0.252,0.294-0.788-0.123-0.943
									c-2.198-0.816-4.42-1.537-6.706-2.063c-0.648-0.148-0.922,0.847-0.274,0.995c2.285,0.526,4.509,1.247,6.706,2.063
									c-0.042-0.313-0.082-0.628-0.124-0.942c-1.851,1.186-3.945,1.973-6.064,2.526l0.652,0.498
									c-0.001-1.518-0.053-3.018-0.276-4.522C309.098,103.853,308.105,104.134,308.202,104.783"/>
								<path clip-path="url(#SVGID_174_)" d="M308.076,105.269c1.146,1.383,2.665,2.377,4.354,2.969
									c0.629,0.222,0.897-0.775,0.273-0.993c-1.528-0.537-2.864-1.459-3.898-2.705
									C308.38,104.027,307.654,104.761,308.076,105.269"/>
								<path clip-path="url(#SVGID_174_)" d="M355.53,88.763c12.226,9.916,16.011,27.82,15.458,42.816
									c-0.271,7.377-1.695,15.687-5.858,21.946c-4.726,7.106-15.365,4.459-22.523,5.558c-0.656,0.1-0.378,1.094,0.272,0.993
									c7.609-1.166,17.05,1.337,22.645-5.366c4.711-5.645,5.953-14.747,6.428-21.802c1.046-15.543-3.029-34.604-15.69-44.874
									C355.748,87.619,355.013,88.344,355.53,88.763"/>
								<path clip-path="url(#SVGID_174_)" d="M344.44,156.636c-1.392,1.374-2.883,2.621-4.385,3.869
									c-0.269,0.223-0.151,0.643,0.104,0.81c1.555,1.017,3.198,1.841,4.899,2.579c0.298,0.129,0.667,0.043,0.758-0.309
									c0.52-1.985,0.534-4.027,0.535-6.067c0-0.532-0.688-0.681-0.961-0.261c-0.992,1.52-1.846,3.123-2.837,4.643
									c-0.364,0.559,0.529,1.076,0.891,0.521c0.993-1.52,1.845-3.123,2.837-4.642c-0.32-0.086-0.642-0.174-0.96-0.26
									c-0.001,1.948-0.001,3.896-0.497,5.794c0.252-0.103,0.504-0.207,0.757-0.309c-1.702-0.737-3.346-1.562-4.9-2.579l0.104,0.81
									c1.502-1.248,2.993-2.496,4.384-3.869C345.644,156.897,344.914,156.168,344.44,156.636"/>
								<path clip-path="url(#SVGID_174_)" fill="none" stroke="#000000" stroke-miterlimit="10" d="M312.481,202.907
									c0,0,1.72,6.19,0,6.533c-1.72,0.345,2.062-4.126,2.062-4.126l1.032,4.126"/>
								<path clip-path="url(#SVGID_174_)" fill="none" stroke="#000000" stroke-miterlimit="10" d="M320.391,205.314
									c0,0-4.813-0.343-3.095,2.751c1.72,3.095,4.126,2.407,4.126,2.407l0.344-3.783l4.472,0.688"/>
								<path clip-path="url(#SVGID_174_)" fill="none" stroke="#000000" stroke-miterlimit="10" d="M322.798,209.785l1.72,2.752
									c0,0-1.376-2.064,2.407-1.377c3.783,0.688,9.973-3.095,5.501-3.095"/>
								<path clip-path="url(#SVGID_174_)" fill="none" stroke="#000000" stroke-miterlimit="10" d="M309.043,214.255
									c0,0,7.221-0.688,6.877,1.72s-4.471,5.845-4.471,3.438c0-2.408,6.188-3.783,6.188-3.783l5.847,4.472"/>
								<path clip-path="url(#SVGID_174_)" fill="none" stroke="#000000" stroke-miterlimit="10" d="M319.359,219.757
									c0,0,4.126-1.719,1.375-4.127"/>
								<path clip-path="url(#SVGID_174_)" d="M342.226,217.005c0.75-7.152,1.099-16.872-5.062-21.977
									c-4.23-3.507-10.26-2.87-15.124-1.273c-5.276,1.733-10.398,4.877-14.201,8.939c-4.779,5.105-5.56,13.534,0.332,18.038
									c7.596,5.808,20.833,8.327,29.238,3.017c4.404-2.781,6.983-8.226,6.846-13.334c-0.15-5.602-3.919-10.333-8.145-13.626
									c-8.241-6.423-22.456-3.694-29.643,3.197c-2.588,2.48-2.135,6.485-2.277,9.741c-0.222,5.075-0.227,9.101,3.887,12.625
									c10.422,8.925,30.179,7.126,34.13-7.614c0.172-0.645-0.822-0.916-0.995-0.273c-2.708,10.103-13.065,13.445-22.549,11.892
									c-4.158-0.683-8.174-2.924-11.121-5.907c-3.824-3.873-2.504-10.615-2.112-15.539c0.429-5.397,6.865-7.922,11.303-9.384
									c6.621-2.181,14.353-1.738,19.798,2.934c5.425,4.655,8.503,11.504,5.386,18.401c-2.92,6.458-9.386,8.748-16.02,8.631
									c-5.511-0.098-11.28-1.809-15.908-4.804c-2.879-1.86-4.866-4.046-5.02-7.604c-0.093-2.166,0.512-4.756,1.464-6.715
									c2.21-4.555,7.575-7.829,11.927-9.986c4.924-2.44,11.396-4.267,16.587-1.592c7.544,3.887,6.981,15.189,6.246,22.216
									C341.125,217.669,342.158,217.662,342.226,217.005"/>
								<path clip-path="url(#SVGID_174_)" d="M319.531,191.904c-0.387-10.78-5.417-20.748-9.979-30.291
									c-2.499-5.228-5.023-10.458-6.765-15.996c-1.904-6.056-3.82-12.11-6.366-17.933c-0.267-0.609-1.156-0.084-0.892,0.52
									c2.511,5.741,4.387,11.718,6.263,17.688c1.508,4.804,3.607,9.371,5.759,13.916c4.798,10.138,10.537,20.635,10.946,32.097
									C318.523,192.567,319.554,192.569,319.531,191.904"/>
								<path clip-path="url(#SVGID_174_)" d="M294.447,128.151c-0.316,1.708-0.374,3.45-0.688,5.158
									c-0.091,0.49,0.472,0.885,0.861,0.501c1.389-1.366,2.906-2.591,4.71-3.358c0.386-0.164,0.284-0.701,0-0.89
									c-1.239-0.835-2.455-1.694-3.905-2.116c-0.641-0.186-1.126,0.81-0.488,0.995c1.362,0.396,2.414,1.229,3.446,2.011v-0.89
									c-1.032,0.797-3.261,2.097-4.706,3.519c0.288,0.167,0.682,0.335,0.969,0.503c0.316-1.709,0.427-3.45,0.742-5.158
									C295.507,127.774,294.568,127.497,294.447,128.151"/>
								<path clip-path="url(#SVGID_174_)" d="M295.288,131.554c0-0.001,1.4-0.069,2.152-0.415c0.604-0.277,0.167-1.167-0.435-0.89
									c-0.574,0.263-1.717,0.273-1.717,0.273C294.256,130.524,294.256,131.556,295.288,131.554
									C295.288,131.554,294.256,131.554,295.288,131.554"/>
								<path clip-path="url(#SVGID_174_)" d="M351.873,207.242c-0.288,1.365-0.058,2.764-0.343,4.125
									c-0.059,0.272,0.076,0.561,0.359,0.637c2.177,0.568,5.356,0.148,5.682-2.605c0.317-2.68-2.615-3.309-4.649-2.861
									c-0.649,0.145-0.375,1.137,0.273,0.996c1.332-0.293,3.67-0.098,3.345,1.84c-0.336,2.01-2.864,2.033-4.376,1.635
									c0.121,0.213,0.241,0.424,0.36,0.636c0.288-1.366,0.058-2.765,0.345-4.126C353.005,206.867,352.01,206.589,351.873,207.242"
									/>
								<path clip-path="url(#SVGID_174_)" d="M352.217,211.71c-1.3,4.832-0.647,9.229,0.344,14.029
									c0.135,0.65,1.129,0.375,0.994-0.273c-0.954-4.621-1.597-8.818-0.344-13.48C353.385,211.343,352.39,211.069,352.217,211.71"
									/>
								<path clip-path="url(#SVGID_174_)" d="M352.905,226.498c-0.251,1.103-0.571,2.582,0.196,3.56
									c0.538,0.685,1.521,0.456,2.173,0.11c1.26-0.662,3.122-2.646,2.314-4.193c-0.733-1.413-3.174-0.809-4.323-0.523
									c-0.646,0.159-0.372,1.154,0.274,0.995c0.738-0.185,1.493-0.334,2.257-0.303c0.225,0.009,0.363,0.032,0.594,0.11
									c0.097,0.031,0.197,0.097,0.287,0.199c-0.09-0.104,0.031,0.062,0.051,0.104c-0.062-0.134,0.01,0.065,0.019,0.112
									c-0.028-0.151-0.004,0.076-0.006,0.121c-0.001,0.027-0.019,0.156,0.002,0.021c-0.009,0.053-0.021,0.105-0.033,0.16
									c-0.083,0.357-0.236,0.619-0.486,0.979c-0.191,0.272-0.526,0.631-0.844,0.9c-0.197,0.168-0.679,0.467-0.865,0.537
									c-0.077,0.027-0.154,0.05-0.233,0.068c-0.135,0.03,0.054,0.006-0.122,0.016c-0.134,0.006-0.114-0.006-0.104-0.002
									c-0.032-0.008-0.063-0.018-0.096-0.027c-0.083-0.025,0.099,0.055-0.025-0.018c-0.104-0.059,0.035,0.051-0.079-0.071
									c-0.084-0.089,0.062,0.092-0.008-0.015c-0.021-0.032-0.041-0.068-0.06-0.104c-0.064-0.123,0.037,0.101-0.017-0.036
									c-0.016-0.045-0.027-0.092-0.04-0.139c-0.04-0.145-0.04-0.182-0.052-0.301c-0.058-0.666,0.074-1.342,0.221-1.988
									C354.046,226.125,353.052,225.849,352.905,226.498"/>
								<path clip-path="url(#SVGID_174_)" d="M358.767,210.283c3.321,1.076,5.93,3.293,8.368,5.713
									c0.077-0.287,0.152-0.574,0.229-0.861c-0.961,0.305-1.946,0.607-2.958,0.669c-0.661,0.038-0.666,1.071,0,1.032
									c1.107-0.067,2.179-0.373,3.231-0.707c0.364-0.114,0.513-0.58,0.228-0.861c-2.568-2.551-5.332-4.848-8.823-5.979
									C358.406,209.082,358.137,210.078,358.767,210.283"/>
								<path clip-path="url(#SVGID_174_)" d="M367.654,216.111c0.237-0.744,0.301-1.572,0.636-2.283
									c0.281-0.598-0.608-1.123-0.891-0.52c-0.378,0.802-0.473,1.689-0.74,2.529C366.457,216.474,367.453,216.744,367.654,216.111
									"/>
								<path clip-path="url(#SVGID_174_)" d="M367.003,216.869c-0.671,2.635,0.904,4.344,3.455,4.762
									c0.215,0.035,0.478-0.014,0.583-0.236c0.726-1.538,1.091-3.182,0.74-4.868c-0.111-0.534-1.15-0.799-1.589-0.974
									c-0.739-0.295-1.557-0.413-2.349-0.438c-0.666-0.019-0.664,1.014,0,1.031c0.758,0.021,2.908,0.211,3.034,1.174
									c0.159,1.205-0.219,2.473-0.729,3.553c0.193-0.078,0.389-0.158,0.583-0.238c-1.963-0.319-3.272-1.379-2.735-3.49
									C368.163,216.5,367.167,216.225,367.003,216.869"/>
								<path clip-path="url(#SVGID_174_)" d="M368.431,221.216c-1.257,2.601-2.041,5.371-3.146,8.033
									c-0.256,0.613,0.743,0.879,0.994,0.273c1.071-2.577,1.823-5.27,3.042-7.787C369.61,221.142,368.721,220.617,368.431,221.216
									"/>
								<path clip-path="url(#SVGID_174_)" d="M364.957,230.571c1.646,0.652,7.547,3.226,4.93,5.671
									c-0.486,0.455,0.245,1.184,0.729,0.729c3.499-3.271-3.017-6.457-5.385-7.396
									C364.612,229.332,364.346,230.33,364.957,230.571"/>
								<path clip-path="url(#SVGID_174_)" d="M365.354,229.628c-0.861-0.662-1.518-1.027-2.529-1.428
									c-0.344-0.137-0.619,0.199-0.653,0.498c-0.508,4.428-4.024,7.693-6.12,11.432c-0.325,0.58,0.565,1.1,0.892,0.521
									c2.222-3.96,5.722-7.261,6.26-11.952c-0.217,0.166-0.436,0.332-0.653,0.497c0.899,0.354,1.526,0.744,2.285,1.323
									C365.361,230.923,365.874,230.028,365.354,229.628"/>
								<path clip-path="url(#SVGID_174_)" d="M354.984,240.923c-1.109,0.392-2.167,0.904-3.22,1.429
									c-0.154,0.075-0.262,0.274-0.255,0.444c0.053,1.228,0.493,2.238,1.387,3.088c0.95,0.904,2.132,0.312,3.153-0.252
									c2.297-1.27,2.711-3.807,0.812-5.606c-0.481-0.457-1.213,0.271-0.729,0.729c1.491,1.414,1.021,2.963-0.604,3.986
									c-0.468,0.295-1.412,0.816-1.903,0.412c-0.724-0.597-1.045-1.445-1.083-2.357c-0.085,0.147-0.17,0.297-0.256,0.445
									c0.972-0.484,1.947-0.963,2.973-1.322C355.882,241.699,355.613,240.703,354.984,240.923"/>
								<path clip-path="url(#SVGID_174_)" d="M352.561,230.28c-1.188,3.499-4.056,6.067-5.157,9.628
									c-0.052,0.166,0,0.385,0.132,0.502c1.234,1.104,2.487,1.735,4.147,1.871c0.245,0.02,0.416-0.177,0.498-0.379
									c0.268-0.662,0.347-1.156,0.362-1.857c0.015-0.666-1.017-0.664-1.031,0c0.247,0.973-0.104,1.307-1.055,1.006
									c-1.612-0.383-2.02-1.25-1.395-2.631c0.445-0.987,1.077-1.896,1.68-2.791c1.1-1.631,2.177-3.198,2.812-5.073
									C353.77,229.921,352.773,229.654,352.561,230.28"/>
								<path clip-path="url(#SVGID_174_)" d="M367.003,235.438c-0.338,1.409-1.084,3.974,0.084,5.24
									c0.752,0.815,1.8,0.604,2.607-0.017c2.806-2.156,0.575-4.925-2.058-5.586c-0.646-0.16-0.919,0.834-0.274,0.996
									c1.852,0.465,3.546,1.838,1.884,3.617c-2.177,2.332-1.424-3.25-1.25-3.979C368.153,235.066,367.158,234.791,367.003,235.438
									"/>
								<path clip-path="url(#SVGID_174_)" d="M351.079,242.007c-0.595,0.311-1.125,0.723-1.72,1.031
									c-0.59,0.309-0.068,1.198,0.521,0.892c0.596-0.312,1.125-0.722,1.72-1.031C352.189,242.591,351.667,241.701,351.079,242.007
									"/>
								<path clip-path="url(#SVGID_174_)" fill="none" stroke="#000000" stroke-miterlimit="10" d="M358.904,248.986
									c0,0,8.252-2.062,7.221-4.127c-1.032-2.062-4.126,3.098-2.751,5.848c1.376,2.75,4.126-1.721,4.126-1.721l1.72-2.751
									l1.032,3.782l-4.813-1.721"/>
								<path clip-path="url(#SVGID_174_)" fill="none" stroke="#000000" stroke-miterlimit="10" d="M368.188,252.082
									c0,0,5.158-1.377,4.471-3.783"/>
								<path clip-path="url(#SVGID_174_)" fill="none" stroke="#000000" stroke-miterlimit="10" d="M371.627,252.77
									c0,0-2.407-3.782,3.438-2.063s2.407,3.438,4.126,4.471c1.72,1.031-4.471,0.344-4.471,0.344l2.751-6.189l5.501,6.535"/>
								<path clip-path="url(#SVGID_174_)" fill="none" stroke="#000000" stroke-miterlimit="10" d="M370.252,254.832
									c0,0,2.75,3.094,0.343,4.813c-2.407,1.719-2.75-2.75-2.75-2.75l6.533,1.375l-2.407,2.752"/>
								<path clip-path="url(#SVGID_174_)" fill="none" stroke="#000000" stroke-miterlimit="10" d="M376.785,259.646
									c0,0,2.407,1.721-0.688,2.408c-3.095,0.688,4.814-0.002,3.096-3.439"/>
								<path clip-path="url(#SVGID_174_)" fill="none" stroke="#000000" stroke-miterlimit="10" d="M380.224,265.148
									c0,0-4.127-5.846,2.063-2.751c6.188,3.095,1.375,3.095,1.375,3.095"/>
								<path clip-path="url(#SVGID_174_)" d="M361.311,196.546c-1.286,0.023-2.802,0.326-3.626,1.417
									c-0.811,1.072-0.454,2.405,0.34,3.379c0.77,0.946,2.742-0.231,3.437-0.886c0.971-0.919,1.009-2.321,0.691-3.531
									c-0.168-0.643-1.163-0.371-0.993,0.274c0.217,0.829,0.259,1.7-0.312,2.401c-0.576,0.711-1.562,0.954-2.424,1.091
									c0.167,0.044,0.334,0.089,0.501,0.132c-0.566-0.696-1.002-1.596-0.317-2.362c0.643-0.719,1.802-0.866,2.703-0.883
									C361.975,197.565,361.976,196.533,361.311,196.546"/>
								<path clip-path="url(#SVGID_174_)" d="M357.7,202.22c-0.042,1.688-0.668,3.199-1.648,4.554
									c-0.391,0.541,0.504,1.054,0.891,0.521c1.085-1.5,1.745-3.213,1.79-5.073C358.749,201.554,357.717,201.555,357.7,202.22"/>
								<path clip-path="url(#SVGID_174_)" d="M354.624,205.107c0.248,0.729,0.646,1.491,0.669,2.271
									c0.02,0.662,1.051,0.664,1.032,0c-0.027-0.894-0.424-1.715-0.707-2.545C355.406,204.207,354.41,204.477,354.624,205.107"/>
								<path clip-path="url(#SVGID_174_)" d="M355.672,208.218c1.12,0.348,2.248,0.348,3.369,0
									c0.633-0.196,0.363-1.191-0.274-0.994c-0.958,0.296-1.863,0.296-2.819,0C355.309,207.027,355.039,208.022,355.672,208.218"
									/>
								<path clip-path="url(#SVGID_174_)" d="M362.688,228.182c-0.825-0.017-1.638-0.168-2.441-0.349
									c-0.747-0.168-1.758-0.356-2.353-0.877c-0.499-0.435-1.23,0.293-0.729,0.73c1.336,1.167,3.813,1.492,5.523,1.525
									C363.352,229.227,363.351,228.195,362.688,228.182"/>
								<path clip-path="url(#SVGID_174_)" d="M358.044,230.417c-0.26-2.033,0.301-3.405,2.152-4.369
									c0.59-0.309,0.067-1.197-0.521-0.891c-2.145,1.115-2.966,2.881-2.663,5.26C357.096,231.068,358.129,231.076,358.044,230.417
									"/>
							</g>
						</g>
					</g>
				</g>
			</g>
		</g>
	</g>
</g>
</svg>
