<?xml version="1.0" encoding="utf-8"?>
<!-- Generator: Adobe Illustrator 16.0.0, SVG Export Plug-In . SVG Version: 6.00 Build 0)  -->
<!DOCTYPE svg PUBLIC "-//W3C//DTD SVG 1.1//EN" "http://www.w3.org/Graphics/SVG/1.1/DTD/svg11.dtd">
<svg version="1.1" id="Ebene_1" xmlns="http://www.w3.org/2000/svg" xmlns:xlink="http://www.w3.org/1999/xlink" x="0px" y="0px"
	 width="407px" height="142.75px" viewBox="0 0 407 142.75" enable-background="new 0 0 407 142.75" xml:space="preserve">
<g>
	<g>
		<defs>
			<rect id="SVGID_1_" x="-79.061" y="-102" width="547.06" height="312.605"/>
		</defs>
		<clipPath id="SVGID_2_">
			<use xlink:href="#SVGID_1_"  overflow="visible"/>
		</clipPath>
		<g clip-path="url(#SVGID_2_)">
			<defs>
				<rect id="SVGID_3_" x="-79.061" y="-102" width="547.06" height="312.605"/>
			</defs>
			<clipPath id="SVGID_4_">
				<use xlink:href="#SVGID_3_"  overflow="visible"/>
			</clipPath>
			<path clip-path="url(#SVGID_4_)" fill="#8B8B8D" d="M119.738,117.327h-4.568v7.746c0,0.509,0.011,0.977,0.033,1.408
				c0.021,0.43,0.11,0.806,0.265,1.125c0.154,0.32,0.386,0.574,0.695,0.761c0.31,0.188,0.75,0.282,1.324,0.282
				c0.375,0,0.762-0.044,1.159-0.132c0.397-0.089,0.771-0.222,1.125-0.398l0.1,2.351c-0.442,0.198-0.933,0.342-1.474,0.431
				c-0.541,0.087-1.054,0.133-1.539,0.133c-0.927,0-1.667-0.122-2.218-0.365c-0.553-0.242-0.982-0.584-1.291-1.026
				c-0.31-0.44-0.514-0.987-0.612-1.639c-0.1-0.65-0.149-1.374-0.149-2.168v-8.508h-3.377v-2.186h3.377v-4.402h2.582v4.402h4.568
				V117.327z"/>
			<path clip-path="url(#SVGID_4_)" fill="#8B8B8D" d="M122.949,105.607h2.582v11.687h0.066c0.176-0.309,0.418-0.612,0.729-0.91
				c0.309-0.298,0.678-0.568,1.108-0.812c0.431-0.242,0.91-0.441,1.44-0.596c0.529-0.154,1.092-0.231,1.688-0.231
				c1.014,0,1.892,0.155,2.632,0.464c0.738,0.309,1.352,0.739,1.837,1.29c0.485,0.553,0.845,1.221,1.076,2.003
				c0.231,0.784,0.347,1.64,0.347,2.566v9.566h-2.581v-9.302c0-1.302-0.288-2.328-0.861-3.079c-0.574-0.75-1.468-1.126-2.682-1.126
				c-0.839,0-1.562,0.145-2.168,0.431c-0.607,0.287-1.104,0.695-1.49,1.225c-0.386,0.531-0.673,1.159-0.86,1.888
				c-0.188,0.728-0.281,1.534-0.281,2.416v7.548h-2.582V105.607z"/>
			<path clip-path="url(#SVGID_4_)" fill="#8B8B8D" d="M155.193,127.821c-0.927,1.192-1.942,2.025-3.046,2.5
				c-1.104,0.474-2.383,0.712-3.84,0.712c-1.214,0-2.307-0.216-3.277-0.646c-0.972-0.43-1.794-1.009-2.467-1.737
				s-1.191-1.589-1.556-2.582c-0.364-0.994-0.546-2.053-0.546-3.179c0-1.191,0.198-2.289,0.596-3.294
				c0.397-1.004,0.948-1.864,1.655-2.582c0.706-0.717,1.544-1.274,2.516-1.672c0.971-0.397,2.03-0.596,3.179-0.596
				c1.081,0,2.073,0.182,2.979,0.546c0.904,0.364,1.682,0.894,2.333,1.589s1.153,1.546,1.507,2.55
				c0.353,1.004,0.529,2.146,0.529,3.426v0.828h-12.514c0.044,0.662,0.204,1.297,0.48,1.903c0.275,0.607,0.634,1.136,1.076,1.589
				c0.44,0.453,0.959,0.811,1.556,1.076c0.596,0.265,1.246,0.397,1.953,0.397c1.126,0,2.074-0.199,2.847-0.597
				c0.772-0.396,1.468-0.982,2.086-1.754L155.193,127.821z M152.976,121.498c-0.045-1.324-0.475-2.383-1.291-3.178
				c-0.817-0.795-1.942-1.191-3.377-1.191c-1.436,0-2.594,0.396-3.476,1.191c-0.884,0.795-1.413,1.854-1.59,3.178H152.976z"/>
			<path clip-path="url(#SVGID_4_)" fill="#8B8B8D" d="M168.966,118.816c0-0.706-0.022-1.368-0.066-1.985
				c-0.045-0.618-0.066-1.181-0.066-1.688h2.45c0,0.419,0.01,0.839,0.033,1.258c0.021,0.419,0.033,0.85,0.033,1.291h0.066
				c0.176-0.375,0.424-0.739,0.744-1.093c0.319-0.353,0.699-0.667,1.142-0.942c0.441-0.276,0.938-0.498,1.489-0.663
				s1.148-0.248,1.788-0.248c0.839,0,1.54,0.104,2.103,0.313c0.563,0.211,1.031,0.465,1.407,0.762
				c0.375,0.298,0.667,0.618,0.878,0.96c0.209,0.343,0.38,0.646,0.512,0.911c0.574-0.927,1.236-1.65,1.987-2.168
				c0.75-0.519,1.721-0.778,2.912-0.778c1.104,0,2.03,0.149,2.781,0.446c0.75,0.298,1.357,0.729,1.821,1.292
				c0.463,0.562,0.794,1.247,0.993,2.052c0.198,0.806,0.298,1.706,0.298,2.698v9.401h-2.583v-9.27c0-0.529-0.055-1.047-0.165-1.556
				c-0.111-0.507-0.309-0.96-0.596-1.356c-0.287-0.398-0.674-0.718-1.158-0.961c-0.486-0.242-1.104-0.364-1.854-0.364
				c-0.552,0-1.07,0.111-1.556,0.331c-0.486,0.221-0.91,0.53-1.274,0.927c-0.364,0.397-0.651,0.878-0.861,1.441
				c-0.21,0.562-0.314,1.186-0.314,1.869v8.938h-2.582v-8.771c0-1.722-0.231-2.941-0.695-3.658
				c-0.464-0.718-1.225-1.077-2.284-1.077c-0.839,0-1.562,0.145-2.168,0.431c-0.607,0.287-1.104,0.695-1.489,1.225
				c-0.388,0.531-0.674,1.159-0.861,1.887c-0.188,0.729-0.282,1.535-0.282,2.417v7.548h-2.581V118.816z"/>
			<path clip-path="url(#SVGID_4_)" fill="#8B8B8D" d="M196.972,117.129c0.795-0.817,1.737-1.418,2.83-1.805
				c1.093-0.386,2.202-0.579,3.328-0.579c2.294,0,3.949,0.541,4.966,1.622c1.014,1.081,1.522,2.727,1.522,4.933v6.653
				c0,0.442,0.021,0.9,0.066,1.374c0.044,0.476,0.1,0.911,0.165,1.308h-2.482c-0.088-0.352-0.138-0.744-0.149-1.175
				c-0.011-0.431-0.017-0.811-0.017-1.142h-0.066c-0.508,0.794-1.186,1.445-2.035,1.953c-0.851,0.507-1.871,0.761-3.062,0.761
				c-0.795,0-1.54-0.099-2.235-0.298c-0.694-0.198-1.302-0.49-1.82-0.877c-0.52-0.386-0.933-0.865-1.241-1.44
				c-0.31-0.573-0.464-1.235-0.464-1.986c0-1.279,0.332-2.284,0.993-3.013c0.662-0.728,1.484-1.269,2.467-1.622
				c0.981-0.353,2.041-0.573,3.178-0.662c1.136-0.087,2.18-0.132,3.129-0.132h0.993v-0.464c0-1.126-0.337-1.975-1.01-2.549
				c-0.674-0.574-1.617-0.86-2.83-0.86c-0.84,0-1.662,0.138-2.467,0.413c-0.806,0.276-1.518,0.701-2.136,1.275L196.972,117.129z
				 M204.453,123.187c-1.655,0-2.968,0.231-3.939,0.695c-0.971,0.464-1.456,1.225-1.456,2.284c0,0.971,0.326,1.66,0.977,2.069
				s1.461,0.612,2.433,0.612c0.75,0,1.407-0.127,1.971-0.381c0.562-0.253,1.031-0.59,1.406-1.01s0.663-0.91,0.86-1.473
				c0.199-0.562,0.31-1.164,0.332-1.805v-0.993H204.453z"/>
			<path clip-path="url(#SVGID_4_)" fill="#8B8B8D" d="M229.812,129.94c0,2.825-0.724,4.97-2.168,6.438
				c-1.446,1.467-3.537,2.201-6.273,2.201c-1.523,0-2.897-0.221-4.121-0.662c-1.226-0.441-2.39-1.202-3.493-2.284l1.854-2.118
				c0.817,0.882,1.683,1.551,2.601,2.003c0.914,0.452,1.969,0.678,3.16,0.678c1.147,0,2.102-0.171,2.863-0.513
				c0.761-0.342,1.363-0.807,1.805-1.391c0.44-0.585,0.749-1.252,0.928-2.003c0.177-0.75,0.264-1.533,0.264-2.35v-1.987h-0.066
				c-0.618,0.993-1.423,1.722-2.417,2.186c-0.993,0.463-2.007,0.696-3.045,0.696c-1.214,0-2.328-0.2-3.343-0.598
				c-1.017-0.396-1.888-0.948-2.616-1.655c-0.729-0.706-1.291-1.544-1.688-2.515c-0.396-0.972-0.595-2.03-0.595-3.179
				c0-1.258,0.198-2.395,0.595-3.41c0.397-1.015,0.955-1.87,1.673-2.565c0.716-0.695,1.582-1.23,2.598-1.605
				c1.015-0.374,2.141-0.562,3.377-0.562c0.529,0,1.061,0.061,1.589,0.182c0.529,0.121,1.043,0.31,1.54,0.563
				c0.496,0.254,0.943,0.573,1.34,0.96c0.397,0.387,0.729,0.834,0.993,1.341h0.066v-2.648h2.582V129.94z M216.238,122.889
				c0,0.794,0.145,1.529,0.431,2.201c0.287,0.674,0.679,1.259,1.175,1.755c0.497,0.496,1.076,0.889,1.738,1.175
				c0.663,0.287,1.368,0.432,2.119,0.432c0.882,0,1.666-0.155,2.351-0.465c0.685-0.309,1.264-0.723,1.737-1.241
				c0.475-0.518,0.834-1.114,1.076-1.788c0.243-0.673,0.364-1.384,0.364-2.135c0-0.839-0.133-1.605-0.396-2.3
				c-0.266-0.695-0.642-1.298-1.126-1.806c-0.485-0.506-1.071-0.898-1.755-1.175c-0.685-0.275-1.435-0.414-2.251-0.414
				c-0.817,0-1.562,0.15-2.234,0.447c-0.674,0.298-1.247,0.708-1.722,1.226c-0.476,0.519-0.843,1.125-1.109,1.82
				C216.371,121.316,216.238,122.072,216.238,122.889"/>
			<path clip-path="url(#SVGID_4_)" fill="#8B8B8D" d="M234.216,109.084c0-0.507,0.182-0.949,0.546-1.324s0.811-0.562,1.34-0.562
				c0.531,0,0.977,0.188,1.341,0.562c0.365,0.375,0.546,0.817,0.546,1.324c0,0.552-0.176,1.005-0.528,1.357
				c-0.354,0.354-0.808,0.529-1.358,0.529c-0.552,0-1.004-0.176-1.356-0.529C234.392,110.089,234.216,109.636,234.216,109.084
				 M234.812,115.142h2.582v15.493h-2.582V115.142z"/>
			<path clip-path="url(#SVGID_4_)" fill="#8B8B8D" d="M253.548,119.016c-0.552-0.662-1.147-1.143-1.787-1.44
				c-0.641-0.298-1.347-0.446-2.12-0.446c-0.859,0-1.621,0.148-2.283,0.446s-1.208,0.712-1.64,1.242
				c-0.43,0.529-0.755,1.142-0.977,1.837c-0.22,0.695-0.33,1.44-0.33,2.234c0,0.795,0.126,1.539,0.381,2.234
				c0.254,0.695,0.605,1.308,1.059,1.838c0.452,0.529,0.999,0.943,1.64,1.241c0.639,0.298,1.356,0.447,2.15,0.447
				c1.7,0,3.014-0.64,3.939-1.921l1.92,1.822c-0.75,0.859-1.632,1.488-2.647,1.886c-1.015,0.397-2.085,0.597-3.212,0.597
				c-1.19,0-2.283-0.199-3.276-0.597c-0.994-0.397-1.837-0.96-2.532-1.688s-1.236-1.589-1.622-2.582
				c-0.388-0.993-0.579-2.086-0.579-3.277c0-1.169,0.191-2.251,0.579-3.244c0.386-0.993,0.932-1.854,1.638-2.582
				c0.707-0.729,1.55-1.296,2.533-1.705c0.98-0.408,2.069-0.612,3.26-0.612c1.147,0,2.234,0.198,3.262,0.596
				s1.926,1.016,2.697,1.854L253.548,119.016z"/>
			<path clip-path="url(#SVGID_4_)" fill="#8B8B8D" d="M266.791,122.889c0-1.213,0.209-2.317,0.628-3.311
				c0.418-0.993,0.993-1.848,1.722-2.566c0.728-0.716,1.6-1.274,2.615-1.672c1.015-0.396,2.118-0.595,3.311-0.595
				c1.191,0,2.295,0.198,3.311,0.595c1.015,0.397,1.887,0.956,2.616,1.672c0.728,0.719,1.3,1.573,1.721,2.566
				c0.419,0.993,0.629,2.098,0.629,3.311c0,1.214-0.21,2.317-0.629,3.311c-0.421,0.993-0.993,1.849-1.721,2.566
				c-0.729,0.717-1.602,1.274-2.616,1.671c-1.016,0.398-2.119,0.597-3.311,0.597c-1.192,0-2.296-0.198-3.311-0.597
				c-1.016-0.396-1.888-0.954-2.615-1.671c-0.729-0.718-1.304-1.573-1.722-2.566C267,125.206,266.791,124.103,266.791,122.889
				 M269.571,122.889c0,0.816,0.126,1.572,0.381,2.268c0.253,0.695,0.622,1.303,1.109,1.82c0.484,0.52,1.063,0.928,1.736,1.226
				c0.674,0.298,1.43,0.446,2.269,0.446c0.838,0,1.594-0.148,2.269-0.446c0.671-0.298,1.252-0.706,1.736-1.226
				c0.485-0.518,0.856-1.125,1.109-1.82c0.255-0.695,0.381-1.451,0.381-2.268s-0.126-1.572-0.381-2.268
				c-0.253-0.695-0.624-1.302-1.109-1.82c-0.484-0.518-1.065-0.928-1.736-1.226c-0.675-0.297-1.431-0.447-2.269-0.447
				c-0.839,0-1.595,0.15-2.269,0.447c-0.673,0.298-1.252,0.708-1.736,1.226c-0.487,0.519-0.856,1.125-1.109,1.82
				C269.697,121.316,269.571,122.072,269.571,122.889"/>
			<path clip-path="url(#SVGID_4_)" fill="#8B8B8D" d="M288.673,117.327h-3.377v-2.186h3.377v-3.476
				c0-0.948,0.086-1.815,0.264-2.598c0.177-0.784,0.48-1.463,0.911-2.036c0.43-0.574,0.998-1.021,1.705-1.342
				c0.706-0.319,1.578-0.479,2.616-0.479c0.33,0,0.684,0.032,1.059,0.099c0.374,0.067,0.683,0.166,0.927,0.298l-0.364,2.318
				c-0.618-0.221-1.204-0.332-1.755-0.332c-0.662,0-1.181,0.116-1.556,0.348c-0.376,0.232-0.656,0.553-0.845,0.96
				c-0.187,0.408-0.298,0.9-0.331,1.474c-0.032,0.574-0.05,1.191-0.05,1.854v2.913h3.774v2.186h-3.774v13.308h-2.581V117.327z"/>
			<path clip-path="url(#SVGID_4_)" fill="#8B8B8D" d="M315.453,117.327h-4.568v7.746c0,0.509,0.012,0.977,0.034,1.408
				c0.022,0.43,0.109,0.806,0.265,1.125c0.153,0.32,0.386,0.574,0.695,0.761c0.309,0.188,0.75,0.282,1.323,0.282
				c0.375,0,0.762-0.044,1.159-0.132c0.396-0.089,0.771-0.222,1.126-0.398l0.099,2.351c-0.441,0.198-0.933,0.342-1.472,0.431
				c-0.542,0.087-1.056,0.133-1.54,0.133c-0.928,0-1.667-0.122-2.219-0.365c-0.551-0.242-0.982-0.584-1.291-1.026
				c-0.31-0.44-0.514-0.987-0.612-1.639c-0.1-0.65-0.149-1.374-0.149-2.168v-8.508h-3.377v-2.186h3.377v-4.402h2.582v4.402h4.568
				V117.327z"/>
			<path clip-path="url(#SVGID_4_)" fill="#8B8B8D" d="M332.471,127.821c-0.928,1.192-1.944,2.025-3.047,2.5
				c-1.104,0.474-2.384,0.712-3.84,0.712c-1.214,0-2.307-0.216-3.278-0.646c-0.971-0.43-1.793-1.009-2.466-1.737
				c-0.674-0.729-1.192-1.589-1.557-2.582c-0.362-0.994-0.545-2.053-0.545-3.179c0-1.191,0.198-2.289,0.597-3.294
				c0.396-1.004,0.947-1.864,1.655-2.582c0.704-0.717,1.543-1.274,2.515-1.672c0.971-0.397,2.03-0.596,3.177-0.596
				c1.082,0,2.075,0.182,2.98,0.546s1.683,0.894,2.333,1.589c0.652,0.695,1.154,1.546,1.508,2.55
				c0.353,1.004,0.529,2.146,0.529,3.426v0.828h-12.514c0.044,0.662,0.203,1.297,0.479,1.903c0.276,0.607,0.636,1.136,1.076,1.589
				c0.441,0.453,0.96,0.811,1.557,1.076c0.596,0.265,1.247,0.397,1.953,0.397c1.125,0,2.073-0.199,2.847-0.597
				c0.772-0.396,1.467-0.982,2.085-1.754L332.471,127.821z M330.252,121.498c-0.045-1.324-0.475-2.383-1.292-3.178
				c-0.816-0.795-1.941-1.191-3.376-1.191c-1.436,0-2.594,0.396-3.477,1.191s-1.413,1.854-1.589,3.178H330.252z"/>
			<path clip-path="url(#SVGID_4_)" fill="#8B8B8D" d="M337.369,126.563c0.508,0.64,1.064,1.148,1.672,1.522
				c0.607,0.376,1.374,0.563,2.302,0.563c0.396,0,0.799-0.044,1.208-0.133c0.408-0.088,0.776-0.231,1.108-0.431
				c0.331-0.198,0.596-0.447,0.795-0.745c0.199-0.297,0.298-0.656,0.298-1.075s-0.094-0.762-0.281-1.026s-0.437-0.491-0.745-0.679
				c-0.31-0.188-0.661-0.336-1.061-0.447c-0.396-0.109-0.805-0.209-1.224-0.298c-0.729-0.153-1.425-0.331-2.086-0.529
				c-0.662-0.199-1.242-0.459-1.737-0.778c-0.498-0.319-0.894-0.733-1.193-1.241c-0.297-0.509-0.446-1.158-0.446-1.953
				c0-0.75,0.166-1.413,0.498-1.986c0.33-0.574,0.771-1.049,1.323-1.424s1.17-0.662,1.854-0.86c0.684-0.199,1.389-0.298,2.118-0.298
				c1.103,0,2.124,0.22,3.062,0.662c0.937,0.442,1.671,1.158,2.201,2.151l-2.152,1.424c-0.33-0.552-0.768-0.998-1.308-1.341
				c-0.541-0.342-1.197-0.513-1.971-0.513c-0.352,0-0.71,0.043-1.074,0.132s-0.69,0.22-0.977,0.397
				c-0.287,0.177-0.524,0.403-0.713,0.679c-0.187,0.276-0.281,0.59-0.281,0.943c0,0.331,0.105,0.611,0.315,0.845
				c0.208,0.231,0.497,0.436,0.859,0.612c0.365,0.177,0.784,0.331,1.26,0.463c0.474,0.133,0.965,0.243,1.473,0.331
				c0.684,0.133,1.335,0.304,1.953,0.514c0.617,0.21,1.159,0.491,1.621,0.844c0.464,0.353,0.828,0.795,1.094,1.324
				c0.264,0.529,0.396,1.181,0.396,1.953c0,0.883-0.177,1.634-0.529,2.252c-0.353,0.616-0.822,1.12-1.407,1.506
				c-0.586,0.386-1.247,0.668-1.987,0.844c-0.738,0.177-1.495,0.265-2.266,0.265c-1.326,0-2.467-0.204-3.427-0.612
				c-0.961-0.408-1.827-1.163-2.599-2.268L337.369,126.563z"/>
			<path clip-path="url(#SVGID_4_)" fill="#8B8B8D" d="M359.616,117.327h-4.569v7.746c0,0.509,0.011,0.977,0.034,1.408
				c0.021,0.43,0.109,0.806,0.265,1.125c0.153,0.32,0.386,0.574,0.695,0.761c0.309,0.188,0.75,0.282,1.324,0.282
				c0.375,0,0.761-0.044,1.158-0.132c0.396-0.089,0.771-0.222,1.125-0.398l0.099,2.351c-0.441,0.198-0.933,0.342-1.472,0.431
				c-0.541,0.087-1.055,0.133-1.539,0.133c-0.928,0-1.667-0.122-2.218-0.365c-0.553-0.242-0.983-0.584-1.292-1.026
				c-0.31-0.44-0.514-0.987-0.612-1.639c-0.099-0.65-0.149-1.374-0.149-2.168v-8.508h-3.376v-2.186h3.376v-4.402h2.582v4.402h4.569
				V117.327z"/>
			<path clip-path="url(#SVGID_4_)" fill="#8B8B8D" d="M362.463,109.084c0-0.507,0.182-0.949,0.546-1.324
				c0.365-0.375,0.812-0.562,1.341-0.562c0.53,0,0.977,0.188,1.34,0.562c0.365,0.375,0.547,0.817,0.547,1.324
				c0,0.552-0.176,1.005-0.529,1.357c-0.354,0.354-0.807,0.529-1.357,0.529c-0.552,0-1.005-0.176-1.357-0.529
				C362.64,110.089,362.463,109.636,362.463,109.084 M363.059,115.142h2.582v15.493h-2.582V115.142z"/>
			<path clip-path="url(#SVGID_4_)" fill="#8B8B8D" d="M370.771,118.816c0-0.706-0.021-1.368-0.065-1.985
				c-0.046-0.618-0.066-1.181-0.066-1.688h2.449c0,0.419,0.011,0.839,0.034,1.258c0.02,0.419,0.032,0.85,0.032,1.291h0.065
				c0.178-0.375,0.426-0.739,0.745-1.093c0.32-0.353,0.7-0.667,1.143-0.942c0.44-0.276,0.938-0.498,1.489-0.663
				c0.551-0.165,1.148-0.248,1.787-0.248c1.017,0,1.894,0.155,2.633,0.464c0.738,0.309,1.353,0.739,1.838,1.29
				c0.485,0.553,0.843,1.22,1.075,2.003c0.232,0.784,0.348,1.64,0.348,2.566v9.566h-2.583v-9.302c0-1.303-0.286-2.328-0.859-3.079
				c-0.574-0.75-1.468-1.126-2.682-1.126c-0.839,0-1.562,0.145-2.169,0.431c-0.606,0.287-1.103,0.695-1.489,1.225
				c-0.387,0.531-0.674,1.159-0.861,1.887c-0.188,0.729-0.281,1.535-0.281,2.417v7.548h-2.582V118.816z"/>
			<path clip-path="url(#SVGID_4_)" fill="#8B8B8D" d="M404.637,129.94c0,2.825-0.723,4.97-2.168,6.438
				c-1.446,1.467-3.536,2.201-6.273,2.201c-1.522,0-2.896-0.221-4.121-0.662c-1.226-0.441-2.39-1.202-3.492-2.284l1.854-2.118
				c0.816,0.882,1.683,1.551,2.599,2.003c0.915,0.452,1.971,0.678,3.161,0.678c1.148,0,2.103-0.171,2.863-0.513
				c0.762-0.342,1.363-0.807,1.806-1.391c0.44-0.585,0.749-1.252,0.926-2.003c0.177-0.75,0.265-1.533,0.265-2.35v-1.987h-0.066
				c-0.617,0.993-1.423,1.722-2.416,2.186c-0.993,0.463-2.008,0.696-3.045,0.696c-1.214,0-2.33-0.2-3.345-0.598
				c-1.016-0.396-1.887-0.948-2.615-1.655c-0.728-0.706-1.29-1.544-1.688-2.515c-0.396-0.972-0.596-2.03-0.596-3.179
				c0-1.258,0.199-2.395,0.596-3.41c0.398-1.015,0.955-1.87,1.673-2.565c0.717-0.695,1.583-1.23,2.599-1.605
				c1.015-0.374,2.14-0.562,3.377-0.562c0.528,0,1.059,0.061,1.589,0.182c0.528,0.121,1.042,0.31,1.539,0.563
				c0.496,0.254,0.944,0.573,1.341,0.96s0.729,0.834,0.992,1.341h0.066v-2.648h2.582V129.94z M391.064,122.889
				c0,0.794,0.144,1.529,0.431,2.201c0.286,0.674,0.679,1.259,1.175,1.755s1.075,0.889,1.737,1.175
				c0.664,0.287,1.368,0.432,2.12,0.432c0.882,0,1.665-0.155,2.35-0.465c0.685-0.309,1.264-0.723,1.737-1.241
				c0.475-0.518,0.834-1.114,1.078-1.788c0.242-0.673,0.362-1.384,0.362-2.135c0-0.839-0.133-1.605-0.396-2.3
				c-0.266-0.695-0.641-1.298-1.126-1.806c-0.485-0.506-1.07-0.898-1.755-1.175c-0.685-0.275-1.434-0.414-2.25-0.414
				c-0.817,0-1.562,0.15-2.235,0.447c-0.673,0.298-1.246,0.708-1.722,1.226c-0.475,0.519-0.844,1.125-1.108,1.82
				C391.196,121.316,391.064,122.072,391.064,122.889"/>
		</g>
		<g clip-path="url(#SVGID_2_)">
			<defs>
				<rect id="SVGID_5_" x="-79.061" y="-102" width="547.06" height="312.605"/>
			</defs>
			<clipPath id="SVGID_6_">
				<use xlink:href="#SVGID_5_"  overflow="visible"/>
			</clipPath>
			<g clip-path="url(#SVGID_6_)">
				<defs>
					<rect id="SVGID_7_" x="112.384" y="6.869" width="272.245" height="92.611"/>
				</defs>
				<clipPath id="SVGID_8_">
					<use xlink:href="#SVGID_7_"  overflow="visible"/>
				</clipPath>
				<g clip-path="url(#SVGID_8_)">
					<defs>
						<rect id="SVGID_9_" x="112.384" y="6.869" width="272.245" height="92.611"/>
					</defs>
					<clipPath id="SVGID_10_">
						<use xlink:href="#SVGID_9_"  overflow="visible"/>
					</clipPath>
					<path clip-path="url(#SVGID_10_)" fill="#231F20" d="M384.629,8.903l-0.253,3.812c-2.794-0.259-6.604-0.385-9.019-0.385
						c-26.299,0-39.383,20.585-39.383,41.163c0,20.58,13.084,41.033,39.256,41.033c2.414,0,6.352-0.126,9.146-0.379l0.253,3.811
						c-2.794,0.253-6.732,0.38-9.398,0.38c-28.714,0-43.068-22.356-43.068-44.845c0-22.613,14.354-44.975,43.195-44.975
						C378.024,8.519,381.835,8.646,384.629,8.903"/>
					<path clip-path="url(#SVGID_10_)" fill="#231F20" d="M319.585,22.493l-3.558,1.528c-3.559-8.007-10.796-12.071-19.183-12.577
						V7.633C306.755,8.139,315.521,12.968,319.585,22.493"/>
					<path clip-path="url(#SVGID_10_)" fill="#231F20" d="M320.091,75.091c0,13.722-10.669,23.632-24.517,24.391v-3.811
						c11.812-0.892,20.707-9.02,20.707-20.58c0-10.675-12.447-16.262-22.615-19.821c-11.428-3.938-25.149-10.288-25.149-23.372
						c0-13.722,10.543-23.506,24.518-24.265v3.812c-11.939,0.759-20.706,9.02-20.706,20.453c0,10.669,12.444,16.262,22.614,19.814
						C306.376,55.656,320.091,62.007,320.091,75.091"/>
					<path clip-path="url(#SVGID_10_)" fill="#231F20" d="M291.764,95.671v3.81c-10.038-0.505-18.676-5.334-22.741-14.991
						l3.559-1.522C276.139,90.968,283.376,95.165,291.764,95.671"/>
					<polygon clip-path="url(#SVGID_10_)" fill="#231F20" points="222.655,6.869 256.704,97.32 256.698,97.32 253.146,98.591 
						243.851,73.947 224.685,23.131 224.68,23.131 222.655,17.735 220.627,23.131 220.62,23.131 201.461,73.947 192.166,98.591 
						188.607,97.32 					"/>
					<polygon clip-path="url(#SVGID_10_)" fill="#231F20" points="238.407,70.136 239.803,73.947 205.503,73.947 206.899,70.136 
											"/>
					<rect x="132.71" y="9.029" clip-path="url(#SVGID_10_)" fill="#231F20" width="59.203" height="3.812"/>
					<rect x="160.406" y="16.652" clip-path="url(#SVGID_10_)" fill="#231F20" width="3.811" height="81.306"/>
					<rect x="112.384" y="9.029" clip-path="url(#SVGID_10_)" fill="#F39331" width="6.353" height="6.353"/>
					<rect x="113.654" y="29.862" clip-path="url(#SVGID_10_)" fill="#231F20" width="3.812" height="68.096"/>
				</g>
			</g>
			<path clip-path="url(#SVGID_6_)" fill="#231F20" d="M101.335,53.875c0,10.312-3.228,19.863-8.732,27.706l-6.347-6.346
				c3.971-6.166,6.28-13.496,6.28-21.36c0-21.152-16.702-38.47-37.612-39.466V5.604c12.589,0.484,23.936,5.786,32.262,14.112
				C95.93,28.461,101.335,40.533,101.335,53.875"/>
			<path clip-path="url(#SVGID_6_)" fill="#F39331" d="M91.062,85.415l-0.391-0.396l-0.39-0.391l-6.271-6.264v-0.005l-0.391-0.391
				l-0.39-0.385v-0.007l-5.291-5.29l-7.051-7.045l13.799-2.887l-29.764-7.975l-1.897-0.506l1.897,7.077l6.588,24.578l2.882-13.793
				L76.73,84.073l0.391,0.396l0.396,0.392c-6.274,4.966-14.085,8.072-22.592,8.479v8.804c10.949-0.422,20.96-4.487,28.856-11.016
				l0.39,0.392l0.396,0.391l10.956,10.955l6.5-6.495L91.068,85.415H91.062z"/>
			<path clip-path="url(#SVGID_6_)" fill="#231F20" d="M51.124,93.34v8.804c-12.583-0.482-23.929-5.785-32.255-14.11
				C10.125,79.288,4.72,67.217,4.72,53.875s5.405-25.414,14.149-34.159c8.326-8.325,19.672-13.627,32.255-14.111v8.805
				c-20.91,0.996-37.605,18.313-37.605,39.466C13.519,75.025,30.214,92.344,51.124,93.34"/>
		</g>
	</g>
</g>
</svg>
