<?xml version="1.0" encoding="utf-8"?>
<!-- Generator: Adobe Illustrator 16.0.0, SVG Export Plug-In . SVG Version: 6.00 Build 0)  -->
<!DOCTYPE svg PUBLIC "-//W3C//DTD SVG 1.1//EN" "http://www.w3.org/Graphics/SVG/1.1/DTD/svg11.dtd">
<svg version="1.1" id="Ebene_1" xmlns="http://www.w3.org/2000/svg" xmlns:xlink="http://www.w3.org/1999/xlink" x="0px" y="0px"
	 width="231.333px" height="197.334px" viewBox="0 0 231.333 197.334" enable-background="new 0 0 231.333 197.334"
	 xml:space="preserve">
<g>
	<polygon fill="#D3D2D1" points="207.477,136.369 209.973,132.479 221.352,71.976 164.809,71.976 156.245,121.059 129.12,125.646 
		130.799,129.783 155.952,139.131 	"/>
</g>
<g>
	<polygon fill="#7F674B" points="118.698,133.982 156.245,151.037 224.684,141.43 225.396,137.485 210.213,131.875 208.924,136.051 
		155.952,139.131 130.799,129.783 118.698,130.664 	"/>
</g>
<g>
	<polygon fill="#F5952F" points="172.903,122.875 172.903,127.182 159.932,127.555 161.071,123.516 	"/>
</g>
<g>
	<path fill="#B49BBB" d="M115.76,101.992"/>
</g>
<g>
	<path fill="#B588BC" d="M119.827,154.771c0,0-5.307,2.227-27.52-1.453c1.459-11.484,3.369-29.892,5.342-36.409
		c0.582-1.923,0.667-4.013,0.817-8.247c-6.159-3.263,1.937-16.395,3.565-16.591c1.527-0.183,5.404,0.305,8.959,1.13"/>
</g>
<g>
	<path fill="#CDA98E" d="M119.053,80.946l-8.338,3.868l0.631,8.073l-4.922-1.504l0.106-6.912c0,0-10.612-3.241-9.993-14.311
		c0.51-9.157,2.922-10.003,2.922-10.003l6.301-1.021l8.975,3.457l3.883,6.799L119.053,80.946z"/>
</g>
<g>
	<path fill="#CDA98E" d="M138.838,105.479c11.609,2.17,23.014,4.217,23.014,4.217s-0.32,3.297,1.836,3.699
		c2.154,0.402,2.996,1.135,2.996,1.135v7.217c0,0,3.607-6.369,1.766-11.283c-1.103-2.942-6.598-3.742-6.598-3.742l-22.006-5.34
		C139.846,101.381,138.846,102.557,138.838,105.479z"/>
</g>
<g>
	<path fill="#CDA98E" d="M111.415,156.643l0.359,25.801c0,0-3.979,1.652-3.99-0.402c-0.01-2.051,0-26.188,0-26.188L111.415,156.643z
		"/>
</g>
<g>
	<polyline fill="#CDA98E" points="101.299,155.061 101.274,155.717 100.377,183.033 96.182,183.557 97.649,154.771 	"/>
</g>
<g>
	<path fill="#45362E" d="M118.043,81.957c0,0,7.891-9.024,6.104-16.887c-1.785-7.863-5.973-13.357-14.139-13.16
		c-8.166,0.198-13.242,8.217-13.242,13.717c2.693-5.469,10.723,5.023,14.756,6.42c2.057,0.714,2.844-3.661,3.039-4.746
		C118.037,68.375,114.935,82.255,118.043,81.957z"/>
</g>
<g>
	<path fill="#45362E" d="M128.948,96.517c0,0-1.131-15.837-3.715-16.093c-2.578-0.255-4.104,7.646-2.523,14.497
		C124.29,101.775,128.948,96.517,128.948,96.517z"/>
</g>
<g>
	<path fill="#45362E" d="M122.068,112.66l0.114-8.352l4.859,1.091C127.042,105.399,123.236,113.43,122.068,112.66z"/>
</g>
<g>
	<path fill="#513B1B" d="M113.065,182.828l0.59,8.311c0,0-0.818,0.295-2.061,0.66c-0.197,0.062-0.43-0.502-0.646-0.441
		c-0.26,0.07-0.504,0.77-0.785,0.84c-3.393,0.885-8.248,1.74-9.785-0.107c-7.264-0.006-13.865-1.287-12.326-2.893
		s8.635-4.979,8.008-6.164c3.223,0.934,4.775,0.523,4.775,0.523l0.465,3.633l4.77-1.492l-0.324-2.23
		C105.745,183.467,112.198,184.387,113.065,182.828z"/>
</g>
<g>
	<path fill="#CDA98E" d="M86.331,100.502l-8.765-4.835l-4.87-4.093c0,0,1.404,6.151,2.801,7.745c1.391,1.59,7.24,3.984,10.439,4.168
		"/>
</g>
<g>
	<path fill="#6B4773" d="M112.045,88.223c0,0,3.715,2.508,4.73,5.003c0.493,1.211,0.965,3.079,2.41,3.272
		c1.445,0.191,20.66,3.83,20.66,3.83l-1.008,6.08l-22.062-4.148l-0.482,16.174l-5.631,0.748
		C110.663,119.182,108.577,87.522,112.045,88.223z"/>
</g>
<g>
	<path fill="#6B4773" d="M105.405,88.874v1.857c0,0-4.559,1.115-5.027,1.302c-0.467,0.187-5.1,10.42-5.1,10.42l-5.389,3.133
		c0,0-5.299-0.783-4.145-1.762c0.296-0.251,1.098-4.967,1.967-5.178c0.869-0.209,1.293,0.403,1.967-0.202
		c0.672-0.609,9.428-7.952,11.16-9.001C102.571,88.395,105.405,88.874,105.405,88.874z"/>
</g>
<g>
	<path fill="#010101" d="M153.674,135.658c-0.115,0-0.229-0.02-0.338-0.059l-25.699-9.236c-0.432-0.155-0.702-0.583-0.657-1.039
		s0.394-0.823,0.847-0.892l29.041-4.363c0.547-0.073,1.056,0.296,1.138,0.841c0.082,0.546-0.295,1.056-0.841,1.138l-25.12,3.773
		l21.779,7.828l55.05-2.773c0.551-0.026,1.021,0.396,1.05,0.948c0.027,0.552-0.397,1.021-0.948,1.05l-55.25,2.783
		C153.708,135.658,153.691,135.658,153.674,135.658z"/>
</g>
<g>
	<path fill="#010101" d="M158.73,106.586c-0.059,0-0.119-0.005-0.179-0.016c-0.544-0.099-0.904-0.619-0.807-1.162l1.203-6.65
		c0.099-0.543,0.619-0.907,1.162-0.806c0.544,0.098,0.904,0.619,0.807,1.162l-1.203,6.65
		C159.625,106.247,159.205,106.586,158.73,106.586z"/>
</g>
<g>
	<path fill="#010101" d="M210.213,132.875c-0.066,0-0.133-0.007-0.199-0.021l-35.084-7.135c-0.541-0.109-0.891-0.638-0.78-1.179
		c0.109-0.541,0.641-0.89,1.179-0.78l34.088,6.932l10.732-57.716h-54.501l-0.976,5.53c-0.095,0.543-0.617,0.907-1.158,0.811
		c-0.544-0.096-0.907-0.615-0.811-1.159l1.121-6.356c0.084-0.478,0.499-0.826,0.984-0.826h56.543c0.297,0,0.579,0.132,0.769,0.361
		c0.19,0.229,0.269,0.53,0.215,0.822l-11.139,59.899c-0.049,0.264-0.202,0.497-0.425,0.646
		C210.606,132.816,210.411,132.875,210.213,132.875z"/>
</g>
<g>
	<path fill="#010101" d="M166.685,123.777c-0.058,0-0.117-0.005-0.176-0.016l-9.668-1.719c-0.544-0.097-0.906-0.615-0.81-1.159
		c0.096-0.543,0.614-0.909,1.159-0.81l9.668,1.719c0.544,0.097,0.906,0.615,0.81,1.159
		C167.583,123.437,167.161,123.777,166.685,123.777z"/>
</g>
<g>
	<path fill="#010101" d="M156.246,122.059c-0.048,0-0.097-0.003-0.146-0.011c-0.546-0.08-0.924-0.588-0.844-1.135l1.666-11.363
		c0.079-0.546,0.573-0.931,1.135-0.844c0.546,0.08,0.924,0.588,0.844,1.135l-1.666,11.363
		C157.162,121.701,156.734,122.059,156.246,122.059z"/>
</g>
<g>
	<path fill="#010101" d="M155.833,140.531c-0.124,0-0.247-0.023-0.363-0.068l-25.033-9.748c-0.195-0.076-0.362-0.212-0.477-0.388
		l-2.824-4.361c-0.3-0.464-0.167-1.083,0.296-1.384c0.463-0.3,1.083-0.167,1.384,0.296l2.648,4.091l24.528,9.552l51.725-3.065
		l1.567-3.949c0.205-0.513,0.787-0.764,1.299-0.561c0.513,0.204,0.764,0.785,0.561,1.299l-1.803,4.541
		c-0.144,0.36-0.482,0.606-0.87,0.629l-52.578,3.115C155.872,140.53,155.852,140.531,155.833,140.531z"/>
</g>
<g>
	<path fill="#F5952F" d="M159.932,128.555c-0.262,0-0.513-0.103-0.699-0.285c-0.192-0.188-0.301-0.446-0.301-0.715v-3.895
		c0-0.542,0.432-0.984,0.973-1l13.504-0.371c0.283,0.01,0.532,0.096,0.725,0.283c0.193,0.188,0.303,0.447,0.303,0.717v3.977
		c0,0.544-0.435,0.988-0.979,1l-13.504,0.289C159.947,128.555,159.939,128.555,159.932,128.555z M160.932,124.633v1.9l11.504-0.246
		v-1.97L160.932,124.633z"/>
</g>
<g>
	<path fill="#F5952F" d="M178.759,120.053c-0.205,0-0.412-0.063-0.591-0.194c-0.445-0.326-0.541-0.952-0.214-1.397l1.926-2.623
		c0.325-0.444,0.951-0.541,1.397-0.214c0.445,0.326,0.541,0.952,0.214,1.397l-1.926,2.623
		C179.371,119.911,179.067,120.053,178.759,120.053z"/>
</g>
<g>
	<path fill="#F5952F" d="M186.523,126.65c-0.026,0-0.052-0.001-0.079-0.003l-5.889-0.459c-0.55-0.043-0.962-0.524-0.919-1.075
		s0.504-0.966,1.075-0.919l5.889,0.459c0.55,0.043,0.962,0.524,0.919,1.075C187.478,126.252,187.041,126.65,186.523,126.65z"/>
</g>
<g>
	<path fill="#F5952F" d="M155.082,122.746c-0.201,0-0.405-0.061-0.581-0.188l-3.58-2.564c-0.449-0.321-0.553-0.946-0.23-1.395
		c0.319-0.448,0.947-0.554,1.395-0.23l3.58,2.564c0.449,0.321,0.553,0.946,0.23,1.395
		C155.701,122.601,155.393,122.746,155.082,122.746z"/>
</g>
<g>
	<path fill="#F5952F" d="M153.496,126.646c-0.041,0-0.082-0.002-0.123-0.008l-7.35-0.906c-0.549-0.067-0.938-0.566-0.87-1.114
		s0.581-0.943,1.114-0.87l7.35,0.906c0.549,0.067,0.938,0.566,0.87,1.114C154.424,126.275,153.994,126.646,153.496,126.646z"/>
</g>
<g>
	<path fill="#010101" d="M117.057,83.008c-0.052,0-0.104-0.004-0.156-0.012c-2.506-0.398-2.031-4.558-1.53-8.962
		c0.161-1.408,0.327-2.864,0.259-3.469c-0.078-0.691-0.536-1.599-1.072-2.451c-0.126,1.917-0.517,3.975-1.562,4.715
		c-0.519,0.367-1.147,0.43-1.767,0.18c-0.086-0.035-0.167-0.081-0.24-0.138c-1.239-0.965-3.07-2.129-5.008-3.361
		c-4.039-2.567-7.062-4.567-8.539-6.334c-0.451,1.567-0.801,3.331-0.879,4.956c-0.026,0.552-0.489,0.973-1.047,0.951
		c-0.552-0.027-0.978-0.496-0.951-1.047c0.191-3.985,1.894-8.923,3.229-10.512c3.482-4.148,8.665-6.549,14.218-6.587
		c4.878-0.003,8.94,4.248,11.947,7.977c0.056,0.069,0.102,0.145,0.138,0.226c4.091,9.315,1.927,17.277-6.432,23.663
		C117.489,82.937,117.275,83.008,117.057,83.008z M113.579,64.121c0.281,0,0.557,0.119,0.751,0.339
		c0.308,0.35,3.016,3.485,3.287,5.881c0.094,0.831-0.062,2.194-0.259,3.919c-0.186,1.627-0.59,5.179-0.242,6.43
		c7.043-5.698,8.745-12.453,5.202-20.625c-2.505-3.094-6.26-7.128-10.259-7.128c-0.012,0-0.023,0-0.035,0
		c-2.917,0.02-8.448,0.809-12.699,5.874c-0.302,0.358-0.659,1.02-1.017,1.871c0.062,0.096,0.107,0.205,0.134,0.323
		c0.346,1.564,5.319,4.726,8.61,6.817c1.845,1.172,3.594,2.284,4.887,3.259c0.455-0.685,0.754-3.355,0.641-5.916
		c-0.019-0.424,0.231-0.813,0.625-0.972C113.326,64.145,113.453,64.121,113.579,64.121z"/>
</g>
<g>
	<path fill="#010101" d="M108.522,84.559c-3.103,0-6.677-0.938-9.722-4.202c-5.596-6.001-1.802-15.538-1.638-15.94
		c0.208-0.511,0.79-0.758,1.302-0.548c0.512,0.208,0.758,0.791,0.551,1.302c-0.035,0.087-3.472,8.761,1.248,13.822
		c6.087,6.529,14.755,2.132,14.842,2.087c0.49-0.255,1.095-0.064,1.349,0.426c0.255,0.49,0.064,1.094-0.425,1.349
		C115.971,82.883,112.669,84.558,108.522,84.559z"/>
</g>
<g>
	<path fill="#010101" d="M110.984,92.62c-0.326,0-0.645-0.16-0.835-0.456c-0.937-1.459-0.84-6.985-0.788-8.645
		c0.017-0.553,0.468-0.985,1.03-0.968c0.552,0.017,0.985,0.479,0.968,1.031c-0.096,3.101,0.071,6.855,0.474,7.502
		c0.29,0.467,0.153,1.086-0.312,1.379C111.354,92.569,111.167,92.62,110.984,92.62z"/>
</g>
<g>
	<path fill="#010101" d="M106.355,91.731c-0.534,0-0.977-0.422-0.998-0.96l-0.285-7.181c-0.022-0.552,0.407-1.017,0.959-1.039
		c0.545-0.021,1.018,0.407,1.039,0.959l0.285,7.181c0.022,0.552-0.407,1.017-0.959,1.039
		C106.382,91.73,106.369,91.731,106.355,91.731z"/>
</g>
<g>
	<path fill="#010101" d="M113.019,156.842c-8.353,0-20.257-2.41-20.912-2.544c-0.51-0.104-0.854-0.581-0.793-1.097
		c0.127-1.072,3.118-26.341,4.807-32.454c0.58-2.101,0.82-8.439,0.94-12.009c-1.253-0.71-2.192-2.046-2.739-3.91
		c-0.047-0.161-0.053-0.333-0.017-0.497c0.531-2.402,3.71-12.199,5.611-13.186c1.724-0.896,6.323-0.658,9.975,0.04
		c0.543,0.104,0.898,0.628,0.795,1.17c-0.104,0.542-0.629,0.893-1.17,0.794c-3.988-0.764-7.706-0.735-8.678-0.23
		c-0.844,0.713-3.637,7.835-4.521,11.588c0.338,1.037,0.967,2.254,2.104,2.662c0.408,0.147,0.675,0.541,0.66,0.975
		c-0.183,5.541-0.435,10.967-1.033,13.135c-1.471,5.326-4.074,26.552-4.639,31.239c6.266,1.219,20.621,3.454,25.105,1.658
		c1.149-1.73-0.803-14.721-2.231-24.229c-0.481-3.205-0.962-6.402-1.371-9.379c-0.076-0.548,0.307-1.052,0.854-1.127
		c0.544-0.086,1.051,0.308,1.126,0.854c0.409,2.97,0.888,6.158,1.368,9.355c2.934,19.524,3.438,25.35,1.124,26.331
		C117.921,156.604,115.645,156.842,113.019,156.842z"/>
</g>
<g>
	<path fill="#010101" d="M102.433,194.34c-1.053,0-4.116-0.343-4.372-1.868c-0.721-4.25,3.479-6.473,6.394-7.237
		c0.035-0.532,0.141-1.198,0.313-1.983c0.061-0.275,0.235-0.513,0.48-0.652c0.243-0.14,0.534-0.17,0.806-0.083
		c0.805,0.262,1.648,0.395,2.51,0.395c2.292,0,3.99-0.942,4.007-0.951c0.298-0.168,0.664-0.173,0.966-0.011
		c0.302,0.161,0.501,0.466,0.525,0.808c0.06,0.808,0.576,7.909,0.592,8.347c0.08,1.003-0.713,1.145-3.065,1.563
		c-0.326,0.06-0.651-0.049-0.869-0.189c-0.201,0.215-0.469,0.425-0.841,0.49c-1.665,0.291-3.827,0.689-5.812,1.187
		C103.566,194.277,103.017,194.34,102.433,194.34z M99.998,191.861c0.371,0.184,1.315,0.479,2.436,0.479
		c0.422,0,0.809-0.042,1.148-0.127c1.963-0.492,4.076-0.886,5.742-1.179c0.021-0.027,0.041-0.056,0.062-0.083
		c0.205-0.268,0.516-0.672,1.048-0.766c0.058-0.011,0.146-0.019,0.205-0.019c0.457,0,0.78,0.255,0.996,0.459
		c0.301-0.055,0.669-0.124,0.974-0.188c-0.088-1.279-0.274-3.878-0.438-6.142c-0.888,0.306-2.144,0.613-3.605,0.613
		c-0.689,0-1.372-0.068-2.038-0.205c-0.108,0.705-0.087,1-0.079,1.065c0.066,0.249,0.034,0.517-0.093,0.745
		c-0.145,0.261-0.399,0.443-0.692,0.497C105.6,187.024,99.666,188.167,99.998,191.861z"/>
</g>
<g>
	<path fill="#010101" d="M111.774,183.443c-0.546,0-0.992-0.438-1-0.986l-0.359-25.801c-0.008-0.552,0.434-1.006,0.986-1.014
		c0.005,0,0.009,0,0.014,0c0.546,0,0.992,0.438,1,0.986l0.359,25.801c0.008,0.552-0.434,1.006-0.986,1.014
		C111.783,183.443,111.779,183.443,111.774,183.443z"/>
</g>
<g>
	<path fill="#010101" d="M107.784,184.042c-0.55,0-0.997-0.444-1-0.994l-0.152-26.044c-0.003-0.553,0.441-1.003,0.994-1.006
		c0.002,0,0.004,0,0.006,0c0.55,0,0.997,0.444,1,0.994l0.152,26.044c0.003,0.553-0.441,1.003-0.994,1.006
		C107.788,184.042,107.786,184.042,107.784,184.042z"/>
</g>
<g>
	<path fill="#010101" d="M93.046,193.093c-2.467,0-4.965-0.353-5.916-1.629c-0.449-0.603-0.539-1.357-0.252-2.123
		c1.004-2.691,4.814-4.127,6.669-4.679c-0.053-0.543-0.021-1.252,0.249-2.072c0.13-0.394,0.488-0.667,0.902-0.687
		c0.439-0.029,0.797,0.218,0.964,0.598c0.178,0.407,0.426,0.64,0.802,0.756c1.352,0.417,3.761-0.812,4.498-1.275
		c0.305-0.19,0.69-0.205,1.008-0.032c0.317,0.172,0.519,0.501,0.524,0.862l0.072,4.277c0.009,0.552-0.431,1.007-0.983,1.017
		c-0.006,0-0.012,0-0.017,0c-0.545,0-0.99-0.437-1-0.983l-0.045-2.65c-1.274,0.575-3.118,1.167-4.643,0.697
		c-0.062-0.019-0.122-0.039-0.182-0.061c0.065,0.232,0.044,0.482-0.062,0.704c-0.131,0.273-0.381,0.473-0.677,0.541
		c-1.47,0.339-5.45,1.661-6.207,3.688c-0.062,0.168-0.034,0.206-0.018,0.229c0.338,0.451,2.296,1.023,6.317,0.75
		c2.268-0.153,3.018-0.265,3.24-0.307c0.338-0.168,0.755-0.138,1.07,0.112c0.322,0.257,0.456,0.691,0.333,1.086
		c-0.226,0.725-0.491,0.832-4.508,1.104C94.503,193.062,93.776,193.093,93.046,193.093z"/>
</g>
<g>
	<path fill="#010101" d="M100.378,184.033c-0.012,0-0.022,0-0.034-0.001c-0.552-0.018-0.984-0.48-0.966-1.032l0.922-27.973
		c0.019-0.552,0.503-1.012,1.032-0.966c0.552,0.018,0.984,0.48,0.966,1.032l-0.922,27.973
		C101.359,183.606,100.916,184.033,100.378,184.033z"/>
</g>
<g>
	<path fill="#010101" d="M96.183,184.557c-0.018,0-0.034,0-0.052-0.001c-0.552-0.028-0.976-0.498-0.948-1.05l1.467-28.785
		c0.028-0.553,0.495-0.981,1.05-0.948c0.552,0.028,0.976,0.498,0.948,1.05l-1.467,28.785
		C97.154,184.142,96.711,184.557,96.183,184.557z"/>
</g>
<g>
	<path fill="#010101" d="M167.108,121.986c-1.01,0-1.817-0.674-1.923-0.766c-0.289-0.253-0.408-0.648-0.308-1.019
		c0.006-0.021,0.609-2.338,0.073-5.696c-2.385-1.068-3.165-2.305-3.391-3.185c-2.731-0.453-12.227-2.043-21.896-3.836
		c-0.543-0.101-0.901-0.623-0.801-1.166c0.102-0.544,0.621-0.905,1.166-0.801c11.383,2.11,22.522,3.939,22.634,3.957
		c0.309,0.051,0.604,0.17,0.75,0.446c0.146,0.277,0.182,0.532,0.05,0.815c-0.015,0.226,0.416,1.2,2.75,2.131
		c0.317,0.126,0.549,0.406,0.612,0.742c0.555,2.924,0.33,5.222,0.141,6.354c0.081,0.022,0.149,0.029,0.2,0.015
		c0.103-0.034,0.348-0.294,0.535-1.041c0.706-2.831,0.248-5.332,0.243-5.357c-0.017-0.086-0.021-0.176-0.015-0.263
		c0.017-0.217,0.362-5.313-3.2-5.6c-1.864-0.146-9.97-1.899-24.088-5.211c-0.537-0.126-0.871-0.664-0.745-1.202
		c0.127-0.538,0.666-0.869,1.202-0.745c17.463,4.096,22.575,5.069,23.789,5.164c4.37,0.352,5.21,5.065,5.045,7.622
		c0.099,0.618,0.43,3.186-0.291,6.078c-0.34,1.351-0.972,2.179-1.88,2.463C167.538,121.957,167.319,121.986,167.108,121.986z"/>
</g>
<g>
	<path fill="#010101" d="M128.81,98.318c-0.013,0-0.025,0-0.038,0c-0.552-0.021-0.982-0.484-0.962-1.036
		c0.13-3.544-0.068-13.297-2.51-15.83c-0.42-0.435-0.769-0.485-0.995-0.485c-0.029,0-0.079,0-0.182,0.116
		c-1.355,1.546-1.025,9.383-0.358,14.455c0.072,0.547-0.313,1.05-0.86,1.122c-0.565,0.071-1.05-0.313-1.122-0.861
		c-0.289-2.189-1.604-13.25,0.838-16.034c0.457-0.522,1.04-0.798,1.685-0.798c0.914,0,1.733,0.369,2.436,1.098
		c3.468,3.598,3.119,15.9,3.067,17.291C129.789,97.895,129.345,98.318,128.81,98.318z"/>
</g>
<g>
	<path fill="#010101" d="M122.622,114.014c-0.296,0-0.575-0.088-0.812-0.262c-0.725-0.532-0.701-1.54-0.62-2.252
		c0.424-3.723,0.006-7.03,0.002-7.062c-0.071-0.548,0.314-1.05,0.862-1.12c0.549-0.077,1.05,0.314,1.12,0.862
		c0.019,0.141,0.431,3.395,0.038,7.216c0.866-1.036,2.054-3.136,2.253-5.089c0.057-0.549,0.561-0.937,1.097-0.894
		c0.55,0.057,0.949,0.547,0.894,1.097c-0.312,3.055-2.573,6.654-4.137,7.349C123.083,113.962,122.848,114.014,122.622,114.014z"/>
</g>
<g>
	<path fill="#010101" d="M157.016,148.146c-0.139,0-0.276-0.028-0.404-0.085l-37.189-16.418c-0.398-0.177-0.638-0.591-0.59-1.024
		s0.371-0.786,0.799-0.871l9.293-1.848c0.546-0.115,1.068,0.244,1.176,0.785c0.108,0.542-0.244,1.068-0.785,1.176l-6.188,1.23
		l34.032,15.024l64.614-9.129l-11.891-4.169c-0.521-0.183-0.795-0.753-0.612-1.274c0.182-0.52,0.752-0.799,1.274-0.612l15.768,5.527
		c0.435,0.152,0.709,0.583,0.664,1.042s-0.398,0.827-0.855,0.892l-68.965,9.744C157.11,148.144,157.063,148.146,157.016,148.146z"/>
</g>
<g>
	<path fill="#010101" d="M156.245,152.037c-0.143,0-0.283-0.03-0.413-0.09l-37.547-17.055c-0.503-0.229-0.726-0.821-0.497-1.323
		c0.228-0.503,0.82-0.729,1.323-0.497l37.282,16.935l67.531-9.48l1.104-3.431c0.17-0.525,0.736-0.811,1.259-0.646
		c0.525,0.17,0.814,0.733,0.646,1.259l-1.297,4.027c-0.118,0.365-0.434,0.63-0.813,0.684l-68.439,9.607
		C156.337,152.034,156.291,152.037,156.245,152.037z"/>
</g>
<g>
	<path fill="#010101" d="M156.246,152.037c-0.064,0-0.13-0.006-0.195-0.02c-0.542-0.107-0.894-0.633-0.786-1.175l0.771-3.891
		c0.106-0.542,0.635-0.9,1.175-0.786c0.542,0.107,0.894,0.633,0.786,1.175l-0.771,3.891
		C157.131,151.708,156.713,152.037,156.246,152.037z"/>
</g>
<g>
	<path fill="#010101" d="M215.829,183.504c-0.258,0-0.506-0.1-0.692-0.278c-0.196-0.188-0.308-0.449-0.308-0.722v-39.83
		c0-0.553,0.447-1,1-1s1,0.447,1,1v28.56l0.186-28.729c0.004-0.55,0.45-0.993,1-0.993c0.002,0,0.004,0,0.007,0
		c0.552,0.004,0.997,0.454,0.993,1.007l-0.258,39.914c-0.004,0.533-0.426,0.971-0.96,0.992l-1.928,0.078
		C215.856,183.504,215.842,183.504,215.829,183.504z"/>
</g>
<g>
	<path fill="#010101" d="M161.852,190.197c-0.083,0-0.167-0.011-0.249-0.031l-1.562-0.402c-0.442-0.114-0.751-0.513-0.751-0.969
		v-38.322c0-0.553,0.447-1,1-1c0.469,0,0.862,0.323,0.971,0.759c0.166-0.122,0.37-0.194,0.592-0.194c0.553,0,1,0.447,1,1v38.16
		c0,0.31-0.143,0.601-0.388,0.79C162.288,190.125,162.072,190.197,161.852,190.197z"/>
</g>
<g>
	<path fill="#010101" d="M130.975,173.295c-0.102,0-0.203-0.016-0.303-0.047l-1.273-0.404c-0.415-0.132-0.697-0.518-0.697-0.953
		v-32.76c0-0.553,0.447-1,1-1c0.467,0,0.858,0.319,0.969,0.751c0.167-0.122,0.384-0.166,0.599-0.192
		c0.552,0.005,0.996,0.456,0.991,1.009l-0.285,32.605c-0.003,0.317-0.156,0.614-0.413,0.801
		C131.389,173.229,131.183,173.295,130.975,173.295z"/>
</g>
<g>
	<path fill="#010101" d="M178.76,166.107h-1.574c-0.553,0-1-0.447-1-1V148.1c0-0.553,0.447-1,1-1s1,0.447,1,1v0.178
		c0.162-0.114,0.36-0.182,0.574-0.182c0.553,0,1,0.447,1,1v16.012C179.76,165.66,179.313,166.107,178.76,166.107z"/>
</g>
<g>
	<polyline fill="#8A6B3D" points="73.756,95.577 80.864,132.479 22.775,143.805 6.584,64.665 65.563,55.857 72.696,91.574 	"/>
	<path fill="#010101" d="M22.774,144.805c-0.466,0-0.882-0.326-0.979-0.8L5.604,64.865c-0.055-0.269,0.003-0.548,0.16-0.773
		s0.4-0.375,0.672-0.416l58.979-8.808c0.525-0.08,1.023,0.271,1.128,0.793l7.133,35.717c0.108,0.542-0.243,1.068-0.784,1.176
		c-0.546,0.107-1.068-0.243-1.177-0.785l-6.946-34.783L7.775,65.498l15.781,77.136l56.136-10.946l-6.919-35.922
		c-0.104-0.542,0.251-1.066,0.793-1.171c0.545-0.104,1.066,0.25,1.172,0.793l7.107,36.901c0.104,0.542-0.25,1.065-0.791,1.171
		l-58.088,11.326C22.902,144.799,22.838,144.805,22.774,144.805z"/>
</g>
<g>
	<path fill="#F7F8F8" d="M62.094,60.879l-49.059,8.074c0,0,6.174,47.082,14.461,69.06c14.445-3.355,51.301-10.832,51.301-10.832
		S65.051,82.083,62.094,60.879z"/>
	<path fill="#010101" d="M27.497,139.014c-0.408,0-0.786-0.251-0.936-0.647c-8.233-21.834-14.456-68.811-14.518-69.283
		c-0.07-0.535,0.297-1.029,0.829-1.117l49.06-8.074c0.266-0.043,0.538,0.022,0.755,0.182s0.36,0.4,0.397,0.667
		c2.913,20.885,16.532,65.698,16.67,66.148c0.082,0.271,0.046,0.562-0.098,0.804c-0.145,0.242-0.385,0.412-0.66,0.469
		c-0.369,0.074-37.007,7.512-51.273,10.825C27.647,139.005,27.571,139.014,27.497,139.014z M14.156,69.783
		c0.919,6.712,6.617,46.875,13.972,67.059c13.38-3.072,43.341-9.189,49.395-10.422c-2.046-6.805-13.337-44.819-16.272-64.388
		L14.156,69.783z"/>
</g>
<g>
	<path fill="#010101" d="M86.33,100.887c-0.134,0-0.27-0.026-0.4-0.084l-8.305-3.636c-0.155-0.068-0.29-0.174-0.394-0.309
		c-1.268-1.66-2.72-3.241-3.615-3.984c0.275,0.873,0.971,2.265,1.776,3.49c0.304,0.461,0.176,1.082-0.285,1.385
		c-0.462,0.304-1.082,0.176-1.385-0.286c-1.486-2.258-2.997-5.23-1.761-6.568c0.284-0.308,0.67-0.476,1.117-0.446
		c1.545,0.072,4.098,3.065,5.584,4.989l8.069,3.533c0.506,0.222,0.736,0.812,0.515,1.317
		C87.083,100.663,86.715,100.887,86.33,100.887z"/>
</g>
<g>
	<path fill="#29AA4E" d="M24.731,89.049c-0.493,0-0.922-0.364-0.99-0.866l-1.182-8.716c-0.049-0.362,0.103-0.721,0.396-0.938
		c0.293-0.218,0.681-0.257,1.013-0.104l3.578,1.651c0.502,0.231,0.721,0.826,0.489,1.327c-0.23,0.501-0.823,0.721-1.327,0.489
		l-1.924-0.888l0.938,6.91c0.074,0.547-0.31,1.051-0.856,1.125C24.821,89.046,24.776,89.049,24.731,89.049z"/>
</g>
<g>
	<path fill="#29AA4E" d="M20.678,82.857c-0.278,0-0.554-0.115-0.751-0.34c-0.365-0.415-0.324-1.047,0.091-1.411l2.873-2.524
		c0.416-0.365,1.048-0.324,1.411,0.091c0.365,0.415,0.324,1.047-0.091,1.411l-2.873,2.524
		C21.147,82.775,20.912,82.857,20.678,82.857z"/>
</g>
<g>
	<path fill="#29AA4E" d="M28.089,107.459c-0.481,0-0.905-0.348-0.985-0.838l-1.451-8.829c-0.06-0.361,0.083-0.726,0.371-0.95
		c0.289-0.226,0.679-0.275,1.012-0.13l3.752,1.623c0.508,0.22,0.74,0.808,0.521,1.314s-0.807,0.74-1.314,0.521l-2.071-0.896
		l1.153,7.021c0.09,0.545-0.279,1.06-0.824,1.148C28.198,107.455,28.143,107.459,28.089,107.459z"/>
</g>
<g>
	<path fill="#29AA4E" d="M23.725,101.323c-0.27,0-0.538-0.108-0.735-0.321c-0.375-0.406-0.35-1.038,0.056-1.413l2.915-2.693
		c0.404-0.374,1.037-0.352,1.413,0.056c0.375,0.406,0.35,1.039-0.056,1.414l-2.915,2.692
		C24.21,101.235,23.967,101.323,23.725,101.323z"/>
</g>
<g>
	<path fill="#DE372D" d="M33.013,125.772c-0.136,0-0.271-0.027-0.399-0.083l-3.676-1.602c-0.506-0.221-0.738-0.811-0.518-1.316
		c0.22-0.505,0.809-0.74,1.316-0.518l1.933,0.842l-1.401-7.225c-0.105-0.542,0.249-1.067,0.791-1.172
		c0.545-0.104,1.066,0.249,1.172,0.791l1.764,9.092c0.071,0.364-0.066,0.738-0.356,0.971
		C33.458,125.697,33.237,125.772,33.013,125.772z"/>
</g>
<g>
	<path fill="#DE372D" d="M33.013,125.772c-0.271,0-0.54-0.109-0.736-0.324c-0.374-0.406-0.347-1.039,0.061-1.413l2.867-2.631
		c0.404-0.373,1.04-0.347,1.412,0.062c0.374,0.406,0.347,1.039-0.061,1.413l-2.867,2.631
		C33.498,125.686,33.255,125.772,33.013,125.772z"/>
</g>
<g>
	<polygon fill="#4C391F" points="47.061,57.213 45.233,65.488 28.75,68.375 24.027,60.879 	"/>
	<path fill="#010101" d="M28.75,69.375c-0.34,0-0.661-0.173-0.846-0.467l-4.724-7.495c-0.179-0.284-0.204-0.64-0.065-0.946
		s0.422-0.522,0.754-0.575l23.034-3.666c0.331-0.05,0.659,0.062,0.885,0.302c0.228,0.241,0.32,0.578,0.249,0.901l-1.828,8.274
		c-0.088,0.396-0.405,0.699-0.804,0.769l-16.482,2.887C28.866,69.37,28.807,69.375,28.75,69.375z M25.681,61.629l3.558,5.645
		l15.162-2.656l1.367-6.187L25.681,61.629z"/>
</g>
<g>
	<path fill="#010101" d="M89.583,107.407c-1.201,0-4.988-1.231-5.675-1.874c-0.505-0.473-1.027-0.961,2.192-7.477
		c0.201-0.406,0.649-0.625,1.098-0.536l1.635,0.335c2.438-2.135,10.573-9.248,11.461-9.825c1.085-0.708,3.809-0.797,4.618-0.808
		c0.004,0,0.009,0,0.013,0c0.547,0,0.992,0.439,1,0.987c0.007,0.552-0.435,1.006-0.986,1.013c-1.358,0.018-3.151,0.222-3.553,0.484
		c-0.656,0.432-7.468,6.351-11.608,9.98c-0.235,0.206-0.558,0.289-0.86,0.228l-1.36-0.279c-0.854,1.783-1.691,3.728-1.944,4.608
		c0.932,0.405,3.199,1.115,3.842,1.166c0.588-0.227,2.871-1.584,4.74-2.769c0.468-0.296,1.085-0.157,1.38,0.31
		c0.296,0.466,0.157,1.084-0.31,1.38c-3.075,1.95-4.934,2.981-5.521,3.066C89.697,107.404,89.643,107.407,89.583,107.407z"/>
</g>
<g>
	<path fill="#010101" d="M96.917,118.795h-1.344c-0.285,0-0.558-0.122-0.747-0.336c-0.19-0.213-0.279-0.497-0.246-0.781l1.209-10.27
		c0.064-0.549,0.56-0.943,1.11-0.876c0.548,0.064,0.94,0.562,0.876,1.11l-1.077,9.152h0.219c0.553,0,1,0.447,1,1
		S97.469,118.795,96.917,118.795z"/>
</g>
<g>
	<path fill="#010101" d="M139.231,108.314c-0.083,0-0.166-0.011-0.248-0.031c-1.314-0.337-6.603-1.337-11.716-2.304
		c-5.846-1.105-11.368-2.149-12.416-2.466c-0.529-0.159-0.829-0.717-0.669-1.245c0.158-0.528,0.716-0.832,1.245-0.669
		c0.947,0.285,6.932,1.416,12.211,2.415c4.408,0.833,8.616,1.629,10.751,2.083c0.283-1.567,0.884-4.051,1.252-5.528l-21.13-4.01
		c-0.313-0.06-0.58-0.266-0.718-0.555c-0.573-1.211-1.409-2.477-1.754-2.655c-0.997-0.497-1.66-1.765-2.253-3.021
		c-0.06-0.126-0.11-0.236-0.153-0.319c-0.255-0.194-1.11-0.572-1.904-0.837c-0.524-0.175-0.807-0.742-0.632-1.265
		s0.736-0.807,1.265-0.632c2.491,0.831,2.854,1.464,2.972,1.673c0.069,0.122,0.156,0.304,0.262,0.527
		c0.217,0.459,0.876,1.855,1.339,2.086c0.985,0.494,1.955,2.18,2.44,3.126l21.682,4.116c0.271,0.052,0.509,0.213,0.657,0.445
		c0.148,0.233,0.193,0.517,0.125,0.784c-0.79,3.096-1.607,6.665-1.607,7.282c0,0.309-0.143,0.601-0.387,0.79
		C139.667,108.242,139.451,108.314,139.231,108.314z"/>
</g>
<g>
	<path fill="#010101" d="M84.825,105.078c-0.126,0-0.254-0.023-0.378-0.074c-0.209-0.085-5.169-2.117-9.001-4.238
		c-0.483-0.268-0.658-0.876-0.391-1.359c0.268-0.484,0.878-0.657,1.359-0.391c3.727,2.063,8.738,4.116,8.788,4.137
		c0.512,0.209,0.757,0.793,0.548,1.304C85.592,104.844,85.218,105.078,84.825,105.078z"/>
</g>
<g>
	<path fill="#010101" d="M109.704,121.068c-0.268,0-0.524-0.107-0.713-0.299c-0.193-0.196-0.297-0.465-0.286-0.74
		c0.041-1.053,1.016-25.83,1.918-29.535c0.131-0.537,0.672-0.867,1.208-0.735c0.537,0.131,0.866,0.671,0.735,1.208
		c-0.657,2.7-1.452,18.934-1.82,28.054c1.225-0.07,3.283-0.235,4.991-0.611c-0.12-3.677,0.032-14.435,0.039-14.935
		c0.008-0.547,0.454-0.985,1-0.985c0.005,0,0.01,0,0.015,0c0.552,0.008,0.993,0.462,0.985,1.015
		c-0.002,0.133-0.188,13.339-0.003,15.595c0.039,0.477-0.265,0.914-0.726,1.044c-2.882,0.814-7.141,0.921-7.321,0.925
		C109.719,121.068,109.711,121.068,109.704,121.068z"/>
</g>
<g>
	<path fill="#010101" d="M75.502,60.137c-0.062,0-0.125-0.003-0.188-0.011c-0.607-0.072-1.287-0.548-1.372-1.669
		c-0.16-2.042,1.902-3.583,2.416-3.935c-0.566-1.001-1.536-2.232-2.381-3.305c-1.319-1.676-2.685-3.408-3.434-5.114
		c-0.188-0.426-0.057-0.925,0.316-1.204c1.013-0.756,7.965-5.513,8.261-5.714c0.439-0.302,1.036-0.204,1.358,0.217
		c8.288,10.813,8.288,11.117,8.288,11.537c0,0.044-0.668,4.507-2.391,4.787c-0.341,0.057-1.174,0.042-1.608-1.262
		c-0.368-1.101-0.341-2.042,0.083-2.797c0.45-0.805,1.196-1.088,1.454-1.165c-1.282-1.812-4.478-6.043-6.838-9.131
		c-1.583,1.085-5.149,3.532-6.735,4.647c0.7,1.274,1.773,2.637,2.816,3.961c2.027,2.574,3.778,4.797,3.165,6.703
		C78.16,58.4,76.866,60.137,75.502,60.137z"/>
</g>
<g>
	<path fill="#010101" d="M82.561,24.76c-0.866,0-1.192-0.565-1.275-0.752c-0.402-0.898,0.205-1.897,2.242-3.686
		c0.186-0.162,0.413-0.244,0.641-0.249c-0.295-3.205-1.251-10.066-2.01-15.027c-0.07-0.458,0.183-0.903,0.61-1.077
		c0.429-0.174,0.921-0.033,1.19,0.342c1.062,1.479,4.545,6.438,4.799,8.197c0.078,0.546-0.301,1.054-0.848,1.132
		c-0.552,0.075-1.054-0.301-1.133-0.847c-0.074-0.517-0.905-1.995-1.995-3.704c0.725,5.003,1.642,11.85,1.425,13.053
		c-0.261,1.448-2.368,2.478-3.378,2.601C82.735,24.755,82.645,24.76,82.561,24.76z"/>
</g>
<g>
	<path fill="#FFFFFF" d="M64.711,30.144c0,0-2.406-0.036-2.146,1.7c0.268,1.732,3.75-1.206,3.75-1.206l-1.473-17.217l-10.699,5.337
		l1.158,15.473c0,0-2.818,4.342-3.84,2.447c0,0-0.781-1.77,2.455-3.014"/>
	<path fill="#010101" d="M52.151,38.157c-0.021,0-0.044,0-0.066-0.001c-0.367-0.015-1.052-0.165-1.503-1.002
		c-0.101-0.218-0.404-1.005,0.009-1.998c0.421-1.013,1.419-1.829,2.968-2.424c0.207-0.08,0.426-0.085,0.626-0.03l-1.038-13.868
		c-0.03-0.405,0.188-0.788,0.551-0.97l10.699-5.337c0.297-0.147,0.647-0.139,0.936,0.023c0.289,0.162,0.479,0.457,0.507,0.787
		l1.473,17.217c0.028,0.324-0.104,0.641-0.352,0.85c-1.081,0.913-3.09,2.372-4.393,1.884c-0.533-0.2-0.895-0.67-0.99-1.29
		c-0.136-0.907,0.198-1.511,0.502-1.858c0.85-0.971,2.353-0.994,2.647-0.995c0.17,0.002,0.329,0.047,0.468,0.124l-1.223-14.295
		l-8.781,4.38l1.108,14.803c0.017,0.218-0.039,0.436-0.158,0.619C55.475,35.8,53.769,38.157,52.151,38.157z M53.53,34.934
		c-0.745,0.398-1.004,0.773-1.093,0.988c-0.017,0.039-0.028,0.076-0.037,0.111C52.694,35.838,53.108,35.432,53.53,34.934z"/>
</g>
<g>
	<path fill="#010101" d="M54.439,23.734c-0.366,0-0.719-0.201-0.895-0.55c-0.248-0.493-0.05-1.094,0.443-1.343l10.736-5.407
		c0.493-0.25,1.095-0.05,1.344,0.443c0.248,0.493,0.05,1.094-0.443,1.343l-10.736,5.407C54.744,23.7,54.59,23.734,54.439,23.734z"/>
</g>
<g>
	<path fill="#F5952F" d="M182.661,65.166c-0.49-0.146-0.943-0.178-1.355-0.091c-0.414,0.087-0.814,0.28-1.199,0.585
		c-0.428,0.338-0.756,0.72-0.984,1.142c-0.229,0.421-0.367,0.866-0.418,1.334c-0.049,0.468-0.016,0.938,0.098,1.409
		c0.115,0.472,0.301,0.927,0.559,1.365s0.562,0.801,0.912,1.086s0.727,0.483,1.127,0.595c0.4,0.112,0.807,0.125,1.221,0.038
		c0.414-0.086,0.818-0.286,1.215-0.599c0.834-0.66,1.279-1.529,1.336-2.609l1.539,0.254c-0.09,0.768-0.322,1.46-0.699,2.079
		c-0.375,0.619-0.844,1.149-1.402,1.593c-0.594,0.469-1.203,0.789-1.824,0.961c-0.623,0.171-1.227,0.192-1.811,0.064
		c-0.582-0.128-1.133-0.388-1.648-0.782c-0.518-0.395-0.967-0.923-1.348-1.586c-0.385-0.643-0.639-1.314-0.766-2.017
		c-0.129-0.703-0.133-1.396-0.014-2.08c0.121-0.684,0.357-1.331,0.713-1.942c0.355-0.61,0.83-1.152,1.424-1.621
		c0.57-0.451,1.176-0.769,1.814-0.953c0.641-0.186,1.289-0.198,1.949-0.043L182.661,65.166z"/>
	<path fill="#F5952F" d="M180.893,55.72l1.285-1.017l8.104,13.833l-1.285,1.017L180.893,55.72z"/>
	<path fill="#F5952F" d="M185.688,54.74c-0.168-0.277-0.221-0.593-0.16-0.944s0.223-0.632,0.486-0.841
		c0.264-0.208,0.547-0.279,0.848-0.215c0.303,0.065,0.535,0.237,0.703,0.515c0.172,0.31,0.23,0.631,0.172,0.963
		s-0.225,0.606-0.5,0.824c-0.275,0.217-0.559,0.298-0.852,0.244C186.092,55.231,185.86,55.049,185.688,54.74z M187.94,57.859
		l1.283-1.017l5.027,8.556l-1.285,1.016L187.94,57.859z"/>
	<path fill="#F5952F" d="M198.522,52.621c-0.49-0.146-0.943-0.178-1.357-0.091c-0.414,0.086-0.812,0.28-1.197,0.584
		c-0.428,0.339-0.756,0.721-0.984,1.143c-0.229,0.421-0.369,0.866-0.418,1.334s-0.018,0.938,0.098,1.408
		c0.113,0.473,0.301,0.928,0.559,1.366c0.256,0.438,0.561,0.801,0.912,1.086c0.35,0.285,0.725,0.483,1.127,0.595
		c0.4,0.112,0.807,0.125,1.221,0.038s0.818-0.286,1.213-0.599c0.834-0.66,1.281-1.53,1.338-2.609l1.539,0.254
		c-0.09,0.768-0.322,1.46-0.699,2.079s-0.844,1.149-1.404,1.593c-0.592,0.469-1.201,0.789-1.824,0.961
		c-0.623,0.171-1.227,0.192-1.809,0.064c-0.584-0.128-1.133-0.389-1.65-0.783c-0.518-0.394-0.967-0.922-1.348-1.585
		c-0.383-0.643-0.639-1.314-0.766-2.017c-0.127-0.703-0.131-1.396-0.012-2.08s0.357-1.332,0.713-1.943
		c0.355-0.61,0.83-1.151,1.422-1.62c0.572-0.451,1.176-0.769,1.816-0.954c0.639-0.185,1.289-0.197,1.947-0.042L198.522,52.621z"/>
	<path fill="#F5952F" d="M196.639,43.266l1.285-1.017l5.281,9.049l1.303-6.545l1.828-1.446l-1.441,6.843l6.846,1.412l-1.893,1.499
		l-6.467-1.473l2.645,4.494l-1.285,1.017L196.639,43.266z"/>
</g>
<g>
	<path fill="#F5952F" d="M144.682,80.129c-0.184-0.479-0.434-0.856-0.756-1.132c-0.32-0.275-0.719-0.473-1.193-0.593
		c-0.529-0.133-1.031-0.162-1.506-0.087c-0.473,0.076-0.91,0.236-1.311,0.482c-0.402,0.246-0.754,0.558-1.059,0.936
		s-0.553,0.803-0.744,1.274c-0.189,0.472-0.291,0.934-0.305,1.385s0.059,0.87,0.215,1.257c0.156,0.385,0.395,0.716,0.713,0.991
		c0.322,0.275,0.727,0.475,1.215,0.598c1.031,0.26,1.994,0.083,2.885-0.53l0.734,1.376c-0.662,0.396-1.354,0.634-2.074,0.713
		c-0.719,0.079-1.424,0.03-2.117-0.144c-0.732-0.185-1.357-0.471-1.873-0.861c-0.516-0.389-0.9-0.854-1.154-1.395
		s-0.381-1.136-0.385-1.785c-0.002-0.65,0.145-1.329,0.438-2.035c0.275-0.695,0.652-1.308,1.133-1.837
		c0.48-0.528,1.027-0.954,1.641-1.275c0.615-0.321,1.275-0.527,1.977-0.618c0.699-0.091,1.416-0.044,2.15,0.141
		c0.705,0.178,1.328,0.464,1.863,0.858s0.943,0.901,1.221,1.52L144.682,80.129z"/>
	<path fill="#F5952F" d="M151.094,72.972l1.59,0.4l-6.033,14.853l-1.59-0.399L151.094,72.972z"/>
	<path fill="#F5952F" d="M153.692,79.863l1.588,0.4l-3.723,9.197l-1.588-0.4L153.692,79.863z M154.792,76.177
		c0.119-0.302,0.336-0.536,0.654-0.702c0.314-0.166,0.637-0.208,0.961-0.126c0.326,0.082,0.555,0.263,0.688,0.541
		c0.131,0.279,0.139,0.569,0.02,0.871c-0.141,0.326-0.359,0.566-0.658,0.722c-0.299,0.157-0.619,0.191-0.957,0.106
		c-0.34-0.086-0.578-0.261-0.713-0.526C154.651,76.798,154.651,76.503,154.792,76.177z"/>
	<path fill="#F5952F" d="M164.293,85.064c-0.184-0.479-0.434-0.855-0.756-1.132c-0.32-0.275-0.719-0.473-1.193-0.593
		c-0.529-0.133-1.031-0.162-1.506-0.086c-0.473,0.076-0.91,0.236-1.311,0.481c-0.402,0.246-0.754,0.558-1.059,0.936
		s-0.553,0.804-0.744,1.275c-0.189,0.471-0.291,0.933-0.305,1.385c-0.014,0.45,0.059,0.87,0.215,1.256s0.395,0.716,0.713,0.991
		c0.322,0.275,0.727,0.475,1.215,0.598c1.031,0.26,1.994,0.083,2.885-0.529l0.734,1.375c-0.662,0.396-1.354,0.635-2.074,0.713
		c-0.719,0.079-1.424,0.031-2.117-0.143c-0.732-0.185-1.357-0.472-1.873-0.861s-0.9-0.854-1.154-1.396
		c-0.254-0.54-0.381-1.136-0.385-1.785c-0.002-0.65,0.145-1.329,0.438-2.034c0.275-0.695,0.652-1.309,1.133-1.838
		c0.48-0.528,1.027-0.953,1.641-1.275c0.615-0.321,1.275-0.527,1.977-0.618c0.699-0.091,1.416-0.044,2.15,0.141
		c0.705,0.178,1.328,0.464,1.863,0.858s0.943,0.901,1.221,1.52L164.293,85.064z"/>
	<path fill="#F5952F" d="M170.563,77.872l1.588,0.399l-3.957,9.702l5.984-2.955l2.26,0.569l-6.305,3.025l3.051,6.289l-2.342-0.589
		l-2.771-6.024l-1.953,4.836l-1.588-0.4L170.563,77.872z"/>
</g>
<g>
	<path fill="#010101" d="M32.16,84.729c0.052,0.272,0.157,0.509,0.318,0.711c0.161,0.201,0.353,0.362,0.576,0.485
		c0.223,0.122,0.471,0.201,0.741,0.241c0.271,0.04,0.544,0.034,0.815-0.018c0.369-0.069,0.674-0.215,0.913-0.438
		c0.241-0.222,0.447-0.496,0.624-0.82l1.025,0.516c-0.498,0.977-1.34,1.577-2.526,1.801c-0.491,0.093-0.953,0.093-1.385,0.002
		c-0.431-0.091-0.812-0.257-1.146-0.5c-0.332-0.243-0.61-0.548-0.835-0.92c-0.225-0.371-0.382-0.79-0.47-1.255
		c-0.088-0.465-0.088-0.913-0.001-1.344c0.087-0.43,0.246-0.82,0.476-1.167c0.229-0.349,0.526-0.644,0.891-0.885
		c0.363-0.242,0.777-0.406,1.244-0.494c0.553-0.104,1.039-0.096,1.458,0.024c0.418,0.121,0.779,0.314,1.085,0.58
		c0.305,0.265,0.549,0.584,0.732,0.954c0.184,0.37,0.313,0.757,0.39,1.162l0.08,0.421L32.16,84.729z M35.722,83.073
		c-0.059-0.262-0.146-0.495-0.262-0.701c-0.117-0.205-0.265-0.375-0.444-0.51c-0.181-0.134-0.391-0.227-0.632-0.276
		c-0.242-0.05-0.512-0.047-0.811,0.009c-0.29,0.055-0.545,0.161-0.767,0.316c-0.221,0.156-0.397,0.336-0.531,0.543
		c-0.134,0.208-0.227,0.427-0.278,0.659c-0.051,0.233-0.057,0.455-0.017,0.666L35.722,83.073z"/>
	<path fill="#010101" d="M38.574,80.897l-1.345,0.254l-0.194-1.027l1.345-0.254l-0.265-1.397c-0.157-0.834-0.115-1.486,0.129-1.955
		c0.243-0.469,0.756-0.777,1.538-0.925c0.132-0.025,0.271-0.047,0.417-0.065c0.146-0.018,0.308-0.022,0.483-0.009l0.067,1.079
		c-0.122-0.021-0.238-0.031-0.348-0.03c-0.108,0.002-0.225,0.015-0.347,0.039c-0.22,0.041-0.39,0.107-0.509,0.199
		c-0.119,0.089-0.205,0.205-0.256,0.341c-0.052,0.137-0.072,0.294-0.062,0.469c0.011,0.175,0.037,0.374,0.079,0.593l0.271,1.437
		l1.409-0.267l0.194,1.027l-1.423,0.269l0.985,5.218l-1.186,0.224L38.574,80.897z"/>
	<path fill="#010101" d="M42.724,80.113l-1.346,0.254l-0.193-1.027l1.345-0.254l-0.265-1.397c-0.157-0.834-0.115-1.486,0.129-1.955
		c0.243-0.469,0.756-0.777,1.537-0.924c0.133-0.025,0.271-0.047,0.418-0.066c0.146-0.018,0.308-0.021,0.482-0.009l0.068,1.079
		c-0.123-0.021-0.238-0.031-0.348-0.029c-0.108,0.002-0.225,0.015-0.347,0.038c-0.22,0.042-0.39,0.108-0.509,0.199
		c-0.12,0.089-0.205,0.205-0.256,0.341c-0.052,0.137-0.072,0.293-0.062,0.469c0.011,0.175,0.037,0.373,0.078,0.593l0.271,1.437
		l1.41-0.266l0.193,1.027L43.91,79.89l0.985,5.218l-1.186,0.224L42.724,80.113z"/>
	<path fill="#010101" d="M46.743,81.523c-0.087-0.456-0.082-0.898,0.015-1.327c0.098-0.427,0.267-0.819,0.509-1.174
		c0.242-0.354,0.549-0.656,0.921-0.903c0.372-0.249,0.791-0.416,1.256-0.503s0.917-0.085,1.354,0.011
		c0.436,0.094,0.832,0.263,1.188,0.505c0.354,0.242,0.655,0.545,0.9,0.908c0.246,0.363,0.412,0.774,0.499,1.23
		c0.086,0.457,0.081,0.901-0.015,1.333c-0.096,0.432-0.265,0.824-0.508,1.173c-0.243,0.351-0.551,0.651-0.922,0.898
		c-0.372,0.247-0.791,0.415-1.257,0.503c-0.465,0.088-0.916,0.084-1.353-0.01c-0.437-0.095-0.832-0.262-1.187-0.5
		c-0.354-0.236-0.654-0.54-0.901-0.907C46.995,82.393,46.829,81.98,46.743,81.523z M48.007,81.285c0.06,0.316,0.163,0.6,0.311,0.849
		c0.146,0.25,0.326,0.452,0.538,0.608c0.211,0.156,0.454,0.264,0.729,0.327c0.275,0.061,0.572,0.062,0.888,0.002
		c0.316-0.06,0.591-0.168,0.825-0.326c0.234-0.159,0.421-0.348,0.562-0.57s0.232-0.476,0.279-0.763
		c0.046-0.286,0.039-0.587-0.021-0.903c-0.061-0.316-0.164-0.599-0.311-0.849c-0.147-0.25-0.326-0.452-0.538-0.607
		c-0.212-0.156-0.455-0.265-0.73-0.326c-0.275-0.062-0.571-0.063-0.888-0.003c-0.315,0.06-0.591,0.168-0.825,0.327
		c-0.233,0.157-0.421,0.347-0.561,0.57c-0.141,0.222-0.233,0.476-0.279,0.762C47.941,80.667,47.948,80.968,48.007,81.285z"/>
	<path fill="#010101" d="M54.282,76.866l1.187-0.224l0.182,0.961l0.026-0.005c0.047-0.182,0.124-0.353,0.23-0.514
		c0.105-0.162,0.23-0.306,0.375-0.433c0.145-0.126,0.308-0.237,0.49-0.332c0.183-0.093,0.37-0.158,0.563-0.194
		s0.374-0.044,0.542-0.021l0.188,1.289c-0.102-0.007-0.202-0.012-0.302-0.012c-0.101,0.001-0.198,0.011-0.295,0.029
		c-0.58,0.109-0.993,0.355-1.239,0.738c-0.246,0.384-0.305,0.917-0.175,1.603l0.593,3.136l-1.187,0.224L54.282,76.866z"/>
	<path fill="#010101" d="M62.698,76.34l-1.7,0.321l0.535,2.833c0.033,0.176,0.07,0.349,0.111,0.518
		c0.042,0.169,0.104,0.317,0.187,0.442c0.083,0.126,0.191,0.219,0.325,0.28c0.135,0.062,0.316,0.069,0.545,0.026
		c0.14-0.026,0.282-0.066,0.428-0.121c0.144-0.055,0.271-0.128,0.38-0.223l0.204,1.081c-0.125,0.104-0.297,0.195-0.516,0.269
		c-0.218,0.072-0.389,0.121-0.511,0.144c-0.458,0.086-0.823,0.088-1.098,0.009s-0.489-0.21-0.646-0.39s-0.27-0.392-0.339-0.638
		c-0.069-0.247-0.128-0.497-0.176-0.752l-0.615-3.254l-1.369,0.259l-0.194-1.027l1.37-0.259l-0.331-1.753l1.186-0.224l0.331,1.753
		l1.699-0.321L62.698,76.34z"/>
	<path fill="#010101" d="M37.561,99.888l-1.7,0.321l0.535,2.832c0.033,0.176,0.07,0.349,0.112,0.518
		c0.041,0.17,0.103,0.317,0.186,0.443c0.082,0.125,0.191,0.218,0.326,0.279c0.134,0.061,0.314,0.069,0.543,0.025
		c0.141-0.026,0.284-0.065,0.428-0.121c0.145-0.055,0.271-0.128,0.381-0.222l0.204,1.08c-0.125,0.105-0.297,0.196-0.516,0.269
		c-0.218,0.073-0.389,0.121-0.512,0.145c-0.457,0.086-0.822,0.088-1.097,0.01c-0.274-0.081-0.489-0.211-0.646-0.39
		c-0.157-0.181-0.27-0.394-0.339-0.639c-0.069-0.247-0.128-0.497-0.176-0.752l-0.615-3.254l-1.37,0.259l-0.194-1.028l1.371-0.259
		l-0.332-1.753l1.186-0.224l0.332,1.753l1.699-0.321L37.561,99.888z"/>
	<path fill="#010101" d="M38.288,96.365c-0.045-0.237,0.002-0.458,0.142-0.661c0.139-0.204,0.326-0.328,0.563-0.372
		c0.237-0.045,0.458,0.001,0.661,0.141c0.204,0.139,0.328,0.326,0.373,0.563s-0.002,0.458-0.142,0.662
		c-0.139,0.203-0.326,0.328-0.563,0.373s-0.458-0.003-0.661-0.142C38.457,96.79,38.333,96.603,38.288,96.365z M38.988,98.553
		l1.186-0.224l1.18,6.245l-1.186,0.224L38.988,98.553z"/>
	<path fill="#010101" d="M42.057,97.974l1.106-0.209l0.185,0.975l0.026-0.005c0.01-0.094,0.057-0.216,0.143-0.368
		c0.084-0.152,0.201-0.305,0.351-0.456c0.148-0.151,0.331-0.29,0.548-0.417c0.218-0.128,0.467-0.217,0.747-0.271
		c0.466-0.088,0.875-0.065,1.228,0.068c0.353,0.133,0.667,0.374,0.942,0.723c0.129-0.425,0.359-0.769,0.692-1.031
		c0.332-0.263,0.687-0.43,1.064-0.501c0.483-0.092,0.894-0.087,1.23,0.013c0.338,0.101,0.618,0.263,0.844,0.488
		c0.225,0.227,0.4,0.498,0.529,0.814c0.128,0.317,0.225,0.651,0.291,1.003l0.687,3.637l-1.186,0.224l-0.657-3.479
		c-0.045-0.237-0.103-0.462-0.175-0.676c-0.072-0.215-0.173-0.396-0.301-0.544c-0.129-0.148-0.29-0.258-0.484-0.325
		c-0.195-0.067-0.438-0.074-0.728-0.02c-0.57,0.108-0.946,0.361-1.126,0.758c-0.179,0.399-0.217,0.874-0.112,1.429l0.645,3.412
		l-1.186,0.224l-0.617-3.268c-0.056-0.298-0.123-0.567-0.2-0.809c-0.078-0.239-0.179-0.441-0.306-0.603
		c-0.126-0.164-0.284-0.28-0.475-0.349s-0.431-0.075-0.721-0.021c-0.211,0.039-0.406,0.12-0.589,0.241
		c-0.182,0.12-0.331,0.278-0.449,0.474s-0.196,0.431-0.235,0.706c-0.039,0.276-0.025,0.589,0.041,0.94l0.612,3.241l-1.186,0.225
		L42.057,97.974z"/>
	<path fill="#010101" d="M54.851,99.241c0.052,0.272,0.157,0.508,0.319,0.711c0.16,0.201,0.352,0.363,0.575,0.484
		c0.223,0.122,0.471,0.202,0.741,0.241c0.271,0.041,0.544,0.035,0.816-0.017c0.368-0.069,0.673-0.216,0.913-0.438
		c0.24-0.222,0.447-0.496,0.623-0.82l1.024,0.515c-0.497,0.978-1.339,1.577-2.525,1.802c-0.491,0.093-0.953,0.094-1.384,0.002
		c-0.433-0.091-0.813-0.258-1.146-0.5s-0.611-0.548-0.836-0.921c-0.225-0.371-0.382-0.789-0.47-1.254
		c-0.088-0.466-0.088-0.914-0.001-1.346c0.087-0.43,0.245-0.818,0.476-1.166c0.229-0.35,0.526-0.643,0.891-0.885
		c0.363-0.242,0.778-0.407,1.244-0.495c0.553-0.104,1.039-0.096,1.457,0.025c0.419,0.12,0.781,0.314,1.086,0.579
		s0.549,0.584,0.732,0.953c0.184,0.37,0.313,0.758,0.391,1.162l0.079,0.422L54.851,99.241z M58.414,97.585
		c-0.059-0.261-0.146-0.495-0.262-0.701c-0.116-0.205-0.265-0.375-0.444-0.51c-0.18-0.134-0.392-0.226-0.632-0.275
		c-0.241-0.051-0.512-0.047-0.811,0.009c-0.29,0.055-0.545,0.161-0.766,0.315c-0.222,0.156-0.398,0.337-0.532,0.544
		c-0.134,0.208-0.227,0.427-0.278,0.66c-0.051,0.233-0.057,0.455-0.018,0.665L58.414,97.585z"/>
	<path fill="#010101" d="M42.229,118.459c-0.263-0.186-0.526-0.316-0.79-0.39c-0.264-0.072-0.562-0.078-0.896-0.015
		c-0.325,0.062-0.598,0.175-0.816,0.338c-0.22,0.165-0.391,0.365-0.514,0.603c-0.124,0.237-0.201,0.498-0.234,0.781
		s-0.022,0.57,0.032,0.86s0.154,0.556,0.301,0.796c0.146,0.24,0.324,0.441,0.536,0.602c0.213,0.159,0.452,0.271,0.719,0.336
		c0.267,0.062,0.554,0.065,0.861,0.007c0.333-0.062,0.607-0.175,0.822-0.339s0.402-0.379,0.561-0.646l1.003,0.684
		c-0.243,0.401-0.554,0.715-0.935,0.941c-0.38,0.227-0.799,0.383-1.256,0.47c-0.482,0.091-0.939,0.095-1.368,0.013
		c-0.43-0.083-0.816-0.239-1.16-0.471c-0.344-0.23-0.632-0.531-0.866-0.9c-0.233-0.37-0.396-0.796-0.487-1.279
		s-0.096-0.942-0.015-1.376c0.082-0.434,0.238-0.823,0.469-1.167c0.231-0.343,0.531-0.634,0.9-0.872s0.799-0.403,1.291-0.496
		c0.457-0.087,0.908-0.088,1.357-0.004c0.447,0.084,0.856,0.263,1.227,0.538L42.229,118.459z"/>
	<path fill="#010101" d="M44.086,119.623c-0.086-0.457-0.081-0.898,0.016-1.326c0.096-0.428,0.266-0.819,0.508-1.175
		c0.242-0.354,0.55-0.655,0.921-0.902c0.371-0.249,0.791-0.417,1.256-0.505c0.466-0.088,0.917-0.084,1.354,0.012
		c0.437,0.095,0.832,0.263,1.187,0.505c0.355,0.242,0.656,0.545,0.902,0.908s0.412,0.772,0.498,1.229s0.082,0.901-0.015,1.334
		c-0.096,0.432-0.265,0.822-0.508,1.173c-0.243,0.352-0.551,0.65-0.922,0.897c-0.372,0.248-0.791,0.416-1.256,0.504
		c-0.466,0.088-0.918,0.084-1.354-0.011c-0.437-0.095-0.832-0.261-1.187-0.5c-0.354-0.237-0.654-0.539-0.901-0.906
		C44.339,120.492,44.172,120.08,44.086,119.623z M45.351,119.385c0.06,0.315,0.163,0.599,0.311,0.849
		c0.146,0.249,0.326,0.452,0.537,0.608c0.212,0.155,0.455,0.264,0.731,0.326c0.275,0.062,0.57,0.062,0.887,0.002
		s0.592-0.168,0.826-0.325c0.233-0.159,0.421-0.349,0.561-0.57c0.14-0.223,0.232-0.478,0.279-0.763
		c0.046-0.286,0.038-0.588-0.021-0.903c-0.061-0.316-0.164-0.6-0.311-0.849c-0.147-0.25-0.326-0.452-0.538-0.608
		c-0.212-0.155-0.455-0.266-0.73-0.326c-0.275-0.062-0.571-0.063-0.888-0.004s-0.591,0.169-0.825,0.327
		c-0.234,0.157-0.421,0.349-0.562,0.57c-0.139,0.223-0.232,0.477-0.278,0.763C45.284,118.767,45.292,119.068,45.351,119.385z"/>
	<path fill="#010101" d="M55.243,115.906c-0.174-0.149-0.375-0.265-0.604-0.344c-0.229-0.08-0.492-0.092-0.791-0.035
		c-0.281,0.053-0.514,0.159-0.697,0.316c-0.185,0.157-0.255,0.351-0.212,0.579c0.035,0.184,0.123,0.323,0.263,0.415
		c0.141,0.092,0.299,0.157,0.475,0.196c0.176,0.04,0.358,0.059,0.55,0.061c0.191,0,0.354,0.001,0.491,0.002
		c0.267,0.014,0.521,0.043,0.761,0.088c0.241,0.046,0.456,0.123,0.645,0.233c0.189,0.109,0.349,0.257,0.479,0.442
		c0.13,0.185,0.223,0.421,0.277,0.711c0.066,0.352,0.049,0.667-0.054,0.945c-0.102,0.277-0.257,0.52-0.464,0.723
		s-0.455,0.368-0.745,0.495s-0.589,0.221-0.896,0.278c-0.519,0.099-0.987,0.104-1.408,0.021s-0.824-0.309-1.212-0.672l0.757-0.907
		c0.229,0.157,0.478,0.287,0.743,0.393c0.265,0.104,0.568,0.124,0.911,0.059c0.149-0.027,0.298-0.071,0.446-0.132
		c0.147-0.06,0.274-0.134,0.381-0.222s0.188-0.189,0.242-0.305c0.057-0.116,0.072-0.238,0.047-0.37
		c-0.033-0.176-0.116-0.312-0.247-0.404c-0.132-0.093-0.28-0.157-0.446-0.195c-0.167-0.037-0.339-0.06-0.518-0.066
		s-0.336-0.011-0.474-0.014c-0.267-0.012-0.521-0.037-0.764-0.073c-0.244-0.035-0.466-0.103-0.667-0.201
		c-0.199-0.099-0.372-0.239-0.516-0.422c-0.144-0.181-0.243-0.422-0.3-0.72c-0.062-0.326-0.047-0.621,0.044-0.89
		c0.09-0.268,0.232-0.501,0.427-0.701s0.427-0.367,0.697-0.501c0.271-0.132,0.551-0.227,0.84-0.281
		c0.422-0.079,0.841-0.077,1.258,0.009c0.416,0.085,0.773,0.289,1.071,0.616L55.243,115.906z"/>
	<path fill="#010101" d="M61.017,114.256l-1.7,0.321l0.535,2.833c0.033,0.175,0.07,0.348,0.112,0.517
		c0.041,0.171,0.103,0.317,0.186,0.443c0.082,0.125,0.191,0.218,0.326,0.279c0.134,0.061,0.314,0.07,0.543,0.027
		c0.141-0.027,0.283-0.067,0.428-0.123c0.145-0.053,0.271-0.127,0.381-0.222l0.204,1.08c-0.126,0.106-0.297,0.196-0.516,0.269
		c-0.218,0.074-0.389,0.122-0.511,0.146c-0.458,0.086-0.823,0.089-1.098,0.009s-0.49-0.211-0.646-0.39
		c-0.157-0.18-0.27-0.392-0.339-0.639c-0.069-0.246-0.128-0.497-0.176-0.752l-0.615-3.254l-1.37,0.259l-0.193-1.027l1.369-0.259
		l-0.331-1.754l1.186-0.224l0.331,1.754l1.701-0.321L61.017,114.256z"/>
	<path fill="#010101" d="M65.968,113.88c-0.174-0.149-0.376-0.264-0.604-0.343c-0.229-0.08-0.493-0.092-0.791-0.036
		c-0.281,0.054-0.514,0.159-0.697,0.317c-0.185,0.157-0.255,0.351-0.212,0.579c0.035,0.184,0.123,0.322,0.263,0.414
		s0.298,0.157,0.474,0.197c0.176,0.039,0.359,0.059,0.551,0.06c0.191,0,0.355,0.002,0.491,0.002c0.267,0.014,0.52,0.044,0.761,0.089
		c0.24,0.045,0.455,0.123,0.645,0.232c0.188,0.11,0.349,0.257,0.479,0.442c0.131,0.185,0.224,0.422,0.278,0.712
		c0.066,0.352,0.048,0.666-0.054,0.944s-0.257,0.52-0.464,0.723s-0.455,0.368-0.745,0.496c-0.29,0.126-0.589,0.22-0.896,0.278
		c-0.518,0.098-0.987,0.104-1.408,0.021c-0.421-0.085-0.824-0.309-1.212-0.673l0.757-0.907c0.229,0.158,0.478,0.287,0.742,0.393
		c0.266,0.104,0.569,0.124,0.912,0.06c0.149-0.028,0.298-0.071,0.446-0.133c0.147-0.06,0.274-0.133,0.381-0.222
		c0.105-0.088,0.188-0.189,0.242-0.305c0.056-0.116,0.071-0.238,0.047-0.37c-0.033-0.176-0.116-0.311-0.248-0.404
		c-0.131-0.092-0.279-0.157-0.445-0.194c-0.167-0.038-0.339-0.06-0.518-0.066c-0.179-0.008-0.336-0.012-0.474-0.014
		c-0.266-0.013-0.521-0.037-0.764-0.074c-0.244-0.035-0.467-0.103-0.666-0.201c-0.201-0.099-0.373-0.239-0.517-0.421
		s-0.243-0.423-0.3-0.721c-0.062-0.326-0.047-0.621,0.043-0.889c0.091-0.268,0.233-0.501,0.428-0.702
		c0.194-0.2,0.426-0.366,0.697-0.501c0.27-0.132,0.55-0.226,0.84-0.28c0.422-0.08,0.841-0.077,1.258,0.008
		c0.416,0.085,0.773,0.29,1.071,0.617L65.968,113.88z"/>
</g>
</svg>
