<?xml version="1.0" encoding="utf-8"?>
<!-- Generator: Adobe Illustrator 16.0.0, SVG Export Plug-In . SVG Version: 6.00 Build 0)  -->
<!DOCTYPE svg PUBLIC "-//W3C//DTD SVG 1.1//EN" "http://www.w3.org/Graphics/SVG/1.1/DTD/svg11.dtd">
<svg version="1.1" id="Ebene_2" xmlns="http://www.w3.org/2000/svg" xmlns:xlink="http://www.w3.org/1999/xlink" x="0px" y="0px"
	 width="466px" height="826.641px" viewBox="0 0 466 826.641" enable-background="new 0 0 466 826.641" xml:space="preserve">
<g id="Ebene_4">
	<g>
		<g>
			<path fill="#F7941E" d="M107,265.971c3.869,0,3.869-6,0-6S103.131,265.971,107,265.971L107,265.971z"/>
		</g>
	</g>
	<g>
		<g>
			<path fill="#F7941E" d="M97,258.971c3.869,0,3.869-6,0-6S93.131,258.971,97,258.971L97,258.971z"/>
		</g>
	</g>
	<g>
		<g>
			<path fill="#F7941E" d="M94,261.638c3.869,0,3.869-6,0-6S90.131,261.638,94,261.638L94,261.638z"/>
		</g>
	</g>
	<g>
		<g>
			<path fill="#F7941E" d="M81.333,260.304c3.869,0,3.869-6,0-6S77.464,260.304,81.333,260.304L81.333,260.304z"/>
		</g>
	</g>
	<g>
		<g>
			<path fill="#F7941E" d="M76.333,261.638c3.869,0,3.869-6,0-6S72.464,261.638,76.333,261.638L76.333,261.638z"/>
		</g>
	</g>
	<g>
		<g>
			<path fill="#F7941E" d="M68,260.971c3.869,0,3.869-6,0-6S64.131,260.971,68,260.971L68,260.971z"/>
		</g>
	</g>
	<g>
		<g>
			<path fill="#F7941E" d="M83.667,262.304c3.869,0,3.869-6,0-6S79.797,262.304,83.667,262.304L83.667,262.304z"/>
		</g>
	</g>
	<g>
		<g>
			<path fill="#F7941E" d="M132.333,268.304c3.869,0,3.869-6,0-6S128.464,268.304,132.333,268.304L132.333,268.304z"/>
		</g>
	</g>
	<g>
		<g>
			<path fill="#F7941E" d="M134.333,270.971c3.869,0,3.869-6,0-6S130.464,270.971,134.333,270.971L134.333,270.971z"/>
		</g>
	</g>
	<g>
		<g>
			<path fill="#F7941E" d="M136.667,270.971c3.869,0,3.869-6,0-6S132.797,270.971,136.667,270.971L136.667,270.971z"/>
		</g>
	</g>
	<g>
		<g>
			<path fill="#F7941E" d="M140.333,273.638c3.869,0,3.869-6,0-6S136.464,273.638,140.333,273.638L140.333,273.638z"/>
		</g>
	</g>
	<g>
		<g>
			<path fill="#F7941E" d="M149,276.971c3.869,0,3.869-6,0-6S145.131,276.971,149,276.971L149,276.971z"/>
		</g>
	</g>
	<g>
		<g>
			<path fill="#F7941E" d="M152.667,279.638c3.869,0,3.869-6,0-6S148.797,279.638,152.667,279.638L152.667,279.638z"/>
		</g>
	</g>
	<g>
		<g>
			<path fill="#F7941E" d="M158.667,282.638c3.869,0,3.869-6,0-6S154.797,282.638,158.667,282.638L158.667,282.638z"/>
		</g>
	</g>
	<g>
		<g>
			<path fill="#F7941E" d="M161,284.638c3.869,0,3.869-6,0-6S157.131,284.638,161,284.638L161,284.638z"/>
		</g>
	</g>
	<g>
		<g>
			<path fill="#F7941E" d="M166.333,288.304c3.869,0,3.869-6,0-6S162.464,288.304,166.333,288.304L166.333,288.304z"/>
		</g>
	</g>
	<g>
		<g>
			<path fill="#F7941E" d="M171.333,290.971c3.869,0,3.869-6,0-6S167.464,290.971,171.333,290.971L171.333,290.971z"/>
		</g>
	</g>
	<g>
		<g>
			<path fill="#F7941E" d="M174.667,291.971c3.869,0,3.869-6,0-6S170.797,291.971,174.667,291.971L174.667,291.971z"/>
		</g>
	</g>
	<g>
		<g>
			<path fill="#F7941E" d="M177.667,293.971c3.869,0,3.869-6,0-6S173.797,293.971,177.667,293.971L177.667,293.971z"/>
		</g>
	</g>
	<g>
		<g>
			<path fill="#F7941E" d="M180.667,295.638c3.869,0,3.869-6,0-6S176.797,295.638,180.667,295.638L180.667,295.638z"/>
		</g>
	</g>
	<g>
		<g>
			<path fill="#F7941E" d="M120.667,267.304c3.869,0,3.869-6,0-6S116.797,267.304,120.667,267.304L120.667,267.304z"/>
		</g>
	</g>
	<g>
		<g>
			<path fill="#F7941E" d="M126,267.638c3.869,0,3.869-6,0-6S122.131,267.638,126,267.638L126,267.638z"/>
		</g>
	</g>
	<g>
		<g>
			<path fill="#F7941E" d="M126.333,264.971c3.869,0,3.869-6,0-6S122.464,264.971,126.333,264.971L126.333,264.971z"/>
		</g>
	</g>
	<g>
		<g>
			<path fill="#F7941E" d="M117.667,264.971c3.869,0,3.869-6,0-6S113.797,264.971,117.667,264.971L117.667,264.971z"/>
		</g>
	</g>
	<g>
		<g>
			<path fill="#F7941E" d="M111,262.971c3.869,0,3.869-6,0-6S107.131,262.971,111,262.971L111,262.971z"/>
		</g>
	</g>
	<g>
		<g>
			<path fill="#F7941E" d="M103.667,260.971c3.869,0,3.869-6,0-6S99.797,260.971,103.667,260.971L103.667,260.971z"/>
		</g>
	</g>
	<g>
		<g>
			<path fill="#F7941E" d="M98.333,263.638c3.869,0,3.869-6,0-6S94.464,263.638,98.333,263.638L98.333,263.638z"/>
		</g>
	</g>
	<g>
		<g>
			<path fill="#F7941E" d="M113.667,265.971c3.869,0,3.869-6,0-6S109.797,265.971,113.667,265.971L113.667,265.971z"/>
		</g>
	</g>
	<g>
		<g>
			<path fill="#F7941E" d="M90.667,257.304c3.869,0,3.869-6,0-6S86.797,257.304,90.667,257.304L90.667,257.304z"/>
		</g>
	</g>
	<g>
		<g>
			<path fill="#F7941E" d="M83,255.971c3.869,0,3.869-6,0-6S79.131,255.971,83,255.971L83,255.971z"/>
		</g>
	</g>
	<g>
		<g>
			<path fill="#F7941E" d="M91.333,263.971c3.869,0,3.869-6,0-6S87.464,263.971,91.333,263.971L91.333,263.971z"/>
		</g>
	</g>
	<g>
		<g>
			<path fill="#F7941E" d="M253,162.971c3.869,0,3.869-6,0-6S249.131,162.971,253,162.971L253,162.971z"/>
		</g>
	</g>
	<g>
		<g>
			<path fill="#F7941E" d="M266.333,171.971c3.869,0,3.869-6,0-6S262.464,171.971,266.333,171.971L266.333,171.971z"/>
		</g>
	</g>
	<g>
		<g>
			<path fill="#F7941E" d="M272.667,176.971c3.869,0,3.869-6,0-6S268.798,176.971,272.667,176.971L272.667,176.971z"/>
		</g>
	</g>
	<g>
		<g>
			<path fill="#F7941E" d="M267.667,168.971c3.869,0,3.869-6,0-6S263.798,168.971,267.667,168.971L267.667,168.971z"/>
		</g>
	</g>
	<g>
		<g>
			<path fill="#F7941E" d="M258,162.971c3.869,0,3.869-6,0-6S254.131,162.971,258,162.971L258,162.971z"/>
		</g>
	</g>
	<g>
		<g>
			<path fill="#F7941E" d="M259.333,156.138c5.804,0,5.804-9,0-9S253.529,156.138,259.333,156.138L259.333,156.138z"/>
		</g>
	</g>
	<g>
		<g>
			<path fill="#F7941E" d="M239.667,151.638c3.869,0,3.869-6,0-6S235.798,151.638,239.667,151.638L239.667,151.638z"/>
		</g>
	</g>
	<g>
		<g>
			<path fill="#F7941E" d="M244.667,154.971c3.869,0,3.869-6,0-6S240.798,154.971,244.667,154.971L244.667,154.971z"/>
		</g>
	</g>
	<g>
		<g>
			<path fill="#F7941E" d="M230.333,142.638c3.869,0,3.869-6,0-6S226.464,142.638,230.333,142.638L230.333,142.638z"/>
		</g>
	</g>
	<g>
		<g>
			<path fill="#F7941E" d="M216,130.804c5.804,0,5.804-9,0-9S210.196,130.804,216,130.804L216,130.804z"/>
		</g>
	</g>
	<g>
		<g>
			<path fill="#F7941E" d="M207.333,126.304c3.869,0,3.869-6,0-6S203.464,126.304,207.333,126.304L207.333,126.304z"/>
		</g>
	</g>
	<g>
		<g>
			<path fill="#F7941E" d="M187,122.638c3.869,0,3.869-6,0-6S183.131,122.638,187,122.638L187,122.638z"/>
		</g>
	</g>
	<g>
		<g>
			<path fill="#F7941E" d="M186.667,119.638c3.869,0,3.869-6,0-6S182.797,119.638,186.667,119.638L186.667,119.638z"/>
		</g>
	</g>
	<g>
		<g>
			<path fill="#F7941E" d="M173.667,117.638c3.869,0,3.869-6,0-6S169.797,117.638,173.667,117.638L173.667,117.638z"/>
		</g>
	</g>
	<g>
		<g>
			<path fill="#F7941E" d="M163,116.304c3.869,0,3.869-6,0-6S159.131,116.304,163,116.304L163,116.304z"/>
		</g>
	</g>
	<g>
		<g>
			<path fill="#F7941E" d="M274,159.304c3.869,0,3.869-6,0-6S270.131,159.304,274,159.304L274,159.304z"/>
		</g>
	</g>
	<g>
		<g>
			<path fill="#F7941E" d="M281.667,184.971c3.869,0,3.869-6,0-6S277.798,184.971,281.667,184.971L281.667,184.971z"/>
		</g>
	</g>
	<g>
		<g>
			<path fill="#F7941E" d="M288,188.638c3.869,0,3.869-6,0-6S284.131,188.638,288,188.638L288,188.638z"/>
		</g>
	</g>
	<g>
		<g>
			<path fill="#F7941E" d="M293.667,186.804c5.804,0,5.804-9,0-9S287.863,186.804,293.667,186.804L293.667,186.804z"/>
		</g>
	</g>
	<g>
		<g>
			<path fill="#F7941E" d="M298,192.638c3.869,0,3.869-6,0-6S294.131,192.638,298,192.638L298,192.638z"/>
		</g>
	</g>
	<g>
		<g>
			<path fill="#F7941E" d="M304.333,198.304c3.869,0,3.869-6,0-6S300.464,198.304,304.333,198.304L304.333,198.304z"/>
		</g>
	</g>
	<g>
		<g>
			<path fill="#F7941E" d="M282.333,173.971c3.869,0,3.869-6,0-6S278.464,173.971,282.333,173.971L282.333,173.971z"/>
		</g>
	</g>
</g>
<path fill="#FFFFFF" stroke="#000000" stroke-width="2" stroke-linecap="round" stroke-linejoin="round" stroke-miterlimit="10" d="
	M133,262.471c0,0-74.5-17.5-79-17.5c8.5-20.5,61.5-125,64-127c17.5,0.5,82,3,82,3"/>
<path fill="#FFFFFF" stroke="#000000" stroke-width="2" stroke-linecap="round" stroke-linejoin="round" stroke-miterlimit="10" d="
	M327,214.471c0,0-119-85.5-127-93.5c-10,19-67,141.5-67,141.5l107.5,65c0,0,29.5,15.5,32.5,16.5S327,214.471,327,214.471z"/>
<path fill="#FFFFFF" stroke="#000000" stroke-width="2" stroke-linecap="round" stroke-linejoin="round" stroke-miterlimit="10" d="
	M129,266.971c0,0-63.5-8.5-67-7c-9.5,18.5-56,121.5-56,121.5s49,26.5,53,28.5"/>
<path fill="#FFFFFF" stroke="#000000" stroke-width="2" stroke-linecap="round" stroke-linejoin="round" stroke-miterlimit="10" d="
	M273,345.971c0,0-134.5-77.5-144-79c-18.5,30.5-70,143-70,143s158.5,66.504,163,65.504C234,450.475,273,347.971,273,345.971z"/>
<g>
	<g>
		<defs>
			
				<rect id="SVGID_1_" x="88.338" y="385.799" transform="matrix(-0.9149 -0.4036 0.4036 -0.9149 32.453 805.2838)" width="25.502" height="26.845"/>
		</defs>
		<clipPath id="SVGID_2_">
			<use xlink:href="#SVGID_1_"  overflow="visible"/>
		</clipPath>
		<g clip-path="url(#SVGID_2_)">
			<defs>
				<path id="SVGID_3_" d="M90.677,400.613c-1.155,1.429-3.299,6.089-3.308,6.412c-0.005,0.317,6.388,4.562,11.29,4.623
					c0,0,0.38-0.853,0.509-1.144c0.125-0.282-0.032-0.712-0.333-1.062c0.218,0.207,0.603,0.071,0.654-0.127
					c0.083-0.343,0.437-0.903,0.098-1.107c-0.344-0.203,0.089-0.202,0.231-0.219c0.142-0.021,0.162-0.793,0.109-0.979
					c-0.057-0.185,0.139-0.503,0.21-0.851c0.071-0.344,0.231-0.946,0.166-1.896c-0.047-0.636,1.229-2.848,2.655-3.944
					c-0.157-0.069-0.891-0.175-3.388-2.95c-1.152-1.234-1.944-3.525-1.944-3.525S92.428,398.448,90.677,400.613"/>
			</defs>
			<clipPath id="SVGID_4_">
				<use xlink:href="#SVGID_3_"  overflow="visible"/>
			</clipPath>
			
				<radialGradient id="SVGID_5_" cx="33.5" cy="613.8198" r="1" gradientTransform="matrix(1.9461 11.2866 11.2866 -1.9461 -6897.5044 1209.0857)" gradientUnits="userSpaceOnUse">
				<stop  offset="0" style="stop-color:#414042"/>
				<stop  offset="0.051" style="stop-color:#414042"/>
				<stop  offset="0.2279" style="stop-color:#3B3A3B"/>
				<stop  offset="1" style="stop-color:#252122"/>
			</radialGradient>
			<polygon clip-path="url(#SVGID_4_)" fill="url(#SVGID_5_)" points="103.91,390.411 107.587,411.736 87.771,415.154 
				84.094,393.828 			"/>
		</g>
		<g clip-path="url(#SVGID_2_)">
			<defs>
				
					<rect id="SVGID_6_" x="88.338" y="385.8" transform="matrix(-0.9149 -0.4036 0.4036 -0.9149 32.4427 805.2825)" width="25.502" height="26.844"/>
			</defs>
			<clipPath id="SVGID_7_">
				<use xlink:href="#SVGID_6_"  overflow="visible"/>
			</clipPath>
			<path clip-path="url(#SVGID_7_)" fill="#F7941E" d="M104.832,399.146c0,0-0.425,0.901-0.821,0.7
				c-0.211,0.099-0.217,0.649-0.589,0.485s0.408,0.935-1.612-0.468c-3.021-2.45-3.974-5.121-4.39-6.341c0,0-0.027-0.754,0.537-0.589
				c0.564,0.167,0.232-0.339,0.232-0.339s-0.042-0.594,0.918-0.446c-0.09-0.235-0.255-0.961,0.292-0.882
				c0.549,0.077,0.86,0.066,0.844-0.119c0,0,0.125-0.624,0.538-0.433c0.592,1.101,4.146,6.882,5,8.261c0,0-0.301-0.083-0.56,0.137
				c0,0-0.064,0.178-0.226,0.106"/>
		</g>
		<g clip-path="url(#SVGID_2_)">
			<defs>
				<path id="SVGID_8_" d="M98.066,383.679c-0.169,1.687,0.199,3.241,1.774,6.211c4.273,8.056,7.179,11.115,7.179,11.115
					c1.789,1.988,3.035,2.392,3.035,2.392c0.076-0.003,0.256-0.17,0.256-0.17l-11.962-19.745
					C98.275,383.528,98.258,383.543,98.066,383.679"/>
			</defs>
			<clipPath id="SVGID_9_">
				<use xlink:href="#SVGID_8_"  overflow="visible"/>
			</clipPath>
			
				<linearGradient id="SVGID_10_" gradientUnits="userSpaceOnUse" x1="33.5005" y1="613.8423" x2="34.5002" y2="613.8423" gradientTransform="matrix(4.4562 12.986 12.986 -4.4562 -8019.6411 2684.627)">
				<stop  offset="0" style="stop-color:#252122"/>
				<stop  offset="0.1807" style="stop-color:#3E3E3F"/>
				<stop  offset="0.2567" style="stop-color:#393839"/>
				<stop  offset="0.6477" style="stop-color:#231F20"/>
				<stop  offset="1" style="stop-color:#231F20"/>
			</linearGradient>
			<polygon clip-path="url(#SVGID_9_)" fill="url(#SVGID_10_)" points="111.447,378.859 118.901,400.584 96.89,408.137 
				89.435,386.413 			"/>
		</g>
		<g clip-path="url(#SVGID_2_)">
			<defs>
				<path id="SVGID_11_" d="M98.208,383.85c-0.091,1.042,0.411,2.463,0.509,2.688c0,0,2.309,7.064,9.057,14.972
					c1.949,2.261,3.259,2.31,2.483,0.406c-0.779-1.906-3.604-8.021-8.984-15.248c-1.288-1.696-2.225-2.969-2.707-3.182
					C98.361,383.396,98.238,383.499,98.208,383.85"/>
			</defs>
			<clipPath id="SVGID_12_">
				<use xlink:href="#SVGID_11_"  overflow="visible"/>
			</clipPath>
			
				<radialGradient id="SVGID_13_" cx="33.501" cy="613.8208" r="0.9997" gradientTransform="matrix(5.4543 13.7759 13.7759 -5.4543 -8537.3145 3271.3594)" gradientUnits="userSpaceOnUse">
				<stop  offset="0" style="stop-color:#3E3E3F"/>
				<stop  offset="0.1627" style="stop-color:#393839"/>
				<stop  offset="1" style="stop-color:#231F20"/>
			</radialGradient>
			<polygon clip-path="url(#SVGID_12_)" fill="url(#SVGID_13_)" points="111.292,378.222 120.145,400.578 97.842,409.409 
				88.99,387.052 			"/>
		</g>
		<g clip-path="url(#SVGID_2_)">
			<defs>
				
					<rect id="SVGID_14_" x="88.338" y="385.8" transform="matrix(-0.9149 -0.4036 0.4036 -0.9149 32.4427 805.2825)" width="25.502" height="26.844"/>
			</defs>
			<clipPath id="SVGID_15_">
				<use xlink:href="#SVGID_14_"  overflow="visible"/>
			</clipPath>
			<path clip-path="url(#SVGID_15_)" d="M102.624,390.633c0,0-0.67-0.674-0.298,0.136c0.368,0.81,3.572,6.292,4.207,6.572
				c0.363,0.16-0.195-0.849-1.248-2.708C104.784,393.75,103.922,392.305,102.624,390.633"/>
		</g>
	</g>
</g>
<g>
	<path d="M47.667,410.638c0,0,4.333,0.667,5.667,2.667c1.333,2,4.333,3,4.333,3s2.333,2.667,3.667,2s3.667,2.667,8-3.334
		C61.667,410.638,44,402.638,44,402.638S44,410.638,47.667,410.638z"/>
	<path d="M345,768.225c-2.25,1.5-2.5,0.25-2.5-2.75S229.084,626.391,226.583,622.391c-0.572-1.455-2.011-16.688-1.822-24.699
		c4.332,6.127,9.076,10.613,14.238,12.615c-3.166-14.393-7.948-38.73-11.824-61.902c1.58-26.223,3.157-55.559,3.157-62.096
		c0.346-0.98,2.398-3.664,2.667-2l4,9.166c2.5,10,8.667,26.166,19,49c9.437,20.852,45.5,54,52,54.25c4.25,0.5,3.75,0.5,1.5-2.25
		s-41.167-81.916-43.167-104.166c-0.25-10.5-3.833-39.584-1.333-47.334c2.25-11.25,1.833-26.587,1.333-41.337
		s-2.833-44.917,51.417-104.167c27-28.75,42.25-32.5,37.75-44s-7-10.5-15.25-14.5s-22.75-5.75-17.25-10.5s19.25-8.5,21.5-9.75
		s4.5-3.75,4.5-3.75s-22.25,2.25-24.25,4.25c-0.968,0.968-9.953,23.708-18.972,46.924c-8.848,12.092-38.014,51.547-44.778,55.493
		c-8,4.667-112.666,68-121.333,68.667s-38.667-6-46.667-5.333s-11.5,0-11.5,0s-1,4.5,2.5,5.5s27.5,9.5,28,12s-11,16.001-18,18.001
		c-7,2.001-14-2-14-2s-1.5,7.503,1.5,9.503s6.5,4,6.5,4v4c0,0,3,1.5,5.5,2s1,5.5,4,6.5s10,2,12,2.5s20.5-6.5,23.5-10
		s8-16.503,8-16.503s0.5-9.501,5-12.001s6,0,6,0l1.333,2.167c0,0,110-62.666,119-72c3.281-3.403,6.384-6.893,9.004-9.957
		c-3.125,7.105-6.873,14.753-8.838,15.54l0.75,3.75c0,0-49.25,125.754-51,127.504c-7.5-2.25-64.917-24.834-64.917-24.834
		s-55,148.334-56.333,161c-1.333,12.668,80.167,139.666,92.834,151c4.667,5.334-0.535,14.766-5.5,16.334c-12.667,4-66,14-68,18.666
		c0,0-2.5,4-2.5,7c23-0.5,68.667-1.166,83.167-9.666c6.467-3.881,13.021,2.383,17.667,3.334c0.742,0.15,6.88,0.5,7.5,0.5
		c4.5,0,7.5,0,7.5-2.5s1.999-5.5-2-11c-5-6.875-10.167-12.834-13.167-18.334c-3-3-4.5-7.5-3-8.5s-79-132-92.5-144.5
		c9.5-26,58-112.5,61-126c1-3.5,6.333-2.334,6.333-2.334s2.928,20.479,8.83,44.91c-0.55,37.99,1.17,93.359,1.17,97.09
		c0,6,120.833,158.668,129.333,160.668c4-2.5,1.5-11.5,6-6c-2.75,11.5-21.667,31.666-21.667,31.666c-5,2-13,4.5-12.5,7.5
		s15.166,5.166,25.166,5.166S346,823.975,346,823.975c5-2.5,9.211-31.125,11-40.668C359.25,771.307,347,766.225,345,768.225z"/>
</g>
<path d="M358.578,104.008c0,0,36.555-96.139,40.812-99.136c17.805,8.24,39.671,24.476,62.734,64.505
	c-28.679,16.795-50.374,40.992-65.471,62.475C375.258,116.432,358.578,104.008,358.578,104.008z"/>
<path fill="#F7941E" d="M328.354,146.444c0,0-3.803-5.593,0.172-4.006c3.974,1.587,2.999-1.523,3.025-3.069
	c-0.241-3.431-0.085-5.459,3.629-6.273c1.949-0.511,1.229-2.646,0.877-3.259c-0.354-0.613-1.12-2.372,2.006-3.991
	c3.127-1.619,5.434-3.458,6.413-5.654c0.978-2.196,1.976-2.058,3.489-1.909s0.474-2.721-0.121-3.398
	c-0.595-0.678-1.663-2,1.247-3.677c2.911-1.677,4.685-2.494,3.31-3.641c-0.844-0.874,0.975-2.715,1.534-3.083
	c2.375-1.346,3.152-0.705,5.641,0.309c2.005,0.817,19.965,7.726,32.908,21.708c2.352,2.54,3.728,4.109,4.629,6.854
	c0.393,1.745-0.778,5.141-3.406,6.247c-2.627,1.105-7.614,4.251-4.544,6.63c0.632,0.86-0.982,3.015-3.438,3.477
	c-2.454,0.462-1.485,3.916-1.11,4.448s0.475,1.767-1.562,2.6s-5.609,0.642-4.483,3.192c1.127,2.55,2.021,3.395-0.854,4.779
	s-2.194,1.74-1.182,2.789c1.013,1.049,1.08,1.758-0.531,2.619c-1.612,0.861-2.664,0.923-3.47,0.707
	C371.729,170.625,345.08,157.411,328.354,146.444z"/>
<path d="M292.895,127.161c0,0,29.521,29.814,111.019,62.733c4.698,1.781,6.555-0.308-3.837-5.95
	c-10.391-5.643-21.643-11.684-29.521-14.411c-11.724-4.059-44.769-23.172-61.002-37.893
	C302.143,125.506,295.847,124.849,292.895,127.161z"/>
<g id="Ebene_3_1_">
	<g>
		<g>
			<path fill="#F7941E" d="M95,269.971c3.869,0,3.869-6,0-6S91.131,269.971,95,269.971L95,269.971z"/>
		</g>
	</g>
	<g>
		<g>
			<path fill="#F7941E" d="M83.667,265.304c3.869,0,3.869-6,0-6S79.797,265.304,83.667,265.304L83.667,265.304z"/>
		</g>
	</g>
	<g>
		<g>
			<path fill="#F7941E" d="M72.333,265.304c3.869,0,3.869-6,0-6S68.464,265.304,72.333,265.304L72.333,265.304z"/>
		</g>
	</g>
	<g>
		<g>
			<path fill="#F7941E" d="M51.333,268.971c3.869,0,3.869-6,0-6S47.464,268.971,51.333,268.971L51.333,268.971z"/>
		</g>
	</g>
	<g>
		<g>
			<path fill="#F7941E" d="M38.667,281.138c5.804,0,5.804-9,0-9S32.863,281.138,38.667,281.138L38.667,281.138z"/>
		</g>
	</g>
	<g>
		<g>
			<path fill="#F7941E" d="M36.333,294.138c5.804,0,5.804-9,0-9S30.53,294.138,36.333,294.138L36.333,294.138z"/>
		</g>
	</g>
	<g>
		<g>
			<path fill="#F7941E" d="M22.333,296.138c5.804,0,5.804-9,0-9S16.53,296.138,22.333,296.138L22.333,296.138z"/>
		</g>
	</g>
	<g>
		<g>
			<path fill="#F7941E" d="M56.333,254.638c3.869,0,3.869-6,0-6S52.464,254.638,56.333,254.638L56.333,254.638z"/>
		</g>
	</g>
	<g>
		<g>
			<path fill="#F7941E" d="M35,248.304c3.869,0,3.869-6,0-6S31.131,248.304,35,248.304L35,248.304z"/>
		</g>
	</g>
	<g>
		<g>
			<path fill="#F7941E" d="M43.667,229.471c5.804,0,5.804-9,0-9S37.863,229.471,43.667,229.471L43.667,229.471z"/>
		</g>
	</g>
	<g>
		<g>
			<path fill="#F7941E" d="M26.667,215.638c3.869,0,3.869-6,0-6S22.797,215.638,26.667,215.638L26.667,215.638z"/>
		</g>
	</g>
	<g>
		<g>
			<path fill="#F7941E" d="M134.667,100.304c3.869,0,3.869-6,0-6S130.797,100.304,134.667,100.304L134.667,100.304z"/>
		</g>
	</g>
	<g>
		<g>
			<path fill="#F7941E" d="M163.667,127.638c3.869,0,3.869-6,0-6S159.797,127.638,163.667,127.638L163.667,127.638z"/>
		</g>
	</g>
	<g>
		<g>
			<path fill="#F7941E" d="M141,130.471c5.804,0,5.804-9,0-9S135.196,130.471,141,130.471L141,130.471z"/>
		</g>
	</g>
	<g>
		<g>
			<path fill="#F7941E" d="M135.333,120.138c5.804,0,5.804-9,0-9S129.53,120.138,135.333,120.138L135.333,120.138z"/>
		</g>
	</g>
	<g>
		<g>
			<path fill="#F7941E" d="M112.333,113.471c5.804,0,5.804-9,0-9S106.53,113.471,112.333,113.471L112.333,113.471z"/>
		</g>
	</g>
	<g>
		<g>
			<path fill="#F7941E" d="M92.667,97.638c3.869,0,3.869-6,0-6S88.797,97.638,92.667,97.638L92.667,97.638z"/>
		</g>
	</g>
	<g>
		<g>
			<path fill="#F7941E" d="M64.667,125.471c5.804,0,5.804-9,0-9S58.863,125.471,64.667,125.471L64.667,125.471z"/>
		</g>
	</g>
	<g>
		<g>
			<path fill="#F7941E" d="M183,68.971c5.804,0,5.804-9,0-9S177.196,68.971,183,68.971L183,68.971z"/>
		</g>
	</g>
	<g>
		<g>
			<path fill="#F7941E" d="M243.5,97.471c3.869,0,3.869-6,0-6S239.631,97.471,243.5,97.471L243.5,97.471z"/>
		</g>
	</g>
	<g>
		<g>
			<path fill="#F7941E" d="M273.5,66.971c3.869,0,3.869-6,0-6S269.631,66.971,273.5,66.971L273.5,66.971z"/>
		</g>
	</g>
	<g>
		<g>
			<path fill="#F7941E" d="M245.5,37.471c3.869,0,3.869-6,0-6S241.631,37.471,245.5,37.471L245.5,37.471z"/>
		</g>
	</g>
	<g>
		<g>
			<path fill="#F7941E" d="M157,286.471c3.869,0,3.869-6,0-6S153.131,286.471,157,286.471L157,286.471z"/>
		</g>
	</g>
	<g>
		<g>
			<path fill="#F7941E" d="M172,293.471c5.804,0,5.804-9,0-9S166.196,293.471,172,293.471L172,293.471z"/>
		</g>
	</g>
	<g>
		<g>
			<path fill="#F7941E" d="M189.5,304.971c3.869,0,3.869-6,0-6S185.631,304.971,189.5,304.971L189.5,304.971z"/>
		</g>
	</g>
	<g>
		<g>
			<path fill="#F7941E" d="M196,318.971c3.869,0,3.869-6,0-6S192.131,318.971,196,318.971L196,318.971z"/>
		</g>
	</g>
	<g>
		<g>
			<path fill="#F7941E" d="M168,302.971c3.869,0,3.869-6,0-6S164.131,302.971,168,302.971L168,302.971z"/>
		</g>
	</g>
	<g>
		<g>
			<path fill="#F7941E" d="M132,273.471c3.869,0,3.869-6,0-6S128.131,273.471,132,273.471L132,273.471z"/>
		</g>
	</g>
	<g>
		<g>
			<path fill="#F7941E" d="M134,295.471c5.804,0,5.804-9,0-9S128.196,295.471,134,295.471L134,295.471z"/>
		</g>
	</g>
	<g>
		<g>
			<path fill="#F7941E" d="M114.5,277.971c3.869,0,3.869-6,0-6S110.631,277.971,114.5,277.971L114.5,277.971z"/>
		</g>
	</g>
	<g>
		<g>
			<path fill="#F7941E" d="M125.5,271.471c3.869,0,3.869-6,0-6S121.631,271.471,125.5,271.471L125.5,271.471z"/>
		</g>
	</g>
	<g>
		<g>
			<path fill="#F7941E" d="M128,270.471c3.869,0,3.869-6,0-6S124.131,270.471,128,270.471L128,270.471z"/>
		</g>
	</g>
	<g>
		<g>
			<path fill="#F7941E" d="M131,261.971c3.869,0,3.869-6,0-6S127.131,261.971,131,261.971L131,261.971z"/>
		</g>
	</g>
	<g>
		<g>
			<path fill="#F7941E" d="M119,245.971c3.869,0,3.869-6,0-6S115.131,245.971,119,245.971L119,245.971z"/>
		</g>
	</g>
</g>
<g>
	<g>
		<defs>
			
				<rect id="SVGID_16_" x="158.681" y="237.789" transform="matrix(-0.8716 -0.4903 0.4903 -0.8716 197.6745 554.2089)" width="25.502" height="26.845"/>
		</defs>
		<clipPath id="SVGID_17_">
			<use xlink:href="#SVGID_16_"  overflow="visible"/>
		</clipPath>
		<g clip-path="url(#SVGID_17_)">
			<defs>
				<path id="SVGID_18_" d="M160.934,251.588c-1.288,1.311-3.874,5.741-3.914,6.062c-0.036,0.315,5.916,5.159,10.79,5.694
					c0,0,0.461-0.812,0.617-1.089c0.151-0.269,0.037-0.712-0.228-1.089c0.197,0.228,0.593,0.129,0.663-0.063
					c0.117-0.333,0.522-0.857,0.205-1.092c-0.323-0.236,0.108-0.192,0.251-0.196c0.144-0.007,0.238-0.774,0.204-0.964
					c-0.039-0.19,0.187-0.487,0.292-0.826c0.103-0.335,0.321-0.919,0.348-1.872c0.014-0.637,1.499-2.716,3.024-3.668
					c-0.15-0.084-0.87-0.261-3.087-3.264c-1.027-1.34-1.594-3.697-1.594-3.697S162.886,249.603,160.934,251.588"/>
			</defs>
			<clipPath id="SVGID_19_">
				<use xlink:href="#SVGID_18_"  overflow="visible"/>
			</clipPath>
			
				<radialGradient id="SVGID_20_" cx="33.4995" cy="613.8208" r="1" gradientTransform="matrix(0.8442 11.422 11.422 -0.8442 -6872.687 379.6852)" gradientUnits="userSpaceOnUse">
				<stop  offset="0" style="stop-color:#414042"/>
				<stop  offset="0.051" style="stop-color:#414042"/>
				<stop  offset="0.2279" style="stop-color:#3B3A3B"/>
				<stop  offset="1" style="stop-color:#252122"/>
			</radialGradient>
			<polygon clip-path="url(#SVGID_19_)" fill="url(#SVGID_20_)" points="175.093,242.715 176.688,264.297 156.633,265.779 
				155.039,244.198 			"/>
		</g>
		<g clip-path="url(#SVGID_17_)">
			<defs>
				
					<rect id="SVGID_21_" x="158.68" y="237.79" transform="matrix(-0.8716 -0.4903 0.4903 -0.8716 197.6738 554.2097)" width="25.502" height="26.844"/>
			</defs>
			<clipPath id="SVGID_22_">
				<use xlink:href="#SVGID_21_"  overflow="visible"/>
			</clipPath>
			<path clip-path="url(#SVGID_22_)" fill="#F7941E" d="M175.164,251.499c0,0-0.51,0.856-0.885,0.617
				c-0.22,0.078-0.279,0.625-0.633,0.426c-0.354-0.199,0.315,0.97-1.56-0.622c-2.769-2.731-3.46-5.482-3.756-6.736
				c0,0,0.046-0.754,0.592-0.534c0.545,0.22,0.264-0.315,0.264-0.315s0.015-0.596,0.957-0.354c-0.066-0.243-0.161-0.981,0.376-0.85
				c0.54,0.13,0.85,0.15,0.852-0.036c0,0,0.185-0.609,0.577-0.379c0.482,1.153,3.46,7.251,4.177,8.706c0,0-0.292-0.111-0.57,0.083
				c0,0-0.082,0.17-0.235,0.084"/>
		</g>
		<g clip-path="url(#SVGID_17_)">
			<defs>
				<path id="SVGID_23_" d="M169.928,235.449c-0.332,1.663-0.116,3.245,1.165,6.354c3.473,8.432,6.069,11.758,6.069,11.758
					c1.588,2.152,2.79,2.674,2.79,2.674c0.075,0.004,0.271-0.145,0.271-0.145l-9.994-20.81
					C170.15,235.319,170.132,235.333,169.928,235.449"/>
			</defs>
			<clipPath id="SVGID_24_">
				<use xlink:href="#SVGID_23_"  overflow="visible"/>
			</clipPath>
			
				<linearGradient id="SVGID_25_" gradientUnits="userSpaceOnUse" x1="33.5" y1="613.8423" x2="34.4997" y2="613.8423" gradientTransform="matrix(3.178 13.3564 13.3564 -3.178 -8132.3994 1739.6412)">
				<stop  offset="0" style="stop-color:#252122"/>
				<stop  offset="0.1807" style="stop-color:#3E3E3F"/>
				<stop  offset="0.2567" style="stop-color:#393839"/>
				<stop  offset="0.6477" style="stop-color:#231F20"/>
				<stop  offset="1" style="stop-color:#231F20"/>
			</linearGradient>
			<polygon clip-path="url(#SVGID_24_)" fill="url(#SVGID_25_)" points="183.712,231.948 189.029,254.292 166.389,259.679 
				161.072,237.334 			"/>
		</g>
		<g clip-path="url(#SVGID_17_)">
			<defs>
				<path id="SVGID_26_" d="M170.053,235.633c-0.192,1.028,0.17,2.491,0.247,2.725c0,0,1.614,7.255,7.564,15.778
					c1.721,2.439,3.021,2.615,2.432,0.644c-0.591-1.973-2.81-8.332-7.466-16.045c-1.118-1.813-1.927-3.17-2.386-3.429
					C170.249,235.196,170.117,235.287,170.053,235.633"/>
			</defs>
			<clipPath id="SVGID_27_">
				<use xlink:href="#SVGID_26_"  overflow="visible"/>
			</clipPath>
			
				<radialGradient id="SVGID_28_" cx="33.5005" cy="613.8208" r="1" gradientTransform="matrix(4.0949 14.2393 14.2393 -4.0949 -8704.4541 2273.4878)" gradientUnits="userSpaceOnUse">
				<stop  offset="0" style="stop-color:#3E3E3F"/>
				<stop  offset="0.1627" style="stop-color:#393839"/>
				<stop  offset="1" style="stop-color:#231F20"/>
			</radialGradient>
			<polygon clip-path="url(#SVGID_27_)" fill="url(#SVGID_28_)" points="183.621,231.298 190.266,254.407 167.213,261.037 
				160.568,237.928 			"/>
		</g>
		<g clip-path="url(#SVGID_17_)">
			<defs>
				
					<rect id="SVGID_29_" x="158.68" y="237.79" transform="matrix(-0.8716 -0.4903 0.4903 -0.8716 197.6738 554.2097)" width="25.502" height="26.844"/>
			</defs>
			<clipPath id="SVGID_30_">
				<use xlink:href="#SVGID_29_"  overflow="visible"/>
			</clipPath>
			<path clip-path="url(#SVGID_30_)" d="M173.791,242.812c0,0-0.602-0.735-0.31,0.107c0.288,0.842,2.947,6.608,3.551,6.948
				c0.346,0.195-0.112-0.863-0.979-2.816C175.639,246.123,174.921,244.602,173.791,242.812"/>
		</g>
	</g>
</g>
</svg>
