<?xml version="1.0" encoding="utf-8"?>
<!-- Generator: Adobe Illustrator 16.0.0, SVG Export Plug-In . SVG Version: 6.00 Build 0)  -->
<!DOCTYPE svg PUBLIC "-//W3C//DTD SVG 1.1//EN" "http://www.w3.org/Graphics/SVG/1.1/DTD/svg11.dtd">
<svg version="1.1" id="Ebene_1" xmlns="http://www.w3.org/2000/svg" xmlns:xlink="http://www.w3.org/1999/xlink" x="0px" y="0px"
	 width="224px" height="87.016px" viewBox="0 0 224 87.016" enable-background="new 0 0 224 87.016" xml:space="preserve">
<g id="Ebene_5">
	<path d="M202.324,56.494c0,0,5.314,18.423,5.617,23.154c0.904,2.49,0.688,6.421,0.688,6.421s-14.507,2.172-24.23-0.065
		c1.812-6.445,4.121-22.604,3.215-29.047C201.172,57.379,202.324,56.494,202.324,56.494z"/>
	<path fill="#F7941E" d="M203.328,46.12c0.712-0.221,0.617,1.823,0.432,2.289c-0.184,0.469-0.496,1.052-0.308,1.776
		c0.185,0.723,0.534,1.189,0.349,1.728s-0.617,1.027-0.287,1.563c0.329,0.537,0.123,0.794,0.123,0.794s0.578,0.654,0.146,1.052
		c-0.436,0.397-0.6,0.42-0.6,0.42s0.33,0.21,0.351,0.489c0.021,0.281-0.556,0.631-0.845,0.678c-1.422,0.326-8.181,0.56-15.578,0.211
		c-0.412,0-0.475-0.747-0.475-1.146c0-0.397,0.021-0.935-0.187-1.215c-0.206-0.278,0.248-0.42,0.31-0.979
		c0.062-0.561-0.761-0.91-0.576-1.261c0.186-0.35,0.248-0.911-0.351-1.308c-0.216-0.594,0.797-0.916,0.528-1.08
		C186.363,50.133,190.805,49.99,203.328,46.12z"/>
	<path d="M170.729,54.116c0,0,18.16-3.983,21.881-4.985c5.963-1.606,24.088-5.79,25.807-6.822c1.719-1.031,2.637-2.178-2.751-2.521
		c-5.39-0.344-49.293,10.433-47.917,14.216C167.633,54.804,170.729,54.116,170.729,54.116z"/>
	<g id="Ebene_6">
		<path fill="#FFFFFF" d="M192.454,42.917c0,0,4.163,1.379,3.868,2.329c0.012,0.951-2.1,1.594-5.488,2.31
			c-0.316-0.66-3.926,0.552-2.234-1.349c-0.914-0.06-1.908,0.885-3.582,1.549c-1.377,0.543-2.377,0.923-3.182,1.174
			c-2.438,0.345-7.254,0.814-7.404,0.5c-0.115-0.612,0.459-1.012,0.459-1.012s-0.322-0.466,0.019-0.99
			c0.339-0.525,3.86-1.494,5.474-0.888c-1.63-3.117-3.794-8.979-0.097-13.38c3.327-2.413,5.396-3.99,10.062-1.505
			c2.168,1.525,4.941,3.832,2.484,10.181L192.454,42.917z"/>
		<path fill="#FFFFFF" d="M182.078,29.379c0,0-2.855-12.198-15.104-23.573c-0.992,0.661-3.613,4.12,9.984,20.405
			c0,0-0.195-0.104,0.287,0.293"/>
		<path fill="#FFFFFF" d="M188.805,29.216c0,0,1.481-20.764,3.76-24.001c2.281-3.238,3.236-5.471,3.881-2.192
			c0.643,3.277-2.498,19.058-6.326,26.979"/>
		<g>
			<path d="M184.346,48.287c0.049-0.003,0.096-0.018,0.145-0.043c0.169-0.088,4.181-2.16,5.298-3.033
				c0.196-0.156,0.243-0.469,0.103-0.697c-0.146-0.229-0.422-0.287-0.619-0.131c-1.056,0.822-5.125,2.928-5.168,2.947
				c-0.217,0.115-0.312,0.411-0.207,0.663C183.98,48.194,184.162,48.306,184.346,48.287z"/>
		</g>
		<g>
			<path d="M191.312,47.834c0.109-0.011,0.228-0.037,0.346-0.088c0.424-0.181,0.645-0.278,0.762-0.332
				c0.471,0.062,2.159,0.224,3.221-0.408c0.027-0.018,0.055-0.036,0.076-0.058c0.303-0.286,0.42-0.438,0.479-0.525
				c0.008,0,0.016-0.007,0.023-0.011c0.17-0.07,0.788-0.484,0.74-1.196c-0.055-0.753-0.807-1.309-2.37-1.751
				c-0.237-0.069-0.476,0.095-0.53,0.363c-0.053,0.269,0.096,0.54,0.334,0.607c1.541,0.436,1.684,0.835,1.685,0.841
				c-0.013,0.045-0.128,0.165-0.202,0.204c-0.162,0.07-0.252,0.127-0.365,0.288c-0.033,0.052-0.097,0.144-0.335,0.369
				c-0.812,0.45-2.271,0.349-2.772,0.268c-0.082-0.013-0.168,0-0.242,0.038c-0.004,0-0.133,0.065-0.833,0.363
				c-0.302,0.13-0.656-0.186-0.72-0.276c-0.065-0.116-0.17-0.192-0.289-0.222c-0.121-0.025-0.24,0.008-0.34,0.089
				c-0.248,0.203-0.998,0.6-1.442,0.575c0.194-0.393,0.868-1.367,1.549-1.912c0.172-0.12,1.013-0.886,1.267-1.116
				c0.187-0.172,0.213-0.486,0.057-0.703c-0.158-0.217-0.438-0.254-0.624-0.081c-0.509,0.461-1.089,0.982-1.188,1.053
				c-0.021,0.016-2.123,1.881-1.994,2.995c0.037,0.319,0.222,0.566,0.508,0.681c0.707,0.276,1.611-0.172,2.082-0.459
				C190.466,47.663,190.874,47.875,191.312,47.834z"/>
		</g>
		<g>
			<path d="M192.238,43.009c0.103-0.012,0.201-0.062,0.277-0.152c0.053-0.062,1.162-1.42,1.262-3.207
				c0.094-0.031,0.187-0.083,0.27-0.17c0.184-0.189,0.264-0.474,0.24-0.846c-0.021-0.346-0.078-1.083-0.21-1.812
				c0.022-0.017,0.042-0.032,0.053-0.041c0.517-0.483-0.022-1.637-0.571-2.519c-0.014-0.022-0.027-0.04-0.043-0.06
				c-0.115-0.138-0.211-0.254-0.297-0.351c0.029-0.053,0.057-0.112,0.068-0.175c0.031-0.172-0.016-0.354-0.133-0.478
				c-0.033-0.035-0.799-0.85-2.301-1.029c-0.248-0.029-0.459,0.17-0.479,0.443c-0.021,0.276,0.161,0.522,0.403,0.552
				c0.556,0.066,0.979,0.235,1.271,0.396c-0.013,0.045-0.02,0.095-0.021,0.15c-0.006,0.189,0.093,0.375,0.238,0.469
				c0.1,0.094,0.442,0.5,0.59,0.673c0.236,0.387,0.379,0.68,0.465,0.891c-0.023,0.011-0.047,0.022-0.066,0.037
				c-0.174,0.116-0.252,0.354-0.189,0.575c0.225,0.8,0.312,1.88,0.34,2.315c0,0-0.004,0-0.006,0
				c-0.131-0.023-0.265,0.02-0.362,0.118c-0.097,0.1-0.147,0.245-0.14,0.396c0.088,1.595-1.021,2.961-1.033,2.975
				c-0.163,0.2-0.152,0.518,0.027,0.707C191.988,42.974,192.115,43.019,192.238,43.009z"/>
		</g>
		<g>
			<path d="M191.292,32.812c0.115-0.011,0.228-0.072,0.304-0.182c0.15-0.216,0.114-0.531-0.076-0.705
				c-0.086-0.078-2.135-1.911-5.373-2.188c-0.119-0.01-0.235,0.034-0.322,0.122l-0.1,0.099c-0.617,0.068-2.924,0.395-3.998,1.582
				c-0.174,0.191-0.174,0.509,0,0.708c0.172,0.2,0.453,0.208,0.623,0.018c0.83-0.913,2.887-1.267,3.61-1.321
				c0.106-0.01,0.187-0.051,0.258-0.125l0.065-0.064c2.857,0.307,4.672,1.931,4.689,1.945
				C191.066,32.785,191.184,32.823,191.292,32.812z"/>
		</g>
		<g>
			<path d="M182.342,48.267c0.18-0.018,0.338-0.158,0.383-0.366c0.061-0.27-0.086-0.543-0.322-0.617
				c-0.159-0.048-0.258-0.129-0.293-0.17c-0.049-0.146-0.158-0.266-0.299-0.312c-0.201-0.072-0.604-0.318-0.963-0.559
				c0.02-0.054,0.035-0.109,0.045-0.17c0.033-0.197-0.041-0.4-0.188-0.516c-0.345-0.27-0.863-1.015-1.181-1.503
				c0.101-0.146,0.121-0.347,0.049-0.52c-0.008-0.021-0.203-0.5-0.422-0.851c-0.066-0.107-0.168-0.184-0.279-0.209
				c0.025-0.016,0.05-0.031,0.074-0.05c0.162-0.136,0.219-0.38,0.139-0.596c-0.232-0.613-0.45-1.453-0.573-1.951
				c0.161-0.094,0.257-0.294,0.229-0.506c-0.059-0.49-0.079-1.07-0.084-1.452c0.095-0.032,0.183-0.077,0.254-0.145
				c0.095-0.085,0.15-0.209,0.158-0.345c0.08-1.269,0.423-2.287,0.604-2.75c0.085-0.001,0.169-0.008,0.24-0.025
				c0.127-0.033,0.229-0.125,0.289-0.252c0.273-0.605,1.498-1.992,1.945-2.476c0.174-0.189,0.179-0.506,0.008-0.708
				c-0.172-0.203-0.451-0.214-0.629-0.025c-0.159,0.172-1.455,1.581-1.982,2.481c-0.037-0.003-0.075-0.006-0.107-0.012
				c-0.176-0.021-0.344,0.076-0.43,0.249c-0.025,0.056-0.619,1.294-0.793,3.07c-0.008,0.001-0.016,0-0.023,0.001
				c-0.226,0.007-0.416,0.217-0.422,0.482c0.002,0.04-0.009,0.842,0.055,1.625c-0.004,0.003-0.01,0.006-0.016,0.008
				c-0.201,0.092-0.307,0.336-0.256,0.576c0.012,0.043,0.182,0.804,0.411,1.6c-0.024,0.011-0.052,0.024-0.077,0.04
				c-0.173,0.105-0.363,0.345-0.303,0.88c0.089,0.752,0.314,1.212,0.674,1.37c0.086,0.037,0.213,0.07,0.367,0.044
				c0.005,0.011,0.012,0.022,0.02,0.034l-0.02,0.022c-0.135,0.171-0.146,0.422-0.029,0.614c0.076,0.129,0.653,1.074,1.217,1.704
				c-0.067,0.083-0.108,0.19-0.115,0.309c-0.006,0.182,0.074,0.354,0.211,0.452c0.103,0.076,0.929,0.67,1.479,0.929
				c0.174,0.27,0.495,0.478,0.805,0.569C182.24,48.268,182.292,48.271,182.342,48.267z"/>
		</g>
		<g>
			<path d="M175.102,50.001c0.363-0.033,0.813-0.137,1.369-0.26c0.053-0.012,0.096-0.029,0.135-0.058l0.287-0.19
				c0.605-0.012,3.433-0.068,4.047-0.052c0.242,0.007,0.442-0.21,0.442-0.487c0.001-0.275-0.196-0.507-0.44-0.515
				c-0.707-0.02-4.06,0.053-4.2,0.055c-0.074,0.001-0.149,0.026-0.212,0.067l-0.321,0.212c-0.365,0.082-1.099,0.238-1.399,0.238
				c0.15-0.327,0.674-0.658,1.039-0.8c0.203-0.075,0.325-0.311,0.285-0.552c-0.031-0.211-0.177-0.374-0.359-0.415
				c0.852-0.337,2.035-0.477,2.853-0.479c0.247-0.002,0.438-0.227,0.433-0.502c-0.004-0.276-0.211-0.5-0.453-0.5
				c-0.396,0-3.889,0.055-4.635,1.81c-0.072,0.167-0.054,0.37,0.051,0.522c0.045,0.065,0.104,0.12,0.168,0.152
				c-0.162,0.228-0.278,0.491-0.303,0.799c-0.005,0.062,0,0.122,0.016,0.183C174.064,49.899,174.434,50.065,175.102,50.001z"/>
		</g>
		<g>
			<path d="M182.165,29.844c0.021-0.001,0.036-0.004,0.056-0.008c0.238-0.058,0.389-0.322,0.332-0.594
				c-0.1-0.486-2.57-12.047-15.406-24.061c-0.164-0.154-0.398-0.158-0.561-0.01c-0.341,0.31-0.921,1.051-0.975,2.505
				c-0.182,4.979,5.882,12.982,11.004,18.82c0.176,0.199,0.453,0.203,0.629,0.011c0.173-0.192,0.17-0.51-0.006-0.708
				c-4.09-4.659-10.918-13.201-10.74-18.059c0.027-0.735,0.219-1.207,0.41-1.498c12.322,11.689,14.756,23.084,14.779,23.2
				C181.738,29.696,181.945,29.865,182.165,29.844z"/>
		</g>
		<g>
			<path d="M189.941,30.378c0.147-0.016,0.285-0.112,0.354-0.272c8.171-19.17,6.654-25.917,6.158-28.135
				c-0.004-0.009-0.008-0.02-0.01-0.029c-0.178-0.625-0.512-0.853-0.76-0.935c-0.686-0.228-1.392,0.428-1.529,0.561
				c-4.855,5.137-5.684,26.631-5.717,27.544c-0.01,0.276,0.181,0.515,0.426,0.531c0.244,0.019,0.451-0.191,0.461-0.467
				c0.007-0.221,0.846-22.004,5.438-26.857c0.201-0.2,0.551-0.397,0.694-0.352c0.067,0.022,0.123,0.18,0.14,0.246
				c0.484,2.146,1.909,8.642-6.101,27.437c-0.104,0.248-0.013,0.549,0.211,0.673C189.781,30.369,189.861,30.386,189.941,30.378z"/>
		</g>
		<ellipse transform="matrix(0.9956 -0.0939 0.0939 0.9956 -3.069 17.8459)" cx="188.034" cy="41.523" rx="1.024" ry="1.097"/>
	</g>
</g>
<g id="Ebene_8">
	<g id="Ebene_7">
		<path fill="#FFFFFF" d="M35.158,53.205c0,0,1.183-31.594-0.357-33.446c-2.23,1.37-6.85,5.976-5.984,16.546
			c0.866,10.57,1.787,15.069,3.455,18.229c-1.561,1.47-1.561,2.502-1.561,2.502l-1.828,0.737l0.065,1.458l-0.408,1.487l0.436,1.475
			l-0.655,0.771c0,0-8.611,0.048-14.928,9.122c-1.29-1.177-2.16-2.907-2.16-2.907l-0.307,4.083l-1.665-0.758l0.603,1.509
			l-1.208,0.454l-0.153,1.511l-1.059,1.511c0,0,2.563,2.756,2.871,3.627c0.528-0.205,1.92-0.979,1.92-0.979s1.807,4.934,2.185,5.113
			c0.376,0.181,20.693,0.619,20.693,0.619s0.06-0.887-0.833-1.588c0.319-1.084,2.534-0.138,3.498,0.569
			c2.039-0.061,3.831-0.221,3.831-0.221s-0.903-3.187-1.917-4.128c0.453-0.238,1.661-0.958,1.917,0
			c0.256,0.96,2.497,3.896,2.497,3.896l3.763,0.303c0,0-1.857-5.073-2.815-6.159c-0.127-0.701-0.205-1.278-0.205-1.278l-1.517-0.06
			l-1.021-1.403v-2.294c0,0,3.528-1.574,3.763-4.543c0.235-2.967,0.251-10.914-6.665-15.045c2.968-7.745,7.358-19.636,5.736-28.748
			c-0.955-2.685-2.946-5.918-4.196-5.157c-1.123,4.205-3.539,33.358-3.478,33.542C36.769,53.36,35.158,53.205,35.158,53.205z"/>
	</g>
	<path fill="none" stroke="#000000" stroke-linecap="round" stroke-linejoin="round" stroke-miterlimit="10" d="M34.47,70.645
		c0,0,4.874,3.859,8.341,2.313c5.171-2.302,3.93-9.825,0.906-14.812c-1.36-1.965-4.835-6.046-8.56-4.94
		c0.441-5.967,0.971-31.678-0.357-33.445c-1.325-1.767-5.313,5.972-5.978,12.822c0,0-0.53,16.5,3.45,21.952
		c-0.884,0.588-1.561,1.469-1.561,1.469v1.032l-1.828,0.737l0.264,0.737l-0.607,2.209l0.436,1.475c0,0-12.596,2.757-15.921,10.613
		c-0.441-0.883-1.824-3.628-1.824-3.628l-0.307,4.083l-1.664-0.758l0.603,1.509l-1.208,0.454l-0.152,1.511l-1.06,1.511l1.512,1.661
		l1.36,1.966l1.965-0.757c0,0,0.704-1.869,0.372-1.316c-0.33,0.554,0.441,4.273,1.507,5.967c0.396,0.625,2.138,0.671,2.138,0.671
		l18.814,0.19c0,0,0,0-0.22-0.937c-0.59-1.916-7.176-2.055-7.176-2.055c0.009-0.198-0.227-2.385-0.22-2.572
		c0.246-8.444-5.01-9.134-5.01-9.134"/>
	<path fill="none" stroke="#000000" stroke-linecap="round" stroke-linejoin="round" stroke-miterlimit="10" d="M33.284,80.654
		c0,0,3.315,4.122,4.496,4.197c1.178,0.073,3.831-0.219,3.831-0.219s-0.664-2.73-1.917-4.129"/>
	<path fill="none" stroke="#000000" stroke-linecap="round" stroke-linejoin="round" stroke-miterlimit="10" d="M41.167,80.21
		c0,0,2.211,4.271,3.315,4.347c1.104,0.076,3.388,0.147,3.388,0.147s-0.957-3.312-2.798-5.894l-0.59-0.661l0.368-0.884l-1.767-0.15
		l0.222-0.516l-0.044,0.325l-0.957-1.179l0.072-1.252"/>
	<path fill="none" stroke="#000000" stroke-linecap="round" stroke-linejoin="round" stroke-miterlimit="10" d="M37.474,52.934
		c0,0,2.298-32.253,3.479-32.918c1.176-0.663,4.232,2.233,4.382,6.8c0.146,4.568-1.644,20.186-6.214,26.743"/>
	<path stroke="#000000" stroke-linecap="round" stroke-linejoin="round" stroke-miterlimit="10" d="M32.721,62.778
		c0,0-0.231,0.912,0.346,1.015C34.201,63.988,34.249,61.905,32.721,62.778z"/>
	<path fill="none" stroke="#000000" stroke-linecap="round" stroke-linejoin="round" stroke-miterlimit="10" d="M38.734,72.085
		c0,0,0.931,0.995,1.356,1.066"/>
	<polyline fill="none" stroke="#000000" stroke-linecap="round" stroke-linejoin="round" stroke-miterlimit="10" points="
		28.643,64.817 27.694,63.734 28.949,62.194 	"/>
	<path fill="none" stroke="#000000" stroke-linecap="round" stroke-linejoin="round" stroke-miterlimit="10" d="M12.248,76.2
		c0,0-0.172-1.229,0.794-3.394"/>
</g>
<g id="Ebene_9">
	<g id="Ebene_11">
		<path fill="#FFFFFF" d="M134.938,69.91l-1.201-0.8l-1.355,0.896l-1.41-0.227l-0.248,1.054l-0.668,0.146v1.098l-1.173,0.863v1.701
			l-1.106,1.203l0.946,0.534l-0.582,1.657c0,0,0.82,2.743,1.107,3.074c0.284,0.333,1.289-0.292,1.289-0.292l0.334,1.373l1.214-0.623
			l0.651,4.941l24.599,0.066c0,0-0.46-2.366-3.302-3.617c-1.451-0.709-2.301-1.111-2.499-1.982s-1.315-4.736-2.512-6.127
			c2.207-2.682,8.173-9.084,7.912-12.671c1.016,1.102,2.895,2.936,3.874,2.896c0.982-0.041,1.392-1.201,1.163-2.896
			c-0.227-1.693-1.506-3.734-1.506-3.734l0.057-0.71l-0.906-0.679l-1.678-4.347l-0.345-1.121l-1.269-1.244c0,0,0.287-1.37,0-1.87
			c-0.437-0.445-0.691-0.354-0.691-0.354s4.94-2.051,6.4-4.135c1.462-2.085,3.068-6.12,2.075-7.465
			c-0.993-1.346-7.793-2.775-16.041,0.558c-2.292-6.959-8.046-27.473-10.043-28.113s-1.939,9.052,1.253,18.563
			c-6.423-8.418-11.979-16.267-13.936-14.726c-1.956,1.542,5.504,18.249,19.322,27.593c-0.658,1.202-1.525,2.217-1.525,2.217
			l0.738,0.76l-0.329,0.988l1.836,1.38l-0.431,1.07l0.708,0.811c0,0-2.875,8.558-3.456,9.493
			C141.627,58.051,135.05,69.612,134.938,69.91z"/>
	</g>
	<path fill="none" stroke="#000000" stroke-linecap="round" stroke-linejoin="round" stroke-miterlimit="10" d="M153.104,48.747
		c0,0,4.116-0.415,7.915-3.749c3.732-3.266,3.826-7.276,3.094-8.476c-0.133-0.601-7.721-3.002-14.389,0.063
		c-2.065,0.799-2.926,1.797-2.926,1.797s-17.313-25.67-20.516-25.822c-5.803-0.278,7.324,21.141,18.388,27.82
		c-0.133,0.801-1.529,2.234-1.529,2.234l0.9,0.275l-0.623,1.866l2.119,1.063l-0.467,1.265l0.735,0.67l-0.267,0.292l-0.799,2.336
		c0,0-1.602,5.334-2.801,7.198c-1.201,1.868-6.267,10.596-7,12.331c-0.401-0.532-1.201-0.802-1.201-0.802l-1.516,1.004l-1.248-0.333
		v0.998l-0.916,0.201l-0.024,1.466l-1.546,0.665l0.325,1.133l-1.032,1.599l0.944,0.537l-0.724,2.064l0.735,2.069l0.803,0.931
		l1.002-0.627l0.331,1.376h0.665l0.802-0.909"/>
	<path fill="none" stroke="#000000" stroke-linecap="round" stroke-linejoin="round" stroke-miterlimit="10" d="M148.871,74.644
		c0,0,1.867,2.336,2.666,6.336c0.4,1.397,1.201,1.397,1.201,1.397s4.066,1.401,4.598,4.2c-3.332-0.066-8.199-0.067-8.199-0.067
		s-1.533,0.064-1.6-0.401c-0.068-0.464-0.333-1.732-2.936-1.932c-1.265-0.065-1.795-0.266-1.795-0.266s-0.203-5.334-1.001-6.198"/>
	<path fill="none" stroke="#000000" stroke-linecap="round" stroke-linejoin="round" stroke-miterlimit="10" d="M148.069,86.446
		l-15.332,0.065c0,0-1.331-6.6,0.803-10.799"/>
	<path fill="none" stroke="#000000" stroke-linecap="round" stroke-linejoin="round" stroke-miterlimit="10" d="M151.271,39.914
		c0,0-0.738,0.42,0.021,0.835C152.031,41.152,152.191,39.781,151.271,39.914z"/>
	<path fill="none" stroke="#000000" stroke-linecap="round" stroke-linejoin="round" stroke-miterlimit="10" d="M147.872,37.114
		c0,0-7.712-26.546-9.846-28.147c-3.266-0.067-0.247,13.962,0.552,16.028c0.603,1.333,1.384,3.73,1.384,3.73"/>
	<path fill="none" stroke="#000000" stroke-linecap="round" stroke-linejoin="round" stroke-miterlimit="10" d="M161.802,37.647
		c0,0,2.402-0.265,2.333-1.133"/>
	<path fill="none" stroke="#000000" stroke-linecap="round" stroke-linejoin="round" stroke-miterlimit="10" d="M156.938,62.181
		c-0.128,2.002-2.602,6.466-4.199,8.402c-1.063,1.28-6.668,6.595-6.668,6.595"/>
	<path fill="none" stroke="#000000" stroke-linecap="round" stroke-linejoin="round" stroke-miterlimit="10" d="M150.671,62.311
		c0,0,2.062,4.667,4.064,3.602c1.999-1.067,1.335-3.935,1.999-4.199c0.668-0.269,0.867,2.333,3.2,3.263
		c2.334,0.937,2.4-3.331,1.535-5.332l-1-1.199l0.2-0.601l-1.336-1l-0.265-1.135l-0.231-1l-0.896-1.999v-0.864l-1.436-1.065
		l-0.148-1.134l0.688-0.4l-0.919-0.466l0.306-0.467l-2.613,0.269"/>
</g>
<g id="Ebene_10">
	<g>
		<g>
			<path fill="#F7941E" d="M198.881,7.455c1.184,0,1.184-1.835,0-1.835C197.695,5.619,197.695,7.455,198.881,7.455L198.881,7.455z"
				/>
		</g>
	</g>
	<g>
		<g>
			<path fill="#F7941E" d="M190.268,16.557c1.186,0,1.186-1.835,0-1.835C189.084,14.721,189.084,16.557,190.268,16.557
				L190.268,16.557z"/>
		</g>
	</g>
	<g>
		<g>
			<path fill="#F7941E" d="M194.654,34.109c1.185,0,1.185-1.835,0-1.835C193.471,32.273,193.471,34.109,194.654,34.109
				L194.654,34.109z"/>
		</g>
	</g>
	<g>
		<g>
			<path fill="#F7941E" d="M195.793,37.197c1.184,0,1.184-1.835,0-1.835S194.609,37.197,195.793,37.197L195.793,37.197z"/>
		</g>
	</g>
	<g>
		<g>
			<path fill="#F7941E" d="M196.117,41.261c1.186,0,1.186-1.835,0-1.835C194.936,39.425,194.936,41.261,196.117,41.261
				L196.117,41.261z"/>
		</g>
	</g>
	<g>
		<g>
			<path fill="#F7941E" d="M200.182,39.635c1.182,0,1.182-1.835,0-1.835C198.996,37.799,198.996,39.635,200.182,39.635
				L200.182,39.635z"/>
		</g>
	</g>
	<g>
		<g>
			<path fill="#F7941E" d="M184.578,25.332c1.186,0,1.186-1.835,0-1.835C183.395,23.496,183.395,25.332,184.578,25.332
				L184.578,25.332z"/>
		</g>
	</g>
	<g>
		<g>
			<path fill="#F7941E" d="M176.941,23.221c1.184,0,1.184-1.835,0-1.835C175.757,21.386,175.758,23.221,176.941,23.221
				L176.941,23.221z"/>
		</g>
	</g>
	<g>
		<g>
			<path fill="#F7941E" d="M173.854,21.921c1.185,0,1.185-1.835,0-1.835S172.669,21.921,173.854,21.921L173.854,21.921z"/>
		</g>
	</g>
	<g>
		<g>
			<path fill="#F7941E" d="M178.729,30.697c1.185,0,1.185-1.835,0-1.835C177.545,28.862,177.545,30.697,178.729,30.697
				L178.729,30.697z"/>
		</g>
	</g>
	<g>
		<g>
			<path fill="#F7941E" d="M165.564,18.02c1.184,0,1.184-1.835,0-1.835C164.38,16.185,164.381,18.02,165.564,18.02L165.564,18.02z"
				/>
		</g>
	</g>
	<g>
		<g>
			<path fill="#F7941E" d="M163.777,16.72c1.183,0,1.183-1.835,0-1.835C162.593,14.885,162.593,16.72,163.777,16.72L163.777,16.72z"
				/>
		</g>
	</g>
	<g>
		<g>
			<path fill="#F7941E" d="M156.139,15.744c1.184,0,1.184-1.835,0-1.835C154.954,13.908,154.954,15.744,156.139,15.744
				L156.139,15.744z"/>
		</g>
	</g>
	<g>
		<g>
			<path fill="#F7941E" d="M147.2,17.045c1.184,0,1.184-1.836,0-1.836C146.016,15.209,146.018,17.045,147.2,17.045L147.2,17.045z"/>
		</g>
	</g>
	<g>
		<g>
			<path fill="#F7941E" d="M172.55,47.273c1.185,0,1.185-1.835,0-1.835C171.366,45.438,171.366,47.273,172.55,47.273L172.55,47.273z
				"/>
		</g>
	</g>
	<g>
		<g>
			<path fill="#F7941E" d="M167.678,48.736c1.184,0,1.184-1.835,0-1.835C166.493,46.901,166.493,48.736,167.678,48.736
				L167.678,48.736z"/>
		</g>
	</g>
	<g>
		<g>
			<path fill="#F7941E" d="M180.676,47.435c1.186,0,1.186-1.835,0-1.835C179.493,45.6,179.493,47.435,180.676,47.435L180.676,47.435
				z"/>
		</g>
	</g>
	<g>
		<g>
			<path fill="#F7941E" d="M179.053,57.675c1.184,0,1.184-1.835,0-1.835S177.869,57.675,179.053,57.675L179.053,57.675z"/>
		</g>
	</g>
	<g>
		<g>
			<path fill="#F7941E" d="M161.827,58.487c1.183,0,1.183-1.836,0-1.836C160.643,56.651,160.643,58.487,161.827,58.487
				L161.827,58.487z"/>
		</g>
	</g>
	<g>
		<g>
			<path fill="#F7941E" d="M149.475,8.431c1.185,0,1.185-1.835,0-1.835C148.291,6.596,148.291,8.431,149.475,8.431L149.475,8.431z"
				/>
		</g>
	</g>
</g>
</svg>
