<?xml version="1.0" encoding="utf-8"?>
<!-- Generator: Adobe Illustrator 16.0.0, SVG Export Plug-In . SVG Version: 6.00 Build 0)  -->
<!DOCTYPE svg PUBLIC "-//W3C//DTD SVG 1.1//EN" "http://www.w3.org/Graphics/SVG/1.1/DTD/svg11.dtd">
<svg version="1.1" id="Ebene_1" xmlns="http://www.w3.org/2000/svg" xmlns:xlink="http://www.w3.org/1999/xlink" x="0px" y="0px"
	 width="120.834px" height="220.667px" viewBox="0 0 120.834 220.667" enable-background="new 0 0 120.834 220.667"
	 xml:space="preserve">
<g id="Ebene_5">
	<path d="M68.974,159.312c0,0-1.49,19.009,19.741,53.363c-5.569,3.957-53.262,3.136-53.262-0.104
		c4.422-27.244,10.428-54.695,10.428-54.695S64.274,157.333,68.974,159.312z"/>
	<path fill="#F7941E" d="M69.385,159.621c0,0,1.292,0.758,0.206-1.646c-0.314-1.038,1.676-1.218,0.719-2.364
		c-1.027-1.234,0.651-1.921,0.104-2.775c-0.548-0.858,1.234-2.057-0.721-4.318c1.19-0.771,3.634-3.278,0.412-3.497
		c-3.222-0.218-22.042-2.354-23.443-2.776c-1.4-0.422-3.862,2.077-1.784,3.334c2.077,1.254-1.725,2.342,0.314,4.053
		c0.933,0.785,1.236,1.002-0.375,2.402c-1.611,1.397-0.841,2.762,0.513,2.92c1.353,0.157,1.383,1.236,0.629,2.076
		c-1.33,1.483-1.494,2.062-0.058,1.93C47.337,158.826,69.385,159.621,69.385,159.621z"/>
	<path d="M96.992,140.085c-3.31-1.01-54.649-16.657-83.234-14.809c-5.76,0.807-8.329,2.674-6.581,6.686
		c1.177,2.699,12.046,5.58,18.919,7.197c6.992,1.646,52.542,7.506,67.04,9.869c10.008,1.635,21.732,1.062,20.051-1.851
		C111.183,144.558,100.301,141.096,96.992,140.085z"/>
	<g id="Ebene_4">
		<path fill="#FFFFFF" d="M95.431,81.264c0,0,2.853-7.375,3.5-10.207c2.569-0.25,2.569-0.25,2.569-0.25s3.021-2.951,3.992-7.785
			c0.971-4.834,4.125-39.643,1.065-48.762C90.505,10.113,39.415,1.085,28.422,3.76C26.5,5.474,21.84,6.691,21.84,6.691L13.979,6.26
			c0,0,3.658,39.959-7.577,54.253C26.482,64.218,92.36,80.055,95.431,81.264z"/>
	</g>
	<g>
		<g>
			<path stroke="#000000" stroke-miterlimit="10" d="M101.618,18.323c0.055,6.576,0.005,13.155-0.116,19.729
				c-0.196,10.751-0.418,21.587-2.866,32.104c-0.835,3.59-1.902,7.227-3.492,10.563c-0.278,0.583,0.741,0.145,0.174-0.003
				c-0.465-0.122-0.93-0.243-1.396-0.364c-4.862-1.265-9.729-2.517-14.601-3.76c-14.289-3.649-28.598-7.232-42.954-10.613
				c-6.367-1.5-12.746-2.965-19.156-4.27c-3.507-0.714-7.207-1.668-10.809-1.698c0.144,0.251,0.288,0.501,0.432,0.752
				c3.303-5.088,5.44-10.5,6.591-16.464c2.399-12.428,1.767-25.489,1.054-38.042c-0.167,0.167-0.333,0.333-0.5,0.5
				c15.75,0.73,31.5,2.012,47.179,3.659c8.897,0.934,17.806,1.996,26.606,3.635c3.088,0.576,6.176,1.233,9.18,2.165
				c1.59,0.494,3.74,1.078,4.82,2.457c0.396,0.507,1.1-0.206,0.707-0.707c-0.974-1.243-2.732-1.834-4.16-2.347
				c-2.773-0.998-5.691-1.618-8.576-2.201c-8.293-1.677-16.729-2.691-25.131-3.629C48.221,7.963,31.75,6.651,15.284,5.822
				c-0.435-0.021-0.87-0.042-1.304-0.062c-0.261-0.012-0.515,0.237-0.5,0.5c0.709,12.494,1.281,25.401-1.018,37.776
				c-1.092,5.877-3.243,11.223-6.491,16.225c-0.211,0.325,0.067,0.75,0.432,0.752c4.507,0.038,9.175,1.362,13.554,2.288
				c7.751,1.639,15.463,3.464,23.166,5.315c15.077,3.624,30.11,7.427,45.125,11.3c2.351,0.607,4.702,1.215,7.051,1.829
				c0.209,0.055,0.461-0.03,0.563-0.229c5.132-9.852,5.867-21.946,6.332-32.833c0.433-10.108,0.509-20.244,0.425-30.36
				C102.612,17.678,101.612,17.678,101.618,18.323z"/>
		</g>
	</g>
	<g>
		<g>
			<path stroke="#000000" stroke-miterlimit="10" d="M103.676,69.267c2.068-2.783,2.63-7.171,3.188-10.445
				c2.488-14.611,1.486-29.896,0.193-44.562c-0.015-0.165-0.082-0.357-0.248-0.432c-5.545-2.489-11.854-3.457-17.795-4.482
				c-8.453-1.458-16.979-2.504-25.504-3.43c-7.913-0.86-15.843-1.579-23.782-2.147c-3.631-0.26-7.802-1.036-11.439-0.49
				c-0.636,0.095-0.365,1.059,0.266,0.964c1.261-0.189,2.892,0.03,4.225,0.095c3.026,0.147,6.049,0.36,9.07,0.586
				c8.749,0.654,17.486,1.495,26.203,2.5c9,1.038,18.012,2.23,26.893,4.048c3.164,0.647,6.328,1.385,9.383,2.439
				c0.589,0.203,1.171,0.429,1.744,0.676c0.436,0.188,0.406,4.766,0.451,5.385c0.273,3.678,0.472,7.361,0.604,11.046
				c0.364,10.081,0.351,20.489-1.774,30.401c-0.504,2.351-1.057,5.348-2.539,7.343C102.429,69.28,103.296,69.778,103.676,69.267
				L103.676,69.267z"/>
		</g>
	</g>
	<g id="Ebene_3">
		<g>
			<g>
				<path stroke="#000000" stroke-miterlimit="10" d="M35.502,20.93c-0.458,2.722-3.745,18.011,2.605,14.993
					c0.582-0.277,0.074-1.139-0.505-0.863c-3.388,1.61-2.168-5.498-2.028-7.058c0.206-2.277,0.512-4.551,0.891-6.806
					C36.573,20.565,35.609,20.295,35.502,20.93L35.502,20.93z"/>
			</g>
		</g>
		<g>
			<g>
				<path stroke="#000000" stroke-miterlimit="10" d="M32.68,26.629c2.57,0.253,5.143,0.491,7.71,0.771c0.641,0.07,0.634-0.931,0-1
					c-2.567-0.281-5.14-0.519-7.71-0.771C32.038,25.566,32.044,26.567,32.68,26.629L32.68,26.629z"/>
			</g>
		</g>
		<g>
			<g>
				<path stroke="#000000" stroke-miterlimit="10" d="M43.254,32.026c1.627,0.152,4.634,0.204,5.591-1.457
					c1.626-2.823-1.629-3.627-3.822-2.912c-2.405,0.784-3.841,4.065-3.499,6.404c0.217,1.482,1.719,2.471,3.023,2.893
					c1.524,0.493,3.187-0.26,4.466-1.03c0.552-0.332,0.049-1.197-0.505-0.863c-1.962,1.181-5.283,1.678-6.02-1.265
					c-0.469-1.872,1.1-4.234,2.66-5.109c0.689-0.387,2.359-0.487,3.021,0.026c1.002,0.777-1.009,1.948-1.524,2.103
					c-1.062,0.32-2.292,0.313-3.392,0.21C42.612,30.966,42.618,31.966,43.254,32.026L43.254,32.026z"/>
			</g>
		</g>
		<g>
			<g>
				<path stroke="#000000" stroke-miterlimit="10" d="M60.018,32.1c0.485-0.404,1.161-1.172,0.836-1.856
					c-0.414-0.875-1.534-0.865-2.37-0.85c-1.628,0.03-5.009,0.266-5.784,2.042c-1.043,2.394,4.806,4.052,6.208,4.668
					c0.913,0.401,1.305,0.631,0.284,1.27c-0.847,0.529-1.902,0.631-2.875,0.641c-0.879,0.009-1.75-0.168-2.587-0.425
					c-0.223-0.069-1.576-0.523-1.082-0.785c0.57-0.302,0.064-1.165-0.505-0.863c-2.444,1.294,1.663,2.75,2.604,2.925
					c1.518,0.284,6.54,0.193,6.186-2.386c-0.208-1.525-8.405-3.445-7.188-4.837c0.771-0.883,2.626-1.046,3.704-1.174
					c0.7-0.083,3.331-0.3,1.863,0.924C58.814,31.806,59.526,32.509,60.018,32.1L60.018,32.1z"/>
			</g>
		</g>
		<g>
			<g>
				<path stroke="#000000" stroke-miterlimit="10" d="M67.556,26.107c-0.705,2.261-4.767,15.205,0.614,14.272
					c0.636-0.11,0.365-1.073-0.267-0.964c-3.17,0.55,0.074-11.304,0.615-13.042C68.711,25.755,67.746,25.493,67.556,26.107
					L67.556,26.107z"/>
			</g>
		</g>
		<g>
			<g>
				<path stroke="#000000" stroke-miterlimit="10" d="M64.159,30.356c1.908,0.698,3.818,1.395,5.729,2.092
					c0.606,0.222,0.865-0.745,0.266-0.964c-1.909-0.698-3.818-1.395-5.729-2.092C63.817,29.17,63.558,30.137,64.159,30.356
					L64.159,30.356z"/>
			</g>
		</g>
		<g>
			<g>
				<path stroke="#000000" stroke-miterlimit="10" d="M44.175,51.485c0.583-1.951,0.093-4.72-2.464-4.708
					c-2.653,0.012-4.438,3.36-5.243,5.469c-0.887,2.327-0.629,5.119,2.269,5.443c2.397,0.268,5.849-0.482,7.151-2.781
					c0.318-0.562-0.545-1.066-0.863-0.505c-0.698,1.231-2.251,1.821-3.538,2.128c-1.147,0.274-3.076,0.503-4.029-0.361
					c-0.76-0.691-0.457-2.113-0.247-2.958c0.47-1.894,1.699-3.916,3.311-5.042c2.225-1.555,3.218,1.281,2.69,3.049
					C43.025,51.839,43.991,52.102,44.175,51.485L44.175,51.485z"/>
			</g>
		</g>
		<g>
			<g>
				<path stroke="#000000" stroke-miterlimit="10" d="M57.723,52.366c0.815-2.625-1.722-4.095-4.011-3.174
					c-2.619,1.053-5.162,4.293-5.569,7.082c-0.475,3.251,3.526,2.642,5.304,1.594c2.375-1.398,4.017-4.3,4.937-6.823
					c0.194-0.532-0.666-0.892-0.914-0.385c-1.016,2.08-4.013,8.396-0.362,9.437c0.622,0.177,0.885-0.788,0.266-0.964
					c-2.49-0.709,0.254-6.522,0.96-7.968c-0.305-0.128-0.609-0.257-0.914-0.385c-0.484,1.326-1.198,2.578-1.994,3.738
					c-0.75,1.091-1.703,2.027-2.844,2.7c-0.855,0.504-3.04,1.164-3.444-0.184c-0.554-1.848,1.843-4.441,2.994-5.56
					c0.767-0.746,1.765-1.476,2.856-1.602c1.52-0.176,2.145,1.023,1.771,2.229C56.567,52.718,57.533,52.979,57.723,52.366
					L57.723,52.366z"/>
			</g>
		</g>
		<g>
			<g>
				<path stroke="#000000" stroke-miterlimit="10" d="M69.931,54.35c0.485-0.405,1.159-1.173,0.836-1.856
					c-0.416-0.876-1.535-0.866-2.371-0.85c-1.627,0.03-5.01,0.266-5.783,2.042c-1.045,2.394,4.806,4.052,6.207,4.668
					c0.912,0.4,1.307,0.63,0.285,1.269c-0.847,0.53-1.901,0.632-2.875,0.641c-0.879,0.009-1.75-0.168-2.586-0.425
					c-0.224-0.068-1.576-0.523-1.084-0.785c0.57-0.302,0.065-1.165-0.504-0.863c-2.445,1.294,1.664,2.749,2.604,2.925
					c1.518,0.284,6.542,0.193,6.186-2.387c-0.21-1.525-8.406-3.444-7.189-4.837c0.771-0.883,2.627-1.046,3.705-1.174
					c0.699-0.083,3.332-0.299,1.863,0.925C68.729,54.056,69.44,54.76,69.931,54.35L69.931,54.35z"/>
			</g>
		</g>
		<g>
			<g>
				<path stroke="#000000" stroke-miterlimit="10" d="M74.534,58.461c1.627,0.152,4.634,0.204,5.59-1.457
					c1.625-2.823-1.626-3.629-3.822-2.913c-2.404,0.785-3.84,4.065-3.498,6.404c0.217,1.482,1.719,2.471,3.022,2.893
					c1.524,0.493,3.187-0.26,4.466-1.03c0.553-0.332,0.049-1.197-0.505-0.863c-1.962,1.181-5.282,1.676-6.019-1.266
					c-0.47-1.872,1.099-4.234,2.658-5.109c0.689-0.387,2.36-0.487,3.022,0.027c1.001,0.776-1.011,1.948-1.525,2.104
					c-1.062,0.32-2.291,0.313-3.391,0.21C73.892,57.401,73.897,58.401,74.534,58.461L74.534,58.461z"/>
			</g>
		</g>
	</g>
</g>
<g id="Ebene_6">
	<g>
		<g>
			<path fill="#F7941E" d="M81.083,72.057c1.29,0,1.29-2,0-2S79.794,72.057,81.083,72.057L81.083,72.057z"/>
		</g>
	</g>
	<g>
		<g>
			<path fill="#F7941E" d="M87.167,46.224c1.29,0,1.29-2,0-2S85.877,46.224,87.167,46.224L87.167,46.224z"/>
		</g>
	</g>
	<g>
		<g>
			<path fill="#F7941E" d="M85.167,49.224c1.29,0,1.29-2,0-2S83.877,49.224,85.167,49.224L85.167,49.224z"/>
		</g>
	</g>
	<g>
		<g>
			<path fill="#F7941E" d="M75.25,88.557c1.29,0,1.29-2,0-2S73.96,88.557,75.25,88.557L75.25,88.557z"/>
		</g>
	</g>
	<g>
		<g>
			<path fill="#F7941E" d="M64.333,83.724c1.29,0,1.29-2,0-2S63.044,83.724,64.333,83.724L64.333,83.724z"/>
		</g>
	</g>
	<g>
		<g>
			<path fill="#F7941E" d="M64,133.307c1.29,0,1.29-2,0-2S62.71,133.307,64,133.307L64,133.307z"/>
		</g>
	</g>
	<g>
		<g>
			<path fill="#F7941E" d="M70.083,107.473c1.29,0,1.29-2,0-2S68.793,107.473,70.083,107.473L70.083,107.473z"/>
		</g>
	</g>
	<g>
		<g>
			<path fill="#F7941E" d="M68.083,110.473c1.29,0,1.29-2,0-2S66.793,110.473,68.083,110.473L68.083,110.473z"/>
		</g>
	</g>
	<g>
		<g>
			<path fill="#F7941E" d="M55.834,129.333c1.29,0,1.29-2,0-2S54.544,129.333,55.834,129.333L55.834,129.333z"/>
		</g>
	</g>
	<g>
		<g>
			<path fill="#F7941E" d="M55.834,137.141c1.29,0,1.29-2,0-2S54.544,137.141,55.834,137.141L55.834,137.141z"/>
		</g>
	</g>
	<g>
		<g>
			<path fill="#F7941E" d="M48.784,120.141c1.29,0,1.29-2,0-2S47.495,120.141,48.784,120.141L48.784,120.141z"/>
		</g>
	</g>
	<g>
		<g>
			<path fill="#F7941E" d="M57.083,71.39c1.29,0,1.29-2,0-2S55.794,71.39,57.083,71.39L57.083,71.39z"/>
		</g>
	</g>
	<g>
		<g>
			<path fill="#F7941E" d="M63.583,94.474c1.29,0,1.29-2,0-2S62.294,94.474,63.583,94.474L63.583,94.474z"/>
		</g>
	</g>
	<g>
		<g>
			<path fill="#F7941E" d="M58.167,99.474c1.29,0,1.29-2,0-2S56.877,99.474,58.167,99.474L58.167,99.474z"/>
		</g>
	</g>
	<g>
		<g>
			<path fill="#F7941E" d="M27.583,71.64c1.29,0,1.29-2,0-2S26.294,71.64,27.583,71.64L27.583,71.64z"/>
		</g>
	</g>
	<g>
		<g>
			<path fill="#F7941E" d="M29.5,54.807c1.29,0,1.29-2,0-2S28.21,54.807,29.5,54.807L29.5,54.807z"/>
		</g>
	</g>
	<g>
		<g>
			<path fill="#F7941E" d="M28.5,51.224c1.29,0,1.29-2,0-2S27.21,51.224,28.5,51.224L28.5,51.224z"/>
		</g>
	</g>
	<g>
		<g>
			<path fill="#F7941E" d="M25.417,48.807c1.29,0,1.29-2,0-2S24.127,48.807,25.417,48.807L25.417,48.807z"/>
		</g>
	</g>
	<g>
		<g>
			<path fill="#F7941E" d="M15,46.057c1.29,0,1.29-2,0-2S13.71,46.057,15,46.057L15,46.057z"/>
		</g>
	</g>
	<g>
		<g>
			<path fill="#F7941E" d="M23.917,32.307c1.29,0,1.29-2,0-2S22.627,32.307,23.917,32.307L23.917,32.307z"/>
		</g>
	</g>
	<g>
		<g>
			<path fill="#F7941E" d="M29.625,60.849c1.29,0,1.29-2,0-2S28.335,60.849,29.625,60.849L29.625,60.849z"/>
		</g>
	</g>
	<g>
		<g>
			<path fill="#F7941E" d="M31,68.724c1.29,0,1.29-2,0-2S29.71,68.724,31,68.724L31,68.724z"/>
		</g>
	</g>
	<g>
		<g>
			<path fill="#F7941E" d="M36.5,79.224c1.29,0,1.29-2,0-2S35.21,79.224,36.5,79.224L36.5,79.224z"/>
		</g>
	</g>
	<g>
		<g>
			<path fill="#F7941E" d="M49.25,91.974c1.29,0,1.29-2,0-2S47.96,91.974,49.25,91.974L49.25,91.974z"/>
		</g>
	</g>
	<g>
		<g>
			<path fill="#F7941E" d="M68.25,66.599c1.29,0,1.29-2,0-2S66.96,66.599,68.25,66.599L68.25,66.599z"/>
		</g>
	</g>
	<g>
		<g>
			<path fill="#F7941E" d="M47.625,103.974c1.29,0,1.29-2,0-2S46.335,103.974,47.625,103.974L47.625,103.974z"/>
		</g>
	</g>
	<g>
		<g>
			<path fill="#F7941E" d="M43.625,99.224c1.29,0,1.29-2,0-2S42.335,99.224,43.625,99.224L43.625,99.224z"/>
		</g>
	</g>
	<g>
		<g>
			<path fill="#F7941E" d="M53,103.849c1.29,0,1.29-2,0-2S51.71,103.849,53,103.849L53,103.849z"/>
		</g>
	</g>
	<g>
		<g>
			<path fill="#F7941E" d="M54.375,100.724c1.29,0,1.29-2,0-2S53.085,100.724,54.375,100.724L54.375,100.724z"/>
		</g>
	</g>
	<g>
		<g>
			<path fill="#F7941E" d="M60,93.099c1.29,0,1.29-2,0-2S58.71,93.099,60,93.099L60,93.099z"/>
		</g>
	</g>
	<g>
		<g>
			<path fill="#F7941E" d="M56.875,107.224c1.29,0,1.29-2,0-2S55.585,107.224,56.875,107.224L56.875,107.224z"/>
		</g>
	</g>
</g>
</svg>
