<?xml version="1.0" encoding="utf-8"?>
<!-- Generator: Adobe Illustrator 16.0.0, SVG Export Plug-In . SVG Version: 6.00 Build 0)  -->
<!DOCTYPE svg PUBLIC "-//W3C//DTD SVG 1.1//EN" "http://www.w3.org/Graphics/SVG/1.1/DTD/svg11.dtd">
<svg version="1.1" xmlns="http://www.w3.org/2000/svg" xmlns:xlink="http://www.w3.org/1999/xlink" x="0px" y="0px" width="1284px"
	 height="880px" viewBox="0 0 1284 880" enable-background="new 0 0 1284 880" xml:space="preserve">
<g id="Ebene_13">
	<g id="Ebene_15">
		<path fill="none" stroke="#8C8C8E" stroke-width="3" stroke-linecap="round" stroke-linejoin="round" stroke-miterlimit="10" d="
			M857.001,605.667c0,0-5.667-7.001-9-0.334S831.668,649,837.001,658s10-5,10-5s-12.666,11-11.333,8s6.667-54,16-57
			s4.666,6.667,4.666,6.667"/>
		<path fill="none" stroke="#8C8C8E" stroke-width="3" stroke-linecap="round" stroke-linejoin="round" stroke-miterlimit="10" d="
			M840.334,679.333c0,0-8.667-4.666-9.667,0.334s-3.666,33.999,2.334,33.666s13-2.666,13-2.666s-11.334,12.332-14.334,5.666
			s-2.666-38.332,0.667-40.666s9,7,9,7"/>
		<path fill="none" stroke="#8C8C8E" stroke-width="3" stroke-linecap="round" stroke-linejoin="round" stroke-miterlimit="10" d="
			M913.5,539c0,0-2-24.5-15-28.5s-53,39-67.5,106S818.5,742,835,757c0,0-15.5-10.5-15.5-54.5s6-126.5,61-188c9.5-11,32,1,31.5,30"/>
		<path fill="none" stroke="#8C8C8E" stroke-width="3" stroke-linecap="round" stroke-linejoin="round" stroke-miterlimit="10" d="
			M890.001,556.333c0,0,4.667-21.666-0.333-21.333s-13.334,13.667-14.334,17.667s1.334,16,1.334,16s-1-14,3.333-21.667
			s12.999-17.666,8.333,9.667"/>
	</g>
	<g id="Ebene_14">
		<path fill="#EBECEB" d="M868.5,747.5c0,0,8.5-140.5,42.5-189.5c-7-1.5-18-2-22.5,1s-29.5,29.5-37,72.5s-8,77.5-5,87
			c-14-10-56-21-56-21s-24.5,19-43.5,56s-31.5,48.5-41.5,51s-15,5.5-26.5-6c-20.5-9.658-44-61-60.5-61.5c0,0-17-2.5-26.5,6
			s-69,65-81,73.5s-28.5,16.5-47.5,8.5s-137-45-179-34.5S236,803,156,820.5s-95.5,19.5-104,13c-22.5,21.5-40,36-40,36s26,3,63.5-6.5
			s95-30.5,117-32s110-12,231,27c23,7.5,46.5,18,79-3.5S581,765,607,761.5c0,0,30,9.5,42.5,26s34.5,56,46.5,58c9,6.5,13.5,8,25-2
			s29.5-20,36.5-34.5s31.5-53.5,50-70.5c2.5,9.5,4,20.5,5,28.5c14,7.5,39.5,18,39.5,18s2.5,6,21.5-19.5
			C872,755,868.5,747.5,868.5,747.5z"/>
		<path fill="none" stroke="#000000" stroke-width="3" stroke-linecap="round" stroke-linejoin="round" stroke-miterlimit="10" d="
			M907.001,559c0,0-14.001-3-21.334,1s-29.999,43.333-36.666,83.333s-4,90.001,7.333,100.334c5,3.333,8.666,2.666,12.333,3.333
			c0,0-13.666,0-15.666-3s-21.666-38.334,9-140c12.333-34.666,23.666-46.334,31.333-47s15,1.334,15,1.334"/>
		
			<line fill="none" stroke="#000000" stroke-width="3" stroke-linecap="round" stroke-linejoin="round" stroke-miterlimit="10" x1="903.667" y1="563.667" x2="882.001" y2="563.667"/>
		
			<line fill="none" stroke="#000000" stroke-width="3" stroke-linecap="round" stroke-linejoin="round" stroke-miterlimit="10" x1="866.001" y1="596.334" x2="893.334" y2="596.667"/>
		
			<line fill="none" stroke="#000000" stroke-width="3" stroke-linecap="round" stroke-linejoin="round" stroke-miterlimit="10" x1="851.667" y1="643" x2="878.334" y2="646"/>
		
			<line fill="none" stroke="#000000" stroke-width="3" stroke-linecap="round" stroke-linejoin="round" stroke-miterlimit="10" x1="847.001" y1="687.334" x2="871.667" y2="691.334"/>
		
			<line fill="none" stroke="#000000" stroke-width="3" stroke-linecap="round" stroke-linejoin="round" stroke-miterlimit="10" x1="848.667" y1="719.334" x2="871.667" y2="722.334"/>
		<path fill="none" stroke="#000000" stroke-width="3" stroke-linecap="round" stroke-linejoin="round" stroke-miterlimit="10" d="
			M874.668,767c0,0-16.334,20.001-22.667,18.667s3.667-74-7.333-70.667S828,710,772,784s-67,79-84,51s-57-90-91-70s-95,120-146,98
			s-215-53-314-21s-98,28-123,30c9-6,30-22,38-37c0,0-11,17,168-31c34-6,97-36,227,16c18,5,45,20,81-15s70-75,91-64s54,70,69,69
			s41-14,65-64c15-26,32-42,39-46s52.668,15,52.668,15S796.5,695,789.5,697.5S773,713,758.5,732s-43,86.5-69.5,74
			s-56.5-69.5-72-69.5s-31.5,1.5-79.5,54C527,800.5,501,832,478,830s-102-37.5-155.5-37s-49.5-5.5-119,9.5s-98,36-150.5,28
			c-8,9.5-34.5,39-46.5,40c0,0,43,0,71-7.5s74.5-22.5,88-25s59-14.5,111-10.5s122,22,140,27.5s52,27.5,91.5-3.5s58.5-95,106.5-87
			c12.5,3.5,32,15.5,45.5,35s28,52,46.5,47.5s40.5-19,60.5-51.5s62.5-97.5,78.5-76.5c7.75,9,2.5,55.5,2.75,56.25
			c0,0-0.999,8.575,3.751,10.417S871.75,768.25,874.25,764.5"/>
		<path fill="none" stroke="#000000" stroke-width="3" stroke-linecap="round" stroke-linejoin="round" stroke-miterlimit="10" d="
			M809,740.5c0,0,0.25,24,3.25,25.75s39.751,19.417,39.751,19.417S819.75,774,816.5,770.5s-4.75-17.5-5.75-31.75"/>
		
			<polyline fill="none" stroke="#000000" stroke-width="3" stroke-linecap="round" stroke-linejoin="round" stroke-miterlimit="10" points="
			788,761.667 755.667,741.667 789.333,760.333 		"/>
		
			<polyline fill="none" stroke="#000000" stroke-width="3" stroke-linecap="round" stroke-linejoin="round" stroke-miterlimit="10" points="
			744.333,817 719.667,792 748,816.333 		"/>
		
			<polyline fill="none" stroke="#000000" stroke-width="3" stroke-linecap="round" stroke-linejoin="round" stroke-miterlimit="10" points="
			647.667,782.666 638.334,758.666 652.334,785.333 		"/>
		
			<polyline fill="none" stroke="#000000" stroke-width="3" stroke-linecap="round" stroke-linejoin="round" stroke-miterlimit="10" points="
			572.667,781 573,758.666 576.667,782 		"/>
		
			<polyline fill="none" stroke="#000000" stroke-width="3" stroke-linecap="round" stroke-linejoin="round" stroke-miterlimit="10" points="
			507.667,847.333 523.667,804.333 514,846 		"/>
		
			<line fill="none" stroke="#000000" stroke-width="3" stroke-linecap="round" stroke-linejoin="round" stroke-miterlimit="10" x1="428.333" y1="855.333" x2="455" y2="826"/>
		
			<polyline fill="none" stroke="#000000" stroke-width="3" stroke-linecap="round" stroke-linejoin="round" stroke-miterlimit="10" points="
			321.333,835.666 372,799 329.333,834 		"/>
		<path fill="none" stroke="#000000" stroke-width="3" stroke-linecap="round" stroke-linejoin="round" stroke-miterlimit="10" d="
			M213.667,827.999c1.333-2,48.667-34.667,48.667-34.667l-40,34.667"/>
		
			<polyline fill="none" stroke="#000000" stroke-width="3" stroke-linecap="round" stroke-linejoin="round" stroke-miterlimit="10" points="
			121,845.332 140.333,821.332 109.667,850.666 		"/>
		
			<polyline fill="none" stroke="#009BA4" stroke-width="3" stroke-linecap="round" stroke-linejoin="round" stroke-miterlimit="10" points="
			72.5,854 81.5,845.5 83.5,850.5 81.5,845.5 68.5,854 		"/>
		
			<polyline fill="none" stroke="#009BA4" stroke-width="3" stroke-linecap="round" stroke-linejoin="round" stroke-miterlimit="10" points="
			173,826.5 180.5,820.5 185,825.5 183.5,819 176.5,826 		"/>
		
			<polygon fill="none" stroke="#009BA4" stroke-width="3" stroke-linecap="round" stroke-linejoin="round" stroke-miterlimit="10" points="
			287.5,814 297,808 296.5,816 298,805 		"/>
		
			<polyline fill="none" stroke="#009BA4" stroke-width="3" stroke-linecap="round" stroke-linejoin="round" stroke-miterlimit="10" points="
			391.5,831 400.5,827.5 400.5,834 403,825 388.5,829 		"/>
		<g id="Ebene_17">
			<g>
				<g>
					<path fill="#F7941E" d="M503.5,841c3.224,0,3.224-5,0-5S500.276,841,503.5,841L503.5,841z"/>
				</g>
			</g>
			<g>
				<g>
					<path fill="#F7941E" d="M498.5,850c3.224,0,3.224-5,0-5S495.276,850,498.5,850L498.5,850z"/>
				</g>
			</g>
			<g>
				<g>
					<path fill="#F7941E" d="M556,788.5c3.225,0,3.225-5,0-5S552.775,788.5,556,788.5L556,788.5z"/>
				</g>
			</g>
			<g>
				<g>
					<path fill="#F7941E" d="M552,797c3.225,0,3.225-5,0-5S548.775,797,552,797L552,797z"/>
				</g>
			</g>
			<g>
				<g>
					<path fill="#F7941E" d="M633,764c3.225,0,3.225-5,0-5S629.775,764,633,764L633,764z"/>
				</g>
			</g>
			<g>
				<g>
					<path fill="#F7941E" d="M626,755.5c3.225,0,3.225-5,0-5S622.775,755.5,626,755.5L626,755.5z"/>
				</g>
			</g>
			<g>
				<g>
					<path fill="#F7941E" d="M723,810c3.225,0,3.225-5,0-5S719.775,810,723,810L723,810z"/>
				</g>
			</g>
			<g>
				<g>
					<path fill="#F7941E" d="M726,820.5c3.225,0,3.225-5,0-5S722.775,820.5,726,820.5L726,820.5z"/>
				</g>
			</g>
			<g>
				<g>
					<path fill="#F7941E" d="M719.5,824c3.225,0,3.225-5,0-5S716.275,824,719.5,824L719.5,824z"/>
				</g>
			</g>
			<g>
				<g>
					<path fill="#F7941E" d="M709,823.5c3.225,0,3.225-5,0-5S705.775,823.5,709,823.5L709,823.5z"/>
				</g>
			</g>
			<g>
				<g>
					<path fill="#F7941E" d="M766,773c3.225,0,3.225-5,0-5S762.775,773,766,773L766,773z"/>
				</g>
			</g>
			<g>
				<g>
					<path fill="#F7941E" d="M760.5,763c3.225,0,3.225-5,0-5S757.275,763,760.5,763L760.5,763z"/>
				</g>
			</g>
			<g>
				<g>
					<path fill="#F7941E" d="M754.5,767c3.225,0,3.225-5,0-5S751.275,767,754.5,767L754.5,767z"/>
				</g>
			</g>
			<g>
				<g>
					<path fill="#F7941E" d="M749.5,779.5c3.225,0,3.225-5,0-5S746.275,779.5,749.5,779.5L749.5,779.5z"/>
				</g>
			</g>
			<g>
				<g>
					<path fill="#F7941E" d="M816.5,715c3.225,0,3.225-5,0-5S813.275,715,816.5,715L816.5,715z"/>
				</g>
			</g>
			<g>
				<g>
					<path fill="#F7941E" d="M809.5,709.5c3.225,0,3.225-5,0-5S806.275,709.5,809.5,709.5L809.5,709.5z"/>
				</g>
			</g>
			<g>
				<g>
					<path fill="#F7941E" d="M805.5,725.5c3.225,0,3.225-5,0-5S802.275,725.5,805.5,725.5L805.5,725.5z"/>
				</g>
			</g>
			<g>
				<g>
					<path fill="#F7941E" d="M795.5,730c3.225,0,3.225-5,0-5S792.275,730,795.5,730L795.5,730z"/>
				</g>
			</g>
			<g>
				<g>
					<path fill="#F7941E" d="M865.5,758c3.225,0,3.225-5,0-5S862.275,758,865.5,758L865.5,758z"/>
				</g>
			</g>
			<g>
				<g>
					<path fill="#F7941E" d="M857.5,754.5c3.225,0,3.225-5,0-5S854.275,754.5,857.5,754.5L857.5,754.5z"/>
				</g>
			</g>
			<g>
				<g>
					<path fill="#F7941E" d="M857.5,769c3.225,0,3.225-5,0-5S854.275,769,857.5,769L857.5,769z"/>
				</g>
			</g>
			<g>
				<g>
					<path fill="#F7941E" d="M860.5,738c3.225,0,3.225-5,0-5S857.275,738,860.5,738L860.5,738z"/>
				</g>
			</g>
			<g>
				<g>
					<path fill="#F7941E" d="M860.5,713.5c3.225,0,3.225-5,0-5S857.275,713.5,860.5,713.5L860.5,713.5z"/>
				</g>
			</g>
			<g>
				<g>
					<path fill="#F7941E" d="M855.5,710.5c3.225,0,3.225-5,0-5S852.275,710.5,855.5,710.5L855.5,710.5z"/>
				</g>
			</g>
			<g>
				<g>
					<path fill="#F7941E" d="M854.5,679c3.225,0,3.225-5,0-5S851.275,679,854.5,679L854.5,679z"/>
				</g>
			</g>
			<g>
				<g>
					<path fill="#F7941E" d="M854.5,666c3.225,0,3.225-5,0-5S851.275,666,854.5,666L854.5,666z"/>
				</g>
			</g>
			<g>
				<g>
					<path fill="#F7941E" d="M862.5,655.5c3.225,0,3.225-5,0-5S859.275,655.5,862.5,655.5L862.5,655.5z"/>
				</g>
			</g>
			<g>
				<g>
					<path fill="#F7941E" d="M867.5,640c3.225,0,3.225-5,0-5S864.275,640,867.5,640L867.5,640z"/>
				</g>
			</g>
			<g>
				<g>
					<path fill="#F7941E" d="M863.5,625c3.225,0,3.225-5,0-5S860.275,625,863.5,625L863.5,625z"/>
				</g>
			</g>
			<g>
				<g>
					<path fill="#F7941E" d="M875.5,611c3.225,0,3.225-5,0-5S872.275,611,875.5,611L875.5,611z"/>
				</g>
			</g>
			<g>
				<g>
					<path fill="#F7941E" d="M882.5,591c3.225,0,3.225-5,0-5S879.275,591,882.5,591L882.5,591z"/>
				</g>
			</g>
			<g>
				<g>
					<path fill="#F7941E" d="M879,581c3.225,0,3.225-5,0-5S875.775,581,879,581L879,581z"/>
				</g>
			</g>
			<g>
				<g>
					<path fill="#F7941E" d="M892.5,570.5c3.225,0,3.225-5,0-5S889.275,570.5,892.5,570.5L892.5,570.5z"/>
				</g>
			</g>
		</g>
		
			<polyline fill="none" stroke="#009BA4" stroke-width="3" stroke-linecap="round" stroke-linejoin="round" stroke-miterlimit="10" points="
			469.5,851 478.5,841.5 478.5,848.5 478.5,841.5 465.5,851.5 		"/>
		
			<polyline fill="none" stroke="#009BA4" stroke-width="3" stroke-linecap="round" stroke-linejoin="round" stroke-miterlimit="10" points="
			553,793.5 543,796 543,805.5 542.502,797.998 551,795.5 		"/>
		
			<polyline fill="none" stroke="#009BA4" stroke-width="3" stroke-linecap="round" stroke-linejoin="round" stroke-miterlimit="10" points="
			604.5,755 607.5,746.5 617,753.5 		"/>
		
			<polyline fill="none" stroke="#009BA4" stroke-width="3" stroke-linecap="round" stroke-linejoin="round" stroke-miterlimit="10" points="
			682,817.5 683,815 687.5,826 		"/>
		
			<polyline fill="none" stroke="#009BA4" stroke-width="3" stroke-linecap="round" stroke-linejoin="round" stroke-miterlimit="10" points="
			754,787.5 753,778.5 760.5,775.5 750.5,777 754,787.5 		"/>
		
			<polyline fill="none" stroke="#009BA4" stroke-width="3" stroke-linecap="round" stroke-linejoin="round" stroke-miterlimit="10" points="
			799.5,726.5 795.5,715.5 806,718 794,717 797.5,728.5 		"/>
		
			<polyline fill="none" stroke="#009BA4" stroke-width="3" stroke-linecap="round" stroke-linejoin="round" stroke-miterlimit="10" points="
			858.5,762 852.5,758.999 860,759.5 		"/>
		
			<polyline fill="none" stroke="#009BA4" stroke-width="3" stroke-linecap="round" stroke-linejoin="round" stroke-miterlimit="10" points="
			901,574.5 891.5,578 894.5,583 888,579 897,575 		"/>
		
			<polygon fill="none" stroke="#009BA4" stroke-width="3" stroke-linecap="round" stroke-linejoin="round" stroke-miterlimit="10" points="
			886,620 874.5,622 882,631 875.5,624.5 		"/>
		
			<polyline fill="none" stroke="#009BA4" stroke-width="3" stroke-linecap="round" stroke-linejoin="round" stroke-miterlimit="10" points="
			875.5,662 864,667.5 872.5,675 864,667.5 870.5,663.5 		"/>
		
			<polygon fill="none" stroke="#009BA4" stroke-width="3" stroke-linecap="round" stroke-linejoin="round" stroke-miterlimit="10" points="
			868,702 859,707 870,713.5 861,706.5 		"/>
		
			<polygon fill="none" stroke="#009BA4" stroke-width="3" stroke-linecap="round" stroke-linejoin="round" stroke-miterlimit="10" points="
			868,731 863.5,736.5 869.5,739 863,735 		"/>
	</g>
	<g id="Ebene_12">
		<path fill="none" stroke="#8C8C8E" stroke-width="3" stroke-linecap="round" stroke-linejoin="round" stroke-miterlimit="10" d="
			M940.5,510c0,0-33,39.5-54.5,115c-14,48.5-18.5,128-11,138s18-1,24.5-12.5S941,684,958,576.5c8-49.5,8.5-98.5-25-60.5
			s-76.5,153-60.5,251.5c1,4,15.5,13.5,38.5-32.5s72-200.5,47-232"/>
		<path fill="none" stroke="#8C8C8E" stroke-width="3" stroke-linecap="round" stroke-linejoin="round" stroke-miterlimit="10" d="
			M929.001,611c0,0,4-64.334,6.333-69.667s8.667-18.667,10-11s-18,83.667-18,83.667l5.667-75.667c0,0,13.666-22.332,10.666-5.666"/>
		<path fill="none" stroke="#8C8C8E" stroke-width="3" stroke-linecap="round" stroke-linejoin="round" stroke-miterlimit="10" d="
			M915,681.333c0,0-15.332,55.001-11.666,50.667s11-22,11-22l1-31.667c0,0-16.333,54.666-14,56.333s15.333-27.333,15.333-27.333"/>
		<path fill="none" stroke="#8C8C8E" stroke-width="3" stroke-linecap="round" stroke-linejoin="round" stroke-miterlimit="10" d="
			M935.001,613.333c0,0,22.333-68.333,20.333-48.333s-21,51-21,51"/>
		<path fill="none" stroke="#8C8C8E" stroke-width="3" stroke-linecap="round" stroke-linejoin="round" stroke-miterlimit="10" d="
			M928.001,648c0,0-1.334,28.001,1.333,21.667s14.667-37.666,7-32s-10.333,10-10.333,10s-2.334,26.334,1.333,24"/>
		<path fill="none" stroke="#8C8C8E" stroke-width="3" stroke-linecap="round" stroke-linejoin="round" stroke-miterlimit="10" d="
			M908.334,677c0,0-25.668,48.999-26.334,52.666S884,746,884,746l26.667-67.334l-30,46.334c0,0-1.333,25.667,3,23
			s26.667-72,26.667-72"/>
		<path fill="none" stroke="#8C8C8E" stroke-width="3" stroke-linecap="round" stroke-linejoin="round" stroke-miterlimit="10" d="
			M915.001,642.667c0,0-1.666-41.666-8.333-37.333s-17.333,57-13,56s17.334-10,21-15s1-52.668-7-37.334s-16.333,53.666-15,57
			s22.333-17,22.333-17"/>
	</g>
</g>
<g id="Ebene_11">
	<path d="M964.333,108.333c0,0-6.333,18.333,9.725,31.423c37.696,30.728,142.383,26.868,109.606-17.537
		C1068.562,101.759,1047.689,82,1017,82C986.312,82,967.667,91.667,964.333,108.333z"/>
	<path fill="#F7941E" d="M998.333,124.333c0,0-3.743-5.205-0.333-6.667c1.949-6.333-1.152-11.077,5.667-7.667
		c6.82,3.41,48.871,1.719,48.871,1.719s4.386,0.487,2.437,4.872c-1.948,4.384,2.923-1.949,0,6.333
		c-2.922,8.281,0.487-0.488-0.975,3.41s-7.37,11.132-28.667,8.667C1009.264,133.14,998.333,127.743,998.333,124.333z"/>
	<path d="M1000.333,108.667c0,0,25.334,22,53,5.667c0,0,25.667-89.462,25.667-94.333s-51.771-33.254-81-5
		C1003.358,37.408,1002.133,75.497,1000.333,108.667z"/>
	<path d="M1040.332,228.002c-19.244-35.23-20.667-32.667-34.667-43.333c-11.63-8.861-17.29-14.251-27.29-10.918
		c13.334,4,4.917,16.25,10.25,24.25s14.375,5.125,14.374,8c-10,10.667-33.333,4-37.999,12.667S945.5,319.5,940.833,345.666
		C935.5,371.5,933.982,451.624,934.334,471C934.667,489.334,919,495.5,918,510.5c-0.622,9.337,0.025,23.892,1,22.5
		c2.334-3.333,16.334-22.416,15.417-20.999s3.5-4.417,6.583-5.501c3.667-3.667,6.959,32.606,10.333,33.833
		c5.5,2,9.667-45.333,6.334-50.167C949.264,477.98,944.333,472.832,947,469.5c2.667-3.334,7-0.5,7-0.5l12-132
		c0,0,17.666-85.5,23-93.5s36.841,51.234,50.5,74c4.5,7.5,9.5,36,3.5,54c-8.666,26.667-14.533,42.359-16,80.5c-1,26,5,53.5-1.5,94
		c23-31,20.312-48.839,21-42c3.786,37.662,0.051,72.638,0.5,75.333c0.667,4,3.332,135.335-4.668,154.668
		c-0.667,4-1.332,16.666-1.332,16.666l5.332-0.666c0,0-3.332,5.166-5.332,10.499s-6.166,14.333-4.166,17s31.999,3.333,34.666,2
		s-1.5-9.5-2.5-15c-0.377-2.074-5.335-11.832-5.335-11.832l5.333,0.666L1067.666,582l1.335-96.667c0,0,14.999,34.167,20.499,58.167
		c2.5-21,1.834-60.5,1.834-60.5l7.666,94.999l-4,169.501l7.998,1.834v8.667c0,0-6,9.334-5.333,14.667s74,0.666,74,0.666
		s-0.667-10.667-28-14c-8.667-1.333-24.001-1.334-26.667-10c2.667-2,4.002-1.334,4.002-1.334s-2.666-168.668-3.333-178.001
		s-6.845-172.642-16.167-212.499c-4.249-18.166-5.802-42.962-6.5-66c-0.5-16.5-9.334-80.833-9.334-80.833
		s43.834,43.356,54.084,54.583c28,30.667,60.083,49.333,78.75,62S1239,341,1239,341l5.25-4.75c0,0,0.082,17.083,4.082,23.083
		s12,14,12,14s2.001-8-0.666-11.333s-4-16-4-16s9.668,6.751,13.584,17c2.562,6.708,2.75,31,8,35.25c2.666,2,2.5-31.25,5.5-43.75
		c0.666-3.333-17.084-21.167-25.751-31.167s-88.499-50.833-100-66c-4.503-5.939-59.415-69.083-66.749-77.083
		c-4.84-5.279-15.349-3.572-24.19,4.8c0.065-6.8-10.271-18.122-11.435-18.8c-7.5-4.375,3.5,7.625,3.041,31.75
		c-1.334,11.333,7.667,80.167,10.334,95.5C1062.5,278.5,1063,269.5,1040.332,228.002z"/>
</g>
</svg>
