<?xml version="1.0" encoding="utf-8"?>
<!-- Generator: Adobe Illustrator 16.0.0, SVG Export Plug-In . SVG Version: 6.00 Build 0)  -->
<!DOCTYPE svg PUBLIC "-//W3C//DTD SVG 1.1//EN" "http://www.w3.org/Graphics/SVG/1.1/DTD/svg11.dtd">
<svg version="1.1" xmlns="http://www.w3.org/2000/svg" xmlns:xlink="http://www.w3.org/1999/xlink" x="0px" y="0px" width="400px"
	 height="300px" viewBox="0 0 400 300" enable-background="new 0 0 400 300" xml:space="preserve">
<g id="weiß">
	<path fill="#FFFFFF" d="M164.368,260.719l142.714-59.612c0,0,17.104-92.112,26.606-100.988c-7.67-1.589-9.171-0.063-9.171-0.063
		s-3.964-7.253-9.296-9.333c0.617-7.852,2.608-20.18,2.608-20.18l-35.608,5.012l1.808-19.668l-44.141,4.979
		c0,0-5.416-15.426-7.612-15.512C230.081,45.269,192,52.717,192,52.717l-2.718,1.161l1.781,11.036
		c0,0-122.073,31.591-123.945,35.117c1.028,6.454,3.896,8.472,3.896,8.472l46.104,127.406l18.051-5.417l1.5,16.456l5.099-1.488
		l15.245-5.429l2.331,18.793L164.368,260.719z"/>
</g>
<g id="schwarz">
	<path fill="none" stroke="#000000" stroke-width="2" stroke-linecap="round" stroke-linejoin="round" stroke-miterlimit="10" d="
		M161.759,258.042c0,0,4.562-106.972,10.571-114.985c6.009-8.014,151.812-48.335,161.358-42.938
		c-5.038,13.847-31.501,70.161-31.008,104.098c-22.978,10.691-98.171,37.42-113.74,45.277c-15.57,7.857-30,12.808-29.597,9.33
		c0.403-3.478-19.314-133.077-17.455-136.923c1.86-3.846,120.113-32.525,128.323-33.141c3.199-7.489,8.682-12.508,8.682-12.508
		s35.643-7.519,36.192-6.966c0.549,0.553-0.172,19.315-0.172,19.315l2.916-18.059l-44.302,6.723l-6.919,15.18
		c0,0-117.898,20.794-122.248,24.411c-4.35,3.617,18.866,144.333,18.866,144.333l142.785-58.975c0,0,16.861-82.755,25.902-99.408
		c-5.33-4.597-152.353,32.599-161.118,37.819c-2.673,1.763-5.632-4.284-10.259,117.053"/>
	<path fill="none" stroke="#000000" stroke-width="2" stroke-linecap="round" stroke-linejoin="round" stroke-miterlimit="10" d="
		M137.917,244.302c0,0-8.936-115.805,2.385-118.781c-2.805-2.266-3.958-3.376-3.731,18.737
		c0.227,22.113,3.335,102.988,3.335,102.988l15.08-5.644l-18.316,5.346c0,0-27.095-131.282-29.51-137.78
		c-2.416-6.499,118.362-31.295,125.653-34.14c7.291-2.844,6.392-9.454,7.683-9.838c1.29-0.383,32.944-7.876,38.919-7.327
		c2.169,3.714,2.968,15.948,2.968,15.948l1.647-17.924c0,0-42.848,4.562-45.272,6.365s0.167,11.832-6.672,15.22
		s-120.528,24.82-121.592,25.475C109.428,103.603,106.833,96.334,137.917,244.302z"/>
	<path fill="none" stroke="#000000" stroke-width="2" stroke-linecap="round" stroke-linejoin="round" stroke-miterlimit="10" d="
		M115.113,232.916c0,0-22.771-110.047-21.996-115.75s13.802-6.012,13.802-6.012s-13.937,4.744-15.862,6.576
		c-1.926,1.831,25.003,118.537,25.003,118.537S71.901,107.963,66.496,103.951C67.77,98.294,191.04,65.163,191.04,65.163
		s-1.917-9.559-1.758-11.285s33.577-7.13,41.521-6.148c3.46,3.331,9.086,13.137,9.086,13.137s-5.712-14.333-7.612-15.512
		c-1.9-1.179-40.485,6.011-40.485,6.011l2.056,13.302c0,0-123.942,32.356-126.729,35.363
		c7.841,13.022,48.942,136.236,48.942,136.236l15.752-5.33l-16.213,3.326"/>
</g>
<g id="blau">
	<path fill="none" stroke="#C6DBE3" stroke-width="2" stroke-linecap="round" stroke-linejoin="round" stroke-miterlimit="10" d="
		M323.326,98.144l-0.565-2.042c0,0-151.07,31.372-159.974,44.255c-2.6,18.121-3.199,93.65-3.199,93.65l-4.074-97.798
		c0,0,77.737-30.458,167.519-43.068c-11.63-1.849-170.817,39.32-170.817,39.32l8.187,98.607c0,0-10.228-97.917-11.601-100.902
		c8.86-5.057,165.424-39.535,165.424-39.535l3.579,2.029"/>
	<path fill="none" stroke="#C6DBE3" stroke-width="2" stroke-linecap="round" stroke-linejoin="round" stroke-miterlimit="10" d="
		M266.69,84.129c0,0-139.827,31.657-146.011,39.085c0.258,13.581,13.417,94.374,13.417,94.374l-18.75-101.894
		c149.306-39.139,155.632-35.577,153.925-35.809"/>
	<path fill="none" stroke="#C6DBE3" stroke-width="2" stroke-linecap="round" stroke-linejoin="round" stroke-miterlimit="10" d="
		M234.117,70.852L85.114,108.647l12.027,54.868c0,0-17.753-55.395-19.313-57.546c15.191-4.126,157.172-39.647,157.172-39.647"/>
</g>
<g id="Sparcles">
	<g>
		<g>
			<path fill="#F5952F" d="M207.406,133.184c3.869,0,3.869-6,0-6S203.537,133.184,207.406,133.184L207.406,133.184z"/>
		</g>
	</g>
	<g>
		<g>
			<path fill="#F5952F" d="M77.518,77.057c3.869,0,3.869-6,0-6S73.649,77.057,77.518,77.057L77.518,77.057z"/>
		</g>
	</g>
	<g>
		<g>
			<path fill="#F5952F" d="M66.444,41.645c3.869,0,3.869-6,0-6S62.575,41.645,66.444,41.645L66.444,41.645z"/>
		</g>
	</g>
	<g>
		<g>
			<path fill="#F5952F" d="M175.51,182.471c3.869,0,3.869-6,0-6S171.641,182.471,175.51,182.471L175.51,182.471z"/>
		</g>
	</g>
	<g>
		<g>
			<path fill="#F5952F" d="M197.973,123.831c3.869,0,3.869-6,0-6S194.104,123.831,197.973,123.831L197.973,123.831z"/>
		</g>
	</g>
	<g>
		<g>
			<path fill="#F5952F" d="M167.592,200.32c3.869,0,3.869-6,0-6S163.723,200.32,167.592,200.32L167.592,200.32z"/>
		</g>
	</g>
	<g>
		<g>
			<path fill="#F5952F" d="M68.618,58.967c3.869,0,3.869-6,0-6S64.749,58.967,68.618,58.967L68.618,58.967z"/>
		</g>
	</g>
	<g>
		<g>
			<path fill="#F5952F" d="M314.224,80.635c3.869,0,3.869-6,0-6S310.354,80.635,314.224,80.635L314.224,80.635z"/>
		</g>
	</g>
	<g>
		<g>
			<path fill="#F5952F" d="M357.288,154.997c3.869,0,3.869-6,0-6S353.419,154.997,357.288,154.997L357.288,154.997z"/>
		</g>
	</g>
	<g>
		<g>
			<path fill="#F5952F" d="M325.79,124.538c3.869,0,3.869-6,0-6S321.921,124.538,325.79,124.538L325.79,124.538z"/>
		</g>
	</g>
	<g>
		<g>
			<path fill="#F5952F" d="M325.57,141.249c3.869,0,3.869-6,0-6S321.701,141.249,325.57,141.249L325.57,141.249z"/>
		</g>
	</g>
	<g>
		<g>
			<path fill="#F5952F" d="M320.254,157.183c3.869,0,3.869-6,0-6S316.385,157.183,320.254,157.183L320.254,157.183z"/>
		</g>
	</g>
	<g>
		<g>
			<path fill="#F5952F" d="M306.541,169.871c3.869,0,3.869-6,0-6S302.672,169.871,306.541,169.871L306.541,169.871z"/>
		</g>
	</g>
	<g>
		<g>
			<path fill="#F5952F" d="M296.635,182.526c3.869,0,3.869-6,0-6S292.766,182.526,296.635,182.526L296.635,182.526z"/>
		</g>
	</g>
	<g>
		<g>
			<path fill="#F5952F" d="M305.938,98.608c3.869,0,3.869-6,0-6S302.068,98.608,305.938,98.608L305.938,98.608z"/>
		</g>
	</g>
	<g>
		<g>
			<path fill="#F5952F" d="M264.492,107.552c3.869,0,3.869-6,0-6S260.623,107.552,264.492,107.552L264.492,107.552z"/>
		</g>
	</g>
	<g>
		<g>
			<path fill="#F5952F" d="M156.743,140.828c3.869,0,3.869-6,0-6S152.874,140.828,156.743,140.828L156.743,140.828z"/>
		</g>
	</g>
	<g>
		<g>
			<path fill="#F5952F" d="M252.57,125.871c3.869,0,3.869-6,0-6S248.701,125.871,252.57,125.871L252.57,125.871z"/>
		</g>
	</g>
	<g>
		<g>
			<path fill="#F5952F" d="M78.19,176.034c3.869,0,3.869-6,0-6S74.321,176.034,78.19,176.034L78.19,176.034z"/>
		</g>
	</g>
	<g>
		<g>
			<path fill="#F5952F" d="M76.101,160.527c3.869,0,3.869-6,0-6S72.232,160.527,76.101,160.527L76.101,160.527z"/>
		</g>
	</g>
	<g>
		<g>
			<path fill="#F5952F" d="M82.471,151.322c3.869,0,3.869-6,0-6S78.602,151.322,82.471,151.322L82.471,151.322z"/>
		</g>
	</g>
	<g>
		<g>
			<path fill="#F5952F" d="M89.879,144.472c3.869,0,3.869-6,0-6S86.01,144.472,89.879,144.472L89.879,144.472z"/>
		</g>
	</g>
	<g>
		<g>
			<path fill="#F5952F" d="M77.222,126.487c3.869,0,3.869-6,0-6S73.353,126.487,77.222,126.487L77.222,126.487z"/>
		</g>
	</g>
	<g>
		<g>
			<path fill="#F5952F" d="M46.681,90.038c3.869,0,3.869-6,0-6S42.812,90.038,46.681,90.038L46.681,90.038z"/>
		</g>
	</g>
	<g>
		<g>
			<path fill="#F5952F" d="M119.105,94.186c3.869,0,3.869-6,0-6S115.236,94.186,119.105,94.186L119.105,94.186z"/>
		</g>
	</g>
	<g>
		<g>
			<path fill="#F5952F" d="M144.367,92.492c3.869,0,3.869-6,0-6S140.498,92.492,144.367,92.492L144.367,92.492z"/>
		</g>
	</g>
</g>
</svg>
