<?xml version="1.0" encoding="utf-8"?>
<!-- Generator: Adobe Illustrator 16.0.0, SVG Export Plug-In . SVG Version: 6.00 Build 0)  -->
<!DOCTYPE svg PUBLIC "-//W3C//DTD SVG 1.1//EN" "http://www.w3.org/Graphics/SVG/1.1/DTD/svg11.dtd">
<svg version="1.1" xmlns="http://www.w3.org/2000/svg" xmlns:xlink="http://www.w3.org/1999/xlink" x="0px" y="0px" width="400px"
	 height="300px" viewBox="0 0 400 300" enable-background="new 0 0 400 300" xml:space="preserve">
<g id="weiß">
	<path fill="#FFFFFF" d="M285.667,54.5c0,0-8.843-4.299-5.588-4.899s9.966-0.066,8.443-4.083s-9.772-5.48-32.022-23.749
		c-7.27-2.46-10.166-5.008-14.333-1.888c-3.833-4.047-4.665-4.535-8.167-4.343s-4.833,0.296-4.833,0.296s-1.104-4.832-3.861-6.804
		S217.084,2.5,215.667,5.5c-2.731-2.67-5.116-8.148-12.392-2.824s-6.003,7.108-10.32,12.861S187,23.427,185.5,26.838
		C184.833,28,176,28,176,28s-5.146-8.909-12.448-13.705c-1.661-0.663-6.308-3.909-11.18,5.648s-6.787,9.064-6.787,9.064
		s-4.335,6.164-6.835,11.828c-1,1.414-3.083,3.676-3.083,3.676s-2.242-0.262-10.167,2.238s-15.271,6.062-24.25,7.75
		c0,0-9.125,4-12.875,3.625c-3.586,1.164-4.065,1.667-8.055,7.829c0,0-3.448,5.269-4.257,7.054s-1.188,3.233-1.188,3.233
		s-3.75-0.492-5.125,2.883s-7.421,9.678-8.714,11.157s-3.191,4.464-3.055,8.218s-1.356,17.75,1.29,21.054
		c3.72,4.367,8.979,7.946,17.604,8.696c1.693,3.264,2.923,6.78,1.818,11.188s-7.568,19.062-4.068,20.188
		c-2.698,3.813-4.953,3.813-3.716,6.275s9.875,19.486,14.608,20.418s10.564-1.113,11.811,0s6.255,6.651,6.255,9.205
		s-1.496,6.183,0.086,7.477s7.956,5.49,10.331,5.62c2.273,2.962,5.282,6.362,4.766,8.621c-0.391,1.259,16.734,16.384,16.734,16.384
		s-0.916,8.075,0.353,11.132s6.347,11.08,8.544,12.661s7.681,6.386,9.978,8.832s12.375,12.232,16.75,11.5s7.26-1.251,9.476-0.428
		s8.997,5.109,12.308,4.447s6.75-1.267,8.785-0.67s6.476,2.742,11.101,0.492s4.591-2.732,6.487-1.092s7.332,7.559,10.025,3.404
		s0.265-4.877,3.866-6.891s14.702-5.264,17.327-4.764s4.472-3.085,5.841-4.776s11.184-12.306,11.826-14.349s1.857-2.821,2.357-5.016
		S271,234.25,270.5,233.125c2.743-4.266,5.081-10.246,5.922-14.715s1.638-18.32,6.019-20.333s10.879-3.431,13.526-1.997
		s5.977,2.816,7.63,5.931s2.353,5.151,8.44,1.195c2.463-1.01,7.854-2.167,8.318-4.138s-0.23-2.469,2.395-3.831
		s9.202-12.132,9.15-13.862s-3.143-8.875-3.271-11.125s1.811-1.392,2.087-7.252s1.48-26.569,0.264-30.373s-4.565-13.058-7.46-14.529
		s-2.787-2.741-2.895-4.596s-2.26-16.375-7.317-18.75s-6.058-5.375-6.933-8.625s-1.032-8.898-0.623-10.875s3.037-2.677-2.482-7.213
		s-4.43-5.496-4.037-7.204s-2.607-5.244-4.357-5.976S289.334,57.5,285.667,54.5z"/>
</g>
<g id="schwarz">
	<path fill="none" stroke="#000000" stroke-width="2" stroke-linecap="round" stroke-linejoin="round" stroke-miterlimit="10" d="
		M230.625,56.522c0,0-1.5,3.228,0,4.978s11.25,7.25,14.125,10.625S246.25,90,246.375,93.5s-0.625,5.125-1.5,5.625
		s-1.75,1.568-1.875,3.534s-0.125,15.716,0.375,16.841s5.25,4.625,6.375,3.25s4.5-4,4.625-5.25"/>
	<path fill="none" stroke="#000000" stroke-width="2" stroke-linecap="round" stroke-linejoin="round" stroke-miterlimit="10" d="
		M280.875,70.875c0,0,2.875,1.75,2.875,3s-3.75,4.375-3.5,6.25s25.75,43.375,25.5,52.5"/>
	<path fill="none" stroke="#000000" stroke-width="2" stroke-linecap="round" stroke-linejoin="round" stroke-miterlimit="10" d="
		M274.375,79.125c0,0-2.25,1.375-1.375,6.375s1.75,6.5,1.375,9.25s-1.375,17.875,0.875,16.875s4.25-2.625,5.625-0.75
		c4.125,5.125,13.375,26.5,15.625,23c1.125-1.375,2.25-4.875,4.5-2.25c1,1.125,1.25,1.75,1.25,1.75"/>
	<path fill="none" stroke="#000000" stroke-width="2" stroke-linecap="round" stroke-linejoin="round" stroke-miterlimit="10" d="
		M287.524,55.667c0,0,2.351,0.292,4.601,0s4.375-0.792,5.75,2.333s1.75,2.875,1.375,4.375s2.629,5.125,6.502,7.375
		c1.373,1.125,0.252,3.625,0,5.5s0.373,10.5,1.248,12.25s0.089,7.875,0.339,8.25"/>
	<path fill="none" stroke="#000000" stroke-width="2" stroke-linecap="round" stroke-linejoin="round" stroke-miterlimit="10" d="
		M307.402,89.794c0,0,1.973,2.581,3.848,3.706s4.75,2.375,6.25,7.125s4.5,13.75,3.25,18.625s-3.375,7-3.375,7"/>
	<path fill="none" stroke="#000000" stroke-width="2" stroke-linecap="round" stroke-linejoin="round" stroke-miterlimit="10" d="
		M321.048,117c0,0,3.077,0.5,4.827,3.75s5.875,10.625,5.625,16.375s-0.375,27.5-1.25,29.5s-2.75,4.75-1.375,6.5
		s4.021,6.125,2.636,9.25s-6.136,11.25-9.136,13.125s-1,3.75-3,4.75s-8.375,3-9.625,4.25s-2.871,1.125-3.998,0
		s-6.512-8.75-12.757-9.125s-13.12,2.625-13.995,7.5s-2.875,23-6.75,27.5s-6.375,8.75-6.25,10.75"/>
	<path fill="none" stroke="#000000" stroke-width="2" stroke-linecap="round" stroke-linejoin="round" stroke-miterlimit="10" d="
		M270.495,232.515c0,0,1.63,7.485,1.005,10.735s-0.75,5.5-2.125,7s-0.75,3.375-2.375,5s-10.75,11.875-12.125,14.25
		s-2.625,3.125-5.125,3s-12,0.375-18,5.625c-1,1.125-1.75,2.25-1.875,3.875s-1.5,4.5-4,3.5s-8-7.375-10.875-5.25s-6.25,3-8.75,2.25
		s-6.625-2.375-8.75-1.75s-6.375,1.75-8,0.625s-10.375-5.25-12.625-4.75s-6.375,2.5-7.625,1.75s-9.875-6.25-14.875-12.125
		c-5.875-6.625-9.875-8.5-11.5-10s-7.25-9.375-7.375-13.375s0-9.25,0-9.25"/>
	<path fill="none" stroke="#000000" stroke-width="2" stroke-linecap="round" stroke-linejoin="round" stroke-miterlimit="10" d="
		M147.625,241.125c0,0,0.875-3.25-2.625-6s-4.75-2.75-6.25-2s-2.75,1.529-4.5-0.61s-12.625-12.64-14-13.265s-1.75-0.375-1.375-2.875
		s-5-7.25-5.375-7.375"/>
	<path fill="none" stroke="#000000" stroke-width="2" stroke-linecap="round" stroke-linejoin="round" stroke-miterlimit="10" d="
		M119.375,204c0,0-2.75,5.875-7.5,4.375s-8.75-5-8.25-8.625s6.625-13.25,9.875-12.125"/>
	<path fill="none" stroke="#000000" stroke-width="2" stroke-linecap="round" stroke-linejoin="round" stroke-miterlimit="10" d="
		M144,179.062c0,0-0.875,9.938,1.25,15.312s8.375,22.75,9,26.875s3.5,6.375,4.5,6.875"/>
	<path fill="none" stroke="#000000" stroke-width="2" stroke-linecap="round" stroke-linejoin="round" stroke-miterlimit="10" d="
		M103.583,198.077c0,0,0.667-3.827-1.708-6.577s-3.875-5.625-6.125-5.75s-12.125,4.625-16.875-5.625s-9.625-14.125-7.625-16
		s3.375-4.5,3.375-4.5"/>
	<path fill="none" stroke="#000000" stroke-width="2" stroke-linecap="round" stroke-linejoin="round" stroke-miterlimit="10" d="
		M224.75,181.375c0,0-6.625-15.75-8.125-17.25s-5.5-8.25,0-17.5"/>
	<path fill="none" stroke="#000000" stroke-width="2" stroke-linecap="round" stroke-linejoin="round" stroke-miterlimit="10" d="
		M250.625,140.875c0,0-9.5-1.75-11.625-0.875s-7.084,2.25-9.042,0.875s-6.271-4.125-10.677-4.125s-10.781,2.5-12.656,5.375"/>
	<path fill="none" stroke="#000000" stroke-width="2" stroke-linecap="round" stroke-linejoin="round" stroke-miterlimit="10" d="
		M201.375,166.625c0,0-2.75,3.375-7.25,5S186.5,169.5,189.25,164s8.625-12.375,10.75-14s3-6.25,3.25-9.25s-1.375-6.104-3.75-6.49
		s-9.75,2.49-13.625-0.51s-6.5-3.625-9-3s-16.375,7.24-18.625,12.558s-6.75,20.192-11.125,24.942s-9.375,3.125-13.625,1.375
		s-15.5-7-17.25-6.875"/>
	<path fill="none" stroke="#000000" stroke-width="2" stroke-linecap="round" stroke-linejoin="round" stroke-miterlimit="10" d="
		M140.375,123.065c0,0-1.875,1.935,0,4.435s3.625,4.646,2.125,6.76s-3.792,5.49-2.958,7.865s5.583,9.375,0.958,11
		s-26.875,10-30,11.875s-5.125,3-8.25,1.625s-13.715-7.438-20.875-7s-8.664-0.222-7.664-3.722s6.211-16.94,5.414-21.643
		c-1.125-6.635-2.25-6.01-2.25-6.01"/>
	<path fill="none" stroke="#000000" stroke-width="2" stroke-linecap="round" stroke-linejoin="round" stroke-miterlimit="10" d="
		M94.75,115.625c0,0,4.75-1.125,7.625,1.375s4.165,3.625,1.208,5s-20.004,8.25-32.793,5.25S57.875,116.25,58,112
		s0.212-11.125-0.019-13.5S57.625,94,60.5,90.875s8.5-10.25,9.25-11.75s4.375-3.625,8-2.625"/>
	<path fill="none" stroke="#000000" stroke-width="2" stroke-linecap="round" stroke-linejoin="round" stroke-miterlimit="10" d="
		M99,55.667c-0.5,0.583-7.875,2.458-10.625,2.458s-3.25,0.5-5.625,3.625S78.625,70.5,77,71.875s-2.125,4.367-2.125,4.367"/>
	<path fill="none" stroke="#000000" stroke-width="2" stroke-linecap="round" stroke-linejoin="round" stroke-miterlimit="10" d="
		M137,63.25c0,0-1.5,14.375-3.25,15.875s-8.625,9.75-9,12s-1.625,9-5.75,5.625s-9.375-6.625-6.875-9.875s6-8.875,6.125-9.875"/>
	<path fill="none" stroke="#000000" stroke-width="2" stroke-linecap="round" stroke-linejoin="round" stroke-miterlimit="10" d="
		M186.493,54.383c0,0,2.255,2.133,6.631,0"/>
	<path fill="none" stroke="#000000" stroke-width="2" stroke-linecap="round" stroke-linejoin="round" stroke-miterlimit="10" d="
		M255.375,147.875c0,0,0.5,3,3.5,4.5S268.25,155,269.5,158.25s0.41,4.25,2.143,5.75s16.107,14.5,20.107,21.75
		s6.561,7.776,8.875,4.75c1.625-2.125,3.879-0.375,5.127,0.375s7.123,2.346,10.998,1.298s4.298-1.548,4.298-1.548"/>
	<path fill="none" stroke="#000000" stroke-width="2" stroke-linecap="round" stroke-linejoin="round" stroke-miterlimit="10" d="
		M222.625,259.875c0,0-6.625,11.375-14.25,10.25s-10.25-5.125-13.625-7.375s-7-0.625-9.625,0.5s-5.75,2.25-8.5,0.875
		s-6.5-3.625-8-2.625s-3.5,1.5-5.5,0.125s-9.375-7.125-10.375-9.5s-3.875-3.25-5.75,0"/>
</g>
<g id="blau">
	<path fill="none" stroke="#C6DBE3" stroke-width="2" stroke-linecap="round" stroke-linejoin="round" stroke-miterlimit="10" d="
		M285.667,54.5c0,0-2.001-1.667-4.667-2.667s-1.666-3,2.334-2.833s7.332-2.333,4.166-4.5S261.834,25,254.834,21.667
		s-9.666-3.5-10.5-3.167s-3-0.119-3-0.119"/>
	<path fill="none" stroke="#C6DBE3" stroke-width="2" stroke-linecap="round" stroke-linejoin="round" stroke-miterlimit="10" d="
		M251.334,28c0,0-2.668-0.167-5.834-3.833s-5.332-7.666-7.166-8.333s-9.167,0-9.167,0"/>
	<path fill="none" stroke="#C6DBE3" stroke-width="2" stroke-linecap="round" stroke-linejoin="round" stroke-miterlimit="10" d="
		M229.167,17.5c0,0-0.667-2.333-1.167-5s-5.666-5.5-7.833-7s-4.5,0-4.5,0"/>
	<path fill="none" stroke="#C6DBE3" stroke-width="2" stroke-linecap="round" stroke-linejoin="round" stroke-miterlimit="10" d="
		M216.834,11.167c0,0,0.667-2,0-3.167s-5.168-9.167-10.334-7.167s-9.833,8.667-10.167,9.5s-3.833,6.5-6.667,8.833
		s-4,8.333-4.833,8.833S178,26.333,176,28"/>
	<path fill="none" stroke="#C6DBE3" stroke-width="2" stroke-linecap="round" stroke-linejoin="round" stroke-miterlimit="10" d="
		M172.333,33c0,0,6.333-3,2.167-8.333s-12-14.242-17.333-10.371s-5.833,9.372-7.5,10.538S142,32.714,140.5,36.44
		s-1.833,6.559-4.833,8.226"/>
	<path fill="none" stroke="#C6DBE3" stroke-width="2" stroke-linecap="round" stroke-linejoin="round" stroke-miterlimit="10" d="
		M140.667,49.333c0,0-3.667-5.834-8.333-4.667s-21.35,6.403-26.684,9.403"/>
	<path fill="none" stroke="#C6DBE3" stroke-width="2" stroke-linecap="round" stroke-linejoin="round" stroke-miterlimit="10" d="
		M155.793,25.667c0,0,5.874-1,6.374,1.333s4.5,5.167,5.5,6.833s-0.5,0.881-3.5,2.607s-7,4.559-4.833,6.726s3.5,4.167,4.5,4"/>
	<path fill="none" stroke="#C6DBE3" stroke-width="2" stroke-linecap="round" stroke-linejoin="round" stroke-miterlimit="10" d="
		M175.919,48c0,0,5.581,0.333,7.581,3.333c1.739,2.608,1.739,2.608,1.739,2.608"/>
	<path fill="none" stroke="#C6DBE3" stroke-width="2" stroke-linecap="round" stroke-linejoin="round" stroke-miterlimit="10" d="
		M195.167,49.506c0,0,8.166-1.315,5.833-4.994S190.5,34,190.833,32.167"/>
	<path fill="none" stroke="#C6DBE3" stroke-width="2" stroke-linecap="round" stroke-linejoin="round" stroke-miterlimit="10" d="
		M200.799,47.176c0,0,2.855-1.749,4.368-1.323c3.364,0.948,9.666,3.313,19.833-2.02"/>
	<path fill="none" stroke="#C6DBE3" stroke-width="2" stroke-linecap="round" stroke-linejoin="round" stroke-miterlimit="10" d="
		M220,21.769c0,0,5.666,3.551,5,6.308s-4.666,10.756-2.583,11.09s12.63-1.564,14.106-8.699"/>
	<path fill="none" stroke="#C6DBE3" stroke-width="2" stroke-linecap="round" stroke-linejoin="round" stroke-miterlimit="10" d="
		M264.334,44.667c0,0-4.168-1.833-5.834-0.833s-4.332,4.353-7.166,3.343S244.5,42.858,242,44.512S231.501,52,231.334,55.667"/>
	<path fill="none" stroke="#C6DBE3" stroke-width="2" stroke-linecap="round" stroke-linejoin="round" stroke-miterlimit="10" d="
		M30.5,53.167c0,0,7.834-2.334,9.834-1.167s5.333,3.667,6.667,2.5s9.333-0.333,12.333,0s3.833-1.69,7-1.262s16,0.738,18.333,0
		s8,1.595,11.333,2.428s11.5-3.16,16.333-1.997s14.5,2.163,19.833,1.997s57.167-2.333,61.667-1.167s50.167,1.896,57.5,1.282
		s28.833,0.29,36-1.282c8.346-1.83,11.499-1.833,17.666-1.333s32.695,3.166,38.848,2.5s13.319-0.157,16.319,0.338
		S373.666,57,377.5,55.667s9.168-1.333,9.834-1.167"/>
	
		<line fill="none" stroke="#C6DBE3" stroke-width="2" stroke-linecap="round" stroke-linejoin="round" stroke-miterlimit="10" x1="193.124" y1="54.383" x2="196.122" y2="53.5"/>
</g>
<g id="Sparcles">
	<g>
		<g>
			<path fill="#F5952F" d="M205.25,132.5c3.869,0,3.869-6,0-6S201.381,132.5,205.25,132.5L205.25,132.5z"/>
		</g>
	</g>
	<g>
		<g>
			<path fill="#F5952F" d="M205,113.75c3.869,0,3.869-6,0-6S201.131,113.75,205,113.75L205,113.75z"/>
		</g>
	</g>
	<g>
		<g>
			<path fill="#F5952F" d="M205.5,162.25c3.869,0,3.869-6,0-6S201.631,162.25,205.5,162.25L205.5,162.25z"/>
		</g>
	</g>
	<g>
		<g>
			<path fill="#F5952F" d="M191,172c3.869,0,3.869-6,0-6S187.131,172,191,172L191,172z"/>
		</g>
	</g>
	<g>
		<g>
			<path fill="#F5952F" d="M205.25,185c3.869,0,3.869-6,0-6S201.381,185,205.25,185L205.25,185z"/>
		</g>
	</g>
	<g>
		<g>
			<path fill="#F5952F" d="M185.5,203c3.869,0,3.869-6,0-6S181.631,203,185.5,203L185.5,203z"/>
		</g>
	</g>
	<g>
		<g>
			<path fill="#F5952F" d="M254,117.5c3.869,0,3.869-6,0-6S250.131,117.5,254,117.5L254,117.5z"/>
		</g>
	</g>
	<g>
		<g>
			<path fill="#F5952F" d="M295.75,94.25c3.869,0,3.869-6,0-6S291.881,94.25,295.75,94.25L295.75,94.25z"/>
		</g>
	</g>
	<g>
		<g>
			<path fill="#F5952F" d="M356.5,140.5c3.869,0,3.869-6,0-6S352.631,140.5,356.5,140.5L356.5,140.5z"/>
		</g>
	</g>
	<g>
		<g>
			<path fill="#F5952F" d="M327.25,141c3.869,0,3.869-6,0-6S323.381,141,327.25,141L327.25,141z"/>
		</g>
	</g>
	<g>
		<g>
			<path fill="#F5952F" d="M333.5,156.5c3.869,0,3.869-6,0-6S329.631,156.5,333.5,156.5L333.5,156.5z"/>
		</g>
	</g>
	<g>
		<g>
			<path fill="#F5952F" d="M334.75,173.25c3.869,0,3.869-6,0-6S330.881,173.25,334.75,173.25L334.75,173.25z"/>
		</g>
	</g>
	<g>
		<g>
			<path fill="#F5952F" d="M327,190.25c3.869,0,3.869-6,0-6S323.131,190.25,327,190.25L327,190.25z"/>
		</g>
	</g>
	<g>
		<g>
			<path fill="#F5952F" d="M322.75,205.75c3.869,0,3.869-6,0-6S318.881,205.75,322.75,205.75L322.75,205.75z"/>
		</g>
	</g>
	<g>
		<g>
			<path fill="#F5952F" d="M273,262.25c3.869,0,3.869-6,0-6S269.131,262.25,273,262.25L273,262.25z"/>
		</g>
	</g>
	<g>
		<g>
			<path fill="#F5952F" d="M258.75,275.25c3.869,0,3.869-6,0-6S254.881,275.25,258.75,275.25L258.75,275.25z"/>
		</g>
	</g>
	<g>
		<g>
			<path fill="#F5952F" d="M240,281c3.869,0,3.869-6,0-6S236.131,281,240,281L240,281z"/>
		</g>
	</g>
	<g>
		<g>
			<path fill="#F5952F" d="M216,280.75c3.869,0,3.869-6,0-6S212.131,280.75,216,280.75L216,280.75z"/>
		</g>
	</g>
	<g>
		<g>
			<path fill="#F5952F" d="M80.5,187c3.869,0,3.869-6,0-6S76.631,187,80.5,187L80.5,187z"/>
		</g>
	</g>
	<g>
		<g>
			<path fill="#F5952F" d="M77,171.75c3.869,0,3.869-6,0-6S73.131,171.75,77,171.75L77,171.75z"/>
		</g>
	</g>
	<g>
		<g>
			<path fill="#F5952F" d="M82.5,162c3.869,0,3.869-6,0-6S78.631,162,82.5,162L82.5,162z"/>
		</g>
	</g>
	<g>
		<g>
			<path fill="#F5952F" d="M89.25,154.5c3.869,0,3.869-6,0-6S85.381,154.5,89.25,154.5L89.25,154.5z"/>
		</g>
	</g>
	<g>
		<g>
			<path fill="#F5952F" d="M75,137.75c3.869,0,3.869-6,0-6S71.131,137.75,75,137.75L75,137.75z"/>
		</g>
	</g>
	<g>
		<g>
			<path fill="#F5952F" d="M41.25,104.25c3.869,0,3.869-6,0-6S37.381,104.25,41.25,104.25L41.25,104.25z"/>
		</g>
	</g>
	<g>
		<g>
			<path fill="#F5952F" d="M113.75,101.75c3.869,0,3.869-6,0-6S109.881,101.75,113.75,101.75L113.75,101.75z"/>
		</g>
	</g>
	<g>
		<g>
			<path fill="#F5952F" d="M138.75,97.75c3.869,0,3.869-6,0-6S134.881,97.75,138.75,97.75L138.75,97.75z"/>
		</g>
	</g>
</g>
</svg>
