<?xml version="1.0" encoding="utf-8"?>
<!-- Generator: Adobe Illustrator 16.0.0, SVG Export Plug-In . SVG Version: 6.00 Build 0)  -->
<!DOCTYPE svg PUBLIC "-//W3C//DTD SVG 1.1//EN" "http://www.w3.org/Graphics/SVG/1.1/DTD/svg11.dtd">
<svg version="1.1" xmlns="http://www.w3.org/2000/svg" xmlns:xlink="http://www.w3.org/1999/xlink" x="0px" y="0px" width="400px"
	 height="300px" viewBox="0 0 400 300" enable-background="new 0 0 400 300" xml:space="preserve">
<g id="weiß">
	<path fill="#FFFFFF" d="M315.334,223c0,0-109.001,1.133-110.334,3.233s-3.299,11.667,0.101,14.717s17.399,5.55,17.399,5.55
		s15.334,1.833,13.667,3.5s-43,4.5-49,5s-7.167,1.667-12.333,0.667s-24.5-4.166-25-9.333s4.84-20.101,4.84-20.101l-75.2,1.08
		c0,0-3.142,3.849-8.308,2.018c0.974-53.661,3.417-188.267,3.417-188.267H78L291.167,82.5L315.334,223z"/>
</g>
<g id="schwarz">
	<path fill="none" stroke="#000000" stroke-width="2" stroke-linecap="round" stroke-linejoin="round" stroke-miterlimit="10" d="
		M88.667,55.667c0,0,194.842,29.548,195.547,34.86S305.752,213.5,305.752,213.5S88.5,215.334,88.667,214.667
		s3.859-156.689,4.359-157.212S288,94.5,288,94.5l18.902,115.156L92,210.5L89.555,53.673"/>
	<path fill="none" stroke="#000000" stroke-width="2" stroke-linecap="round" stroke-linejoin="round" stroke-miterlimit="10" d="
		M291.667,85.167c0,0-212.833-44-213.333-42.667s0,184.834,0,184.834l237-4.334L291.167,82.5c0,0-212.833-43.833-214.333-41.333
		S79.5,228.5,79.5,228.5l237.667-7.166"/>
	
		<polyline fill="none" stroke="#000000" stroke-width="2" stroke-linecap="round" stroke-linejoin="round" stroke-miterlimit="10" points="
		73.667,225 74.583,41.064 71.166,229.331 78,228.999 	"/>
	<path fill="none" stroke="#000000" stroke-width="2" stroke-linecap="round" stroke-linejoin="round" stroke-miterlimit="10" d="
		M154.667,228.5c0,0-7.667,14.668-4.667,19.334s29.667,7.833,29.667,7.833s56.167-1.333,54.5-4.5S208.5,245.668,205,240.834
		s0-14.334,0-14.334s-4.834,17.5,2.5,18.667s28.001,1.667,28.834,4.667s-56.5,3.832-60,3.166s-25.513-5.217-26-8.666
		s4.331-18.101,4.331-18.101"/>
</g>
<g id="orange">
	<path fill="none" stroke="#F5952F" stroke-width="2" stroke-linecap="round" stroke-linejoin="round" stroke-miterlimit="10" d="
		M203.334,156.112c0,0-4.5-20.279,1.666-22.612c6.166-2.333,11.288-0.152,12.625,3.319c7.429,19.293,0.875,18.175,0.875,18.175
		s0.167-19.661-11.333-22.76S200,156.78,200,156.78l26.167-1.786c0,0,10.163,37.514,10.265,41.181s-41.269,3.166-41.269,3.166
		s-1.829-37.342-1.122-39.907s34.445-1.932,34.445-1.932l10.844,40.173c0,0-39,2.166-40.5,0s-2.663-36.41-2.663-36.41
		s-5.334,0.187-5.667,3.128c-0.205,1.811,1.343,22.58,2.575,36.107c3.005,2.878,46.255,0.216,46.255-1.159"/>
</g>
<g id="blau">
	<path fill="none" stroke="#C6DBE3" stroke-width="2" stroke-linecap="round" stroke-linejoin="round" stroke-miterlimit="10" d="
		M217.5,152.092c0,0,1.667-6.591,5.5-4.925s10.834,6.833,10.333,8s1.667,3.334,1.667-0.833s-10-10.167-14-9s-7,5.683-5.5,6.758"/>
	<path fill="none" stroke="#C6DBE3" stroke-width="2" stroke-linecap="round" stroke-linejoin="round" stroke-miterlimit="10" d="
		M232.555,152.253c0,0-6.824,3.142,2.842,7.976s14.499,1.334,12.666-1.666s-20.666-12.773-15.666-3.554s24.834,3.054,11.5-2.113
		S232.555,152.253,232.555,152.253z"/>
	<path fill="none" stroke="#C6DBE3" stroke-width="2" stroke-linecap="round" stroke-linejoin="round" stroke-miterlimit="10" d="
		M252.75,157.446c0,0-11.014-4.481-10.833,0.8s10.665,13.409,14.999,8.742s3.501-6.762-4.833-11.054s-15.332-0.495-3.666,7.612
		S259.417,160.73,252.75,157.446z"/>
	<path fill="none" stroke="#C6DBE3" stroke-width="2" stroke-linecap="round" stroke-linejoin="round" stroke-miterlimit="10" d="
		M255.333,162.834c0,0-5.499,3.452,4.334,6.393s14.666,1.606,9.166-2.227s-13.999-8.715-13.666-2.607s19.167,6.767,14.5,1.771
		c0,0-5.333-4.672-8.667-4.662"/>
	<path fill="none" stroke="#C6DBE3" stroke-width="2" stroke-linecap="round" stroke-linejoin="round" stroke-miterlimit="10" d="
		M276.5,166.163c0,0-9.667-4.829-10.667,1.504s11.834,9.833,13.667,7.833s0.929-7.202-1.785-8.677
		c-1.215-0.66-2.382-2.431-4.715-2.823c-1.947-0.328-5.906-4.832-7.953,2.834s12.713,9.668,14.12,5.166S276.5,166.163,276.5,166.163
		z"/>
	<path fill="none" stroke="#C6DBE3" stroke-width="2" stroke-linecap="round" stroke-linejoin="round" stroke-miterlimit="10" d="
		M284.167,169.226c0,0-6.757-1.237-6.667,1.6s16.001,8.466,15.667,5.237s-14.5-10.443-16.667-6.836s12,10.106,13.5,5.773
		S284.167,169.226,284.167,169.226z"/>
	<path fill="none" stroke="#C6DBE3" stroke-width="2" stroke-linecap="round" stroke-linejoin="round" stroke-miterlimit="10" d="
		M296.833,170.825c0,0-7.833-3.159-8.833,3.175s13.167,7.897,14.667,3.032s-4.19-5.306-9.495-5.532s-10.006,5.114-3.339,8.391
		s12.667,0.144,11.667-4.036C300.73,172.637,296.833,170.825,296.833,170.825z"/>
	<path fill="none" stroke="#C6DBE3" stroke-width="2" stroke-linecap="round" stroke-linejoin="round" stroke-miterlimit="10" d="
		M307.333,174.167c0,0-8.909-1.442-8.166,1.896s3,6.771,13,4.104c2.5-1.333-1.918-3.459-5.667-4.521s-12.98,2.688-0.49,7.021
		c4.49,1.167,10.323-2.709,4.823-6.604c-3.417-0.138-4.5,1.505-3.333,2.305s6-6.717,4.5-7.542s-7.462,5.144-5.904,7.675
		s9.67-12.544,2.53-5.863c-1,0.175-2.126,3.01-2.126,3.01"/>
	<path fill="none" stroke="#C6DBE3" stroke-width="2" stroke-linecap="round" stroke-linejoin="round" stroke-miterlimit="10" d="
		M216.167,141.333c0,0,4.973-3.833,12.319-4.167c2.514,0,1.486,3.167,0,4.167s-5.397,2.167-5.397,2.167s14.933-4.5,6.922-8.667
		c-5.511-1.667-19.528,6.335-14.903,8.667"/>
	<path fill="none" stroke="#C6DBE3" stroke-width="2" stroke-linecap="round" stroke-linejoin="round" stroke-miterlimit="10" d="
		M233.833,131.667c0,0-9.5,0.94-6.333,7.387s16.833,0.66,14.333-4.447s-6.053-5.728-14.979-1.107
		c-5.769,2.986,4.769,8.23,8.146,6.333c7.153-4.016,10.101-6.472,5.333-9.457c-2.731-1.71-7.96,2.79-7.96,2.79"/>
	<path fill="none" stroke="#C6DBE3" stroke-width="2" stroke-linecap="round" stroke-linejoin="round" stroke-miterlimit="10" d="
		M250.12,128.833c0,0-11.854,0.223-11.62,4.5s3.666,4.229,9.833,2.615s9.436-6.281,5.468-8.615s-12.132,1.384-14.134,6.167
		s7.403,6.868,15.868-0.333c1.298-1.104,0.023-4.938-4.368-5.333"/>
	<path fill="none" stroke="#C6DBE3" stroke-width="2" stroke-linecap="round" stroke-linejoin="round" stroke-miterlimit="10" d="
		M258.167,125.167c0,0-8.327,1.917-8.047,6s9.047,0.833,13.38-2s-1.798-6.667-7.482-4s-11.052,11.213-2.368,9.44
		s17.018-5.94,7.018-9.107"/>
	<path fill="none" stroke="#C6DBE3" stroke-width="2" stroke-linecap="round" stroke-linejoin="round" stroke-miterlimit="10" d="
		M271.142,120.333c0,0-11.98,2.568-10.809,6.284s3.95,3.049,10.809-0.784s3.191-7.667-3.309-5.5s-11.815,9.223-2.608,9.223
		c2.001,0.085,11.572-1.92,10.442-5.29s-5.5-2.433-5.5-2.433"/>
	<path fill="none" stroke="#C6DBE3" stroke-width="2" stroke-linecap="round" stroke-linejoin="round" stroke-miterlimit="10" d="
		M276.275,116.5c0,0-6.182,4.308-5.134,6.5s4.525,1.667,10.358-1.333s1.313-5.348-5.239-3.167s-7.26,2.866-6.094,5.767
		s9.113,2.067,14.557-3.1c1.276-1.5-3.798-7.825-12.068-3.5"/>
	<path fill="none" stroke="#C6DBE3" stroke-width="2" stroke-linecap="round" stroke-linejoin="round" stroke-miterlimit="10" d="
		M290.667,111.667c0,0-10.576,2.368-10.208,7.333s4.54,2.578,8.374,0.706s5.178-2.705,4.339-6.039s-5.099-3.833-11.005,0.5
		s-1.973,11.074,4.764,7.787s9.679-11.005,1.402-8.287"/>
	<path fill="none" stroke="#C6DBE3" stroke-width="2" stroke-linecap="round" stroke-linejoin="round" stroke-miterlimit="10" d="
		M300.5,108c0,0-11.334,0.667-11.167,7.167s10.668-0.667,11.834-2.833s0-6.833-7.167-4.333s-10.386,14.073,1.445,6.333
		c6.114-4,7.821-4.438,3.678-4.833s2.878-1.833-1.456-4S297,109.833,297,109.833"/>
	<path fill="none" stroke="#C6DBE3" stroke-width="2" stroke-linecap="round" stroke-linejoin="round" stroke-miterlimit="10" d="
		M190.167,153c0,0,0.368-2.5,5.184-3.833s10.256-2.929,10.816,0c0.159,0.833,2.666-0.333,1.333-2.5S188,146.5,188.167,150"/>
	<path fill="none" stroke="#C6DBE3" stroke-width="2" stroke-linecap="round" stroke-linejoin="round" stroke-miterlimit="10" d="
		M186.5,147.667c0,0,7.906,2.391,6.333,6.5c-1,2.613-13.5,4.925-16.833,2.613c-4.957-3.438-1.333-7.28,3-8.28
		s19.166-0.266,10.333,6.494c-2.333,1.786-13.966,2.232-15.816,1.786s-5.396-9.331,9.792-6.78c5.857,0.983,10.691,1.488,7.857,4.994
		"/>
	<path fill="none" stroke="#C6DBE3" stroke-width="2" stroke-linecap="round" stroke-linejoin="round" stroke-miterlimit="10" d="
		M178,153c0,0,3.746-3.566-6.21-3.616s-14.79,1.104-13.79,5.61s1.167,4.84,6.5,5.34s25.528-3.778,11.5-11.667
		c-2.276-1.28-15.5,1.16-16.333,4.333s-0.791,6.692,9,5.292s14.194-3.066,9-7.309"/>
	<path fill="none" stroke="#C6DBE3" stroke-width="2" stroke-linecap="round" stroke-linejoin="round" stroke-miterlimit="10" d="
		M163.833,154.347c0,0-2.333-3.047-10-3.363s-11.167,2.743-10.333,5.797s22.144,5.315,22.167-0.946s-15.833-3.141-19.5-1.487
		s-4.833,4.399-2,6.026s19.167,1.354,19.167-3.593"/>
	<path fill="none" stroke="#C6DBE3" stroke-width="2" stroke-linecap="round" stroke-linejoin="round" stroke-miterlimit="10" d="
		M148.833,156.112c0,0,2.333-3.979-5.5-5.129c-7.833-1.15-17.167-0.829-17.667,4.011s0.323,8.592,13.833,7.395s10.166-8.45,4-10.197
		s-15.667-1.15-16,4.329s14.639,5.525,19.333,0"/>
	<path fill="none" stroke="#C6DBE3" stroke-width="2" stroke-linecap="round" stroke-linejoin="round" stroke-miterlimit="10" d="
		M133.333,154.994c0,0-3.167-2.645-14.333-2.902s-9.512,6.039-8.012,8.281S133,165.794,135.5,157.73s-17.167-5.742-21.333-2.736
		s-3.334,6.732,2.333,7.619S139.5,161.988,133.333,154.994z"/>
	<path fill="none" stroke="#C6DBE3" stroke-width="2" stroke-linecap="round" stroke-linejoin="round" stroke-miterlimit="10" d="
		M114.667,156.78c0,0,2.833-3.397-8-4.589s-15.5,0.85-15.333,4.329s4.667,6.647,15.5,4.98s12.833-7.469,3.333-9.651
		S94.244,152.991,93,156.112s4.1,5.382,12.667,5.152S114.667,156.78,114.667,156.78z"/>
	<path fill="none" stroke="#C6DBE3" stroke-width="2" stroke-linecap="round" stroke-linejoin="round" stroke-miterlimit="10" d="
		M98.5,157.502c0,0-1.333-5.646-8.167-7.074s-19-2.901-18,3.919s1.345,9.579,16,8.572s11.209-7.036,3.833-10.221
		c-7.375-3.184-14.834-4.839-17.167,1.648s9.493,10.046,19.667,10.046c3.845,0,2.782-3.741,0.833-8.28"/>
	<path fill="none" stroke="#C6DBE3" stroke-width="2" stroke-linecap="round" stroke-linejoin="round" stroke-miterlimit="10" d="
		M79.667,154.994c0,0,2-7.957-4.667-9.809s-13.666,1.341-11.833,9.161s3,5.291,6.5,6.026s15.597-5.182,6.5-12.706
		c-3-2.481-10.579-1.094-11.667,3.316s-0.09,8.644,5.5,8.108s7.896,0.969,9.948-2.312"/>
	<path fill="none" stroke="#C6DBE3" stroke-width="2" stroke-linecap="round" stroke-linejoin="round" stroke-miterlimit="10" d="
		M73.667,162.919c0,0-8.833-13.585-12.5-9.252s5,10.118,8.5,10.726S73.947,157,66.974,153c-4.062-1.875-11.498,1.947-6.693,5.62
		S75.375,166.864,73.667,162.919z"/>
	<path fill="none" stroke="#C6DBE3" stroke-width="2" stroke-linecap="round" stroke-linejoin="round" stroke-miterlimit="10" d="
		M205,143.5c0,0,6.445-1.465,2.89-5.649s-18.556-8.971-18.556-3.244s11.751,9.662,16.667,7.301c1.89-0.908,1.086-2.242-4.5-5.959
		c-5.585-3.718-9.5-7.948-12.167-4.615s-1,7,2.333,9S199.666,143.667,205,143.5z"/>
	<path fill="none" stroke="#C6DBE3" stroke-width="2" stroke-linecap="round" stroke-linejoin="round" stroke-miterlimit="10" d="
		M193.041,135.948c0,0-0.874-5.448-5.874-8.115s-14-6.265-13.333-1.216s20.167,13.915,19.207,10.202s-6.996-6.853-9.604-9.319
		s-15.857-3.667-11.647,1.5s14.502,10.011,16.376,10.054s6.667-2.234,3.462-6.819"/>
	<path fill="none" stroke="#C6DBE3" stroke-width="2" stroke-linecap="round" stroke-linejoin="round" stroke-miterlimit="10" d="
		M177.833,128c0,0,4-2.233-1.333-6.95s-8.833-7.05-13.5-6.717s-8,6.325-4,9.746s20.082,12.112,19.667,5.478
		s-12.555-13.62-15.333-14.057s-8.635,2.121-2.833,7.644s20.151,9.523,16,3.474"/>
	<path fill="none" stroke="#C6DBE3" stroke-width="2" stroke-linecap="round" stroke-linejoin="round" stroke-miterlimit="10" d="
		M143.667,108c0,0-4,0.771,3.5,6.302s21.833,11.775,17,5.403S144.721,106.112,144.5,109s21.481,15.272,18.167,10.706
		S146.167,108.667,143.667,108z"/>
	<path fill="none" stroke="#C6DBE3" stroke-width="2" stroke-linecap="round" stroke-linejoin="round" stroke-miterlimit="10" d="
		M127.333,97.833c0,0-1.5,4.615,2,7.224s18.15,11.164,19.825,6.387S137.667,97.5,131.833,96.167s-7.874,6.868-6.27,8.351
		s17.314,11.266,18.77,9.785s5.632-2.521-0.833-9.245c0,0-9-8.724-14.667-5.724"/>
	<path fill="none" stroke="#C6DBE3" stroke-width="2" stroke-linecap="round" stroke-linejoin="round" stroke-miterlimit="10" d="
		M132,101.833c0,0,0.738-4.167-6.964-9.167s-14.545-7.5-15.124-4.167s13.701,15.333,21.421,15.333c2,0-0.413-5.397-7.833-10.667
		s-11.799-5.448-11.833-3.333s13.5,11.667,18.833,12"/>
	<path fill="none" stroke="#C6DBE3" stroke-width="2" stroke-linecap="round" stroke-linejoin="round" stroke-miterlimit="10" d="
		M116.255,91.667c0,0,2.922-2.5,0-6.833S97.5,70.167,94.333,74.333s-3.833,8.798,3,12.649s14.833,10.685,17.833,4.685
		s-9-13.667-15.5-15.833S93,79.667,96.5,83S114.959,94.831,116.255,91.667z"/>
	<path fill="none" stroke="#C6DBE3" stroke-width="2" stroke-linecap="round" stroke-linejoin="round" stroke-miterlimit="10" d="
		M98.512,81.5c0,0,3.321-3.333-5.012-10s-13.166-10.833-15.333-7.333s19.319,23.462,19,16.333S75.5,60.5,75.5,65.167
		S82.996,77.476,98.512,81.5z"/>
	<path fill="none" stroke="#C6DBE3" stroke-width="2" stroke-linecap="round" stroke-linejoin="round" stroke-miterlimit="10" d="
		M76.333,74.167c0,0,8.833-3.37,5.833-11.269S67.667,64.5,67.5,70.5s1.884,6.667,4.775,6s15.527-13.423,6.392-14.833
		c-3.167-0.489-11.167,6.167-9.833,10s2.211,2.258,5.022,0.795s6.311-8.295,4.811-10.795"/>
	<path fill="none" stroke="#C6DBE3" stroke-width="2" stroke-linecap="round" stroke-linejoin="round" stroke-miterlimit="10" d="
		M75.5,79c0,0-11.259-11.166-9.213-4.833S71.409,79,71.409,79l4.091,1.333"/>
</g>
<g id="Sparcles">
	<g>
		<g>
			<path fill="#F5952F" d="M205.25,132.5c3.869,0,3.869-6,0-6S201.381,132.5,205.25,132.5L205.25,132.5z"/>
		</g>
	</g>
	<g>
		<g>
			<path fill="#F5952F" d="M70.769,88.5c3.869,0,3.869-6,0-6S66.9,88.5,70.769,88.5L70.769,88.5z"/>
		</g>
	</g>
	<g>
		<g>
			<path fill="#F5952F" d="M56.5,54.25c3.869,0,3.869-6,0-6S52.631,54.25,56.5,54.25L56.5,54.25z"/>
		</g>
	</g>
	<g>
		<g>
			<path fill="#F5952F" d="M184,179.062c3.869,0,3.869-6,0-6S180.131,179.062,184,179.062L184,179.062z"/>
		</g>
	</g>
	<g>
		<g>
			<path fill="#F5952F" d="M195,124.05c3.869,0,3.869-6,0-6S191.131,124.05,195,124.05L195,124.05z"/>
		</g>
	</g>
	<g>
		<g>
			<path fill="#F5952F" d="M185.5,203c3.869,0,3.869-6,0-6S181.631,203,185.5,203L185.5,203z"/>
		</g>
	</g>
	<g>
		<g>
			<path fill="#F5952F" d="M60.25,71.301c3.869,0,3.869-6,0-6S56.381,71.301,60.25,71.301L60.25,71.301z"/>
		</g>
	</g>
	<g>
		<g>
			<path fill="#F5952F" d="M295.75,94.25c3.869,0,3.869-6,0-6S291.881,94.25,295.75,94.25L295.75,94.25z"/>
		</g>
	</g>
	<g>
		<g>
			<path fill="#F5952F" d="M356.5,140.5c3.869,0,3.869-6,0-6S352.631,140.5,356.5,140.5L356.5,140.5z"/>
		</g>
	</g>
	<g>
		<g>
			<path fill="#F5952F" d="M311.568,160.73c3.869,0,3.869-6,0-6S307.699,160.73,311.568,160.73L311.568,160.73z"/>
		</g>
	</g>
	<g>
		<g>
			<path fill="#F5952F" d="M317.818,176.23c3.869,0,3.869-6,0-6S313.949,176.23,317.818,176.23L317.818,176.23z"/>
		</g>
	</g>
	<g>
		<g>
			<path fill="#F5952F" d="M319.068,192.98c3.869,0,3.869-6,0-6S315.199,192.98,319.068,192.98L319.068,192.98z"/>
		</g>
	</g>
	<g>
		<g>
			<path fill="#F5952F" d="M311.318,209.98c3.869,0,3.869-6,0-6S307.449,209.98,311.318,209.98L311.318,209.98z"/>
		</g>
	</g>
	<g>
		<g>
			<path fill="#F5952F" d="M307.068,225.48c3.869,0,3.869-6,0-6S303.199,225.48,307.068,225.48L307.068,225.48z"/>
		</g>
	</g>
	<g>
		<g>
			<path fill="#F5952F" d="M289.144,112.906c3.869,0,3.869-6,0-6S285.274,112.906,289.144,112.906L289.144,112.906z"/>
		</g>
	</g>
	<g>
		<g>
			<path fill="#F5952F" d="M278.556,129.029c3.869,0,3.869-6,0-6S274.687,129.029,278.556,129.029L278.556,129.029z"/>
		</g>
	</g>
	<g>
		<g>
			<path fill="#F5952F" d="M261.812,139.241c3.869,0,3.869-6,0-6S257.943,139.241,261.812,139.241L261.812,139.241z"/>
		</g>
	</g>
	<g>
		<g>
			<path fill="#F5952F" d="M238.497,144.939c3.869,0,3.869-6,0-6S234.628,144.939,238.497,144.939L238.497,144.939z"/>
		</g>
	</g>
	<g>
		<g>
			<path fill="#F5952F" d="M80.5,187c3.869,0,3.869-6,0-6S76.631,187,80.5,187L80.5,187z"/>
		</g>
	</g>
	<g>
		<g>
			<path fill="#F5952F" d="M77,171.75c3.869,0,3.869-6,0-6S73.131,171.75,77,171.75L77,171.75z"/>
		</g>
	</g>
	<g>
		<g>
			<path fill="#F5952F" d="M82.5,162c3.869,0,3.869-6,0-6S78.631,162,82.5,162L82.5,162z"/>
		</g>
	</g>
	<g>
		<g>
			<path fill="#F5952F" d="M89.25,154.5c3.869,0,3.869-6,0-6S85.381,154.5,89.25,154.5L89.25,154.5z"/>
		</g>
	</g>
	<g>
		<g>
			<path fill="#F5952F" d="M75,137.75c3.869,0,3.869-6,0-6S71.131,137.75,75,137.75L75,137.75z"/>
		</g>
	</g>
	<g>
		<g>
			<path fill="#F5952F" d="M41.25,104.25c3.869,0,3.869-6,0-6S37.381,104.25,41.25,104.25L41.25,104.25z"/>
		</g>
	</g>
	<g>
		<g>
			<path fill="#F5952F" d="M113.75,101.75c3.869,0,3.869-6,0-6S109.881,101.75,113.75,101.75L113.75,101.75z"/>
		</g>
	</g>
	<g>
		<g>
			<path fill="#F5952F" d="M138.75,97.75c3.869,0,3.869-6,0-6S134.881,97.75,138.75,97.75L138.75,97.75z"/>
		</g>
	</g>
</g>
</svg>
