<?xml version="1.0" encoding="utf-8"?>
<!-- Generator: Adobe Illustrator 16.0.0, SVG Export Plug-In . SVG Version: 6.00 Build 0)  -->
<!DOCTYPE svg PUBLIC "-//W3C//DTD SVG 1.1//EN" "http://www.w3.org/Graphics/SVG/1.1/DTD/svg11.dtd">
<svg version="1.1" xmlns="http://www.w3.org/2000/svg" xmlns:xlink="http://www.w3.org/1999/xlink" x="0px" y="0px" width="446.5px"
	 height="300px" viewBox="0 0 446.5 300" enable-background="new 0 0 446.5 300" xml:space="preserve">
<g id="Boden">
	<g id="Ebene_9">
	</g>
	<g>
		<polygon fill="#BCBCBB" points="436,264.334 111,262.667 107.75,264.125 436.333,266.667 		"/>
	</g>
	<g>
		<polygon fill="#BCBCBB" points="52.333,295.333 72.333,295.667 118.333,256 109.333,255.667 		"/>
	</g>
	<g>
		<polygon fill="#BCBCBB" points="94.999,276 428.333,279.667 430.333,277 97.333,274 		"/>
	</g>
	<g>
		<path fill="#BCBCBB" d="M412,292.334l-334.667-1.001l-5,4.334c0,0,331.667,0,334.667,0.333L412,292.334z"/>
	</g>
	<g>
		<polygon fill="#BCBCBB" points="117.75,256 440,255 438.333,257 117,257.333 		"/>
	</g>
	<g>
		<path fill="#010202" d="M117.75,256.5c-0.275,0-0.499-0.223-0.5-0.498c-0.001-0.276,0.222-0.501,0.499-0.502l322.249-1
			c0.001,0,0.002,0,0.002,0c0.275,0,0.499,0.223,0.5,0.498c0.001,0.276-0.223,0.501-0.498,0.502l-322.25,1
			C117.751,256.5,117.751,256.5,117.75,256.5z"/>
	</g>
	<g>
		<path fill="#010202" d="M407.001,296.5c-0.019,0-0.037-0.001-0.056-0.003c-3.245-0.326-331.298-0.33-334.612-0.33
			c-0.276,0-0.5-0.224-0.5-0.5s0.224-0.5,0.5-0.5c13.543,0,331.729,0.004,334.721,0.336c0.275,0.03,0.473,0.277,0.442,0.552
			C407.469,296.311,407.252,296.5,407.001,296.5z"/>
	</g>
	<g>
		<path fill="#010202" d="M436,264.834c-0.001,0-0.002,0-0.003,0l-325-1.667c-0.206-0.001-0.391-0.128-0.464-0.32
			s-0.022-0.411,0.13-0.55l5.125-4.667l0.908-0.694c0.087-0.066,0.193-0.103,0.303-0.103l321.333-0.333c0.001,0,0.001,0,0.001,0
			c0.276,0,0.5,0.224,0.5,0.499c0,0.276-0.224,0.501-0.499,0.501l-321.165,0.333l-0.741,0.564l-4.145,3.776l323.719,1.66
			c0.275,0.001,0.498,0.227,0.497,0.503C436.499,264.612,436.275,264.834,436,264.834z"/>
	</g>
	<g>
		<path fill="#010202" d="M72.333,296.167c-0.002,0-0.005,0-0.008,0l-20-0.334c-0.217-0.004-0.407-0.146-0.47-0.354
			c-0.063-0.207,0.015-0.432,0.193-0.556l57-39.666c0.089-0.062,0.194-0.089,0.304-0.09l9,0.333
			c0.276,0.011,0.491,0.242,0.481,0.519c-0.01,0.276-0.256,0.483-0.518,0.481l-8.833-0.327L53.89,294.859l18.452,0.308
			c0.276,0.005,0.496,0.232,0.492,0.509C72.829,295.948,72.606,296.167,72.333,296.167z"/>
	</g>
	<g>
		<path fill="#010202" d="M430.333,277.5c-0.001,0-0.003,0-0.005,0l-332.999-3c-0.211-0.002-0.398-0.137-0.468-0.336
			s-0.006-0.421,0.159-0.554l11.999-9.667c0.089-0.072,0.187-0.126,0.317-0.11l327.001,2.334c0.275,0.002,0.498,0.228,0.496,0.504
			c-0.002,0.274-0.226,0.496-0.5,0.496c-0.001,0-0.002,0-0.004,0l-326.822-2.333l-10.772,8.679l331.603,2.987
			c0.275,0.003,0.498,0.229,0.495,0.505C430.83,277.279,430.607,277.5,430.333,277.5z"/>
	</g>
	<g>
		<path fill="#010202" d="M412,292.834c0,0-0.001,0-0.002,0l-334.666-1.001c-0.208-0.001-0.395-0.131-0.467-0.326
			s-0.017-0.415,0.141-0.552l17.666-15.333c0.092-0.08,0.227-0.13,0.333-0.122l333.334,3.667c0.275,0.003,0.497,0.229,0.494,0.506
			c-0.003,0.273-0.227,0.494-0.5,0.494c-0.002,0-0.004,0-0.006,0l-333.144-3.665l-16.515,14.335l333.334,0.997
			c0.275,0.001,0.499,0.226,0.498,0.502C412.499,292.611,412.275,292.834,412,292.834z"/>
	</g>
</g>
<g id="Magier">
	<g>
		<path fill="#010202" d="M207.259,52.096c0,0,3.486-13.585,9.68-20.358c-2.304-2.531-12.656-9.548-20.716-9.499
			c-0.597,11.612-0.603,23.919-0.354,27.1c3.466,0.009,8.808,1.208,11.339,2.95"/>
	</g>
	<g>
		<path fill="#F39424" d="M206.248,61.778c0,0,1.074-0.812,0.358-1.029c-0.716-0.216-0.461-0.322-0.22-0.668
			c0.242-0.346,0.639-0.558,0.056-1.025c-0.583-0.468-0.62-0.584,0.057-1.057c0.862-0.763,0.751-0.971,0.369-1.25
			c-0.315-0.285-0.479-0.801-0.012-1.162c0.466-0.36,0.515-0.894,0.328-0.985c-0.187-0.091-0.881-0.448-0.358-1.085
			c0.522-0.639,1.627-2.098,0.597-2.981c-1.031-0.883-6-2.772-12.024-2.337c-0.624,0.02-1.051,1.197-0.682,1.394
			s0.417,0.189,0.199,0.49c-0.219,0.302-1.256,1.406-0.417,1.75c0.446,0.209,0.626,0.506,0.309,0.602
			c-0.316,0.097-0.726,0.292-0.646,0.828c0.081,0.535-0.165,1.12-0.594,1.772c-0.429,0.652-0.629,1.036-0.208,1.416
			c0.421,0.379,0.077,0.774-0.083,0.894c-0.161,0.119-0.683,0.647-0.18,1.436c0.505,0.79,0.493,1.201,0.014,1.21
			c-0.479,0.009-1.09,0.167,0.069,0.933C194.443,61.356,204.041,62.36,206.248,61.778"/>
	</g>
	<g>
		<path fill="#010202" d="M217.282,62.395c0,0-9.092,2.359-32.149-1.919c-1.164-0.346-0.944-0.692-0.188-0.724
			c3.302,0,8.083,0.409,9.657,1.038c1.258,0.41,10.319,0.912,12.614,0.881c1.195-0.063,4.404-0.377,5.19-0.535
			C213.193,60.979,216.117,60.539,217.282,62.395z"/>
	</g>
	<g>
		<path fill="#010202" d="M184.63,113.91c0.239-0.809,3.685-15.444,4.985-18.645c0.506-1.249,0.248,2.507,0.248,2.507
			s0.6,5.878,0.987,9.077c0.255,2.114,2.821,18.564,2.821,18.564c0.383,2.114,0,11.929-0.689,19.359
			c-0.688,7.429-0.733,95.927-0.733,95.927s1.989-0.068,2.295,0.134c0.307,0.205-0.459,1.022-0.459,1.022s-2.142,1.227-7.805,2.318
			c-5.662,1.091-6.809,4.021-6.197,4.295c0.612,0.272,16.068-0.342,20.505-0.751c-0.152-3.407-2.064-5.247-2.142-6.065
			c-0.077-0.819,0.996-1.432,0.996-1.432l0.602-75.821c0,0,2.856,4.362,4.489,5.09c1.433,0.639-0.258-10.606-0.204-10.359
			c1.632,7.451,4.146,21.015,4.286,22.175c0.228,1.908,7.367,60.216,7.367,60.216s0.917,0.136,1.836,0.271
			c0.23,0.273,0.413,1.734-0.331,2.364c-0.509,0.432-1.581,2.953-1.351,3.908c3.876,2.181,9.793,2.316,10.481,2.316
			c0.688,0,4.938-0.461,4.056-2.111c-0.766-1.432-2.218-2.388-3.672-3c-1.271-0.537-4.968-1.562-5.051-1.637
			c-0.459-0.408-0.994-1.908,0.841-2.794c-0.152-1.909-7.343-59.42-7.647-60.443c-0.307-1.021-4.006-24.856-4.082-27.083
			c0,0.75,3.264,15.632,6.121,15.27c1.837-3.75-4.908-28.021-5.291-31.087c-0.382-3.068-2.806-8.249-3.877-9.816
			c-1.071-1.567-1.229-1.841-1.206-5.519c0.022-3.678,4.212-23.5,5.106-26.319c0,0,4.091-6.688,6.103-9.708l12.644-23.461
			c0,0,2.727-31.833,2.223-31.499c-0.503,0.335-6.375-0.503-6.375-0.503s-1.048,27.471-1.887,29.82
			c-0.839,2.349-8.451,16.416-9.121,17.086c-0.671,0.672-1.343,0.672-2.182,0.504c-0.838-0.168-2.181,0.839-3.187,2.181
			c-1.006,1.343-2.014,0.504-2.014,0.504c0.738,0.17,1.88-2.213,2.951-3.293c-0.958,0.148-2.25,2.317-2.852,1.51
			c-0.491-0.669-0.147-0.798,0-1.174c0.186-0.306-0.285-0.799-0.838-1.174c-0.553-0.375-0.859,0.704-1.265,0.397
			s-0.645-0.909-0.701-1.534c-0.057-0.625-0.074-0.681-0.185-0.273c-0.11,0.409,0.074,1.568,0.295,2.318
			c0.223,0.749,0.493,2.478-0.393,4.387c-1.476,3.851-3.526,1.503-8.395,19.691c0,0-1.107-2.852-1.07-6.669
			c0.036-3.817,0.074-9.85-0.111-11.792c-0.184-1.943,0.481-7.099,0.055-7.36c-0.538,0.454-2.882,2.836-4.948,6.484
			c0,0.34,0.406,0.715,0.848,0.034c0.443-0.683,1.365-2.284,2.397-1.807c0.369,0.238,0.296,1.465-0.442,1.738
			c-0.738,0.271-4.213,1.07-4.883,1.013c-0.669-0.057-1.987,1.297-2.804,2.386c0,0-0.368,0.886-0.811,2.419
			c-0.443,1.534-1.586,4.194-1.771,5.046c-0.184,0.853-1.303,6.935-1.672,8.127c-0.369,1.193-1.983,12.112-2.095,12.828
			c0,0-2.746,19.232-2.746,20.406s1.509,0.167,1.509,0.167l0.176,4.591l0.222,5.789c0,0,0.239,1.866,0.73,3.884
			c0.268,1.102,1.177,2.522,1.955,3.163c1.426,1.174,1.783,0.841,2.18,0.671c1.049-0.45-0.021-1.934-0.787-4.431
			c-0.521-1.699-1.057-4.421-1.057-4.964c0-1.343,1.844,4.11,2.516,3.942c0.67-0.168-0.565-4.758-1.572-8.618
			c0,0-1.678-2.349-0.839-4.027c0.839-0.167,0.839-0.167,0.839-0.167L184.63,113.91z"/>
	</g>
	<g>
		<path fill="#010202" d="M182.423,123.682"/>
	</g>
	<g>
		<path fill="#010202" d="M231.209,31.845c0,0,0-4.53,0.335-5.033c0.336-0.502,2.181-1.51,2.349-2.349
			c0.167-0.838-1.007-1.175-1.007-1.175s0.504-1.006,0.671-1.677c0.168-0.671-1.006-1.175-1.006-1.175s-0.335-1.342-0.168-2.18
			c0.168-0.839-1.678-0.839-1.678-0.839s1.51-2.349,0.503-3.859c-1.006-1.51-5.201,6.04-5.704,7.214
			c-0.503,1.174,2.181,6.208,2.181,6.208s0.839,2.516,0.839,4.865"/>
	</g>
	<g>
		<path fill="#010202" d="M226.535,20.765c0.034-0.24,0.167-17.343,0.167-17.343l2.181-0.084l-0.034,10.474
			c0,0,5.866,0.785,1.963,3.43"/>
		<path fill="#010202" d="M226.536,21.765c-0.046,0-0.093-0.003-0.141-0.01c-0.527-0.074-0.9-0.547-0.857-1.071
			c0.026-0.599,0.112-10.633,0.164-17.271c0.004-0.534,0.428-0.971,0.961-0.991l2.181-0.084c0.275-0.019,0.537,0.09,0.733,0.28
			c0.196,0.189,0.307,0.45,0.306,0.723l-0.031,9.635c1.188,0.265,2.939,0.875,3.252,2.204c0.231,0.982-0.351,1.954-1.731,2.889
			c-0.458,0.311-1.079,0.19-1.389-0.267c-0.31-0.457-0.19-1.079,0.267-1.389c0.613-0.416,0.814-0.685,0.877-0.794
			c-0.277-0.293-1.412-0.683-2.412-0.816c-0.498-0.066-0.869-0.492-0.867-0.995l0.03-9.431l-0.185,0.007
			c-0.128,16.225-0.158,16.438-0.17,16.52C227.455,21.404,227.026,21.765,226.536,21.765z"/>
	</g>
</g>
<g id="Hase_3">
	<g id="Ebene_4_Kopie_2">
		<g>
			<path fill="#FAFAFA" d="M95.475,244.451c4.253-0.654,5.561,5.97,5.643,6.869c1.063-0.49,1.485-2.179,1.485-2.179l1.064,0.908
				l0.612-2.018l1.208,0.027l0.777-2.709l0.989,1.472c0,0,1.219-2.126,1.219-3.843c0.491,0.326,0.478,1.293,0.478,1.293
				s2.734-5.342,6.169-6.2c3.435-0.858,12.497-2.536,15.522-6.543c-1.034-5.912-7.605-11.94-19.627-11.04
				c-0.992,0.073,0.246-0.9-1.39-0.409c1.227-7.359,3.026-33.122,0.164-35.247c-1.308,0-1.227,0.326-1.227,0.326
				s-1.227-0.163-2.699,0.572c-2.699,1.636-5.889,8.506-0.572,34.758l0.866,4.071l-1.494,0.868l0.394,1.229l-2.383,1.355
				l-1.554-2.534c0,0-3.026-2.536-4.335-3.354c-1.308-0.817-3.68,0.164-4.907,0.817c-4.253-1.391-13.575-5.725-17.991-6.379
				c-2.461-0.365-18.155-4.66-27.56,10.47c0,0-2.617-2.536-4.989-2.536c-0.409,0.817-0.818,2.535-0.818,2.535
				s-1.39-1.473-2.29-0.491c0.49,1.063-0.082,2.291-0.082,2.291s-1.309,0.734-1.063,1.635c0.245,0.899,2.29,1.718,3.107,1.309
				c-0.736,1.309-0.899,1.882-0.899,1.882H41.5l-0.163,0.735l2.78-0.327c0,0-0.164,4.253,0.736,6.706
				c-1.635-0.735-2.944-1.146-3.925,1.39c-0.981,2.536,1.962,6.299,3.435,9.406c1.472,3.106,4.743,9.732,7.851,10.304
				c3.108,0.572,7.851-0.409,7.851-1.636s-2.208-4.089-2.208-4.089s-3.189-2.046-4.007-1.963c-1.145-1.718-2.126-4.416-2.126-4.416
				l3.271,0.163l-0.573,3.926c0,0,3.272,2.617,7.524,2.944c4.252,0.327,11.612,0,12.43-0.981c-0.409-2.372-1.88-4.172-5.07-4.089
				c-3.844-0.409-4.989-0.899-4.989-0.899s7.85,0.734,8.586-6.381c1.554,0.9,9.978,3.927,9.978,3.927l5.97,14.721
				c0,0,6.46,1.227,6.788,0.49s-0.981-3.599-0.981-3.599s3.909-0.494,3.917-1.064c0.008-0.57-1.562-3.027-4.007-2.699
				C94.567,256.226,89.586,255.41,95.475,244.451"/>
		</g>
	</g>
	<g>
		<path fill="#010202" d="M93.461,264.345c-1.768,0-4.049-0.312-4.657-0.997c-0.559-0.629-5.03-11.473-6.386-14.781
			c-0.037-0.09-0.047-0.189-0.028-0.285c0.344-1.767,1.184-4.167,1.797-5.919c0.295-0.843,0.628-1.795,0.669-2.041
			c-0.02-0.225,0.116-0.442,0.339-0.518c0.263-0.088,0.545,0.054,0.633,0.315c0.09,0.271,0.025,0.511-0.697,2.573
			c-0.586,1.675-1.383,3.951-1.73,5.635c2.174,5.299,5.721,13.769,6.162,14.369c0.404,0.446,4.367,0.908,5.499,0.502
			c0.09-0.032,0.21-0.273,0.197-0.708c-0.034-1.099-0.935-2.979-3.274-3.655c-0.121-0.035-0.223-0.113-0.289-0.221
			c-1.168-1.92-2.885-6.934-2.685-8.268c-0.006-0.071,0.042-3.545,4.94-5.779c1.737-0.741,3.224-0.731,4.431,0.022
			c2.336,1.459,2.762,5.233,2.828,6.061c0.306-0.377,0.709-1.181,0.933-1.705c0.062-0.146,0.191-0.254,0.346-0.29
			c0.155-0.041,0.318,0.003,0.439,0.106l0.482,0.411l0.39-1.286c0.065-0.215,0.277-0.358,0.49-0.354l0.822,0.019l0.671-2.338
			c0.05-0.174,0.191-0.325,0.367-0.371c0.376-0.094,0.603,0.119,1.092,0.997c0.279-0.565,0.585-1.742,0.733-2.921
			c0.028-0.229,0.21-0.408,0.439-0.436c0.228-0.019,0.447,0.108,0.526,0.323l0.104,0.28c2.521-4.231,5.151-5.271,5.938-5.494
			c0.399-0.114,0.899-0.19,1.532-0.288c1.46-0.224,3.667-0.562,6.446-1.708c4.702-1.94,7.171-3.764,7.181-4.562
			c-0.338-4.343-5.364-7.784-10.195-9.248c-2.744-0.701-5.133-1.307-7.401-0.937c-0.456,0.075-0.767,0.114-1.002,0.144
			c-0.377,0.047-0.504,0.062-0.744,0.163c-0.207,0.089-0.511,0.029-0.651-0.148c-0.127-0.162-0.145-0.318-0.084-0.495
			c-0.264,0.169-0.486,0.355-0.556,0.51c-0.113,0.251-0.407,0.366-0.661,0.25c-0.252-0.114-0.364-0.41-0.25-0.662
			c0.364-0.806,2.138-1.726,2.744-1.565c0.237,0.063,0.442,0.352,0.417,0.596c-0.011,0.109-0.05,0.203-0.136,0.335
			c0.197-0.025,0.442-0.06,0.761-0.112c2.476-0.408,4.958,0.226,7.833,0.96c4.8,1.454,10.522,4.987,10.925,10.178
			c-0.022,2.019-4.896,4.322-7.798,5.52c-2.891,1.193-5.169,1.542-6.677,1.772c-0.599,0.092-1.071,0.164-1.409,0.261
			c-0.747,0.213-3.376,1.271-5.865,5.954c-0.092,0.174-0.276,0.287-0.475,0.265c-0.087-0.006-0.17-0.035-0.241-0.081
			c-0.264,1.106-0.709,2.263-1.433,2.451c-0.226,0.058-0.459-0.046-0.568-0.25c-0.081-0.153-0.153-0.287-0.217-0.403l-0.49,1.709
			c-0.062,0.219-0.282,0.362-0.492,0.362l-0.828-0.019l-0.501,1.654c-0.049,0.161-0.176,0.287-0.338,0.334
			c-0.163,0.047-0.337,0.011-0.465-0.1l-0.56-0.478c-0.253,0.52-0.627,1.209-0.973,1.529c-0.34,0.317-0.666,0.297-0.83,0.258
			c-0.482-0.116-0.691-0.635-0.729-0.738c-0.016-0.046-0.026-0.095-0.029-0.144c-0.002-0.04-0.238-4.09-2.371-5.42
			c-0.915-0.572-2.09-0.555-3.496,0.045c-4.307,1.965-4.35,4.908-4.35,4.938c-0.14,0.966,1.302,5.51,2.45,7.513
			c2.54,0.818,3.752,2.9,3.803,4.526c0.026,0.851-0.295,1.479-0.859,1.681C95.023,264.274,94.299,264.345,93.461,264.345z"/>
	</g>
	<g>
		<path fill="#010202" d="M52.81,263c-0.011,0-0.021,0-0.033,0c-3.815,0-6.883-6.528-9.123-11.123
			c-0.791-1.622-1.474-3.141-1.983-3.818c-2.753-4.654-1.093-6.887-0.253-7.607c0.83-0.587,1.607-0.815,2.348-0.652
			c0.083,0.019,0.163,0.026,0.24,0.052c-0.118-0.604-0.227-1.411-0.307-2.469c-0.378-4.966,0.893-9.241,3.777-12.702
			c0.29-0.347,0.583-0.733,0.896-1.142c2.637-3.448,6.611-8.65,19.922-8.135c7.008,0.277,14.467,3.407,19.404,5.479
			c1.939,0.813,3.505,1.471,4.27,1.615c2.124-1.723,4.69-0.819,5.802-0.429c0.184,0.065,0.331,0.118,0.431,0.141
			c1.584,0.493,2.894,2.353,3.196,2.976c0.175,0.361,0.789,1.284,1.375,2.082c0.269-0.108,1.137-0.531,1.628-0.795
			c-0.15-0.386-0.25-0.845-0.24-1.067c0.011-0.226,0.171-0.416,0.392-0.465c0.259-0.057,0.803-0.324,1.053-0.516
			c-0.765-3.085-7.037-29.268-1.734-37.319c0.882-1.34,2.048-2.133,3.464-2.358c0.906-0.037,1.596,0.197,2.111,0.68
			c1.047,0.982,1.188,2.786,1.248,4.705c0.081,2.61-1.645,32.077-1.718,33.33c-0.016,0.275-0.251,0.501-0.528,0.47
			c-0.276-0.016-0.486-0.253-0.47-0.528c0.018-0.307,1.796-30.674,1.716-33.24c-0.051-1.633-0.165-3.287-0.932-4.007
			c-0.318-0.299-0.751-0.448-1.332-0.415c-1.082,0.176-1.993,0.804-2.724,1.914c-5.278,8.015,1.86,36.496,1.933,36.782
			c0.031,0.125,0.014,0.257-0.05,0.369c-0.237,0.419-0.898,0.765-1.369,0.956c0.061,0.227,0.156,0.493,0.222,0.579
			c0.113,0.148,0.144,0.36,0.064,0.529c-0.077,0.161-1.099,0.772-1.92,1.124c0.076,0.086,0.153,0.17,0.211,0.233
			c0.226,0.245,0.368,0.403,0.448,0.552c0.066,0.124,0.077,0.271,0.029,0.403c-0.068,0.19-0.301,0.369-0.502,0.38
			c-0.905,0.045-3.256-3.901-3.276-3.941c-0.277-0.571-1.407-2.089-2.554-2.446c-0.086-0.018-0.272-0.081-0.505-0.163
			c-1.142-0.4-3.267-1.148-4.983,0.384c-0.101,0.091-0.232,0.139-0.371,0.126c-0.832-0.063-2.4-0.722-4.774-1.718
			c-4.87-2.044-12.229-5.133-19.056-5.402c-12.787-0.508-16.577,4.458-19.089,7.741c-0.321,0.42-0.623,0.815-0.921,1.173
			c-2.712,3.254-3.906,7.285-3.548,11.982c0.187,2.448,0.515,3.301,0.64,3.544c0.07,0.096,0.107,0.16,0.113,0.17
			c0.122,0.212,0.073,0.48-0.115,0.636s-0.461,0.151-0.646-0.009c-0.049-0.043-0.116-0.118-0.191-0.25
			c-0.147-0.189-0.477-0.543-0.954-0.646c-0.456-0.099-0.961,0.05-1.511,0.437c-1.333,1.147-1.176,3.421,0.47,6.207
			c0.536,0.709,1.238,2.383,2.052,4.052C46.558,255.551,49.587,262,52.778,262c0.01,0,0.021,0,0.032,0
			c5.46,0,6.518-1.201,6.679-1.404c-0.023-0.334-0.158-1.584-0.923-2.834c-1.443-2.359-4.094-3.385-8.108-3.021
			c-0.274,0.023-0.518-0.207-0.543-0.482c-0.025-0.274,0.178-0.532,0.453-0.558c4.369-0.396,7.413,0.75,9.052,3.429
			c1.063,1.735,1.075,3.502,1.075,3.566C60.433,261.229,59.707,263,52.81,263z"/>
	</g>
	<g>
		<path fill="#010202" d="M53.803,250.169c-1.498,0-3.946-0.221-5.649-1.47c-0.223-0.163-0.271-0.477-0.107-0.699
			c0.164-0.223,0.476-0.271,0.699-0.107c2.263,1.661,6.313,1.221,6.354,1.215c5.607,0.306,7.56-3.223,7.579-3.259
			c0.016-0.029,0.035-0.058,0.056-0.083c3.029-3.63,4.116-6.912,3.231-9.756c-1.592-5.111-9.076-7.249-9.151-7.271
			c-0.266-0.074-0.422-0.35-0.348-0.615c0.074-0.267,0.351-0.422,0.615-0.348c0.329,0.091,8.081,2.301,9.837,7.934
			c0.992,3.18-0.148,6.767-3.388,10.661c-0.28,0.483-2.557,4.07-8.403,3.732C55.096,250.11,54.576,250.169,53.803,250.169z"/>
	</g>
	<g>
		<path fill="#010202" d="M115.952,227.578L115.952,227.578c-0.192,0-0.387-0.057-0.562-0.165c-0.399-0.246-0.453-0.574-0.449-0.747
			c0.008-0.39,0.292-0.688,0.555-0.836c0.241-0.133,0.589-0.062,0.672-0.026c0.604,0.201,0.764,0.678,0.708,1.021
			C116.806,227.254,116.408,227.578,115.952,227.578z"/>
	</g>
	<g>
		<path fill="#010202" d="M130.248,231.735c-0.607,0-1.395-0.321-1.873-0.547c-0.25-0.118-0.356-0.416-0.239-0.665
			c0.118-0.249,0.416-0.357,0.666-0.239c0.541,0.255,1.179,0.454,1.437,0.456c0.121-0.163,0.337-0.24,0.542-0.181
			c0.265,0.078,0.417,0.355,0.338,0.621c-0.062,0.211-0.21,0.379-0.417,0.472C130.572,231.711,130.417,231.735,130.248,231.735z"/>
	</g>
	<g>
		<path fill="#010202" d="M94.913,260.159c-0.47,0-0.71-0.087-0.789-0.123c-0.251-0.114-0.363-0.41-0.249-0.662
			c0.111-0.244,0.396-0.355,0.643-0.257c0.05,0.016,0.807,0.222,2.781-0.487c-0.889-2.301-2.542-1.938-2.615-1.918
			c-0.088,0.021-0.179,0.018-0.266-0.009c-0.063-0.021-1.565-0.516-2.371-3.022c-0.778-2.423,2.454-8.533,2.825-9.222
			c0.131-0.243,0.433-0.332,0.677-0.203c0.243,0.131,0.334,0.435,0.203,0.678c-0.952,1.768-3.303,6.729-2.753,8.44
			c0.535,1.663,1.361,2.2,1.635,2.337c0.645-0.07,2.833-0.063,3.773,3.072c0.075,0.249-0.054,0.514-0.296,0.608
			C96.545,260.009,95.531,260.159,94.913,260.159z"/>
	</g>
	<g>
		<path fill="#010202" d="M82.567,248.892c-0.071,0-0.144-0.016-0.213-0.048c-5.725-2.701-15.414-6.432-17.045-4.924
			c-0.203,0.187-0.519,0.174-0.707-0.029c-0.187-0.203-0.174-0.52,0.029-0.707c2.603-2.396,15.576,3.542,18.15,4.756
			c0.25,0.118,0.356,0.416,0.239,0.665C82.934,248.786,82.754,248.892,82.567,248.892z"/>
	</g>
	<g>
		<path fill="#010202" d="M41.417,235.057c-0.14,0-0.274-0.059-0.37-0.163c-0.111-0.123-0.155-0.292-0.117-0.453l0.089-0.373
			l-2.776,0.089c-0.145,0.001-0.286-0.055-0.384-0.162c-0.099-0.107-0.146-0.252-0.128-0.396l0.137-1.157
			c-0.297-0.323-0.907-1.035-1.239-1.767c-0.43-0.947,0.625-1.816,1.197-2.201l-0.258-2.368c-0.017-0.157,0.042-0.314,0.158-0.422
			c0.117-0.106,0.277-0.151,0.434-0.123c0.714,0.139,1.514,0.487,2.036,0.742c0.168-0.602,0.439-1.504,0.69-2.022
			c0.074-0.152,0.22-0.258,0.388-0.278c2.168-0.273,4.963,2.272,5.081,2.38c0.203,0.187,0.217,0.503,0.03,0.706
			c-0.187,0.205-0.504,0.217-0.706,0.03c-0.666-0.61-2.601-2.1-4.008-2.137c-0.32,0.804-0.664,2.159-0.667,2.174
			c-0.038,0.151-0.145,0.276-0.288,0.338c-0.144,0.06-0.307,0.053-0.443-0.024c-0.01-0.006-0.806-0.453-1.631-0.739l0.212,1.947
			c0.021,0.196-0.076,0.387-0.247,0.486c-0.603,0.35-1.151,0.914-1.068,1.098c0.367,0.808,1.198,1.646,1.207,1.653
			c0.108,0.108,0.161,0.26,0.143,0.412l-0.096,0.812l2.851-0.091c0.151-0.005,0.305,0.063,0.404,0.185
			c0.099,0.12,0.135,0.28,0.099,0.432l-0.07,0.294l1.125-0.162c0.28-0.037,0.527,0.15,0.566,0.424
			c0.039,0.273-0.151,0.527-0.424,0.566l-1.855,0.267C41.464,235.055,41.44,235.057,41.417,235.057z"/>
	</g>
	<g>
		<path fill="#010202" d="M69.146,257.347c-4.151-0.046-10.851-0.532-10.918-0.537c-0.275-0.021-0.482-0.26-0.462-0.535
			c0.02-0.276,0.249-0.488,0.535-0.463c0.067,0.005,6.736,0.49,10.757,0.537c3.101-0.059,4.414-0.448,4.973-0.761
			c-1.308-4.178-4.409-3.391-4.546-3.354c-0.06,0.017-0.123,0.021-0.185,0.015c-5.784-0.632-5.917-1.117-6.004-1.438
			c-0.063-0.232,0.024-0.472,0.229-0.625c0.232-0.174,0.576-0.22,1.398-0.315c2.234-0.259,6.882-0.797,7.483-5.483
			c0.036-0.274,0.29-0.47,0.56-0.433c0.274,0.035,0.468,0.286,0.433,0.56c-0.628,4.893-5,5.902-7.552,6.25
			c1.004,0.174,2.296,0.352,3.483,0.482c0.673-0.134,4.393-0.611,5.765,4.413c0.05,0.185-0.009,0.381-0.152,0.508
			C74.104,256.903,72.208,257.29,69.146,257.347z"/>
	</g>
	<g>
		<path fill="#010202" d="M90.158,225.16c-0.128,0-0.256-0.049-0.354-0.146c-0.195-0.195-0.195-0.512,0-0.707
			c0.031-0.031,0.777-0.773,2.021-1.687c0.223-0.164,0.535-0.116,0.699,0.107c0.163,0.223,0.115,0.536-0.107,0.699
			c-1.177,0.863-1.898,1.58-1.905,1.587C90.414,225.111,90.286,225.16,90.158,225.16z"/>
	</g>
	<g>
		<path fill="#010202" d="M45.67,243.807c-0.211,0-0.408-0.135-0.476-0.348l-0.655-2.044c-0.084-0.263,0.061-0.544,0.323-0.629
			c0.264-0.08,0.545,0.061,0.629,0.324l0.655,2.044c0.084,0.263-0.061,0.544-0.323,0.629
			C45.772,243.799,45.721,243.807,45.67,243.807z"/>
	</g>
	<g>
		<path fill="#010202" d="M53.848,254.685c-0.17,0-0.335-0.087-0.429-0.243c-0.082-0.136-2.004-3.351-2.346-4.716
			c-0.067-0.268,0.096-0.539,0.363-0.606c0.267-0.064,0.54,0.096,0.606,0.364c0.254,1.014,1.699,3.552,2.234,4.444
			c0.142,0.236,0.065,0.544-0.171,0.686C54.024,254.662,53.935,254.685,53.848,254.685z"/>
	</g>
	<g>
		<path fill="#010202" d="M54.666,254.685c-0.202,0-0.393-0.124-0.468-0.324c-0.534-1.426,0.375-4.548,0.48-4.899
			c0.079-0.265,0.356-0.417,0.623-0.335c0.265,0.079,0.415,0.357,0.335,0.622c-0.36,1.203-0.815,3.424-0.501,4.261
			c0.097,0.259-0.034,0.547-0.292,0.644C54.783,254.675,54.724,254.685,54.666,254.685z"/>
	</g>
	<g>
		<path fill="#010202" d="M109.541,221.234c-0.018,0-0.036-0.001-0.054-0.003c-0.274-0.029-0.473-0.275-0.444-0.55
			c0.883-8.287,2.847-30.508,1.352-33.76c-0.338-0.904-0.748-1.451-1.17-1.576c-0.366-0.106-0.675,0.119-0.688,0.129
			c-0.219,0.163-0.532,0.122-0.698-0.094c-0.167-0.218-0.131-0.525,0.083-0.695c0.259-0.204,0.877-0.499,1.563-0.306
			c0.764,0.215,1.38,0.94,1.833,2.159c1.902,4.132-1.149,33.021-1.28,34.248C110.01,221.044,109.793,221.234,109.541,221.234z"/>
	</g>
	<g>
		<path fill="#010202" d="M107.66,223.933c-0.246,0-0.85-0.158-1.145-1.628c-1.875-10.108,0.219-26.737,0.24-26.904
			c0.036-0.273,0.285-0.468,0.56-0.433c0.274,0.035,0.468,0.286,0.433,0.56c-0.021,0.165-2.095,16.642-0.25,26.588
			c0.117,0.582,0.26,0.784,0.307,0.839c0.206,0.062,0.355,0.253,0.355,0.479C108.16,223.709,107.936,223.933,107.66,223.933z"/>
	</g>
</g>
<g id="Hase_2">
	<g id="Ebene_4_Kopie">
		<g>
			<path fill="#FAFAFA" d="M93.556,246.942c0,0,0.894-1.612,4.42-1.965c3.683-0.368,11.295,1.474,18.416-5.279
				c-1.146-6.549-8.594-15.838-21.117-12.974c1.228-7.364,6.262-30.979,0.859-34.908c-1.309,0-1.719,0.613-1.719,0.613
				s0.368-1.719-1.105-0.981c-2.7,1.638-5.156,23.45-2.127,38.797l-1.146,1.064l0.246,1.309l-2.046,1.146l0.655,1.31l-3.602-0.655
				c0,0-1.474-2.456-2.783-3.273c-1.31-0.818-3.11-1.227-4.338-0.573c-4.256-1.392-10.395-6.916-12.605-8.062
				s-20.38-5.647-28.237,12.483c0,0-2.457-2.539-5.035-2.907c0.573,1.311,0,1.965,0,1.965s-0.941-2.252-3.561,0.122
				c0.491,1.065,0.41,2.62,0.41,2.62s-1.638,0.654-1.393,1.555c0,0,1.391,1.023,2.21,0.614c-0.737,1.309-0.737,2.578-0.737,2.578
				l3.275,0.082l-0.164,0.736l2.782-0.327c0,0-0.164,4.256,0.737,6.712c-1.637-0.736-2.946-1.147-3.929,1.391
				c-0.982,2.538,1.965,6.304,3.438,9.414c1.473,3.109,4.747,9.74,7.857,10.312s7.857-0.409,7.857-1.637
				c0-1.229-2.21-4.094-2.21-4.094s-3.192-2.047-4.01-1.964c-1.146-1.719-2.128-4.42-2.128-4.42l3.274,0.164l-0.574,3.929
				c0,0,3.275,2.62,7.531,2.947c4.256,0.326,11.622,0,12.441-0.983c-0.409-2.374-1.882-4.175-5.075-4.093
				c-3.847-0.408-4.993-0.899-4.993-0.899s7.857,0,8.267-5.075c1.555,0.9,3.192,2.865,3.192,2.865s6.63,8.921,6.057,10.148
				c-0.573,1.229-0.206,3.315,0.203,4.134s5.852,0.328,7.244-0.245c1.392-0.574-0.326-3.151-1.718-3.889
				c-0.327-3.355-4.298-8.021-3.193-10.967c2.117,2.068,5.336,8.846,7.277,11.701c3.438,0.573,8.07,0.085,8.562-0.897
				c0.491-0.982-2.75-3.031-3.65-2.376c-1.719-1.965-4.699-3.518-5.966-12.111c1.801-0.246,3.519,1.309,3.601,2.21
				c1.064-0.491,1.637-1.964,1.637-1.964l1.064,0.899l0.736-2.128l1.064,0.164l0.899-1.76l0.724,1.229c0,0,0.75,1.595,0.75-0.125
				C92.574,250.952,93.556,246.942,93.556,246.942z"/>
		</g>
	</g>
	<g>
		<path fill="#010202" d="M75.708,271.796c-1.28,0-2.438-0.143-2.946-0.506c-0.063-0.046-0.115-0.105-0.152-0.174
			c-0.743-1.409-0.39-3.765-0.114-5.044c0.145-0.67-0.843-2.634-1.715-4.366c-1.349-2.681-2.743-5.453-2.394-7.248
			c0.575-2.959,0.706-5.737,0.643-6.078c-0.088-0.262,0.057-0.531,0.318-0.619c0.263-0.086,0.55,0.067,0.638,0.329
			c0.178,0.53-0.094,3.87-0.617,6.56c-0.284,1.46,1.152,4.313,2.306,6.607c1.251,2.487,2.008,4.062,1.799,5.026
			c-0.396,1.833-0.407,3.403-0.036,4.249c1.1,0.548,5.869,0.166,6.529-0.27c0.218-0.221,0.312-0.646,0.235-1.147
			c-0.12-0.776-0.709-1.917-1.978-2.577c-0.088-0.046-0.16-0.116-0.208-0.204c-0.512-0.938-2.376-5.244-2.634-6.916
			c-0.038-0.248-0.132-0.551-0.232-0.871c-0.505-1.623-1.268-4.074,2.967-6.005c2.646-1.128,4.648-1.314,5.96-0.559
			c0.963,0.556,1.229,1.444,1.293,1.751c0.307-0.37,0.718-1.19,0.945-1.723c0.062-0.146,0.191-0.254,0.346-0.29
			c0.153-0.042,0.318,0.003,0.438,0.106l0.483,0.413l0.391-1.287c0.051-0.166,0.184-0.295,0.353-0.338
			c0.169-0.047,0.347,0.003,0.473,0.123l0.797,0.769l0.528-2.108c0.017-0.067,0.047-0.131,0.09-0.186
			c0.104-0.135,0.283-0.207,0.452-0.195c0.245,0.021,0.464,0.126,1.071,1.199c0.392-0.593,0.946-1.974,1.336-3.406
			c0.025-0.094,0.078-0.179,0.15-0.243c0.096-0.085,2.419-2.096,8.049-2.009l0.306,0.01c1.402,0.048,3.518,0.12,7.313-0.933
			c4.812-1.337,6.99-3.111,7-3.944c-0.365-4.672-5.443-9.69-10.142-11.817c-3.067-1.53-9.325-0.881-9.803-0.725
			c-0.051,0.022-0.14,0.053-0.245,0.089c-0.379,0.129-1.014,0.346-1.199,0.755c-0.102,0.227-0.352,0.345-0.592,0.276
			c-0.238-0.067-0.392-0.299-0.36-0.545c0.031-0.242,3.083-24.309,3.188-30.024c0.059-3.196-1.301-5.46-2.608-5.57
			c-0.966-0.087-2.216,1.166-2.781,4.916c-1.158,7.682-1.77,27.042,0.436,33.341c0.055,0.155,0.029,0.328-0.069,0.461
			c-0.098,0.134-0.264,0.2-0.42,0.204c-0.719-0.034-0.969,0.198-1.12,0.488c0.322,0.198,0.39,0.536,0.431,0.738
			c0.008,0.039,0.013,0.078,0.025,0.11c0.122,0.149,0.114,0.302,0.031,0.477c-0.076,0.161-1.092,0.77-1.912,1.121
			c0.044,0.049,0.087,0.095,0.124,0.135c0.213,0.229,0.414,0.444,0.526,0.655c0.066,0.124,0.077,0.271,0.03,0.403
			c-0.171,0.48-0.785,0.514-1.016,0.526c-0.905,0.049-3.334-0.291-3.748-1.145c-0.237-0.49-0.586-0.938-1.28-1.832l-0.5-0.646
			c-0.062-0.045-0.135-0.101-0.218-0.164c-0.685-0.524-2.111-1.615-4.169-1.028c-0.058,0.017-0.117,0.022-0.175,0.019
			c-1.619-0.123-3.544-1.521-5.982-3.289c-3.539-2.568-7.944-5.765-12.938-5.962c-12.345-0.511-15.999,4.655-18.425,8.06
			c-0.408,0.573-0.794,1.115-1.183,1.582c-2.698,3.237-4.461,9.241-4.102,13.966c0.187,2.448,0.515,3.302,0.64,3.546
			c0.07,0.096,0.108,0.16,0.114,0.17c0.122,0.211,0.074,0.48-0.115,0.636c-0.188,0.155-0.46,0.151-0.646-0.008
			c-0.05-0.043-0.116-0.119-0.192-0.251c-0.147-0.189-0.476-0.543-0.954-0.646c-0.451-0.097-0.961,0.049-1.513,0.438
			c-1.335,1.147-1.177,3.423,0.471,6.213c0.536,0.709,1.239,2.389,2.052,4.059C37.559,263.539,40.591,270,43.785,270
			c0.011,0,0.022,0,0.032,0c5.466,0,6.524-1.207,6.686-1.41c-0.023-0.334-0.158-1.59-0.924-2.842
			c-1.446-2.361-4.103-3.388-8.116-3.023c-0.275,0.022-0.518-0.207-0.543-0.482c-0.025-0.274,0.178-0.533,0.453-0.559
			c4.367-0.397,7.418,0.751,9.059,3.432c1.064,1.737,1.076,3.51,1.076,3.574c-0.062,0.534-0.789,2.311-7.691,2.311
			c-0.011,0-0.021,0-0.033,0c-3.818,0-6.889-6.539-9.131-11.139c-0.791-1.623-1.475-3.144-1.984-3.823
			c-2.755-4.658-1.094-6.894-0.253-7.615c0.831-0.587,1.608-0.82,2.35-0.652c0.083,0.019,0.163,0.025,0.24,0.051
			c-0.118-0.604-0.227-1.411-0.307-2.47c-0.377-4.955,1.485-11.271,4.33-14.687c0.365-0.438,0.74-0.966,1.137-1.523
			c2.552-3.58,6.407-8.986,19.279-8.48c5.297,0.21,9.838,3.504,13.486,6.151c2.173,1.577,4.056,2.943,5.387,3.093
			c2.496-0.663,4.219,0.654,4.96,1.223c0.094,0.072,0.171,0.132,0.231,0.172c0.047,0.03,0.088,0.068,0.122,0.113l0.546,0.704
			c0.714,0.919,1.107,1.425,1.391,2.01c0.221,0.247,1.643,0.558,2.498,0.592c-0.252-0.272-0.479-0.533-0.56-0.804
			c-0.036-0.116-0.031-0.244,0.023-0.361c0.073-0.158,0.221-0.264,0.388-0.286c0.268-0.105,1.217-0.569,1.701-0.832
			c-0.001-0.005-0.002-0.01-0.003-0.015c-0.021,0.004-0.045,0.009-0.074,0.017c-0.017,0.005-0.035,0.01-0.054,0.014
			c-0.268,0.059-0.525-0.105-0.591-0.367c-0.051-0.203,0.031-0.409,0.191-0.526c0.012-0.029,0.024-0.063,0.038-0.1
			c0.141-0.369,0.442-1.154,1.518-1.358c-2.138-7.346-1.27-26.661-0.284-33.201c0.817-5.425,2.967-5.846,3.854-5.764
			c2.042,0.172,3.589,3.063,3.524,6.584c-0.094,5.064-2.387,23.685-3.033,28.837c0.25-0.119,0.49-0.2,0.673-0.263
			c0.078-0.027,0.145-0.049,0.193-0.069c0.616-0.259,7.24-0.933,10.607,0.749c4.877,2.207,10.301,7.409,10.711,12.687
			c-0.024,2.08-4.18,3.954-7.731,4.94c-3.943,1.095-6.239,1.014-7.615,0.97l-0.293-0.01c-4.543-0.091-6.763,1.318-7.257,1.676
			c-0.43,1.542-1.261,3.978-2.277,4.242c-0.222,0.059-0.458-0.046-0.567-0.25c-0.119-0.225-0.222-0.411-0.31-0.565l-0.482,1.926
			c-0.043,0.174-0.175,0.311-0.347,0.359c-0.171,0.05-0.356,0.004-0.484-0.12l-0.832-0.801l-0.375,1.237
			c-0.049,0.161-0.176,0.287-0.338,0.334c-0.162,0.047-0.337,0.01-0.465-0.1l-0.561-0.479c-0.253,0.521-0.628,1.211-0.974,1.532
			c-0.339,0.315-0.667,0.298-0.83,0.258c-0.482-0.117-0.691-0.635-0.728-0.738c-0.013-0.035-0.021-0.071-0.026-0.108
			c-0.004-0.024-0.111-0.714-0.837-1.122c-0.707-0.397-2.154-0.613-5.039,0.617c-3.421,1.56-2.91,3.203-2.416,4.793
			c0.111,0.356,0.216,0.694,0.265,1.016c0.218,1.417,1.88,5.337,2.456,6.462c1.264,0.71,2.164,1.937,2.364,3.235
			c0.128,0.831-0.064,1.552-0.541,2.028C80.229,271.412,77.805,271.795,75.708,271.796z"/>
	</g>
	<g>
		<path fill="#010202" d="M44.812,258.147c-1.499,0-3.95-0.221-5.654-1.471c-0.223-0.163-0.271-0.477-0.108-0.699
			c0.164-0.224,0.476-0.271,0.699-0.107c2.266,1.661,6.319,1.221,6.36,1.216c5.574,0.31,7.507-3.117,7.587-3.263
			c3.156-3.797,4.312-7.266,3.493-10.391c-1.417-5.4-8.296-8.063-8.365-8.09c-0.258-0.098-0.388-0.387-0.291-0.645
			c0.099-0.259,0.386-0.385,0.645-0.291c0.303,0.115,7.432,2.878,8.978,8.772c0.904,3.445-0.31,7.202-3.608,11.168
			c-0.28,0.482-2.548,4.067-8.41,3.734C46.105,258.089,45.585,258.147,44.812,258.147z"/>
	</g>
	<g>
		<path fill="#010202" d="M95.158,227.19c-0.036,0-0.072-0.004-0.108-0.012c-0.27-0.06-0.44-0.326-0.381-0.596
			c2.957-13.45,4.625-30.163,2.164-33.712c-0.233-0.336-0.484-0.52-0.769-0.56c-0.468-0.066-0.616,0.026-0.618,0.027
			c-0.146,0.232-0.424,0.269-0.658,0.121c-0.234-0.146-0.274-0.492-0.127-0.727c0.086-0.135,0.454-0.566,1.545-0.412
			c0.567,0.081,1.055,0.411,1.449,0.98c2.919,4.21,0.583,22.706-2.009,34.496C95.594,227.031,95.387,227.19,95.158,227.19z"/>
	</g>
	<g>
		<path fill="#010202" d="M101.929,234.775L101.929,234.775c-0.214,0-0.417-0.075-0.589-0.218c-0.254-0.212-0.379-0.497-0.351-0.804
			c0.039-0.42,0.368-0.785,0.657-0.947c0.23-0.129,0.589-0.06,0.673-0.025c0.463,0.154,0.732,0.574,0.653,1.057
			C102.888,234.354,102.42,234.775,101.929,234.775z"/>
	</g>
	<g>
		<path fill="#010202" d="M115.505,241.403c-0.658,0-1.466-0.548-1.963-0.942c-0.216-0.172-0.252-0.486-0.081-0.702
			c0.171-0.215,0.486-0.253,0.702-0.081c0.501,0.396,1.165,0.754,1.346,0.727c0.212-0.177,0.492-0.134,0.669,0.077
			c0.178,0.211,0.117,0.545-0.094,0.723C115.918,241.345,115.72,241.403,115.505,241.403z"/>
	</g>
	<g>
		<path fill="#010202" d="M85.875,268.099c-1.736,0-3.132-0.107-3.253-0.117c-0.161-0.013-0.306-0.102-0.389-0.24
			c0,0-2.613-4.339-3.842-6.427c-0.92-1.565-3.175-5.617-3.198-5.658c-0.134-0.241-0.047-0.546,0.194-0.68
			c0.243-0.135,0.546-0.047,0.68,0.193c0.022,0.041,2.271,4.082,3.186,5.637c1.061,1.803,3.153,5.284,3.702,6.196
			c1.111,0.07,5.57,0.303,7.988-0.403c-0.96-2.307-3.177-1.916-3.278-1.898c-0.153,0.026-0.307-0.014-0.422-0.115
			c-0.136-0.119-3.338-2.94-4.109-5.336c-0.732-2.276-1.998-6.975-2.011-7.021c-0.072-0.267,0.086-0.541,0.353-0.612
			c0.266-0.072,0.541,0.085,0.613,0.353c0.013,0.047,1.272,4.722,1.997,6.975c0.592,1.843,2.988,4.133,3.647,4.738
			c1.274-0.131,3.507,0.349,4.329,3.085c0.075,0.249-0.054,0.514-0.296,0.608C90.287,267.959,87.859,268.099,85.875,268.099z"/>
	</g>
	<g>
		<path fill="#010202" d="M69.369,257.755c-0.103,0-0.207-0.031-0.296-0.098c-4.084-3.007-11.157-7.233-12.748-5.764
			c-0.203,0.186-0.519,0.173-0.707-0.029c-0.187-0.203-0.174-0.52,0.029-0.707c2.658-2.446,12.144,4.313,14.018,5.695
			c0.223,0.163,0.27,0.477,0.106,0.699C69.674,257.685,69.523,257.755,69.369,257.755z"/>
	</g>
	<g>
		<path fill="#010202" d="M32.415,243.022c-0.14,0-0.274-0.059-0.37-0.163c-0.112-0.123-0.155-0.293-0.117-0.454l0.125-0.521
			l-3.068-0.716c-0.13-0.031-0.243-0.112-0.313-0.227s-0.091-0.252-0.058-0.382l0.312-1.248c-1.085-0.284-1.483-0.421-1.634-0.761
			c-0.124-0.277-0.123-0.569,0.002-0.845c0.227-0.501,0.84-0.836,1.264-1.017l-0.323-2.451c-0.027-0.204,0.073-0.403,0.253-0.503
			c1.229-0.682,2.236-0.717,2.947-0.575c-0.075-0.534,0.032-1.1,0.565-1.481c0.092-0.065,0.204-0.104,0.315-0.092
			c2.632,0.132,4.973,2.677,5.071,2.785c0.186,0.204,0.17,0.52-0.034,0.706c-0.203,0.186-0.521,0.17-0.706-0.033
			c-0.021-0.023-2.03-2.202-4.168-2.442c-0.237,0.388,0.229,1.171,0.234,1.18c0.132,0.207,0.094,0.479-0.09,0.643
			c-0.185,0.163-0.459,0.169-0.648,0.013c-0.04-0.03-1.026-0.771-2.702,0.019l0.329,2.497c0.032,0.241-0.115,0.47-0.347,0.543
			c-0.462,0.146-0.901,0.411-1.022,0.571c0.251,0.096,0.74,0.224,1.027,0.298c0.894,0.233,1.302,0.34,1.24,0.839
			c-0.044,0.354-0.319,0.457-0.638,0.488l-0.154,0.617l3.063,0.715c0.129,0.03,0.242,0.111,0.312,0.225
			c0.07,0.113,0.092,0.25,0.061,0.38l-0.071,0.294l1.128-0.161c0.275-0.037,0.527,0.15,0.566,0.425
			c0.039,0.272-0.151,0.526-0.424,0.565l-1.857,0.266C32.462,243.021,32.438,243.022,32.415,243.022z"/>
	</g>
	<g>
		<path fill="#010202" d="M60.068,265.333L60.068,265.333c-4.056-0.047-10.761-0.534-10.828-0.539
			c-0.275-0.021-0.482-0.26-0.462-0.535c0.02-0.276,0.251-0.487,0.535-0.463c0.067,0.005,6.742,0.491,10.766,0.537
			c3.104-0.059,4.418-0.448,4.978-0.762c-1.301-4.151-4.418-3.39-4.552-3.355c-0.06,0.015-0.125,0.021-0.183,0.014
			c-5.788-0.632-5.921-1.118-6.009-1.439c-0.064-0.232,0.024-0.472,0.229-0.625c0.282-0.212,0.724-0.213,1.604-0.215
			c2.998-0.006,6.248-0.312,6.88-3.892c0.047-0.271,0.309-0.46,0.579-0.405c0.272,0.048,0.454,0.307,0.405,0.579
			c-0.655,3.714-3.755,4.501-6.154,4.671c0.795,0.119,1.67,0.232,2.495,0.323c0.677-0.132,4.397-0.61,5.77,4.416
			c0.05,0.185-0.009,0.381-0.152,0.507c-0.838,0.738-2.735,1.125-5.799,1.182C60.164,265.331,60.076,265.333,60.068,265.333z"/>
	</g>
	<g>
		<path fill="#010202" d="M76.153,232.821c-0.101,0-0.203-0.03-0.291-0.094c-0.225-0.161-0.276-0.473-0.116-0.697
			c0.123-0.172,1.235-1.688,2.46-2.093c0.261-0.089,0.545,0.056,0.631,0.317c0.087,0.263-0.056,0.545-0.318,0.632
			c-0.776,0.257-1.678,1.333-1.96,1.726C76.462,232.749,76.309,232.821,76.153,232.821z"/>
	</g>
	<g>
		<path fill="#010202" d="M93.559,228.412c-0.024,0-0.048-0.002-0.073-0.005c-0.082-0.012-0.805-0.145-1.034-1.254
			c-0.339-1.638-1.699-14.466-0.022-21.805c0.061-0.27,0.328-0.439,0.599-0.376c0.269,0.062,0.438,0.329,0.376,0.599
			c-1.722,7.537-0.162,20.466,0.027,21.38c0.083,0.407,0.24,0.476,0.241,0.477c0.273,0.038,0.44,0.286,0.401,0.56
			C94.04,228.236,93.807,228.412,93.559,228.412z"/>
	</g>
	<g>
		<path fill="#010202" d="M78.455,266.595h-2.824c-0.276,0-0.5-0.224-0.5-0.5s0.224-0.5,0.5-0.5h2.824c0.276,0,0.5,0.224,0.5,0.5
			S78.731,266.595,78.455,266.595z"/>
	</g>
	<g>
		<path fill="#010202" d="M36.672,251.78c-0.211,0-0.408-0.135-0.476-0.348l-0.656-2.047c-0.084-0.263,0.061-0.544,0.323-0.629
			c0.263-0.082,0.545,0.061,0.629,0.324l0.656,2.047c0.084,0.263-0.061,0.544-0.323,0.629
			C36.774,251.772,36.722,251.78,36.672,251.78z"/>
	</g>
	<g>
		<path fill="#010202" d="M44.856,262.667c-0.17,0-0.335-0.087-0.429-0.243c-0.082-0.136-2.007-3.353-2.348-4.72
			c-0.067-0.268,0.096-0.539,0.364-0.606c0.267-0.063,0.539,0.096,0.606,0.364c0.254,1.016,1.7,3.555,2.236,4.448
			c0.142,0.236,0.065,0.544-0.171,0.686C45.032,262.645,44.943,262.667,44.856,262.667z"/>
	</g>
	<g>
		<path fill="#010202" d="M45.674,262.667c-0.203,0-0.393-0.124-0.468-0.324c-0.534-1.427,0.375-4.552,0.481-4.903
			c0.08-0.265,0.356-0.417,0.623-0.335c0.265,0.079,0.415,0.357,0.335,0.622c-0.361,1.204-0.816,3.428-0.502,4.265
			c0.097,0.259-0.034,0.547-0.293,0.644C45.792,262.657,45.732,262.667,45.674,262.667z"/>
	</g>
</g>
<g id="Hase_1">
	<g id="Ebene_4">
		<g>
			<path fill="#FAFAFA" d="M71.75,261.5c0,0,1.625-4.625,5.125-5.5s13.208-2.749,16.375-8.166
				c-1.167-6.667-9.917-12.334-20.75-9.917c1.25-7.499,3.75-30.499-1.75-34.499c-1.333,0-2.25,1.666-2.25,1.666s-1.25-1.5-2.75-0.75
				c-2.75,1.667-3.833,23.167,2.583,37.167l-1.167,1.083l0.25,1.333l-2.083,1.167L66,246.417l-2.667,1.333c0,0-1.5-2.5-2.833-3.333
				s-3.167-1.249-4.417-0.583c-4.333-1.417-10.249-3.5-12.499-4.667s-19.5-5.25-29.083,10.167c0,0-2.417-3.918-5.25-1.834
				c0.583,1.334,0.167,2.084,0.167,2.084s-1.167-2.251-3.833,0.166c0.5,1.084,0.583,1.417,0.583,1.417s-0.917,1.666-0.667,2.583
				s1.917,0.834,2.75,0.417c-0.75,1.333-0.917,1.917-0.917,1.917h2.25l-0.167,0.75l2.833-0.334c0,0-0.167,4.334,0.75,6.834
				c-1.667-0.75-3-1.168-4,1.416s2,6.418,3.5,9.584s4.833,9.917,8,10.5s8-0.417,8-1.667S26.251,279,26.251,279s-3.25-2.084-4.083-2
				c-1.167-1.75-2.167-4.5-2.167-4.5l3.333,0.167l-0.583,4c0,0,3.334,2.667,7.667,3s11.833,0,12.667-1
				c-0.417-2.417-1.917-4.251-5.167-4.167c-3.917-0.416-5.083-0.916-5.083-0.916s8,0,8.417-5.167c1.583,0.917,3.25,2.917,3.25,2.917
				s-0.25,9.083-0.833,10.333s-1.667,3.334-1.25,4.167s6.166,0.334,7.583-0.25s0.917-3.167-0.5-3.917
				c-0.333-3.417-0.333-6.667,1.667-9.25c0.333,2.75,0.667,5.833,3.5,10c3.5,0.583,8.5,0.083,9-0.917s-3.167-3.167-4.083-2.5
				c-1.75-2-3.583-1.25,0-12.25c1.833-0.25,3.583,1.333,3.667,2.25c1.083-0.5,1.667-2,1.667-2l1.083,0.917l0.75-2.167l1.083,0.167
				L68.751,263l0.833,1.334c0,0,1.167-1.5,1.167-3.25C71.251,261.417,71.75,261.5,71.75,261.5z"/>
		</g>
	</g>
	<g>
		<path fill="#010202" d="M45.108,286.726c-1.279,0-2.411-0.137-2.898-0.484c-0.063-0.046-0.115-0.105-0.152-0.174
			c-0.532-1.008,0.062-2.28,0.636-3.512c0.272-0.583,0.529-1.135,0.625-1.577c0.182-0.841,0.272-2.927,0.368-5.136
			c0.114-2.634,0.244-5.62,0.565-7.274c0.402-2.065,1.462-3.883,2.096-4.968c0.174-0.298,0.37-0.633,0.424-0.77
			c0-0.209,0.132-0.403,0.341-0.474c0.261-0.088,0.546,0.053,0.633,0.314c0.11,0.328-0.065,0.629-0.534,1.433
			c-0.602,1.03-1.608,2.756-1.978,4.655c-0.308,1.581-0.435,4.527-0.548,7.126c-0.102,2.351-0.19,4.381-0.39,5.304
			c-0.12,0.553-0.399,1.153-0.696,1.789c-0.42,0.901-0.894,1.917-0.705,2.509c1.142,0.542,6.257,0.093,6.943-0.361
			c0.46-0.464,0.699-1.084,0.614-1.637c-0.088-0.57-0.528-1.077-1.273-1.465c-0.088-0.046-0.16-0.116-0.208-0.204
			c-0.536-0.979-0.116-4.878,0.025-6.049c0.004-0.034,0.012-0.066,0.022-0.099c0.084-0.253,2.125-6.232,7.017-8.463
			c2.691-1.148,4.727-1.34,6.06-0.569c0.999,0.575,1.258,1.503,1.316,1.795c0.317-0.374,0.743-1.222,0.976-1.77
			c0.062-0.146,0.191-0.254,0.346-0.29c0.156-0.04,0.318,0.003,0.439,0.106l0.503,0.429l0.401-1.324
			c0.065-0.214,0.23-0.356,0.49-0.354l0.845,0.019l0.686-2.39c0.05-0.175,0.191-0.325,0.367-0.371
			c0.381-0.101,0.609,0.125,1.111,1.026c0.287-0.571,0.604-1.781,0.756-2.995c0.028-0.229,0.21-0.409,0.439-0.436
			c0.228-0.023,0.447,0.108,0.526,0.324l0.112,0.303c2.57-4.322,5.253-5.382,6.055-5.61c0.406-0.116,0.915-0.194,1.56-0.293
			c1.489-0.228,3.738-0.572,6.571-1.741c4.136-1.707,7.266-4.452,7.278-5.399c-0.342-4.384-5.654-7.93-10.767-9.479
			c-2.959-0.755-4.902-0.534-7.129-0.166c-0.466,0.077-0.784,0.116-1.024,0.146c-0.384,0.048-0.513,0.063-0.757,0.166
			c-0.187,0.077-0.487,0.035-0.63-0.106c-0.033-0.032-0.06-0.065-0.083-0.101c-0.337,0.396-0.66,0.82-0.775,1.076
			c-0.099,0.22-0.339,0.333-0.572,0.281c-0.233-0.056-0.394-0.271-0.383-0.51c0.012-0.243,1.122-24.318-0.966-29.67
			c-1.345-3.446-2.672-4.9-3.367-4.83c-0.301,0.034-1.337,0.51-2.047,5.223c-1.117,7.408,0.874,26.878,4.5,31.819
			c0.116,0.158,0.129,0.37,0.032,0.542c-0.242,0.428-0.919,0.78-1.398,0.974c0.062,0.233,0.161,0.512,0.229,0.602
			c0.114,0.148,0.145,0.36,0.064,0.529c-0.078,0.165-1.126,0.792-1.961,1.147c0.08,0.09,0.161,0.179,0.222,0.245
			c0.23,0.25,0.375,0.411,0.455,0.562c0.066,0.125,0.077,0.271,0.03,0.403c-0.232,0.649-2.055,1.773-2.957,1.822
			c-0.582,0.023-0.805-0.305-0.876-0.452c-0.243-0.501-0.601-0.961-1.312-1.877l-0.502-0.649c-0.064-0.046-0.139-0.103-0.224-0.168
			c-0.698-0.534-2.151-1.647-4.252-1.047c-0.057,0.016-0.119,0.022-0.175,0.019c-1.565-0.119-3.59-0.977-5.936-1.971
			c-3.684-1.56-8.268-3.502-13.463-3.707c-13.022-0.533-16.897,4.545-19.458,7.893c-0.327,0.428-0.635,0.83-0.938,1.194
			c-2.765,3.318-3.982,7.429-3.618,12.217c0.19,2.496,0.525,3.366,0.652,3.615c0.071,0.097,0.11,0.163,0.116,0.173
			c0.122,0.212,0.073,0.48-0.115,0.636c-0.188,0.155-0.461,0.152-0.646-0.009c-0.05-0.043-0.118-0.12-0.194-0.254
			c-0.151-0.194-0.488-0.556-0.976-0.661c-0.465-0.1-0.984,0.05-1.547,0.447c-1.363,1.173-1.204,3.493,0.477,6.337
			c0.546,0.723,1.261,2.441,2.09,4.141c2.043,4.191,5.132,9.779,8.39,10.779c0.01,0,0.021,0,0.032,0
			c5.588,0,6.656-1.246,6.816-1.451c-0.023-0.336-0.159-1.622-0.942-2.902c-1.474-2.407-4.181-3.457-8.271-3.085
			c-0.278,0.023-0.518-0.209-0.543-0.484c-0.025-0.274,0.178-0.533,0.453-0.559c4.441-0.403,7.546,0.764,9.215,3.489
			c1.082,1.767,1.094,3.576,1.094,3.641c-0.062,0.541-0.802,2.352-7.822,2.352c-0.011,0-0.021,0-0.033,0
			c-3.882-1-7.006-6.662-9.288-11.342c-0.806-1.654-1.502-3.207-2.021-3.899c-2.801-4.735-1.113-7.009-0.259-7.742
			c0.843-0.595,1.63-0.832,2.384-0.664c0.09,0.021,0.176,0.029,0.258,0.058c-0.121-0.616-0.232-1.443-0.315-2.53
			c-0.385-5.057,0.909-9.412,3.846-12.938c0.295-0.354,0.594-0.747,0.913-1.163c2.686-3.513,6.74-8.813,20.292-8.286
			c5.377,0.213,10.055,2.194,13.813,3.786c2.219,0.939,4.141,1.754,5.536,1.886c2.533-0.683,4.291,0.662,5.045,1.24
			c0.096,0.073,0.175,0.135,0.237,0.176c0.047,0.03,0.088,0.068,0.123,0.113l0.548,0.707c0.687,0.884,1.083,1.396,1.368,1.948
			c0.4-0.02,1.436-0.602,1.877-0.993c-0.039-0.043-0.078-0.085-0.111-0.122c-0.379-0.411-0.636-0.706-0.723-1.002
			c-0.036-0.114-0.031-0.241,0.022-0.357c0.073-0.159,0.222-0.267,0.391-0.288c0.263-0.104,1.171-0.547,1.679-0.818
			c-0.154-0.395-0.257-0.866-0.247-1.093c0.011-0.226,0.171-0.416,0.392-0.465c0.236-0.052,0.702-0.273,0.981-0.46
			c-3.586-5.612-5.55-24.817-4.438-32.2c0.601-3.984,1.53-5.912,2.925-6.067c1.799-0.221,3.395,2.857,4.41,5.46
			c1.859,4.764,1.322,22.788,1.104,28.421c0.538-0.644,1.16-1.237,1.545-1.133c0.237,0.063,0.408,0.325,0.383,0.569
			c-0.01,0.104-0.048,0.203-0.13,0.403c0.065-0.009,0.135-0.018,0.211-0.026c0.231-0.029,0.536-0.066,0.984-0.141
			c2.345-0.387,4.392-0.619,7.561,0.189c5.459,1.654,11.117,5.511,11.497,10.409c-0.021,1.854-4.178,4.823-7.895,6.356
			c-2.945,1.216-5.266,1.57-6.802,1.806c-0.61,0.094-1.091,0.167-1.437,0.266c-0.762,0.218-3.444,1.297-5.982,6.072
			c-0.092,0.174-0.276,0.287-0.475,0.265c-0.092-0.007-0.179-0.038-0.252-0.089c-0.268,1.129-0.72,2.312-1.456,2.503
			c-0.225,0.063-0.459-0.045-0.568-0.249c-0.087-0.165-0.165-0.308-0.232-0.431l-0.506,1.763c-0.062,0.218-0.233,0.354-0.492,0.362
			l-0.851-0.019l-0.513,1.692c-0.049,0.161-0.176,0.287-0.338,0.334c-0.163,0.048-0.337,0.011-0.465-0.1l-0.58-0.495
			c-0.257,0.53-0.641,1.239-0.995,1.567c-0.343,0.32-0.67,0.302-0.837,0.261c-0.486-0.118-0.698-0.643-0.735-0.747
			c-0.012-0.035-0.021-0.071-0.025-0.108c-0.004-0.024-0.113-0.73-0.856-1.148c-0.723-0.406-2.2-0.627-5.139,0.628
			c-4.269,1.946-6.262,7.273-6.457,7.819c-0.25,2.098-0.377,4.587-0.178,5.282c1.182,0.67,1.544,1.511,1.637,2.11
			c0.133,0.867-0.21,1.808-0.92,2.518C50.074,286.301,47.362,286.726,45.108,286.726z"/>
	</g>
	<g>
		<path fill="#010202" d="M22.12,272.899c-1.525,0-4.016-0.225-5.749-1.495c-0.223-0.163-0.271-0.477-0.107-0.699
			c0.164-0.223,0.476-0.271,0.699-0.107c2.314,1.697,6.439,1.244,6.48,1.239c5.69,0.324,7.65-3.179,7.731-3.327
			c3.145-3.782,4.253-7.13,3.35-10.031c-1.624-5.214-9.254-7.394-9.331-7.415c-0.266-0.074-0.422-0.35-0.348-0.615
			c0.074-0.267,0.35-0.422,0.615-0.348c0.335,0.093,8.229,2.343,10.018,8.077c1.009,3.237-0.151,6.89-3.451,10.856
			c-0.282,0.488-2.595,4.131-8.554,3.799C23.438,272.84,22.908,272.899,22.12,272.899z"/>
	</g>
	<g>
		<path fill="#010202" d="M72.381,238.381c-0.036,0-0.072-0.004-0.108-0.012c-0.27-0.06-0.44-0.326-0.381-0.596
			c2.677-12.18,2.339-30.548-0.613-33.312c-0.326-0.307-0.58-0.284-0.765-0.231c-1.236,0.358-1.433,0.95-1.521,1.477
			c-0.045,0.272-0.302,0.456-0.575,0.411c-0.272-0.045-0.457-0.303-0.411-0.575c0.122-0.734,0.486-1.768,2.229-2.273
			c0.428-0.125,1.078-0.146,1.727,0.462c3.471,3.25,3.453,22.671,0.906,34.257C72.817,238.222,72.61,238.381,72.381,238.381z"/>
	</g>
	<g>
		<path fill="#010202" d="M78.45,243.881L78.45,243.881c-0.195,0-0.391-0.058-0.568-0.167c-0.402-0.248-0.457-0.579-0.453-0.754
			c0.008-0.394,0.295-0.693,0.562-0.843c0.232-0.131,0.594-0.061,0.678-0.025c0.608,0.202,0.77,0.683,0.713,1.029
			C79.311,243.554,78.911,243.881,78.45,243.881z"/>
	</g>
	<g>
		<path fill="#010202" d="M91.927,248.635c-0.232,0-0.454-0.013-0.645-0.029c-0.275-0.024-0.479-0.267-0.455-0.541
			c0.024-0.275,0.285-0.47,0.541-0.455c0.655,0.058,1.411-0.012,1.559-0.142c0.077-0.266,0.333-0.385,0.603-0.306
			c0.265,0.078,0.398,0.389,0.32,0.654C93.654,248.482,92.729,248.635,91.927,248.635z"/>
	</g>
	<g>
		<path fill="#010202" d="M57.932,283.031c-1.769,0-3.19-0.109-3.313-0.119c-0.15-0.012-0.287-0.09-0.372-0.214
			c-0.108-0.157-2.653-3.86-3-5.778c-0.333-1.848-0.417-4.059-0.421-4.151c-0.01-0.276,0.205-0.508,0.481-0.519
			c0.267-0.003,0.508,0.206,0.518,0.481c0.001,0.022,0.085,2.234,0.406,4.011c0.241,1.334,1.921,4.029,2.703,5.189
			c1.094,0.073,5.69,0.315,8.167-0.411c-0.979-2.366-3.25-1.968-3.351-1.948c-0.081,0.016-0.164,0.01-0.242-0.014
			c-0.064-0.021-1.59-0.524-2.41-3.074c-0.784-2.44,2.035-9.171,2.358-9.931c0.109-0.253,0.404-0.372,0.656-0.264
			c0.254,0.108,0.372,0.402,0.264,0.656c-0.84,1.969-2.895,7.465-2.326,9.231c0.545,1.695,1.387,2.245,1.669,2.387
			c1.269-0.174,3.643,0.267,4.5,3.123c0.075,0.249-0.054,0.514-0.296,0.608C62.42,282.89,59.95,283.031,57.932,283.031z"/>
	</g>
	<g>
		<path fill="#010202" d="M44.432,271.599c-0.116,0-0.232-0.04-0.327-0.122c-3.117-2.695-8.661-6.421-10.266-4.941
			c-0.203,0.186-0.519,0.173-0.707-0.029c-0.187-0.203-0.174-0.52,0.029-0.707c2.784-2.558,10.704,4.147,11.598,4.922
			c0.209,0.181,0.231,0.496,0.051,0.705C44.711,271.54,44.572,271.599,44.432,271.599z"/>
	</g>
	<g>
		<path fill="#010202" d="M9.5,257.501c-0.14,0-0.274-0.059-0.37-0.163c-0.112-0.123-0.155-0.293-0.117-0.454l0.072-0.299
			l-1.506,0.242c-0.18,0.032-0.361-0.041-0.473-0.185c-0.112-0.144-0.138-0.336-0.067-0.504l0.493-1.162
			c-0.924,0.132-2.011-0.031-2.49-1.106c-0.384-0.864,0.238-2.051,0.549-2.558l-0.355-1.314c-0.046-0.174,0.003-0.358,0.13-0.485
			c1.03-1.026,1.996-1.465,2.875-1.285c0.309,0.061,0.567,0.19,0.781,0.346c-0.036-0.183-0.114-0.365-0.259-0.522
			c-0.098-0.106-0.145-0.25-0.129-0.394c0.016-0.145,0.093-0.274,0.212-0.356c0.909-0.628,1.851-0.854,2.795-0.666
			c1.789,0.353,2.917,2.065,2.964,2.138c0.15,0.231,0.084,0.54-0.147,0.691c-0.231,0.15-0.54,0.085-0.691-0.146
			c-0.009-0.014-0.954-1.436-2.325-1.703c-0.532-0.104-1.07-0.018-1.605,0.256c0.471,0.977,0.015,2.053-0.008,2.105
			c-0.08,0.184-0.291,0.271-0.462,0.301c-0.2-0.001-0.38-0.122-0.458-0.307c-0.002-0.004-0.29-0.652-0.868-0.763
			c-0.473-0.088-1.082,0.19-1.763,0.816l0.336,1.242c0.038,0.141,0.012,0.291-0.069,0.412c-0.336,0.497-0.757,1.408-0.589,1.786
			c0.462,1.039,2.225,0.312,2.243,0.303c0.188-0.08,0.404-0.037,0.548,0.107c0.144,0.145,0.186,0.361,0.106,0.549l-0.541,1.273
			l1.354-0.218c0.164-0.032,0.333,0.031,0.446,0.153c0.114,0.123,0.159,0.294,0.12,0.457l-0.075,0.312l1.161-0.167
			c0.278-0.037,0.526,0.15,0.566,0.424c0.039,0.273-0.151,0.527-0.424,0.566l-1.891,0.271C9.547,257.499,9.523,257.501,9.5,257.501z
			"/>
	</g>
	<g>
		<path fill="#010202" d="M37.752,280.214c-4.226-0.047-11.052-0.543-11.121-0.548c-0.275-0.021-0.482-0.26-0.462-0.535
			c0.02-0.276,0.253-0.488,0.535-0.463c0.068,0.005,6.864,0.5,10.962,0.548c3.171-0.059,4.511-0.46,5.079-0.78
			c-1.327-4.245-4.51-3.467-4.648-3.43c-0.059,0.015-0.125,0.02-0.183,0.014c-5.887-0.644-6.021-1.134-6.11-1.459
			c-0.063-0.232,0.024-0.473,0.229-0.627c0.285-0.214,0.733-0.215,1.626-0.216c3.056-0.007,6.371-0.318,7.015-3.971
			c0.047-0.271,0.305-0.459,0.579-0.405c0.272,0.048,0.454,0.308,0.405,0.579c-0.673,3.817-3.887,4.594-6.338,4.754
			c0.831,0.126,1.754,0.246,2.622,0.342c0.684-0.133,4.468-0.626,5.865,4.489c0.05,0.185-0.009,0.381-0.152,0.507
			C42.803,279.764,40.872,280.156,37.752,280.214z"/>
	</g>
	<g>
		<path fill="#010202" d="M54.031,246.114c-0.101,0-0.202-0.03-0.291-0.094c-0.225-0.16-0.276-0.473-0.116-0.697
			c0.125-0.175,1.256-1.717,2.5-2.127c0.264-0.089,0.544,0.056,0.631,0.318c0.087,0.262-0.056,0.545-0.318,0.631
			c-0.796,0.263-1.713,1.359-2,1.76C54.341,246.042,54.187,246.114,54.031,246.114z"/>
	</g>
	<g>
		<path fill="#010202" d="M69.402,240.485c-0.064,0-0.131-0.008-0.199-0.024c-0.222-0.055-0.521-0.225-0.678-0.725
			c-0.387-1.23-3.099-15.646-2.13-23.451c0.034-0.273,0.288-0.473,0.558-0.435c0.274,0.034,0.469,0.283,0.435,0.558
			c-0.95,7.655,1.707,21.791,2.09,23.024c0.019-0.014,0.035-0.027,0.044-0.036c0.195-0.195,0.512-0.195,0.707,0s0.195,0.512,0,0.707
			C70.158,240.175,69.823,240.485,69.402,240.485z"/>
	</g>
	<g>
		<path fill="#010202" d="M45.333,282.001c-0.247,0-0.461-0.183-0.495-0.434c-0.037-0.273,0.156-0.525,0.429-0.562l2.5-0.334
			c0.275-0.047,0.525,0.155,0.562,0.429s-0.156,0.525-0.429,0.562l-2.5,0.334C45.377,282,45.354,282.001,45.333,282.001z"/>
	</g>
	<g>
		<path fill="#010202" d="M13.834,266.417c-0.211,0-0.408-0.135-0.476-0.348l-0.668-2.083c-0.084-0.263,0.061-0.544,0.323-0.629
			c0.264-0.08,0.544,0.061,0.629,0.324l0.668,2.083c0.084,0.263-0.061,0.544-0.323,0.629
			C13.937,266.409,13.885,266.417,13.834,266.417z"/>
	</g>
	<g>
		<path fill="#010202" d="M22.167,277.501c-0.17,0-0.335-0.087-0.429-0.243c-0.083-0.139-2.042-3.412-2.39-4.803
			c-0.067-0.268,0.096-0.539,0.364-0.606c0.267-0.063,0.539,0.096,0.606,0.364c0.259,1.035,1.732,3.621,2.277,4.531
			c0.142,0.236,0.065,0.544-0.171,0.686C22.343,277.479,22.254,277.501,22.167,277.501z"/>
	</g>
	<g>
		<path fill="#010202" d="M23,277.501c-0.202,0-0.393-0.124-0.468-0.324c-0.543-1.449,0.382-4.629,0.489-4.986
			c0.079-0.265,0.356-0.416,0.623-0.335c0.265,0.079,0.415,0.357,0.335,0.622c-0.368,1.228-0.832,3.493-0.511,4.348
			c0.097,0.259-0.034,0.547-0.292,0.644C23.118,277.491,23.059,277.501,23,277.501z"/>
	</g>
</g>
</svg>
