<?xml version="1.0" encoding="utf-8"?>
<!-- Generator: Adobe Illustrator 16.0.0, SVG Export Plug-In . SVG Version: 6.00 Build 0)  -->
<!DOCTYPE svg PUBLIC "-//W3C//DTD SVG 1.1//EN" "http://www.w3.org/Graphics/SVG/1.1/DTD/svg11.dtd">
<svg version="1.1" xmlns="http://www.w3.org/2000/svg" xmlns:xlink="http://www.w3.org/1999/xlink" x="0px" y="0px" width="400px"
	 height="300px" viewBox="0 0 400 300" enable-background="new 0 0 400 300" xml:space="preserve">
<g id="schwarz_hinten">
	<g>
		<g>
			<defs>
				<rect id="SVGID_1_" x="90.227" y="139.017" width="162.725" height="149.991"/>
			</defs>
			<clipPath id="SVGID_2_">
				<use xlink:href="#SVGID_1_"  overflow="visible"/>
			</clipPath>
			<g clip-path="url(#SVGID_2_)">
				<defs>
					<rect id="SVGID_3_" x="90.227" y="139.017" width="162.725" height="149.991"/>
				</defs>
				<clipPath id="SVGID_4_">
					<use xlink:href="#SVGID_3_"  overflow="visible"/>
				</clipPath>
				<path clip-path="url(#SVGID_4_)" fill="#FFFFFF" d="M115.07,193.878c0,0-1.119,14.749-6.072,16.87
					c7.405-0.271,16.868-0.929,16.868-0.929l-16.868,13.617c0,0,14.698,8.266-9.996,12.687c18.463-0.354,21.146,0.157,21.146,0.157
					l-2.771,2.535c0,0,7.694,10.38,7.769,15.762c-2.728,1.533-7.957,7.514-24.622,7.176c6.657,0.34,12.873,2.317,12.873,2.317
					l-12.873,7.423l-3.311,10.618l3.311,1.686c0,0,135.801-3.103,139.692-2.041c-10.259-2.123-14.062-8.312-14.062-8.312
					l3.945-0.747c0,0,0.795-13.409,5.881-15.314c5.087-1.905,12.957-4.457,12.957-4.457l-16.681-1.062l-21.402-1.946l26.165-2.646
					c0,0-5.559-3.278-1.923-6.921c-22.12-0.516-4.785-8.026,1.052-10.419c1.303-0.585,3.339-1.385,6.639-2.267
					c-2.571-0.387-10.618-6.177-10.618-6.177l-10.528-0.444l-3.003-9.148c0,0,4.859-9.534,14.411-9.004
					c9.551,0.531,13.004-1.438,13.004-1.438s-5.392-2.631-11.317-3.367c-5.925-0.738-15.641-20.16-15.641-20.16l9.852,0.913
					l-13.44-15.19c0,0,6.133-0.262,6.135-2.366c0.181-0.864-3.003-2.102-3.003-2.102s-82.602,3.676-89.942,2.102
					c0,0-16.405,7.881-25.956,7.704c9.198,1.592,28.146,0.79,28.146,0.79s-18.853,4.902-19.592,6.006
					c15.889-1.549,20.766-1.802,20.766-1.802s-36.218,14.556-36.904,16.683"/>
				
					<path clip-path="url(#SVGID_4_)" fill="none" stroke="#000000" stroke-width="2.174" stroke-linecap="round" stroke-linejoin="round" stroke-miterlimit="10" d="
					M100.926,283.796c0,0,128.021-1.539,138.785-1.539c10.766,0-48.824-9.228-48.824-9.228"/>
				
					<path clip-path="url(#SVGID_4_)" fill="none" stroke="#000000" stroke-width="2.174" stroke-linecap="round" stroke-linejoin="round" stroke-miterlimit="10" d="
					M230.101,273.03c-1.923,0-56.13-1.923-104.955,3.46"/>
				
					<line clip-path="url(#SVGID_4_)" fill="none" stroke="#000000" stroke-width="2.174" stroke-linecap="round" stroke-linejoin="round" stroke-miterlimit="10" x1="100.926" y1="271.493" x2="151.289" y2="270.34"/>
				
					<path clip-path="url(#SVGID_4_)" fill="none" stroke="#000000" stroke-width="2.174" stroke-linecap="round" stroke-linejoin="round" stroke-miterlimit="10" d="
					M130.913,266.496c0,0-23.836-5.769-31.91-4.615c49.209-2.69,101.494-4.611,121.486-3.075
					c-8.458-4.613-95.343-4.997-95.343-4.997s110.721-6.921,111.875-6.536"/>
				
					<polyline clip-path="url(#SVGID_4_)" fill="none" stroke="#000000" stroke-width="2.174" stroke-linecap="round" stroke-linejoin="round" stroke-miterlimit="10" points="
					200.497,249.195 248.938,253.809 226.641,259.96 				"/>
				
					<line clip-path="url(#SVGID_4_)" fill="none" stroke="#000000" stroke-width="2.174" stroke-linecap="round" stroke-linejoin="round" stroke-miterlimit="10" x1="235.098" y1="240.352" x2="117.841" y2="238.815"/>
				
					<path clip-path="url(#SVGID_4_)" fill="none" stroke="#000000" stroke-width="2.174" stroke-linecap="round" stroke-linejoin="round" stroke-miterlimit="10" d="
					M98.234,236.122c0,0,103.032-5.38,114.566-2.69"/>
				
					<path clip-path="url(#SVGID_4_)" fill="none" stroke="#000000" stroke-width="2.174" stroke-linecap="round" stroke-linejoin="round" stroke-miterlimit="10" d="
					M242.787,227.666c0,0-52.668-3.076-71.507-5.384"/>
				
					<path clip-path="url(#SVGID_4_)" fill="none" stroke="#000000" stroke-width="2.174" stroke-linecap="round" stroke-linejoin="round" stroke-miterlimit="10" d="
					M221.643,221.129c0,0-78.428-0.77-101.495,2.308"/>
				
					<path clip-path="url(#SVGID_4_)" fill="none" stroke="#000000" stroke-width="2.174" stroke-linecap="round" stroke-linejoin="round" stroke-miterlimit="10" d="
					M217.798,211.902c14.993,0-101.879-3.845-108.799-1.153c0,0,87.654-9.611,110.722-9.611"/>
				
					<path clip-path="url(#SVGID_4_)" fill="none" stroke="#000000" stroke-width="2.174" stroke-linecap="round" stroke-linejoin="round" stroke-miterlimit="10" d="
					M217.798,204.215c1.153,0,28.45-2.691,28.45-2.691s-41.521-16.532-94.96-14.995"/>
				
					<path clip-path="url(#SVGID_4_)" fill="none" stroke="#000000" stroke-width="2.174" stroke-linecap="round" stroke-linejoin="round" stroke-miterlimit="10" d="
					M208.57,192.296l-80.733,5.382c0,0-22.306-7.208-32.679-8.073c40.367-6.535,78.428-6.535,104.955-5.381"/>
				
					<path clip-path="url(#SVGID_4_)" fill="none" stroke="#000000" stroke-width="2.174" stroke-linecap="round" stroke-linejoin="round" stroke-miterlimit="10" d="
					M228.947,178.841c0,0-83.81-8.46-117.642-3.075"/>
				
					<path clip-path="url(#SVGID_4_)" fill="none" stroke="#000000" stroke-width="2.174" stroke-linecap="round" stroke-linejoin="round" stroke-miterlimit="10" d="
					M221.643,162.056c0,0-40.325,10.392-121.118,7.007c19.623-3.165,24.622-4.752,28.482-7.007"/>
				<path clip-path="url(#SVGID_4_)" fill="#FDFDFE" d="M114.282,153.168c46.73,9.197,91.268-5.661,91.268-5.661
					s25.539,9.482,35.374,3.538c-16.979,7.782-47.903,9.428-66.504,11.319C159.298,164.331,114.282,153.168,114.282,153.168"/>
				
					<path clip-path="url(#SVGID_4_)" fill="none" stroke="#000000" stroke-width="2.174" stroke-linecap="round" stroke-linejoin="round" stroke-miterlimit="10" d="
					M114.282,153.168c46.73,9.197,91.268-5.661,91.268-5.661s25.539,9.482,35.374,3.538c-16.979,7.782-47.903,9.428-66.504,11.319
					C159.298,164.331,114.282,153.168,114.282,153.168"/>
			</g>
		</g>
	</g>
	
		<path fill="#FFFFFF" stroke="#000000" stroke-width="2" stroke-linecap="round" stroke-linejoin="round" stroke-miterlimit="10" d="
		M196.375,137c0,0-7.75,10.5-21,11.688c-6.5,4.688-16.812,9.75-19.375,10.188c12.562-0.125,44.208-2.792,55.125-10.938
		c2.958-2.312,4.688-6.375,5.375-9.875"/>
</g>
<g id="grau">
	<polygon fill="#FFFFFF" points="170.5,27.625 141,27.625 114.25,45.75 138.875,63 208.151,65.87 186.75,287 197,287 
		212.582,66.333 257.875,68.5 260.5,46.292 309.5,50.875 329.625,34.25 303.375,10.75 174.25,4.375 174.064,7.564 170.5,7.375 	"/>
	<path fill="none" stroke="#BFC2C9" stroke-width="2" stroke-linecap="round" stroke-linejoin="round" stroke-miterlimit="10" d="
		M208.971,65.906c0,0-19.096,217.469-18.971,219.344c2.25,0.75,6.75,2.125,6.75,2.125l15.832-221.042L198.375,288l-11.625-0.75
		C186.75,287.25,209.662,68.781,208.971,65.906"/>
	<path fill="none" stroke="#BFC2C9" stroke-width="2" stroke-linecap="round" stroke-linejoin="round" stroke-miterlimit="10" d="
		M172.5,32.75c0.125-0.375,1.75-28.375,1.75-28.375l129.125,6.375l26.25,23.5L309.5,50.875l-139-13v-30.5l132,7L325.875,34
		L307.75,48c0,0-128.375-13.375-140.375-10.125"/>
	<path fill="none" stroke="#BFC2C9" stroke-width="2" stroke-linecap="round" stroke-linejoin="round" stroke-miterlimit="10" d="
		M169,27.625h-28L114.25,45.75L138.875,63c0,0,111.75,4.375,119,5.5c1.125-6.625,1.9-22.275,1.9-22.275l0.975,17.65
		c0,0-114.927-3.585-119.5-3S113.375,43.5,113.375,43.5l28-14l28.125,2.125"/>
</g>
<g id="schwarz_1_">
	
		<path fill="#FFFFFF" stroke="#000000" stroke-width="2" stroke-linecap="round" stroke-linejoin="round" stroke-miterlimit="10" d="
		M211.167,144.667c0,0-2.042-5.417-11.229-0.167c-4.688-12-10.188-27.25-13.188-29.25c9.75-7,20.5-15.5,26.375-13.25
		c3.125,9.25,5.375,32.002,3.375,37.001s-2.583,6.541-5,8.654"/>
</g>
<g id="Sparcles">
	<g>
		<g>
			<path fill="#F5952F" d="M168.833,148.833c3.869,0,3.869-6,0-6S164.964,148.833,168.833,148.833L168.833,148.833z"/>
		</g>
	</g>
	<g>
		<g>
			<path fill="#F5952F" d="M184.667,136.667c3.869,0,3.869-6,0-6S180.798,136.667,184.667,136.667L184.667,136.667z"/>
		</g>
	</g>
	<g>
		<g>
			<path fill="#F5952F" d="M181.833,101.333c3.869,0,3.869-6,0-6S177.964,101.333,181.833,101.333L181.833,101.333z"/>
		</g>
	</g>
	<g>
		<g>
			<path fill="#F5952F" d="M214.5,93.833c3.869,0,3.869-6,0-6S210.631,93.833,214.5,93.833L214.5,93.833z"/>
		</g>
	</g>
	<g>
		<g>
			<path fill="#F5952F" d="M203.167,84.667c3.869,0,3.869-6,0-6S199.298,84.667,203.167,84.667L203.167,84.667z"/>
		</g>
	</g>
	<g>
		<g>
			<path fill="#F5952F" d="M220.334,74c3.869,0,3.869-6,0-6S216.465,74,220.334,74L220.334,74z"/>
		</g>
	</g>
	<g>
		<g>
			<path fill="#F5952F" d="M197,69.333c3.869,0,3.869-6,0-6S193.131,69.333,197,69.333L197,69.333z"/>
		</g>
	</g>
	<g>
		<g>
			<path fill="#F5952F" d="M185.833,60.5c3.869,0,3.869-6,0-6S181.964,60.5,185.833,60.5L185.833,60.5z"/>
		</g>
	</g>
	<g>
		<g>
			<path fill="#F5952F" d="M142.333,71.833c3.869,0,3.869-6,0-6S138.464,71.833,142.333,71.833L142.333,71.833z"/>
		</g>
	</g>
	<g>
		<g>
			<path fill="#F5952F" d="M110.667,57.833c3.869,0,3.869-6,0-6S106.798,57.833,110.667,57.833L110.667,57.833z"/>
		</g>
	</g>
	<g>
		<g>
			<path fill="#F5952F" d="M257,49.5c3.869,0,3.869-6,0-6S253.131,49.5,257,49.5L257,49.5z"/>
		</g>
	</g>
	<g>
		<g>
			<path fill="#F5952F" d="M260.5,15.5c3.869,0,3.869-6,0-6S256.631,15.5,260.5,15.5L260.5,15.5z"/>
		</g>
	</g>
	<g>
		<g>
			<path fill="#F5952F" d="M288.667,10.167c3.869,0,3.869-6,0-6S284.798,10.167,288.667,10.167L288.667,10.167z"/>
		</g>
	</g>
</g>
</svg>
