<?xml version="1.0" encoding="utf-8"?>
<!-- Generator: Adobe Illustrator 16.0.0, SVG Export Plug-In . SVG Version: 6.00 Build 0)  -->
<!DOCTYPE svg PUBLIC "-//W3C//DTD SVG 1.1//EN" "http://www.w3.org/Graphics/SVG/1.1/DTD/svg11.dtd">
<svg version="1.1" xmlns="http://www.w3.org/2000/svg" xmlns:xlink="http://www.w3.org/1999/xlink" x="0px" y="0px" width="400px"
	 height="300px" viewBox="0 0 400 300" enable-background="new 0 0 400 300" xml:space="preserve">
<g id="türkis">
	<path fill="none" stroke="#009BA4" stroke-width="2" stroke-linecap="round" stroke-linejoin="round" stroke-miterlimit="10" d="
		M284.75,168c0,0-0.5,30.25-30.25,57c-1.25,7.25-5.5,26.75-5.5,26.75s14.75,12,17.875,12.5s52.263-32.098,56.875-85.5
		c-8,21.5-15.006,60.695-56.75,82.75c-8.5-5-15.25-10.5-15.25-10.5l3.929-27.078C266.5,215.25,289.173,194,284.75,168"/>
	<path fill="none" stroke="#009BA4" stroke-width="2" stroke-linecap="round" stroke-linejoin="round" stroke-miterlimit="10" d="
		M254.25,92c0,0,31,31.75,32.125,55.75c11.125,5.25,24.125,15,24.125,15l13.25-11.25c0,0-1.75-62.5-41.25-90.75
		C307.75,94,324.227,125.341,326.75,150c-8.314,6.013-16.5,7.5-16.5,7.5l-22.16-13.833c0,0-7.424-26.667-25.757-48.667"/>
	<path fill="none" stroke="#009BA4" stroke-width="2" stroke-linecap="round" stroke-linejoin="round" stroke-miterlimit="10" d="
		M158,42.5c0,0,37.666-17,104.333,10c1.167,8.25,1.417,17.25,1.417,17.25l-25.25,12c0,0-10.75-11.75-59-4.25
		c25-7.5,48.5-2.5,58.75,0.5c11.5-4,25.5-6,25.5-6l-4-18c0,0-55.574-33.069-99.75-10"/>
	<path fill="none" stroke="#009BA4" stroke-width="2" stroke-linecap="round" stroke-linejoin="round" stroke-miterlimit="10" d="
		M83.75,142.5c0,0,20.741-77.661,50.5-85.75C147.75,58,161,59.494,161,59.494l2,28.006c0,0-38.416,19.25-39.083,61.25
		C127.5,136,140.75,97.5,160.5,85.25c-0.25-9.25-2.5-23.5-2.5-23.5l-25.75-1c0,0-24.5,7-44,75.75"/>
	<path fill="none" stroke="#009BA4" stroke-width="2" stroke-linecap="round" stroke-linejoin="round" stroke-miterlimit="10" d="
		M130.75,254.25c0,0-46.25-39.75-49.25-86.25c8.25-9.25,19.141-17.55,19.141-17.55L123.917,167c0,0,11.583,55.227,34.083,57.977
		c-21.5-16.75-36.916-43.227-35.833-54.977L97.25,150.45l-13.5,19.05C83.75,169.5,83.542,227.472,130.75,254.25z"/>
	<path fill="none" stroke="#009BA4" stroke-width="2" stroke-linecap="round" stroke-linejoin="round" stroke-miterlimit="10" d="
		M144.381,247.272c0,0,33.509-18.235,33.939-16.754s-35.604,18.835-33.712,21.533s38.979-20.884,38.979-20.884L146.25,258.75
		c0,0,44.75-29.75,43-24.75s-43.912,28.035-43.705,30.256S198.25,229.5,197.25,233.25s-54.207,34.818-52.869,37.417
		s66.142-44.19,62.13-37.929S149.25,273,151.5,274.75s66.5-44,62-40.5s-54.822,42.005-53,44.5s66.75-50.25,63-44.25
		s-56.002,39.447-53.5,42.344s65-51.094,63.25-45.344s-65.983,49.412-59.75,50.75s66.283-57.027,66-51.817S176,283.44,180,284
		s58.939-46.962,58.413-44.317S185.179,286.89,189.75,285.5s47.648-40.723,46.969-37.308s-39.192,34.365-36.719,35.23
		s35.617-30.856,35.184-27.515s-29.434,27.723-26.934,27.532s29.145-28.698,28.947-24.569s-25.474,23.747-22.947,24.57
		s26.25-21.93,26.75-19.186s-24.576,18.883-21.25,19.207S247.838,262,247.169,265.25s-20.392,19.551-17.03,17.65
		S247.25,267.25,249,269s-8.332,9.75-5.166,8.25s11.166-8.916,10.416-6.583s-2.75,3.833-2.75,3.833"/>
	<path fill="none" stroke="#009BA4" stroke-width="2" stroke-linecap="round" stroke-linejoin="round" stroke-miterlimit="10" d="
		M241.667,223.333l-6.834,34.334l27.5,14c0,0-67.167,37.5-118.167,0.5c-2.333-21.333-1.667-26.834-1.667-26.834l31.833-15.5
		c0,0,32.167,7.001,69.5-4.666c-2.334,13.5-4.167,36.166-4.167,36.166l22.666,11.834c0,0-48.5,27-116.167-2.5
		c-2.167-21.167-1.833-28-1.833-28l32.833-14.5c0,0,46.565,13.249,66.667-4.834"/>
</g>
<g id="grau">
	<path fill="none" stroke="#BFC2C9" stroke-width="2" stroke-linecap="round" stroke-linejoin="round" stroke-miterlimit="10" d="
		M244.667,91.333c0,0,32.334,17,36.667,61.333c9.666,4.333,28.999,19,28.999,19l22-15.667c0,0,2.333-67.333-56-104.667
		l-0.666,27.333l-33.167,13.5c0,0,30.668,20.5,40.834,58.833c7.166,4.167,26.833,17.333,26.833,17.333l20.5-14.166
		c0,0-7.999-83.5-53.833-104.833c1.333,8.167,2,30.167,2,30.167l-30.167,11.833"/>
	<path fill="none" stroke="#BFC2C9" stroke-width="2" stroke-linecap="round" stroke-linejoin="round" stroke-miterlimit="10" d="
		M280,159.333c0,0,3.5,34.334-31.833,61.167c-0.833,7.5-4.333,32.833-4.333,32.833l23.333,16c0,0,60.167-28.333,65.179-106.166
		l-22.512,15.666l-30.5-23.5c0,0-5.334,47.834-28.334,66.834c-1.166,8.5-7.166,35.166-7.166,35.166l26.666,13.334
		c0,0,52.834-25.834,59.5-102.834l-24.666,9.834l-27.5-20.167"/>
	<path fill="none" stroke="#BFC2C9" stroke-width="2" stroke-linecap="round" stroke-linejoin="round" stroke-miterlimit="10" d="
		M169,225.834l-32,13L135.667,270c0,0-42-12.5-60-105.833l21.667-20.5L128,165.334c0,0,2.5,50.5,44.167,61
		c-10.833,5.5-33.333,14.5-33.333,14.5L139,270c0,0-69-46.5-60.833-104.333l20.685-20.928l31.482,20.428c0,0-5,35,40.196,60.727"/>
	<path fill="none" stroke="#BFC2C9" stroke-width="2" stroke-linecap="round" stroke-linejoin="round" stroke-miterlimit="10" d="
		M75.667,153.834c0,0,19.667-85.833,59-104.5C158.833,52.667,164.833,54,164.833,54l2.667,36.833c0,0-33,12.667-39,65.667
		l-32.333-19l-19.333,17.833c0,0-7.167-55.999,57-103.5l32.5,4.333l2.333,36c0,0-42.833,19-39.833,66.5l-32.5-19.5L78.833,150"/>
	<path fill="none" stroke="#BFC2C9" stroke-width="2" stroke-linecap="round" stroke-linejoin="round" stroke-miterlimit="10" d="
		M142.333,45.5c0,0,63-39.833,127.833,3l1.166,28L238.5,89.334c0,0-31.167-19.667-66.333-1.5l-1.5-38.5l-31.333-3.166
		c0,0,35.167-37.5,129,3.166L269,74.5l-33.167,15.833c0,0-21.833-20.167-61.333-6.167c-2.667-23-5.833-33.167-5.833-33.167
		l-28.083-6.05"/>
</g>
</svg>
