<?xml version="1.0" encoding="utf-8"?>
<!-- Generator: Adobe Illustrator 16.0.0, SVG Export Plug-In . SVG Version: 6.00 Build 0)  -->
<!DOCTYPE svg PUBLIC "-//W3C//DTD SVG 1.1//EN" "http://www.w3.org/Graphics/SVG/1.1/DTD/svg11.dtd">
<svg version="1.1" id="Ebene_1" xmlns="http://www.w3.org/2000/svg" xmlns:xlink="http://www.w3.org/1999/xlink" x="0px" y="0px"
	 width="400px" height="300px" viewBox="0 0 400 300" enable-background="new 0 0 400 300" xml:space="preserve">
<g id="Ebene_5">
	<path fill="none" stroke="#000000" stroke-width="2" stroke-linecap="round" stroke-linejoin="round" stroke-miterlimit="10" d="
		M253.966,157.195c-1.196,10.737-1.346,21.174-13.965,80.594c-22.816,4.278-18.33,22.249-18.33,22.249s32.319-0.985,48.957-0.985
		s29.998-114.368,6.538-127.908C258.514,120.38,255.706,141.577,253.966,157.195z"/>
	<path fill="none" stroke="#000000" stroke-width="2" stroke-linecap="round" stroke-linejoin="round" stroke-miterlimit="10" d="
		M309.828,241.279c0,0-0.86-20.138-8.146-66.598c-7.941-50.636,12.893-40.335,12.893-40.335s21.731,1.028,29.296,52.527
		c6.801,46.296,5.818,61.941-4.656,70.784c-8.219,6.938-46.552,2.381-46.552,2.381s1.639-15.931,16.836-23.7"/>
	<path fill="none" stroke="#000000" stroke-width="2" stroke-linecap="round" stroke-linejoin="round" stroke-miterlimit="10" d="
		M303.827,119.61l5.704-3.803c0,0-5.704-2.376,3.804-5.704c9.507-3.328,9.507-16.637,9.507-16.637l-4.754-2.377l-3.327-23.055
		c0,0-3.803,9.27-8.935,0s-17.686-17.827-17.686-17.827l-10.458,3.803l-8.081-5.705v12.36h-10.457v9.982c0,0-2.853,0.475-7.606,0
		c-5.703,3.803-2.377,17.112-2.377,17.112l-7.129,0.475c0,0,0.949,10.934,16.161,9.983c-2.853,3.328-8.557,8.556-8.557,8.556
		s3.803,3.803,10.934,4.279c-4.278,1.902-5.704,3.802-5.704,3.802l14.261,4.753"/>
	<path fill="none" stroke="#000000" stroke-width="2" stroke-linecap="round" stroke-linejoin="round" stroke-miterlimit="10" d="
		M320.843,136.46c1.999-10.856,1.867-16.85-3.566-28.694"/>
	<path fill="none" stroke="#000000" stroke-width="2" stroke-linecap="round" stroke-linejoin="round" stroke-miterlimit="10" d="
		M259.145,60.666c0,0-42.308-7.131-65.599,23.293c-23.293,30.422-19.014,80.333-19.014,80.333"/>
	<path fill="none" stroke="#000000" stroke-width="2" stroke-linecap="round" stroke-linejoin="round" stroke-miterlimit="10" d="
		M299.453,172.529c3.966-4.402-5.28,6.471-9.828,8.156"/>
	<path fill="none" stroke="#000000" stroke-width="2" stroke-linecap="round" stroke-linejoin="round" stroke-miterlimit="10" d="
		M246.425,206.391c-0.454,2.467-19.605,14.47-39.095,23.501c-0.949,7.604-8.556,25.669-8.556,25.669s-33.75,2.853-54.191,1.9
		c-4.753-7.13,29.948-24.717,29.948-24.717l-1.426-2.14l3.127-3.921l-3.958,0.712c0,0,2.749-6.596,3.958-7.486"/>
	<path fill="none" stroke="#000000" stroke-width="2" stroke-linecap="round" stroke-linejoin="round" stroke-miterlimit="10" d="
		M146.043,251.946c-1.037,0.208-4.074-0.842-4.074-0.842c-25.491-19.834,11.647-81.582,11.647-81.582S51.634,120.813,40.701,103.661
		c-10.932-17.151,6.91-43.946,123.848,57.305c-7.13-24.244-51.008-125.019-36.273-125.969c14.735-0.95,38.175,40.84,47.956,93.682"
		/>
	<path fill="none" stroke="#000000" stroke-width="2" stroke-linecap="round" stroke-linejoin="round" stroke-miterlimit="10" d="
		M148.389,242.731c1.474,4.114,1.848,3.465,0.526,6.083"/>
	
		<line fill="none" stroke="#000000" stroke-width="2" stroke-linecap="round" stroke-linejoin="round" stroke-miterlimit="10" x1="177.443" y1="230.963" x2="174.532" y2="232.745"/>
	<path fill="none" stroke="#F5952F" stroke-width="2" stroke-linecap="round" stroke-linejoin="round" stroke-miterlimit="10" d="
		M278.987,237.809c-8.605,15.167-19.843,0-22.403-18.009c-3.241-22.804,1.435-51.841,8.014-68.516
		c6.574-16.671,16.583-9.839,17.84-6.891c1.257,2.947,4.056,11.157,4.414,42.187C284.518,223.242,285.405,226.5,278.987,237.809z"/>
	<path fill="none" stroke="#F5952F" stroke-width="2" stroke-linecap="round" stroke-linejoin="round" stroke-miterlimit="10" d="
		M312.176,150.198c3.401-17.103,18.505-4.266,24.875,12.769c8.07,21.574,9.346,50.877,6.907,68.638
		c-1.487,10.837-14.491,17.209-18.272-0.64c-4.405-20.803,1.104,4.449-6.723-29.423C311.137,167.67,310.051,160.875,312.176,150.198
		z"/>
	<path fill="none" stroke="#F5952F" stroke-width="2" stroke-linecap="round" stroke-linejoin="round" stroke-miterlimit="10" d="
		M274.093,140.627c0,0-8.237,7.248-9.495,10.658c2.752-2.236,12.725-9.622,14.531-9.923c-3.214,3.884-13.34,9.407-16.367,15.543
		c6.433-3.545,14.846-11.809,18.845-12.22c-5.237,5.674-19.966,15.368-19.966,15.368l20.797-11.877l-21.642,14.944l22.556-12.472
		l-22.964,16.876l22.964-13.448l-24.494,17.41l25.222-14.146l-25.222,17.457l25.222-15.13l-26.061,18.621l26.788-15.712
		l-27.788,19.835l28.37-17.189l-28.848,21.062l28.848-16.288l-28.222,19.785l28.222-16.439l-28.848,19.251
		c0,0,29.429-16.426,28.848-16.166c-0.582,0.261-28.848,19.755-28.848,19.755l28.855-16.73l-28.855,20.949l28.855-17.895
		l-28.855,22.404l29.575-19.057l-30.493,22.903c0,0,28.748-19.666,29.911-19.704c1.164-0.038-29.711,23.425-29.711,23.425
		l29.274-19.885l-29.002,23.132l29.438-20.416l-28.95,24.491l29.532-22.306l-28.098,24.437l28.015-21.818l-28.015,25.746
		l27.854-22.982l-27.456,25.183l26.535-22.444l-24.564,24.463l24.564-21.32l-23.421,23.985l23.778-20.68l-22.548,23.397
		l22.32-20.211L263.97,239.49l19.674-19.616l-17.457,20.534l17.311-17.166l-15.129,19.489l15.017-15.188l-11.451,16.424l7.928-7.732
		"/>
	<path fill="none" stroke="#F5952F" stroke-width="2" stroke-linecap="round" stroke-linejoin="round" stroke-miterlimit="10" d="
		M316.229,143.477l-4.78,12.389l7.402-13.739l-6.261,18.124l8.65-17.625l-8.504,21.738l10.267-20.886l-10.137,26.741l12.052-25.418
		l-11.392,29.285l12.626-28.237l-11.918,32.314l14.006-30.201l-13.086,33.964l14.883-31.79l-12.761,35.136l14.82-32.2
		l-13.686,36.855l15.47-33.856l-14.889,38.055l16.26-35.388l-15.603,39.337l17.402-35.107l-17.402,38.307l18.791-34.312
		l-17.12,38.653l18.247-34.93l-17.543,39.608l18.569-35.731l-17.753,39.368l17.754-34.768l-16.802,40.711l18.514-37.345
		l-17.932,41.876l17.638-36.515l-16.398,41.897l16.692-37.193l-14.924,40.88L343.12,195.6c0,0-15.233,38.116-14.881,38.697
		c0.354,0.581,16.227-35.324,16.227-35.324l-14.428,37.942l14.428-31.3l-12.817,33.336l12.817-28.804l-11.514,30.99l11.514-27.062
		c0,0-8.136,27.064-8.438,27.062c-0.305-0.004,8.438-19.644,8.438-19.644l-5.252,17.749l3.908-7.391"/>
</g>
<g id="Ebene_4">
	<g>
		<g>
			<path d="M169.009,203.338c5.629,0,5.629-8.728,0-8.728C163.38,194.61,163.38,203.338,169.009,203.338L169.009,203.338z"/>
		</g>
	</g>
</g>
<g id="Ebene_7" display="none">
	
		<path display="inline" fill="none" stroke="#009BA4" stroke-width="2" stroke-linecap="round" stroke-linejoin="round" stroke-miterlimit="10" d="
		M242.93,139.652c0,0-6.457,9.513-16.293,7.75c-3.652,0.66-6.168,0.731-6.168,0.731l3.102,5.97c0,0,20.9,3.254,25.418-7.571
		c-2.793,0.316-6.569-0.404-6.569-0.404L242.93,139.652z"/>
	
		<path display="inline" fill="none" stroke="#65656B" stroke-width="2" stroke-linecap="round" stroke-linejoin="round" stroke-miterlimit="10" d="
		M221.421,143.639l-6.34,2.092l1.942,5.699c0,0-12.981-10.097-14.057-18.627c0.324-2.187,1.154-6.632,1.154-6.632l4.004,2.918
		C208.126,129.089,212.885,140.744,221.421,143.639z"/>
	
		<path display="inline" fill="none" stroke="#65656B" stroke-width="2" stroke-linecap="round" stroke-linejoin="round" stroke-miterlimit="10" d="
		M200.057,124.116l2.702-3.745l3.148,2.254c0,0-0.853-14.414,0.243-19.164c0.232-2.755,0.121-5.747,0.121-5.747l-6.085,4.272
		C200.187,101.986,195.5,111.552,200.057,124.116z"/>
	
		<path display="inline" fill="none" stroke="#65656B" stroke-width="2" stroke-linecap="round" stroke-linejoin="round" stroke-miterlimit="10" d="
		M205.238,93.006l4.925,0.003l-0.36,4.26c0,0,12.729-7.36,18.444-4.662c4.794-1.116,4.794-1.116,4.794-1.116l-2.732-5.767
		C230.309,85.724,212.607,81.178,205.238,93.006z"/>
	
		<path display="inline" fill="none" stroke="#65656B" stroke-width="2" stroke-linecap="round" stroke-linejoin="round" stroke-miterlimit="10" d="
		M231.846,95.679l4.645-0.303l0.529-6.729c0,0,10.771,10.047,13.188,17.447c-0.896,2.414-2.273,5.756-2.273,5.756l-6.812-3.068
		C241.121,108.781,237.336,99.271,231.846,95.679z"/>
	
		<path display="inline" fill="none" stroke="#65656B" stroke-width="2" stroke-linecap="round" stroke-linejoin="round" stroke-miterlimit="10" d="
		M252.039,112.198l-2.754,4.748l-6.828-2.696c0,0,6.077,7.452,3.732,21.229c0.799,2.835,0.416,6.977,0.416,6.977l6.549-2.625
		C253.154,139.829,258.453,126.303,252.039,112.198z"/>
</g>
<g id="Ebene_7_Kopie">
	
		<path fill="#FFFFFF" stroke="#009BA4" stroke-width="2" stroke-linecap="round" stroke-linejoin="round" stroke-miterlimit="10" d="
		M280.097,224.905c-0.002,0-8.237-0.948-11.089-12.289c-2.46-3.575-3.746-6.225-3.746-6.225l-4.874,6.178
		c0,0,3.431,21.172,17.146,20.78c-1.683-2.821-1.746-5.744-1.746-5.744L280.097,224.905z"/>
	
		<path fill="#FFFFFF" stroke="#BFC2C9" stroke-width="2" stroke-linecap="round" stroke-linejoin="round" stroke-miterlimit="10" d="
		M269.253,205.088l-7.254-2.897l-2.542,6.568c0,0-4.036-18.808,1.412-27.257c1.935-1.716,6.022-5.073,6.022-5.073l1.392,5.623
		C268.283,182.053,263.782,196.073,269.253,205.088z"/>
	
		<path fill="#FFFFFF" stroke="#BFC2C9" stroke-width="2" stroke-linecap="round" stroke-linejoin="round" stroke-miterlimit="10" d="
		M262.762,175.282l4.981-2.078l1.763,4.172c0,0,6.596-13.289,10.593-17.355c1.92-2.604,2.34-6.948,2.34-6.948l-6.016,0.228
		C276.423,153.3,265.901,159.969,262.762,175.282z"/>
	
		<path fill="#FFFFFF" stroke="#BFC2C9" stroke-width="2" stroke-linecap="round" stroke-linejoin="round" stroke-miterlimit="10" d="
		M315.64,151.44l2.511,4.301l-2.995,1.454c0,0,13.143,5.82,12.879,16.182c4.241,3.924,4.241,3.924,4.241,3.924l3.799-6.455
		C336.074,170.845,331.979,150.806,315.64,151.44z"/>
	
		<path fill="#FFFFFF" stroke="#BFC2C9" stroke-width="2" stroke-linecap="round" stroke-linejoin="round" stroke-miterlimit="10" d="
		M330.038,180.056l4.992,2.209l3.338-5.837c0,0,4.863,15.426,3.356,24.437c-2.245,2.022-3.749,4.749-3.749,4.749l-5.412-6.893
		C332.563,198.723,333.793,186.775,330.038,180.056z"/>
	
		<path fill="#FFFFFF" stroke="#BFC2C9" stroke-width="2" stroke-linecap="round" stroke-linejoin="round" stroke-miterlimit="10" d="
		M343.021,205.861l-4.989,4.08l-4.648-5.578c0,0,4.376,9.858-4.445,22.046c-0.293,3.448-1.554,7.065-1.554,7.065l6.637-1.149
		C334.021,232.324,344.244,224.001,343.021,205.861z"/>
	
		<path display="none" fill="none" stroke="#009BA4" stroke-width="2" stroke-linecap="round" stroke-linejoin="round" stroke-miterlimit="10" d="
		M293.75,248.533c0,0-13.125-4.158-16.125-22.033c3,5.375,8.893,19.937,16.125,19.75c-7.75-8.25-15.709-17.854-13.672-23.083
		c2.422,5.958,10.297,19.333,13.672,19.583c1.125-0.375,1.625-1.75,1.625-1.75s-8.625-2.225-13.5-18.925
		c0.807,2.534,4.625,6.925,4.625,6.925"/>
	
		<path display="none" fill="none" stroke="#65656B" stroke-width="2" stroke-linecap="round" stroke-linejoin="round" stroke-miterlimit="10" d="
		M275.693,218.473c0,0-2.139-21.047,1.932-27.099c0,0-0.891,18.793,0,21.887c0.5-9.137,1.281-23.762,2.453-23.887
		s-1.898,21.891-1.001,23.887c0.897,1.995,4.298-29.637,4.298-25.512s-3.5,22.5,0,27.5"/>
	
		<path display="none" fill="#FFFFFF" stroke="#65656B" stroke-width="2" stroke-linecap="round" stroke-linejoin="round" stroke-miterlimit="10" d="
		M277.625,213.261"/>
	
		<path display="none" fill="none" stroke="#65656B" stroke-width="2" stroke-linecap="round" stroke-linejoin="round" stroke-miterlimit="10" d="
		M280.566,182.22l0.666-5.822l0.896,4.707c0,0,3.636-14.078,6.606-17.115c0.011,3.59-4.084,16.722-4.084,16.722
		s9.281-21.445,10.725-21.18s-9.113,21.096-9.33,22.688c2.527-3.81,12.707-23.288,12.895-22.691c0.187,0.597,0.312,2.847,0,3.847
		c-0.313,1-12.063,16.312-12.438,20.03"/>
	
		<path display="none" fill="none" stroke="#65656B" stroke-width="2" stroke-linecap="round" stroke-linejoin="round" stroke-miterlimit="10" d="
		M341.533,157.921c0,0,14.467,1.825,19.967,21.452c-2.125-3.248-9.25-18.844-18.5-19.857c8.125,6.609,18.327,16.901,16.75,22.734
		c-2.375-4.5-10.5-20.125-17.25-19.875c4.25,3.375,12.75,9.625,15,21.75c-1.945-1.018-1.291-2.629-2.083-4.752"/>
	
		<path display="none" fill="none" stroke="#65656B" stroke-width="2" stroke-linecap="round" stroke-linejoin="round" stroke-miterlimit="10" d="
		M365.125,188.625c0,0,4.359,21.053,3.125,24.125c0,0-1.529,0.935-1.452,0.154s-1.562-20.822-2.798-21.779s-1.609,1-0.93,5
		c0.679,4,2.533,20.882,1.805,20.913s-5-25.163-5-25.163s1.086,16.737,1.625,19.625"/>
	
		<path display="none" fill="none" stroke="#65656B" stroke-width="2" stroke-linecap="round" stroke-linejoin="round" stroke-miterlimit="10" d="
		M363.07,222.075c2.775,6.896-10.695,27.55-9.086,27.479c1.611-0.071,11.266-24.555,13.298-27.737c0.829-0.68,0,0,0.343,0.933
		c0.343,0.934-12.104,28.479-8.797,25.783c1.047-0.854,10.922-26.658,11.047-27.158c0,0-2.625,16.875-8.375,25.625"/>
</g>
</svg>
