<?xml version="1.0" encoding="utf-8"?>
<!-- Generator: Adobe Illustrator 16.0.0, SVG Export Plug-In . SVG Version: 6.00 Build 0)  -->
<!DOCTYPE svg PUBLIC "-//W3C//DTD SVG 1.1//EN" "http://www.w3.org/Graphics/SVG/1.1/DTD/svg11.dtd">
<svg version="1.1" xmlns="http://www.w3.org/2000/svg" xmlns:xlink="http://www.w3.org/1999/xlink" x="0px" y="0px" width="400px"
	 height="300px" viewBox="0 0 400 300" enable-background="new 0 0 400 300" xml:space="preserve">
<g id="weiß">
	<g id="Ebene_9">
		<path fill="#FFFFFF" d="M300.808,221.506c0,0,85.644-0.342,93.48-5.174c-0.864-7.855-14.712-94.738-16.5-96.535
			s-109.842-6.13-109.842-6.13s3.878-48.181,1.091-54.674c-1.537-4.618-3.909-2.931-3.909-2.931s-132.17,14.896-153.461,29.604
			c-2.361,25.186-8.38,117.776-8.38,117.776L8.858,211.75c0,0,2.924,13.238,4.556,14.101s109.456,25.848,109.456,25.848
			S216.875,237,250.25,226c1.977,9.408,5.735,20.568,5.735,20.568h1.14l0.564,0.82c0,0,41.309,3.123,43.872-0.82
			c0.313-0.818,1.787-2.896,1.787-2.896L300.808,221.506z"/>
	</g>
</g>
<g id="Ebene_4">
	<path fill="none" stroke="#000000" stroke-width="2" stroke-linecap="round" stroke-linejoin="round" stroke-miterlimit="10" d="
		M106.375,204.819c0,0,3.625-110.456,7.625-116.819c21.792-9.572,145.87-31.786,152.62-27.536
		c-1.5,15-10.635,102.145-10.635,102.145l9.143-106.547c0,0-126.211,14.354-153.461,29.604c-2,7-8.11,120.193-8.11,120.193L248,216
		l-139.25-13c0,0-99.75,8-100.75,9.5s111.75,23.75,111.75,23.75L248,217.5l-128.75,21.25c0,0-106.5-20-111.25-24.5
		C25.25,213,108.5,205,108.5,205"/>
	<path fill="none" stroke="#000000" stroke-width="2" stroke-linecap="round" stroke-linejoin="round" stroke-miterlimit="10" d="
		M248,217.5"/>
	<path fill="none" stroke="#000000" stroke-width="2" stroke-linecap="round" stroke-linejoin="round" stroke-miterlimit="10" d="
		M121.667,96.667c0,0,125.583-25.667,129.583-21.167c0.5,12.25-4.925,88.396-4.925,88.396L248,77.928
		c0,0-123.376,19.332-126.876,22.832c-2.75,13.25-5.624,95.49-5.624,95.49l129.75,4.5L118,193
		C118,193,119.917,101.667,121.667,96.667z"/>
	<path fill="none" stroke="#000000" stroke-width="2" stroke-linecap="round" stroke-linejoin="round" stroke-miterlimit="10" d="
		M8.858,214.773c0,0,3.056,7.827,4.556,11.077S120.5,249,120.5,249l-0.25-8.75l2.003,8.615c0,0,130.497-14.365,127.997-28.865
		c1.25,3.25,4.5,4.75-1.5,6.75s-120.5,27.5-127.25,24.75S16.817,227.979,10.459,222.729C8.269,218.229,10.184,221.742,8.858,214.773
		"/>
	<path fill="none" stroke="#000000" stroke-width="2" stroke-linecap="round" stroke-linejoin="round" stroke-miterlimit="10" d="
		M268,58.5c0,0-5.25,84.694-5.25,104.312C266.62,139.444,273,61.624,268,56.062"/>
</g>
<g id="Ebene_6">
	<path fill="none" stroke="#000000" stroke-width="2" stroke-linecap="round" stroke-linejoin="round" stroke-miterlimit="10" d="
		M289.793,163.896c0,0-32.388-0.568-39.774,0c-7.386,0.568,6.898,80.996,10.512,82.673c3.614,1.677,42.331,0.853,42.899-3.125
		s-9.93-72.128-12.784-75.854s-42.331-6.818-44.32-3.693c-1.988,3.125,11.364,83.493,11.364,83.493s40.059,1.389,43.468,0
		C304.566,246.001,291.781,168.441,289.793,163.896z"/>
	<path fill="none" stroke="#000000" stroke-width="2" stroke-linecap="round" stroke-linejoin="round" stroke-miterlimit="10" d="
		M253.996,173.839l8.239,63.665c0,0,30.683-0.026,33.239-1.731c2.558-1.704-9.522-61.934-9.522-61.934l-29.399-1.704l7.387,62.502
		l31.882-0.385l-11.426-62.117L253.996,173.839z"/>
	<path fill="none" stroke="#000000" stroke-width="2" stroke-linecap="round" stroke-linejoin="round" stroke-miterlimit="10" d="
		M255.985,246.568c0,0-12.785-76.423-12.501-78.979C242.633,175.828,251.202,242.97,255.985,246.568z"/>
	<path fill="none" stroke="#000000" stroke-width="2" stroke-linecap="round" stroke-linejoin="round" stroke-miterlimit="10" d="
		M282.25,238.75c0,0-10.924,1.75-7.462,3.75s17.483,1.482,10.462-1.875s-17.012,0.203-9.236,2.371"/>
</g>
<g id="Ebene_7">
	<path fill="none" stroke="#000000" stroke-width="2" stroke-linecap="round" stroke-linejoin="round" stroke-miterlimit="10" d="
		M269.836,113.757c0,0,102.702,4.79,106.202,7.29s16,96.535,16,96.535l-90.288,3.839c0,0,82.788,1.161,92.538-5.089
		c0-6.5-14-93.785-16.5-96.535s-109.538-3.04-109.538-3.04"/>
	<path fill="none" stroke="#000000" stroke-width="2" stroke-linecap="round" stroke-linejoin="round" stroke-miterlimit="10" d="
		M299.416,214.978c0,0,84.372-2.646,84.372-3.396s-14.25-86.035-14.25-86.035l-101.288-3.04l98.788,5.29c0,0,12.5,79.535,12,81.035
		s-78.378,3.565-78.378,3.565"/>
</g>
<g id="Sparcles">
	<g>
		<g>
			<path fill="#F5952F" d="M249.705,146.25c3.869,0,3.869-6,0-6S245.836,146.25,249.705,146.25L249.705,146.25z"/>
		</g>
	</g>
	<g>
		<g>
			<path fill="#F5952F" d="M291.5,230.25c3.869,0,3.869-6,0-6S287.631,230.25,291.5,230.25L291.5,230.25z"/>
		</g>
	</g>
	<g>
		<g>
			<path fill="#F5952F" d="M148,246.672c3.869,0,3.869-6,0-6S144.131,246.672,148,246.672L148,246.672z"/>
		</g>
	</g>
	<g>
		<g>
			<path fill="#F5952F" d="M310.5,223.5c3.869,0,3.869-6,0-6S306.631,223.5,310.5,223.5L310.5,223.5z"/>
		</g>
	</g>
	<g>
		<g>
			<path fill="#F5952F" d="M347.75,224.506c3.869,0,3.869-6,0-6S343.881,224.506,347.75,224.506L347.75,224.506z"/>
		</g>
	</g>
	<g>
		<g>
			<path fill="#F5952F" d="M383.25,214.632c3.869,0,3.869-6,0-6S379.381,214.632,383.25,214.632L383.25,214.632z"/>
		</g>
	</g>
	<g>
		<g>
			<path fill="#F5952F" d="M385.75,170.632c3.869,0,3.869-6,0-6S381.881,170.632,385.75,170.632L385.75,170.632z"/>
		</g>
	</g>
	<g>
		<g>
			<path fill="#F5952F" d="M391.75,184.632c3.869,0,3.869-6,0-6S387.881,184.632,391.75,184.632L391.75,184.632z"/>
		</g>
	</g>
	<g>
		<g>
			<path fill="#F5952F" d="M391.75,201.132c3.869,0,3.869-6,0-6S387.881,201.132,391.75,201.132L391.75,201.132z"/>
		</g>
	</g>
	<g>
		<g>
			<path fill="#F5952F" d="M380.25,229.132c3.869,0,3.869-6,0-6S376.381,229.132,380.25,229.132L380.25,229.132z"/>
		</g>
	</g>
	<g>
		<g>
			<path fill="#F5952F" d="M328.834,226.75c3.869,0,3.869-6,0-6S324.965,226.75,328.834,226.75L328.834,226.75z"/>
		</g>
	</g>
	<g>
		<g>
			<path fill="#F5952F" d="M7.993,219.5c3.869,0,3.869-6,0-6S4.124,219.5,7.993,219.5L7.993,219.5z"/>
		</g>
	</g>
	<g>
		<g>
			<path fill="#F5952F" d="M360.5,229.132c3.869,0,3.869-6,0-6S356.631,229.132,360.5,229.132L360.5,229.132z"/>
		</g>
	</g>
	<g>
		<g>
			<path fill="#F5952F" d="M304.75,234.25c3.869,0,3.869-6,0-6S300.881,234.25,304.75,234.25L304.75,234.25z"/>
		</g>
	</g>
	<g>
		<g>
			<path fill="#F5952F" d="M18,235c3.869,0,3.869-6,0-6S14.131,235,18,235L18,235z"/>
		</g>
	</g>
	<g>
		<g>
			<path fill="#F5952F" d="M262.75,251.006c3.869,0,3.869-6,0-6S258.881,251.006,262.75,251.006L262.75,251.006z"/>
		</g>
	</g>
	<g>
		<g>
			<path fill="#F5952F" d="M202.75,232.25c3.869,0,3.869-6,0-6S198.881,232.25,202.75,232.25L202.75,232.25z"/>
		</g>
	</g>
	<g>
		<g>
			<path fill="#F5952F" d="M193.5,239c3.869,0,3.869-6,0-6S189.631,239,193.5,239L193.5,239z"/>
		</g>
	</g>
	<g>
		<g>
			<path fill="#F5952F" d="M243.426,163.625c3.869,0,3.869-6,0-6S239.557,163.625,243.426,163.625L243.426,163.625z"/>
		</g>
	</g>
	<g>
		<g>
			<path fill="#F5952F" d="M300,253.25c3.869,0,3.869-6,0-6S296.131,253.25,300,253.25L300,253.25z"/>
		</g>
	</g>
	<g>
		<g>
			<path fill="#F5952F" d="M241.25,233.75c3.869,0,3.869-6,0-6S237.381,233.75,241.25,233.75L241.25,233.75z"/>
		</g>
	</g>
	<g>
		<g>
			<path fill="#F5952F" d="M115.5,253.25c3.869,0,3.869-6,0-6S111.631,253.25,115.5,253.25L115.5,253.25z"/>
		</g>
	</g>
	<g>
		<g>
			<path fill="#F5952F" d="M84.5,253.25c3.869,0,3.869-6,0-6S80.631,253.25,84.5,253.25L84.5,253.25z"/>
		</g>
	</g>
	<g>
		<g>
			<path fill="#F5952F" d="M72.167,249.568c3.869,0,3.869-6,0-6S68.297,249.568,72.167,249.568L72.167,249.568z"/>
		</g>
	</g>
	<g>
		<g>
			<path fill="#F5952F" d="M60,241.75c3.869,0,3.869-6,0-6S56.131,241.75,60,241.75L60,241.75z"/>
		</g>
	</g>
	<g>
		<g>
			<path fill="#F5952F" d="M40.333,198.334c3.869,0,3.869-6,0-6S36.464,198.334,40.333,198.334L40.333,198.334z"/>
		</g>
	</g>
	<g>
		<g>
			<path fill="#F5952F" d="M44.667,184c3.869,0,3.869-6,0-6S40.798,184,44.667,184L44.667,184z"/>
		</g>
	</g>
	<g>
		<g>
			<path fill="#F5952F" d="M43,161.667c3.869,0,3.869-6,0-6S39.131,161.667,43,161.667L43,161.667z"/>
		</g>
	</g>
	<g>
		<g>
			<path fill="#F5952F" d="M96.333,191c3.869,0,3.869-6,0-6S92.464,191,96.333,191L96.333,191z"/>
		</g>
	</g>
	<g>
		<g>
			<path fill="#F5952F" d="M126.333,223.667c3.869,0,3.869-6,0-6S122.464,223.667,126.333,223.667L126.333,223.667z"/>
		</g>
	</g>
	<g>
		<g>
			<path fill="#F5952F" d="M332.667,150.333c3.869,0,3.869-6,0-6S328.798,150.333,332.667,150.333L332.667,150.333z"/>
		</g>
	</g>
	<g>
		<g>
			<path fill="#F5952F" d="M338.667,135c3.869,0,3.869-6,0-6S334.798,135,338.667,135L338.667,135z"/>
		</g>
	</g>
	<g>
		<g>
			<path fill="#F5952F" d="M331,114c0-0.222,0-0.444,0-0.667c0-1.635-1.364-3-3-3s-3,1.365-3,3c0,0.222,0,0.444,0,0.667
				c0,1.635,1.364,3,3,3S331,115.635,331,114L331,114z"/>
		</g>
	</g>
	<g>
		<g>
			<path fill="#F5952F" d="M334.667,91c3.869,0,3.869-6,0-6S330.798,91,334.667,91L334.667,91z"/>
		</g>
	</g>
	<g>
		<g>
			<path fill="#F5952F" d="M285.667,182.334c3.869,0,3.869-6,0-6S281.798,182.334,285.667,182.334L285.667,182.334z"/>
		</g>
	</g>
	<g>
		<g>
			<path fill="#F5952F" d="M280.667,169c3.869,0,3.869-6,0-6S276.798,169,280.667,169L280.667,169z"/>
		</g>
	</g>
	<g>
		<g>
			<path fill="#F5952F" d="M280,156c3.869,0,3.869-6,0-6S276.131,156,280,156L280,156z"/>
		</g>
	</g>
	<g>
		<g>
			<path fill="#F5952F" d="M282,140.667c3.869,0,3.869-6,0-6S278.131,140.667,282,140.667L282,140.667z"/>
		</g>
	</g>
</g>
</svg>
