<?xml version="1.0" encoding="utf-8"?>
<!-- Generator: Adobe Illustrator 16.0.0, SVG Export Plug-In . SVG Version: 6.00 Build 0)  -->
<!DOCTYPE svg PUBLIC "-//W3C//DTD SVG 1.1//EN" "http://www.w3.org/Graphics/SVG/1.1/DTD/svg11.dtd">
<svg version="1.1" xmlns="http://www.w3.org/2000/svg" xmlns:xlink="http://www.w3.org/1999/xlink" x="0px" y="0px" width="400px"
	 height="300px" viewBox="0 0 400 300" enable-background="new 0 0 400 300" xml:space="preserve">
<g id="weiß">
	<path fill="#FFFFFF" stroke="#C2C2C2" stroke-miterlimit="10" d="M221.042,150L255,123.667l63.059-3.107l35.274,0.44
		c0,0,6.19-8.5,5.679-50.75c-0.949-32.971-1.679-40.917-1.679-40.917s-11.251-6.12-98.667,1.648
		c-6.42,0.326-12.164-0.01-12.164-0.01s-30.67-3.805-60.836,3.362c0.964,16.158,3.793,48.143,3.793,48.143s0.29,33.857,1.541,38.191
		c10.25,0.833,41,2.583,41,2.583S230.834,135,221.042,150z"/>
	<path fill="#FFFFFF" stroke="#F5952F" stroke-miterlimit="10" d="M138.25,269.591c0,0,38.985-11.425,54.618-44.258
		s-3.107-80.23-8.688-87.695s-22.98-36.695-80.705-32.917c-62.225,12.529-62.557,48.081-62.557,48.081s-11.075,24.888-10.884,36.13
		s-1.286,42.196,41.174,70.264C80.168,265.763,114.495,275.5,138.25,269.591z"/>
	<path fill="#FFFFFF" d="M131.02,105.592c0,0,15.512-9.383,24.458-3.054s9.865,12.767,9.865,12.767s-2.735-12.197-12.664-11.751
		s-16.328,2.95-16.328,2.95L131.02,105.592z"/>
	<path fill="#FFFFFF" d="M54.167,126.794c0,0,1.851-18.772,12.342-21.533c-5.509,5.989-7.833,6.05-6.171,16.52
		S54.167,126.794,54.167,126.794z"/>
	<path fill="#FFFFFF" d="M22.272,180.223c0,0-5.302,11.078,7.588,24.053c-9.196-5.617-13.147-4.662-12.378-15.344
		C18.5,184.5,22.272,180.223,22.272,180.223z"/>
	<path fill="#FFFFFF" d="M86.02,270.821c0,0-15.608,5.435-22.72-6.193c-1.633-2.962-2.961-10.095-2.961-10.095l-3.462-3.426
		c0,0-0.549,3.84,0.538,10.491S65.539,275.893,86.02,270.821z"/>
	<path fill="#FFFFFF" d="M149.502,269.928c0,0,11.875,7.262,18.561,2.542s4.058-13.284,4.058-13.284s3.732-3.012,4.18-11.724
		s-3.302,3.288-3.052,5.288s0.968,5.078-3.641,9.039S155.078,271.6,149.502,269.928z"/>
	<path fill="#FFFFFF" d="M200.197,197.129c0,0,7.119-5.021,7.811-8.197s0.597-8.557-1.265-10.041
		c5.226,5.543,13.423,13.359,1.59,19.109c-2.501,1.399-9.703,4.956-9.703,4.956L200.197,197.129z"/>
</g>
<g id="hellblau">
	<g>
		<path fill="#BFC2C9" d="M115.572,272.178c-5.535,0-10.921-0.486-16.007-1.445c-35.527-8.161-52.744-27.174-60.938-41.688
			c-9.189-16.276-11.118-34.234-8.955-44.847c0.199-2.698,3.04-14.2,9.11-27.647c3.492-12.697,9.915-29.116,20.712-35.415
			c3.8-2.493,7.714-4.763,11.591-6.722c7.481-5.193,15.588-8.469,24.099-9.737c6.833-0.981,13.511-1.479,19.853-1.479
			c46.182,0,64.428,26.306,65.661,28.172c5.875,6.017,11.919,19.486,15.421,34.375c4.588,14.551,9.856,42.545-6.289,66.808
			C166.892,267.03,133.459,272.178,115.572,272.178z M73.237,259.115c7.457,3.903,16.287,7.26,26.737,9.66
			c4.926,0.928,10.187,1.402,15.598,1.402c15.727,0,43.745-4.068,65.537-29.401c-18.707,19.302-47.854,26.896-65.382,26.896
			c-0.001,0,0,0-0.001,0c-0.307,0-0.611-0.002-0.911-0.007C98.631,266.932,84.75,264.071,73.237,259.115z M40.67,157.231
			c-4.059,14.823-5.76,30.604-5.671,37.088l0.005,0.42c0.716,55.66,43.829,69.293,79.871,70.928c0.26,0.004,0.554,0.006,0.851,0.006
			c21.61,0,61.27-11.763,75.697-43.331c9.15-20.021,5.667-43.704,2.768-56.065c-4.796-15.174-12.153-26.99-16.963-31.551
			c-11.233-10.651-34.672-28.52-65.436-28.52c-13.243,0-26.592,3.341-39.678,9.931C56.612,126.949,46.465,144.432,40.67,157.231z
			 M35.84,169.234c-2.874,8.14-4.104,13.935-4.176,15.157c-0.003,0.048-0.009,0.096-0.019,0.144
			c-1.893,9.183-0.576,24.15,6.178,38.583c-4.61-12.181-4.754-23.392-4.818-28.354L33,194.347
			C32.938,189.849,33.717,180.265,35.84,169.234z M62.162,121.796c-0.539,0.342-1.077,0.688-1.614,1.041
			c-6.995,4.082-12.095,12.78-15.708,21.813C49.264,136.913,54.988,128.746,62.162,121.796z M129.427,106.122
			c22.737,4.958,39.978,18.43,49.177,27.152c2.188,2.075,4.879,5.578,7.624,10.166c-2.268-4.617-4.685-8.366-7.024-10.738
			c-0.052-0.053-0.098-0.111-0.137-0.174C178.916,132.285,165.146,110.865,129.427,106.122z"/>
	</g>
	<g>
		<path fill="#BFC2C9" d="M181.648,186.758c-3.812,0-7.457-4.659-12.437-11.023c-2.145-2.74-4.576-5.848-7.292-8.903
			c-5.37-6.042-12.275-5.196-18.792-2.878c-1.3,0.702-2.749,1.504-4.378,2.404c-1.304,0.722-2.722,1.506-4.269,2.353
			c-7.427,4.067-11.601,5.071-13.537,3.255c-2.165-2.031-0.458-6.604,1.729-11.409c0.516-5.438,2.913-12.467,5.899-19.455
			c2.222-9.863,5.618-21.391,13.033-25.613c0.623-1.076,1.095-1.874,1.371-2.334c0.283-0.474,0.898-0.629,1.371-0.346
			c0.474,0.283,0.629,0.897,0.346,1.371c-0.002,0.004-0.016,0.027-0.039,0.066c1.101-0.286,2.276-0.433,3.528-0.412
			c0.552,0.008,0.994,0.462,0.986,1.014s-0.442,0.991-1.014,0.986c-1.896-0.044-3.583,0.396-5.101,1.174
			c-2.425,4.253-7.115,12.748-11.147,21.627c-0.521,1.148-1.017,2.269-1.483,3.358c-0.344,1.542-0.66,3.041-0.958,4.455
			c-0.862,4.089-1.543,7.319-2.376,9.277c-0.427,1.004-0.96,2.145-1.522,3.346c-0.305,0.651-0.645,1.379-0.992,2.144
			c-0.253,3.15,0.278,5.325,1.614,6.423c1.733,0.696,5.422-0.95,9.326-2.69c2.104-0.938,4.407-1.966,6.807-2.822
			c10.972-5.886,12.282-5.146,20.791,1.665c0.86,0.688,1.799,1.441,2.839,2.257c5.055,3.967,8.327,7.812,10.956,10.902
			c3.491,4.103,5.343,6.056,7.924,5.735c0.48-0.628,0.964-1.401,1.455-2.321c6.36-11.925,6.219-16.424,6.217-16.468
			c-0.026-0.528,0.363-0.991,0.889-1.05c0.529-0.051,1.005,0.298,1.095,0.818c0.107,0.621,2.523,15.266-6.183,19.887
			c-0.852,0.452-1.64,0.766-2.378,0.955c-1.214,1.39-2.481,2.114-3.87,2.235C181.918,186.752,181.783,186.758,181.648,186.758z
			 M166.383,168.978c1.583,1.921,3.05,3.795,4.404,5.524c4.589,5.864,8.224,10.505,11.093,10.245
			c0.28-0.024,0.559-0.097,0.838-0.218c-2.583-0.701-4.681-3.166-7.335-6.285C173.116,175.58,170.36,172.341,166.383,168.978z
			 M192.77,171.042c-0.956,2.599-2.434,5.976-4.72,10.262c-0.02,0.036-0.039,0.073-0.059,0.109
			C191.351,179.218,192.479,174.853,192.77,171.042z M122.832,165.407c-0.842,2.335-1.279,4.388-0.52,5.1
			c0.376,0.353,1.58,0.778,5.377-0.729c-0.914,0.071-1.732-0.034-2.449-0.373c-0.064-0.03-0.125-0.067-0.182-0.11
			C123.897,168.403,123.182,167.073,122.832,165.407z M151.884,160.211c0.907,0.005,1.81,0.076,2.703,0.228
			c-0.67-0.219-1.319-0.311-2.005-0.292C152.356,160.155,152.124,160.177,151.884,160.211z M138.635,120.748
			c-2.002,2.484-3.579,5.715-4.862,9.224C135.49,126.556,137.174,123.401,138.635,120.748z"/>
	</g>
	<g>
		<path fill="#BFC2C9" d="M168.485,246.682c-2.293,0.001-4.336-0.818-6.082-2.439c-3.123-2.899-4.809-7.907-5.715-12.736
			c-3.305-7.407-5.835-16.47-7.39-22.042c-0.296-1.06-0.55-1.969-0.759-2.683c-0.421-1.439-1.094-2.38-2.057-2.875
			c-2.11-1.081-5.358,0.057-7.968,0.971c-0.621,0.218-1.202,0.421-1.724,0.58c-5.742,1.965-9.759,1.982-12.251,0.037
			c-1.273-0.994-2.076-2.434-2.42-4.356c-2.266-4.686-0.628-12.027,0.778-15.735c0.351-0.828,0.703-1.611,1.054-2.352
			c2.911-11.444,8.328-13.798,13.949-14.298c0.29-0.026,0.563-0.05,0.817-0.079c2.08-0.237,3.697,0.438,5.573,1.225
			c2.536,1.062,5.693,2.385,11.777,2.435c4.644,0.038,6.773,1.821,8.08,3.99c0.395,0.4,0.795,0.831,1.216,1.284
			c1.965,2.113,4.656,5.008,9.625,7.804c6.057,3.407,9.026,6.407,9.346,9.441c0.307,2.908-1.848,5.214-3.759,6.897
			c-2.277,2.006-2.512,5.764-2.01,9.787c0.417,1.299,0.915,2.655,1.441,4.088c0.537,1.461,1.091,2.972,1.61,4.565
			c2.076,6.376,0.815,14.798-3.065,20.482c-2.531,3.707-5.814,5.779-9.495,5.992C168.866,246.677,168.674,246.682,168.485,246.682z
			 M161.724,240.178c0.59,0.997,1.266,1.88,2.041,2.599c1.415,1.313,3.007,1.946,4.858,1.904c-1-0.344-2.177-0.879-3.592-1.631
			C163.882,242.439,162.779,241.45,161.724,240.178z M158.636,230.973c2.187,4.877,4.675,8.898,7.333,10.312
			c2.89,1.536,4.401,2.03,5.419,1.854c2.477-3.64,8.757-14.887,7.553-20.157c-0.182-0.796-0.387-1.64-0.6-2.517
			c-0.664-2.728-1.389-5.71-1.762-8.591c-1.813-5.808-2.156-11.1,3.911-16.463c0.038-0.081,0.081-0.162,0.124-0.244
			c0.243-0.462,0.519-0.985,0.225-1.755c-0.438-1.143-2.45-3.534-11.019-6.717c-3.898-1.142-5.091-4.08-6.143-6.674
			c-0.36-0.886-0.698-1.72-1.117-2.462c-1.577-1.573-2.722-2.209-4.931-1.692c-4.646,1.085-8.949-0.204-12.743-1.34
			c-7.099-2.125-12.793-3.83-18.985,9.076c-0.89,3.478-1.563,7.914-1.902,13.586c-0.107,1.258-0.088,2.362,0.054,3.312
			c0.27,0.514,0.596,0.965,0.983,1.339c2.037,1.967,5.652,1.879,10.745-0.261c5.888-2.472,10.751-2.5,14.455-0.082
			c6.262,4.09,7.345,13.86,7.433,19.321C157.697,222.699,157.86,226.738,158.636,230.973z M176.226,238.835
			c0.243,0.014,0.482,0.117,0.664,0.307c0.059,0.062,0.108,0.129,0.148,0.199c2.112-3.187,3.344-7.266,3.551-11.271
			C179.75,231.608,177.962,235.57,176.226,238.835z M148.204,202.64c1.036,0.798,1.793,1.998,2.256,3.579
			c0.21,0.721,0.467,1.638,0.765,2.708c1.005,3.6,2.573,9.219,4.548,14.8c-0.062-1.1-0.093-2.077-0.106-2.878
			c-0.065-4.076-0.833-13.96-6.526-17.678C148.839,202.974,148.526,202.797,148.204,202.64z M140.526,202.114
			c-1.251,0.285-2.576,0.722-3.972,1.308c-0.043,0.019-0.087,0.037-0.131,0.055c0.455-0.146,0.929-0.312,1.43-0.487
			C138.672,202.702,139.58,202.384,140.526,202.114z M182.15,196.594c-0.044,0.055-0.098,0.106-0.163,0.162
			c-1.674,1.449-2.812,2.875-3.532,4.313c0.242-0.289,0.507-0.562,0.799-0.819C180.816,198.874,181.757,197.695,182.15,196.594z
			 M166.701,181.828c0.737,1.278,1.733,2.31,3.497,2.892C168.826,183.725,167.682,182.749,166.701,181.828z M137.608,171.031
			c2.578,0,5.189,0.782,7.852,1.579c2.82,0.845,5.73,1.746,8.741,1.666c-5.315-0.284-8.381-1.569-10.682-2.533
			c-1.75-0.733-3.014-1.258-4.57-1.083c-0.27,0.031-0.561,0.058-0.869,0.085c-1.421,0.126-3.237,0.287-5.096,1.306
			C134.515,171.315,136.055,171.031,137.608,171.031z"/>
	</g>
	<g>
		<path fill="#BFC2C9" d="M119.605,269.592c-3.244,0-7.204-1.046-11.589-9.85c-2.883-3.438-5.229-7.419-6.277-10.038
			c-0.695-1.737-1.599-2.933-2.617-3.723c-1.286-0.063-2.794,0.157-4.507,0.66c-1.912,0.559-4.455-0.167-7.157-2.044
			c-3.951-2.746-8.113-7.993-8.507-13.526c-0.136-2.253-0.521-3.889-0.966-4.883c-0.585-0.154-1.207-0.271-1.838-0.389
			c-2.007-0.376-4.082-0.765-4.897-2.645c-0.195-0.456-0.394-0.859-0.592-1.204c-0.33,0.026-0.688,0.121-1.087,0.297l-0.754,0.337
			c-1.438,0.647-2.763,1.243-4.446,1.517c-1.334,1.169-2.813,2.175-4.503,2.23c-0.034,0.002-0.068,0.002-0.103,0.002
			c-2.393,0.001-6.888-2.659-11.279-5.729c-9.491-4.125-11.799-9.14-11.9-9.368c-0.188-0.426-0.057-0.925,0.316-1.204
			c0.373-0.278,0.889-0.263,1.245,0.037c3.12,2.64,7.389,6.004,11.374,8.803c0.68,0.29,1.398,0.577,2.159,0.856
			c6.005,2.208,9.365,2.729,11.828,2.459c0.287-0.265,0.573-0.539,0.857-0.811c1.729-1.656,3.36-3.22,5.266-2.831
			c0.808,0.165,1.522,0.658,2.178,1.518c1.477,0.354,2.538,1.447,3.282,2.216c0.353,0.363,0.885,0.912,1.096,0.946
			c0.732-0.277,1.49-0.188,2.161,0.252c0.385,0.253,0.715,0.61,0.996,1.039c1.517,0.528,2.932,1.432,3.738,3.244
			c0.225,0.505-0.003,1.096-0.507,1.32c-0.024,0.011-0.048,0.02-0.072,0.028c1.85,5.139,5.086,12.848,7.671,14.165
			c0.357,0.183,0.559,0.149,0.678,0.11c3.525-1.175,6.603-0.92,8.979,0.649c1.261,0.137,2.369,0.51,3.316,1.117
			c2.189,1.405,2.729,3.596,2.827,4.102c1.264,3.813,2.472,6.84,3.63,9.242c2.309,2.759,4.939,5.119,7.367,5.871
			c1.321,0.408,2.44,0.29,3.418-0.364c3.57-2.39,3.684-9.209,3.784-15.226c0.061-3.628,0.118-7.055,0.871-9.563
			c1.575-5.249,2.398-14.31-0.701-18.018c-1.152-1.379-2.754-1.925-4.893-1.688c-3.791,0.432-7.307-0.521-11.03-1.53
			c-4.539-1.229-9.5-2.573-15.834-1.54c-4.936,1.852-8.477,3.006-11.125,3.59c-1.488,0.461-2.724,0.69-3.84,0.467
			c-2.716-0.06-4.038-1.274-5.768-3.188l-0.421-0.463c-1.582-1.725-2.17-1.522-4.115-0.855c-1.74,0.597-4.125,1.41-8.205,1.178
			c-0.691-0.04-2.526-0.146-2.916-1.512c-0.107-0.376-0.085-0.755,0.067-1.156c-1.126-4.045,12.677-12.927,15.483-14.236
			c3.268-1.525,2.498-11.378,2.039-17.266c-0.151-1.938-0.282-3.611-0.282-4.828c0-2.531,1.946-4.899,3.827-7.189
			c0.479-0.583,0.962-1.171,1.39-1.74c0.101-1.04,0.123-1.852,0.125-2.34c-2.138-1.019-8.457-0.815-15.983-0.045
			c-1.238,0.377-2.459,0.762-3.632,1.131c-5.464,1.721-9.779,3.084-11.936,2.618c-4.408-0.944-9.555-0.005-9.606,0.006
			c-0.544,0.095-1.064-0.257-1.167-0.799s0.254-1.064,0.796-1.167c0.094-0.018,9.489-1.795,19.368-3.082
			c2.124-0.277,4.054-0.503,5.809-0.686c6.622-2.009,13.334-3.657,16.939-1.944c1.483,0.704,2.364,1.637,2.617,2.771
			c0.312,1.396-0.358,2.813-1.391,4.272c-0.259,2.275-0.86,5.366-2.236,8.587c-1.01,2.365-0.337,4.914,0.375,7.613
			c0.984,3.729,2.099,7.958-0.962,12.549c-2.29,3.435-7.649,7.205-12.377,10.532c-2.232,1.57-5.078,3.572-6.478,4.895
			c0.434,0.039,1.089,0.036,2.069-0.082c11.669-1.423,12.125-1.478,14.452,2.119l0.174,0.27c0.719,1.105,1.296,1.742,2.035,1.999
			c0.881,0.03,1.967-0.091,3.37-0.397c0.473-0.153,0.999-0.336,1.587-0.546c3.493-1.626,6.637-2.575,9.512-3.059
			c1.367-0.515,2.851-1.085,4.46-1.716c0.032-0.013,0.064-0.023,0.097-0.033l0.382-0.106c3.073-0.867,8.218-2.32,14.759,2.782
			c0.438,0.37,2.503-0.111,3.871-0.43c3.381-0.788,7.59-1.768,10.649,0.663c2.315,1.838,3.44,5.235,3.44,10.388
			c0,11.456-0.709,13.678-1.396,15.827c-0.388,1.216-0.755,2.365-0.939,5.563c-0.109,1.89-0.147,4.025-0.184,6.091
			c-0.119,6.699-0.231,13.027-2.523,15.194c-0.604,0.57-1.346,0.86-2.163,0.823c-0.464-0.019-0.97,0.011-1.506,0.039
			C120.636,269.564,120.13,269.592,119.605,269.592z M113.986,265.168c2.642,2.609,4.967,2.481,7.028,2.373
			c0.584-0.031,1.136-0.062,1.691-0.04c0.288,0.004,0.498-0.076,0.712-0.279c1.018-0.961,1.463-3.816,1.678-7.124
			c-0.664,2.359-1.762,4.339-3.596,5.566c-1.489,0.998-3.214,1.205-5.122,0.612C115.584,266.031,114.784,265.652,113.986,265.168z
			 M102.962,247.596c0.229,0.429,0.441,0.884,0.634,1.366c0.174,0.435,0.393,0.919,0.651,1.44c-0.065-0.194-0.131-0.391-0.196-0.588
			c-0.019-0.056-0.032-0.112-0.041-0.17C104.002,249.594,103.824,248.553,102.962,247.596z M93.224,244.825
			c0.302,0.001,0.579-0.03,0.828-0.104c0.033-0.01,0.066-0.019,0.099-0.028C93.84,244.724,93.53,244.769,93.224,244.825z
			 M80.927,230.646c0.007,0.101,0.014,0.198,0.019,0.293c0.212,2.978,1.758,5.936,3.719,8.328
			C83.173,236.45,81.857,233.176,80.927,230.646z M57.089,223.522c1.142,0.535,2.083,0.812,2.711,0.812
			c0.284-0.01,0.569-0.068,0.853-0.167C59.612,224.06,58.438,223.853,57.089,223.522z M120.392,217.452
			c2.276,0,4.117,0.824,5.484,2.461c0.844,1.01,1.448,2.279,1.859,3.705c-0.278-3.135-1.145-5.296-2.585-6.439
			c-2.304-1.831-5.99-0.972-8.952-0.282c-0.677,0.158-1.314,0.307-1.908,0.418c1.647,0.277,3.281,0.392,4.933,0.206
			C119.625,217.475,120.014,217.452,120.392,217.452z M99.174,214.118c3.597,0.257,6.769,1.116,9.767,1.928
			c0.249,0.067,0.496,0.135,0.743,0.201C105.328,213.232,101.805,213.502,99.174,214.118z M70.111,203.41
			c-2.31,1.388-4.824,3.235-6.945,5.01c0.365-0.258,0.745-0.525,1.138-0.803C66.224,206.268,68.25,204.842,70.111,203.41z
			 M78.055,173.251c-1.36,1.695-2.555,3.4-2.555,4.916c0,1.14,0.128,2.776,0.276,4.673c0.412,5.269,0.934,11.957-0.567,16.013
			c0.366-0.421,0.689-0.835,0.959-1.24c2.562-3.842,1.653-7.285,0.692-10.93c-0.767-2.906-1.559-5.912-0.279-8.908
			C77.249,176.209,77.721,174.668,78.055,173.251z M74.479,164.239c1.809,0.058,3.053,0.223,3.925,0.422
			C77.406,164.243,76.055,164.135,74.479,164.239z"/>
	</g>
</g>
<g id="grau">
	<g>
		<path d="M101.473,223.781c-5.784,0-11.549-0.252-17.234-0.785c-22.297-2.096-38.981-6.701-49.588-13.691
			c-1.503-0.989-2.889-2.027-4.161-3.115c-6.815-2.945-11.567-6.554-13.305-11.154c-1.805-4.776-0.104-10.277,5.053-16.35
			c0.036-0.042,0.074-0.08,0.116-0.116c0.136-0.115,0.274-0.23,0.413-0.347c3.692-5.015,9.789-7.337,9.885-7.372
			c0.475-0.177,1.004,0.03,1.235,0.479c0.232,0.448,0.093,0.999-0.323,1.284c-0.055,0.037-5.293,3.63-9.473,7.109
			c-1.649,2.428-2.612,5.525-1.781,9.354c1.385,6.383,4.872,11.464,9.567,15.52c12.107,5.05,30.87,8.168,49.767,10.915
			c32.012,3.643,57.857,1.97,77.902-1.727c22.614-6.191,40.024-15.036,46.659-23.725c2.008-2.649,1.648-5.679,0.993-7.754
			c-0.3-0.949-0.72-1.882-1.236-2.774c-3.244-2.691-6.391-4.5-6.456-4.537c-0.48-0.272-0.648-0.883-0.375-1.363
			c0.085-0.149,0.203-0.27,0.34-0.354c-0.643-0.333-1.303-0.61-1.97-0.824c-0.526-0.168-0.815-0.731-0.647-1.257
			c0.168-0.526,0.733-0.814,1.257-0.647c3.795,1.216,7.269,4.117,9.414,7.683c3.717,3.155,7.519,7.47,7.538,11.927
			c0.015,3.373-2.081,6.303-6.228,8.708c-7.807,4.527-23.544,12.058-47.83,16.673C143.094,220.556,122.185,223.78,101.473,223.781z
			 M37.891,208.903c15.308,9.168,37.247,11.229,46.536,12.101c16.071,1.51,34.283,0.685,52.202-2.246
			c-15.857,1.242-34.236,1.127-55.242-1.265C65.14,215.132,49.658,212.606,37.891,208.903z M209.397,182.776
			c0.727,3.173,0.172,6.155-1.601,8.494c-4.484,5.872-13.519,11.736-25.415,16.835c11.973-3.833,20.394-8.039,25.449-10.971
			c3.482-2.02,5.242-4.364,5.231-6.969C213.051,187.631,211.474,185.062,209.397,182.776z M20.038,185.427
			c-1.649,3.276-1.981,6.257-0.982,8.901c1.071,2.835,3.552,5.284,7.11,7.43c-2.892-3.598-4.813-7.661-5.81-12.258
			C20.042,188.052,19.951,186.695,20.038,185.427z"/>
	</g>
	<g>
		<path d="M162.313,275.281c-3.567,0-7.866-1.148-12.882-3.447c-1.958-0.359-3.619-1.212-4.922-2.545
			c-0.346-0.354-0.381-0.909-0.081-1.304c0.3-0.395,0.844-0.509,1.277-0.272c1.493,0.819,2.925,1.547,4.297,2.186
			c1.617,0.256,3.28,0.087,4.664-0.195c6.629-1.359,13.938-6.556,17.538-12.12c0.979-15.743-0.943-44.027-14.409-67.802
			c-9.384-16.568-26.103-38.107-42.593-54.874c-18.764-19.079-34.977-29.841-44.506-29.567c-0.024,0-0.047,0-0.072,0
			c-1.303,0.138-2.536,0.413-3.696,0.826c-0.549,0.279-1.12,0.65-1.682,1.141c-2.584,2.263-4.013,6.211-4.249,11.736
			c-0.023,0.552-0.472,0.973-1.042,0.957c-0.552-0.023-0.98-0.49-0.957-1.042c0.14-3.288,0.688-6.091,1.635-8.389
			c-4.868,5.72-5.465,14.057-5.471,14.161c-0.035,0.551-0.513,0.972-1.061,0.935c-0.551-0.035-0.97-0.509-0.935-1.06
			c0.036-0.57,0.985-14.018,10.81-19.311c0.702-0.378,1.429-0.704,2.183-0.978c2.06-1.003,3.888-1.005,4.44-0.982
			c6.289-0.596,13.949,1.674,22.896,6.798c17.037,9.757,42.865,32.343,62.164,60.807c27.443,40.476,25.992,68.243,19.942,84.411
			c-0.342,0.884-0.786,1.772-1.318,2.655c-0.441,6.438-1.415,10.96-2.456,12.506C169.689,273.691,166.507,275.281,162.313,275.281z
			 M154.553,271.762c7.551,2.623,12.787,1.838,15.617-2.367c0.612-0.908,1.283-3.801,1.732-8.123
			c-4.231,4.931-10.8,9.153-16.833,10.391C154.896,271.698,154.724,271.731,154.553,271.762z M87.001,109.006
			c24.002,14.299,57.144,52.617,72.535,79.789c12.1,21.362,15.252,46.728,14.98,63.596c5.163-15.994,5.208-42.396-20.511-80.329
			c-19.119-28.199-44.666-50.551-61.502-60.194C90.604,110.78,88.77,109.826,87.001,109.006z"/>
	</g>
	<g>
		<path d="M73.541,274.687c-6,0-10.648-1.847-13.817-5.49c-4.127-4.746-5.489-12.373-4.047-22.669
			c0.721-5.146,2.56-12.432,5.321-21.075c2.398-13.77,10.417-49.159,33.182-81.898c7.201-10.356,14.581-18.887,21.938-25.359
			c12.831-14.933,24.518-21.187,34.478-18.494c2.749,0.547,5.326,1.696,7.603,3.402l0.963,0.154
			c8.431,1.369,8.188,15.18,8.173,15.767c-0.012,0.508-0.404,0.926-0.91,0.972c-0.5,0.043-0.965-0.295-1.069-0.793
			c-1.277-6.173-4.031-11.077-7.972-14.202c-1.52-0.228-3.537-0.473-5.98-0.473c-11.062,0-22.453,5.072-33.86,15.077
			c-21.56,25.153-43.774,72.5-54.598,106.325c-2.756,15.896-2.894,29.435-0.359,35.342c3.63,8.462,10.44,10.237,15.514,10.237
			c3.148,0,6.572-0.679,9.901-1.963c1.213-0.496,2.396-1.038,3.516-1.611c0.489-0.253,1.087-0.06,1.342,0.426
			s0.07,1.086-0.414,1.346c-1.183,0.634-2.43,1.205-3.707,1.698C83.548,273.521,78.152,274.687,73.541,274.687z M59.215,238.98
			c-0.723,2.979-1.248,5.608-1.559,7.824c-1.358,9.697-0.155,16.789,3.576,21.079c2.496,2.869,6.101,4.465,10.73,4.755
			c-4.233-1.293-8.513-4.278-11.216-10.578C58.842,257.621,58.336,249.276,59.215,238.98z M105.974,131.457
			c-3.407,3.993-6.799,8.415-10.154,13.239c-16.165,23.248-24.82,47.85-29.298,64.937c4.867-12.938,10.84-26.726,17.179-39.56
			C89.208,158.921,96.993,144.448,105.974,131.457z M145.943,101.088c-5.868,0-12.355,3.104-19.368,9.251
			c8.335-5.19,16.649-7.812,24.826-7.812c0.637,0,1.246,0.016,1.826,0.043c-0.989-0.401-2.021-0.71-3.09-0.924
			C148.739,101.271,147.35,101.088,145.943,101.088z"/>
	</g>
	<g>
		<path fill="#C2C2C2" d="M220,152.666c-0.275,0-0.546-0.113-0.74-0.328c-0.302-0.332-0.345-0.823-0.107-1.203
			c0.103-0.163,0.205-0.326,0.307-0.488c-0.52,0.19-0.966,0.305-1.349,0.347c-0.433,0.049-0.828-0.179-1.012-0.56
			c-0.184-0.383-0.106-0.84,0.194-1.141c0.111-0.112,10.95-11.1,14.015-25.427c-5.016-0.538-13.649-0.78-21.329-0.996
			c-12.965-0.364-18.362-0.59-19.534-1.372c-0.558-0.372-1.134-0.756-1.488-11.996c-0.204-6.49-0.268-15.121-0.18-24.31
			c-1.654-13.404-3.037-30.498-4.11-50.807c-0.026-0.487,0.303-0.921,0.779-1.028l0.825-0.186
			c7.639-1.725,17.146-3.871,37.771-3.871c8.627,0,18.764,0.38,30.134,1.129c19.504-2.009,47.801-4.399,72.016-4.399
			c13.65,0,24.199,0.782,31.353,2.325c0.411,0.089,0.723,0.425,0.78,0.842c1.986,14.57,3.692,82.463-4.208,92.424
			c-0.189,0.239-0.478,0.378-0.783,0.378c-9.477,0-21.992-0.156-35.246-0.439c-26.201,1.983-59.006,2.986-62.715,3.096
			c-1.75,1.44-11.799,9.681-21.02,16.486c-7.053,6.489-11.73,10.331-13.905,11.418C220.305,152.632,220.152,152.666,220,152.666z
			 M235.141,115.599c2.07,0,3.608,0.023,4.573,0.069c0.278,0.013,0.538,0.142,0.718,0.355c0.179,0.213,0.262,0.491,0.227,0.768
			c-0.437,3.489-9.661,18.953-15.412,28.32c2.206-1.454,4.825-3.297,7.832-5.514c8.204-7.554,17.562-16.803,23.204-22.626
			c0.272-0.282,0.688-0.376,1.054-0.246c2.648,0.946,28.171,2.137,60.696,2.834c29.045-2.203,32.634-4.326,33.041-4.925
			c1.503-4.512,1.917-50.081,1.927-74.375c-7.358-0.565-56.197-4.316-65.068-4.929c-12.355-1.258-23.688-2.23-33.719-2.894
			c-23.938,2.469-48.312,5.832-61.065,8.417c-1.491,6.459-2.208,27.617-2.369,44.226c3.272,26.444,6.644,30.67,7.279,31.246
			C200.88,116.246,224.192,115.599,235.141,115.599z M191.719,119.896c1.698,0.509,10.881,0.767,18.316,0.975
			c8.707,0.245,17.712,0.498,22.595,1.138c0.272,0.036,0.518,0.182,0.679,0.403c0.161,0.222,0.225,0.5,0.175,0.77
			c-0.54,2.923-1.387,5.707-2.407,8.303c4.253-7.342,6.499-11.778,7.281-13.86c-0.853-0.018-1.929-0.026-3.217-0.026
			c-11.578,0-37.05,0.727-37.306,0.734c-0.054,0.002-0.104-0.001-0.156-0.008c-1.202-0.154-3.969-2.592-6.917-19.513
			C190.86,110.641,191.26,118.334,191.719,119.896z M257.313,118.779c-2.467,2.538-5.581,5.67-8.971,9.006
			c3.564-2.859,5.968-4.847,6.02-4.889c0.172-0.143,0.387-0.223,0.609-0.229c0.26-0.007,19.583-0.56,40.822-1.698
			C278.841,120.432,261.551,119.662,257.313,118.779z M336.172,119.874c6.126,0.08,11.777,0.123,16.651,0.126
			c6.727-10.153,5.763-72.533,3.609-89.833c-7-1.418-17.167-2.136-30.241-2.136c-19.704,0-42.135,1.59-60.295,3.264
			c6.95,0.563,14.379,1.247,22.205,2.044c9.526,0.657,65.412,4.954,65.976,4.998c0.521,0.04,0.923,0.475,0.923,0.997
			c0,2.852-0.021,69.906-2.052,75.984C352.614,116.318,352.056,117.988,336.172,119.874z M186.709,35.123
			c0.676,12.639,1.473,24.011,2.381,34.003c0.387-12.958,1.117-25.263,2.28-29.397c0.101-0.36,0.394-0.633,0.76-0.709
			c10.747-2.223,29.525-4.944,49.893-7.271c-6.549-0.299-12.566-0.449-17.981-0.449c-20.401,0-29.788,2.119-37.33,3.822
			L186.709,35.123z"/>
	</g>
</g>
<g id="Sparcles">
	<g>
		<path fill="#F5952F" d="M214.062,149c3.869,0,3.869-6,0-6S210.193,149,214.062,149L214.062,149z"/>
	</g>
	<g>
		<path fill="#F5952F" d="M214.062,131c3.869,0,3.869-6,0-6S210.193,131,214.062,131L214.062,131z"/>
	</g>
	<g>
		<path fill="#F5952F" d="M179.916,94.333c3.869,0,3.869-6,0-6S176.047,94.333,179.916,94.333L179.916,94.333z"/>
	</g>
	<g>
		<path fill="#F5952F" d="M258.666,135c3.869,0,3.869-6,0-6S254.797,135,258.666,135L258.666,135z"/>
	</g>
	<g>
		<path fill="#F5952F" d="M297.333,112.333c3.869,0,3.869-6,0-6S293.464,112.333,297.333,112.333L297.333,112.333z"/>
	</g>
	<g>
		<path fill="#F5952F" d="M365.5,114.667c3.869,0,3.869-6,0-6S361.631,114.667,365.5,114.667L365.5,114.667z"/>
	</g>
	<g>
		<path fill="#F5952F" d="M368,66.667c3.869,0,3.869-6,0-6S364.131,66.667,368,66.667L368,66.667z"/>
	</g>
	<g>
		<path fill="#F5952F" d="M374,81c3.869,0,3.869-6,0-6S370.131,81,374,81L374,81z"/>
	</g>
	<g>
		<path fill="#F5952F" d="M376.333,98c3.869,0,3.869-6,0-6S372.464,98,376.333,98L376.333,98z"/>
	</g>
	<g>
		<path fill="#F5952F" d="M362.5,129.167c3.869,0,3.869-6,0-6S358.631,129.167,362.5,129.167L362.5,129.167z"/>
	</g>
	<g>
		<path fill="#F5952F" d="M189,63.333c3.869,0,3.869-6,0-6S185.13,63.333,189,63.333L189,63.333z"/>
	</g>
	<g>
		<path fill="#F5952F" d="M24.481,166.833c3.869,0,3.869-6,0-6S20.612,166.833,24.481,166.833L24.481,166.833z"/>
	</g>
	<g>
		<path fill="#F5952F" d="M183.416,70.833c3.869,0,3.869-6,0-6S179.547,70.833,183.416,70.833L183.416,70.833z"/>
	</g>
	<g>
		<path fill="#F5952F" d="M177.916,79.833c3.869,0,3.869-6,0-6S174.047,79.833,177.916,79.833L177.916,79.833z"/>
	</g>
	<g>
		<path fill="#F5952F" d="M196,215.333c3.869,0,3.869-6,0-6S192.13,215.333,196,215.333L196,215.333z"/>
	</g>
	<g>
		<path fill="#F5952F" d="M214.062,176.333c3.869,0,3.869-6,0-6S210.193,176.333,214.062,176.333L214.062,176.333z"/>
	</g>
	<g>
		<path fill="#F5952F" d="M129.666,119.333c3.869,0,3.869-6,0-6S125.797,119.333,129.666,119.333L129.666,119.333z"/>
	</g>
	<g>
		<path fill="#F5952F" d="M214.062,197.333c3.869,0,3.869-6,0-6S210.193,197.333,214.062,197.333L214.062,197.333z"/>
	</g>
	<g>
		<path fill="#F5952F" d="M174.666,46.667c3.869,0,3.869-6,0-6S170.797,46.667,174.666,46.667L174.666,46.667z"/>
	</g>
	<g>
		<path fill="#F5952F" d="M182.666,26.333c3.869,0,3.869-6,0-6S178.797,26.333,182.666,26.333L182.666,26.333z"/>
	</g>
	<g>
		<path fill="#F5952F" d="M153.666,116.667c3.869,0,3.869-6,0-6S149.797,116.667,153.666,116.667L153.666,116.667z"/>
	</g>
	<g>
		<path fill="#F5952F" d="M106.666,228.333c3.869,0,3.869-6,0-6S102.797,228.333,106.666,228.333L106.666,228.333z"/>
	</g>
	<g>
		<path fill="#F5952F" d="M91.167,234c3.869,0,3.869-6,0-6S87.297,234,91.167,234L91.167,234z"/>
	</g>
	<g>
		<path fill="#F5952F" d="M72.167,235c3.869,0,3.869-6,0-6S68.297,235,72.167,235L72.167,235z"/>
	</g>
	<g>
		<path fill="#F5952F" d="M54.167,230c3.869,0,3.869-6,0-6S50.297,230,54.167,230L54.167,230z"/>
	</g>
	<g>
		<path fill="#F5952F" d="M200,185.666c3.869,0,3.869-6,0-6S196.131,185.666,200,185.666L200,185.666z"/>
	</g>
</g>
</svg>
