<?xml version="1.0" encoding="utf-8"?>
<!-- Generator: Adobe Illustrator 16.0.0, SVG Export Plug-In . SVG Version: 6.00 Build 0)  -->
<!DOCTYPE svg PUBLIC "-//W3C//DTD SVG 1.1//EN" "http://www.w3.org/Graphics/SVG/1.1/DTD/svg11.dtd">
<svg version="1.1" id="Ebene_1" xmlns="http://www.w3.org/2000/svg" xmlns:xlink="http://www.w3.org/1999/xlink" x="0px" y="0px"
	 width="400px" height="300px" viewBox="0 0 400 300" enable-background="new 0 0 400 300" xml:space="preserve">
<g id="Ebene_4">
	<path fill="#FFFFFF" d="M166.575,165.56L40.968,94.141l-2.68-4.359l-4.622-3.807L16.04,33.915l50.349,2.373l102.006,92.507
		l0.201-32.215c0,0,8.484-6.362,12.118,0c-0.016,5.959,0,9.192,0,9.192l72.313-8.484l90.49-17.428l45.649,26.72l-39.589,20.602
		l-168.864,11.312l-1.716,139.573l-16.159-0.202l4.14-68.272l-64.636,28.683l-8.888-8.887l6.867-16.564l67.464-39.588
		L166.575,165.56z"/>
</g>
<g id="grau">
	
		<polyline fill="none" stroke="#000000" stroke-width="2" stroke-linecap="round" stroke-linejoin="round" stroke-miterlimit="10" points="
		166.581,175.256 100.322,212.825 93.455,229.389 104.361,235.045 164.151,208.785 102.342,238.277 93.455,233.022 102.746,215.652 
		164.959,175.256 	"/>
	<path fill="none" stroke="#BFC2C9" stroke-width="2" stroke-linecap="round" stroke-linejoin="round" stroke-miterlimit="10" d="
		M162.838,277.866c0,0,6.874-176.639,5.757-181.286c0,0,4.848-7.169,12.118,0c-3.231,0-8.735-1.813-10.126,2.359l-5.564,176.662"/>
	
		<polyline fill="none" stroke="#BFC2C9" stroke-width="2" stroke-linecap="round" stroke-linejoin="round" stroke-miterlimit="10" points="
		178.997,278.068 180.713,96.58 181.622,279.077 	"/>
	<path fill="none" stroke="#000000" stroke-width="2" stroke-linecap="round" stroke-linejoin="round" stroke-miterlimit="10" d="
		M184.349,106.579l167.649-23.835l37.167,23.835l-39.591,20.602l-165.227,11.312l163.206-15.754l33.128-17.371
		c0,0-29.087-23.835-34.338-25.451s-161.995,31.106-161.995,31.106"/>
	<path fill="none" stroke="#000000" stroke-width="2" stroke-linecap="round" stroke-linejoin="round" stroke-miterlimit="10" d="
		M166.575,127.585c-2.021-1.616-100.186-91.297-100.186-91.297l-51.71-5.791l25.046,62.898c0,0,125.761,75.778,126.849,72.167
		c1.09-3.615-132.908-79.584-132.908-79.584L12.658,33.459l50.902,6.867l103.02,89.683"/>
</g>
<g id="Sparcles">
	<g>
		<g>
			<path fill="#F5952F" d="M128.578,236.56c4.306,0,4.306-6.677,0-6.677C124.272,229.884,124.272,236.56,128.578,236.56
				L128.578,236.56z"/>
		</g>
	</g>
	<g>
		<g>
			<path fill="#F5952F" d="M149.722,223.578c4.306,0,4.306-6.679,0-6.679C145.417,216.899,145.417,223.578,149.722,223.578
				L149.722,223.578z"/>
		</g>
	</g>
	<g>
		<g>
			<path fill="#F5952F" d="M180.695,109.325c4.306,0,4.306-6.677,0-6.677S176.39,109.325,180.695,109.325L180.695,109.325z"/>
		</g>
	</g>
	<g>
		<g>
			<path fill="#F5952F" d="M217.049,100.979c4.306,0,4.306-6.677,0-6.677S212.743,100.979,217.049,100.979L217.049,100.979z"/>
		</g>
	</g>
	<g>
		<g>
			<path fill="#F5952F" d="M171.237,206.142c4.305,0,4.305-6.678,0-6.678C166.93,199.465,166.93,206.142,171.237,206.142
				L171.237,206.142z"/>
		</g>
	</g>
	<g>
		<g>
			<path fill="#F5952F" d="M252.103,127.873c4.307,0,4.307-6.677,0-6.677C247.797,121.196,247.797,127.873,252.103,127.873
				L252.103,127.873z"/>
		</g>
	</g>
	<g>
		<g>
			<path fill="#F5952F" d="M181.524,255.107c4.305,0,4.305-6.678,0-6.678C177.219,248.429,177.219,255.107,181.524,255.107
				L181.524,255.107z"/>
		</g>
	</g>
	<g>
		<g>
			<path fill="#F5952F" d="M175.131,232.666c4.306,0,4.306-6.677,0-6.677C170.826,225.989,170.826,232.666,175.131,232.666
				L175.131,232.666z"/>
		</g>
	</g>
	<g>
		<g>
			<path fill="#F5952F" d="M101.5,64.821c4.305,0,4.305-6.677,0-6.677C97.193,58.144,97.193,64.821,101.5,64.821L101.5,64.821z"/>
		</g>
	</g>
	<g>
		<g>
			<path fill="#F5952F" d="M67.001,54.055c4.306,0,4.306-6.677,0-6.677S62.694,54.055,67.001,54.055L67.001,54.055z"/>
		</g>
	</g>
	<g>
		<g>
			<path fill="#F5952F" d="M299.674,137.425c4.306,0,4.306-6.677,0-6.677S295.368,137.425,299.674,137.425L299.674,137.425z"/>
		</g>
	</g>
	<g>
		<g>
			<path fill="#F5952F" d="M329.999,123.793c4.306,0,4.306-6.678,0-6.678S325.693,123.793,329.999,123.793L329.999,123.793z"/>
		</g>
	</g>
	<g>
		<g>
			<path fill="#F5952F" d="M355.038,119.619c4.306,0,4.306-6.677,0-6.677C350.731,112.942,350.731,119.619,355.038,119.619
				L355.038,119.619z"/>
		</g>
	</g>
</g>
</svg>
