<?xml version="1.0" encoding="utf-8"?>
<!-- Generator: Adobe Illustrator 16.0.0, SVG Export Plug-In . SVG Version: 6.00 Build 0)  -->
<!DOCTYPE svg PUBLIC "-//W3C//DTD SVG 1.1//EN" "http://www.w3.org/Graphics/SVG/1.1/DTD/svg11.dtd">
<svg version="1.1" xmlns="http://www.w3.org/2000/svg" xmlns:xlink="http://www.w3.org/1999/xlink" x="0px" y="0px"
	 width="581.956px" height="360px" viewBox="0 0 581.956 360" enable-background="new 0 0 581.956 360" xml:space="preserve">
<g id="Ebene_9">
	<g id="Ebene_9_1_">
		<path fill="#020000" d="M153.724,226.373c0,0-22.893,49.874-28.649,71.138c-3.798,14.032-4.443,54.57-3.469,56.908
			c0.974,2.34,60.757,12.638,96.422-2.563c0,0,0.011-7.376,0.011-9.909c0-2.532-2.729-5.262-6.236-6.82
			c2.376,1.314,5.064-1.087,4.773-2.786c-0.471-2.75,0.294-7.934-2.824-8.323c-3.118-0.39,0-1.754,0.975-2.338
			c0.974-0.585-1.364-6.237-2.339-7.406c-0.974-1.169-0.584-4.093-1.169-6.82c-0.584-2.729-1.364-7.602-4.872-14.265
			c-2.347-4.455-0.195-24.521,6.626-36.994c-1.364,0-7.016,1.561-33.911-10.523C166.781,240.405,153.724,226.373,153.724,226.373z"
			/>
		<path fill="#F7941E" d="M220.669,240.697c0,0-0.194,7.698-3.605,7.503c-1.169,1.364,0.487,5.264-2.631,5.264
			c-3.118,0,5.75,5.358-12.765,1.753c-28.81-7.914-43.783-23.84-50.478-31.183c0,0-2.534-5.263,1.949-5.847
			c4.482-0.585,0.584-3.119,0.584-3.119s-2.144-4.093,5.067-6.042c-1.364-1.363-4.775-5.979-0.682-7.148
			c4.093-1.169,6.236-2.205,5.554-3.473c0,0-1.049-4.816,2.433-4.736c7.575,5.929,50.429,35.752,60.697,42.846
			c0,0-2.364,0.364-3.493,2.722c0,0,0.097,1.462-1.267,1.462"/>
		<path fill="#020000" d="M275.46,253.753c0,0-0.825,1.8-1.346,2.062c0,0-10.275,1.061-29.57-7.612c0,0-30.793-12.862-87.409-57.492
			c-20.873-16.454-28.486-26.537-32.645-39.272c0.954-1.604,1.026-1.763,1.418-2.333"/>
		<path fill="#020000" d="M138.327,170.049c0,0,39.25,43.724,113.298,79.389c21.309,10.135,30.922,6.313,19.229-4.99
			c-11.694-11.305-51.658-46.527-113.633-81.608c-21.049-11.693-34.161-19.37-31.172-10.622
			C128.723,160.046,136.886,168.729,138.327,170.049z"/>
		<path d="M179.645,187.19c0,0-6.988-2.729-1.726,1.949c5.262,4.677,45.935,34.105,51.423,34.105c3.118,0-4.135-5.521-17.672-15.606
			C205.226,202.837,194.38,195.144,179.645,187.19z"/>
	</g>
</g>
<g id="Ebene_4">
	<g id="Test_Cases_rechts">
		
			<path fill="none" stroke="#000000" stroke-width="2.1736" stroke-linecap="round" stroke-linejoin="round" stroke-miterlimit="10" d="
			M422.37,355.089c0,0,120.632-1.45,130.775-1.45s-46.007-8.694-46.007-8.694"/>
		
			<path fill="none" stroke="#000000" stroke-width="2.1736" stroke-linecap="round" stroke-linejoin="round" stroke-miterlimit="10" d="
			M544.089,344.944c-1.812,0-52.89-1.812-98.897,3.261"/>
		
			<line fill="none" stroke="#000000" stroke-width="2.1736" stroke-linecap="round" stroke-linejoin="round" stroke-miterlimit="10" x1="422.37" y1="343.496" x2="469.826" y2="342.409"/>
		
			<path fill="none" stroke="#000000" stroke-width="2.1736" stroke-linecap="round" stroke-linejoin="round" stroke-miterlimit="10" d="
			M450.626,338.787c0,0-22.461-5.435-30.068-4.348c46.37-2.536,95.637-4.347,114.475-2.898c-7.97-4.347-89.84-4.709-89.84-4.709
			s104.331-6.521,105.418-6.159"/>
		
			<polyline fill="none" stroke="#000000" stroke-width="2.1736" stroke-linecap="round" stroke-linejoin="round" stroke-miterlimit="10" points="
			516.195,322.485 561.84,326.832 540.829,332.628 		"/>
		
			<line fill="none" stroke="#000000" stroke-width="2.1736" stroke-linecap="round" stroke-linejoin="round" stroke-miterlimit="10" x1="548.798" y1="314.152" x2="438.309" y2="312.704"/>
		
			<path fill="none" stroke="#000000" stroke-width="2.1736" stroke-linecap="round" stroke-linejoin="round" stroke-miterlimit="10" d="
			M419.834,310.167c0,0,97.086-5.07,107.954-2.535"/>
		
			<path fill="none" stroke="#000000" stroke-width="2.1736" stroke-linecap="round" stroke-linejoin="round" stroke-miterlimit="10" d="
			M556.044,302.198c0,0-49.629-2.898-67.38-5.072"/>
		
			<path fill="none" stroke="#000000" stroke-width="2.1736" stroke-linecap="round" stroke-linejoin="round" stroke-miterlimit="10" d="
			M536.12,296.039c0,0-73.901-0.725-95.637,2.174"/>
		
			<path fill="none" stroke="#000000" stroke-width="2.1736" stroke-linecap="round" stroke-linejoin="round" stroke-miterlimit="10" d="
			M532.497,287.345c14.128,0-95.999-3.623-102.519-1.087c0,0,82.595-9.056,104.331-9.056"/>
		
			<path fill="none" stroke="#000000" stroke-width="2.1736" stroke-linecap="round" stroke-linejoin="round" stroke-miterlimit="10" d="
			M532.497,280.101c1.087,0,26.808-2.536,26.808-2.536s-39.124-15.578-89.479-14.129"/>
		
			<path fill="none" stroke="#000000" stroke-width="2.1736" stroke-linecap="round" stroke-linejoin="round" stroke-miterlimit="10" d="
			M523.802,268.87l-76.074,5.071c0,0-21.018-6.792-30.792-7.607c38.037-6.158,73.901-6.158,98.897-5.071"/>
		
			<path fill="none" stroke="#000000" stroke-width="2.1736" stroke-linecap="round" stroke-linejoin="round" stroke-miterlimit="10" d="
			M543.002,256.191c0,0-78.972-7.971-110.852-2.898"/>
		
			<path fill="none" stroke="#000000" stroke-width="2.1736" stroke-linecap="round" stroke-linejoin="round" stroke-miterlimit="10" d="
			M536.12,240.375c0,0-37.997,9.792-114.127,6.602c18.491-2.981,23.2-4.477,26.838-6.602"/>
		
			<path fill="#FCFCFC" stroke="#000000" stroke-width="2.1736" stroke-linecap="round" stroke-linejoin="round" stroke-miterlimit="10" d="
			M451.713,217.333c44.833,2,89.493-23.833,89.493-23.833s19.083,9.167,27.412,2.246c-6.917,17.5-35.534,26.763-52.599,31.141
			C502.206,230.845,451.713,217.333,451.713,217.333"/>
		
			<path fill="#FCFCFC" stroke="#000000" stroke-width="2.1736" stroke-linecap="round" stroke-linejoin="round" stroke-miterlimit="10" d="
			M525.206,206.25c0,0,13.614,6.958,16.95,7"/>
		
			<path fill="#FCFCFC" stroke="#000000" stroke-width="2.1736" stroke-linecap="round" stroke-linejoin="round" stroke-miterlimit="10" d="
			M531.956,203.25c0,0,14,7.08,15.5,7.165"/>
		
			<path fill="#FCFCFC" stroke="#000000" stroke-width="2.1736" stroke-linecap="round" stroke-linejoin="round" stroke-miterlimit="10" d="
			M538.293,200c0,0,10.912,5.914,14.162,6.832"/>
	</g>
	<g id="Test_Cases_links">
		
			<path fill="#FFFFFF" stroke="#000000" stroke-width="2.1736" stroke-linecap="round" stroke-linejoin="round" stroke-miterlimit="10" d="
			M32.002,50.581c0,0,11.287,31.086,3.26,44.005C71.041,81.918,98.599,73,122.444,90.333c0,0,26.513-22.943,25.179-30.943
			S60.189,21.914,32.002,50.581z"/>
		
			<path fill="#FFFFFF" stroke="#000000" stroke-width="2.1736" stroke-linecap="round" stroke-linejoin="round" stroke-miterlimit="10" d="
			M165.289,103.961c5.667,6.586,47,46.705,45.667,66.039c0,5-3.667,5.667-16.667-4.845c4.708-20.22-18-32.488-40-43.822
			c23.333-26.167,3.667-15.667,3.667-15.667s2.256,1.181,4.756,5.348"/>
		
			<path fill="#FFFFFF" stroke="#000000" stroke-width="2.1736" stroke-linecap="round" stroke-linejoin="round" stroke-miterlimit="10" d="
			M230.956,181.502c0,0,7.823-14.836,17.578-12.169c10.422-22,35.088-61.333,54.422-67.333c0,0,8.667-18-26.667-26.667
			S220.332,169.654,230.956,181.502z"/>
		
			<path fill="#FFFFFF" stroke="#000000" stroke-width="2.1736" stroke-linecap="round" stroke-linejoin="round" stroke-miterlimit="10" d="
			M328.956,91.333c0,0,8.667-29.333,0-40c24-8.667,85.333-11.333,106,8.667c6,22,4,39.172,0,45.586
			C425.623,102,375.622,81.333,328.956,91.333z"/>
		
			<path fill="#FCFCFC" stroke="#000000" stroke-width="2.1736" stroke-linecap="round" stroke-linejoin="round" stroke-miterlimit="10" d="
			M516.999,116.448c36.623,0,65.363,47.885,55.018,65.218c-1.395-21.164-16.663-1.999-16.663-1.999s-4.722-49.039-68.146-45.706
			c1.081-3.961,2.914-5.802,4.735-7.997"/>
		
			<path fill="none" stroke="#000000" stroke-width="2.1736" stroke-linecap="round" stroke-linejoin="round" stroke-miterlimit="10" d="
			M565.217,171.902c0,0,4.572,3.859,6.8,9.764"/>
		
			<path fill="#FFFFFF" stroke="#000000" stroke-width="2.1736" stroke-linecap="round" stroke-linejoin="round" stroke-miterlimit="10" d="
			M426.558,110c0,0,5.378,15.21-8.622,26.543c56.875,6.79,126.026-31.376,124.184-42.043
			c-10.509-11.333-24.441-23.201-38.441-24.684C495.012,81,457.973,110.252,426.558,110z"/>
	</g>
	<g id="Sparcles">
		<g>
			<g>
				<path fill="#F7941E" d="M274.456,170c3.869,0,3.869-6,0-6S270.586,170,274.456,170L274.456,170z"/>
			</g>
		</g>
		<g>
			<g>
				<path fill="#F7941E" d="M240.456,134.5c3.869,0,3.869-6,0-6S236.586,134.5,240.456,134.5L240.456,134.5z"/>
			</g>
		</g>
		<g>
			<g>
				<path fill="#F7941E" d="M305.956,156.5c3.869,0,3.869-6,0-6S302.086,156.5,305.956,156.5L305.956,156.5z"/>
			</g>
		</g>
		<g>
			<g>
				<path fill="#F7941E" d="M400.456,345.5c3.869,0,3.869-6,0-6S396.586,345.5,400.456,345.5L400.456,345.5z"/>
			</g>
		</g>
		<g>
			<g>
				<path fill="#F7941E" d="M385.456,156.5c3.869,0,3.869-6,0-6S381.586,156.5,385.456,156.5L385.456,156.5z"/>
			</g>
		</g>
		<g>
			<g>
				<path fill="#F7941E" d="M316.956,132c3.869,0,3.869-6,0-6S313.086,132,316.956,132L316.956,132z"/>
			</g>
		</g>
		<g>
			<g>
				<path fill="#F7941E" d="M320.956,114c3.869,0,3.869-6,0-6S317.086,114,320.956,114L320.956,114z"/>
			</g>
		</g>
		<g>
			<g>
				<path fill="#F7941E" d="M334.956,93c3.869,0,3.869-6,0-6S331.086,93,334.956,93L334.956,93z"/>
			</g>
		</g>
		<g>
			<g>
				<path fill="#F7941E" d="M347.956,66c3.869,0,3.869-6,0-6S344.086,66,347.956,66L347.956,66z"/>
			</g>
		</g>
		<g>
			<g>
				<path fill="#F7941E" d="M218.956,180.667c3.869,0,3.869-6,0-6S215.086,180.667,218.956,180.667L218.956,180.667z"/>
			</g>
		</g>
		<g>
			<g>
				<path fill="#F7941E" d="M221.623,144.667c3.869,0,3.869-6,0-6S217.753,144.667,221.623,144.667L221.623,144.667z"/>
			</g>
		</g>
		<g>
			<g>
				<path fill="#F7941E" d="M217.289,105c3.869,0,3.869-6,0-6S213.42,105,217.289,105L217.289,105z"/>
			</g>
		</g>
		<g>
			<g>
				<path fill="#F7941E" d="M251.623,73c3.869,0,3.869-6,0-6S247.753,73,251.623,73L251.623,73z"/>
			</g>
		</g>
		<g>
			<g>
				<path fill="#F7941E" d="M214.289,124.333c3.869,0,3.869-6,0-6S210.42,124.333,214.289,124.333L214.289,124.333z"/>
			</g>
		</g>
		<g>
			<g>
				<path fill="#F7941E" d="M377.289,100c3.869,0,3.869-6,0-6S373.42,100,377.289,100L377.289,100z"/>
			</g>
		</g>
		<g>
			<g>
				<path fill="#F7941E" d="M433.622,76.333c3.869,0,3.869-6,0-6S429.753,76.333,433.622,76.333L433.622,76.333z"/>
			</g>
		</g>
		<g>
			<g>
				<path fill="#F7941E" d="M460.956,65c3.869,0,3.869-6,0-6S457.086,65,460.956,65L460.956,65z"/>
			</g>
		</g>
		<g>
			<g>
				<path fill="#F7941E" d="M178.289,69.333c3.869,0,3.869-6,0-6S174.42,69.333,178.289,69.333L178.289,69.333z"/>
			</g>
		</g>
		<g>
			<g>
				<path fill="#F7941E" d="M145.623,25.333c3.869,0,3.869-6,0-6S141.753,25.333,145.623,25.333L145.623,25.333z"/>
			</g>
		</g>
		<g>
			<g>
				<path fill="#F7941E" d="M276.623,9.333c3.869,0,3.869-6,0-6S272.753,9.333,276.623,9.333L276.623,9.333z"/>
			</g>
		</g>
		<g>
			<g>
				<path fill="#F7941E" d="M510.289,139.333c3.869,0,3.869-6,0-6S506.42,139.333,510.289,139.333L510.289,139.333z"/>
			</g>
		</g>
		<g>
			<g>
				<path fill="#F7941E" d="M575.289,201.333c3.869,0,3.869-6,0-6S571.42,201.333,575.289,201.333L575.289,201.333z"/>
			</g>
		</g>
		<g>
			<g>
				<path fill="#F7941E" d="M490.622,231c3.869,0,3.869-6,0-6S486.753,231,490.622,231L490.622,231z"/>
			</g>
		</g>
		<g>
			<g>
				<path fill="#F7941E" d="M544.289,240.667c3.869,0,3.869-6,0-6S540.42,240.667,544.289,240.667L544.289,240.667z"/>
			</g>
		</g>
		<g>
			<g>
				<path fill="#F7941E" d="M563.289,267.333c3.869,0,3.869-6,0-6S559.42,267.333,563.289,267.333L563.289,267.333z"/>
			</g>
		</g>
		<g>
			<g>
				<path fill="#F7941E" d="M526.956,286.667c3.869,0,3.869-6,0-6S523.086,286.667,526.956,286.667L526.956,286.667z"/>
			</g>
		</g>
		<g>
			<g>
				<path fill="#F7941E" d="M533.289,282c3.869,0,3.869-6,0-6S529.42,282,533.289,282L533.289,282z"/>
			</g>
		</g>
		<g>
			<g>
				<path fill="#F7941E" d="M537.622,295.333c3.869,0,3.869-6,0-6S533.753,295.333,537.622,295.333L537.622,295.333z"/>
			</g>
		</g>
	</g>
	<g id="Ebene_8">
		<path fill="none" stroke="#000000" stroke-width="2" stroke-linecap="round" stroke-linejoin="round" stroke-miterlimit="10" d="
			M256.543,104.005c0,0,3.531-8.461,10.059-3.75c6.528,4.711-14.174,18.382-18.48,25.49c3.593-1.648,6.834-0.288,9.453-0.332"/>
		<path fill="none" stroke="#000000" stroke-width="2" stroke-linecap="round" stroke-linejoin="round" stroke-miterlimit="10" d="
			M276.346,102.576l-11.488,15.65c0,0,6.106-0.267,10.069,2.8"/>
		<path fill="none" stroke="#000000" stroke-width="2" stroke-linecap="round" stroke-linejoin="round" stroke-miterlimit="10" d="
			M277.94,112.209c0,0-8.624,6.177-14.39,16.269"/>
		<path fill="none" stroke="#000000" stroke-width="2" stroke-linecap="round" stroke-linejoin="round" stroke-miterlimit="10" d="
			M240.456,138.556c0,0,16.25-4.056,20.25,0.444"/>
		<path fill="none" stroke="#000000" stroke-width="2" stroke-linecap="round" stroke-linejoin="round" stroke-miterlimit="10" d="
			M238.706,146.543c0,0,11.875-4.877,16.75,0"/>
		<path fill="none" stroke="#000000" stroke-width="2" stroke-linecap="round" stroke-linejoin="round" stroke-miterlimit="10" d="
			M236.456,156.5c0,0,11.666-8.5,14.125-3.333"/>
		<path fill="none" stroke="#000000" stroke-width="2" stroke-linecap="round" stroke-linejoin="round" stroke-miterlimit="10" d="
			M236.456,164.25c0,0,9.5-9.5,11.666-3.646"/>
		<path fill="none" stroke="#000000" stroke-width="2" stroke-linecap="round" stroke-linejoin="round" stroke-miterlimit="10" d="
			M415.956,57.5c0,0,8,7.75,0.5,10c-6.082,1.825-18.5-12.19-18.5-12.19l-0.435,11.024"/>
		<path fill="none" stroke="#000000" stroke-width="2" stroke-linecap="round" stroke-linejoin="round" stroke-miterlimit="10" d="
			M417.936,78.691c0,0,3.5,4.059,0,5.559s-7.98,0-7.23-5.25c-1,3.25-2.75,7.75-8,5s-9.25-11.083-3-12.667"/>
		<path fill="none" stroke="#000000" stroke-width="2" stroke-linecap="round" stroke-linejoin="round" stroke-miterlimit="10" d="
			M385.456,52.75c0,0,3.037,9-1.606,25"/>
		<path fill="none" stroke="#000000" stroke-width="2" stroke-linecap="round" stroke-linejoin="round" stroke-miterlimit="10" d="
			M378.324,52.75c0,0,2.132,7.375,0.632,13.25"/>
		<path fill="none" stroke="#000000" stroke-width="2" stroke-linecap="round" stroke-linejoin="round" stroke-miterlimit="10" d="
			M368.706,54.25c0,0,5,12.083,0,23.5"/>
		<path fill="none" stroke="#000000" stroke-width="2" stroke-linecap="round" stroke-linejoin="round" stroke-miterlimit="10" d="
			M359.706,54.25c0,0,3,11.94,0,23.5"/>
		<path fill="none" stroke="#000000" stroke-width="2" stroke-linecap="round" stroke-linejoin="round" stroke-miterlimit="10" d="
			M498.456,88.25c0,0,9.286-8.5,9.251-0.559c-0.024,5.605-24.501,11.137-24.501,11.137s4.261,2.339,4.261,4.754"/>
		<path fill="none" stroke="#000000" stroke-width="2" stroke-linecap="round" stroke-linejoin="round" stroke-miterlimit="10" d="
			M506.706,98.828c0,0,12.75-8.828,9.75,1.922c-1.834,6.572-26.417,8.457-26.417,8.457s2.708,4.844,2.417,7.241"/>
		<path fill="none" stroke="#000000" stroke-width="2" stroke-linecap="round" stroke-linejoin="round" stroke-miterlimit="10" d="
			M473.206,102.576c0,0,7.25,4.591,8.25,18.758"/>
		<path fill="none" stroke="#000000" stroke-width="2" stroke-linecap="round" stroke-linejoin="round" stroke-miterlimit="10" d="
			M465.706,105.585c0,0,6.185,10.647,5.75,18.665"/>
		<path fill="none" stroke="#000000" stroke-width="2" stroke-linecap="round" stroke-linejoin="round" stroke-miterlimit="10" d="
			M456.956,109.25c0,0,4.34,13.781,2.59,17.531"/>
		<path fill="none" stroke="#000000" stroke-width="2" stroke-linecap="round" stroke-linejoin="round" stroke-miterlimit="10" d="
			M448.206,112.286c0,0,1.75,5.99,1.25,10.214"/>
		<path fill="none" stroke="#000000" stroke-width="2" stroke-linecap="round" stroke-linejoin="round" stroke-miterlimit="10" d="
			M512.956,126.781c0,0,4.784-9.024,10.017-9.902"/>
		<path fill="none" stroke="#000000" stroke-width="2" stroke-linecap="round" stroke-linejoin="round" stroke-miterlimit="10" d="
			M522.973,128.478c0,0,2.429-9.152,7.706-9.815"/>
		<path fill="none" stroke="#000000" stroke-width="2" stroke-linecap="round" stroke-linejoin="round" stroke-miterlimit="10" d="
			M533.206,126.781c0,0,2.176-4.872,5.088-4.951"/>
		<path fill="none" stroke="#000000" stroke-width="2" stroke-linecap="round" stroke-linejoin="round" stroke-miterlimit="10" d="
			M536.12,136.333c0,0,5.4-9.345,8.743-10.589"/>
		<path fill="none" stroke="#000000" stroke-width="2" stroke-linecap="round" stroke-linejoin="round" stroke-miterlimit="10" d="
			M565.217,151.57l-1.988,7.127c0,0-4.274-12.281-12.024-19.698"/>
		<path fill="none" stroke="#000000" stroke-width="2" stroke-linecap="round" stroke-linejoin="round" stroke-miterlimit="10" d="
			M514.456,224.25c0,0-8.999,2.25-5.25-2.25s19.662-4.336,19.662-4.336l-5.895-3.164"/>
		<path fill="none" stroke="#000000" stroke-width="2" stroke-linecap="round" stroke-linejoin="round" stroke-miterlimit="10" d="
			M495.456,218.656c0,0-4.5,2.354,2,2.344c4.257-0.007,25.255-9.109,19.457-10.443C515.037,210.125,510.164,210.156,495.456,218.656
			z"/>
	</g>
</g>
</svg>
