<?xml version="1.0" encoding="utf-8"?>
<!-- Generator: Adobe Illustrator 16.0.0, SVG Export Plug-In . SVG Version: 6.00 Build 0)  -->
<!DOCTYPE svg PUBLIC "-//W3C//DTD SVG 1.1//EN" "http://www.w3.org/Graphics/SVG/1.1/DTD/svg11.dtd">
<svg version="1.1" id="Vorlage" xmlns="http://www.w3.org/2000/svg" xmlns:xlink="http://www.w3.org/1999/xlink" x="0px" y="0px"
	 width="487.75px" height="164.203px" viewBox="0 0 487.75 164.203" enable-background="new 0 0 487.75 164.203"
	 xml:space="preserve">
<g>
	<g>
		<defs>
			<rect id="SVGID_1_" x="-98.49" y="-127.822" width="660.999" height="377.713"/>
		</defs>
		<clipPath id="SVGID_2_">
			<use xlink:href="#SVGID_1_"  overflow="visible"/>
		</clipPath>
		<g clip-path="url(#SVGID_2_)">
			<defs>
				<rect id="SVGID_3_" x="132.206" y="3.417" width="329.809" height="112.195"/>
			</defs>
			<clipPath id="SVGID_4_">
				<use xlink:href="#SVGID_3_"  overflow="visible"/>
			</clipPath>
			<path clip-path="url(#SVGID_4_)" fill="#231F20" d="M450.782,10.033c-31.859,0-47.709,24.937-47.709,49.868
				c0,24.931,15.85,49.708,47.556,49.708c2.925,0,7.695-0.153,11.079-0.459l0.307,4.617c-3.385,0.306-8.154,0.46-11.386,0.46
				c-34.784,0-52.174-27.083-52.174-54.326c0-27.396,17.39-54.485,52.327-54.485c3.231,0,7.848,0.153,11.232,0.466l-0.307,4.617
				C458.324,10.187,453.707,10.033,450.782,10.033"/>
			<path clip-path="url(#SVGID_4_)" fill="#231F20" d="M383.219,22.345l-4.312,1.853c-4.31-9.7-13.078-14.624-23.238-15.237V4.343
				C367.676,4.956,378.294,10.806,383.219,22.345"/>
			<path clip-path="url(#SVGID_4_)" fill="#231F20" d="M349.514,110.995v4.617c-12.159-0.613-22.626-6.463-27.55-18.162l4.311-1.846
				C330.585,105.3,339.354,110.383,349.514,110.995"/>
			<path clip-path="url(#SVGID_4_)" fill="#231F20" d="M379.215,86.064c0-12.932-15.077-19.701-27.396-24.011
				c-13.844-4.771-30.467-12.466-30.467-28.316c0-16.622,12.771-28.475,29.701-29.394v4.617
				c-14.463,0.919-25.084,10.926-25.084,24.776c0,12.926,15.077,19.701,27.396,24.005c13.852,4.777,30.468,12.473,30.468,28.322
				c0,16.623-12.926,28.628-29.7,29.548v-4.616C368.442,109.916,379.215,100.068,379.215,86.064"/>
			<polygon clip-path="url(#SVGID_4_)" fill="#231F20" points="284.875,80.062 286.567,84.68 245.014,84.68 246.706,80.062 			"/>
			<polygon clip-path="url(#SVGID_4_)" fill="#231F20" points="291.47,84.679 268.252,23.118 268.245,23.118 265.793,16.582 
				263.336,23.118 263.329,23.118 240.117,84.679 228.858,114.533 224.547,112.994 265.793,3.418 307.04,112.994 307.033,112.994 
				302.73,114.533 			"/>
			<rect x="190.382" y="15.27" clip-path="url(#SVGID_4_)" fill="#231F20" width="4.617" height="98.497"/>
			<rect x="156.83" y="6.035" clip-path="url(#SVGID_4_)" fill="#231F20" width="71.721" height="4.617"/>
			<rect x="133.745" y="31.272" clip-path="url(#SVGID_4_)" fill="#231F20" width="4.617" height="82.494"/>
			<rect x="132.206" y="6.035" clip-path="url(#SVGID_4_)" fill="#F4932F" width="7.695" height="7.695"/>
		</g>
		<g clip-path="url(#SVGID_2_)">
			<defs>
				<rect id="SVGID_5_" x="-98.487" y="-127.819" width="660.996" height="377.71"/>
			</defs>
			<clipPath id="SVGID_6_">
				<use xlink:href="#SVGID_5_"  overflow="visible"/>
			</clipPath>
			<path clip-path="url(#SVGID_6_)" fill="#231F20" d="M118.821,60.363c0,12.492-3.91,24.065-10.58,33.565l-7.688-7.688
				c4.811-7.469,7.608-16.35,7.608-25.877c0-25.624-20.233-46.604-45.564-47.809V1.887c15.25,0.587,28.995,7.01,39.082,17.097
				C112.272,29.575,118.821,44.2,118.821,60.363"/>
			<path clip-path="url(#SVGID_6_)" fill="#F4932F" d="M106.376,98.572l-0.473-0.48l-0.473-0.473l-7.595-7.588v-0.007l-0.473-0.474
				l-0.473-0.466v-0.007l-6.409-6.409l-8.542-8.535l16.716-3.497l-36.057-9.66l-2.298-0.613l2.298,8.575l7.982,29.773l3.491-16.709
				l14.943,14.944l0.474,0.479l0.479,0.474c-7.601,6.017-17.062,9.781-27.369,10.273v10.666
				c13.265-0.513,25.391-5.436,34.958-13.345l0.473,0.473l0.479,0.475l13.272,13.271l7.875-7.868l-13.271-13.271H106.376z"/>
			<path clip-path="url(#SVGID_6_)" fill="#231F20" d="M57.993,108.173v10.667c-15.244-0.587-28.988-7.009-39.075-17.096
				C8.325,91.151,1.776,76.527,1.776,60.364c0-16.164,6.549-30.788,17.142-41.381C29.005,8.896,42.749,2.474,57.993,1.887v10.667
				C32.662,13.76,12.435,34.739,12.435,60.364C12.435,85.987,32.662,106.966,57.993,108.173"/>
		</g>
		<g clip-path="url(#SVGID_2_)">
			<defs>
				<rect id="SVGID_7_" x="-98.49" y="-127.822" width="660.999" height="377.713"/>
			</defs>
			<clipPath id="SVGID_8_">
				<use xlink:href="#SVGID_7_"  overflow="visible"/>
			</clipPath>
			<path clip-path="url(#SVGID_8_)" fill="#8B8B8D" d="M141.715,137.186h-5.52v9.36c0,0.613,0.013,1.18,0.04,1.7
				c0.026,0.52,0.133,0.974,0.32,1.359c0.186,0.387,0.466,0.694,0.84,0.92c0.373,0.228,0.906,0.34,1.6,0.34
				c0.453,0,0.92-0.053,1.4-0.159s0.933-0.267,1.36-0.48l0.12,2.84c-0.534,0.24-1.127,0.413-1.78,0.521
				c-0.654,0.105-1.274,0.16-1.86,0.16c-1.12,0-2.014-0.147-2.68-0.44c-0.667-0.293-1.187-0.706-1.56-1.24
				c-0.374-0.533-0.62-1.193-0.74-1.979s-0.18-1.66-0.18-2.62v-10.28h-4.08v-2.64h4.08v-5.32h3.12v5.32h5.52V137.186z"/>
			<path clip-path="url(#SVGID_8_)" fill="#8B8B8D" d="M145.594,123.025h3.12v14.12h0.08c0.213-0.373,0.506-0.74,0.88-1.099
				c0.373-0.361,0.82-0.688,1.34-0.981c0.52-0.293,1.1-0.533,1.74-0.72c0.64-0.187,1.32-0.28,2.04-0.28
				c1.226,0,2.286,0.188,3.18,0.561c0.893,0.373,1.633,0.894,2.22,1.56c0.587,0.667,1.02,1.474,1.3,2.42
				c0.28,0.947,0.42,1.981,0.42,3.101v11.56h-3.12v-11.24c0-1.573-0.347-2.812-1.04-3.72c-0.694-0.906-1.774-1.36-3.24-1.36
				c-1.014,0-1.887,0.174-2.62,0.521c-0.734,0.347-1.334,0.84-1.8,1.479c-0.467,0.642-0.813,1.4-1.04,2.28s-0.34,1.854-0.34,2.92
				v9.12h-3.12V123.025z"/>
			<path clip-path="url(#SVGID_8_)" fill="#8B8B8D" d="M184.554,149.865c-1.12,1.44-2.347,2.447-3.68,3.021
				c-1.334,0.573-2.88,0.861-4.64,0.861c-1.467,0-2.787-0.262-3.96-0.781c-1.174-0.521-2.167-1.219-2.98-2.101
				c-0.814-0.88-1.44-1.92-1.88-3.118c-0.44-1.201-0.66-2.481-0.66-3.842c0-1.439,0.24-2.766,0.72-3.979
				c0.48-1.213,1.146-2.253,2-3.12c0.853-0.866,1.866-1.54,3.04-2.021c1.173-0.479,2.453-0.72,3.84-0.72
				c1.306,0,2.506,0.22,3.6,0.66c1.093,0.44,2.033,1.08,2.82,1.92c0.786,0.84,1.393,1.867,1.82,3.08
				c0.426,1.214,0.64,2.594,0.64,4.14v1h-15.12c0.053,0.801,0.246,1.567,0.58,2.301c0.333,0.733,0.766,1.373,1.3,1.92
				c0.533,0.547,1.16,0.979,1.88,1.3s1.506,0.479,2.36,0.479c1.36,0,2.506-0.239,3.44-0.72c0.933-0.479,1.773-1.187,2.52-2.12
				L184.554,149.865z M181.874,142.226c-0.054-1.6-0.574-2.88-1.56-3.84c-0.987-0.96-2.347-1.44-4.08-1.44
				c-1.734,0-3.134,0.48-4.2,1.44c-1.067,0.96-1.707,2.24-1.92,3.84H181.874z"/>
			<path clip-path="url(#SVGID_8_)" fill="#8B8B8D" d="M201.194,138.985c0-0.853-0.027-1.653-0.08-2.399
				c-0.054-0.747-0.08-1.427-0.08-2.04h2.96c0,0.507,0.013,1.014,0.04,1.52c0.026,0.507,0.04,1.027,0.04,1.561h0.08
				c0.213-0.453,0.513-0.894,0.9-1.32c0.386-0.427,0.846-0.807,1.38-1.14c0.533-0.334,1.133-0.601,1.8-0.801
				c0.666-0.199,1.386-0.3,2.16-0.3c1.013,0,1.86,0.127,2.54,0.38c0.68,0.254,1.246,0.561,1.7,0.92
				c0.453,0.36,0.806,0.747,1.06,1.16c0.253,0.414,0.46,0.78,0.62,1.101c0.693-1.12,1.493-1.993,2.4-2.62
				c0.906-0.627,2.08-0.94,3.52-0.94c1.333,0,2.453,0.181,3.36,0.54c0.906,0.359,1.64,0.88,2.2,1.561
				c0.56,0.68,0.96,1.507,1.2,2.479c0.24,0.974,0.36,2.061,0.36,3.26v11.36h-3.12v-11.2c0-0.64-0.067-1.266-0.2-1.88
				c-0.134-0.613-0.374-1.16-0.72-1.64c-0.347-0.48-0.814-0.866-1.4-1.16c-0.587-0.293-1.334-0.44-2.24-0.44
				c-0.667,0-1.293,0.134-1.88,0.4s-1.1,0.64-1.54,1.119c-0.44,0.48-0.787,1.061-1.04,1.741c-0.254,0.68-0.38,1.434-0.38,2.259
				v10.801h-3.12v-10.6c0-2.08-0.28-3.554-0.84-4.42c-0.56-0.867-1.48-1.301-2.76-1.301c-1.014,0-1.887,0.174-2.62,0.52
				c-0.734,0.348-1.334,0.841-1.8,1.48c-0.467,0.641-0.813,1.4-1.04,2.28s-0.34,1.854-0.34,2.92v9.12h-3.12V138.985z"/>
			<path clip-path="url(#SVGID_8_)" fill="#8B8B8D" d="M235.033,136.945c0.96-0.986,2.1-1.713,3.42-2.18
				c1.32-0.466,2.66-0.7,4.02-0.7c2.773,0,4.773,0.654,6,1.96c1.227,1.307,1.841,3.294,1.841,5.96v8.04
				c0,0.534,0.026,1.087,0.079,1.66c0.055,0.574,0.121,1.1,0.201,1.58h-3c-0.106-0.426-0.166-0.9-0.181-1.42
				c-0.013-0.521-0.021-0.98-0.021-1.38h-0.079c-0.614,0.96-1.433,1.747-2.46,2.359c-1.027,0.613-2.26,0.921-3.7,0.921
				c-0.96,0-1.86-0.12-2.7-0.36c-0.84-0.24-1.573-0.593-2.2-1.061c-0.627-0.466-1.127-1.046-1.5-1.739s-0.56-1.493-0.56-2.4
				c0-1.546,0.4-2.76,1.2-3.64c0.8-0.88,1.793-1.533,2.98-1.96c1.186-0.427,2.467-0.693,3.84-0.801
				c1.373-0.105,2.632-0.159,3.78-0.159h1.2v-0.561c0-1.359-0.407-2.386-1.221-3.08c-0.813-0.692-1.954-1.04-3.419-1.04
				c-1.014,0-2.007,0.167-2.98,0.5c-0.974,0.334-1.833,0.848-2.58,1.54L235.033,136.945z M244.073,144.266
				c-2,0-3.586,0.28-4.76,0.84c-1.174,0.561-1.76,1.48-1.76,2.76c0,1.174,0.394,2.007,1.18,2.5c0.786,0.494,1.766,0.74,2.94,0.74
				c0.906,0,1.7-0.153,2.38-0.46c0.68-0.306,1.248-0.713,1.701-1.22c0.452-0.507,0.799-1.101,1.039-1.78s0.373-1.406,0.4-2.18v-1.2
				H244.073z"/>
			<path clip-path="url(#SVGID_8_)" fill="#8B8B8D" d="M274.713,152.426c0,3.413-0.874,6.006-2.62,7.78
				c-1.747,1.772-4.274,2.659-7.58,2.659c-1.84,0-3.5-0.267-4.979-0.8c-1.481-0.533-2.888-1.453-4.222-2.76l2.24-2.56
				c0.987,1.065,2.033,1.873,3.141,2.42c1.105,0.546,2.379,0.819,3.819,0.819c1.386,0,2.54-0.207,3.46-0.62s1.647-0.974,2.18-1.68
				c0.533-0.707,0.906-1.514,1.121-2.42c0.213-0.907,0.319-1.854,0.319-2.84v-2.4h-0.08c-0.747,1.2-1.72,2.08-2.92,2.641
				c-1.2,0.56-2.426,0.84-3.68,0.84c-1.468,0-2.813-0.24-4.039-0.721c-1.228-0.479-2.281-1.146-3.161-2
				c-0.88-0.853-1.561-1.866-2.04-3.039c-0.479-1.174-0.719-2.453-0.719-3.841c0-1.521,0.239-2.893,0.719-4.12
				c0.479-1.226,1.154-2.26,2.021-3.1c0.865-0.84,1.912-1.486,3.14-1.939c1.226-0.453,2.586-0.681,4.08-0.681
				c0.64,0,1.28,0.074,1.92,0.22c0.64,0.147,1.26,0.374,1.86,0.681c0.6,0.307,1.14,0.693,1.619,1.16
				c0.48,0.467,0.881,1.007,1.2,1.62h0.08v-3.2h3.12V152.426z M258.313,143.905c0,0.96,0.174,1.848,0.521,2.66
				c0.347,0.813,0.819,1.521,1.42,2.12s1.3,1.073,2.101,1.42c0.799,0.347,1.652,0.521,2.56,0.521c1.065,0,2.013-0.187,2.84-0.561
				c0.827-0.373,1.526-0.873,2.101-1.5c0.572-0.626,1.006-1.347,1.299-2.16s0.44-1.673,0.44-2.58c0-1.013-0.159-1.94-0.479-2.779
				c-0.32-0.84-0.774-1.566-1.36-2.181c-0.586-0.612-1.294-1.086-2.12-1.42c-0.826-0.333-1.734-0.5-2.72-0.5
				c-0.987,0-1.888,0.181-2.7,0.54c-0.814,0.36-1.506,0.854-2.08,1.48c-0.574,0.627-1.02,1.359-1.34,2.2
				C258.473,142.006,258.313,142.919,258.313,143.905"/>
			<path clip-path="url(#SVGID_8_)" fill="#8B8B8D" d="M280.033,127.226c0-0.613,0.221-1.146,0.66-1.6
				c0.44-0.453,0.98-0.681,1.619-0.681c0.641,0,1.18,0.228,1.62,0.681c0.441,0.453,0.66,0.986,0.66,1.6
				c0,0.667-0.213,1.214-0.64,1.64c-0.428,0.428-0.975,0.641-1.641,0.641s-1.213-0.213-1.639-0.641
				C280.246,128.439,280.033,127.893,280.033,127.226 M280.754,134.546h3.119v18.72h-3.119V134.546z"/>
			<path clip-path="url(#SVGID_8_)" fill="#8B8B8D" d="M303.393,139.226c-0.667-0.8-1.387-1.38-2.16-1.74
				c-0.773-0.359-1.627-0.54-2.561-0.54c-1.039,0-1.959,0.181-2.759,0.54c-0.8,0.36-1.46,0.86-1.981,1.5
				c-0.519,0.641-0.913,1.38-1.18,2.221c-0.267,0.84-0.399,1.739-0.399,2.699s0.153,1.86,0.46,2.7c0.308,0.84,0.732,1.58,1.279,2.22
				c0.547,0.641,1.207,1.141,1.981,1.5c0.772,0.36,1.64,0.54,2.599,0.54c2.054,0,3.641-0.772,4.76-2.319l2.32,2.201
				c-0.906,1.038-1.973,1.799-3.199,2.278c-1.227,0.48-2.52,0.722-3.881,0.722c-1.439,0-2.759-0.241-3.959-0.722
				c-1.201-0.479-2.22-1.16-3.061-2.04c-0.84-0.88-1.493-1.92-1.96-3.12c-0.467-1.199-0.699-2.52-0.699-3.96
				c0-1.413,0.232-2.72,0.699-3.92s1.126-2.238,1.979-3.12c0.854-0.88,1.873-1.565,3.061-2.06c1.186-0.493,2.5-0.74,3.939-0.74
				c1.387,0,2.7,0.24,3.941,0.72c1.239,0.48,2.325,1.228,3.259,2.24L303.393,139.226z"/>
			<path clip-path="url(#SVGID_8_)" fill="#8B8B8D" d="M319.394,143.905c0-1.466,0.253-2.8,0.759-4c0.506-1.199,1.2-2.232,2.08-3.1
				c0.88-0.866,1.934-1.54,3.161-2.021c1.226-0.479,2.559-0.72,4-0.72c1.438,0,2.772,0.24,4,0.72c1.226,0.48,2.279,1.154,3.16,2.021
				c0.879,0.867,1.571,1.9,2.08,3.1c0.506,1.2,0.76,2.534,0.76,4c0,1.467-0.254,2.801-0.76,4c-0.509,1.2-1.201,2.234-2.08,3.101
				c-0.881,0.866-1.935,1.54-3.16,2.02c-1.228,0.48-2.562,0.721-4,0.721c-1.441,0-2.774-0.24-4-0.721
				c-1.228-0.479-2.281-1.153-3.161-2.02s-1.574-1.9-2.08-3.101C319.647,146.706,319.394,145.372,319.394,143.905 M322.753,143.905
				c0,0.987,0.152,1.9,0.461,2.74c0.306,0.84,0.752,1.573,1.34,2.2c0.586,0.627,1.285,1.12,2.099,1.479
				c0.813,0.36,1.728,0.54,2.741,0.54c1.012,0,1.925-0.18,2.74-0.54c0.812-0.359,1.513-0.853,2.099-1.479s1.034-1.36,1.34-2.2
				c0.308-0.84,0.46-1.753,0.46-2.74c0-0.986-0.152-1.899-0.46-2.739c-0.306-0.841-0.754-1.573-1.34-2.2
				c-0.586-0.626-1.287-1.12-2.099-1.48c-0.815-0.359-1.729-0.54-2.74-0.54c-1.014,0-1.928,0.181-2.741,0.54
				c-0.813,0.36-1.513,0.854-2.099,1.48c-0.588,0.627-1.034,1.359-1.34,2.2C322.906,142.006,322.753,142.919,322.753,143.905"/>
			<path clip-path="url(#SVGID_8_)" fill="#8B8B8D" d="M345.833,137.186h-4.08v-2.64h4.08v-4.2c0-1.146,0.104-2.193,0.319-3.14
				c0.213-0.946,0.58-1.767,1.101-2.46c0.519-0.693,1.206-1.233,2.06-1.62s1.907-0.58,3.161-0.58c0.399,0,0.826,0.04,1.279,0.12
				c0.452,0.08,0.825,0.199,1.12,0.359l-0.44,2.8c-0.746-0.266-1.454-0.399-2.12-0.399c-0.8,0-1.427,0.14-1.88,0.42
				c-0.454,0.28-0.793,0.667-1.021,1.16c-0.226,0.492-0.359,1.087-0.399,1.779c-0.039,0.694-0.061,1.44-0.061,2.24v3.521h4.561v2.64
				h-4.561v16.08h-3.119V137.186z"/>
			<path clip-path="url(#SVGID_8_)" fill="#8B8B8D" d="M378.192,137.186h-5.52v9.36c0,0.613,0.014,1.18,0.041,1.7
				c0.026,0.52,0.132,0.974,0.319,1.359c0.186,0.387,0.467,0.694,0.84,0.92c0.373,0.228,0.906,0.34,1.6,0.34
				c0.453,0,0.92-0.053,1.4-0.159c0.479-0.106,0.933-0.267,1.36-0.48l0.119,2.84c-0.533,0.24-1.127,0.413-1.778,0.521
				c-0.654,0.105-1.275,0.16-1.86,0.16c-1.121,0-2.015-0.147-2.681-0.44s-1.188-0.706-1.561-1.24
				c-0.374-0.533-0.62-1.193-0.739-1.979c-0.12-0.786-0.181-1.66-0.181-2.62v-10.28h-4.08v-2.64h4.08v-5.32h3.12v5.32h5.52V137.186z
				"/>
			<path clip-path="url(#SVGID_8_)" fill="#8B8B8D" d="M398.753,149.865c-1.121,1.44-2.349,2.447-3.681,3.021
				c-1.335,0.573-2.881,0.861-4.641,0.861c-1.466,0-2.787-0.262-3.961-0.781c-1.173-0.521-2.166-1.219-2.979-2.101
				c-0.814-0.88-1.441-1.92-1.881-3.118c-0.438-1.201-0.659-2.481-0.659-3.842c0-1.439,0.239-2.766,0.721-3.979
				c0.479-1.213,1.145-2.253,2-3.12c0.852-0.866,1.865-1.54,3.039-2.021c1.173-0.479,2.453-0.72,3.839-0.72
				c1.307,0,2.507,0.22,3.601,0.66s2.033,1.08,2.819,1.92c0.788,0.84,1.395,1.867,1.821,3.08c0.426,1.214,0.64,2.594,0.64,4.14v1
				h-15.12c0.054,0.801,0.246,1.567,0.579,2.301c0.334,0.733,0.769,1.373,1.301,1.92c0.533,0.547,1.16,0.979,1.881,1.3
				c0.72,0.32,1.507,0.479,2.359,0.479c1.36,0,2.506-0.239,3.44-0.72c0.933-0.479,1.772-1.187,2.519-2.12L398.753,149.865z
				 M396.073,142.226c-0.055-1.6-0.573-2.88-1.561-3.84s-2.347-1.44-4.08-1.44c-1.734,0-3.134,0.48-4.2,1.44s-1.707,2.24-1.92,3.84
				H396.073z"/>
			<path clip-path="url(#SVGID_8_)" fill="#8B8B8D" d="M404.672,148.346c0.613,0.773,1.286,1.387,2.021,1.84
				c0.733,0.454,1.66,0.681,2.78,0.681c0.479,0,0.966-0.054,1.46-0.16c0.493-0.106,0.938-0.28,1.34-0.521
				c0.399-0.24,0.72-0.54,0.96-0.9c0.24-0.359,0.36-0.793,0.36-1.3c0-0.506-0.114-0.92-0.341-1.239
				c-0.227-0.32-0.526-0.594-0.899-0.82c-0.374-0.226-0.8-0.406-1.281-0.54c-0.479-0.133-0.973-0.253-1.479-0.36
				c-0.882-0.186-1.722-0.399-2.521-0.64c-0.799-0.24-1.5-0.554-2.099-0.94c-0.602-0.386-1.08-0.886-1.441-1.5
				c-0.359-0.613-0.539-1.399-0.539-2.359c0-0.906,0.2-1.707,0.601-2.4c0.399-0.693,0.933-1.267,1.6-1.72
				c0.666-0.453,1.413-0.8,2.24-1.04c0.826-0.24,1.679-0.36,2.56-0.36c1.332,0,2.566,0.267,3.7,0.801
				c1.132,0.533,2.019,1.399,2.66,2.6l-2.601,1.72c-0.399-0.666-0.928-1.206-1.58-1.62c-0.653-0.413-1.446-0.62-2.381-0.62
				c-0.426,0-0.858,0.054-1.299,0.16c-0.439,0.107-0.834,0.267-1.18,0.48c-0.347,0.214-0.634,0.486-0.861,0.819
				c-0.226,0.334-0.34,0.714-0.34,1.141c0,0.399,0.127,0.739,0.381,1.02c0.252,0.28,0.601,0.527,1.039,0.74
				c0.441,0.214,0.947,0.4,1.521,0.561c0.572,0.159,1.166,0.293,1.779,0.399c0.826,0.16,1.613,0.367,2.36,0.62
				c0.746,0.254,1.4,0.594,1.959,1.02c0.56,0.427,1,0.961,1.321,1.601c0.318,0.64,0.479,1.427,0.479,2.36
				c0,1.066-0.213,1.974-0.639,2.72c-0.427,0.746-0.994,1.354-1.701,1.819c-0.707,0.467-1.506,0.808-2.4,1.021
				c-0.893,0.213-1.807,0.32-2.738,0.32c-1.602,0-2.98-0.247-4.141-0.74s-2.207-1.406-3.14-2.74L404.672,148.346z"/>
			<path clip-path="url(#SVGID_8_)" fill="#8B8B8D" d="M431.553,137.186h-5.521v9.36c0,0.613,0.014,1.18,0.042,1.7
				c0.025,0.52,0.132,0.974,0.319,1.359c0.186,0.387,0.466,0.694,0.84,0.92c0.373,0.228,0.906,0.34,1.6,0.34
				c0.453,0,0.92-0.053,1.4-0.159c0.479-0.106,0.932-0.267,1.359-0.48l0.119,2.84c-0.533,0.24-1.127,0.413-1.778,0.521
				c-0.654,0.105-1.274,0.16-1.859,0.16c-1.122,0-2.015-0.147-2.681-0.44c-0.667-0.293-1.188-0.706-1.561-1.24
				c-0.374-0.533-0.621-1.193-0.74-1.979s-0.18-1.66-0.18-2.62v-10.28h-4.08v-2.64h4.08v-5.32h3.119v5.32h5.521V137.186z"/>
			<path clip-path="url(#SVGID_8_)" fill="#8B8B8D" d="M434.992,127.226c0-0.613,0.22-1.146,0.659-1.6
				c0.441-0.453,0.98-0.681,1.62-0.681c0.641,0,1.181,0.228,1.619,0.681c0.441,0.453,0.661,0.986,0.661,1.6
				c0,0.667-0.213,1.214-0.64,1.64c-0.428,0.428-0.975,0.641-1.641,0.641c-0.667,0-1.214-0.213-1.64-0.641
				C435.205,128.439,434.992,127.893,434.992,127.226 M435.712,134.546h3.12v18.72h-3.12V134.546z"/>
			<path clip-path="url(#SVGID_8_)" fill="#8B8B8D" d="M445.031,138.985c0-0.853-0.026-1.653-0.079-2.399
				c-0.056-0.747-0.08-1.427-0.08-2.04h2.959c0,0.507,0.014,1.014,0.041,1.52c0.024,0.507,0.039,1.027,0.039,1.561h0.079
				c0.215-0.453,0.515-0.894,0.9-1.32c0.387-0.427,0.846-0.807,1.381-1.14c0.532-0.334,1.133-0.601,1.799-0.801
				c0.666-0.199,1.388-0.3,2.16-0.3c1.228,0,2.287,0.188,3.181,0.561c0.893,0.373,1.634,0.894,2.221,1.56
				c0.586,0.667,1.019,1.474,1.299,2.42c0.281,0.947,0.42,1.98,0.42,3.101v11.56h-3.12v-11.24c0-1.573-0.346-2.812-1.039-3.72
				c-0.693-0.906-1.773-1.36-3.239-1.36c-1.015,0-1.888,0.174-2.621,0.52c-0.733,0.348-1.333,0.841-1.8,1.48
				c-0.467,0.641-0.813,1.4-1.041,2.28c-0.227,0.88-0.34,1.854-0.34,2.92v9.12h-3.119V138.985z"/>
			<path clip-path="url(#SVGID_8_)" fill="#8B8B8D" d="M485.95,152.426c0,3.413-0.874,6.006-2.62,7.78
				c-1.747,1.772-4.272,2.659-7.58,2.659c-1.84,0-3.5-0.267-4.979-0.8c-1.48-0.533-2.888-1.453-4.22-2.76l2.239-2.56
				c0.987,1.065,2.033,1.873,3.141,2.42c1.105,0.546,2.381,0.819,3.819,0.819c1.388,0,2.54-0.207,3.46-0.62s1.647-0.974,2.182-1.68
				c0.532-0.707,0.905-1.514,1.118-2.42c0.214-0.907,0.32-1.854,0.32-2.84v-2.4h-0.08c-0.746,1.2-1.72,2.08-2.92,2.641
				c-1.2,0.56-2.426,0.84-3.679,0.84c-1.467,0-2.815-0.24-4.041-0.721c-1.228-0.479-2.28-1.146-3.16-2
				c-0.879-0.853-1.559-1.866-2.04-3.039c-0.479-1.174-0.72-2.453-0.72-3.841c0-1.521,0.24-2.893,0.72-4.12
				c0.481-1.226,1.153-2.26,2.021-3.1c0.866-0.84,1.913-1.486,3.141-1.939c1.226-0.453,2.585-0.681,4.08-0.681
				c0.639,0,1.279,0.074,1.92,0.22c0.639,0.147,1.259,0.374,1.859,0.681c0.6,0.307,1.141,0.693,1.62,1.16s0.88,1.007,1.199,1.62
				h0.08v-3.2h3.12V152.426z M469.551,143.905c0,0.96,0.173,1.848,0.521,2.66c0.345,0.813,0.82,1.521,1.419,2.12
				c0.6,0.6,1.3,1.073,2.1,1.42c0.802,0.347,1.653,0.521,2.562,0.521c1.065,0,2.012-0.187,2.839-0.561
				c0.827-0.373,1.526-0.873,2.1-1.5c0.573-0.626,1.007-1.347,1.302-2.16c0.293-0.813,0.438-1.673,0.438-2.58
				c0-1.013-0.16-1.94-0.479-2.779c-0.32-0.84-0.774-1.566-1.36-2.181c-0.586-0.612-1.293-1.086-2.12-1.42
				c-0.827-0.333-1.732-0.5-2.719-0.5c-0.988,0-1.887,0.181-2.701,0.54c-0.812,0.36-1.506,0.854-2.08,1.48
				c-0.573,0.627-1.02,1.359-1.34,2.2C469.71,142.006,469.551,142.919,469.551,143.905"/>
		</g>
	</g>
</g>
</svg>
