<?xml version="1.0" encoding="utf-8"?>
<!-- Generator: Adobe Illustrator 16.0.0, SVG Export Plug-In . SVG Version: 6.00 Build 0)  -->
<!DOCTYPE svg PUBLIC "-//W3C//DTD SVG 1.1//EN" "http://www.w3.org/Graphics/SVG/1.1/DTD/svg11.dtd">
<svg version="1.1" id="Ebene_2" xmlns="http://www.w3.org/2000/svg" xmlns:xlink="http://www.w3.org/1999/xlink" x="0px" y="0px"
	 width="51px" height="80px" viewBox="0 0 51 80" enable-background="new 0 0 51 80" xml:space="preserve">
<path fill="none" stroke="#BFC2C9" stroke-width="2" stroke-linecap="round" stroke-linejoin="round" stroke-miterlimit="10" d="
	M32.625,20.875c0,0,1.25,17.5-13.5,32.875c-7-3.375-14.5-7.375-14.5-7.375s-0.5,4.25,10.5,28.25
	C22.75,71.25,43.75,63.25,43.75,63.25L26,58.625c0,0,21.375-27.75,21.625-42.75C39.375,36,28.875,57.5,28.875,57.5
	S40,63.75,42.25,64.25C34.375,67.5,17,71,17,71L7.625,49.875l12.5,5.375c0,0,6.375-0.375,10.25-45.625"/>
</svg>
