<?xml version="1.0" encoding="utf-8"?>
<!-- Generator: Adobe Illustrator 15.0.2, SVG Export Plug-In . SVG Version: 6.00 Build 0)  -->
<!DOCTYPE svg PUBLIC "-//W3C//DTD SVG 1.1//EN" "http://www.w3.org/Graphics/SVG/1.1/DTD/svg11.dtd">
<svg version="1.1" id="Ebene_2" xmlns="http://www.w3.org/2000/svg" xmlns:xlink="http://www.w3.org/1999/xlink" x="0px" y="0px"
	 width="78px" height="74px" viewBox="158.5 111.5 78 74" enable-background="new 158.5 111.5 78 74" xml:space="preserve">
<path fill="none" stroke="#BFC2C9" stroke-width="2" stroke-linecap="round" stroke-linejoin="round" stroke-miterlimit="10" d="
	M189.312,123.062c0,0,4.688,29.688,29.312,35.062c2.062-3.438,3.75-14.188,3.75-14.188L233.75,167.5l-24.438,10.25
	c0,0,7.625-9.812,7.562-12.062c-11.5-2.875-34.438-11.812-49.812-32.438c0,0,19.625,28.688,47.5,33.562
	c-2.438,7.375-4.125,12.812-4.125,12.812s22.188-10.438,22.312-10.688s-10.875-23.188-10.875-23.188l-3.625,11.438
	c0,0-28.125-9.25-30.875-36.188"/>
</svg>
