<?xml version="1.0" encoding="utf-8"?>
<!-- Generator: Adobe Illustrator 16.0.0, SVG Export Plug-In . SVG Version: 6.00 Build 0)  -->
<!DOCTYPE svg PUBLIC "-//W3C//DTD SVG 1.1//EN" "http://www.w3.org/Graphics/SVG/1.1/DTD/svg11.dtd">
<svg version="1.1" xmlns="http://www.w3.org/2000/svg" xmlns:xlink="http://www.w3.org/1999/xlink" x="0px" y="0px"
	 width="968.952px" height="926.954px" viewBox="0 0 968.952 926.954" enable-background="new 0 0 968.952 926.954"
	 xml:space="preserve">
<g id="Ebene_1">
	
		<image display="none" overflow="visible" width="2560" height="1536" xlink:href="../../../../Print /Magier in progress/20160328_181053.jpg"  transform="matrix(0.6143 -0.0016 0.0017 0.6774 -391.562 -120.603)">
	</image>
	<g display="none">
		<g display="inline">
			<defs>
				<rect id="SVGID_1_" x="-90.643" y="-32.739" width="763" height="874"/>
			</defs>
			<clipPath id="SVGID_2_">
				<use xlink:href="#SVGID_1_"  overflow="visible"/>
			</clipPath>
			<g clip-path="url(#SVGID_2_)">
				<defs>
					<rect id="SVGID_3_" x="-90.643" y="-32.739" width="763" height="874"/>
				</defs>
				<clipPath id="SVGID_4_">
					<use xlink:href="#SVGID_3_"  overflow="visible"/>
				</clipPath>
				<path clip-path="url(#SVGID_4_)" d="M292.498,147.287c0,0-51.651,39.37-118.833,61.763c-0.722-2.167-4.695-4.336,8.308-9.392
					s65.737-28.171,84.52-43.703C285.273,140.423,292.136,144.398,292.498,147.287"/>
				<path clip-path="url(#SVGID_4_)" fill="none" stroke="#FFFFFF" stroke-width="0.217" stroke-miterlimit="10" d="
					M292.498,147.287c0,0-51.651,39.37-118.833,61.763c-0.722-2.167-4.695-4.336,8.308-9.392s65.737-28.171,84.52-43.703
					C285.273,140.423,292.136,144.398,292.498,147.287z"/>
				<path clip-path="url(#SVGID_4_)" d="M225.316,120.919c0,0-31.785,15.892-41.176,25.644
					c-19.866-28.894-30.702-40.342-65.015-64.291c0,0,28.172-49.122,68.986-64.291C188.112,17.981,222.427,108.277,225.316,120.919"
					/>
				<path clip-path="url(#SVGID_4_)" d="M280.938,318.851c0,0-6.141-55.621-28.895-60.318c-22.756-4.696-24.923-6.501-27.09-8.668
					c2.89,6.861,10.112,12.641,13.002,14.086c2.891,1.445,4.695,5.054,4.695,6.861c0,0-2.215-1.443-10.137,2.349
					c-7.921,3.793-61.018,39.911-95.871,72.78c-33.523,9.458-63.014,17.519-88.13,25.643c0,0-13.636,3.163-17.248,3.342
					c0.351,2.008,0.814,2.98,0.814,2.98s-6.321,0.63-14.449-2.438c0,0-6.546-3.522-8.442-5.689s-4.876-5.282-12.732-5.011
					c-7.856,0.27-26.006,2.302-30.612,1.896c0.949,3.792,7.721,5.96,15.171,5.282c7.449-0.678,15.035,0.678,15.035,2.844
					c0,2.167-29.663,17.202-32.644,19.64c-12.596,3.116-50.656,15.441-47.541,25.6c2.032-0.137,3.928-1.354,6.366-2.844
					s25.735-11.512,35.758-13.273c-16.524,6.637-28.986,12.866-32.402,16.736c-3.803,4.308,5.719,3.443,5.719,2.902
					c0,0,28.308-12.324,38.196-14.898c9.887-2.573,44.427-20.588,45.916-21.807c1.491-1.219,7.992-4.334,16.931-3.251
					c0.677,1.897,2.302,5.417,2.302,5.417s89.937-26.817,103.481-29.526c2.845-0.406,5.282-1.896,7.313-4.335
					c0,0,81.404-62.575,82.895-63.93c1.489-1.354,10.294-7.721,12.055-0.812c1.76,6.907,6.229,66.234,7.043,70.837
					c1.575,18.687,3.25,29.664-0.271,35.487c0,0-13.681,12.056-28.174,49.574c-5.146,12.461-15.848,33.455-52.554,62.441
					c0,0-1.034,1.012-5.282,2.572c-4.198,2.167-11.512,3.521-5.553,4.74c5.96,1.219,23.026,0.678,37.112-10.022
					c14.087-10.7,27.901-27.496,27.225-23.298c-0.677,4.199-2.979,8.128-5.553,11.242c-2.574,3.117-23.703,30.883-28.037,38.197
					c-4.335,7.313-6.096,7.584-4.741,12.731s2.573,11.784,3.116,15.849c0.541,4.062,0.541,4.875,4.74,2.03
					c4.198-2.844,20.994-17.065,30.475-34.675c1.49-3.114,2.574-4.334,2.574-4.334s0.947-1.625-5.689,15.17
					c-6.637,16.797-84.384,199.919-101.043,256.265c0,0,1.806,0.409,1.716,2.122c-0.091,1.715,0.452,3.161-2.076,5.057
					c-2.529,1.896-14.538,6.951-30.521,29.978c0.09,0.813,0.183,0.814,1.896,0.995c1.716,0.18,67.544,0.814,68.446,0.45
					c0.902-0.361-1.264-2.979-5.419-4.875c-4.153-1.896-24.651-10.655-26.096-14.72c-1.444-4.062-2.438-8.669,0.181-9.752
					s4.606-0.901,6.683,0.091c2.979-6.771,49.122-130.028,59.145-152.783c10.023-22.755,58.783-134.634,70.974-156.304
					c13.273,14.356,33.862,39.819,60.681,86.142c-1.355,21.131-2.709,28.444-8.396,224.842c1.352,0.541,3.791,0.271,3.791,0.271
					s0.541,2.709-2.709,8.398c-3.252,5.688-6.893,10.334-6.893,15.48c0,0-0.422,2.889,2.287,3.32c2.711,0.432,74.494,0,74.494,0
					s3.928-1.736-1.76-5.121c-5.689-3.387-9.211-5.824-33.455-11.377c-5.281-1.355-17.607-3.929-18.15-10.565
					c1.898,0.135,4.742,0.407,4.742,0.407s4.604-207.504,4.062-220.914c-0.135-6.637-1.625-9.887-3.656-13.002
					c-2.031-3.116-46.053-86.822-54.856-98.199c-3.252-5.012-7.179-30.475-7.314-34.945c-0.135-4.47-2.031-37.654-1.084-41.582
					c0.949-3.928,17.065-52.011,17.337-53.231c0.271-1.217,6.503-18.826,6.639-35.351c0.135-16.524,0.406-18.149,0.406-18.149
					s-1.627-0.543,3.113-0.678c4.742-0.135,123.664-7.585,126.643-8.668c2.98-1.084,88.311-39.551,90.479-39.144
					c0.34-0.643,1.387-1.389,4.707-1.219c0,0,44.732,2.709,50.014,2.031c5.283-0.677,32.234-4.74,36.977-4.876
					c4.197-0.406,2.643-2.031,2.1-2.37c0,0-5.012-1.287-23.908,0c-1.148,0.135-0.812-0.61,0.68-1.151
					c1.488-0.542,16.793-3.521,24.244-3.387c0.949,0,1.691-1.151,0.609-1.692c-1.082-0.542-10.092-2.438-28.646,0
					c-1.828,0.135-12.258,1.828-12.055,1.151c2.777-1.287,26.885-14.154,30.881-15.374c0.947-0.406,1.557-1.489,0.068-2.166
					c-1.49-0.678-12.664,0.203-33.387,11.648c-1.219,0.609-1.828,0.745-3.656,0.948c-1.83,0.203-20.928,1.626-31.832-0.609
					c-2.369-0.203-2.617-2.591-1.963-5.012c1.152-4.267,28.172-13.68,24.652-18.895c0,0-0.609-1.084-1.426-0.813
					c-0.812,0.271-12.73,6.502-18.621,8.06c-5.893,1.557-11.58,2.505-14.969,6.027c-3.385,3.521-8.668,14.899-9.887,18.421
					c-0.541,1.557-2.1,4.266-3.928,5.011c-1.559-1.083-2.912-2.708-2.912-2.708s0.068-0.069-77.068,32.371
					c-1.693,0.745-3.59,1.287-5.756,1.151c-2.168-0.135-110.998-3.454-120.48-2.099c-2.031,0.27-6.365,1.354-6.975,0.406
					c-0.609-0.948-2.168-13.951-21.876-24.854c0,0-1.218-0.407-2.167-0.339c6.23,9.279,10.295,22.078,10.498,28.782
					C281.773,279.572,282.88,309.506,280.938,318.851"/>
				<path clip-path="url(#SVGID_4_)" d="M550.009,94.303l1.355-10.288l-4.522-0.453v4.521c0,0-12.211,0.34-17.862-6.104
					c-0.228-2.94,0.451-4.07-0.907-5.879c-1.354-1.809-7.232-4.748-10.626-9.497c-3.392-4.749-14.696-17.863-6.784-45.451
					c-1.47-1.243-3.843-5.201-1.131-10.627c4.04-8.082,12.437-12.889,12.437-12.889s1.811-4.184-0.111-4.296
					c-1.923-0.114-16.692,8.657-23.292,32.787c-7.234,26.456,11.533,55.513,29.508,62.184
					C541.19,94.981,550.009,94.303,550.009,94.303"/>
				<path clip-path="url(#SVGID_4_)" d="M590.512,63.691l7.122,6.19c0,0,13.313-11.447,8.001-43.754
					c-5.628-34.225-43.644-43.416-49.408-42.511c-1.131,0-2.94,3.054-2.26,4.636c0.676,1.582,2.372,5.086,2.372,5.086
					S573.3-3.721,583.475,6.454c5.427,5.428,13.003,15.942,13.793,27.248c0.264,3.765,0.538,18.711-4.862,26.457l-2.318,3.108
					L590.512,63.691z"/>
				<path clip-path="url(#SVGID_4_)" fill="#F7941E" d="M583.609,154.91c-2.383,3.575-5.434,6.856-8.226,10.128
					c-3.194,3.744-10.924-2.446-14.526-3.325c-3.865-0.943-12.581,1.807-11.09,7.23c0.666,2.421,3.336,3.327,5.486,3.765
					c1.972,0.402,4.114,0.169,6.105,0.437c2.87,0.388,5.528,2.099,7.595,4.027c4.941,4.612,0.761,9.382-1.062,14.098
					c-1.266,3.274-1.464,6.364-1.237,9.849c0.102,1.56,2.538,1.57,2.436,0c-0.283-4.356,0.312-7.798,2.459-11.702
					c1.302-2.366,2.719-4.93,2.227-7.745c-1.125-6.44-7.101-10.246-13.248-11.075c-0.616-0.092-1.237-0.131-1.863-0.115
					c-2.727,0.358-4.248-1.336-4.566-5.082c3.127-2.201,6.814-1.537,10.062-0.038c2.446,1.13,4.771,3.685,7.63,3.78
					c2.912,0.099,4.441-1.357,6.269-3.498c2.626-3.078,5.407-6.132,7.654-9.505C586.587,154.828,584.475,153.61,583.609,154.91"/>
				<path clip-path="url(#SVGID_4_)" fill="#F7941E" d="M513.344,94.346c-8.078,9.441-12.396,22.039-10.471,34.482
					c1.088,7.041,3.615,13.252,7.973,18.898c4.635,6.005,9.181,10.922,11.632,18.25c0.496,1.482,2.85,0.847,2.35-0.647
					c-3.979-11.891-14.601-19.238-18.342-31.203c-4.121-13.178-0.242-27.746,8.581-38.057
					C516.083,94.882,514.367,93.151,513.344,94.346"/>
				<path clip-path="url(#SVGID_4_)" fill="#F7941E" d="M543.081,134.665c-0.315,8.328-6.74,10.53-12.361,14.892
					c-4.262,3.306-6.118,7.681-7.61,12.743c-1.402,4.754-1.271,10.013,0.665,14.572c2.343,5.516,8.627,5.909,12.54,9.532
					c1.152,1.065,2.879-0.654,1.724-1.723c-3.907-3.616-9.22-4.026-12.16-9.038c-3.102-5.288-0.703-13.461,1.687-18.547
					c2.557-5.436,8.041-7.449,12.548-10.879c3.589-2.733,5.239-7.19,5.404-11.552C545.576,133.093,543.139,133.099,543.081,134.665"
					/>
				<path clip-path="url(#SVGID_4_)" fill="#F7941E" d="M536.632,100.853c4.939,11.109,19.863,12.958,27.86,21.126
					c2.951,3.013,5.375,8.638,0.254,11.115c-2.744,1.327-5.267,2.413-7.443,4.602c-4.789,4.817-4.911,12.404-9.391,17.469
					c-1.831,2.07-4.261,3.437-6.087,5.547c-1.716,1.984-2.908,4.332-3.895,6.74c-1.763,4.302,1.161,8.562,4.255,11.259
					c1.361,1.187,3.098,2.203,4.809,2.786c3.388,1.154,5.789,2.404,8.375,5.052c3.121,3.196,2.03,8.637,5.671,11.499
					c1.031,0.811,2.656-0.195,1.913-1.476c-2.571-4.433-5.105-9.192-9.123-12.496c-1.664-1.369-7.455-6.631-10.061-5.104
					c-3.46,2.027,13.73,15.031,15.39,16.151c1.188,0.803,2.384-0.934,1.476-1.913c-2.555-2.754-5.199-5.424-7.925-8.01
					c-3.117-2.958-7.636-5.113-10.248-8.462c-0.966-1.238-2.677,0.499-1.723,1.722c2.427,3.111,6.433,5.008,9.351,7.631
					c3.091,2.779,5.996,5.795,8.822,8.842c0.491-0.638,0.984-1.276,1.476-1.913c-3.33-2.249-6.566-4.711-9.355-7.613
					c-0.825-0.858-1.581-1.664-2.491-2.448c-0.459-0.393-0.914-0.79-1.365-1.192c-1.668-1.472-0.622-0.125-2.32-0.522
					c7.601,1.775,12.468,10.478,15.994,16.556c0.638-0.492,1.275-0.984,1.913-1.476c-3.166-2.489-2.229-7.34-4.738-10.372
					c-1.634-1.974-3.469-3.555-5.551-5.028c-1.938-1.372-4.593-1.577-6.689-2.679c-3.727-1.958-6.645-5.809-5.504-10.147
					c1.045-3.975,4.365-6.836,7.316-9.351c5.197-4.43,6.24-10.003,9.188-15.875c1.797-3.58,4.366-5.486,7.883-7.088
					c1.62-0.738,4.104-1.52,4.994-3.271c1.966-3.862-0.127-7.693-2.388-10.968c-6.945-10.059-23.364-10.286-28.539-21.922
					C538.098,98.19,536,99.431,536.632,100.853"/>
				<path clip-path="url(#SVGID_4_)" fill="#F7941E" d="M534.136,159.41c0.752,4.292,0.181,7.709,1.969,11.873
					c1.996,4.646,4.607,8.763,7.812,12.664c3.323,4.048,7.32,7.489,11.513,10.601c2.031,1.507,4.218,2.862,6.479,3.997
					c2.383,1.199,6.219,2.021,4.108,5.577c-0.804,1.354,1.303,2.579,2.104,1.229c1.048-1.765,1.947-4.436-0.032-6.025
					c-3.433-2.756-7.793-4.342-11.43-6.882c-5.77-4.031-10.791-9.334-14.694-15.168c-2.024-3.025-3.558-6.41-4.683-9.86
					c-0.922-2.826-0.292-5.778-0.795-8.653C536.215,157.217,533.867,157.874,534.136,159.41"/>
				<path clip-path="url(#SVGID_4_)" fill="#F7941E" d="M563.62,216.054c0.479-3.041,0.917-5.773,2.667-8.387
					c1.984-2.965,4.803-5.693,7.629-7.844c1.232-0.938,0.021-3.056-1.23-2.103c-2.916,2.22-5.439,4.813-7.718,7.682
					c-2.433,3.061-3.099,6.226-3.697,10.005C561.027,216.943,563.375,217.602,563.62,216.054"/>
				<path clip-path="url(#SVGID_4_)" fill="#F7941E" d="M564.375,156.848c-1.699,1.222-4.056,1.608-5.968,2.415
					c-2.79,1.177-5.177,2.725-6.995,5.178c-0.937,1.263,1.179,2.476,2.104,1.229c1.72-2.32,4.285-3.604,6.922-4.607
					c1.693-0.644,3.676-1.038,5.166-2.111C566.866,158.042,565.652,155.929,564.375,156.848"/>
				<path clip-path="url(#SVGID_4_)" fill="#F7941E" d="M580.265,124.813c1.14,3.119,2.376,6.195,3.58,9.288
					c2.069,5.318-7.382,8.497-10.718,10.393c-4.509,2.564-8.563,5.638-13.747,6.593c-3.689,0.681-7.686,0.601-10.659,3.17
					c-1.19,1.029,0.54,2.744,1.723,1.723c4.069-3.517,11.253-2.046,16.008-4.661c4.989-2.743,9.792-5.839,14.804-8.561
					c2.994-1.626,6.023-3.288,5.39-7.257c-0.619-3.88-2.684-7.65-4.03-11.335C582.08,122.704,579.725,123.334,580.265,124.813"/>
				<path clip-path="url(#SVGID_4_)" fill="#F7941E" d="M578.232,133.83c-4.015,1.607-7.23,4.031-9.996,7.354
					c-2.883,3.462-4.486,8.388-9.157,9.887c-1.489,0.479-0.853,2.83,0.648,2.349c3.194-1.026,5.276-3.298,7.178-5.973
					c3.389-4.77,6.29-8.992,11.976-11.268C580.32,135.602,579.692,133.246,578.232,133.83"/>
				<path clip-path="url(#SVGID_4_)" fill="#F7941E" d="M579.062,74.466c0,0-5.169,7.542-24.25,10.085
					c-0.083,3.731-0.038,9.771-0.038,9.771s22.062-0.669,30.722-12.682c4.169,4.183,14.006,14.189,14.006,14.189l8.903-8.395
					l-34.597-34.851l15.179-5.087c0,0,2.628-2.12-17.807-1.866c-1.612,0.424-1.158,1.187-1.894,2.628
					c-0.736,1.442-4.553,1.187-5.57,0.17c-1.017-1.017-3.053,1.357-3.476,4.325c-0.423,2.967,3.816,1.272,3.73,3.306
					c-0.083,2.036-3.223,1.358-3.223,3.308c0,1.95,1.866,2.544,0.171,5.342c-1.696,2.799-0.764,7.858,0.17,8.451
					c0.932,0.593,2.119,0.707,2.119,0.707l2.204-12.804L579.062,74.466z"/>
				<path clip-path="url(#SVGID_4_)" fill="#F7941E" d="M253.675,164.625c0,0,1.086-2.174-4.702-2.35
					c-1.625-0.722-1.083-1.628,0-3.07c1.084-1.444,1.084-5.778-2.709-6.14c-0.182-1.084-0.542-1.987-1.807-2.168
					c0.724-1.986,1.265-5.381-2.527-6.302c-3.792-0.921-4.154-2.728-3.432-3.449c0.722-0.723-0.18-1.986-1.444-2.348
					c-0.904-1.625-2.168-1.625-5.418-1.625c2.166-1.987,3.07-7.767-1.085-8.851c-4.153-1.083-0.902-1.985-0.722-2.888
					c0.18-0.904-0.542-2.711-2.528-3.613c-0.132-0.226-1.235-1.2-1.985-0.902c-6.85,2.73-34.656,13.516-42.259,27.588
					c0,0-2.529,5.011,0.991,6.545c1.897,1.896,2.349,2.62,3.251,2.438c0.902-0.182,1.896,0.451,1.896,0.992
					c0,0.543-0.181,2.259,1.084,2.259c1.264,0,1.264,0.719,0.542,1.714c-0.723,0.995-0.723,5.42,2.166,5.328
					c2.891-0.09,1.897,1.082,1.536,3.07c-0.362,1.987,1.806,3.07,2.979,4.967c1.173,1.896,2.257,1.172,3.069,1.805
					c0.812,0.633,0.543,2.078-0.36,2.8c-0.903,0.722-1.175,3.069,0.18,3.43c1.354,0.362,2.801,1.715,2.348,2.438
					c-0.451,0.725,0.437,3.062,2.139,3.518C204.878,189.811,242.151,172.489,253.675,164.625"/>
			</g>
			<g clip-path="url(#SVGID_2_)">
				<defs>
					<rect id="SVGID_5_" x="-90.643" y="-32.739" width="763" height="874"/>
				</defs>
				<clipPath id="SVGID_6_">
					<use xlink:href="#SVGID_5_"  overflow="visible"/>
				</clipPath>
				<path clip-path="url(#SVGID_6_)" fill="#F7941E" d="M514.708,143.677c2.261,0,2.261-3.506,0-3.506
					S512.448,143.677,514.708,143.677"/>
				<path clip-path="url(#SVGID_6_)" fill="#F7941E" d="M513.602,135.324c2.261,0,2.261-3.506,0-3.506
					S511.341,135.324,513.602,135.324"/>
				<path clip-path="url(#SVGID_6_)" fill="#F7941E" d="M561.16,220.946c2.261,0,2.261-3.506,0-3.506
					S558.899,220.946,561.16,220.946"/>
				<path clip-path="url(#SVGID_6_)" fill="#F7941E" d="M577.182,198.649c2.261,0,2.261-3.506,0-3.506
					S574.921,198.649,577.182,198.649"/>
				<path clip-path="url(#SVGID_6_)" fill="#F7941E" d="M582.295,195.326c2.261,0,2.261-3.506,0-3.506
					S580.035,195.326,582.295,195.326"/>
				<path clip-path="url(#SVGID_6_)" fill="#F7941E" d="M590.99,191.15c2.261,0,2.261-3.506,0-3.506S588.729,191.15,590.99,191.15"
					/>
				<path clip-path="url(#SVGID_6_)" fill="#F7941E" d="M588.091,152.711c2.261,0,2.261-3.506,0-3.506
					S585.831,152.711,588.091,152.711"/>
				<path clip-path="url(#SVGID_6_)" fill="#F7941E" d="M565.08,45.919c2.261,0,2.261-3.506,0-3.506S562.819,45.919,565.08,45.919"
					/>
				<path clip-path="url(#SVGID_6_)" fill="#F7941E" d="M557.495,45.833c2.261,0,2.261-3.506,0-3.506S555.234,45.833,557.495,45.833
					"/>
				<path clip-path="url(#SVGID_6_)" fill="#F7941E" d="M555.534,48.987c2.261,0,2.261-3.506,0-3.506S553.273,48.987,555.534,48.987
					"/>
				<path clip-path="url(#SVGID_6_)" fill="#F7941E" d="M553.489,42.424c2.261,0,2.261-3.506,0-3.506S551.228,42.424,553.489,42.424
					"/>
				<path clip-path="url(#SVGID_6_)" fill="#F7941E" d="M557.068,54.868c2.261,0,2.261-3.506,0-3.506S554.807,54.868,557.068,54.868
					"/>
				<path clip-path="url(#SVGID_6_)" fill="#F7941E" d="M560.733,53.93c2.261,0,2.261-3.506,0-3.506S558.472,53.93,560.733,53.93"/>
				<path clip-path="url(#SVGID_6_)" fill="#F7941E" d="M562.864,51.032c2.261,0,2.261-3.506,0-3.506S560.603,51.032,562.864,51.032
					"/>
				<path clip-path="url(#SVGID_6_)" fill="#F7941E" d="M566.699,51.97c2.261,0,2.261-3.506,0-3.506S564.438,51.97,566.699,51.97"/>
				<path clip-path="url(#SVGID_6_)" fill="#F7941E" d="M559.54,62.283c2.261,0,2.261-3.506,0-3.506S557.279,62.283,559.54,62.283"
					/>
				<path clip-path="url(#SVGID_6_)" fill="#F7941E" d="M559.795,69.187c2.261,0,2.261-3.506,0-3.506S557.535,69.187,559.795,69.187
					"/>
				<path clip-path="url(#SVGID_6_)" fill="#F7941E" d="M570.706,48.732c2.261,0,2.261-3.506,0-3.506S568.445,48.732,570.706,48.732
					"/>
				<path clip-path="url(#SVGID_6_)" fill="#F7941E" d="M503.715,89.301c2.261,0,2.261-3.506,0-3.506S501.455,89.301,503.715,89.301
					"/>
				<path clip-path="url(#SVGID_6_)" fill="#F7941E" d="M490.42,70.806c2.261,0,2.261-3.506,0-3.506S488.16,70.806,490.42,70.806"/>
			</g>
			<g clip-path="url(#SVGID_2_)">
				<defs>
					<rect id="SVGID_7_" x="-90.643" y="-32.739" width="763" height="874"/>
				</defs>
				<clipPath id="SVGID_8_">
					<use xlink:href="#SVGID_7_"  overflow="visible"/>
				</clipPath>
				<path clip-path="url(#SVGID_8_)" fill="#F7941E" d="M607.04,181.876c3.028,0,3.028-4.695,0-4.695
					S604.011,181.876,607.04,181.876"/>
				<path clip-path="url(#SVGID_8_)" fill="#F7941E" d="M616.417,163.385c3.028,0,3.028-4.695,0-4.695
					S613.388,163.385,616.417,163.385"/>
				<path clip-path="url(#SVGID_8_)" fill="#F7941E" d="M468.228,148.137c3.028,0,3.028-4.695,0-4.695
					S465.2,148.137,468.228,148.137"/>
				<path clip-path="url(#SVGID_8_)" fill="#F7941E" d="M493.204,161.72c3.028,0,3.028-4.695,0-4.695S490.175,161.72,493.204,161.72
					"/>
				<path clip-path="url(#SVGID_8_)" fill="#F7941E" d="M520.545,129.12c3.028,0,3.028-4.695,0-4.695S517.517,129.12,520.545,129.12
					"/>
				<path clip-path="url(#SVGID_8_)" fill="#F7941E" d="M501.617,100.551c3.028,0,3.028-4.695,0-4.695
					S498.588,100.551,501.617,100.551"/>
				<path clip-path="url(#SVGID_8_)" fill="#F7941E" d="M496.272,76.627c3.028,0,3.028-4.695,0-4.695S493.244,76.627,496.272,76.627
					"/>
			</g>
			<g clip-path="url(#SVGID_2_)">
				<defs>
					<rect id="SVGID_9_" x="-90.643" y="-32.739" width="763" height="874"/>
				</defs>
				<clipPath id="SVGID_10_">
					<use xlink:href="#SVGID_9_"  overflow="visible"/>
				</clipPath>
				<path clip-path="url(#SVGID_10_)" d="M547.128-7.511c2.261,0,2.261-3.506,0-3.506S544.868-7.511,547.128-7.511"/>
				<path clip-path="url(#SVGID_10_)" d="M543.452,86.874c2.261,0,2.261-3.506,0-3.506S541.191,86.874,543.452,86.874"/>
				<path clip-path="url(#SVGID_10_)" d="M536.214,84.6c2.261,0,2.261-3.506,0-3.506S533.954,84.6,536.214,84.6"/>
				<path clip-path="url(#SVGID_10_)" d="M511.159,18.076c2.261,0,2.261-3.506,0-3.506S508.898,18.076,511.159,18.076"/>
				<path clip-path="url(#SVGID_10_)" d="M512.495,9.661c2.261,0,2.261-3.506,0-3.506S510.234,9.661,512.495,9.661"/>
				<path clip-path="url(#SVGID_10_)" d="M519.289,7.045c2.261,0,2.261-3.506,0-3.506S517.028,7.045,519.289,7.045"/>
				<path clip-path="url(#SVGID_10_)" d="M526.304,1.701c2.261,0,2.261-3.506,0-3.506S524.043,1.701,526.304,1.701"/>
				<path clip-path="url(#SVGID_10_)" d="M526.861-4.554c2.261,0,2.261-3.506,0-3.506S524.6-4.554,526.861-4.554"/>
				<path clip-path="url(#SVGID_10_)" d="M533.097-2.962c2.261,0,2.261-3.506,0-3.506S530.836-2.962,533.097-2.962"/>
				<path clip-path="url(#SVGID_10_)" d="M535.1-8.307c2.261,0,2.261-3.506,0-3.506S532.839-8.307,535.1-8.307"/>
				<path clip-path="url(#SVGID_10_)" d="M538.999-4.668c2.261,0,2.261-3.506,0-3.506S536.738-4.668,538.999-4.668"/>
				<path clip-path="url(#SVGID_10_)" d="M545.234-10.467c2.261,0,2.261-3.506,0-3.506S542.973-10.467,545.234-10.467"/>
			</g>
			<g clip-path="url(#SVGID_2_)">
				<defs>
					<rect id="SVGID_11_" x="-90.643" y="-32.739" width="763" height="874"/>
				</defs>
				<clipPath id="SVGID_12_">
					<use xlink:href="#SVGID_11_"  overflow="visible"/>
				</clipPath>
				<path clip-path="url(#SVGID_12_)" fill="#F7941E" d="M503.715,83.216c4.521,0,4.521-7.012,0-7.012
					C499.194,76.204,499.194,83.216,503.715,83.216"/>
			</g>
			<g clip-path="url(#SVGID_2_)">
				<defs>
					<rect id="SVGID_13_" x="-90.643" y="-32.739" width="763" height="874"/>
				</defs>
				<clipPath id="SVGID_14_">
					<use xlink:href="#SVGID_13_"  overflow="visible"/>
				</clipPath>
				<path clip-path="url(#SVGID_14_)" d="M578.362,179.419c3.229,0,3.229-5.009,0-5.009
					C575.132,174.41,575.132,179.419,578.362,179.419"/>
				<path clip-path="url(#SVGID_14_)" d="M622.792,134.568c3.229,0,3.229-5.009,0-5.009
					C619.563,129.559,619.563,134.568,622.792,134.568"/>
				<path clip-path="url(#SVGID_14_)" d="M628.088,115.677c3.229,0,3.229-5.009,0-5.009
					C624.859,110.668,624.859,115.677,628.088,115.677"/>
				<path clip-path="url(#SVGID_14_)" d="M473.269,65.097c3.229,0,3.229-5.009,0-5.009S470.041,65.097,473.269,65.097"/>
				<path clip-path="url(#SVGID_14_)" d="M492.491,90.448c3.229,0,3.229-5.009,0-5.009
					C489.261,85.439,489.261,90.448,492.491,90.448"/>
				<path clip-path="url(#SVGID_14_)" d="M479.831,113.361c3.229,0,3.229-5.009,0-5.009
					C476.601,108.352,476.601,113.361,479.831,113.361"/>
				<path clip-path="url(#SVGID_14_)" d="M629.814,89.351c3.229,0,3.229-5.009,0-5.009
					C626.584,84.342,626.584,89.351,629.814,89.351"/>
				<path clip-path="url(#SVGID_14_)" d="M640.749,75.944c3.229,0,3.229-5.009,0-5.009
					C637.519,70.936,637.519,75.944,640.749,75.944"/>
				<path clip-path="url(#SVGID_14_)" d="M476.608,96.812c4.521,0,4.521-7.012,0-7.012
					C472.086,89.799,472.086,96.812,476.608,96.812"/>
				<path clip-path="url(#SVGID_14_)" d="M614.275,187.247c4.521,0,4.521-7.012,0-7.012S609.753,187.247,614.275,187.247"/>
				<path clip-path="url(#SVGID_14_)" d="M599.542,212.476c4.521,0,4.521-7.012,0-7.012
					C595.021,205.464,595.021,212.476,599.542,212.476"/>
				<path clip-path="url(#SVGID_14_)" d="M659.972,165.308c4.521,0,4.521-7.012,0-7.012
					C655.451,158.296,655.451,165.308,659.972,165.308"/>
				<path clip-path="url(#SVGID_14_)" d="M641.327,86.331c4.521,0,4.521-7.012,0-7.012
					C636.805,79.318,636.805,86.331,641.327,86.331"/>
				<path clip-path="url(#SVGID_14_)" d="M625.095,59.151c4.521,0,4.521-7.012,0-7.012S620.574,59.151,625.095,59.151"/>
			</g>
		</g>
	</g>
</g>
<g id="Ebene_4">
	<path fill="none" stroke="#000000" stroke-width="3" stroke-linecap="round" stroke-linejoin="round" stroke-miterlimit="10" d="
		M450.884,42.794c0,0-4.508,31.196-8.503,29.012c-3.994-2.183-22.766-4.193-22.766-4.193l-5.838,31.264l-14.685-4.844l-5.59,40.674
		l-11.447-9.883l-2.858,37.461c0,0-16.787-84.689-16.484-103.838"/>
	<path fill="none" stroke="#000000" stroke-width="3" stroke-linecap="round" stroke-linejoin="round" stroke-miterlimit="10" d="
		M462.638,10.39c0,0-105.405,23.183-113.725,28.059c1.767,46.801,24.964,149.708,26.982,152.634
		c18.154-2.925,104.896-11.483,110.948-10.508C480.792,135.723,462.638,10.39,462.638,10.39z"/>
	<path fill="none" stroke="#000000" stroke-width="3" stroke-linecap="round" stroke-linejoin="round" stroke-miterlimit="10" d="
		M473.637,88.183c0,0,23.518-2.669,30.578,2.206c-1.008,18.526-0.236,131.66-0.236,131.66l-101.807-3.211l1-29.628"/>
	<path fill="none" stroke="#000000" stroke-width="3" stroke-linecap="round" stroke-linejoin="round" stroke-miterlimit="10" d="
		M661.334,88.183l-102.881,5.85l7.399,140.388l101.391-1.934C667.244,232.487,670.417,93.058,661.334,88.183z"/>
	<path fill="none" stroke="#000000" stroke-width="3" stroke-linecap="round" stroke-linejoin="round" stroke-miterlimit="10" d="
		M683.134,161.302l5.192,88.208h149.985c0,0-9.263-81.374-11.279-87.225C825.704,158.406,703.717,153.481,683.134,161.302z"/>
	<path fill="none" stroke="#000000" stroke-width="3" stroke-linecap="round" stroke-linejoin="round" stroke-miterlimit="10" d="
		M836.932,234.421l-0.823-85.63c0,0-124.541,1.489-139.116,4.257"/>
	
		<polyline fill="none" stroke="#000000" stroke-width="3" stroke-linecap="round" stroke-linejoin="round" stroke-miterlimit="10" points="
		809.592,249.51 683.134,260.235 673.728,171.061 683.487,171.061 	"/>
	
		<line fill="none" stroke="#000000" stroke-width="3" stroke-linecap="round" stroke-linejoin="round" stroke-miterlimit="10" x1="667.781" y1="200.781" x2="674.729" y2="200.781"/>
	<path fill="none" stroke="#000000" stroke-width="3" stroke-linecap="round" stroke-linejoin="round" stroke-miterlimit="10" d="
		M734.407,149.689c0,0-8.293-106.358-6.897-111.233c1.396-4.875-113.3,0-113.3,0l7.062,48.998"/>
	
		<polyline fill="none" stroke="#000000" stroke-width="3" stroke-linecap="round" stroke-linejoin="round" stroke-miterlimit="10" points="
		471.033,67.612 561.805,67.612 561.461,93.345 	"/>
	<path fill="none" stroke="#000000" stroke-width="3" stroke-linecap="round" stroke-linejoin="round" stroke-miterlimit="10" d="
		M503.811,190.99c0,0,52.133-1.711,57.335,0"/>
	<path fill="none" stroke="#000000" stroke-width="3" stroke-linecap="round" stroke-linejoin="round" stroke-miterlimit="10" d="
		M34.444,73.091c0,0-3.033,146.91-6.059,148.574c25.215,1.664,99.786,0,99.786,0s10.11-147.202,3.049-155.236
		C107.014,68.146,34.444,73.091,34.444,73.091z"/>
	<path fill="none" stroke="#000000" stroke-width="3" stroke-linecap="round" stroke-linejoin="round" stroke-miterlimit="10" d="
		M130.032,194.395h35.48c0,0,0.083-151.601-6.051-151.601c-32.431,0-91.782,5.851-91.782,5.851v22.047"/>
	
		<polyline fill="none" stroke="#000000" stroke-width="3" stroke-linecap="round" stroke-linejoin="round" stroke-miterlimit="10" points="
		357.209,65.364 362.709,56.674 368.581,64.476 	"/>
	<path fill="none" stroke="#000000" stroke-width="3" stroke-linecap="round" stroke-linejoin="round" stroke-miterlimit="10" d="
		M379.198,162.285c0,0,86.439-15.687,94.038-15.789c-1.57-1.876-6.342-5.082-6.342-5.082"/>
	
		<line fill="none" stroke="#000000" stroke-width="3" stroke-linecap="round" stroke-linejoin="round" stroke-miterlimit="10" x1="468.728" y1="151.85" x2="473.236" y2="146.496"/>
	<path fill="none" stroke="#000000" stroke-width="3" stroke-linecap="round" stroke-linejoin="round" stroke-miterlimit="10" d="
		M698.093,173.699l5.771-2.639L709,177.6l9.537-3.27c0,0-5.661-8.12-5.135-3.27s5.135,6.54,5.135,6.54l9.171-2.128l12.106-1.914
		v6.045"/>
	
		<polyline fill="none" stroke="#000000" stroke-width="3" stroke-linecap="round" stroke-linejoin="round" stroke-miterlimit="10" points="
		751.186,177.955 751.186,171.061 764.025,177.955 767.512,171.061 755.954,177.955 782,177.955 	"/>
	
		<polyline fill="none" stroke="#000000" stroke-width="3" stroke-linecap="round" stroke-linejoin="round" stroke-miterlimit="10" points="
		791.17,174.56 791.17,179.603 801.074,174.56 796.122,171.061 806.21,179.603 	"/>
	
		<polyline fill="none" stroke="#000000" stroke-width="3" stroke-linecap="round" stroke-linejoin="round" stroke-miterlimit="10" points="
		700.197,193.942 706.8,194.395 706.8,188.594 702.03,196.396 713.035,194.395 722.94,194.395 722.94,196.396 	"/>
	
		<polyline fill="none" stroke="#000000" stroke-width="3" stroke-linecap="round" stroke-linejoin="round" stroke-miterlimit="10" points="
		734.407,193.942 734.407,196.396 741.661,195.169 	"/>
	<path fill="none" stroke="#000000" stroke-width="3" stroke-linecap="round" stroke-linejoin="round" stroke-miterlimit="10" d="
		M751.186,197.813l3.302-5.319h9.17l5.87,3.901c0,0-15.836,4.016-8.806,1.418c7.03-2.598,11.373-5.614,14.674-3.871
		c3.302,1.744,12.106,2.453,12.106,2.453l5.135-1.227l8.437,5.612"/>
	
		<polyline fill="none" stroke="#000000" stroke-width="3" stroke-linecap="round" stroke-linejoin="round" stroke-miterlimit="10" points="
		812.079,196.396 812.079,198.962 818.682,196.638 818.682,192.494 	"/>
	<path fill="none" stroke="#000000" stroke-width="3" stroke-linecap="round" stroke-linejoin="round" stroke-miterlimit="10" d="
		M702.398,208.282l4.402,4.781l-4.402,2.585c0,0,9.537-3.001,12.472,0.752c2.936,3.754,8.07,0,8.07,0l-1.834-8.119"/>
	<path fill="none" stroke="#000000" stroke-width="3" stroke-linecap="round" stroke-linejoin="round" stroke-miterlimit="10" d="
		M734.407,213.175l-3.396,2.473l20.176-2.473c0,0-0.367-1.306,11.371,0s23.477,1.789,22.009-0.58c-1.466-2.37-8.437,0-8.437,0
		l15.041,0.58l1.834-4.894l5.686,8.119"/>
	
		<polyline fill="none" stroke="#000000" stroke-width="3" stroke-linecap="round" stroke-linejoin="round" stroke-miterlimit="10" points="
		812.079,213.175 807.676,218.069 815.38,218.069 	"/>
	
		<polyline fill="none" stroke="#000000" stroke-width="3" stroke-linecap="round" stroke-linejoin="round" stroke-miterlimit="10" points="
		704.599,226.893 702.398,234.421 711.569,233.276 	"/>
	
		<polyline fill="none" stroke="#000000" stroke-width="3" stroke-linecap="round" stroke-linejoin="round" stroke-miterlimit="10" points="
		722.94,232.212 722.94,236.113 731.01,236.113 728.442,232.212 734.407,228.312 739.815,232.212 749.351,234.421 	"/>
	<path fill="none" stroke="#000000" stroke-width="3" stroke-linecap="round" stroke-linejoin="round" stroke-miterlimit="10" d="
		M755.588,232.212l2.567,2.208l6.693-3.764l6.146,1.882c0,0,3.301-4.582,0-4.228c-3.302,0.354,6.603,3.901,6.603,3.901"/>
	
		<polyline fill="none" stroke="#000000" stroke-width="3" stroke-linecap="round" stroke-linejoin="round" stroke-miterlimit="10" points="
		782,228.312 783.834,232.212 789.703,230.262 801.074,230.262 	"/>
	
		<polyline fill="none" stroke="#000000" stroke-width="3" stroke-linecap="round" stroke-linejoin="round" stroke-miterlimit="10" points="
		824.917,157.149 821.628,160.854 816.849,157.149 811.529,159.002 806.21,159.002 	"/>
	<path fill="none" stroke="#000000" stroke-width="3" stroke-linecap="round" stroke-linejoin="round" stroke-miterlimit="10" d="
		M576.576,208.171c0,0,71.165-3.685,78.501,0.778"/>
	<path fill="none" stroke="#000000" stroke-width="3" stroke-linecap="round" stroke-linejoin="round" stroke-miterlimit="10" d="
		M580.611,206.742v-28.436h6.97v28.436h6.97l-1.468-36.238h7.337l1.835,36.238l8.793,0.187l-1.824-72.965h6.603l2.936,72.825
		l8.224-0.047v-21.699h5.349l1.834,21.699c0,0,3.212,0.115,5.084,0.187s-2.517-86.427-2.517-86.427h6.237l4.034,86.24"/>
	
		<polyline fill="none" stroke="#000000" stroke-width="3" stroke-linecap="round" stroke-linejoin="round" stroke-miterlimit="10" points="
		580.611,218.069 585.748,220.155 585.748,215.648 583.179,222.048 	"/>
	
		<line fill="none" stroke="#000000" stroke-width="3" stroke-linecap="round" stroke-linejoin="round" stroke-miterlimit="10" x1="600.053" y1="215.622" x2="596.384" y2="218.069"/>
	
		<polyline fill="none" stroke="#000000" stroke-width="3" stroke-linecap="round" stroke-linejoin="round" stroke-miterlimit="10" points="
		613.117,215.622 610.691,218.848 615.826,218.069 618.761,218.848 	"/>
	
		<polyline fill="none" stroke="#000000" stroke-width="3" stroke-linecap="round" stroke-linejoin="round" stroke-miterlimit="10" points="
		630.867,215.622 627.932,216.846 632.701,218.848 632.701,216.846 	"/>
	
		<polyline fill="none" stroke="#000000" stroke-width="3" stroke-linecap="round" stroke-linejoin="round" stroke-miterlimit="10" points="
		644.072,215.622 642.972,218.848 648.474,218.069 651.042,220.51 	"/>
	<path fill="none" stroke="#000000" stroke-width="3" stroke-linecap="round" stroke-linejoin="round" stroke-miterlimit="10" d="
		M382.887,171.061v4.271l3.668-4.271c0,0-2.901,2.881,2.568,3.499c5.469,0.618,3.301-3.499,3.301-3.499l4.769,4.271l5.136-4.271
		l2.844-3.657l4.126,3.964c0,0,4.739,1.76,5.296-0.307s3.281-3.657,3.281-3.657l2.793,3.657"/>
	
		<polyline fill="none" stroke="#000000" stroke-width="3" stroke-linecap="round" stroke-linejoin="round" stroke-miterlimit="10" points="
		426.215,165.897 426.215,169.516 431.675,167.403 428.945,163.716 431.675,171.368 436.077,167.542 	"/>
	<path fill="none" stroke="#000000" stroke-width="3" stroke-linecap="round" stroke-linejoin="round" stroke-miterlimit="10" d="
		M704.966,73.34c0,0-7.703,4.255-2.568,7.092s15.454,0.046,10.271-6.207c-3.154-3.807-8.731-2.305-8.731-2.305"/>
	<path fill="none" stroke="#000000" stroke-width="3" stroke-linecap="round" stroke-linejoin="round" stroke-miterlimit="10" d="
		M640.402,48.162c0,0-6.601,4.966-2.933,8.512s13.478-0.363,12.472-4.256c-1.101-4.256-10.156-4.255-10.156-4.255"/>
	<path fill="none" stroke="#000000" stroke-width="3" stroke-linecap="round" stroke-linejoin="round" stroke-miterlimit="10" d="
		M686.257,113.059c0,0-5.512,2.476-3.123,7.444c2.389,4.968,11.194,1.5,10.46-1.908S686.257,113.059,686.257,113.059z"/>
	<path fill="none" stroke="#000000" stroke-width="3" stroke-linecap="round" stroke-linejoin="round" stroke-miterlimit="10" d="
		M655.449,62.347l-3.975-4.259c2.267-0.713,45.419,15.252,45.419,15.252"/>
	
		<line fill="none" stroke="#000000" stroke-width="3" stroke-linecap="round" stroke-linejoin="round" stroke-miterlimit="10" x1="658.011" y1="56.674" x2="651.474" y2="58.088"/>
	<path fill="none" stroke="#000000" stroke-width="3" stroke-linecap="round" stroke-linejoin="round" stroke-miterlimit="10" d="
		M667.781,133.627l3.475,2.218l2.473-4.701c0,0-6.125,2.664,1.001,4.701c7.126,2.038,7.805-2.35,7.805-2.35l-2.879-4.124
		l5.136,10.284"/>
	
		<polyline fill="none" stroke="#000000" stroke-width="3" stroke-linecap="round" stroke-linejoin="round" stroke-miterlimit="10" points="
		688.085,130.79 688.085,134.513 693.637,134.513 698.093,130.79 	"/>
	<path fill="none" stroke="#000000" stroke-width="3" stroke-linecap="round" stroke-linejoin="round" stroke-miterlimit="10" d="
		M667.781,148.409h6.402l-0.455,3.441c0,0,3.349-3.909,9.406-3.441c6.058,0.467,7.159-0.849,7.159-0.849"/>
	
		<polyline fill="none" stroke="#000000" stroke-width="3" stroke-linecap="round" stroke-linejoin="round" stroke-miterlimit="10" points="
		669.383,161.302 673.728,161.302 673.728,164.833 679.038,164.833 	"/>
	
		<polyline fill="none" stroke="#000000" stroke-width="3" stroke-linecap="round" stroke-linejoin="round" stroke-miterlimit="10" points="
		684.791,111.64 683.134,99.229 679.038,102.865 	"/>
	
		<line fill="none" stroke="#000000" stroke-width="3" stroke-linecap="round" stroke-linejoin="round" stroke-miterlimit="10" x1="683.134" y1="99.229" x2="688.085" y2="101.8"/>
	
		<polyline fill="none" stroke="#000000" stroke-width="3" stroke-linecap="round" stroke-linejoin="round" stroke-miterlimit="10" points="
		676.287,90.008 676.287,96.746 690.293,96.746 690.293,88.183 674.729,88.183 	"/>
	<path fill="none" stroke="#000000" stroke-width="3" stroke-linecap="round" stroke-linejoin="round" stroke-miterlimit="10" d="
		M699.302,87.453l5.664-2.055c-0.367,3.9-11.329,30.143-11.329,30.143"/>
	
		<line fill="none" stroke="#000000" stroke-width="3" stroke-linecap="round" stroke-linejoin="round" stroke-miterlimit="10" x1="708.267" y1="90.86" x2="704.966" y2="85.398"/>
	
		<polyline fill="none" stroke="#000000" stroke-width="3" stroke-linecap="round" stroke-linejoin="round" stroke-miterlimit="10" points="
		477.532,105.435 481.933,107.03 481.933,111.64 486.843,105.435 484.869,102.54 490.738,111.64 	"/>
	
		<polyline fill="none" stroke="#000000" stroke-width="3" stroke-linecap="round" stroke-linejoin="round" stroke-miterlimit="10" points="
		480.101,118.594 484.135,122.984 485.603,118.594 	"/>
	
		<polyline fill="none" stroke="#000000" stroke-width="3" stroke-linecap="round" stroke-linejoin="round" stroke-miterlimit="10" points="
		480.43,134.513 486.843,135.845 486.843,130.79 484.135,139.655 490.738,139.655 	"/>
	
		<polyline fill="none" stroke="#000000" stroke-width="3" stroke-linecap="round" stroke-linejoin="round" stroke-miterlimit="10" points="
		417.877,192.494 431.146,192.494 431.146,198.962 434.61,195.169 434.61,191.606 439.012,195.284 	"/>
	<path fill="none" stroke="#000000" stroke-width="3" stroke-linecap="round" stroke-linejoin="round" stroke-miterlimit="10" d="
		M446.349,193.942l2.57,5.02l3.668-5.02l6.604,2.695h9.537l-2.934-2.243c0,0-9.537,5.808-1.102,6.387
		c8.438,0.579,8.543-3.419,8.543-3.419"/>
	
		<polyline fill="none" stroke="#000000" stroke-width="3" stroke-linecap="round" stroke-linejoin="round" stroke-miterlimit="10" points="
		458.07,182.332 458.07,188.594 463.959,182.332 466.894,185.463 473.236,182.332 474.598,185.463 	"/>
	<path fill="none" stroke="#000000" stroke-width="3" stroke-linecap="round" stroke-linejoin="round" stroke-miterlimit="10" d="
		M490.738,187.175l-3.895-1.712c0,0,4.628-3.502,3.895-5.86s-3.895-1.648-3.895-1.648"/>
	
		<line fill="none" stroke="#000000" stroke-width="3" stroke-linecap="round" stroke-linejoin="round" stroke-miterlimit="10" x1="482.851" y1="147.56" x2="484.135" y2="149.705"/>
	<path fill="none" stroke="#000000" stroke-width="3" stroke-linecap="round" stroke-linejoin="round" stroke-miterlimit="10" d="
		M539.893,83.941c0,0-37.416,20.599-25.312,39.043c1.835-2.124,1.838-4.963,1.838-4.963"/>
	
		<line fill="none" stroke="#000000" stroke-width="3" stroke-linecap="round" stroke-linejoin="round" stroke-miterlimit="10" x1="509.08" y1="120.789" x2="514.582" y2="122.984"/>
	<path fill="none" stroke="#000000" stroke-width="3" stroke-linecap="round" stroke-linejoin="round" stroke-miterlimit="10" d="
		M512.171,132.651l1.311,3.194l5.135-1.597c0,0-1.835-1.685,4.035,0.974c5.869,2.66,3.38-2.571,3.38-2.571l-4.48-1.861"/>
	
		<polyline fill="none" stroke="#000000" stroke-width="3" stroke-linecap="round" stroke-linejoin="round" stroke-miterlimit="10" points="
		532.479,132.651 531.089,135.977 538.426,135.977 	"/>
	<path fill="none" stroke="#000000" stroke-width="3" stroke-linecap="round" stroke-linejoin="round" stroke-miterlimit="10" d="
		M516.419,143.202v4.358l6.232-2.179l3.904,2.179c0,0,7.679-0.354,5.923-2.179"/>
	
		<polyline fill="none" stroke="#000000" stroke-width="3" stroke-linecap="round" stroke-linejoin="round" stroke-miterlimit="10" points="
		546.129,79.015 546.129,83.941 543.928,79.015 550.164,80.479 	"/>
	
		<polyline fill="none" stroke="#000000" stroke-width="3" stroke-linecap="round" stroke-linejoin="round" stroke-miterlimit="10" points="
		504.215,149.705 509.08,160.854 506.647,160.854 511.831,159.002 509.08,154.751 	"/>
	
		<polyline fill="none" stroke="#000000" stroke-width="3" stroke-linecap="round" stroke-linejoin="round" stroke-miterlimit="10" points="
		514.582,157.149 516.419,161.302 522.285,159.002 519.365,155.28 	"/>
	
		<line fill="none" stroke="#000000" stroke-width="3" stroke-linecap="round" stroke-linejoin="round" stroke-miterlimit="10" x1="509.08" y1="143.202" x2="503.697" y2="143.202"/>
	
		<line fill="none" stroke="#000000" stroke-width="3" stroke-linecap="round" stroke-linejoin="round" stroke-miterlimit="10" x1="506.388" y1="134.513" x2="504.215" y2="135.845"/>
	
		<line fill="none" stroke="#000000" stroke-width="3" stroke-linecap="round" stroke-linejoin="round" stroke-miterlimit="10" x1="550.164" y1="75.469" x2="553.833" y2="76.585"/>
	<path fill="none" stroke="#000000" stroke-width="3" stroke-linecap="round" stroke-linejoin="round" stroke-miterlimit="10" d="
		M80.988,93.345c0,0-23.477,4.11-24.944,18.295c12.472,9.149,24.944,17.731,24.944,17.731V93.345z"/>
	<path fill="none" stroke="#000000" stroke-width="3" stroke-linecap="round" stroke-linejoin="round" stroke-miterlimit="10" d="
		M52.008,121.92l27.879,12.992l-5.869,32.629C74.018,167.542,39.536,155.605,52.008,121.92z"/>
	<path fill="none" stroke="#000000" stroke-width="3" stroke-linecap="round" stroke-linejoin="round" stroke-miterlimit="10" d="
		M85.022,138.237l-4.034,31.279c0,0,12.472,0,22.622-6.448C96.396,154.751,85.022,138.237,85.022,138.237z"/>
	<path fill="none" stroke="#000000" stroke-width="3" stroke-linecap="round" stroke-linejoin="round" stroke-miterlimit="10" d="
		M90.527,136.642l19.075,23.777c0,0,7.401-4.075,6.971-9.666C109.834,145.795,90.527,136.642,90.527,136.642z"/>
	<path fill="none" stroke="#000000" stroke-width="3" stroke-linecap="round" stroke-linejoin="round" stroke-miterlimit="10" d="
		M119.141,143.202L91.628,130.79l12.655-34.044C104.284,96.746,130.511,115.542,119.141,143.202z"/>
	<path fill="none" stroke="#000000" stroke-width="3" stroke-linecap="round" stroke-linejoin="round" stroke-miterlimit="10" d="
		M88.325,93.345l-2.783,36.027l9.02-36.027C94.562,93.345,90.16,92.425,88.325,93.345z"/>
	<path fill="none" stroke="#000000" stroke-width="3" stroke-linecap="round" stroke-linejoin="round" stroke-miterlimit="10" d="
		M62.28,147.56c0,0-11.372,14.51-9.904,27.772"/>
	
		<polyline fill="none" stroke="#000000" stroke-width="3" stroke-linecap="round" stroke-linejoin="round" stroke-miterlimit="10" points="
		57.262,147.56 62.28,146.496 62.28,151.85 	"/>
	<path fill="none" stroke="#000000" stroke-width="3" stroke-linecap="round" stroke-linejoin="round" stroke-miterlimit="10" d="
		M49.289,182.332l-1.682,4.843l4.639-2.422l2.331,2.422c0,0,6.721,2.25,5.194-1.712c-1.526-3.961-3.727-2.948-3.727-2.948
		l6.236,2.557"/>
	<path fill="none" stroke="#000000" stroke-width="3" stroke-linecap="round" stroke-linejoin="round" stroke-miterlimit="10" d="
		M94.562,197.391c0,0-2.048-33.939-4.51-36.972"/>
	
		<polyline fill="none" stroke="#000000" stroke-width="3" stroke-linecap="round" stroke-linejoin="round" stroke-miterlimit="10" points="
		87.591,163.716 89.793,158.291 94.562,161.918 	"/>
	
		<polyline fill="none" stroke="#000000" stroke-width="3" stroke-linecap="round" stroke-linejoin="round" stroke-miterlimit="10" points="
		83.34,203.33 83.34,208.949 90.052,206.14 87.591,203.33 90.052,208.282 94.562,206.14 	"/>
	<path fill="none" stroke="#000000" stroke-width="3" stroke-linecap="round" stroke-linejoin="round" stroke-miterlimit="10" d="
		M98.229,200.838c0,0,18.363-22.984,16.161-37.771"/>
	
		<polyline fill="none" stroke="#000000" stroke-width="3" stroke-linecap="round" stroke-linejoin="round" stroke-miterlimit="10" points="
		111.434,164.833 114.37,161.302 118.771,165.274 	"/>
	<path fill="none" stroke="#000000" stroke-width="3" stroke-linecap="round" stroke-linejoin="round" stroke-miterlimit="10" d="
		M62.28,92.464c0,0,4.402,11.493,7.703,14.625v-4.55"/>
	
		<line fill="none" stroke="#000000" stroke-width="3" stroke-linecap="round" stroke-linejoin="round" stroke-miterlimit="10" x1="66.132" y1="107.09" x2="69.983" y2="107.09"/>
	
		<polyline fill="none" stroke="#000000" stroke-width="3" stroke-linecap="round" stroke-linejoin="round" stroke-miterlimit="10" points="
		52.245,85.398 52.245,92.464 57.262,88.129 57.262,85.398 62.28,85.398 	"/>
	<path fill="none" stroke="#000000" stroke-width="3" stroke-linecap="round" stroke-linejoin="round" stroke-miterlimit="10" d="
		M115.103,93.345c0,0,0.367,26.731-5.869,28.542"/>
	
		<polyline fill="none" stroke="#000000" stroke-width="3" stroke-linecap="round" stroke-linejoin="round" stroke-miterlimit="10" points="
		106.814,118.594 109.234,122.984 112.17,122.984 	"/>
	
		<polyline fill="none" stroke="#000000" stroke-width="3" stroke-linecap="round" stroke-linejoin="round" stroke-miterlimit="10" points="
		106.814,83.941 106.814,88.129 114.573,86.036 110.693,81.542 116.588,87.453 118.771,84.835 	"/>
	<path fill="none" stroke="#000000" stroke-width="3" stroke-linecap="round" stroke-linejoin="round" stroke-miterlimit="10" d="
		M83.34,62.348l-2.352,5.265l7.963-2.632c0,0-6.129-4.815,7.077,0"/>
	
		<line fill="none" stroke="#000000" stroke-width="3" stroke-linecap="round" stroke-linejoin="round" stroke-miterlimit="10" x1="103.56" y1="64.98" x2="103.609" y2="67.612"/>
	
		<polyline fill="none" stroke="#000000" stroke-width="3" stroke-linecap="round" stroke-linejoin="round" stroke-miterlimit="10" points="
		111.434,62.348 111.434,65.703 115.103,64.025 120.239,65.703 125.741,61.019 118.771,61.019 	"/>
	<path fill="none" stroke="#000000" stroke-width="3" stroke-linecap="round" stroke-linejoin="round" stroke-miterlimit="10" d="
		M135.645,83.941c0,0,4.036,0.997,2.568,4.241c-1.468,3.244,4.769-4.241,4.769-4.241l3.026,4.188"/>
	<path fill="none" stroke="#000000" stroke-width="3" stroke-linecap="round" stroke-linejoin="round" stroke-miterlimit="10" d="
		M134.301,99.777l1.344,2.763l5.182-2.763c0,0-9.491,0.045,0,2.763c9.492,2.717,9.492-2.763,9.492-2.763l-1.467-0.548"/>
	
		<polyline fill="none" stroke="#000000" stroke-width="3" stroke-linecap="round" stroke-linejoin="round" stroke-miterlimit="10" points="
		134.301,115.542 137.479,118.594 137.479,122.984 	"/>
	<path fill="none" stroke="#000000" stroke-width="3" stroke-linecap="round" stroke-linejoin="round" stroke-miterlimit="10" d="
		M146.008,115.542l-2.292,3.721c0,0,9.537,0.966,8.437-0.668"/>
	
		<polyline fill="none" stroke="#000000" stroke-width="3" stroke-linecap="round" stroke-linejoin="round" stroke-miterlimit="10" points="
		131.241,179.603 152.241,179.603 147.979,175.332 	"/>
	
		<line fill="none" stroke="#000000" stroke-width="3" stroke-linecap="round" stroke-linejoin="round" stroke-miterlimit="10" x1="147.979" y1="183.579" x2="152.241" y2="179.603"/>
	
		<polyline fill="none" stroke="#000000" stroke-width="3" stroke-linecap="round" stroke-linejoin="round" stroke-miterlimit="10" points="
		131.827,162.285 134.301,165.274 140.24,143.202 143.543,154.239 152.241,134.314 	"/>
	<path fill="none" stroke="#000000" stroke-width="3" stroke-linecap="round" stroke-linejoin="round" stroke-miterlimit="10" d="
		M831.387,147.56c3.334-10.33,3.333-79.948,3.333-79.948l94,5.728c0,0-1.999,132.866-9.333,148.708
		c-30-0.825-81.078-5.647-81.078-5.647"/>
	<path fill="none" stroke="#000000" stroke-width="3" stroke-linecap="round" stroke-linejoin="round" stroke-miterlimit="10" d="
		M847.304,174.508c0,0,16.083,6.528,20.083,10.955"/>
	<path fill="none" stroke="#000000" stroke-width="3" stroke-linecap="round" stroke-linejoin="round" stroke-miterlimit="10" d="
		M854.138,177.955c0,0-5.45,14.987-6.116,16.935s9.698,1.748,9.698,1.748s-0.993-14.447,0-16.123l-2.958-0.912l-4.041,14.339h5
		l0.166-1.448h-2.5l0.375-2.354l1.375-0.125c0,0-0.25-6.875,0.375-7.75"/>
	<g id="Ebene_6">
		<g>
			<g>
				<path d="M861.054,174.724c1.935,0,1.935-3,0-3S859.12,174.724,861.054,174.724L861.054,174.724z"/>
			</g>
		</g>
		<g>
			<g>
				<path d="M856.721,171.39c1.935,0,1.935-3,0-3S854.787,171.39,856.721,171.39L856.721,171.39z"/>
			</g>
		</g>
		<g>
			<g>
				<path d="M856.387,163.39c1.935,0,1.935-3,0-3S854.453,163.39,856.387,163.39L856.387,163.39z"/>
			</g>
		</g>
		<g>
			<g>
				<path d="M852.387,155.057c1.935,0,1.935-3,0-3S850.453,155.057,852.387,155.057L852.387,155.057z"/>
			</g>
		</g>
		<g>
			<g>
				<path d="M863.721,163.39c1.935,0,1.935-3,0-3S861.787,163.39,863.721,163.39L863.721,163.39z"/>
			</g>
		</g>
		<g>
			<g>
				<path d="M881.054,153.057c1.935,0,1.935-3,0-3S879.12,153.057,881.054,153.057L881.054,153.057z"/>
			</g>
		</g>
		<g>
			<g>
				<path d="M884.054,161.39c1.935,0,1.935-3,0-3S882.12,161.39,884.054,161.39L884.054,161.39z"/>
			</g>
		</g>
		<g>
			<g>
				<path d="M875.054,167.39c1.935,0,1.935-3,0-3S873.12,167.39,875.054,167.39L875.054,167.39z"/>
			</g>
		</g>
		<g>
			<g>
				<path d="M902.387,160.39c1.935,0,1.935-3,0-3S900.453,160.39,902.387,160.39L902.387,160.39z"/>
			</g>
		</g>
		<g>
			<g>
				<path d="M864.054,138.057c1.935,0,1.935-3,0-3S862.12,138.057,864.054,138.057L864.054,138.057z"/>
			</g>
		</g>
		<g>
			<g>
				<path d="M855.721,119.724c1.935,0,1.935-3,0-3S853.787,119.724,855.721,119.724L855.721,119.724z"/>
			</g>
		</g>
	</g>
	
		<polyline fill="none" stroke="#000000" stroke-width="3" stroke-linecap="round" stroke-linejoin="round" stroke-miterlimit="10" points="
		890.387,92.464 888.387,96.746 893.721,94.605 896.054,96.746 	"/>
	<path fill="none" stroke="#000000" stroke-width="3" stroke-linecap="round" stroke-linejoin="round" stroke-miterlimit="10" d="
		M902.387,94.605c0,0-4-0.003-2,2.141s10,3.724,10,3.724l-1.333-5.865l-1.667,2.141h7"/>
	
		<polyline fill="none" stroke="#000000" stroke-width="3" stroke-linecap="round" stroke-linejoin="round" stroke-miterlimit="10" points="
		875.054,102.54 878.721,107.09 875.054,107.09 881.054,104.815 884.054,107.09 888.387,104.815 	"/>
	
		<polyline fill="none" stroke="#000000" stroke-width="3" stroke-linecap="round" stroke-linejoin="round" stroke-miterlimit="10" points="
		892.221,107.09 892.221,104.815 896.054,109.224 	"/>
	
		<polyline fill="none" stroke="#000000" stroke-width="3" stroke-linecap="round" stroke-linejoin="round" stroke-miterlimit="10" points="
		902.387,104.815 902.387,109.224 909.721,107.09 911.721,109.224 	"/>
	
		<polyline fill="none" stroke="#000000" stroke-width="3" stroke-linecap="round" stroke-linejoin="round" stroke-miterlimit="10" points="
		884.054,118.021 886.387,120.502 890.721,118.021 	"/>
	<path fill="none" stroke="#000000" stroke-width="3" stroke-linecap="round" stroke-linejoin="round" stroke-miterlimit="10" d="
		M898.054,118.021v2.481c0,0,1.666-2.945,4.333-2.279s8.668,6.521,9.334,4.76s-3-4.962-3-4.962"/>
</g>
<g id="Ebene_3">
	
		<path display="none" fill="none" stroke="#009BA4" stroke-width="6" stroke-linecap="round" stroke-linejoin="round" stroke-miterlimit="10" d="
		M784.387,631.89c0,0,24,12,25,18.5"/>
	
		<path display="none" fill="none" stroke="#009BA4" stroke-width="6" stroke-linecap="round" stroke-linejoin="round" stroke-miterlimit="10" d="
		M809.387,623.39c0,0,10,60.499,0,64.999c-10.287,4.629-36-11.499-32-22.999"/>
	
		<path display="none" fill="none" stroke="#009BA4" stroke-width="6" stroke-linecap="round" stroke-linejoin="round" stroke-miterlimit="10" d="
		M826.387,618.39c0,0-12,18-2,22.75s22-5.25,17.5-13.75S830.138,611.362,826.387,618.39z"/>
	
		<path display="none" fill="none" stroke="#009BA4" stroke-width="6" stroke-linecap="round" stroke-linejoin="round" stroke-miterlimit="10" d="
		M848.887,609.89c0,0,2.54,22,11.5,22c5.853,0,19.5-8.5,13.5-16.278c-7.288-9.449-14-12.722-14-12.722"/>
	
		<path display="none" fill="none" stroke="#009BA4" stroke-width="6" stroke-linecap="round" stroke-linejoin="round" stroke-miterlimit="10" d="
		M892.387,584.89c-12.5-5.5-14.5,11.5-15,15.5s12.5,15.222,12.5,15.222l-17-15.903"/>
	
		<path display="none" fill="none" stroke="#009BA4" stroke-width="6" stroke-linecap="round" stroke-linejoin="round" stroke-miterlimit="10" d="
		M847.89,665.893c0,0-12,9.5-9,14.5s6.847,0,15.54,0c10.706,0,14.449,2.997,7.703,10.997s-21.299,9.5-19.272,6"/>
	
		<path display="none" fill="none" stroke="#009BA4" stroke-width="6" stroke-linecap="round" stroke-linejoin="round" stroke-miterlimit="10" d="
		M869.387,669.39l32.5,43.5c0,0-37.051-44-29-52c0,0,5.5-10.188,17.5-4.594s1.549,23.805-7.75,21.094"/>
	
		<path display="none" fill="none" stroke="#009BA4" stroke-width="6" stroke-linecap="round" stroke-linejoin="round" stroke-miterlimit="10" d="
		M897.716,645.321c0,0,2.415,16.569,10.915,15.069s19-10,13.5-19.25C916.739,632.072,901.92,629.518,897.716,645.321z"/>
	
		<path display="none" fill="none" stroke="#009BA4" stroke-width="6" stroke-linecap="round" stroke-linejoin="round" stroke-miterlimit="10" d="
		M921.887,602.89l30,47.5c0,0-30.5-22-30-23.75s18-16.25,24-15.75"/>
	<g id="Ebene_5">
	</g>
</g>
<g id="Ebene_2">
	<path d="M295.821,186.312c0,0-61.225,21.668-132.036,22.418c-0.024-2.284-3.143-5.565,10.784-6.398
		c13.927-0.831,71.205-6.692,93.84-15.729C291.044,177.566,296.361,183.451,295.821,186.312z"/>
	<path d="M239.937,140.644c0,0-35.125,5.398-47.05,11.808c-10.067-33.59-16.877-47.805-42.21-81.109
		c0,0,41.857-38.139,85.356-40.084C236.033,31.258,241.057,127.725,239.937,140.644z"/>
	<path fill="#F7941E" d="M253.555,190.932c0,0,1.7-1.737-3.757-3.676c-1.327-1.185-0.533-1.88,0.94-2.923
		c1.473-1.042,2.8-5.168-0.699-6.674c0.159-1.086,0.092-2.058-1.056-2.616c1.296-1.671,2.851-4.737-0.479-6.774
		c-3.327-2.037-3.119-3.869-2.21-4.334c0.908-0.467,0.436-1.946-0.656-2.677c-0.363-1.824-1.566-2.21-4.66-3.206
		c2.67-1.229,5.301-6.455,1.678-8.758c-3.624-2.302-0.253-2.166,0.196-2.971c0.449-0.805,0.315-2.746-1.3-4.212
		c-0.057-0.256-0.81-1.521-1.615-1.466c-7.356,0.502-37.13,2.257-48.676,13.326c0,0-3.942,3.995-1.06,6.534
		c1.225,2.386,1.434,3.213,2.349,3.316c0.916,0.104,1.666,1.01,1.5,1.525c-0.166,0.517-0.863,2.095,0.34,2.482
		c1.205,0.387,0.984,1.072-0.008,1.797c-0.993,0.726-2.347,4.938,0.431,5.736c2.779,0.799,1.476,1.611,0.521,3.393
		c-0.952,1.78,0.78,3.476,1.317,5.641c0.537,2.165,1.791,1.807,2.37,2.658s-0.12,2.144-1.201,2.556
		c-1.082,0.41-2.058,2.562-0.879,3.32c1.178,0.76,2.141,2.49,1.488,3.04c-0.651,0.552-0.521,3.049,0.959,4.003
		C199.391,199.97,240.175,194.891,253.555,190.932z"/>
	<path d="M441.669,91.925c0,0,0.764-9.206-0.303-10.806c-1.066-1.601-3.717-2.849-3.717-2.849s-0.372-1.281-2.312-3.913
		c-1.43-1.939-4.168-0.671-4.168-0.671s16.625-40.587,13.958-43.789c-1.841-2.208-20.46,40.014-26.292,45.471
		c-3.238,3.792-11.661,21.381-11.863,25.014c-0.895,16.079,1.778,20.808,1.778,20.808s-0.889,8.359-4.09,10.494
		c-3.202,2.133-28.812,92.303-28.812,92.303l-93.905,48.019c0,0-19.802,7.053-28.251,7.63c-3.024-6.046-2.326-20.969-2.326-20.969
		s-49.098,0-54.433,0c0,0,19.041,12.627,18.946,20.631c-0.094,8.003-13.255,14.406-15.39,14.939
		c-2.133,0.534-81.277,90.347-86.078,101.019c-4.803,10.672,114.471,28.814,114.471,28.814s3.973,6.936,3.973,10.67
		c0,3.737-11.74,6.406-11.74,6.406s-5.339-5.866-6.402-5.336c-1.062,0.532,1.631,9.02,6.402,11.739
		c3.74,2.131,14.337-1.462,14.337-1.462s-2.158,0.14-4.638,6.104c-3.202,4.802-4.63,8.549-11.592,25.585
		c-13.393,32.768-20.116,81.821-24.781,108.491c-4.623,33.256-3.23,36.306-2.696,40.575c7.368-14.766,25.014-36.913,29.282-46.517
		c-1.066,37.881-27.117,301.525-27.117,306.861c2.667-0.533,1.066,2.134,0.533,5.335c-0.534,3.201-12.361,16.007-13.429,24.544
		c9.355,1.879,42.359,2.135,45.027,0c0,0,5.177-5.787-7.589-18.792c-5.193-5.289-12.274-11.087-3.203-11.087
		c2.134-42.151,19.209-305.366,24.011-320.839c1.627-4.971,0,0,0,0s-3.621,64.164-0.296,69.863
		c3.735,6.402,14.831-47.269,14.831-47.269s13.21,294.792,13.21,302.796v4.268c0,0-6.403,14.94-6.403,21.876
		c10.671,2.668,64.283,1.062,64.283,1.062s16.006-0.534,17.606-3.201c1.601-2.668-40.273-18.67-47.209-20.804
		c-6.936-2.134-14.939-6.402-3.735-7.47c-2.668-44.816-22.186-346.84-21.652-351.107c0.533-4.269,4.373-77.921,4.373-82.189
		c1.916-12.804-1.461-63.335-1.995-76.137c-0.534-12.8-0.467-62.815,0.066-64.416c0.534-1.601,101.908-70.961,112.579-75.763
		c10.67-4.803,26.854-88.391,34.021-103.111c0.654-1.346-0.4-2.885-0.053-4.311c1.778-7.292,10.571-12.87,14.925-18.546
		C442.481,100.59,441.669,91.925,441.669,91.925z M151.758,387.785c3.734-1.601,50.734-53.283,64.12-57.623
		c9.154,13.338,19.643,77.368,19.643,77.368c0.003,1.601-3.608,0.709-5.178-1.52C211.463,401.395,148.519,389.173,151.758,387.785z"
		/>
</g>
</svg>
