<?xml version="1.0" encoding="utf-8"?>
<!-- Generator: Adobe Illustrator 16.0.0, SVG Export Plug-In . SVG Version: 6.00 Build 0)  -->
<!DOCTYPE svg PUBLIC "-//W3C//DTD SVG 1.1//EN" "http://www.w3.org/Graphics/SVG/1.1/DTD/svg11.dtd">
<svg version="1.1" id="Ebene_1" xmlns="http://www.w3.org/2000/svg" xmlns:xlink="http://www.w3.org/1999/xlink" x="0px" y="0px"
	 width="146.75px" height="235.917px" viewBox="0 0 146.75 235.917" enable-background="new 0 0 146.75 235.917"
	 xml:space="preserve">
<g>
	<path fill="#EBECEB" d="M2.862,235.416c-0.131,0-0.257-0.052-0.351-0.145c-0.095-0.094-0.149-0.222-0.149-0.355l-0.001-2.486
		c-0.923-0.029-0.964-0.063-0.997-0.09c-0.111-0.089-0.179-0.221-0.187-0.363C0.939,227.487,1.117,12.648,1.125,3.504
		c0-0.274,0.222-0.497,0.496-0.5C1.831,3.003,2.039,3.001,2.25,3V2.63c0-0.276,0.224-0.5,0.5-0.5c0.276,0,0.5,0.224,0.5,0.5v0.362
		C56.296,2.54,143.32,1.887,144.145,2.436c0.523,0.349,0.699,6.391-0.213,154.383c-0.213,34.625-0.401,65.188-0.379,73.74
		c0.074-0.001,0.156-0.002,0.23-0.002l0.962-228.723L1.897,1.973h0c-0.276,0-0.5-0.224-0.5-0.5c0-0.276,0.223-0.5,0.5-0.5
		l143.351-0.139l0,0c0.133,0,0.261,0.053,0.354,0.147s0.146,0.222,0.146,0.355l-0.966,229.718c-0.001,0.273-0.222,0.495-0.495,0.498
		c-0.243,0.002-0.487,0.005-0.729,0.007c0.005,0.778,0.013,1.238,0.024,1.348c0.014,0.138-0.029,0.277-0.12,0.381
		c-0.091,0.104-0.22,0.169-0.358,0.175c-4.778,0.179-138.88,1.936-140.234,1.953C2.867,235.416,2.864,235.416,2.862,235.416z
		 M3.361,232.454l0,1.955c8.881-0.116,129.446-1.699,139.207-1.932c-0.004-0.233-0.007-0.536-0.01-0.909
		C35.109,232.551,9.525,232.562,3.361,232.454z M3.361,231.509c12.415,0.142,93.676-0.526,139.194-0.941
		c-0.024-7.92,0.135-34.434,0.377-73.755c0.385-62.428,0.909-147.382,0.495-153.509C137.226,2.962,50.656,3.589,3.25,3.991
		L3.361,231.509z M2.165,231.486c0.059,0.002,0.124,0.004,0.196,0.006L2.25,4C2.209,4,2.166,4,2.125,4
		C2.115,15.593,1.951,219.982,2.165,231.486z"/>
</g>
</svg>
