<?xml version="1.0" encoding="utf-8"?>
<!-- Generator: Adobe Illustrator 16.0.0, SVG Export Plug-In . SVG Version: 6.00 Build 0)  -->
<!DOCTYPE svg PUBLIC "-//W3C//DTD SVG 1.1//EN" "http://www.w3.org/Graphics/SVG/1.1/DTD/svg11.dtd">
<svg version="1.1" xmlns="http://www.w3.org/2000/svg" xmlns:xlink="http://www.w3.org/1999/xlink" x="0px" y="0px"
	 width="439.334px" height="682.842px" viewBox="0 0 439.334 682.842" enable-background="new 0 0 439.334 682.842"
	 xml:space="preserve">
<g id="Ebene_6">
	<path fill="#F7941E" d="M158.167,164.333C131,177,111.333,181.167,111.333,181.167s-2.833,0.667-4.038,0
		c-2.372-0.833-2.628-2-0.962-3.333s0.833-1.333,0-2.167s-4-1.5-2.333-4.167s0.667-3.833-1.5-4.667s-3.333-0.833-2-3.833
		s-0.833-4-2.667-5.333s-0.667-2.333,0.333-3.333s0.167-2.167-4.333-6.5S92.667,139,92.667,139s13.333-14.333,42-20.667
		c4.333,0.5,5.833,2.167,5.667,4.167s-1.667,2.333-1,3s6.167,3.167,3.833,5.5s-2.333,2.5-1,3s4.203-0.556,4.333,3.333
		c0.167,5,5.333,6.667,5.833,8.167s-0.833,3.833,0,5.333s4.088,0.736,3,5c-1.11,4.35-1.668,5.884,1.667,5.446
		C158.788,161.044,160.5,162.279,158.167,164.333z"/>
</g>
<g id="Ebene_7">
	<path d="M72.333,195c0,0-2,1.5,17.667-3.333s76.833-19.833,105.5-39.5c-1.5-1.667-6.167-3.5-12-1s-10,6.167-17.667,9.667
		s-25,13.333-61,21.5C87.5,187.5,69.167,192.667,72.333,195z"/>
	<path d="M134.667,118.333c0,0-3.833-23.333-22.667-104.333c0,0-33.5,3.667-73.333,52.667c0,0,26,16.833,54,72.333
		C105.833,127.167,128.167,119,134.667,118.333z"/>
	<g id="Ebene_9">
		<path d="M394.7,663.635c-7.517-2.91-54.635-11.716-54.635-11.716s-5.043-8.461,1.682-11.716
			c-0.414-6.059-1.026-14.301-1.813-23.963c18.471,8.161,36.061,15.799,38.797,16.152c9.247-5.858,1.261-15.947-5.883-20.829
			c-2.877-1.965-25.462-15.215-35.133-20.875c-0.354-3.838-0.726-7.767-1.114-11.764c2.362,0.377,4.307,0.745,4.307,0.745
			c4.706-29.81,3.783-134.086,0.842-143.199c-0.922-2.853-9.725-6.854-22.695-7.811c-26.904-1.989-71.717,7.369-104.498,15.544
			c-1.313-0.981-2.624-2.147-3.889-3.538c0,0-21.333-25.5-29.333-45.333c0,0-5.333-10.5-6-17.333s-1.833-56.5-2-61.5
			c0.167-2.667,2,1.333,4.333,2c0,0,43.609,34.015,46.833,33.167c0,0,0.167,2.166,45.833-35c22.167-18,41.892-33.356,46.167-34.333
			c0,0,16.667-3.333,20.167-7c1.167-1.333-0.501-2.333-0.167-3.5c0,0,0.668-1.667,2.834-3s1.832-2.167,0.666-4.833s-3-2-0.833-7
			s10.832-27.833,13.166-32.5s-1.5-3.667-1.5-3.667s-4-2-16.666,28c-0.334,1.333-0.5,2.5-1.167,2.333
			c-1.833-4.167-7.167-15.5-7-17.333s-2.167-1.167-2.833-0.167s-2,5-0.667,8.667c0.479,2.024,0.002,3.924,0.305,5.044
			c-0.556-1.241-2.298-4.746-5.138-7.044c-1.333,0.333-3.833,4.167-2.167,8.5s6.333,15.833,6.333,18.833s0,3.666-2.333,3.333
			s-12.667-0.5-19.5,1.167c-3.5,1.833-4.667-1.333-4.667-2.5c0,0-2.667-7.667,5.167-15.167s7.667-11.833,7.5-14.833
			s-2.333-4.667-2.833-3.833s-13.333,17-15.333,18.5s-7.333,7-0.833,23.5c1,3.333,3,6-3,10.667s-30.167,29.5-55.333,46.333
			c0,0-4.5,4-8.833,1.333s-20.667-18-28.667-26.667S172.833,289,169.5,278.333s-10.167-33.5-9.833-38.667
			c-0.667-4.167-4.333-7.167-5.5-6.833c-3.333,56.667-4.333,72.167-4.333,85.667c0,0-13.5-26.167-14.667-32.333s-4-14.667-3-31
			c0.667-13.5-1.5-16.5-2.667-18.5c0,0-2.167-5.167-14.5-7.167c2.128,2.176,4.417,4.058,4.167,6.333c-0.5,4.556-0.167,13.5,1.667,15
			s3.5,5.5,0.667,8.167c0,0-13.5-6-20.333-15c-2.333-2.333-3.5-4.667-12,0.667s-10,9.667-26.5,18.5c0,0-34.167,19.333-47.5,28
			c0,0-13,6.834-7,13.667c3.5,2.667,8.5,2.667,11.667,2S40.667,300,74.5,304.167c15.167,1.833,26.833,3,29.333,6.667
			s3.452,21.667,2.059,31.333s-8.393,24.834-6.059,28c2,2.333,6.5-1.666,7-3c0,0,2.333-3.167,7.167-27.5
			c0,0,3.167-9.333,2.667-13.167c0,0,0.333-1.667,1.667,4.667c18.167,68.667,27,79.334,31.5,91.667s11.169,21.332,11.167,26.999
			c-0.002,4.836,0.667,7-10.833,13S125.5,467.834,116,474s-17.667,27.666-0.333,64.666c0.5-3.333-0.5-8.834-0.333-11.5
			s-4-39.333,13.5-45.333c0,0,1.833-4.001,35.167-7.167c2.528-0.24,5.063-0.461,7.597-0.668c26.38,3.627,51.3,1.629,72.444-2.326
			l43.072,3.203l14.947,117.535c-0.825,1.886-1.625,3.923-2.339,6.135c0.995,0.42,2.103,0.895,3.298,1.409l5.946,46.758
			c0,0,5.043-1.301,7.564,0c2.522,1.302,2.523,10.414,2.523,10.414s-5.044,18.227,0,18.227c3.601,0,63.276,1.754,84.893,0
			C406.888,671.771,403.946,667.217,394.7,663.635z M94.5,299.834c0-1.999-0.333-2.334-0.333-2.334c-1.667-1.667-31.833-2.167-52-4
			c3.5,0.167,45.333-14.333,45.333-14.333s6.553-2.026,8.5-1.833C102.5,279.5,108.167,299,108.167,299
			C104.167,297.333,96.833,298.333,94.5,299.834z"/>
	</g>
</g>
<g id="Ebene_8">
	<g>
		<path d="M315.354,314.549c-9.943,0-18.462-1.626-20.631-2.54c-2.787-1.174-3.23-2.725-3.111-3.82
			c0.285-2.621,3.795-3.614,7.191-4.24c6.362-1.172,8.649-2.606,9.414-5.902c4.001-18.091,2.829-49.753,0.481-53.69
			c-3.946-6.666-9.095-17.047-10.632-24.385c-2.97-14.178-3.599-35.306-1.98-66.493c0.027-0.525,0.26-1.019,0.649-1.374
			c5.115-4.671,24.043-3.541,28.418-2.831c3.772,0.612,6.273,1.468,6.222,3.655c-0.005,0.212-0.033,0.408-0.083,0.589
			c0.824,4.059,1.852,47.849-0.578,60.686c-2.008,10.61-7.884,22.526-10.708,28.253c-0.542,1.1-0.982,1.991-1.273,2.625
			c-1.602,3.961-0.326,45.419,1.591,51.571c1.171,3.313,2.882,6.408,10.604,7.103c4.954,0.472,7.444,1.668,7.844,3.766
			c0.301,1.575-0.656,2.94-2.844,4.058c-0.091,0.046-0.185,0.085-0.281,0.117C329.222,313.829,321.972,314.549,315.354,314.549z
			 M296.841,308.523c4.387,1.356,22.822,3.869,36.626-0.328c-0.702-0.168-1.653-0.334-2.906-0.454
			c-9.586-0.863-12.409-5.232-14.03-9.826c-0.777-2.492-1.492-10.292-1.956-19.262c-0.399,7.389-1.2,14.605-2.455,20.278
			c-1.484,6.394-7.033,7.927-12.59,8.951C298.329,308.104,297.462,308.327,296.841,308.523z M299.972,155.843
			c-1.461,29.649-0.818,49.804,2.01,63.309c1.345,6.42,6.07,16.259,10.156,23.162c0.868,1.456,1.55,4.721,2.016,9.073
			c0.153-3.982,0.456-6.905,0.944-7.971c0.301-0.658,0.758-1.584,1.321-2.727c2.746-5.568,8.458-17.154,10.365-27.228
			c2.179-11.516,1.419-49.445,0.748-57.742c-0.29,0.042-0.563,0.073-0.805,0.101C312.165,157.845,303.366,156.573,299.972,155.843z
			 M308.699,152.83c2.643,0.116,5.862,0.109,9.667-0.153C315.284,152.553,311.831,152.59,308.699,152.83z"/>
	</g>
	<g>
		<path d="M313.92,237.262c-2.533,0-4.353-1.201-4.455-1.27c-0.916-0.617-1.158-1.86-0.54-2.776c0.614-0.91,1.847-1.154,2.759-0.551
			c0.103,0.065,1.75,1.072,3.674,0.324c2.315-0.901,6.788-5.766,8.545-9.296c0.493-0.988,1.695-1.391,2.682-0.899
			c0.988,0.493,1.391,1.693,0.898,2.682c-2.024,4.065-7.128,9.861-10.676,11.241C315.787,237.113,314.81,237.262,313.92,237.262z"/>
	</g>
	<g>
		<path d="M312.832,310.169c-2.154,0-3.984-0.047-5.15-0.086c-1.104-0.038-1.968-0.963-1.931-2.067s0.934-1.954,2.067-1.931
			c9.006,0.306,19.835-0.314,21.63-1.853c0.838-0.719,2.101-0.623,2.82,0.217c0.719,0.839,0.622,2.102-0.217,2.82
			C329.186,309.725,319.468,310.169,312.832,310.169z"/>
	</g>
</g>
<g id="Sessel">
	<g>
		<path d="M128.5,476c-0.608-38.706-16.894-75.151-30.103-110.735c-6.959-18.748-13.311-39.512-26.808-54.771
			c-12.862-14.542-31.324-15.271-48.753-9.404c-1.409,0.474-2.484,2.284-1.494,3.672c29.576,41.458,56.417,86.106,76.174,133.123
			c4.266,10.152,8.082,20.51,11.117,31.099c0.644,2.246,1.224,4.509,1.776,6.779c0.417,1.72,0.452,4.524,1.433,5.999
			c2.232,3.354,4.411,6.745,6.581,10.14c4.318,6.757,8.476,13.572,12.197,20.681c26.818,51.223,37.816,110.541,41.88,167.668
			c0.11,1.542,1.525,2.946,3.165,2.411c3.906-1.276,7.97-2.262,12.085-2.411c1.172-0.043,2.035-0.743,2.411-1.835
			c2.264-6.573,0.211-15.75-0.669-22.294c-4.389-32.633-14.493-64.701-24.471-95.954c-5.414-16.957-11.174-33.802-17.11-50.582
			c-1.067-3.018-5.899-1.718-4.821,1.33c14.797,41.828,29.253,84.289,38.299,127.806c1.857,8.935,3.479,17.972,4.16,27.082
			c0.175,2.341,0.271,4.691,0.224,7.039c-0.014,0.72-0.049,1.439-0.104,2.157c-0.073,0.958-0.103,1.03-0.099,1
			c-0.055,0.361-0.111,0.739-0.231,1.086c0.804-0.611,1.607-1.224,2.411-1.835c-4.562,0.166-9.082,1.174-13.415,2.589
			c1.055,0.804,2.11,1.607,3.165,2.411c-3.375-47.449-11.722-95-28.834-139.533c-8.203-21.349-18.909-40.764-31.412-59.82
			c-2.721-4.147-3.06-10.746-4.475-15.569c-2.212-7.54-4.909-14.935-7.785-22.244c-6.488-16.489-14.202-32.489-22.397-48.189
			c-16.769-32.123-35.895-63.158-56.938-92.655c-0.498,1.224-0.996,2.448-1.494,3.672c9.053-3.047,18.579-4.855,27.977-2.325
			c7.793,2.099,14.05,7.69,18.833,13.982c12.285,16.158,18.108,37.108,25.147,55.852C108.46,406.271,122.938,440.248,123.5,476
			C123.551,479.221,128.551,479.226,128.5,476L128.5,476z"/>
	</g>
	<g>
		<path d="M138.25,511.25c49.57-0.017,99.311-3.702,148.75-6.75c-0.72-1.254-1.439-2.508-2.159-3.762
			c-3.63,6.65-4.746,15.366-6.222,22.636c-6.866,33.814-10.106,68.458-13.165,102.779c-1.391,15.603-2.597,31.222-3.705,46.847
			c-0.077,1.084,0.817,2.15,1.835,2.411c3.622,0.927,13.104,3.536,14.602-1.833c0.272-0.978,0.18-2.108,0.163-3.11
			c-0.092-5.209-0.051-10.404,0.207-15.609c1.575-31.785,7.912-63.412,14.625-94.435c4.313-19.936,9.14-39.759,14.23-59.509
			c0.805-3.125-4.017-4.45-4.821-1.33c-11.181,43.39-21.548,87.326-26.949,131.867c-1.652,13.621-1.922,27.021-2.285,40.679
			c-0.027,1.008-0.095-0.352,0.423-0.554c-2.456,0.96-6.402-0.357-8.864-0.988c0.612,0.804,1.224,1.607,1.835,2.411
			c3.148-44.396,6.665-88.997,13.898-132.949c1.984-12.056,3.657-25.175,8.391-36.569c-0.398,0.958-0.024,0.044,0.12-0.22
			c0.856-1.569-0.191-3.883-2.159-3.762c-49.439,3.048-99.18,6.733-148.75,6.75C135.026,506.251,135.025,511.251,138.25,511.25
			L138.25,511.25z"/>
	</g>
	<g>
		<path d="M298.665,502.661c9.421-2.258,16.409-9.811,10.728-19.285c-8.292-13.827-24.825-18.223-39.728-20.537
			c-3.153-0.489-4.508,4.328-1.329,4.822c12.037,1.869,24.96,4.699,33.572,13.979c3.173,3.419,6.95,8.572,2.843,12.602
			c-1.906,1.87-4.852,2.983-7.416,3.598C294.201,498.591,295.53,503.412,298.665,502.661L298.665,502.661z"/>
	</g>
</g>
</svg>
