<?xml version="1.0" encoding="utf-8"?>
<!-- Generator: Adobe Illustrator 16.0.0, SVG Export Plug-In . SVG Version: 6.00 Build 0)  -->
<!DOCTYPE svg PUBLIC "-//W3C//DTD SVG 1.1//EN" "http://www.w3.org/Graphics/SVG/1.1/DTD/svg11.dtd">
<svg version="1.1" id="Ebene_1" xmlns="http://www.w3.org/2000/svg" xmlns:xlink="http://www.w3.org/1999/xlink" x="0px" y="0px"
	 width="767.941px" height="328.5px" viewBox="0 0 767.941 328.5" enable-background="new 0 0 767.941 328.5" xml:space="preserve">
<g id="Ebene_3">
	<path fill="none" stroke="#64646A" stroke-linecap="round" stroke-linejoin="round" stroke-miterlimit="10" d="M172.833,64.148
		c0,0,27.167,3.162,28.31,3.388c1.141,0.227-12.329,52.637-12.329,52.637s-79.908-10.164-84.018-9.715
		c5.25-7.906,9.816-13.554,9.359-52.861c26.941,1.582,81.912,6.716,83.791,12.198c-1.37,8.583-7.078,46.988-6.394,53.992
		c-14.612-1.356-82.419-15.136-82.419-15.136s8.904-9.488,7.762-47.214c13.242-0.904,73.973,5.421,77.855,7.681"/>
	<polyline fill="none" stroke="#64646A" stroke-linecap="round" stroke-linejoin="round" stroke-miterlimit="10" points="
		180.14,64.148 197.491,64.148 197.491,67.063 	"/>
	<path fill="none" stroke="#64646A" stroke-linecap="round" stroke-linejoin="round" stroke-miterlimit="10" d="M193.152,117.913
		h6.621c0,0-3.719-24.849-3.572-27.222c0.605,15.701,1.289,30.385,1.289,30.385h-5.971"/>
	<path fill="none" stroke="#64646A" stroke-linecap="round" stroke-linejoin="round" stroke-miterlimit="10" d="M153.005,116.445
		l-44.137-0.751c0,0,1.141-1.581,1.825-4.065c0,4.065-1.825,7.004-1.825,7.004l49.81-0.267"/>
</g>
<g id="Ebene_4">
	<path fill="none" stroke="#64646A" stroke-linecap="round" stroke-linejoin="round" stroke-miterlimit="10" d="M187.657,263.396
		h-92.66l-16.23,26.606c0,0,5.662,4.906,7.36,5.474c1.699,0.565,110.21,0,110.21,0s7.171-5.097,7.171-5.851
		s-15.097-27.176-15.097-27.176l-93.037,2.452l-14.91,25.478l5.662,4.531l109.456-0.757l5.85-5.096l-13.295-26.572l0.18-50.707
		c0,0-89.357-1.604-90.112-1.036c-0.755,0.565-3.02,51.521-3.02,51.521l3.869-50.767l90.3,1.887l-0.943,49.066"/>
	<polyline fill="none" stroke="#64646A" stroke-linecap="round" stroke-linejoin="round" stroke-miterlimit="10" points="
		80.655,290.193 201.054,290.229 83.108,291.514 	"/>
	<path fill="none" stroke="#64646A" stroke-linecap="round" stroke-linejoin="round" stroke-miterlimit="10" d="M184.92,259.055
		c0,0-85.395,1.037-85.866,0c-0.472-1.037,3.302-43.688,3.302-43.688h82.563v42.65l-85.3,0.188l3.585-41.895l79.733,0.282
		l0.566,43.375"/>
	<path fill="none" stroke="#64646A" stroke-linecap="round" stroke-linejoin="round" stroke-miterlimit="10" d="M97.969,277.643
		c0,0,1.664-1.332,1.044-1.764c-0.62-0.43-4.229-0.43-4.229-0.43l-0.92,2.193h9.2l0.708-1.601"/>
	<path fill="none" stroke="#64646A" stroke-linecap="round" stroke-linejoin="round" stroke-miterlimit="10" d="M104.692,277.643
		h3.326c0,0,0.991-2.477,2.406-2.192c0,0.778,0,2.192,0,2.192h2.619l1.415-1.096l0.85,1.521h2.618l0.354-0.426"/>
	<polyline fill="none" stroke="#64646A" stroke-linecap="round" stroke-linejoin="round" stroke-miterlimit="10" points="
		122.313,278.068 123.092,276.748 125.781,276.547 126.064,278.068 122.667,278.068 	"/>
	<polyline fill="none" stroke="#64646A" stroke-linecap="round" stroke-linejoin="round" stroke-miterlimit="10" points="
		128.117,276.748 128.117,278.068 130.452,278.068 131.655,276.547 133.637,276.223 134.273,278.492 138.661,278.492 
		138.661,275.879 135.193,275.879 135.335,277.643 	"/>
	<polyline fill="none" stroke="#64646A" stroke-linecap="round" stroke-linejoin="round" stroke-miterlimit="10" points="
		141.138,276.547 140.572,278.068 146.729,278.068 145.879,276.547 148.427,276.223 148.852,277.643 	"/>
	
		<line fill="none" stroke="#64646A" stroke-linecap="round" stroke-linejoin="round" stroke-miterlimit="10" x1="151.187" y1="276.223" x2="151.824" y2="278.068"/>
	<polyline fill="none" stroke="#64646A" stroke-linecap="round" stroke-linejoin="round" stroke-miterlimit="10" points="
		153.735,276.547 154.372,278.068 159.255,278.492 159.255,276.547 	"/>
	<polyline fill="none" stroke="#64646A" stroke-linecap="round" stroke-linejoin="round" stroke-miterlimit="10" points="
		161.802,277.146 161.802,278.068 165.766,278.068 165.766,276.748 167.251,278.068 167.959,276.547 	"/>
	<polyline fill="none" stroke="#64646A" stroke-linecap="round" stroke-linejoin="round" stroke-miterlimit="10" points="
		170.012,277.643 171.993,277.643 172.417,276.043 	"/>
	<path fill="none" stroke="#64646A" stroke-linecap="round" stroke-linejoin="round" stroke-miterlimit="10" d="M175.107,276.043
		v2.025l3.821-0.426l1.84-1.765l2.972,0.164l0.425,1.104c0,0,0.283,0.071-0.425,0.496c-0.708,0.426-2.901,0.85-2.901,0.85"/>
	<path fill="none" stroke="#64646A" stroke-linecap="round" stroke-linejoin="round" stroke-miterlimit="10" d="M185.722,277.643
		c0.212,0.213,3.397-0.336,3.397-0.336l-0.708-1.856l-3.491-0.425l2.642-0.565l-0.542-1.485h-3.421l0.622,1.84"/>
	<path fill="none" stroke="#64646A" stroke-linecap="round" stroke-linejoin="round" stroke-miterlimit="10" d="M182.113,273.68
		v1.273c0,0-3.524,0.492-3.821-0.637c-0.425,0.85-3.68,1.664-3.963,0.055c-0.354,1.008-2.973,1.078-3.822,1.078
		c-0.849,0,0-1.344,0-1.344"/>
	<polyline fill="none" stroke="#64646A" stroke-linecap="round" stroke-linejoin="round" stroke-miterlimit="10" points="
		167.959,273.68 167.959,275.332 163.643,275.332 164.35,273.68 162.652,273.68 	"/>
	<polyline fill="none" stroke="#64646A" stroke-linecap="round" stroke-linejoin="round" stroke-miterlimit="10" points="
		160.175,273.68 160.175,275.332 154.867,275.449 155.504,273.68 157.521,273.68 	"/>
	<polyline fill="none" stroke="#64646A" stroke-linecap="round" stroke-linejoin="round" stroke-miterlimit="10" points="
		153.098,273.68 152.39,274.953 145.455,274.316 146.304,272.973 148.852,273.68 	"/>
	<polyline fill="none" stroke="#64646A" stroke-linecap="round" stroke-linejoin="round" stroke-miterlimit="10" points="
		142.412,274.506 138.661,274.564 137.67,272.973 137.67,274.506 132.292,274.564 132.292,273.256 134.486,272.973 	"/>
	<polyline fill="none" stroke="#64646A" stroke-linecap="round" stroke-linejoin="round" stroke-miterlimit="10" points="
		128.966,274.506 128.966,272.619 123.587,272.619 123.233,273.963 126.064,273.963 126.064,272.973 	"/>
	<polyline fill="none" stroke="#64646A" stroke-linecap="round" stroke-linejoin="round" stroke-miterlimit="10" points="
		120.261,272.973 120.261,274.506 116.015,274.506 116.015,272.973 	"/>
	<polyline fill="none" stroke="#64646A" stroke-linecap="round" stroke-linejoin="round" stroke-miterlimit="10" points="
		113.396,273.963 112.831,272.619 110.708,273.963 108.655,273.963 108.655,272.619 	"/>
	<polyline fill="none" stroke="#64646A" stroke-linecap="round" stroke-linejoin="round" stroke-miterlimit="10" points="
		106.886,274.506 104.692,272.619 102.428,273.562 96.483,273.562 96.483,272.619 	"/>
	<polyline fill="none" stroke="#64646A" stroke-linecap="round" stroke-linejoin="round" stroke-miterlimit="10" points="
		98.113,268.549 98.892,269.965 101.864,269.965 102.501,269.258 103.209,269.965 106.747,270.461 106.747,269.504 	"/>
	<polyline fill="none" stroke="#64646A" stroke-linecap="round" stroke-linejoin="round" stroke-miterlimit="10" points="
		110.286,268.549 109.79,269.965 111.984,270.178 	"/>
	<polyline fill="none" stroke="#64646A" stroke-linecap="round" stroke-linejoin="round" stroke-miterlimit="10" points="
		114.246,268.939 114.246,269.787 116.475,269.787 117.572,268.939 118.563,270.07 121.677,270.07 122.313,268.939 123.021,270.07 
		124.791,270.07 	"/>
	<polyline fill="none" stroke="#64646A" stroke-linecap="round" stroke-linejoin="round" stroke-miterlimit="10" points="
		127.621,268.939 127.268,270.178 130.381,270.461 130.381,268.939 128.117,268.939 	"/>
	<path fill="none" stroke="#64646A" stroke-linecap="round" stroke-linejoin="round" stroke-miterlimit="10" d="M133.389,269.08
		l-1.097,1.15h4.104v-1.15h2.76l0.637,0.955h1.345l1.273-1.273h3.963l0.637,1.273c0,0-2.972,0.248-3.185,0.195"/>
	<polyline fill="none" stroke="#64646A" stroke-linecap="round" stroke-linejoin="round" stroke-miterlimit="10" points="
		149.276,270.238 150.55,268.762 152.249,268.762 153.098,270.23 	"/>
	<polyline fill="none" stroke="#64646A" stroke-linecap="round" stroke-linejoin="round" stroke-miterlimit="10" points="
		157.132,270.42 157.132,268.58 160.175,269.287 160.175,270.42 	"/>
	<polyline fill="none" stroke="#64646A" stroke-linecap="round" stroke-linejoin="round" stroke-miterlimit="10" points="
		162.652,270.525 162.227,268.898 165.907,268.898 165.907,270.42 167.393,270.525 	"/>
	<polyline fill="none" stroke="#64646A" stroke-linecap="round" stroke-linejoin="round" stroke-miterlimit="10" points="
		169.445,268.898 167.959,269.287 168.702,270.809 170.129,270.525 170.719,269.5 173.196,269.287 173.479,270.055 171.215,270.809 
			"/>
	<path fill="none" stroke="#64646A" stroke-linecap="round" stroke-linejoin="round" stroke-miterlimit="10" d="M176.876,269.287
		c-0.566-0.07-2.477,0.213-2.477,0.213l0.283,1.309h1.439"/>
	<path fill="none" stroke="#64646A" stroke-linecap="round" stroke-linejoin="round" stroke-miterlimit="10" d="M180.199,270.41
		h-1.727c0,0-0.708-1.547,2.123-1.158c0.354,0.672-1.344,1.592,2.052,0.955c0.425-0.354,0-1.273,0-1.273l2.406,0.318l0.778,1.521"/>
</g>
<g id="Sparcles">
	<g>
		<g>
			<path fill="#F7941E" d="M70.522,208.632c1.29,0,1.29-2,0-2S69.232,208.632,70.522,208.632L70.522,208.632z"/>
		</g>
	</g>
	<g>
		<g>
			<path fill="#F7941E" d="M82.021,239.253c1.29,0,1.29-2,0-2S80.732,239.253,82.021,239.253L82.021,239.253z"/>
		</g>
	</g>
	<g>
		<g>
			<path fill="#F7941E" d="M116.852,213.359c1.29,0,1.29-2,0-2S115.562,213.359,116.852,213.359L116.852,213.359z"/>
		</g>
	</g>
	<g>
		<g>
			<path fill="#F7941E" d="M107.887,144.094c1.29,0,1.29-2,0-2C106.597,142.094,106.597,144.094,107.887,144.094L107.887,144.094z"
				/>
		</g>
	</g>
	<g>
		<g>
			<path fill="#F7941E" d="M142.412,174.334c1.29,0,1.29-2,0-2S141.122,174.334,142.412,174.334L142.412,174.334z"/>
		</g>
	</g>
	<g>
		<g>
			<path fill="#F7941E" d="M154.287,180.803c1.29,0,1.29-2,0-2S152.997,180.803,154.287,180.803L154.287,180.803z"/>
		</g>
	</g>
	<g>
		<g>
			<path fill="#F7941E" d="M150.772,189.127c1.29,0,1.29-2,0-2S149.482,189.127,150.772,189.127L150.772,189.127z"/>
		</g>
	</g>
	<g>
		<g>
			<path fill="#F7941E" d="M148.438,193.604c1.29,0,1.29-2,0-2S147.149,193.604,148.438,193.604L148.438,193.604z"/>
		</g>
	</g>
	<g>
		<g>
			<path fill="#F7941E" d="M148.087,199.104c1.29,0,1.29-2,0-2S146.798,199.104,148.087,199.104L148.087,199.104z"/>
		</g>
	</g>
	<g>
		<g>
			<path fill="#F7941E" d="M150.772,203.604c1.29,0,1.29-2,0-2S149.482,203.604,150.772,203.604L150.772,203.604z"/>
		</g>
	</g>
	<g>
		<g>
			<path fill="#F7941E" d="M147.012,158.334c1.29,0,1.29-2,0-2C145.722,156.334,145.722,158.334,147.012,158.334L147.012,158.334z"
				/>
		</g>
	</g>
	<g>
		<g>
			<path fill="#F7941E" d="M151.824,163.586c1.29,0,1.29-2,0-2C150.534,161.586,150.535,163.586,151.824,163.586L151.824,163.586z"
				/>
		</g>
	</g>
	<g>
		<g>
			<path fill="#F7941E" d="M122.185,200.693c1.29,0,1.29-2,0-2S120.896,200.693,122.185,200.693L122.185,200.693z"/>
		</g>
	</g>
	<g>
		<g>
			<path fill="#F7941E" d="M157.021,216.92c1.29,0,1.29-2,0-2S155.732,216.92,157.021,216.92L157.021,216.92z"/>
		</g>
	</g>
	<g>
		<g>
			<path fill="#F7941E" d="M195.355,266.253c1.29,0,1.29-2,0-2S194.065,266.253,195.355,266.253L195.355,266.253z"/>
		</g>
	</g>
	<g>
		<g>
			<path fill="#F7941E" d="M197.021,258.587c1.29,0,1.29-2,0-2S195.732,258.587,197.021,258.587L197.021,258.587z"/>
		</g>
	</g>
	<g>
		<g>
			<path fill="#F7941E" d="M204.688,259.253c1.29,0,1.29-2,0-2S203.399,259.253,204.688,259.253L204.688,259.253z"/>
		</g>
	</g>
	<g>
		<g>
			<path fill="#F7941E" d="M206.355,272.587c1.29,0,1.29-2,0-2S205.065,272.587,206.355,272.587L206.355,272.587z"/>
		</g>
	</g>
	<g>
		<g>
			<path fill="#F7941E" d="M196.355,279.253c1.29,0,1.29-2,0-2S195.065,279.253,196.355,279.253L196.355,279.253z"/>
		</g>
	</g>
	<g>
		<g>
			<path fill="#F7941E" d="M186.688,268.587c1.29,0,1.29-2,0-2S185.399,268.587,186.688,268.587L186.688,268.587z"/>
		</g>
	</g>
	<g>
		<g>
			<path fill="#F7941E" d="M181.021,265.253c1.29,0,1.29-2,0-2S179.732,265.253,181.021,265.253L181.021,265.253z"/>
		</g>
	</g>
	<g>
		<g>
			<path fill="#F7941E" d="M65.355,223.087c1.29,0,1.29-2,0-2S64.065,223.087,65.355,223.087L65.355,223.087z"/>
		</g>
	</g>
	<g>
		<g>
			<path fill="#F7941E" d="M82.021,170.001c1.29,0,1.29-2,0-2S80.732,170.001,82.021,170.001L82.021,170.001z"/>
		</g>
	</g>
	<g>
		<g>
			<path fill="#F7941E" d="M87.688,228.587c1.29,0,1.29-2,0-2S86.399,228.587,87.688,228.587L87.688,228.587z"/>
		</g>
	</g>
	<g>
		<g>
			<path fill="#F7941E" d="M113.887,115.428c1.29,0,1.29-2,0-2C112.597,113.428,112.597,115.428,113.887,115.428L113.887,115.428z"
				/>
		</g>
	</g>
	<g>
		<g>
			<path fill="#F7941E" d="M85.667,98.617c1.29,0,1.29-2,0-2S84.377,98.617,85.667,98.617L85.667,98.617z"/>
		</g>
	</g>
	<g>
		<g>
			<path fill="#F7941E" d="M177.021,105.993c1.29,0,1.29-2,0-2S175.732,105.993,177.021,105.993L177.021,105.993z"/>
		</g>
	</g>
	<g>
		<g>
			<path fill="#F7941E" d="M170.688,116.993c1.29,0,1.29-2,0-2S169.398,116.993,170.688,116.993L170.688,116.993z"/>
		</g>
	</g>
	<g>
		<g>
			<path fill="#F7941E" d="M170.977,130.492c1.29,0,1.29-2,0-2S169.687,130.492,170.977,130.492L170.977,130.492z"/>
		</g>
	</g>
	<g>
		<g>
			<path fill="#F7941E" d="M158.644,140.826c1.29,0,1.29-2,0-2S157.354,140.826,158.644,140.826L158.644,140.826z"/>
		</g>
	</g>
	<g>
		<g>
			<path fill="#F7941E" d="M166.644,135.492c1.29,0,1.29-2,0-2S165.354,135.492,166.644,135.492L166.644,135.492z"/>
		</g>
	</g>
	<g>
		<g>
			<path fill="#F7941E" d="M182.021,121.993c1.29,0,1.29-2,0-2S180.732,121.993,182.021,121.993L182.021,121.993z"/>
		</g>
	</g>
	<g>
		<g>
			<path fill="#F7941E" d="M182.355,101.659c1.29,0,1.29-2,0-2S181.065,101.659,182.355,101.659L182.355,101.659z"/>
		</g>
	</g>
	<g>
		<g>
			<path fill="#F7941E" d="M137.352,149.377c1.29,0,1.29-2,0-2S136.062,149.377,137.352,149.377L137.352,149.377z"/>
		</g>
	</g>
	<g>
		<g>
			<path fill="#F7941E" d="M134.021,218.253c1.29,0,1.29-2,0-2S132.732,218.253,134.021,218.253L134.021,218.253z"/>
		</g>
	</g>
	<g>
		<g>
			<path fill="#F7941E" d="M116.688,227.253c1.29,0,1.29-2,0-2S115.399,227.253,116.688,227.253L116.688,227.253z"/>
		</g>
	</g>
	<g>
		<g>
			<path fill="#F7941E" d="M147.688,244.587c1.29,0,1.29-2,0-2S146.399,244.587,147.688,244.587L147.688,244.587z"/>
		</g>
	</g>
</g>
<g id="Ebene_5">
	<path fill="none" stroke="#64646A" stroke-linecap="round" stroke-linejoin="round" stroke-miterlimit="10" d="M419.595,31.889
		c0,0-1.68,28.321,0,33.509c0,0,46.016,2.378,55.891,0c1.473-6.918,0.211-33.509,0-34.589c-0.209-1.082-53.789-1.081-54.838,0
		c-1.053,1.08,0,33.076,0,33.076l52.736,0.649c0,0,1.254-29.904,0.42-31.996C472.972,30.445,419.595,31.889,419.595,31.889"/>
	<path fill="none" stroke="#64646A" stroke-linecap="round" stroke-linejoin="round" stroke-miterlimit="10" d="M416.865,83.774
		h61.771c0,0,2.207,3.676,0.631,3.892s-62.402-0.541-62.402-0.541s-3.174-2.486,1.982-2.486c5.16,0,59.369,0.541,59.369,0.541
		l-3.467-6.81c0,0-51.793-1.297-53.475-0.865c-1.682,0.433-3.047,8.54-3.047,8.54s-0.211-9.62,3.678-9.729
		c3.889-0.108,53.686,0,53.686,0l1.891,5.669"/>
	<path fill="none" stroke="#64646A" stroke-linecap="round" stroke-linejoin="round" stroke-miterlimit="10" d="M430.101,75.344
		c0,0-0.629-3.892,1.996-4c2.627-0.108,8.195,0.326,8.512-1.513c0.314-1.838,0-4.432,0-4.432"/>
	<path fill="none" stroke="#64646A" stroke-linecap="round" stroke-linejoin="round" stroke-miterlimit="10" d="M463.72,76.269
		c0,0,1.26-4.493-3.047-5.033s-7.145,0.107-6.305-5.837"/>
</g>
<g id="Ebene_7">
	<polyline fill="none" stroke="#64646A" stroke-linecap="round" stroke-linejoin="round" stroke-miterlimit="10" points="
		148.518,120.326 150.62,211.427 145.276,203.143 154.276,202.729 149.572,211.427 142.214,203.143 156.339,202.936 150.62,211.427 
		149.501,120.955 	"/>
	<polyline fill="none" stroke="#64646A" stroke-linecap="round" stroke-linejoin="round" stroke-miterlimit="10" points="
		191.699,266.521 278.831,265.928 281.164,61.078 391.832,62.245 384.498,57.911 383.331,68.226 393.832,62.245 383.164,55.078 
		389.8,63.078 276.498,62.411 280.997,267.923 193.175,268.014 	"/>
	<polyline fill="none" stroke="#64646A" stroke-linecap="round" stroke-linejoin="round" stroke-miterlimit="10" points="
		572.5,67.732 517.708,68.398 516.876,74.398 507.376,64.696 517.708,58.231 517.542,63.065 571.166,62.898 571.5,59.232 
		578.5,65.732 572.5,72.065 572.5,67.732 516.376,67.065 516.376,72.065 509.708,64.898 516.376,57.327 516.376,62.398 
		572.666,62.732 572.5,56.398 580.333,65.398 571.666,74.398 571.494,67.716 	"/>
</g>
<g id="Ebene_9_1_">
	<polyline fill="none" stroke="#0094AC" stroke-linecap="round" stroke-linejoin="round" stroke-miterlimit="10" points="
		698.128,24.223 693.283,82.3 600.654,80.379 599.513,24.223 694.138,19.453 696.704,83.703 599.513,83.703 596.378,26.748 
		698.128,23.101 	"/>
	<path fill="none" stroke="#0094AC" stroke-linecap="round" stroke-linejoin="round" stroke-miterlimit="10" d="M685.403,117.045
		c0,0-2.196,19.268,0,36.818c8.999,4.388,38.629,11.064,63.868,1.907c0.439-15.834,0.878-38.726,0.878-38.726L754.757,151
		c0,0-19.534,12.781-72.868,4.77c-0.219-13.735,1.098-39.871,3.514-41.396"/>
	<path fill="none" stroke="#0094AC" stroke-linecap="round" stroke-linejoin="round" stroke-miterlimit="10" d="M686.282,114.374
		c0,0-4.172-4.579,8.337-6.868c12.51-2.29,54.213-4.769,55.53,3.434c0.22,4.006-7.024,8.966-28.314,8.966
		c-15.364,0-43.034-6.105-36.222-10.111c6.813-4.007,52.026-2.48,59.489-0.381c7.463,2.098,6.146,6.104,2.195,7.63
		c-3.952,1.525-66.091,3.72-61.482-5.374"/>
	<polyline fill="none" stroke="#0094AC" stroke-linecap="round" stroke-linejoin="round" stroke-miterlimit="10" points="
		607.169,180.28 702.304,180.28 700.748,242.09 608.018,238.43 605.47,177.504 700.888,177.504 704.003,239.167 605.47,240.337 
		608.443,175.751 	"/>
	<polyline fill="none" stroke="#0094AC" stroke-linecap="round" stroke-linejoin="round" stroke-miterlimit="10" points="
		650.246,83.703 638.496,92.5 645.494,92.5 647.498,170.498 639.994,170.498 649.494,176.25 657.992,169.499 650.994,169.5 
		650.494,91.5 651.742,91.824 659.742,91 648.244,83.703 641.494,91.251 646.996,91.501 646.496,170 640.244,169.25 
		650.996,175.995 659.994,169.5 652.494,170.753 651.494,93 658.994,92.5 648.244,83.703 	"/>
	<path fill="none" stroke="#0094AC" stroke-linecap="round" stroke-linejoin="round" stroke-miterlimit="10" d="M697.126,55.398
		l5.875,4.601L702,51.124l-3.871,3.954c0,0,19.621-3.032,26.121,7.319c3.566,5.679,9.881,16.058,2.75,32.1c-1,2.25-3,8.5-3,8.5
		l-3.752-7.307l9.502,2.558l-6.5,4.75l-3.5-7.307l11.498,3.587L723,103.666c0,0,11.525-24.915,3.721-39.187
		C723.333,58.288,716.5,56.398,697.126,55.398z"/>
</g>
<g id="Ebene_10">
	<text transform="matrix(1 0 0 1 631.5767 51.124)" fill="#0194AC" font-family="'Avenir-Medium'" font-size="13">online</text>
	<text transform="matrix(1 0 0 1 632.7524 66.126)" fill="#0194AC" font-family="'Avenir-Medium'" font-size="13">portal</text>
	<text transform="matrix(1 0 0 1 690.9839 135.5063)" fill="#0094AC" font-family="'Avenir-Medium'" font-size="13">customer</text>
	<text transform="matrix(1 0 0 1 703.9536 150.5098)" fill="#0094AC" font-family="'Avenir-Medium'" font-size="13">data</text>
	<text transform="matrix(1 0 0 1 639.9038 203.835)" fill="#0094AC" font-family="'Avenir-Medium'" font-size="13">form</text>
	<text transform="matrix(1 0 0 1 624.5698 217.8369)" fill="#0094AC" font-family="'Avenir-Medium'" font-size="13">application</text>
	<text transform="matrix(1 0 0 1 430.1187 101.6934)" fill="#64646A" font-family="'Avenir-Medium'" font-size="13">portal</text>
	<text transform="matrix(1 0 0 1 416.9692 115.6953)" fill="#64646A" font-family="'Avenir-Medium'" font-size="13">(Web GUI)</text>
	<text transform="matrix(1 0 0 1 139.4282 86.8696)" fill="#64646A" font-family="'Avenir-Medium'" font-size="13">test</text>
	<text transform="matrix(1 0 0 1 134.5347 100.8711)" fill="#64646A" font-family="'Avenir-Medium'" font-size="13">cases</text>
</g>
<g id="Ebene_11">
	<g id="Ebene_13">
		<text transform="matrix(1 0 0 1 297.6611 53.125)" fill="#F7941E" font-family="'Avenir-Medium'" font-size="15"> 1</text>
		<text transform="matrix(1 0 0 1 536.6655 51.124)" fill="#F7941E" font-family="'Avenir-Medium'" font-size="15">2</text>
		<text transform="matrix(1 0 0 1 631.4233 116.4292)" fill="#F7941E" font-family="'Avenir-Medium'" font-size="15">3</text>
	</g>
</g>
</svg>
