<?xml version="1.0" encoding="utf-8"?>
<!-- Generator: Adobe Illustrator 16.0.0, SVG Export Plug-In . SVG Version: 6.00 Build 0)  -->
<!DOCTYPE svg PUBLIC "-//W3C//DTD SVG 1.1//EN" "http://www.w3.org/Graphics/SVG/1.1/DTD/svg11.dtd">
<svg version="1.1" id="Ebene_1" xmlns="http://www.w3.org/2000/svg" xmlns:xlink="http://www.w3.org/1999/xlink" x="0px" y="0px"
	 width="560px" height="433px" viewBox="13.427 44.466 560 433" enable-background="new 13.427 44.466 560 433"
	 xml:space="preserve">
<g id="Verbindungen">
	<g id="links">
		
			<line fill="none" stroke="#8C8C8E" stroke-width="2" stroke-linecap="round" stroke-linejoin="round" stroke-miterlimit="10" x1="203.333" y1="136.5" x2="203.333" y2="210"/>
		
			<polyline fill="none" stroke="#8C8C8E" stroke-width="2" stroke-linecap="round" stroke-linejoin="round" stroke-miterlimit="10" points="
			196.473,202.145 203.333,211.062 210.688,202.145 		"/>
		
			<line fill="none" stroke="#8C8C8E" stroke-width="2" stroke-linecap="round" stroke-linejoin="round" stroke-miterlimit="10" x1="296.833" y1="349" x2="385.167" y2="349"/>
		
			<line fill="none" stroke="#8C8C8E" stroke-width="2" stroke-linecap="round" stroke-linejoin="round" stroke-miterlimit="10" x1="299.354" y1="354.365" x2="395.667" y2="354.333"/>
		<g id="Ebene_7">
		</g>
		<g id="Ebene_8">
			<g>
				<g>
					<path fill="#8C8C8E" d="M399.667,355.333c1.29,0,1.29-2,0-2S398.377,355.333,399.667,355.333L399.667,355.333z"/>
				</g>
			</g>
			<g>
				<g>
					<path fill="#8C8C8E" d="M403.833,355.292c1.29,0,1.29-2,0-2S402.543,355.292,403.833,355.292L403.833,355.292z"/>
				</g>
			</g>
			<g>
				<g>
					<path fill="#8C8C8E" d="M408,355.292c1.29,0,1.29-2,0-2S406.71,355.292,408,355.292L408,355.292z"/>
				</g>
			</g>
			<g>
				<g>
					<path fill="#8C8C8E" d="M412.458,355.333c1.29,0,1.29-2,0-2S411.169,355.333,412.458,355.333L412.458,355.333z"/>
				</g>
			</g>
			<g>
				<g>
					<path fill="#8C8C8E" d="M416.583,355.333c1.29,0,1.29-2,0-2S415.294,355.333,416.583,355.333L416.583,355.333z"/>
				</g>
			</g>
			<g>
				<g>
					<path fill="#8C8C8E" d="M420.833,355.333c1.29,0,1.29-2,0-2S419.544,355.333,420.833,355.333L420.833,355.333z"/>
				</g>
			</g>
			<g>
				<g>
					<path fill="#8C8C8E" d="M424.958,355.375c1.29,0,1.29-2,0-2S423.669,355.375,424.958,355.375L424.958,355.375z"/>
				</g>
			</g>
			<g>
				<g>
					<path fill="#8C8C8E" d="M429.25,355.375c1.29,0,1.29-2,0-2S427.96,355.375,429.25,355.375L429.25,355.375z"/>
				</g>
			</g>
			<g>
				<g>
					<path fill="#8C8C8E" d="M433.542,355.375c1.29,0,1.29-2,0-2S432.252,355.375,433.542,355.375L433.542,355.375z"/>
				</g>
			</g>
			<g>
				<g>
					<path fill="#8C8C8E" d="M437.583,355.333c1.29,0,1.29-2,0-2S436.294,355.333,437.583,355.333L437.583,355.333z"/>
				</g>
			</g>
			<g>
				<g>
					<path fill="#8C8C8E" d="M441.583,355.333c1.29,0,1.29-2,0-2S440.294,355.333,441.583,355.333L441.583,355.333z"/>
				</g>
			</g>
			<g>
				<g>
					<path fill="#8C8C8E" d="M445.792,355.292c1.29,0,1.29-2,0-2S444.502,355.292,445.792,355.292L445.792,355.292z"/>
				</g>
			</g>
			<g>
				<g>
					<path fill="#8C8C8E" d="M450.292,355.333c1.29,0,1.29-2,0-2S449.002,355.333,450.292,355.333L450.292,355.333z"/>
				</g>
			</g>
			<g>
				<g>
					<path fill="#8C8C8E" d="M389.083,350.083c1.29,0,1.29-2,0-2S387.794,350.083,389.083,350.083L389.083,350.083z"/>
				</g>
			</g>
			<g>
				<g>
					<path fill="#8C8C8E" d="M393.458,350.042c1.29,0,1.29-2,0-2S392.169,350.042,393.458,350.042L393.458,350.042z"/>
				</g>
			</g>
			<g>
				<g>
					<path fill="#8C8C8E" d="M397.542,350.042c1.29,0,1.29-2,0-2S396.252,350.042,397.542,350.042L397.542,350.042z"/>
				</g>
			</g>
			<g>
				<g>
					<path fill="#8C8C8E" d="M402,350.042c1.29,0,1.29-2,0-2S400.71,350.042,402,350.042L402,350.042z"/>
				</g>
			</g>
			<g>
				<g>
					<path fill="#8C8C8E" d="M380.5,363.458c1.29,0,1.29-2,0-2S379.21,363.458,380.5,363.458L380.5,363.458z"/>
				</g>
			</g>
			<g>
				<g>
					<path fill="#8C8C8E" d="M384.458,363.458c1.29,0,1.29-2,0-2S383.169,363.458,384.458,363.458L384.458,363.458z"/>
				</g>
			</g>
			<g>
				<g>
					<path fill="#8C8C8E" d="M388.917,363.5c1.29,0,1.29-2,0-2S387.627,363.5,388.917,363.5L388.917,363.5z"/>
				</g>
			</g>
			<g>
				<g>
					<path fill="#8C8C8E" d="M392.583,363.5c1.29,0,1.29-2,0-2S391.294,363.5,392.583,363.5L392.583,363.5z"/>
				</g>
			</g>
			<g>
				<g>
					<path fill="#8C8C8E" d="M396.917,363.458c1.29,0,1.29-2,0-2S395.627,363.458,396.917,363.458L396.917,363.458z"/>
				</g>
			</g>
			<g>
				<g>
					<path fill="#8C8C8E" d="M401.125,363.5c1.29,0,1.29-2,0-2S399.835,363.5,401.125,363.5L401.125,363.5z"/>
				</g>
			</g>
			<g>
				<g>
					<path fill="#8C8C8E" d="M405.417,363.458c1.29,0,1.29-2,0-2S404.127,363.458,405.417,363.458L405.417,363.458z"/>
				</g>
			</g>
			<g>
				<g>
					<path fill="#8C8C8E" d="M409.417,363.458c1.29,0,1.29-2,0-2S408.127,363.458,409.417,363.458L409.417,363.458z"/>
				</g>
			</g>
			<g>
				<g>
					<path fill="#8C8C8E" d="M413.583,363.458c1.29,0,1.29-2,0-2S412.294,363.458,413.583,363.458L413.583,363.458z"/>
				</g>
			</g>
			<g>
				<g>
					<path fill="#8C8C8E" d="M418,363.5c1.29,0,1.29-2,0-2S416.71,363.5,418,363.5L418,363.5z"/>
				</g>
			</g>
			<g>
				<g>
					<path fill="#8C8C8E" d="M422.125,363.417c1.29,0,1.29-2,0-2S420.835,363.417,422.125,363.417L422.125,363.417z"/>
				</g>
			</g>
			<g>
				<g>
					<path fill="#8C8C8E" d="M426.5,363.5c1.29,0,1.29-2,0-2S425.21,363.5,426.5,363.5L426.5,363.5z"/>
				</g>
			</g>
			<g>
				<g>
					<path fill="#8C8C8E" d="M430.5,363.458c1.29,0,1.29-2,0-2S429.21,363.458,430.5,363.458L430.5,363.458z"/>
				</g>
			</g>
			<g>
				<g>
					<path fill="#8C8C8E" d="M434.5,363.5c1.29,0,1.29-2,0-2S433.21,363.5,434.5,363.5L434.5,363.5z"/>
				</g>
			</g>
			<g>
				<g>
					<path fill="#8C8C8E" d="M438.833,363.417c1.29,0,1.29-2,0-2S437.544,363.417,438.833,363.417L438.833,363.417z"/>
				</g>
			</g>
			<g>
				<g>
					<path fill="#8C8C8E" d="M443.042,363.458c1.29,0,1.29-2,0-2S441.752,363.458,443.042,363.458L443.042,363.458z"/>
				</g>
			</g>
			<g>
				<g>
					<path fill="#8C8C8E" d="M447.458,363.5c1.29,0,1.29-2,0-2S446.169,363.5,447.458,363.5L447.458,363.5z"/>
				</g>
			</g>
			<g>
				<g>
					<path fill="#8C8C8E" d="M451.417,363.5c1.29,0,1.29-2,0-2S450.127,363.5,451.417,363.5L451.417,363.5z"/>
				</g>
			</g>
			<g>
				<g>
					<path fill="#8C8C8E" d="M400.458,370.417c1.29,0,1.29-2,0-2S399.169,370.417,400.458,370.417L400.458,370.417z"/>
				</g>
			</g>
			<g>
				<g>
					<path fill="#8C8C8E" d="M404.75,370.5c1.29,0,1.29-2,0-2S403.46,370.5,404.75,370.5L404.75,370.5z"/>
				</g>
			</g>
			<g>
				<g>
					<path fill="#8C8C8E" d="M408.792,370.541c1.29,0,1.29-2,0-2S407.502,370.541,408.792,370.541L408.792,370.541z"/>
				</g>
			</g>
			<g>
				<g>
					<path fill="#8C8C8E" d="M413.375,370.583c1.29,0,1.29-2,0-2S412.085,370.583,413.375,370.583L413.375,370.583z"/>
				</g>
			</g>
			<g>
				<g>
					<path fill="#8C8C8E" d="M417.375,370.458c1.29,0,1.29-2,0-2S416.085,370.458,417.375,370.458L417.375,370.458z"/>
				</g>
			</g>
			<g>
				<g>
					<path fill="#8C8C8E" d="M421.542,370.5c1.29,0,1.29-2,0-2S420.252,370.5,421.542,370.5L421.542,370.5z"/>
				</g>
			</g>
			<g>
				<g>
					<path fill="#8C8C8E" d="M425.583,370.5c1.29,0,1.29-2,0-2S424.294,370.5,425.583,370.5L425.583,370.5z"/>
				</g>
			</g>
			<g>
				<g>
					<path fill="#8C8C8E" d="M429.667,370.541c1.29,0,1.29-2,0-2S428.377,370.541,429.667,370.541L429.667,370.541z"/>
				</g>
			</g>
			<g>
				<g>
					<path fill="#8C8C8E" d="M434.083,370.541c1.29,0,1.29-2,0-2S432.794,370.541,434.083,370.541L434.083,370.541z"/>
				</g>
			</g>
			<g>
				<g>
					<path fill="#8C8C8E" d="M438.25,370.458c1.29,0,1.29-2,0-2S436.96,370.458,438.25,370.458L438.25,370.458z"/>
				</g>
			</g>
			<g>
				<g>
					<path fill="#8C8C8E" d="M442.5,370.458c1.29,0,1.29-2,0-2S441.21,370.458,442.5,370.458L442.5,370.458z"/>
				</g>
			</g>
			<g>
				<g>
					<path fill="#8C8C8E" d="M446.5,370.417c1.29,0,1.29-2,0-2S445.21,370.417,446.5,370.417L446.5,370.417z"/>
				</g>
			</g>
			<g>
				<g>
					<path fill="#8C8C8E" d="M450.542,370.458c1.29,0,1.29-2,0-2S449.252,370.458,450.542,370.458L450.542,370.458z"/>
				</g>
			</g>
			<g>
				<g>
					<path fill="#8C8C8E" d="M454.917,370.458c1.29,0,1.29-2,0-2S453.627,370.458,454.917,370.458L454.917,370.458z"/>
				</g>
			</g>
			<g>
				<g>
					<path fill="#8C8C8E" d="M459.292,370.5c1.29,0,1.29-2,0-2S458.002,370.5,459.292,370.5L459.292,370.5z"/>
				</g>
			</g>
		</g>
		
			<line fill="none" stroke="#8C8C8E" stroke-width="2" stroke-linecap="round" stroke-linejoin="round" stroke-miterlimit="10" x1="375.958" y1="362.417" x2="304.5" y2="362.417"/>
		
			<line fill="none" stroke="#8C8C8E" stroke-width="2" stroke-linecap="round" stroke-linejoin="round" stroke-miterlimit="10" x1="308.456" y1="369.458" x2="395.875" y2="369.458"/>
	</g>
</g>
<g id="Ebene_15">
	<text transform="matrix(1 0 0 1 96.25 414.0034)" fill="#32323C" font-family="'BradleyHandITCTT-Bold'" font-size="24">Test Setup</text>
	<text transform="matrix(1 0 0 1 103.0029 431.2104)" fill="#32323C" font-family="'BradleyHandITCTT-Bold'" font-size="19">Command Application</text>
	<text transform="matrix(1 0 0 1 103.0029 449.2104)" fill="#32323C" font-family="'BradleyHandITCTT-Bold'" font-size="18">with</text>
	<text transform="matrix(1 0 0 1 137.04 449.2104)" fill="#32323C" font-family="'BradleyHandITCTT-Bold'" font-size="19"> </text>
	<text transform="matrix(1 0 0 1 141.8848 449.2104)" fill="#F7941E" font-family="'BradleyHandITCTT-Bold'" font-size="19">IN</text>
	<text transform="matrix(1 0 0 1 162.0249 449.2104)" fill="#32323C" font-family="'BradleyHandITCTT-Bold'" font-size="19">TACT </text>
	
		<text transform="matrix(0.9957 0.0923 -0.0923 0.9957 174.9331 84.7456)" fill="#F7941E" font-family="'BradleyHandITCTT-Bold'" font-size="22.9993">Test</text>
	
		<text transform="matrix(0.9957 0.0923 -0.0923 0.9957 172.9023 106.6523)" fill="#F7941E" font-family="'BradleyHandITCTT-Bold'" font-size="22.9993"> Cases</text>
</g>
<g id="Ebene_16">
</g>
<g id="Ebene_2">
	<g id="Ebene_2_2_">
		<path fill="none" stroke="#F7941E" stroke-width="2" stroke-linecap="round" stroke-linejoin="round" stroke-miterlimit="10" d="
			M212.691,312.044l-46.811,29.551l43.93-30.027l-43.81,27.1l39.649-27.775L165.37,336.07c0,0,27.001-22.645,36.935-25.158
			c-18.449,4.063-37.168,22.613-37.168,22.613l30.625-22.613l-29.544,18.848l22.167-16.361c0,0-17.255,9.537-19.112,12.26"/>
		<path fill="none" stroke="#F7941E" stroke-width="2" stroke-linecap="round" stroke-linejoin="round" stroke-miterlimit="10" d="
			M194.241,371.181l42.397-23.848l-37.516,23.941L236,351.11l-30.352,19.14l29.708-15.885l-22.773,14.553l20.388-9.496"/>
		<path fill="none" stroke="#F7941E" stroke-width="2" stroke-linecap="round" stroke-linejoin="round" stroke-miterlimit="10" d="
			M236.638,341.595c0,0-48.363,27.605-48.031,27.826c0.332,0.222,48.031-25.004,48.031-25.004l-44.85,26.455"/>
		<path fill="none" stroke="#F7941E" stroke-width="2" stroke-linecap="round" stroke-linejoin="round" stroke-miterlimit="10" d="
			M227,318.667l-58.39,36l61.14-34.5l-61.204,37.537l63.5-36.304l-62.331,38.369l64.068-36.448l-63.17,38.157l64.828-35.825
			l-62.08,37.09l63.265-34.736l-61.694,35.892l61.22-32.209l-59.919,33.458l60.405-30.966l-58.306,32.399l58.306-30.041
			c0,0-56.407,30.943-56.133,31.069s56.133-27.86,56.133-27.86l-52.926,29.121"/>
		<path fill="none" stroke="#F7941E" stroke-width="2" stroke-linecap="round" stroke-linejoin="round" stroke-miterlimit="10" d="
			M166.802,348.224l55.062-33.462L167.14,350.41l58.475-33.818l-57.557,36.15"/>
		<path fill="none" stroke="#F7941E" stroke-width="2" stroke-linecap="round" stroke-linejoin="round" stroke-miterlimit="10" d="
			M214.567,313.396l-47.723,30.507l50.265-29.606l-50.641,31.633"/>
	</g>
	<g id="Ebene_2_1_">
		<path fill="none" stroke="#8C8C8E" stroke-width="2" stroke-linecap="round" stroke-linejoin="round" stroke-miterlimit="10" d="
			M122.287,340.933c0,0-31.484,44.078-30.656,47.227c0.828,3.149,2.982,1.657,4.309,1.823c1.325,0.165,2.982,3.812,4.805,3.976
			c1.823,0.168,205.312,0.168,207.136,0c2.983-0.164,2.651-2.152,4.807-3.147c0,0,4.805-0.331,4.805-4.142
			c0-3.812-28.336-48.719-28.336-48.719"/>
		<path fill="none" stroke="#8C8C8E" stroke-width="2" stroke-linecap="round" stroke-linejoin="round" stroke-miterlimit="10" d="
			M164.543,337.949c0,0-17.399,15.41-5.634,29.828c11.765,14.416,37.616,19.223,62.472,13.092
			c24.856-6.133,28.335-26.681,26.016-32.646c-2.154-7.126-8.617-10.274-8.617-10.274s47.223,0.592,50.375,0
			c1.821-0.342-3.148-90.477-3.148-90.477s-155.766-1.491-157.257-0.828s-7.623,90.643-6.96,91.305
			C122.453,338.612,164.543,337.949,164.543,337.949"/>
		<path fill="none" stroke="#8C8C8E" stroke-width="2" stroke-linecap="round" stroke-linejoin="round" stroke-miterlimit="10" d="
			M241.267,331.321c0,0,41.426,0.828,42.586,0c1.161-0.829-1.988-77.055-2.485-77.884c-0.497-0.828-148.807-0.497-149.8,0
			c-0.995,0.497-6.463,77.387-5.469,77.553c0.994,0.166,37.616,0.699,37.616,0.699"/>
		<path fill="none" stroke="#8C8C8E" stroke-width="2" stroke-linecap="round" stroke-linejoin="round" stroke-miterlimit="10" d="
			M218.564,345.076c0,0,18.603-5.248,18.062-17.068"/>
		<path fill="none" stroke="#8C8C8E" stroke-width="2" stroke-linecap="round" stroke-linejoin="round" stroke-miterlimit="10" d="
			M184.759,348.224c0,0-20.547-4.641-19.623-14.699"/>
		<path fill="none" stroke="#8C8C8E" stroke-width="2" stroke-linecap="round" stroke-linejoin="round" stroke-miterlimit="10" d="
			M155.926,365.125c0,0-6.738-0.221-6.849-0.551c-0.111-0.332,0.332-3.314,0-4.529c-0.332-1.217-2.873,1.988-3.425,2.541
			c-0.552,0.553-1.326,2.43-2.762,2.539c-1.436,0.111-4.198-0.771-4.198-0.771"/>
		
			<polyline fill="none" stroke="#8C8C8E" stroke-width="2" stroke-linecap="round" stroke-linejoin="round" stroke-miterlimit="10" points="
			137.256,361.479 134.273,365.136 128.75,365.136 		"/>
		<path fill="none" stroke="#8C8C8E" stroke-width="2" stroke-linecap="round" stroke-linejoin="round" stroke-miterlimit="10" d="
			M128.75,361.148c0,0-2.229,3.885-2.772,3.986c-0.542,0.103-7.613-0.451-7.613-0.451s1.437-3.646,2.541-4.198
			S128.75,361.148,128.75,361.148z"/>
		<path fill="none" stroke="#8C8C8E" stroke-width="2" stroke-linecap="round" stroke-linejoin="round" stroke-miterlimit="10" d="
			M124.552,357.062c0,0-1.768-2.32-0.994-2.982"/>
		<path fill="none" stroke="#8C8C8E" stroke-width="2" stroke-linecap="round" stroke-linejoin="round" stroke-miterlimit="10" d="
			M141.833,357.062c0,0-4.667-5.395-6.167-5.395s-0.333,3.307-1.333,3.902s-5.583-1.205-5.583-1.205v-1.531
			c0,0-0.083,3.141-1.583,2.736"/>
		<path fill="none" stroke="#8C8C8E" stroke-width="2" stroke-linecap="round" stroke-linejoin="round" stroke-miterlimit="10" d="
			M248.5,363.308c0,0,3,1.042,4.5-2.967"/>
		<path fill="none" stroke="#8C8C8E" stroke-width="2" stroke-linecap="round" stroke-linejoin="round" stroke-miterlimit="10" d="
			M256.5,363.308c0,0,3.667,0.975,4.167,0s1.667-5.475,3.5-5.309c1.833,0.168,3.167,1.771,3.167,1.771v2.975l4.5-0.291
			c0,0,0.333-1.912,2.167-2.684s2.333-2.48,5-2.709s-2.167-2.167,2.333-2.697c0.667-2.197,4.667-2.697,4.667-2.697l2.167,5.396
			l-4.059,0.644"/>
		<path fill="none" stroke="#8C8C8E" stroke-width="2" stroke-linecap="round" stroke-linejoin="round" stroke-miterlimit="10" d="
			M276.167,363.43l4.833,0.31l1.833-3.398l1.274,3.089l7.726-0.122c0,0-1.553-4.141-2.276-4.475"/>
		<path fill="none" stroke="#8C8C8E" stroke-width="2" stroke-linecap="round" stroke-linejoin="round" stroke-miterlimit="10" d="
			M278.667,350.5c0,0,5.383,2.168,5.441-1.666s-4.274-3.758-4.274-3.758L278,348.224l-3-0.131l-1-2.26l-1.667,2.391"/>
		
			<polyline fill="none" stroke="#8C8C8E" stroke-width="2" stroke-linecap="round" stroke-linejoin="round" stroke-miterlimit="10" points="
			275,352.833 267.833,354.08 266.333,352.833 262.833,354.365 255.667,354.08 254.167,351.11 254.167,347.333 259.167,347.333 
			261.167,349.5 		"/>
		
			<polyline fill="none" stroke="#8C8C8E" stroke-width="2" stroke-linecap="round" stroke-linejoin="round" stroke-miterlimit="10" points="
			148.833,349.5 146.667,354.365 149.667,355.57 		"/>
		
			<polyline fill="none" stroke="#8C8C8E" stroke-width="2" stroke-linecap="round" stroke-linejoin="round" stroke-miterlimit="10" points="
			127.167,345.076 127.167,347.333 130.833,347.333 133.003,344.5 135.5,344.5 136.5,347.333 141.833,346.833 141.833,348.224 
			145.5,348.224 145.5,346.361 		"/>
		<path fill="none" stroke="#8C8C8E" stroke-width="2" stroke-linecap="round" stroke-linejoin="round" stroke-miterlimit="10" d="
			M242.5,357.705c0,0-6.402,18.457-37.946,19.463c-31.544,1.006-47.632-14.869-44.554-26.317c0.57-2.046,2.702-6.283,5.136-8.515"/>
		<path fill="none" stroke="#8C8C8E" stroke-width="2" stroke-linecap="round" stroke-linejoin="round" stroke-miterlimit="10" d="
			M309.5,388.667c0,0-203,0.166-208.333,0"/>
		<g id="Ebene_3">
			<path fill="none" stroke="#8C8C8E" stroke-width="2" stroke-linecap="round" stroke-linejoin="round" stroke-miterlimit="10" d="
				M165.04,334.634c0,0,2.651,24.193,4.64,26.018c1.989,1.824,14.954,13.684,37.947,10.107c23.448-3.645,25.685-10.707,28.17-17.615
				c2.485-6.908,0.828-25.137,0.828-25.137s-6.02-17.896-38.941-17.067C167.691,313.589,164.885,333.27,165.04,334.634z"/>
		</g>
	</g>
	<g id="Ebene_4">
		<path d="M199.123,313.425c0,0-5.106,0.104-9.418,2.07c-8.23,3.756-15.521,15.604-0.483,23.778
			c2.486,1.519,8.454,2.313,9.017,2.319c0.193,0.003,0.193-4.475,0.193-4.475s-6.656-0.055-11.568-4.891
			c-3.661-3.605-3.098-9.415-0.777-11.941c3.387-3.689,6.933-5.562,13.036-5.951V313.425"/>
		<path d="M213.548,331.615l3.265,2.912c0,0,6.06-6.41-0.428-14.724c-3.535-4.529-12.289-6.55-14.691-6.399
			c0.055,0.619,0,1.002,0,1.002s5.052,0.067,10.203,3.926c3.83,2.871,4.335,8.189,3.25,10.561
			C214.4,330.522,213.548,331.615,213.548,331.615"/>
		<path fill="#FFFFFF" d="M209.258,335.048c0,0-3.701,2.018-8.644,2.238c-0.056,1.491,0,4.309,0,4.309s6.361,0.222,11.842-3.246
			c1.436,1.352,3.982,3.688,3.982,3.688s3.121-1.961,3.452-3.147c-3.646-2.763-12.442-9.802-12.442-9.802s4.433-1.08,4.57-1.107
			c0.138-0.027-2.458-1.63-12.29-2.968c0,0,2.238,9.596,2.9,10.036c0.469-0.883,2.734-4.113,2.734-4.113L209.258,335.048"/>
	</g>
</g>
<g id="Ebene_5">
	<path fill="none" stroke="#F7941E" stroke-width="2" stroke-linecap="round" stroke-linejoin="round" stroke-miterlimit="10" d="
		M264.333,67.667c0,0-11,15.5-11.833,63.167c-34.667-1.5-59.333-6.167-73.667-9.833s-28-5.167-28-5.167s12.5-14.667,10.5-33.333
		S159.5,56.167,159.5,56.167s63.167,2.5,69.5,3S260,61.5,264.333,67.667z"/>
	<path fill="none" stroke="#F7941E" stroke-width="2" stroke-linecap="round" stroke-linejoin="round" stroke-miterlimit="10" d="
		M253.333,129c0,0,2.667,0.167,4.5,0c1.167-18.333,0-32.667,0-40.5c0,0,0.308-5.309,1.128-7.913"/>
	<path fill="none" stroke="#F7941E" stroke-width="2" stroke-linecap="round" stroke-linejoin="round" stroke-miterlimit="10" d="
		M154.245,117.092c0,0-0.911,1.575-0.911,4.408c10,0.167,27.901,0.217,33.239,1.334"/>
	
		<path display="none" fill="none" stroke="#F7941E" stroke-width="2" stroke-linecap="round" stroke-linejoin="round" stroke-miterlimit="10" d="
		M179.333,75.333l13.5,1.333c0,0-8-1.833-7.833,1.333s0.167,8.167,0.167,8.167"/>
	
		<path display="none" fill="none" stroke="#F7941E" stroke-width="2" stroke-linecap="round" stroke-linejoin="round" stroke-miterlimit="10" d="
		M192.833,82.333c0,0,5.167-0.667,4.667-2.667s-8,2.5-4.667,6.5c2.5,3,5.5,0.5,7,0"/>
	
		<path display="none" fill="none" stroke="#F7941E" stroke-width="2" stroke-linecap="round" stroke-linejoin="round" stroke-miterlimit="10" d="
		M207.583,82c0,0-2.152-2.701-3.917-1.413c-1.25,0.913-2,2.746,0,3.913s4.5,3.75,1.982,4.5c-2.083,0.621-3.815,0.07-4.815-1.382"/>
	
		<path display="none" fill="none" stroke="#F7941E" stroke-width="2" stroke-linecap="round" stroke-linejoin="round" stroke-miterlimit="10" d="
		M212.583,76.833c0,0-3.75,13.5,1.75,14.667"/>
	
		<line display="none" fill="none" stroke="#F7941E" stroke-width="2" stroke-linecap="round" stroke-linejoin="round" stroke-miterlimit="10" x1="216" y1="81.5" x2="209.75" y2="81.5"/>
	
		<path display="none" fill="none" stroke="#F7941E" stroke-width="2" stroke-linecap="round" stroke-linejoin="round" stroke-miterlimit="10" d="
		M192.833,101.083c0,0-1.868-4.009-4.583-3.583c-4.25,0.667-6.75,6.167-4.167,8.667s6.833,3.333,10.167,0.25"/>
	
		<path display="none" fill="none" stroke="#F7941E" stroke-width="2" stroke-linecap="round" stroke-linejoin="round" stroke-miterlimit="10" d="
		M202.333,102.5c0,0-1.5-2.25-4.33-0.933c-1.803,0.839-5.587,3.767-1.253,8.017c2.841,1.5,4.917-0.917,5.583-3.167
		c0.617-2.083,1.875-4.417,1.875-4.417s-3.375,7.5-1.042,9.083"/>
	
		<path display="none" fill="none" stroke="#F7941E" stroke-width="2" stroke-linecap="round" stroke-linejoin="round" stroke-miterlimit="10" d="
		M212.834,102.937c0,0-0.501-1.563-3.084,0s-1.333,3.147,0.667,4.313s3.21,4.667,0.147,4.75s-4.23-0.917-4.147-2.583"/>
	
		<path display="none" fill="none" stroke="#F7941E" stroke-width="2" stroke-linecap="round" stroke-linejoin="round" stroke-miterlimit="10" d="
		M216,107.833c0,0,5-0.263,5.083-1.715c0.083-1.452-1.333-3.798-4.583,0c-3.25,3.798-1.41,9.465,4.587,6.465"/>
	
		<path display="none" fill="none" stroke="#F7941E" stroke-width="2" stroke-linecap="round" stroke-linejoin="round" stroke-miterlimit="10" d="
		M230.083,107.123c0,0,2-0.54-1.25-1.79s-4.917,1.655-2.417,3.411c2.5,1.756,5.417,5.006,2.25,5.339s-6.5-0.417-5.75-3"/>
</g>
</svg>
