<?xml version="1.0" encoding="utf-8"?>
<!-- Generator: Adobe Illustrator 16.0.0, SVG Export Plug-In . SVG Version: 6.00 Build 0)  -->
<!DOCTYPE svg PUBLIC "-//W3C//DTD SVG 1.1//EN" "http://www.w3.org/Graphics/SVG/1.1/DTD/svg11.dtd">
<svg version="1.1" id="Ebene_1" xmlns="http://www.w3.org/2000/svg" xmlns:xlink="http://www.w3.org/1999/xlink" x="0px" y="0px"
	 width="1238px" height="799.721px" viewBox="0 0 1238 799.721" enable-background="new 0 0 1238 799.721" xml:space="preserve">
<g id="Ebene_5">
	<g id="Ebene_4">
		<g>
			<g>
				<path fill="#F7941E" d="M105.053,646.365c0.42-0.619,0.802-1.265,1.168-1.918c0.358-0.637,0.677-1.293,0.965-1.964
					c0.17-0.393,0.332-0.786,0.481-1.186c0.039-0.104,0.317-1.047,0.191-0.763c-0.334,0.763-1.436,0.755-2.049,0.488
					c0.23,0.144,0.229,0.129-0.011-0.038c0.189,0.206,0.201,0.206,0.033-0.001c0.372,0.521-0.067-0.385,0.111,0.219
					c-0.129-0.432-0.043,0.068-0.076,0.286c-0.168,1.037-0.438,2.069-0.748,3.072c1.023-0.582,2.051-1.164,3.074-1.746
					c-0.74-0.174-1.481-0.349-2.225-0.521c0.498,1.225,0.996,2.447,1.494,3.673c1.194-1.738,2.154-3.896,2.155-6.03
					c0.001-3.225-4.999-3.225-5,0c0,0.503-0.294,1.399-0.598,2.009c-0.256,0.519-0.551,1.022-0.878,1.498
					c-0.899,1.312-0.003,3.32,1.494,3.673c0.742,0.174,1.483,0.351,2.225,0.523c1.359,0.317,2.66-0.409,3.076-1.746
					c0.487-1.572,0.923-3.272,0.978-4.922c0.063-2.062-1.599-4.087-3.523-4.641c-1.062-0.306-2.465,0.004-3.217,0.848
					c-0.815,0.914-1.025,1.973-1.443,3.084c-0.457,1.218-1.249,2.475-2.001,3.579c-0.767,1.129-0.218,2.768,0.897,3.42
					C102.868,647.988,104.288,647.49,105.053,646.365L105.053,646.365z"/>
			</g>
		</g>
		<path d="M180.583,634.744c0,0,14.959,2.318,24.479,16.651c9.523,14.333,16.749,24.58,2.669,27.771
			C187.044,683.855,55.4,668.23,16.239,633.606c-13.464-14.542-4.27-24.543,17.404-26.876s66.526,0.552,86.135,7.609l-11.917,13.891
			l1.603,2.25l-1.603,5.875c0,0-0.656-0.382-2.463-0.333c-1.914,0.542-5.091,8.375-5.091,8.375s3.12,1.666,17.138,4.458l1.562,1.75
			l-7.204,5.938c0,0-3.025,6.062,0.766,6.625c3.791,0.562,7.362,0.385,7.362,0.385s3.817,7.365,11.698,2.49
			c1.848,1.375,9.357,1.875,12.313-0.562c1.231,0.875,4.864,3,8.004,0.438c3.143-2.562,2.751-8.146,1.786-9.438
			s-2.956-5.062-2.956-5.062s3.635-1.438,7.943-4.125c1.662-1.188,3.017-3.938,3.017-3.938s5.419,1.188,6.404-0.407
			c0.985-1.594,1.539-2.529,1.539-2.529s4.612,0.25,5.508,0c0.896-0.25,2.065-2.625,2.065-2.625S180.488,637.305,180.583,634.744z"
			/>
		<path d="M106.446,636.097c-5.518-40.491-25.418-185.552-27.96-190.142c-1.971-3.333-13.974,3.107-13.974,3.107
			s29.556,178.22,34.153,193.885c0,0,0.645,1.908,1.642,1.448c1.354-0.625,2.502-3.59,2.955-5.334
			C103.842,636.829,105.291,635.885,106.446,636.097z"/>
		<g>
			<g>
				<path fill="#F7941E" d="M91.328,553.566c-0.467,3.162-3.476,4.816-6.336,5.509c0.322,0.253,0.646,0.506,0.973,0.759
					c0.068-0.437,0.253-0.821,0.553-1.157c0.357-0.574,0.845-1.091,1.28-1.604c1.048-1.238,2.189-2.396,3.396-3.484
					c0.347-0.311,0.697-0.581,1.08-0.845c0.156-0.042,0.28-0.122,0.371-0.239c1.383-0.237,0.527-0.938-2.564-2.095
					c0.046,0.361-0.104,0.868-0.406,1.552c-1.011,2.269-2.835,3.824-5.218,4.484c-3.104,0.859-1.783,5.685,1.33,4.821
					c4.425-1.227,8.083-4.771,9.117-9.309c0.383-1.671,0.132-3.821-1.825-4.359c-2.018-0.557-4.037,1.268-5.419,2.455
					c-2.963,2.542-10.271,9.792-4.803,13.387c2.371,1.56,5.67-0.065,7.851-1.285c2.672-1.496,4.988-4.174,5.443-7.259
					C96.614,551.74,91.797,550.385,91.328,553.566L91.328,553.566z"/>
			</g>
		</g>
		<g>
			<g>
				<path fill="#F7941E" d="M81.523,513.34c-1.653,3.075-3.099,6.217-4.848,9.241c-1.56,2.699-1.878,6.402,0.485,8.719
					c5.114,5.011,11.493-6.758,12.546-10.509c0.813-2.906,2.169-10.029-1.99-11.175c-3.399-0.936-5.985,2.724-6.854,5.473
					c-0.937,2.965-0.102,7.702-2.396,10.042c-2.259,2.302,1.274,5.84,3.535,3.534c2.812-2.866,2.741-7.107,3.361-10.827
					c0.15-0.901,0.364-1.784,0.8-2.593c-0.271,0.506-0.861-3.232-0.74-1.691c0.094,1.195,0.031,2.399-0.083,3.593
					c-0.162,1.697-0.688,3.431-1.396,4.973c-0.439,0.959-1.026,1.87-1.688,2.69c-0.355,0.417-0.732,0.812-1.133,1.188
					c-0.434,0.429-2.48,1.222-0.928,1.452c0.43,0.064,0.444-1.562,0.799-2.343c0.453-1.003,1.158-1.928,1.688-2.896
					c1.13-2.072,2.038-4.265,3.157-6.346C87.368,513.024,83.051,510.498,81.523,513.34L81.523,513.34z"/>
			</g>
		</g>
		<g>
			<g>
				<path fill="#F7941E" d="M81.597,481.89c-0.488,0.098-0.085,0.277-0.349-0.104c1.135,1.642-0.869,5.226-1.678,6.556
					c-0.704,1.165-1.601,2.179-2.542,3.152c-0.411,0.42-0.858,0.804-1.34,1.146c-0.194,0.12-0.393,0.239-0.59,0.357
					c-0.962,0.22-0.694,0.546,0.801,0.979c-0.721-2.274-0.055-5.479,1.073-7.485c0.259-0.458,1.756-1.946,2.49-2.677
					c0.445-0.442,0.911-0.883,1.418-1.254c0.185-0.027,0.304-0.11,0.354-0.249c-0.776-0.479-1.557-0.957-2.334-1.436
					c-0.078,0.399-0.18,0.797-0.302,1.188c-1.021,3.715-3.312,7.561-6.253,10.105c-2.442,2.112,1.11,5.635,3.535,3.533
					c2.238-1.937,3.987-4.553,5.398-7.122c1.343-2.438,4.564-8.565,1.189-10.744c-2.522-1.631-5.288,1.192-6.936,2.827
					c-2.649,2.632-4.315,5.353-4.691,9.178c-0.285,2.898-0.499,7.955,3.467,8.293c4.435,0.378,8.102-4.835,10.079-8.104
					c2.45-4.042,3.459-14.489-4.127-12.963C77.107,477.702,78.448,482.523,81.597,481.89L81.597,481.89z"/>
			</g>
		</g>
		<g>
			<g>
				<path fill="#F7941E" d="M74.539,451.94c-0.19-0.13,0.015,0.014,0.398,0.423c0.472,0.5,0.514,1.047,0.353,1.678
					c-0.418,1.635-2.457,3.602-3.6,4.77c-0.416,0.427-0.922,0.921-1.497,1.115c0.148-0.05,0.521,0.245,0.324,0.069
					c-0.717-0.638-0.182-0.68-0.354,0.299c0.109-0.633,0.131-0.464,0.493-1.148c0.373-0.708,0.807-1.386,1.243-2.056
					c0.845-1.292,1.777-2.516,2.812-3.66c0.217-0.24,0.443-0.469,0.673-0.697c0.074-0.073,0.843-0.715,0.508-0.471
					c0.146-0.107,0.706-0.323,0.069-0.097c0.056-0.02-2.448-0.726-2.354-1.321c-0.459,2.86-3.676,5.584-5.773,7.371
					c-2.459,2.092,1.095,5.61,3.535,3.533c1.783-1.519,3.419-3.26,4.811-5.144c1.427-1.93,3.632-5.644,1.856-8.012
					c-3.718-4.954-9.61,4.536-11.218,7.186c-1.368,2.26-2.09,4.1-0.751,6.56c1.969,3.613,5.862,2.778,8.517,0.604
					c2.274-1.866,4.919-5.194,5.651-8.064c0.724-2.825-0.885-5.686-3.176-7.253C74.395,445.795,71.897,450.131,74.539,451.94
					L74.539,451.94z"/>
			</g>
		</g>
		<g>
			<g>
				<path fill="#F7941E" d="M96.362,584.99c-0.354,1.461-0.864,2.577-1.611,3.857c-0.524,0.897-1.2,1.773-2.054,2.387
					c-0.47,0.337-0.951,0.551-1.501,0.712c-1.795,0.526,1.817-1.256,1.075,1.938c0.098-0.414,0.643-0.875,0.905-1.155
					c1.259-1.33,2.451-2.57,3.553-4.05c0.405-0.545,0.81-1.073,1.272-1.568c0.894-0.951-2.025,0.125-2.149-1.389
					c-0.037-0.449-0.079,0.24-0.122,0.371c-0.566,1.722-3.385,4.666-5.067,4.764c-3.204,0.186-3.225,5.188,0,5
					c4.27-0.247,9.414-4.972,10.09-9.234c0.358-2.271-1.479-5.374-4.205-4.351c-2.637,0.989-3.863,3.791-5.672,5.767
					c-1.763,1.926-5.041,4.701-3.054,7.638c1.736,2.562,5.684,1.109,7.705-0.345c2.883-2.067,4.825-5.599,5.657-9.012
					C101.947,583.187,97.125,581.858,96.362,584.99L96.362,584.99z"/>
			</g>
		</g>
		<g>
			<g>
				<path fill="#F7941E" d="M101.303,616.733c-0.214,1.288-0.61,2.585-1.15,3.771c-0.498,1.094-1.138,2.075-1.978,2.935
					c-0.428,0.436-0.935,0.719-1.472,0.997c1.128,1.34,1.753,1.619,1.876,0.838c0.051-0.188,0.104-0.379,0.162-0.565
					c0.868-2,1.98-4.138,3.15-5.975c0.961-1.509-2.745,0.208-2.363-1.932c-0.112,0.637-0.401,1.261-0.639,1.856
					c-0.376,0.949-0.812,1.874-1.297,2.773c-0.202,0.354-0.422,0.701-0.66,1.035c-0.127,0.163-1.104,0.823-0.412,0.561
					c-2.979,1.139-1.688,5.976,1.33,4.822c2.606-0.996,3.992-3.548,5.062-5.979c0.88-1.999,2.66-5.196,0.762-7.169
					c-1.631-1.69-4.143-0.982-5.473,0.665c-1.445,1.792-2.176,3.979-3.285,5.969c-1.134,2.027-1.828,4.059-0.822,6.294
					c1.317,2.925,5.133,1.389,6.885-0.028c2.796-2.263,4.561-6.022,5.146-9.538C106.648,614.908,101.831,613.558,101.303,616.733
					L101.303,616.733z"/>
			</g>
		</g>
		<path d="M100.308,644.397"/>
	</g>
	<g id="Ebene_2">
		<path fill="none" stroke="#000000" stroke-width="3" stroke-linecap="round" stroke-linejoin="round" stroke-miterlimit="10" d="
			M144.436,626.398l1.89,7.315l-2.873-1.69c0,0,1.467,4.544,1.601,5.833c0.039,0.369,0.624,4.817,2.172,6.808l-1.556,1.067
			c0,0,6.565,7.875,7.102,9.458c0.362,1.076,3.571,5.833-2.081,10.733c-3.215,1.975-6.211-0.983-6.211-0.983"/>
		<path fill="none" stroke="#000000" stroke-width="3" stroke-linecap="round" stroke-linejoin="round" stroke-miterlimit="10" d="
			M146.077,660.981c0,0-2.679,3.688-3.201,4.125c-0.898,0.747-5.337,4.208-9.729,1.031c-0.574-0.458-0.726-1.863-0.726-1.863
			s-1.608,2.336-3.379,2.707c-1.768,0.37-6.355,0.791-8.326-3.667c0,0-0.622-1.917,0.925-3.667"/>
		<path fill="none" stroke="#000000" stroke-width="3" stroke-linecap="round" stroke-linejoin="round" stroke-miterlimit="10" d="
			M119.354,662.647c0,0-8.005,0.664-8.005-1.875c0-3.791,2.499-5.135,2.499-5.135s6.624-4.365,7.106-6.323"/>
		<path fill="none" stroke="#000000" stroke-width="3" stroke-linecap="round" stroke-linejoin="round" stroke-miterlimit="10" d="
			M127.489,629.446c0,0-0.459,6.827-5.262,9.91c2.012,0.042,3.694-0.208,3.694-0.208l-7.471,10.166"/>
		<path fill="none" stroke="#000000" stroke-width="3" stroke-linecap="round" stroke-linejoin="round" stroke-miterlimit="10" d="
			M108.062,634.85c0,0,1.982-3.561,2.493-5.403c0,0-2.162-0.423-1.751-1.673c0.41-1.25,3.653-4.75,3.899-5.792
			c0,0,7.143-7.958,8.988-9.5l-2.053-1.625c0,0,5.583-4.542,5.993-4.708c-0.82-0.417-2.381-1.708-2.381-1.708
			s3.569-5.542,4.844-6.833"/>
		<path fill="none" stroke="#000000" stroke-width="3" stroke-linecap="round" stroke-linejoin="round" stroke-miterlimit="10" d="
			M137.909,597.815c0,0-9.523,0.75-13.508-4.542l-3.504,1.552c0,0-1.984-2.135-2.774-3.51c-0.91,0.619-3.981,1.5-3.981,1.5
			s-3.079-3.5-1.271-7.25l-2.383,0.25c0,0-1.848-6.375-1.479-9.208c0,0-2.381,0.375-3.94,1.792
			c0.615-5.625,5.542-21.25,7.473-25.917c1.93-4.667,4.311-8.792,5.419-10.125c-1.396-0.583-3.284-1.208-3.284-1.208
			s2.299-2.458,14.695-3.458c0.491-0.917,1.93-5.25,1.93-5.25s5.705,0.041,7.512,0.458c2.709-2.042,8.21-3.042,16.009-3.25
			c-0.082,0.875-1.047,2.994-0.555,3.119s4.331-1.786,7.82-1.952c-0.164,0.542-0.73,2.646-0.73,2.646s8.488-1.354,14.359,2.812
			c-0.616,0.708-3.654,1.25-3.654,1.25s2.771,1.072,4.248,2.113"/>
		<path fill="none" stroke="#000000" stroke-width="3" stroke-linecap="round" stroke-linejoin="round" stroke-miterlimit="10" d="
			M176.309,542.773c0,0,1.869,1.292,3.003,4.453"/>
		<path fill="none" stroke="#000000" stroke-width="3" stroke-linecap="round" stroke-linejoin="round" stroke-miterlimit="10" d="
			M180.188,550.898c0,0,6.116,7.75,4.354,13.583c-0.657,0.083-2.058,0-2.058,0s1.44,6.75-2.501,7.333c0,0,0.229,7.263-2.75,9.042
			c-2.303,1.375-4.311,7.042-4.311,7.042l-0.862-0.5c0,0-3.324,5.541-6.075,6.583c0,0-1.146,0.25,0.151-1.521
			c1.149-1.625,7.073,6.854,7.238,10.938c0.124,3.085-0.452,8.542-2.014,10.083c-0.778,0.833-0.655-0.833-0.655-0.833
			s1.478,5.568,0.246,7.667c-0.656,0.308-1.726-1.5-1.726-1.5s1.101,3.998,0.821,8.333c4.021-0.75,9.082,0.783,10.431,4.314
			c0.639,1.671,0.488,5.727-2.919,5.436"/>
		<path fill="none" stroke="#000000" stroke-width="3" stroke-linecap="round" stroke-linejoin="round" stroke-miterlimit="10" d="
			M176.248,633.606c0,0,0.665,4.622-0.543,5.642c-1.265,1.066-4.506,0.968-6.23,0.135c-0.711-0.346-0.857-2.692-0.857-2.692
			s0.693,4.627-0.987,5.585c-1.686,0.958-5.665,0.667-6.281,0.5"/>
		<path fill="none" stroke="#000000" stroke-width="3" stroke-linecap="round" stroke-linejoin="round" stroke-miterlimit="10" d="
			M162.62,637.398c0,0-2.956,9.102-3.448,11.916"/>
		<path fill="none" stroke="#000000" stroke-width="3" stroke-linecap="round" stroke-linejoin="round" stroke-miterlimit="10" d="
			M169.475,544.731c0,0-2.268,4.269-3.242,4.708c-1.106,0.5-6.854-0.708-8.046-1.667"/>
		
			<path fill="#FFFFFF" stroke="#000000" stroke-width="3" stroke-linecap="round" stroke-linejoin="round" stroke-miterlimit="10" d="
			M108.969,542.105c0,0-90.759-18.125-106.152,16.5c0,0-1.229,2.375,5.172,3.25c0,0,20.196,0.125,29.312-1.25
			c10.591-1.5,43.102-14.75,71.671-13.379"/>
		<path fill="none" stroke="#000000" stroke-width="3" stroke-linecap="round" stroke-linejoin="round" stroke-miterlimit="10" d="
			M159.336,527.23c0,0,10.159-25.75,4.495-35.375c-4.929-8.371-20.137-24.972-26.046-20.375c-6.101,4.743,0.328,17.845,7.759,26.875
			c9.005,10.945,9.48,27.625,9.48,27.625"/>
	</g>
	<g id="Ebene_3">
		<path d="M123.664,551.69c0,0,4.844-0.167,5.131,3.333c0.288,3.5-4.721,5.875-8.086,3.125
			C119.148,556.815,119.189,552.94,123.664,551.69z"/>
		<path d="M144.805,700.855c0,0-1.354,31.25,3.079,37.25s2.771,7.062,1.908,7.875c-0.861,0.812-2.896,1.812-2.896,1.812
			s11.576,8.438,8.743,11.188c-2.832,2.75-6.096,5.188-6.096,5.188s17.18,7,19.643,12.688s-2.463,11.25-14.408,14.875
			c-11.943,3.625-55.848,12.688-90.45-6c1.84-19.376,4.126-37.438,4.616-47.625c0.433-11.5-0.554-36.5,2.896-51
			c10.467,4.812,30.23,11.125,38.976,12.375C121.346,701.293,144.805,700.855,144.805,700.855z"/>
		<g>
			<path fill="#F7941E" d="M155.037,676.818c0,0,2.819,2.1,0.789,3.162c-2.031,1.062-4.063,2.312-3.201,2.875
				c0.86,0.562,2.094,1.875,0.431,2.375c-1.662,0.5-2.094,0.375-2.094,0.375s1.047,0.938,0.678,1.812
				c-0.369,0.872-2.217,2.875-3.325,2.875c0.862,1.062,1.416,2.25,0,2.562s-2.235,0.938-2.235,0.938s4.783,2.75,2.647,3.688
				s-3.06,1.062-3.06,1.062s1.724,1.5-0.862,2.312s-28.222,0.562-40.536-2.625c-12.312-3.187-29.637-8.875-33.845-12.042
				c-1.354-0.875,0.801-4.271,1.786-5.521c0.983-1.25,1.106-3.438,1.106-4.375c0-0.937-0.491-1.75,2.771-5.125
				c0.308-0.5-0.309-1.25-1.231-2.062s0.375-0.959,1.188-1.25c0.855-0.308,2.386,0.188,0.354-1.688c-2.029-1.875-2.34-4-0.369-5.062
				C107.614,669.48,133.291,674.09,155.037,676.818z"/>
		</g>
	</g>
</g>
<g id="Ebene_7">
	<g>
		<g>
			<path fill="#F7941E" d="M471,481.998c6.446,0,6.446-10,0-10C464.552,471.998,464.552,481.998,471,481.998L471,481.998z"/>
		</g>
	</g>
	<g>
		<g>
			<path fill="#F7941E" d="M552,450.009c6.446,0,6.446-10,0-10C545.552,440.009,545.552,450.009,552,450.009L552,450.009z"/>
		</g>
	</g>
	<g>
		<g>
			<path fill="#F7941E" d="M529,431.009c6.446,0,6.446-10,0-10C522.552,421.009,522.552,431.009,529,431.009L529,431.009z"/>
		</g>
	</g>
	<g>
		<g>
			<path fill="#F7941E" d="M576,435.009c6.446,0,6.446-10,0-10C569.552,425.009,569.552,435.009,576,435.009L576,435.009z"/>
		</g>
	</g>
	<g>
		<g>
			<path fill="#F7941E" d="M618,423.009c6.446,0,6.446-10,0-10C611.552,413.009,611.552,423.009,618,423.009L618,423.009z"/>
		</g>
	</g>
	<g>
		<g>
			<path fill="#F7941E" d="M650,470.009c6.446,0,6.446-10,0-10C643.552,460.009,643.552,470.009,650,470.009L650,470.009z"/>
		</g>
	</g>
	<g>
		<g>
			<path fill="#F7941E" d="M756,534.999c6.446,0,6.446-10,0-10C749.552,524.999,749.552,534.999,756,534.999L756,534.999z"/>
		</g>
	</g>
	<g>
		<g>
			<path fill="#F7941E" d="M813,414.998c6.446,0,6.446-10,0-10C806.552,404.998,806.552,414.998,813,414.998L813,414.998z"/>
		</g>
	</g>
	<g>
		<g>
			<path fill="#F7941E" d="M991,422.998c6.446,0,6.446-10,0-10C984.552,412.998,984.552,422.998,991,422.998L991,422.998z"/>
		</g>
	</g>
	<g>
		<g>
			<path fill="#F7941E" d="M1124,476.998c6.447,0,6.447-10,0-10C1117.551,466.998,1117.551,476.998,1124,476.998L1124,476.998z"/>
		</g>
	</g>
	<g>
		<g>
			<path fill="#F7941E" d="M389,481.998c6.446,0,6.446-10,0-10C382.552,471.998,382.552,481.998,389,481.998L389,481.998z"/>
		</g>
	</g>
	<g>
		<g>
			<path fill="#F7941E" d="M344,438.998c6.446,0,6.446-10,0-10C337.552,428.998,337.552,438.998,344,438.998L344,438.998z"/>
		</g>
	</g>
	<g>
		<g>
			<path fill="#F7941E" d="M335,487.998c6.446,0,6.446-10,0-10C328.552,477.998,328.552,487.998,335,487.998L335,487.998z"/>
		</g>
	</g>
	<g>
		<g>
			<path fill="#F7941E" d="M290,502.998c6.446,0,6.446-10,0-10C283.552,492.998,283.552,502.998,290,502.998L290,502.998z"/>
		</g>
	</g>
	<g>
		<g>
			<path fill="#F7941E" d="M266,525.999c6.446,0,6.446-10,0-10C259.552,515.999,259.552,525.999,266,525.999L266,525.999z"/>
		</g>
	</g>
	<g>
		<g>
			<path fill="#F7941E" d="M251,469.998c6.446,0,6.446-10,0-10C244.552,459.998,244.552,469.998,251,469.998L251,469.998z"/>
		</g>
	</g>
	<g>
		<g>
			<path fill="#F7941E" d="M262,373.998c6.446,0,6.446-10,0-10C255.552,363.998,255.552,373.998,262,373.998L262,373.998z"/>
		</g>
	</g>
	<g>
		<g>
			<path fill="#F7941E" d="M305,360.998c6.446,0,6.446-10,0-10C298.552,350.998,298.552,360.998,305,360.998L305,360.998z"/>
		</g>
	</g>
	<g>
		<g>
			<path fill="#F7941E" d="M256.991,309.998c6.446,0,6.446-10,0-10C250.543,299.998,250.543,309.998,256.991,309.998
				L256.991,309.998z"/>
		</g>
	</g>
	<g>
		<g>
			<path fill="#F7941E" d="M265.991,286c6.446,0,6.446-10,0-10C259.543,276,259.543,286,265.991,286L265.991,286z"/>
		</g>
	</g>
	<g>
		<g>
			<path fill="#F7941E" d="M257.991,266c6.446,0,6.446-10,0-10C251.543,256,251.543,266,257.991,266L257.991,266z"/>
		</g>
	</g>
	<g>
		<g>
			<path fill="#F7941E" d="M234.991,318.998c6.446,0,6.446-10,0-10C228.543,308.998,228.543,318.998,234.991,318.998
				L234.991,318.998z"/>
		</g>
	</g>
	<g>
		<g>
			<path fill="#F7941E" d="M197.991,303.998c6.446,0,6.446-9.998,0-9.998C191.543,294,191.543,303.998,197.991,303.998
				L197.991,303.998z"/>
		</g>
	</g>
	<g>
		<g>
			<path fill="#F7941E" d="M231.991,235c6.446,0,6.446-10,0-10C225.543,225,225.543,235,231.991,235L231.991,235z"/>
		</g>
	</g>
	<g>
		<g>
			<path fill="#F7941E" d="M129,275c6.446,0,6.446-10,0-10C122.552,265,122.552,275,129,275L129,275z"/>
		</g>
	</g>
	<g>
		<g>
			<path fill="#F7941E" d="M181.991,242c6.446,0,6.446-10,0-10C175.543,232,175.543,242,181.991,242L181.991,242z"/>
		</g>
	</g>
	<g>
		<g>
			<path fill="#F7941E" d="M208.991,199c6.446,0,6.446-10,0-10C202.543,189,202.543,199,208.991,199L208.991,199z"/>
		</g>
	</g>
	<g>
		<g>
			<path fill="#F7941E" d="M209.991,143c6.446,0,6.446-10,0-10C203.543,133,203.543,143,209.991,143L209.991,143z"/>
		</g>
	</g>
	<g>
		<g>
			<path fill="#F7941E" d="M792,40c6.446,0,6.446-10,0-10C785.552,30,785.552,40,792,40L792,40z"/>
		</g>
	</g>
	<g>
		<g>
			<path fill="#F7941E" d="M1128,261c6.447,0,6.447-10,0-10C1121.551,251,1121.551,261,1128,261L1128,261z"/>
		</g>
	</g>
	<g>
		<g>
			<path fill="#F7941E" d="M1122,148c6.447,0,6.447-10,0-10C1115.551,138,1115.551,148,1122,148L1122,148z"/>
		</g>
	</g>
	<g>
		<g>
			<path fill="#F7941E" d="M1138,102c6.447,0,6.447-10,0-10C1131.551,92,1131.551,102,1138,102L1138,102z"/>
		</g>
	</g>
	<g>
		<g>
			<path fill="#F7941E" d="M1163,83c6.447,0,6.447-10,0-10C1156.551,73,1156.551,83,1163,83L1163,83z"/>
		</g>
	</g>
</g>
</svg>
