<?xml version="1.0" encoding="utf-8"?>
<!-- Generator: Adobe Illustrator 16.0.0, SVG Export Plug-In . SVG Version: 6.00 Build 0)  -->
<!DOCTYPE svg PUBLIC "-//W3C//DTD SVG 1.1//EN" "http://www.w3.org/Graphics/SVG/1.1/DTD/svg11.dtd">
<svg version="1.1" xmlns="http://www.w3.org/2000/svg" xmlns:xlink="http://www.w3.org/1999/xlink" x="0px" y="0px" width="593px"
	 height="545px" viewBox="0 0 593 545" enable-background="new 0 0 593 545" xml:space="preserve">
<g id="Pakete">
	<polygon points="371.333,463.333 365.667,462.333 365.333,380.333 379.333,380.333 	"/>
	
		<path fill="#FFFFFF" stroke="#000000" stroke-width="2" stroke-linecap="round" stroke-linejoin="round" stroke-miterlimit="10" d="
		M465,267.25c0,0-66-3.5-72.75-2.75s-8.75,1.75-8.75,1.75l1.5,12l36.25,3.5"/>
	
		<polyline fill="#FFFFFF" stroke="#000000" stroke-width="2" stroke-linecap="round" stroke-linejoin="round" stroke-miterlimit="10" points="
		461.5,375.5 465,267.25 421.25,281.75 420,376.5 	"/>
	
		<path fill="#FFFFFF" stroke="#000000" stroke-width="2" stroke-linecap="round" stroke-linejoin="round" stroke-miterlimit="10" d="
		M420.5,375.5c0,0,1.25-92.75,0.75-93.75S400.5,280,400.5,280l-1.5,95.25L420.5,375.5z"/>
	
		<polyline fill="#FFFFFF" stroke="#000000" stroke-width="2" stroke-linecap="round" stroke-linejoin="round" stroke-miterlimit="10" points="
		27.5,378.5 26.5,271.5 131.75,265.5 242.75,275.25 251.5,412.5 	"/>
	
		<polyline fill="#FFFFFF" stroke="#000000" stroke-width="2" stroke-linecap="round" stroke-linejoin="round" stroke-miterlimit="10" points="
		363.25,372.5 266.25,361 176.25,383.25 290,395.75 	"/>
	
		<path fill="#FFFFFF" stroke="#000000" stroke-width="2" stroke-linecap="round" stroke-linejoin="round" stroke-miterlimit="10" d="
		M210.75,493.5c0,0,78,12.75,79.25,12s75.5-38,75.75-39.25s0.5-91.75,0-92.75S290,395.75,290,395.75l-113.75-12.5"/>
	
		<path fill="#FFFFFF" stroke="#000000" stroke-width="2" stroke-linecap="round" stroke-linejoin="round" stroke-miterlimit="10" d="
		M156.75,380.25l-2.25-94.75c0,0-126.75-14.75-128-14"/>
	
		<path fill="#FFFFFF" stroke="#000000" stroke-width="2" stroke-linecap="round" stroke-linejoin="round" stroke-miterlimit="10" d="
		M559.5,399.25c0,0-18.25-20.25-19.25-22c-25.75-0.75-158-2-163.5-1.25c-0.75,6-3.5,18.75-4,21.25"/>
	
		<path fill="#FFFFFF" stroke="#000000" stroke-width="2" stroke-linecap="round" stroke-linejoin="round" stroke-miterlimit="10" d="
		M372.5,398c0,0-4,102.5-0.5,110.5c5.75,2.75,182.75,3.25,184.5,3s4.5-109.25,3-112.25c-8.25-3-186.75-2-186.75-2s0.5-5.25,1.25-11"
		/>
	
		<path fill="#FFFFFF" stroke="#000000" stroke-width="2" stroke-linecap="round" stroke-linejoin="round" stroke-miterlimit="10" d="
		M154.25,277.5c0,0-8.25-5.75-12.25-8c0-14.5-2-165.25-2-165.25L153.25,89"/>
	
		<path fill="#FFFFFF" stroke="#000000" stroke-width="2" stroke-linecap="round" stroke-linejoin="round" stroke-miterlimit="10" d="
		M219.5,277.5c0,0-62.5,0.5-65.25,0s-1-188.5-1-188.5l235.5,6.5L386,267"/>
	
		<path fill="#FFFFFF" stroke="#000000" stroke-width="2" stroke-linecap="round" stroke-linejoin="round" stroke-miterlimit="10" d="
		M400.5,274.75c0,0,1,109-1.75,109.75s-177-2-177-2s-3.5-104.75-0.75-108.75C246.5,274.5,399.5,274.5,400.5,274.75S394,268,394,268
		l-161-0.75l-12,6.5"/>
	
		<path fill="#FFFFFF" stroke="#000000" stroke-width="2" stroke-linecap="round" stroke-linejoin="round" stroke-miterlimit="10" d="
		M87.25,408.25l3.5,119.25c0,0,122.75-19.75,123-20.75S214,395.5,214,395.5S133,370,131.75,370S22,376.75,18.5,381.5
		c-0.25,7.25,2,102.75,2,102.75l69,42.75"/>
	
		<path fill="#FFFFFF" stroke="#000000" stroke-width="2" stroke-linecap="round" stroke-linejoin="round" stroke-miterlimit="10" d="
		M19.5,382"/>
	<g id="Ebene_14">
	</g>
	
		<polyline fill="#FFFFFF" stroke="#000000" stroke-width="2" stroke-linecap="round" stroke-linejoin="round" stroke-miterlimit="10" points="
		18.5,381.5 87.25,408.25 214,395.5 	"/>
	
		<line fill="#FFFFFF" stroke="#000000" stroke-width="2" stroke-linecap="round" stroke-linejoin="round" stroke-miterlimit="10" x1="290" y1="395.75" x2="290" y2="505.5"/>
	
		<path fill="#FFFFFF" stroke="#000000" stroke-width="2" stroke-linecap="round" stroke-linejoin="round" stroke-miterlimit="10" d="
		M154.5,285.5c0,0,64.25-5,65-5.25"/>
</g>
<g id="Sparkles">
	<g>
		<g>
			<path fill="#F7941E" d="M201,91.335c3.869,0,3.869-6,0-6S197.13,91.335,201,91.335L201,91.335z"/>
		</g>
	</g>
	<g>
		<g>
			<path fill="#F7941E" d="M196.333,84.668c3.869,0,3.869-6,0-6S192.464,84.668,196.333,84.668L196.333,84.668z"/>
		</g>
	</g>
	<g>
		<g>
			<path fill="#F7941E" d="M172.333,84.001c3.869,0,3.869-6,0-6S168.464,84.001,172.333,84.001L172.333,84.001z"/>
		</g>
	</g>
	<g>
		<g>
			<path fill="#F7941E" d="M169,74.668c3.869,0,3.869-6,0-6S165.13,74.668,169,74.668L169,74.668z"/>
		</g>
	</g>
	<g>
		<g>
			<path fill="#F7941E" d="M143.666,81.335c3.869,0,3.869-6,0-6S139.797,81.335,143.666,81.335L143.666,81.335z"/>
		</g>
	</g>
	<g>
		<g>
			<path fill="#F7941E" d="M145,100.001c3.869,0,3.869-6,0-6S141.13,100.001,145,100.001L145,100.001z"/>
		</g>
	</g>
	<g>
		<g>
			<path fill="#F7941E" d="M130.333,102.668c3.869,0,3.869-6,0-6S126.464,102.668,130.333,102.668L130.333,102.668z"/>
		</g>
	</g>
	<g>
		<g>
			<path fill="#F7941E" d="M343.666,90.668c3.869,0,3.869-6,0-6S339.797,90.668,343.666,90.668L343.666,90.668z"/>
		</g>
	</g>
	<g>
		<g>
			<path fill="#F7941E" d="M277.666,74.668c3.869,0,3.869-6,0-6S273.797,74.668,277.666,74.668L277.666,74.668z"/>
		</g>
	</g>
	<g>
		<g>
			<path fill="#F7941E" d="M271.666,87.335c3.869,0,3.869-6,0-6S267.797,87.335,271.666,87.335L271.666,87.335z"/>
		</g>
	</g>
	<g>
		<g>
			<path fill="#F7941E" d="M297.666,92.668c3.869,0,3.869-6,0-6S293.797,92.668,297.666,92.668L297.666,92.668z"/>
		</g>
	</g>
	<g>
		<g>
			<path fill="#F7941E" d="M383,98.001c3.869,0,3.869-6,0-6S379.13,98.001,383,98.001L383,98.001z"/>
		</g>
	</g>
	<g>
		<g>
			<path fill="#F7941E" d="M395,95.335c3.869,0,3.869-6,0-6S391.13,95.335,395,95.335L395,95.335z"/>
		</g>
	</g>
	<g>
		<g>
			<path fill="#F7941E" d="M397.666,105.335c3.869,0,3.869-6,0-6S393.797,105.335,397.666,105.335L397.666,105.335z"/>
		</g>
	</g>
	<g>
		<g>
			<path fill="#F7941E" d="M396.333,275.335c3.869,0,3.869-6,0-6S392.464,275.335,396.333,275.335L396.333,275.335z"/>
		</g>
	</g>
	<g>
		<g>
			<path fill="#F7941E" d="M394.333,268.668c3.869,0,3.869-6,0-6S390.464,268.668,394.333,268.668L394.333,268.668z"/>
		</g>
	</g>
	<g>
		<g>
			<path fill="#F7941E" d="M388.333,260.002c3.869,0,3.869-6,0-6S384.464,260.002,388.333,260.002L388.333,260.002z"/>
		</g>
	</g>
	<g>
		<g>
			<path fill="#F7941E" d="M401.666,243.335c3.869,0,3.869-6,0-6S397.797,243.335,401.666,243.335L401.666,243.335z"/>
		</g>
	</g>
	<g>
		<g>
			<path fill="#F7941E" d="M383,270.668c3.869,0,3.869-6,0-6S379.13,270.668,383,270.668L383,270.668z"/>
		</g>
	</g>
	<g>
		<g>
			<path fill="#F7941E" d="M221.666,275.335c3.869,0,3.869-6,0-6S217.797,275.335,221.666,275.335L221.666,275.335z"/>
		</g>
	</g>
	<g>
		<g>
			<path fill="#F7941E" d="M226,270.334c3.869,0,3.869-6,0-6S222.131,270.334,226,270.334L226,270.334z"/>
		</g>
	</g>
	<g>
		<g>
			<path fill="#F7941E" d="M220.666,265.667c3.869,0,3.869-6,0-6S216.796,265.667,220.666,265.667L220.666,265.667z"/>
		</g>
	</g>
	<g>
		<g>
			<path fill="#F7941E" d="M205,274.002c3.869,0,3.869-6,0-6S201.13,274.002,205,274.002L205,274.002z"/>
		</g>
	</g>
	<g>
		<g>
			<path fill="#F7941E" d="M230.333,258.002c3.869,0,3.869-6,0-6S226.464,258.002,230.333,258.002L230.333,258.002z"/>
		</g>
	</g>
	<g>
		<g>
			<path fill="#F7941E" d="M556.333,397.335c3.869,0,3.869-6,0-6S552.464,397.335,556.333,397.335L556.333,397.335z"/>
		</g>
	</g>
	<g>
		<g>
			<path fill="#F7941E" d="M550.333,386.002c3.869,0,3.869-6,0-6S546.464,386.002,550.333,386.002L550.333,386.002z"/>
		</g>
	</g>
	<g>
		<g>
			<path fill="#F7941E" d="M553.666,377.335c3.869,0,3.869-6,0-6S549.797,377.335,553.666,377.335L553.666,377.335z"/>
		</g>
	</g>
	<g>
		<g>
			<path fill="#F7941E" d="M557,361.335c3.869,0,3.869-6,0-6S553.13,361.335,557,361.335L557,361.335z"/>
		</g>
	</g>
	<g>
		<g>
			<path fill="#F7941E" d="M568.333,387.335c3.869,0,3.869-6,0-6S564.464,387.335,568.333,387.335L568.333,387.335z"/>
		</g>
	</g>
	<g>
		<g>
			<path fill="#F7941E" d="M459.666,268.002c3.869,0,3.869-6,0-6S455.797,268.002,459.666,268.002L459.666,268.002z"/>
		</g>
	</g>
	<g>
		<g>
			<path fill="#F7941E" d="M467.666,258.668c3.869,0,3.869-6,0-6S463.797,258.668,467.666,258.668L467.666,258.668z"/>
		</g>
	</g>
	<g>
		<g>
			<path fill="#F7941E" d="M453.666,238.002c3.869,0,3.869-6,0-6S449.797,238.002,453.666,238.002L453.666,238.002z"/>
		</g>
	</g>
	<g>
		<g>
			<path fill="#F7941E" d="M451.666,276.002c3.869,0,3.869-6,0-6S447.797,276.002,451.666,276.002L451.666,276.002z"/>
		</g>
	</g>
	<g>
		<g>
			<path fill="#F7941E" d="M441.666,272.002c3.869,0,3.869-6,0-6S437.797,272.002,441.666,272.002L441.666,272.002z"/>
		</g>
	</g>
	<g>
		<g>
			<path fill="#F7941E" d="M443,255.335c3.869,0,3.869-6,0-6S439.13,255.335,443,255.335L443,255.335z"/>
		</g>
	</g>
	<g>
		<g>
			<path fill="#F7941E" d="M295.666,398.002c3.869,0,3.869-6,0-6S291.797,398.002,295.666,398.002L295.666,398.002z"/>
		</g>
	</g>
	<g>
		<g>
			<path fill="#F7941E" d="M323.666,388.002c3.869,0,3.869-6,0-6S319.797,388.002,323.666,388.002L323.666,388.002z"/>
		</g>
	</g>
	<g>
		<g>
			<path fill="#F7941E" d="M315,387.335c3.869,0,3.869-6,0-6S311.13,387.335,315,387.335L315,387.335z"/>
		</g>
	</g>
	<g>
		<g>
			<path fill="#F7941E" d="M315,380.002c3.869,0,3.869-6,0-6S311.13,380.002,315,380.002L315,380.002z"/>
		</g>
	</g>
	<g>
		<g>
			<path fill="#F7941E" d="M317.666,369.335c3.869,0,3.869-6,0-6S313.797,369.335,317.666,369.335L317.666,369.335z"/>
		</g>
	</g>
	<g>
		<g>
			<path fill="#F7941E" d="M325,378.002c3.869,0,3.869-6,0-6S321.13,378.002,325,378.002L325,378.002z"/>
		</g>
	</g>
	<g>
		<g>
			<path fill="#F7941E" d="M329.333,385.001c3.869,0,3.869-6,0-6S325.464,385.001,329.333,385.001L329.333,385.001z"/>
		</g>
	</g>
	<g>
		<g>
			<path fill="#F7941E" d="M301,378.002c3.869,0,3.869-6,0-6S297.13,378.002,301,378.002L301,378.002z"/>
		</g>
	</g>
	<g>
		<g>
			<path fill="#F7941E" d="M287,361.335c3.869,0,3.869-6,0-6S283.13,361.335,287,361.335L287,361.335z"/>
		</g>
	</g>
	<g>
		<g>
			<path fill="#F7941E" d="M295.666,334.668c3.869,0,3.869-6,0-6S291.797,334.668,295.666,334.668L295.666,334.668z"/>
		</g>
	</g>
	<g>
		<g>
			<path fill="#F7941E" d="M308.333,393.335c3.869,0,3.869-6,0-6S304.464,393.335,308.333,393.335L308.333,393.335z"/>
		</g>
	</g>
	<g>
		<g>
			<path fill="#F7941E" d="M217.666,374.668c3.869,0,3.869-6,0-6S213.797,374.668,217.666,374.668L217.666,374.668z"/>
		</g>
	</g>
	<g>
		<g>
			<path fill="#F7941E" d="M214.333,362.002c3.869,0,3.869-6,0-6S210.464,362.002,214.333,362.002L214.333,362.002z"/>
		</g>
	</g>
	<g>
		<g>
			<path fill="#F7941E" d="M201.666,352.002c3.869,0,3.869-6,0-6S197.797,352.002,201.666,352.002L201.666,352.002z"/>
		</g>
	</g>
	<g>
		<g>
			<path fill="#F7941E" d="M199,381.335c3.869,0,3.869-6,0-6S195.13,381.335,199,381.335L199,381.335z"/>
		</g>
	</g>
	<g>
		<g>
			<path fill="#F7941E" d="M41.666,380.668c3.869,0,3.869-6,0-6S37.797,380.668,41.666,380.668L41.666,380.668z"/>
		</g>
	</g>
	<g>
		<g>
			<path fill="#F7941E" d="M58.333,377.335c3.869,0,3.869-6,0-6S54.464,377.335,58.333,377.335L58.333,377.335z"/>
		</g>
	</g>
	<g>
		<g>
			<path fill="#F7941E" d="M58.333,363.335c3.869,0,3.869-6,0-6S54.464,363.335,58.333,363.335L58.333,363.335z"/>
		</g>
	</g>
	<g>
		<g>
			<path fill="#F7941E" d="M55.666,350.002c3.869,0,3.869-6,0-6S51.797,350.002,55.666,350.002L55.666,350.002z"/>
		</g>
	</g>
	<g>
		<g>
			<path fill="#F7941E" d="M43.666,338.002c3.869,0,3.869-6,0-6S39.797,338.002,43.666,338.002L43.666,338.002z"/>
		</g>
	</g>
	<g>
		<g>
			<path fill="#F7941E" d="M29.666,380.002c3.869,0,3.869-6,0-6S25.797,380.002,29.666,380.002L29.666,380.002z"/>
		</g>
	</g>
	<g>
		<g>
			<path fill="#F7941E" d="M19,373.335c3.869,0,3.869-6,0-6S15.13,373.335,19,373.335L19,373.335z"/>
		</g>
	</g>
	<g>
		<g>
			<path fill="#F7941E" d="M84.333,271.335c3.869,0,3.869-6,0-6S80.464,271.335,84.333,271.335L84.333,271.335z"/>
		</g>
	</g>
	<g>
		<g>
			<path fill="#F7941E" d="M70.333,261.335c3.869,0,3.869-6,0-6S66.464,261.335,70.333,261.335L70.333,261.335z"/>
		</g>
	</g>
	<g>
		<g>
			<path fill="#F7941E" d="M95,240.002c3.869,0,3.869-6,0-6S91.13,240.002,95,240.002L95,240.002z"/>
		</g>
	</g>
	<g>
		<g>
			<path fill="#F7941E" d="M91.666,216.668c3.869,0,3.869-6,0-6S87.797,216.668,91.666,216.668L91.666,216.668z"/>
		</g>
	</g>
	<g>
		<g>
			<path fill="#F7941E" d="M111,260.002c3.869,0,3.869-6,0-6S107.13,260.002,111,260.002L111,260.002z"/>
		</g>
	</g>
	<g>
		<g>
			<path fill="#F7941E" d="M117.666,268.668c3.869,0,3.869-6,0-6S113.797,268.668,117.666,268.668L117.666,268.668z"/>
		</g>
	</g>
	<g>
		<g>
			<path fill="#F7941E" d="M128.333,262.668c3.869,0,3.869-6,0-6S124.464,262.668,128.333,262.668L128.333,262.668z"/>
		</g>
	</g>
</g>
<g id="Zylinder">
	<g>
		<g>
			<defs>
				
					<rect id="SVGID_1_" x="379.33" y="473.146" transform="matrix(-0.9999 -0.0106 0.0106 -0.9999 778.959 977.2822)" width="25.501" height="26.844"/>
			</defs>
			<clipPath id="SVGID_2_">
				<use xlink:href="#SVGID_1_"  overflow="visible"/>
			</clipPath>
			<g clip-path="url(#SVGID_2_)">
				<defs>
					<path id="SVGID_3_" d="M383.058,491.947c-0.499,1.769-0.634,6.896-0.516,7.196c0.12,0.294,7.668,1.678,12.199-0.196
						c0,0,0.014-0.934,0.017-1.252c0.003-0.309-0.31-0.643-0.724-0.845c0.282,0.104,0.582-0.173,0.551-0.374
						c-0.058-0.349,0.046-1.003-0.346-1.057c-0.396-0.052,0.002-0.221,0.126-0.293c0.123-0.075-0.164-0.793-0.285-0.942
						c-0.125-0.148-0.071-0.518-0.142-0.865c-0.071-0.344-0.16-0.961-0.595-1.809c-0.293-0.565,0.008-3.102,0.887-4.671
						c-0.172-0.001-0.888,0.19-4.275-1.376c-1.545-0.681-3.176-2.475-3.176-2.475S383.815,489.268,383.058,491.947"/>
				</defs>
				<clipPath id="SVGID_4_">
					<use xlink:href="#SVGID_3_"  overflow="visible"/>
				</clipPath>
				
					<radialGradient id="SVGID_5_" cx="1481.0005" cy="267" r="0.9998" gradientTransform="matrix(6.2339 9.6079 9.6079 -6.2339 -11413.2803 -12082.1953)" gradientUnits="userSpaceOnUse">
					<stop  offset="0" style="stop-color:#414042"/>
					<stop  offset="0.051" style="stop-color:#414042"/>
					<stop  offset="0.2279" style="stop-color:#3B3A3B"/>
					<stop  offset="1" style="stop-color:#252122"/>
				</radialGradient>
				<polygon clip-path="url(#SVGID_4_)" fill="url(#SVGID_5_)" points="391.204,477.357 402.982,495.512 386.113,506.457 
					374.335,488.303 				"/>
			</g>
			<g clip-path="url(#SVGID_2_)">
				<defs>
					
						<rect id="SVGID_6_" x="379.33" y="473.147" transform="matrix(-0.9999 -0.0106 0.0106 -0.9999 778.959 977.2831)" width="25.501" height="26.843"/>
				</defs>
				<clipPath id="SVGID_7_">
					<use xlink:href="#SVGID_6_"  overflow="visible"/>
				</clipPath>
				<path clip-path="url(#SVGID_7_)" fill="#F7941E" d="M395.491,485.024c0,0-0.036,0.996-0.479,0.967
					c-0.155,0.174,0.056,0.683-0.351,0.678c-0.406-0.004,0.743,0.698-1.666,0.205c-3.741-1.062-5.67-3.142-6.533-4.1
					c0,0-0.322-0.683,0.262-0.753c0.583-0.069,0.08-0.403,0.08-0.403s-0.273-0.529,0.668-0.771
					c-0.175-0.181-0.613-0.783-0.079-0.926c0.535-0.146,0.817-0.277,0.729-0.441c0,0-0.131-0.623,0.323-0.61
					c0.978,0.779,6.521,4.693,7.85,5.624c0,0-0.309,0.042-0.46,0.347c0,0,0.01,0.188-0.167,0.187"/>
			</g>
			<g clip-path="url(#SVGID_2_)">
				<defs>
					<path id="SVGID_8_" d="M383.181,473.472c0.509,1.617,1.46,2.9,4.077,5.011c7.101,5.723,10.977,7.39,10.977,7.39
						c2.427,1.123,3.732,1.003,3.732,1.003c0.068-0.032,0.168-0.257,0.168-0.257l-18.771-13.438
						C383.313,473.251,383.304,473.271,383.181,473.472"/>
				</defs>
				<clipPath id="SVGID_9_">
					<use xlink:href="#SVGID_8_"  overflow="visible"/>
				</clipPath>
				
					<linearGradient id="SVGID_10_" gradientUnits="userSpaceOnUse" x1="1481.0005" y1="267.0215" x2="1482.0005" y2="267.0215" gradientTransform="matrix(9.2105 10.1814 10.1814 -9.2105 -15973.2227 -12146.4238)">
					<stop  offset="0" style="stop-color:#252122"/>
					<stop  offset="0.1807" style="stop-color:#3E3E3F"/>
					<stop  offset="0.2567" style="stop-color:#393839"/>
					<stop  offset="0.6477" style="stop-color:#231F20"/>
					<stop  offset="1" style="stop-color:#231F20"/>
				</linearGradient>
				<polygon clip-path="url(#SVGID_9_)" fill="url(#SVGID_10_)" points="393.582,463.771 408.99,480.805 391.732,496.416 
					376.324,479.384 				"/>
			</g>
			<g clip-path="url(#SVGID_2_)">
				<defs>
					<path id="SVGID_11_" d="M383.379,473.572c0.327,0.994,1.348,2.103,1.527,2.271c0,0,4.905,5.585,14.221,10.195
						c2.683,1.311,3.906,0.839,2.442-0.605c-1.467-1.445-6.471-5.953-14.263-10.477c-1.852-1.052-3.214-1.853-3.741-1.858
						C383.34,473.096,383.269,473.238,383.379,473.572"/>
				</defs>
				<clipPath id="SVGID_12_">
					<use xlink:href="#SVGID_11_"  overflow="visible"/>
				</clipPath>
				
					<radialGradient id="SVGID_13_" cx="1481.0005" cy="266.999" r="1.0003" gradientTransform="matrix(10.439 10.5144 10.5144 -10.439 -17880.752 -12311.3428)" gradientUnits="userSpaceOnUse">
					<stop  offset="0" style="stop-color:#3E3E3F"/>
					<stop  offset="0.1627" style="stop-color:#393839"/>
					<stop  offset="1" style="stop-color:#231F20"/>
				</radialGradient>
				<polygon clip-path="url(#SVGID_12_)" fill="url(#SVGID_13_)" points="393.189,463.246 410.13,480.31 393.108,497.21 
					376.167,480.146 				"/>
			</g>
			<g clip-path="url(#SVGID_2_)">
				<defs>
					
						<rect id="SVGID_14_" x="379.33" y="473.147" transform="matrix(-0.9999 -0.0106 0.0106 -0.9999 778.959 977.2831)" width="25.501" height="26.843"/>
				</defs>
				<clipPath id="SVGID_15_">
					<use xlink:href="#SVGID_14_"  overflow="visible"/>
				</clipPath>
				<path clip-path="url(#SVGID_15_)" d="M390.109,478.068c0,0-0.881-0.354-0.22,0.243c0.657,0.6,5.761,4.376,6.455,4.384
					c0.397,0.004-0.513-0.703-2.213-1.997C393.322,480.083,391.961,479.095,390.109,478.068"/>
			</g>
		</g>
	</g>
	<g>
		<g>
			<defs>
				
					<rect id="SVGID_16_" x="230.663" y="347.812" transform="matrix(-0.9999 -0.0106 0.0106 -0.9999 482.9677 725.0386)" width="25.501" height="26.844"/>
			</defs>
			<clipPath id="SVGID_17_">
				<use xlink:href="#SVGID_16_"  overflow="visible"/>
			</clipPath>
			<g clip-path="url(#SVGID_17_)">
				<defs>
					<path id="SVGID_18_" d="M234.391,366.613c-0.499,1.769-0.634,6.896-0.516,7.196c0.12,0.294,7.668,1.678,12.199-0.196
						c0,0,0.014-0.934,0.017-1.252c0.003-0.309-0.31-0.643-0.724-0.845c0.282,0.104,0.582-0.173,0.551-0.374
						c-0.058-0.349,0.046-1.003-0.346-1.057c-0.396-0.052,0.002-0.221,0.126-0.293c0.123-0.075-0.164-0.793-0.285-0.942
						c-0.125-0.148-0.071-0.518-0.142-0.865c-0.071-0.344-0.16-0.961-0.595-1.809c-0.293-0.565,0.008-3.102,0.887-4.671
						c-0.172-0.001-0.888,0.19-4.275-1.376c-1.545-0.681-3.176-2.475-3.176-2.475S235.148,363.934,234.391,366.613"/>
				</defs>
				<clipPath id="SVGID_19_">
					<use xlink:href="#SVGID_18_"  overflow="visible"/>
				</clipPath>
				
					<radialGradient id="SVGID_20_" cx="1481.0005" cy="266.999" r="1" gradientTransform="matrix(6.2339 9.6079 9.6079 -6.2339 -11561.9521 -12207.5312)" gradientUnits="userSpaceOnUse">
					<stop  offset="0" style="stop-color:#414042"/>
					<stop  offset="0.051" style="stop-color:#414042"/>
					<stop  offset="0.2279" style="stop-color:#3B3A3B"/>
					<stop  offset="1" style="stop-color:#252122"/>
				</radialGradient>
				<polygon clip-path="url(#SVGID_19_)" fill="url(#SVGID_20_)" points="242.537,352.023 254.315,370.178 237.446,381.123 
					225.668,362.969 				"/>
			</g>
			<g clip-path="url(#SVGID_17_)">
				<defs>
					
						<rect id="SVGID_21_" x="230.663" y="347.813" transform="matrix(-0.9999 -0.0106 0.0106 -0.9999 482.9677 725.0396)" width="25.501" height="26.843"/>
				</defs>
				<clipPath id="SVGID_22_">
					<use xlink:href="#SVGID_21_"  overflow="visible"/>
				</clipPath>
				<path clip-path="url(#SVGID_22_)" fill="#F7941E" d="M246.824,359.69c0,0-0.036,0.996-0.479,0.967
					c-0.155,0.174,0.056,0.683-0.351,0.678c-0.406-0.004,0.743,0.698-1.666,0.205c-3.741-1.062-5.67-3.142-6.533-4.1
					c0,0-0.322-0.683,0.262-0.753c0.583-0.069,0.08-0.403,0.08-0.403s-0.273-0.529,0.668-0.771
					c-0.175-0.181-0.613-0.783-0.079-0.926c0.535-0.146,0.817-0.277,0.729-0.441c0,0-0.131-0.623,0.323-0.61
					c0.978,0.779,6.521,4.693,7.85,5.624c0,0-0.309,0.042-0.46,0.347c0,0,0.01,0.188-0.167,0.187"/>
			</g>
			<g clip-path="url(#SVGID_17_)">
				<defs>
					<path id="SVGID_23_" d="M234.514,348.138c0.509,1.617,1.46,2.9,4.077,5.011c7.101,5.722,10.977,7.39,10.977,7.39
						c2.427,1.123,3.732,1.003,3.732,1.003c0.068-0.032,0.168-0.257,0.168-0.257l-18.771-13.438
						C234.646,347.917,234.637,347.937,234.514,348.138"/>
				</defs>
				<clipPath id="SVGID_24_">
					<use xlink:href="#SVGID_23_"  overflow="visible"/>
				</clipPath>
				
					<linearGradient id="SVGID_25_" gradientUnits="userSpaceOnUse" x1="1481.001" y1="267.0215" x2="1482.0007" y2="267.0215" gradientTransform="matrix(9.2105 10.1814 10.1814 -9.2105 -16121.8945 -12271.7578)">
					<stop  offset="0" style="stop-color:#252122"/>
					<stop  offset="0.1807" style="stop-color:#3E3E3F"/>
					<stop  offset="0.2567" style="stop-color:#393839"/>
					<stop  offset="0.6477" style="stop-color:#231F20"/>
					<stop  offset="1" style="stop-color:#231F20"/>
				</linearGradient>
				<polygon clip-path="url(#SVGID_24_)" fill="url(#SVGID_25_)" points="244.915,338.438 260.323,355.471 243.065,371.082 
					227.657,354.05 				"/>
			</g>
			<g clip-path="url(#SVGID_17_)">
				<defs>
					<path id="SVGID_26_" d="M234.712,348.238c0.327,0.994,1.348,2.103,1.527,2.271c0,0,4.905,5.585,14.221,10.195
						c2.683,1.311,3.906,0.839,2.442-0.605c-1.467-1.445-6.471-5.953-14.263-10.477c-1.852-1.052-3.214-1.853-3.741-1.858
						C234.673,347.762,234.602,347.904,234.712,348.238"/>
				</defs>
				<clipPath id="SVGID_27_">
					<use xlink:href="#SVGID_26_"  overflow="visible"/>
				</clipPath>
				
					<radialGradient id="SVGID_28_" cx="1481.001" cy="267" r="1" gradientTransform="matrix(10.439 10.5144 10.5144 -10.439 -18029.4238 -12436.6768)" gradientUnits="userSpaceOnUse">
					<stop  offset="0" style="stop-color:#3E3E3F"/>
					<stop  offset="0.1627" style="stop-color:#393839"/>
					<stop  offset="1" style="stop-color:#231F20"/>
				</radialGradient>
				<polygon clip-path="url(#SVGID_27_)" fill="url(#SVGID_28_)" points="244.522,337.912 261.463,354.976 244.441,371.876 
					227.5,354.812 				"/>
			</g>
			<g clip-path="url(#SVGID_17_)">
				<defs>
					
						<rect id="SVGID_29_" x="230.663" y="347.813" transform="matrix(-0.9999 -0.0106 0.0106 -0.9999 482.9677 725.0396)" width="25.501" height="26.843"/>
				</defs>
				<clipPath id="SVGID_30_">
					<use xlink:href="#SVGID_29_"  overflow="visible"/>
				</clipPath>
				<path clip-path="url(#SVGID_30_)" d="M241.442,352.734c0,0-0.881-0.354-0.22,0.243c0.657,0.6,5.761,4.376,6.455,4.384
					c0.397,0.004-0.513-0.703-2.213-1.997C244.655,354.749,243.294,353.761,241.442,352.734"/>
			</g>
		</g>
	</g>
	<g>
		<g>
			<defs>
				
					<rect id="SVGID_31_" x="165.979" y="241.125" transform="matrix(-1 -0.0071 0.0071 -1 355.6419 510.3603)" width="25.502" height="26.844"/>
			</defs>
			<clipPath id="SVGID_32_">
				<use xlink:href="#SVGID_31_"  overflow="visible"/>
			</clipPath>
			<g clip-path="url(#SVGID_32_)">
				<defs>
					<path id="SVGID_33_" d="M169.727,259.958c-0.493,1.771-0.61,6.898-0.49,7.198c0.121,0.293,7.674,1.65,12.197-0.24
						c0,0,0.011-0.934,0.013-1.252c0.002-0.309-0.312-0.641-0.727-0.842c0.282,0.104,0.581-0.175,0.55-0.376
						c-0.06-0.349,0.042-1.003-0.35-1.056c-0.396-0.05,0.001-0.221,0.125-0.293c0.123-0.075-0.166-0.792-0.288-0.941
						c-0.126-0.147-0.073-0.518-0.145-0.864c-0.072-0.344-0.164-0.961-0.602-1.807c-0.296-0.564-0.003-3.102,0.87-4.674
						c-0.172-0.001-0.887,0.192-4.281-1.361c-1.547-0.676-3.185-2.464-3.185-2.464S170.474,257.275,169.727,259.958"/>
				</defs>
				<clipPath id="SVGID_34_">
					<use xlink:href="#SVGID_33_"  overflow="visible"/>
				</clipPath>
				
					<radialGradient id="SVGID_35_" cx="1480.9995" cy="266.9971" r="1" gradientTransform="matrix(6.2679 9.5857 9.5857 -6.2679 -11671.0723 -12272.2617)" gradientUnits="userSpaceOnUse">
					<stop  offset="0" style="stop-color:#414042"/>
					<stop  offset="0.051" style="stop-color:#414042"/>
					<stop  offset="0.2279" style="stop-color:#3B3A3B"/>
					<stop  offset="1" style="stop-color:#252122"/>
				</radialGradient>
				<polygon clip-path="url(#SVGID_34_)" fill="url(#SVGID_35_)" points="177.82,245.34 189.663,263.452 172.833,274.457 
					160.99,256.345 				"/>
			</g>
			<g clip-path="url(#SVGID_32_)">
				<defs>
					
						<rect id="SVGID_36_" x="165.979" y="241.126" transform="matrix(-1 -0.0071 0.0071 -1 355.6419 510.3613)" width="25.502" height="26.843"/>
				</defs>
				<clipPath id="SVGID_37_">
					<use xlink:href="#SVGID_36_"  overflow="visible"/>
				</clipPath>
				<path clip-path="url(#SVGID_37_)" fill="#F7941E" d="M182.135,252.991c0,0-0.032,0.996-0.476,0.969
					c-0.155,0.174,0.058,0.682-0.349,0.679s0.745,0.696-1.666,0.211c-3.745-1.049-5.681-3.122-6.547-4.076
					c0,0-0.324-0.683,0.259-0.754s0.079-0.404,0.079-0.404s-0.275-0.528,0.666-0.773c-0.176-0.18-0.616-0.781-0.083-0.926
					c0.535-0.147,0.816-0.28,0.728-0.443c0,0-0.133-0.622,0.321-0.611c0.98,0.775,6.539,4.67,7.87,5.596
					c0,0-0.309,0.043-0.459,0.348c0,0,0.011,0.188-0.166,0.188"/>
			</g>
			<g clip-path="url(#SVGID_32_)">
				<defs>
					<path id="SVGID_38_" d="M169.784,241.482c0.514,1.615,1.47,2.896,4.095,4.996c7.121,5.697,11.003,7.351,11.003,7.351
						c2.431,1.114,3.735,0.989,3.735,0.989c0.068-0.032,0.167-0.258,0.167-0.258l-18.819-13.371
						C169.915,241.261,169.906,241.281,169.784,241.482"/>
				</defs>
				<clipPath id="SVGID_39_">
					<use xlink:href="#SVGID_38_"  overflow="visible"/>
				</clipPath>
				
					<linearGradient id="SVGID_40_" gradientUnits="userSpaceOnUse" x1="1481.001" y1="267.0205" x2="1482.0007" y2="267.0205" gradientTransform="matrix(9.2465 10.1487 10.1487 -9.2465 -16231.209 -12320.3203)">
					<stop  offset="0" style="stop-color:#252122"/>
					<stop  offset="0.1807" style="stop-color:#3E3E3F"/>
					<stop  offset="0.2567" style="stop-color:#393839"/>
					<stop  offset="0.6477" style="stop-color:#231F20"/>
					<stop  offset="1" style="stop-color:#231F20"/>
				</linearGradient>
				<polygon clip-path="url(#SVGID_39_)" fill="url(#SVGID_40_)" points="180.15,231.746 195.619,248.724 178.417,264.396 
					162.947,247.419 				"/>
			</g>
			<g clip-path="url(#SVGID_32_)">
				<defs>
					<path id="SVGID_41_" d="M169.982,241.582c0.33,0.993,1.354,2.098,1.535,2.266c0,0,4.925,5.566,14.257,10.145
						c2.687,1.301,3.908,0.825,2.439-0.614c-1.472-1.44-6.493-5.931-14.3-10.426c-1.856-1.046-3.221-1.842-3.748-1.845
						C169.941,241.105,169.87,241.248,169.982,241.582"/>
				</defs>
				<clipPath id="SVGID_42_">
					<use xlink:href="#SVGID_41_"  overflow="visible"/>
				</clipPath>
				
					<radialGradient id="SVGID_43_" cx="1481.0005" cy="267" r="1.0003" gradientTransform="matrix(10.4761 10.4773 10.4773 -10.4761 -18139.3066 -12478.4668)" gradientUnits="userSpaceOnUse">
					<stop  offset="0" style="stop-color:#3E3E3F"/>
					<stop  offset="0.1627" style="stop-color:#393839"/>
					<stop  offset="1" style="stop-color:#231F20"/>
				</radialGradient>
				<polygon clip-path="url(#SVGID_42_)" fill="url(#SVGID_43_)" points="179.755,231.222 196.757,248.225 179.795,265.186 
					162.793,248.183 				"/>
			</g>
			<g clip-path="url(#SVGID_32_)">
				<defs>
					
						<rect id="SVGID_44_" x="165.979" y="241.126" transform="matrix(-1 -0.0071 0.0071 -1 355.6419 510.3613)" width="25.502" height="26.843"/>
				</defs>
				<clipPath id="SVGID_45_">
					<use xlink:href="#SVGID_44_"  overflow="visible"/>
				</clipPath>
				<path clip-path="url(#SVGID_45_)" d="M176.729,246.055c0,0-0.883-0.353-0.22,0.243c0.659,0.598,5.777,4.356,6.471,4.361
					c0.397,0.003-0.516-0.701-2.221-1.99C179.948,248.058,178.584,247.073,176.729,246.055"/>
			</g>
		</g>
	</g>
	<g>
		<g>
			<defs>
				<polygon id="SVGID_46_" points="295.43,468.695 319.265,456.876 319.074,483.72 295.239,495.539 				"/>
			</defs>
			<clipPath id="SVGID_47_">
				<use xlink:href="#SVGID_46_"  overflow="visible"/>
			</clipPath>
			<g clip-path="url(#SVGID_47_)">
				<defs>
					<path id="SVGID_48_" d="M298.834,485.838c-0.461,1.996-0.574,7.162-0.461,7.404c0.113,0.235,7.172-1.966,11.4-5.979
						c0,0,0.011-0.936,0.013-1.254c0.002-0.309-0.292-0.491-0.679-0.497c0.264-0.029,0.543-0.447,0.514-0.633
						c-0.056-0.319,0.04-1.02-0.326-0.888c-0.371,0.137,0.001-0.221,0.117-0.351c0.114-0.133-0.155-0.712-0.269-0.803
						c-0.118-0.088-0.067-0.481-0.135-0.794c-0.067-0.309-0.153-0.88-0.562-1.517c-0.276-0.424-0.001-3.091,0.815-5.068
						c-0.161,0.08-0.829,0.61-4,0.657c-1.445,0.056-2.975-0.956-2.975-0.956S299.534,482.812,298.834,485.838"/>
				</defs>
				<clipPath id="SVGID_49_">
					<use xlink:href="#SVGID_48_"  overflow="visible"/>
				</clipPath>
				
					<radialGradient id="SVGID_50_" cx="1481" cy="266.998" r="1" gradientTransform="matrix(5.8539 6.6041 8.9623 -10.7577 -10762.4512 -6432.5049)" gradientUnits="userSpaceOnUse">
					<stop  offset="0" style="stop-color:#414042"/>
					<stop  offset="0.051" style="stop-color:#414042"/>
					<stop  offset="0.2279" style="stop-color:#3B3A3B"/>
					<stop  offset="1" style="stop-color:#252122"/>
				</radialGradient>
				<polygon clip-path="url(#SVGID_49_)" fill="url(#SVGID_50_)" points="306.406,467.459 317.467,479.938 301.731,498.826 
					290.671,486.348 				"/>
			</g>
			<g clip-path="url(#SVGID_47_)">
				<defs>
					<polygon id="SVGID_51_" points="295.43,468.696 319.265,456.877 319.074,483.72 295.239,495.539 					"/>
				</defs>
				<clipPath id="SVGID_52_">
					<use xlink:href="#SVGID_51_"  overflow="visible"/>
				</clipPath>
				<path clip-path="url(#SVGID_52_)" fill="#F7941E" d="M310.435,473.055c0,0-0.03,1.008-0.445,1.189
					c-0.145,0.247,0.054,0.652-0.326,0.841s0.696,0.343-1.557,0.994c-3.5,0.716-5.309-0.438-6.118-0.982
					c0,0-0.303-0.526,0.243-0.873c0.545-0.346,0.074-0.439,0.074-0.439s-0.257-0.397,0.623-1.084
					c-0.164-0.098-0.575-0.489-0.077-0.884c0.5-0.399,0.763-0.664,0.68-0.785c0,0-0.124-0.558,0.301-0.76
					c0.916,0.312,6.108,1.577,7.353,1.873c0,0-0.289,0.189-0.429,0.563c0,0,0.01,0.183-0.155,0.265"/>
			</g>
			<g clip-path="url(#SVGID_47_)">
				<defs>
					<path id="SVGID_53_" d="M298.896,467.396c0.48,1.368,1.373,2.194,3.825,3.053c6.653,2.327,10.28,2.148,10.28,2.148
						c2.272-0.034,3.491-0.771,3.491-0.771c0.063-0.064,0.156-0.335,0.156-0.335l-17.583-4.472
						C299.02,467.113,299.011,467.139,298.896,467.396"/>
				</defs>
				<clipPath id="SVGID_54_">
					<use xlink:href="#SVGID_53_"  overflow="visible"/>
				</clipPath>
				
					<linearGradient id="SVGID_55_" gradientUnits="userSpaceOnUse" x1="1481.0015" y1="267.0205" x2="1482.0012" y2="267.0205" gradientTransform="matrix(8.6376 5.7636 9.4898 -13.9912 -15024.5977 -4334.542)">
					<stop  offset="0" style="stop-color:#252122"/>
					<stop  offset="0.1807" style="stop-color:#3E3E3F"/>
					<stop  offset="0.2567" style="stop-color:#393839"/>
					<stop  offset="0.6477" style="stop-color:#231F20"/>
					<stop  offset="1" style="stop-color:#231F20"/>
				</linearGradient>
				<polygon clip-path="url(#SVGID_54_)" fill="url(#SVGID_55_)" points="308.59,452.814 323.04,462.456 306.955,486.172 
					292.504,476.53 				"/>
			</g>
			<g clip-path="url(#SVGID_47_)">
				<defs>
					<path id="SVGID_56_" d="M299.082,467.403c0.308,0.834,1.266,1.453,1.434,1.535c0,0,4.6,3.23,13.321,3.401
						c2.511,0.032,3.653-1.017,2.281-1.76c-1.375-0.743-6.066-2.855-13.361-3.662c-1.734-0.168-3.01-0.319-3.501-0.075
						C299.044,466.946,298.978,467.123,299.082,467.403"/>
				</defs>
				<clipPath id="SVGID_57_">
					<use xlink:href="#SVGID_56_"  overflow="visible"/>
				</clipPath>
				
					<radialGradient id="SVGID_58_" cx="1481.0015" cy="266.999" r="1.0003" gradientTransform="matrix(9.7867 5.5125 9.7976 -15.3714 -16807.9355 -3594.2773)" gradientUnits="userSpaceOnUse">
					<stop  offset="0" style="stop-color:#3E3E3F"/>
					<stop  offset="0.1627" style="stop-color:#393839"/>
					<stop  offset="1" style="stop-color:#231F20"/>
				</radialGradient>
				<polygon clip-path="url(#SVGID_57_)" fill="url(#SVGID_58_)" points="308.222,452.478 324.104,461.424 308.243,486.31 
					292.36,477.363 				"/>
			</g>
			<g clip-path="url(#SVGID_47_)">
				<defs>
					<polygon id="SVGID_59_" points="295.43,468.696 319.265,456.877 319.074,483.72 295.239,495.539 					"/>
				</defs>
				<clipPath id="SVGID_60_">
					<use xlink:href="#SVGID_59_"  overflow="visible"/>
				</clipPath>
				<path clip-path="url(#SVGID_60_)" d="M305.385,468.686c0,0-0.825,0.064-0.205,0.346c0.616,0.286,5.397,1.623,6.045,1.302
					c0.371-0.184-0.482-0.456-2.074-0.938C308.394,469.166,307.119,468.828,305.385,468.686"/>
			</g>
		</g>
	</g>
	<g>
		<g>
			<defs>
				<polygon id="SVGID_61_" points="27.838,453.428 48.656,464.267 48.465,491.11 27.647,480.271 				"/>
			</defs>
			<clipPath id="SVGID_62_">
				<use xlink:href="#SVGID_61_"  overflow="visible"/>
			</clipPath>
			<g clip-path="url(#SVGID_62_)">
				<defs>
					<path id="SVGID_63_" d="M30.795,473.934c-0.404,1.57-0.507,6.665-0.41,7.016c0.098,0.344,6.263,4.862,9.958,4.856
						c0,0,0.01-0.933,0.012-1.251c0.002-0.309-0.254-0.773-0.593-1.148c0.23,0.223,0.475,0.068,0.449-0.147
						c-0.048-0.374,0.036-0.987-0.284-1.204c-0.324-0.216,0.001-0.221,0.103-0.242c0.1-0.023-0.135-0.863-0.234-1.064
						c-0.103-0.2-0.059-0.549-0.117-0.928c-0.058-0.374-0.132-1.031-0.489-2.062c-0.241-0.69,0.001-3.112,0.716-4.324
						c-0.14-0.073-0.724-0.178-3.493-3.154c-1.262-1.324-2.596-3.802-2.596-3.802S31.408,471.556,30.795,473.934"/>
				</defs>
				<clipPath id="SVGID_64_">
					<use xlink:href="#SVGID_63_"  overflow="visible"/>
				</clipPath>
				
					<radialGradient id="SVGID_65_" cx="1481" cy="266.998" r="1" gradientTransform="matrix(5.1044 12.2338 7.8336 -2.2806 -9619.2246 -17044.1016)" gradientUnits="userSpaceOnUse">
					<stop  offset="0" style="stop-color:#414042"/>
					<stop  offset="0.051" style="stop-color:#414042"/>
					<stop  offset="0.2279" style="stop-color:#3B3A3B"/>
					<stop  offset="1" style="stop-color:#252122"/>
				</radialGradient>
				<polygon clip-path="url(#SVGID_64_)" fill="url(#SVGID_65_)" points="37.421,462.654 47.066,485.77 33.312,489.774 
					23.667,466.659 				"/>
			</g>
			<g clip-path="url(#SVGID_62_)">
				<defs>
					<polygon id="SVGID_66_" points="27.838,453.428 48.656,464.268 48.465,491.11 27.647,480.271 					"/>
				</defs>
				<clipPath id="SVGID_67_">
					<use xlink:href="#SVGID_66_"  overflow="visible"/>
				</clipPath>
				<path clip-path="url(#SVGID_67_)" fill="#F7941E" d="M40.934,472.132c0,0-0.027,0.985-0.39,0.772
					c-0.126,0.11,0.046,0.708-0.285,0.535c-0.332-0.173,0.607,1.01-1.36-0.484c-3.056-2.617-4.633-5.505-5.339-6.824
					c0,0-0.264-0.819,0.212-0.648c0.477,0.173,0.065-0.372,0.065-0.372s-0.224-0.645,0.544-0.497
					c-0.143-0.254-0.501-1.041-0.066-0.963c0.437,0.075,0.667,0.06,0.594-0.142c0,0-0.107-0.68,0.263-0.479
					c0.799,1.188,5.332,7.416,6.417,8.901c0,0-0.252-0.086-0.375,0.157c0,0,0.009,0.193-0.135,0.118"/>
			</g>
			<g clip-path="url(#SVGID_62_)">
				<defs>
					<path id="SVGID_68_" d="M30.866,455.427c0.417,1.835,1.196,3.519,3.336,6.723c5.806,8.689,8.973,11.971,8.973,11.971
						c1.983,2.134,3.048,2.554,3.048,2.554c0.056-0.005,0.137-0.188,0.137-0.188l-15.345-21.276
						C30.973,455.26,30.966,455.276,30.866,455.427"/>
				</defs>
				<clipPath id="SVGID_69_">
					<use xlink:href="#SVGID_68_"  overflow="visible"/>
				</clipPath>
				
					<linearGradient id="SVGID_70_" gradientUnits="userSpaceOnUse" x1="1481.0005" y1="267.0215" x2="1482.0005" y2="267.0215" gradientTransform="matrix(7.5352 14.0432 8.2971 -5.0328 -13341.8936 -18998.0352)">
					<stop  offset="0" style="stop-color:#252122"/>
					<stop  offset="0.1807" style="stop-color:#3E3E3F"/>
					<stop  offset="0.2567" style="stop-color:#393839"/>
					<stop  offset="0.6477" style="stop-color:#231F20"/>
					<stop  offset="1" style="stop-color:#231F20"/>
				</linearGradient>
				<polygon clip-path="url(#SVGID_69_)" fill="url(#SVGID_70_)" points="39.341,449.993 51.947,473.486 37.883,482.017 
					25.277,458.524 				"/>
			</g>
			<g clip-path="url(#SVGID_62_)">
				<defs>
					<path id="SVGID_71_" d="M31.027,455.61c0.269,1.134,1.104,2.67,1.25,2.913c0,0,4.013,7.642,11.626,16.133
						c2.192,2.429,3.19,2.462,1.993,0.404c-1.2-2.06-5.292-8.661-11.661-16.434c-1.514-1.824-2.627-3.192-3.057-3.416
						C30.995,455.115,30.937,455.229,31.027,455.61"/>
				</defs>
				<clipPath id="SVGID_72_">
					<use xlink:href="#SVGID_71_"  overflow="visible"/>
				</clipPath>
				
					<radialGradient id="SVGID_73_" cx="1481.0005" cy="266.999" r="1.0003" gradientTransform="matrix(8.5386 14.8867 8.567 -6.1288 -14899.3613 -19954.1055)" gradientUnits="userSpaceOnUse">
					<stop  offset="0" style="stop-color:#3E3E3F"/>
					<stop  offset="0.1627" style="stop-color:#393839"/>
					<stop  offset="1" style="stop-color:#231F20"/>
				</radialGradient>
				<polygon clip-path="url(#SVGID_72_)" fill="url(#SVGID_73_)" points="39.02,449.303 52.877,473.462 39.008,483.385 
					25.15,459.226 				"/>
			</g>
			<g clip-path="url(#SVGID_62_)">
				<defs>
					<polygon id="SVGID_74_" points="27.838,453.428 48.656,464.268 48.465,491.11 27.647,480.271 					"/>
				</defs>
				<clipPath id="SVGID_75_">
					<use xlink:href="#SVGID_74_"  overflow="visible"/>
				</clipPath>
				<path clip-path="url(#SVGID_75_)" d="M36.529,462.915c0,0-0.72-0.722-0.18,0.152c0.537,0.875,4.71,6.783,5.276,7.078
					c0.324,0.169-0.42-0.919-1.81-2.923C39.155,466.27,38.042,464.713,36.529,462.915"/>
			</g>
		</g>
	</g>
</g>
</svg>
