<?xml version="1.0" encoding="utf-8"?>
<!-- Generator: Adobe Illustrator 16.0.0, SVG Export Plug-In . SVG Version: 6.00 Build 0)  -->
<!DOCTYPE svg PUBLIC "-//W3C//DTD SVG 1.1//EN" "http://www.w3.org/Graphics/SVG/1.1/DTD/svg11.dtd">
<svg version="1.1" xmlns="http://www.w3.org/2000/svg" xmlns:xlink="http://www.w3.org/1999/xlink" x="0px" y="0px" width="564px"
	 height="882px" viewBox="0 0 564 882" enable-background="new 0 0 564 882" xml:space="preserve">
<g id="Sparkles_hinten_1_">
	<g id="Sparkles_hinten">
		<g>
			<g>
				<path fill="#F7941E" d="M154,283c3.869,0,3.869-6,0-6S150.131,283,154,283L154,283z"/>
			</g>
		</g>
		<g>
			<g>
				<path fill="#F7941E" d="M144,276c3.869,0,3.869-6,0-6S140.131,276,144,276L144,276z"/>
			</g>
		</g>
		<g>
			<g>
				<path fill="#F7941E" d="M141,278.667c3.869,0,3.869-6,0-6S137.131,278.667,141,278.667L141,278.667z"/>
			</g>
		</g>
		<g>
			<g>
				<path fill="#F7941E" d="M128.333,277.333c3.869,0,3.869-6,0-6S124.464,277.333,128.333,277.333L128.333,277.333z"/>
			</g>
		</g>
		<g>
			<g>
				<path fill="#F7941E" d="M123.333,278.667c3.869,0,3.869-6,0-6S119.464,278.667,123.333,278.667L123.333,278.667z"/>
			</g>
		</g>
		<g>
			<g>
				<path fill="#F7941E" d="M115,278c3.869,0,3.869-6,0-6S111.131,278,115,278L115,278z"/>
			</g>
		</g>
		<g>
			<g>
				<path fill="#F7941E" d="M130.667,279.333c3.869,0,3.869-6,0-6S126.797,279.333,130.667,279.333L130.667,279.333z"/>
			</g>
		</g>
		<g>
			<g>
				<path fill="#F7941E" d="M179.333,285.333c3.869,0,3.869-6,0-6S175.464,285.333,179.333,285.333L179.333,285.333z"/>
			</g>
		</g>
		<g>
			<g>
				<path fill="#F7941E" d="M181.333,288c3.869,0,3.869-6,0-6S177.464,288,181.333,288L181.333,288z"/>
			</g>
		</g>
		<g>
			<g>
				<path fill="#F7941E" d="M183.667,288c3.869,0,3.869-6,0-6S179.797,288,183.667,288L183.667,288z"/>
			</g>
		</g>
		<g>
			<g>
				<path fill="#F7941E" d="M187.333,290.667c3.869,0,3.869-6,0-6S183.464,290.667,187.333,290.667L187.333,290.667z"/>
			</g>
		</g>
		<g>
			<g>
				<path fill="#F7941E" d="M196,294c3.869,0,3.869-6,0-6S192.131,294,196,294L196,294z"/>
			</g>
		</g>
		<g>
			<g>
				<path fill="#F7941E" d="M199.667,296.667c3.869,0,3.869-6,0-6S195.797,296.667,199.667,296.667L199.667,296.667z"/>
			</g>
		</g>
		<g>
			<g>
				<path fill="#F7941E" d="M205.667,299.667c3.869,0,3.869-6,0-6S201.797,299.667,205.667,299.667L205.667,299.667z"/>
			</g>
		</g>
		<g>
			<g>
				<path fill="#F7941E" d="M208,301.667c3.869,0,3.869-6,0-6S204.131,301.667,208,301.667L208,301.667z"/>
			</g>
		</g>
		<g>
			<g>
				<path fill="#F7941E" d="M213.333,305.333c3.869,0,3.869-6,0-6S209.464,305.333,213.333,305.333L213.333,305.333z"/>
			</g>
		</g>
		<g>
			<g>
				<path fill="#F7941E" d="M218.333,308c3.869,0,3.869-6,0-6S214.464,308,218.333,308L218.333,308z"/>
			</g>
		</g>
		<g>
			<g>
				<path fill="#F7941E" d="M221.667,309c3.869,0,3.869-6,0-6S217.797,309,221.667,309L221.667,309z"/>
			</g>
		</g>
		<g>
			<g>
				<path fill="#F7941E" d="M224.667,311c3.869,0,3.869-6,0-6S220.797,311,224.667,311L224.667,311z"/>
			</g>
		</g>
		<g>
			<g>
				<path fill="#F7941E" d="M227.667,312.667c3.869,0,3.869-6,0-6S223.797,312.667,227.667,312.667L227.667,312.667z"/>
			</g>
		</g>
		<g>
			<g>
				<path fill="#F7941E" d="M167.667,284.333c3.869,0,3.869-6,0-6S163.797,284.333,167.667,284.333L167.667,284.333z"/>
			</g>
		</g>
		<g>
			<g>
				<path fill="#F7941E" d="M173,284.667c3.869,0,3.869-6,0-6S169.131,284.667,173,284.667L173,284.667z"/>
			</g>
		</g>
		<g>
			<g>
				<path fill="#F7941E" d="M173.333,282c3.869,0,3.869-6,0-6S169.464,282,173.333,282L173.333,282z"/>
			</g>
		</g>
		<g>
			<g>
				<path fill="#F7941E" d="M164.667,282c3.869,0,3.869-6,0-6S160.797,282,164.667,282L164.667,282z"/>
			</g>
		</g>
		<g>
			<g>
				<path fill="#F7941E" d="M158,280c3.869,0,3.869-6,0-6S154.131,280,158,280L158,280z"/>
			</g>
		</g>
		<g>
			<g>
				<path fill="#F7941E" d="M150.667,278c3.869,0,3.869-6,0-6S146.797,278,150.667,278L150.667,278z"/>
			</g>
		</g>
		<g>
			<g>
				<path fill="#F7941E" d="M145.333,280.667c3.869,0,3.869-6,0-6S141.464,280.667,145.333,280.667L145.333,280.667z"/>
			</g>
		</g>
		<g>
			<g>
				<path fill="#F7941E" d="M160.667,283c3.869,0,3.869-6,0-6S156.797,283,160.667,283L160.667,283z"/>
			</g>
		</g>
		<g>
			<g>
				<path fill="#F7941E" d="M137.667,274.333c3.869,0,3.869-6,0-6S133.797,274.333,137.667,274.333L137.667,274.333z"/>
			</g>
		</g>
		<g>
			<g>
				<path fill="#F7941E" d="M130,273c3.869,0,3.869-6,0-6S126.131,273,130,273L130,273z"/>
			</g>
		</g>
		<g>
			<g>
				<path fill="#F7941E" d="M138.333,281c3.869,0,3.869-6,0-6S134.464,281,138.333,281L138.333,281z"/>
			</g>
		</g>
		<g>
			<g>
				<path fill="#F7941E" d="M300,180c3.869,0,3.869-6,0-6S296.131,180,300,180L300,180z"/>
			</g>
		</g>
		<g>
			<g>
				<path fill="#F7941E" d="M313.333,189c3.869,0,3.869-6,0-6S309.464,189,313.333,189L313.333,189z"/>
			</g>
		</g>
		<g>
			<g>
				<path fill="#F7941E" d="M319.667,194c3.869,0,3.869-6,0-6S315.798,194,319.667,194L319.667,194z"/>
			</g>
		</g>
		<g>
			<g>
				<path fill="#F7941E" d="M314.667,186c3.869,0,3.869-6,0-6S310.798,186,314.667,186L314.667,186z"/>
			</g>
		</g>
		<g>
			<g>
				<path fill="#F7941E" d="M305,180c3.869,0,3.869-6,0-6S301.131,180,305,180L305,180z"/>
			</g>
		</g>
		<g>
			<g>
				<path fill="#F7941E" d="M306.333,171.667c3.869,0,3.869-6,0-6S302.464,171.667,306.333,171.667L306.333,171.667z"/>
			</g>
		</g>
		<g>
			<g>
				<path fill="#F7941E" d="M286.667,168.667c3.869,0,3.869-6,0-6S282.798,168.667,286.667,168.667L286.667,168.667z"/>
			</g>
		</g>
		<g>
			<g>
				<path fill="#F7941E" d="M291.667,172c3.869,0,3.869-6,0-6S287.798,172,291.667,172L291.667,172z"/>
			</g>
		</g>
		<g>
			<g>
				<path fill="#F7941E" d="M277.333,159.667c3.869,0,3.869-6,0-6S273.464,159.667,277.333,159.667L277.333,159.667z"/>
			</g>
		</g>
		<g>
			<g>
				<path fill="#F7941E" d="M263,146.333c3.869,0,3.869-6,0-6S259.131,146.333,263,146.333L263,146.333z"/>
			</g>
		</g>
		<g>
			<g>
				<path fill="#F7941E" d="M254.333,143.333c3.869,0,3.869-6,0-6S250.464,143.333,254.333,143.333L254.333,143.333z"/>
			</g>
		</g>
		<g>
			<g>
				<path fill="#F7941E" d="M234,139.667c3.869,0,3.869-6,0-6S230.131,139.667,234,139.667L234,139.667z"/>
			</g>
		</g>
		<g>
			<g>
				<path fill="#F7941E" d="M233.667,136.667c3.869,0,3.869-6,0-6S229.797,136.667,233.667,136.667L233.667,136.667z"/>
			</g>
		</g>
		<g>
			<g>
				<path fill="#F7941E" d="M220.667,134.667c3.869,0,3.869-6,0-6S216.797,134.667,220.667,134.667L220.667,134.667z"/>
			</g>
		</g>
		<g>
			<g>
				<path fill="#F7941E" d="M210,133.333c3.869,0,3.869-6,0-6S206.131,133.333,210,133.333L210,133.333z"/>
			</g>
		</g>
		<g>
			<g>
				<path fill="#F7941E" d="M321,176.333c3.869,0,3.869-6,0-6S317.131,176.333,321,176.333L321,176.333z"/>
			</g>
		</g>
		<g>
			<g>
				<path fill="#F7941E" d="M328.667,202c3.869,0,3.869-6,0-6S324.798,202,328.667,202L328.667,202z"/>
			</g>
		</g>
		<g>
			<g>
				<path fill="#F7941E" d="M335,205.667c3.869,0,3.869-6,0-6S331.131,205.667,335,205.667L335,205.667z"/>
			</g>
		</g>
		<g>
			<g>
				<path fill="#F7941E" d="M340.667,202.333c3.869,0,3.869-6,0-6S336.798,202.333,340.667,202.333L340.667,202.333z"/>
			</g>
		</g>
		<g>
			<g>
				<path fill="#F7941E" d="M345,209.667c3.869,0,3.869-6,0-6S341.131,209.667,345,209.667L345,209.667z"/>
			</g>
		</g>
		<g>
			<g>
				<path fill="#F7941E" d="M351.333,215.333c3.869,0,3.869-6,0-6S347.464,215.333,351.333,215.333L351.333,215.333z"/>
			</g>
		</g>
		<g>
			<g>
				<path fill="#F7941E" d="M329.333,191c3.869,0,3.869-6,0-6S325.464,191,329.333,191L329.333,191z"/>
			</g>
		</g>
	</g>
</g>
<g id="Pakete_am_Arm">
	
		<path fill="#FFFFFF" stroke="#000000" stroke-width="2" stroke-linecap="round" stroke-linejoin="round" stroke-miterlimit="10" d="
		M180,279.5c0,0-74.5-17.5-79-17.5c8.5-20.5,61.5-125,64-127c17.5,0.5,82,3,82,3"/>
	
		<path fill="#FFFFFF" stroke="#000000" stroke-width="2" stroke-linecap="round" stroke-linejoin="round" stroke-miterlimit="10" d="
		M374,231.5c0,0-119-85.5-127-93.5c-10,19-67,141.5-67,141.5l107.5,65c0,0,29.5,15.5,32.5,16.5S374,231.5,374,231.5z"/>
	
		<path fill="#FFFFFF" stroke="#000000" stroke-width="2" stroke-linecap="round" stroke-linejoin="round" stroke-miterlimit="10" d="
		M176,284c0,0-63.5-8.5-67-7c-9.5,18.5-56,121.5-56,121.5s49,26.5,53,28.5"/>
	
		<path fill="#FFFFFF" stroke="#000000" stroke-width="2" stroke-linecap="round" stroke-linejoin="round" stroke-miterlimit="10" d="
		M320,363c0,0-134.5-77.5-144-79c-18.5,30.5-70,143-70,143s158.5,66.5,163,65.5C281,467.5,320,365,320,363z"/>
</g>
<g id="Magier">
	<g id="Ebene_7">
		<g id="Ebene_11_Kopie">
			<g>
				<g>
					<defs>
						
							<rect id="SVGID_1_" x="135.338" y="402.828" transform="matrix(-0.9149 -0.4036 0.4036 -0.9149 115.5706 856.861)" width="25.502" height="26.845"/>
					</defs>
					<clipPath id="SVGID_2_">
						<use xlink:href="#SVGID_1_"  overflow="visible"/>
					</clipPath>
					<g clip-path="url(#SVGID_2_)">
						<defs>
							<path id="SVGID_3_" d="M137.677,417.642c-1.155,1.429-3.3,6.089-3.309,6.412c-0.005,0.317,6.388,4.562,11.29,4.623
								c0,0,0.38-0.853,0.509-1.144c0.125-0.283-0.032-0.712-0.333-1.062c0.218,0.208,0.603,0.071,0.654-0.126
								c0.083-0.343,0.437-0.904,0.098-1.107c-0.344-0.203,0.089-0.202,0.231-0.219c0.143-0.021,0.162-0.793,0.109-0.979
								c-0.057-0.185,0.139-0.503,0.21-0.851c0.07-0.344,0.231-0.946,0.165-1.896c-0.047-0.636,1.229-2.848,2.655-3.944
								c-0.157-0.07-0.891-0.175-3.388-2.95c-1.152-1.234-1.944-3.525-1.944-3.525S139.428,415.477,137.677,417.642"/>
						</defs>
						<clipPath id="SVGID_4_">
							<use xlink:href="#SVGID_3_"  overflow="visible"/>
						</clipPath>
						
							<radialGradient id="SVGID_5_" cx="147.9995" cy="603.999" r="1" gradientTransform="matrix(1.9461 11.2866 11.2866 -1.9461 -6962.5049 -85.3087)" gradientUnits="userSpaceOnUse">
							<stop  offset="0" style="stop-color:#414042"/>
							<stop  offset="0.051" style="stop-color:#414042"/>
							<stop  offset="0.2279" style="stop-color:#3B3A3B"/>
							<stop  offset="1" style="stop-color:#252122"/>
						</radialGradient>
						<polygon clip-path="url(#SVGID_4_)" fill="url(#SVGID_5_)" points="150.91,407.439 154.587,428.766 134.77,432.183 
							131.093,410.857 						"/>
					</g>
					<g clip-path="url(#SVGID_2_)">
						<defs>
							
								<rect id="SVGID_6_" x="135.337" y="402.829" transform="matrix(-0.9149 -0.4036 0.4036 -0.9149 115.57 856.8619)" width="25.502" height="26.844"/>
						</defs>
						<clipPath id="SVGID_7_">
							<use xlink:href="#SVGID_6_"  overflow="visible"/>
						</clipPath>
						<path clip-path="url(#SVGID_7_)" fill="#F7941E" d="M151.831,416.175c0,0-0.425,0.901-0.821,0.7
							c-0.211,0.099-0.217,0.649-0.589,0.485c-0.373-0.165,0.407,0.934-1.613-0.468c-3.02-2.45-3.974-5.121-4.39-6.341
							c0,0-0.027-0.755,0.538-0.589c0.563,0.167,0.232-0.339,0.232-0.339s-0.043-0.594,0.918-0.446
							c-0.089-0.235-0.255-0.961,0.292-0.882c0.549,0.077,0.86,0.067,0.844-0.119c0,0,0.125-0.624,0.538-0.433
							c0.592,1.101,4.146,6.882,5,8.26c0,0-0.301-0.083-0.56,0.137c0,0-0.064,0.178-0.226,0.106"/>
					</g>
					<g clip-path="url(#SVGID_2_)">
						<defs>
							<path id="SVGID_8_" d="M145.066,400.708c-0.169,1.687,0.199,3.241,1.774,6.211c4.273,8.056,7.179,11.116,7.179,11.116
								c1.789,1.988,3.036,2.391,3.036,2.391c0.075-0.003,0.255-0.17,0.255-0.17l-11.961-19.745
								C145.274,400.557,145.258,400.572,145.066,400.708"/>
						</defs>
						<clipPath id="SVGID_9_">
							<use xlink:href="#SVGID_8_"  overflow="visible"/>
						</clipPath>
						
							<linearGradient id="SVGID_10_" gradientUnits="userSpaceOnUse" x1="148.0015" y1="604.0215" x2="149.0012" y2="604.0215" gradientTransform="matrix(4.4562 12.986 12.986 -4.4562 -8355.3418 1170.9895)">
							<stop  offset="0" style="stop-color:#252122"/>
							<stop  offset="0.1807" style="stop-color:#3E3E3F"/>
							<stop  offset="0.2567" style="stop-color:#393839"/>
							<stop  offset="0.6477" style="stop-color:#231F20"/>
							<stop  offset="1" style="stop-color:#231F20"/>
						</linearGradient>
						<polygon clip-path="url(#SVGID_9_)" fill="url(#SVGID_10_)" points="158.446,395.889 165.901,417.613 143.89,425.166 
							136.434,403.441 						"/>
					</g>
					<g clip-path="url(#SVGID_2_)">
						<defs>
							<path id="SVGID_11_" d="M145.208,400.879c-0.092,1.042,0.41,2.463,0.509,2.688c0,0,2.31,7.065,9.057,14.972
								c1.949,2.262,3.259,2.31,2.483,0.406c-0.779-1.906-3.604-8.021-8.984-15.247c-1.288-1.697-2.225-2.969-2.707-3.182
								C145.36,400.425,145.238,400.528,145.208,400.879"/>
						</defs>
						<clipPath id="SVGID_12_">
							<use xlink:href="#SVGID_11_"  overflow="visible"/>
						</clipPath>
						
							<radialGradient id="SVGID_13_" cx="148.0005" cy="603.999" r="1.0003" gradientTransform="matrix(5.4543 13.7759 13.7759 -5.4543 -8979.5215 1657.4762)" gradientUnits="userSpaceOnUse">
							<stop  offset="0" style="stop-color:#3E3E3F"/>
							<stop  offset="0.1627" style="stop-color:#393839"/>
							<stop  offset="1" style="stop-color:#231F20"/>
						</radialGradient>
						<polygon clip-path="url(#SVGID_12_)" fill="url(#SVGID_13_)" points="158.292,395.25 167.144,417.607 144.842,426.438 
							135.99,404.081 						"/>
					</g>
					<g clip-path="url(#SVGID_2_)">
						<defs>
							
								<rect id="SVGID_14_" x="135.337" y="402.829" transform="matrix(-0.9149 -0.4036 0.4036 -0.9149 115.57 856.8619)" width="25.502" height="26.844"/>
						</defs>
						<clipPath id="SVGID_15_">
							<use xlink:href="#SVGID_14_"  overflow="visible"/>
						</clipPath>
						<path clip-path="url(#SVGID_15_)" d="M149.624,407.662c0,0-0.67-0.673-0.298,0.136c0.368,0.811,3.572,6.292,4.207,6.572
							c0.363,0.16-0.195-0.848-1.248-2.708C151.784,410.779,150.922,409.334,149.624,407.662"/>
					</g>
				</g>
			</g>
		</g>
		<g>
			<path d="M94.667,427.667c0,0,4.333,0.667,5.667,2.667s4.333,3,4.333,3s2.333,2.667,3.667,2s3.667,2.667,8-3.333
				C108.667,427.667,91,419.667,91,419.667S91,427.667,94.667,427.667z"/>
			<path d="M392,785.25c-2.25,1.5-2.5,0.25-2.5-2.75S276.084,643.417,273.583,639.417c-0.572-1.456-2.011-16.688-1.822-24.7
				c4.332,6.128,9.076,10.614,14.238,12.616c-3.166-14.394-7.948-38.73-11.824-61.902c1.58-26.223,3.157-55.56,3.157-62.097
				c0.346-0.979,2.398-3.663,2.667-2l4,9.166c2.5,10,8.667,26.167,19,49c9.437,20.852,45.5,54,52,54.25c4.25,0.5,3.75,0.5,1.5-2.25
				s-41.167-81.916-43.167-104.166c-0.25-10.5-3.833-39.584-1.333-47.334c2.25-11.25,1.833-26.583,1.333-41.333
				S310.5,373.75,364.75,314.5c27-28.75,42.25-32.5,37.75-44s-7-10.5-15.25-14.5s-22.75-5.75-17.25-10.5s19.25-8.5,21.5-9.75
				S396,232,396,232s-22.25,2.25-24.25,4.25c-0.968,0.968-9.953,23.708-18.972,46.924c-8.848,12.092-38.014,51.547-44.778,55.493
				c-8,4.667-112.666,68-121.333,68.667S148,401.333,140,402s-11.5,0-11.5,0s-1,4.5,2.5,5.5s27.5,9.5,28,12s-11,16-18,18s-14-2-14-2
				s-1.5,7.5,1.5,9.5s6.5,4,6.5,4v4c0,0,3,1.5,5.5,2s1,5.5,4,6.5s10,2,12,2.5s20.5-6.5,23.5-10s8-16.5,8-16.5s0.5-9.5,5-12s6,0,6,0
				l1.333,2.167c0,0,110-62.666,119-72c3.281-3.403,6.384-6.893,9.004-9.957c-3.125,7.105-6.873,14.753-8.838,15.54l0.75,3.75
				c0,0-49.25,125.75-51,127.5c-7.5-2.25-64.917-24.833-64.917-24.833s-55,148.333-56.333,161s80.167,139.665,92.834,150.999
				c4.667,5.334-0.535,14.766-5.5,16.334c-12.667,4-66,14-68,18.667c0,0-2.5,4-2.5,7c23-0.5,68.667-1.167,83.167-9.667
				c6.467-3.881,13.021,2.383,17.667,3.334c0.742,0.151,6.88,0.5,7.5,0.5c4.5,0,7.5,0,7.5-2.5s1.999-5.5-2-11
				c-5-6.874-10.167-12.834-13.167-18.334c-3-3-4.5-7.5-3-8.5s-79-132-92.5-144.5c9.5-26,58-112.5,61-126
				c1-3.5,6.333-2.333,6.333-2.333s2.928,20.479,8.83,44.909c-0.55,37.991,1.17,93.359,1.17,97.091
				c0,6,120.833,158.667,129.333,160.667c4-2.5,1.5-11.5,6-6C379.917,810.834,361,831,361,831c-5,2-13,4.5-12.5,7.5
				s15.166,5.167,25.166,5.167S393,841,393,841c5-2.5,9.211-31.125,11-40.667C406.25,788.333,394,783.25,392,785.25z"/>
		</g>
	</g>
	<path d="M405.578,121.037c0,0,36.555-96.139,40.812-99.136c17.805,8.24,39.671,24.476,62.734,64.505
		c-28.679,16.795-50.374,40.992-65.471,62.475C422.258,133.461,405.578,121.037,405.578,121.037z"/>
	<g id="Ebene_3">
		<path fill="#F7941E" d="M375.354,163.473c0,0-3.803-5.593,0.172-4.006c3.974,1.587,2.999-1.523,3.025-3.069
			c-0.241-3.431-0.085-5.459,3.629-6.273c1.949-0.511,1.229-2.646,0.877-3.259c-0.354-0.613-1.12-2.372,2.006-3.991
			c3.127-1.619,5.434-3.458,6.413-5.654c0.978-2.196,1.976-2.058,3.489-1.909s0.474-2.721-0.121-3.398
			c-0.595-0.678-1.663-2,1.247-3.677c2.911-1.677,4.685-2.494,3.31-3.641c-0.844-0.874,0.975-2.715,1.534-3.083
			c2.375-1.346,3.152-0.705,5.641,0.309c2.005,0.817,19.965,7.726,32.908,21.708c2.352,2.54,3.728,4.109,4.629,6.854
			c0.393,1.745-0.778,5.141-3.406,6.247c-2.627,1.105-7.614,4.251-4.544,6.63c0.632,0.86-0.982,3.015-3.438,3.477
			c-2.454,0.462-1.485,3.916-1.11,4.448s0.475,1.767-1.562,2.6s-5.609,0.642-4.483,3.192c1.127,2.55,2.021,3.395-0.854,4.779
			s-2.194,1.74-1.182,2.789c1.013,1.049,1.08,1.758-0.531,2.619c-1.612,0.861-2.664,0.923-3.47,0.707
			C418.729,187.654,392.08,174.44,375.354,163.473z"/>
	</g>
	<path d="M339.895,144.19c0,0,29.521,29.814,111.019,62.733c4.698,1.781,6.555-0.308-3.837-5.95
		c-10.391-5.643-21.643-11.684-29.521-14.411c-11.724-4.059-44.769-23.172-61.002-37.893
		C349.143,142.535,342.847,141.877,339.895,144.19z"/>
</g>
<g id="Pakete">
	<g id="Ebene_14">
	</g>
</g>
<g id="Sparkles">
	<g>
		<g>
			<path fill="#F7941E" d="M142,287c3.869,0,3.869-6,0-6S138.131,287,142,287L142,287z"/>
		</g>
	</g>
	<g>
		<g>
			<path fill="#F7941E" d="M130.667,282.333c3.869,0,3.869-6,0-6S126.797,282.333,130.667,282.333L130.667,282.333z"/>
		</g>
	</g>
	<g>
		<g>
			<path fill="#F7941E" d="M119.333,282.333c3.869,0,3.869-6,0-6S115.464,282.333,119.333,282.333L119.333,282.333z"/>
		</g>
	</g>
	<g>
		<g>
			<path fill="#F7941E" d="M98.333,286c3.869,0,3.869-6,0-6S94.464,286,98.333,286L98.333,286z"/>
		</g>
	</g>
	<g>
		<g>
			<path fill="#F7941E" d="M85.667,296.667c3.869,0,3.869-6,0-6S81.797,296.667,85.667,296.667L85.667,296.667z"/>
		</g>
	</g>
	<g>
		<g>
			<path fill="#F7941E" d="M83.333,309.667c3.869,0,3.869-6,0-6S79.464,309.667,83.333,309.667L83.333,309.667z"/>
		</g>
	</g>
	<g>
		<g>
			<path fill="#F7941E" d="M69.333,311.667c3.869,0,3.869-6,0-6S65.464,311.667,69.333,311.667L69.333,311.667z"/>
		</g>
	</g>
	<g>
		<g>
			<path fill="#F7941E" d="M103.333,271.667c3.869,0,3.869-6,0-6S99.464,271.667,103.333,271.667L103.333,271.667z"/>
		</g>
	</g>
	<g>
		<g>
			<path fill="#F7941E" d="M82,265.333c3.869,0,3.869-6,0-6S78.131,265.333,82,265.333L82,265.333z"/>
		</g>
	</g>
	<g>
		<g>
			<path fill="#F7941E" d="M90.667,245c3.869,0,3.869-6,0-6S86.797,245,90.667,245L90.667,245z"/>
		</g>
	</g>
	<g>
		<g>
			<path fill="#F7941E" d="M73.667,232.667c3.869,0,3.869-6,0-6S69.797,232.667,73.667,232.667L73.667,232.667z"/>
		</g>
	</g>
	<g>
		<g>
			<path fill="#F7941E" d="M181.667,117.333c3.869,0,3.869-6,0-6S177.797,117.333,181.667,117.333L181.667,117.333z"/>
		</g>
	</g>
	<g>
		<g>
			<path fill="#F7941E" d="M210.667,144.667c3.869,0,3.869-6,0-6S206.797,144.667,210.667,144.667L210.667,144.667z"/>
		</g>
	</g>
	<g>
		<g>
			<path fill="#F7941E" d="M188,146c3.869,0,3.869-6,0-6S184.131,146,188,146L188,146z"/>
		</g>
	</g>
	<g>
		<g>
			<path fill="#F7941E" d="M182.333,135.667c3.869,0,3.869-6,0-6S178.464,135.667,182.333,135.667L182.333,135.667z"/>
		</g>
	</g>
	<g>
		<g>
			<path fill="#F7941E" d="M159.333,129c3.869,0,3.869-6,0-6S155.464,129,159.333,129L159.333,129z"/>
		</g>
	</g>
	<g>
		<g>
			<path fill="#F7941E" d="M139.667,114.667c3.869,0,3.869-6,0-6S135.797,114.667,139.667,114.667L139.667,114.667z"/>
		</g>
	</g>
	<g>
		<g>
			<path fill="#F7941E" d="M111.667,141c3.869,0,3.869-6,0-6S107.797,141,111.667,141L111.667,141z"/>
		</g>
	</g>
	<g>
		<g>
			<path fill="#F7941E" d="M230,84.5c3.869,0,3.869-6,0-6S226.131,84.5,230,84.5L230,84.5z"/>
		</g>
	</g>
	<g>
		<g>
			<path fill="#F7941E" d="M290.5,114.5c3.869,0,3.869-6,0-6S286.631,114.5,290.5,114.5L290.5,114.5z"/>
		</g>
	</g>
	<g>
		<g>
			<path fill="#F7941E" d="M320.5,84c3.869,0,3.869-6,0-6S316.631,84,320.5,84L320.5,84z"/>
		</g>
	</g>
	<g>
		<g>
			<path fill="#F7941E" d="M292.5,54.5c3.869,0,3.869-6,0-6S288.631,54.5,292.5,54.5L292.5,54.5z"/>
		</g>
	</g>
	<g>
		<g>
			<path fill="#F7941E" d="M204,303.5c3.869,0,3.869-6,0-6S200.131,303.5,204,303.5L204,303.5z"/>
		</g>
	</g>
	<g>
		<g>
			<path fill="#F7941E" d="M219,309c3.869,0,3.869-6,0-6S215.131,309,219,309L219,309z"/>
		</g>
	</g>
	<g>
		<g>
			<path fill="#F7941E" d="M236.5,322c3.869,0,3.869-6,0-6S232.631,322,236.5,322L236.5,322z"/>
		</g>
	</g>
	<g>
		<g>
			<path fill="#F7941E" d="M243,336c3.869,0,3.869-6,0-6S239.131,336,243,336L243,336z"/>
		</g>
	</g>
	<g>
		<g>
			<path fill="#F7941E" d="M215,320c3.869,0,3.869-6,0-6S211.131,320,215,320L215,320z"/>
		</g>
	</g>
	<g>
		<g>
			<path fill="#F7941E" d="M179,290.5c3.869,0,3.869-6,0-6S175.131,290.5,179,290.5L179,290.5z"/>
		</g>
	</g>
	<g>
		<g>
			<path fill="#F7941E" d="M181,311c3.869,0,3.869-6,0-6S177.131,311,181,311L181,311z"/>
		</g>
	</g>
	<g>
		<g>
			<path fill="#F7941E" d="M161.5,295c3.869,0,3.869-6,0-6S157.631,295,161.5,295L161.5,295z"/>
		</g>
	</g>
	<g>
		<g>
			<path fill="#F7941E" d="M172.5,288.5c3.869,0,3.869-6,0-6S168.631,288.5,172.5,288.5L172.5,288.5z"/>
		</g>
	</g>
	<g>
		<g>
			<path fill="#F7941E" d="M175,287.5c3.869,0,3.869-6,0-6S171.131,287.5,175,287.5L175,287.5z"/>
		</g>
	</g>
	<g>
		<g>
			<path fill="#F7941E" d="M178,279c3.869,0,3.869-6,0-6S174.131,279,178,279L178,279z"/>
		</g>
	</g>
	<g>
		<g>
			<path fill="#F7941E" d="M166,263c3.869,0,3.869-6,0-6S162.131,263,166,263L166,263z"/>
		</g>
	</g>
</g>
<g id="Zylinder">
	<g>
		<g>
			<defs>
				
					<rect id="SVGID_16_" x="205.681" y="254.819" transform="matrix(-0.8716 -0.4903 0.4903 -0.8716 277.2881 609.1242)" width="25.502" height="26.845"/>
			</defs>
			<clipPath id="SVGID_17_">
				<use xlink:href="#SVGID_16_"  overflow="visible"/>
			</clipPath>
			<g clip-path="url(#SVGID_17_)">
				<defs>
					<path id="SVGID_18_" d="M207.934,268.618c-1.288,1.311-3.874,5.741-3.914,6.062c-0.036,0.315,5.916,5.159,10.79,5.694
						c0,0,0.461-0.812,0.617-1.089c0.151-0.269,0.037-0.712-0.229-1.089c0.197,0.228,0.593,0.129,0.663-0.063
						c0.116-0.333,0.522-0.857,0.205-1.092c-0.323-0.236,0.108-0.192,0.251-0.196c0.144-0.006,0.238-0.773,0.204-0.963
						c-0.039-0.19,0.187-0.487,0.292-0.826c0.104-0.335,0.322-0.919,0.348-1.872c0.015-0.637,1.499-2.716,3.024-3.668
						c-0.15-0.084-0.87-0.261-3.087-3.264c-1.027-1.34-1.594-3.697-1.594-3.697S209.886,266.632,207.934,268.618"/>
				</defs>
				<clipPath id="SVGID_19_">
					<use xlink:href="#SVGID_18_"  overflow="visible"/>
				</clipPath>
				
					<radialGradient id="SVGID_20_" cx="147.9995" cy="603.999" r="1" gradientTransform="matrix(0.8442 11.422 11.422 -0.8442 -6810.1826 -919.3976)" gradientUnits="userSpaceOnUse">
					<stop  offset="0" style="stop-color:#414042"/>
					<stop  offset="0.051" style="stop-color:#414042"/>
					<stop  offset="0.2279" style="stop-color:#3B3A3B"/>
					<stop  offset="1" style="stop-color:#252122"/>
				</radialGradient>
				<polygon clip-path="url(#SVGID_19_)" fill="url(#SVGID_20_)" points="222.093,259.745 223.688,281.326 203.633,282.809 
					202.038,261.227 				"/>
			</g>
			<g clip-path="url(#SVGID_17_)">
				<defs>
					
						<rect id="SVGID_21_" x="205.68" y="254.82" transform="matrix(-0.8716 -0.4903 0.4903 -0.8716 277.2874 609.125)" width="25.502" height="26.844"/>
				</defs>
				<clipPath id="SVGID_22_">
					<use xlink:href="#SVGID_21_"  overflow="visible"/>
				</clipPath>
				<path clip-path="url(#SVGID_22_)" fill="#F7941E" d="M222.164,268.528c0,0-0.51,0.856-0.885,0.617
					c-0.22,0.078-0.279,0.625-0.634,0.426s0.315,0.97-1.56-0.622c-2.769-2.731-3.459-5.482-3.755-6.736c0,0,0.046-0.754,0.592-0.534
					c0.545,0.22,0.264-0.315,0.264-0.315s0.015-0.596,0.957-0.354c-0.066-0.243-0.161-0.981,0.376-0.85
					c0.54,0.13,0.85,0.15,0.852-0.036c0,0,0.185-0.609,0.577-0.379c0.482,1.153,3.46,7.251,4.177,8.706c0,0-0.292-0.111-0.57,0.083
					c0,0-0.081,0.17-0.235,0.083"/>
			</g>
			<g clip-path="url(#SVGID_17_)">
				<defs>
					<path id="SVGID_23_" d="M216.928,252.479c-0.332,1.663-0.116,3.245,1.164,6.354c3.474,8.432,6.07,11.758,6.07,11.758
						c1.588,2.152,2.79,2.674,2.79,2.674c0.075,0.004,0.271-0.145,0.271-0.145l-9.994-20.81
						C217.15,252.348,217.132,252.362,216.928,252.479"/>
				</defs>
				<clipPath id="SVGID_24_">
					<use xlink:href="#SVGID_23_"  overflow="visible"/>
				</clipPath>
				
					<linearGradient id="SVGID_25_" gradientUnits="userSpaceOnUse" x1="148.0015" y1="604.0215" x2="149.0012" y2="604.0215" gradientTransform="matrix(3.178 13.3564 13.3564 -3.178 -8318.123 196.1508)">
					<stop  offset="0" style="stop-color:#252122"/>
					<stop  offset="0.1807" style="stop-color:#3E3E3F"/>
					<stop  offset="0.2567" style="stop-color:#393839"/>
					<stop  offset="0.6477" style="stop-color:#231F20"/>
					<stop  offset="1" style="stop-color:#231F20"/>
				</linearGradient>
				<polygon clip-path="url(#SVGID_24_)" fill="url(#SVGID_25_)" points="230.712,248.977 236.029,271.321 213.389,276.708 
					208.072,254.364 				"/>
			</g>
			<g clip-path="url(#SVGID_17_)">
				<defs>
					<path id="SVGID_26_" d="M217.053,252.662c-0.191,1.028,0.17,2.492,0.247,2.725c0,0,1.615,7.255,7.565,15.778
						c1.721,2.439,3.02,2.615,2.432,0.644c-0.591-1.973-2.81-8.332-7.466-16.045c-1.118-1.813-1.927-3.17-2.386-3.429
						C217.249,252.226,217.117,252.316,217.053,252.662"/>
				</defs>
				<clipPath id="SVGID_27_">
					<use xlink:href="#SVGID_26_"  overflow="visible"/>
				</clipPath>
				
					<radialGradient id="SVGID_28_" cx="148.0005" cy="604" r="1" gradientTransform="matrix(4.0949 14.2393 14.2393 -4.0949 -8986.4756 619.9136)" gradientUnits="userSpaceOnUse">
					<stop  offset="0" style="stop-color:#3E3E3F"/>
					<stop  offset="0.1627" style="stop-color:#393839"/>
					<stop  offset="1" style="stop-color:#231F20"/>
				</radialGradient>
				<polygon clip-path="url(#SVGID_27_)" fill="url(#SVGID_28_)" points="230.621,248.327 237.266,271.436 214.213,278.066 
					207.568,254.958 				"/>
			</g>
			<g clip-path="url(#SVGID_17_)">
				<defs>
					
						<rect id="SVGID_29_" x="205.68" y="254.82" transform="matrix(-0.8716 -0.4903 0.4903 -0.8716 277.2874 609.125)" width="25.502" height="26.844"/>
				</defs>
				<clipPath id="SVGID_30_">
					<use xlink:href="#SVGID_29_"  overflow="visible"/>
				</clipPath>
				<path clip-path="url(#SVGID_30_)" d="M220.791,259.841c0,0-0.602-0.735-0.31,0.107c0.288,0.842,2.946,6.608,3.551,6.948
					c0.346,0.194-0.112-0.863-0.979-2.816C222.639,263.152,221.921,261.631,220.791,259.841"/>
			</g>
		</g>
	</g>
</g>
</svg>
