<?xml version="1.0" encoding="utf-8"?>
<!-- Generator: Adobe Illustrator 16.0.0, SVG Export Plug-In . SVG Version: 6.00 Build 0)  -->
<!DOCTYPE svg PUBLIC "-//W3C//DTD SVG 1.1//EN" "http://www.w3.org/Graphics/SVG/1.1/DTD/svg11.dtd">
<svg version="1.1" id="Ebene_2" opacity="0.1" xmlns="http://www.w3.org/2000/svg" xmlns:xlink="http://www.w3.org/1999/xlink"
	 x="0px" y="0px" width="785.392px" height="793.39px" viewBox="0 0 785.392 793.39" enable-background="new 0 0 785.392 793.39"
	 xml:space="preserve">
<path fill="none" stroke="#65656B" stroke-width="2" stroke-linecap="round" stroke-linejoin="round" stroke-miterlimit="10" d="
	M301.697,152.31c0,0,36.97-4.628,68.034,0"/>
<path fill="none" stroke="#65656B" stroke-width="2" stroke-linecap="round" stroke-linejoin="round" stroke-miterlimit="10" d="
	M313.498,126.319c0,0-4.794,11.617-8.943,13.881c-4.149,2.265-9.405,5.327-10.603,11.081c-1.106,7.919-3.04,23.061,2.492,24.144
	c5.533,1.083,74.494,0.384,74.954-0.009c2.397-0.197,4.646-2.925,4.603-6.37c0-3.84,0.83-18.706-4.795-22.938
	c-5.623-4.233-12.811-4.037-15.392-19.788"/>
<ellipse fill="none" stroke="#65656B" stroke-width="2" stroke-linecap="round" stroke-linejoin="round" stroke-miterlimit="10" cx="334.335" cy="117.41" rx="11.249" ry="8.91"/>
<ellipse fill="none" stroke="#65656B" stroke-width="2" stroke-linecap="round" stroke-linejoin="round" stroke-miterlimit="10" cx="334.518" cy="120.511" rx="22.125" ry="16.933"/>
<path fill="none" stroke="#65656B" stroke-width="2" stroke-linecap="round" stroke-linejoin="round" stroke-miterlimit="10" d="
	M292.109,158.314c0,0-9.405,2.658-16.411-3.249c-7.007-5.907-5.993-15.358-0.739-16.145c5.256-0.787,18.255-0.788,16.505,8.465
	c-1.752,9.255-15.858,17.524-29.412,15.162c-13.552-2.363-5.161-9.254-3.318-9.452c3.226-1.082,31.9-5.512,29.411,9.452
	c-1.21,4.651-6.085,6.275-9.232,6.83c-4.149,0.626-24.306,2.99-24.235-4.357c0.069-4.43,7.571-12.515,8.919-16.391
	s3.492-10.375,2.559-23.702c-0.415-7.827,5.635-17.24,10.994-22.114c0,0,0.67-4.061,6.714-7.582
	c6.453-3.841,54.53-24.043,94.441,1.257c5.717,4.136,10.419,11.814,5.899,20.92c-2.027,3.593-5.899,3.495-10.878,2.018
	c-6.36-2.166-17.236-4.332-15.116-10.534c0.736-2.264,1.935-1.478,2.857-2.756c0.919-1.28,1.748-5.907-1.936-8.171
	c-3.688-2.264-6.913-4.628-22.031-5.121c-15.121-0.491-32.361,3.447-35.036,8.172c-1.198,2.165,1.291,4.331,2.397,4.922
	c1.106,0.591,2.951,2.756,1.383,4.332c-1.568,1.575-12.539,10.928-26.645,10.239c-3.042-0.493-4.056-5.809-2.859-13.488
	c0.277-1.083,0.807-4.209,0.807-4.209"/>
<path fill="none" stroke="#65656B" stroke-width="2" stroke-linecap="round" stroke-linejoin="round" stroke-miterlimit="10" d="
	M309.627,97.769c0,0,0.552,8.762,7.836,10.731"/>
<path fill="none" stroke="#65656B" stroke-width="2" stroke-linecap="round" stroke-linejoin="round" stroke-miterlimit="10" d="
	M350.191,107.516c0,0,6.729-3.741,7.004-9.748"/>
<path fill="none" stroke="#65656B" stroke-width="2" stroke-linecap="round" stroke-linejoin="round" stroke-miterlimit="10" d="
	M317.463,95.407c0,0-2.028,5.219,0.738,5.021c2.766-0.197,17.517-2.659,28.373-0.457c1.017,0.486,1.867-2.203-0.231-6.443"/>
<polygon fill="none" stroke="#65656B" stroke-width="2" stroke-linecap="round" stroke-linejoin="round" stroke-miterlimit="10" points="
	190.97,165.5 226.558,166.781 241.032,84.774 205.167,84.774 "/>
<path fill="none" stroke="#65656B" stroke-width="2" stroke-linecap="round" stroke-linejoin="round" stroke-miterlimit="10" d="
	M201.941,170.818c0,0-3.965,2.953,0,3.741c3.964,0.787,13.09,1.673,10.141-2.265C210.423,169.931,203.509,170.227,201.941,170.818z"
	/>
<path fill="none" stroke="#65656B" stroke-width="2" stroke-linecap="round" stroke-linejoin="round" stroke-miterlimit="10" d="
	M216.001,78.671c0,0,10.832,0,13.138,0.493"/>
<path fill="none" stroke="#65656B" stroke-width="2" stroke-linecap="round" stroke-linejoin="round" stroke-miterlimit="10" d="
	M218.628,74.437c0,0,9.771,0.395,10.511,0.493"/>
<path fill="none" stroke="#65656B" stroke-width="2" stroke-linecap="round" stroke-linejoin="round" stroke-miterlimit="10" d="
	M184.976,163.236c0,0-2.305,12.897,6.362,15.457c8.667,2.56,32.545,2.855,32.545,2.855s6.823-0.689,8.759-6.99
	s17.24-92.738,17.24-93.329s-0.184-9.45-8.851-12.207c-8.667-2.757-30.332-1.281-31.163-0.985c-2.672,0.59-7.006,2.461-9.219,11.125
	C198.345,89.894,185.107,162.257,184.976,163.236z"/>
<path fill="none" stroke="#65656B" stroke-width="2" stroke-linecap="round" stroke-linejoin="round" stroke-miterlimit="10" d="
	M192.266,123.406c0,0-21.304,35.696-30.708,40.126c-2.489,1.082-22.035-0.395-27.567-7.286c-1.475-1.772-2.121-4.233,0.83-8.565
	c2.951-4.332,31.347-46.369,31.347-46.369s-3.411-4.233-0.461-6.202c2.95-1.969,8.206-3.839,7.376-5.217
	c-0.831-1.378-3.597-3.598-2.859-5.934c0.738-2.335,18.071-55.104,18.348-56.482c0.276-1.377,2.028-3.642,7.006-3.642
	s19.915,0.787,22.127,3.346c2.212,2.561,1.75,4.726,1.659,6.4c-0.09,1.674-7.651,30.578-9.403,33.797"/>
<line fill="none" stroke="#65656B" stroke-width="2" stroke-linecap="round" stroke-linejoin="round" stroke-miterlimit="10" x1="169.211" y1="102.102" x2="194.012" y2="109.78"/>
<line fill="none" stroke="#65656B" stroke-width="2" stroke-linecap="round" stroke-linejoin="round" stroke-miterlimit="10" x1="177.14" y1="91.862" x2="196.593" y2="96.587"/>
<path fill="none" stroke="#65656B" stroke-width="2" stroke-linecap="round" stroke-linejoin="round" stroke-miterlimit="10" d="
	M162.849,113.62c0,0-5.808,2.068-3.133,5.611c2.672,3.544,4.517,1.674,5.069-1.871"/>
<path fill="none" stroke="#65656B" stroke-width="2" stroke-linecap="round" stroke-linejoin="round" stroke-miterlimit="10" d="
	M169.211,117.951c0,0-4.794,4.331-1.66,5.021c3.136,0.689,8.114,0.098,5.809-5.021"/>
<path fill="none" stroke="#65656B" stroke-width="2" stroke-linecap="round" stroke-linejoin="round" stroke-miterlimit="10" d="
	M185.345,121.132c0,0-4.333-0.916-8.205,0.462c-3.873,1.377-4.986,3.697,4.471,3.74"/>
<path fill="none" stroke="#65656B" stroke-width="2" stroke-linecap="round" stroke-linejoin="round" stroke-miterlimit="10" d="
	M173.451,127.1c0,0-4.517,4.93,1.568,4.831c6.085-0.099,3.689-3.952,2.674-4.831"/>
<path fill="none" stroke="#65656B" stroke-width="2" stroke-linecap="round" stroke-linejoin="round" stroke-miterlimit="10" d="
	M161.899,124.463c0,0-2.277,5.694,2.886,6.777c5.163,1.084,5.764-7.271,1.199-5.906"/>
<path fill="none" stroke="#65656B" stroke-width="2" stroke-linecap="round" stroke-linejoin="round" stroke-miterlimit="10" d="
	M156.211,122.381c0,0-5.255,2.659-1.936,6.203c3.318,3.543,4.863-1.772,4.736-3.249"/>
<path fill="none" stroke="#65656B" stroke-width="2" stroke-linecap="round" stroke-linejoin="round" stroke-miterlimit="10" d="
	M153.176,131.338c0,0-6.185-0.491-3.695,1.675c1.198,1.084,2.397,1.675,2.397,1.675"/>
<path fill="none" stroke="#65656B" stroke-width="2" stroke-linecap="round" stroke-linejoin="round" stroke-miterlimit="10" d="
	M161.399,131.933c0,0-2.698,3.64-0.394,4.034c2.305,0.394,3.319,0,3.319,0"/>
<path fill="none" stroke="#65656B" stroke-width="2" stroke-linecap="round" stroke-linejoin="round" stroke-miterlimit="10" d="
	M167.736,135.474c0,0-0.646,3.249,1.475,3.446c2.121,0.198,4.149-2.166,4.149-2.166"/>
<path fill="none" stroke="#65656B" stroke-width="2" stroke-linecap="round" stroke-linejoin="round" stroke-miterlimit="10" d="
	M146.899,134.688c0,0-3.319,4.036-0.646,4.725c2.674,0.689,4.333-0.886,5.163,0c0.83,0.886,0.106,2.955,1.76,2.855
	c1.652-0.1,6.335-2.955,6.898-1.871s1.393,4.922,4.25,4.036c2.858-0.885,5.35-2.145,5.44-3.838"/>
<path fill="none" stroke="#65656B" stroke-width="2" stroke-linecap="round" stroke-linejoin="round" stroke-miterlimit="10" d="
	M142.29,140.791c0,0-3.136,1.772,0,5.611"/>
<path fill="none" stroke="#65656B" stroke-width="2" stroke-linecap="round" stroke-linejoin="round" stroke-miterlimit="10" d="
	M149.481,147.387c0,0,1.673,1.476,3.695,0.984c2.021-0.492,2.069-0.59,2.921,0.493c0.851,1.083,7.858,1.772,7.858,1.772"/>
<path fill="none" stroke="#65656B" stroke-width="2" stroke-linecap="round" stroke-linejoin="round" stroke-miterlimit="10" d="
	M198.715,83.96c0,0-20.503-1.687-22.921-5.991c2.213-10.239,5.126-24.895,12.41-37.89c3.779-0.886,18.899,0.591,22.311,3.938
	c-1.105,9.156-3.545,21.008-5.194,26.351"/>
<path fill="none" stroke="#65656B" stroke-width="2" stroke-linecap="round" stroke-linejoin="round" stroke-miterlimit="10" d="
	M206.55,49.628c0,0-15.562-2.11-18.715-2.264c-3.227,7.876-8.759,27.172-8.667,28.845c6.271,2.067,19.106,3.942,20.192,3.937
	C201.295,74.043,206.55,49.628,206.55,49.628z"/>
<path fill="none" stroke="#65656B" stroke-width="2" stroke-linecap="round" stroke-linejoin="round" stroke-miterlimit="10" d="
	M239.465,65.676c0,0,7.44-20.559,16.659-65.676"/>
<path fill="none" stroke="#65656B" stroke-width="2" stroke-linecap="round" stroke-linejoin="round" stroke-miterlimit="10" d="
	M272.256,0.001c5.172,34.871,13.627,80.275,22.804,85.265"/>
<path fill="none" stroke="#65656B" stroke-width="2" stroke-linecap="round" stroke-linejoin="round" stroke-miterlimit="10" d="
	M264.634,100.433c0,0-0.401-58.709-0.173-100.433"/>
<path fill="none" stroke="#65656B" stroke-width="2" stroke-linecap="round" stroke-linejoin="round" stroke-miterlimit="10" d="
	M286.209,75.619c0,0-17.241,4.726-20.837,12.306"/>
<line fill="none" stroke="#65656B" stroke-width="2" stroke-linecap="round" stroke-linejoin="round" stroke-miterlimit="10" x1="252.741" y1="81.771" x2="263.989" y2="90.878"/>
<path fill="none" stroke="#65656B" stroke-width="2" stroke-linecap="round" stroke-linejoin="round" stroke-miterlimit="10" d="
	M244.352,63.116c0,0,19.084,11.321,20.146,11.321c1.059,0,4.564-5.218,18.854-8.761"/>
<path fill="none" stroke="#65656B" stroke-width="2" stroke-linecap="round" stroke-linejoin="round" stroke-miterlimit="10" d="
	M251.727,57.21c0,0,9.404-0.985,12.262,5.906"/>
<path fill="none" stroke="#65656B" stroke-width="2" stroke-linecap="round" stroke-linejoin="round" stroke-miterlimit="10" d="
	M267.124,58.194c0,0,5.29-5.809,12.602-5.71"/>
<path fill="none" stroke="#65656B" stroke-width="2" stroke-linecap="round" stroke-linejoin="round" stroke-miterlimit="10" d="
	M248.96,46.085c0,0,9.22-1.083,13.184,4.134"/>
<path fill="none" stroke="#65656B" stroke-width="2" stroke-linecap="round" stroke-linejoin="round" stroke-miterlimit="10" d="
	M267.861,48.105c0,0,2.305-4.974,9.589-3.301"/>
<path fill="none" stroke="#65656B" stroke-width="2" stroke-linecap="round" stroke-linejoin="round" stroke-miterlimit="10" d="
	M250.437,37.717c0,0,5.992-2.657,10.325,2.756"/>
<path fill="none" stroke="#65656B" stroke-width="2" stroke-linecap="round" stroke-linejoin="round" stroke-miterlimit="10" d="
	M275.236,37.064c0,0-3.226-4.086-8.574,2.762c2.121-6.244,4.488-10.242,6.762-11.345c-1.875-2.185-3.073-3.562-6.301-2.086"/>
<path fill="none" stroke="#65656B" stroke-width="2" stroke-linecap="round" stroke-linejoin="round" stroke-miterlimit="10" d="
	M261.407,30.923c0,0-2.396-7.087-8.666-3.248"/>
<path fill="none" stroke="#65656B" stroke-width="2" stroke-linecap="round" stroke-linejoin="round" stroke-miterlimit="10" d="
	M256.06,17.83c0,0,3.872-1.674,6.914,0"/>
<path fill="#010101" d="M759.306,226.489c0,0,17.15-88.16,18.256-91.261c2.436,0.479,5.047,1.175,7.832,2.163
	c-0.001,28.999-0.168,83.499-0.002,99.392C778.696,232.453,769.534,228.09,759.306,226.489z"/>
<path fill="#F5952F" d="M785.392,269.132c-0.991,0.617-1.395,1.175-0.709,2.25c0.235,0.368,0.485,0.687,0.707,0.977
	c0.002,0.906,0.002,1.406,0.002,2.077c-0.124,0.255-0.26,0.494-0.363,0.71c-2.006,1.477-2.419,1.92-1.246,2.585
	c1.178,0.665,1.953,1.73-0.206,2.805c-1.036,0.518-1.866,1.035-1.866,1.035s-7.568,0.194-38.723-13.881c0,0-4.285-4.135-1.52-3.839
	c2.766,0.295,3.248-0.591,2.694-2.142c-0.553-1.549-1.589-4.429,1.178-6.349c1.727-1.182,1.381-2.067,0.898-2.88
	c-0.484-0.812-0.941-1.55,0.391-3.101c1.338-1.551,4.864-4.578,4.864-6.202c0-1.625,0-2.732,1.728-2.879
	c1.728-0.148,2.56-0.591,0.691-2.289c-1.866-1.698-0.83-3.028,0.484-3.84s3.388-2.51,2.212-3.101
	c-1.174-0.591-0.755-2.363,0.349-3.397c1.104-1.034,1.797-1.255,3.594-1.034c1.384,0.171,13.782,2.702,24.843,9.715L785.392,269.132
	z"/>
<path fill="#010101" d="M785.39,286.84c-7.108-2.057-15.873-4.749-26.431-8.223c-33.88-11.149-49.163-22.741-49.163-22.741
	c5.673-4.873,15.489,1.698,19.501,4.799c10.579,6.866,42.733,18.902,51.583,20.821c1.506,0.25,3.016,0.547,4.512,0.88L785.39,286.84
	z"/>
<path fill="#010101" d="M556.429,379.328c0,0-65.539-121.578-65.552-128.474c-0.012-7.235,72.467,128.474,72.467,128.474"/>
<g>
	<path fill="#F5952F" d="M490.51,252.626c1.425,0,1.425-2.362,0-2.362C489.08,250.264,489.08,252.626,490.51,252.626L490.51,252.626
		z"/>
</g>
<g>
	<path fill="#F5952F" d="M490.877,250.559c1.428,0,1.428-2.362,0-2.362C489.448,248.197,489.448,250.559,490.877,250.559
		L490.877,250.559z"/>
</g>
<g>
	<path fill="#F5952F" d="M489.034,250.559c1.428,0,1.428-2.362,0-2.362C487.604,248.197,487.604,250.559,489.034,250.559
		L489.034,250.559z"/>
</g>
<g>
	<path fill="#F5952F" d="M489.955,247.705c1.429,0,1.429-2.363,0-2.363S488.526,247.705,489.955,247.705L489.955,247.705z"/>
</g>
<g>
	<path fill="#F5952F" d="M490.047,245.047c1.427,0,1.427-2.363,0-2.363S488.62,245.047,490.047,245.047L490.047,245.047z"/>
</g>
<g>
	<path fill="#F5952F" d="M489.125,241.896c1.428,0,1.428-2.362,0-2.362C487.698,239.534,487.698,241.896,489.125,241.896
		L489.125,241.896z"/>
</g>
<g>
	<path fill="#F5952F" d="M488.112,237.367c1.425,0,1.425-2.362,0-2.362C486.685,235.005,486.685,237.367,488.112,237.367
		L488.112,237.367z"/>
</g>
<g>
	<path fill="#F5952F" d="M485.347,224.864c1.425,0,1.425-2.362,0-2.362C483.919,222.502,483.919,224.864,485.347,224.864
		L485.347,224.864z"/>
</g>
<g>
	<path fill="#F5952F" d="M487.834,248.689c1.429,0,1.429-2.363,0-2.363C486.407,246.326,486.407,248.689,487.834,248.689
		L487.834,248.689z"/>
</g>
<g>
	<path fill="#F5952F" d="M485.622,248.492c1.425,0,1.425-2.363,0-2.363C484.195,246.129,484.195,248.492,485.622,248.492
		L485.622,248.492z"/>
</g>
<g>
	<path fill="#F5952F" d="M483.685,250.362c1.429,0,1.429-2.362,0-2.362C482.259,248,482.259,250.362,483.685,250.362
		L483.685,250.362z"/>
</g>
<g>
	<path fill="#F5952F" d="M483.318,252.036c1.426,0,1.426-2.362,0-2.362C481.892,249.674,481.892,252.036,483.318,252.036
		L483.318,252.036z"/>
</g>
<g>
	<path fill="#F5952F" d="M483.871,245.637c1.426,0,1.426-2.363,0-2.363C482.443,243.274,482.443,245.637,483.871,245.637
		L483.871,245.637z"/>
</g>
<g>
	<path fill="#F5952F" d="M480.551,250.165c1.428,0,1.428-2.362,0-2.362C479.125,247.803,479.125,250.165,480.551,250.165
		L480.551,250.165z"/>
</g>
<g>
	<path fill="#F5952F" d="M475.479,248.197c1.43,0,1.43-2.364,0-2.364C474.054,245.833,474.054,248.197,475.479,248.197
		L475.479,248.197z"/>
</g>
<g>
	<path fill="#F5952F" d="M475.389,238.844c1.426,0,1.426-2.363,0-2.363C473.96,236.481,473.96,238.844,475.389,238.844
		L475.389,238.844z"/>
</g>
<g>
	<path fill="#F5952F" d="M471.238,249.477c1.427,0,1.427-2.363,0-2.363C469.811,247.114,469.811,249.477,471.238,249.477
		L471.238,249.477z"/>
</g>
<g>
	<path fill="#F5952F" d="M468.289,247.015c1.427,0,1.427-2.363,0-2.363S466.862,247.015,468.289,247.015L468.289,247.015z"/>
</g>
<g>
	<path fill="#F5952F" d="M452.893,247.212c1.427,0,1.427-2.363,0-2.363C451.465,244.849,451.465,247.212,452.893,247.212
		L452.893,247.212z"/>
</g>
<g>
	<path fill="#F5952F" d="M452.522,222.994c1.429,0,1.429-2.362,0-2.362C451.097,220.632,451.097,222.994,452.522,222.994
		L452.522,222.994z"/>
</g>
<g>
	<path fill="#F5952F" d="M445.517,218.17c1.428,0,1.428-2.363,0-2.363C444.087,215.808,444.087,218.17,445.517,218.17
		L445.517,218.17z"/>
</g>
<g>
	<path fill="#F5952F" d="M432.884,207.539c1.428,0,1.428-2.363,0-2.363C431.46,205.175,431.46,207.539,432.884,207.539
		L432.884,207.539z"/>
</g>
<g>
	<path fill="#F5952F" d="M422.745,201.434c1.426,0,1.426-2.362,0-2.362C421.318,199.072,421.318,201.434,422.745,201.434
		L422.745,201.434z"/>
</g>
<g>
	<path fill="#F5952F" d="M420.071,242.881c1.426,0,1.426-2.363,0-2.363C418.643,240.518,418.643,242.881,420.071,242.881
		L420.071,242.881z"/>
</g>
<g>
	<path fill="#F5952F" d="M382.641,234.315c1.425,0,1.425-2.362,0-2.362C381.214,231.953,381.214,234.315,382.641,234.315
		L382.641,234.315z"/>
</g>
<g>
	<path fill="#F5952F" d="M416.564,198.284c1.428,0,1.428-2.363,0-2.363C415.142,195.92,415.142,198.284,416.564,198.284
		L416.564,198.284z"/>
</g>
<g>
	<path fill="#F5952F" d="M414.816,196.414c1.426,0,1.426-2.363,0-2.363C413.388,194.051,413.388,196.414,414.816,196.414
		L414.816,196.414z"/>
</g>
<g>
	<path fill="#F5952F" d="M414.538,192.869c1.426,0,1.426-2.362,0-2.362C413.11,190.507,413.11,192.869,414.538,192.869
		L414.538,192.869z"/>
</g>
<g>
	<path fill="#F5952F" d="M412.049,192.082c1.427,0,1.427-2.362,0-2.362C410.62,189.719,410.62,192.082,412.049,192.082
		L412.049,192.082z"/>
</g>
<g>
	<path fill="#F5952F" d="M412.049,194.346c1.427,0,1.427-2.363,0-2.363C410.62,191.983,410.62,194.346,412.049,194.346
		L412.049,194.346z"/>
</g>
<g>
	<path fill="#F5952F" d="M409.099,192.673c1.428,0,1.428-2.363,0-2.363S407.671,192.673,409.099,192.673L409.099,192.673z"/>
</g>
<g>
	<path fill="#F5952F" d="M409.099,190.999c1.428,0,1.428-2.362,0-2.362S407.671,190.999,409.099,190.999L409.099,190.999z"/>
</g>
<g>
	<path fill="#F5952F" d="M407.07,190.408c1.427,0,1.427-2.362,0-2.362C405.646,188.046,405.646,190.408,407.07,190.408
		L407.07,190.408z"/>
</g>
<g>
	<path fill="#F5952F" d="M407.532,188.538c1.426,0,1.426-2.363,0-2.363C406.105,186.175,406.105,188.538,407.532,188.538
		L407.532,188.538z"/>
</g>
<g>
	<path fill="#F5952F" d="M410.021,187.061c1.426,0,1.426-2.363,0-2.363C408.595,184.698,408.595,187.061,410.021,187.061
		L410.021,187.061z"/>
</g>
<g>
	<path fill="#F5952F" d="M407.715,185.387c1.428,0,1.428-2.363,0-2.363C406.288,183.024,406.288,185.387,407.715,185.387
		L407.715,185.387z"/>
</g>
<g>
	<path fill="#F5952F" d="M405.871,184.305c1.428,0,1.428-2.363,0-2.363C404.444,181.942,404.444,184.305,405.871,184.305
		L405.871,184.305z"/>
</g>
<g>
	<path fill="#F5952F" d="M409.283,183.024c1.428,0,1.428-2.362,0-2.362C407.857,180.662,407.857,183.024,409.283,183.024
		L409.283,183.024z"/>
</g>
<g>
	<path fill="#F5952F" d="M406.976,181.45c1.43,0,1.43-2.362,0-2.362C405.553,179.087,405.553,181.45,406.976,181.45L406.976,181.45z
		"/>
</g>
<g>
	<path fill="#F5952F" d="M408.177,180.662c1.427,0,1.427-2.363,0-2.363S406.75,180.662,408.177,180.662L408.177,180.662z"/>
</g>
<g>
	<path fill="#F5952F" d="M408.821,177.02c1.429,0,1.429-2.363,0-2.363C407.397,174.657,407.397,177.02,408.821,177.02
		L408.821,177.02z"/>
</g>
<g>
	<path fill="#F5952F" d="M410.943,175.051c1.425,0,1.425-2.363,0-2.363C409.516,172.688,409.516,175.051,410.943,175.051
		L410.943,175.051z"/>
</g>
<g>
	<path fill="#F5952F" d="M408.731,172.392c1.425,0,1.425-2.363,0-2.363C407.304,170.029,407.304,172.392,408.731,172.392
		L408.731,172.392z"/>
</g>
<g>
	<path fill="#F5952F" d="M402.367,188.636c1.43,0,1.43-2.363,0-2.363C400.941,186.273,400.941,188.636,402.367,188.636
		L402.367,188.636z"/>
</g>
<g>
	<path fill="#F5952F" d="M405.503,191.097c1.429,0,1.429-2.363,0-2.363C404.076,188.734,404.076,191.097,405.503,191.097
		L405.503,191.097z"/>
</g>
<g>
	<path fill="#F5952F" d="M394.162,188.932c1.428,0,1.428-2.363,0-2.363C392.737,186.568,392.737,188.932,394.162,188.932
		L394.162,188.932z"/>
</g>
<g>
	<path fill="#F5952F" d="M389.735,189.523c1.427,0,1.427-2.363,0-2.363C388.312,187.16,388.312,189.523,389.735,189.523
		L389.735,189.523z"/>
</g>
<g>
	<path fill="#F5952F" d="M383.56,189.719c1.428,0,1.428-2.363,0-2.363C382.134,187.356,382.134,189.719,383.56,189.719
		L383.56,189.719z"/>
</g>
<g>
	<path fill="#F5952F" d="M376.555,190.9c1.424,0,1.424-2.363,0-2.363C375.129,188.538,375.129,190.9,376.555,190.9L376.555,190.9z"
		/>
</g>
<g>
	<path fill="#F5952F" d="M359.223,188.341c1.427,0,1.427-2.363,0-2.363C357.795,185.978,357.795,188.341,359.223,188.341
		L359.223,188.341z"/>
</g>
<g>
	<path fill="#F5952F" d="M341.987,190.802c1.426,0,1.426-2.362,0-2.362C340.561,188.439,340.561,190.802,341.987,190.802
		L341.987,190.802z"/>
</g>
<g>
	<path fill="#F5952F" d="M290.819,218.958c1.426,0,1.426-2.362,0-2.362C289.392,216.596,289.392,218.958,290.819,218.958
		L290.819,218.958z"/>
</g>
<g>
	<path fill="#F5952F" d="M232.55,208.72c1.426,0,1.426-2.363,0-2.363C231.123,206.357,231.123,208.72,232.55,208.72L232.55,208.72z"
		/>
</g>
<g>
	<path fill="#F5952F" d="M229.691,209.212c1.426,0,1.426-2.363,0-2.363S228.265,209.212,229.691,209.212L229.691,209.212z"/>
</g>
<g>
	<path fill="#F5952F" d="M206.089,206.849c1.427,0,1.427-2.363,0-2.363C204.663,204.486,204.663,206.849,206.089,206.849
		L206.089,206.849z"/>
</g>
<g>
	<path fill="#F5952F" d="M173.729,199.367c1.426,0,1.426-2.363,0-2.363C172.302,197.003,172.302,199.367,173.729,199.367
		L173.729,199.367z"/>
</g>
<g>
	<path fill="#F5952F" d="M166.63,198.48c1.426,0,1.426-2.362,0-2.362C165.203,196.118,165.203,198.48,166.63,198.48L166.63,198.48z"
		/>
</g>
<g>
	<path fill="#F5952F" d="M160.545,198.383c1.426,0,1.426-2.363,0-2.363C159.118,196.02,159.118,198.383,160.545,198.383
		L160.545,198.383z"/>
</g>
<g>
	<path fill="#F5952F" d="M155.843,198.383c1.426,0,1.426-2.363,0-2.363C154.416,196.02,154.416,198.383,155.843,198.383
		L155.843,198.383z"/>
</g>
<g>
	<path fill="#F5952F" d="M151.694,196.414c1.426,0,1.426-2.363,0-2.363C150.268,194.051,150.268,196.414,151.694,196.414
		L151.694,196.414z"/>
</g>
<g>
	<path fill="#F5952F" d="M150.68,189.423c1.427,0,1.427-2.362,0-2.362C149.252,187.061,149.252,189.423,150.68,189.423
		L150.68,189.423z"/>
</g>
<g>
	<path fill="#F5952F" d="M143.765,194.937c1.426,0,1.426-2.363,0-2.363C142.337,192.574,142.337,194.937,143.765,194.937
		L143.765,194.937z"/>
</g>
<g>
	<path fill="#F5952F" d="M142.474,188.734c1.426,0,1.426-2.363,0-2.363C141.047,186.371,141.047,188.734,142.474,188.734
		L142.474,188.734z"/>
</g>
<g>
	<path fill="#F5952F" d="M140.354,189.228c1.427,0,1.427-2.363,0-2.363S138.927,189.228,140.354,189.228L140.354,189.228z"/>
</g>
<g>
	<path fill="#F5952F" d="M139.248,194.839c1.426,0,1.426-2.363,0-2.363S137.821,194.839,139.248,194.839L139.248,194.839z"/>
</g>
<g>
	<path fill="#F5952F" d="M133.716,193.755c1.426,0,1.426-2.363,0-2.363C132.289,191.392,132.289,193.755,133.716,193.755
		L133.716,193.755z"/>
</g>
<g>
	<path fill="#F5952F" d="M130.58,192.082c1.427,0,1.427-2.362,0-2.362C129.154,189.719,129.154,192.082,130.58,192.082
		L130.58,192.082z"/>
</g>
<g>
	<path fill="#F5952F" d="M131.78,189.03c1.426,0,1.426-2.363,0-2.363C130.353,186.667,130.353,189.03,131.78,189.03L131.78,189.03z"
		/>
</g>
<g>
	<path fill="#F5952F" d="M132.608,189.03c1.427,0,1.427-2.363,0-2.363C131.182,186.667,131.182,189.03,132.608,189.03
		L132.608,189.03z"/>
</g>
<g>
	<path fill="#F5952F" d="M128.276,188.833c1.426,0,1.426-2.363,0-2.363C126.849,186.47,126.849,188.833,128.276,188.833
		L128.276,188.833z"/>
</g>
<g>
	<path fill="#F5952F" d="M127.169,188.833c1.427,0,1.427-2.363,0-2.363C125.743,186.47,125.743,188.833,127.169,188.833
		L127.169,188.833z"/>
</g>
<g>
	<path fill="#F5952F" d="M125.233,192.18c1.427,0,1.427-2.362,0-2.362S123.807,192.18,125.233,192.18L125.233,192.18z"/>
</g>
<g>
	<path fill="#F5952F" d="M125.603,186.568c1.426,0,1.426-2.363,0-2.363C124.176,184.205,124.176,186.568,125.603,186.568
		L125.603,186.568z"/>
</g>
<g>
	<path fill="#F5952F" d="M123.389,187.75c1.427,0,1.427-2.363,0-2.363C121.963,185.387,121.963,187.75,123.389,187.75
		L123.389,187.75z"/>
</g>
<g>
	<path fill="#F5952F" d="M122.652,189.325c1.427,0,1.427-2.363,0-2.363C121.225,186.962,121.225,189.325,122.652,189.325
		L122.652,189.325z"/>
</g>
<g>
	<path fill="#F5952F" d="M123.02,183.418c1.427,0,1.427-2.362,0-2.362C121.594,181.056,121.594,183.418,123.02,183.418
		L123.02,183.418z"/>
</g>
<g>
	<path fill="#F5952F" d="M121.361,185.781c1.427,0,1.427-2.363,0-2.363C119.934,183.418,119.934,185.781,121.361,185.781
		L121.361,185.781z"/>
</g>
<g>
	<path fill="#F5952F" d="M120.347,189.03c1.426,0,1.426-2.363,0-2.363C118.92,186.667,118.92,189.03,120.347,189.03L120.347,189.03z
		"/>
</g>
<g>
	<path fill="#F5952F" d="M118.871,191.294c1.427,0,1.427-2.363,0-2.363C117.445,188.932,117.445,191.294,118.871,191.294
		L118.871,191.294z"/>
</g>
<g>
	<path fill="#F5952F" d="M118.688,189.228c1.426,0,1.426-2.363,0-2.363C117.26,186.864,117.26,189.228,118.688,189.228
		L118.688,189.228z"/>
</g>
<g>
	<path fill="#F5952F" d="M115.368,190.605c1.427,0,1.427-2.363,0-2.363C113.942,188.243,113.942,190.605,115.368,190.605
		L115.368,190.605z"/>
</g>
<g>
	<path fill="#F5952F" d="M116.382,189.523c1.427,0,1.427-2.363,0-2.363C114.956,187.16,114.956,189.523,116.382,189.523
		L116.382,189.523z"/>
</g>
<g>
	<path fill="#F5952F" d="M116.475,187.455c1.427,0,1.427-2.363,0-2.363C115.048,185.092,115.048,187.455,116.475,187.455
		L116.475,187.455z"/>
</g>
<g>
	<path fill="#F5952F" d="M118.042,186.962c1.427,0,1.427-2.362,0-2.362S116.615,186.962,118.042,186.962L118.042,186.962z"/>
</g>
<g>
	<path fill="#F5952F" d="M114.446,189.423c1.427,0,1.427-2.362,0-2.362S113.02,189.423,114.446,189.423L114.446,189.423z"/>
</g>
<g>
	<path fill="#F5952F" d="M114.908,187.258c1.427,0,1.427-2.363,0-2.363C113.48,184.895,113.48,187.258,114.908,187.258
		L114.908,187.258z"/>
</g>
<g>
	<path fill="#F5952F" d="M113.708,185.289c1.427,0,1.427-2.363,0-2.363C112.282,182.926,112.282,185.289,113.708,185.289
		L113.708,185.289z"/>
</g>
<g>
	<path fill="#F5952F" d="M115.461,184.205c1.427,0,1.427-2.361,0-2.361S114.034,184.205,115.461,184.205L115.461,184.205z"/>
</g>
<g>
	<path fill="#F5952F" d="M114.169,183.32c1.427,0,1.427-2.362,0-2.362C112.744,180.958,112.744,183.32,114.169,183.32
		L114.169,183.32z"/>
</g>
<g>
	<path fill="#F5952F" d="M116.014,182.041c1.428,0,1.428-2.363,0-2.363C114.587,179.677,114.587,182.041,116.014,182.041
		L116.014,182.041z"/>
</g>
<g>
	<path fill="#F5952F" d="M113.801,179.087c1.426,0,1.426-2.363,0-2.363S112.375,179.087,113.801,179.087L113.801,179.087z"/>
</g>
<g>
	<path fill="#F5952F" d="M114.446,173.18c1.427,0,1.427-2.362,0-2.362S113.02,173.18,114.446,173.18L114.446,173.18z"/>
</g>
<g>
	<path fill="#F5952F" d="M114.539,171.703c1.426,0,1.426-2.362,0-2.362C113.112,169.34,113.112,171.703,114.539,171.703
		L114.539,171.703z"/>
</g>
<g>
	<path fill="#F5952F" d="M114.723,167.963c1.427,0,1.427-2.363,0-2.363C113.296,165.6,113.296,167.963,114.723,167.963
		L114.723,167.963z"/>
</g>
<g>
	<path fill="#F5952F" d="M114.723,164.517c1.427,0,1.427-2.363,0-2.363C113.296,162.153,113.296,164.517,114.723,164.517
		L114.723,164.517z"/>
</g>
<g>
	<path fill="#F5952F" d="M191.799,182.533c1.426,0,1.426-2.363,0-2.363S190.373,182.533,191.799,182.533L191.799,182.533z"/>
</g>
<g>
	<path fill="#F5952F" d="M192.075,175.445c1.427,0,1.427-2.363,0-2.363S190.648,175.445,192.075,175.445L192.075,175.445z"/>
</g>
<g>
	<path fill="#F5952F" d="M188.941,175.937c1.427,0,1.427-2.363,0-2.363C187.515,173.574,187.515,175.937,188.941,175.937
		L188.941,175.937z"/>
</g>
<g>
	<path fill="#F5952F" d="M188.204,174.263c1.427,0,1.427-2.363,0-2.363C186.776,171.9,186.776,174.263,188.204,174.263
		L188.204,174.263z"/>
</g>
<g>
	<path fill="#F5952F" d="M189.218,171.408c1.427,0,1.427-2.362,0-2.362S187.791,171.408,189.218,171.408L189.218,171.408z"/>
</g>
<g>
	<path fill="#F5952F" d="M186.452,170.127c1.426,0,1.426-2.361,0-2.361C185.025,167.767,185.025,170.127,186.452,170.127
		L186.452,170.127z"/>
</g>
<g>
	<path fill="#F5952F" d="M183.501,171.703c1.426,0,1.426-2.362,0-2.362C182.074,169.34,182.074,171.703,183.501,171.703
		L183.501,171.703z"/>
</g>
<g>
	<path fill="#F5952F" d="M187.282,166.387c1.426,0,1.426-2.363,0-2.363C185.854,164.024,185.854,166.387,187.282,166.387
		L187.282,166.387z"/>
</g>
<g>
	<path fill="#F5952F" d="M189.309,166.387c1.427,0,1.427-2.363,0-2.363C187.883,164.024,187.883,166.387,189.309,166.387
		L189.309,166.387z"/>
</g>
<g>
	<path fill="#F5952F" d="M192.998,167.372c1.427,0,1.427-2.363,0-2.363S191.571,167.372,192.998,167.372L192.998,167.372z"/>
</g>
<g>
	<path fill="#F5952F" d="M193.274,165.403c1.426,0,1.426-2.363,0-2.363C191.848,163.04,191.848,165.403,193.274,165.403
		L193.274,165.403z"/>
</g>
<g>
	<path fill="#F5952F" d="M201.849,166.387c1.426,0,1.426-2.363,0-2.363C200.422,164.024,200.422,166.387,201.849,166.387
		L201.849,166.387z"/>
</g>
<g>
	<path fill="#F5952F" d="M206.919,166.387c1.426,0,1.426-2.363,0-2.363C205.493,164.024,205.493,166.387,206.919,166.387
		L206.919,166.387z"/>
</g>
<g>
	<path fill="#F5952F" d="M197.054,161.76c1.427,0,1.427-2.363,0-2.363C195.627,159.397,195.627,161.76,197.054,161.76
		L197.054,161.76z"/>
</g>
<g>
	<path fill="#F5952F" d="M192.167,161.071c1.427,0,1.427-2.363,0-2.363C190.742,158.708,190.742,161.071,192.167,161.071
		L192.167,161.071z"/>
</g>
<g>
	<path fill="#F5952F" d="M189.586,161.071c1.427,0,1.427-2.363,0-2.363S188.16,161.071,189.586,161.071L189.586,161.071z"/>
</g>
<g>
	<path fill="#F5952F" d="M186.821,163.04c1.427,0,1.427-2.363,0-2.363C185.393,160.677,185.393,163.04,186.821,163.04
		L186.821,163.04z"/>
</g>
<g>
	<path fill="#F5952F" d="M183.04,161.76c1.427,0,1.427-2.363,0-2.363C181.613,159.397,181.613,161.76,183.04,161.76L183.04,161.76z"
		/>
</g>
<g>
	<path fill="#F5952F" d="M194.011,152.31c1.428,0,1.428-2.363,0-2.363C192.585,149.947,192.585,152.31,194.011,152.31
		L194.011,152.31z"/>
</g>
<g>
	<path fill="#F5952F" d="M194.657,150.931c1.427,0,1.427-2.363,0-2.363C193.23,148.568,193.23,150.931,194.657,150.931
		L194.657,150.931z"/>
</g>
<g>
	<path fill="#F5952F" d="M196.593,146.697c1.427,0,1.427-2.362,0-2.362C195.167,144.335,195.167,146.697,196.593,146.697
		L196.593,146.697z"/>
</g>
<g>
	<path fill="#F5952F" d="M190.416,149.061c1.427,0,1.427-2.363,0-2.363C188.989,146.697,188.989,149.061,190.416,149.061
		L190.416,149.061z"/>
</g>
<g>
	<path fill="#F5952F" d="M187.834,150.045c1.426,0,1.426-2.363,0-2.363S186.408,150.045,187.834,150.045L187.834,150.045z"/>
</g>
<g>
	<path fill="#F5952F" d="M194.657,127.599c1.427,0,1.427-2.363,0-2.363C193.23,125.236,193.23,127.599,194.657,127.599
		L194.657,127.599z"/>
</g>
<g>
	<path fill="#F5952F" d="M189.771,129.47c1.426,0,1.426-2.363,0-2.363S188.345,129.47,189.771,129.47L189.771,129.47z"/>
</g>
<g>
	<path fill="#F5952F" d="M188.295,129.96c1.427,0,1.427-2.361,0-2.361C186.869,127.599,186.869,129.96,188.295,129.96
		L188.295,129.96z"/>
</g>
<g>
	<path fill="#F5952F" d="M184.976,132.915c1.427,0,1.427-2.363,0-2.363C183.549,130.552,183.549,132.915,184.976,132.915
		L184.976,132.915z"/>
</g>
<g>
	<path fill="#F5952F" d="M179.444,138.034c1.427,0,1.427-2.362,0-2.362C178.018,135.672,178.018,138.034,179.444,138.034
		L179.444,138.034z"/>
</g>
<g>
	<path fill="#F5952F" d="M181.38,128.289c1.428,0,1.428-2.363,0-2.363C179.954,125.926,179.954,128.289,181.38,128.289
		L181.38,128.289z"/>
</g>
<g>
	<path fill="#F5952F" d="M183.224,122.677c1.427,0,1.427-2.363,0-2.363C181.798,120.313,181.798,122.677,183.224,122.677
		L183.224,122.677z"/>
</g>
<g>
	<path fill="#F5952F" d="M181.104,115.883c1.427,0,1.427-2.362,0-2.362C179.677,113.521,179.677,115.883,181.104,115.883
		L181.104,115.883z"/>
</g>
<g>
	<path fill="#F5952F" d="M187.927,127.697c1.426,0,1.426-2.363,0-2.363C186.5,125.334,186.5,127.697,187.927,127.697
		L187.927,127.697z"/>
</g>
<g>
	<path fill="#F5952F" d="M190.325,122.578c1.426,0,1.426-2.363,0-2.363C188.897,120.215,188.897,122.578,190.325,122.578
		L190.325,122.578z"/>
</g>
<g>
	<path fill="#F5952F" d="M194.011,112.045c1.428,0,1.428-2.363,0-2.363C192.585,109.682,192.585,112.045,194.011,112.045
		L194.011,112.045z"/>
</g>
<g>
	<path fill="#F5952F" d="M258.734,161.957c1.426,0,1.426-2.362,0-2.362C257.306,159.594,257.306,161.957,258.734,161.957
		L258.734,161.957z"/>
</g>
<g>
	<path fill="#F5952F" d="M256.428,161.071c1.427,0,1.427-2.363,0-2.363C255.002,158.708,255.002,161.071,256.428,161.071
		L256.428,161.071z"/>
</g>
<g>
	<path fill="#F5952F" d="M258.825,158.413c1.428,0,1.428-2.363,0-2.363C257.398,156.049,257.398,158.413,258.825,158.413
		L258.825,158.413z"/>
</g>
<g>
	<path fill="#F5952F" d="M262.79,158.019c1.427,0,1.427-2.362,0-2.362C261.364,155.656,261.364,158.019,262.79,158.019
		L262.79,158.019z"/>
</g>
<g>
	<path fill="#F5952F" d="M271.087,154.082c1.428,0,1.428-2.363,0-2.363C269.662,151.719,269.662,154.082,271.087,154.082
		L271.087,154.082z"/>
</g>
<g>
	<path fill="#F5952F" d="M272.287,152.998c1.426,0,1.426-2.363,0-2.363C270.86,150.635,270.86,152.998,272.287,152.998
		L272.287,152.998z"/>
</g>
<g>
	<path fill="#F5952F" d="M277.266,152.802c1.426,0,1.426-2.363,0-2.363C275.838,150.438,275.838,152.802,277.266,152.802
		L277.266,152.802z"/>
</g>
<g>
	<path fill="#F5952F" d="M276.343,149.061c1.427,0,1.427-2.363,0-2.363C274.917,146.697,274.917,149.061,276.343,149.061
		L276.343,149.061z"/>
</g>
<g>
	<path fill="#F5952F" d="M281.968,154.377c1.426,0,1.426-2.363,0-2.363C280.539,152.014,280.539,154.377,281.968,154.377
		L281.968,154.377z"/>
</g>
<g>
	<path fill="#F5952F" d="M284.364,157.527c1.427,0,1.427-2.362,0-2.362C282.938,155.165,282.938,157.527,284.364,157.527
		L284.364,157.527z"/>
</g>
<g>
	<path fill="#F5952F" d="M280.676,157.821c1.428,0,1.428-2.362,0-2.362C279.248,155.459,279.248,157.821,280.676,157.821
		L280.676,157.821z"/>
</g>
<g>
	<path fill="#F5952F" d="M268.322,122.578c1.427,0,1.427-2.363,0-2.363C266.895,120.215,266.895,122.578,268.322,122.578
		L268.322,122.578z"/>
</g>
<g>
	<path fill="#F5952F" d="M307.137,137.542c1.426,0,1.426-2.363,0-2.363C305.709,135.179,305.709,137.542,307.137,137.542
		L307.137,137.542z"/>
</g>
<g>
	<path fill="#F5952F" d="M309.81,137.739c1.428,0,1.428-2.363,0-2.363C308.383,135.376,308.383,137.739,309.81,137.739
		L309.81,137.739z"/>
</g>
<g>
	<path fill="#F5952F" d="M313.129,136.164c1.428,0,1.428-2.363,0-2.363C311.703,133.8,311.703,136.164,313.129,136.164
		L313.129,136.164z"/>
</g>
<g>
	<path fill="#F5952F" d="M310.732,134.195c1.427,0,1.427-2.363,0-2.363C309.306,131.832,309.306,134.195,310.732,134.195
		L310.732,134.195z"/>
</g>
<g>
	<path fill="#F5952F" d="M313.129,132.029c1.428,0,1.428-2.363,0-2.363C311.703,129.666,311.703,132.029,313.129,132.029
		L313.129,132.029z"/>
</g>
<g>
	<path fill="#F5952F" d="M311.01,131.931c1.426,0,1.426-2.363,0-2.363C309.582,129.568,309.582,131.931,311.01,131.931
		L311.01,131.931z"/>
</g>
<g>
	<path fill="#F5952F" d="M311.193,129.863c1.427,0,1.427-2.363,0-2.363C309.767,127.5,309.767,129.863,311.193,129.863
		L311.193,129.863z"/>
</g>
<g>
	<path fill="#F5952F" d="M318.201,137.542c1.426,0,1.426-2.363,0-2.363C316.773,135.179,316.773,137.542,318.201,137.542
		L318.201,137.542z"/>
</g>
<g>
	<path fill="#F5952F" d="M320.504,134.687c1.428,0,1.428-2.363,0-2.363C319.078,132.324,319.078,134.687,320.504,134.687
		L320.504,134.687z"/>
</g>
<g>
	<path fill="#F5952F" d="M316.448,131.536c1.427,0,1.427-2.362,0-2.362C315.022,129.174,315.022,131.536,316.448,131.536
		L316.448,131.536z"/>
</g>
<g>
	<path fill="#F5952F" d="M316.355,128.978c1.428,0,1.428-2.363,0-2.363C314.93,126.615,314.93,128.978,316.355,128.978
		L316.355,128.978z"/>
</g>
<g>
	<path fill="#F5952F" d="M314.328,127.008c1.426,0,1.426-2.363,0-2.363C312.901,124.645,312.901,127.008,314.328,127.008
		L314.328,127.008z"/>
</g>
<g>
	<path fill="#F5952F" d="M314.053,128.682c1.425,0,1.425-2.362,0-2.362C312.625,126.319,312.625,128.682,314.053,128.682
		L314.053,128.682z"/>
</g>
<g>
	<path fill="#F5952F" d="M312.299,126.22c1.427,0,1.427-2.362,0-2.362C310.874,123.858,310.874,126.22,312.299,126.22
		L312.299,126.22z"/>
</g>
<g>
	<path fill="#F5952F" d="M312.022,123.661c1.427,0,1.427-2.363,0-2.363C310.597,121.298,310.597,123.661,312.022,123.661
		L312.022,123.661z"/>
</g>
<g>
	<path fill="#F5952F" d="M312.576,121.691c1.428,0,1.428-2.362,0-2.362C311.15,119.33,311.15,121.691,312.576,121.691
		L312.576,121.691z"/>
</g>
<g>
	<path fill="#F5952F" d="M314.236,123.07c1.427,0,1.427-2.362,0-2.362C312.81,120.708,312.81,123.07,314.236,123.07L314.236,123.07z
		"/>
</g>
<g>
	<path fill="#F5952F" d="M314.882,116.77c1.426,0,1.426-2.362,0-2.362C313.454,114.407,313.454,116.77,314.882,116.77
		L314.882,116.77z"/>
</g>
<g>
	<path fill="#F5952F" d="M336.917,136.754c1.425,0,1.425-2.363,0-2.363C335.489,134.392,335.489,136.754,336.917,136.754
		L336.917,136.754z"/>
</g>
<g>
	<path fill="#F5952F" d="M339.313,138.625c1.428,0,1.428-2.363,0-2.363S337.885,138.625,339.313,138.625L339.313,138.625z"/>
</g>
<g>
	<path fill="#F5952F" d="M344.567,135.573c1.428,0,1.428-2.362,0-2.362C343.142,133.21,343.142,135.573,344.567,135.573
		L344.567,135.573z"/>
</g>
<g>
	<path fill="#F5952F" d="M357.289,135.376c1.425,0,1.425-2.363,0-2.363C355.861,133.013,355.861,135.376,357.289,135.376
		L357.289,135.376z"/>
</g>
<g>
	<path fill="#F5952F" d="M357.749,132.126c1.427,0,1.427-2.362,0-2.362C356.323,129.765,356.323,132.126,357.749,132.126
		L357.749,132.126z"/>
</g>
<g>
	<path fill="#F5952F" d="M357.378,129.96c1.428,0,1.428-2.361,0-2.361C355.955,127.599,355.955,129.96,357.378,129.96
		L357.378,129.96z"/>
</g>
<g>
	<path fill="#F5952F" d="M353.509,130.256c1.429,0,1.429-2.362,0-2.362C352.084,127.894,352.084,130.256,353.509,130.256
		L353.509,130.256z"/>
</g>
<g>
	<path fill="#F5952F" d="M355.076,128.387c1.427,0,1.427-2.364,0-2.364C353.65,126.023,353.65,128.387,355.076,128.387
		L355.076,128.387z"/>
</g>
<g>
	<path fill="#F5952F" d="M355.443,127.304c1.428,0,1.428-2.363,0-2.363C354.018,124.941,354.018,127.304,355.443,127.304
		L355.443,127.304z"/>
</g>
<g>
	<path fill="#F5952F" d="M356.09,125.138c1.428,0,1.428-2.363,0-2.363C354.664,122.775,354.664,125.138,356.09,125.138
		L356.09,125.138z"/>
</g>
<g>
	<path fill="#F5952F" d="M357.011,122.972c1.428,0,1.428-2.363,0-2.363C355.585,120.609,355.585,122.972,357.011,122.972
		L357.011,122.972z"/>
</g>
<g>
	<path fill="#F5952F" d="M356.644,119.821c1.426,0,1.426-2.362,0-2.362C355.216,117.459,355.216,119.821,356.644,119.821
		L356.644,119.821z"/>
</g>
<g>
	<path fill="#F5952F" d="M360.238,122.381c1.425,0,1.425-2.362,0-2.362C358.811,120.019,358.811,122.381,360.238,122.381
		L360.238,122.381z"/>
</g>
<g>
	<path fill="#F5952F" d="M361.249,126.515c1.427,0,1.427-2.362,0-2.362S359.822,126.515,361.249,126.515L361.249,126.515z"/>
</g>
<g>
	<path fill="#F5952F" d="M359.132,128.485c1.425,0,1.425-2.363,0-2.363C357.706,126.123,357.706,128.485,359.132,128.485
		L359.132,128.485z"/>
</g>
<g>
	<path fill="#F5952F" d="M349.638,109.287c1.428,0,1.428-2.363,0-2.363C348.212,106.924,348.212,109.287,349.638,109.287
		L349.638,109.287z"/>
</g>
<g>
	<path fill="#F5952F" d="M348.716,106.728c1.429,0,1.429-2.362,0-2.362C347.291,104.365,347.291,106.728,348.716,106.728
		L348.716,106.728z"/>
</g>
<g>
	<path fill="#F5952F" d="M346.69,107.318c1.425,0,1.425-2.363,0-2.363C345.261,104.956,345.261,107.318,346.69,107.318
		L346.69,107.318z"/>
</g>
<g>
	<path fill="#F5952F" d="M345.584,106.235c1.426,0,1.426-2.363,0-2.363C344.155,103.873,344.155,106.235,345.584,106.235
		L345.584,106.235z"/>
</g>
<g>
	<path fill="#F5952F" d="M345.121,103.282c1.427,0,1.427-2.361,0-2.361C343.695,100.921,343.695,103.282,345.121,103.282
		L345.121,103.282z"/>
</g>
<g>
	<path fill="#F5952F" d="M331.107,102.791c1.427,0,1.427-2.363,0-2.363C329.682,100.428,329.682,102.791,331.107,102.791
		L331.107,102.791z"/>
</g>
<g>
	<path fill="#F5952F" d="M322.072,100.82c1.427,0,1.427-2.361,0-2.361S320.646,100.82,322.072,100.82L322.072,100.82z"/>
</g>
<g>
	<path fill="#F5952F" d="M318.384,102.494c1.427,0,1.427-2.363,0-2.363C316.958,100.131,316.958,102.494,318.384,102.494
		L318.384,102.494z"/>
</g>
<g>
	<path fill="#F5952F" d="M317.646,101.116c1.427,0,1.427-2.363,0-2.363C316.22,98.753,316.22,101.116,317.646,101.116
		L317.646,101.116z"/>
</g>
<g>
	<path fill="#F5952F" d="M318.477,98.95c1.426,0,1.426-2.363,0-2.363C317.05,96.587,317.05,98.95,318.477,98.95L318.477,98.95z"/>
</g>
<g>
	<path fill="#F5952F" d="M315.711,98.164c1.427,0,1.427-2.363,0-2.363C314.284,95.8,314.284,98.164,315.711,98.164L315.711,98.164z"
		/>
</g>
<g>
	<path fill="#F5952F" d="M320.043,96.292c1.428,0,1.428-2.363,0-2.363C318.617,93.929,318.617,96.292,320.043,96.292L320.043,96.292
		z"/>
</g>
<g>
	<path fill="#F5952F" d="M276.989,117.064c1.426,0,1.426-2.362,0-2.362C275.562,114.702,275.562,117.064,276.989,117.064
		L276.989,117.064z"/>
</g>
<g>
	<path fill="#F5952F" d="M281.874,110.765c1.427,0,1.427-2.364,0-2.364C280.449,108.401,280.449,110.765,281.874,110.765
		L281.874,110.765z"/>
</g>
<g>
	<path fill="#F5952F" d="M273.67,111.65c1.426,0,1.426-2.363,0-2.363C272.242,109.287,272.242,111.65,273.67,111.65L273.67,111.65z"
		/>
</g>
<g>
	<path fill="#F5952F" d="M273.023,107.909c1.427,0,1.427-2.362,0-2.362C271.598,105.546,271.598,107.909,273.023,107.909
		L273.023,107.909z"/>
</g>
<g>
	<path fill="#F5952F" d="M275.421,108.795c1.428,0,1.428-2.363,0-2.363C273.994,106.433,273.994,108.795,275.421,108.795
		L275.421,108.795z"/>
</g>
<g>
	<path fill="#F5952F" d="M275.513,107.417c1.428,0,1.428-2.363,0-2.363C274.086,105.054,274.086,107.417,275.513,107.417
		L275.513,107.417z"/>
</g>
<g>
	<path fill="#F5952F" d="M275.145,105.35c1.428,0,1.428-2.363,0-2.363C273.717,102.987,273.717,105.35,275.145,105.35
		L275.145,105.35z"/>
</g>
<g>
	<path fill="#F5952F" d="M278.372,105.054c1.427,0,1.427-2.362,0-2.362S276.945,105.054,278.372,105.054L278.372,105.054z"/>
</g>
<g>
	<path fill="#F5952F" d="M277.081,102.692c1.427,0,1.427-2.362,0-2.362C275.654,100.33,275.654,102.692,277.081,102.692
		L277.081,102.692z"/>
</g>
<g>
	<path fill="#F5952F" d="M271.641,100.034c1.427,0,1.427-2.363,0-2.363C270.214,97.671,270.214,100.034,271.641,100.034
		L271.641,100.034z"/>
</g>
<g>
	<path fill="#F5952F" d="M444.271,52.828c1.428,0,1.428-2.363,0-2.363C442.845,50.465,442.845,52.828,444.271,52.828L444.271,52.828
		z"/>
</g>
<g>
	<path fill="#F5952F" d="M455.611,97.424c1.429,0,1.429-2.362,0-2.362C454.184,95.062,454.184,97.424,455.611,97.424L455.611,97.424
		z"/>
</g>
<g>
	<path fill="#F5952F" d="M456.578,107.614c1.429,0,1.429-2.363,0-2.363C455.153,105.251,455.153,107.614,456.578,107.614
		L456.578,107.614z"/>
</g>
<g>
	<path fill="#F5952F" d="M491.747,254.565c0.16,0.678,0.24,1.389,0.617,1.985c0.608,0.966,1.739,1.105,2.571,0.378
		c0.789-0.692,0.246-1.843-0.259-2.488c-0.361-0.464-0.842-0.87-1.304-1.21c-0.5-0.366-1.229-0.101-1.517,0.424
		c-0.319,0.586-0.098,1.251,0.397,1.616c0.241,0.178-0.104-0.095,0.061,0.043c0.122,0.104,0.243,0.215,0.359,0.328
		c0.13,0.122,0.251,0.254,0.372,0.39c0.045,0.051,0.087,0.106,0.13,0.161c-0.154-0.197-0.004,0.026,0.019,0.07
		c-0.309-0.606,0.274-1.443,0.885-1.127c0.057,0.031,0.105,0.076,0.138,0.133c-0.164-0.259,0.038,0.17-0.068-0.146
		c-0.129-0.383-0.174-0.792-0.271-1.185C493.527,252.461,491.396,253.088,491.747,254.565L491.747,254.565z"/>
</g>
<g>
	<path fill="#F5952F" d="M496.697,263.5c-0.518,1.146,0.084,2.162,0.979,2.818c0.888,0.652,2.113,0.564,2.924-0.178
		c0.82-0.754,0.42-1.944-0.419-2.432c-0.584-0.338-1.245-0.461-1.865-0.702c-0.568-0.221-1.212,0.241-1.361,0.825
		c-0.17,0.658,0.205,1.232,0.773,1.453c0.242,0.095,0.496,0.166,0.743,0.246c0.172,0.054,0.338,0.113,0.506,0.177
		c0.123,0.051,0.127,0.051,0.007,0c0.077,0.038,0.149,0.081,0.218,0.128c-0.407-0.275-0.443-0.749-0.109-1.418
		c0.12-0.096,0.12-0.104-0.004-0.023c-0.121,0.07,0.084,0.042-0.097-0.006c-0.025-0.007-0.204-0.11-0.271-0.175
		c-0.095-0.109-0.111-0.124-0.047-0.047c-0.021-0.033-0.037-0.067-0.056-0.099c0.104,0.21,0.102,0.418-0.012,0.627
		c0.263-0.581,0.156-1.274-0.396-1.617C497.722,262.77,496.962,262.92,496.697,263.5L496.697,263.5z"/>
</g>
<g>
	<path fill="#F5952F" d="M502.118,274.616c0.313,0.217,0.725,0.307,1.082,0.412c0.228,0.067,0.453,0.136,0.68,0.215
		c0.093,0.032,0.186,0.068,0.275,0.107c-0.243-0.101,0.068,0.052,0.117,0.084c-0.391-0.257-0.402-1.125,0.233-1.403
		c-0.071,0.032-0.158,0.043-0.233,0.059c0.234-0.046-0.222,0.013-0.27,0.017c-0.287,0.018-0.58,0.011-0.867-0.011
		c-0.344-0.025,0.188,0.047-0.087-0.017c-0.172-0.061-0.099-0.008,0.221,0.158c-0.007-0.056-0.017-0.112-0.032-0.167
		c-0.258,0.484-0.516,0.968-0.773,1.453c0.041-0.002,0.081-0.005,0.122-0.007c1.423-0.043,1.425-2.406,0-2.363
		c-0.243,0.008-0.475,0.043-0.709,0.092c-0.615,0.129-0.894,0.863-0.773,1.453c0.285,1.394,1.332,1.768,2.518,1.781
		c0.841,0.008,2.003-0.045,2.396-1.01c0.493-1.207-0.312-1.971-1.273-2.397c-0.307-0.137-0.635-0.227-0.957-0.322
		c-0.144-0.042-0.29-0.084-0.432-0.13c-0.071-0.021-0.139-0.046-0.207-0.071c0.286,0.107,0.167,0.082,0.09,0.028
		C502.035,271.741,500.928,273.789,502.118,274.616L502.118,274.616z"/>
</g>
<g>
	<path fill="#F5952F" d="M508.011,283.792c-0.038,0.064-0.088,0.119-0.152,0.158c0.217-0.16-0.16,0.04,0.123-0.042
		c0.104-0.03,0.215-0.024,0.442-0.016c0.149,0.006,0.296,0.042,0.496,0.1c-0.024-0.007,0.355,0.146,0.211,0.075
		c0.005,0.002,0.32,0.217,0.161,0.082c0.092,0.103,0.101,0.104,0.023,0.004c-0.088-0.137-0.032-0.345,0.024-0.473
		c0.072-0.163,0.367-0.251,0.121-0.173c-0.244,0.078,0.046,0.013-0.228,0.031c-0.229,0.014-0.46-0.005-0.688-0.025
		c-0.122-0.01-0.241-0.027-0.365-0.042c-0.245-0.032,0.081-0.008,0.138,0.112c0.048,0.199,0.1,0.397,0.151,0.597
		c0.002-0.037,0.005-0.074,0.007-0.11c-0.11,0.279-0.216,0.557-0.323,0.835c0.006,0,0.011,0,0.018,0
		c1.282-0.667,0.158-2.705-1.117-2.04c-0.802,0.416-1.087,1.547-0.422,2.262c0.53,0.571,1.2,0.675,1.914,0.748
		c1.232,0.127,2.809-0.219,2.929-1.813c0.191-2.614-4.216-3.422-5.372-1.462C505.339,283.892,507.252,285.076,508.011,283.792
		L508.011,283.792z"/>
</g>
<g>
	<path fill="#F5952F" d="M512.299,293.164c0.306-0.529,0.351-0.474,0.964-0.34c0.238,0.053,1.1,0.209,1.167,0.47
		c-0.042-0.162,0.257-0.431,0.457-0.457c-0.215,0.028-0.285-0.004-0.501-0.059c-0.191-0.049-0.388-0.117-0.566-0.202
		c-0.124-0.058-0.242-0.127-0.359-0.197c-0.014-0.008-0.33-0.241-0.135-0.076c-1.104-0.942-2.679,0.719-1.565,1.67
		c1.287,1.1,5.135,2.281,4.874-0.822c-0.136-1.619-1.451-2.277-2.783-2.606c-1.51-0.372-2.631-0.008-3.46,1.425
		C509.638,293.271,511.551,294.457,512.299,293.164L512.299,293.164z"/>
</g>
<g>
	<path fill="#F5952F" d="M517.566,302.54c-0.027-0.46,0.155-0.524,0.675-0.658c0.484-0.125,1.076-0.032,1.502,0.22
		c0.185,0.107,0.156,0.101,0.188,0.23c-0.152-0.59,0.733-0.971,0.361-0.884c-0.17,0.039-0.372,0.026-0.548,0.033
		c-0.806,0.037-1.755-0.071-2.518,0.266c-1.299,0.574-0.729,2.86,0.589,2.278c1.109-0.491,2.438,0.073,3.563-0.483
		c1.494-0.74,0.508-2.68-0.403-3.402c-1.865-1.479-5.82-0.541-5.622,2.401C515.457,304.05,517.672,304.061,517.566,302.54
		L517.566,302.54z"/>
</g>
<g>
	<path fill="#F5952F" d="M521.69,313.232c0.776-0.265,1.437-0.466,2.257-0.402c0.271,0.02,0.531,0.102,0.776,0.224
		c0.148,0.078,0.287,0.165,0.421,0.264c0.445,0.302-0.486-0.088,0.526-0.479c-0.264,0.102-0.846-0.258-1.032-0.356
		c-0.839-0.438-1.637-0.899-2.536-1.187c-1.372-0.439-1.952,1.841-0.589,2.278c1.36,0.437,5.601,3.408,5.947,0.013
		c0.143-1.392-1.012-2.346-2.1-2.799c-1.414-0.588-2.862-0.31-4.258,0.168C519.748,311.417,520.329,313.698,521.69,313.232
		L521.69,313.232z"/>
</g>
<g>
	<path fill="#F5952F" d="M527.461,321.312c0.116-0.331,0.02-0.318-0.291,0.044c0.158-0.019,0.313,0.035,0.467,0.07
		c0.374,0.093,0.742,0.212,1.118,0.314c0.399,0.108,0.792,0.231,1.158,0.44c0.422,0.245,0.12-0.503,0.644-0.546
		c-1.174,0.095-2.346-0.801-3.475-1.036c-1.396-0.29-1.989,1.987-0.589,2.277c1.137,0.236,2.175,0.849,3.328,1.047
		c1.281,0.225,2.852-0.449,2.412-2.155c-0.444-1.727-2.182-2.083-3.585-2.499c-0.68-0.202-1.387-0.389-2.082-0.165
		c-0.938,0.304-1.22,1.284-1.319,2.208C525.079,322.823,527.294,322.807,527.461,321.312L527.461,321.312z"/>
</g>
<g>
	<path fill="#F5952F" d="M533.748,333.698c0.006-0.181,0.014-0.363,0.024-0.545c0.027-0.539,0.187-0.202-0.197-0.171
		c0.393-0.031,0.912,0.223,1.278,0.347c0.475,0.156,0.919,0.368,1.354,0.617c0.243,0.137,0.466,0.302,0.678,0.491
		c0.521,0.472,0.072,0.464,0.268-0.14c0.171-0.235,0.339-0.47,0.509-0.705c0.348-0.268-0.052-0.188-0.377-0.316
		c-0.432-0.172-0.875-0.307-1.319-0.436c-0.867-0.25-1.781-0.377-2.678-0.371c-1.426,0.011-1.428,2.372,0,2.362
		c0.956-0.005,1.853,0.201,2.766,0.492c0.81,0.259,1.513,0.664,2.379,0.492c0.691-0.139,0.98-0.963,0.887-1.612
		c-0.108-0.749-0.76-1.377-1.298-1.803c-1.251-0.992-2.896-1.623-4.446-1.778c-1.675-0.165-1.986,1.763-2.041,3.078
		C531.475,335.222,533.689,335.216,533.748,333.698L533.748,333.698z"/>
</g>
<g>
	<path fill="#F5952F" d="M540.479,345.512c0.002-0.244-0.01-0.479-0.029-0.719c-0.129,0.362-0.013,0.465,0.343,0.311
		c0.229,0.002,0.459,0.018,0.687,0.045c0.663,0.062,1.53,0.15,2.136,0.465c0.5,0.262-0.896,0.252-1.063,0.242
		c-0.368-0.022-0.738-0.009-1.107-0.035c-0.274-0.018-0.875-0.391-0.732,0.042c-0.036,0.305-0.073,0.607-0.109,0.911
		c-0.4,0.25-0.47,0.342-0.207,0.272c0.358-0.039,0.708,0.072,1.054,0.162c0.627,0.167,1.226,0.381,1.869,0.475
		c0.765,0.114,1.314-0.306,1.4-1.139c0.245-2.349-2.264-2.525-3.827-2.509c-1.427,0.015-1.427,2.376,0,2.362
		c0.35-0.003,0.698-0.012,1.048,0.002c0.181,0.005,0.338,0.031,0.513,0.073c0.32,0.073,0.088-0.267,0.055,0.071
		c0.467-0.379,0.933-0.76,1.398-1.137c-1.342-0.199-2.644-0.942-4.022-0.659c-0.944,0.194-1.713,1.126-1.148,2.153
		c0.58,1.057,1.992,1.234,3.01,1.304c1.059,0.07,2.363,0.227,3.263-0.489c0.841-0.669,1.197-2.082,0.687-3.093
		c-0.483-0.955-1.413-1.359-2.37-1.544c-1.247-0.238-2.539-0.514-3.784-0.134c-1.246,0.378-1.262,1.426-1.273,2.566
		C538.248,347.036,540.461,347.034,540.479,345.512L540.479,345.512z"/>
</g>
<g>
	<path fill="#F5952F" d="M546.847,358.131c0.247-0.94,0.573-0.614,1.364-0.253c0.743,0.338,1.443,0.641,2.068,1.204
		c0.159,0.145,0.307,0.306,0.439,0.48c0.118,0.374,0.268,0.294,0.452-0.241c-0.331,0.034-0.854-0.257-1.167-0.347
		c-0.555-0.158-1.126-0.26-1.684-0.413c-0.266-0.065-0.518-0.169-0.759-0.307c-0.234-0.262-0.254-0.122-0.06,0.417
		c-0.168,0.236-0.338,0.472-0.507,0.707c0.446-0.33,2.859,1.253,3.424,1.448c1.357,0.477,1.936-1.806,0.586-2.276
		c-1.436-0.502-2.65-1.52-4.219-1.521c-1.053-0.001-1.874,1.161-1.322,2.203c0.635,1.199,1.946,1.545,3.115,1.824
		c1.098,0.261,2.521,1.03,3.607,0.348c2.558-1.6-0.78-4.682-2.286-5.316c-0.975-0.411-1.981-1.054-3.067-0.935
		c-1.218,0.135-1.814,1.192-2.119,2.352C544.325,358.974,546.461,359.595,546.847,358.131L546.847,358.131z"/>
</g>
<g>
	<path fill="#F5952F" d="M553.224,370.149c0.287-0.825,2.296,0.224,2.831,0.501c0.499,0.26,0.743,0.88,1.013,1.358
		c0.17,0.306,0.365,0.596,0.55,0.892c0.32,0.517,0.274-0.864,0.582-0.87c-0.733,0.014-1.493-0.36-2.22-0.459
		c-0.854-0.115-2.257-0.446-2.494-1.465c-0.26,0.483-0.516,0.967-0.774,1.453c1.318-0.365,2.804,0.885,4.069,1.181
		c1.389,0.323,1.98-1.955,0.587-2.279c-1.801-0.418-3.321-1.712-5.243-1.181c-0.595,0.164-0.917,0.836-0.773,1.453
		c0.513,2.199,2.673,2.842,4.504,3.192c1.104,0.209,3.702,1.248,3.982-0.744c0.161-1.113-0.669-2.022-1.164-2.913
		c-0.589-1.048-1.352-1.644-2.412-2.072c-2.032-0.818-4.255-1.325-5.168,1.327C550.599,370.956,552.737,371.567,553.224,370.149
		L553.224,370.149z"/>
</g>
<path fill="#010101" d="M785.392,378.999l0.5,36.891c-3.295-8.157-6.217-9.293-7.362-9.167
	c-18.116,4.799-38.724,88.455-38.724,88.455v0.294c3.724-0.764,27.991-4.732,45.586-7.48v11.31
	c-9.488,2.26-18.058,4.178-20.555,4.712c-5.301,1.133-18.577,4.134-24.615,5.462c0.139-0.393,0.092-1.821-0.047-3.246
	c-0.276-0.886-1.382-3.002-2.213-2.758c-3.042,15.853,1.015,31.799,5.81,43.906c17.517,35.738,29.896,72.165,33.099,81.712
	c0.459,1.377,0.828,2.066-0.186,1.576c-14.336-8.762-33.143-42.924-35.679-50.309c-0.976-2.834-1.752-5.316-2.676-5.708
	c-2.12,0.883-1.936,18.803-1.199,25.104c2.308,10.928,5.442,41.545,2.768,44.006c-1.568,1.379-3.873,0.592-6.638-4.727
	c0.386,2.888,17.511,95.985,28.238,154.362l-17.93-0.004c-1.144-7.516-2.044-13.762-2.378-16.728
	c-1.199-10.631-16.229-102.187-17.61-112.033c-1.385-9.843-5.901-35.934-8.665-53.162c0.74,30.521,5.676,148.018,7.506,181.923
	h-14.175c-2.529-49.895-7.227-118.34-7.347-128.071c-0.463-9.156-1.014-27.961-3.873-78.76c-1.105-25.693-3.042-39.672-1.383-63.693
	c2.213-28.354,15.857-99.233,16.597-104.107c0.737-4.871,1.657-10.779,2.029-13.93c0.367-3.151,1.379-6.646,1.563-10.042
	s-2.211-5.809-3.502-6.303c-4.242-1.671-9.495,5.908-14.799,15.604c-4.191,7.73-17.193,37.117-34.617,68.669
	c-0.185,0.247-3.136,1.082-3.825,0.985c-7.468-2.117-17.842-8.32-20.979-10.139c-3.133-1.825-26.459-17.476-28.993-19.296
	c-2.536-1.823-23.927-17.575-31.257-23.261c0.762-0.663,3.527-4.209,4.428-5.538c-0.348-0.442-3.042-2.363-5.256-3.026
	c-1.384-0.593-6.291-0.666-9.196-0.666c-0.554,0-2.503,0.36-4.368-0.673c-3.792-2.059-11.811-15.422-12.989-17.934
	c-1.175-2.509-0.553-3.027-1.105-3.986c-2.559-1.329-4.356-4.062-4.84-5.391c-0.484-1.328-1.039-3.175-0.621-4.135
	c1.451-2.585,9.749-2.288,13.552-2.14c3.802,0.146,4.01-1.774,4.01-2.143c0-0.369-9.955-18.312-11.479-21.043
	c-1.521-9.302-0.136-12.257,0.209-12.772c0.344-0.517,2.143,1.476,2.625,3.322c0.485,1.847,5.119,11.222,8.645,15.58
	c3.526,4.354,8.022,8.121,10.443,12.847c10.924,20.45,11.338,27.098,11.616,29.532c0.276,2.438-0.278,5.907,0.967,7.239
	c3.181,4.945,3.526,4.061,3.526,4.061c4.011,2.805,42.457,27.833,67.901,43.194c0.348,0.071,1.246-0.446,1.868-1.628
	c24.686-64.456,41.695-91.851,46.884-96.059c5.187-4.209,7.604-3.174,12.998-1.181c5.393,1.995,6.983-0.073,8.368-1.107
	c1.383-1.033,1.244-5.021,0.137-7.382c-1.105-2.364,1.383-12.037,4.082-15.285c11.06,47.697,5.391,50.8-0.693,89.486
	c-10.026,53.753-9.543,66.823-9.543,66.823c0.783-2.24,37.156-125.151,40.336-134.701c3.183-9.549,3.825-12.404,4.795-22.542
	c0.599,3.002,3.964,10.927,5.072,12.009c3.089,3.644,5.761,8.91,6.591,13.635c0.831,4.725,3.597,6.3,6.593,7.877
	c-8.297,1.133-5.855,4.036-4.104,6.104C781.012,375.427,783.232,377.301,785.392,378.999"/>
</svg>
