<?xml version="1.0" encoding="utf-8"?>
<!-- Generator: Adobe Illustrator 16.0.0, SVG Export Plug-In . SVG Version: 6.00 Build 0)  -->
<!DOCTYPE svg PUBLIC "-//W3C//DTD SVG 1.1//EN" "http://www.w3.org/Graphics/SVG/1.1/DTD/svg11.dtd">
<svg version="1.1" id="Ebene_7" xmlns="http://www.w3.org/2000/svg" xmlns:xlink="http://www.w3.org/1999/xlink" x="0px" y="0px"
	 width="1063px" height="532px" viewBox="0 0 1063 532" enable-background="new 0 0 1063 532" xml:space="preserve">
<g>
	<g>
		<path fill="#F7941E" d="M354,465c6.448,0,6.448-10,0-10S347.552,465,354,465L354,465z"/>
	</g>
</g>
<g>
	<g>
		<path fill="#F7941E" d="M435,422c6.448,0,6.448-10,0-10S428.552,422,435,422L435,422z"/>
	</g>
</g>
<g>
	<g>
		<path fill="#F7941E" d="M412,403c6.448,0,6.448-10,0-10S405.552,403,412,403L412,403z"/>
	</g>
</g>
<g>
	<g>
		<path fill="#F7941E" d="M459,407c6.448,0,6.448-10,0-10S452.552,407,459,407L459,407z"/>
	</g>
</g>
<g>
	<g>
		<path fill="#F7941E" d="M501,395c6.448,0,6.448-10,0-10S494.552,395,501,395L501,395z"/>
	</g>
</g>
<g>
	<g>
		<path fill="#F7941E" d="M533,442c6.448,0,6.448-10,0-10S526.552,442,533,442L533,442z"/>
	</g>
</g>
<g>
	<g>
		<path fill="#F7941E" d="M639,518c6.448,0,6.448-10,0-10S632.552,518,639,518L639,518z"/>
	</g>
</g>
<g>
	<g>
		<path fill="#F7941E" d="M696,398c6.448,0,6.448-10,0-10S689.552,398,696,398L696,398z"/>
	</g>
</g>
<g>
	<g>
		<path fill="#F7941E" d="M874,406c6.448,0,6.448-10,0-10S867.552,406,874,406L874,406z"/>
	</g>
</g>
<g>
	<g>
		<path fill="#F7941E" d="M1007,460c6.449,0,6.449-10,0-10S1000.551,460,1007,460L1007,460z"/>
	</g>
</g>
<g>
	<g>
		<path fill="#F7941E" d="M272,465c6.448,0,6.448-10,0-10S265.552,465,272,465L272,465z"/>
	</g>
</g>
<g>
	<g>
		<path fill="#F7941E" d="M227,422c6.448,0,6.448-10,0-10S220.552,422,227,422L227,422z"/>
	</g>
</g>
<g>
	<g>
		<path fill="#F7941E" d="M218,471c6.448,0,6.448-10,0-10S211.552,471,218,471L218,471z"/>
	</g>
</g>
<g>
	<g>
		<path fill="#F7941E" d="M173,486c6.448,0,6.448-10,0-10S166.552,486,173,486L173,486z"/>
	</g>
</g>
<g>
	<g>
		<path fill="#F7941E" d="M149,509c6.448,0,6.448-10,0-10S142.552,509,149,509L149,509z"/>
	</g>
</g>
<g>
	<g>
		<path fill="#F7941E" d="M134,453c6.448,0,6.448-10,0-10S127.552,453,134,453L134,453z"/>
	</g>
</g>
<g>
	<g>
		<path fill="#F7941E" d="M145,357c6.448,0,6.448-10,0-10S138.552,357,145,357L145,357z"/>
	</g>
</g>
<g>
	<g>
		<path fill="#F7941E" d="M188,344c6.448,0,6.448-10,0-10S181.552,344,188,344L188,344z"/>
	</g>
</g>
<g>
	<g>
		<path fill="#F7941E" d="M158,293c6.448,0,6.448-10,0-10S151.552,293,158,293L158,293z"/>
	</g>
</g>
<g>
	<g>
		<path fill="#F7941E" d="M167,269c6.448,0,6.448-10,0-10S160.552,269,167,269L167,269z"/>
	</g>
</g>
<g>
	<g>
		<path fill="#F7941E" d="M159,249c6.448,0,6.448-10,0-10S152.552,249,159,249L159,249z"/>
	</g>
</g>
<g>
	<g>
		<path fill="#F7941E" d="M136,302c6.448,0,6.448-10,0-10S129.552,302,136,302L136,302z"/>
	</g>
</g>
<g>
	<g>
		<path fill="#F7941E" d="M99,287c6.448,0,6.448-10,0-10S92.552,287,99,287L99,287z"/>
	</g>
</g>
<g>
	<g>
		<path fill="#F7941E" d="M133,218c6.448,0,6.448-10,0-10S126.552,218,133,218L133,218z"/>
	</g>
</g>
<g>
	<g>
		<path fill="#F7941E" d="M12,258c6.448,0,6.448-10,0-10S5.552,258,12,258L12,258z"/>
	</g>
</g>
<g>
	<g>
		<path fill="#F7941E" d="M83,225c6.448,0,6.448-10,0-10S76.552,225,83,225L83,225z"/>
	</g>
</g>
<g>
	<g>
		<path fill="#F7941E" d="M110,182c6.448,0,6.448-10,0-10S103.552,182,110,182L110,182z"/>
	</g>
</g>
<g>
	<g>
		<path fill="#F7941E" d="M111,126c6.448,0,6.448-10,0-10S104.552,126,111,126L111,126z"/>
	</g>
</g>
<g>
	<g>
		<path fill="#F7941E" d="M675,23c6.448,0,6.448-10,0-10S668.552,23,675,23L675,23z"/>
	</g>
</g>
<g>
	<g>
		<path fill="#F7941E" d="M1011,244c6.449,0,6.449-10,0-10S1004.551,244,1011,244L1011,244z"/>
	</g>
</g>
<g>
	<g>
		<path fill="#F7941E" d="M1005,131c6.449,0,6.449-10,0-10S998.551,131,1005,131L1005,131z"/>
	</g>
</g>
<g>
	<g>
		<path fill="#F7941E" d="M1021,85c6.449,0,6.449-10,0-10S1014.551,85,1021,85L1021,85z"/>
	</g>
</g>
<g>
	<g>
		<path fill="#F7941E" d="M1046,66c6.449,0,6.449-10,0-10S1039.551,66,1046,66L1046,66z"/>
	</g>
</g>
</svg>
