<?xml version="1.0" encoding="utf-8"?>
<!-- Generator: Adobe Illustrator 16.0.0, SVG Export Plug-In . SVG Version: 6.00 Build 0)  -->
<!DOCTYPE svg PUBLIC "-//W3C//DTD SVG 1.1//EN" "http://www.w3.org/Graphics/SVG/1.1/DTD/svg11.dtd">
<svg version="1.1" id="Ebene_3" xmlns="http://www.w3.org/2000/svg" xmlns:xlink="http://www.w3.org/1999/xlink" x="0px" y="0px"
	 width="490px" height="603px" viewBox="0 0 490 603" enable-background="new 0 0 490 603" xml:space="preserve">
<path fill="none" stroke="#EBECEB" stroke-width="6" stroke-linecap="round" stroke-linejoin="round" stroke-miterlimit="10" d="
	M437,511.5c0,0-7,58-52.5,64.5c-28.776,4.111-40-27.5-17-54.5C385.021,500.932,446,478,452,505s-66.5,73-93.5,70s-15.5-45.5,13-62
	c29.415-17.03,56.5-18.5,72.5-9.5"/>
<path fill="none" stroke="#EBECEB" stroke-width="6" stroke-linecap="round" stroke-linejoin="round" stroke-miterlimit="10" d="
	M337.5,483.5c0,0-58.68-36.699-62.5-94c-3.5-52.5-4-64.5,54-126S424.5,154,393,96s-110.5-29.5-151-6S56,201.5,71,307.5
	c7,33,53.5,42.5,67,40.5c-30.5-12.5-71-37-52-93s57-144.5,207.5-210c30-12,101-22,120.5,30.5c16,33-13.5,99-91.5,176
	c-68,58-81,84-21.5,184c0,0,17,27,43.5,46.5"/>
</svg>
