<?xml version="1.0" encoding="utf-8"?>
<!-- Generator: Adobe Illustrator 16.0.0, SVG Export Plug-In . SVG Version: 6.00 Build 0)  -->
<!DOCTYPE svg PUBLIC "-//W3C//DTD SVG 1.1//EN" "http://www.w3.org/Graphics/SVG/1.1/DTD/svg11.dtd">
<svg version="1.1" xmlns="http://www.w3.org/2000/svg" xmlns:xlink="http://www.w3.org/1999/xlink" x="0px" y="0px" width="1902px"
	 height="863px" viewBox="0 0 1902 863" enable-background="new 0 0 1902 863" xml:space="preserve">
<g id="Ebene_2">
	<polygon points="390.332,782.327 384.665,781.327 384.332,699.327 398.332,699.327 	"/>
	
		<path fill="#FFFFFF" stroke="#000000" stroke-width="2" stroke-linecap="round" stroke-linejoin="round" stroke-miterlimit="10" d="
		M483.999,586.244c0,0-66-3.5-72.75-2.75s-8.75,1.75-8.75,1.75l1.5,12l36.25,3.5"/>
	
		<polyline fill="#FFFFFF" stroke="#000000" stroke-width="2" stroke-linecap="round" stroke-linejoin="round" stroke-miterlimit="10" points="
		480.499,694.494 483.999,586.244 440.249,600.744 438.999,695.494 	"/>
	
		<path fill="#FFFFFF" stroke="#000000" stroke-width="2" stroke-linecap="round" stroke-linejoin="round" stroke-miterlimit="10" d="
		M439.499,694.494c0,0,1.25-92.75,0.75-93.75s-20.75-1.75-20.75-1.75l-1.5,95.25L439.499,694.494z"/>
	
		<polyline fill="#FFFFFF" stroke="#000000" stroke-width="2" stroke-linecap="round" stroke-linejoin="round" stroke-miterlimit="10" points="
		46.499,697.494 45.499,590.494 150.749,584.494 261.749,594.244 270.499,731.494 	"/>
	
		<polyline fill="#FFFFFF" stroke="#000000" stroke-width="2" stroke-linecap="round" stroke-linejoin="round" stroke-miterlimit="10" points="
		382.249,691.494 285.249,679.994 195.249,702.244 308.999,714.744 	"/>
	
		<path fill="#FFFFFF" stroke="#000000" stroke-width="2" stroke-linecap="round" stroke-linejoin="round" stroke-miterlimit="10" d="
		M229.749,812.494c0,0,78,12.75,79.25,12s75.5-38,75.75-39.25s0.5-91.75,0-92.75s-75.75,22.25-75.75,22.25l-113.75-12.5"/>
	
		<path fill="#FFFFFF" stroke="#000000" stroke-width="2" stroke-linecap="round" stroke-linejoin="round" stroke-miterlimit="10" d="
		M175.749,699.244l-2.25-94.75c0,0-126.75-14.75-128-14"/>
	
		<path fill="#FFFFFF" stroke="#000000" stroke-width="2" stroke-linecap="round" stroke-linejoin="round" stroke-miterlimit="10" d="
		M578.499,718.244c0,0-18.25-20.25-19.25-22c-25.75-0.75-158-2-163.5-1.25c-0.75,6-3.5,18.75-4,21.25"/>
	
		<path fill="#FFFFFF" stroke="#000000" stroke-width="2" stroke-linecap="round" stroke-linejoin="round" stroke-miterlimit="10" d="
		M391.499,716.994c0,0-4,102.5-0.5,110.5c5.75,2.75,182.75,3.25,184.5,3s4.5-109.25,3-112.25c-8.25-3-186.75-2-186.75-2
		s0.5-5.25,1.25-11"/>
	
		<path fill="#FFFFFF" stroke="#000000" stroke-width="2" stroke-linecap="round" stroke-linejoin="round" stroke-miterlimit="10" d="
		M173.249,596.494c0,0-8.25-5.75-12.25-8c0-14.5-2-165.247-2-165.247l13.25-15.25"/>
	
		<path fill="#FFFFFF" stroke="#000000" stroke-width="2" stroke-linecap="round" stroke-linejoin="round" stroke-miterlimit="10" d="
		M238.499,596.494c0,0-62.5,0.5-65.25,0s-1-188.497-1-188.497l235.5,6.5l-2.75,171.497"/>
	
		<path fill="#FFFFFF" stroke="#000000" stroke-width="2" stroke-linecap="round" stroke-linejoin="round" stroke-miterlimit="10" d="
		M419.499,593.744c0,0,1,109-1.75,109.75s-177-2-177-2s-3.5-104.75-0.75-108.75C265.499,593.494,418.499,593.494,419.499,593.744
		s-6.5-6.75-6.5-6.75l-161-0.75l-12,6.5"/>
	
		<path fill="#FFFFFF" stroke="#000000" stroke-width="2" stroke-linecap="round" stroke-linejoin="round" stroke-miterlimit="10" d="
		M106.249,727.244l3.5,119.25c0,0,122.75-19.75,123-20.75s0.25-111.25,0.25-111.25s-81-25.5-82.25-25.5s-109.75,6.75-113.25,11.5
		c-0.25,7.25,2,102.75,2,102.75l69,42.75"/>
	
		<path fill="#FFFFFF" stroke="#000000" stroke-width="2" stroke-linecap="round" stroke-linejoin="round" stroke-miterlimit="10" d="
		M38.499,700.994"/>
	
		<polyline fill="#FFFFFF" stroke="#000000" stroke-width="2" stroke-linecap="round" stroke-linejoin="round" stroke-miterlimit="10" points="
		37.499,700.494 106.249,727.244 232.999,714.494 	"/>
	
		<line fill="#FFFFFF" stroke="#000000" stroke-width="2" stroke-linecap="round" stroke-linejoin="round" stroke-miterlimit="10" x1="308.999" y1="714.744" x2="308.999" y2="824.494"/>
	
		<path fill="#FFFFFF" stroke="#000000" stroke-width="2" stroke-linecap="round" stroke-linejoin="round" stroke-miterlimit="10" d="
		M173.499,604.494c0,0,64.25-5,65-5.25"/>
	<g id="Ebene_4">
		<g>
			<g>
				<path fill="#F7941E" d="M219.998,410.332c3.869,0,3.869-6,0-6S216.129,410.332,219.998,410.332L219.998,410.332z"/>
			</g>
		</g>
		<g>
			<g>
				<path fill="#F7941E" d="M215.332,403.665c3.869,0,3.869-6,0-6S211.462,403.665,215.332,403.665L215.332,403.665z"/>
			</g>
		</g>
		<g>
			<g>
				<path fill="#F7941E" d="M191.961,393.926c3.869,0,3.869-6,0-6S188.092,393.926,191.961,393.926L191.961,393.926z"/>
			</g>
		</g>
		<g>
			<g>
				<path fill="#F7941E" d="M188.628,384.593c3.869,0,3.869-6,0-6S184.759,384.593,188.628,384.593L188.628,384.593z"/>
			</g>
		</g>
		<g>
			<g>
				<path fill="#F7941E" d="M162.665,400.332c3.869,0,3.869-6,0-6S158.795,400.332,162.665,400.332L162.665,400.332z"/>
			</g>
		</g>
		<g>
			<g>
				<path fill="#F7941E" d="M163.998,418.999c3.869,0,3.869-6,0-6S160.129,418.999,163.998,418.999L163.998,418.999z"/>
			</g>
		</g>
		<g>
			<g>
				<path fill="#F7941E" d="M149.332,423.165c5.804,0,5.804-9,0-9S143.528,423.165,149.332,423.165L149.332,423.165z"/>
			</g>
		</g>
		<g>
			<g>
				<path fill="#F7941E" d="M362.665,409.665c3.869,0,3.869-6,0-6S358.795,409.665,362.665,409.665L362.665,409.665z"/>
			</g>
		</g>
		<g>
			<g>
				<path fill="#F7941E" d="M296.665,395.165c5.804,0,5.804-9,0-9S290.861,395.165,296.665,395.165L296.665,395.165z"/>
			</g>
		</g>
		<g>
			<g>
				<path fill="#F7941E" d="M290.665,406.332c3.869,0,3.869-6,0-6S286.795,406.332,290.665,406.332L290.665,406.332z"/>
			</g>
		</g>
		<g>
			<g>
				<path fill="#F7941E" d="M316.665,411.665c3.869,0,3.869-6,0-6S312.795,411.665,316.665,411.665L316.665,411.665z"/>
			</g>
		</g>
		<g>
			<g>
				<path fill="#F7941E" d="M401.998,416.999c3.869,0,3.869-6,0-6S398.129,416.999,401.998,416.999L401.998,416.999z"/>
			</g>
		</g>
		<g>
			<g>
				<path fill="#F7941E" d="M415.117,411.591c5.804,0,5.804-9,0-9S409.313,411.591,415.117,411.591L415.117,411.591z"/>
			</g>
		</g>
		<g>
			<g>
				<path fill="#F7941E" d="M428.616,429.591c5.804,0,5.804-9,0-9S422.812,429.591,428.616,429.591L428.616,429.591z"/>
			</g>
		</g>
		<g>
			<g>
				<path fill="#F7941E" d="M415.332,594.329c3.869,0,3.869-6,0-6S411.462,594.329,415.332,594.329L415.332,594.329z"/>
			</g>
		</g>
		<g>
			<g>
				<path fill="#F7941E" d="M415,584.5c3.869,0,3.869-6,0-6S411.131,584.5,415,584.5L415,584.5z"/>
			</g>
		</g>
		<g>
			<g>
				<path fill="#F7941E" d="M407.332,578.996c3.869,0,3.869-6,0-6S403.462,578.996,407.332,578.996L407.332,578.996z"/>
			</g>
		</g>
		<g>
			<g>
				<path fill="#F7941E" d="M420.665,562.329c3.869,0,3.869-6,0-6S416.795,562.329,420.665,562.329L420.665,562.329z"/>
			</g>
		</g>
		<g>
			<g>
				<path fill="#F7941E" d="M401.998,589.662c3.869,0,3.869-6,0-6S398.129,589.662,401.998,589.662L401.998,589.662z"/>
			</g>
		</g>
		<g>
			<g>
				<path fill="#F7941E" d="M240.665,595.829c5.804,0,5.804-9,0-9S234.861,595.829,240.665,595.829L240.665,595.829z"/>
			</g>
		</g>
		<g>
			<g>
				<path fill="#F7941E" d="M247.5,585c3.869,0,3.869-6,0-6S243.631,585,247.5,585L247.5,585z"/>
			</g>
		</g>
		<g>
			<g>
				<path fill="#F7941E" d="M239,581c3.869,0,3.869-6,0-6S235.131,581,239,581L239,581z"/>
			</g>
		</g>
		<g>
			<g>
				<path fill="#F7941E" d="M223.998,592.996c3.869,0,3.869-6,0-6S220.129,592.996,223.998,592.996L223.998,592.996z"/>
			</g>
		</g>
		<g>
			<g>
				<path fill="#F7941E" d="M249.5,572.5c3.869,0,3.869-6,0-6S245.631,572.5,249.5,572.5L249.5,572.5z"/>
			</g>
		</g>
		<g>
			<g>
				<path fill="#F7941E" d="M575.332,716.329c3.869,0,3.869-6,0-6S571.462,716.329,575.332,716.329L575.332,716.329z"/>
			</g>
		</g>
		<g>
			<g>
				<path fill="#F7941E" d="M569.332,704.996c3.869,0,3.869-6,0-6S565.462,704.996,569.332,704.996L569.332,704.996z"/>
			</g>
		</g>
		<g>
			<g>
				<path fill="#F7941E" d="M575.609,692.077c5.804,0,5.804-9,0-9S569.805,692.077,575.609,692.077L575.609,692.077z"/>
			</g>
		</g>
		<g>
			<g>
				<path fill="#F7941E" d="M569.609,669.578c5.804,0,5.804-9,0-9S563.806,669.578,569.609,669.578L569.609,669.578z"/>
			</g>
		</g>
		<g>
			<g>
				<path fill="#F7941E" d="M587.332,706.329c3.869,0,3.869-6,0-6S583.462,706.329,587.332,706.329L587.332,706.329z"/>
			</g>
		</g>
		<g>
			<g>
				<path fill="#F7941E" d="M478.665,586.996c3.869,0,3.869-6,0-6S474.795,586.996,478.665,586.996L478.665,586.996z"/>
			</g>
		</g>
		<g>
			<g>
				<path fill="#F7941E" d="M486.665,577.662c3.869,0,3.869-6,0-6S482.795,577.662,486.665,577.662L486.665,577.662z"/>
			</g>
		</g>
		<g>
			<g>
				<path fill="#F7941E" d="M472.665,556.996c3.869,0,3.869-6,0-6S468.795,556.996,472.665,556.996L472.665,556.996z"/>
			</g>
		</g>
		<g>
			<g>
				<path fill="#F7941E" d="M470.665,594.996c3.869,0,3.869-6,0-6S466.795,594.996,470.665,594.996L470.665,594.996z"/>
			</g>
		</g>
		<g>
			<g>
				<path fill="#F7941E" d="M460.665,592.496c5.804,0,5.804-9,0-9S454.861,592.496,460.665,592.496L460.665,592.496z"/>
			</g>
		</g>
		<g>
			<g>
				<path fill="#F7941E" d="M461.998,574.329c3.869,0,3.869-6,0-6S458.129,574.329,461.998,574.329L461.998,574.329z"/>
			</g>
		</g>
		<g>
			<g>
				<path fill="#F7941E" d="M314.665,716.996c3.869,0,3.869-6,0-6S310.795,716.996,314.665,716.996L314.665,716.996z"/>
			</g>
		</g>
		<g>
			<g>
				<path fill="#F7941E" d="M342.665,706.996c3.869,0,3.869-6,0-6S338.795,706.996,342.665,706.996L342.665,706.996z"/>
			</g>
		</g>
		<g>
			<g>
				<path fill="#F7941E" d="M333.998,706.329c3.869,0,3.869-6,0-6S330.129,706.329,333.998,706.329L333.998,706.329z"/>
			</g>
		</g>
		<g>
			<g>
				<path fill="#F7941E" d="M333.998,698.996c3.869,0,3.869-6,0-6S330.129,698.996,333.998,698.996L333.998,698.996z"/>
			</g>
		</g>
		<g>
			<g>
				<path fill="#F7941E" d="M336.665,689.829c5.804,0,5.804-9,0-9S330.861,689.829,336.665,689.829L336.665,689.829z"/>
			</g>
		</g>
		<g>
			<g>
				<path fill="#F7941E" d="M347,690.5c3.869,0,3.869-6,0-6S343.131,690.5,347,690.5L347,690.5z"/>
			</g>
		</g>
		<g>
			<g>
				<path fill="#F7941E" d="M349.5,701.5c3.869,0,3.869-6,0-6S345.631,701.5,349.5,701.5L349.5,701.5z"/>
			</g>
		</g>
		<g>
			<g>
				<path fill="#F7941E" d="M319.998,696.996c3.869,0,3.869-6,0-6S316.129,696.996,319.998,696.996L319.998,696.996z"/>
			</g>
		</g>
		<g>
			<g>
				<path fill="#F7941E" d="M305.998,681.829c5.804,0,5.804-9,0-9S300.194,681.829,305.998,681.829L305.998,681.829z"/>
			</g>
		</g>
		<g>
			<g>
				<path fill="#F7941E" d="M314.665,653.662c3.869,0,3.869-6,0-6S310.795,653.662,314.665,653.662L314.665,653.662z"/>
			</g>
		</g>
		<g>
			<g>
				<path fill="#F7941E" d="M327.332,712.329c3.869,0,3.869-6,0-6S323.462,712.329,327.332,712.329L327.332,712.329z"/>
			</g>
		</g>
		<g>
			<g>
				<path fill="#F7941E" d="M236.665,693.662c3.869,0,3.869-6,0-6S232.795,693.662,236.665,693.662L236.665,693.662z"/>
			</g>
		</g>
		<g>
			<g>
				<path fill="#F7941E" d="M233.332,680.996c3.869,0,3.869-6,0-6S229.462,680.996,233.332,680.996L233.332,680.996z"/>
			</g>
		</g>
		<g>
			<g>
				<path fill="#F7941E" d="M220.665,670.996c3.869,0,3.869-6,0-6S216.795,670.996,220.665,670.996L220.665,670.996z"/>
			</g>
		</g>
		<g>
			<g>
				<path fill="#F7941E" d="M217.998,700.329c3.869,0,3.869-6,0-6S214.129,700.329,217.998,700.329L217.998,700.329z"/>
			</g>
		</g>
		<g>
			<g>
				<path fill="#F7941E" d="M60.665,699.662c3.869,0,3.869-6,0-6S56.795,699.662,60.665,699.662L60.665,699.662z"/>
			</g>
		</g>
		<g>
			<g>
				<path fill="#F7941E" d="M77.332,696.329c3.869,0,3.869-6,0-6S73.462,696.329,77.332,696.329L77.332,696.329z"/>
			</g>
		</g>
		<g>
			<g>
				<path fill="#F7941E" d="M77.332,682.329c3.869,0,3.869-6,0-6S73.462,682.329,77.332,682.329L77.332,682.329z"/>
			</g>
		</g>
		<g>
			<g>
				<path fill="#F7941E" d="M74.665,668.996c3.869,0,3.869-6,0-6S70.795,668.996,74.665,668.996L74.665,668.996z"/>
			</g>
		</g>
		<g>
			<g>
				<path fill="#F7941E" d="M62.665,656.996c3.869,0,3.869-6,0-6S58.795,656.996,62.665,656.996L62.665,656.996z"/>
			</g>
		</g>
		<g>
			<g>
				<path fill="#F7941E" d="M44.139,702.078c5.804,0,5.804-9,0-9S38.335,702.078,44.139,702.078L44.139,702.078z"/>
			</g>
		</g>
		<g>
			<g>
				<path fill="#F7941E" d="M30.137,687.577c3.869,0,3.869-6,0-6S26.268,687.577,30.137,687.577L30.137,687.577z"/>
			</g>
		</g>
		<g>
			<g>
				<path fill="#F7941E" d="M103.332,590.329c3.869,0,3.869-6,0-6S99.462,590.329,103.332,590.329L103.332,590.329z"/>
			</g>
		</g>
		<g>
			<g>
				<path fill="#F7941E" d="M89.332,580.329c3.869,0,3.869-6,0-6S85.462,580.329,89.332,580.329L89.332,580.329z"/>
			</g>
		</g>
		<g>
			<g>
				<path fill="#F7941E" d="M113.998,560.496c5.804,0,5.804-9,0-9S108.194,560.496,113.998,560.496L113.998,560.496z"/>
			</g>
		</g>
		<g>
			<g>
				<path fill="#F7941E" d="M110.665,535.662c3.869,0,3.869-6,0-6S106.795,535.662,110.665,535.662L110.665,535.662z"/>
			</g>
		</g>
		<g>
			<g>
				<path fill="#F7941E" d="M129.998,578.996c3.869,0,3.869-6,0-6S126.129,578.996,129.998,578.996L129.998,578.996z"/>
			</g>
		</g>
		<g>
			<g>
				<path fill="#F7941E" d="M136.665,587.662c3.869,0,3.869-6,0-6S132.795,587.662,136.665,587.662L136.665,587.662z"/>
			</g>
		</g>
		<g>
			<g>
				<path fill="#F7941E" d="M147.332,581.662c3.869,0,3.869-6,0-6S143.462,581.662,147.332,581.662L147.332,581.662z"/>
			</g>
		</g>
	</g>
	<g>
		<g>
			<defs>
				
					<rect id="SVGID_1_" x="398.328" y="792.142" transform="matrix(-0.9999 -0.0106 0.0106 -0.9999 813.558 1615.4585)" width="25.501" height="26.844"/>
			</defs>
			<clipPath id="SVGID_2_">
				<use xlink:href="#SVGID_1_"  overflow="visible"/>
			</clipPath>
			<g clip-path="url(#SVGID_2_)">
				<defs>
					<path id="SVGID_3_" d="M402.056,810.943c-0.499,1.769-0.635,6.896-0.516,7.196c0.12,0.294,7.668,1.678,12.198-0.197
						c0,0,0.014-0.934,0.018-1.252c0.003-0.309-0.31-0.642-0.724-0.845c0.282,0.105,0.582-0.172,0.551-0.374
						c-0.058-0.348,0.046-1.002-0.346-1.057c-0.396-0.051,0.002-0.221,0.126-0.292c0.123-0.075-0.163-0.793-0.285-0.942
						c-0.125-0.148-0.071-0.518-0.142-0.865c-0.071-0.344-0.16-0.961-0.595-1.809c-0.294-0.565,0.008-3.102,0.887-4.671
						c-0.172-0.002-0.888,0.19-4.276-1.377c-1.544-0.68-3.175-2.475-3.175-2.475S402.813,808.264,402.056,810.943"/>
				</defs>
				<clipPath id="SVGID_4_">
					<use xlink:href="#SVGID_3_"  overflow="visible"/>
				</clipPath>
				
					<radialGradient id="SVGID_5_" cx="751.5" cy="632" r="1" gradientTransform="matrix(6.2339 9.6079 9.6079 -6.2339 -10353.5225 -2478.855)" gradientUnits="userSpaceOnUse">
					<stop  offset="0" style="stop-color:#414042"/>
					<stop  offset="0.051" style="stop-color:#414042"/>
					<stop  offset="0.2279" style="stop-color:#3B3A3B"/>
					<stop  offset="1" style="stop-color:#252122"/>
				</radialGradient>
				<polygon clip-path="url(#SVGID_4_)" fill="url(#SVGID_5_)" points="410.202,796.354 421.98,814.508 405.111,825.453 
					393.333,807.299 				"/>
			</g>
			<g clip-path="url(#SVGID_2_)">
				<defs>
					
						<rect id="SVGID_6_" x="398.327" y="792.143" transform="matrix(-0.9999 -0.0106 0.0106 -0.9999 813.5577 1615.4595)" width="25.502" height="26.843"/>
				</defs>
				<clipPath id="SVGID_7_">
					<use xlink:href="#SVGID_6_"  overflow="visible"/>
				</clipPath>
				<path clip-path="url(#SVGID_7_)" fill="#F7941E" d="M414.489,804.021c0,0-0.035,0.996-0.479,0.967
					c-0.155,0.174,0.056,0.682-0.351,0.678c-0.407-0.004,0.743,0.698-1.667,0.205c-3.741-1.062-5.67-3.142-6.533-4.1
					c0,0-0.322-0.684,0.262-0.753c0.583-0.069,0.08-0.403,0.08-0.403s-0.273-0.529,0.668-0.771
					c-0.175-0.181-0.613-0.783-0.079-0.926c0.535-0.146,0.817-0.277,0.729-0.441c0,0-0.13-0.623,0.324-0.61
					c0.978,0.779,6.521,4.693,7.85,5.624c0,0-0.309,0.042-0.46,0.347c0,0,0.011,0.188-0.166,0.187"/>
			</g>
			<g clip-path="url(#SVGID_2_)">
				<defs>
					<path id="SVGID_8_" d="M402.179,792.468c0.509,1.617,1.459,2.9,4.077,5.011c7.101,5.722,10.977,7.39,10.977,7.39
						c2.428,1.123,3.732,1.003,3.732,1.003c0.068-0.033,0.167-0.257,0.167-0.257l-18.771-13.438
						C402.311,792.246,402.302,792.267,402.179,792.468"/>
				</defs>
				<clipPath id="SVGID_9_">
					<use xlink:href="#SVGID_8_"  overflow="visible"/>
				</clipPath>
				
					<linearGradient id="SVGID_10_" gradientUnits="userSpaceOnUse" x1="751.5005" y1="632.0215" x2="752.5002" y2="632.0215" gradientTransform="matrix(9.2105 10.1814 10.1814 -9.2105 -12951.4258 -1038.2837)">
					<stop  offset="0" style="stop-color:#252122"/>
					<stop  offset="0.1807" style="stop-color:#3E3E3F"/>
					<stop  offset="0.2567" style="stop-color:#393839"/>
					<stop  offset="0.6477" style="stop-color:#231F20"/>
					<stop  offset="1" style="stop-color:#231F20"/>
				</linearGradient>
				<polygon clip-path="url(#SVGID_9_)" fill="url(#SVGID_10_)" points="412.58,782.768 427.988,799.801 410.73,815.412 
					395.322,798.38 				"/>
			</g>
			<g clip-path="url(#SVGID_2_)">
				<defs>
					<path id="SVGID_11_" d="M402.377,792.568c0.327,0.994,1.348,2.103,1.527,2.271c0,0,4.905,5.584,14.221,10.195
						c2.682,1.311,3.906,0.839,2.442-0.605c-1.467-1.445-6.472-5.953-14.263-10.477c-1.853-1.052-3.214-1.853-3.741-1.858
						C402.338,792.092,402.266,792.234,402.377,792.568"/>
				</defs>
				<clipPath id="SVGID_12_">
					<use xlink:href="#SVGID_11_"  overflow="visible"/>
				</clipPath>
				
					<radialGradient id="SVGID_13_" cx="751.5" cy="632" r="0.9997" gradientTransform="matrix(10.439 10.5144 10.5144 -10.439 -14084.3027 -511.8672)" gradientUnits="userSpaceOnUse">
					<stop  offset="0" style="stop-color:#3E3E3F"/>
					<stop  offset="0.1627" style="stop-color:#393839"/>
					<stop  offset="1" style="stop-color:#231F20"/>
				</radialGradient>
				<polygon clip-path="url(#SVGID_12_)" fill="url(#SVGID_13_)" points="412.187,782.242 429.128,799.306 412.106,816.206 
					395.165,799.143 				"/>
			</g>
			<g clip-path="url(#SVGID_2_)">
				<defs>
					
						<rect id="SVGID_14_" x="398.327" y="792.143" transform="matrix(-0.9999 -0.0106 0.0106 -0.9999 813.5577 1615.4595)" width="25.502" height="26.843"/>
				</defs>
				<clipPath id="SVGID_15_">
					<use xlink:href="#SVGID_14_"  overflow="visible"/>
				</clipPath>
				<path clip-path="url(#SVGID_15_)" d="M409.107,797.064c0,0-0.881-0.354-0.221,0.243c0.657,0.6,5.762,4.376,6.455,4.384
					c0.397,0.004-0.513-0.703-2.213-1.998C412.32,799.079,410.959,798.091,409.107,797.064"/>
			</g>
		</g>
	</g>
	<g>
		<g>
			<defs>
				
					<rect id="SVGID_16_" x="249.661" y="666.808" transform="matrix(-0.9999 -0.0106 0.0106 -0.9999 517.5668 1363.215)" width="25.501" height="26.844"/>
			</defs>
			<clipPath id="SVGID_17_">
				<use xlink:href="#SVGID_16_"  overflow="visible"/>
			</clipPath>
			<g clip-path="url(#SVGID_17_)">
				<defs>
					<path id="SVGID_18_" d="M253.389,685.609c-0.499,1.769-0.635,6.896-0.516,7.196c0.12,0.294,7.668,1.678,12.198-0.197
						c0,0,0.014-0.934,0.018-1.252c0.003-0.309-0.31-0.642-0.724-0.845c0.282,0.105,0.582-0.172,0.551-0.374
						c-0.058-0.348,0.046-1.002-0.346-1.057c-0.396-0.051,0.002-0.221,0.126-0.292c0.123-0.075-0.163-0.793-0.285-0.942
						c-0.125-0.148-0.071-0.518-0.142-0.865c-0.071-0.344-0.16-0.961-0.595-1.809c-0.294-0.565,0.008-3.102,0.887-4.671
						c-0.172-0.002-0.888,0.19-4.276-1.377c-1.544-0.68-3.175-2.475-3.175-2.475S254.146,682.93,253.389,685.609"/>
				</defs>
				<clipPath id="SVGID_19_">
					<use xlink:href="#SVGID_18_"  overflow="visible"/>
				</clipPath>
				
					<radialGradient id="SVGID_20_" cx="751.5005" cy="631.999" r="0.9998" gradientTransform="matrix(6.2339 9.6079 9.6079 -6.2339 -10502.1865 -2604.1909)" gradientUnits="userSpaceOnUse">
					<stop  offset="0" style="stop-color:#414042"/>
					<stop  offset="0.051" style="stop-color:#414042"/>
					<stop  offset="0.2279" style="stop-color:#3B3A3B"/>
					<stop  offset="1" style="stop-color:#252122"/>
				</radialGradient>
				<polygon clip-path="url(#SVGID_19_)" fill="url(#SVGID_20_)" points="261.535,671.02 273.313,689.174 256.444,700.119 
					244.666,681.965 				"/>
			</g>
			<g clip-path="url(#SVGID_17_)">
				<defs>
					
						<rect id="SVGID_21_" x="249.66" y="666.809" transform="matrix(-0.9999 -0.0106 0.0106 -0.9999 517.5665 1363.2158)" width="25.502" height="26.843"/>
				</defs>
				<clipPath id="SVGID_22_">
					<use xlink:href="#SVGID_21_"  overflow="visible"/>
				</clipPath>
				<path clip-path="url(#SVGID_22_)" fill="#F7941E" d="M265.822,678.687c0,0-0.035,0.996-0.479,0.967
					c-0.155,0.174,0.056,0.682-0.351,0.678c-0.407-0.004,0.743,0.698-1.667,0.205c-3.741-1.062-5.67-3.142-6.533-4.1
					c0,0-0.322-0.684,0.262-0.753c0.583-0.069,0.08-0.403,0.08-0.403s-0.273-0.529,0.668-0.771
					c-0.175-0.181-0.613-0.783-0.079-0.926c0.535-0.146,0.817-0.277,0.729-0.441c0,0-0.13-0.623,0.324-0.61
					c0.978,0.779,6.521,4.693,7.85,5.624c0,0-0.309,0.042-0.46,0.347c0,0,0.011,0.188-0.166,0.187"/>
			</g>
			<g clip-path="url(#SVGID_17_)">
				<defs>
					<path id="SVGID_23_" d="M253.512,667.134c0.509,1.617,1.459,2.9,4.077,5.011c7.101,5.722,10.977,7.39,10.977,7.39
						c2.428,1.123,3.732,1.003,3.732,1.003c0.068-0.033,0.167-0.257,0.167-0.257l-18.771-13.438
						C253.644,666.912,253.635,666.933,253.512,667.134"/>
				</defs>
				<clipPath id="SVGID_24_">
					<use xlink:href="#SVGID_23_"  overflow="visible"/>
				</clipPath>
				
					<linearGradient id="SVGID_25_" gradientUnits="userSpaceOnUse" x1="751.5005" y1="632.0225" x2="752.5002" y2="632.0225" gradientTransform="matrix(9.2105 10.1814 10.1814 -9.2105 -13100.0977 -1163.6177)">
					<stop  offset="0" style="stop-color:#252122"/>
					<stop  offset="0.1807" style="stop-color:#3E3E3F"/>
					<stop  offset="0.2567" style="stop-color:#393839"/>
					<stop  offset="0.6477" style="stop-color:#231F20"/>
					<stop  offset="1" style="stop-color:#231F20"/>
				</linearGradient>
				<polygon clip-path="url(#SVGID_24_)" fill="url(#SVGID_25_)" points="263.913,657.434 279.321,674.467 262.063,690.078 
					246.655,673.046 				"/>
			</g>
			<g clip-path="url(#SVGID_17_)">
				<defs>
					<path id="SVGID_26_" d="M253.71,667.234c0.327,0.994,1.348,2.103,1.527,2.271c0,0,4.905,5.584,14.221,10.195
						c2.682,1.311,3.906,0.839,2.442-0.605c-1.467-1.445-6.472-5.953-14.263-10.477c-1.853-1.052-3.214-1.853-3.741-1.858
						C253.671,666.758,253.599,666.9,253.71,667.234"/>
				</defs>
				<clipPath id="SVGID_27_">
					<use xlink:href="#SVGID_26_"  overflow="visible"/>
				</clipPath>
				
					<radialGradient id="SVGID_28_" cx="751.501" cy="632" r="0.9997" gradientTransform="matrix(10.439 10.5144 10.5144 -10.439 -14232.9746 -637.2012)" gradientUnits="userSpaceOnUse">
					<stop  offset="0" style="stop-color:#3E3E3F"/>
					<stop  offset="0.1627" style="stop-color:#393839"/>
					<stop  offset="1" style="stop-color:#231F20"/>
				</radialGradient>
				<polygon clip-path="url(#SVGID_27_)" fill="url(#SVGID_28_)" points="263.52,656.908 280.461,673.972 263.439,690.872 
					246.498,673.809 				"/>
			</g>
			<g clip-path="url(#SVGID_17_)">
				<defs>
					
						<rect id="SVGID_29_" x="249.66" y="666.809" transform="matrix(-0.9999 -0.0106 0.0106 -0.9999 517.5665 1363.2158)" width="25.502" height="26.843"/>
				</defs>
				<clipPath id="SVGID_30_">
					<use xlink:href="#SVGID_29_"  overflow="visible"/>
				</clipPath>
				<path clip-path="url(#SVGID_30_)" d="M260.44,671.73c0,0-0.881-0.354-0.221,0.243c0.657,0.6,5.762,4.376,6.455,4.384
					c0.397,0.004-0.513-0.703-2.213-1.998C263.653,673.745,262.292,672.757,260.44,671.73"/>
			</g>
		</g>
	</g>
	<g>
		<g>
			<defs>
				
					<rect id="SVGID_31_" x="184.977" y="560.121" transform="matrix(-1 -0.0071 0.0071 -1 391.3654 1148.4797)" width="25.502" height="26.844"/>
			</defs>
			<clipPath id="SVGID_32_">
				<use xlink:href="#SVGID_31_"  overflow="visible"/>
			</clipPath>
			<g clip-path="url(#SVGID_32_)">
				<defs>
					<path id="SVGID_33_" d="M188.725,578.955c-0.493,1.77-0.61,6.898-0.49,7.198c0.121,0.292,7.674,1.65,12.198-0.241
						c0,0,0.011-0.934,0.013-1.252c0.002-0.309-0.312-0.641-0.727-0.842c0.283,0.104,0.582-0.175,0.55-0.376
						c-0.06-0.348,0.042-1.003-0.35-1.056c-0.396-0.05,0.002-0.221,0.125-0.293c0.123-0.075-0.166-0.792-0.288-0.941
						c-0.126-0.147-0.072-0.518-0.145-0.864c-0.072-0.344-0.164-0.96-0.602-1.807c-0.296-0.564-0.003-3.102,0.87-4.674
						c-0.172-0.001-0.887,0.193-4.281-1.361c-1.547-0.675-3.184-2.463-3.184-2.463S189.472,576.272,188.725,578.955"/>
				</defs>
				<clipPath id="SVGID_34_">
					<use xlink:href="#SVGID_33_"  overflow="visible"/>
				</clipPath>
				
					<radialGradient id="SVGID_35_" cx="751.4995" cy="632" r="1" gradientTransform="matrix(6.2679 9.5857 9.5857 -6.2679 -10578.4336 -2672.686)" gradientUnits="userSpaceOnUse">
					<stop  offset="0" style="stop-color:#414042"/>
					<stop  offset="0.051" style="stop-color:#414042"/>
					<stop  offset="0.2279" style="stop-color:#3B3A3B"/>
					<stop  offset="1" style="stop-color:#252122"/>
				</radialGradient>
				<polygon clip-path="url(#SVGID_34_)" fill="url(#SVGID_35_)" points="196.819,564.336 208.662,582.448 191.831,593.453 
					179.988,575.342 				"/>
			</g>
			<g clip-path="url(#SVGID_32_)">
				<defs>
					
						<rect id="SVGID_36_" x="184.977" y="560.122" transform="matrix(-1 -0.0071 0.0071 -1 391.3654 1148.4807)" width="25.502" height="26.843"/>
				</defs>
				<clipPath id="SVGID_37_">
					<use xlink:href="#SVGID_36_"  overflow="visible"/>
				</clipPath>
				<path clip-path="url(#SVGID_37_)" fill="#F7941E" d="M201.133,571.987c0,0-0.032,0.996-0.476,0.969
					c-0.155,0.175,0.058,0.682-0.348,0.679c-0.407-0.003,0.745,0.696-1.666,0.211c-3.745-1.049-5.681-3.121-6.547-4.076
					c0,0-0.325-0.682,0.259-0.754c0.583-0.071,0.078-0.403,0.078-0.403s-0.275-0.528,0.666-0.774
					c-0.176-0.18-0.616-0.78-0.083-0.925c0.535-0.147,0.816-0.28,0.728-0.444c0,0-0.133-0.622,0.321-0.611
					c0.98,0.775,6.538,4.67,7.87,5.596c0,0-0.309,0.044-0.459,0.349c0,0,0.011,0.188-0.166,0.188"/>
			</g>
			<g clip-path="url(#SVGID_32_)">
				<defs>
					<path id="SVGID_38_" d="M188.782,560.479c0.515,1.615,1.47,2.896,4.095,4.997c7.122,5.696,11.003,7.35,11.003,7.35
						c2.431,1.114,3.736,0.99,3.736,0.99c0.068-0.033,0.167-0.258,0.167-0.258l-18.818-13.371
						C188.914,560.257,188.904,560.277,188.782,560.479"/>
				</defs>
				<clipPath id="SVGID_39_">
					<use xlink:href="#SVGID_38_"  overflow="visible"/>
				</clipPath>
				
					<linearGradient id="SVGID_40_" gradientUnits="userSpaceOnUse" x1="751.5005" y1="632.0205" x2="752.5002" y2="632.0205" gradientTransform="matrix(9.2465 10.1487 10.1487 -9.2465 -13171.1738 -1222.9155)">
					<stop  offset="0" style="stop-color:#252122"/>
					<stop  offset="0.1807" style="stop-color:#3E3E3F"/>
					<stop  offset="0.2567" style="stop-color:#393839"/>
					<stop  offset="0.6477" style="stop-color:#231F20"/>
					<stop  offset="1" style="stop-color:#231F20"/>
				</linearGradient>
				<polygon clip-path="url(#SVGID_39_)" fill="url(#SVGID_40_)" points="199.148,550.742 214.617,567.72 197.415,583.393 
					181.946,566.415 				"/>
			</g>
			<g clip-path="url(#SVGID_32_)">
				<defs>
					<path id="SVGID_41_" d="M188.98,560.579c0.33,0.992,1.355,2.098,1.535,2.265c0,0,4.925,5.566,14.257,10.145
						c2.687,1.302,3.909,0.825,2.439-0.613c-1.472-1.44-6.492-5.931-14.3-10.427c-1.856-1.045-3.221-1.841-3.748-1.845
						C188.94,560.102,188.869,560.245,188.98,560.579"/>
				</defs>
				<clipPath id="SVGID_42_">
					<use xlink:href="#SVGID_41_"  overflow="visible"/>
				</clipPath>
				
					<radialGradient id="SVGID_43_" cx="751.499" cy="631.999" r="1" gradientTransform="matrix(10.4761 10.4773 10.4773 -10.4761 -14302.1768 -692.4736)" gradientUnits="userSpaceOnUse">
					<stop  offset="0" style="stop-color:#3E3E3F"/>
					<stop  offset="0.1627" style="stop-color:#393839"/>
					<stop  offset="1" style="stop-color:#231F20"/>
				</radialGradient>
				<polygon clip-path="url(#SVGID_42_)" fill="url(#SVGID_43_)" points="198.754,550.218 215.755,567.221 198.793,584.182 
					181.792,567.179 				"/>
			</g>
			<g clip-path="url(#SVGID_32_)">
				<defs>
					
						<rect id="SVGID_44_" x="184.977" y="560.122" transform="matrix(-1 -0.0071 0.0071 -1 391.3654 1148.4807)" width="25.502" height="26.843"/>
				</defs>
				<clipPath id="SVGID_45_">
					<use xlink:href="#SVGID_44_"  overflow="visible"/>
				</clipPath>
				<path clip-path="url(#SVGID_45_)" d="M195.727,565.051c0,0-0.882-0.352-0.22,0.244c0.66,0.598,5.777,4.355,6.471,4.36
					c0.397,0.003-0.516-0.701-2.22-1.989C198.946,567.054,197.582,566.07,195.727,565.051"/>
			</g>
		</g>
	</g>
	<g>
		<g>
			<defs>
				<polygon id="SVGID_46_" points="314.428,787.691 338.263,775.872 338.072,802.717 314.237,814.535 				"/>
			</defs>
			<clipPath id="SVGID_47_">
				<use xlink:href="#SVGID_46_"  overflow="visible"/>
			</clipPath>
			<g clip-path="url(#SVGID_47_)">
				<defs>
					<path id="SVGID_48_" d="M317.833,804.834c-0.461,1.996-0.574,7.163-0.462,7.405c0.113,0.234,7.172-1.967,11.401-5.979
						c0,0,0.01-0.936,0.013-1.254c0.002-0.309-0.292-0.492-0.679-0.497c0.264-0.03,0.543-0.448,0.514-0.634
						c-0.055-0.318,0.04-1.02-0.326-0.888c-0.371,0.138,0.001-0.221,0.117-0.351c0.115-0.133-0.155-0.711-0.269-0.803
						c-0.117-0.088-0.067-0.481-0.135-0.793c-0.067-0.309-0.152-0.881-0.561-1.518c-0.276-0.424-0.001-3.09,0.815-5.067
						c-0.161,0.079-0.83,0.609-4,0.657c-1.446,0.055-2.975-0.957-2.975-0.957S318.532,801.809,317.833,804.834"/>
				</defs>
				<clipPath id="SVGID_49_">
					<use xlink:href="#SVGID_48_"  overflow="visible"/>
				</clipPath>
				
					<radialGradient id="SVGID_50_" cx="751.5" cy="631.999" r="1" gradientTransform="matrix(5.8539 6.6041 8.9623 -10.7577 -9744.251 2630.7744)" gradientUnits="userSpaceOnUse">
					<stop  offset="0" style="stop-color:#414042"/>
					<stop  offset="0.051" style="stop-color:#414042"/>
					<stop  offset="0.2279" style="stop-color:#3B3A3B"/>
					<stop  offset="1" style="stop-color:#252122"/>
				</radialGradient>
				<polygon clip-path="url(#SVGID_49_)" fill="url(#SVGID_50_)" points="325.404,786.456 336.465,798.935 320.729,817.822 
					309.668,805.344 				"/>
			</g>
			<g clip-path="url(#SVGID_47_)">
				<defs>
					<polygon id="SVGID_51_" points="314.428,787.692 338.263,775.873 338.072,802.717 314.237,814.535 					"/>
				</defs>
				<clipPath id="SVGID_52_">
					<use xlink:href="#SVGID_51_"  overflow="visible"/>
				</clipPath>
				<path clip-path="url(#SVGID_52_)" fill="#F7941E" d="M329.433,792.052c0,0-0.031,1.008-0.445,1.188
					c-0.145,0.247,0.054,0.652-0.326,0.841s0.696,0.343-1.557,0.994c-3.5,0.717-5.308-0.438-6.117-0.981
					c0,0-0.303-0.527,0.243-0.874c0.545-0.345,0.073-0.439,0.073-0.439s-0.257-0.396,0.623-1.084
					c-0.164-0.097-0.575-0.488-0.077-0.884c0.5-0.398,0.763-0.663,0.68-0.785c0,0-0.124-0.558,0.3-0.76
					c0.916,0.312,6.109,1.578,7.353,1.874c0,0-0.289,0.188-0.43,0.562c0,0,0.011,0.183-0.154,0.265"/>
			</g>
			<g clip-path="url(#SVGID_47_)">
				<defs>
					<path id="SVGID_53_" d="M317.895,786.394c0.48,1.367,1.372,2.193,3.825,3.053c6.653,2.326,10.281,2.147,10.281,2.147
						c2.271-0.033,3.491-0.771,3.491-0.771c0.063-0.064,0.156-0.335,0.156-0.335l-17.583-4.471
						C318.018,786.11,318.009,786.135,317.895,786.394"/>
				</defs>
				<clipPath id="SVGID_54_">
					<use xlink:href="#SVGID_53_"  overflow="visible"/>
				</clipPath>
				
					<linearGradient id="SVGID_55_" gradientUnits="userSpaceOnUse" x1="751.5" y1="632.0215" x2="752.4997" y2="632.0215" gradientTransform="matrix(8.6376 5.7636 9.4898 -13.9912 -12168.2793 5295.7759)">
					<stop  offset="0" style="stop-color:#252122"/>
					<stop  offset="0.1807" style="stop-color:#3E3E3F"/>
					<stop  offset="0.2567" style="stop-color:#393839"/>
					<stop  offset="0.6477" style="stop-color:#231F20"/>
					<stop  offset="1" style="stop-color:#231F20"/>
				</linearGradient>
				<polygon clip-path="url(#SVGID_54_)" fill="url(#SVGID_55_)" points="327.588,771.811 342.038,781.453 325.952,805.168 
					311.502,795.526 				"/>
			</g>
			<g clip-path="url(#SVGID_47_)">
				<defs>
					<path id="SVGID_56_" d="M318.08,786.399c0.308,0.834,1.265,1.453,1.433,1.535c0,0,4.601,3.23,13.321,3.401
						c2.51,0.033,3.653-1.017,2.28-1.76c-1.375-0.742-6.065-2.855-13.361-3.661c-1.734-0.169-3.01-0.32-3.502-0.076
						C318.042,785.943,317.976,786.119,318.08,786.399"/>
				</defs>
				<clipPath id="SVGID_57_">
					<use xlink:href="#SVGID_56_"  overflow="visible"/>
				</clipPath>
				
					<radialGradient id="SVGID_58_" cx="751.501" cy="632" r="1" gradientTransform="matrix(9.7867 5.5125 9.7976 -15.3714 -13225.6191 6356.6362)" gradientUnits="userSpaceOnUse">
					<stop  offset="0" style="stop-color:#3E3E3F"/>
					<stop  offset="0.1627" style="stop-color:#393839"/>
					<stop  offset="1" style="stop-color:#231F20"/>
				</radialGradient>
				<polygon clip-path="url(#SVGID_57_)" fill="url(#SVGID_58_)" points="327.219,771.474 343.102,780.42 327.241,805.306 
					311.358,796.36 				"/>
			</g>
			<g clip-path="url(#SVGID_47_)">
				<defs>
					<polygon id="SVGID_59_" points="314.428,787.692 338.263,775.873 338.072,802.717 314.237,814.535 					"/>
				</defs>
				<clipPath id="SVGID_60_">
					<use xlink:href="#SVGID_59_"  overflow="visible"/>
				</clipPath>
				<path clip-path="url(#SVGID_60_)" d="M324.383,787.683c0,0-0.825,0.063-0.206,0.346c0.616,0.285,5.398,1.623,6.046,1.302
					c0.371-0.185-0.482-0.456-2.075-0.938C327.392,788.163,326.117,787.824,324.383,787.683"/>
			</g>
		</g>
	</g>
	<g>
		<g>
			<defs>
				<polygon id="SVGID_61_" points="46.836,772.425 67.654,783.264 67.463,810.107 46.646,799.269 				"/>
			</defs>
			<clipPath id="SVGID_62_">
				<use xlink:href="#SVGID_61_"  overflow="visible"/>
			</clipPath>
			<g clip-path="url(#SVGID_62_)">
				<defs>
					<path id="SVGID_63_" d="M49.793,792.931c-0.405,1.57-0.507,6.665-0.41,7.016c0.098,0.344,6.262,4.862,9.958,4.856
						c0,0,0.01-0.933,0.012-1.251c0.002-0.309-0.254-0.773-0.592-1.148c0.23,0.223,0.475,0.068,0.449-0.147
						c-0.048-0.374,0.036-0.987-0.284-1.204c-0.324-0.216,0.001-0.221,0.103-0.242c0.1-0.023-0.135-0.863-0.234-1.064
						c-0.103-0.2-0.059-0.549-0.117-0.928c-0.059-0.374-0.132-1.031-0.489-2.062c-0.241-0.69,0.001-3.112,0.716-4.324
						c-0.14-0.073-0.725-0.178-3.493-3.154c-1.262-1.324-2.596-3.802-2.596-3.802S50.406,790.553,49.793,792.931"/>
				</defs>
				<clipPath id="SVGID_64_">
					<use xlink:href="#SVGID_63_"  overflow="visible"/>
				</clipPath>
				
					<radialGradient id="SVGID_65_" cx="751.4995" cy="632.001" r="0.9998" gradientTransform="matrix(5.1044 12.2338 7.8336 -2.2806 -8735.8604 -6968.1372)" gradientUnits="userSpaceOnUse">
					<stop  offset="0" style="stop-color:#414042"/>
					<stop  offset="0.051" style="stop-color:#414042"/>
					<stop  offset="0.2279" style="stop-color:#3B3A3B"/>
					<stop  offset="1" style="stop-color:#252122"/>
				</radialGradient>
				<polygon clip-path="url(#SVGID_64_)" fill="url(#SVGID_65_)" points="56.419,781.651 66.064,804.768 52.31,808.771 
					42.666,785.656 				"/>
			</g>
			<g clip-path="url(#SVGID_62_)">
				<defs>
					<polygon id="SVGID_66_" points="46.836,772.426 67.654,783.265 67.463,810.107 46.646,799.269 					"/>
				</defs>
				<clipPath id="SVGID_67_">
					<use xlink:href="#SVGID_66_"  overflow="visible"/>
				</clipPath>
				<path clip-path="url(#SVGID_67_)" fill="#F7941E" d="M59.931,791.129c0,0-0.027,0.985-0.389,0.772
					c-0.126,0.11,0.046,0.708-0.285,0.535c-0.332-0.173,0.607,1.01-1.36-0.484c-3.056-2.617-4.634-5.505-5.339-6.824
					c0,0-0.264-0.819,0.212-0.648c0.477,0.173,0.065-0.372,0.065-0.372s-0.224-0.645,0.544-0.497
					c-0.143-0.254-0.502-1.041-0.066-0.963c0.437,0.075,0.667,0.06,0.595-0.142c0,0-0.108-0.68,0.263-0.479
					c0.8,1.188,5.332,7.416,6.417,8.901c0,0-0.252-0.086-0.375,0.157c0,0,0.009,0.193-0.135,0.118"/>
			</g>
			<g clip-path="url(#SVGID_62_)">
				<defs>
					<path id="SVGID_68_" d="M49.864,774.424c0.417,1.835,1.196,3.519,3.336,6.723c5.806,8.689,8.973,11.971,8.973,11.971
						c1.983,2.134,3.048,2.554,3.048,2.554c0.056-0.005,0.137-0.188,0.137-0.188l-15.346-21.276
						C49.971,774.257,49.964,774.273,49.864,774.424"/>
				</defs>
				<clipPath id="SVGID_69_">
					<use xlink:href="#SVGID_68_"  overflow="visible"/>
				</clipPath>
				
					<linearGradient id="SVGID_70_" gradientUnits="userSpaceOnUse" x1="751.5" y1="632.0215" x2="752.4997" y2="632.0215" gradientTransform="matrix(7.5352 14.0432 8.2971 -5.0328 -10854.3809 -6597.5918)">
					<stop  offset="0" style="stop-color:#252122"/>
					<stop  offset="0.1807" style="stop-color:#3E3E3F"/>
					<stop  offset="0.2567" style="stop-color:#393839"/>
					<stop  offset="0.6477" style="stop-color:#231F20"/>
					<stop  offset="1" style="stop-color:#231F20"/>
				</linearGradient>
				<polygon clip-path="url(#SVGID_69_)" fill="url(#SVGID_70_)" points="58.339,768.99 70.945,792.483 56.881,801.014 
					44.275,777.521 				"/>
			</g>
			<g clip-path="url(#SVGID_62_)">
				<defs>
					<path id="SVGID_71_" d="M50.025,774.607c0.268,1.134,1.104,2.67,1.25,2.913c0,0,4.013,7.642,11.626,16.133
						c2.191,2.429,3.189,2.462,1.992,0.404c-1.199-2.06-5.292-8.661-11.66-16.434c-1.514-1.824-2.627-3.192-3.057-3.416
						C49.993,774.112,49.935,774.226,50.025,774.607"/>
				</defs>
				<clipPath id="SVGID_72_">
					<use xlink:href="#SVGID_71_"  overflow="visible"/>
				</clipPath>
				
					<radialGradient id="SVGID_73_" cx="751.499" cy="631.998" r="1" gradientTransform="matrix(8.5386 14.8867 8.567 -6.1288 -11778.3652 -6538.2471)" gradientUnits="userSpaceOnUse">
					<stop  offset="0" style="stop-color:#3E3E3F"/>
					<stop  offset="0.1627" style="stop-color:#393839"/>
					<stop  offset="1" style="stop-color:#231F20"/>
				</radialGradient>
				<polygon clip-path="url(#SVGID_72_)" fill="url(#SVGID_73_)" points="58.018,768.3 71.875,792.459 58.006,802.382 
					44.148,778.223 				"/>
			</g>
			<g clip-path="url(#SVGID_62_)">
				<defs>
					<polygon id="SVGID_74_" points="46.836,772.426 67.654,783.265 67.463,810.107 46.646,799.269 					"/>
				</defs>
				<clipPath id="SVGID_75_">
					<use xlink:href="#SVGID_74_"  overflow="visible"/>
				</clipPath>
				<path clip-path="url(#SVGID_75_)" d="M55.527,781.912c0,0-0.72-0.722-0.179,0.152c0.537,0.875,4.71,6.783,5.276,7.078
					c0.324,0.169-0.42-0.919-1.81-2.923C58.153,785.267,57.041,783.71,55.527,781.912"/>
			</g>
		</g>
	</g>
</g>
<g id="Ebene_3_1_">
	<g>
		<g>
			<path fill="#F7941E" d="M1506.001,264.97c3.869,0,3.869-6,0-6S1502.132,264.97,1506.001,264.97L1506.001,264.97z"/>
		</g>
	</g>
	<g>
		<g>
			<path fill="#F7941E" d="M1496.001,257.97c3.869,0,3.869-6,0-6S1492.132,257.97,1496.001,257.97L1496.001,257.97z"/>
		</g>
	</g>
	<g>
		<g>
			<path fill="#F7941E" d="M1493.001,260.637c3.869,0,3.869-6,0-6S1489.132,260.637,1493.001,260.637L1493.001,260.637z"/>
		</g>
	</g>
	<g>
		<g>
			<path fill="#F7941E" d="M1480.335,259.304c3.869,0,3.869-6,0-6S1476.466,259.304,1480.335,259.304L1480.335,259.304z"/>
		</g>
	</g>
	<g>
		<g>
			<path fill="#F7941E" d="M1475.335,260.637c3.869,0,3.869-6,0-6S1471.466,260.637,1475.335,260.637L1475.335,260.637z"/>
		</g>
	</g>
	<g>
		<g>
			<path fill="#F7941E" d="M1467.001,259.97c3.869,0,3.869-6,0-6S1463.132,259.97,1467.001,259.97L1467.001,259.97z"/>
		</g>
	</g>
	<g>
		<g>
			<path fill="#F7941E" d="M1482.667,261.304c3.869,0,3.869-6,0-6S1478.798,261.304,1482.667,261.304L1482.667,261.304z"/>
		</g>
	</g>
	<g>
		<g>
			<path fill="#F7941E" d="M1531.335,267.304c3.869,0,3.869-6,0-6S1527.466,267.304,1531.335,267.304L1531.335,267.304z"/>
		</g>
	</g>
	<g>
		<g>
			<path fill="#F7941E" d="M1533.335,269.97c3.869,0,3.869-6,0-6S1529.466,269.97,1533.335,269.97L1533.335,269.97z"/>
		</g>
	</g>
	<g>
		<g>
			<path fill="#F7941E" d="M1535.667,269.97c3.869,0,3.869-6,0-6S1531.798,269.97,1535.667,269.97L1535.667,269.97z"/>
		</g>
	</g>
	<g>
		<g>
			<path fill="#F7941E" d="M1539.335,272.637c3.869,0,3.869-6,0-6S1535.466,272.637,1539.335,272.637L1539.335,272.637z"/>
		</g>
	</g>
	<g>
		<g>
			<path fill="#F7941E" d="M1548.001,275.97c3.869,0,3.869-6,0-6S1544.132,275.97,1548.001,275.97L1548.001,275.97z"/>
		</g>
	</g>
	<g>
		<g>
			<path fill="#F7941E" d="M1551.667,278.637c3.869,0,3.869-6,0-6S1547.798,278.637,1551.667,278.637L1551.667,278.637z"/>
		</g>
	</g>
	<g>
		<g>
			<path fill="#F7941E" d="M1557.667,281.637c3.869,0,3.869-6,0-6S1553.798,281.637,1557.667,281.637L1557.667,281.637z"/>
		</g>
	</g>
	<g>
		<g>
			<path fill="#F7941E" d="M1560.001,283.637c3.869,0,3.869-6,0-6S1556.132,283.637,1560.001,283.637L1560.001,283.637z"/>
		</g>
	</g>
	<g>
		<g>
			<path fill="#F7941E" d="M1565.335,287.304c3.869,0,3.869-6,0-6S1561.466,287.304,1565.335,287.304L1565.335,287.304z"/>
		</g>
	</g>
	<g>
		<g>
			<path fill="#F7941E" d="M1570.335,289.97c3.869,0,3.869-6,0-6S1566.466,289.97,1570.335,289.97L1570.335,289.97z"/>
		</g>
	</g>
	<g>
		<g>
			<path fill="#F7941E" d="M1573.667,290.97c3.869,0,3.869-6,0-6S1569.798,290.97,1573.667,290.97L1573.667,290.97z"/>
		</g>
	</g>
	<g>
		<g>
			<path fill="#F7941E" d="M1576.667,292.97c3.869,0,3.869-6,0-6S1572.798,292.97,1576.667,292.97L1576.667,292.97z"/>
		</g>
	</g>
	<g>
		<g>
			<path fill="#F7941E" d="M1579.667,294.637c3.869,0,3.869-6,0-6S1575.798,294.637,1579.667,294.637L1579.667,294.637z"/>
		</g>
	</g>
	<g>
		<g>
			<path fill="#F7941E" d="M1519.667,266.304c3.869,0,3.869-6,0-6S1515.798,266.304,1519.667,266.304L1519.667,266.304z"/>
		</g>
	</g>
	<g>
		<g>
			<path fill="#F7941E" d="M1525.001,266.637c3.869,0,3.869-6,0-6S1521.132,266.637,1525.001,266.637L1525.001,266.637z"/>
		</g>
	</g>
	<g>
		<g>
			<path fill="#F7941E" d="M1525.335,263.97c3.869,0,3.869-6,0-6S1521.466,263.97,1525.335,263.97L1525.335,263.97z"/>
		</g>
	</g>
	<g>
		<g>
			<path fill="#F7941E" d="M1516.667,263.97c3.869,0,3.869-6,0-6S1512.798,263.97,1516.667,263.97L1516.667,263.97z"/>
		</g>
	</g>
	<g>
		<g>
			<path fill="#F7941E" d="M1510.001,261.97c3.869,0,3.869-6,0-6S1506.132,261.97,1510.001,261.97L1510.001,261.97z"/>
		</g>
	</g>
	<g>
		<g>
			<path fill="#F7941E" d="M1502.667,259.97c3.869,0,3.869-6,0-6S1498.798,259.97,1502.667,259.97L1502.667,259.97z"/>
		</g>
	</g>
	<g>
		<g>
			<path fill="#F7941E" d="M1497.335,262.637c3.869,0,3.869-6,0-6S1493.466,262.637,1497.335,262.637L1497.335,262.637z"/>
		</g>
	</g>
	<g>
		<g>
			<path fill="#F7941E" d="M1512.667,264.97c3.869,0,3.869-6,0-6S1508.798,264.97,1512.667,264.97L1512.667,264.97z"/>
		</g>
	</g>
	<g>
		<g>
			<path fill="#F7941E" d="M1489.667,256.304c3.869,0,3.869-6,0-6S1485.798,256.304,1489.667,256.304L1489.667,256.304z"/>
		</g>
	</g>
	<g>
		<g>
			<path fill="#F7941E" d="M1482.001,254.97c3.869,0,3.869-6,0-6S1478.132,254.97,1482.001,254.97L1482.001,254.97z"/>
		</g>
	</g>
	<g>
		<g>
			<path fill="#F7941E" d="M1490.335,262.97c3.869,0,3.869-6,0-6S1486.466,262.97,1490.335,262.97L1490.335,262.97z"/>
		</g>
	</g>
	<g>
		<g>
			<path fill="#F7941E" d="M1652.001,161.97c3.869,0,3.869-6,0-6S1648.132,161.97,1652.001,161.97L1652.001,161.97z"/>
		</g>
	</g>
	<g>
		<g>
			<path fill="#F7941E" d="M1665.334,170.97c3.869,0,3.869-6,0-6S1661.465,170.97,1665.334,170.97L1665.334,170.97z"/>
		</g>
	</g>
	<g>
		<g>
			<path fill="#F7941E" d="M1671.668,175.97c3.869,0,3.869-6,0-6S1667.799,175.97,1671.668,175.97L1671.668,175.97z"/>
		</g>
	</g>
	<g>
		<g>
			<path fill="#F7941E" d="M1666.668,167.97c3.869,0,3.869-6,0-6S1662.799,167.97,1666.668,167.97L1666.668,167.97z"/>
		</g>
	</g>
	<g>
		<g>
			<path fill="#F7941E" d="M1657.001,161.97c3.869,0,3.869-6,0-6S1653.132,161.97,1657.001,161.97L1657.001,161.97z"/>
		</g>
	</g>
	<g>
		<g>
			<path fill="#F7941E" d="M1658.334,155.137c5.804,0,5.804-9,0-9S1652.53,155.137,1658.334,155.137L1658.334,155.137z"/>
		</g>
	</g>
	<g>
		<g>
			<path fill="#F7941E" d="M1638.668,150.637c3.869,0,3.869-6,0-6S1634.799,150.637,1638.668,150.637L1638.668,150.637z"/>
		</g>
	</g>
	<g>
		<g>
			<path fill="#F7941E" d="M1643.668,153.97c3.869,0,3.869-6,0-6S1639.799,153.97,1643.668,153.97L1643.668,153.97z"/>
		</g>
	</g>
	<g>
		<g>
			<path fill="#F7941E" d="M1629.334,141.637c3.869,0,3.869-6,0-6S1625.465,141.637,1629.334,141.637L1629.334,141.637z"/>
		</g>
	</g>
	<g>
		<g>
			<path fill="#F7941E" d="M1615.001,129.804c5.804,0,5.804-9,0-9S1609.197,129.804,1615.001,129.804L1615.001,129.804z"/>
		</g>
	</g>
	<g>
		<g>
			<path fill="#F7941E" d="M1606.335,125.304c3.869,0,3.869-6,0-6S1602.466,125.304,1606.335,125.304L1606.335,125.304z"/>
		</g>
	</g>
	<g>
		<g>
			<path fill="#F7941E" d="M1586.001,121.637c3.869,0,3.869-6,0-6S1582.132,121.637,1586.001,121.637L1586.001,121.637z"/>
		</g>
	</g>
	<g>
		<g>
			<path fill="#F7941E" d="M1585.667,118.637c3.869,0,3.869-6,0-6S1581.798,118.637,1585.667,118.637L1585.667,118.637z"/>
		</g>
	</g>
	<g>
		<g>
			<path fill="#F7941E" d="M1572.667,116.637c3.869,0,3.869-6,0-6S1568.798,116.637,1572.667,116.637L1572.667,116.637z"/>
		</g>
	</g>
	<g>
		<g>
			<path fill="#F7941E" d="M1562.001,115.304c3.869,0,3.869-6,0-6S1558.132,115.304,1562.001,115.304L1562.001,115.304z"/>
		</g>
	</g>
	<g>
		<g>
			<path fill="#F7941E" d="M1673.001,158.304c3.869,0,3.869-6,0-6S1669.132,158.304,1673.001,158.304L1673.001,158.304z"/>
		</g>
	</g>
	<g>
		<g>
			<path fill="#F7941E" d="M1680.668,183.97c3.869,0,3.869-6,0-6S1676.799,183.97,1680.668,183.97L1680.668,183.97z"/>
		</g>
	</g>
	<g>
		<g>
			<path fill="#F7941E" d="M1687.001,187.637c3.869,0,3.869-6,0-6S1683.132,187.637,1687.001,187.637L1687.001,187.637z"/>
		</g>
	</g>
	<g>
		<g>
			<path fill="#F7941E" d="M1692.668,185.804c5.804,0,5.804-9,0-9S1686.864,185.804,1692.668,185.804L1692.668,185.804z"/>
		</g>
	</g>
	<g>
		<g>
			<path fill="#F7941E" d="M1697.001,191.637c3.869,0,3.869-6,0-6S1693.132,191.637,1697.001,191.637L1697.001,191.637z"/>
		</g>
	</g>
	<g>
		<g>
			<path fill="#F7941E" d="M1703.334,197.304c3.869,0,3.869-6,0-6S1699.465,197.304,1703.334,197.304L1703.334,197.304z"/>
		</g>
	</g>
	<g>
		<g>
			<path fill="#F7941E" d="M1681.334,172.97c3.869,0,3.869-6,0-6S1677.465,172.97,1681.334,172.97L1681.334,172.97z"/>
		</g>
	</g>
	
		<path fill="#FFFFFF" stroke="#000000" stroke-width="2" stroke-linecap="round" stroke-linejoin="round" stroke-miterlimit="10" d="
		M1532.001,261.471c0,0-74.5-17.5-79-17.5c8.5-20.5,61.5-125,64-127c17.5,0.5,82,3,82,3"/>
	
		<path fill="#FFFFFF" stroke="#000000" stroke-width="2" stroke-linecap="round" stroke-linejoin="round" stroke-miterlimit="10" d="
		M1726.001,213.471c0,0-119-85.5-127-93.5c-10,19-67,141.5-67,141.5l107.5,65c0,0,29.5,15.5,32.5,16.5
		S1726.001,213.471,1726.001,213.471z"/>
	
		<path fill="#FFFFFF" stroke="#000000" stroke-width="2" stroke-linecap="round" stroke-linejoin="round" stroke-miterlimit="10" d="
		M1528.001,265.971c0,0-63.5-8.5-67-7c-9.5,18.5-56,121.5-56,121.5s49,26.5,53,28.5"/>
	
		<path fill="#FFFFFF" stroke="#000000" stroke-width="2" stroke-linecap="round" stroke-linejoin="round" stroke-miterlimit="10" d="
		M1672.001,344.971c0,0-134.5-77.5-144-79c-18.5,30.5-70,143-70,143s158.5,66.503,163,65.503
		C1633.001,449.474,1672.001,346.971,1672.001,344.971z"/>
	<g>
		<g>
			<defs>
				
					<rect id="SVGID_76_" x="1487.339" y="384.799" transform="matrix(-0.9149 -0.4036 0.4036 -0.9149 2711.8296 1368.0327)" width="25.502" height="26.845"/>
			</defs>
			<clipPath id="SVGID_77_">
				<use xlink:href="#SVGID_76_"  overflow="visible"/>
			</clipPath>
			<g clip-path="url(#SVGID_77_)">
				<defs>
					<path id="SVGID_78_" d="M1489.678,399.613c-1.155,1.429-3.3,6.089-3.309,6.412c-0.005,0.317,6.388,4.562,11.29,4.623
						c0,0,0.381-0.853,0.509-1.144c0.125-0.283-0.032-0.712-0.332-1.062c0.218,0.208,0.603,0.071,0.653-0.126
						c0.084-0.343,0.437-0.904,0.099-1.107c-0.345-0.203,0.089-0.202,0.23-0.219c0.143-0.021,0.162-0.793,0.109-0.979
						c-0.057-0.185,0.14-0.503,0.211-0.851c0.07-0.344,0.231-0.946,0.165-1.896c-0.047-0.636,1.229-2.848,2.655-3.944
						c-0.158-0.07-0.892-0.175-3.389-2.95c-1.151-1.234-1.944-3.525-1.944-3.525S1491.429,397.448,1489.678,399.613"/>
				</defs>
				<clipPath id="SVGID_79_">
					<use xlink:href="#SVGID_78_"  overflow="visible"/>
				</clipPath>
				
					<radialGradient id="SVGID_80_" cx="751.4985" cy="631.999" r="1" gradientTransform="matrix(1.9461 11.2866 11.2866 -1.9461 -7100.9805 -6860.2905)" gradientUnits="userSpaceOnUse">
					<stop  offset="0" style="stop-color:#414042"/>
					<stop  offset="0.051" style="stop-color:#414042"/>
					<stop  offset="0.2279" style="stop-color:#3B3A3B"/>
					<stop  offset="1" style="stop-color:#252122"/>
				</radialGradient>
				<polygon clip-path="url(#SVGID_79_)" fill="url(#SVGID_80_)" points="1502.911,389.41 1506.588,410.736 1486.771,414.153 
					1483.095,392.828 				"/>
			</g>
			<g clip-path="url(#SVGID_77_)">
				<defs>
					
						<rect id="SVGID_81_" x="1487.338" y="384.8" transform="matrix(-0.9149 -0.4036 0.4036 -0.9149 2711.8435 1368.0146)" width="25.502" height="26.844"/>
				</defs>
				<clipPath id="SVGID_82_">
					<use xlink:href="#SVGID_81_"  overflow="visible"/>
				</clipPath>
				<path clip-path="url(#SVGID_82_)" fill="#F7941E" d="M1503.832,398.146c0,0-0.425,0.901-0.821,0.7
					c-0.211,0.099-0.218,0.649-0.589,0.485c-0.372-0.165,0.407,0.934-1.612-0.468c-3.021-2.45-3.975-5.121-4.391-6.341
					c0,0-0.026-0.755,0.537-0.589c0.564,0.167,0.232-0.339,0.232-0.339s-0.042-0.594,0.919-0.446
					c-0.09-0.235-0.255-0.961,0.292-0.882c0.549,0.077,0.86,0.067,0.844-0.119c0,0,0.125-0.624,0.537-0.433
					c0.592,1.101,4.146,6.882,5.001,8.26c0,0-0.301-0.083-0.56,0.137c0,0-0.064,0.178-0.227,0.106"/>
			</g>
			<g clip-path="url(#SVGID_77_)">
				<defs>
					<path id="SVGID_83_" d="M1497.066,382.679c-0.169,1.687,0.199,3.241,1.774,6.211c4.273,8.056,7.18,11.116,7.18,11.116
						c1.789,1.988,3.035,2.391,3.035,2.391c0.075-0.003,0.255-0.17,0.255-0.17l-11.961-19.745
						C1497.275,382.527,1497.259,382.542,1497.066,382.679"/>
				</defs>
				<clipPath id="SVGID_84_">
					<use xlink:href="#SVGID_83_"  overflow="visible"/>
				</clipPath>
				
					<linearGradient id="SVGID_85_" gradientUnits="userSpaceOnUse" x1="751.501" y1="632.0215" x2="752.5007" y2="632.0215" gradientTransform="matrix(4.4562 12.986 12.986 -4.4562 -10056.2656 -6559.3115)">
					<stop  offset="0" style="stop-color:#252122"/>
					<stop  offset="0.1807" style="stop-color:#3E3E3F"/>
					<stop  offset="0.2567" style="stop-color:#393839"/>
					<stop  offset="0.6477" style="stop-color:#231F20"/>
					<stop  offset="1" style="stop-color:#231F20"/>
				</linearGradient>
				<polygon clip-path="url(#SVGID_84_)" fill="url(#SVGID_85_)" points="1510.447,377.859 1517.902,399.583 1495.891,407.137 
					1488.436,385.412 				"/>
			</g>
			<g clip-path="url(#SVGID_77_)">
				<defs>
					<path id="SVGID_86_" d="M1497.209,382.85c-0.091,1.042,0.411,2.463,0.51,2.688c0,0,2.309,7.065,9.057,14.972
						c1.949,2.262,3.259,2.31,2.482,0.406c-0.779-1.906-3.604-8.021-8.984-15.247c-1.288-1.697-2.225-2.969-2.707-3.182
						C1497.361,382.396,1497.239,382.499,1497.209,382.85"/>
				</defs>
				<clipPath id="SVGID_87_">
					<use xlink:href="#SVGID_86_"  overflow="visible"/>
				</clipPath>
				
					<radialGradient id="SVGID_88_" cx="751.5" cy="632" r="1" gradientTransform="matrix(5.4543 13.7759 13.7759 -5.4543 -11304.9141 -6521.6094)" gradientUnits="userSpaceOnUse">
					<stop  offset="0" style="stop-color:#3E3E3F"/>
					<stop  offset="0.1627" style="stop-color:#393839"/>
					<stop  offset="1" style="stop-color:#231F20"/>
				</radialGradient>
				<polygon clip-path="url(#SVGID_87_)" fill="url(#SVGID_88_)" points="1510.293,377.221 1519.146,399.578 1496.843,408.409 
					1487.991,386.052 				"/>
			</g>
			<g clip-path="url(#SVGID_77_)">
				<defs>
					
						<rect id="SVGID_89_" x="1487.338" y="384.8" transform="matrix(-0.9149 -0.4036 0.4036 -0.9149 2711.8435 1368.0146)" width="25.502" height="26.844"/>
				</defs>
				<clipPath id="SVGID_90_">
					<use xlink:href="#SVGID_89_"  overflow="visible"/>
				</clipPath>
				<path clip-path="url(#SVGID_90_)" d="M1501.625,389.633c0,0-0.67-0.673-0.299,0.136c0.368,0.811,3.573,6.292,4.207,6.572
					c0.363,0.16-0.195-0.848-1.248-2.708C1503.785,392.75,1502.923,391.305,1501.625,389.633"/>
			</g>
		</g>
	</g>
	<g>
		<path d="M1446.668,409.638c0,0,4.333,0.667,5.667,2.667c1.333,2,4.333,3,4.333,3s2.333,2.668,3.667,2
			c1.333-0.666,3.666,2.668,8-3.333c-7.667-4.333-25.334-12.333-25.334-12.333S1443.001,409.638,1446.668,409.638z"/>
		<path d="M1744.001,767.224c-2.25,1.5-2.5,0.25-2.5-2.75S1628.085,625.39,1625.585,621.39c-0.572-1.455-2.012-16.688-1.822-24.699
			c4.332,6.127,9.076,10.613,14.238,12.615c-3.166-14.393-7.948-38.73-11.824-61.902c1.58-26.223,3.157-55.559,3.157-62.096
			c0.346-0.98,2.398-3.664,2.667-2l4,9.166c2.5,10,8.667,26.166,19,49c9.437,20.852,45.5,54,52,54.25c4.25,0.5,3.75,0.5,1.5-2.25
			s-41.167-81.916-43.167-104.166c-0.25-10.5-3.833-39.584-1.333-47.334c2.25-11.25,1.833-26.585,1.333-41.336
			c-0.5-14.75-2.833-44.917,51.417-104.167c27-28.75,42.25-32.5,37.75-44s-7-10.5-15.25-14.5s-22.75-5.75-17.25-10.5
			s19.25-8.5,21.5-9.75s4.5-3.75,4.5-3.75s-22.25,2.25-24.25,4.25c-0.968,0.968-9.953,23.708-18.972,46.924
			c-8.848,12.092-38.014,51.547-44.778,55.493c-8,4.667-112.666,68-121.333,68.667s-38.667-6-46.667-5.333s-11.5,0-11.5,0
			s-1,4.5,2.5,5.5s27.5,9.5,28,12s-11,16.001-18,18.001s-14-2-14-2s-1.5,7.502,1.5,9.502s6.5,4,6.5,4v4c0,0,3,1.5,5.5,2s1,5.5,4,6.5
			s10,2,12,2.5s20.5-6.5,23.5-10s8-16.501,8-16.501s0.5-9.501,5-12.001s6,0,6,0l1.334,2.167c0,0,110-62.666,119-72
			c3.281-3.403,6.384-6.893,9.004-9.957c-3.125,7.105-6.873,14.753-8.838,15.54l0.75,3.75c0,0-49.25,125.753-51,127.503
			c-7.5-2.25-64.916-24.834-64.916-24.834s-55.001,148.334-56.334,161c-1.333,12.668,80.168,139.666,92.834,151
			c4.666,5.334-0.535,14.766-5.5,16.334c-12.667,4-66,14-68,18.666c0,0-2.501,4-2.501,7c23-0.5,68.667-1.166,83.167-9.666
			c6.467-3.881,13.021,2.383,17.667,3.334c0.742,0.15,6.88,0.5,7.5,0.5c4.5,0,7.5,0,7.5-2.5s1.999-5.5-2-11
			c-4.999-6.875-10.167-12.834-13.167-18.334c-3-3-4.5-7.5-3-8.5s-79-132-92.5-144.5c9.5-26,58-112.5,61-126
			c1-3.5,6.334-2.334,6.334-2.334s2.928,20.479,8.829,44.91c-0.55,37.99,1.171,93.359,1.171,97.09
			c0,6,120.833,158.668,129.333,160.668c4-2.5,1.5-11.5,6-6c-2.75,11.5-21.667,31.666-21.667,31.666c-5,2-13,4.5-12.5,7.5
			s15.166,5.166,25.166,5.166s19.334-2.666,19.334-2.666c5-2.5,9.211-31.125,11-40.668
			C1758.251,770.306,1746.001,765.224,1744.001,767.224z"/>
	</g>
	<path d="M1757.579,103.007c0,0,36.555-96.139,40.812-99.136c17.805,8.24,39.671,24.476,62.734,64.505
		c-28.679,16.795-50.374,40.992-65.471,62.475C1774.259,115.432,1757.579,103.007,1757.579,103.007z"/>
	<path fill="#F7941E" d="M1727.354,145.444c0,0-3.803-5.593,0.172-4.006c3.974,1.587,2.999-1.523,3.025-3.069
		c-0.241-3.431-0.085-5.459,3.629-6.273c1.949-0.511,1.229-2.646,0.877-3.259c-0.354-0.613-1.12-2.372,2.006-3.991
		c3.127-1.619,5.434-3.458,6.413-5.654c0.978-2.196,1.976-2.058,3.489-1.909s0.474-2.721-0.121-3.398
		c-0.595-0.678-1.663-2,1.247-3.677c2.911-1.677,4.685-2.494,3.31-3.641c-0.844-0.874,0.975-2.715,1.534-3.083
		c2.375-1.346,3.152-0.705,5.641,0.309c2.005,0.817,19.965,7.726,32.908,21.708c2.352,2.54,3.728,4.109,4.629,6.854
		c0.393,1.745-0.778,5.141-3.406,6.247c-2.627,1.105-7.614,4.251-4.544,6.63c0.632,0.86-0.982,3.015-3.438,3.477
		c-2.454,0.462-1.485,3.916-1.11,4.448s0.475,1.767-1.562,2.6s-5.609,0.642-4.483,3.192c1.127,2.55,2.021,3.395-0.854,4.779
		s-2.194,1.74-1.182,2.789c1.013,1.049,1.08,1.758-0.531,2.619c-1.612,0.861-2.664,0.923-3.47,0.707
		C1770.73,169.625,1744.081,156.411,1727.354,145.444z"/>
	<path d="M1691.896,126.161c0,0,29.521,29.814,111.019,62.733c4.698,1.781,6.555-0.308-3.837-5.95
		c-10.391-5.643-21.643-11.684-29.521-14.411c-11.724-4.059-44.769-23.172-61.002-37.893
		C1701.144,124.505,1694.848,123.848,1691.896,126.161z"/>
	<g>
		<g>
			<path fill="#F7941E" d="M1494.001,268.97c3.869,0,3.869-6,0-6S1490.132,268.97,1494.001,268.97L1494.001,268.97z"/>
		</g>
	</g>
	<g>
		<g>
			<path fill="#F7941E" d="M1482.667,264.304c3.869,0,3.869-6,0-6S1478.798,264.304,1482.667,264.304L1482.667,264.304z"/>
		</g>
	</g>
	<g>
		<g>
			<path fill="#F7941E" d="M1471.335,264.304c3.869,0,3.869-6,0-6S1467.466,264.304,1471.335,264.304L1471.335,264.304z"/>
		</g>
	</g>
	<g>
		<g>
			<path fill="#F7941E" d="M1450.335,267.97c3.869,0,3.869-6,0-6S1446.466,267.97,1450.335,267.97L1450.335,267.97z"/>
		</g>
	</g>
	<g>
		<g>
			<path fill="#F7941E" d="M1437.667,280.137c5.805,0,5.805-9,0-9C1431.864,271.137,1431.864,280.137,1437.667,280.137
				L1437.667,280.137z"/>
		</g>
	</g>
	<g>
		<g>
			<path fill="#F7941E" d="M1435.335,293.137c5.803,0,5.803-9,0-9C1429.53,284.137,1429.53,293.137,1435.335,293.137
				L1435.335,293.137z"/>
		</g>
	</g>
	<g>
		<g>
			<path fill="#F7941E" d="M1421.335,295.137c5.803,0,5.803-9,0-9C1415.53,286.137,1415.53,295.137,1421.335,295.137
				L1421.335,295.137z"/>
		</g>
	</g>
	<g>
		<g>
			<path fill="#F7941E" d="M1455.335,253.637c3.869,0,3.869-6,0-6S1451.466,253.637,1455.335,253.637L1455.335,253.637z"/>
		</g>
	</g>
	<g>
		<g>
			<path fill="#F7941E" d="M1434.001,247.304c3.869,0,3.869-6,0-6S1430.132,247.304,1434.001,247.304L1434.001,247.304z"/>
		</g>
	</g>
	<g>
		<g>
			<path fill="#F7941E" d="M1442.667,228.47c5.805,0,5.805-9,0-9C1436.864,219.47,1436.864,228.47,1442.667,228.47L1442.667,228.47z
				"/>
		</g>
	</g>
	<g>
		<g>
			<path fill="#F7941E" d="M1425.667,214.637c3.869,0,3.869-6,0-6S1421.798,214.637,1425.667,214.637L1425.667,214.637z"/>
		</g>
	</g>
	<g>
		<g>
			<path fill="#F7941E" d="M1533.667,99.304c3.869,0,3.869-6,0-6S1529.798,99.304,1533.667,99.304L1533.667,99.304z"/>
		</g>
	</g>
	<g>
		<g>
			<path fill="#F7941E" d="M1562.667,126.637c3.869,0,3.869-6,0-6S1558.798,126.637,1562.667,126.637L1562.667,126.637z"/>
		</g>
	</g>
	<g>
		<g>
			<path fill="#F7941E" d="M1540.001,129.47c5.804,0,5.804-9,0-9S1534.197,129.47,1540.001,129.47L1540.001,129.47z"/>
		</g>
	</g>
	<g>
		<g>
			<path fill="#F7941E" d="M1534.335,119.137c5.803,0,5.803-9,0-9C1528.53,110.137,1528.53,119.137,1534.335,119.137
				L1534.335,119.137z"/>
		</g>
	</g>
	<g>
		<g>
			<path fill="#F7941E" d="M1511.335,112.47c5.803,0,5.803-9,0-9C1505.53,103.47,1505.53,112.47,1511.335,112.47L1511.335,112.47z"
				/>
		</g>
	</g>
	<g>
		<g>
			<path fill="#F7941E" d="M1491.667,96.637c3.869,0,3.869-6,0-6S1487.798,96.637,1491.667,96.637L1491.667,96.637z"/>
		</g>
	</g>
	<g>
		<g>
			<path fill="#F7941E" d="M1463.667,124.47c5.805,0,5.805-9,0-9C1457.864,115.47,1457.864,124.47,1463.667,124.47L1463.667,124.47z
				"/>
		</g>
	</g>
	<g>
		<g>
			<path fill="#F7941E" d="M1582.001,67.971c5.804,0,5.804-9,0-9S1576.197,67.971,1582.001,67.971L1582.001,67.971z"/>
		</g>
	</g>
	<g>
		<g>
			<path fill="#F7941E" d="M1642.501,96.471c3.869,0,3.869-6,0-6S1638.632,96.471,1642.501,96.471L1642.501,96.471z"/>
		</g>
	</g>
	<g>
		<g>
			<path fill="#F7941E" d="M1672.501,65.971c3.869,0,3.869-6,0-6S1668.632,65.971,1672.501,65.971L1672.501,65.971z"/>
		</g>
	</g>
	<g>
		<g>
			<path fill="#F7941E" d="M1644.501,36.471c3.869,0,3.869-6,0-6S1640.632,36.471,1644.501,36.471L1644.501,36.471z"/>
		</g>
	</g>
	<g>
		<g>
			<path fill="#F7941E" d="M1556.001,285.471c3.869,0,3.869-6,0-6S1552.132,285.471,1556.001,285.471L1556.001,285.471z"/>
		</g>
	</g>
	<g>
		<g>
			<path fill="#F7941E" d="M1571.001,292.471c5.804,0,5.804-9,0-9S1565.197,292.471,1571.001,292.471L1571.001,292.471z"/>
		</g>
	</g>
	<g>
		<g>
			<path fill="#F7941E" d="M1588.501,303.971c3.869,0,3.869-6,0-6S1584.632,303.971,1588.501,303.971L1588.501,303.971z"/>
		</g>
	</g>
	<g>
		<g>
			<path fill="#F7941E" d="M1595.001,317.971c3.869,0,3.869-6,0-6S1591.132,317.971,1595.001,317.971L1595.001,317.971z"/>
		</g>
	</g>
	<g>
		<g>
			<path fill="#F7941E" d="M1567.001,301.971c3.869,0,3.869-6,0-6S1563.132,301.971,1567.001,301.971L1567.001,301.971z"/>
		</g>
	</g>
	<g>
		<g>
			<path fill="#F7941E" d="M1531.001,272.471c3.869,0,3.869-6,0-6S1527.132,272.471,1531.001,272.471L1531.001,272.471z"/>
		</g>
	</g>
	<g>
		<g>
			<path fill="#F7941E" d="M1533.001,294.471c5.804,0,5.804-9,0-9S1527.197,294.471,1533.001,294.471L1533.001,294.471z"/>
		</g>
	</g>
	<g>
		<g>
			<path fill="#F7941E" d="M1513.501,276.971c3.869,0,3.869-6,0-6S1509.632,276.971,1513.501,276.971L1513.501,276.971z"/>
		</g>
	</g>
	<g>
		<g>
			<path fill="#F7941E" d="M1524.501,270.471c3.869,0,3.869-6,0-6S1520.632,270.471,1524.501,270.471L1524.501,270.471z"/>
		</g>
	</g>
	<g>
		<g>
			<path fill="#F7941E" d="M1527.001,269.471c3.869,0,3.869-6,0-6S1523.132,269.471,1527.001,269.471L1527.001,269.471z"/>
		</g>
	</g>
	<g>
		<g>
			<path fill="#F7941E" d="M1530.001,260.971c3.869,0,3.869-6,0-6S1526.132,260.971,1530.001,260.971L1530.001,260.971z"/>
		</g>
	</g>
	<g>
		<g>
			<path fill="#F7941E" d="M1518.001,244.971c3.869,0,3.869-6,0-6S1514.132,244.971,1518.001,244.971L1518.001,244.971z"/>
		</g>
	</g>
	<g>
		<g>
			<defs>
				
					<rect id="SVGID_91_" x="1557.682" y="236.789" transform="matrix(-0.8716 -0.4903 0.4903 -0.8716 2816.4619 1238.277)" width="25.501" height="26.845"/>
			</defs>
			<clipPath id="SVGID_92_">
				<use xlink:href="#SVGID_91_"  overflow="visible"/>
			</clipPath>
			<g clip-path="url(#SVGID_92_)">
				<defs>
					<path id="SVGID_93_" d="M1559.935,250.588c-1.288,1.311-3.873,5.741-3.913,6.062c-0.036,0.315,5.915,5.159,10.789,5.694
						c0,0,0.461-0.812,0.617-1.089c0.151-0.269,0.037-0.712-0.229-1.089c0.197,0.228,0.594,0.129,0.663-0.063
						c0.116-0.333,0.522-0.857,0.205-1.092c-0.323-0.236,0.108-0.192,0.251-0.196c0.145-0.006,0.238-0.773,0.204-0.963
						c-0.039-0.19,0.187-0.487,0.292-0.826c0.104-0.335,0.321-0.919,0.348-1.872c0.015-0.637,1.499-2.716,3.024-3.668
						c-0.15-0.084-0.87-0.261-3.087-3.264c-1.026-1.34-1.594-3.697-1.594-3.697S1561.887,248.603,1559.935,250.588"/>
				</defs>
				<clipPath id="SVGID_94_">
					<use xlink:href="#SVGID_93_"  overflow="visible"/>
				</clipPath>
				
					<radialGradient id="SVGID_95_" cx="751.4995" cy="631.999" r="1" gradientTransform="matrix(0.8442 11.422 11.422 -0.8442 -6287.457 -7806.9375)" gradientUnits="userSpaceOnUse">
					<stop  offset="0" style="stop-color:#414042"/>
					<stop  offset="0.051" style="stop-color:#414042"/>
					<stop  offset="0.2279" style="stop-color:#3B3A3B"/>
					<stop  offset="1" style="stop-color:#252122"/>
				</radialGradient>
				<polygon clip-path="url(#SVGID_94_)" fill="url(#SVGID_95_)" points="1574.094,241.715 1575.688,263.297 1555.634,264.779 
					1554.039,243.198 				"/>
			</g>
			<g clip-path="url(#SVGID_92_)">
				<defs>
					
						<rect id="SVGID_96_" x="1557.681" y="236.79" transform="matrix(-0.8716 -0.4903 0.4903 -0.8716 2816.479 1238.2544)" width="25.502" height="26.844"/>
				</defs>
				<clipPath id="SVGID_97_">
					<use xlink:href="#SVGID_96_"  overflow="visible"/>
				</clipPath>
				<path clip-path="url(#SVGID_97_)" fill="#F7941E" d="M1574.165,250.499c0,0-0.511,0.856-0.886,0.617
					c-0.22,0.078-0.279,0.625-0.633,0.426c-0.354-0.199,0.314,0.97-1.56-0.622c-2.77-2.731-3.46-5.482-3.756-6.736
					c0,0,0.046-0.754,0.592-0.534c0.545,0.22,0.265-0.315,0.265-0.315s0.015-0.596,0.957-0.354c-0.067-0.243-0.161-0.981,0.375-0.85
					c0.54,0.13,0.851,0.15,0.852-0.036c0,0,0.186-0.609,0.577-0.379c0.482,1.153,3.461,7.251,4.178,8.706
					c0,0-0.292-0.111-0.57,0.083c0,0-0.082,0.17-0.235,0.083"/>
			</g>
			<g clip-path="url(#SVGID_92_)">
				<defs>
					<path id="SVGID_98_" d="M1568.929,234.449c-0.332,1.663-0.115,3.245,1.164,6.354c3.474,8.432,6.069,11.758,6.069,11.758
						c1.588,2.152,2.79,2.674,2.79,2.674c0.075,0.004,0.271-0.145,0.271-0.145l-9.994-20.81
						C1569.151,234.319,1569.133,234.333,1568.929,234.449"/>
				</defs>
				<clipPath id="SVGID_99_">
					<use xlink:href="#SVGID_98_"  overflow="visible"/>
				</clipPath>
				
					<linearGradient id="SVGID_100_" gradientUnits="userSpaceOnUse" x1="751.4995" y1="632.0205" x2="752.4995" y2="632.0205" gradientTransform="matrix(3.178 13.3564 13.3564 -3.178 -9257.9941 -7793.502)">
					<stop  offset="0" style="stop-color:#252122"/>
					<stop  offset="0.1807" style="stop-color:#3E3E3F"/>
					<stop  offset="0.2567" style="stop-color:#393839"/>
					<stop  offset="0.6477" style="stop-color:#231F20"/>
					<stop  offset="1" style="stop-color:#231F20"/>
				</linearGradient>
				<polygon clip-path="url(#SVGID_99_)" fill="url(#SVGID_100_)" points="1582.713,230.948 1588.029,253.292 1565.39,258.679 
					1560.073,236.334 				"/>
			</g>
			<g clip-path="url(#SVGID_92_)">
				<defs>
					<path id="SVGID_101_" d="M1569.054,234.633c-0.191,1.028,0.17,2.492,0.247,2.725c0,0,1.614,7.255,7.564,15.778
						c1.721,2.439,3.021,2.615,2.432,0.644c-0.591-1.973-2.811-8.332-7.466-16.045c-1.118-1.813-1.927-3.17-2.386-3.429
						C1569.249,234.196,1569.117,234.287,1569.054,234.633"/>
				</defs>
				<clipPath id="SVGID_102_">
					<use xlink:href="#SVGID_101_"  overflow="visible"/>
				</clipPath>
				
					<radialGradient id="SVGID_103_" cx="751.501" cy="632" r="1" gradientTransform="matrix(4.0949 14.2393 14.2393 -4.0949 -10504.4316 -7876.877)" gradientUnits="userSpaceOnUse">
					<stop  offset="0" style="stop-color:#3E3E3F"/>
					<stop  offset="0.1627" style="stop-color:#393839"/>
					<stop  offset="1" style="stop-color:#231F20"/>
				</radialGradient>
				<polygon clip-path="url(#SVGID_102_)" fill="url(#SVGID_103_)" points="1582.621,230.298 1589.268,253.407 1566.215,260.037 
					1559.568,236.928 				"/>
			</g>
			<g clip-path="url(#SVGID_92_)">
				<defs>
					
						<rect id="SVGID_104_" x="1557.681" y="236.79" transform="matrix(-0.8716 -0.4903 0.4903 -0.8716 2816.479 1238.2544)" width="25.502" height="26.844"/>
				</defs>
				<clipPath id="SVGID_105_">
					<use xlink:href="#SVGID_104_"  overflow="visible"/>
				</clipPath>
				<path clip-path="url(#SVGID_105_)" d="M1572.792,241.812c0,0-0.602-0.735-0.31,0.107c0.287,0.842,2.946,6.608,3.551,6.948
					c0.346,0.194-0.112-0.863-0.98-2.816C1574.64,245.123,1573.923,243.602,1572.792,241.812"/>
			</g>
		</g>
	</g>
</g>
</svg>
