<?xml version="1.0" encoding="utf-8"?>
<!-- Generator: Adobe Illustrator 16.0.0, SVG Export Plug-In . SVG Version: 6.00 Build 0)  -->
<!DOCTYPE svg PUBLIC "-//W3C//DTD SVG 1.1//EN" "http://www.w3.org/Graphics/SVG/1.1/DTD/svg11.dtd">
<svg version="1.1" id="Ebene_1" xmlns="http://www.w3.org/2000/svg" xmlns:xlink="http://www.w3.org/1999/xlink" x="0px" y="0px"
	 width="325px" height="450px" viewBox="142.625 81 325 450" enable-background="new 142.625 81 325 450" xml:space="preserve">
<g id="Ebene_2_1_">
	<g id="Ebene_3_1_">
		
			<path fill="#FFFFFF" stroke="#000000" stroke-width="2" stroke-linecap="round" stroke-linejoin="round" stroke-miterlimit="10" d="
			M193.821,129.055l0.781,186.064c0,0,196.228,61.764,213.431,75.836c3.127-27.363,32.053-273.626,29.709-286.917
			C437.742,104.039,233.693,118.109,193.821,129.055z"/>
		<path d="M280.992,350.299c0,0-60.591,134.471-72.312,160.271c-13.686,2.344-8.989-3.521-8.989-3.521l79.353-164.961l13.687,5.473
			l17.59,152.844c-6.646,4.688-10.944,1.561-10.944,1.561l-12.312-154.014c0,0,2.54,156.361,5.667,175.902
			c-4.304,4.691-11.729,0-11.729,0l0.396-177.074"/>
		<path fill="none" stroke="#000000" stroke-width="2" stroke-linecap="round" stroke-linejoin="round" stroke-miterlimit="10" d="
			M411.551,387.828c0,0,33.613-276.363,28.531-283.79"/>
	</g>
	<g id="Ebene_5">
		<path fill="none" stroke="#0094AC" stroke-width="2" stroke-linecap="round" stroke-linejoin="round" stroke-miterlimit="10" d="
			M241.958,267.334c0,0-20.985,28.119-21.083,43.666c7.75,4.25,29.498,8.32,34.25,5.25c0.892-9.9-0.157-19.791,2.912-28.107
			c3.07-8.316,8.516-12.08,8.516-12.08s-8.927,11.688-9.927,21.188c-0.354,6.436,1.798,19.174,1.25,20.5
			c-4.137,0.246-21.5,3-34.5-5.5c2.73-13.668,3.477-22.326,26.245-53.713c2.183,2.871,17.13,18.02,17.427,18.311
			c0,0,0.178,1.273-0.492,0.693c-0.674-0.58-18.77-20.733-19.596-19.874c-1.284,1.336,19.35,20.317,18.503,21.06
			c-0.591,0.521-20.359-17.514-19.891-16.361c0,0-0.979-0.471,0,0.816s19.104,16.434,18.703,16.883
			c-0.938,1.041-20.935-18.96-19.982-17.397c5.594,9.156,21.325,18.626,18.447,18.04c-9.752-1.98-19.604-15.842-19.454-14.404
			c0.148,1.439,7.229,12.277,19.604,15.896"/>
		<path fill="none" stroke="#0094AC" stroke-width="2" stroke-linecap="round" stroke-linejoin="round" stroke-miterlimit="10" d="
			M281.8,285.75c-1.05,1.031-5.014-1.812-7.029-3.25c-32.871-27.426-39.957-40.974-37.479-43.833c5-4.667,57.333,46,45.354,46.251
			c-11.03-2.236-37.061-33.435-39.688-37.251c-2.628-3.811-2.479-5.897-2.479-5.897s-0.069-3.133,1.712-1.832"/>
		<g id="Ebene_6_1_">
			<g>
				<g>
					<path fill="#0194AC" d="M258.591,258.844c1.539,0,1.539-2.389,0-2.389C257.05,256.455,257.05,258.844,258.591,258.844
						L258.591,258.844z"/>
				</g>
			</g>
			<g>
				<g>
					<path fill="#0194AC" d="M264.771,246.295c1.541,0,1.541-2.389,0-2.389C263.231,243.906,263.231,246.295,264.771,246.295
						L264.771,246.295z"/>
				</g>
			</g>
			<g>
				<g>
					<path fill="#0194AC" d="M264.373,229.178c1.54,0,1.54-2.389,0-2.389S262.833,229.178,264.373,229.178L264.373,229.178z"/>
				</g>
			</g>
			<g>
				<g>
					<path fill="#0194AC" d="M245.267,209.277c1.541,0,1.541-2.389,0-2.389C243.727,206.889,243.727,209.277,245.267,209.277
						L245.267,209.277z"/>
				</g>
			</g>
			<g>
				<g>
					<path fill="#0194AC" d="M269.347,261.418c1.542,0,1.542-2.387,0-2.387C267.807,259.031,267.807,261.418,269.347,261.418
						L269.347,261.418z"/>
				</g>
			</g>
			<g>
				<g>
					<path fill="#0194AC" d="M321.092,240.92c1.541,0,1.541-2.387,0-2.387S319.551,240.92,321.092,240.92L321.092,240.92z"/>
				</g>
			</g>
			<g>
				<g>
					<path fill="#0194AC" d="M295.618,253.26c1.54,0,1.54-2.389,0-2.389C294.077,250.873,294.077,253.26,295.618,253.26
						L295.618,253.26z"/>
				</g>
			</g>
			<g>
				<g>
					<path fill="#0194AC" d="M277.905,221.219c1.54,0,1.54-2.389,0-2.389S276.365,221.219,277.905,221.219L277.905,221.219z"/>
				</g>
			</g>
			<g>
				<g>
					<path fill="#0194AC" d="M370.445,196.74c1.539,0,1.539-2.389,0-2.389C368.904,194.352,368.904,196.74,370.445,196.74
						L370.445,196.74z"/>
				</g>
			</g>
			<g>
				<g>
					<path fill="#0194AC" d="M359.072,151.51c1.541,0,1.541-2.387,0-2.387C357.533,149.123,357.533,151.51,359.072,151.51
						L359.072,151.51z"/>
				</g>
			</g>
		</g>
		
			<polyline fill="none" stroke="#0094AC" stroke-width="2" stroke-linecap="round" stroke-linejoin="round" stroke-miterlimit="10" points="
			260.292,259 297.882,194.502 306.24,218.109 390.292,140.334 377.292,141 399.625,135.334 391.958,155.334 392.953,141.883 
			303.625,223 297.958,200.667 260.292,261.667 		"/>
	</g>
</g>
</svg>
