<?xml version="1.0" encoding="utf-8"?>
<!-- Generator: Adobe Illustrator 16.0.0, SVG Export Plug-In . SVG Version: 6.00 Build 0)  -->
<!DOCTYPE svg PUBLIC "-//W3C//DTD SVG 1.1//EN" "http://www.w3.org/Graphics/SVG/1.1/DTD/svg11.dtd">
<svg version="1.1" xmlns="http://www.w3.org/2000/svg" xmlns:xlink="http://www.w3.org/1999/xlink" x="0px" y="0px"
	 width="602.667px" height="380.981px" viewBox="0 0 602.667 380.981" enable-background="new 0 0 602.667 380.981"
	 xml:space="preserve">
<g id="Ebene_10">
</g>
<g id="Ebene_4">
	<g id="Ebene_9_1_">
		<path fill="#020000" d="M39.435,247.273c0,0-22.893,49.874-28.649,71.138c-3.798,14.032-4.443,54.57-3.469,56.908
			c0.974,2.34,60.757,12.638,96.422-2.563c0,0,0.011-7.376,0.011-9.909c0-2.532-2.729-5.262-6.236-6.82
			c2.376,1.314,5.064-1.087,4.773-2.786c-0.471-2.75,0.294-7.934-2.824-8.323c-3.118-0.39,0-1.754,0.975-2.338
			c0.974-0.585-1.364-6.237-2.339-7.406c-0.974-1.169-0.584-4.093-1.169-6.82c-0.584-2.729-1.364-7.602-4.872-14.265
			c-2.347-4.455-0.195-24.521,6.626-36.994c-1.364,0-7.016,1.561-33.911-10.523C52.492,261.306,39.435,247.273,39.435,247.273z"/>
		<path fill="#F7941E" d="M106.38,261.598c0,0-0.194,7.698-3.605,7.503c-1.169,1.364,0.487,5.264-2.631,5.264
			c-3.118,0,5.75,5.358-12.765,1.753c-28.81-7.914-43.783-23.84-50.478-31.183c0,0-2.534-5.263,1.949-5.847
			c4.482-0.585,0.584-3.119,0.584-3.119s-2.144-4.093,5.067-6.042c-1.364-1.363-4.775-5.979-0.682-7.148
			c4.093-1.169,6.236-2.205,5.554-3.473c0,0-1.049-4.816,2.433-4.736c7.575,5.929,50.429,35.752,60.697,42.846
			c0,0-2.364,0.364-3.493,2.722c0,0,0.097,1.462-1.267,1.462"/>
		<path fill="#020000" d="M161.171,274.653c0,0-0.825,1.8-1.346,2.062c0,0-10.275,1.061-29.57-7.612
			c0,0-30.793-12.862-87.409-57.492c-20.873-16.454-28.486-26.537-32.645-39.272c0.954-1.604,1.026-1.763,1.418-2.333"/>
		<path fill="#020000" d="M24.038,190.949c0,0,39.25,43.724,113.298,79.389c21.309,10.135,30.922,6.313,19.229-4.99
			c-11.694-11.305-51.658-46.527-113.633-81.608c-21.049-11.693-34.161-19.37-31.172-10.622
			C14.434,180.946,22.597,189.63,24.038,190.949z"/>
		<path d="M65.356,208.091c0,0-6.988-2.729-1.726,1.949c5.262,4.677,45.935,34.105,51.423,34.105c3.118,0-4.135-5.521-17.672-15.606
			C90.937,223.737,80.091,216.044,65.356,208.091z"/>
	</g>
	<g id="Test_Cases_links">
		
			<path fill="#FFFFFF" stroke="#000000" stroke-width="2.1736" stroke-linecap="round" stroke-linejoin="round" stroke-miterlimit="10" d="
			M70.273,143.234c3.409,7.991,30.671,58.734,23.552,76.758c-1.512,4.766-5.209,4.293-14.421-9.659
			c10.604-17.849-7.33-36.411-24.871-53.868c30.155-17.883,8.234-13.824,8.234-13.824s1.793,1.808,2.916,6.536"/>
		
			<path fill="#FFFFFF" stroke="#000000" stroke-width="2.1736" stroke-linecap="round" stroke-linejoin="round" stroke-miterlimit="10" d="
			M116.667,202.402c0,0,7.823-14.836,17.578-12.169c10.422-22,35.088-61.333,54.422-67.333c0,0,8.667-18-26.667-26.667
			S106.042,190.555,116.667,202.402z"/>
		
			<path fill="#FFFFFF" stroke="#000000" stroke-width="2.1736" stroke-linecap="round" stroke-linejoin="round" stroke-miterlimit="10" d="
			M214.667,112.233c0,0,8.667-29.333,0-40c24-8.667,85.333-11.333,106,8.667c6,22,4,39.172,0,45.586
			C311.333,122.9,261.333,102.233,214.667,112.233z"/>
		
			<path fill="#FCFCFC" stroke="#000000" stroke-width="2.1736" stroke-linecap="round" stroke-linejoin="round" stroke-miterlimit="10" d="
			M402.71,137.348c36.623,0,65.363,47.885,55.018,65.218c-1.395-21.164-16.663-1.999-16.663-1.999s-4.722-49.039-68.146-45.706
			c1.081-3.961,2.914-5.802,4.735-7.997"/>
		
			<path fill="none" stroke="#000000" stroke-width="2.1736" stroke-linecap="round" stroke-linejoin="round" stroke-miterlimit="10" d="
			M450.928,192.803c0,0,4.572,3.859,6.8,9.764"/>
		
			<path fill="#FFFFFF" stroke="#000000" stroke-width="2.1736" stroke-linecap="round" stroke-linejoin="round" stroke-miterlimit="10" d="
			M312.269,130.9c0,0,5.378,15.21-8.622,26.543c56.875,6.79,126.026-31.376,124.184-42.043
			c-10.509-11.333-24.441-23.201-38.441-24.684C380.723,101.9,343.684,131.153,312.269,130.9z"/>
	</g>
	<g id="Sparcles">
		<g>
			<g>
				<path fill="#F7941E" d="M103.667,213.9c3.869,0,3.869-6,0-6S99.797,213.9,103.667,213.9L103.667,213.9z"/>
			</g>
		</g>
		<g>
			<g>
				<path fill="#F7941E" d="M107.417,168.65c3.869,0,3.869-6,0-6S103.547,168.65,107.417,168.65L107.417,168.65z"/>
			</g>
		</g>
		<g>
			<g>
				<path fill="#F7941E" d="M98.417,141.15c3.869,0,3.869-6,0-6S94.547,141.15,98.417,141.15L98.417,141.15z"/>
			</g>
		</g>
		<g>
			<g>
				<path fill="#F7941E" d="M100.167,117.4c3.869,0,3.869-6,0-6S96.297,117.4,100.167,117.4L100.167,117.4z"/>
			</g>
		</g>
		<g>
			<g>
				<path fill="#F7941E" d="M144.167,71.65c3.869,0,3.869-6,0-6S140.297,71.65,144.167,71.65L144.167,71.65z"/>
			</g>
		</g>
		<g>
			<g>
				<path fill="#F7941E" d="M51.667,70.4c3.869,0,3.869-6,0-6S47.797,70.4,51.667,70.4L51.667,70.4z"/>
			</g>
		</g>
		<g>
			<g>
				<path fill="#F7941E" d="M182.167,201.15c3.869,0,3.869-6,0-6S178.297,201.15,182.167,201.15L182.167,201.15z"/>
			</g>
		</g>
	</g>
	<g id="Ebene_8">
		
			<path fill="#FFFFFF" stroke="#000000" stroke-width="2.1736" stroke-linecap="round" stroke-linejoin="round" stroke-miterlimit="10" d="
			M250,46.9c0,0,12,29.333,11.333,32.667C282,72.9,300.667,58.901,402.667,52.234C400.667,38.9,385.333,16.9,380,14.9
			C328.667,19.567,264.667,39.567,250,46.9z"/>
		
			<path fill="#FFFFFF" stroke="#000000" stroke-width="2.1736" stroke-linecap="round" stroke-linejoin="round" stroke-miterlimit="10" d="
			M446.667,39.567c0,0,0.667,38.667,7.333,44c31.333,2,132.667,7.333,142-16.667c-10-16-20.667-28.667-20.667-28.667
			S524,52.9,446.667,39.567z"/>
		
			<path fill="#FFFFFF" stroke="#000000" stroke-width="2.1736" stroke-linecap="round" stroke-linejoin="round" stroke-miterlimit="10" d="
			M382.417,43.4l-3.75-8l-13.333,2.833c0,0,8.67,5.347-5.333,9.333c-10.833,3.083-13.917-1.25-10.583-3.917"/>
		
			<path fill="#FFFFFF" stroke="#000000" stroke-width="2.1736" stroke-linecap="round" stroke-linejoin="round" stroke-miterlimit="10" d="
			M330,30.9c0,0,6.333,12,5.667,18"/>
		
			<line fill="#FFFFFF" stroke="#000000" stroke-width="2.1736" stroke-linecap="round" stroke-linejoin="round" stroke-miterlimit="10" x1="322" y1="32.9" x2="325.667" y2="42.4"/>
		
			<path fill="#FFFFFF" stroke="#000000" stroke-width="2.1736" stroke-linecap="round" stroke-linejoin="round" stroke-miterlimit="10" d="
			M314.667,34.15c0,0,6.167,10.5,5.5,18.5"/>
		
			<path fill="#FFFFFF" stroke="#000000" stroke-width="2.1736" stroke-linecap="round" stroke-linejoin="round" stroke-miterlimit="10" d="
			M306.667,36.4c0,0,5.5,10.75,7,18.25"/>
		
			<path fill="#FFFFFF" stroke="#000000" stroke-width="2.1736" stroke-linecap="round" stroke-linejoin="round" stroke-miterlimit="10" d="
			M298.667,39.15c0,0,3.75,10.25,3.75,17"/>
		
			<path fill="#FFFFFF" stroke="#000000" stroke-width="2.1736" stroke-linecap="round" stroke-linejoin="round" stroke-miterlimit="10" d="
			M569.667,47.15c0,0,4.75,2.25,0.25,6.75s-29.75-2-29.75-2l4.5,9.5"/>
		
			<path fill="#FFFFFF" stroke="#000000" stroke-width="2.1736" stroke-linecap="round" stroke-linejoin="round" stroke-miterlimit="10" d="
			M573.417,62.15c0,0-25.443,2.753-25.25,8.75c0.25,7.75,19.312,3.116,26.75,2C584.917,71.4,585.417,61.9,573.417,62.15z"/>
		
			<path fill="#FFFFFF" stroke="#000000" stroke-width="2.1736" stroke-linecap="round" stroke-linejoin="round" stroke-miterlimit="10" d="
			M525.167,54.15c0,0,3.5,19.25,6.25,25"/>
		
			<path fill="#FFFFFF" stroke="#000000" stroke-width="2.1736" stroke-linecap="round" stroke-linejoin="round" stroke-miterlimit="10" d="
			M516.167,54.9c0,0,2.25,16.5,4.25,24"/>
		
			<path fill="#FFFFFF" stroke="#000000" stroke-width="2.1736" stroke-linecap="round" stroke-linejoin="round" stroke-miterlimit="10" d="
			M505.667,54.4c0,0,1.75,12.25,2.75,17.25"/>
		
			<path fill="#FFFFFF" stroke="#000000" stroke-width="2.1736" stroke-linecap="round" stroke-linejoin="round" stroke-miterlimit="10" d="
			M496.667,53.9c0,0,2,15,3.25,22.25"/>
		
			<path fill="#FFFFFF" stroke="#000000" stroke-width="2.1736" stroke-linecap="round" stroke-linejoin="round" stroke-miterlimit="10" d="
			M486.417,53.4c0,0-0.5,11.25,2,18.25"/>
		<path fill="none" stroke="#000000" stroke-width="2" stroke-linecap="round" stroke-linejoin="round" stroke-miterlimit="10" d="
			M142.254,124.905c0,0,3.531-8.461,10.059-3.75c6.528,4.711-14.174,18.382-18.48,25.49c3.593-1.648,6.834-0.288,9.453-0.332"/>
		<path fill="none" stroke="#000000" stroke-width="2" stroke-linecap="round" stroke-linejoin="round" stroke-miterlimit="10" d="
			M162.057,123.476l-11.488,15.65c0,0,6.106-0.267,10.069,2.8"/>
		<path fill="none" stroke="#000000" stroke-width="2" stroke-linecap="round" stroke-linejoin="round" stroke-miterlimit="10" d="
			M163.651,133.109c0,0-8.624,6.177-14.39,16.269"/>
		<path fill="none" stroke="#000000" stroke-width="2" stroke-linecap="round" stroke-linejoin="round" stroke-miterlimit="10" d="
			M126.167,159.456c0,0,16.25-4.056,20.25,0.444"/>
		<path fill="none" stroke="#000000" stroke-width="2" stroke-linecap="round" stroke-linejoin="round" stroke-miterlimit="10" d="
			M124.417,167.444c0,0,11.875-4.877,16.75,0"/>
		<path fill="none" stroke="#000000" stroke-width="2" stroke-linecap="round" stroke-linejoin="round" stroke-miterlimit="10" d="
			M122.167,177.4c0,0,11.666-8.5,14.125-3.333"/>
		<path fill="none" stroke="#000000" stroke-width="2" stroke-linecap="round" stroke-linejoin="round" stroke-miterlimit="10" d="
			M122.167,185.15c0,0,9.5-9.5,11.666-3.646"/>
		<path fill="none" stroke="#000000" stroke-width="2" stroke-linecap="round" stroke-linejoin="round" stroke-miterlimit="10" d="
			M301.667,78.4c0,0,8,7.75,0.5,10c-6.082,1.825-18.5-12.19-18.5-12.19l-0.435,11.024"/>
		<path fill="none" stroke="#000000" stroke-width="2" stroke-linecap="round" stroke-linejoin="round" stroke-miterlimit="10" d="
			M303.647,99.592c0,0,3.5,4.059,0,5.559s-7.98,0-7.23-5.25c-1,3.25-2.75,7.75-8,5s-9.25-11.083-3-12.667"/>
		<path fill="none" stroke="#000000" stroke-width="2" stroke-linecap="round" stroke-linejoin="round" stroke-miterlimit="10" d="
			M271.917,75.9c0,0,2.287,6.75-2.356,22.75"/>
		<path fill="none" stroke="#000000" stroke-width="2" stroke-linecap="round" stroke-linejoin="round" stroke-miterlimit="10" d="
			M265.167,78.15c0,0,1,2.875-0.5,8.75"/>
		<path fill="none" stroke="#000000" stroke-width="2" stroke-linecap="round" stroke-linejoin="round" stroke-miterlimit="10" d="
			M254.417,75.15c0,0,5,12.083,0,23.5"/>
		<path fill="none" stroke="#000000" stroke-width="2" stroke-linecap="round" stroke-linejoin="round" stroke-miterlimit="10" d="
			M245.417,75.15c0,0,3,11.94,0,23.5"/>
		<path fill="none" stroke="#000000" stroke-width="2" stroke-linecap="round" stroke-linejoin="round" stroke-miterlimit="10" d="
			M384.167,109.15c0,0,9.286-8.5,9.251-0.559c-0.024,5.605-24.501,11.137-24.501,11.137s4.261,2.339,4.261,4.754"/>
		<path fill="none" stroke="#000000" stroke-width="2" stroke-linecap="round" stroke-linejoin="round" stroke-miterlimit="10" d="
			M392.417,119.728c0,0,12.75-8.828,9.75,1.922c-1.834,6.572-26.417,8.457-26.417,8.457s2.708,4.844,2.417,7.241"/>
		<path fill="none" stroke="#000000" stroke-width="2" stroke-linecap="round" stroke-linejoin="round" stroke-miterlimit="10" d="
			M358.917,123.476c0,0,7.25,4.591,8.25,18.758"/>
		<path fill="none" stroke="#000000" stroke-width="2" stroke-linecap="round" stroke-linejoin="round" stroke-miterlimit="10" d="
			M351.417,126.486c0,0,6.185,10.647,5.75,18.665"/>
		<path fill="none" stroke="#000000" stroke-width="2" stroke-linecap="round" stroke-linejoin="round" stroke-miterlimit="10" d="
			M342.667,130.15c0,0,4.34,13.781,2.59,17.531"/>
		<path fill="none" stroke="#000000" stroke-width="2" stroke-linecap="round" stroke-linejoin="round" stroke-miterlimit="10" d="
			M333.917,133.186c0,0,1.75,5.99,1.25,10.214"/>
		<path fill="none" stroke="#000000" stroke-width="2" stroke-linecap="round" stroke-linejoin="round" stroke-miterlimit="10" d="
			M398.667,147.681c0,0,4.784-9.024,10.017-9.902"/>
		<path fill="none" stroke="#000000" stroke-width="2" stroke-linecap="round" stroke-linejoin="round" stroke-miterlimit="10" d="
			M408.684,149.378c0,0,2.429-9.152,7.706-9.815"/>
		<path fill="none" stroke="#000000" stroke-width="2" stroke-linecap="round" stroke-linejoin="round" stroke-miterlimit="10" d="
			M418.917,147.681c0,0,2.176-4.872,5.088-4.951"/>
		<path fill="none" stroke="#000000" stroke-width="2" stroke-linecap="round" stroke-linejoin="round" stroke-miterlimit="10" d="
			M421.831,157.234c0,0,5.4-9.345,8.743-10.589"/>
		<path fill="none" stroke="#000000" stroke-width="2" stroke-linecap="round" stroke-linejoin="round" stroke-miterlimit="10" d="
			M450.928,172.471l-1.988,7.127c0,0-4.274-12.281-12.024-19.698"/>
		<path fill="none" stroke="#000000" stroke-width="2" stroke-linecap="round" stroke-linejoin="round" stroke-miterlimit="10" d="
			M371.333,22.9c0,0,6.666,3.333-2.667,6.667s-26,2-26,2l3.333,8"/>
	</g>
</g>
<g id="Ebene_7" display="none">
	<g id="YVIQef.tif" display="inline" opacity="0.6">
		
			<image overflow="visible" width="588" height="314" id="Layer_0" xlink:href="96603C3F138137C0.png"  transform="matrix(2.2354 0 0 2.2354 -114.2891 -292.7432)">
		</image>
	</g>
</g>
</svg>
