<?xml version="1.0" encoding="utf-8"?>
<!-- Generator: Adobe Illustrator 16.0.0, SVG Export Plug-In . SVG Version: 6.00 Build 0)  -->
<!DOCTYPE svg PUBLIC "-//W3C//DTD SVG 1.1//EN" "http://www.w3.org/Graphics/SVG/1.1/DTD/svg11.dtd">
<svg version="1.1" id="Ebene_1" xmlns="http://www.w3.org/2000/svg" xmlns:xlink="http://www.w3.org/1999/xlink" x="0px" y="0px"
	 width="711px" height="531px" viewBox="-243.375 0 711 531" enable-background="new -243.375 0 711 531" xml:space="preserve">
<g id="Ebene_1_1_">
	<g id="Ebene_3">
		<path d="M-161.141,174.057c0,0-36.805,9.722,29.512,54.511c2.43,0.348,20.137,31.943,23.726,40.043
			c1.97,5.787,2.777,4.63,2.777,11.572c0,6.94-27.602,68.776-30.147,72.942c3.936,0.229,7.638-2.776,12.729-9.26
			S-103,312.5-103,312.5s-2.185,11.693-4.5,23.5c-2.312,11.807-5.554,18.979-2.083,26.617c0,0,6.539-6.051,12.558-27.575
			c0.231,8.332-17.016,137.333-18.35,144.333s-3.125,10.625-5.182,14.106c-1.943,3.394-10.315,8.407-18.188,13.729
			c-7.867,5.326-21.755,11.812-21.755,18.289c0.462,1.62,16.714-0.31,47.5-13.5c13.888,2.546,56.225,11.973,59,8.5
			c0,0-2.545-5.787-27.312-18.055c-6.48-3.015-20.112-5.917-19.188-14.945c0,0,22.489-145.894,25.5-194.5
			c0,0-2.628-32.43-4.189-35.902c0,0-15-71.823-17.597-77.592c0,0,55.094,34.181,66.487,42.258c2.019,0,7.653-5.311,5.479-7.211
			c-4.613-4.038-63.415-54.382-74.873-58.029c-4.341-1.215-5.556,0.347-7.465,1.215c-1.909,0.868-5.729-0.694-6.942-2.951
			c-1.219-2.257-0.35-3.472,1.041-4.687c1.391-1.215-9.549-9.201-14.408-10.069c4.859,8.16,27.774,46.004,30.898,88.072
			c0,0-31.938-81.013-49.529-83.328c0,0-3.241,6.366-1.332,10.879c0.868,1.909,0.348,3.992-2.951,5.555
			c-1.041,0.347-2.257,0.521-2.257,0.521s2.43,1.91,4.167,2.43c1.732,0.52,3.299,1.562,3.299,1.562"/>
		<path d="M-186.395,126.045c0,0,62.428-39.012,67.203-39.753c-1.119-2.024-14.276-1.513-21.92,3.036
			c-7.642,4.55-14.225,11.581-31.227,16.233C-182.779,113.459-191.045,125.867-186.395,126.045z"/>
		<path d="M-152.688,71.7c0,0-22.021,10.473-26.652,14.195c-6.635-14.447-32.458-42.38-41.16-44.895
			c2.22-7.11,32.238-33.144,40.203-34.221C-173.078,19.998-152.781,66.451-152.688,71.7z"/>
		<path fill="#F6931F" d="M-172.338,105.561c0,0,19.027-5.773,31.228-16.233c1.489-3.999-2.699-4.113-2.699-4.113
			s1.171-1.707-0.143-2.356c-1.312-0.649-2.103-1.695-1.39-3.463c0.713-1.77-2.766-3.654-2.766-3.654s-0.739-4.777-4.407-5.286
			c-3.667-0.509-28.948,13.278-30.12,14.985c-1.17,1.706-2.342,3.414,0.601,2.42c2.942-0.993,0.663,1.962,0.663,1.962
			s-1.172,1.708,1.057,2.483c2.23,0.776,1.646,1.63,1.911,3.069c0.271,1.439-1.487,4,1.723,4.446
			c3.209,0.445,1.847,3.527,1.847,3.527S-174.363,106.682-172.338,105.561z"/>
	</g>
	<g id="Ebene_6">
		
			<path fill="#FFFFFF" stroke="#000000" stroke-width="2" stroke-linecap="round" stroke-linejoin="round" stroke-miterlimit="10" d="
			M97.056,52.878l1.442-11.25c0,0,6.923,0,7.5,2.885c0.577,2.884-14.423,119.994-20.771,133.839
			c-6.348,13.846-57.688,40.094-77.306,49.325c-19.613,9.23-31.15,10.384-32.307,8.653c-1.153-1.731,4.615-142.493,4.615-142.493
			s1.152,3.461,17.884-0.289c16.729-3.75,91.438-30.864,107.015-46.151"/>
	</g>
	<g id="Ebene_2">
		
			<polyline fill="none" stroke="#009BA4" stroke-width="3" stroke-linecap="round" stroke-linejoin="round" stroke-miterlimit="10" points="
			7,237.001 -9.999,185.501 -14.999,178.001 -14.499,188.501 4.668,237.667 6.668,237.334 -13.166,184.834 		"/>
	</g>
	<g id="Ebene_4">
		<path d="M92.922,140.566c0,0-14.807,10.191-13.076,11.922c1.731,1.73-2.596,4.038-0.288,5.769c0,2.308-3.173,4.904,0.288,6.635
			c3.462,1.73,14.902-5.865,14.037-7.884c-0.865-2.019,1.73-2.884,0.577-5.192s3.461-4.904,1.73-6.634s-2.021-3.75-4.038-2.596"/>
		<path d="M-80.916,253.35c0,0,49.613-29.999,54.229-29.71s13.283,0.178,15.771-0.77c6.058-2.308,26.056-15.095,19.422-15.383
			c2.596-1.442,0.576-4.327-2.02-5.192c2.02-2.596,4.901-4.904,2.02-5.192c-2.885-0.288-24.509,9.166-29.71,8.365
			c-3.75-0.577-2.885-2.885-2.309-5.192c0.576-2.308-3.174-0.865-4.615,1.442c-1.441,2.308-2.309,6.058-4.037,12.115
			c0,0-42.402,24.807-53.363,27.691"/>
	</g>
</g>
<g id="Ebene_2_1_">
	<g id="Ebene_3_1_">
		
			<path fill="#FFFFFF" stroke="#000000" stroke-width="2" stroke-linecap="round" stroke-linejoin="round" stroke-miterlimit="10" d="
			M193.821,129.055l0.781,186.064c0,0,196.228,61.764,213.431,75.836c3.127-27.363,32.053-273.626,29.709-286.917
			C437.742,104.039,233.693,118.109,193.821,129.055z"/>
		<path d="M280.992,350.299c0,0-60.591,134.471-72.312,160.271c-13.686,2.344-8.989-3.521-8.989-3.521l79.353-164.961l13.687,5.473
			l17.59,152.844c-6.646,4.688-10.944,1.561-10.944,1.561l-12.312-154.014c0,0,2.54,156.361,5.667,175.902
			c-4.304,4.691-11.729,0-11.729,0l0.396-177.074"/>
		<path fill="none" stroke="#000000" stroke-width="2" stroke-linecap="round" stroke-linejoin="round" stroke-miterlimit="10" d="
			M411.551,387.828c0,0,33.613-276.363,28.531-283.79"/>
	</g>
	<g id="Ebene_5">
		<path fill="none" stroke="#0094AC" stroke-width="2" stroke-linecap="round" stroke-linejoin="round" stroke-miterlimit="10" d="
			M241.958,267.334c0,0-20.985,28.119-21.083,43.666c7.75,4.25,29.498,8.32,34.25,5.25c0.892-9.9-0.157-19.791,2.912-28.107
			c3.07-8.316,8.516-12.08,8.516-12.08s-8.927,11.688-9.927,21.188c-0.354,6.436,1.798,19.174,1.25,20.5
			c-4.137,0.246-21.5,3-34.5-5.5c2.73-13.668,3.477-22.326,26.245-53.713c2.183,2.871,17.13,18.02,17.427,18.311
			c0,0,0.178,1.273-0.492,0.693c-0.674-0.58-18.77-20.733-19.596-19.874c-1.284,1.336,19.35,20.317,18.503,21.06
			c-0.591,0.521-20.359-17.514-19.891-16.361c0,0-0.979-0.471,0,0.816s19.104,16.434,18.703,16.883
			c-0.938,1.041-20.935-18.96-19.982-17.397c5.594,9.156,21.325,18.626,18.447,18.04c-9.752-1.98-19.604-15.842-19.454-14.404
			c0.148,1.439,7.229,12.277,19.604,15.896"/>
		<path fill="none" stroke="#0094AC" stroke-width="2" stroke-linecap="round" stroke-linejoin="round" stroke-miterlimit="10" d="
			M281.8,285.75c-1.05,1.031-5.014-1.812-7.029-3.25c-32.871-27.426-39.957-40.974-37.479-43.833c5-4.667,57.333,46,45.354,46.251
			c-11.03-2.236-37.061-33.435-39.688-37.251c-2.628-3.811-2.479-5.897-2.479-5.897s-0.069-3.133,1.712-1.832"/>
		<g id="Ebene_6_1_">
			<g>
				<g>
					<path fill="#0194AC" d="M258.591,258.844c1.539,0,1.539-2.389,0-2.389C257.05,256.455,257.05,258.844,258.591,258.844
						L258.591,258.844z"/>
				</g>
			</g>
			<g>
				<g>
					<path fill="#0194AC" d="M264.771,246.295c1.541,0,1.541-2.389,0-2.389C263.231,243.906,263.231,246.295,264.771,246.295
						L264.771,246.295z"/>
				</g>
			</g>
			<g>
				<g>
					<path fill="#0194AC" d="M264.373,229.178c1.54,0,1.54-2.389,0-2.389S262.833,229.178,264.373,229.178L264.373,229.178z"/>
				</g>
			</g>
			<g>
				<g>
					<path fill="#0194AC" d="M245.267,209.277c1.541,0,1.541-2.389,0-2.389C243.727,206.889,243.727,209.277,245.267,209.277
						L245.267,209.277z"/>
				</g>
			</g>
			<g>
				<g>
					<path fill="#0194AC" d="M269.347,261.418c1.542,0,1.542-2.387,0-2.387C267.807,259.031,267.807,261.418,269.347,261.418
						L269.347,261.418z"/>
				</g>
			</g>
			<g>
				<g>
					<path fill="#0194AC" d="M321.092,240.92c1.541,0,1.541-2.387,0-2.387S319.551,240.92,321.092,240.92L321.092,240.92z"/>
				</g>
			</g>
			<g>
				<g>
					<path fill="#0194AC" d="M295.618,253.26c1.54,0,1.54-2.389,0-2.389C294.077,250.873,294.077,253.26,295.618,253.26
						L295.618,253.26z"/>
				</g>
			</g>
			<g>
				<g>
					<path fill="#0194AC" d="M277.905,221.219c1.54,0,1.54-2.389,0-2.389S276.365,221.219,277.905,221.219L277.905,221.219z"/>
				</g>
			</g>
			<g>
				<g>
					<path fill="#0194AC" d="M370.445,196.74c1.539,0,1.539-2.389,0-2.389C368.904,194.352,368.904,196.74,370.445,196.74
						L370.445,196.74z"/>
				</g>
			</g>
			<g>
				<g>
					<path fill="#0194AC" d="M359.072,151.51c1.541,0,1.541-2.387,0-2.387C357.533,149.123,357.533,151.51,359.072,151.51
						L359.072,151.51z"/>
				</g>
			</g>
		</g>
		
			<polyline fill="none" stroke="#0094AC" stroke-width="2" stroke-linecap="round" stroke-linejoin="round" stroke-miterlimit="10" points="
			260.292,259 297.882,194.502 306.24,218.109 390.292,140.334 377.292,141 399.625,135.334 391.958,155.334 392.953,141.883 
			303.625,223 297.958,200.667 260.292,261.667 		"/>
	</g>
</g>
</svg>
