<?xml version="1.0" encoding="utf-8"?>
<!-- Generator: Adobe Illustrator 16.0.0, SVG Export Plug-In . SVG Version: 6.00 Build 0)  -->
<!DOCTYPE svg PUBLIC "-//W3C//DTD SVG 1.1//EN" "http://www.w3.org/Graphics/SVG/1.1/DTD/svg11.dtd">
<svg version="1.1" xmlns="http://www.w3.org/2000/svg" xmlns:xlink="http://www.w3.org/1999/xlink" x="0px" y="0px" width="1254px"
	 height="636.92px" viewBox="0 0 1254 636.92" enable-background="new 0 0 1254 636.92" xml:space="preserve">
<g id="Ebene_2">
	<path fill="none" stroke="#000000" stroke-width="2" stroke-linecap="round" stroke-linejoin="round" stroke-miterlimit="10" d="
		M928.098,108c0,0-2.453,16.972-4.627,15.784c-2.172-1.188-12.385-2.281-12.385-2.281l-3.176,17.009l-7.989-2.636l-3.042,22.129
		l-6.227-5.377l-1.555,20.38c0,0-9.133-46.073-8.969-56.491"/>
	<path fill="none" stroke="#000000" stroke-width="2" stroke-linecap="round" stroke-linejoin="round" stroke-miterlimit="10" d="
		M934.492,90.372c0,0-57.345,12.613-61.871,15.265c0.961,25.461,13.582,81.447,14.68,83.038c9.876-1.591,57.066-6.247,60.359-5.716
		C944.367,158.558,934.492,90.372,934.492,90.372z"/>
	<path fill="none" stroke="#000000" stroke-width="2" stroke-linecap="round" stroke-linejoin="round" stroke-miterlimit="10" d="
		M940.476,132.694c0,0,12.794-1.452,16.636,1.2c-0.549,10.079-0.129,71.628-0.129,71.628l-55.387-1.747l0.545-16.119"/>
	<path fill="none" stroke="#000000" stroke-width="2" stroke-linecap="round" stroke-linejoin="round" stroke-miterlimit="10" d="
		M1042.59,132.694l-55.971,3.183l4.025,76.377l55.16-1.052C1045.805,211.202,1047.53,135.346,1042.59,132.694z"/>
	<path fill="none" stroke="#000000" stroke-width="2" stroke-linecap="round" stroke-linejoin="round" stroke-miterlimit="10" d="
		M1054.449,172.474l2.824,47.987h81.599c0,0-5.04-44.27-6.136-47.453C1132.012,170.898,1065.646,168.219,1054.449,172.474z"/>
	<path fill="none" stroke="#000000" stroke-width="2" stroke-linecap="round" stroke-linejoin="round" stroke-miterlimit="10" d="
		M1138.121,212.253l-0.447-46.587c0,0-67.756,0.811-75.686,2.316"/>
	
		<polyline fill="none" stroke="#000000" stroke-width="2" stroke-linecap="round" stroke-linejoin="round" stroke-miterlimit="10" points="
		1123.247,220.461 1054.449,226.297 1049.332,177.783 1054.641,177.783 	"/>
	
		<line fill="none" stroke="#000000" stroke-width="2" stroke-linecap="round" stroke-linejoin="round" stroke-miterlimit="10" x1="1046.097" y1="193.952" x2="1049.877" y2="193.952"/>
	<path fill="none" stroke="#000000" stroke-width="2" stroke-linecap="round" stroke-linejoin="round" stroke-miterlimit="10" d="
		M1082.344,166.156c0,0-4.512-57.863-3.752-60.515c0.76-2.652-61.641,0-61.641,0l3.843,26.656"/>
	
		<polyline fill="none" stroke="#000000" stroke-width="2" stroke-linecap="round" stroke-linejoin="round" stroke-miterlimit="10" points="
		939.059,121.503 988.441,121.503 988.255,135.502 	"/>
	<path fill="none" stroke="#000000" stroke-width="2" stroke-linecap="round" stroke-linejoin="round" stroke-miterlimit="10" d="
		M956.891,188.625c0,0,28.362-0.931,31.193,0"/>
	<path fill="none" stroke="#000000" stroke-width="2" stroke-linecap="round" stroke-linejoin="round" stroke-miterlimit="10" d="
		M73.748,121.911c0,0-7.999,79.539-9.712,80.312c13.603,1.992,54.115,4.315,54.115,4.315s11.849-79.393,8.367-84.055
		C113.317,122.368,73.748,121.911,73.748,121.911z"/>
	<path fill="none" stroke="#000000" stroke-width="2" stroke-linecap="round" stroke-linejoin="round" stroke-miterlimit="10" d="
		M120.34,191.83l19.241,1.535c0,0,6.602-82.212,3.275-82.477c-17.589-1.403-50.029-0.797-50.029-0.797l-0.953,11.956"/>
	
		<polyline fill="none" stroke="#000000" stroke-width="2" stroke-linecap="round" stroke-linejoin="round" stroke-miterlimit="10" points="
		877.135,120.28 880.127,115.552 883.321,119.796 	"/>
	<path fill="none" stroke="#000000" stroke-width="2" stroke-linecap="round" stroke-linejoin="round" stroke-miterlimit="10" d="
		M889.098,173.008c0,0,47.025-8.533,51.16-8.59c-0.855-1.021-3.451-2.765-3.451-2.765"/>
	
		<line fill="none" stroke="#000000" stroke-width="2" stroke-linecap="round" stroke-linejoin="round" stroke-miterlimit="10" x1="937.805" y1="167.332" x2="940.258" y2="164.418"/>
	<path fill="none" stroke="#000000" stroke-width="2" stroke-linecap="round" stroke-linejoin="round" stroke-miterlimit="10" d="
		M1062.588,179.218l3.141-1.436l2.793,3.558l5.188-1.778c0,0-3.079-4.418-2.794-1.779c0.287,2.638,2.794,3.558,2.794,3.558
		l4.989-1.157l6.586-1.042v3.289"/>
	
		<polyline fill="none" stroke="#000000" stroke-width="2" stroke-linecap="round" stroke-linejoin="round" stroke-miterlimit="10" points="
		1091.472,181.533 1091.472,177.783 1098.457,181.533 1100.354,177.783 1094.065,181.533 1108.236,181.533 	"/>
	
		<polyline fill="none" stroke="#000000" stroke-width="2" stroke-linecap="round" stroke-linejoin="round" stroke-miterlimit="10" points="
		1113.225,179.686 1113.225,182.43 1118.613,179.686 1115.918,177.783 1121.408,182.43 	"/>
	
		<polyline fill="none" stroke="#000000" stroke-width="2" stroke-linecap="round" stroke-linejoin="round" stroke-miterlimit="10" points="
		1063.732,190.231 1067.325,190.477 1067.325,187.321 1064.729,191.566 1070.717,190.477 1076.105,190.477 1076.105,191.566 	"/>
	
		<polyline fill="none" stroke="#000000" stroke-width="2" stroke-linecap="round" stroke-linejoin="round" stroke-miterlimit="10" points="
		1082.344,190.231 1082.344,191.566 1086.289,190.899 	"/>
	<path fill="none" stroke="#000000" stroke-width="2" stroke-linecap="round" stroke-linejoin="round" stroke-miterlimit="10" d="
		M1091.472,192.337l1.797-2.895h4.989l3.193,2.123c0,0-8.616,2.185-4.791,0.771c3.824-1.413,6.188-3.055,7.983-2.106
		c1.796,0.949,6.586,1.335,6.586,1.335l2.794-0.667l4.59,3.053"/>
	
		<polyline fill="none" stroke="#000000" stroke-width="2" stroke-linecap="round" stroke-linejoin="round" stroke-miterlimit="10" points="
		1124.6,191.566 1124.6,192.962 1128.192,191.698 1128.192,189.443 	"/>
	<path fill="none" stroke="#000000" stroke-width="2" stroke-linecap="round" stroke-linejoin="round" stroke-miterlimit="10" d="
		M1064.93,198.033l2.396,2.601l-2.396,1.406c0,0,5.189-1.633,6.785,0.409c1.597,2.043,4.391,0,4.391,0l-0.998-4.416"/>
	<path fill="none" stroke="#000000" stroke-width="2" stroke-linecap="round" stroke-linejoin="round" stroke-miterlimit="10" d="
		M1082.344,200.695l-1.848,1.345l10.976-1.345c0,0-0.2-0.711,6.187,0c6.386,0.711,12.771,0.973,11.975-0.315
		c-0.799-1.289-4.591,0-4.591,0l8.183,0.315l0.998-2.662l3.094,4.416"/>
	
		<polyline fill="none" stroke="#000000" stroke-width="2" stroke-linecap="round" stroke-linejoin="round" stroke-miterlimit="10" points="
		1124.6,200.695 1122.205,203.357 1126.396,203.357 	"/>
	
		<polyline fill="none" stroke="#000000" stroke-width="2" stroke-linecap="round" stroke-linejoin="round" stroke-miterlimit="10" points="
		1066.127,208.157 1064.93,212.253 1069.918,211.63 	"/>
	
		<polyline fill="none" stroke="#000000" stroke-width="2" stroke-linecap="round" stroke-linejoin="round" stroke-miterlimit="10" points="
		1076.105,211.051 1076.105,213.173 1080.496,213.173 1079.098,211.051 1082.344,208.929 1085.285,211.051 1090.475,212.253 	"/>
	<path fill="none" stroke="#000000" stroke-width="2" stroke-linecap="round" stroke-linejoin="round" stroke-miterlimit="10" d="
		M1093.867,211.051l1.396,1.202l3.643-2.049l3.342,1.024c0,0,1.796-2.493,0-2.3c-1.795,0.192,3.593,2.122,3.593,2.122"/>
	
		<polyline fill="none" stroke="#000000" stroke-width="2" stroke-linecap="round" stroke-linejoin="round" stroke-miterlimit="10" points="
		1108.236,208.929 1109.234,211.051 1112.427,209.99 1118.613,209.99 	"/>
	
		<polyline fill="none" stroke="#000000" stroke-width="2" stroke-linecap="round" stroke-linejoin="round" stroke-miterlimit="10" points="
		1131.585,170.214 1129.795,172.23 1127.195,170.214 1124.301,171.222 1121.408,171.222 	"/>
	<path fill="none" stroke="#000000" stroke-width="2" stroke-linecap="round" stroke-linejoin="round" stroke-miterlimit="10" d="
		M996.479,197.972c0,0,38.715-2.005,42.707,0.424"/>
	<path fill="none" stroke="#000000" stroke-width="2" stroke-linecap="round" stroke-linejoin="round" stroke-miterlimit="10" d="
		M998.674,197.195v-15.471h3.791v15.471h3.792l-0.799-19.716h3.991l0.998,19.716l4.784,0.102l-0.993-39.695h3.594l1.597,39.619
		l4.474-0.025V185.39h2.91l0.998,11.805c0,0,1.746,0.062,2.766,0.102c1.018,0.039-1.37-47.02-1.37-47.02h3.394l2.195,46.918"/>
	
		<polyline fill="none" stroke="#000000" stroke-width="2" stroke-linecap="round" stroke-linejoin="round" stroke-miterlimit="10" points="
		998.674,203.357 1001.468,204.492 1001.468,202.04 1000.07,205.522 	"/>
	
		<line fill="none" stroke="#000000" stroke-width="2" stroke-linecap="round" stroke-linejoin="round" stroke-miterlimit="10" x1="1009.25" y1="202.026" x2="1007.255" y2="203.357"/>
	
		<polyline fill="none" stroke="#000000" stroke-width="2" stroke-linecap="round" stroke-linejoin="round" stroke-miterlimit="10" points="
		1016.357,202.026 1015.038,203.78 1017.832,203.357 1019.429,203.78 	"/>
	
		<polyline fill="none" stroke="#000000" stroke-width="2" stroke-linecap="round" stroke-linejoin="round" stroke-miterlimit="10" points="
		1026.014,202.026 1024.418,202.691 1027.012,203.78 1027.012,202.691 	"/>
	
		<polyline fill="none" stroke="#000000" stroke-width="2" stroke-linecap="round" stroke-linejoin="round" stroke-miterlimit="10" points="
		1033.198,202.026 1032.6,203.78 1035.594,203.357 1036.99,204.684 	"/>
	<path fill="none" stroke="#000000" stroke-width="2" stroke-linecap="round" stroke-linejoin="round" stroke-miterlimit="10" d="
		M891.104,177.783v2.323l1.995-2.323c0,0-1.578,1.567,1.397,1.903s1.796-1.903,1.796-1.903l2.594,2.323l2.795-2.323l1.547-1.989
		l2.245,2.156c0,0,2.577,0.958,2.882-0.167c0.303-1.125,1.785-1.989,1.785-1.989l1.52,1.989"/>
	
		<polyline fill="none" stroke="#000000" stroke-width="2" stroke-linecap="round" stroke-linejoin="round" stroke-miterlimit="10" points="
		914.676,174.974 914.676,176.942 917.646,175.793 916.161,173.787 917.646,177.95 920.041,175.868 	"/>
	<path fill="none" stroke="#000000" stroke-width="2" stroke-linecap="round" stroke-linejoin="round" stroke-miterlimit="10" d="
		M1066.327,124.62c0,0-4.19,2.314-1.397,3.858c2.794,1.543,8.407,0.024,5.588-3.377c-1.716-2.071-4.75-1.254-4.75-1.254"/>
	<path fill="none" stroke="#000000" stroke-width="2" stroke-linecap="round" stroke-linejoin="round" stroke-miterlimit="10" d="
		M1031.201,110.921c0,0-3.591,2.701-1.596,4.631c1.996,1.929,7.333-0.198,6.786-2.315c-0.6-2.315-5.525-2.315-5.525-2.315"/>
	<path fill="none" stroke="#000000" stroke-width="2" stroke-linecap="round" stroke-linejoin="round" stroke-miterlimit="10" d="
		M1056.148,146.227c0,0-2.998,1.348-1.699,4.05c1.301,2.703,6.09,0.816,5.69-1.038
		C1059.74,147.385,1056.148,146.227,1056.148,146.227z"/>
	<path fill="none" stroke="#000000" stroke-width="2" stroke-linecap="round" stroke-linejoin="round" stroke-miterlimit="10" d="
		M1039.388,118.638l-2.162-2.316c1.232-0.389,24.709,8.298,24.709,8.298"/>
	
		<line fill="none" stroke="#000000" stroke-width="2" stroke-linecap="round" stroke-linejoin="round" stroke-miterlimit="10" x1="1040.781" y1="115.552" x2="1037.226" y2="116.322"/>
	<path fill="none" stroke="#000000" stroke-width="2" stroke-linecap="round" stroke-linejoin="round" stroke-miterlimit="10" d="
		M1046.097,157.417l1.891,1.207l1.345-2.558c0,0-3.332,1.449,0.545,2.558s4.246-1.279,4.246-1.279l-1.566-2.243l2.795,5.595"/>
	
		<polyline fill="none" stroke="#000000" stroke-width="2" stroke-linecap="round" stroke-linejoin="round" stroke-miterlimit="10" points="
		1057.144,155.874 1057.144,157.9 1060.163,157.9 1062.588,155.874 	"/>
	<path fill="none" stroke="#000000" stroke-width="2" stroke-linecap="round" stroke-linejoin="round" stroke-miterlimit="10" d="
		M1046.097,165.459h3.483l-0.248,1.872c0,0,1.822-2.127,5.117-1.872c3.295,0.254,3.895-0.462,3.895-0.462"/>
	
		<polyline fill="none" stroke="#000000" stroke-width="2" stroke-linecap="round" stroke-linejoin="round" stroke-miterlimit="10" points="
		1046.969,172.474 1049.332,172.474 1049.332,174.395 1052.221,174.395 	"/>
	
		<polyline fill="none" stroke="#000000" stroke-width="2" stroke-linecap="round" stroke-linejoin="round" stroke-miterlimit="10" points="
		1055.352,145.456 1054.449,138.704 1052.221,140.681 	"/>
	
		<line fill="none" stroke="#000000" stroke-width="2" stroke-linecap="round" stroke-linejoin="round" stroke-miterlimit="10" x1="1054.449" y1="138.704" x2="1057.144" y2="140.102"/>
	
		<polyline fill="none" stroke="#000000" stroke-width="2" stroke-linecap="round" stroke-linejoin="round" stroke-miterlimit="10" points="
		1050.725,133.687 1050.725,137.353 1058.344,137.353 1058.344,132.694 1049.877,132.694 	"/>
	<path fill="none" stroke="#000000" stroke-width="2" stroke-linecap="round" stroke-linejoin="round" stroke-miterlimit="10" d="
		M1063.246,132.297l3.081-1.118c-0.2,2.122-6.164,16.399-6.164,16.399"/>
	
		<line fill="none" stroke="#000000" stroke-width="2" stroke-linecap="round" stroke-linejoin="round" stroke-miterlimit="10" x1="1068.123" y1="134.151" x2="1066.327" y2="131.179"/>
	
		<polyline fill="none" stroke="#000000" stroke-width="2" stroke-linecap="round" stroke-linejoin="round" stroke-miterlimit="10" points="
		942.594,142.08 944.989,142.948 944.989,145.456 947.66,142.08 946.586,140.504 949.779,145.456 	"/>
	
		<polyline fill="none" stroke="#000000" stroke-width="2" stroke-linecap="round" stroke-linejoin="round" stroke-miterlimit="10" points="
		943.992,149.239 946.187,151.627 946.986,149.239 	"/>
	
		<polyline fill="none" stroke="#000000" stroke-width="2" stroke-linecap="round" stroke-linejoin="round" stroke-miterlimit="10" points="
		944.171,157.9 947.66,158.625 947.66,155.874 946.187,160.697 949.779,160.697 	"/>
	
		<polyline fill="none" stroke="#000000" stroke-width="2" stroke-linecap="round" stroke-linejoin="round" stroke-miterlimit="10" points="
		910.141,189.443 917.359,189.443 917.359,192.962 919.244,190.899 919.244,188.96 921.639,190.96 	"/>
	<path fill="none" stroke="#000000" stroke-width="2" stroke-linecap="round" stroke-linejoin="round" stroke-miterlimit="10" d="
		M925.63,190.231l1.398,2.731l1.995-2.731l3.593,1.467h5.188l-1.596-1.221c0,0-5.188,3.16-0.6,3.475
		c4.59,0.314,4.648-1.86,4.648-1.86"/>
	
		<polyline fill="none" stroke="#000000" stroke-width="2" stroke-linecap="round" stroke-linejoin="round" stroke-miterlimit="10" points="
		932.006,183.915 932.006,187.321 935.211,183.915 936.807,185.618 940.258,183.915 940.998,185.618 	"/>
	<path fill="none" stroke="#000000" stroke-width="2" stroke-linecap="round" stroke-linejoin="round" stroke-miterlimit="10" d="
		M949.779,186.549l-2.119-0.932c0,0,2.518-1.905,2.119-3.188c-0.4-1.283-2.119-0.897-2.119-0.897"/>
	
		<line fill="none" stroke="#000000" stroke-width="2" stroke-linecap="round" stroke-linejoin="round" stroke-miterlimit="10" x1="945.488" y1="164.998" x2="946.187" y2="166.165"/>
	<path fill="none" stroke="#000000" stroke-width="2" stroke-linecap="round" stroke-linejoin="round" stroke-miterlimit="10" d="
		M976.521,130.386c0,0-20.356,11.207-13.771,21.241c0.998-1.155,1-2.7,1-2.7"/>
	
		<line fill="none" stroke="#000000" stroke-width="2" stroke-linecap="round" stroke-linejoin="round" stroke-miterlimit="10" x1="959.758" y1="150.433" x2="962.751" y2="151.627"/>
	<path fill="none" stroke="#000000" stroke-width="2" stroke-linecap="round" stroke-linejoin="round" stroke-miterlimit="10" d="
		M961.439,156.886l0.713,1.738l2.794-0.869c0,0-0.999-0.917,2.195,0.53c3.192,1.447,1.839-1.399,1.839-1.399l-2.438-1.013"/>
	
		<polyline fill="none" stroke="#000000" stroke-width="2" stroke-linecap="round" stroke-linejoin="round" stroke-miterlimit="10" points="
		972.487,156.886 971.732,158.696 975.723,158.696 	"/>
	<path fill="none" stroke="#000000" stroke-width="2" stroke-linecap="round" stroke-linejoin="round" stroke-miterlimit="10" d="
		M963.751,162.626v2.371l3.391-1.186l2.124,1.186c0,0,4.177-0.192,3.222-1.186"/>
	
		<polyline fill="none" stroke="#000000" stroke-width="2" stroke-linecap="round" stroke-linejoin="round" stroke-miterlimit="10" points="
		979.914,127.707 979.914,130.386 978.717,127.707 982.109,128.502 	"/>
	
		<polyline fill="none" stroke="#000000" stroke-width="2" stroke-linecap="round" stroke-linejoin="round" stroke-miterlimit="10" points="
		957.111,166.165 959.758,172.23 958.434,172.23 961.254,171.222 959.758,168.91 	"/>
	
		<polyline fill="none" stroke="#000000" stroke-width="2" stroke-linecap="round" stroke-linejoin="round" stroke-miterlimit="10" points="
		962.751,170.214 963.751,172.474 966.941,171.222 965.354,169.198 	"/>
	
		<line fill="none" stroke="#000000" stroke-width="2" stroke-linecap="round" stroke-linejoin="round" stroke-miterlimit="10" x1="959.758" y1="162.626" x2="956.829" y2="162.626"/>
	
		<line fill="none" stroke="#000000" stroke-width="2" stroke-linecap="round" stroke-linejoin="round" stroke-miterlimit="10" x1="958.293" y1="157.9" x2="957.111" y2="158.625"/>
	
		<line fill="none" stroke="#000000" stroke-width="2" stroke-linecap="round" stroke-linejoin="round" stroke-miterlimit="10" x1="982.109" y1="125.777" x2="984.104" y2="126.384"/>
	<path fill="none" stroke="#000000" stroke-width="2" stroke-linecap="round" stroke-linejoin="round" stroke-miterlimit="10" d="
		M98.113,134.908c0,0-12.91,1.214-14.319,8.843c6.369,5.5,12.761,10.695,12.761,10.695L98.113,134.908z"/>
	<path fill="none" stroke="#000000" stroke-width="2" stroke-linecap="round" stroke-linejoin="round" stroke-miterlimit="10" d="
		M81.16,149.151l14.558,8.251l-4.594,17.442C91.125,174.844,72.94,166.879,81.16,149.151z"/>
	<path fill="none" stroke="#000000" stroke-width="2" stroke-linecap="round" stroke-linejoin="round" stroke-miterlimit="10" d="
		M98.359,159.427l-3.54,16.789c0,0,6.763,0.54,12.546-2.519C103.812,168.875,98.359,159.427,98.359,159.427z"/>
	<path fill="none" stroke="#000000" stroke-width="2" stroke-linecap="round" stroke-linejoin="round" stroke-miterlimit="10" d="
		M101.413,158.801l9.317,13.719c0,0,4.19-1.889,4.199-4.939C111.488,164.599,101.413,158.801,101.413,158.801z"/>
	<path fill="none" stroke="#000000" stroke-width="2" stroke-linecap="round" stroke-linejoin="round" stroke-miterlimit="10" d="
		M116.648,163.595l-14.385-7.92l8.336-17.916C110.6,137.759,124.01,149.087,116.648,163.595z"/>
	<path fill="none" stroke="#000000" stroke-width="2" stroke-linecap="round" stroke-linejoin="round" stroke-miterlimit="10" d="
		M102.091,135.226l-3.067,19.417l6.449-19.147C105.474,135.495,103.126,134.805,102.091,135.226z"/>
	<path fill="none" stroke="#000000" stroke-width="2" stroke-linecap="round" stroke-linejoin="round" stroke-miterlimit="10" d="
		M85.622,163.5c0,0-6.794,7.378-6.572,14.633"/>
	
		<polyline fill="none" stroke="#000000" stroke-width="2" stroke-linecap="round" stroke-linejoin="round" stroke-miterlimit="10" points="
		82.901,163.283 85.668,162.923 85.437,165.826 	"/>
	<path fill="none" stroke="#000000" stroke-width="2" stroke-linecap="round" stroke-linejoin="round" stroke-miterlimit="10" d="
		M77.074,181.796l-1.123,2.554l2.621-1.114l1.16,1.416c0,0,3.547,1.509,2.892-0.704c-0.657-2.215-1.895-1.76-1.895-1.76L84,183.844"
		/>
	<path fill="none" stroke="#000000" stroke-width="2" stroke-linecap="round" stroke-linejoin="round" stroke-miterlimit="10" d="
		M100.974,191.92c0,0,0.358-18.494-0.847-20.245"/>
	
		<polyline fill="none" stroke="#000000" stroke-width="2" stroke-linecap="round" stroke-linejoin="round" stroke-miterlimit="10" points="
		98.651,173.355 100.079,170.509 102.508,172.684 	"/>
	
		<polyline fill="none" stroke="#000000" stroke-width="2" stroke-linecap="round" stroke-linejoin="round" stroke-miterlimit="10" points="
		94.631,194.656 94.389,197.703 98.15,196.469 96.938,194.84 98.057,197.632 100.596,196.664 	"/>
	<path fill="none" stroke="#000000" stroke-width="2" stroke-linecap="round" stroke-linejoin="round" stroke-miterlimit="10" d="
		M102.814,193.949c0,0,10.953-11.669,10.397-19.784"/>
	
		<polyline fill="none" stroke="#000000" stroke-width="2" stroke-linecap="round" stroke-linejoin="round" stroke-miterlimit="10" points="
		111.532,174.995 113.278,173.206 115.492,175.551 	"/>
	<path fill="none" stroke="#000000" stroke-width="2" stroke-linecap="round" stroke-linejoin="round" stroke-miterlimit="10" d="
		M88.004,133.62c0,0,1.891,6.425,3.546,8.265l0.197-2.466"/>
	
		<line fill="none" stroke="#000000" stroke-width="2" stroke-linecap="round" stroke-linejoin="round" stroke-miterlimit="10" x1="89.461" y1="141.719" x2="91.55" y2="141.885"/>
	
		<polyline fill="none" stroke="#000000" stroke-width="2" stroke-linecap="round" stroke-linejoin="round" stroke-miterlimit="10" points="
		82.868,129.355 82.563,133.186 85.471,131.053 85.589,129.572 88.31,129.789 	"/>
	<path fill="none" stroke="#000000" stroke-width="2" stroke-linecap="round" stroke-linejoin="round" stroke-miterlimit="10" d="
		M116.614,136.383c0,0-0.958,14.513-4.418,15.225"/>
	
		<polyline fill="none" stroke="#000000" stroke-width="2" stroke-linecap="round" stroke-linejoin="round" stroke-miterlimit="10" points="
		111.026,149.718 112.148,152.204 113.741,152.331 	"/>
	
		<polyline fill="none" stroke="#000000" stroke-width="2" stroke-linecap="round" stroke-linejoin="round" stroke-miterlimit="10" points="
		112.525,130.925 112.344,133.195 116.643,132.396 114.733,129.792 117.675,133.252 118.971,131.926 	"/>
	<path fill="none" stroke="#000000" stroke-width="2" stroke-linecap="round" stroke-linejoin="round" stroke-miterlimit="10" d="
		M100.729,118.199l-1.503,2.754l4.433-1.084c0,0-3.116-2.875,3.838,0.306"/>
	
		<line fill="none" stroke="#000000" stroke-width="2" stroke-linecap="round" stroke-linejoin="round" stroke-miterlimit="10" x1="111.581" y1="120.501" x2="111.493" y2="121.931"/>
	
		<polyline fill="none" stroke="#000000" stroke-width="2" stroke-linecap="round" stroke-linejoin="round" stroke-miterlimit="10" points="
		115.965,119.414 115.819,121.234 117.882,120.482 120.594,121.615 123.781,119.313 120,119.011 	"/>
	<path fill="none" stroke="#000000" stroke-width="2" stroke-linecap="round" stroke-linejoin="round" stroke-miterlimit="10" d="
		M128.161,132.171c0,0,2.146,0.716,1.209,2.411c-0.936,1.696,2.77-2.094,2.77-2.094l1.459,2.402"/>
	<path fill="none" stroke="#000000" stroke-width="2" stroke-linecap="round" stroke-linejoin="round" stroke-miterlimit="10" d="
		M126.748,140.701l0.608,1.558l2.929-1.275c0,0-5.148-0.385-0.119,1.5c5.03,1.884,5.267-1.089,5.267-1.089l-0.771-0.359"/>
	
		<polyline fill="none" stroke="#000000" stroke-width="2" stroke-linecap="round" stroke-linejoin="round" stroke-miterlimit="10" points="
		126.066,149.252 127.657,151.044 127.467,153.425 	"/>
	<path fill="none" stroke="#000000" stroke-width="2" stroke-linecap="round" stroke-linejoin="round" stroke-miterlimit="10" d="
		M132.414,149.758l-1.404,1.918c0,0,5.131,0.936,4.604,0.002"/>
	
		<polyline fill="none" stroke="#000000" stroke-width="2" stroke-linecap="round" stroke-linejoin="round" stroke-miterlimit="10" points="
		121.635,183.86 133.024,184.769 130.897,182.268 	"/>
	
		<line fill="none" stroke="#000000" stroke-width="2" stroke-linecap="round" stroke-linejoin="round" stroke-miterlimit="10" x1="130.541" y1="186.74" x2="133.024" y2="184.769"/>
	
		<polyline fill="none" stroke="#000000" stroke-width="2" stroke-linecap="round" stroke-linejoin="round" stroke-miterlimit="10" points="
		122.702,174.494 123.915,176.223 128.09,164.508 129.404,170.638 134.983,160.208 	"/>
	<path fill="none" stroke="#000000" stroke-width="2" stroke-linecap="round" stroke-linejoin="round" stroke-miterlimit="10" d="
		M1135.104,164.998c1.814-5.62,1.814-43.494,1.814-43.494l51.14,3.116c0,0-1.088,72.283-5.078,80.902
		c-16.321-0.448-44.109-3.072-44.109-3.072"/>
	<path fill="none" stroke="#000000" stroke-width="2" stroke-linecap="round" stroke-linejoin="round" stroke-miterlimit="10" d="
		M1143.764,179.658c0,0,8.75,3.552,10.926,5.96"/>
	<path fill="none" stroke="#000000" stroke-width="2" stroke-linecap="round" stroke-linejoin="round" stroke-miterlimit="10" d="
		M1147.482,181.533c0,0-2.966,8.154-3.328,9.214s5.276,0.951,5.276,0.951s-0.541-7.859,0-8.771l-1.61-0.496l-2.197,7.801h2.72
		l0.091-0.788h-1.361l0.205-1.28l0.748-0.068c0,0-0.137-3.74,0.203-4.216"/>
	
		<polyline fill="none" stroke="#000000" stroke-width="2" stroke-linecap="round" stroke-linejoin="round" stroke-miterlimit="10" points="
		1167.202,135.023 1166.114,137.353 1169.016,136.188 1170.286,137.353 	"/>
	<path fill="none" stroke="#000000" stroke-width="2" stroke-linecap="round" stroke-linejoin="round" stroke-miterlimit="10" d="
		M1173.73,136.188c0,0-2.176-0.002-1.088,1.165c1.088,1.166,5.44,2.025,5.44,2.025l-0.725-3.19l-0.907,1.165h3.808"/>
	
		<polyline fill="none" stroke="#000000" stroke-width="2" stroke-linecap="round" stroke-linejoin="round" stroke-miterlimit="10" points="
		1158.861,140.504 1160.855,142.98 1158.861,142.98 1162.125,141.743 1163.758,142.98 1166.114,141.743 	"/>
	
		<polyline fill="none" stroke="#000000" stroke-width="2" stroke-linecap="round" stroke-linejoin="round" stroke-miterlimit="10" points="
		1168.2,142.98 1168.2,141.743 1170.286,144.141 	"/>
	
		<polyline fill="none" stroke="#000000" stroke-width="2" stroke-linecap="round" stroke-linejoin="round" stroke-miterlimit="10" points="
		1173.73,141.743 1173.73,144.141 1177.721,142.98 1178.809,144.141 	"/>
	
		<polyline fill="none" stroke="#000000" stroke-width="2" stroke-linecap="round" stroke-linejoin="round" stroke-miterlimit="10" points="
		1163.758,148.927 1165.026,150.277 1167.384,148.927 	"/>
	<path fill="none" stroke="#000000" stroke-width="2" stroke-linecap="round" stroke-linejoin="round" stroke-miterlimit="10" d="
		M1171.374,148.927v1.35c0,0,0.906-1.603,2.356-1.239c1.452,0.362,4.716,3.547,5.078,2.59c0.362-0.958-1.632-2.7-1.632-2.7"/>
	<g id="Ebene_3">
		<g>
			<g>
				<path d="M1151.244,180.459c1.935,0,1.935-3,0-3S1149.31,180.459,1151.244,180.459L1151.244,180.459z"/>
			</g>
		</g>
		<g>
			<g>
				<path d="M1148.887,178.646c1.935,0,1.935-3,0-3S1146.952,178.646,1148.887,178.646L1148.887,178.646z"/>
			</g>
		</g>
		<g>
			<g>
				<path d="M1148.705,174.293c1.935,0,1.935-3,0-3S1146.771,174.293,1148.705,174.293L1148.705,174.293z"/>
			</g>
		</g>
		<g>
			<g>
				<path d="M1146.529,169.759c1.934,0,1.934-3,0-3C1144.594,166.759,1144.594,169.759,1146.529,169.759L1146.529,169.759z"/>
			</g>
		</g>
		<g>
			<g>
				<path d="M1152.695,174.293c1.935,0,1.935-3,0-3S1150.761,174.293,1152.695,174.293L1152.695,174.293z"/>
			</g>
		</g>
		<g>
			<g>
				<path d="M1162.125,168.671c1.935,0,1.935-3,0-3S1160.19,168.671,1162.125,168.671L1162.125,168.671z"/>
			</g>
		</g>
		<g>
			<g>
				<path d="M1163.758,173.206c1.935,0,1.935-3,0-3S1161.823,173.206,1163.758,173.206L1163.758,173.206z"/>
			</g>
		</g>
		<g>
			<g>
				<path d="M1158.861,176.469c1.935,0,1.935-3,0-3S1156.927,176.469,1158.861,176.469L1158.861,176.469z"/>
			</g>
		</g>
		<g>
			<g>
				<path d="M1173.73,172.662c1.935,0,1.935-3,0-3S1171.796,172.662,1173.73,172.662L1173.73,172.662z"/>
			</g>
		</g>
		<g>
			<g>
				<path d="M1152.877,160.511c1.935,0,1.935-3,0-3S1150.942,160.511,1152.877,160.511L1152.877,160.511z"/>
			</g>
		</g>
		<g>
			<g>
				<path d="M1148.343,150.538c1.935,0,1.935-3,0-3S1146.408,150.538,1148.343,150.538L1148.343,150.538z"/>
			</g>
		</g>
	</g>
</g>
<g id="Ebene_5">
	<g id="Ebene_10">
		<path fill="none" stroke="#0094AC" stroke-width="2" stroke-linecap="round" stroke-linejoin="round" stroke-miterlimit="10" d="
			M375.002,205.182c0,0,24.849-4.521,46.074-2.919"/>
		<path fill="none" stroke="#0094AC" stroke-width="2" stroke-linecap="round" stroke-linejoin="round" stroke-miterlimit="10" d="
			M381.95,188.194c0,0-2.78,7.573-5.498,9.187s-6.155,3.781-6.734,7.481c-0.43,5.069-1.133,14.754,2.657,15.204
			c3.789,0.449,50.461-2.953,50.758-3.222c1.615-0.228,3.028-2.055,2.86-4.237c-0.154-2.435-0.189-11.897-4.167-14.34
			c-3.979-2.443-8.841-2.01-11.221-11.888"/>
		
			<ellipse transform="matrix(0.998 -0.0632 0.0632 0.998 -10.6963 25.3896)" fill="none" stroke="#0094AC" stroke-width="2" stroke-linecap="round" stroke-linejoin="round" stroke-miterlimit="10" cx="395.701" cy="181.651" rx="7.632" ry="5.661"/>
		
			<ellipse transform="matrix(0.998 -0.0632 0.0632 0.998 -10.8168 25.402)" fill="none" stroke="#0094AC" stroke-width="2" stroke-linecap="round" stroke-linejoin="round" stroke-miterlimit="10" cx="395.951" cy="183.609" rx="15.013" ry="10.758"/>
		<path fill="none" stroke="#0094AC" stroke-width="2" stroke-linecap="round" stroke-linejoin="round" stroke-miterlimit="10" d="
			M368.752,209.401c0,0-6.261,2.088-11.243-1.356c-4.981-3.445-4.673-9.482-1.147-10.207c3.526-0.725,12.329-1.283,11.515,4.661
			c-0.815,5.943-10.034,11.792-19.306,10.875c-9.271-0.917-3.868-5.647-2.627-5.851c2.142-0.825,21.379-4.865,20.293,4.731
			c-0.631,3.001-3.867,4.241-5.976,4.727c-2.784,0.576-16.337,2.938-16.585-1.723c-0.132-2.812,4.624-8.261,5.381-10.777
			c0.756-2.516,1.947-6.729,0.78-15.14c-0.595-4.945,3.124-11.175,6.557-14.494c0,0,0.289-2.604,4.24-5.098
			c4.217-2.711,35.958-17.585,64.006-3.253c4.035,2.376,7.527,7.044,4.835,13.013c-1.23,2.365-3.855,2.469-7.285,1.746
			c-4.396-1.101-11.849-2.007-10.661-6.031c0.408-1.468,1.251-1.02,1.823-1.871c0.573-0.851,0.949-3.821-1.639-5.099
			c-2.587-1.277-4.869-2.637-15.126-2.301c-10.257,0.337-21.774,3.574-23.395,6.686c-0.725,1.424,1.048,2.691,1.821,3.019
			c0.773,0.327,2.108,1.621,1.111,2.687c-0.999,1.066-8.052,7.468-17.631,7.636c-2.08-0.182-2.98-3.509-2.477-8.431
			c0.144-0.698,0.377-2.703,0.377-2.703"/>
		<path fill="none" stroke="#0094AC" stroke-width="2" stroke-linecap="round" stroke-linejoin="round" stroke-miterlimit="10" d="
			M378.179,170.256c0,0,0.728,5.532,5.739,6.469"/>
		<path fill="none" stroke="#0094AC" stroke-width="2" stroke-linecap="round" stroke-linejoin="round" stroke-miterlimit="10" d="
			M406.042,174.696c0,0,4.405-2.661,4.351-6.481"/>
		<path fill="none" stroke="#0094AC" stroke-width="2" stroke-linecap="round" stroke-linejoin="round" stroke-miterlimit="10" d="
			M383.392,168.422c0,0-1.165,3.396,0.7,3.152c1.866-0.243,11.756-2.438,19.197-1.507c0.706,0.265,1.173-1.476-0.417-4.075"/>
	</g>
	<g id="Ebene_11_1_">
		
			<polygon fill="none" stroke="#0094AC" stroke-width="2" stroke-linecap="round" stroke-linejoin="round" stroke-miterlimit="10" points="
			295.093,174.914 318.612,180.449 338.464,131.281 314.604,126.507 		"/>
		<path fill="none" stroke="#0094AC" stroke-width="2" stroke-linecap="round" stroke-linejoin="round" stroke-miterlimit="10" d="
			M301.731,179.687c0,0-3.006,1.312-0.466,2.331c2.538,1.019,8.5,2.785,7.028-0.062
			C307.484,180.263,302.847,179.527,301.731,179.687z"/>
		<path fill="none" stroke="#0094AC" stroke-width="2" stroke-linecap="round" stroke-linejoin="round" stroke-miterlimit="10" d="
			M322.572,124.146c0,0,7.208,1.442,8.678,2.056"/>
		<path fill="none" stroke="#0094AC" stroke-width="2" stroke-linecap="round" stroke-linejoin="round" stroke-miterlimit="10" d="
			M324.847,121.858c0,0,6.454,1.546,6.931,1.706"/>
		<path fill="none" stroke="#0094AC" stroke-width="2" stroke-linecap="round" stroke-linejoin="round" stroke-miterlimit="10" d="
			M291.39,172.705c0,0-3.142,7.729,2.305,10.478s21.296,6.112,21.296,6.112s4.626,0.479,6.699-3.189
			c2.074-3.668,23.032-55.485,23.105-55.853c0.074-0.368,1.056-5.913-4.367-8.784c-5.422-2.872-20.021-4.835-20.609-4.762
			c-1.853,0.012-4.969,0.601-7.521,5.704C309.428,128.788,291.599,172.112,291.39,172.705z"/>
		<path fill="none" stroke="#0094AC" stroke-width="2" stroke-linecap="round" stroke-linejoin="round" stroke-miterlimit="10" d="
			M301.206,148.859c0,0-18.624,19.404-25.433,20.913c-1.79,0.343-14.611-3.18-17.432-8.209c-0.759-1.301-0.882-2.92,1.621-5.226
			c2.503-2.306,26.636-24.717,26.636-24.717s-1.742-3.092,0.467-3.925c2.208-0.834,5.937-1.3,5.557-2.27
			c-0.38-0.969-1.944-2.72-1.162-4.077c0.783-1.357,18.893-31.927,19.249-32.749c0.355-0.822,1.804-1.999,5.116-1.336
			c3.312,0.663,13.151,3.141,14.304,5.031c1.154,1.889,0.575,3.177,0.306,4.208c-0.27,1.031-8.904,18.033-10.469,19.806"/>
		
			<line fill="none" stroke="#0094AC" stroke-width="2" stroke-linecap="round" stroke-linejoin="round" stroke-miterlimit="10" x1="288.522" y1="132.516" x2="304.065" y2="140.601"/>
		
			<line fill="none" stroke="#0094AC" stroke-width="2" stroke-linecap="round" stroke-linejoin="round" stroke-miterlimit="10" x1="295.075" y1="127.192" x2="307.426" y2="132.726"/>
		<path fill="none" stroke="#0094AC" stroke-width="2" stroke-linecap="round" stroke-linejoin="round" stroke-miterlimit="10" d="
			M282.854,138.846c0,0-4.122,0.514-2.785,3.078c1.337,2.565,2.796,1.645,3.606-0.49"/>
		<path fill="none" stroke="#0094AC" stroke-width="2" stroke-linecap="round" stroke-linejoin="round" stroke-miterlimit="10" d="
			M286.546,142.391c0,0-3.729,2.06-1.729,2.907c2,0.847,5.385,1.141,4.49-2.355"/>
		<path fill="none" stroke="#0094AC" stroke-width="2" stroke-linecap="round" stroke-linejoin="round" stroke-miterlimit="10" d="
			M296.885,146.52c0,0-2.769-1.147-5.517-0.804c-2.749,0.344-3.779,1.64,2.509,2.926"/>
		<path fill="none" stroke="#0094AC" stroke-width="2" stroke-linecap="round" stroke-linejoin="round" stroke-miterlimit="10" d="
			M288.228,148.655c0,0-3.621,2.47,0.441,3.219c4.06,0.749,2.946-1.972,2.38-2.654"/>
		<path fill="none" stroke="#0094AC" stroke-width="2" stroke-linecap="round" stroke-linejoin="round" stroke-miterlimit="10" d="
			M280.869,145.475c0,0-2.224,3.245,1.076,4.607c3.3,1.362,4.741-3.763,1.534-3.521"/>
		<path fill="none" stroke="#0094AC" stroke-width="2" stroke-linecap="round" stroke-linejoin="round" stroke-miterlimit="10" d="
			M277.346,143.42c0,0-3.828,0.957-2.062,3.606c1.767,2.651,3.456-0.456,3.557-1.393"/>
		<path fill="none" stroke="#0094AC" stroke-width="2" stroke-linecap="round" stroke-linejoin="round" stroke-miterlimit="10" d="
			M274.209,148.597c0,0-4.052-1.129-2.666,0.552c0.662,0.834,1.386,1.362,1.386,1.362"/>
		<path fill="none" stroke="#0094AC" stroke-width="2" stroke-linecap="round" stroke-linejoin="round" stroke-miterlimit="10" d="
			M279.606,150.062c0,0-2.249,1.909-0.764,2.461c1.484,0.552,2.208,0.442,2.208,0.442"/>
		<path fill="none" stroke="#0094AC" stroke-width="2" stroke-linecap="round" stroke-linejoin="round" stroke-miterlimit="10" d="
			M283.38,153.113c0,0-0.834,1.938,0.552,2.343c1.386,0.405,3.03-0.796,3.03-0.796"/>
		<path fill="none" stroke="#0094AC" stroke-width="2" stroke-linecap="round" stroke-linejoin="round" stroke-miterlimit="10" d="
			M269.616,149.848c0,0-2.711,2.074-1.019,2.859c1.693,0.784,2.994,0.024,3.435,0.687c0.441,0.662-0.297,1.854,0.814,2.013
			c1.112,0.159,4.583-0.997,4.823-0.248c0.239,0.75,0.313,3.253,2.325,3.082c2.011-0.172,3.826-0.625,4.098-1.668"/>
		<path fill="none" stroke="#0094AC" stroke-width="2" stroke-linecap="round" stroke-linejoin="round" stroke-miterlimit="10" d="
			M265.788,153.038c0,0-2.307,0.686-0.699,3.496"/>
		<path fill="none" stroke="#0094AC" stroke-width="2" stroke-linecap="round" stroke-linejoin="round" stroke-miterlimit="10" d="
			M269.75,158.104c0,0,0.929,1.143,2.335,1.105c1.407-0.038,1.451-0.092,1.882,0.696c0.432,0.788,5.008,2.15,5.008,2.15"/>
		<path fill="none" stroke="#0094AC" stroke-width="2" stroke-linecap="round" stroke-linejoin="round" stroke-miterlimit="10" d="
			M310.412,125.14c0,0-13.429-3.78-14.501-6.784c2.749-6.084,6.515-14.828,12.981-21.955c2.625-0.049,12.499,2.884,14.353,5.423
			c-1.878,5.557-4.979,12.617-6.742,15.726"/>
		<path fill="none" stroke="#0094AC" stroke-width="2" stroke-linecap="round" stroke-linejoin="round" stroke-miterlimit="10" d="
			M319.906,104.793c0,0-10.09-3.387-12.169-3.902c-3.129,4.478-9.215,15.763-9.362,16.818c3.913,2.123,12.219,5,12.942,5.142
			C313.366,119.306,319.906,104.793,319.906,104.793z"/>
	</g>
</g>
<g id="Ebene_7">
	<path d="M950.881,619.184c-3.003-0.562-5.584-2.393-3.941-3.8c0.751-0.188,3.096-0.797,3.473-0.797
		c-0.845-4.552-24.521-124.779-24.897-127.407c1.876,3.378,3.44,3.878,4.504,3.003c1.814-1.564-0.313-21.019-1.877-27.962
		c-0.501-4.003-0.626-15.388,0.813-15.951c0.626,0.25,1.153,1.826,1.813,3.628c1.722,4.691,14.482,26.397,24.209,31.965
		c0.688,0.312,0.438-0.126,0.125-1c-2.173-6.068-10.571-29.213-22.456-51.92c-3.253-7.693-6.006-17.828-3.941-27.899
		c0.563-0.156,1.313,1.189,1.501,1.752c0.094,0.907,0.126,1.814,0.031,2.063c4.098-0.844,13.106-2.751,16.702-3.471
		c3.596-0.721,25.767-5.405,33.055-7.72c0.906-0.47,0.975-1.569,0.913-2.164c-1.408-14.919-10.917-55.267-12.168-59.832
		c-1.25-4.567-1.751-5.381-4.565-7.319c-2.062-1.59-5.32-3.63-7.413-5.942c-1.188-1.313-2.846-3.158,2.784-3.878
		c-2.033-1.001-3.91-2.002-4.474-5.005c-0.562-3.001-2.376-6.349-4.472-8.663c-0.75-0.688-3.035-5.723-3.44-7.631
		c-0.657,6.443-1.095,8.257-3.253,14.324c-2.159,6.068-26.836,84.165-27.367,85.588c0,0-0.329-8.304,6.474-42.458
		c4.128-24.583,7.976-26.555,0.469-56.861c-1.829,2.064-3.519,8.21-2.768,9.711c0.75,1.502,0.844,4.036-0.094,4.692
		c-0.938,0.658-2.018,1.97-5.677,0.704c-3.66-1.268-5.302-1.924-8.82,0.75c-3.519,2.674-15.061,20.08-31.809,61.036
		c-0.422,0.751-1.032,1.079-1.266,1.033c-17.266-9.759-43.352-25.663-46.072-27.446c0,0-0.234,0.563-2.393-2.58
		c-0.845-0.844-0.469-3.049-0.656-4.598c-0.188-1.548-0.47-5.771-7.882-18.766c-1.643-3.003-4.691-5.396-7.085-8.164
		c-2.392-2.768-5.535-8.726-5.863-9.898c-0.329-1.173-1.549-2.44-1.783-2.112c-0.234,0.329-1.174,2.205-0.141,8.117
		c1.031,1.736,7.787,13.137,7.787,13.371c0,0.235-0.141,1.454-2.72,1.36c-2.581-0.094-8.211-0.281-9.196,1.36
		c-0.282,0.609,0.095,1.783,0.422,2.628c0.329,0.844,1.549,2.58,3.284,3.424c0.376,0.61-0.047,0.938,0.752,2.534
		c0.797,1.595,6.238,10.086,8.811,11.395c1.268,0.656,2.589,0.428,2.965,0.428c1.97,0,5.302,0.047,6.238,0.422
		c1.502,0.423,3.332,1.643,3.566,1.924c-0.609,0.845-2.486,3.097-3.003,3.519c4.974,3.614,19.486,13.622,21.206,14.779
		c1.721,1.158,17.545,11.103,19.673,12.261c2.127,1.157,9.165,5.098,14.231,6.443c0.469,0.062,2.47-0.47,2.597-0.626
		c11.821-20.048,20.642-38.722,23.487-43.631c3.598-6.162,7.162-10.979,10.04-9.915c0.877,0.313,2.503,1.845,2.377,4.003
		c-0.125,2.158-0.812,4.379-1.062,6.38c-0.251,2.002-0.876,5.756-1.377,8.853c-0.5,3.096-9.759,48.135-11.259,66.149
		c-1.126,15.263,0.187,24.146,0.938,40.473c1.938,32.278,2.314,44.226,2.626,50.043c0.126,9.414,7.444,105.277,5.817,114.41
		c-2.83,1.033-13.901,3.848-16.998,4.879c-3.096,1.033-17.265,5.725-18.156,10.134c2.908,0.751,14.872,1.36,46.635-2.251
		c0.233-4.129-0.235-8.585-2.44-11.354c-0.845-1.127-2.299-4.035,2.205-4.457c-0.562-6.943-1.83-19.939-2.111-24.725
		c-0.751-8.194-4.879-99.146-5.442-120.854c1.877,10.946,4.942,27.524,5.881,33.779c0.938,6.256,11.135,64.43,11.947,71.187
		c0.813,6.756,6.568,40.284,7.131,41.785c1.127,0.188,3.331,1.407,3.472,3.331c0.141,1.923,0.516,2.018-0.375,3.612
		s-1.924,7.131-1.454,9.195c7.271,0.891,42.834,4.457,47.149,3.472C986.817,633.774,987.24,627.019,950.881,619.184z
		 M929.957,395.772c0,0,13.979-53.154,26.272-56.204c1.829-0.188,8.443,10.181,16.325,50.012
		c-6.006,0.696-38.939,5.677-42.598,6.381V395.772z"/>
	<path d="M945.07,226.535c0,0,11.224-54.038,11.947-55.939c9.323,1.72,22.577,7.966,39.484,27.97
		c-6.809,5.431-19.39,18.646-28.623,38.469C964.35,233.776,955.57,228.074,945.07,226.535z"/>
	<path fill="#F7941E" d="M934.388,251.789c0,0-2.806-2.534-0.994-2.354c1.81,0.182,2.127-0.361,1.765-1.312
		c-0.362-0.951-1.041-2.715,0.77-3.892c1.131-0.725,0.905-1.267,0.588-1.766c-0.316-0.498-0.616-0.95,0.258-1.9
		s3.182-2.806,3.182-3.801c0-0.996,0-1.675,1.132-1.766c1.133-0.089,1.674-0.362,0.453-1.403c-1.223-1.04-0.544-1.854,0.315-2.353
		c0.861-0.498,2.218-1.539,1.449-1.901c-0.77-0.361-0.495-1.448,0.228-2.082c0.723-0.633,1.176-0.769,2.353-0.633
		c1.177,0.135,14.526,2.715,22.312,10.591c0.634,0.633,1.539,2.216,0.271,3.665c-1.268,1.448-4.118,3.485-3.032,4.436
		c1.087,0.95,0.317,1.991-0.95,2.67c-1.268,0.679-0.407,1.991-0.227,2.307c0.182,0.317,0.588,0.952-0.859,1.72
		c-1.448,0.77-2.399,1.041-1.72,2.037c0.679,0.996,1.538,1.403,0.226,2.307c-1.312,0.906-1.584,1.177-0.814,1.584
		c0.77,0.407,1.276,1.061-0.136,1.72c-0.68,0.316-1.221,0.633-1.221,0.633S946.021,257.265,934.388,251.789z"/>
	<path d="M912.665,244.547c0,0,10.002,7.106,32.179,13.94c22.177,6.833,32.269,8.734,33.219,8.645c0.95-0.091,1.766-0.272,0-1.177
		c-1.765-0.905-10.409-4.39-18.872-5.703c-5.794-1.177-26.838-8.553-33.763-12.764C922.803,245.588,916.376,241.561,912.665,244.547
		z"/>
	<path d="M805.537,322.163c0,0-44.469-77.252-44.476-81.633c-0.009-4.598,49.167,81.633,49.167,81.633"/>
	<g>
		<path fill="#F7941E" d="M761.651,242.888c0.108,0.432,0.163,0.883,0.419,1.262c0.412,0.613,1.181,0.702,1.744,0.24
			c0.535-0.441,0.167-1.171-0.175-1.581c-0.246-0.294-0.571-0.552-0.886-0.77c-0.338-0.232-0.832-0.064-1.027,0.269
			c-0.218,0.373-0.067,0.796,0.27,1.027c0.163,0.113-0.071-0.06,0.039,0.027c0.084,0.066,0.166,0.136,0.246,0.208
			c0.088,0.077,0.171,0.161,0.251,0.248c0.03,0.032,0.059,0.066,0.088,0.102c-0.104-0.125-0.001,0.017,0.015,0.044
			c-0.211-0.385,0.185-0.916,0.599-0.716c0.04,0.02,0.07,0.049,0.094,0.085c-0.11-0.165,0.026,0.109-0.047-0.093
			c-0.087-0.244-0.118-0.503-0.183-0.752C762.861,241.551,761.413,241.949,761.651,242.888L761.651,242.888z"/>
	</g>
	<g>
		<path fill="#F7941E" d="M765.011,248.565c-0.353,0.728,0.058,1.374,0.664,1.791c0.604,0.414,1.434,0.359,1.983-0.113
			c0.558-0.479,0.287-1.235-0.284-1.545c-0.396-0.216-0.846-0.293-1.266-0.446c-0.385-0.14-0.821,0.154-0.923,0.525
			c-0.116,0.418,0.14,0.782,0.523,0.923c0.166,0.06,0.338,0.105,0.506,0.155c0.115,0.035,0.229,0.073,0.342,0.113
			c0.084,0.033,0.086,0.033,0.006,0c0.052,0.023,0.101,0.052,0.149,0.082c-0.278-0.175-0.305-0.476-0.076-0.902
			c0.083-0.061,0.083-0.065-0.003-0.014c-0.081,0.044,0.058,0.027-0.064-0.003c-0.02-0.004-0.14-0.07-0.186-0.112
			c-0.063-0.069-0.075-0.079-0.032-0.03c-0.012-0.021-0.022-0.042-0.036-0.063c0.071,0.134,0.067,0.267-0.008,0.398
			c0.179-0.369,0.104-0.809-0.269-1.027C765.706,248.101,765.188,248.197,765.011,248.565L765.011,248.565z"/>
	</g>
	<g>
		<path fill="#F7941E" d="M768.689,255.628c0.212,0.139,0.49,0.195,0.731,0.261c0.155,0.043,0.311,0.086,0.462,0.136
			c0.063,0.021,0.126,0.044,0.188,0.069c-0.165-0.064,0.046,0.033,0.079,0.053c-0.265-0.164-0.273-0.714,0.159-0.891
			c-0.05,0.021-0.107,0.027-0.159,0.038c0.161-0.03-0.15,0.008-0.183,0.01c-0.195,0.011-0.393,0.007-0.589-0.006
			c-0.233-0.017,0.128,0.03-0.058-0.011c-0.118-0.039-0.068-0.005,0.149,0.101c-0.003-0.035-0.011-0.071-0.022-0.106
			c-0.174,0.308-0.35,0.615-0.524,0.924c0.027-0.002,0.055-0.003,0.082-0.005c0.967-0.026,0.969-1.528,0-1.501
			c-0.163,0.004-0.319,0.027-0.48,0.059c-0.417,0.081-0.607,0.548-0.524,0.923c0.195,0.885,0.903,1.122,1.708,1.131
			c0.57,0.006,1.36-0.028,1.626-0.642c0.333-0.766-0.213-1.252-0.864-1.523c-0.209-0.087-0.432-0.145-0.648-0.205
			c-0.099-0.026-0.197-0.054-0.295-0.083c-0.046-0.013-0.093-0.029-0.14-0.045c0.194,0.069,0.112,0.053,0.061,0.019
			C768.633,253.802,767.882,255.103,768.689,255.628L768.689,255.628z"/>
	</g>
	<g>
		<path fill="#F7941E" d="M772.688,261.458c-0.026,0.041-0.061,0.076-0.104,0.101c0.146-0.102-0.11,0.024,0.083-0.027
			c0.068-0.019,0.146-0.015,0.301-0.01c0.101,0.003,0.199,0.026,0.336,0.063c-0.019-0.004,0.241,0.092,0.145,0.048
			c0.002,0.001,0.215,0.138,0.108,0.052c0.062,0.065,0.067,0.065,0.016,0.002c-0.061-0.086-0.022-0.219,0.017-0.3
			c0.047-0.104,0.249-0.16,0.083-0.11c-0.168,0.05,0.029,0.009-0.156,0.019c-0.155,0.01-0.312-0.002-0.465-0.015
			c-0.083-0.006-0.166-0.017-0.248-0.027c-0.167-0.02,0.054-0.005,0.092,0.072c0.034,0.126,0.068,0.252,0.103,0.379
			c0.002-0.023,0.004-0.047,0.005-0.07c-0.073,0.177-0.147,0.354-0.221,0.531c0.005,0,0.008,0,0.013,0
			c0.87-0.424,0.108-1.719-0.759-1.296c-0.543,0.265-0.734,0.983-0.284,1.437c0.36,0.363,0.813,0.429,1.3,0.476
			c0.836,0.081,1.904-0.14,1.984-1.152c0.132-1.662-2.859-2.174-3.644-0.93C770.873,261.522,772.173,262.275,772.688,261.458
			L772.688,261.458z"/>
	</g>
	<g>
		<path fill="#F7941E" d="M775.597,267.414c0.207-0.336,0.237-0.301,0.652-0.216c0.163,0.033,0.745,0.133,0.793,0.298
			c-0.03-0.103,0.174-0.273,0.31-0.29c-0.145,0.018-0.194-0.002-0.341-0.038c-0.13-0.031-0.264-0.074-0.384-0.128
			c-0.083-0.037-0.164-0.081-0.244-0.125c-0.01-0.006-0.222-0.154-0.091-0.048c-0.748-0.599-1.817,0.456-1.061,1.062
			c0.873,0.698,3.482,1.449,3.307-0.523c-0.093-1.028-0.986-1.447-1.891-1.655c-1.023-0.237-1.784-0.005-2.348,0.905
			C773.789,267.481,775.088,268.235,775.597,267.414L775.597,267.414z"/>
	</g>
	<g>
		<path fill="#F7941E" d="M779.17,273.371c-0.021-0.292,0.104-0.333,0.457-0.418c0.329-0.079,0.73-0.02,1.021,0.139
			c0.124,0.069,0.104,0.064,0.129,0.146c-0.106-0.375,0.496-0.617,0.242-0.562c-0.115,0.024-0.251,0.017-0.37,0.021
			c-0.548,0.023-1.191-0.045-1.708,0.168c-0.883,0.365-0.495,1.817,0.399,1.448c0.752-0.311,1.654,0.046,2.417-0.307
			c1.015-0.47,0.344-1.702-0.273-2.162c-1.265-0.939-3.948-0.343-3.814,1.525C777.738,274.331,779.239,274.337,779.17,273.371
			L779.17,273.371z"/>
	</g>
	<g>
		<path fill="#F7941E" d="M781.968,280.165c0.525-0.168,0.975-0.295,1.53-0.256c0.185,0.015,0.361,0.065,0.529,0.142
			c0.098,0.05,0.193,0.105,0.284,0.168c0.301,0.192-0.33-0.057,0.357-0.304c-0.181,0.065-0.574-0.164-0.7-0.226
			c-0.569-0.279-1.111-0.572-1.722-0.755c-0.93-0.279-1.323,1.17-0.398,1.448c0.922,0.277,3.8,2.166,4.034,0.008
			c0.097-0.884-0.686-1.49-1.426-1.779c-0.959-0.373-1.941-0.197-2.889,0.106C780.65,279.012,781.043,280.461,781.968,280.165
			L781.968,280.165z"/>
	</g>
	<g>
		<path fill="#F7941E" d="M785.882,285.299c0.08-0.211,0.015-0.202-0.196,0.027c0.106-0.012,0.213,0.022,0.316,0.045
			c0.253,0.059,0.505,0.134,0.759,0.198c0.271,0.07,0.538,0.147,0.786,0.281c0.286,0.155,0.08-0.321,0.436-0.348
			c-0.796,0.06-1.592-0.509-2.357-0.659c-0.946-0.184-1.349,1.263-0.399,1.448c0.771,0.149,1.477,0.538,2.258,0.665
			c0.871,0.142,1.936-0.285,1.637-1.369c-0.301-1.098-1.479-1.324-2.432-1.588c-0.46-0.128-0.941-0.247-1.412-0.105
			c-0.638,0.193-0.828,0.816-0.896,1.404C784.268,286.259,785.771,286.249,785.882,285.299L785.882,285.299z"/>
	</g>
	<g>
		<path fill="#F7941E" d="M790.148,293.17c0.005-0.116,0.009-0.231,0.017-0.348c0.02-0.342,0.126-0.126-0.134-0.107
			c0.266-0.02,0.619,0.142,0.869,0.219c0.319,0.1,0.622,0.234,0.917,0.392c0.164,0.088,0.317,0.193,0.46,0.312
			c0.355,0.3,0.05,0.296,0.182-0.088c0.115-0.149,0.229-0.299,0.345-0.448c0.236-0.17-0.034-0.119-0.256-0.202
			c-0.293-0.108-0.593-0.195-0.895-0.276c-0.589-0.158-1.209-0.239-1.817-0.236c-0.968,0.006-0.969,1.507,0,1.502
			c0.649-0.004,1.257,0.127,1.877,0.312c0.55,0.164,1.027,0.421,1.614,0.312c0.47-0.087,0.664-0.612,0.602-1.026
			c-0.074-0.474-0.516-0.875-0.88-1.145c-0.85-0.63-1.966-1.031-3.018-1.129c-1.135-0.105-1.349,1.121-1.385,1.956
			C788.605,294.138,790.107,294.134,790.148,293.17L790.148,293.17z"/>
	</g>
	<g>
		<path fill="#F7941E" d="M794.715,300.676c0.002-0.155-0.006-0.305-0.02-0.458c-0.085,0.231-0.008,0.298,0.232,0.199
			c0.156,0.001,0.312,0.01,0.468,0.028c0.448,0.04,1.036,0.095,1.447,0.295c0.34,0.166-0.606,0.161-0.721,0.155
			c-0.25-0.015-0.5-0.007-0.75-0.022c-0.188-0.012-0.596-0.249-0.497,0.027c-0.025,0.192-0.051,0.385-0.075,0.578
			c-0.272,0.161-0.319,0.218-0.141,0.172c0.243-0.024,0.481,0.047,0.715,0.104c0.426,0.106,0.831,0.242,1.269,0.302
			c0.518,0.072,0.891-0.195,0.949-0.724c0.166-1.493-1.536-1.605-2.596-1.595c-0.968,0.009-0.968,1.511,0,1.501
			c0.237-0.002,0.473-0.006,0.71,0.001c0.123,0.005,0.228,0.021,0.348,0.047c0.219,0.046,0.061-0.169,0.036,0.046
			c0.318-0.241,0.635-0.482,0.951-0.724c-0.911-0.126-1.794-0.598-2.73-0.417c-0.64,0.123-1.161,0.715-0.778,1.368
			c0.393,0.67,1.352,0.785,2.042,0.828c0.719,0.045,1.604,0.144,2.214-0.311c0.571-0.424,0.812-1.321,0.465-1.964
			c-0.328-0.607-0.957-0.865-1.607-0.981c-0.846-0.151-1.723-0.326-2.567-0.086c-0.846,0.241-0.856,0.906-0.864,1.631
			C793.202,301.645,794.703,301.644,794.715,300.676L794.715,300.676z"/>
	</g>
	<g>
		<path fill="#F7941E" d="M799.035,308.694c0.168-0.598,0.39-0.39,0.926-0.162c0.503,0.215,0.98,0.409,1.404,0.765
			c0.107,0.093,0.207,0.196,0.297,0.305c0.08,0.238,0.184,0.187,0.309-0.153c-0.226,0.022-0.58-0.163-0.793-0.22
			c-0.377-0.101-0.764-0.166-1.142-0.262c-0.181-0.042-0.353-0.107-0.515-0.195c-0.159-0.166-0.173-0.078-0.04,0.266
			c-0.115,0.149-0.23,0.299-0.346,0.448c0.303-0.209,1.94,0.796,2.323,0.921c0.922,0.302,1.314-1.147,0.398-1.448
			c-0.974-0.32-1.8-0.965-2.862-0.965c-0.715,0-1.271,0.736-0.897,1.399c0.43,0.763,1.319,0.983,2.113,1.159
			c0.745,0.165,1.71,0.653,2.448,0.221c1.735-1.017-0.529-2.975-1.552-3.378c-0.661-0.26-1.345-0.669-2.08-0.593
			c-0.826,0.085-1.232,0.757-1.438,1.493C797.325,309.229,798.774,309.625,799.035,308.694L799.035,308.694z"/>
	</g>
	<g>
		<path fill="#F7941E" d="M803.363,316.331c0.193-0.526,1.559,0.142,1.92,0.319c0.339,0.164,0.504,0.558,0.687,0.863
			c0.117,0.193,0.249,0.377,0.374,0.565c0.217,0.328,0.186-0.548,0.394-0.552c-0.496,0.009-1.011-0.229-1.506-0.292
			c-0.578-0.073-1.531-0.284-1.692-0.932c-0.174,0.308-0.349,0.615-0.523,0.924c0.893-0.231,1.899,0.563,2.759,0.75
			c0.944,0.205,1.345-1.242,0.398-1.448c-1.222-0.266-2.253-1.088-3.557-0.752c-0.403,0.105-0.621,0.531-0.523,0.924
			c0.345,1.396,1.812,1.805,3.055,2.028c0.749,0.133,2.511,0.792,2.704-0.473c0.107-0.706-0.456-1.284-0.794-1.852
			c-0.397-0.667-0.915-1.044-1.635-1.315c-1.38-0.521-2.888-0.843-3.507,0.842C801.581,316.842,803.033,317.232,803.363,316.331
			L803.363,316.331z"/>
	</g>
</g>
<g id="Ebene_8">
	<g id="Ebene_4">
		<g id="Test_Cases_links">
			
				<path fill="#FFFFFF" stroke="#0094AC" stroke-width="2.1736" stroke-linecap="round" stroke-linejoin="round" stroke-miterlimit="10" d="
				M516.419,75.991c0,0,3.585,13.748-0.365,18.952c15.81-3.987,27.953-6.7,37.459,1.667c0,0,12.257-8.754,12.007-12.229
				C565.27,80.906,529.622,64.856,516.419,75.991z"/>
			
				<path fill="#FFFFFF" stroke="#0094AC" stroke-width="2.1736" stroke-linecap="round" stroke-linejoin="round" stroke-miterlimit="10" d="
				M579.726,107.062c1.596,3.375,14.138,24.706,11.379,32.561c-0.57,2.071-2.165,1.929-6.35-3.908
				c4.257-7.838-3.748-15.509-11.566-22.713c12.648-8.174,3.307-6.069,3.307-6.069s0.799,0.746,1.358,2.757"/>
			
				<path fill="#FFFFFF" stroke="#0094AC" stroke-width="2.1736" stroke-linecap="round" stroke-linejoin="round" stroke-miterlimit="10" d="
				M601.574,134.085c0,0,3.36-6.374,7.551-5.228c4.478-9.45,15.073-26.347,23.379-28.924c0,0,3.723-7.732-11.456-11.457
				C605.869,84.754,597.01,128.996,601.574,134.085z"/>
			
				<path fill="#FFFFFF" stroke="#0094AC" stroke-width="2.1736" stroke-linecap="round" stroke-linejoin="round" stroke-miterlimit="10" d="
				M643.673,95.35c0,0,3.724-12.601,0-17.183c10.311-3.724,36.658-4.868,45.536,3.724c2.577,9.45,1.718,16.828,0,19.583
				C685.199,99.933,663.721,91.055,643.673,95.35z"/>
			
				<path fill="#FCFCFC" stroke="#0094AC" stroke-width="2.1736" stroke-linecap="round" stroke-linejoin="round" stroke-miterlimit="10" d="
				M724.454,106.14c15.732,0,28.079,20.57,23.635,28.016c-0.6-9.091-7.158-0.859-7.158-0.859s-2.028-21.066-29.274-19.634
				c0.464-1.702,1.252-2.493,2.034-3.436"/>
			
				<path fill="none" stroke="#0094AC" stroke-width="2.1736" stroke-linecap="round" stroke-linejoin="round" stroke-miterlimit="10" d="
				M745.167,129.962c0,0,1.964,1.658,2.922,4.194"/>
			
				<path fill="#FFFFFF" stroke="#0094AC" stroke-width="2.1736" stroke-linecap="round" stroke-linejoin="round" stroke-miterlimit="10" d="
				M685.602,103.37c0,0,2.311,6.534-3.704,11.403c24.433,2.917,54.14-13.479,53.348-18.061c-4.514-4.869-10.499-9.967-16.514-10.605
				C715.009,90.912,699.097,103.478,685.602,103.37z"/>
		</g>
		<g id="Ebene_8_1_">
			<path fill="none" stroke="#0094AC" stroke-width="2" stroke-linecap="round" stroke-linejoin="round" stroke-miterlimit="10" d="
				M612.565,100.794c0,0,1.517-3.635,4.321-1.611c2.805,2.024-6.09,7.897-7.938,10.95c1.543-0.708,2.936-0.124,4.061-0.142"/>
			<path fill="none" stroke="#0094AC" stroke-width="2" stroke-linecap="round" stroke-linejoin="round" stroke-miterlimit="10" d="
				M621.073,100.18l-4.935,6.723c0,0,2.622-0.115,4.325,1.203"/>
			<path fill="none" stroke="#0094AC" stroke-width="2" stroke-linecap="round" stroke-linejoin="round" stroke-miterlimit="10" d="
				M621.757,104.319c0,0-3.704,2.653-6.182,6.989"/>
			<path fill="none" stroke="#0094AC" stroke-width="2" stroke-linecap="round" stroke-linejoin="round" stroke-miterlimit="10" d="
				M605.655,115.636c0,0,6.98-1.742,8.698,0.191"/>
			<path fill="none" stroke="#0094AC" stroke-width="2" stroke-linecap="round" stroke-linejoin="round" stroke-miterlimit="10" d="
				M604.902,119.068c0,0,5.103-2.095,7.196,0"/>
			<path fill="none" stroke="#0094AC" stroke-width="2" stroke-linecap="round" stroke-linejoin="round" stroke-miterlimit="10" d="
				M603.937,123.346c0,0,5.012-3.651,6.068-1.433"/>
			<path fill="none" stroke="#0094AC" stroke-width="2" stroke-linecap="round" stroke-linejoin="round" stroke-miterlimit="10" d="
				M603.937,126.674c0,0,4.081-4.081,5.012-1.566"/>
			<path fill="none" stroke="#0094AC" stroke-width="2" stroke-linecap="round" stroke-linejoin="round" stroke-miterlimit="10" d="
				M681.046,80.816c0,0,3.438,3.329,0.216,4.296c-2.613,0.784-7.947-5.237-7.947-5.237l-0.188,4.736"/>
			<path fill="none" stroke="#0094AC" stroke-width="2" stroke-linecap="round" stroke-linejoin="round" stroke-miterlimit="10" d="
				M681.897,89.92c0,0,1.504,1.743,0,2.387c-1.503,0.645-3.428,0-3.105-2.255c-0.43,1.396-1.182,3.33-3.437,2.148
				c-2.256-1.182-3.974-4.761-1.289-5.441"/>
			<path fill="none" stroke="#0094AC" stroke-width="2" stroke-linecap="round" stroke-linejoin="round" stroke-miterlimit="10" d="
				M667.944,78.775c0,0,1.305,3.867-0.689,10.74"/>
			<path fill="none" stroke="#0094AC" stroke-width="2" stroke-linecap="round" stroke-linejoin="round" stroke-miterlimit="10" d="
				M664.881,78.775c0,0,0.916,3.169,0.271,5.692"/>
			<path fill="none" stroke="#0094AC" stroke-width="2" stroke-linecap="round" stroke-linejoin="round" stroke-miterlimit="10" d="
				M660.749,79.42c0,0,2.147,5.191,0,10.095"/>
			<path fill="none" stroke="#0094AC" stroke-width="2" stroke-linecap="round" stroke-linejoin="round" stroke-miterlimit="10" d="
				M656.883,79.42c0,0,1.288,5.129,0,10.095"/>
			<path fill="none" stroke="#0094AC" stroke-width="2" stroke-linecap="round" stroke-linejoin="round" stroke-miterlimit="10" d="
				M716.488,94.026c0,0,3.988-3.651,3.973-0.24c-0.01,2.407-10.524,4.784-10.524,4.784s1.831,1.004,1.831,2.042"/>
			<path fill="none" stroke="#0094AC" stroke-width="2" stroke-linecap="round" stroke-linejoin="round" stroke-miterlimit="10" d="
				M720.032,98.57c0,0,5.477-3.792,4.188,0.826c-0.788,2.823-11.349,3.633-11.349,3.633s1.164,2.081,1.039,3.11"/>
			<path fill="none" stroke="#0094AC" stroke-width="2" stroke-linecap="round" stroke-linejoin="round" stroke-miterlimit="10" d="
				M705.641,100.18c0,0,3.114,1.972,3.545,8.058"/>
			<path fill="none" stroke="#0094AC" stroke-width="2" stroke-linecap="round" stroke-linejoin="round" stroke-miterlimit="10" d="
				M702.419,101.474c0,0,2.656,4.574,2.47,8.018"/>
			<path fill="none" stroke="#0094AC" stroke-width="2" stroke-linecap="round" stroke-linejoin="round" stroke-miterlimit="10" d="
				M698.659,103.047c0,0,1.865,5.919,1.112,7.531"/>
			<path fill="none" stroke="#0094AC" stroke-width="2" stroke-linecap="round" stroke-linejoin="round" stroke-miterlimit="10" d="
				M694.9,104.351c0,0,0.752,2.573,0.537,4.389"/>
			<path fill="none" stroke="#0094AC" stroke-width="2" stroke-linecap="round" stroke-linejoin="round" stroke-miterlimit="10" d="
				M722.717,110.578c0,0,2.055-3.877,4.303-4.253"/>
			<path fill="none" stroke="#0094AC" stroke-width="2" stroke-linecap="round" stroke-linejoin="round" stroke-miterlimit="10" d="
				M727.02,111.308c0,0,1.044-3.932,3.311-4.217"/>
			<path fill="none" stroke="#0094AC" stroke-width="2" stroke-linecap="round" stroke-linejoin="round" stroke-miterlimit="10" d="
				M731.416,110.578c0,0,0.934-2.093,2.186-2.126"/>
			<path fill="none" stroke="#0094AC" stroke-width="2" stroke-linecap="round" stroke-linejoin="round" stroke-miterlimit="10" d="
				M732.668,114.682c0,0,2.319-4.015,3.756-4.549"/>
			<path fill="none" stroke="#0094AC" stroke-width="2" stroke-linecap="round" stroke-linejoin="round" stroke-miterlimit="10" d="
				M745.167,121.227l-0.854,3.062c0,0-1.837-5.275-5.165-8.462"/>
		</g>
	</g>
</g>
<g id="Ebene_9">
	<path fill="none" stroke="#0094AC" stroke-width="2" stroke-linecap="round" stroke-linejoin="round" stroke-miterlimit="10" d="
		M518.704,157.372c0,0,8.982-0.909,17.272-8.182c8.145-7.126,8.344-15.874,6.743-18.492c-0.289-1.309-16.844-6.552-31.388,0.139
		c-4.509,1.745-6.386,3.919-6.386,3.919s-47.742-17.628-51.778-11.922c-4.833,6.833,20.333,14.167,47.136,16.282
		c-0.293,1.746-2.183,4.511-2.183,4.511l1.893,0.145l-0.581,4.07l2.762,0.728l-1.018,2.765l1.602,1.453l-0.583,3.055l-1.741,5.095
		c0,0-3.492,11.634-6.109,15.708c-2.619,4.074-13.674,23.122-15.276,26.904c-0.872-1.163-2.618-1.746-2.618-1.746l-3.014,2.186
		L471,203.263V205h-3l-0.665,4.108l-2.835-0.296l1.375,2.312l-3.5,0.625l3.375,2.5l-2.625,4.75l3.125,0.875l-1.875,4.375
		l3.914-1.427L468,226l1.5,1.875l2.851-3.349"/>
	<path fill="none" stroke="#0094AC" stroke-width="2" stroke-linecap="round" stroke-linejoin="round" stroke-miterlimit="10" d="
		M506.143,214.963c0,0,1.549,1.376,2.354,7.771c-0.167,5.317-3.163,8.57-3.163,8.57s10.355,17.265,4.999,22.529
		c-7.391-10.019-17.832-20.152-17.832-20.152"/>
	<path fill="none" stroke="#0094AC" stroke-width="2" stroke-linecap="round" stroke-linejoin="round" stroke-miterlimit="10" d="
		M477.833,214.202c-4.348,2.524-6.765,21.293-5.333,23.295c11.089,10.984,20.559,22.787,20.559,22.787s2.257-15.617-4.226-23.788
		c2.5-3.21,7.667-10.043,6.167-16.019"/>
	<path fill="none" stroke="#0094AC" stroke-width="2" stroke-linecap="round" stroke-linejoin="round" stroke-miterlimit="10" d="
		M514.705,138.099c0,0-1.164,1.164,0,1.309C515.867,139.552,516.159,137.954,514.705,138.099z"/>
	<path fill="none" stroke="#0094AC" stroke-width="2" stroke-linecap="round" stroke-linejoin="round" stroke-miterlimit="10" d="
		M507.287,131.99c0,0-35.787-33.214-40.287-33.156c-5.667,2,3.667,14.667,8.5,19c3.628,3.39,14.47,11.758,14.47,11.758"/>
	<path fill="none" stroke="#0094AC" stroke-width="2" stroke-linecap="round" stroke-linejoin="round" stroke-miterlimit="10" d="
		M537.685,133.152c0,0,5.236-0.579,5.089-2.471"/>
	<path fill="none" stroke="#0094AC" stroke-width="2" stroke-linecap="round" stroke-linejoin="round" stroke-miterlimit="10" d="
		M522.266,198.822c-5.099,10.775-21.164,19.158-21.164,19.158"/>
	<path fill="none" stroke="#0094AC" stroke-width="2" stroke-linecap="round" stroke-linejoin="round" stroke-miterlimit="10" d="
		M513.395,190.968c0,0,4.507,10.181,8.871,7.854c4.364-2.327,2.91-8.582,4.364-9.164c1.456-0.581-0.108,4.094,4.98,6.128
		c5.093,2.035,5.239-7.273,3.348-11.637l-2.183-6.618l0.437-1.309l-2.911-2.181l-0.579-2.474l-1.636-2.182L527,166.023v-1.887
		l-2.002-2.326l0.237-2.474l1.789-0.873l-1.865-1.018l0.737-1.02l-5.666,0.583"/>
</g>
<g id="Sparcles_1_">
	<g>
		<g>
			<path fill="#F7941E" d="M758.5,236.5c1.935,0,1.935-3,0-3S756.565,236.5,758.5,236.5L758.5,236.5z"/>
		</g>
	</g>
	<g>
		<g>
			<path fill="#F7941E" d="M751,227c1.935,0,1.935-3,0-3S749.065,227,751,227L751,227z"/>
		</g>
	</g>
	<g>
		<g>
			<path fill="#F7941E" d="M751.5,215.5c1.935,0,1.935-3,0-3S749.565,215.5,751.5,215.5L751.5,215.5z"/>
		</g>
	</g>
	<g>
		<g>
			<path fill="#F7941E" d="M752,203c1.935,0,1.935-3,0-3S750.065,203,752,203L752,203z"/>
		</g>
	</g>
	<g>
		<g>
			<path fill="#F7941E" d="M745.5,200c1.935,0,1.935-3,0-3S743.565,200,745.5,200L745.5,200z"/>
		</g>
	</g>
	<g>
		<g>
			<path fill="#F7941E" d="M751,197c1.935,0,1.935-3,0-3S749.065,197,751,197L751,197z"/>
		</g>
	</g>
	<g>
		<g>
			<path fill="#F7941E" d="M764,191.5c1.935,0,1.935-3,0-3S762.065,191.5,764,191.5L764,191.5z"/>
		</g>
	</g>
	<g>
		<g>
			<path fill="#F7941E" d="M755,180.5c1.935,0,1.935-3,0-3S753.065,180.5,755,180.5L755,180.5z"/>
		</g>
	</g>
	<g>
		<g>
			<path fill="#F7941E" d="M769.5,163.5c1.935,0,1.935-3,0-3S767.565,163.5,769.5,163.5L769.5,163.5z"/>
		</g>
	</g>
	<g>
		<g>
			<path fill="#F7941E" d="M731,175.5c1.935,0,1.935-3,0-3S729.065,175.5,731,175.5L731,175.5z"/>
		</g>
	</g>
	<g>
		<g>
			<path fill="#F7941E" d="M740,136c1.935,0,1.935-3,0-3S738.065,136,740,136L740,136z"/>
		</g>
	</g>
	<g>
		<g>
			<path fill="#F7941E" d="M710.5,145.5c1.935,0,1.935-3,0-3S708.565,145.5,710.5,145.5L710.5,145.5z"/>
		</g>
	</g>
	<g>
		<g>
			<path fill="#F7941E" d="M687,143c1.935,0,1.935-3,0-3S685.065,143,687,143L687,143z"/>
		</g>
	</g>
	<g>
		<g>
			<path fill="#F7941E" d="M692.5,224.5c1.935,0,1.935-3,0-3S690.565,224.5,692.5,224.5L692.5,224.5z"/>
		</g>
	</g>
	<g>
		<g>
			<path fill="#F7941E" d="M800,147.5c1.935,0,1.935-3,0-3S798.065,147.5,800,147.5L800,147.5z"/>
		</g>
	</g>
	<g>
		<g>
			<path fill="#F7941E" d="M718,104c1.935,0,1.935-3,0-3S716.065,104,718,104L718,104z"/>
		</g>
	</g>
	<g>
		<g>
			<path fill="#F7941E" d="M706,109.5c1.935,0,1.935-3,0-3S704.065,109.5,706,109.5L706,109.5z"/>
		</g>
	</g>
	<g>
		<g>
			<path fill="#F7941E" d="M721,85.5c1.935,0,1.935-3,0-3S719.065,85.5,721,85.5L721,85.5z"/>
		</g>
	</g>
	<g>
		<g>
			<path fill="#F7941E" d="M682.5,119.5c1.935,0,1.935-3,0-3S680.565,119.5,682.5,119.5L682.5,119.5z"/>
		</g>
	</g>
	<g>
		<g>
			<path fill="#F7941E" d="M671,103.5c1.935,0,1.935-3,0-3S669.065,103.5,671,103.5L671,103.5z"/>
		</g>
	</g>
	<g>
		<g>
			<path fill="#F7941E" d="M664.5,116.5c1.935,0,1.935-3,0-3S662.565,116.5,664.5,116.5L664.5,116.5z"/>
		</g>
	</g>
	<g>
		<g>
			<path fill="#F7941E" d="M659.5,125.5c1.935,0,1.935-3,0-3S657.565,125.5,659.5,125.5L659.5,125.5z"/>
		</g>
	</g>
	<g>
		<g>
			<path fill="#F7941E" d="M658.5,133.5c1.935,0,1.935-3,0-3S656.565,133.5,658.5,133.5L658.5,133.5z"/>
		</g>
	</g>
	<g>
		<g>
			<path fill="#F7941E" d="M653.5,145.5c1.935,0,1.935-3,0-3S651.565,145.5,653.5,145.5L653.5,145.5z"/>
		</g>
	</g>
	<g>
		<g>
			<path fill="#F7941E" d="M640.5,150c1.935,0,1.935-3,0-3S638.565,150,640.5,150L640.5,150z"/>
		</g>
	</g>
	<g>
		<g>
			<path fill="#F7941E" d="M615.5,154.5c1.935,0,1.935-3,0-3S613.565,154.5,615.5,154.5L615.5,154.5z"/>
		</g>
	</g>
	<g>
		<g>
			<path fill="#F7941E" d="M617.5,138.5c1.935,0,1.935-3,0-3S615.565,138.5,617.5,138.5L617.5,138.5z"/>
		</g>
	</g>
	<g>
		<g>
			<path fill="#F7941E" d="M624.5,134c1.935,0,1.935-3,0-3S622.565,134,624.5,134L624.5,134z"/>
		</g>
	</g>
	<g>
		<g>
			<path fill="#F7941E" d="M614.5,130.5c1.935,0,1.935-3,0-3S612.565,130.5,614.5,130.5L614.5,130.5z"/>
		</g>
	</g>
	<g>
		<g>
			<path fill="#F7941E" d="M614.5,118.5c1.935,0,1.935-3,0-3S612.565,118.5,614.5,118.5L614.5,118.5z"/>
		</g>
	</g>
	<g>
		<g>
			<path fill="#F7941E" d="M597,106.5c1.935,0,1.935-3,0-3S595.065,106.5,597,106.5L597,106.5z"/>
		</g>
	</g>
	<g>
		<g>
			<path fill="#F7941E" d="M629.5,108.5c1.935,0,1.935-3,0-3S627.565,108.5,629.5,108.5L629.5,108.5z"/>
		</g>
	</g>
	<g>
		<g>
			<path fill="#F7941E" d="M671.5,78c1.935,0,1.935-3,0-3S669.565,78,671.5,78L671.5,78z"/>
		</g>
	</g>
	<g>
		<g>
			<path fill="#F7941E" d="M638,81.5c1.935,0,1.935-3,0-3S636.065,81.5,638,81.5L638,81.5z"/>
		</g>
	</g>
	<g>
		<g>
			<path fill="#F7941E" d="M612,67.5c1.935,0,1.935-3,0-3S610.065,67.5,612,67.5L612,67.5z"/>
		</g>
	</g>
	<g>
		<g>
			<path fill="#F7941E" d="M609.5,49.5c1.935,0,1.935-3,0-3S607.565,49.5,609.5,49.5L609.5,49.5z"/>
		</g>
	</g>
	<g>
		<g>
			<path fill="#F7941E" d="M598,37c1.935,0,1.935-3,0-3S596.065,37,598,37L598,37z"/>
		</g>
	</g>
	<g>
		<g>
			<path fill="#F7941E" d="M534.5,267.5c1.935,0,1.935-3,0-3S532.565,267.5,534.5,267.5L534.5,267.5z"/>
		</g>
	</g>
	<g>
		<g>
			<path fill="#F7941E" d="M546,253.5c1.935,0,1.935-3,0-3S544.065,253.5,546,253.5L546,253.5z"/>
		</g>
	</g>
	<g>
		<g>
			<path fill="#F7941E" d="M544.5,226.5c1.935,0,1.935-3,0-3S542.565,226.5,544.5,226.5L544.5,226.5z"/>
		</g>
	</g>
	<g>
		<g>
			<path fill="#F7941E" d="M538.5,206c1.935,0,1.935-3,0-3S536.565,206,538.5,206L538.5,206z"/>
		</g>
	</g>
	<g>
		<g>
			<path fill="#F7941E" d="M542,190c1.935,0,1.935-3,0-3S540.065,190,542,190L542,190z"/>
		</g>
	</g>
	<g>
		<g>
			<path fill="#F7941E" d="M707.5,240c1.935,0,1.935-3,0-3S705.565,240,707.5,240L707.5,240z"/>
		</g>
	</g>
	<g>
		<g>
			<path fill="#F7941E" d="M680.5,246.5c1.935,0,1.935-3,0-3S678.565,246.5,680.5,246.5L680.5,246.5z"/>
		</g>
	</g>
	<g>
		<g>
			<path fill="#F7941E" d="M595,274c1.935,0,1.935-3,0-3S593.065,274,595,274L595,274z"/>
		</g>
	</g>
	<g>
		<g>
			<path fill="#F7941E" d="M579.5,260c1.935,0,1.935-3,0-3S577.565,260,579.5,260L579.5,260z"/>
		</g>
	</g>
	<g>
		<g>
			<path fill="#F7941E" d="M569.5,256c1.935,0,1.935-3,0-3S567.565,256,569.5,256L569.5,256z"/>
		</g>
	</g>
	<g>
		<g>
			<path fill="#F7941E" d="M509,240c1.935,0,1.935-3,0-3S507.065,240,509,240L509,240z"/>
		</g>
	</g>
	<g>
		<g>
			<path fill="#F7941E" d="M509,228c1.935,0,1.935-3,0-3S507.065,228,509,228L509,228z"/>
		</g>
	</g>
	<g>
		<g>
			<path fill="#F7941E" d="M482,184c1.935,0,1.935-3,0-3S480.065,184,482,184L482,184z"/>
		</g>
	</g>
	<g>
		<g>
			<path fill="#F7941E" d="M543.5,155c1.935,0,1.935-3,0-3S541.565,155,543.5,155L543.5,155z"/>
		</g>
	</g>
	<g>
		<g>
			<path fill="#F7941E" d="M517,169c1.935,0,1.935-3,0-3S515.065,169,517,169L517,169z"/>
		</g>
	</g>
	<g>
		<g>
			<path fill="#F7941E" d="M509,161.5c1.935,0,1.935-3,0-3S507.065,161.5,509,161.5L509,161.5z"/>
		</g>
	</g>
	<g>
		<g>
			<path fill="#F7941E" d="M498,157c1.935,0,1.935-3,0-3S496.065,157,498,157L498,157z"/>
		</g>
	</g>
	<g>
		<g>
			<path fill="#F7941E" d="M497,149c1.935,0,1.935-3,0-3S495.065,149,497,149L497,149z"/>
		</g>
	</g>
	<g>
		<g>
			<path fill="#F7941E" d="M496,138c1.935,0,1.935-3,0-3S494.065,138,496,138L496,138z"/>
		</g>
	</g>
	<g>
		<g>
			<path fill="#F7941E" d="M491,127c1.935,0,1.935-3,0-3S489.065,127,491,127L491,127z"/>
		</g>
	</g>
	<g>
		<g>
			<path fill="#F7941E" d="M391,230.5c1.935,0,1.935-3,0-3S389.065,230.5,391,230.5L391,230.5z"/>
		</g>
	</g>
	<g>
		<g>
			<path fill="#F7941E" d="M343,223c1.935,0,1.935-3,0-3S341.065,223,343,223L343,223z"/>
		</g>
	</g>
	<g>
		<g>
			<path fill="#F7941E" d="M277.5,60c1.935,0,1.935-3,0-3S275.565,60,277.5,60L277.5,60z"/>
		</g>
	</g>
	<g>
		<g>
			<path fill="#F7941E" d="M260.5,71c1.935,0,1.935-3,0-3S258.565,71,260.5,71L260.5,71z"/>
		</g>
	</g>
	<g>
		<g>
			<path fill="#F7941E" d="M279.5,195.5c1.935,0,1.935-3,0-3S277.565,195.5,279.5,195.5L279.5,195.5z"/>
		</g>
	</g>
	<g>
		<g>
			<path fill="#F7941E" d="M316,194c1.935,0,1.935-3,0-3S314.065,194,316,194L316,194z"/>
		</g>
	</g>
	<g>
		<g>
			<path fill="#F7941E" d="M316.5,184c1.935,0,1.935-3,0-3S314.565,184,316.5,184L316.5,184z"/>
		</g>
	</g>
	<g>
		<g>
			<path fill="#F7941E" d="M314,176.5c1.935,0,1.935-3,0-3S312.065,176.5,314,176.5L314,176.5z"/>
		</g>
	</g>
	<g>
		<g>
			<path fill="#F7941E" d="M308,170.5c1.935,0,1.935-3,0-3S306.065,170.5,308,170.5L308,170.5z"/>
		</g>
	</g>
	<g>
		<g>
			<path fill="#F7941E" d="M299.5,153.5c1.935,0,1.935-3,0-3S297.565,153.5,299.5,153.5L299.5,153.5z"/>
		</g>
	</g>
	<g>
		<g>
			<path fill="#F7941E" d="M338.5,176c1.935,0,1.935-3,0-3S336.565,176,338.5,176L338.5,176z"/>
		</g>
	</g>
	<g>
		<g>
			<path fill="#F7941E" d="M348,254.5c1.935,0,1.935-3,0-3S346.065,254.5,348,254.5L348,254.5z"/>
		</g>
	</g>
	<g>
		<g>
			<path fill="#F7941E" d="M447.5,263.5c1.935,0,1.935-3,0-3S445.565,263.5,447.5,263.5L447.5,263.5z"/>
		</g>
	</g>
	<g>
		<g>
			<path fill="#F7941E" d="M622,244c1.935,0,1.935-3,0-3S620.065,244,622,244L622,244z"/>
		</g>
	</g>
	<g>
		<g>
			<path fill="#F7941E" d="M752,236.5c1.935,0,1.935-3,0-3S750.065,236.5,752,236.5L752,236.5z"/>
		</g>
	</g>
	<g>
		<g>
			<path fill="#F7941E" d="M737,234.5c1.935,0,1.935-3,0-3S735.065,234.5,737,234.5L737,234.5z"/>
		</g>
	</g>
	<g>
		<g>
			<path fill="#F7941E" d="M712,232.5c1.935,0,1.935-3,0-3S710.065,232.5,712,232.5L712,232.5z"/>
		</g>
	</g>
</g>
</svg>
