<?xml version="1.0" encoding="utf-8"?>
<!-- Generator: Adobe Illustrator 16.0.0, SVG Export Plug-In . SVG Version: 6.00 Build 0)  -->
<!DOCTYPE svg PUBLIC "-//W3C//DTD SVG 1.1//EN" "http://www.w3.org/Graphics/SVG/1.1/DTD/svg11.dtd">
<svg version="1.1" id="Ebene_2" xmlns="http://www.w3.org/2000/svg" xmlns:xlink="http://www.w3.org/1999/xlink" x="0px" y="0px"
	 width="930px" height="840px" viewBox="0 0 930 840" enable-background="new 0 0 930 840" xml:space="preserve">
<path d="M589.001,135.03c0,0-12.667-88.187-19-96.853c-8-3-18-3.5-35,4.833s-42,31.333-42,31.333s43.667,50.167,51.667,79.167
	C561.668,140.51,584.001,136.03,589.001,135.03z"/>
<path fill="#F7941E" d="M608.75,171.448c0,0,0.525-0.562-1.737-2s-2.263-2.438-1.138-3.438s1.375-1.875,0.25-3.375
	s-5.562-4.562-5.688-6.25s-1.312-4.75-4.5-4.812c-1.75-0.125-0.438-2,0.375-2.375c0,0,2.688-1.062,2.75-1.688s-1.043-2.5-3.99-4.438
	c-1.322-1-1.072-1.938-0.26-2.562s1.5-2.154,0.5-2.827s-2.688-1.61-3.062-2.048s-0.875-0.75-2.312-0.688s-23.188,2.125-45.5,18.625
	c0,0-2.938,2.625-0.812,4.375s7.812,5.125,7.25,6.938s-3.125,5.438-2.062,6.562c1.938,2.438,4.438,2.062,4.812,3.25
	c0,0,1,0.812-1.25,2.875s0.188,4.562,2.125,5.125s3.75,1.625,2.812,1.812s-4.312,3.625-1.875,5.062
	C560.062,187.385,586.25,177.073,608.75,171.448z"/>
<path fill="none" stroke="#F7941E" stroke-width="2" stroke-linecap="round" stroke-linejoin="round" stroke-miterlimit="10" d="
	M161.25,699.521l142-267.531c0,0,12-21.854,19.73-6.532c0.812,2.057,0.645,2.933,2.145-0.069c1.5-3.001,3.75-14.877,1.625-16.002
	c0,0,6.755,6.458-0.75,19.295c-1.969,3.568-2.771,1.5-4.438-3.835c0,0-1.649-11.669-11.939-3.002
	c-5.29,3.168-11.124,16.175-11.124,16.175L157.622,701.187"/>
<path fill="none" stroke="#F7941E" stroke-width="2" stroke-linecap="round" stroke-linejoin="round" stroke-miterlimit="10" d="
	M305.25,416.01c0,0-10.25,2.5-27.25,34.76c-17,32.25-128.25,242.75-128.25,242.75"/>
<path fill="none" stroke="#F7941E" stroke-width="2" stroke-linecap="round" stroke-linejoin="round" stroke-miterlimit="10" d="
	M244,544.771c0,0,26.25,8.75,26.75,10.062S195.5,696.021,195.5,696.021l73-141.25l-25.833-8.639"/>
<polyline fill="none" stroke="#F7941E" stroke-width="2" stroke-linecap="round" stroke-linejoin="round" stroke-miterlimit="10" points="
	234.5,561.519 259,571.021 236.875,559.771 "/>
<path fill="none" stroke="#F7941E" stroke-width="2" stroke-linecap="round" stroke-linejoin="round" stroke-miterlimit="10" d="
	M264.056,477.188C242.5,465.771,219.5,508.021,217,512.521s0.5,11,0.75,15s-20.5,39-42.5,76.5s-35.25,84-35.25,84
	s64.75-116.25,75-133.25c2.75-2.25,7.5,1,7.5,1s-2-4.583-6.833-3.75S138,689.687,138,689.687s18.167-54.249,26.167-69.291
	S218.5,528.854,218,522.354s-1.667-12.972-1-14.319s29.279-41.514,47.056-34.181"/>
<path fill="none" stroke="#F7941E" stroke-width="2" stroke-linecap="round" stroke-linejoin="round" stroke-miterlimit="10" d="
	M277,482.271c0,0,13,7.75,9.5,21.75s-15.748,33.5-15.748,33.5"/>
<path fill="none" stroke="#F7941E" stroke-width="2" stroke-linecap="round" stroke-linejoin="round" stroke-miterlimit="10" d="
	M261.167,531.978c0,0,15.083-28.457,14.083-31.957s-4.498-4.75-4.498-4.75"/>
<path fill="none" stroke="#F7941E" stroke-width="2" stroke-linecap="round" stroke-linejoin="round" stroke-miterlimit="10" d="
	M254.505,495.271c0,0-4.912,2.25-9.958,10.5s-7.297,13.25-3.527,15.028"/>
<path fill="none" stroke="#F7941E" stroke-width="2" stroke-linecap="round" stroke-linejoin="round" stroke-miterlimit="10" d="
	M264.75,550.771l6.002-10.25c0,0,1.748-3-4.252-6.5s-10.75,0-10.75,0s2.5,3.445-2.75,7.598c-4,0.152-3.75,0.152-6.25-1.348
	c0,0,3.927,4.279,7.755,1.348s3.328-6.932,3.328-6.932s14.356-1.46,11.539,8.19"/>
<path fill="none" stroke="#F7941E" stroke-width="2" stroke-linecap="round" stroke-linejoin="round" stroke-miterlimit="10" d="
	M173.25,726.021c0,0,12.75,11,19,8.75s9.37-9.442,8.75-12.5c-22.5-12.75-65-35.5-67.5-38.25c-6,2.75-12.704,10.661-10.25,12
	c2.75,1.5,1.893,3.75-0.179,7.25l-15.718,26.46c0,0,15.647,22.957,67.023,36.957c9.25-14.833,19.415-32.604,19.415-32.604
	l-19.006,34.437c0,0-61.285-28.001-66.285-32.667s21.037-50.553,22.167-51.833s71.362,36.5,71.362,36.5s-3.206,13.616-11.862,12.5
	S173.25,726.021,173.25,726.021"/>
<polyline fill="none" stroke="#F7941E" stroke-width="2" stroke-linecap="round" stroke-linejoin="round" stroke-miterlimit="10" points="
	200.219,719.549 277.25,559.771 196.931,721.485 "/>
<path fill="none" stroke="#F7941E" stroke-width="2" stroke-linecap="round" stroke-linejoin="round" stroke-miterlimit="10" d="
	M170,782.771c5.5-0.25,4.75,5.375,4.75,5.375c-0.25,3.875-3.25,7.25-7,7.25s-4.625-3.625-3.625-7.375S170,782.771,170,782.771
	c3.25-1-0.142-10.523-5.892-10.19c-8.358-0.009-43.108,34.44-43.108,34.44s28.164-27.042,32.164-29.667
	c0,0,16.409-14.216,19.67-1.166c0.833,3.333-0.647,6.868-0.647,6.868s3.271-0.073,3.814,2.882c0.75,4.083-2,12.916-11,7.417
	c-5.5-4.167,1.901-10.911,3.75-10.833c1.637,0.069,2.872,0.374,2.872,0.374"/>
<path fill="none" stroke="#F7941E" stroke-width="2" stroke-linecap="round" stroke-linejoin="round" stroke-miterlimit="10" d="
	M163.5,794.489l-44.75,31.531l-96.25-47c0,0-2.5-6.375,1.75-9"/>
<path fill="none" stroke="#F7941E" stroke-width="2" stroke-linecap="round" stroke-linejoin="round" stroke-miterlimit="10" d="
	M163.5,790.771l-46.875,24.375l-91.5-45.125c0,0-1.875-9,5.125-13.875C42.5,760.021,64,770.396,70,774.396l-39.5-16.375
	c0,0-5.167,4.334-4,11.167c7.833,7.5,89.667,48,89.667,48l41-20.667L116,827.854l-93.167-45.666c0,0-1.22-9.303,2.292-12.167"/>
<path fill="none" stroke="#F7941E" stroke-width="2" stroke-linecap="round" stroke-linejoin="round" stroke-miterlimit="10" d="
	M32.375,756.146c0,0,10.75-8.5,17.5-10.25c11.5,5.625,89.125,43.125,89.125,43.125l-85.5-43.125c0,0-18.205,8.712-18.5,10.25"/>
<path fill="none" stroke="#F7941E" stroke-width="2" stroke-linecap="round" stroke-linejoin="round" stroke-miterlimit="10" d="
	M113,743.521c0,0-12.667,8.5-37.875,14.5c0,0,37.042-7.5,43.283-17.474"/>
<path fill="none" stroke="#F7941E" stroke-width="2" stroke-linecap="round" stroke-linejoin="round" stroke-miterlimit="10" d="
	M290.25,457.146c3.75-1.75,12.383-7.793,15-9.567c2.087-1.415,6.875-7.257,2.75-7.072c-3.012,0.136-12.229,5.578-12.229,5.578
	s9.726-7.064,13.853-6.814s0.041,6.689-5.209,10.689l-16.013,10.01"/>
<path fill="none" stroke="#F7941E" stroke-width="2" stroke-linecap="round" stroke-linejoin="round" stroke-miterlimit="10" d="
	M306,447.396c0,0,1.625,0-0.75,6.625c-1.641,4.578-18.25,34.625-20.25,37c0,0,23.987-36.645,23.833-45.329"/>
<line fill="none" stroke="#F7941E" stroke-width="2" stroke-linecap="round" stroke-linejoin="round" stroke-miterlimit="10" x1="309.958" y1="666.854" x2="310.9" y2="664.322"/>
<line fill="none" stroke="#F7941E" stroke-width="2" stroke-linecap="round" stroke-linejoin="round" stroke-miterlimit="10" x1="313.5" y1="675.021" x2="316.132" y2="675.478"/>
<line fill="none" stroke="#F7941E" stroke-width="2" stroke-linecap="round" stroke-linejoin="round" stroke-miterlimit="10" x1="307.833" y1="677.979" x2="308.125" y2="679.979"/>
<line fill="none" stroke="#F7941E" stroke-width="2" stroke-linecap="round" stroke-linejoin="round" stroke-miterlimit="10" x1="303.667" y1="675.249" x2="301.418" y2="676.264"/>
<line fill="none" stroke="#F7941E" stroke-width="2" stroke-linecap="round" stroke-linejoin="round" stroke-miterlimit="10" x1="302.792" y1="669.312" x2="300.438" y2="667.771"/>
<line fill="none" stroke="#F7941E" stroke-width="2" stroke-linecap="round" stroke-linejoin="round" stroke-miterlimit="10" x1="148.194" y1="556.778" x2="148.917" y2="562.021"/>
<line fill="none" stroke="#F7941E" stroke-width="2" stroke-linecap="round" stroke-linejoin="round" stroke-miterlimit="10" x1="159.911" y1="564.62" x2="155.333" y2="566.27"/>
<line fill="none" stroke="#F7941E" stroke-width="2" stroke-linecap="round" stroke-linejoin="round" stroke-miterlimit="10" x1="156.047" y1="574.841" x2="153.75" y2="572.854"/>
<line fill="none" stroke="#F7941E" stroke-width="2" stroke-linecap="round" stroke-linejoin="round" stroke-miterlimit="10" x1="145.951" y1="575.657" x2="147.417" y2="573.354"/>
<line fill="none" stroke="#F7941E" stroke-width="2" stroke-linecap="round" stroke-linejoin="round" stroke-miterlimit="10" x1="140" y1="566.066" x2="144.333" y2="567.521"/>
<line fill="none" stroke="#F7941E" stroke-width="2" stroke-linecap="round" stroke-linejoin="round" stroke-miterlimit="10" x1="327.255" y1="504.963" x2="327.438" y2="507.739"/>
<line fill="none" stroke="#F7941E" stroke-width="2" stroke-linecap="round" stroke-linejoin="round" stroke-miterlimit="10" x1="333.579" y1="511.837" x2="332.032" y2="512.212"/>
<line fill="none" stroke="#F7941E" stroke-width="2" stroke-linecap="round" stroke-linejoin="round" stroke-miterlimit="10" x1="330.906" y1="517.094" x2="330.424" y2="516.373"/>
<line fill="none" stroke="#F7941E" stroke-width="2" stroke-linecap="round" stroke-linejoin="round" stroke-miterlimit="10" x1="324.031" y1="518.271" x2="325.312" y2="516.733"/>
<line fill="none" stroke="#F7941E" stroke-width="2" stroke-linecap="round" stroke-linejoin="round" stroke-miterlimit="10" x1="319.969" y1="510.363" x2="323.156" y2="511.837"/>
<path fill="none" stroke="#F7941E" stroke-width="2" stroke-linecap="round" stroke-linejoin="round" stroke-miterlimit="10" d="
	M278.925,480.021c0,0,10.408,8.333,9.408,17.333s-22.918,54.983-22.918,54.983"/>
<path fill="none" stroke="#F7941E" stroke-width="2" stroke-linecap="round" stroke-linejoin="round" stroke-miterlimit="10" d="
	M149.75,693.521l136.417-261.005c0,0,7.333-14.172,22.667-20.672"/>
<g>
	<path fill="#F7941E" stroke="#F7941E" stroke-width="2" stroke-miterlimit="10" d="M325.708,593.562c1.29,0,1.29-2,0-2
		S324.419,593.562,325.708,593.562L325.708,593.562z"/>
</g>
<g>
	<path fill="#F7941E" stroke="#F7941E" stroke-width="2" stroke-miterlimit="10" d="M327.781,514.104c1.29,0,1.29-2,0-2
		S326.492,514.104,327.781,514.104L327.781,514.104z"/>
</g>
<g>
	<path fill="#F7941E" stroke="#F7941E" stroke-width="2" stroke-miterlimit="10" d="M149.542,569.937c1.29,0,1.29-2,0-2
		S148.252,569.937,149.542,569.937L149.542,569.937z"/>
</g>
<g>
	<path fill="#F7941E" stroke="#F7941E" stroke-width="2" stroke-miterlimit="10" d="M133.708,625.187c1.29,0,1.29-2,0-2
		S132.419,625.187,133.708,625.187L133.708,625.187z"/>
</g>
<g>
	<path fill="#F7941E" stroke="#F7941E" stroke-width="2" stroke-miterlimit="10" d="M307.333,674.021c1.29,0,1.29-2,0-2
		S306.044,674.021,307.333,674.021L307.333,674.021z"/>
</g>
<g>
	<path fill="#F7941E" stroke="#F7941E" stroke-width="2" stroke-miterlimit="10" d="M89.25,670.771c1.29,0,1.29-2,0-2
		S87.96,670.771,89.25,670.771L89.25,670.771z"/>
</g>
<g>
	<path fill="#F7941E" stroke="#F7941E" stroke-width="2" stroke-miterlimit="10" d="M96.75,687.187c1.29,0,1.29-2,0-2
		S95.46,687.187,96.75,687.187L96.75,687.187z"/>
</g>
<path d="M615.167,184.677c0,0,41.081-16.251,31.958-19.542c-7.625-2.75-94.958,16.042-125.958,46.042c0,0-1.792,2.833,3.958,1.833
	s28.75-7.5,36.625-11c0,0-1.125-0.875,2.125-3.375s32.25-16.75,51.5-16.75C617.25,182.01,615.459,183.968,615.167,184.677z"/>
<path d="M621.883,335.011c0,0-17.266-62.492-23.256-70.375c-2.375-3.125-8.627-5.625-15.627-17.873
	c-2.375-3.875-5.375-9.75-18.125-1.25c7.25,0.375,10,0.75,10.75,4.125s1.873,6.247,6.123,9.122s-1.755,4.749-3.38,3.999
	s-5.12-4.246-11.495-4.621c-5.875-1.5-39.859,20.142-98.373,61.997c0,0-71.125,41.125-111.75,62.125
	c-1.5,3.25-3.875,6.125-9.375,7.125s-5.5,1-11,1.125s-16.125,1.125-21.75,4.875s-14.875,13.75-7.432,23.062
	c0,0,2.057,3.438,5.182,0.688c3.125-2.75,11.375-12,14.25-9c5.562,2.312,2.625,12.439,2.625,12.439s16.625-7.064,20.375-11.314
	s2.625-11.375,6-14s4.875-2.625,4.875-2.625s5.5,7.5,6.25,7.875s98-66.625,106.625-70.5c11.625-6.875,80.373-45.624,87.123-44.124
	S598,335.68,601.25,366.013c1.957,18.269-4.252,66.254-57.877,121.884c0,0-11.373,10.124-32.869,22.003
	c-1.75,0.625-2.875,3.876,0.375,3.751S522,513.149,538,507.149s37.375-19.25,43.75-27.875c0,0,5-4.125,6.125-4.375
	c-0.5,3.125-2,9.874-2,9.874s-15.875,27.247-50.5,60.126c0,0-2.25,1.5-1.375,2s4.25,0,7.125-0.75S571,528.19,579.25,516.024
	c-12.25,24-86.077,221.688-90.744,229.521c2.5,4,4.833,7.167-4,15c-13,10-57.003,16-63.003,30c0,0,25.5,6.5,85.503-8.5
	c0,0-1-14.333-5-20s-1-11-1-11s8.336,0,10.003,0c6.652-10.484,96.511-258.213,98.161-266.354c0,0,11.997-21.164,12.997-25.331
	c0,0,28.679,91.686,30.179,105.186s1.168,7.834,1.001,21.168s-9.659,176.166-9.493,178c1.666,2.667,6.503,5.168,3.17,9.834
	s-3.333,17.666-3,18.666c9,1,83.666,6,85.833,4.667s-6.666-5.833-16.666-11.5s-37.334-16.667-52.334-15
	c-4,0.5-2.497-9.833,4.503-7.833c2-14.5,6.494-160,7.994-178c1.021-12.262-11.6-62.183-27.681-141.688c0,0-6.666-35.017-7.166-47.35
	c-0.117-9.506,1.501-23,2.001-32.167c0,0,6.826-74.168,5.659-87.335c5.333-4,31.167-10,63.5-10.667
	c25.958-1.374,34.833-3.167,34.833-3.167s92.666-52.667,95.666-57c-2.166-1.5-6-5-4-6.5s7.834-4,7.834-4s5.666,2.166,7.666,1.833
	s46.412-21.5,52.334-26.667c0.5-2.833,0.166-5.667,3.833-7.667c2.834-1.667,1.667-9.666,0.667-10.833c0,0-2.666-2.167-10.833-0.833
	c-3.982,1.053-25.834,11.5-25.834,11.5s-13.5,12.333-15.833,12s-3.333-5.167,0.667-13c1.055-1.887,3.458-4.75,9.351-10.047
	c4.757-4.881,9.462-10.174,9.295-13.237c0,0-1.271-0.423-4.438,1.41s-19.542,12.167-21.875,14s-8.333,23.041-9,30.041
	c0,4-9,9.396-9,9.396l-1.375-0.5c0,0-8.312,5-24.25,16.938s-48.75,32.125-62,35.062c-8.312,2.312-8.625,1.5-15.75,2.25
	c0,0-23.812,1.625-39.25,0.562c-8.312-0.188-20.438-0.938-20.438-0.938s-1.5-0.5-3.188-1.125s-9.125-3.438-25.312,2
	c-3.312,0.938-5.812,1.5-6-0.125s2.375-13.688,12.25-23.688c0.25-0.5-2.938-0.375-8.5,0.812s-16.375,4.062-16.938,8.625
	s-0.503,18.002,0.435,21.752S635,285.01,621.883,334.01"/>
</svg>
