<?xml version="1.0" encoding="utf-8"?>
<!-- Generator: Adobe Illustrator 16.0.0, SVG Export Plug-In . SVG Version: 6.00 Build 0)  -->
<!DOCTYPE svg PUBLIC "-//W3C//DTD SVG 1.1//EN" "http://www.w3.org/Graphics/SVG/1.1/DTD/svg11.dtd">
<svg version="1.1" xmlns="http://www.w3.org/2000/svg" xmlns:xlink="http://www.w3.org/1999/xlink" x="0px" y="0px"
	 width="307.667px" height="214px" viewBox="0 0 307.667 214" enable-background="new 0 0 307.667 214" xml:space="preserve">
<g id="Ebene_16">
	<g>
		<g>
			<path fill="#8C8C8E" d="M7.5,2.999C7.255,20.641,7.023,38.283,6.796,55.925c-0.418,32.531-0.821,65.063-1.136,97.595
				c-0.119,12.29-0.234,24.579-0.272,36.869c-0.011,3.478-0.021,6.956,0.018,10.434c0.008,0.721-0.373,3.342,0.56,3.65
				c1.122,0.372,2.563,0.259,3.724,0.31c2.84,0.124,5.684,0.182,8.526,0.237c9.741,0.19,19.485,0.255,29.228,0.314
				c29.729,0.181,59.458,0.168,89.188,0.138c31.976-0.033,63.952-0.118,95.928-0.229c20.528-0.071,41.057-0.153,61.585-0.249
				c1.952-0.01,3.904-0.019,5.856-0.028c0.27-0.001,0.504-0.227,0.5-0.5c-0.239-17.538-0.472-35.077-0.703-52.615
				c-0.423-32.155-0.84-64.31-1.216-96.466c-0.141-11.968-0.279-23.937-0.383-35.905c-0.028-3.279-0.057-6.557-0.062-9.836
				c-0.002-0.921,0.357-2.863-0.387-3.172c-0.961-0.4-2.434-0.24-3.445-0.285c-2.765-0.124-5.532-0.189-8.299-0.254
				c-9.639-0.224-19.28-0.339-28.921-0.452c-29.644-0.344-59.29-0.524-88.936-0.69c-31.915-0.178-63.83-0.313-95.745-0.426
				C52.08,4.293,31.755,4.23,11.431,4.179C9.621,4.174,7.811,4.169,6,4.166c-0.27,0-0.504,0.228-0.5,0.5
				c0.277,17.757,0.536,35.515,0.788,53.272c0.456,32.189,0.893,64.378,1.203,96.569c0.112,11.624,0.224,23.248,0.213,34.873
				c-0.003,2.964,0.003,5.932-0.085,8.895c-0.025,0.839-0.483,2.083,0.519,2.381c1.378,0.408,2.97,0.391,4.391,0.486
				c3.053,0.206,6.113,0.324,9.17,0.436c10.111,0.37,20.229,0.564,30.346,0.748c30.092,0.546,60.19,0.816,90.286,1.057
				c31.551,0.252,63.103,0.431,94.655,0.571c18.972,0.085,37.942,0.155,56.914,0.206c1.146,0.003,2.292,0.006,3.438,0.009
				c0.275,0.001,0.496-0.228,0.5-0.5c0.229-17.194,0.456-34.388,0.685-51.582c0.426-32.058,0.851-64.115,1.276-96.172
				c0.234-17.633,0.468-35.267,0.702-52.9c0-0.005,0-0.01,0-0.015c0.004-0.271-0.23-0.501-0.5-0.5
				c-12.903,0.073-25.807,0.146-38.71,0.218c-29.443,0.166-58.887,0.332-88.33,0.498c-32.084,0.181-64.168,0.362-96.253,0.542
				C55.881,3.875,35.055,3.993,14.229,4.11c-2.071,0.012-4.141,0.023-6.212,0.035c-0.645,0.003-0.645,1.003,0,1
				C20.921,5.072,33.824,5,46.727,4.927c29.444-0.166,58.887-0.332,88.331-0.498c32.084-0.181,64.169-0.362,96.253-0.542
				c20.826-0.117,41.651-0.235,62.478-0.352c2.07-0.012,4.142-0.023,6.212-0.035c-0.167-0.167-0.333-0.333-0.5-0.5
				c-0.229,17.194-0.456,34.388-0.685,51.582c-0.426,32.058-0.851,64.114-1.276,96.172c-0.234,17.634-0.468,35.267-0.702,52.9
				c0,0.005,0,0.01,0,0.015c0.167-0.167,0.333-0.333,0.5-0.5c-12.934-0.03-25.867-0.076-38.802-0.126
				c-29.443-0.112-58.888-0.26-88.332-0.456c-31.918-0.214-63.837-0.471-95.753-0.909c-20.335-0.278-40.759-0.254-61.067-1.48
				c-1.591-0.096-3.26-0.119-4.824-0.466c-0.525-0.116-0.085,0.663-0.016-0.007c0.074-0.709,0.076-1.429,0.092-2.141
				c0.201-8.476,0.059-16.966,0.001-25.442c-0.21-31.122-0.637-62.242-1.061-93.362C7.255,55.132,6.913,31.486,6.549,7.841
				C6.533,6.782,6.517,5.724,6.5,4.666C6.333,4.832,6.167,4.999,6,5.166c12.876,0.029,25.751,0.067,38.627,0.107
				c29.387,0.091,58.774,0.202,88.162,0.338c32.038,0.149,64.076,0.323,96.113,0.594c20.824,0.176,41.67,0.209,62.485,0.873
				c1.83,0.059,3.67,0.097,5.494,0.265c0.883,0.081,0.241,0.093,0.278-0.309c-0.045,0.487-0.021,0.988-0.022,1.476
				c-0.026,7.716,0.098,15.434,0.178,23.148c0.318,30.557,0.716,61.112,1.109,91.668c0.325,25.146,0.658,50.292,0.998,75.438
				c0.025,1.9,0.051,3.802,0.077,5.702c0.167-0.167,0.333-0.333,0.5-0.5c-12.822,0.064-25.644,0.117-38.466,0.169
				c-29.336,0.117-58.673,0.213-88.009,0.276c-32.157,0.07-64.313,0.11-96.47,0.038c-21.276-0.048-42.577,0.049-63.847-0.546
				c-2.016-0.056-4.04-0.101-6.05-0.268c-0.308-0.026-0.885-0.108-0.874-0.104c0.333,0.168,0.208,0.494,0.179-0.121
				c-0.018-0.369-0.026-0.739-0.034-1.108c-0.175-7.931-0.032-15.876,0.021-23.807c0.208-30.938,0.593-61.873,0.972-92.809
				C7.735,60.159,8.068,34.629,8.416,9.1C8.444,7.066,8.472,5.033,8.5,2.999C8.509,2.354,7.509,2.354,7.5,2.999L7.5,2.999z"/>
		</g>
	</g>
</g>
<g id="nummern">
	<g>
		<path d="M52.78,21.187h3.192v-3.192h1.092v3.192h3.192v1.092h-3.192v3.192h-1.092v-3.192H52.78V21.187z"/>
		<path d="M65.884,23.791h-4.228v-1.372l3.948-6.356h1.624v6.552h1.4v1.176h-1.4v2.184h-1.344V23.791z M65.884,17.659h-0.028
			l-3.024,4.956h3.052V17.659z"/>
		<path d="M71.036,23.553c0.158,0.476,0.37,0.831,0.635,1.064s0.658,0.35,1.179,0.35c0.26,0,0.504-0.044,0.732-0.133
			c0.228-0.088,0.43-0.21,0.607-0.364c0.177-0.154,0.316-0.341,0.418-0.56c0.102-0.219,0.153-0.464,0.153-0.735
			c0-0.411-0.086-0.74-0.259-0.987c-0.173-0.247-0.395-0.434-0.665-0.56c-0.271-0.126-0.569-0.208-0.896-0.245
			c-0.327-0.038-0.649-0.056-0.966-0.056V20.15c0.513,0,0.934-0.035,1.26-0.105c0.327-0.07,0.583-0.17,0.77-0.301
			c0.187-0.13,0.317-0.294,0.392-0.49c0.075-0.196,0.112-0.415,0.112-0.658c0-0.532-0.159-0.933-0.476-1.204
			c-0.317-0.271-0.714-0.406-1.19-0.406c-0.364,0-0.693,0.105-0.987,0.315s-0.516,0.488-0.665,0.833l-1.372-0.462
			c0.261-0.635,0.66-1.104,1.197-1.407s1.136-0.455,1.799-0.455c0.401,0,0.786,0.054,1.155,0.161s0.693,0.273,0.973,0.497
			c0.28,0.224,0.501,0.506,0.665,0.847c0.163,0.341,0.245,0.74,0.245,1.197c0,0.523-0.157,0.989-0.469,1.4
			c-0.313,0.411-0.721,0.691-1.225,0.84v0.028c0.308,0.056,0.583,0.159,0.826,0.308c0.243,0.149,0.448,0.336,0.616,0.56
			c0.168,0.224,0.294,0.474,0.378,0.749c0.084,0.275,0.126,0.567,0.126,0.875c0,0.476-0.091,0.894-0.273,1.253
			c-0.182,0.36-0.425,0.658-0.728,0.896c-0.304,0.238-0.654,0.418-1.05,0.539c-0.396,0.122-0.814,0.182-1.253,0.182
			c-0.756,0-1.421-0.172-1.995-0.518c-0.574-0.345-0.973-0.891-1.197-1.638L71.036,23.553z"/>
		<path d="M83.721,19.898h0.056c0.308-0.149,0.672-0.224,1.092-0.224c0.354,0,0.714,0.061,1.078,0.182
			c0.364,0.122,0.693,0.311,0.987,0.567s0.534,0.583,0.721,0.98c0.187,0.396,0.28,0.866,0.28,1.407c0,0.551-0.091,1.034-0.273,1.449
			c-0.182,0.415-0.427,0.763-0.735,1.043c-0.308,0.28-0.667,0.49-1.078,0.63s-0.85,0.21-1.316,0.21
			c-0.467,0-0.905-0.075-1.316-0.224c-0.411-0.149-0.77-0.364-1.078-0.644c-0.308-0.28-0.553-0.616-0.735-1.008
			c-0.182-0.392-0.273-0.831-0.273-1.316c0-0.308,0.023-0.588,0.07-0.84c0.046-0.252,0.114-0.492,0.203-0.721
			c0.088-0.229,0.193-0.453,0.315-0.672c0.121-0.219,0.256-0.45,0.406-0.693l2.506-3.962h1.582L83.721,19.898z M82.475,22.909
			c0,0.299,0.049,0.574,0.147,0.826c0.098,0.252,0.238,0.469,0.42,0.651c0.182,0.182,0.399,0.324,0.651,0.427
			c0.252,0.103,0.532,0.154,0.84,0.154s0.588-0.051,0.84-0.154c0.252-0.103,0.469-0.245,0.651-0.427
			c0.182-0.182,0.322-0.399,0.42-0.651c0.098-0.252,0.147-0.527,0.147-0.826s-0.049-0.574-0.147-0.826
			c-0.098-0.252-0.238-0.469-0.42-0.651c-0.182-0.182-0.399-0.324-0.651-0.427c-0.252-0.103-0.532-0.154-0.84-0.154
			s-0.588,0.051-0.84,0.154c-0.252,0.103-0.469,0.245-0.651,0.427c-0.182,0.182-0.322,0.399-0.42,0.651S82.475,22.61,82.475,22.909z
			"/>
		<path d="M91.505,19.898h0.056c0.308-0.149,0.672-0.224,1.092-0.224c0.354,0,0.714,0.061,1.078,0.182
			c0.364,0.122,0.693,0.311,0.987,0.567s0.534,0.583,0.721,0.98c0.187,0.396,0.28,0.866,0.28,1.407c0,0.551-0.091,1.034-0.273,1.449
			c-0.182,0.415-0.427,0.763-0.735,1.043c-0.308,0.28-0.667,0.49-1.078,0.63s-0.85,0.21-1.316,0.21
			c-0.467,0-0.905-0.075-1.316-0.224c-0.411-0.149-0.77-0.364-1.078-0.644c-0.308-0.28-0.553-0.616-0.735-1.008
			c-0.182-0.392-0.273-0.831-0.273-1.316c0-0.308,0.023-0.588,0.07-0.84c0.046-0.252,0.114-0.492,0.203-0.721
			c0.088-0.229,0.193-0.453,0.315-0.672c0.121-0.219,0.256-0.45,0.406-0.693l2.506-3.962h1.582L91.505,19.898z M90.259,22.909
			c0,0.299,0.049,0.574,0.147,0.826c0.098,0.252,0.238,0.469,0.42,0.651c0.182,0.182,0.399,0.324,0.651,0.427
			c0.252,0.103,0.532,0.154,0.84,0.154s0.588-0.051,0.84-0.154c0.252-0.103,0.469-0.245,0.651-0.427
			c0.182-0.182,0.322-0.399,0.42-0.651c0.098-0.252,0.147-0.527,0.147-0.826s-0.049-0.574-0.147-0.826
			c-0.098-0.252-0.238-0.469-0.42-0.651c-0.182-0.182-0.399-0.324-0.651-0.427c-0.252-0.103-0.532-0.154-0.84-0.154
			s-0.588,0.051-0.84,0.154c-0.252,0.103-0.469,0.245-0.651,0.427c-0.182,0.182-0.322,0.399-0.42,0.651S90.259,22.61,90.259,22.909z
			"/>
		<path d="M96.685,21.019c0-0.364,0.019-0.742,0.056-1.134c0.037-0.392,0.105-0.777,0.203-1.155
			c0.098-0.378,0.229-0.739,0.392-1.085c0.163-0.345,0.373-0.646,0.63-0.903s0.56-0.462,0.91-0.616
			c0.35-0.154,0.758-0.231,1.225-0.231c0.466,0,0.875,0.077,1.225,0.231c0.35,0.154,0.653,0.359,0.91,0.616s0.467,0.558,0.63,0.903
			c0.163,0.346,0.294,0.707,0.392,1.085c0.098,0.378,0.166,0.763,0.203,1.155c0.037,0.392,0.056,0.77,0.056,1.134
			c0,0.523-0.047,1.083-0.14,1.68s-0.266,1.153-0.518,1.666s-0.6,0.938-1.043,1.274s-1.015,0.504-1.715,0.504
			c-0.7,0-1.272-0.168-1.715-0.504s-0.791-0.761-1.043-1.274c-0.252-0.513-0.425-1.069-0.518-1.666
			C96.731,22.102,96.685,21.542,96.685,21.019z M98.029,21.019c0,0.327,0.021,0.714,0.063,1.162c0.042,0.448,0.133,0.88,0.273,1.295
			c0.14,0.416,0.348,0.768,0.623,1.057s0.646,0.434,1.113,0.434c0.466,0,0.837-0.145,1.113-0.434s0.483-0.642,0.623-1.057
			c0.14-0.415,0.231-0.847,0.273-1.295c0.042-0.448,0.063-0.835,0.063-1.162c0-0.224-0.007-0.478-0.021-0.763
			c-0.014-0.284-0.047-0.574-0.098-0.868c-0.052-0.294-0.124-0.579-0.217-0.854s-0.217-0.522-0.371-0.742
			c-0.154-0.219-0.343-0.394-0.567-0.525c-0.224-0.13-0.49-0.196-0.798-0.196s-0.574,0.065-0.798,0.196
			c-0.224,0.131-0.413,0.306-0.567,0.525c-0.154,0.22-0.278,0.467-0.371,0.742s-0.166,0.56-0.217,0.854s-0.084,0.583-0.098,0.868
			C98.036,20.541,98.029,20.794,98.029,21.019z"/>
		<path d="M109.831,26.059c-0.252,0-0.469-0.091-0.651-0.273s-0.273-0.399-0.273-0.651s0.091-0.469,0.273-0.651
			c0.182-0.182,0.399-0.273,0.651-0.273c0.252,0,0.469,0.091,0.651,0.273c0.182,0.182,0.273,0.399,0.273,0.651
			s-0.091,0.469-0.273,0.651C110.3,25.968,110.083,26.059,109.831,26.059z"/>
		<path d="M113.723,26.059c-0.252,0-0.469-0.091-0.651-0.273s-0.273-0.399-0.273-0.651s0.091-0.469,0.273-0.651
			c0.182-0.182,0.399-0.273,0.651-0.273c0.252,0,0.469,0.091,0.651,0.273c0.182,0.182,0.273,0.399,0.273,0.651
			s-0.091,0.469-0.273,0.651C114.192,25.968,113.976,26.059,113.723,26.059z"/>
		<path d="M117.615,26.059c-0.252,0-0.469-0.091-0.651-0.273s-0.273-0.399-0.273-0.651s0.091-0.469,0.273-0.651
			c0.182-0.182,0.399-0.273,0.651-0.273c0.252,0,0.469,0.091,0.651,0.273c0.182,0.182,0.273,0.399,0.273,0.651
			s-0.091,0.469-0.273,0.651C118.084,25.968,117.868,26.059,117.615,26.059z"/>
	</g>
	<g>
		<path d="M121.104,37.212h3.192V34.02h1.092v3.192h3.192v1.092h-3.192v3.192h-1.092v-3.192h-3.192V37.212z"/>
		<path d="M134.208,39.816h-4.228v-1.372l3.948-6.356h1.624v6.552h1.4v1.176h-1.4V42h-1.344V39.816z M134.208,33.684h-0.028
			l-3.024,4.956h3.052V33.684z"/>
		<path d="M139.359,39.578c0.158,0.476,0.37,0.831,0.635,1.064s0.658,0.35,1.179,0.35c0.26,0,0.504-0.044,0.732-0.133
			c0.228-0.088,0.43-0.21,0.607-0.364c0.177-0.154,0.316-0.341,0.418-0.56c0.102-0.219,0.153-0.464,0.153-0.735
			c0-0.411-0.086-0.74-0.259-0.987c-0.173-0.247-0.395-0.434-0.665-0.56c-0.271-0.126-0.569-0.208-0.896-0.245
			c-0.327-0.038-0.649-0.056-0.966-0.056v-1.176c0.513,0,0.934-0.035,1.26-0.105c0.327-0.07,0.583-0.17,0.77-0.301
			c0.187-0.13,0.317-0.294,0.392-0.49c0.075-0.196,0.112-0.415,0.112-0.658c0-0.532-0.159-0.933-0.476-1.204
			c-0.317-0.271-0.714-0.406-1.19-0.406c-0.364,0-0.693,0.105-0.987,0.315s-0.516,0.488-0.665,0.833l-1.372-0.462
			c0.261-0.635,0.66-1.104,1.197-1.407s1.136-0.455,1.799-0.455c0.401,0,0.786,0.054,1.155,0.161s0.693,0.273,0.973,0.497
			c0.28,0.224,0.501,0.506,0.665,0.847c0.163,0.341,0.245,0.74,0.245,1.197c0,0.523-0.157,0.989-0.469,1.4
			c-0.313,0.411-0.721,0.691-1.225,0.84v0.028c0.308,0.056,0.583,0.159,0.826,0.308c0.243,0.149,0.448,0.336,0.616,0.56
			c0.168,0.224,0.294,0.474,0.378,0.749c0.084,0.275,0.126,0.567,0.126,0.875c0,0.476-0.091,0.894-0.273,1.253
			c-0.182,0.36-0.425,0.658-0.728,0.896c-0.304,0.238-0.654,0.418-1.05,0.539c-0.396,0.122-0.814,0.182-1.253,0.182
			c-0.756,0-1.421-0.172-1.995-0.518c-0.574-0.345-0.973-0.891-1.197-1.638L139.359,39.578z"/>
		<path d="M148.852,33.628l-1.82,1.68l-0.784-0.938l2.758-2.282h1.19V42h-1.344V33.628z"/>
		<path d="M157.56,39.816h-4.228v-1.372l3.948-6.356h1.624v6.552h1.4v1.176h-1.4V42h-1.344V39.816z M157.56,33.684h-0.028
			l-3.024,4.956h3.052V33.684z"/>
		<path d="M167.234,33.348h-4.018l-0.042,2.478c0.065-0.028,0.158-0.056,0.28-0.084c0.121-0.028,0.245-0.051,0.371-0.07
			c0.126-0.019,0.25-0.032,0.371-0.042c0.121-0.009,0.224-0.014,0.308-0.014c0.467,0,0.889,0.079,1.267,0.238
			s0.702,0.383,0.973,0.672c0.271,0.29,0.478,0.635,0.623,1.036c0.145,0.401,0.217,0.845,0.217,1.33
			c0,0.495-0.091,0.943-0.273,1.344c-0.182,0.401-0.432,0.747-0.749,1.036c-0.317,0.29-0.686,0.511-1.106,0.665
			s-0.873,0.231-1.358,0.231c-0.672,0-1.279-0.172-1.82-0.518c-0.542-0.345-0.929-0.84-1.162-1.484l1.344-0.462
			c0.178,0.458,0.417,0.786,0.717,0.987s0.674,0.301,1.124,0.301c0.262,0,0.513-0.047,0.752-0.14s0.445-0.226,0.618-0.399
			s0.312-0.385,0.415-0.637s0.155-0.537,0.155-0.854c0-0.728-0.222-1.271-0.665-1.631s-1.02-0.539-1.729-0.539
			c-0.252,0-0.572,0.044-0.959,0.133c-0.388,0.089-0.749,0.217-1.085,0.385l0.112-5.222h5.32V33.348z"/>
		<path d="M171.504,35.924h0.056c0.308-0.149,0.672-0.224,1.092-0.224c0.354,0,0.714,0.061,1.078,0.182
			c0.364,0.122,0.693,0.311,0.987,0.567s0.534,0.583,0.721,0.98c0.187,0.396,0.28,0.866,0.28,1.407c0,0.551-0.091,1.034-0.273,1.449
			c-0.182,0.415-0.427,0.763-0.735,1.043c-0.308,0.28-0.667,0.49-1.078,0.63s-0.85,0.21-1.316,0.21
			c-0.467,0-0.905-0.075-1.316-0.224c-0.411-0.149-0.77-0.364-1.078-0.644c-0.308-0.28-0.553-0.616-0.735-1.008
			c-0.182-0.392-0.273-0.831-0.273-1.316c0-0.308,0.023-0.588,0.07-0.84c0.046-0.252,0.114-0.492,0.203-0.721
			c0.088-0.229,0.193-0.453,0.315-0.672c0.121-0.219,0.256-0.45,0.406-0.693l2.506-3.962h1.582L171.504,35.924z M170.258,38.934
			c0,0.299,0.049,0.574,0.147,0.826c0.098,0.252,0.238,0.469,0.42,0.651c0.182,0.182,0.399,0.324,0.651,0.427
			c0.252,0.103,0.532,0.154,0.84,0.154s0.588-0.051,0.84-0.154c0.252-0.103,0.469-0.245,0.651-0.427
			c0.182-0.182,0.322-0.399,0.42-0.651c0.098-0.252,0.147-0.527,0.147-0.826s-0.049-0.574-0.147-0.826
			c-0.098-0.252-0.238-0.469-0.42-0.651c-0.182-0.182-0.399-0.324-0.651-0.427c-0.252-0.103-0.532-0.154-0.84-0.154
			s-0.588,0.051-0.84,0.154c-0.252,0.103-0.469,0.245-0.651,0.427c-0.182,0.182-0.322,0.399-0.42,0.651
			S170.258,38.635,170.258,38.934z"/>
		<path d="M178.154,42.084c-0.252,0-0.469-0.091-0.651-0.273s-0.273-0.399-0.273-0.651s0.091-0.469,0.273-0.651
			c0.182-0.182,0.399-0.273,0.651-0.273c0.252,0,0.469,0.091,0.651,0.273c0.182,0.182,0.272,0.399,0.272,0.651
			s-0.091,0.469-0.272,0.651C178.624,41.993,178.407,42.084,178.154,42.084z"/>
		<path d="M182.047,42.084c-0.252,0-0.469-0.091-0.651-0.273s-0.272-0.399-0.272-0.651s0.09-0.469,0.272-0.651
			c0.183-0.182,0.399-0.273,0.651-0.273s0.469,0.091,0.65,0.273c0.182,0.182,0.273,0.399,0.273,0.651s-0.092,0.469-0.273,0.651
			S182.299,42.084,182.047,42.084z"/>
		<path d="M185.938,42.084c-0.252,0-0.469-0.091-0.651-0.273c-0.182-0.182-0.272-0.399-0.272-0.651s0.091-0.469,0.272-0.651
			c0.183-0.182,0.399-0.273,0.651-0.273c0.253,0,0.47,0.091,0.651,0.273c0.182,0.182,0.273,0.399,0.273,0.651
			s-0.092,0.469-0.273,0.651S186.191,42.084,185.938,42.084z"/>
	</g>
	<g>
		<path d="M177.643,57.294c0-0.364,0.019-0.742,0.057-1.134c0.037-0.392,0.104-0.777,0.203-1.155
			c0.098-0.378,0.229-0.739,0.392-1.085c0.163-0.345,0.373-0.646,0.63-0.903s0.561-0.462,0.91-0.616
			c0.35-0.154,0.758-0.231,1.225-0.231s0.875,0.077,1.226,0.231c0.35,0.154,0.653,0.359,0.91,0.616
			c0.256,0.257,0.466,0.558,0.63,0.903c0.163,0.346,0.294,0.707,0.392,1.085c0.099,0.378,0.166,0.763,0.203,1.155
			c0.037,0.392,0.056,0.77,0.056,1.134c0,0.523-0.047,1.083-0.14,1.68c-0.094,0.597-0.266,1.153-0.518,1.666
			s-0.601,0.938-1.043,1.274c-0.443,0.336-1.016,0.504-1.716,0.504c-0.699,0-1.271-0.168-1.715-0.504s-0.791-0.761-1.043-1.274
			s-0.425-1.069-0.518-1.666C177.689,58.377,177.643,57.817,177.643,57.294z M178.987,57.294c0,0.327,0.021,0.714,0.062,1.162
			c0.042,0.448,0.133,0.88,0.273,1.295c0.14,0.416,0.348,0.768,0.623,1.057c0.274,0.289,0.646,0.434,1.112,0.434
			s0.838-0.145,1.113-0.434s0.483-0.642,0.623-1.057c0.14-0.415,0.231-0.847,0.273-1.295c0.042-0.448,0.062-0.835,0.062-1.162
			c0-0.224-0.007-0.478-0.021-0.763c-0.015-0.284-0.047-0.574-0.099-0.868c-0.051-0.294-0.124-0.579-0.217-0.854
			c-0.094-0.275-0.217-0.522-0.371-0.742c-0.154-0.219-0.343-0.394-0.566-0.525c-0.225-0.13-0.49-0.196-0.799-0.196
			c-0.308,0-0.573,0.065-0.798,0.196c-0.224,0.131-0.413,0.306-0.566,0.525c-0.154,0.22-0.278,0.467-0.371,0.742
			c-0.094,0.275-0.166,0.56-0.217,0.854c-0.052,0.294-0.084,0.583-0.099,0.868C178.994,56.816,178.987,57.07,178.987,57.294z"/>
		<path d="M189.655,58.414H189.6c-0.309,0.149-0.673,0.224-1.093,0.224c-0.354,0-0.714-0.061-1.078-0.182
			c-0.363-0.121-0.692-0.31-0.986-0.567s-0.534-0.583-0.722-0.98c-0.187-0.397-0.279-0.866-0.279-1.407
			c0-0.541,0.091-1.02,0.272-1.435c0.183-0.415,0.428-0.763,0.735-1.043c0.308-0.28,0.667-0.492,1.078-0.637
			c0.41-0.145,0.849-0.217,1.315-0.217s0.905,0.075,1.316,0.224c0.41,0.149,0.77,0.364,1.078,0.644
			c0.308,0.28,0.553,0.616,0.735,1.008c0.182,0.392,0.272,0.831,0.272,1.316c0,0.308-0.023,0.588-0.07,0.84
			s-0.114,0.492-0.202,0.721c-0.089,0.229-0.194,0.455-0.315,0.679s-0.257,0.453-0.406,0.686l-2.506,3.962h-1.582L189.655,58.414z
			 M190.901,55.404c0-0.298-0.049-0.574-0.147-0.826c-0.098-0.252-0.237-0.469-0.42-0.651c-0.182-0.182-0.398-0.324-0.65-0.427
			c-0.252-0.103-0.532-0.154-0.841-0.154c-0.308,0-0.588,0.051-0.84,0.154c-0.252,0.103-0.469,0.245-0.65,0.427
			c-0.183,0.182-0.322,0.399-0.42,0.651c-0.099,0.252-0.147,0.527-0.147,0.826c0,0.299,0.049,0.574,0.147,0.826
			c0.098,0.252,0.237,0.469,0.42,0.651c0.182,0.182,0.398,0.325,0.65,0.427s0.532,0.154,0.84,0.154c0.309,0,0.589-0.051,0.841-0.154
			s0.469-0.245,0.65-0.427c0.183-0.182,0.322-0.399,0.42-0.651C190.853,55.978,190.901,55.703,190.901,55.404z"/>
		<path d="M193.211,57.294c0-0.364,0.019-0.742,0.057-1.134c0.037-0.392,0.104-0.777,0.203-1.155
			c0.098-0.378,0.229-0.739,0.392-1.085c0.163-0.345,0.373-0.646,0.63-0.903s0.561-0.462,0.91-0.616
			c0.35-0.154,0.758-0.231,1.225-0.231s0.875,0.077,1.226,0.231c0.35,0.154,0.653,0.359,0.91,0.616
			c0.256,0.257,0.466,0.558,0.63,0.903c0.163,0.346,0.294,0.707,0.392,1.085c0.099,0.378,0.166,0.763,0.203,1.155
			c0.037,0.392,0.056,0.77,0.056,1.134c0,0.523-0.047,1.083-0.14,1.68c-0.094,0.597-0.266,1.153-0.518,1.666
			s-0.601,0.938-1.043,1.274c-0.443,0.336-1.016,0.504-1.716,0.504c-0.699,0-1.271-0.168-1.715-0.504s-0.791-0.761-1.043-1.274
			s-0.425-1.069-0.518-1.666C193.258,58.377,193.211,57.817,193.211,57.294z M194.556,57.294c0,0.327,0.021,0.714,0.062,1.162
			c0.042,0.448,0.133,0.88,0.273,1.295c0.14,0.416,0.348,0.768,0.623,1.057c0.274,0.289,0.646,0.434,1.112,0.434
			s0.838-0.145,1.113-0.434s0.483-0.642,0.623-1.057c0.14-0.415,0.231-0.847,0.273-1.295c0.042-0.448,0.062-0.835,0.062-1.162
			c0-0.224-0.007-0.478-0.021-0.763c-0.015-0.284-0.047-0.574-0.099-0.868c-0.051-0.294-0.124-0.579-0.217-0.854
			c-0.094-0.275-0.217-0.522-0.371-0.742c-0.154-0.219-0.343-0.394-0.566-0.525c-0.225-0.13-0.49-0.196-0.799-0.196
			c-0.308,0-0.573,0.065-0.798,0.196c-0.224,0.131-0.413,0.306-0.566,0.525c-0.154,0.22-0.278,0.467-0.371,0.742
			c-0.094,0.275-0.166,0.56-0.217,0.854c-0.052,0.294-0.084,0.583-0.099,0.868C194.562,56.816,194.556,57.07,194.556,57.294z"/>
		<path d="M200.995,57.294c0-0.364,0.019-0.742,0.057-1.134c0.037-0.392,0.104-0.777,0.203-1.155
			c0.098-0.378,0.229-0.739,0.392-1.085c0.163-0.345,0.373-0.646,0.63-0.903s0.561-0.462,0.91-0.616
			c0.35-0.154,0.758-0.231,1.225-0.231s0.875,0.077,1.226,0.231c0.35,0.154,0.653,0.359,0.91,0.616
			c0.256,0.257,0.466,0.558,0.63,0.903c0.163,0.346,0.294,0.707,0.392,1.085c0.099,0.378,0.166,0.763,0.203,1.155
			c0.037,0.392,0.056,0.77,0.056,1.134c0,0.523-0.047,1.083-0.14,1.68c-0.094,0.597-0.266,1.153-0.518,1.666
			s-0.601,0.938-1.043,1.274c-0.443,0.336-1.016,0.504-1.716,0.504c-0.699,0-1.271-0.168-1.715-0.504s-0.791-0.761-1.043-1.274
			s-0.425-1.069-0.518-1.666C201.042,58.377,200.995,57.817,200.995,57.294z M202.34,57.294c0,0.327,0.021,0.714,0.062,1.162
			c0.042,0.448,0.133,0.88,0.273,1.295c0.14,0.416,0.348,0.768,0.623,1.057c0.274,0.289,0.646,0.434,1.112,0.434
			s0.838-0.145,1.113-0.434s0.483-0.642,0.623-1.057c0.14-0.415,0.231-0.847,0.273-1.295c0.042-0.448,0.062-0.835,0.062-1.162
			c0-0.224-0.007-0.478-0.021-0.763c-0.015-0.284-0.047-0.574-0.099-0.868c-0.051-0.294-0.124-0.579-0.217-0.854
			c-0.094-0.275-0.217-0.522-0.371-0.742c-0.154-0.219-0.343-0.394-0.566-0.525c-0.225-0.13-0.49-0.196-0.799-0.196
			c-0.308,0-0.573,0.065-0.798,0.196c-0.224,0.131-0.413,0.306-0.566,0.525c-0.154,0.22-0.278,0.467-0.371,0.742
			c-0.094,0.275-0.166,0.56-0.217,0.854c-0.052,0.294-0.084,0.583-0.099,0.868C202.347,56.816,202.34,57.07,202.34,57.294z"/>
		<path d="M214.897,53.598h-4.018l-0.042,2.478c0.065-0.028,0.158-0.056,0.28-0.084c0.121-0.028,0.244-0.051,0.37-0.07
			c0.126-0.019,0.25-0.032,0.371-0.042c0.121-0.009,0.225-0.014,0.309-0.014c0.467,0,0.889,0.079,1.267,0.238
			s0.702,0.383,0.973,0.672c0.271,0.29,0.479,0.635,0.623,1.036c0.146,0.401,0.218,0.845,0.218,1.33
			c0,0.495-0.092,0.943-0.273,1.344c-0.182,0.401-0.432,0.747-0.749,1.036c-0.317,0.29-0.686,0.511-1.105,0.665
			s-0.873,0.231-1.358,0.231c-0.672,0-1.279-0.172-1.82-0.518c-0.541-0.345-0.929-0.84-1.162-1.484l1.345-0.462
			c0.178,0.458,0.417,0.786,0.717,0.987c0.299,0.201,0.674,0.301,1.124,0.301c0.262,0,0.513-0.047,0.752-0.14
			c0.238-0.093,0.444-0.226,0.618-0.399c0.173-0.173,0.312-0.385,0.414-0.637c0.104-0.252,0.154-0.537,0.154-0.854
			c0-0.728-0.222-1.271-0.665-1.631s-1.02-0.539-1.729-0.539c-0.252,0-0.572,0.044-0.959,0.133
			c-0.388,0.089-0.749,0.217-1.085,0.385l0.112-5.222h5.319V53.598z"/>
		<path d="M218.034,62.334c-0.252,0-0.47-0.091-0.651-0.273s-0.272-0.399-0.272-0.651s0.091-0.469,0.272-0.651
			c0.182-0.182,0.399-0.273,0.651-0.273s0.469,0.091,0.65,0.273c0.183,0.182,0.273,0.399,0.273,0.651s-0.091,0.469-0.273,0.651
			C218.503,62.243,218.286,62.334,218.034,62.334z"/>
		<path d="M221.926,62.334c-0.252,0-0.47-0.091-0.651-0.273s-0.272-0.399-0.272-0.651s0.091-0.469,0.272-0.651
			c0.182-0.182,0.399-0.273,0.651-0.273s0.469,0.091,0.65,0.273c0.183,0.182,0.273,0.399,0.273,0.651s-0.091,0.469-0.273,0.651
			C222.395,62.243,222.178,62.334,221.926,62.334z"/>
		<path d="M225.817,62.334c-0.252,0-0.47-0.091-0.651-0.273s-0.272-0.399-0.272-0.651s0.091-0.469,0.272-0.651
			c0.182-0.182,0.399-0.273,0.651-0.273s0.469,0.091,0.65,0.273c0.183,0.182,0.273,0.399,0.273,0.651s-0.091,0.469-0.273,0.651
			C226.286,62.243,226.069,62.334,225.817,62.334z"/>
	</g>
	<g>
		<path d="M212.392,80.044c0-0.364,0.019-0.742,0.057-1.134c0.037-0.392,0.104-0.777,0.203-1.155
			c0.098-0.378,0.229-0.739,0.392-1.085c0.163-0.345,0.373-0.646,0.63-0.903s0.561-0.462,0.91-0.616
			c0.35-0.154,0.758-0.231,1.225-0.231s0.875,0.077,1.226,0.231c0.35,0.154,0.653,0.359,0.91,0.616
			c0.256,0.257,0.466,0.558,0.63,0.903c0.163,0.346,0.294,0.707,0.392,1.085c0.099,0.378,0.166,0.763,0.203,1.155
			c0.037,0.392,0.056,0.77,0.056,1.134c0,0.523-0.047,1.083-0.14,1.68c-0.094,0.597-0.266,1.153-0.518,1.666
			s-0.601,0.938-1.043,1.274c-0.443,0.336-1.016,0.504-1.716,0.504c-0.699,0-1.271-0.168-1.715-0.504s-0.791-0.761-1.043-1.274
			s-0.425-1.069-0.518-1.666C212.438,81.127,212.392,80.567,212.392,80.044z M213.736,80.044c0,0.327,0.021,0.714,0.062,1.162
			c0.042,0.448,0.133,0.88,0.273,1.295c0.14,0.416,0.348,0.768,0.623,1.057c0.274,0.289,0.646,0.434,1.112,0.434
			s0.838-0.145,1.113-0.434s0.483-0.642,0.623-1.057c0.14-0.415,0.231-0.847,0.273-1.295c0.042-0.448,0.062-0.835,0.062-1.162
			c0-0.224-0.007-0.478-0.021-0.763c-0.015-0.284-0.047-0.574-0.099-0.868c-0.051-0.294-0.124-0.579-0.217-0.854
			c-0.094-0.275-0.217-0.522-0.371-0.742c-0.154-0.219-0.343-0.394-0.566-0.525c-0.225-0.13-0.49-0.196-0.799-0.196
			c-0.308,0-0.573,0.065-0.798,0.196c-0.224,0.131-0.413,0.306-0.566,0.525c-0.154,0.22-0.278,0.467-0.371,0.742
			c-0.094,0.275-0.166,0.56-0.217,0.854c-0.052,0.294-0.084,0.583-0.099,0.868C213.743,79.566,213.736,79.82,213.736,80.044z"/>
		<path d="M223.48,76.628l-1.82,1.68l-0.784-0.938l2.758-2.282h1.19V85h-1.344V76.628z"/>
		<path d="M231.376,85.168c-0.447,0-0.87-0.068-1.267-0.203s-0.74-0.333-1.029-0.595s-0.518-0.579-0.686-0.952
			c-0.168-0.373-0.252-0.793-0.252-1.26c0-0.308,0.049-0.593,0.146-0.854c0.099-0.261,0.231-0.497,0.399-0.707
			s0.366-0.387,0.595-0.532c0.229-0.145,0.479-0.254,0.749-0.329v-0.042c-0.187-0.046-0.373-0.13-0.56-0.252
			c-0.188-0.121-0.353-0.275-0.497-0.462c-0.146-0.187-0.264-0.413-0.357-0.679c-0.093-0.266-0.14-0.571-0.14-0.917
			c0-0.373,0.077-0.711,0.23-1.015c0.154-0.303,0.364-0.562,0.631-0.777c0.266-0.214,0.573-0.38,0.924-0.497
			c0.35-0.117,0.721-0.175,1.112-0.175c0.393,0,0.764,0.059,1.113,0.175c0.351,0.117,0.658,0.282,0.924,0.497
			c0.267,0.215,0.477,0.474,0.63,0.777c0.154,0.303,0.231,0.642,0.231,1.015c0,0.346-0.047,0.651-0.14,0.917
			c-0.094,0.266-0.213,0.493-0.357,0.679c-0.145,0.187-0.311,0.341-0.497,0.462c-0.187,0.122-0.373,0.206-0.56,0.252v0.042
			c0.271,0.075,0.52,0.185,0.749,0.329c0.229,0.145,0.427,0.322,0.595,0.532s0.301,0.446,0.398,0.707
			c0.099,0.261,0.147,0.546,0.147,0.854c0,0.467-0.084,0.887-0.252,1.26c-0.168,0.374-0.396,0.691-0.686,0.952
			c-0.29,0.261-0.633,0.459-1.029,0.595C232.246,85.1,231.824,85.168,231.376,85.168z M231.376,83.992
			c0.561,0,1.016-0.17,1.365-0.511c0.351-0.34,0.525-0.782,0.525-1.323c0-0.299-0.049-0.562-0.147-0.791
			c-0.098-0.229-0.233-0.42-0.406-0.574c-0.172-0.154-0.373-0.271-0.602-0.35c-0.229-0.079-0.474-0.119-0.735-0.119
			c-0.551,0.009-1.003,0.184-1.357,0.525c-0.355,0.341-0.532,0.777-0.532,1.309c0,0.289,0.051,0.548,0.154,0.777
			c0.103,0.229,0.24,0.42,0.413,0.574c0.172,0.154,0.373,0.273,0.602,0.357S231.124,83.992,231.376,83.992z M229.822,77.58
			c0,0.196,0.035,0.387,0.105,0.574c0.069,0.187,0.17,0.353,0.301,0.497c0.131,0.145,0.291,0.264,0.482,0.357
			c0.191,0.094,0.413,0.14,0.665,0.14c0.262,0,0.488-0.044,0.68-0.133c0.19-0.089,0.352-0.206,0.482-0.35s0.229-0.31,0.294-0.497
			c0.065-0.187,0.099-0.382,0.099-0.588c0-0.457-0.143-0.833-0.428-1.127c-0.284-0.294-0.66-0.441-1.127-0.441
			c-0.429,0-0.796,0.145-1.099,0.434C229.974,76.735,229.822,77.113,229.822,77.58z"/>
		<path d="M235.744,80.044c0-0.364,0.019-0.742,0.057-1.134c0.037-0.392,0.104-0.777,0.203-1.155
			c0.098-0.378,0.229-0.739,0.392-1.085c0.163-0.345,0.373-0.646,0.63-0.903s0.561-0.462,0.91-0.616
			c0.35-0.154,0.758-0.231,1.225-0.231s0.875,0.077,1.226,0.231c0.35,0.154,0.653,0.359,0.91,0.616
			c0.256,0.257,0.466,0.558,0.63,0.903c0.163,0.346,0.294,0.707,0.392,1.085c0.099,0.378,0.166,0.763,0.203,1.155
			c0.037,0.392,0.056,0.77,0.056,1.134c0,0.523-0.047,1.083-0.14,1.68c-0.094,0.597-0.266,1.153-0.518,1.666
			s-0.601,0.938-1.043,1.274c-0.443,0.336-1.016,0.504-1.716,0.504c-0.699,0-1.271-0.168-1.715-0.504s-0.791-0.761-1.043-1.274
			s-0.425-1.069-0.518-1.666C235.791,81.127,235.744,80.567,235.744,80.044z M237.089,80.044c0,0.327,0.021,0.714,0.062,1.162
			c0.042,0.448,0.133,0.88,0.273,1.295c0.14,0.416,0.348,0.768,0.623,1.057c0.274,0.289,0.646,0.434,1.112,0.434
			s0.838-0.145,1.113-0.434s0.483-0.642,0.623-1.057c0.14-0.415,0.231-0.847,0.273-1.295c0.042-0.448,0.062-0.835,0.062-1.162
			c0-0.224-0.007-0.478-0.021-0.763c-0.015-0.284-0.047-0.574-0.099-0.868c-0.051-0.294-0.124-0.579-0.217-0.854
			c-0.094-0.275-0.217-0.522-0.371-0.742c-0.154-0.219-0.343-0.394-0.566-0.525c-0.225-0.13-0.49-0.196-0.799-0.196
			c-0.308,0-0.573,0.065-0.798,0.196c-0.224,0.131-0.413,0.306-0.566,0.525c-0.154,0.22-0.278,0.467-0.371,0.742
			c-0.094,0.275-0.166,0.56-0.217,0.854c-0.052,0.294-0.084,0.583-0.099,0.868C237.096,79.566,237.089,79.82,237.089,80.044z"/>
		<path d="M249.646,76.348h-4.018l-0.042,2.478c0.065-0.028,0.158-0.056,0.28-0.084c0.121-0.028,0.244-0.051,0.37-0.07
			c0.126-0.019,0.25-0.032,0.371-0.042c0.121-0.009,0.225-0.014,0.309-0.014c0.467,0,0.889,0.079,1.267,0.238
			s0.702,0.383,0.973,0.672c0.271,0.29,0.479,0.635,0.623,1.036c0.146,0.401,0.218,0.845,0.218,1.33
			c0,0.495-0.092,0.943-0.273,1.344c-0.182,0.401-0.432,0.747-0.749,1.036c-0.317,0.29-0.686,0.511-1.105,0.665
			s-0.873,0.231-1.358,0.231c-0.672,0-1.279-0.172-1.82-0.518c-0.541-0.345-0.929-0.84-1.162-1.484l1.345-0.462
			c0.178,0.458,0.417,0.786,0.717,0.987c0.299,0.201,0.674,0.301,1.124,0.301c0.262,0,0.513-0.047,0.752-0.14
			c0.238-0.093,0.444-0.226,0.618-0.399c0.173-0.173,0.312-0.385,0.414-0.637c0.104-0.252,0.154-0.537,0.154-0.854
			c0-0.728-0.222-1.271-0.665-1.631s-1.02-0.539-1.729-0.539c-0.252,0-0.572,0.044-0.959,0.133
			c-0.388,0.089-0.749,0.217-1.085,0.385l0.112-5.222h5.319V76.348z"/>
	</g>
	<g>
		<path d="M227.947,111.295l-1.82,1.681l-0.784-0.938l2.758-2.282h1.19v9.912h-1.344V111.295z"/>
		<path d="M235.731,111.295l-1.82,1.681l-0.784-0.938l2.758-2.282h1.19v9.912h-1.344V111.295z"/>
		<path d="M243.627,119.835c-0.447,0-0.87-0.067-1.267-0.203c-0.396-0.135-0.74-0.333-1.029-0.595s-0.518-0.579-0.686-0.952
			s-0.252-0.793-0.252-1.26c0-0.309,0.049-0.593,0.146-0.854c0.099-0.262,0.231-0.498,0.399-0.707
			c0.168-0.211,0.366-0.388,0.595-0.533c0.229-0.145,0.479-0.254,0.749-0.328v-0.043c-0.187-0.046-0.373-0.13-0.56-0.252
			c-0.188-0.121-0.353-0.274-0.497-0.461c-0.146-0.188-0.264-0.414-0.357-0.68c-0.093-0.266-0.14-0.571-0.14-0.917
			c0-0.373,0.077-0.712,0.23-1.015c0.154-0.303,0.364-0.562,0.631-0.777c0.266-0.215,0.573-0.38,0.924-0.496
			c0.35-0.117,0.721-0.176,1.112-0.176c0.393,0,0.764,0.059,1.113,0.176c0.351,0.116,0.658,0.281,0.924,0.496
			c0.267,0.215,0.477,0.475,0.63,0.777c0.154,0.303,0.231,0.642,0.231,1.015c0,0.346-0.047,0.651-0.14,0.917
			c-0.094,0.266-0.213,0.492-0.357,0.68c-0.145,0.187-0.311,0.34-0.497,0.461c-0.187,0.122-0.373,0.206-0.56,0.252v0.043
			c0.271,0.074,0.52,0.184,0.749,0.328c0.229,0.146,0.427,0.322,0.595,0.533c0.168,0.209,0.301,0.445,0.398,0.707
			c0.099,0.261,0.147,0.545,0.147,0.854c0,0.467-0.084,0.887-0.252,1.26s-0.396,0.69-0.686,0.952
			c-0.29,0.262-0.633,0.46-1.029,0.595C244.497,119.768,244.075,119.835,243.627,119.835z M243.627,118.659
			c0.561,0,1.016-0.17,1.365-0.511c0.351-0.341,0.525-0.782,0.525-1.323c0-0.299-0.049-0.562-0.147-0.791
			c-0.098-0.229-0.233-0.42-0.406-0.574c-0.172-0.154-0.373-0.271-0.602-0.35c-0.229-0.08-0.474-0.119-0.735-0.119
			c-0.551,0.01-1.003,0.184-1.357,0.525c-0.355,0.34-0.532,0.776-0.532,1.309c0,0.289,0.051,0.548,0.154,0.776
			c0.103,0.229,0.24,0.421,0.413,0.574c0.172,0.154,0.373,0.273,0.602,0.357S243.375,118.659,243.627,118.659z M242.073,112.247
			c0,0.195,0.035,0.387,0.105,0.574c0.069,0.187,0.17,0.352,0.301,0.496c0.131,0.146,0.291,0.265,0.482,0.357
			c0.191,0.094,0.413,0.141,0.665,0.141c0.262,0,0.488-0.045,0.68-0.133c0.19-0.09,0.352-0.206,0.482-0.351s0.229-0.31,0.294-0.497
			c0.065-0.187,0.099-0.383,0.099-0.588c0-0.457-0.143-0.833-0.428-1.127c-0.284-0.294-0.66-0.441-1.127-0.441
			c-0.429,0-0.796,0.145-1.099,0.434C242.225,111.402,242.073,111.78,242.073,112.247z"/>
		<path d="M249.592,117.245c0.157,0.476,0.369,0.831,0.635,1.063c0.265,0.233,0.657,0.351,1.178,0.351
			c0.261,0,0.505-0.044,0.732-0.133s0.43-0.21,0.606-0.364s0.316-0.341,0.419-0.561c0.103-0.219,0.153-0.464,0.153-0.734
			c0-0.411-0.086-0.739-0.259-0.987c-0.173-0.247-0.395-0.434-0.665-0.561c-0.271-0.125-0.569-0.207-0.896-0.244
			c-0.326-0.037-0.648-0.057-0.966-0.057v-1.176c0.514,0,0.934-0.035,1.26-0.105c0.327-0.069,0.584-0.17,0.771-0.301
			c0.187-0.13,0.317-0.293,0.392-0.49c0.075-0.195,0.112-0.414,0.112-0.657c0-0.532-0.159-0.933-0.476-1.204
			c-0.317-0.271-0.715-0.406-1.19-0.406c-0.364,0-0.693,0.105-0.987,0.315s-0.516,0.487-0.665,0.833l-1.372-0.462
			c0.262-0.635,0.661-1.104,1.197-1.407c0.537-0.303,1.137-0.455,1.799-0.455c0.401,0,0.786,0.054,1.155,0.161
			s0.693,0.272,0.973,0.497c0.28,0.224,0.502,0.506,0.665,0.847c0.164,0.341,0.245,0.74,0.245,1.197
			c0,0.522-0.156,0.989-0.469,1.399c-0.312,0.411-0.721,0.691-1.225,0.84v0.029c0.308,0.055,0.583,0.158,0.825,0.307
			c0.243,0.15,0.448,0.337,0.616,0.561c0.168,0.225,0.294,0.475,0.378,0.749c0.084,0.275,0.126,0.567,0.126,0.875
			c0,0.477-0.091,0.894-0.272,1.253c-0.183,0.359-0.425,0.658-0.729,0.896c-0.303,0.237-0.653,0.418-1.05,0.539
			s-0.814,0.182-1.253,0.182c-0.756,0-1.421-0.173-1.995-0.518c-0.574-0.346-0.973-0.892-1.197-1.639L249.592,117.245z"/>
		<path d="M261.897,111.015h-4.018l-0.042,2.479c0.065-0.028,0.158-0.057,0.28-0.084c0.121-0.028,0.244-0.051,0.37-0.07
			c0.126-0.019,0.25-0.032,0.371-0.042c0.121-0.009,0.225-0.014,0.309-0.014c0.467,0,0.889,0.079,1.267,0.237
			c0.378,0.159,0.702,0.383,0.973,0.672c0.271,0.29,0.479,0.635,0.623,1.037c0.146,0.4,0.218,0.844,0.218,1.33
			c0,0.494-0.092,0.942-0.273,1.344s-0.432,0.746-0.749,1.036c-0.317,0.289-0.686,0.511-1.105,0.664
			c-0.42,0.154-0.873,0.231-1.358,0.231c-0.672,0-1.279-0.173-1.82-0.518c-0.541-0.346-0.929-0.841-1.162-1.484l1.345-0.462
			c0.178,0.457,0.417,0.786,0.717,0.987c0.299,0.2,0.674,0.301,1.124,0.301c0.262,0,0.513-0.047,0.752-0.141
			c0.238-0.093,0.444-0.226,0.618-0.398c0.173-0.173,0.312-0.385,0.414-0.637c0.104-0.252,0.154-0.537,0.154-0.854
			c0-0.728-0.222-1.271-0.665-1.631s-1.02-0.539-1.729-0.539c-0.252,0-0.572,0.044-0.959,0.133
			c-0.388,0.089-0.749,0.218-1.085,0.386l0.112-5.223h5.319V111.015z"/>
	</g>
	<g>
		<path d="M224.643,147.211c0-0.364,0.019-0.742,0.057-1.134c0.037-0.393,0.104-0.777,0.203-1.155
			c0.098-0.378,0.229-0.739,0.392-1.085c0.163-0.345,0.373-0.646,0.63-0.903c0.257-0.256,0.561-0.462,0.91-0.615
			c0.35-0.154,0.758-0.231,1.225-0.231s0.875,0.077,1.226,0.231c0.35,0.153,0.653,0.359,0.91,0.615
			c0.256,0.257,0.466,0.559,0.63,0.903c0.163,0.346,0.294,0.707,0.392,1.085c0.099,0.378,0.166,0.763,0.203,1.155
			c0.037,0.392,0.056,0.77,0.056,1.134c0,0.522-0.047,1.083-0.14,1.68c-0.094,0.598-0.266,1.153-0.518,1.666
			c-0.252,0.514-0.601,0.938-1.043,1.274c-0.443,0.336-1.016,0.504-1.716,0.504c-0.699,0-1.271-0.168-1.715-0.504
			s-0.791-0.761-1.043-1.274c-0.252-0.513-0.425-1.068-0.518-1.666C224.689,148.294,224.643,147.733,224.643,147.211z
			 M225.987,147.211c0,0.327,0.021,0.714,0.062,1.162s0.133,0.88,0.273,1.295c0.14,0.415,0.348,0.768,0.623,1.057
			c0.274,0.29,0.646,0.435,1.112,0.435s0.838-0.145,1.113-0.435c0.275-0.289,0.483-0.642,0.623-1.057s0.231-0.847,0.273-1.295
			s0.062-0.835,0.062-1.162c0-0.224-0.007-0.479-0.021-0.763c-0.015-0.285-0.047-0.574-0.099-0.868
			c-0.051-0.294-0.124-0.579-0.217-0.854c-0.094-0.274-0.217-0.522-0.371-0.741c-0.154-0.22-0.343-0.395-0.566-0.525
			c-0.225-0.131-0.49-0.196-0.799-0.196c-0.308,0-0.573,0.065-0.798,0.196c-0.224,0.131-0.413,0.306-0.566,0.525
			c-0.154,0.219-0.278,0.467-0.371,0.741c-0.094,0.275-0.166,0.561-0.217,0.854c-0.052,0.294-0.084,0.583-0.099,0.868
			C225.994,146.732,225.987,146.987,225.987,147.211z"/>
		<path d="M232.427,147.211c0-0.364,0.019-0.742,0.057-1.134c0.037-0.393,0.104-0.777,0.203-1.155
			c0.098-0.378,0.229-0.739,0.392-1.085c0.163-0.345,0.373-0.646,0.63-0.903c0.257-0.256,0.561-0.462,0.91-0.615
			c0.35-0.154,0.758-0.231,1.225-0.231s0.875,0.077,1.226,0.231c0.35,0.153,0.653,0.359,0.91,0.615
			c0.256,0.257,0.466,0.559,0.63,0.903c0.163,0.346,0.294,0.707,0.392,1.085c0.099,0.378,0.166,0.763,0.203,1.155
			c0.037,0.392,0.056,0.77,0.056,1.134c0,0.522-0.047,1.083-0.14,1.68c-0.094,0.598-0.266,1.153-0.518,1.666
			c-0.252,0.514-0.601,0.938-1.043,1.274c-0.443,0.336-1.016,0.504-1.716,0.504c-0.699,0-1.271-0.168-1.715-0.504
			s-0.791-0.761-1.043-1.274c-0.252-0.513-0.425-1.068-0.518-1.666C232.474,148.294,232.427,147.733,232.427,147.211z
			 M233.771,147.211c0,0.327,0.021,0.714,0.062,1.162s0.133,0.88,0.273,1.295c0.14,0.415,0.348,0.768,0.623,1.057
			c0.274,0.29,0.646,0.435,1.112,0.435s0.838-0.145,1.113-0.435c0.275-0.289,0.483-0.642,0.623-1.057s0.231-0.847,0.273-1.295
			s0.062-0.835,0.062-1.162c0-0.224-0.007-0.479-0.021-0.763c-0.015-0.285-0.047-0.574-0.099-0.868
			c-0.051-0.294-0.124-0.579-0.217-0.854c-0.094-0.274-0.217-0.522-0.371-0.741c-0.154-0.22-0.343-0.395-0.566-0.525
			c-0.225-0.131-0.49-0.196-0.799-0.196c-0.308,0-0.573,0.065-0.798,0.196c-0.224,0.131-0.413,0.306-0.566,0.525
			c-0.154,0.219-0.278,0.467-0.371,0.741c-0.094,0.275-0.166,0.561-0.217,0.854c-0.052,0.294-0.084,0.583-0.099,0.868
			C233.778,146.732,233.771,146.987,233.771,147.211z"/>
		<path d="M244.439,149.983h-4.229v-1.372l3.948-6.356h1.624v6.552h1.4v1.177h-1.4v2.184h-1.344V149.983z M244.439,143.851h-0.028
			l-3.023,4.956h3.052V143.851z"/>
		<path d="M252.224,148.331h-0.056c-0.309,0.149-0.673,0.224-1.093,0.224c-0.354,0-0.714-0.061-1.078-0.182
			c-0.363-0.121-0.692-0.311-0.986-0.567c-0.294-0.256-0.534-0.583-0.722-0.979c-0.187-0.396-0.279-0.866-0.279-1.407
			s0.091-1.02,0.272-1.435c0.183-0.416,0.428-0.764,0.735-1.043c0.308-0.28,0.667-0.492,1.078-0.638
			c0.41-0.145,0.849-0.217,1.315-0.217s0.905,0.075,1.316,0.224c0.41,0.149,0.77,0.364,1.078,0.645
			c0.308,0.28,0.553,0.616,0.735,1.008c0.182,0.393,0.272,0.831,0.272,1.316c0,0.308-0.023,0.588-0.07,0.84
			s-0.114,0.492-0.202,0.721c-0.089,0.229-0.194,0.455-0.315,0.679c-0.121,0.225-0.257,0.453-0.406,0.687l-2.506,3.962h-1.582
			L252.224,148.331z M253.47,145.321c0-0.299-0.049-0.574-0.147-0.826c-0.098-0.252-0.237-0.469-0.42-0.651
			c-0.182-0.182-0.398-0.324-0.65-0.427s-0.532-0.154-0.841-0.154c-0.308,0-0.588,0.052-0.84,0.154s-0.469,0.245-0.65,0.427
			c-0.183,0.183-0.322,0.399-0.42,0.651c-0.099,0.252-0.147,0.527-0.147,0.826s0.049,0.573,0.147,0.826
			c0.098,0.252,0.237,0.469,0.42,0.65c0.182,0.183,0.398,0.324,0.65,0.427c0.252,0.104,0.532,0.154,0.84,0.154
			c0.309,0,0.589-0.051,0.841-0.154c0.252-0.103,0.469-0.244,0.65-0.427c0.183-0.182,0.322-0.398,0.42-0.65
			C253.421,145.895,253.47,145.62,253.47,145.321z"/>
		<path d="M255.947,150.739l3.977-3.948c0.14-0.131,0.275-0.273,0.406-0.427c0.13-0.154,0.247-0.315,0.35-0.483
			s0.185-0.345,0.245-0.532c0.061-0.187,0.091-0.382,0.091-0.588c0-0.242-0.044-0.462-0.133-0.658
			c-0.089-0.195-0.21-0.361-0.364-0.496c-0.154-0.136-0.336-0.24-0.546-0.315c-0.21-0.074-0.432-0.112-0.665-0.112
			c-0.485,0-0.887,0.136-1.204,0.406s-0.518,0.644-0.602,1.12l-1.456-0.126c0.065-0.438,0.193-0.819,0.385-1.141
			c0.191-0.322,0.43-0.591,0.714-0.806c0.285-0.215,0.611-0.373,0.98-0.476c0.368-0.103,0.768-0.154,1.196-0.154
			c0.43,0,0.833,0.059,1.211,0.175c0.379,0.117,0.71,0.29,0.994,0.519c0.285,0.229,0.509,0.513,0.672,0.854
			c0.164,0.341,0.245,0.74,0.245,1.197c0,0.327-0.049,0.633-0.146,0.917c-0.099,0.285-0.227,0.553-0.385,0.805
			c-0.159,0.252-0.341,0.49-0.547,0.714c-0.205,0.225-0.42,0.443-0.644,0.658l-3.262,3.15h4.983v1.176h-6.496V150.739z"/>
		<path d="M266.868,143.795l-1.82,1.68l-0.784-0.938l2.758-2.282h1.19v9.912h-1.344V143.795z"/>
		<path d="M274.652,143.795l-1.82,1.68l-0.784-0.938l2.758-2.282h1.19v9.912h-1.344V143.795z"/>
	</g>
	<g>
		<path d="M215.696,174.961l-1.82,1.68l-0.784-0.938l2.758-2.282h1.19v9.912h-1.344V174.961z"/>
		<path d="M223.48,174.961l-1.82,1.68l-0.784-0.938l2.758-2.282h1.19v9.912h-1.344V174.961z"/>
		<path d="M228.128,181.905l3.977-3.948c0.14-0.131,0.275-0.273,0.406-0.427c0.13-0.154,0.247-0.315,0.35-0.483
			s0.185-0.345,0.245-0.532c0.061-0.187,0.091-0.382,0.091-0.588c0-0.242-0.044-0.462-0.133-0.658
			c-0.089-0.195-0.21-0.361-0.364-0.496c-0.154-0.136-0.336-0.24-0.546-0.315c-0.21-0.074-0.432-0.112-0.665-0.112
			c-0.485,0-0.887,0.136-1.204,0.406s-0.518,0.644-0.602,1.12l-1.456-0.126c0.065-0.438,0.193-0.819,0.385-1.141
			c0.191-0.322,0.43-0.591,0.714-0.806c0.285-0.215,0.611-0.373,0.98-0.476c0.368-0.103,0.768-0.154,1.196-0.154
			c0.43,0,0.833,0.059,1.211,0.175c0.379,0.117,0.71,0.29,0.994,0.519c0.285,0.229,0.509,0.513,0.672,0.854
			c0.164,0.341,0.245,0.74,0.245,1.197c0,0.327-0.049,0.633-0.146,0.917c-0.099,0.285-0.227,0.553-0.385,0.805
			c-0.159,0.252-0.341,0.49-0.547,0.714c-0.205,0.225-0.42,0.443-0.644,0.658l-3.262,3.15h4.983v1.176h-6.496V181.905z"/>
	</g>
</g>
<g id="Ebene_5">
	<g>
		<g>
			<path fill="#F5952F" d="M65.707,128.726c2.347-3.238,3.255-8.005,4.143-11.781c3.723-15.839,4.32-32.484,4.508-48.68
				c0.131-11.239-0.166-22.48-0.68-33.707c-0.024-0.53-0.639-0.639-0.932-0.252c-1.256,1.657-2.531,3.329-3.964,4.841
				c0.262,0.202,0.523,0.404,0.785,0.606c1.25-2.303,2.499-4.606,3.749-6.909c-0.288,0-0.576,0-0.863,0
				c1.309,2.195,2.617,4.391,3.926,6.586c0.262-0.202,0.523-0.404,0.785-0.606c-1.178-1.083-2.357-2.165-3.535-3.247
				c-0.292-0.269-0.897-0.11-0.854,0.354c1.096,11.597,1.541,23.289,1.617,34.933c0.064,9.795-0.23,19.612-1.243,29.359
				c-0.877,8.445-2.194,17.29-5.782,25.065c-0.223,0.482-0.465,0.955-0.711,1.426c-0.299,0.57,0.564,1.076,0.863,0.504
				c3.61-6.894,5.078-14.853,6.092-22.494c1.285-9.687,1.706-19.47,1.779-29.234c0.099-13.086-0.413-26.225-1.588-39.261
				c-0.009-0.1-0.018-0.199-0.027-0.298c-0.285,0.118-0.569,0.236-0.854,0.354c1.178,1.083,2.357,2.165,3.535,3.247
				c0.411,0.378,1.084-0.104,0.785-0.606c-1.309-2.195-2.617-4.391-3.926-6.586c-0.187-0.314-0.682-0.335-0.863,0
				c-1.25,2.303-2.499,4.606-3.749,6.909c-0.266,0.49,0.384,1.029,0.785,0.606c1.492-1.575,2.812-3.317,4.12-5.043
				c-0.311-0.084-0.621-0.168-0.932-0.252c1.053,22.959,1.458,46.244-1.497,69.091c-1.002,7.746-2.157,16.286-5.669,23.389
				c-0.199,0.402-0.404,0.819-0.668,1.185C64.464,128.744,65.333,129.243,65.707,128.726L65.707,128.726z"/>
		</g>
	</g>
	<g>
		<g>
			<path fill="#F5952F" d="M65.408,132.482c4.193-1.408,8.043-4.606,11.402-7.345c12.139-9.896,22.038-22.555,31.005-35.288
				c9.178-13.032,17.334-26.771,24.949-40.764c0.248-0.456-0.239-0.907-0.684-0.684c-1.667,0.833-3.333,1.667-5,2.5
				c0.202,0.262,0.404,0.523,0.606,0.785c0.903-0.726,1.822-1.432,2.748-2.127c0.797-0.598,3.206-1.803,3.227-2.56
				c-0.077,2.775-0.523,5.576-0.829,8.334c0.333,0,0.667,0,1,0c-0.111-1.833-0.222-3.667-0.333-5.5
				c-0.028-0.467-0.687-0.72-0.932-0.252c-5.46,10.431-11.787,20.469-18.376,30.213c-12.378,18.305-26.58,36.535-44.562,49.666
				c-1.5,1.096-3.042,2.132-4.607,3.132c-0.542,0.346-0.041,1.212,0.505,0.863c18.224-11.637,32.471-29.099,44.913-46.514
				c8.262-11.564,15.917-23.663,22.638-36.192c0.119-0.221,0.236-0.441,0.353-0.663c-0.311-0.084-0.621-0.168-0.932-0.252
				c0.111,1.833,0.222,3.667,0.333,5.5c0.04,0.655,0.93,0.632,1,0c0.191-1.726,0.375-3.452,0.55-5.179
				c0.067-0.667,0.819-3.479-0.072-3.873c-1.036-0.458-2.906,1.339-3.625,1.857c-1.263,0.909-2.494,1.867-3.708,2.841
				c-0.466,0.375,0.126,1.025,0.606,0.785c1.667-0.833,3.333-1.667,5-2.5c-0.228-0.228-0.456-0.456-0.684-0.684
				c-11.675,21.454-24.606,42.619-40.756,61.04c-6.65,7.586-14.072,15.234-22.875,20.346c-1,0.581-2.091,1.204-3.128,1.552
				C64.535,131.722,64.795,132.688,65.408,132.482L65.408,132.482z"/>
		</g>
	</g>
	<g>
		<g>
			<path fill="#F5952F" d="M65.528,134.432c8.41-3.885,16.628-8.221,24.797-12.583c21.625-11.548,42.741-24.053,63.408-37.236
				c7.263-4.633,14.46-9.367,21.603-14.181c0.397-0.268,0.27-0.937-0.252-0.932c-2.434,0.026-4.867,0.052-7.3,0.078
				c0.044,0.327,0.088,0.655,0.133,0.982c3.656-0.748,7.312-1.497,10.967-2.245c-0.205-0.116-0.41-0.232-0.615-0.349
				c0.229,0.979-1.096,3.04-1.462,3.867c-0.372,0.839-0.758,1.672-1.154,2.5c0.311,0.084,0.621,0.168,0.932,0.252
				c0-1.417,0-2.835,0-4.253c0-0.361-0.431-0.646-0.752-0.432c-24.993,16.729-50.625,32.71-76.956,47.243
				c-11.23,6.197-22.678,12.278-34.674,16.873c-0.596,0.229-0.337,1.195,0.266,0.965c17.541-6.719,34.07-16.262,50.259-25.691
				c16.203-9.438,32.125-19.361,47.877-29.532c4.597-2.968,9.186-5.951,13.733-8.995c-0.251-0.144-0.501-0.288-0.752-0.432
				c0,1.417,0,2.835,0,4.253c0,0.473,0.71,0.716,0.932,0.252c0.613-1.282,1.199-2.578,1.757-3.885
				c0.376-0.882,1.196-2.245,0.96-3.253c-0.065-0.278-0.357-0.402-0.615-0.349c-3.656,0.748-7.312,1.497-10.967,2.245
				c-0.561,0.115-0.423,0.988,0.133,0.982c2.434-0.026,4.867-0.052,7.3-0.078c-0.084-0.311-0.168-0.621-0.252-0.932
				c-34.465,23.228-70.33,45.091-107.854,63.076c-0.65,0.311-1.3,0.622-1.954,0.924C64.438,133.839,64.946,134.7,65.528,134.432
				L65.528,134.432z"/>
		</g>
	</g>
	<g>
		<g>
			<path fill="#F5952F" d="M71.633,134.982c20.989-7.394,41.963-14.831,62.921-22.31c14.649-5.228,29.294-10.47,43.902-15.812
				c4.985-1.823,9.968-3.653,14.926-5.548c2.087-0.797,4.581-1.443,6.476-2.667c0.058-0.037,0.112-0.081,0.163-0.126
				c0.273-0.248,0.138-0.754-0.221-0.835c-0.885-0.202-1.8-0.408-2.548-0.95c-0.084,0.311-0.168,0.621-0.252,0.932c2,0,4,0,6,0
				c-0.144-0.251-0.288-0.501-0.432-0.752c-1.277,1.889-2.556,3.778-3.833,5.667c0.305,0.128,0.609,0.257,0.914,0.385
				c0.422-1.111,0.845-2.222,1.268-3.333c0.132-0.347-0.272-0.738-0.615-0.615c-20.61,7.419-41.228,14.82-61.85,22.207
				c-14.922,5.345-29.847,10.682-44.784,15.983c-8.347,2.963-16.667,6.087-25.109,8.771c-0.233,0.074-0.47,0.158-0.71,0.205
				c-0.633,0.124-0.364,1.088,0.266,0.965c2.068-0.405,4.135-1.352,6.118-2.038c4.843-1.678,9.675-3.387,14.506-5.097
				c14.456-5.117,28.896-10.279,43.334-15.447c22.695-8.121,45.381-16.266,68.061-24.429c0.145-0.052,0.29-0.104,0.435-0.157
				c-0.205-0.205-0.41-0.41-0.615-0.615c-0.422,1.111-0.845,2.222-1.268,3.333c-0.212,0.559,0.614,0.828,0.914,0.385
				c1.277-1.889,2.556-3.778,3.833-5.667c0.217-0.321-0.071-0.752-0.432-0.752c-2,0-4,0-6,0c-0.532,0-0.636,0.654-0.252,0.932
				c0.812,0.588,1.828,0.833,2.786,1.05c-0.073-0.278-0.147-0.557-0.221-0.835c-1.22,1.104-4.481,1.879-6.197,2.536
				c-4.957,1.897-9.941,3.724-14.926,5.547c-14.607,5.344-29.253,10.583-43.902,15.811c-20.958,7.48-41.933,14.917-62.921,22.31
				C70.763,134.23,71.023,135.197,71.633,134.982L71.633,134.982z"/>
		</g>
	</g>
	<g>
		<g>
			<path fill="#F5952F" d="M65.408,138.649c20.988-3.351,41.976-6.697,62.964-10.042c25.949-4.136,51.894-8.309,77.854-12.373
				c0.882-0.138,2.515-0.149,3.014-0.595c0.165-0.147,0.188-0.422,0.078-0.605c-0.664-1.104-2.678-2.534-3.912-2.847
				c-0.506-0.128-0.808,0.465-0.486,0.836c0.603,0.697,2.275,1.053,3.094,1.401c1.228,0.523,2.457,1.041,3.688,1.558
				c-0.04-0.305-0.08-0.609-0.119-0.914c-2.223,1.389-4.445,2.778-6.667,4.167c0.201,0.262,0.403,0.523,0.605,0.785
				c1.056-1.111,2.111-2.223,3.167-3.334c0.369-0.389-0.01-0.911-0.486-0.836c-21.033,3.351-42.067,6.697-63.101,10.041
				c-25.81,4.102-51.612,8.267-77.44,12.251c-0.719,0.111-1.888,0.334-2.385,0.357c-0.642,0.03-0.645,1.03,0,1
				c1.798-0.085,3.647-0.546,5.421-0.823c4.682-0.729,9.363-1.469,14.043-2.208c14.62-2.308,29.238-4.628,43.856-6.949
				c25.793-4.096,51.585-8.199,77.376-12.307c0.831-0.133,1.663-0.266,2.494-0.397c-0.162-0.279-0.324-0.558-0.486-0.836
				c-1.056,1.111-2.111,2.223-3.167,3.334c-0.384,0.404,0.112,1.094,0.605,0.785c2.223-1.389,4.445-2.778,6.667-4.167
				c0.399-0.249,0.269-0.751-0.119-0.914c-1.006-0.422-2.011-0.846-3.015-1.272c-0.807-0.342-2.775-0.793-3.325-1.429
				c-0.162,0.278-0.324,0.558-0.486,0.836c0.868,0.219,1.816,1.091,2.497,1.62c0.91,0.707,0.275,0.181,1.146,0.066
				c-0.234,0.03-0.469,0.066-0.703,0.103c-1.027,0.156-2.055,0.318-3.081,0.479c-4.239,0.665-8.477,1.338-12.714,2.01
				c-14.174,2.247-28.346,4.504-42.518,6.761c-26.844,4.275-53.688,8.557-80.53,12.84c-1.365,0.218-2.73,0.436-4.095,0.653
				C64.507,137.786,64.778,138.75,65.408,138.649L65.408,138.649z"/>
		</g>
	</g>
	<g>
		<g>
			<path fill="#F5952F" d="M65.408,143.315c32.103-4.331,66.207-5.51,98.877-3.595c17.087,1.002,34.208,3.059,50.819,7.279
				c0.491,0.125,0.83-0.472,0.486-0.836c-1.093-1.16-2.23-2.282-3.505-3.245c-0.168,0.288-0.336,0.575-0.504,0.863
				c2.412,1.389,4.824,2.778,7.236,4.167c0-0.288,0-0.575,0-0.863c-2.282,1.031-4.694,1.938-6.882,3.156
				c0.244,0.188,0.489,0.376,0.734,0.564c0.338-1.298,2.176-2.939,2.998-4.037c0.189-0.253-0.006-0.671-0.299-0.734
				c-7.955-1.713-16.094-2.736-24.166-3.685c-21.619-2.541-43.426-3.479-65.185-3.233c-20.303,0.229-40.588,1.615-60.744,4.05
				c-0.632,0.076-0.639,1.077,0,1c46-5.556,93.291-6.062,139.183,0.965c3.558,0.544,7.126,1.109,10.646,1.868
				c-0.1-0.245-0.199-0.49-0.299-0.734c-0.896,1.194-2.723,2.83-3.1,4.275c-0.111,0.429,0.351,0.778,0.734,0.564
				c2.188-1.218,4.601-2.125,6.882-3.156c0.352-0.158,0.301-0.69,0-0.863c-2.412-1.389-4.824-2.778-7.236-4.167
				c-0.574-0.331-1.004,0.485-0.504,0.863c1.202,0.909,2.271,1.994,3.302,3.089c0.162-0.278,0.324-0.557,0.486-0.836
				c-23.641-6.006-48.266-7.762-72.583-8.058c-20.321-0.248-40.667,0.708-60.902,2.559c-5.588,0.511-11.181,1.064-16.742,1.814
				C64.506,142.437,64.778,143.4,65.408,143.315L65.408,143.315z"/>
		</g>
	</g>
	<g>
		<g>
			<path fill="#F5952F" d="M66.207,147.167c11.466-0.487,23.062,0.258,34.476,1.257c26.76,2.342,53.354,7.556,78.829,16.123
				c7.374,2.479,14.634,5.293,21.766,8.401c0.397,0.174,1.021-0.231,0.684-0.684c-0.816-1.097-1.68-2.263-2.146-3.564
				c-0.279,0.162-0.558,0.324-0.836,0.486c0.871,0.799,1.719,1.625,2.553,2.462c0.999,1.001,2.921,2.518,3.152,3.983
				c0.116-0.205,0.233-0.41,0.35-0.615c-2.223,0.5-4.444,1-6.667,1.5c0.162,0.279,0.324,0.558,0.486,0.836
				c0.944-1.111,1.889-2.222,2.833-3.333c0.192-0.227,0.21-0.637-0.102-0.785c-7.867-3.764-16.237-6.632-24.517-9.316
				c-21.092-6.837-42.908-11.436-64.914-14.07c-15.24-1.825-30.602-2.586-45.947-2.348c-0.644,0.01-0.645,1.01,0,1
				c43.537-0.675,88.284,6.513,128.756,22.953c2.056,0.835,4.115,1.687,6.118,2.645c-0.034-0.262-0.067-0.523-0.102-0.785
				c-0.944,1.111-1.889,2.222-2.833,3.333c-0.323,0.38-0.021,0.949,0.486,0.836c2.223-0.5,4.444-1,6.667-1.5
				c0.287-0.064,0.391-0.356,0.35-0.615c-0.22-1.387-1.78-2.72-2.682-3.676c-1.049-1.113-2.154-2.178-3.281-3.211
				c-0.344-0.315-1.015-0.014-0.836,0.486c0.498,1.393,1.372,2.628,2.247,3.803c0.228-0.228,0.456-0.456,0.684-0.684
				c-26.276-11.455-54.247-18.595-82.594-22.558c-16.502-2.308-33.247-3.639-49.919-3.433c-1.02,0.013-2.041,0.029-3.061,0.072
				C65.564,146.194,65.562,147.194,66.207,147.167L66.207,147.167z"/>
		</g>
	</g>
</g>
<g id="Ebene_14">
	<path fill="#FFFFFF" d="M46.648,124.612c0,0-0.877,1.106-0.875,2.284c0.003,1.179-0.152,51.947,0,52.893
		c0.153,0.945-0.266,3.924,3.55,5.289s18.358,2.21,19.522,1.918s2.809-1.21,3.15-2.771c0.341-1.562,0.616-10.465,0.59-15.051
		c-0.025-4.587,0.189-37.469,0.002-39.911c-0.188-2.442,0.279-6.254-2.831-7.415C66.646,120.687,48.473,122.764,46.648,124.612"/>
	<path fill="#F5952F" d="M63.938,143.35c-1.617-3.472-6.029-4.822-9.47-3.5c-3.32,1.275-5.684,6.199-3.177,9.231
		c0.88,1.064,2.303,1.626,3.557,2.1c1.62,0.612,3.292,1.07,4.898,1.722c1.614,0.655,3.197,1.578,4.145,3.085
		c1.281,2.035,0.959,4.887-0.264,6.83c-1.728,2.744-4.6,3.576-7.534,2.327c-1.951-0.83-3.798-2.333-5.047-4.047
		c-0.194-0.267-0.589-0.242-0.698,0.091c-0.542,1.65,1.238,3.165,2.406,3.998c1.904,1.357,4.453,2.029,6.726,1.336
		c4.475-1.363,6.638-6.602,4.417-10.723c-1.07-1.985-3.611-2.547-5.603-3.061c-2.172-0.561-4.311-1.468-5.939-3.057
		c-2.134-2.081-2.281-5.982-0.391-8.263c2.227-2.688,6.796-2.934,9.632-1.188c0.882,0.543,1.674,1.42,2.192,2.315
		c0.247,0.426,0.907,0.041,0.66-0.386c-2.532-4.377-8.902-4.962-12.584-1.733c-1.876,1.646-2.261,4.503-1.745,6.829
		c0.454,2.042,2.056,3.507,3.78,4.535c1.947,1.162,4.048,1.566,6.183,2.235c1.264,0.395,2.43,1.014,3.156,2.158
		c0.647,1.021,0.758,2.48,0.736,3.657c-0.056,3.028-2.424,5.418-5.29,6.104c-2.567,0.615-5.833-0.998-7.279-3.114
		c-0.292-0.427-0.486-0.933-0.319-1.441c-0.232,0.031-0.465,0.062-0.698,0.092c1.993,2.734,5.517,5.316,9.049,5.026
		c2.248-0.185,3.908-1.808,5.051-3.624c1.101-1.749,1.236-4.153,0.607-6.108c-1.04-3.236-4.61-4.501-7.524-5.474
		c-1.557-0.52-3.168-0.979-4.59-1.82c-1.669-0.988-2.157-2.665-1.811-4.537c1.093-5.9,9.69-6.403,12.108-1.211
		C63.485,144.182,64.144,143.794,63.938,143.35"/>
	<path fill="#F5952F" d="M56.355,170.224c0.024,0.071,0.047,0.124,0.103,0.178c0.147,0.143,0.396,0.153,0.541,0
		c0.264-0.277,0.146-1.014,0.151-1.352c0.016-1.143,0.019-2.285,0.022-3.428c0.013-3.701,0.015-7.403,0.028-11.104
		c0.014-4.001,0.035-8.003,0.099-12.004c0.038-2.349-0.072-4.81,0.275-7.141c0.066-0.444-0.589-0.301-0.555-0.162
		c0.068,0.27,0.078,0.557,0.101,0.832c0.093,1.137,0.125,2.278,0.161,3.418c0.116,3.706,0.151,7.415,0.183,11.123
		c0.059,6.724,0.069,13.448,0.055,20.173c0,0.241-0.001,0.482-0.001,0.724c-0.001,0.492,0.763,0.492,0.764,0
		c0.016-5.442,0.007-10.885-0.021-16.326c-0.021-4.056-0.054-8.111-0.13-12.167c-0.046-2.49-0.009-5.032-0.3-7.511
		c-0.039-0.333-0.169-1.193-0.728-0.847c-0.394,0.245-0.334,1.089-0.363,1.475c-0.213,2.858-0.2,5.742-0.235,8.607
		c-0.091,7.506-0.062,15.014-0.103,22.52c-0.004,0.667-0.008,1.334-0.019,2c-0.003,0.207-0.007,0.413-0.014,0.619
		c-0.01,0.302-0.088,0.197,0.088,0.011h0.541c0.031,0.053,0.062,0.105,0.093,0.159C56.933,169.557,56.195,169.756,56.355,170.224"/>
	<path fill="#BFC2C9" d="M69.426,158.027c-1.206,2.474-2.659,4.848-3.997,7.251c-2.001,3.593-4.008,7.185-5.955,10.808
		c-0.563,1.048-1.145,2.097-1.637,3.182c-0.178,0.393-0.165,1.448,0.505,0.859c0.601-0.527,1.026-1.4,1.458-2.059
		c0.965-1.476,1.899-2.971,2.833-4.465c2.514-4.026,4.992-8.075,7.452-12.134c0.256-0.423-0.405-0.806-0.66-0.386
		c-3.283,5.416-6.565,10.841-10.001,16.161c-0.491,0.76-0.958,1.677-1.601,2.323c0.933-0.936,0.397,0.781,0.634,0.176
		c0.055-0.14,0.125-0.274,0.189-0.41c0.252-0.528,0.525-1.046,0.796-1.563c1.822-3.473,3.747-6.894,5.652-10.321
		c1.666-2.996,3.487-5.953,4.991-9.036C70.302,157.972,69.643,157.584,69.426,158.027"/>
	<path fill="#BFC2C9" d="M49.313,148.138c2.172-3.312,4.343-6.626,6.513-9.941c2.343-3.58,4.819-7.108,7.021-10.777
		c0.254-0.425-0.407-0.809-0.66-0.387c-2.158,3.597-4.584,7.055-6.88,10.562c-2.216,3.387-4.434,6.773-6.654,10.157
		C48.382,148.166,49.044,148.548,49.313,148.138"/>
	<path d="M47.598,124.204c-0.128,0.112,0.17-0.068,0.236-0.093c0.394-0.146,0.813-0.227,1.224-0.309
		c1.099-0.222,2.225-0.315,3.337-0.444c2.191-0.254,4.384-0.495,6.581-0.701c2.28-0.215,4.571-0.406,6.863-0.427
		c1.403-0.012,2.967-0.124,3.392,1.521c0.263,1.017,0.176,2.165,0.195,3.204c0.019,1.101,0.068,2.2,0.106,3.3
		c0.032,0.934,0.042,1.869,0.053,2.804c0.039,3.311,0.042,6.621,0.044,9.931c0.007,8.762-0.029,17.524-0.099,26.286
		c-0.027,3.379-0.058,6.76-0.113,10.139c-0.03,1.842-0.005,3.7-0.315,5.521c-0.384,2.261-3.051,1.827-4.777,1.732
		c-2.113-0.115-4.222-0.31-6.324-0.547c-2.325-0.262-4.648-0.593-6.934-1.095c-1.086-0.238-3.347-0.53-3.992-1.599
		c-1.19-1.97-0.85-4.774-0.826-6.946c0.009-0.769,0.007-1.538,0.008-2.308c0.002-3.06-0.006-6.119-0.014-9.179
		c-0.021-8.476-0.052-16.951-0.072-25.428c-0.008-3.284-0.016-6.569-0.014-9.855c0.001-1.393-0.352-3.567,0.449-4.539
		c0.972-1.182,2.989-1.17,4.414-1.359c1.574-0.208,3.15-0.398,4.728-0.575c3.898-0.437,7.951-0.993,11.879-0.702
		c1.717,0.128,2.184,1.114,2.378,2.71c0.427,3.507,0.199,7.147,0.203,10.669c0.009,9.81,0.359,19.61,0.413,29.419
		c0.025,4.651,0.012,9.309-0.217,13.955c-0.081,1.643-0.183,3.293-0.424,4.921c-0.084,0.568-0.16,1.874-0.715,2.162
		c-1.469,0.765-3.543,0.654-5.144,0.664c-2.448,0.014-4.899-0.185-7.33-0.46c-2.181-0.247-4.37-0.575-6.502-1.105
		c-0.617-0.154-1.258-0.319-1.825-0.615c-1.009-0.526-2.098-2.091-1.962-3.22c0.059-0.488-0.707-0.482-0.764,0
		c-0.19,1.578,1.29,3.464,2.72,4.057c1.487,0.617,3.143,0.876,4.721,1.143c4.364,0.74,8.94,1.222,13.365,0.871
		c0.966-0.076,2.728-0.116,3.434-0.912c0.531-0.6,0.623-1.63,0.74-2.381c0.569-3.651,0.574-7.416,0.635-11.102
		c0.149-9.013-0.071-18.032-0.312-27.041c-0.149-5.572-0.029-11.151-0.084-16.725c-0.02-1.981,0.173-4.369-0.653-6.234
		c-0.811-1.829-3.074-1.608-4.757-1.59c-4.092,0.047-8.195,0.546-12.253,1.039c-2.322,0.283-6.549,0.152-7.666,2.551
		c-0.555,1.193-0.231,2.998-0.232,4.256c-0.014,14.826,0.106,29.651,0.1,44.478c-0.001,2.864-0.382,5.883,0.494,8.639
		c0.466,1.468,1.152,1.948,2.579,2.452c1.905,0.674,3.954,0.987,5.943,1.291c3.882,0.593,7.86,1.036,11.791,1.08
		c2.038,0.022,3.328-0.773,3.613-2.835c0.106-0.767,0.18-1.526,0.205-2.299c0.5-14.958,0.329-29.976,0.265-44.94
		c-0.01-2.34-0.011-4.682-0.08-7.021c-0.059-1.988-0.036-4.001-0.2-5.983c-0.096-1.146-0.516-2.339-1.7-2.748
		c-1.36-0.47-3.126-0.221-4.526-0.155c-2.324,0.109-4.642,0.333-6.955,0.569c-1.864,0.19-3.724,0.406-5.584,0.622
		c-1.209,0.14-3.288,0.08-4.278,0.947C46.686,123.989,47.229,124.527,47.598,124.204"/>
	<path d="M48.586,123.884c1.889-0.936,4.487-0.973,6.55-1.212c2.716-0.313,5.445-0.533,8.177-0.639
		c2.089-0.08,4.339-0.204,6.39,0.285c2.696,0.644,2.433,5.527,2.456,7.589c0.065,5.842,0.041,11.685,0.043,17.526
		c0.003,8.31-0.005,16.619-0.067,24.929c-0.021,2.821-0.042,5.644-0.113,8.463c-0.017,0.677-0.03,1.355-0.083,2.03
		c-0.101,1.268-1.278,3.96-3.095,3.759c-0.489-0.055-0.484,0.71,0,0.764c1.705,0.189,2.988-1.706,3.518-3.047
		c0.317-0.801,0.36-1.605,0.392-2.447c0.099-2.594,0.107-5.192,0.131-7.788c0.078-8.54,0.083-17.082,0.083-25.624
		c0-6.11,0.011-12.223-0.041-18.334c-0.021-2.414,0.021-5.175-1.298-7.3c-0.834-1.344-2.357-1.436-3.795-1.544
		c-5.004-0.373-10.193,0.245-15.146,0.923c-1.482,0.202-3.128,0.335-4.486,1.007C47.759,123.442,48.146,124.102,48.586,123.884"/>
	<path d="M54.843,125.198c1.472-0.139,3.112-0.394,4.58-0.153c0.256,0.043,0.241-0.475-0.02-0.4
		c-0.192,0.055-0.398,0.075-0.596,0.099c-0.514,0.061-1.033,0.082-1.55,0.104c-0.804,0.033-1.61,0.043-2.415,0.043
		c-0.493,0-0.493,0.765,0,0.765c0.683,0,5.666,0.258,5.336-0.941c-0.202-0.733-1.897-0.486-2.405-0.472
		c-0.978,0.027-1.957,0.101-2.931,0.191C54.356,124.479,54.352,125.244,54.843,125.198"/>
	<path d="M55.378,184.807c1.289,0.419,2.838,0.708,4.092,0.04c0.604-0.321,1.357-1.811,0.685-2.381
		c-0.375-0.316-0.84-0.381-1.316-0.438c-0.813-0.099-1.623-0.228-2.438-0.319c-1.192-0.134-2.264,0.196-2.484,1.492
		c-0.393,2.313,3.597,2.338,5.022,2.229c0.863-0.065,1.643-0.362,1.591-1.37c-0.049-0.959-1.011-2.073-1.999-2.068
		c-0.493,0.002-0.493,0.767,0,0.764c0.571-0.002,1.72,1.283,1.087,1.771c-0.324,0.25-1.068,0.168-1.448,0.171
		c-0.716,0.007-3.432-0.027-3.52-1.1c-0.158-1.922,3.275-0.935,4.345-0.78c1.218,0.175,0.288,1.381-0.476,1.588
		c-0.94,0.255-2.044-0.043-2.939-0.334C55.111,183.917,54.912,184.655,55.378,184.807"/>
	<path d="M46.309,179.853c6.297,0.521,12.597,1.043,18.882,1.698c1.042,0.108,2.109,0.179,3.138,0.392
		c0.356,0.073,0.216-0.663,0.119-0.654c-0.139,0.013-0.28,0.012-0.419,0.013c-0.562,0.003-1.126-0.021-1.688-0.042
		c-3.895-0.147-7.787-0.417-11.674-0.69c-1.653-0.116-3.305-0.239-4.957-0.379c-0.745-0.062-1.693-0.004-2.407-0.26
		c-0.465-0.166-0.664,0.572-0.203,0.737c0.724,0.26,1.684,0.207,2.439,0.272c1.79,0.155,3.582,0.284,5.374,0.41
		c3.859,0.271,7.723,0.534,11.589,0.68c0.634,0.024,1.683,0.24,2.285-0.056c0.895-0.441-0.629-0.835-0.855-0.867
		c-3.255-0.464-6.551-0.702-9.824-0.998c-3.931-0.356-7.864-0.695-11.798-1.021C45.817,179.048,45.821,179.812,46.309,179.853"/>
	<path d="M46.309,129.222c6.413-0.36,12.83-0.734,19.229-1.295c1.242-0.108,2.492-0.211,3.724-0.413
		c0.384-0.063,1.46-0.581,0.578-0.926c-0.628-0.246-1.593-0.073-2.243-0.059c-1.651,0.036-3.3,0.112-4.949,0.188
		c-5.449,0.253-10.895,0.571-16.339,0.911c-0.489,0.03-0.492,0.795,0,0.765c6.249-0.391,12.502-0.766,18.758-1.017
		c1.304-0.053,2.61-0.109,3.916-0.097c0.16,0.002,0.32,0.007,0.479,0.016c0.523,0.031-0.807-0.032,0.072-0.621
		c-0.107,0.072-0.644,0.13-0.878,0.163c-3.471,0.495-7.012,0.646-10.506,0.885c-3.945,0.269-7.893,0.513-11.841,0.734
		C45.819,128.484,45.816,129.249,46.309,129.222"/>
	<path d="M65.21,123.781c-0.26,0.211-0.424,0.559-0.34,0.892c0.118,0.469,0.723,0.719,1.137,0.502
		c0.324-0.17,0.426-0.582,0.36-0.914c-0.081-0.407-0.502-0.619-0.887-0.592c-0.208,0.015-0.382,0.163-0.382,0.382
		c0,0.197,0.174,0.397,0.382,0.383c0.029-0.003,0.193,0.009,0.088-0.008c0.018,0.003,0.036,0.008,0.053,0.013
		c0.085,0.022-0.074-0.039,0,0c0.035,0.021,0.028,0.015-0.021-0.021c0.017,0.014,0.032,0.03,0.046,0.047
		c-0.069-0.078-0.028-0.035-0.013-0.007c-0.05-0.092-0.019-0.046-0.009-0.013c0.03,0.1,0.001-0.082,0.003,0.022
		c0.001,0.105,0.021-0.079-0.003,0.023c-0.024,0.1,0.041-0.066-0.007,0.022c-0.014,0.025-0.059,0.078,0.014-0.012
		c-0.013,0.015-0.027,0.027-0.042,0.041c0.053-0.039,0.063-0.048,0.03-0.027c-0.062,0.038,0.091-0.03,0.02-0.01
		c-0.04,0.008-0.025,0.006,0.042-0.006c-0.032,0.003-0.093-0.016,0.016,0.006c-0.016-0.004-0.031-0.008-0.046-0.014
		c0.105,0.034-0.005-0.009-0.025-0.021c0.02,0.012-0.059-0.06-0.017-0.004c-0.058-0.076,0.009,0.059-0.011-0.025
		c0.006,0.053,0.009,0.059,0.009,0.015c-0.005,0.118,0.031-0.044-0.013,0.058c0.011-0.026,0.026-0.05,0.041-0.074
		c0.049-0.078-0.052,0.061,0.003-0.006c0.033-0.041,0.07-0.078,0.111-0.111c0.162-0.132,0.135-0.404,0-0.54
		C65.591,123.622,65.372,123.649,65.21,123.781"/>
	<path d="M52.984,124.781c-0.063,0.118-0.124,0.249-0.148,0.382c-0.025,0.136-0.027,0.283,0.053,0.403
		c0.126,0.188,0.314,0.229,0.526,0.193c0.206-0.033,0.317-0.285,0.267-0.47c-0.06-0.217-0.265-0.3-0.47-0.267
		c0.125-0.032,0.235,0.017,0.33,0.146c0.077,0.114,0.037,0.206,0.042,0.114c-0.009,0.133,0.009,0,0.023-0.041
		c0.035-0.098-0.035,0.071,0.015-0.032c0.007-0.015,0.014-0.029,0.022-0.044c0.098-0.184,0.047-0.414-0.137-0.522
		C53.333,124.542,53.083,124.598,52.984,124.781"/>
	<path d="M51.786,125.229v0.27c0,0.493,0.764,0.493,0.764,0c0-0.159-0.034-0.281-0.134-0.407c-0.038-0.048-0.091-0.085-0.145-0.114
		c-0.039-0.02-0.08-0.034-0.12-0.051c-0.098-0.038,0.038-0.001,0.117,0.078c0.033,0.124,0.065,0.248,0.098,0.372
		c0-0.001,0-0.002,0-0.003c-0.059,0.076-0.117,0.152-0.176,0.229c-0.075,0.052-0.104,0.038-0.048,0.023
		c0.042-0.011,0.084-0.02,0.126-0.028c0.204-0.045,0.32-0.277,0.267-0.47c-0.057-0.209-0.267-0.312-0.47-0.267
		c-0.083,0.018-0.189,0.031-0.26,0.081c-0.203,0.142-0.264,0.418-0.075,0.605c0.058,0.058,0.106,0.076,0.182,0.104
		c0.089,0.033-0.065-0.034-0.013-0.007c-0.059-0.031-0.107-0.106-0.114-0.205c0.001,0.02,0,0.039,0,0.059
		c0,0.493,0.764,0.493,0.764,0v-0.27C52.55,124.736,51.786,124.736,51.786,125.229"/>
</g>
</svg>
