<?xml version="1.0" encoding="utf-8"?>
<!-- Generator: Adobe Illustrator 16.0.0, SVG Export Plug-In . SVG Version: 6.00 Build 0)  -->
<!DOCTYPE svg PUBLIC "-//W3C//DTD SVG 1.1//EN" "http://www.w3.org/Graphics/SVG/1.1/DTD/svg11.dtd">
<svg version="1.1" xmlns="http://www.w3.org/2000/svg" xmlns:xlink="http://www.w3.org/1999/xlink" x="0px" y="0px" width="400px"
	 height="300px" viewBox="0 0 400 300" enable-background="new 0 0 400 300" xml:space="preserve">
<g id="Ebene_3">
	<path fill="#FFFFFF" d="M299.854,225.567c0,0,73.783-16.557,86.965-33.729s13.125-21.354,10.857-22.767s-9.195-3.698-18.936,7.948
		s-41.451,31.085-80.596,44.199c0.347-3.867-1.615-5.71-1.615-5.71s-1.814-32.601-18.505-36.722
		c-13.018,3.028-27.688,10.482-27.688,10.482l1.067-10.58l-8.501,4.603c0,0,4.044-12.129-3.852-14.52
		c-2.745,2.135-4.293,3.542-4.293,3.542l-6.021-9.916l-2.124,4.604l-10.979-4.604v2.125c0,0-11.618,0.359-13.104,1.771
		c-3.982-5.118-15.755-19.272-23.143-12.117c-2.721,4.488,6.499,19.721,6.499,19.721s-44.534-4.92-73.044,1.924
		c-0.642-4.787-2.968-12.832-8.771-13.104s-13.933-0.74-32.169,13.104c6.253-15.881,14.311-40.844,6.871-43
		c-14.081,14.711-44.351,51.854-45.562,58.016c2.173,5.137,8.103,9.075,19.446,5.118c0.049,3.359-1.876,12.363-1.876,12.363
		l-7.779-7.321c0,0-0.099,3.489-1.55,5.245s-4.509-2.711-16.48,2.022c0.741,4.178,0.989,5.579,0.989,5.579l-10.253,0.824
		l2.636,3.721c0,0-6.09,0.791-10.217,6.2c0.93,3.06,1.978,6.51,1.978,6.51l-4.286,4.341l1.647,6.97L4.5,249.844
		c0,0,9.167-5.844,11.5-5.177s-3.463,5.177-3.463,5.177s11.592,2.996,12.527,5.576c2.936-3.753,8.423-6.982,8.423-6.982l5.327,5.23
		c0,0,3.325-9.668,7.922-9.668c0.035,2.663-4.406,15.097,36.929,20.382c19.842-0.616,33.001-2.388,46.335-10.218
		c10-5.83,11.487-10.865,10.91-14.348c9.423-0.482,55.547-2.328,55.547-2.328s2.528,13.29,8.902,14.938s19.934,5.206,35.954-12.61
		c2.549,6.388,8.313,20.568,24.167,17.543s24.166-12.297,24.166-12.297s52.301,13.777,79.327,10.357s24.005-19.546,23.518-21.766
		s-0.611-10.406-14.78-7.03s-55.387,15.342-84.882,13.192c4.152-3.623,6.91-7.973,6.91-7.973l-3.21-0.177L299.854,225.567z"/>
</g>
<g id="Hase">
	<path fill="none" stroke="#000000" stroke-width="2" stroke-linecap="round" stroke-linejoin="round" stroke-miterlimit="10" d="
		M215.988,229.686c0,0-0.354-4.604-7.79-10.624c-7.438-6.021-26.914-9.562-25.499,0c1.416,9.561,13.458,15.521,13.458,15.521
		s0.701,13.949,9.202,17.844c8.499,3.897,17.711,0.019,17.711,0.019s15.229-5.691,17.708-12.42"/>
	<path fill="none" stroke="#000000" stroke-width="2" stroke-linecap="round" stroke-linejoin="round" stroke-miterlimit="10" d="
		M296.529,215.51c-0.975-10.892-3.565-27.505-15.917-35.856c-6.874-4.647-30.276,9.617-30.276,9.617l1.067-10.58l-8.501,4.603
		c0,0,3.628-9.207-3.852-14.52c-2.522,1.771-4.293,3.542-4.293,3.542l-6.021-9.916l-2.124,4.604l-10.979-4.604v2.125
		c0,0-9.561-1.062-13.104,1.771c-3.541,2.833-2.479,4.604-2.479,4.604l-5.666,1.771v3.895"/>
	<path fill="none" stroke="#000000" stroke-width="2" stroke-linecap="round" stroke-linejoin="round" stroke-miterlimit="10" d="
		M243.862,211.229c0,0-8.656,31.997,5.94,42.935c12.218,9.154,35.18-1.883,39.844-9.102"/>
	
		<polyline fill="none" stroke="#000000" stroke-width="2" stroke-linecap="round" stroke-linejoin="round" stroke-miterlimit="10" points="
		272.208,188.955 269.906,191.769 269.906,198.674 	"/>
	<path fill="none" stroke="#000000" stroke-width="2" stroke-linecap="round" stroke-linejoin="round" stroke-miterlimit="10" d="
		M289.646,245.062c0,0,94.55,26.489,101.987-3.12c4.81-19.148-9.264-17.585-28.187-11.914
		c-28.653,8.585-69.855,10.192-69.855,10.192s5.748-6.385,6.147-8.377c-0.931-1.727-3.21-0.796-3.21-0.796s4.139-7.703,4.67-10.758
		c-1.726-0.664-3.055,0.93-3.055,0.93s0.797-4.117,0-5.71"/>
	<path fill="none" stroke="#000000" stroke-width="2" stroke-linecap="round" stroke-linejoin="round" stroke-miterlimit="10" d="
		M299.854,225.567c0,0,103.135-19.132,97.822-56.495c-5.501-7.421-25.502,15.044-38.978,24.743
		c-15.936,11.471-58.158,26.323-58.158,26.323"/>
	<path fill="none" stroke="#000000" stroke-width="2" stroke-linecap="round" stroke-linejoin="round" stroke-miterlimit="10" d="
		M202.531,166.296c0,0-10.458-15.998-20.344-13.828c-9.888,2.17,3.7,21.432,3.7,21.432s-58.083-7.481-92.69,8.637"/>
	<path fill="none" stroke="#000000" stroke-width="2" stroke-linecap="round" stroke-linejoin="round" stroke-miterlimit="10" d="
		M112.843,175.823c0,0,1.02-24.371-30.951-7.633c-2.637,1.859-9.99,7.633-9.99,7.633"/>
	<path fill="none" stroke="#000000" stroke-width="2" stroke-linecap="round" stroke-linejoin="round" stroke-miterlimit="10" d="
		M69.467,180.986c0,0,15.533-30.741,11.864-44.328c-0.751-2.785-2.107-4.077-3.901-4.188c-9.83,9.732-27.891,35.496-44.219,58.368
		c-1.978,5.271,7.911,9.857,19.446,5.118c0.659,3.629-1.978,19.379-1.978,19.379"/>
	<path fill="none" stroke="#000000" stroke-width="2" stroke-linecap="round" stroke-linejoin="round" stroke-miterlimit="10" d="
		M70.256,233.654c16.671,8.982,22.842,17.391,18.327,23.981c-7.021,10.247-38.317,2.15-41.284-7.936
		C44.333,239.615,53.263,224.498,70.256,233.654z"/>
	<path fill="none" stroke="#000000" stroke-width="2" stroke-linecap="round" stroke-linejoin="round" stroke-miterlimit="10" d="
		M57.425,258.363c0,0,8.01,5.131,20.534,5.751c12.524,0.619,33.548,2.023,51.792-9.06c16.499-10.023,12.556-20.13,2.008-21.37
		c-10.546-1.239-23.071,0-23.071,0"/>
	<path fill="none" stroke="#000000" stroke-width="2" stroke-linecap="round" stroke-linejoin="round" stroke-miterlimit="10" d="
		M142.232,239.816c0,0,48.893-2.91,54.225-2.328"/>
	<path fill="none" stroke="#000000" stroke-width="2" stroke-linecap="round" stroke-linejoin="round" stroke-miterlimit="10" d="
		M45.938,243.908c0,0-6.84,6.971-7.124,9.76c-0.283,2.791-6.262-6.657-6.262-6.657l-7.488,8.409l-4.708-2.659
		c0,0-4.979-1.821-7.616-1.2c-2.636,0.619,3.296-6.821,3.296-6.821S4.83,247.817,4.5,249.844c-0.329,2.025,2.966-7.433,2.966-7.433
		l-1.647-6.97l4.286-4.341l-1.978-6.51c0,0,9.229-7.748,10.217-6.2c0.989,1.55-2.636-3.721-2.636-3.721l10.253-0.824l-0.989-5.579
		c0,0,11.207-4.106,16.48-2.022c2.966-1.637,0.33-6.485,0.33-6.485s7.352,7.538,9,8.562"/>
	<path fill="none" stroke="#000000" stroke-width="2" stroke-linecap="round" stroke-linejoin="round" stroke-miterlimit="10" d="
		M272.343,241.942c-0.002,0.004-3.103,6.662,0.881,9.314"/>
</g>
<g id="Ebene_2">
	
		<polyline fill="none" stroke="#F5952F" stroke-width="2" stroke-linecap="round" stroke-linejoin="round" stroke-miterlimit="10" points="
		299.853,155.04 307.415,158.8 296.529,162.399 301.972,167.401 	"/>
	
		<polyline fill="none" stroke="#F5952F" stroke-width="2" stroke-linecap="round" stroke-linejoin="round" stroke-miterlimit="10" points="
		299.853,132.471 310.536,129.897 301.972,144.417 313.37,142.646 	"/>
	
		<polyline fill="none" stroke="#F5952F" stroke-width="2" stroke-linecap="round" stroke-linejoin="round" stroke-miterlimit="10" points="
		292.829,98.733 308.766,98.733 292.829,118.21 310.176,116.715 	"/>
	
		<polyline fill="none" stroke="#F5952F" stroke-width="2" stroke-linecap="round" stroke-linejoin="round" stroke-miterlimit="10" points="
		296.529,51.633 315.494,61.903 287.519,75.714 306.612,84.568 	"/>
</g>
</svg>
