<?xml version="1.0" encoding="utf-8"?>
<!-- Generator: Adobe Illustrator 16.0.0, SVG Export Plug-In . SVG Version: 6.00 Build 0)  -->
<!DOCTYPE svg PUBLIC "-//W3C//DTD SVG 1.1//EN" "http://www.w3.org/Graphics/SVG/1.1/DTD/svg11.dtd">
<svg version="1.1" id="Ebene_2_Kopie" xmlns="http://www.w3.org/2000/svg" xmlns:xlink="http://www.w3.org/1999/xlink" x="0px"
	 y="0px" width="200px" height="200px" viewBox="0 0 200 200" enable-background="new 0 0 200 200" xml:space="preserve">
<g id="Ebene_3">
	<polygon fill="#FFFFFF" points="174.017,98.1 158.523,82.373 41.247,82.138 31.474,96.926 	"/>
</g>
<path fill="#FFFFFF" stroke="#F7941E" stroke-width="2" stroke-linecap="round" stroke-linejoin="round" stroke-miterlimit="10" d="
	M34.811,97.866c0,0-1.669,81.917,0,82.387c1.667,0.472,136.82,1.173,136.82,1.173s5.484-80.039,3.813-83.09
	c-1.667-3.053-143.972-1.41-143.972-1.41l0.716,83.327l143.256,0.703l-2.384-84.264l-14.54-14.317L40.53,81.202l-9.058,15.725
	l10.727-13.849l117.038,0.939l16.207,14.317"/>
<path fill="none" stroke="#F7941E" stroke-width="2" stroke-linecap="round" stroke-linejoin="round" stroke-miterlimit="10" d="
	M43.868,153.495c0,0,12.871,6.807,13.111,9.389c0.238,2.583-13.349-7.98-13.349-7.98s6.675,1.878,6.437,6.573
	c-0.239,4.693-0.239,8.449,0.955,9.621c-2.146,0.472-9.059-0.233-9.059-0.233s1.907-10.092,6.196-11.032"/>
<path fill="none" stroke="#009BA4" stroke-width="2" stroke-linecap="round" stroke-linejoin="round" stroke-miterlimit="10" d="
	M137.786,80.964c0,0,16.445,15.492,18.353,17.605c0,0,1.429,15.256,1.67,18.544c2.857,1.642,10.012,15.725,6.435,17.133
	s-7.866-14.317-7.388-16.195c0.476-1.88,2.145,13.613-6.438,17.842c-8.581,4.224,5.243-22.771,8.342-20.422
	c3.1,2.35-6.434,2.348-2.857-0.705c3.574-3.052,3.1,67.131,0.478,67.836c-1.03,0.275,0-76.52-4.292-84.266
	c-4.29-7.746-15.492-17.134-15.492-17.134"/>
</svg>
