<?xml version="1.0" encoding="utf-8"?>
<!-- Generator: Adobe Illustrator 16.0.0, SVG Export Plug-In . SVG Version: 6.00 Build 0)  -->
<!DOCTYPE svg PUBLIC "-//W3C//DTD SVG 1.1//EN" "http://www.w3.org/Graphics/SVG/1.1/DTD/svg11.dtd">
<svg version="1.1" id="Ebene_1" xmlns="http://www.w3.org/2000/svg" xmlns:xlink="http://www.w3.org/1999/xlink" x="0px" y="0px"
	 width="145.622px" height="270.938px" viewBox="0 0 145.622 270.938" enable-background="new 0 0 145.622 270.938"
	 xml:space="preserve">
<g>
	<path fill="#EBECEB" d="M145.142,270.938c-0.006,0-0.014,0-0.02,0c-0.002,0-0.003,0-0.005,0
		c-1.089-0.01-109.248-0.982-137.022-0.982c-2.623,0-4.542,0.009-5.599,0.027c-0.132,0.007-0.292-0.062-0.389-0.175
		c-0.122-0.144-0.166-0.195-0.224-1.677c-0.694,0.005-1.158,0.01-1.369,0.016c-0.146,0-0.282-0.055-0.379-0.159
		c-0.096-0.103-0.144-0.242-0.132-0.382c0.035-0.568,0.233-19.297,0.984-105.22C0.628,88.243,0.394,1.37,0.392,0.501
		c0-0.133,0.052-0.261,0.146-0.354C0.631,0.053,0.759,0,0.892,0h142.39c0.276,0,0.5,0.224,0.5,0.5v1.43l1.028,0.008
		c0.274,0.002,0.496,0.225,0.496,0.5l0.316,267.859c0.013,0.044,0.02,0.092,0.02,0.141
		C145.642,270.714,145.418,270.938,145.142,270.938z M8.095,268.955c26.8,0,128.423,0.905,136.526,0.978L144.307,2.935l-0.525-0.004
		v264.718c0,0.133-0.053,0.26-0.146,0.354s-0.221,0.146-0.354,0.146c0,0,0,0-0.001,0c0,0-61.879-0.061-104.202-0.061
		c-19.113,0-31.28,0.012-36.195,0.037c0.017,0.4,0.031,0.67,0.043,0.851C4.042,268.962,5.8,268.955,8.095,268.955z M39.078,267.088
		c40.1,0,97.754,0.055,103.703,0.06V2.922L3.363,1.767c-0.06,7.146-0.755,89.458-1.377,160.628
		c0.292,60.444,0.582,95.667,0.862,104.73C7.745,267.1,19.924,267.088,39.078,267.088z M1.387,229.709
		c-0.266,28.995-0.346,35.779-0.374,37.429c0.224-0.002,0.503-0.005,0.835-0.007C1.697,262.21,1.542,249.688,1.387,229.709z
		 M1.393,1c0.012,4.602,0.11,39.878,0.268,83.283C2.057,38.048,2.367,1.258,2.367,1.258C2.368,1.164,2.395,1.075,2.442,1H1.393z
		 M31.52,1l111.262,0.922V1H31.52z"/>
</g>
</svg>
