<?xml version="1.0" encoding="utf-8"?>
<!-- Generator: Adobe Illustrator 16.0.0, SVG Export Plug-In . SVG Version: 6.00 Build 0)  -->
<!DOCTYPE svg PUBLIC "-//W3C//DTD SVG 1.1//EN" "http://www.w3.org/Graphics/SVG/1.1/DTD/svg11.dtd">
<svg version="1.1" id="Ebene_2" xmlns="http://www.w3.org/2000/svg" xmlns:xlink="http://www.w3.org/1999/xlink" x="0px" y="0px"
	 width="145.622px" height="270.938px" viewBox="0 0 145.622 270.938" enable-background="new 0 0 145.622 270.938"
	 xml:space="preserve">
<g>
	<path fill="#EBECEB" d="M144.567,270.535c-0.416,0-24.393-0.28-71.26-0.834l-72.102,0.688c-0.135,0.009-0.263-0.052-0.358-0.146
		c-0.095-0.095-0.148-0.224-0.147-0.357L1.335,156.55L0.409,0.57C0.408,0.436,0.461,0.307,0.556,0.212
		c0.094-0.093,0.221-0.146,0.353-0.146c0.001,0,0.003,0,0.005,0l85.229,0.881l58.339-0.659c0.132,0.01,0.263,0.05,0.357,0.144
		s0.148,0.221,0.148,0.355c0.006,2.524,0.573,252.638,0.079,269.262C145.06,270.32,144.838,270.535,144.567,270.535z
		 M120.218,269.254c13.796,0.161,21.864,0.255,23.862,0.276c0.461-20.047-0.062-255.633-0.091-268.235l-11.595,0.131l10.603,0.109
		c0.274,0.003,0.495,0.226,0.495,0.5l0.125,266.5c0,0.274-0.221,0.497-0.495,0.5L120.218,269.254z M1.85,243.178l-0.146,26.206
		l24.802-0.236l-24.012-0.284c-0.273-0.003-0.493-0.225-0.494-0.497L1.85,243.178z M2.997,267.869l70.311,0.832l69.309-0.661
		L142.492,2.53l-56.35-0.582L3.196,2.884L2.335,156.556L2.997,267.869z M1.412,1.072l0.409,68.856L2.199,2.387
		C2.201,2.114,2.421,1.893,2.693,1.89l37.199-0.42L1.412,1.072z"/>
</g>
</svg>
