<?xml version="1.0" encoding="utf-8"?>
<!-- Generator: Adobe Illustrator 16.0.0, SVG Export Plug-In . SVG Version: 6.00 Build 0)  -->
<!DOCTYPE svg PUBLIC "-//W3C//DTD SVG 1.1//EN" "http://www.w3.org/Graphics/SVG/1.1/DTD/svg11.dtd">
<svg version="1.1" id="Ebene_2" xmlns="http://www.w3.org/2000/svg" xmlns:xlink="http://www.w3.org/1999/xlink" x="0px" y="0px"
	 width="146.938px" height="180.083px" viewBox="0 0 146.938 180.083" enable-background="new 0 0 146.938 180.083"
	 xml:space="preserve">
<g>
	<path fill="#EBECEB" d="M104.249,178.967c-0.013,0-0.025,0-0.038,0c-102.328,0-102.554-0.327-102.793-0.675
		c-0.074-0.106-0.103-0.239-0.083-0.366C1.543,175.17,0.593,4.527,0.583,2.801c-0.001-0.275,0.219-0.5,0.494-0.503L2.563,2.28
		l0-1.276c0-0.134,0.054-0.262,0.148-0.355c0.095-0.094,0.243-0.142,0.357-0.145l73.704,0.854L145.815,0.5
		c0.135,0.013,0.262,0.05,0.357,0.145s0.148,0.223,0.148,0.357c-0.003,1.054-0.271,105.967-0.799,152.493l0.26,24.946
		c0.001,0.133-0.051,0.262-0.145,0.356s-0.222,0.148-0.354,0.148C145.283,178.946,127.397,178.967,104.249,178.967z M62.372,177.94
		c12.228,0.018,26.202,0.026,41.839,0.026c0.011,0,0.026,0,0.038,0c20.878,0,37.472-0.017,40.528-0.02l-0.02-1.814
		C143.104,176.642,99.749,177.434,62.372,177.94z M2.32,177.567c0.098,0.006,0.212,0.012,0.346,0.019
		C2.507,171.427,2.546,43.836,2.562,3.28L1.586,3.292C1.936,65.905,2.478,168.688,2.32,177.567z M3.652,177.295
		c0.75,0.06,3.027,0.129,9.575,0.129c31.135,0,124.66-1.546,130.846-2.146c0.112-1.179,0.272-6.15,0.45-21.784L142.954,3.125
		L76.773,2.358L3.562,3.268C3.555,22.709,3.5,168.855,3.652,177.295z M118.412,1.841l25.043,0.291
		c0.271,0.003,0.491,0.223,0.494,0.495l0.991,95.114c0.238-43.777,0.365-90.824,0.38-96.233L118.412,1.841z M3.563,1.509l0,0.758
		l31.571-0.392L3.563,1.509z"/>
</g>
</svg>
