<?xml version="1.0" encoding="utf-8"?>
<!-- Generator: Adobe Illustrator 16.0.0, SVG Export Plug-In . SVG Version: 6.00 Build 0)  -->
<!DOCTYPE svg PUBLIC "-//W3C//DTD SVG 1.1//EN" "http://www.w3.org/Graphics/SVG/1.1/DTD/svg11.dtd">
<svg version="1.1" id="Ebene_1" xmlns="http://www.w3.org/2000/svg" xmlns:xlink="http://www.w3.org/1999/xlink" x="0px" y="0px"
	 width="669px" height="801.842px" viewBox="0 0 669 801.842" enable-background="new 0 0 669 801.842" xml:space="preserve">
<g id="Ebene_6">
	<path fill="#F7941E" d="M164.167,280.333C137,293,117.333,297.167,117.333,297.167s-2.833,0.667-4.038,0
		c-2.372-0.833-2.628-2-0.962-3.333s0.833-1.333,0-2.167s-4-1.5-2.333-4.167s0.667-3.833-1.5-4.667s-3.333-0.833-2-3.833
		s-0.833-4-2.667-5.333s-0.667-2.333,0.333-3.333s0.167-2.167-4.333-6.5S98.667,255,98.667,255s13.333-14.333,42-20.667
		c4.333,0.5,5.833,2.167,5.667,4.167s-1.667,2.333-1,3s6.167,3.167,3.833,5.5s-2.333,2.5-1,3s4.203-0.556,4.333,3.333
		c0.167,5,5.333,6.667,5.833,8.167s-0.833,3.833,0,5.333s4.088,0.736,3,5c-1.11,4.35-1.668,5.884,1.667,5.446
		C164.788,277.044,166.5,278.279,164.167,280.333z"/>
</g>
<g id="Ebene_7">
	<path d="M78.333,311c0,0-2,1.5,17.667-3.333s76.833-19.833,105.5-39.5c-1.5-1.667-6.167-3.5-12-1s-10,6.167-17.667,9.667
		s-25,13.333-61,21.5C93.5,303.5,75.167,308.667,78.333,311z"/>
	<path d="M140.667,234.333c0,0-3.833-23.333-22.667-104.333c0,0-33.5,3.667-73.333,52.667c0,0,26,16.833,54,72.333
		C111.833,243.167,134.167,235,140.667,234.333z"/>
	<path d="M565.833,433.167c1.334-8.333,4-23.333,1.167-21.167s-7.333,4.5-28.25,51.921c0,0-6.917,15.08-15.75,16.246
		c0,0-17.832,5.001-56.166,5.167s-85.168-0.667-98.334,1.333c-2,0-2.834,1-6.5,0.5c0,0-0.667-1.667-8.5,2.833
		s-73.833,37.833-97.167,57.5c-7.333,5.834-19.167,12.333-23.167,15c0,0-11,9.5-22.833-4.333c0,0-18.333-25.334-26.333-45.167
		c0,0-4.333-8.667-5-15.5s0.5-60,0.333-65c0.167-2.667,2,1.333,4.333,2c0,0,43.609,34.015,46.833,33.167c0,0,0.167,2.166,45.833-35
		c22.167-18,41.892-33.355,46.167-34.333c0,0,16.667-3.333,20.167-7c1.167-1.333-0.501-2.333-0.167-3.5c0,0,0.668-1.667,2.834-3
		s1.832-2.167,0.666-4.833s-3-2-0.833-7s10.832-27.833,13.166-32.5s-1.5-3.667-1.5-3.667s-4-2-16.666,28
		c-0.334,1.333-0.5,2.5-1.167,2.333c-1.833-4.167-7.167-15.5-7-17.333s-2.167-1.167-2.833-0.167s-2,5-0.667,8.667
		c0.479,2.024,0.002,3.924,0.305,5.044c-0.556-1.241-2.298-4.746-5.138-7.044c-1.333,0.333-3.833,4.167-2.167,8.5
		s6.333,15.833,6.333,18.833s0,3.666-2.333,3.333s-12.667-0.5-19.5,1.167c-3.5,1.833-4.667-1.333-4.667-2.5
		c0,0-2.667-7.667,5.167-15.167s7.667-11.833,7.5-14.833s-2.333-4.667-2.833-3.833s-13.333,17-15.333,18.5s-7.333,7-0.833,23.5
		c1,3.333,3,6-3,10.667s-30.167,29.5-55.333,46.333c0,0-4.5,4-8.833,1.333s-20.667-18-28.667-26.667S178.833,405,175.5,394.333
		s-10.167-33.5-9.833-38.667c-0.667-4.167-4.333-7.167-5.5-6.833c-3.333,56.667-4.333,72.167-4.333,85.667
		c0,0-13.5-26.167-14.667-32.333s-4-14.667-3-31c0.667-13.5-1.5-16.5-2.667-18.5c0,0-2.167-5.167-14.5-7.167
		c2.128,2.176,4.417,4.058,4.167,6.333c-0.5,4.556-0.167,13.5,1.667,15s3.5,5.5,0.667,8.167c0,0-13.5-6-20.333-15
		c-2.333-2.333-3.5-4.667-12,0.667s-10,9.667-26.5,18.5c0,0-34.167,19.333-47.5,28c0,0-13,6.834-7,13.667
		c3.5,2.667,8.5,2.667,11.667,2s20.833-6.834,54.667-2.667c15.167,1.833,26.833,3,29.333,6.667s3.452,21.667,2.059,31.333
		s-8.393,24.834-6.059,28c2,2.333,6.5-1.666,7-3c0,0,2.333-3.167,7.167-27.5c0,0,3.167-9.333,2.667-13.167
		c0,0,0.333-1.667,1.667,4.667c18.167,68.667,27,79.334,31.5,91.667s11.169,21.332,11.167,26.999c-0.002,4.836,0.667,7-10.833,13
		S131.5,583.834,122,590s-17.667,27.666-0.333,64.666c0.5-3.333-0.5-8.834-0.333-11.5s-4-39.333,13.5-45.333
		c0,0,1.833-4.001,35.167-7.167s68.167-3.333,77.333-3.333s22.333-3.334,27.667-3.5c7.333-6.5,22.667-22.5,80.333-66.333
		c0,0,10.833-7.871,14.667-9.186c3.834-1.315,41.833-2.148,46-2.314s130.999-2.501,132.666-5.917S555,480.667,556,475.5
		s20.333-39,25-51.5C581,424,581.999,420,565.833,433.167z M100.5,415.834c0-1.999-0.333-2.334-0.333-2.334
		c-1.667-1.667-31.833-2.167-52-4c3.5,0.167,45.333-14.333,45.333-14.333s6.553-2.026,8.5-1.833
		C108.5,395.5,114.167,415,114.167,415C110.167,413.333,102.833,414.333,100.5,415.834z"/>
</g>
<g id="Ebene_8">
	<g>
		<path d="M321.354,430.549c-9.941,0-18.462-1.626-20.631-2.54c-2.787-1.174-3.229-2.725-3.109-3.819
			c0.283-2.62,3.795-3.613,7.189-4.239c6.362-1.172,8.649-2.606,9.414-5.902c4.001-18.091,2.829-49.753,0.481-53.69
			c-3.946-6.666-9.095-17.047-10.632-24.385c-2.972-14.178-3.601-35.306-1.98-66.493c0.027-0.525,0.26-1.019,0.649-1.374
			c5.113-4.671,24.043-3.541,28.418-2.831c3.771,0.612,6.271,1.468,6.222,3.655c-0.005,0.212-0.033,0.408-0.083,0.589
			c0.824,4.059,1.853,47.849-0.578,60.686c-2.008,10.61-7.884,22.526-10.708,28.253c-0.542,1.1-0.982,1.991-1.273,2.625
			c-1.602,3.961-0.324,45.419,1.593,51.571c1.171,3.312,2.882,6.406,10.604,7.103c4.954,0.474,7.444,1.668,7.845,3.767
			c0.302,1.574-0.655,2.939-2.845,4.059c-0.091,0.046-0.185,0.085-0.28,0.117C335.222,429.829,327.972,430.549,321.354,430.549z
			 M302.841,424.523c4.388,1.354,22.822,3.867,36.626-0.328c-0.702-0.168-1.652-0.334-2.906-0.454
			c-9.586-0.863-12.407-5.232-14.028-9.826c-0.777-2.492-1.492-10.292-1.956-19.262c-0.399,7.389-1.2,14.604-2.455,20.277
			c-1.484,6.395-7.033,7.928-12.59,8.95C304.329,424.104,303.462,424.327,302.841,424.523z M305.972,271.843
			c-1.461,29.649-0.816,49.804,2.011,63.309c1.346,6.42,6.069,16.259,10.155,23.162c0.868,1.456,1.55,4.721,2.018,9.073
			c0.151-3.98,0.456-6.905,0.942-7.971c0.301-0.658,0.758-1.584,1.321-2.727c2.746-5.568,8.458-17.154,10.365-27.228
			c2.179-11.516,1.419-49.445,0.748-57.742c-0.29,0.042-0.563,0.073-0.807,0.101C318.165,273.845,309.366,272.573,305.972,271.843z
			 M314.699,268.83c2.643,0.116,5.861,0.109,9.667-0.153C321.284,268.553,317.831,268.59,314.699,268.83z"/>
	</g>
	<g>
		<path d="M319.92,353.262c-2.533,0-4.353-1.201-4.455-1.27c-0.916-0.617-1.158-1.86-0.54-2.776c0.614-0.91,1.847-1.154,2.759-0.551
			c0.104,0.065,1.75,1.072,3.676,0.324c2.313-0.901,6.787-5.766,8.545-9.296c0.492-0.988,1.693-1.391,2.682-0.899
			c0.988,0.493,1.393,1.693,0.898,2.682c-2.024,4.065-7.128,9.861-10.678,11.241C321.787,353.113,320.811,353.262,319.92,353.262z"
			/>
	</g>
	<g>
		<path d="M318.832,426.169c-2.154,0-3.984-0.047-5.15-0.086c-1.104-0.038-1.968-0.963-1.931-2.067
			c0.037-1.104,0.935-1.953,2.067-1.931c9.006,0.306,19.835-0.313,21.63-1.853c0.838-0.721,2.101-0.623,2.818,0.217
			c0.721,0.839,0.622,2.102-0.217,2.82C335.186,425.725,325.468,426.169,318.832,426.169z"/>
	</g>
</g>
<g id="Sessel">
	<g>
		<path d="M134.5,592c-0.608-38.706-16.894-75.151-30.103-110.735c-6.959-18.747-13.311-39.512-26.808-54.771
			c-12.862-14.542-31.324-15.271-48.753-9.404c-1.409,0.474-2.484,2.284-1.494,3.672c29.576,41.458,56.417,86.106,76.174,133.123
			c4.266,10.152,8.082,20.51,11.117,31.101c0.644,2.245,1.224,4.509,1.776,6.777c0.417,1.72,0.452,4.524,1.433,5.999
			c2.232,3.354,4.411,6.745,6.581,10.142c4.318,6.757,8.478,13.571,12.197,20.681c26.817,51.223,37.815,110.541,41.88,167.668
			c0.11,1.542,1.525,2.946,3.165,2.411c3.906-1.276,7.97-2.263,12.085-2.411c1.172-0.043,2.035-0.743,2.411-1.835
			c2.264-6.573,0.211-15.75-0.669-22.294c-4.389-32.633-14.493-64.701-24.471-95.954c-5.414-16.957-11.176-33.802-17.11-50.582
			c-1.067-3.019-5.899-1.718-4.821,1.33c14.797,41.828,29.253,84.289,38.299,127.806c1.857,8.937,3.479,17.973,4.16,27.082
			c0.175,2.342,0.271,4.691,0.226,7.039c-0.016,0.721-0.051,1.439-0.104,2.157c-0.073,0.958-0.103,1.03-0.099,1
			c-0.057,0.361-0.111,0.739-0.231,1.086c0.805-0.611,1.607-1.224,2.411-1.835c-4.562,0.166-9.082,1.174-13.415,2.589
			c1.055,0.804,2.11,1.607,3.165,2.411c-3.375-47.449-11.722-95-28.834-139.533c-8.203-21.349-18.909-40.764-31.412-59.818
			c-2.721-4.147-3.06-10.746-4.475-15.569c-2.212-7.54-4.909-14.937-7.785-22.244c-6.488-16.489-14.202-32.489-22.397-48.188
			c-16.769-32.123-35.895-63.157-56.938-92.654c-0.498,1.224-0.996,2.447-1.494,3.672c9.053-3.047,18.579-4.854,27.977-2.325
			c7.793,2.099,14.05,7.689,18.833,13.982c12.285,16.156,18.108,37.106,25.147,55.852C114.46,522.271,128.938,556.248,129.5,592
			C129.551,595.221,134.551,595.227,134.5,592L134.5,592z"/>
	</g>
	<g>
		<path d="M144.25,627.25c49.57-0.018,99.311-3.702,148.75-6.75c-0.72-1.254-1.439-2.508-2.159-3.762
			c-3.63,6.648-4.746,15.365-6.222,22.636c-6.866,33.813-10.106,68.458-13.165,102.779c-1.392,15.603-2.597,31.222-3.705,46.847
			c-0.077,1.084,0.817,2.15,1.835,2.411c3.622,0.927,13.104,3.536,14.602-1.833c0.272-0.979,0.182-2.108,0.163-3.11
			c-0.092-5.209-0.051-10.403,0.207-15.607c1.575-31.785,7.912-63.412,14.625-94.437c4.313-19.936,9.142-39.759,14.23-59.509
			c0.805-3.125-4.017-4.45-4.821-1.33c-11.181,43.39-21.548,87.326-26.949,131.867c-1.65,13.621-1.922,27.021-2.285,40.679
			c-0.025,1.008-0.095-0.352,0.425-0.554c-2.456,0.96-6.402-0.357-8.864-0.988c0.612,0.804,1.224,1.607,1.835,2.411
			c3.147-44.396,6.665-88.997,13.897-132.949c1.983-12.056,3.656-25.175,8.392-36.567c-0.398,0.958-0.024,0.044,0.12-0.222
			c0.854-1.567-0.191-3.883-2.159-3.762c-49.438,3.048-99.18,6.732-148.75,6.75C141.026,622.251,141.025,627.251,144.25,627.25
			L144.25,627.25z"/>
	</g>
	<g>
		<path d="M304.665,618.661c9.421-2.258,16.409-9.812,10.728-19.285c-8.291-13.827-24.823-18.223-39.728-20.537
			c-3.153-0.489-4.508,4.328-1.329,4.822c12.037,1.869,24.96,4.699,33.572,13.979c3.173,3.418,6.95,8.57,2.843,12.602
			c-1.906,1.87-4.853,2.982-7.416,3.598C300.201,614.591,301.53,619.412,304.665,618.661L304.665,618.661z"/>
	</g>
</g>
<g id="Ebene_4">
	<g>
		<path d="M440.415,514.661c20.276-3.604,40.866-5.791,61.377-7.481c40.873-3.369,82.737-4.186,123.293,2.731
			c3.153,0.537,4.503-4.28,1.33-4.822c-40.612-6.926-82.324-6.25-123.267-3.019c-21.404,1.688-42.909,4.013-64.063,7.769
			C435.914,510.402,437.263,515.221,440.415,514.661L440.415,514.661z"/>
	</g>
	<g>
		<path d="M621.25,518.75c-24.232-1.773-48.577-2.53-72.868-2.745c-20.729-0.183-41.479,0.19-62.165,1.625
			c-17.897,1.242-36.083,3.128-53.415,7.96c-0.573,0.162-1.146,0.328-1.717,0.499c-3.085,0.911-1.771,5.737,1.33,4.822
			c17.42-5.144,35.749-6.986,53.802-8.281c20.681-1.48,41.44-1.786,62.165-1.625c24.289,0.188,48.638,0.972,72.868,2.745
			C624.469,523.985,624.445,518.982,621.25,518.75L621.25,518.75z"/>
	</g>
	<g>
		<path d="M424.75,543c37.657-0.259,76.289,1.143,113.335,8.161c3.151,0.597,4.495-4.222,1.33-4.822
			c-37.499-7.104-76.55-8.601-114.665-8.339C421.527,538.021,421.523,543.021,424.75,543L424.75,543z"/>
	</g>
	<g>
		<path d="M527.835,547.089c-12.504,1.962-25.002,3.963-37.495,5.994c-14.632,2.38-29.914,3.902-44.255,7.756
			c-2.369,0.638-2.409,4.206,0,4.822c5.737,1.467,11.486,2.891,17.25,4.25c0-1.607,0-3.215,0-4.822
			c-11.833,2.917-23.666,5.834-35.5,8.75c-2.788,0.688-2.12,4.869,0.665,4.911c21.917,0.333,43.833,0.667,65.75,1
			c3.227,0.049,3.221-4.951,0-5c-21.917-0.333-43.833-0.667-65.75-1c0.222,1.637,0.443,3.273,0.665,4.911
			c11.833-2.917,23.666-5.834,35.5-8.75c2.376-0.586,2.406-4.254,0-4.822c-5.765-1.358-11.513-2.782-17.25-4.25
			c0,1.607,0,3.215,0,4.822c14.008-3.765,28.929-5.259,43.22-7.588c12.837-2.093,25.683-4.146,38.53-6.162
			C532.343,551.412,530.988,546.595,527.835,547.089L527.835,547.089z"/>
	</g>
	<g>
		<path d="M648.75,534c-15.86,1.808-31.895,3.878-47.415,7.665c-3.131,0.765-1.803,5.586,1.33,4.822
			c15.089-3.685,30.665-5.73,46.085-7.487C651.915,538.64,651.95,533.635,648.75,534L648.75,534z"/>
	</g>
	<g>
		<path d="M637.835,559.339c-15.772,2.153-34.709,4.84-51.585,4.161c-3.239-0.13-3.191,4.796,0,5
			c17.865,1.143,35.82,2.391,53.556,4.896c2.128,0.301,4.257,0.639,6.354,1.112c2.682,0.609,1.623-3.571,0.383-3.102
			c-3.137,1.194-6.56,1.793-9.831,2.481c-19.86,4.193-40.254,7.586-60.46,9.608c-3.177,0.317-3.208,5.321,0,5
			c22.527-2.256,45.674-5.685,67.658-11.115c2.081-0.515,5.788-1.053,7-3.123c2.21-3.771-3.895-4.711-6.1-5.107
			c-19.217-3.468-39.108-4.409-58.561-5.652c0,1.667,0,3.333,0,5c17.562,0.707,35.539-1.968,52.915-4.339
			C642.348,563.727,640.987,558.909,637.835,559.339L637.835,559.339z"/>
	</g>
	<g>
		<path d="M637.335,589.339c-3.521,1.304-7.332,2-10.992,2.767c-14.293,2.985-28.844,4.776-43.343,6.396
			c-3.167,0.354-3.202,5.356,0,5c14.689-1.64,29.4-3.494,43.898-6.416c3.914-0.788,8.005-1.531,11.767-2.923
			C641.661,593.052,640.366,588.218,637.335,589.339L637.335,589.339z"/>
	</g>
	<g>
		<path d="M626.488,604.908c-0.61-0.294-0.907-2.161-0.42-2.612c0.549-0.507-0.016-0.003-0.45,0.222
			c-0.653,0.334-0.261,0.157-1.356,0.525c-2.242,0.754-4.581,1.233-6.896,1.688c-10.101,1.983-20.409,2.97-30.644,3.949
			c-21.609,2.072-43.298,3.388-64.973,4.569c-3.206,0.175-3.225,5.176,0,5c23.062-1.26,46.135-2.675,69.12-4.976
			c10.312-1.032,20.778-2.062,30.901-4.371c2.724-0.622,6.865-1.318,8.513-3.912c0.935-1.477,0.302-3.645-1.272-4.399
			C626.121,599.199,623.584,603.511,626.488,604.908L626.488,604.908z"/>
	</g>
	<g>
		<path d="M444.25,628.75c61.502-5.777,123.727-9.498,185.5-8c0-1.667,0-3.333,0-5c-19.752,1.979-38.229,7.771-57.165,13.339
			c-2.831,0.833-2.069,4.664,0.665,4.911c14.059,1.271,28.163,2.139,42.266,2.75c-0.222-1.637-0.441-3.273-0.664-4.911
			c-29.064,5.609-58.455,10.915-87.017,18.75c-3.104,0.854-1.785,5.677,1.33,4.822c28.562-7.836,57.949-13.142,87.016-18.75
			c2.882-0.558,2.039-4.794-0.665-4.911c-14.103-0.611-28.207-1.479-42.266-2.75c0.222,1.637,0.443,3.273,0.665,4.911
			c18.488-5.438,36.546-11.229,55.835-13.161c3.152-0.314,3.281-4.921,0-5c-61.773-1.498-123.998,2.223-185.5,8
			C441.068,624.049,441.039,629.052,444.25,628.75L444.25,628.75z"/>
	</g>
	<g>
		<path d="M507.589,643.085c0.711-1.75,2.029-1.531-0.329-1.034c-3.365,0.71-7.096,0.903-10.881,1.145
			c-27.37,1.728-54.989,0.878-82.379,0.307c-2.902-0.061-3.297,4.071-0.665,4.911c17.769,5.665,36.458,8.659,54.837,11.554
			c19.35,3.048,38.816,5.548,58.328,7.285c3.213,0.286,3.186-4.717,0-5c-19.57-1.743-39.077-4.284-58.483-7.341
			c-17.885-2.816-36.063-5.81-53.352-11.32c-0.222,1.64-0.443,3.274-0.665,4.911c28.062,0.585,56.404,1.527,84.439-0.443
			c3.224-0.228,12.323,0.414,13.972-3.642C513.624,641.426,508.785,640.139,507.589,643.085L507.589,643.085z"/>
	</g>
	<g>
		<path d="M470.452,656.482c0.562-0.599-0.719,0.412-1.443,0.764c-2.623,1.273-5.804,2.242-8.771,3.146
			c-18.93,5.768-38.692,9.089-58.151,12.447c-2.781,0.48-2.131,5.104,0.665,4.911c34.376-2.336,68.883-3.195,103.316-4.219
			c28.389-0.844,57.033-2.482,85.438-1.635c0.581,0.018,1.165,0.036,1.743,0.104c3.201,0.362,3.166-4.643,0-5
			c-8.2-0.93-16.878-0.112-25.102,0.021c-17.152,0.281-34.306,0.723-51.452,1.201c-35.934,1.008-71.897,2.021-107.784,4.135
			c-2.055,0.121-4.108,0.253-6.162,0.393c0.222,1.637,0.443,3.273,0.665,4.911c19.854-3.429,40.009-6.834,59.298-12.8
			c3.368-1.042,8.697-2.108,11.274-4.844C476.196,657.674,472.667,654.131,470.452,656.482L470.452,656.482z"/>
	</g>
	<g>
		<path d="M436.415,690.911c10.634-3.787,22.452-5.195,33.552-6.738c40.012-5.562,80.762-6.298,121.09-5.958
			c12.396,0.104,24.785,0.391,37.174,0.785c3.227,0.104,3.217-4.896,0-5c-47.242-1.507-94.793-1.578-141.867,3.223
			c-16.615,1.694-33.767,3.6-49.835,8.407c-0.482,0.146-0.968,0.29-1.441,0.459C432.07,687.163,433.369,691.995,436.415,690.911
			L436.415,690.911z"/>
	</g>
	<g>
		<path d="M514.75,687.5c-12.909,1.662-25.812,3.37-38.711,5.107c-16.362,2.203-33.029,3.852-49.204,7.229
			c-2.954,0.618-1.959,4.654,0.665,4.911c17.023,1.663,34.016,3.718,51,5.75c3.197,0.383,3.16-4.622,0-5
			c-16.984-2.032-33.977-4.087-51-5.75c0.222,1.637,0.443,3.271,0.665,4.911c15.475-3.234,31.412-4.825,47.065-6.943
			c13.168-1.78,26.341-3.521,39.52-5.218C517.902,692.094,517.941,687.089,514.75,687.5L514.75,687.5z"/>
	</g>
	<g>
		<path d="M516.25,701.5c16.008-1.551,32.094-2.485,48.162-3.083c13.744-0.511,27.512-0.665,41.257-0.131
			c11.586,0.45,23.454,1.229,34.666,4.375c0-1.607,0-3.215,0-4.822c-9.959,3.104-20.869,3.972-31.179,5.099
			c-16.478,1.803-33.081,2.768-49.656,2.562c-3.227-0.039-3.222,4.961,0,5c16.586,0.203,33.167-0.814,49.656-2.562
			c10.731-1.138,22.146-2.049,32.509-5.274c2.336-0.729,2.434-4.14,0-4.822c-23.812-6.68-50.438-5.301-74.884-4.505
			c-16.857,0.55-33.741,1.54-50.531,3.166C513.07,696.808,513.041,701.811,516.25,701.5L516.25,701.5z"/>
	</g>
	<g>
		<path d="M451.75,726c24.51-2.513,49.038-4.857,73.58-7.027c16.221-1.434,32.454-2.83,48.712-3.764
			c15.616-0.896,31.173-0.435,46.783-1.895c8.131-0.763,16.256-1.704,24.34-2.87c-0.443-1.607-0.887-3.216-1.33-4.822
			c-31.433,9.202-63.409,17.899-95.75,23.217c-3.176,0.522-1.823,5.34,1.33,4.822c32.34-5.316,64.315-14.015,95.75-23.217
			c3.179-0.934,1.774-5.271-1.33-4.822c-29.634,4.276-59.396,3.643-89.173,5.911c-31.695,2.415-63.345,5.493-94.973,8.664
			c-2.646,0.266-5.293,0.531-7.939,0.803C448.575,721.325,448.543,726.329,451.75,726L451.75,726z"/>
	</g>
	<g>
		<path d="M493.415,744.839c-27.218-6.776-54.411-13.729-81.75-20c-0.222,1.638-0.443,3.274-0.665,4.911
			c25.622,1.276,51.419,3.105,76.827,6.742c9.832,1.406,19.534,2.41,29.479,2.725c8.399,0.266,17.534,0.979,25.859-0.556
			c-0.812-1.396-1.622-2.786-2.433-4.179c-1.59,1.705-4.787,4.994-1.375,6.933c3.062,1.737,7.298,1.089,10.737,1.075
			c9.433-0.036,18.861-0.101,28.292-0.157c17.037-0.104,34.074-0.217,51.111-0.333c3.243-0.021,3.199-4.827,0-5
			c-4.506-0.244-9.221,0.703-13.619,1.51c-15.035,2.759-29.631,7.955-43.796,13.579c-2.959,1.176-1.67,6.013,1.33,4.822
			c13.938-5.534,28.207-10.507,42.947-13.418c4.23-0.836,8.789-1.729,13.138-1.493c0-1.667,0-3.333,0-5
			c-13.877,0.095-27.753,0.186-41.63,0.273c-9.729,0.062-19.457,0.12-29.187,0.176c-3.186,0.017-6.369,0.033-9.557,0.045
			c-0.834,0.003-1.669,0.006-2.504,0.006c-1.034,0.006-2.066-0.024-3.098-0.09c-1.716-0.628-1.968,0.081-0.756,2.126
			c0.461-0.535,1.014-1,1.494-1.521c1.786-1.918-0.009-4.625-2.433-4.179c-7.842,1.446-16.617,0.598-24.529,0.378
			c-10.167-0.283-20.067-1.425-30.119-2.824c-25.217-3.511-50.771-5.376-76.187-6.643c-2.821-0.143-3.407,4.281-0.665,4.911
			c27.34,6.269,54.533,13.223,81.75,20C495.215,750.439,496.542,745.618,493.415,744.839L493.415,744.839z"/>
	</g>
	<g>
		<path d="M569.915,755.339c-5.943-0.938-12.196-0.649-18.179-0.624c-27.185,0.118-54.381,1.928-81.486,3.785
			c-3.198,0.219-3.22,5.221,0,5c26.661-1.827,53.391-3.544,80.123-3.776c4.914-0.043,9.835-0.027,14.744,0.205
			c1.054,0.05,2.105,0.115,3.156,0.211c0.551,0.052,1.222,0.165,0.312,0.021C571.738,760.659,573.093,755.842,569.915,755.339
			L569.915,755.339z"/>
	</g>
	<g>
		<path d="M503.5,751c-9.279-0.92-18.862-0.151-28.091,0.846c-23.472,2.537-46.299,9.115-67.921,18.496
			c1.01,1.311,2.02,2.617,3.027,3.926c-0.778,0.754,0.908-0.426,0.887-0.416c2.277-0.923,4.754-1.382,7.169-1.782
			c14.348-2.396,29.519-1.279,43.929-0.317c3.221,0.215,3.199-4.786,0-5c-14.974-0.999-30.357-1.841-45.259,0.495
			c-3.179,0.499-7.785,1.1-10.259,3.485c-2.199,2.121,0.58,4.988,3.027,3.928c21.165-9.184,43.615-15.458,66.574-17.939
			c8.831-0.954,18.037-1.599,26.914-0.719C506.708,756.318,506.678,751.314,503.5,751L503.5,751z"/>
	</g>
	<g>
		<path d="M478.165,775.911c12.134-3.633,25.31-4.769,37.842-5.953c41.989-3.971,84.479-2.761,126.493,0.042c0-1.667,0-3.333,0-5
			c-4.729,0.496-9.419,1.712-14.014,2.881c-16.387,4.17-32.377,9.923-48.151,15.958c-2.979,1.142-1.687,5.979,1.33,4.822
			c15.263-5.841,30.707-11.327,46.51-15.532c3.706-0.984,7.44-1.879,11.207-2.604c0.916-0.179,1.836-0.336,2.759-0.479
			c0.79-0.12-0.391,0.03,0.359-0.048c3.176-0.333,3.261-4.782,0-5c-42.331-2.823-85.08-3.958-127.379,0.042
			c-12.668,1.198-26.021,2.376-38.286,6.047C473.755,772.012,475.067,776.838,478.165,775.911L478.165,775.911z"/>
	</g>
	<g>
		<path d="M625.5,788.5c-20.542-2.212-41.238-3.333-61.875-4.125c-42.604-1.635-85.52-1.096-127.875,4.125
			c-3.157,0.389-3.195,5.395,0,5c42.37-5.223,85.258-5.706,127.875-4.125c20.636,0.766,41.336,1.913,61.875,4.125
			C628.704,793.845,628.671,788.842,625.5,788.5L625.5,788.5z"/>
	</g>
	<g>
		<path d="M448.5,775c-22.232,2.961-44.604,5.637-66.665,9.7c-2.848,0.523-2.074,4.874,0.665,4.911
			c9.178,0.124,18.3,0.983,27.406,2.09c5.348,0.648,10.937,1.936,16.344,1.799c3.219-0.081,3.227-5.081,0-5
			c-5.403,0.137-11.002-1.136-16.344-1.799c-9.102-1.129-18.233-1.966-27.406-2.09c0.222,1.637,0.443,3.271,0.665,4.91
			c21.623-3.982,43.545-6.619,65.335-9.521C451.646,779.581,451.688,774.575,448.5,775L448.5,775z"/>
	</g>
</g>
<g id="Ebene_10">
	<g>
		<path fill="#0094AC" d="M336.352,154.812c0,0.661,0.146,1.264,0.436,1.808c0.287,0.544,0.666,1.008,1.135,1.392
			c0.469,0.384,1.016,0.683,1.633,0.896c0.619,0.214,1.26,0.32,1.92,0.32c0.896,0,1.676-0.208,2.338-0.624
			c0.658-0.416,1.27-0.965,1.822-1.648l2.178,1.664c-1.602,2.07-3.842,3.104-6.723,3.104c-1.193,0-2.275-0.203-3.248-0.608
			c-0.971-0.405-1.791-0.965-2.463-1.68s-1.188-1.557-1.553-2.528c-0.363-0.97-0.543-2.021-0.543-3.152
			c0-1.13,0.193-2.181,0.592-3.152c0.396-0.971,0.938-1.813,1.631-2.528c0.693-0.714,1.521-1.274,2.479-1.68
			c0.962-0.405,2.007-0.608,3.138-0.608c1.344,0,2.479,0.235,3.408,0.704c0.928,0.47,1.688,1.083,2.286,1.84s1.028,1.611,1.298,2.56
			c0.266,0.95,0.396,1.915,0.396,2.896v1.024H336.352z M345.441,152.507c-0.021-0.64-0.123-1.227-0.307-1.76
			c-0.182-0.533-0.453-0.997-0.814-1.392c-0.363-0.395-0.816-0.704-1.359-0.928c-0.545-0.224-1.18-0.336-1.904-0.336
			c-0.705,0-1.35,0.134-1.936,0.4c-0.588,0.267-1.084,0.614-1.488,1.04c-0.406,0.427-0.721,0.901-0.941,1.424
			c-0.227,0.523-0.34,1.04-0.34,1.552H345.441z"/>
		<path fill="#0094AC" d="M351.969,146.171h2.879v2.336h0.064c0.363-0.811,0.992-1.466,1.889-1.968
			c0.896-0.501,1.93-0.752,3.104-0.752c0.725,0,1.424,0.112,2.096,0.336s1.26,0.571,1.76,1.04c0.502,0.469,0.902,1.072,1.201,1.808
			c0.299,0.736,0.447,1.605,0.447,2.608v9.76h-2.879v-8.96c0-0.704-0.1-1.307-0.289-1.808c-0.191-0.501-0.447-0.906-0.77-1.216
			c-0.318-0.309-0.688-0.533-1.104-0.672s-0.851-0.208-1.297-0.208c-0.6,0-1.152,0.096-1.664,0.288
			c-0.513,0.192-0.959,0.496-1.345,0.912s-0.685,0.944-0.896,1.584c-0.212,0.64-0.32,1.397-0.32,2.272v7.808h-2.879L351.969,146.171
			L351.969,146.171z"/>
		<path fill="#0094AC" d="M372.865,146.171v17.344c0,0.384-0.027,0.891-0.08,1.52c-0.055,0.629-0.225,1.237-0.512,1.824
			c-0.289,0.586-0.748,1.093-1.377,1.52c-0.631,0.426-1.521,0.64-2.674,0.64c-0.318,0-0.635-0.021-0.941-0.064
			c-0.312-0.043-0.613-0.118-0.912-0.224l0.318-2.656c0.172,0.064,0.361,0.123,0.574,0.176c0.217,0.053,0.416,0.08,0.609,0.08
			c0.789,0,1.338-0.251,1.646-0.752c0.312-0.502,0.466-1.232,0.466-2.192v-17.216H372.865z M369.312,140.731
			c0-0.576,0.207-1.072,0.623-1.488s0.91-0.624,1.486-0.624s1.072,0.208,1.488,0.624s0.625,0.912,0.625,1.488
			c0,0.576-0.209,1.072-0.625,1.488s-0.912,0.624-1.488,0.624s-1.072-0.208-1.486-0.624
			C369.52,141.803,369.312,141.307,369.312,140.731z"/>
		<path fill="#0094AC" d="M376.705,153.755c0-1.109,0.207-2.144,0.623-3.104s0.986-1.803,1.713-2.528
			c0.725-0.725,1.578-1.296,2.559-1.712c0.982-0.416,2.037-0.624,3.168-0.624c1.133,0,2.188,0.208,3.168,0.624
			c0.982,0.416,1.838,0.987,2.562,1.712s1.297,1.568,1.713,2.528s0.623,1.995,0.623,3.104c0,1.109-0.207,2.149-0.623,3.12
			s-0.986,1.813-1.713,2.528c-0.725,0.715-1.578,1.28-2.562,1.696c-0.979,0.416-2.035,0.624-3.168,0.624
			c-1.131,0-2.186-0.208-3.168-0.624c-0.979-0.416-1.834-0.981-2.559-1.696c-0.727-0.714-1.297-1.557-1.713-2.528
			S376.705,154.865,376.705,153.755z M379.775,153.755c0,0.768,0.117,1.478,0.354,2.128c0.234,0.651,0.564,1.206,0.992,1.664
			c0.426,0.459,0.947,0.821,1.566,1.088c0.617,0.267,1.312,0.4,2.08,0.4c0.77,0,1.461-0.133,2.078-0.4
			c0.619-0.267,1.143-0.629,1.568-1.088c0.426-0.458,0.758-1.013,0.992-1.664c0.232-0.65,0.352-1.36,0.352-2.128
			c0-0.768-0.116-1.477-0.352-2.128c-0.234-0.65-0.566-1.205-0.992-1.664c-0.428-0.458-0.949-0.821-1.568-1.088
			c-0.617-0.267-1.311-0.4-2.078-0.4c-0.769,0-1.463,0.133-2.08,0.4c-0.619,0.267-1.143,0.629-1.566,1.088
			c-0.428,0.459-0.758,1.014-0.992,1.664C379.893,152.278,379.775,152.987,379.775,153.755z"/>
		<path fill="#0094AC" d="M394.656,146.171h3.328l4.488,11.84h0.064l4.309-11.84h3.072l-7.199,18.432
			c-0.256,0.661-0.521,1.264-0.797,1.808c-0.275,0.544-0.604,1.008-0.986,1.392c-0.385,0.384-0.846,0.683-1.389,0.896
			c-0.541,0.213-1.205,0.32-1.99,0.32c-0.426,0-0.855-0.027-1.291-0.08c-0.438-0.054-0.854-0.166-1.26-0.336l0.352-2.624
			c0.57,0.234,1.145,0.352,1.717,0.352c0.445,0,0.822-0.059,1.129-0.176c0.307-0.117,0.572-0.288,0.795-0.512
			s0.408-0.486,0.557-0.784c0.148-0.299,0.297-0.64,0.445-1.024l0.932-2.4L394.656,146.171z"/>
	</g>
	<g>
		<path fill="#0094AC" d="M356.757,188.022h2.88v11.36h0.064c0.361-0.811,0.992-1.466,1.888-1.968
			c0.896-0.501,1.931-0.752,3.104-0.752c0.725,0,1.424,0.112,2.096,0.336s1.258,0.571,1.76,1.04c0.502,0.469,0.901,1.072,1.2,1.808
			c0.298,0.736,0.448,1.605,0.448,2.608v9.76h-2.88v-8.96c0-0.704-0.097-1.307-0.288-1.808c-0.192-0.501-0.448-0.906-0.769-1.216
			c-0.319-0.309-0.688-0.533-1.104-0.672s-0.849-0.208-1.296-0.208c-0.598,0-1.152,0.096-1.664,0.288
			c-0.512,0.192-0.96,0.496-1.344,0.912c-0.385,0.416-0.684,0.944-0.896,1.584c-0.213,0.64-0.32,1.397-0.32,2.272v7.808h-2.88
			V188.022z"/>
		<path fill="#0094AC" d="M374.613,198.901c0.81-0.747,1.749-1.307,2.815-1.68c1.065-0.373,2.134-0.56,3.199-0.56
			c1.109,0,2.063,0.139,2.864,0.416c0.8,0.278,1.456,0.651,1.968,1.12c0.512,0.47,0.891,1.008,1.137,1.616
			c0.244,0.608,0.367,1.243,0.367,1.904v7.744c0,0.534,0.013,1.024,0.032,1.472c0.021,0.448,0.053,0.875,0.096,1.28h-2.56
			c-0.064-0.768-0.097-1.536-0.097-2.304h-0.063c-0.642,0.982-1.396,1.675-2.271,2.08c-0.875,0.405-1.889,0.608-3.041,0.608
			c-0.702,0-1.375-0.096-2.016-0.288c-0.64-0.192-1.199-0.48-1.68-0.864c-0.48-0.384-0.859-0.858-1.138-1.424
			c-0.275-0.565-0.416-1.221-0.416-1.968c0-0.98,0.221-1.802,0.656-2.464c0.438-0.661,1.034-1.2,1.793-1.616
			c0.756-0.416,1.643-0.714,2.655-0.896c1.013-0.181,2.097-0.272,3.248-0.272h2.112v-0.64c0-0.384-0.075-0.768-0.226-1.152
			c-0.148-0.384-0.373-0.729-0.672-1.04c-0.299-0.309-0.672-0.554-1.119-0.736c-0.448-0.181-0.98-0.272-1.601-0.272
			c-0.557,0-1.04,0.054-1.456,0.16c-0.416,0.107-0.795,0.24-1.136,0.4c-0.342,0.16-0.651,0.347-0.93,0.56
			c-0.275,0.213-0.543,0.416-0.8,0.608L374.613,198.901z M382.741,204.918c-0.683,0-1.382,0.038-2.097,0.112
			c-0.716,0.075-1.364,0.219-1.951,0.432c-0.588,0.213-1.067,0.512-1.44,0.896c-0.374,0.384-0.56,0.875-0.56,1.472
			c0,0.875,0.293,1.504,0.88,1.888c0.586,0.384,1.381,0.576,2.384,0.576c0.789,0,1.461-0.133,2.016-0.4
			c0.556-0.267,1.002-0.613,1.345-1.04s0.587-0.901,0.735-1.424c0.149-0.521,0.226-1.04,0.226-1.552v-0.96H382.741z"/>
		<path fill="#0094AC" d="M389.333,197.045h3.328l4.544,11.616l4.352-11.616h3.072l-5.952,15.168h-3.168L389.333,197.045z"/>
		<path fill="#0094AC" d="M409.333,205.686c0,0.661,0.144,1.264,0.433,1.808c0.287,0.544,0.666,1.008,1.137,1.392
			c0.469,0.384,1.013,0.683,1.632,0.896c0.619,0.214,1.259,0.32,1.92,0.32c0.896,0,1.674-0.208,2.336-0.624
			c0.661-0.416,1.271-0.965,1.824-1.648l2.176,1.664c-1.601,2.07-3.84,3.104-6.72,3.104c-1.195,0-2.277-0.203-3.248-0.607
			c-0.973-0.405-1.792-0.965-2.464-1.68c-0.673-0.715-1.189-1.557-1.554-2.528c-0.362-0.97-0.543-2.021-0.543-3.152
			c0-1.13,0.196-2.181,0.592-3.152s0.938-1.813,1.633-2.528c0.691-0.714,1.52-1.274,2.479-1.68c0.96-0.406,2.006-0.608,3.137-0.608
			c1.345,0,2.479,0.235,3.407,0.704c0.929,0.47,1.69,1.083,2.288,1.84s1.029,1.611,1.296,2.56c0.269,0.95,0.4,1.915,0.4,2.896v1.024
			L409.333,205.686L409.333,205.686z M418.421,203.381c-0.021-0.64-0.123-1.227-0.304-1.76c-0.182-0.533-0.454-0.997-0.816-1.392
			c-0.363-0.395-0.814-0.704-1.358-0.928c-0.546-0.224-1.181-0.336-1.904-0.336c-0.704,0-1.351,0.134-1.937,0.4
			c-0.588,0.267-1.084,0.614-1.487,1.04c-0.405,0.427-0.722,0.901-0.944,1.424c-0.224,0.523-0.336,1.04-0.336,1.552H418.421z"/>
		<path fill="#0094AC" d="M433.396,191.606c0-0.576,0.209-1.072,0.625-1.488s0.911-0.624,1.486-0.624
			c0.576,0,1.072,0.208,1.488,0.624s0.624,0.912,0.624,1.488c0,0.576-0.208,1.072-0.624,1.488s-0.912,0.624-1.488,0.624
			c-0.575,0-1.07-0.208-1.486-0.624S433.396,192.181,433.396,191.606z M434.069,197.045h2.88v15.168h-2.88V197.045z"/>
		<path fill="#0094AC" d="M456.725,212.213h-2.879v-2.175h-0.063c-0.556,0.811-1.318,1.44-2.288,1.888
			c-0.973,0.448-1.969,0.672-2.992,0.672c-1.173,0-2.235-0.203-3.186-0.607c-0.947-0.405-1.76-0.97-2.432-1.696
			c-0.672-0.725-1.188-1.568-1.552-2.528c-0.362-0.96-0.544-2.005-0.544-3.136c0-1.13,0.182-2.181,0.544-3.152
			s0.88-1.813,1.552-2.528c0.672-0.714,1.482-1.274,2.432-1.68c0.951-0.406,2.013-0.608,3.186-0.608
			c1.088,0,2.112,0.229,3.072,0.688s1.695,1.083,2.208,1.872h0.063v-11.2h2.879V212.213z M448.852,209.909
			c0.77,0,1.461-0.133,2.08-0.4c0.619-0.267,1.143-0.629,1.568-1.088c0.428-0.458,0.757-1.013,0.992-1.664
			c0.234-0.65,0.352-1.36,0.352-2.128s-0.117-1.477-0.352-2.128c-0.235-0.65-0.565-1.205-0.992-1.664
			c-0.427-0.458-0.949-0.821-1.568-1.088s-1.312-0.4-2.08-0.4c-0.768,0-1.461,0.133-2.08,0.4c-0.617,0.267-1.141,0.629-1.566,1.088
			s-0.757,1.014-0.992,1.664c-0.234,0.651-0.352,1.36-0.352,2.128s0.115,1.478,0.352,2.128c0.235,0.651,0.565,1.206,0.992,1.664
			c0.427,0.459,0.949,0.821,1.566,1.088C447.391,209.776,448.084,209.909,448.852,209.909z"/>
		<path fill="#0094AC" d="M463.252,205.686c0,0.661,0.145,1.264,0.432,1.808c0.289,0.544,0.668,1.008,1.138,1.392
			c0.469,0.384,1.013,0.683,1.632,0.896c0.619,0.214,1.259,0.32,1.92,0.32c0.896,0,1.674-0.208,2.336-0.624
			c0.661-0.416,1.27-0.965,1.824-1.648l2.176,1.664c-1.601,2.07-3.84,3.104-6.72,3.104c-1.195,0-2.277-0.203-3.248-0.607
			c-0.972-0.405-1.792-0.965-2.464-1.68c-0.673-0.715-1.189-1.557-1.553-2.528c-0.362-0.97-0.545-2.021-0.545-3.152
			c0-1.13,0.197-2.181,0.593-3.152s0.938-1.813,1.633-2.528c0.692-0.714,1.52-1.274,2.479-1.68c0.96-0.406,2.005-0.608,3.136-0.608
			c1.346,0,2.48,0.235,3.408,0.704c0.929,0.47,1.69,1.083,2.288,1.84s1.029,1.611,1.296,2.56c0.269,0.95,0.4,1.915,0.4,2.896v1.024
			L463.252,205.686L463.252,205.686z M472.34,203.381c-0.021-0.64-0.123-1.227-0.304-1.76c-0.183-0.533-0.454-0.997-0.815-1.392
			c-0.362-0.395-0.815-0.704-1.359-0.928c-0.544-0.224-1.18-0.336-1.904-0.336c-0.704,0-1.352,0.134-1.938,0.4
			c-0.586,0.266-1.082,0.614-1.486,1.04c-0.405,0.427-0.721,0.901-0.944,1.424s-0.336,1.04-0.336,1.552H472.34z"/>
		<path fill="#0094AC" d="M478.934,198.901c0.811-0.747,1.748-1.307,2.815-1.68c1.065-0.373,2.133-0.56,3.2-0.56
			c1.109,0,2.063,0.139,2.863,0.416c0.801,0.278,1.457,0.651,1.969,1.12c0.512,0.47,0.891,1.008,1.136,1.616
			s0.368,1.243,0.368,1.904v7.744c0,0.534,0.011,1.024,0.031,1.472c0.021,0.448,0.054,0.875,0.097,1.28h-2.56
			c-0.064-0.768-0.098-1.536-0.098-2.304h-0.062c-0.642,0.982-1.397,1.675-2.272,2.08c-0.875,0.405-1.888,0.608-3.04,0.608
			c-0.704,0-1.376-0.096-2.016-0.288c-0.641-0.192-1.2-0.48-1.68-0.864c-0.48-0.384-0.859-0.858-1.138-1.424
			c-0.276-0.565-0.416-1.221-0.416-1.968c0-0.98,0.22-1.802,0.656-2.464c0.438-0.661,1.034-1.2,1.792-1.616
			c0.757-0.416,1.642-0.714,2.656-0.896c1.013-0.181,2.096-0.272,3.248-0.272h2.111v-0.64c0-0.384-0.076-0.768-0.225-1.152
			c-0.15-0.384-0.374-0.729-0.672-1.04c-0.299-0.309-0.672-0.554-1.12-0.736c-0.448-0.181-0.981-0.272-1.601-0.272
			c-0.556,0-1.039,0.054-1.455,0.16c-0.416,0.107-0.795,0.24-1.138,0.4c-0.341,0.16-0.649,0.347-0.928,0.56s-0.544,0.416-0.8,0.608
			L478.934,198.901z M487.061,204.918c-0.684,0-1.383,0.038-2.097,0.112c-0.715,0.075-1.364,0.219-1.952,0.432
			c-0.587,0.213-1.065,0.512-1.438,0.896c-0.374,0.384-0.562,0.875-0.562,1.472c0,0.875,0.293,1.504,0.881,1.888
			c0.586,0.384,1.381,0.576,2.385,0.576c0.787,0,1.461-0.133,2.016-0.4c0.554-0.267,1.002-0.613,1.345-1.04
			c0.342-0.427,0.586-0.901,0.735-1.424c0.148-0.521,0.224-1.04,0.224-1.552v-0.96H487.061z"/>
		<path fill="#0094AC" d="M503.54,200.854c-0.342-0.427-0.763-0.784-1.264-1.072s-1.115-0.432-1.841-0.432
			c-0.684,0-1.274,0.144-1.775,0.432c-0.501,0.288-0.752,0.709-0.752,1.264c0,0.448,0.144,0.811,0.432,1.088
			c0.288,0.277,0.629,0.501,1.024,0.672c0.395,0.171,0.814,0.299,1.264,0.384s0.832,0.16,1.152,0.224
			c0.618,0.149,1.2,0.331,1.743,0.544c0.545,0.213,1.014,0.491,1.407,0.832c0.396,0.341,0.705,0.757,0.929,1.248
			c0.225,0.491,0.337,1.088,0.337,1.792c0,0.854-0.184,1.584-0.544,2.192c-0.363,0.608-0.832,1.104-1.408,1.488
			c-0.576,0.384-1.232,0.662-1.969,0.832c-0.735,0.17-1.479,0.256-2.225,0.256c-1.259,0-2.361-0.192-3.312-0.576
			c-0.949-0.384-1.798-1.088-2.544-2.112l2.176-1.792c0.469,0.47,0.992,0.886,1.566,1.248c0.576,0.363,1.281,0.544,2.112,0.544
			c0.362,0,0.73-0.037,1.104-0.112c0.373-0.075,0.703-0.192,0.992-0.352c0.286-0.16,0.521-0.362,0.702-0.608
			c0.183-0.245,0.272-0.528,0.272-0.848c0-0.426-0.134-0.778-0.399-1.056c-0.267-0.278-0.588-0.496-0.961-0.656
			c-0.373-0.16-0.768-0.288-1.184-0.384s-0.784-0.176-1.104-0.24c-0.619-0.149-1.205-0.32-1.761-0.512
			c-0.555-0.192-1.045-0.448-1.472-0.768c-0.428-0.32-0.769-0.725-1.023-1.216c-0.257-0.49-0.385-1.098-0.385-1.824
			c0-0.789,0.165-1.477,0.496-2.064c0.33-0.586,0.768-1.072,1.312-1.456c0.543-0.384,1.162-0.672,1.855-0.864
			c0.692-0.192,1.393-0.288,2.096-0.288c1.024,0,2.006,0.192,2.944,0.576c0.938,0.384,1.685,1.023,2.24,1.92L503.54,200.854z"/>
	</g>
	<g>
		<path fill="#0094AC" d="M413.758,235.135h2.88v24.192h-2.88V235.135z"/>
		<path fill="#0094AC" d="M423.389,252.801c0,0.661,0.146,1.265,0.434,1.809c0.287,0.544,0.666,1.008,1.136,1.392
			c0.469,0.384,1.014,0.685,1.633,0.896s1.259,0.319,1.92,0.319c0.896,0,1.675-0.209,2.336-0.625
			c0.66-0.416,1.271-0.965,1.824-1.646l2.176,1.664c-1.601,2.068-3.84,3.104-6.721,3.104c-1.194,0-2.276-0.203-3.248-0.606
			c-0.971-0.405-1.791-0.966-2.463-1.681c-0.673-0.715-1.189-1.558-1.553-2.527c-0.363-0.971-0.544-2.021-0.544-3.152
			s0.195-2.181,0.592-3.151c0.396-0.97,0.938-1.812,1.632-2.527c0.694-0.715,1.521-1.274,2.479-1.681
			c0.961-0.404,2.006-0.607,3.137-0.607c1.345,0,2.479,0.234,3.408,0.704c0.928,0.469,1.689,1.083,2.287,1.84
			c0.598,0.757,1.027,1.61,1.297,2.56c0.267,0.95,0.398,1.916,0.398,2.896v1.022h-12.16V252.801z M432.479,250.496
			c-0.021-0.64-0.123-1.227-0.307-1.76c-0.182-0.533-0.452-0.997-0.814-1.393c-0.362-0.396-0.815-0.704-1.358-0.929
			c-0.545-0.224-1.18-0.336-1.904-0.336c-0.704,0-1.351,0.134-1.937,0.4c-0.587,0.267-1.083,0.612-1.487,1.04
			c-0.405,0.427-0.721,0.9-0.942,1.424c-0.226,0.521-0.338,1.04-0.338,1.552L432.479,250.496L432.479,250.496z"/>
		<path fill="#0094AC" d="M439.069,246.017c0.812-0.747,1.749-1.308,2.814-1.682c1.065-0.373,2.134-0.56,3.199-0.56
			c1.108,0,2.063,0.139,2.864,0.416c0.8,0.277,1.456,0.65,1.968,1.12c0.513,0.469,0.892,1.008,1.137,1.614
			c0.244,0.608,0.367,1.243,0.367,1.904v7.744c0,0.533,0.012,1.023,0.032,1.472s0.054,0.875,0.097,1.28h-2.561
			c-0.064-0.768-0.097-1.536-0.097-2.304h-0.063c-0.64,0.98-1.396,1.675-2.271,2.08c-0.875,0.403-1.889,0.606-3.039,0.606
			c-0.704,0-1.377-0.096-2.018-0.288c-0.64-0.19-1.199-0.479-1.68-0.862c-0.48-0.385-0.859-0.859-1.137-1.426
			c-0.277-0.563-0.416-1.221-0.416-1.968c0-0.979,0.219-1.803,0.655-2.464c0.438-0.661,1.035-1.2,1.791-1.616
			c0.758-0.416,1.645-0.714,2.656-0.896c1.014-0.182,2.096-0.272,3.248-0.272h2.111v-0.64c0-0.384-0.074-0.77-0.226-1.152
			c-0.149-0.383-0.373-0.729-0.672-1.04c-0.299-0.309-0.672-0.555-1.119-0.734c-0.447-0.183-0.981-0.272-1.601-0.272
			c-0.556,0-1.04,0.055-1.456,0.16c-0.416,0.104-0.795,0.24-1.136,0.398c-0.343,0.159-0.651,0.348-0.93,0.562
			c-0.277,0.214-0.545,0.416-0.801,0.608L439.069,246.017z M447.197,252.032c-0.685,0-1.383,0.037-2.096,0.112
			c-0.718,0.074-1.366,0.219-1.953,0.432c-0.586,0.214-1.066,0.512-1.439,0.896c-0.373,0.384-0.561,0.875-0.561,1.473
			c0,0.875,0.294,1.504,0.881,1.888c0.586,0.384,1.381,0.576,2.384,0.576c0.789,0,1.461-0.133,2.017-0.399
			c0.556-0.268,1.003-0.612,1.346-1.041c0.341-0.426,0.586-0.898,0.734-1.424c0.148-0.521,0.225-1.039,0.225-1.552v-0.96
			L447.197,252.032L447.197,252.032z"/>
		<path fill="#0094AC" d="M455.613,244.16h2.88v2.336h0.063c0.19-0.404,0.448-0.772,0.769-1.104c0.319-0.331,0.679-0.613,1.071-0.85
			c0.396-0.233,0.826-0.421,1.297-0.56c0.469-0.14,0.938-0.208,1.408-0.208c0.469,0,0.896,0.062,1.279,0.191l-0.128,3.104
			c-0.235-0.064-0.471-0.117-0.704-0.16c-0.234-0.043-0.47-0.064-0.703-0.064c-1.408,0-2.485,0.396-3.232,1.187
			c-0.746,0.789-1.119,2.016-1.119,3.68v7.616h-2.881V244.16L455.613,244.16z"/>
		<path fill="#0094AC" d="M467.453,244.16h2.881v2.336h0.062c0.362-0.811,0.991-1.467,1.889-1.968
			c0.896-0.501,1.932-0.752,3.104-0.752c0.727,0,1.426,0.11,2.098,0.336c0.672,0.224,1.259,0.571,1.76,1.04
			c0.501,0.47,0.9,1.072,1.2,1.808c0.299,0.736,0.446,1.605,0.446,2.608v9.76h-2.879v-8.96c0-0.704-0.098-1.307-0.289-1.808
			c-0.19-0.501-0.446-0.907-0.769-1.217c-0.319-0.31-0.688-0.532-1.104-0.673c-0.416-0.139-0.849-0.208-1.295-0.208
			c-0.599,0-1.151,0.098-1.664,0.288c-0.514,0.192-0.961,0.496-1.344,0.912c-0.386,0.416-0.685,0.944-0.896,1.584
			c-0.214,0.64-0.32,1.397-0.32,2.272v7.808h-2.88V244.16L467.453,244.16z"/>
	</g>
</g>
</svg>
