<?xml version="1.0" encoding="utf-8"?>
<!-- Generator: Adobe Illustrator 16.0.0, SVG Export Plug-In . SVG Version: 6.00 Build 0)  -->
<!DOCTYPE svg PUBLIC "-//W3C//DTD SVG 1.1//EN" "http://www.w3.org/Graphics/SVG/1.1/DTD/svg11.dtd">
<svg version="1.1" xmlns="http://www.w3.org/2000/svg" xmlns:xlink="http://www.w3.org/1999/xlink" x="0px" y="0px"
	 width="614.667px" height="420.5px" viewBox="0 0 614.667 420.5" enable-background="new 0 0 614.667 420.5" xml:space="preserve">
<g id="Magier">
	<g id="Ebene_5">
		<path d="M7.728,253.592c0,0-3.196,0.09-2.59-1.957c0.533-1.795,45.091-50.423,56.921-62.542c1.645-1.685,2.544-2.593,3.173-2.881
			c0.629-0.289,1.153,0.027,0.71,0.898C55.002,201.424,10.31,252.312,7.728,253.592z"/>
		<path fill="#F7941E" d="M62.396,188.749c0,0-1.239,2.175-0.65,3.639c-0.458,0.986-2.182,2.656-2.182,2.656
			c-0.403-0.305-0.697-2.036,0.051-3.416C60.363,190.249,62.102,189.048,62.396,188.749z"/>
		<path fill="#F7941E" d="M55.536,195.931c0,0-0.56,2.541,0.022,3.916c-0.105,0.511-2.416,3.329-2.617,3.101
			c-0.201-0.229-0.231-3.598,0.129-4.39C53.433,197.764,55.536,195.931,55.536,195.931z"/>
		<path fill="#F7941E" d="M49.116,207.441c-0.756-2.713,0.627-5.322,0.852-5.562c0.225-0.241-1.796,1.375-3.159,3.397
			c-1.04,2.423-0.42,4.931-0.161,5.047C46.907,210.438,49.116,207.441,49.116,207.441z"/>
		<path fill="#F7941E" d="M42.883,209.514c0,0-1.215,3.85-0.316,5.389c0.041,0.812-2.353,3.059-2.421,2.949
			s-1.266-2.313-0.403-5.006C40.312,211.615,42.528,209.324,42.883,209.514z"/>
		<path fill="#F7941E" d="M36.381,216.57c0,0-0.93,1.875,0.083,5.613c-0.418,0.937-2.398,3.28-2.737,3.025
			c-0.62-0.467-0.817-4.854-0.081-5.657C33.909,218.844,36.015,216.677,36.381,216.57z"/>
		<path fill="#F7941E" d="M29.271,224.335c0,0-0.958,4.687-0.133,6.088c-0.33,0.762-2.775,3.061-2.775,3.061
			c-0.568-0.429-0.761-5.385,0.054-6.282C26.609,226.785,28.499,224.611,29.271,224.335z"/>
		<path fill="#F7941E" d="M21.183,233.281c0,0-0.858,2.189,0.253,5.844c-0.577,1.123-2.881,3.766-3.143,3.488
			c-0.262-0.276-0.897-4.295-0.201-5.908C18.384,236.032,20.455,233.499,21.183,233.281z"/>
		<path fill="#F7941E" d="M14.228,240.904c0,0-1.638,2.834-0.524,6.594c-0.499,1.394-2.563,2.719-2.563,2.719
			s-1.152-3.061-0.423-5.631C11.083,243.688,14.003,240.738,14.228,240.904z"/>
		<path fill="#F7941E" d="M6.768,249.504c0,0-0.657,2.397,0.96,4.088c-0.676,0.584-3.43-0.714-2.839-2.145
			C5.304,250.441,6.768,249.504,6.768,249.504z"/>
	</g>
	<path display="none" d="M-93.19,159.674c0,0,2.523-4.884,3.523-4.801S-88,157.706-88,157.706s1.417,0.25,3.333-0.417
		c0.833-4.417,2.667-7.333,5.333-7.583c2.833-1.583,3.833-0.083,3.333,1s-1,7.417-1,7.417s0.404,0.64,4,1.171
		c6.063,0.896,6.667,2.495,5.667,3.412c0,0-2.273-1.074-6.5-0.833"/>
	<g id="Blätter">
		<g>
			<path fill="#F9F9F9" d="M107.265,88.403l20.104,19.5c0,0,12.833-19.833,36.167-21.833c-2.333-11.667-9.297-23.71-9.297-23.71
				S123.329,64.07,107.265,88.403z"/>
			<path d="M127.457,108.686l-20.838-20.212l0.228-0.346c16.018-24.263,47.051-26.25,47.363-26.267l0.307-0.017l0.153,0.266
				c0.07,0.122,7.032,12.25,9.354,23.863l0.11,0.548l-0.558,0.048c-22.81,1.955-35.662,21.411-35.789,21.607L127.457,108.686z
				 M107.912,88.334l19.381,18.799c2.191-3.083,14.752-19.449,35.64-21.51c-2.19-10.322-7.957-20.924-8.974-22.742
				C150.723,63.151,122.856,66.098,107.912,88.334z"/>
		</g>
		<g>
			<path fill="#F9F9F9" d="M155.854,94.403l-1.333-16.021c0,0,22.333-11.979,50.333,5.688c-1,6.333-5.333,20.667-5.333,20.667
				S176.002,90.403,155.854,94.403z"/>
			<path d="M199.812,105.5l-0.551-0.336c-0.18-0.109-18.207-10.965-35.904-10.965c-2.591,0-5.083,0.234-7.406,0.695l-0.549,0.109
				l-1.407-16.906l0.289-0.155c0.307-0.165,7.643-4.028,19.254-4.028c10.721,0,21.346,3.275,31.582,9.733l0.278,0.176l-0.051,0.325
				c-0.994,6.294-5.306,20.589-5.349,20.733L199.812,105.5z M163.358,93.199c16.221,0,32.667,8.95,35.867,10.786
				c0.816-2.742,4.138-14.055,5.083-19.667c-9.987-6.24-20.338-9.403-30.769-9.403c-10.098,0-17.024,3.057-18.491,3.764l1.259,15.13
				C158.535,93.404,160.904,93.199,163.358,93.199z"/>
		</g>
		<g>
			<path fill="#F9F9F9" d="M215.488,50.009c0,0-5,10.543-5.333,16.21c11.667,4,40.78,11.667,49.558,10.333
				c1.442-10.333,5.586-24.333,5.586-24.333S220.822,52.798,215.488,50.009z"/>
			<path d="M257.291,77.207c-10.92,0-36.596-6.845-47.298-10.514l-0.359-0.124l0.022-0.379c0.336-5.699,5.175-15.961,5.381-16.396
				l0.223-0.47l0.461,0.241c2.678,1.4,17.332,2.203,40.205,2.203c5.539,0,9.365-0.05,9.367-0.05l0.678-0.009l-0.191,0.651
				c-0.042,0.14-4.15,14.083-5.572,24.261l-0.051,0.369l-0.369,0.056C259.092,77.153,258.252,77.207,257.291,77.207z
				 M210.684,65.871c10.854,3.678,35.92,10.335,46.607,10.335c0.744,0,1.408-0.033,1.979-0.1c1.294-8.941,4.544-20.536,5.36-23.38
				c-1.331,0.014-4.533,0.042-8.705,0.042c-15.913,0-35.48-0.373-40.188-2.108C214.826,52.651,211.135,60.952,210.684,65.871z"/>
		</g>
		<g>
			<path fill="#F9F9F9" d="M305.082,82.164c0,0,3.344,8.766,3.012,13.883c11.666,0.117,54.354-3.788,56.354-8.121
				c-1.333-8.333-6.354-19.495-6.354-19.495S321.404,82.164,305.082,82.164z"/>
			<path d="M308.627,96.549C308.626,96.549,308.627,96.549,308.627,96.549l-1.066-0.008l0.033-0.527
				c0.322-4.948-2.945-13.585-2.979-13.672l-0.258-0.678h0.725c16.045,0,52.471-13.564,52.837-13.701l0.438-0.165l0.192,0.428
				c0.051,0.112,5.064,11.319,6.393,19.621l0.023,0.15l-0.063,0.138C362.671,92.97,319.581,96.549,308.627,96.549z M308.614,95.549
				h0.013c5.717,0,18.787-0.861,31.751-2.457c19.668-2.421,23.005-4.523,23.548-5.263c-1.197-7.238-5.186-16.665-6.101-18.767
				c-4.168,1.533-36.478,13.234-52.029,13.592C306.543,84.739,308.699,91.15,308.614,95.549z"/>
		</g>
		<g>
			<path fill="#F9F9F9" d="M263.833,97.931c0,0-7.494,9.273-11.692,10.822c7.442,8.778,24.496,21.478,24.495,29.38
				c7.916-0.744,21.198-9.213,21.198-9.213S273.296,102.137,263.833,97.931z"/>
			<path d="M276.136,138.682v-0.549c0.001-5.207-8.134-12.99-15.312-19.858c-3.451-3.302-6.711-6.422-9.065-9.199l-0.462-0.545
				l0.67-0.248c4.023-1.484,11.403-10.576,11.478-10.667l0.241-0.298l0.351,0.156c9.449,4.2,33.161,30.011,34.167,31.108
				l0.402,0.439l-0.502,0.32c-0.547,0.349-13.477,8.543-21.421,9.29L276.136,138.682z M252.961,108.939
				c2.281,2.61,5.334,5.531,8.555,8.613c7.43,7.108,15.104,14.451,15.596,20.023c6.871-0.913,17.508-7.261,19.945-8.761
				c-3.2-3.457-24.268-26.004-33.082-30.267C262.689,100.105,256.879,106.988,252.961,108.939z"/>
		</g>
		<g>
			<path fill="#F9F9F9" d="M450.153,51.738c0,0,0,16.333,0,17.333c5.667-1.333,53.668-11,60.334-8.667
				c2-8.667-1.004-18.742-1.004-18.742S481.153,42.404,450.153,51.738z"/>
			<path d="M449.653,69.703V51.366l0.355-0.107c30.709-9.246,59.178-10.089,59.462-10.097l0.383-0.01l0.109,0.367
				c0.124,0.417,3.019,10.302,1.012,18.998l-0.126,0.544l-0.526-0.185c-0.633-0.221-1.739-0.333-3.288-0.333
				c-12.901,0-51.518,7.78-56.767,9.016L449.653,69.703z M450.653,52.11v16.334c7.13-1.595,43.818-8.902,56.381-8.902
				c1.325,0,2.34,0.079,3.077,0.24c1.529-7.398-0.51-15.765-1.004-17.607C505.607,42.31,479.145,43.587,450.653,52.11z"/>
		</g>
	</g>
	<g id="Buch">
		<g>
			<path fill="#EBECEB" d="M111.038,170.657c0,0,37.655-63.017,37.496-63.9c-0.16-0.883-43.087-25.992-43.087-25.992
				s-2.669-2.199-3.667-2.383c-3.9,5.687-35.784,64.61-35.784,64.61s1.855,1.741,3.128,2.171
				C71.013,146.741,111.038,170.657,111.038,170.657z"/>
			<path d="M111.038,171.157c-0.087,0-0.176-0.023-0.256-0.071c-1.618-0.967-39.241-23.452-41.903-25.479
				c-1.352-0.5-3.148-2.178-3.226-2.25c-0.166-0.156-0.206-0.403-0.098-0.603c1.303-2.407,31.941-59.012,35.812-64.655
				c0.112-0.163,0.311-0.243,0.503-0.209c1.07,0.198,3.432,2.108,3.894,2.489c43.061,25.179,43.207,25.985,43.262,26.289
				c0.128,0.708-12.509,22.324-37.559,64.245C111.374,171.07,111.208,171.157,111.038,171.157z M66.622,142.885
				c0.646,0.567,1.848,1.53,2.662,1.805c0.059,0.02,0.113,0.05,0.16,0.09c1.455,1.215,27.477,16.857,41.421,25.191
				c10.14-16.973,35.303-59.271,37.089-63.086c-2.455-1.932-26.602-16.236-42.761-25.688c-0.982-0.802-2.447-1.877-3.209-2.22
				C97.531,85.838,69.21,138.105,66.622,142.885z"/>
		</g>
		<g>
			<line fill="#FFFFFF" x1="104.928" y1="82.193" x2="70.546" y2="144.178"/>
			<path d="M70.545,144.678c-0.082,0-0.165-0.02-0.242-0.063c-0.241-0.134-0.329-0.438-0.194-0.68l34.382-61.985
				c0.134-0.241,0.437-0.33,0.68-0.194c0.241,0.134,0.329,0.438,0.194,0.68l-34.382,61.985
				C70.892,144.585,70.721,144.678,70.545,144.678z"/>
		</g>
		<g>
			<g>
				<defs>
					
						<rect id="SVGID_1_" x="80.37" y="114.036" transform="matrix(-0.8684 -0.4958 0.4958 -0.8684 122.8517 303.2627)" width="42.589" height="42.589"/>
				</defs>
				<clipPath id="SVGID_2_">
					<use xlink:href="#SVGID_1_"  overflow="visible"/>
				</clipPath>
				<g clip-path="url(#SVGID_2_)">
					<defs>
						
							<rect id="SVGID_3_" x="80.37" y="114.036" transform="matrix(-0.8684 -0.4958 0.4958 -0.8684 122.8517 303.2627)" width="42.589" height="42.589"/>
					</defs>
					<clipPath id="SVGID_4_">
						<use xlink:href="#SVGID_3_"  overflow="visible"/>
					</clipPath>
					<path clip-path="url(#SVGID_4_)" fill="#231F20" d="M92.426,129.891c0,0-6.656,4.769-8.975,7.098
						c-1.53,1.537-4.613,6.742-4.66,7.117c-0.047,0.375,6.937,6.132,12.683,6.801c0,0,0.547-0.955,0.735-1.283
						c0.188-0.329,0.036-0.884-0.304-1.345c0.211,0.346,0.737,0.233,0.825-0.008c0.143-0.391,0.625-1.006,0.25-1.288
						c-0.375-0.281,0.13-0.227,0.299-0.231c0.17-0.004,0.285-0.909,0.245-1.132c-0.04-0.224,0.227-0.574,0.353-0.97
						c0.126-0.397,0.386-1.086,0.424-2.208c0.026-0.751,1.789-3.191,3.596-4.303c-0.177-0.101-1.025-0.317-3.615-3.873
						C93.08,132.675,92.426,129.891,92.426,129.891"/>
					<path clip-path="url(#SVGID_4_)" fill="#F5952F" d="M100.041,136.7c0,0-0.595,0.983-1.022,0.706
						c-0.252,0.09-0.326,0.718-0.73,0.487c-0.404-0.23,0.348,1.12-1.784-0.717c-3.147-3.157-3.909-6.328-4.233-7.775
						c0,0,0.061-0.869,0.685-0.613c0.624,0.256,0.306-0.361,0.306-0.361s0.025-0.688,1.104-0.408
						c-0.076-0.277-0.176-1.128,0.441-0.977c0.616,0.151,0.971,0.175,0.976-0.039c0,0,0.221-0.702,0.666-0.434
						c0.543,1.328,3.889,8.363,4.695,10.042c0,0-0.333-0.128-0.654,0.094c0,0-0.095,0.197-0.272,0.096"/>
					<path clip-path="url(#SVGID_4_)" fill="#231F20" d="M106.866,142.274c-0.656-2.554-3.31-11.432-9.435-22.406
						c-2.055-3.612-3.3-5.924-3.645-4.296c-0.094,0.441-0.119,0.938-0.107,1.425c-0.135,1.855,0.26,3.931,1.482,7.276
						c4.255,11.649,7.585,16.208,7.585,16.208c0.543,0.789,1.052,1.411,1.51,1.906C106.152,144.837,107.502,144.751,106.866,142.274
						"/>
				</g>
			</g>
		</g>
	</g>
</g>
<g id="Sparcles">
	<g id="orange">
		<g>
			<path fill="#F7941E" d="M66.954,176.6c1.805-0.695,0.727-3.495-1.079-2.799S65.148,177.295,66.954,176.6L66.954,176.6z"/>
		</g>
		<g>
			<path fill="#F7941E" d="M102.499,119.454c1.806-0.696,0.727-3.495-1.078-2.8S100.693,120.149,102.499,119.454L102.499,119.454z"
				/>
		</g>
		<g>
			<path fill="#F7941E" d="M128.587,151.601c1.805-0.695,0.727-3.495-1.078-2.799S126.782,152.296,128.587,151.601L128.587,151.601z
				"/>
		</g>
		<g>
			<path fill="#F7941E" d="M162.576,156.378c1.805-0.695,0.727-3.495-1.079-2.799C159.692,154.274,160.77,157.073,162.576,156.378
				L162.576,156.378z"/>
		</g>
		<g>
			<path fill="#F7941E" d="M125.733,166.464c1.805-0.695,0.727-3.495-1.079-2.799S123.928,167.159,125.733,166.464L125.733,166.464z
				"/>
		</g>
		<g>
			<path fill="#F7941E" d="M101.74,179.275c1.805-0.695,0.727-3.495-1.078-2.799C98.856,177.171,99.935,179.97,101.74,179.275
				L101.74,179.275z"/>
		</g>
		<g>
			<path fill="#F7941E" d="M135.542,224.854c1.805-0.695,0.727-3.495-1.079-2.799S133.736,225.549,135.542,224.854L135.542,224.854z
				"/>
		</g>
		<g>
			<path fill="#F7941E" d="M136.898,272.938c1.935,0,1.935-3,0-3S134.964,272.938,136.898,272.938L136.898,272.938z"/>
		</g>
		<g>
			<path fill="#F7941E" d="M160.956,317.93c1.935,0,1.935-3,0-3S159.021,317.93,160.956,317.93L160.956,317.93z"/>
		</g>
		<g>
			<path fill="#F7941E" d="M154.755,126.352c1.805-0.695,0.727-3.495-1.078-2.799C151.871,124.248,152.95,127.047,154.755,126.352
				L154.755,126.352z"/>
		</g>
		<g>
			<path fill="#F7941E" d="M184.111,169.696c1.806-0.695,0.727-3.495-1.078-2.799C181.228,167.592,182.307,170.392,184.111,169.696
				L184.111,169.696z"/>
		</g>
		<g>
			<path fill="#F7941E" d="M70.683,168.198c1.805-0.695,0.727-3.495-1.078-2.799C67.799,166.094,68.877,168.893,70.683,168.198
				L70.683,168.198z"/>
		</g>
		<g>
			<path fill="#F7941E" d="M79.617,159.398c1.806-0.695,0.727-3.495-1.078-2.799C76.733,157.294,77.812,160.094,79.617,159.398
				L79.617,159.398z"/>
		</g>
		<g>
			<path fill="#F7941E" d="M108.358,206.195c1.805-0.695,0.727-3.495-1.079-2.799C105.475,204.091,106.553,206.891,108.358,206.195
				L108.358,206.195z"/>
		</g>
		<g>
			<path fill="#F7941E" d="M129.192,232.462c1.806-0.695,0.727-3.495-1.078-2.799S127.387,233.157,129.192,232.462L129.192,232.462z
				"/>
		</g>
		<g>
			<path fill="#F7941E" d="M307,119.5c1.935,0,1.935-3,0-3S305.065,119.5,307,119.5L307,119.5z"/>
		</g>
		<g>
			<path fill="#F7941E" d="M307,124.873c1.935,0,1.935-3,0-3S305.065,124.873,307,124.873L307,124.873z"/>
		</g>
		<g>
			<path fill="#F7941E" d="M273.5,147.5c1.935,0,1.935-3,0-3S271.565,147.5,273.5,147.5L273.5,147.5z"/>
		</g>
		<g>
			<path fill="#F7941E" d="M182.863,128.384c1.806-0.695,0.728-3.495-1.078-2.799S181.059,129.079,182.863,128.384L182.863,128.384z
				"/>
		</g>
		<g>
			<path fill="#F7941E" d="M123.058,128.916c1.805-0.695,0.727-3.495-1.078-2.799S121.253,129.611,123.058,128.916L123.058,128.916z
				"/>
		</g>
		<g>
			<path fill="#F7941E" d="M313.812,364.832c1.935,0,1.935-3,0-3S311.878,364.832,313.812,364.832L313.812,364.832z"/>
		</g>
		<g>
			<path fill="#F7941E" d="M294.272,361.706c1.935,0,1.935-3,0-3S292.338,361.706,294.272,361.706L294.272,361.706z"/>
		</g>
		<g>
			<path fill="#F7941E" d="M302.084,357.951c1.935,0,1.935-3,0-3S300.149,357.951,302.084,357.951L302.084,357.951z"/>
		</g>
		<g>
			<path fill="#F7941E" d="M226,358c1.935,0,1.935-3,0-3S224.065,358,226,358L226,358z"/>
		</g>
		<g>
			<path fill="#F7941E" d="M388.667,352.212c1.935,0,1.935-3,0-3S386.732,352.212,388.667,352.212L388.667,352.212z"/>
		</g>
		<g>
			<path fill="#F7941E" d="M588.691,312.972c1.935,0,1.935-3,0-3S586.757,312.972,588.691,312.972L588.691,312.972z"/>
		</g>
		<g>
			<path fill="#F7941E" d="M582.024,319.639c1.935,0,1.935-3,0-3S580.09,319.639,582.024,319.639L582.024,319.639z"/>
		</g>
		<g>
			<path fill="#F7941E" d="M549.358,332.972c1.935,0,1.935-3,0-3S547.424,332.972,549.358,332.972L549.358,332.972z"/>
		</g>
		<g>
			<path fill="#F7941E" d="M588.691,330.972c1.935,0,1.935-3,0-3S586.757,330.972,588.691,330.972L588.691,330.972z"/>
		</g>
		<g>
			<path fill="#F7941E" d="M588.691,110.784c1.935,0,1.935-3,0-3S586.757,110.784,588.691,110.784L588.691,110.784z"/>
		</g>
		<g>
			<path fill="#F7941E" d="M528.642,108.549c1.935,0,1.935-3,0-3S526.707,108.549,528.642,108.549L528.642,108.549z"/>
		</g>
		<g>
			<path fill="#F7941E" d="M537.253,110.195c1.935,0,1.935-3,0-3S535.318,110.195,537.253,110.195L537.253,110.195z"/>
		</g>
		<g>
			<path fill="#F7941E" d="M548.421,110.625c1.935,0,1.935-3,0-3S546.486,110.625,548.421,110.625L548.421,110.625z"/>
		</g>
		<g>
			<path fill="#F7941E" d="M542.667,102.667c1.935,0,1.935-3,0-3S540.732,102.667,542.667,102.667L542.667,102.667z"/>
		</g>
		<g>
			<path fill="#F7941E" d="M534.667,94.667c1.935,0,1.935-3,0-3S532.732,94.667,534.667,94.667L534.667,94.667z"/>
		</g>
		<g>
			<path fill="#F7941E" d="M521.333,94.667c1.935,0,1.935-3,0-3S519.398,94.667,521.333,94.667L521.333,94.667z"/>
		</g>
		<g>
			<path fill="#F7941E" d="M510.667,102.667c1.935,0,1.935-3,0-3S508.732,102.667,510.667,102.667L510.667,102.667z"/>
		</g>
		<g>
			<path fill="#F7941E" d="M497.333,106.667c1.935,0,1.935-3,0-3S495.398,106.667,497.333,106.667L497.333,106.667z"/>
		</g>
		<g>
			<path fill="#F7941E" d="M545.333,76c1.935,0,1.935-3,0-3S543.398,76,545.333,76L545.333,76z"/>
		</g>
		<g>
			<path fill="#F7941E" d="M394.667,354c1.935,0,1.935-3,0-3S392.732,354,394.667,354L394.667,354z"/>
		</g>
		<g>
			<path fill="#F7941E" d="M411.334,373.333c1.935,0,1.935-3,0-3S409.399,373.333,411.334,373.333L411.334,373.333z"/>
		</g>
		<g>
			<path fill="#F7941E" d="M418.667,367.333c1.935,0,1.935-3,0-3S416.732,367.333,418.667,367.333L418.667,367.333z"/>
		</g>
		<g>
			<path fill="#F7941E" d="M441.334,367.333c1.935,0,1.935-3,0-3S439.399,367.333,441.334,367.333L441.334,367.333z"/>
		</g>
	</g>
	<g id="black">
		<g>
			<path d="M154.109,224.832c1.805-0.695,0.727-3.495-1.078-2.799C151.226,222.728,152.304,225.527,154.109,224.832L154.109,224.832
				z"/>
		</g>
		<g>
			<path d="M176.039,216.385c1.805-0.695,0.727-3.495-1.079-2.799S174.233,217.08,176.039,216.385L176.039,216.385z"/>
		</g>
		<g>
			<path d="M185.312,205.683c1.805-0.695,0.727-3.495-1.079-2.799S183.506,206.378,185.312,205.683L185.312,205.683z"/>
		</g>
		<g>
			<path d="M318.667,110.784c1.935,0,1.935-3,0-3S316.732,110.784,318.667,110.784L318.667,110.784z"/>
		</g>
		<g>
			<path d="M352,124.873c1.935,0,1.935-3,0-3S350.065,124.873,352,124.873L352,124.873z"/>
		</g>
		<g>
			<path d="M322.629,353.937c1.935,0,1.935-3,0-3S320.694,353.937,322.629,353.937L322.629,353.937z"/>
		</g>
		<g>
			<path fill="#F7941E" d="M172.989,361.52c1.935,0,1.935-3,0-3S171.054,361.52,172.989,361.52L172.989,361.52z"/>
		</g>
		<g>
			<path fill="#F7941E" d="M159.386,357.885c1.935,0,1.935-3,0-3S157.451,357.885,159.386,357.885L159.386,357.885z"/>
		</g>
		<g>
			<path fill="#F7941E" d="M154.625,353.212c1.935,0,1.935-3,0-3S152.69,353.212,154.625,353.212L154.625,353.212z"/>
		</g>
		<g>
			<path fill="#F7941E" d="M166.14,360.259c1.935,0,1.935-3,0-3S164.205,360.259,166.14,360.259L166.14,360.259z"/>
		</g>
		<g>
			<path d="M218.5,128.5c1.935,0,1.935-3,0-3S216.565,128.5,218.5,128.5L218.5,128.5z"/>
		</g>
		<g>
			<path d="M70.834,185.285c1.806-0.695,0.727-3.495-1.078-2.799C67.951,183.181,69.029,185.98,70.834,185.285L70.834,185.285z"/>
		</g>
		<g>
			<path d="M76.721,182.482c1.805-0.695,0.727-3.495-1.079-2.799C73.837,180.378,74.915,183.178,76.721,182.482L76.721,182.482z"/>
		</g>
		<g>
			<path d="M87.062,187.072c1.805-0.695,0.727-3.495-1.079-2.799C84.178,184.968,85.256,187.767,87.062,187.072L87.062,187.072z"/>
		</g>
		<g>
			<path d="M147.184,306.847c1.935,0,1.935-3,0-3S145.249,306.847,147.184,306.847L147.184,306.847z"/>
		</g>
	</g>
</g>
</svg>
