<?xml version="1.0" encoding="utf-8"?>
<!-- Generator: Adobe Illustrator 16.0.0, SVG Export Plug-In . SVG Version: 6.00 Build 0)  -->
<!DOCTYPE svg PUBLIC "-//W3C//DTD SVG 1.1//EN" "http://www.w3.org/Graphics/SVG/1.1/DTD/svg11.dtd">
<svg version="1.1" xmlns="http://www.w3.org/2000/svg" xmlns:xlink="http://www.w3.org/1999/xlink" x="0px" y="0px" width="976px"
	 height="420.5px" viewBox="0 0 976 420.5" enable-background="new 0 0 976 420.5" xml:space="preserve">
<g id="Magier">
	<path d="M173.675,103.07c0,0,12.404-34.833,12.705-36.485s-28.266-13.664-37.48-6.306c-3.809,2.853-2.908,2.553-2.908,2.553
		s1.613,14.714,2.908,23.572c1.295,8.859,1.445,12.613,1.746,14.114C153.588,99.747,162.171,96.314,173.675,103.07z"/>
	<path fill="#F7941E" d="M171.234,113.768c0,0,1.381-0.728,0.506-1.689c-0.874-0.96-0.156-1.041,0.169-1.083
		c0.326-0.044,0.343-0.587,0.062-0.92c0.041-0.584,1.278-0.355,0.389-0.98c0.945-0.085,1.564-0.393,0.619-1.464
		c-0.945-1.072,0.297-1.327,0.507-1.52c0.21-0.194,0.778-0.743,0.394-1.351c0.003-0.083,0.022-1.549-0.205-1.689
		c-7.058-4.342-14.715-5.349-23.33-2.646c0,0-2.605,0.963-1.914,2.027c0.183,0.842-0.837,1.474-0.558,1.601
		c0.28,0.128,0.439,0.478,0.343,0.615c-0.096,0.137-0.45,0.536-0.104,0.779c0.346,0.243,0.219,0.424-0.155,0.536
		c-0.374,0.113-1.158,1.229-0.351,1.762c0.807,0.532,0.601,0.919,0.149,1.352c-0.451,0.431,0.409,0.468,0.395,1.172
		c-0.015,0.705,0.364,1.371,0.75,1.812C148.899,112.079,157.552,110.221,171.234,113.768z"/>
	<path d="M195.703,119.136c1.262,4.946-4.503,6.153-8.123,6.606c-17.525,2.196-57.715-7.185-61.619-12.59
		c-2.155-2.983,0.131-3.679,5.314-4.076c10.395-0.796,32.131,3.118,44.518,5.254C184.744,115.875,194.938,116.133,195.703,119.136z"
		/>
	<path d="M145.499,156.04c1.889-1.881,3.251-4.75,3.334-5.333s-1.917,1.167-3.417,1.667s-6.25-0.083-7.667,2.5
		c-0.167,0.667,0,1.334-0.5,1.667c-4.333-1.5-12-4.833-13.25-4.75s-3.917,2.583-5.417,3.167s-6.792,1.035-18.833-2.083
		c-11.583-3-11.583-3-11.583-3s-4.327-10.088-5.167-12.166s-3.25-11.667-3.333-14c0,0-2.083-0.334-2.916-0.334
		c0,0-12.156,0.932-11.917,2.132c0.535,2.689,9.674,21.538,11.008,24.622s2.91,6.662,3.41,7.329s-0.25,2.333,9.333,5.833
		s26.916,4.251,32.249,9.917s11.476,27.755,13.25,33.833s6.5,28.334,6.5,29.334s0.75,3.416-1.25,8.166s-9.583,26.793-14.5,38.127
		c-4.917,11.332-8.416,34.304-8.582,35.22c-0.167,0.918-0.166,3.166,0.25,5s3.25,63.482,3.5,65.482l3.083,0.521
		c0,0,1.417,3.229,1.417,3.812s1.417,1.877-14.333,7.5c-7.993,2.854-14.663,6.399-14.83,7.899s-1.171,4.018,8.163,2.934
		s17.167-1.665,24-3.833c6.833-2.166,11.333-4.064,11.333-4.48s-1-5.166-3-6.5c-2-1.332-3.583-3.084-4.5-5.084s-1.5-2.748-1-2.916
		c0.5-0.166,5.333-2.5,5.5-4.166c-0.083-1.418-2.667-8.333-2.667-16.666c0-6.115-4.333-41.001-6.417-44.919
		c-1.417-2.916,0.381-4.763,2.647-9.219s17.1-35.953,22.267-47.619c4.5-8.834,4.46-9.03,5.917-10.153s3.5-3.248,5.083-0.479
		c1.97,2.738,8.17,16.329,13,26c4.587,9.329,26.169,55.728,40.002,85.062c8.012,16.989,15.552,29.347,15.636,29.847
		s1.983-0.467,1.983-0.467s3.167,2.834,3.75,4.084c-0.917,4.416-2.706,7.406-0.122,9.822s16.134,1.889,18.417,1.654
		c4.771-0.49,14.789-6.477,22.206-16.561c-1.417-1.916-3.167-4.416-7.417-2.75c-4.25,1.668-7.4,5.34-12.9,6.172
		c-5.5,0.834-15.017-4.588-15.017-4.588s-1.247-1.189-1.413-1.605c-0.167-0.418,2.045-1.108,2.045-1.108s-21.624-43.94-33.5-69.002
		c-1.5-5.334-35.252-79.437-38.085-82.771c-2.833-3.332-9.75-16-11.083-21.584c-1.333-5.582,5.257-28.628,12.999-32.499
		c1.5-0.75,4-2.333,10.833,4.833c4.359,4.572,18.501,16.833,23.001,17.083s10.552-20.47,14.333-27.25
		c-1.337-2.987-1.833-2.917-1.833-2.917c-0.083-3.25,0.75-5.916,1.417-6.083s1.583-1.333,7.667,2.333
		c0.917,0.333,3.167-1.666,3.917-2.333c1.5-0.417,4.583-1.75,5.25-2.417s1.667-1.667,1.667-1.667s2.917-0.417,4.5-1.167
		s1.417-2.167,1.417-2.167s0.936-0.861,4.833-1.083c4.227-0.241,6.5,0.833,6.5,0.833c1-0.917,0.063-3.604-6-4.5
		c-3.596-0.531-3.667-0.083-3.667-0.083s0.5-6.334,1-7.417s-0.5-2.583-3.333-1c-2.667,0.25-4.5,3.167-5.333,7.583
		c-1.917,0.667-3.333,0.417-3.333,0.417s-0.667-2.75-1.667-2.833s-2.25,2.083-2.25,2.083s-3.101,1.583-4.351-2.417
		c-0.402-1.287,7.346,0.152,7.106-0.607c-0.277-0.876-2.272-3.821-3.85-3.525s-5.65-1.268-6.155-1.407
		c-1.648-0.456-3.515-0.292-4.333,1.5c-0.917,3.583-2.417,6.957-2.417,9.623s-1.083,4-1.25,6.083s-2,5.167-2.417,5.75
		c-2.083-0.25-8,18.75-10.667,22.5c-2.167-4.583-21.25-24.917-22.75-28.667c-0.5-1.583-11.833-1.916-12.917-2.583
		c0.417-1.083-0.083-1.75-1.25-2s-2.083-3.083-2.5-4S163,157.123,164,159.54s-5.83,15.25-7.247,19.167s-6.669,20.833-7.003,24.583
		c0,0-9.148-19.139-9.315-28.889S143.809,157.723,145.499,156.04z"/>
	<path d="M145.902,239.619c0,0-0.176,21.439,9.308,35.902c8.558,13.052,16.008,18.166,18.993,20.218
		c2.834,1.949,10.612,2.658,5.319-3.805c-5.294-6.46-22.072-33.194-14.631-39.429c10.002,14.09,30.524,24.115,42.961,25.731
		c4.838,0.078,5.551-2.662,2.011-5.255c-1.028-0.755-10.901-7.346-22.197-17.148c-7.147-6.203-11.692-12.114-16.417-17.045
		C168.031,235.43,145.902,239.619,145.902,239.619z"/>
	<g id="Ebene_5">
		<path d="M211.104,155.098c0,0-1.91-2.563,0.112-3.244c1.775-0.597,67.181,7.904,83.897,10.617
			c2.324,0.377,3.584,0.591,4.182,0.939c0.598,0.348,0.64,0.959-0.327,1.098C280.969,163.786,213.636,156.476,211.104,155.098z"/>
		<path fill="#F7941E" d="M295.59,162.549c0,0-2.492,0.237-3.351,1.56c-1.07,0.192-3.428-0.258-3.428-0.258
			c0.018-0.505,1.265-1.741,2.824-1.922C293.194,161.748,295.176,162.48,295.59,162.549z"/>
		<path fill="#F7941E" d="M285.77,161.065c0,0-2.401,1.002-3.19,2.27c-0.479,0.207-4.114-0.063-4.042-0.358
			c0.072-0.297,2.811-2.258,3.667-2.418C283.061,160.398,285.77,161.065,285.77,161.065z"/>
		<path fill="#F7941E" d="M272.661,162.43c1.785-2.178,4.715-2.546,5.041-2.501c0.327,0.045-2.158-0.679-4.596-0.632
			c-2.58,0.542-4.276,2.492-4.221,2.77C268.939,162.345,272.661,162.43,272.661,162.43z"/>
		<path fill="#F7941E" d="M267.382,158.521c0,0-3.849,1.218-4.591,2.839c-0.642,0.5-3.856-0.167-3.805-0.286
			c0.051-0.119,1.165-2.365,3.864-3.208C264.185,157.625,267.333,158.121,267.382,158.521z"/>
		<path fill="#F7941E" d="M257.87,157.258c0,0-2.068,0.317-4.545,3.295c-1.006,0.196-4.062-0.077-4.048-0.5
			c0.026-0.776,3.502-3.459,4.582-3.319C254.588,156.543,257.572,157.02,257.87,157.258z"/>
		<path fill="#F7941E" d="M247.429,155.904c0,0-4.386,1.911-5.058,3.392c-0.813,0.168-4.1-0.511-4.1-0.511
			c0.024-0.711,3.969-3.719,5.171-3.567C243.894,155.135,246.759,155.431,247.429,155.904z"/>
		<path fill="#F7941E" d="M235.459,154.43c0,0-2.285,0.556-4.635,3.567c-1.252,0.174-4.738-0.193-4.662-0.566
			c0.076-0.374,2.999-3.203,4.719-3.562C231.599,153.721,234.863,153.96,235.459,154.43z"/>
		<path fill="#F7941E" d="M225.223,153.122c0,0-3.26,0.29-5.696,3.362c-1.427,0.394-3.698-0.534-3.698-0.534
			s1.842-2.702,4.364-3.583C221.137,152.149,225.23,152.844,225.223,153.122z"/>
		<path fill="#F7941E" d="M213.898,151.962c0,0-2.339,0.84-2.793,3.135c-0.867-0.217-1.388-3.216,0.123-3.555
			C212.289,151.304,213.898,151.962,213.898,151.962z"/>
	</g>
	<path d="M230.81,159.674c0,0,2.523-4.884,3.523-4.801s1.667,2.833,1.667,2.833s1.417,0.25,3.333-0.417
		c0.833-4.417,2.667-7.333,5.333-7.583c2.833-1.583,3.833-0.083,3.333,1s-1,7.417-1,7.417s0.404,0.64,4,1.171
		c6.063,0.896,6.667,2.495,5.667,3.412c0,0-2.273-1.074-6.5-0.833"/>
	<g id="Blätter">
		<g>
			<path fill="#F9F9F9" d="M52.73,32.5L72.834,52c0,0,12.833-19.833,36.167-21.833c-2.333-11.667-9.297-23.71-9.297-23.71
				S68.795,8.167,52.73,32.5z"/>
			<path d="M72.923,52.783L52.085,32.57l0.228-0.346C68.331,7.962,99.364,5.975,99.676,5.958l0.307-0.017l0.153,0.266
				c0.07,0.122,7.032,12.25,9.354,23.863l0.11,0.548l-0.558,0.048c-22.81,1.955-35.662,21.411-35.789,21.607L72.923,52.783z
				 M53.377,32.431L72.758,51.23c2.191-3.083,14.752-19.449,35.64-21.51c-2.19-10.322-7.957-20.924-8.974-22.742
				C96.188,7.248,68.322,10.194,53.377,32.431z"/>
		</g>
		<g>
			<path fill="#F9F9F9" d="M101.32,38.5l-1.333-16.021c0,0,22.333-11.979,50.333,5.688c-1,6.333-5.333,20.667-5.333,20.667
				S121.468,34.5,101.32,38.5z"/>
			<path d="M145.279,49.597l-0.552-0.336c-0.18-0.109-18.206-10.965-35.903-10.965c-2.591,0-5.083,0.234-7.406,0.695l-0.549,0.109
				l-1.407-16.906l0.289-0.155c0.307-0.165,7.643-4.028,19.254-4.028c10.72,0,21.346,3.275,31.582,9.733l0.279,0.176l-0.052,0.325
				c-0.994,6.294-5.305,20.589-5.348,20.733L145.279,49.597z M108.824,37.295c16.221,0,32.667,8.95,35.867,10.786
				c0.816-2.742,4.138-14.055,5.083-19.667c-9.987-6.24-20.338-9.403-30.769-9.403c-10.098,0-17.024,3.057-18.491,3.764l1.259,15.13
				C104.001,37.5,106.37,37.295,108.824,37.295z"/>
		</g>
		<g>
			<path fill="#F9F9F9" d="M173.642,24.29c0,0-5,10.543-5.333,16.21c11.667,4,40.781,11.667,49.557,10.333
				c1.443-10.333,5.587-24.333,5.587-24.333S178.975,27.079,173.642,24.29z"/>
			<path d="M215.444,51.487c-10.919,0-36.596-6.845-47.298-10.514l-0.359-0.124l0.022-0.379c0.335-5.699,5.175-15.961,5.381-16.396
				l0.223-0.47l0.461,0.241c2.677,1.4,17.332,2.203,40.205,2.203c5.539,0,9.365-0.05,9.367-0.05l0.678-0.009l-0.192,0.651
				c-0.042,0.14-4.15,14.083-5.571,24.261l-0.051,0.369l-0.369,0.056C217.244,51.434,216.404,51.487,215.444,51.487z
				 M168.836,40.152c10.855,3.678,35.92,10.335,46.608,10.335c0.745,0,1.409-0.033,1.979-0.1c1.294-8.941,4.543-20.536,5.361-23.38
				c-1.332,0.014-4.533,0.042-8.706,0.042c-15.913,0-35.48-0.373-40.188-2.108C172.979,26.932,169.288,35.233,168.836,40.152z"/>
		</g>
		<g>
			<path fill="#F9F9F9" d="M264.666,73.5c0,0,10.742-15.769,12.871-16.218s34.797,23.444,44.963,25.831
				c-5.834,8.054-15,15.815-15,15.815S268.666,83.833,264.666,73.5z"/>
			<path d="M307.596,99.502l-0.277-0.108c-1.594-0.62-39.086-15.295-43.119-25.714l-0.095-0.245l0.148-0.217
				c1.812-2.661,10.967-15.958,13.181-16.425l0.17-0.017c1.139,0,5.547,2.817,13.893,8.214
				c10.583,6.844,25.077,16.218,31.117,17.636l0.731,0.172l-0.441,0.608c-5.802,8.01-14.99,15.826-15.082,15.903L307.596,99.502z
				 M265.231,73.559c4.182,9.552,38.7,23.42,42.172,24.794c1.404-1.216,9.037-7.941,14.261-14.946
				c-6.52-1.934-19.889-10.58-30.709-17.577c-6.105-3.949-12.418-8.032-13.351-8.054C276.442,58.024,270.422,65.956,265.231,73.559z
				"/>
		</g>
		<g>
			<path fill="#F9F9F9" d="M496.989,93.167c0,0,3.344,8.766,3.011,13.883c11.667,0.117,54.355-3.788,56.355-8.121
				C555.021,90.596,550,79.434,550,79.434S513.311,93.167,496.989,93.167z"/>
			<path d="M500.533,107.552C500.532,107.552,500.533,107.552,500.533,107.552l-1.067-0.008l0.034-0.527
				c0.322-4.948-2.946-13.585-2.979-13.672l-0.258-0.678h0.726c16.044,0,52.47-13.564,52.836-13.701l0.438-0.165l0.192,0.428
				c0.051,0.112,5.064,11.319,6.393,19.621l0.023,0.15l-0.063,0.138C554.577,103.973,511.487,107.552,500.533,107.552z
				 M500.521,106.552h0.012c5.717,0,18.788-0.861,31.751-2.457c19.668-2.421,23.005-4.523,23.548-5.263
				c-1.197-7.238-5.186-16.665-6.101-18.767c-4.168,1.533-36.478,13.234-52.029,13.592
				C498.45,95.742,500.605,102.152,500.521,106.552z"/>
		</g>
		<g>
			<path fill="#F9F9F9" d="M380.116,173.104c0,0-7.494,9.273-11.693,10.822c7.443,8.778,24.497,21.478,24.496,29.38
				c7.916-0.744,21.198-9.213,21.198-9.213S389.579,177.31,380.116,173.104z"/>
			<path d="M392.419,213.855v-0.549c0.001-5.207-8.134-12.99-15.311-19.858c-3.452-3.302-6.711-6.422-9.066-9.199l-0.462-0.545
				l0.671-0.248c4.023-1.484,11.403-10.576,11.477-10.667l0.241-0.298l0.351,0.156c9.449,4.2,33.162,30.011,34.167,31.108
				l0.402,0.439l-0.502,0.32c-0.547,0.349-13.476,8.543-21.42,9.29L392.419,213.855z M369.244,184.112
				c2.282,2.61,5.335,5.531,8.556,8.613c7.429,7.108,15.104,14.451,15.595,20.023c6.871-0.913,17.508-7.261,19.946-8.761
				c-3.2-3.457-24.268-26.004-33.083-30.267C378.973,175.278,373.163,182.161,369.244,184.112z"/>
		</g>
		<g>
			<path fill="#F9F9F9" d="M706.666,49.833c0,0,0,16.333,0,17.333c5.667-1.333,53.668-11,60.334-8.667
				c2-8.667-1.004-18.742-1.004-18.742S737.666,40.5,706.666,49.833z"/>
			<path d="M706.166,67.798V49.462l0.355-0.107c30.709-9.246,59.178-10.089,59.462-10.097l0.383-0.01l0.109,0.367
				c0.124,0.417,3.019,10.302,1.012,18.998l-0.126,0.544l-0.526-0.185c-0.633-0.221-1.739-0.333-3.288-0.333
				c-12.901,0-51.518,7.78-56.767,9.016L706.166,67.798z M707.166,50.206V66.54c7.13-1.595,43.818-8.902,56.381-8.902
				c1.325,0,2.34,0.079,3.077,0.24c1.529-7.398-0.51-15.765-1.004-17.607C762.12,40.406,735.657,41.683,707.166,50.206z"/>
		</g>
	</g>
	<g id="Buch">
		<g>
			<path fill="#EBECEB" d="M56.504,114.753c0,0,37.655-63.017,37.496-63.9c-0.16-0.883-43.087-25.992-43.087-25.992
				s-2.669-2.199-3.667-2.383c-3.9,5.687-35.784,64.61-35.784,64.61s1.855,1.741,3.128,2.171
				C16.479,90.837,56.504,114.753,56.504,114.753z"/>
			<path d="M56.503,115.253c-0.087,0-0.176-0.023-0.256-0.071c-1.618-0.967-39.241-23.452-41.903-25.479
				c-1.352-0.5-3.148-2.178-3.226-2.25c-0.166-0.156-0.206-0.403-0.098-0.603c1.303-2.407,31.941-59.012,35.812-64.655
				c0.112-0.163,0.311-0.243,0.503-0.209c1.07,0.198,3.432,2.108,3.894,2.489c43.061,25.179,43.207,25.985,43.262,26.289
				c0.128,0.708-12.509,22.324-37.559,64.245C56.839,115.167,56.674,115.253,56.503,115.253z M12.088,86.981
				c0.646,0.567,1.848,1.53,2.662,1.805c0.059,0.02,0.113,0.05,0.16,0.09c1.455,1.215,27.477,16.857,41.421,25.191
				c10.14-16.973,35.303-59.271,37.089-63.086C90.965,49.05,66.819,34.745,50.66,25.293c-0.982-0.802-2.447-1.877-3.209-2.22
				C42.997,29.935,14.676,82.202,12.088,86.981z"/>
		</g>
		<g>
			<line fill="#FFFFFF" x1="50.394" y1="26.29" x2="16.012" y2="88.275"/>
			<path d="M16.011,88.775c-0.082,0-0.165-0.02-0.242-0.063c-0.241-0.134-0.329-0.438-0.194-0.68l34.382-61.985
				c0.134-0.241,0.437-0.33,0.68-0.194c0.241,0.134,0.329,0.438,0.194,0.68L16.449,88.518
				C16.357,88.682,16.187,88.775,16.011,88.775z"/>
		</g>
		<g>
			<g>
				<defs>
					
						<rect id="SVGID_1_" x="31.356" y="60.325" transform="matrix(-0.8684 -0.4959 0.4959 -0.8684 42.8675 152.7147)" width="20.687" height="20.688"/>
				</defs>
				<clipPath id="SVGID_2_">
					<use xlink:href="#SVGID_1_"  overflow="visible"/>
				</clipPath>
				<g clip-path="url(#SVGID_2_)">
					<defs>
						
							<rect id="SVGID_3_" x="31.356" y="60.325" transform="matrix(-0.8684 -0.4959 0.4959 -0.8684 42.8675 152.7147)" width="20.687" height="20.688"/>
					</defs>
					<clipPath id="SVGID_4_">
						<use xlink:href="#SVGID_3_"  overflow="visible"/>
					</clipPath>
					<g clip-path="url(#SVGID_4_)">
						<path fill="#231F20" d="M37.212,68.026c0,0-3.233,2.316-4.359,3.447c-0.744,0.747-2.241,3.274-2.264,3.457
							c-0.023,0.182,3.37,2.979,6.16,3.304c0,0,0.266-0.463,0.357-0.624c0.091-0.159,0.018-0.429-0.147-0.653
							c0.103,0.168,0.357,0.114,0.4-0.004c0.069-0.189,0.304-0.489,0.122-0.625c-0.183-0.137,0.063-0.11,0.145-0.112
							c0.083-0.002,0.138-0.441,0.119-0.55s0.11-0.279,0.172-0.471c0.061-0.193,0.188-0.528,0.206-1.073
							c0.012-0.365,0.869-1.55,1.746-2.09c-0.086-0.049-0.497-0.154-1.756-1.881C37.53,69.379,37.212,68.026,37.212,68.026"/>
					</g>
					<g clip-path="url(#SVGID_4_)">
						<path fill="#F5952F" d="M40.911,71.334c0,0-0.29,0.477-0.497,0.342c-0.123,0.044-0.159,0.349-0.354,0.237
							c-0.197-0.112,0.169,0.544-0.867-0.348c-1.528-1.534-1.899-3.074-2.056-3.777c0,0,0.03-0.422,0.333-0.298
							c0.303,0.125,0.148-0.175,0.148-0.175s0.013-0.334,0.536-0.198c-0.037-0.135-0.085-0.548,0.214-0.475
							c0.3,0.074,0.472,0.086,0.475-0.019c0,0,0.107-0.341,0.323-0.21c0.263,0.645,1.888,4.062,2.28,4.877
							c0,0-0.162-0.062-0.317,0.046c0,0-0.047,0.096-0.132,0.046"/>
					</g>
					<g clip-path="url(#SVGID_4_)">
						<path fill="#231F20" d="M44.226,74.042c-0.318-1.241-1.607-5.553-4.582-10.884c-0.998-1.754-1.603-2.877-1.77-2.087
							c-0.046,0.215-0.058,0.456-0.052,0.693c-0.065,0.901,0.126,1.909,0.72,3.535c2.067,5.658,3.684,7.873,3.684,7.873
							c0.264,0.383,0.511,0.685,0.733,0.926C43.879,75.287,44.535,75.245,44.226,74.042"/>
					</g>
				</g>
				<g clip-path="url(#SVGID_2_)">
					<defs>
						
							<rect id="SVGID_5_" x="31.356" y="60.325" transform="matrix(-0.8684 -0.4959 0.4959 -0.8684 42.8675 152.7147)" width="20.687" height="20.688"/>
					</defs>
					<clipPath id="SVGID_6_">
						<use xlink:href="#SVGID_5_"  overflow="visible"/>
					</clipPath>
					<g clip-path="url(#SVGID_6_)">
						<path fill="#F5952F" d="M42.384,68.204c-0.086,0.135-0.269,0.172-0.407,0.083c-0.138-0.089-0.181-0.27-0.094-0.404
							c0.086-0.135,0.268-0.172,0.406-0.083C42.428,67.888,42.471,68.069,42.384,68.204"/>
					</g>
					<g clip-path="url(#SVGID_6_)">
						<path fill="#F5952F" d="M41.911,68.435c-0.006-0.004-0.013-0.008-0.02-0.012c-0.103-0.065-0.175-0.166-0.202-0.284
							c-0.028-0.12-0.007-0.241,0.058-0.344c0.133-0.209,0.415-0.27,0.63-0.132c0.213,0.136,0.278,0.418,0.144,0.627
							C42.391,68.493,42.123,68.557,41.911,68.435 M42.202,67.935c-0.069-0.04-0.147-0.022-0.183,0.035
							c-0.018,0.028-0.024,0.062-0.016,0.096c0.008,0.035,0.03,0.065,0.062,0.085l0.007,0.004c0.062,0.036,0.14,0.019,0.177-0.039
							C42.287,68.057,42.266,67.976,42.202,67.935L42.202,67.935z"/>
					</g>
					<g clip-path="url(#SVGID_6_)">
						<path fill="#F5952F" d="M43.515,66.948c-0.104,0.162-0.32,0.21-0.482,0.105c-0.163-0.104-0.21-0.319-0.106-0.482
							c0.104-0.162,0.32-0.209,0.482-0.106C43.571,66.57,43.618,66.786,43.515,66.948"/>
					</g>
					<g clip-path="url(#SVGID_6_)">
						<path fill="#F5952F" d="M42.967,67.204c-0.007-0.004-0.015-0.009-0.022-0.014c-0.115-0.073-0.194-0.188-0.224-0.32
							c-0.029-0.133-0.005-0.27,0.069-0.384c0.151-0.237,0.464-0.31,0.705-0.156c0.237,0.152,0.307,0.469,0.155,0.706
							C43.504,67.265,43.204,67.338,42.967,67.204 M43.313,66.597c-0.087-0.049-0.197-0.022-0.25,0.062
							c-0.027,0.042-0.036,0.092-0.025,0.141c0.011,0.049,0.04,0.091,0.082,0.117l0.009,0.005c0.086,0.049,0.196,0.022,0.25-0.062
							c0.056-0.087,0.03-0.203-0.057-0.259L43.313,66.597z"/>
					</g>
					<g clip-path="url(#SVGID_6_)">
						<path fill="#F5952F" d="M44.666,65.396c-0.126,0.198-0.39,0.256-0.588,0.129c-0.198-0.126-0.256-0.39-0.129-0.588
							c0.126-0.198,0.39-0.255,0.588-0.129C44.734,64.935,44.792,65.198,44.666,65.396"/>
					</g>
					<g clip-path="url(#SVGID_6_)">
						<path fill="#F5952F" d="M44.016,65.677c-0.008-0.005-0.017-0.01-0.025-0.015c-0.132-0.084-0.223-0.216-0.257-0.369
							c-0.034-0.153-0.005-0.31,0.079-0.442c0.174-0.272,0.537-0.354,0.811-0.178c0.133,0.084,0.224,0.215,0.258,0.369
							c0.034,0.153,0.005,0.31-0.079,0.442C44.633,65.748,44.288,65.833,44.016,65.677 M44.438,64.938
							c-0.122-0.069-0.277-0.031-0.353,0.087c-0.038,0.059-0.051,0.13-0.036,0.199c0.015,0.069,0.056,0.128,0.116,0.166l0.011,0.007
							c0.122,0.07,0.277,0.032,0.353-0.086c0.038-0.06,0.051-0.13,0.036-0.199c-0.016-0.069-0.056-0.128-0.116-0.167L44.438,64.938z
							"/>
					</g>
					<g clip-path="url(#SVGID_6_)">
						<path fill="#F5952F" d="M46.665,64.272c-0.147,0.23-0.452,0.297-0.682,0.15c-0.23-0.147-0.297-0.452-0.15-0.682
							c0.147-0.23,0.453-0.297,0.682-0.15C46.745,63.738,46.812,64.043,46.665,64.272"/>
					</g>
					<g clip-path="url(#SVGID_6_)">
						<path fill="#F5952F" d="M45.925,64.576c-0.01-0.005-0.02-0.011-0.029-0.017c-0.147-0.094-0.25-0.24-0.287-0.412
							c-0.038-0.171-0.006-0.346,0.088-0.494c0.193-0.304,0.596-0.397,0.905-0.199c0.147,0.095,0.25,0.24,0.287,0.412
							c0.038,0.17,0.006,0.346-0.088,0.494C46.613,64.654,46.228,64.749,45.925,64.576 M46.414,63.718
							c-0.154-0.088-0.349-0.04-0.444,0.109c-0.048,0.075-0.064,0.164-0.044,0.251c0.019,0.086,0.071,0.16,0.145,0.208
							c0.16,0.102,0.36,0.054,0.459-0.101c0.048-0.074,0.063-0.164,0.044-0.25c-0.019-0.087-0.07-0.161-0.145-0.208
							C46.423,63.724,46.418,63.721,46.414,63.718"/>
					</g>
					<g clip-path="url(#SVGID_6_)">
						<path fill="#F5952F" d="M43.856,69.242c-0.079,0.122-0.242,0.158-0.364,0.08c-0.124-0.079-0.159-0.242-0.081-0.364
							c0.078-0.123,0.242-0.159,0.364-0.081C43.898,68.956,43.935,69.119,43.856,69.242"/>
					</g>
					<g clip-path="url(#SVGID_6_)">
						<path fill="#F5952F" d="M43.423,69.468c-0.006-0.003-0.012-0.006-0.019-0.011c-0.096-0.061-0.162-0.156-0.187-0.267
							c-0.025-0.111-0.004-0.225,0.057-0.32c0.126-0.197,0.388-0.256,0.588-0.129c0.197,0.126,0.255,0.39,0.129,0.587
							C43.87,69.52,43.62,69.581,43.423,69.468 M43.688,69.013c-0.052-0.03-0.111-0.015-0.141,0.031
							c-0.015,0.023-0.02,0.051-0.014,0.077c0.006,0.026,0.022,0.049,0.045,0.064l0.004,0.003c0.047,0.027,0.108,0.012,0.137-0.034
							C43.75,69.107,43.736,69.043,43.688,69.013L43.688,69.013z"/>
					</g>
					<g clip-path="url(#SVGID_6_)">
						<path fill="#F5952F" d="M46.491,69.377c-0.099,0.155-0.304,0.2-0.458,0.101c-0.155-0.099-0.2-0.304-0.101-0.458
							c0.098-0.154,0.304-0.199,0.458-0.101C46.544,69.018,46.59,69.223,46.491,69.377"/>
					</g>
					<g clip-path="url(#SVGID_6_)">
						<path fill="#F5952F" d="M45.967,69.627c-0.007-0.004-0.014-0.009-0.021-0.013c-0.111-0.071-0.188-0.181-0.216-0.31
							c-0.028-0.129-0.004-0.261,0.067-0.372c0.146-0.229,0.448-0.3,0.682-0.149c0.111,0.071,0.188,0.181,0.216,0.31
							c0.029,0.128,0.005,0.261-0.066,0.372C46.485,69.687,46.195,69.758,45.967,69.627 M46.296,69.051
							c-0.079-0.045-0.179-0.021-0.228,0.056c-0.025,0.038-0.033,0.084-0.023,0.128c0.01,0.044,0.036,0.082,0.075,0.107l0.008,0.004
							c0.079,0.044,0.178,0.021,0.228-0.056c0.024-0.038,0.033-0.084,0.023-0.128c-0.01-0.044-0.037-0.082-0.075-0.107
							L46.296,69.051z"/>
					</g>
					<g clip-path="url(#SVGID_6_)">
						<path fill="#F5952F" d="M50.158,71.506c-0.137,0.213-0.421,0.276-0.635,0.14c-0.213-0.137-0.276-0.421-0.14-0.635
							s0.421-0.276,0.635-0.139C50.232,71.008,50.295,71.292,50.158,71.506"/>
					</g>
					<g clip-path="url(#SVGID_6_)">
						<path fill="#F5952F" d="M49.464,71.798c-0.009-0.005-0.018-0.011-0.027-0.016c-0.14-0.089-0.236-0.228-0.272-0.39
							s-0.006-0.329,0.083-0.469c0.184-0.288,0.57-0.372,0.858-0.188c0.14,0.089,0.236,0.228,0.271,0.39
							c0.036,0.162,0.006,0.328-0.083,0.468C50.116,71.872,49.751,71.962,49.464,71.798 M49.918,71
							c-0.138-0.079-0.313-0.036-0.398,0.099c-0.043,0.067-0.057,0.146-0.04,0.224c0.018,0.078,0.063,0.145,0.131,0.188l0.013,0.008
							c0.138,0.078,0.313,0.036,0.399-0.099c0.042-0.067,0.057-0.147,0.04-0.225c-0.017-0.078-0.064-0.144-0.131-0.187L49.918,71z"
							/>
					</g>
					<g clip-path="url(#SVGID_6_)">
						<path fill="#F5952F" d="M48.279,65.267c0.905,0.517,1.707-0.887,0.801-1.404C48.176,63.346,47.374,64.75,48.279,65.267"/>
					</g>
				</g>
				<g clip-path="url(#SVGID_2_)">
					<defs>
						
							<rect id="SVGID_7_" x="31.356" y="60.325" transform="matrix(-0.8684 -0.4959 0.4959 -0.8684 42.8675 152.7147)" width="20.687" height="20.688"/>
					</defs>
					<clipPath id="SVGID_8_">
						<use xlink:href="#SVGID_7_"  overflow="visible"/>
					</clipPath>
					<g clip-path="url(#SVGID_8_)">
						<path fill="#231F20" d="M48.131,72.708c-0.25-0.143-0.338-0.463-0.195-0.713c0.143-0.25,0.463-0.338,0.713-0.195
							c0.25,0.143,0.338,0.463,0.195,0.714S48.382,72.851,48.131,72.708"/>
					</g>
					<g clip-path="url(#SVGID_8_)">
						<path fill="#231F20" d="M47.516,72.062c-0.079,0.124-0.244,0.16-0.367,0.081c-0.124-0.079-0.16-0.243-0.081-0.367
							c0.079-0.124,0.243-0.16,0.367-0.081C47.559,71.774,47.595,71.938,47.516,72.062"/>
					</g>
					<g clip-path="url(#SVGID_8_)">
						<path fill="#231F20" d="M47.061,72.325c-0.007-0.004-0.014-0.008-0.021-0.012c-0.217-0.139-0.281-0.429-0.142-0.646
							c0.138-0.218,0.426-0.282,0.646-0.143c0.105,0.067,0.178,0.172,0.205,0.294c0.027,0.122,0.004,0.247-0.062,0.353
							C47.552,72.381,47.277,72.449,47.061,72.325 M47.327,71.865c-0.033-0.019-0.07-0.01-0.088,0.019
							c-0.019,0.03-0.01,0.069,0.02,0.088l0.002,0.001c0.03,0.017,0.067,0.008,0.085-0.021c0.013-0.02,0.011-0.039,0.009-0.049
							C47.353,71.896,47.346,71.877,47.327,71.865L47.327,71.865z"/>
					</g>
					<g clip-path="url(#SVGID_8_)">
						<path fill="#231F20" d="M46.213,71.183c-0.051,0.08-0.156,0.103-0.235,0.052c-0.08-0.051-0.103-0.156-0.052-0.235
							c0.051-0.079,0.155-0.103,0.235-0.051C46.241,70.999,46.264,71.104,46.213,71.183"/>
					</g>
					<g clip-path="url(#SVGID_8_)">
						<path fill="#231F20" d="M45.886,71.415c-0.006-0.003-0.011-0.006-0.016-0.01c-0.173-0.11-0.224-0.341-0.113-0.514
							c0.11-0.172,0.34-0.225,0.515-0.113c0.172,0.111,0.224,0.341,0.113,0.514C46.276,71.459,46.058,71.513,45.886,71.415
							 M46.086,71.063c-0.016-0.008-0.034-0.004-0.043,0.011c-0.01,0.015-0.005,0.035,0.01,0.044
							c0.016,0.009,0.035,0.005,0.043-0.009c0.01-0.015,0.005-0.035-0.009-0.044L46.086,71.063z"/>
					</g>
					<g clip-path="url(#SVGID_8_)">
						<path fill="#231F20" d="M42.278,65.013c-0.066,0.091-0.193,0.111-0.285,0.045c-0.091-0.066-0.112-0.193-0.045-0.285
							c0.065-0.091,0.193-0.111,0.285-0.045C42.324,64.795,42.344,64.922,42.278,65.013"/>
					</g>
					<g clip-path="url(#SVGID_8_)">
						<path fill="#231F20" d="M41.932,65.211c-0.012-0.007-0.023-0.014-0.034-0.022c-0.079-0.058-0.131-0.142-0.146-0.238
							c-0.015-0.097,0.008-0.193,0.065-0.272c0.118-0.162,0.345-0.201,0.511-0.081c0.163,0.118,0.2,0.348,0.082,0.511
							C42.299,65.26,42.094,65.304,41.932,65.211 M42.137,64.859c-0.022-0.013-0.045-0.008-0.059,0.01
							c-0.008,0.012-0.009,0.023-0.007,0.031c0.001,0.008,0.005,0.019,0.017,0.028l0.004,0.003c0.019,0.01,0.042,0.005,0.055-0.012
							C42.162,64.899,42.157,64.873,42.137,64.859L42.137,64.859z"/>
					</g>
					<g clip-path="url(#SVGID_8_)">
						<path fill="#231F20" d="M42.557,63.737c-0.088,0.122-0.258,0.148-0.38,0.06c-0.122-0.088-0.149-0.258-0.061-0.38
							s0.259-0.149,0.38-0.061S42.646,63.616,42.557,63.737"/>
					</g>
					<g clip-path="url(#SVGID_8_)">
						<path fill="#231F20" d="M42.123,63.954c-0.014-0.008-0.027-0.017-0.04-0.026c-0.194-0.14-0.237-0.412-0.096-0.605
							c0.139-0.192,0.409-0.239,0.605-0.096c0.193,0.14,0.237,0.412,0.097,0.605C42.558,64.011,42.314,64.064,42.123,63.954
							 M42.392,63.481c-0.049-0.027-0.111-0.014-0.144,0.032c-0.036,0.049-0.025,0.118,0.025,0.154
							c0.051,0.037,0.119,0.024,0.154-0.025c0.036-0.049,0.024-0.118-0.025-0.154C42.398,63.485,42.395,63.483,42.392,63.481"/>
					</g>
					<g clip-path="url(#SVGID_8_)">
						<path fill="#231F20" d="M51.059,67.398c-0.092,0.144-0.283,0.185-0.426,0.093c-0.143-0.092-0.186-0.282-0.094-0.425
							c0.092-0.144,0.283-0.186,0.426-0.094C51.108,67.064,51.15,67.254,51.059,67.398"/>
					</g>
					<g clip-path="url(#SVGID_8_)">
						<path fill="#231F20" d="M50.545,67.675c-0.007-0.004-0.015-0.008-0.022-0.013c-0.115-0.074-0.194-0.188-0.224-0.321
							c-0.029-0.133-0.005-0.27,0.069-0.384c0.151-0.237,0.465-0.308,0.705-0.155c0.115,0.073,0.194,0.188,0.224,0.32
							c0.029,0.133,0.005,0.27-0.068,0.385C51.082,67.736,50.782,67.81,50.545,67.675 M50.855,67.142
							c-0.054-0.03-0.116-0.015-0.147,0.033c-0.015,0.024-0.02,0.052-0.014,0.08c0.006,0.028,0.022,0.052,0.046,0.067l0.005,0.003
							c0.049,0.028,0.112,0.013,0.142-0.035c0.015-0.024,0.021-0.052,0.014-0.081C50.897,67.181,50.88,67.157,50.855,67.142
							L50.855,67.142z"/>
					</g>
					<g clip-path="url(#SVGID_8_)">
						<path fill="#231F20" d="M43.331,62.577c-0.113,0.156-0.332,0.191-0.488,0.078c-0.156-0.113-0.191-0.332-0.078-0.487
							c0.113-0.156,0.332-0.191,0.488-0.078C43.409,62.203,43.443,62.421,43.331,62.577"/>
					</g>
					<g clip-path="url(#SVGID_8_)">
						<path fill="#231F20" d="M42.774,62.852c-0.017-0.01-0.034-0.021-0.05-0.033c-0.12-0.087-0.198-0.214-0.221-0.36
							c-0.023-0.146,0.012-0.291,0.098-0.41c0.177-0.244,0.52-0.305,0.77-0.123c0.246,0.179,0.301,0.524,0.123,0.77
							C43.329,62.924,43.019,62.991,42.774,62.852 M43.12,62.245c-0.065-0.038-0.147-0.02-0.192,0.042
							c-0.022,0.031-0.032,0.07-0.026,0.109c0.006,0.039,0.027,0.073,0.059,0.096c0.066,0.048,0.158,0.033,0.206-0.033
							c0.047-0.066,0.033-0.158-0.033-0.206C43.129,62.25,43.125,62.247,43.12,62.245"/>
					</g>
				</g>
			</g>
		</g>
		<g>
			<path d="M45.666,48.703l1.497,0.84l-0.792,6.931l0.042,0.023l5.481-4.301l1.496,0.84l-4.156,7.41l-1.005-0.563l3.417-6.092
				l-0.021-0.012l-5.918,4.688l-0.67-0.376l0.916-7.494l-0.021-0.012l-3.416,6.091l-1.005-0.563L45.666,48.703z"/>
			<path d="M53.288,56.996c0.402-0.095,0.812-0.106,1.229-0.033c0.417,0.074,0.801,0.208,1.149,0.404
				c0.362,0.203,0.649,0.425,0.86,0.662s0.356,0.479,0.438,0.728c0.082,0.247,0.106,0.492,0.075,0.736
				c-0.032,0.244-0.107,0.474-0.229,0.69l-1.42,2.532c-0.098,0.175-0.185,0.337-0.26,0.487c-0.075,0.15-0.143,0.296-0.204,0.437
				l-0.837-0.47c0.12-0.263,0.25-0.521,0.391-0.771l-0.021-0.012c-0.39,0.202-0.765,0.291-1.125,0.263s-0.729-0.147-1.105-0.358
				c-0.23-0.129-0.432-0.284-0.606-0.465c-0.174-0.18-0.305-0.377-0.391-0.59c-0.087-0.214-0.124-0.439-0.111-0.674
				c0.013-0.236,0.089-0.477,0.226-0.721c0.18-0.32,0.402-0.549,0.667-0.686c0.264-0.136,0.558-0.203,0.882-0.199
				c0.324,0.002,0.668,0.067,1.033,0.193c0.364,0.127,0.736,0.296,1.112,0.507l0.691,0.388l0.118-0.209
				c0.07-0.126,0.116-0.265,0.138-0.418s0.012-0.308-0.029-0.464c-0.041-0.155-0.118-0.304-0.231-0.446
				c-0.113-0.142-0.271-0.269-0.474-0.382c-0.182-0.103-0.351-0.174-0.505-0.215c-0.156-0.042-0.304-0.067-0.445-0.077
				c-0.141-0.011-0.276-0.007-0.406,0.013c-0.129,0.019-0.254,0.036-0.374,0.052L53.288,56.996z M54.842,60.455
				c-0.223-0.125-0.458-0.241-0.706-0.348c-0.247-0.106-0.487-0.18-0.717-0.217c-0.231-0.038-0.443-0.028-0.636,0.028
				c-0.193,0.058-0.344,0.184-0.453,0.379c-0.161,0.286-0.18,0.545-0.059,0.779c0.121,0.232,0.346,0.441,0.674,0.625
				c0.257,0.145,0.502,0.225,0.732,0.239c0.23,0.015,0.44-0.017,0.63-0.094c0.189-0.077,0.356-0.187,0.502-0.331
				c0.145-0.143,0.264-0.299,0.358-0.466l0.176-0.313L54.842,60.455z"/>
			<path d="M59.038,59.424l0.942,0.528l-0.429,0.764l0.021,0.012c0.268-0.197,0.594-0.297,0.979-0.297
				c0.385,0.001,0.77,0.108,1.153,0.323c0.237,0.134,0.445,0.298,0.624,0.495c0.179,0.196,0.307,0.417,0.385,0.662
				c0.078,0.246,0.098,0.517,0.062,0.812c-0.038,0.295-0.148,0.606-0.332,0.935l-1.791,3.192l-0.941-0.528l1.644-2.931
				c0.129-0.23,0.208-0.444,0.237-0.645c0.029-0.199,0.02-0.378-0.028-0.538s-0.127-0.301-0.237-0.423
				c-0.111-0.121-0.239-0.223-0.386-0.305c-0.195-0.11-0.395-0.181-0.598-0.212c-0.203-0.031-0.405-0.013-0.606,0.052
				c-0.202,0.066-0.397,0.184-0.584,0.354s-0.36,0.398-0.521,0.685l-1.432,2.554l-0.942-0.528L59.038,59.424z"/>
			<path d="M66.471,70.115l-0.941-0.528l0.428-0.765l-0.021-0.012c-0.268,0.198-0.594,0.298-0.979,0.298
				c-0.385-0.001-0.77-0.108-1.153-0.324c-0.244-0.137-0.454-0.303-0.629-0.497s-0.301-0.414-0.379-0.66
				c-0.078-0.245-0.099-0.517-0.062-0.812c0.038-0.295,0.148-0.607,0.332-0.936l1.791-3.191l0.942,0.528l-1.644,2.931
				c-0.129,0.23-0.209,0.445-0.238,0.645c-0.028,0.198-0.02,0.378,0.028,0.538c0.049,0.159,0.128,0.3,0.238,0.422
				s0.238,0.224,0.385,0.307c0.196,0.109,0.395,0.18,0.598,0.21c0.203,0.031,0.405,0.014,0.606-0.051
				c0.202-0.066,0.397-0.184,0.584-0.354c0.188-0.17,0.361-0.397,0.521-0.684l1.433-2.554l0.942,0.528L66.471,70.115z"/>
			<path d="M70.357,66.571c0.403-0.096,0.812-0.106,1.229-0.033c0.417,0.074,0.8,0.208,1.15,0.404
				c0.362,0.203,0.649,0.424,0.86,0.662c0.21,0.236,0.357,0.479,0.438,0.727c0.082,0.248,0.106,0.493,0.075,0.737
				c-0.031,0.243-0.107,0.474-0.229,0.689l-1.421,2.533c-0.098,0.174-0.185,0.337-0.26,0.487c-0.076,0.15-0.144,0.296-0.203,0.437
				l-0.838-0.47c0.121-0.264,0.251-0.521,0.392-0.771l-0.021-0.012c-0.389,0.203-0.764,0.291-1.124,0.264
				c-0.36-0.028-0.729-0.147-1.106-0.359c-0.23-0.129-0.432-0.283-0.606-0.464s-0.305-0.377-0.391-0.591
				c-0.087-0.213-0.124-0.438-0.111-0.674c0.013-0.236,0.088-0.476,0.226-0.721c0.18-0.32,0.401-0.549,0.666-0.685
				c0.265-0.137,0.559-0.203,0.883-0.2c0.323,0.002,0.668,0.068,1.033,0.194c0.364,0.127,0.735,0.296,1.112,0.507l0.691,0.388
				l0.117-0.21c0.071-0.125,0.117-0.265,0.139-0.418c0.021-0.152,0.011-0.307-0.029-0.463c-0.041-0.156-0.118-0.305-0.231-0.446
				s-0.271-0.269-0.474-0.382c-0.182-0.103-0.35-0.174-0.505-0.215c-0.156-0.042-0.305-0.068-0.445-0.078
				c-0.141-0.011-0.276-0.006-0.406,0.013c-0.13,0.02-0.254,0.036-0.373,0.053L70.357,66.571z M71.912,70.03
				c-0.224-0.125-0.459-0.242-0.706-0.348c-0.248-0.107-0.487-0.18-0.718-0.218c-0.231-0.038-0.443-0.028-0.636,0.029
				s-0.344,0.184-0.453,0.379c-0.16,0.286-0.18,0.545-0.058,0.778c0.121,0.233,0.346,0.441,0.674,0.626
				c0.257,0.145,0.502,0.225,0.732,0.239c0.23,0.015,0.44-0.017,0.63-0.094c0.19-0.077,0.357-0.188,0.502-0.331
				c0.145-0.143,0.265-0.299,0.358-0.466l0.176-0.314L71.912,70.03z"/>
			<path d="M77.837,66.089l0.942,0.529l-4.438,7.912l-0.941-0.529L77.837,66.089z"/>
		</g>
	</g>
	<path d="M78.009,129.579c0,0-2.994-5.516-2.522-10.812c0.846-10.106,3.114-12.979,2.871-14.033c0.057-2.519-4.47-7.263-4.993-8.439
		s-2.338-4.144-3.008-4.281c-1.473,2.294-5.288,8.998-5.288,8.998s-5.057-4.395-8.025-10.041c-2.199-0.45-3.714,3.974-2.905,6.736
		c0.809,2.762,3.765,4.741,4.787,5.713c1.022,0.973,1.602,2.618,1.452,3.352c-0.15,0.733-1.252,2.34-1.252,2.34l-0.808,1.739
		c0,0,0.399,0.658,0.242,2.917c-0.157,2.258,6.034,5.442,7.586,6.065c1.552,0.623,0.904,0.942,2.52,2s3.601,10.432,3.831,11.548"/>
</g>
<g id="Sparcles">
	<g id="orange">
		<g>
			<path fill="#F7941E" d="M307.5,156.5c1.935,0,1.935-3,0-3S305.565,156.5,307.5,156.5L307.5,156.5z"/>
		</g>
		<g>
			<path fill="#F7941E" d="M345.5,140.5c1.935,0,1.935-3,0-3S343.565,140.5,345.5,140.5L345.5,140.5z"/>
		</g>
		<g>
			<path fill="#F7941E" d="M374,155.326c1.935,0,1.935-3,0-3S372.065,155.326,374,155.326L374,155.326z"/>
		</g>
		<g>
			<path fill="#F7941E" d="M404,172c1.935,0,1.935-3,0-3S402.065,172,404,172L404,172z"/>
		</g>
		<g>
			<path fill="#F7941E" d="M437.5,160c1.935,0,1.935-3,0-3S435.565,160,437.5,160L437.5,160z"/>
		</g>
		<g>
			<path fill="#F7941E" d="M339,171.5c1.935,0,1.935-3,0-3S337.065,171.5,339,171.5L339,171.5z"/>
		</g>
		<g>
			<path fill="#F7941E" d="M425.665,218.013c1.935,0,1.935-3,0-3S423.73,218.013,425.665,218.013L425.665,218.013z"/>
		</g>
		<g>
			<path fill="#F7941E" d="M460.898,272.938c1.935,0,1.935-3,0-3S458.964,272.938,460.898,272.938L460.898,272.938z"/>
		</g>
		<g>
			<path fill="#F7941E" d="M484.956,317.93c1.935,0,1.935-3,0-3S483.021,317.93,484.956,317.93L484.956,317.93z"/>
		</g>
		<g>
			<path fill="#F7941E" d="M479,133c1.935,0,1.935-3,0-3S477.065,133,479,133L479,133z"/>
		</g>
		<g>
			<path fill="#F7941E" d="M490.815,184c1.935,0,1.935-3,0-3S488.88,184,490.815,184L490.815,184z"/>
		</g>
		<g>
			<path fill="#F7941E" d="M314,150c1.935,0,1.935-3,0-3S312.065,150,314,150L314,150z"/>
		</g>
		<g>
			<path fill="#F7941E" d="M325.5,145c1.935,0,1.935-3,0-3S323.565,145,325.5,145L325.5,145z"/>
		</g>
		<g>
			<path fill="#F7941E" d="M335.5,199c1.935,0,1.935-3,0-3S333.565,199,335.5,199L335.5,199z"/>
		</g>
		<g>
			<path fill="#F7941E" d="M437.88,288.143c1.935,0,1.935-3,0-3S435.945,288.143,437.88,288.143L437.88,288.143z"/>
		</g>
		<g>
			<path fill="#F7941E" d="M419.524,282.847c1.935,0,1.935-3,0-3S417.589,282.847,419.524,282.847L419.524,282.847z"/>
		</g>
		<g>
			<path fill="#F7941E" d="M380.557,263.511c1.935,0,1.935-3,0-3S378.622,263.511,380.557,263.511L380.557,263.511z"/>
		</g>
		<g>
			<path fill="#F7941E" d="M360.5,245.5c1.935,0,1.935-3,0-3S358.565,245.5,360.5,245.5L360.5,245.5z"/>
		</g>
		<g>
			<path fill="#F7941E" d="M345.5,231c1.935,0,1.935-3,0-3S343.565,231,345.5,231L345.5,231z"/>
		</g>
		<g>
			<path fill="#F7941E" d="M631,119.5c1.935,0,1.935-3,0-3S629.065,119.5,631,119.5L631,119.5z"/>
		</g>
		<g>
			<path fill="#F7941E" d="M631,124.873c1.935,0,1.935-3,0-3S629.065,124.873,631,124.873L631,124.873z"/>
		</g>
		<g>
			<path fill="#F7941E" d="M597.5,147.5c1.935,0,1.935-3,0-3S595.565,147.5,597.5,147.5L597.5,147.5z"/>
		</g>
		<g>
			<path fill="#F7941E" d="M504.5,145c1.935,0,1.935-3,0-3S502.565,145,504.5,145L504.5,145z"/>
		</g>
		<g>
			<path fill="#F7941E" d="M448.5,124c1.935,0,1.935-3,0-3S446.565,124,448.5,124L448.5,124z"/>
		</g>
		<g>
			<path fill="#F7941E" d="M660.112,360.001c1.935,0,1.935-3,0-3S658.178,360.001,660.112,360.001L660.112,360.001z"/>
		</g>
		<g>
			<path fill="#F7941E" d="M640.572,356.875c1.935,0,1.935-3,0-3S638.638,356.875,640.572,356.875L640.572,356.875z"/>
		</g>
		<g>
			<path fill="#F7941E" d="M648.384,353.12c1.935,0,1.935-3,0-3S646.449,353.12,648.384,353.12L648.384,353.12z"/>
		</g>
		<g>
			<path fill="#F7941E" d="M550,358c1.935,0,1.935-3,0-3S548.065,358,550,358L550,358z"/>
		</g>
		<g>
			<path fill="#F7941E" d="M752,358.212c1.935,0,1.935-3,0-3S750.065,358.212,752,358.212L752,358.212z"/>
		</g>
		<g>
			<path fill="#F7941E" d="M952.024,318.972c1.935,0,1.935-3,0-3S950.09,318.972,952.024,318.972L952.024,318.972z"/>
		</g>
		<g>
			<path fill="#F7941E" d="M945.357,325.639c1.935,0,1.935-3,0-3S943.423,325.639,945.357,325.639L945.357,325.639z"/>
		</g>
		<g>
			<path fill="#F7941E" d="M912.691,338.972c1.935,0,1.935-3,0-3S910.757,338.972,912.691,338.972L912.691,338.972z"/>
		</g>
		<g>
			<path fill="#F7941E" d="M952.024,336.972c1.935,0,1.935-3,0-3S950.09,336.972,952.024,336.972L952.024,336.972z"/>
		</g>
		<g>
			<path fill="#F7941E" d="M912.691,110.784c1.935,0,1.935-3,0-3S910.757,110.784,912.691,110.784L912.691,110.784z"/>
		</g>
		<g>
			<path fill="#F7941E" d="M852.642,108.549c1.935,0,1.935-3,0-3S850.707,108.549,852.642,108.549L852.642,108.549z"/>
		</g>
		<g>
			<path fill="#F7941E" d="M861.253,110.195c1.935,0,1.935-3,0-3S859.318,110.195,861.253,110.195L861.253,110.195z"/>
		</g>
		<g>
			<path fill="#F7941E" d="M872.421,110.625c1.935,0,1.935-3,0-3S870.486,110.625,872.421,110.625L872.421,110.625z"/>
		</g>
		<g>
			<path fill="#F7941E" d="M866.667,102.667c1.935,0,1.935-3,0-3S864.732,102.667,866.667,102.667L866.667,102.667z"/>
		</g>
		<g>
			<path fill="#F7941E" d="M858.667,94.667c1.935,0,1.935-3,0-3S856.732,94.667,858.667,94.667L858.667,94.667z"/>
		</g>
		<g>
			<path fill="#F7941E" d="M845.333,94.667c1.935,0,1.935-3,0-3S843.398,94.667,845.333,94.667L845.333,94.667z"/>
		</g>
		<g>
			<path fill="#F7941E" d="M834.667,102.667c1.935,0,1.935-3,0-3S832.732,102.667,834.667,102.667L834.667,102.667z"/>
		</g>
		<g>
			<path fill="#F7941E" d="M821.333,106.667c1.935,0,1.935-3,0-3S819.398,106.667,821.333,106.667L821.333,106.667z"/>
		</g>
		<g>
			<path fill="#F7941E" d="M869.333,76c1.935,0,1.935-3,0-3S867.398,76,869.333,76L869.333,76z"/>
		</g>
		<g>
			<path fill="#F7941E" d="M758,360c1.935,0,1.935-3,0-3S756.065,360,758,360L758,360z"/>
		</g>
		<g>
			<path fill="#F7941E" d="M774.667,379.333c1.935,0,1.935-3,0-3S772.732,379.333,774.667,379.333L774.667,379.333z"/>
		</g>
		<g>
			<path fill="#F7941E" d="M782,373.333c1.935,0,1.935-3,0-3S780.065,373.333,782,373.333L782,373.333z"/>
		</g>
		<g>
			<path fill="#F7941E" d="M804.667,373.333c1.935,0,1.935-3,0-3S802.732,373.333,804.667,373.333L804.667,373.333z"/>
		</g>
	</g>
	<g id="black">
		<g>
			<path d="M443,224.667c1.935,0,1.935-3,0-3S441.065,224.667,443,224.667L443,224.667z"/>
		</g>
		<g>
			<path d="M466.5,224.667c1.935,0,1.935-3,0-3S464.565,224.667,466.5,224.667L466.5,224.667z"/>
		</g>
		<g>
			<path d="M479,218.013c1.935,0,1.935-3,0-3S477.065,218.013,479,218.013L479,218.013z"/>
		</g>
		<g>
			<path d="M642.667,110.784c1.935,0,1.935-3,0-3S640.732,110.784,642.667,110.784L642.667,110.784z"/>
		</g>
		<g>
			<path d="M676,124.873c1.935,0,1.935-3,0-3S674.065,124.873,676,124.873L676,124.873z"/>
		</g>
		<g>
			<path d="M668.929,349.105c1.935,0,1.935-3,0-3S666.994,349.105,668.929,349.105L668.929,349.105z"/>
		</g>
		<g>
			<path fill="#F7941E" d="M496.989,361.52c1.935,0,1.935-3,0-3S495.054,361.52,496.989,361.52L496.989,361.52z"/>
		</g>
		<g>
			<path fill="#F7941E" d="M483.386,357.885c1.935,0,1.935-3,0-3S481.451,357.885,483.386,357.885L483.386,357.885z"/>
		</g>
		<g>
			<path fill="#F7941E" d="M478.625,353.212c1.935,0,1.935-3,0-3S476.69,353.212,478.625,353.212L478.625,353.212z"/>
		</g>
		<g>
			<path fill="#F7941E" d="M490.14,360.259c1.935,0,1.935-3,0-3S488.205,360.259,490.14,360.259L490.14,360.259z"/>
		</g>
		<g>
			<path d="M542.5,128.5c1.935,0,1.935-3,0-3S540.565,128.5,542.5,128.5L542.5,128.5z"/>
		</g>
		<g>
			<path d="M398.5,248c1.935,0,1.935-3,0-3S396.565,248,398.5,248L398.5,248z"/>
		</g>
		<g>
			<path d="M408.5,246c1.935,0,1.935-3,0-3S406.565,246,408.5,246L408.5,246z"/>
		</g>
		<g>
			<path d="M418.5,246c1.935,0,1.935-3,0-3S416.565,246,418.5,246L418.5,246z"/>
		</g>
		<g>
			<path d="M308,166c1.935,0,1.935-3,0-3S306.065,166,308,166L308,166z"/>
		</g>
		<g>
			<path d="M314.5,165.5c1.935,0,1.935-3,0-3S312.565,165.5,314.5,165.5L314.5,165.5z"/>
		</g>
		<g>
			<path d="M322.5,173.5c1.935,0,1.935-3,0-3S320.565,173.5,322.5,173.5L322.5,173.5z"/>
		</g>
		<g>
			<path d="M471.184,306.847c1.935,0,1.935-3,0-3S469.249,306.847,471.184,306.847L471.184,306.847z"/>
		</g>
	</g>
</g>
</svg>
