<?xml version="1.0" encoding="utf-8"?>
<!-- Generator: Adobe Illustrator 16.0.0, SVG Export Plug-In . SVG Version: 6.00 Build 0)  -->
<!DOCTYPE svg PUBLIC "-//W3C//DTD SVG 1.1//EN" "http://www.w3.org/Graphics/SVG/1.1/DTD/svg11.dtd">
<svg version="1.1" id="Ebene_3" opacity="0.3" xmlns="http://www.w3.org/2000/svg" xmlns:xlink="http://www.w3.org/1999/xlink"
	 x="0px" y="0px" width="1169.854px" height="421.947px" viewBox="0 0 1169.854 421.947"
	 enable-background="new 0 0 1169.854 421.947" xml:space="preserve">
<polyline fill="none" stroke="#0094AC" stroke-linecap="round" stroke-linejoin="round" stroke-miterlimit="10" points="
	309.282,79.665 309.282,98.564 327.032,88.451 309.74,76.647 309.74,96.096 327.032,89.492 309.282,77.155 311.113,79.441 
	310.444,80.893 311.994,80.058 310.268,82.707 313.438,80.566 309.916,85.9 315.727,81.255 310.092,87.787 316.291,82.417 
	310.479,90.037 318.157,82.707 310.162,91.554 319.284,82.562 310.304,93.048 319.707,83.832 310.057,94.717 319.848,84.884 
	310.409,95.625 320.869,85.464 311.184,96.278 321.503,86.299 313.931,95.226 322.524,86.609 315.481,94.5 322.947,87.279 
	318.791,92.214 323.757,87.787 321.186,91.234 324.919,88.585 "/>
<path fill="none" stroke="#0094AC" stroke-linecap="round" stroke-linejoin="round" stroke-miterlimit="10" d="M321.855,65.073
	c0,0-20.182-0.568-24.805,12.157c-5.464,15.039,0.514,30.569,19.154,32.036c10.86,0.885,22.602-7.734,20.915-21.81
	c-1.174-10.095-2.381-15.189-9.5-20.521c-4.183-3.625-18.312-5.63-26.532,2.19c-8.219,7.821-12.245,20.81-1.982,33.626
	c9.394,11.73,30.822,9.241,36.766-2.63c5.944-11.873,4.036-32.916-19.3-35.261"/>
<polygon fill="none" stroke="#0094AC" stroke-linecap="round" stroke-linejoin="round" stroke-miterlimit="10" points="
	252.574,39.333 398.657,23.5 398.657,154.5 252.157,130.5 251.749,38.417 251.74,37.833 400.657,23.5 400.657,157 253.657,132 "/>
<path d="M224.522,118.702c0,0-25.325,8.963-54.615,9.274c-0.01-0.945-1.3-2.303,4.46-2.647c5.761-0.343,29.454-2.768,38.816-6.506
	C222.547,115.084,224.746,117.52,224.522,118.702z"/>
<path d="M201.407,99.812c0,0-14.528,2.235-19.461,4.885c-4.165-13.894-6.981-19.774-17.46-33.55c0,0,17.314-15.776,35.307-16.581
	C199.792,54.566,201.87,94.469,201.407,99.812z"/>
<path fill="#F7941E" d="M207.04,120.614c0,0,0.704-0.718-1.554-1.521c-0.549-0.489-0.221-0.777,0.389-1.208
	c0.609-0.431,1.158-2.138-0.289-2.761c0.066-0.449,0.039-0.851-0.437-1.082c0.536-0.69,1.179-1.959-0.198-2.802
	c-1.376-0.842-1.291-1.6-0.914-1.792c0.375-0.193,0.18-0.806-0.271-1.107c-0.15-0.755-0.648-0.914-1.928-1.326
	c1.104-0.508,2.193-2.67,0.694-3.623c-1.5-0.953-0.105-0.896,0.081-1.229c0.186-0.334,0.13-1.136-0.538-1.742
	c-0.024-0.106-0.335-0.63-0.668-0.608c-3.043,0.208-15.358,0.934-20.134,5.513c0,0-1.631,1.653-0.438,2.703
	c0.507,0.986,0.593,1.329,0.972,1.371c0.379,0.044,0.689,0.418,0.621,0.631c-0.069,0.214-0.357,0.867,0.141,1.027
	s0.407,0.443-0.003,0.743c-0.411,0.301-0.971,2.042,0.179,2.373c1.149,0.33,0.61,0.666,0.215,1.403
	c-0.394,0.735,0.323,1.438,0.545,2.333c0.222,0.896,0.741,0.746,0.98,1.1c0.24,0.351-0.049,0.887-0.497,1.057
	c-0.447,0.169-0.852,1.059-0.364,1.373c0.488,0.313,0.886,1.029,0.616,1.256c-0.27,0.229-0.216,1.262,0.397,1.656
	C184.636,124.352,201.505,122.251,207.04,120.614z"/>
<path d="M302.491,109.333c0,0,1.776-3.975,1.333-4.637c-0.441-0.663-1.551-2.532-1.551-2.532s0.155-0.107-0.648-1.196
	c-0.591-0.801-1.967-0.469-1.967-0.469s15.27-11.51,14.167-12.833c-0.762-0.914-16.921,8.742-19.333,11
	c-1.339,1.568-7.05,7.128-7.134,8.631c-0.37,6.651,0.735,8.607,0.735,8.607s-0.368,3.458-1.691,4.341
	C285.077,121.128,258.157,148,258.157,148l-42.667,6.333c0,0-4.899,2.733-8.395,2.971c-1.251-2.5-0.962-8.672-0.962-8.672
	s-20.309,0-22.516,0c0,0,7.876,5.222,7.837,8.533c-0.039,3.31-5.483,5.958-6.366,6.179c-0.882,0.221-33.619,37.372-35.605,41.786
	c-1.987,4.414,47.35,11.919,47.35,11.919s1.643,2.869,1.643,4.414s-4.855,2.649-4.855,2.649s-2.208-2.427-2.648-2.207
	c-0.439,0.221,0.674,3.73,2.648,4.855c1.547,0.881,5.93-0.604,5.93-0.604s-0.893,0.058-1.918,2.525
	c-1.324,1.986-1.915,3.536-4.794,10.583c-5.54,13.553-8.321,33.844-10.251,44.876c-1.912,13.755-1.336,15.018-1.115,16.783
	c3.047-6.107,10.347-15.269,12.112-19.24c-0.44,15.668-11.216,124.722-11.216,126.929c1.103-0.221,0.44,0.883,0.22,2.206
	c-0.221,1.325-5.113,6.621-5.555,10.153c3.87,0.777,17.521,0.883,18.625,0c0,0,2.142-2.394-3.139-7.772
	c-2.148-2.188-5.077-4.587-1.325-4.587c0.882-17.436,7.945-126.312,9.931-132.712c0.673-2.056,0,0,0,0s-1.497,26.541-0.122,28.898
	c1.545,2.648,6.134-19.552,6.134-19.552s5.465,121.937,5.465,125.248v1.765c0,0-2.648,6.181-2.648,9.05
	c4.414,1.104,26.59,0.439,26.59,0.439s6.621-0.221,7.283-1.325c0.662-1.103-16.659-7.722-19.528-8.604
	c-2.868-0.882-6.179-2.648-1.544-3.089c-1.104-18.538-9.177-143.467-8.956-145.232c0.22-1.767,1.809-32.231,1.809-33.997
	c0.792-5.297-0.605-26.197-0.825-31.493c-0.221-5.294-0.193-25.982,0.027-26.645c0.22-0.663,41.267-11.044,45.681-13.03
	c4.414-1.986,28.852-30.731,31.817-36.82c0.27-0.556-0.166-1.194-0.022-1.782c0.735-3.017,2.173-3.7,4.705-5.231
	C300.991,112.082,302.491,109.333,302.491,109.333z M164.933,202.039c1.544-0.662,20.985-22.039,26.522-23.834
	c3.786,5.517,8.125,32.002,8.125,32.002c0.002,0.662-1.492,0.294-2.142-0.628C189.629,207.669,163.592,202.613,164.933,202.039z"/>
</svg>
