<?xml version="1.0" encoding="utf-8"?>
<!-- Generator: Adobe Illustrator 15.0.2, SVG Export Plug-In . SVG Version: 6.00 Build 0)  -->
<!DOCTYPE svg PUBLIC "-//W3C//DTD SVG 1.1//EN" "http://www.w3.org/Graphics/SVG/1.1/DTD/svg11.dtd">
<svg version="1.1" id="Ebene_1" xmlns="http://www.w3.org/2000/svg" xmlns:xlink="http://www.w3.org/1999/xlink" x="0px" y="0px"
	 width="839px" height="354px" viewBox="-15 7.5 839 354" enable-background="new -15 7.5 839 354" xml:space="preserve">
<g id="Ebene_2">
	<path stroke="#FFFFFF" stroke-width="0.2174" stroke-miterlimit="10" d="M383.141,181.025c0,0-51.65,39.371-118.833,61.764
		c-0.722-2.167-4.695-4.336,8.308-9.393c13.003-5.056,65.737-28.17,84.519-43.703C375.916,174.162,382.779,178.137,383.141,181.025z
		"/>
	<path d="M315.959,154.658c0,0-31.785,15.892-41.176,25.644c-19.866-28.895-30.702-40.342-65.014-64.292
		c0,0,28.172-49.122,68.986-64.291C278.755,51.72,313.07,142.017,315.959,154.658z"/>
	<path d="M371.581,352.589c0,0-6.141-55.621-28.895-60.317c-22.755-4.696-24.922-6.502-27.089-8.668
		c2.89,6.86,10.113,12.641,13.002,14.086c2.89,1.444,4.695,5.054,4.695,6.86c0,0-2.215-1.443-10.137,2.35
		c-7.921,3.793-61.018,39.91-95.872,72.779c-33.523,9.458-63.013,17.521-88.13,25.645c0,0-13.636,3.163-17.248,3.341
		c0.351,2.009,0.813,2.979,0.813,2.979s-6.321,0.631-14.448-2.438c0,0-6.546-3.522-8.443-5.689
		c-1.896-2.167-4.876-5.281-12.731-5.011c-7.856,0.27-26.006,2.301-30.612,1.896c0.949,3.792,7.721,5.961,15.17,5.281
		c7.45-0.677,15.035,0.68,15.035,2.846c0,2.167-29.663,17.202-32.644,19.639c-12.596,3.116-50.657,15.441-47.542,25.6
		c2.032-0.136,3.928-1.354,6.367-2.844c2.438-1.49,25.734-11.513,35.757-13.272c-16.524,6.636-28.985,12.865-32.401,16.735
		c-3.804,4.309,5.719,3.443,5.719,2.902c0,0,28.308-12.324,38.196-14.898c9.887-2.572,44.427-20.587,45.916-21.807
		c1.491-1.219,7.992-4.334,16.931-3.251c0.677,1.897,2.302,5.418,2.302,5.418s89.936-26.818,103.481-29.527
		c2.844-0.405,5.282-1.896,7.314-4.335c0,0,81.403-62.575,82.894-63.93c1.49-1.354,10.294-7.721,12.055-0.812
		c1.761,6.907,6.23,66.233,7.043,70.837c1.576,18.687,3.251,29.664-0.271,35.486c0,0-13.68,12.057-28.173,49.574
		c-5.147,12.461-15.848,33.455-52.554,62.441c0,0-1.035,1.011-5.282,2.571c-4.199,2.167-11.513,3.521-5.553,4.74
		c5.959,1.219,23.025,0.678,37.112-10.021c14.087-10.7,27.902-27.496,27.225-23.298c-0.677,4.199-2.979,8.128-5.553,11.241
		c-2.573,3.117-23.703,30.884-28.037,38.196c-4.334,7.314-6.096,7.585-4.741,12.732c1.354,5.146,2.573,11.783,3.116,15.848
		c0.541,4.062,0.541,4.876,4.74,2.031c4.199-2.845,20.994-17.066,30.475-34.675c1.49-3.114,2.574-4.334,2.574-4.334
		s0.948-1.625-5.689,15.17c-6.637,16.797-84.383,199.919-101.043,256.265c0,0,1.805,0.409,1.715,2.122
		c-0.09,1.715,0.453,3.161-2.076,5.057c-2.529,1.896-14.538,6.951-30.521,29.979c0.09,0.812,0.182,0.813,1.896,0.995
		c1.716,0.18,67.543,0.813,68.446,0.45c0.902-0.361-1.264-2.979-5.418-4.875c-4.154-1.896-24.652-10.655-26.096-14.721
		c-1.444-4.062-2.438-8.669,0.181-9.752c2.619-1.083,4.606-0.9,6.682,0.091c2.98-6.771,49.122-130.027,59.145-152.782
		c10.023-22.756,58.784-134.635,70.974-156.306c13.273,14.357,33.862,39.82,60.681,86.144c-1.354,21.131-2.709,28.444-8.396,224.842
		c1.352,0.541,3.791,0.271,3.791,0.271s0.54,2.709-2.71,8.398c-3.252,5.688-6.893,10.334-6.893,15.479c0,0-0.423,2.89,2.286,3.32
		c2.712,0.432,74.495,0,74.495,0s3.928-1.736-1.761-5.121c-5.688-3.387-9.211-5.824-33.455-11.377
		c-5.28-1.354-17.606-3.929-18.149-10.564c1.897,0.135,4.742,0.406,4.742,0.406s4.604-207.505,4.062-220.912
		c-0.135-6.639-1.625-9.889-3.656-13.004c-2.03-3.115-46.053-86.821-54.855-98.198c-3.252-5.013-7.179-30.477-7.314-34.945
		c-0.135-4.47-2.032-37.654-1.083-41.582c0.949-3.928,17.065-52.011,17.336-53.231c0.271-1.218,6.502-18.826,6.639-35.351
		c0.135-16.524,0.406-18.149,0.406-18.149s-1.627-0.542,3.112-0.678c4.742-0.135,123.664-7.585,126.644-8.668
		c2.979-1.084,88.311-39.551,90.479-39.145c0.34-0.644,1.387-1.389,4.707-1.219c0,0,44.732,2.709,50.014,2.03
		c5.283-0.677,32.234-4.739,36.978-4.876c4.196-0.406,2.643-2.031,2.1-2.371c0,0-5.012-1.287-23.908,0
		c-1.147,0.137-0.812-0.609,0.681-1.15c1.487-0.543,16.793-3.521,24.244-3.387c0.948,0,1.69-1.15,0.608-1.692
		s-10.092-2.438-28.646,0c-1.828,0.135-12.259,1.829-12.056,1.151c2.777-1.287,26.886-14.154,30.881-15.373
		c0.947-0.406,1.558-1.49,0.068-2.168c-1.49-0.678-12.664,0.203-33.387,11.648c-1.22,0.609-1.828,0.745-3.656,0.947
		c-1.83,0.203-20.928,1.625-31.832-0.608c-2.369-0.203-2.617-2.591-1.963-5.012c1.151-4.267,28.172-13.681,24.651-18.896
		c0,0-0.608-1.082-1.426-0.812c-0.812,0.271-12.729,6.501-18.621,8.06c-5.893,1.557-11.58,2.504-14.969,6.026
		c-3.385,3.521-8.668,14.899-9.887,18.421c-0.541,1.557-2.101,4.268-3.928,5.011c-1.56-1.083-2.912-2.708-2.912-2.708
		s0.067-0.068-77.068,32.372c-1.693,0.745-3.59,1.287-5.756,1.151c-2.168-0.135-110.998-3.454-120.48-2.1
		c-2.031,0.271-6.365,1.354-6.975,0.406s-2.168-13.951-21.875-24.854c0,0-1.219-0.406-2.167-0.338
		c6.23,9.277,10.294,22.077,10.498,28.781C372.416,313.31,373.523,343.244,371.581,352.589z"/>
	<path d="M640.652,128.042l1.355-10.288l-4.522-0.453v4.522c0,0-12.211,0.34-17.862-6.105c-0.229-2.939,0.451-4.07-0.906-5.878
		c-1.354-1.809-7.232-4.749-10.626-9.498c-3.393-4.749-14.697-17.863-6.785-45.451c-1.47-1.243-3.843-5.201-1.13-10.627
		c4.04-8.082,12.437-12.889,12.437-12.889s1.811-4.183-0.111-4.296c-1.923-0.113-16.692,8.657-23.292,32.787
		c-7.234,26.457,11.533,55.514,29.509,62.184C631.833,128.72,640.652,128.042,640.652,128.042z"/>
	<path d="M681.155,97.43l7.122,6.19c0,0,13.312-11.448,8.001-43.755c-5.628-34.225-43.644-43.416-49.408-42.51
		c-1.131,0-2.94,3.053-2.26,4.635c0.676,1.583,2.372,5.087,2.372,5.087s16.961,2.94,27.136,13.116
		c5.427,5.428,13.003,15.941,13.793,27.248c0.264,3.765,0.538,18.711-4.862,26.457l-2.317,3.108L681.155,97.43z"/>
	<g>
		<g>
			<path fill="#F7941E" d="M674.252,188.648c-2.383,3.576-5.434,6.856-8.226,10.129c-3.194,3.744-10.925-2.446-14.526-3.325
				c-3.865-0.943-12.581,1.808-11.09,7.229c0.666,2.422,3.336,3.328,5.486,3.767c1.972,0.401,4.113,0.168,6.104,0.437
				c2.87,0.387,5.528,2.1,7.595,4.026c4.941,4.612,0.762,9.382-1.062,14.099c-1.267,3.274-1.464,6.364-1.237,9.85
				c0.102,1.56,2.538,1.568,2.436,0c-0.282-4.357,0.312-7.799,2.459-11.702c1.303-2.366,2.72-4.931,2.228-7.746
				c-1.125-6.438-7.101-10.246-13.248-11.075c-0.616-0.092-1.237-0.131-1.863-0.115c-2.727,0.358-4.248-1.334-4.565-5.082
				c3.127-2.201,6.813-1.537,10.062-0.037c2.446,1.129,4.771,3.685,7.63,3.779c2.912,0.098,4.441-1.357,6.27-3.499
				c2.626-3.077,5.407-6.132,7.654-9.504C677.229,188.566,675.118,187.35,674.252,188.648L674.252,188.648z"/>
		</g>
	</g>
	<g>
		<g>
			<path fill="#F7941E" d="M603.987,128.084c-8.078,9.441-12.396,22.039-10.472,34.482c1.088,7.041,3.615,13.252,7.974,18.898
				c4.635,6.004,9.181,10.921,11.632,18.25c0.496,1.481,2.85,0.847,2.35-0.647c-3.979-11.891-14.601-19.237-18.342-31.203
				c-4.12-13.178-0.242-27.746,8.581-38.057C606.726,128.621,605.01,126.889,603.987,128.084L603.987,128.084z"/>
		</g>
	</g>
	<g>
		<g>
			<path fill="#F7941E" d="M633.724,168.404c-0.314,8.328-6.739,10.53-12.36,14.892c-4.263,3.306-6.117,7.683-7.61,12.743
				c-1.402,4.754-1.271,10.013,0.665,14.572c2.343,5.516,8.627,5.908,12.541,9.531c1.151,1.065,2.878-0.652,1.723-1.723
				c-3.906-3.615-9.22-4.025-12.159-9.039c-3.103-5.287-0.703-13.46,1.688-18.547c2.556-5.436,8.04-7.449,12.547-10.879
				c3.589-2.732,5.239-7.19,5.404-11.552C636.219,166.832,633.782,166.838,633.724,168.404L633.724,168.404z"/>
		</g>
	</g>
	<g>
		<g>
			<path fill="#F7941E" d="M627.275,134.592c4.939,11.109,19.862,12.958,27.859,21.126c2.951,3.013,5.375,8.638,0.254,11.115
				c-2.744,1.328-5.267,2.413-7.442,4.602c-4.789,4.817-4.911,12.404-9.392,17.469c-1.831,2.07-4.261,3.437-6.087,5.547
				c-1.716,1.984-2.907,4.332-3.895,6.74c-1.763,4.303,1.161,8.562,4.255,11.26c1.361,1.188,3.098,2.203,4.809,2.785
				c3.389,1.154,5.789,2.404,8.375,5.053c3.121,3.195,2.03,8.636,5.672,11.499c1.031,0.812,2.655-0.195,1.912-1.476
				c-2.57-4.434-5.104-9.191-9.123-12.496c-1.663-1.369-7.454-6.631-10.061-5.104c-3.46,2.026,13.73,15.031,15.39,16.151
				c1.188,0.803,2.385-0.934,1.477-1.913c-2.555-2.755-5.199-5.425-7.925-8.011c-3.117-2.957-7.637-5.112-10.248-8.461
				c-0.966-1.238-2.678,0.5-1.724,1.723c2.428,3.111,6.434,5.007,9.352,7.63c3.091,2.778,5.996,5.795,8.822,8.842
				c0.491-0.638,0.983-1.274,1.476-1.913c-3.33-2.248-6.565-4.71-9.355-7.611c-0.824-0.858-1.58-1.664-2.49-2.448
				c-0.459-0.394-0.914-0.79-1.365-1.192c-1.668-1.472-0.622-0.125-2.32-0.521c7.602,1.774,12.469,10.478,15.994,16.556
				c0.638-0.492,1.275-0.983,1.913-1.476c-3.166-2.489-2.229-7.34-4.738-10.373c-1.634-1.973-3.469-3.555-5.551-5.027
				c-1.938-1.372-4.593-1.577-6.688-2.68c-3.728-1.957-6.646-5.809-5.505-10.146c1.046-3.976,4.365-6.836,7.316-9.353
				c5.197-4.428,6.24-10.002,9.188-15.875c1.797-3.579,4.365-5.486,7.883-7.088c1.62-0.738,4.104-1.52,4.994-3.271
				c1.966-3.862-0.127-7.693-2.389-10.968c-6.944-10.059-23.363-10.286-28.539-21.922
				C628.741,131.929,626.643,133.17,627.275,134.592L627.275,134.592z"/>
		</g>
	</g>
	<g>
		<g>
			<path fill="#F7941E" d="M624.779,193.148c0.752,4.293,0.181,7.709,1.969,11.873c1.996,4.646,4.607,8.765,7.812,12.666
				c3.324,4.047,7.32,7.488,11.514,10.601c2.03,1.507,4.218,2.862,6.478,3.998c2.384,1.198,6.221,2.021,4.109,5.577
				c-0.804,1.354,1.303,2.578,2.104,1.229c1.049-1.765,1.947-4.438-0.031-6.025c-3.434-2.756-7.793-4.342-11.43-6.881
				c-5.771-4.031-10.792-9.334-14.694-15.168c-2.024-3.025-3.559-6.41-4.684-9.86c-0.922-2.826-0.292-5.778-0.795-8.653
				C626.858,190.956,624.511,191.613,624.779,193.148L624.779,193.148z"/>
		</g>
	</g>
	<g>
		<g>
			<path fill="#F7941E" d="M654.263,249.792c0.48-3.041,0.917-5.772,2.667-8.388c1.984-2.963,4.804-5.692,7.629-7.844
				c1.232-0.938,0.021-3.056-1.229-2.104c-2.916,2.221-5.439,4.814-7.718,7.682c-2.434,3.062-3.1,6.227-3.697,10.006
				C651.67,250.682,654.018,251.341,654.263,249.792L654.263,249.792z"/>
		</g>
	</g>
	<g>
		<g>
			<path fill="#F7941E" d="M655.018,190.586c-1.698,1.223-4.056,1.607-5.968,2.415c-2.79,1.179-5.177,2.726-6.995,5.179
				c-0.937,1.264,1.18,2.475,2.104,1.229c1.72-2.32,4.285-3.604,6.923-4.607c1.692-0.644,3.675-1.039,5.165-2.111
				C657.509,191.781,656.295,189.667,655.018,190.586L655.018,190.586z"/>
		</g>
	</g>
	<g>
		<g>
			<path fill="#F7941E" d="M670.908,158.552c1.14,3.119,2.376,6.195,3.58,9.288c2.068,5.318-7.382,8.497-10.719,10.393
				c-4.509,2.563-8.562,5.638-13.746,6.593c-3.689,0.68-7.687,0.6-10.659,3.169c-1.19,1.028,0.54,2.744,1.723,1.723
				c4.069-3.516,11.253-2.046,16.009-4.661c4.988-2.742,9.791-5.837,14.804-8.561c2.993-1.626,6.022-3.288,5.39-7.258
				c-0.619-3.879-2.684-7.65-4.03-11.335C672.723,156.442,670.368,157.073,670.908,158.552L670.908,158.552z"/>
		</g>
	</g>
	<g>
		<g>
			<path fill="#F7941E" d="M668.875,167.569c-4.015,1.607-7.23,4.031-9.996,7.354c-2.883,3.463-4.486,8.39-9.157,9.888
				c-1.488,0.479-0.853,2.83,0.648,2.35c3.195-1.025,5.277-3.299,7.178-5.973c3.39-4.771,6.29-8.993,11.977-11.27
				C670.963,169.341,670.335,166.984,668.875,167.569L668.875,167.569z"/>
		</g>
	</g>
	<path fill="#F7941E" d="M669.705,108.205c0,0-5.169,7.542-24.25,10.085c-0.083,3.731-0.038,9.771-0.038,9.771
		s22.062-0.669,30.722-12.682c4.169,4.183,14.008,14.188,14.008,14.188l8.901-8.395l-34.597-34.851l15.179-5.087
		c0,0,2.628-2.12-17.807-1.866c-1.612,0.424-1.158,1.188-1.895,2.629c-0.735,1.441-4.553,1.187-5.569,0.17
		c-1.018-1.018-3.054,1.356-3.477,4.324c-0.423,2.968,3.816,1.272,3.73,3.307c-0.083,2.036-3.224,1.357-3.224,3.308
		c0,1.95,1.866,2.543,0.171,5.341c-1.695,2.799-0.764,7.858,0.17,8.451c0.933,0.593,2.118,0.708,2.118,0.708l2.205-12.804
		L669.705,108.205z"/>
	<path fill="#F7941E" d="M344.319,198.363c0,0,1.086-2.174-4.703-2.35c-1.625-0.722-1.083-1.627,0-3.07s1.083-5.776-2.709-6.139
		c-0.181-1.084-0.542-1.988-1.806-2.168c0.723-1.986,1.264-5.382-2.528-6.302c-3.792-0.921-4.154-2.729-3.431-3.45
		c0.722-0.722-0.18-1.985-1.445-2.347c-0.904-1.625-2.167-1.625-5.417-1.625c2.166-1.987,3.07-7.767-1.084-8.851
		c-4.154-1.083-0.904-1.985-0.723-2.889c0.181-0.904-0.542-2.711-2.528-3.612c-0.132-0.227-1.236-1.2-1.986-0.902
		c-6.849,2.73-34.656,13.516-42.259,27.587c0,0-2.53,5.011,0.992,6.545c1.896,1.896,2.348,2.62,3.25,2.438
		c0.903-0.182,1.896,0.451,1.896,0.992c0,0.543-0.181,2.258,1.084,2.258s1.265,0.719,0.542,1.715
		c-0.723,0.994-0.723,5.42,2.167,5.328c2.89-0.09,1.897,1.082,1.535,3.068c-0.361,1.987,1.807,3.07,2.98,4.969
		c1.173,1.896,2.257,1.172,3.07,1.805s0.542,2.078-0.361,2.8c-0.904,0.722-1.175,3.067,0.18,3.43s2.8,1.716,2.348,2.438
		c-0.451,0.725,0.438,3.062,2.139,3.518C295.522,223.549,332.793,206.229,344.319,198.363z"/>
</g>
<g id="Ebene_3">
	<g>
		<g>
			<path fill="#F7941E" d="M605.352,177.416c2.262,0,2.262-3.506,0-3.506C603.091,173.91,603.091,177.416,605.352,177.416
				L605.352,177.416z"/>
		</g>
	</g>
	<g>
		<g>
			<path fill="#F7941E" d="M604.245,169.063c2.261,0,2.261-3.506,0-3.506S601.984,169.063,604.245,169.063L604.245,169.063z"/>
		</g>
	</g>
	<g>
		<g>
			<path fill="#F7941E" d="M651.803,254.686c2.262,0,2.262-3.506,0-3.506C649.542,251.18,649.542,254.686,651.803,254.686
				L651.803,254.686z"/>
		</g>
	</g>
	<g>
		<g>
			<path fill="#F7941E" d="M667.825,232.389c2.261,0,2.261-3.507,0-3.507S665.564,232.389,667.825,232.389L667.825,232.389z"/>
		</g>
	</g>
	<g>
		<g>
			<path fill="#F7941E" d="M672.938,229.064c2.262,0,2.262-3.506,0-3.506C670.677,225.559,670.678,229.064,672.938,229.064
				L672.938,229.064z"/>
		</g>
	</g>
	<g>
		<g>
			<path fill="#F7941E" d="M681.633,224.889c2.261,0,2.261-3.506,0-3.506S679.372,224.889,681.633,224.889L681.633,224.889z"/>
		</g>
	</g>
	<g>
		<g>
			<path fill="#F7941E" d="M678.734,186.45c2.261,0,2.261-3.507,0-3.507C676.473,182.943,676.474,186.45,678.734,186.45
				L678.734,186.45z"/>
		</g>
	</g>
	<g>
		<g>
			<path fill="#F7941E" d="M655.723,79.658c2.262,0,2.262-3.506,0-3.506C653.462,76.152,653.462,79.658,655.723,79.658
				L655.723,79.658z"/>
		</g>
	</g>
	<g>
		<g>
			<path fill="#F7941E" d="M648.138,79.572c2.262,0,2.262-3.506,0-3.506C645.877,76.066,645.877,79.572,648.138,79.572
				L648.138,79.572z"/>
		</g>
	</g>
	<g>
		<g>
			<path fill="#F7941E" d="M646.177,82.726c2.261,0,2.261-3.506,0-3.506S643.916,82.726,646.177,82.726L646.177,82.726z"/>
		</g>
	</g>
	<g>
		<g>
			<path fill="#F7941E" d="M644.132,76.163c2.261,0,2.261-3.506,0-3.506S641.871,76.163,644.132,76.163L644.132,76.163z"/>
		</g>
	</g>
	<g>
		<g>
			<path fill="#F7941E" d="M647.711,88.607c2.261,0,2.261-3.506,0-3.506S645.45,88.607,647.711,88.607L647.711,88.607z"/>
		</g>
	</g>
	<g>
		<g>
			<path fill="#F7941E" d="M651.376,87.669c2.261,0,2.261-3.506,0-3.506S649.115,87.669,651.376,87.669L651.376,87.669z"/>
		</g>
	</g>
	<g>
		<g>
			<path fill="#F7941E" d="M653.507,84.771c2.261,0,2.261-3.506,0-3.506S651.246,84.771,653.507,84.771L653.507,84.771z"/>
		</g>
	</g>
	<g>
		<g>
			<path fill="#F7941E" d="M657.342,85.709c2.261,0,2.261-3.506,0-3.506S655.081,85.709,657.342,85.709L657.342,85.709z"/>
		</g>
	</g>
	<g>
		<g>
			<path fill="#F7941E" d="M650.183,96.021c2.262,0,2.262-3.506,0-3.506C647.922,92.515,647.922,96.021,650.183,96.021
				L650.183,96.021z"/>
		</g>
	</g>
	<g>
		<g>
			<path fill="#F7941E" d="M650.438,102.925c2.262,0,2.262-3.506,0-3.506C648.177,99.419,648.178,102.925,650.438,102.925
				L650.438,102.925z"/>
		</g>
	</g>
	<g>
		<g>
			<path fill="#F7941E" d="M661.349,82.471c2.262,0,2.262-3.506,0-3.506C659.088,78.965,659.088,82.471,661.349,82.471
				L661.349,82.471z"/>
		</g>
	</g>
	<g>
		<g>
			<path fill="#F7941E" d="M594.358,123.04c2.261,0,2.261-3.506,0-3.506C592.097,119.534,592.098,123.04,594.358,123.04
				L594.358,123.04z"/>
		</g>
	</g>
	<g>
		<g>
			<path fill="#F7941E" d="M581.062,104.544c2.262,0,2.262-3.506,0-3.506C578.802,101.038,578.803,104.544,581.062,104.544
				L581.062,104.544z"/>
		</g>
	</g>
</g>
<g id="Ebene_4">
	<g>
		<g>
			<path fill="#F7941E" d="M697.683,215.615c3.028,0,3.028-4.695,0-4.695C694.655,210.92,694.654,215.615,697.683,215.615
				L697.683,215.615z"/>
		</g>
	</g>
	<g>
		<g>
			<path fill="#F7941E" d="M707.06,197.124c3.028,0,3.028-4.694,0-4.694C704.032,192.43,704.031,197.124,707.06,197.124
				L707.06,197.124z"/>
		</g>
	</g>
	<g>
		<g>
			<path fill="#F7941E" d="M558.871,181.876c3.028,0,3.028-4.695,0-4.695S555.843,181.876,558.871,181.876L558.871,181.876z"/>
		</g>
	</g>
	<g>
		<g>
			<path fill="#F7941E" d="M583.847,195.459c3.028,0,3.028-4.695,0-4.695C580.819,190.764,580.818,195.459,583.847,195.459
				L583.847,195.459z"/>
		</g>
	</g>
	<g>
		<g>
			<path fill="#F7941E" d="M611.188,162.858c3.028,0,3.028-4.695,0-4.695C608.16,158.163,608.16,162.858,611.188,162.858
				L611.188,162.858z"/>
		</g>
	</g>
	<g>
		<g>
			<path fill="#F7941E" d="M592.26,134.29c3.028,0,3.028-4.695,0-4.695C589.232,129.595,589.231,134.29,592.26,134.29L592.26,134.29
				z"/>
		</g>
	</g>
	<g>
		<g>
			<path fill="#F7941E" d="M586.915,110.366c3.028,0,3.028-4.695,0-4.695S583.887,110.366,586.915,110.366L586.915,110.366z"/>
		</g>
	</g>
</g>
<g id="Ebene_6">
	<g>
		<g>
			<path d="M637.771,26.228c2.261,0,2.261-3.506,0-3.506C635.51,22.722,635.511,26.228,637.771,26.228L637.771,26.228z"/>
		</g>
	</g>
	<g>
		<g>
			<path d="M634.095,120.613c2.261,0,2.261-3.506,0-3.506S631.834,120.613,634.095,120.613L634.095,120.613z"/>
		</g>
	</g>
	<g>
		<g>
			<path d="M626.857,118.339c2.261,0,2.261-3.506,0-3.506C624.596,114.833,624.597,118.339,626.857,118.339L626.857,118.339z"/>
		</g>
	</g>
	<g>
		<g>
			<path d="M601.802,51.815c2.261,0,2.261-3.506,0-3.506S599.541,51.815,601.802,51.815L601.802,51.815z"/>
		</g>
	</g>
	<g>
		<g>
			<path d="M603.138,43.399c2.262,0,2.262-3.506,0-3.506C600.877,39.893,600.877,43.399,603.138,43.399L603.138,43.399z"/>
		</g>
	</g>
	<g>
		<g>
			<path d="M609.932,40.784c2.262,0,2.262-3.506,0-3.506C607.671,37.278,607.671,40.784,609.932,40.784L609.932,40.784z"/>
		</g>
	</g>
	<g>
		<g>
			<path d="M616.947,35.439c2.261,0,2.261-3.506,0-3.506C614.686,31.933,614.688,35.439,616.947,35.439L616.947,35.439z"/>
		</g>
	</g>
	<g>
		<g>
			<path d="M617.504,29.185c2.261,0,2.261-3.506,0-3.506S615.243,29.185,617.504,29.185L617.504,29.185z"/>
		</g>
	</g>
	<g>
		<g>
			<path d="M623.74,30.776c2.261,0,2.261-3.506,0-3.506C621.479,27.27,621.479,30.776,623.74,30.776L623.74,30.776z"/>
		</g>
	</g>
	<g>
		<g>
			<path d="M625.743,25.432c2.261,0,2.261-3.506,0-3.506S623.482,25.432,625.743,25.432L625.743,25.432z"/>
		</g>
	</g>
	<g>
		<g>
			<path d="M629.642,29.071c2.262,0,2.262-3.506,0-3.506C627.381,25.565,627.381,29.071,629.642,29.071L629.642,29.071z"/>
		</g>
	</g>
	<g>
		<g>
			<path d="M635.877,23.271c2.261,0,2.261-3.506,0-3.506S633.616,23.271,635.877,23.271L635.877,23.271z"/>
		</g>
	</g>
</g>
<g id="Ebene_5">
	<g>
		<g>
			<path fill="#F7941E" d="M594.358,116.955c4.521,0,4.521-7.012,0-7.012C589.837,109.943,589.837,116.955,594.358,116.955
				L594.358,116.955z"/>
		</g>
	</g>
</g>
<g id="Ebene_7">
	<g>
		<g>
			<path d="M669.005,213.158c3.229,0,3.229-5.01,0-5.01C665.776,208.148,665.775,213.158,669.005,213.158L669.005,213.158z"/>
		</g>
	</g>
	<g>
		<g>
			<path d="M713.436,168.307c3.229,0,3.229-5.009,0-5.009C710.207,163.298,710.206,168.307,713.436,168.307L713.436,168.307z"/>
		</g>
	</g>
	<g>
		<g>
			<path d="M718.731,149.416c3.229,0,3.229-5.009,0-5.009C715.502,144.407,715.502,149.416,718.731,149.416L718.731,149.416z"/>
		</g>
	</g>
	<g>
		<g>
			<path d="M563.912,98.835c3.229,0,3.229-5.009,0-5.009C560.683,93.826,560.683,98.835,563.912,98.835L563.912,98.835z"/>
		</g>
	</g>
	<g>
		<g>
			<path d="M583.134,124.187c3.229,0,3.229-5.009,0-5.009C579.905,119.178,579.904,124.187,583.134,124.187L583.134,124.187z"/>
		</g>
	</g>
	<g>
		<g>
			<path d="M570.474,147.1c3.229,0,3.229-5.009,0-5.009C567.245,142.091,567.244,147.1,570.474,147.1L570.474,147.1z"/>
		</g>
	</g>
	<g>
		<g>
			<path d="M720.457,123.089c3.229,0,3.229-5.009,0-5.009C717.228,118.08,717.229,123.089,720.457,123.089L720.457,123.089z"/>
		</g>
	</g>
	<g>
		<g>
			<path d="M731.392,109.683c3.229,0,3.229-5.009,0-5.009C728.163,104.674,728.162,109.683,731.392,109.683L731.392,109.683z"/>
		</g>
	</g>
	<g>
		<g>
			<path d="M567.251,130.55c4.521,0,4.521-7.012,0-7.012S562.729,130.55,567.251,130.55L567.251,130.55z"/>
		</g>
	</g>
	<g>
		<g>
			<path d="M704.918,220.984c4.521,0,4.521-7.012,0-7.012C700.397,213.973,700.396,220.984,704.918,220.984L704.918,220.984z"/>
		</g>
	</g>
	<g>
		<g>
			<path d="M690.186,246.214c4.521,0,4.521-7.012,0-7.012C685.665,239.202,685.664,246.214,690.186,246.214L690.186,246.214z"/>
		</g>
	</g>
	<g>
		<g>
			<path d="M750.615,199.047c4.521,0,4.521-7.012,0-7.012C746.094,192.035,746.094,199.047,750.615,199.047L750.615,199.047z"/>
		</g>
	</g>
	<g>
		<g>
			<path d="M731.97,120.069c4.521,0,4.521-7.012,0-7.012C727.449,113.057,727.448,120.069,731.97,120.069L731.97,120.069z"/>
		</g>
	</g>
	<g>
		<g>
			<path d="M715.738,92.89c4.521,0,4.521-7.012,0-7.012C711.217,85.878,711.217,92.89,715.738,92.89L715.738,92.89z"/>
		</g>
	</g>
</g>
</svg>
